<?xml version="1.0" encoding="utf-8"?>
<!-- Generator: Adobe Illustrator 16.0.0, SVG Export Plug-In . SVG Version: 6.00 Build 0)  -->
<!DOCTYPE svg PUBLIC "-//W3C//DTD SVG 1.1//EN" "http://www.w3.org/Graphics/SVG/1.1/DTD/svg11.dtd">
<svg version="1.1" id="Layer_1" xmlns="http://www.w3.org/2000/svg" xmlns:xlink="http://www.w3.org/1999/xlink" x="0px" y="0px"
	 width="377.446px" height="535.891px" viewBox="0 0 377.446 535.891" enable-background="new 0 0 377.446 535.891"
	 xml:space="preserve">
<g>
	<g>
		<path fill="#F4B07D" d="M322.713,323.529C245.015,189.674,202.055,135.153,160.51,82.428c-13.67-17.35-27.807-35.29-43.146-56.042
			C96.006-2.504,55.274-8.61,26.386,12.744C-2.504,34.1-8.611,74.832,12.745,103.722c16.531,22.363,31.297,41.103,45.577,59.226
			c40.524,51.43,78.802,100.007,151.872,225.891c21.322,36.738,33.279,86.636,35.555,147.053h130.132
			c-0.449-14.75-1.343-29.118-2.716-43.042C366.67,426.985,349.695,370.019,322.713,323.529z"/>
	</g>
	<path fill="#282828" d="M324.066,322.743C246.312,188.792,203.318,134.228,161.739,81.459
		c-13.663-17.34-27.792-35.271-43.118-56.004L11.486,104.652c16.546,22.383,31.319,41.132,45.606,59.264
		c40.489,51.386,78.733,99.921,151.748,225.708c21.191,36.512,33.076,86.142,35.344,146.267h133.262
		c-0.449-14.802-1.346-29.222-2.724-43.195C368.205,426.607,351.162,369.428,324.066,322.743z"/>
</g>
</svg>
