<?xml version="1.0" encoding="utf-8"?>
<!-- Generator: Adobe Illustrator 16.0.0, SVG Export Plug-In . SVG Version: 6.00 Build 0)  -->
<!DOCTYPE svg PUBLIC "-//W3C//DTD SVG 1.1//EN" "http://www.w3.org/Graphics/SVG/1.1/DTD/svg11.dtd">
<svg version="1.1" id="Layer_1" xmlns="http://www.w3.org/2000/svg" xmlns:xlink="http://www.w3.org/1999/xlink" x="0px" y="0px"
	 width="1440px" height="700px" viewBox="0 0 1440 700" enable-background="new 0 0 1440 700" xml:space="preserve">
<rect fill="#054851" width="1440" height="700"/>
<path fill="#2D2D2D" d="M1011.8,0H820.1c-5.9,13.1-9.1,27.6-9.1,42.9v580h-199v-580c0-15.3-3.3-29.8-9.1-42.9H411.1
	c-5.9,13.1-9.1,27.6-9.1,42.9V700h1h209h199h210v-77.1v-580C1020.9,27.6,1017.7,13.1,1011.8,0z"/>
<path fill="#6C6D6D" d="M1198.9,0h-52.8c-0.4,1.8-0.6,3.6-0.6,5.5v86.6h-844V5.5c0-1.9-0.2-3.8-0.6-5.5h-52.8
	c-0.4,1.8-0.6,3.6-0.6,5.5V209c0,13.8,11.2,25,25,25h4c13.8,0,25-11.2,25-25v-19.4h844V209c0,13.8,11.2,25,25,25h4
	c13.8,0,25-11.2,25-25V5.5C1199.6,3.6,1199.3,1.8,1198.9,0z"/>
<path fill="#FCEBE3" d="M1134.9,219.9v-145h-823v145c0,13.8-11.2,25-25,25h-21v387c0,13.8,11.2,25,25,25h864c13.8,0,25-11.2,25-25
	v-387h-20C1146.1,244.9,1134.9,233.7,1134.9,219.9z"/>
<g>
	<path fill="#C1C1B8" d="M1045.2,229.6c0,0-15.7,1.7-18.3,1.7s20.7,15.6,20.7,15.6c23.3,10.4,59.6-1.7,59.6-1.7l-1.7-23.1
		C1091.5,241.8,1048.7,230.5,1045.2,229.6z"/>
	<path fill="#DEDECC" d="M1085.3,182.5h-14c-12.3,0-23.2,6.1-29.9,15.4c2.8-0.4,5.7-0.6,8.7-0.6h15.2c22.1,0,39.9,11.1,39.9,24.9
		c0,13.7-17.9,24.9-39.9,24.9h-15.2c-0.9,0-1.8,0-2.7-0.1c6.4,5.5,14.7,8.8,23.8,8.8h14c20.2,0,36.7-16.4,36.7-36.7
		C1122,198.9,1105.6,182.5,1085.3,182.5z"/>
	<circle fill="#DEDECC" cx="985.4" cy="233.1" r="88.6"/>
	<rect x="896.9" y="200.5" fill="#DEDECC" width="177.1" height="35.2"/>
	<circle fill="#CECEC0" cx="985.4" cy="202.1" r="88.6"/>
	<path fill="#2D2216" d="M985.4,125.8c-42.2,0-76.4,34.2-76.4,76.4c0,42.2,34.2,76.4,76.4,76.4s76.4-34.2,76.4-76.4
		C1061.8,159.9,1027.6,125.8,985.4,125.8z"/>
	<path fill="#382D22" d="M985.4,125.8c-42.2,0-76.4,34.2-76.4,76.4c0,27.3,14.3,51.3,35.9,64.8c34.7-8.7,97.1-37.1,83.4-127.9
		C1016.1,130.6,1001.4,125.8,985.4,125.8z"/>
</g>
<path fill="#212121" d="M818.2,135H508.3c-7.8,0-14.2,6.3-14.2,14.2v449.7c0,7.8,6.3,14.2,14.2,14.2h309.9c7.8,0,14.2-6.3,14.2-14.2
	V149.2C832.4,141.3,826,135,818.2,135z"/>
<rect x="517.9" y="156.5" fill="#383838" width="290.7" height="410.7"/>
<circle fill="#383838" cx="663.3" cy="589.7" r="14.2"/>
<path fill="none" stroke="#E5E5E5" stroke-width="1.0127" stroke-miterlimit="10" d="M665.9,582.5h-5.2c-2.5,0-4.5,2-4.5,4.5v5.2
	c0,2.5,2,4.5,4.5,4.5h5.2c2.5,0,4.5-2,4.5-4.5V587C670.4,584.6,668.4,582.5,665.9,582.5z"/>
</svg>
