<?xml version="1.0" encoding="utf-8"?>
<!-- Generator: Adobe Illustrator 16.0.0, SVG Export Plug-In . SVG Version: 6.00 Build 0)  -->
<!DOCTYPE svg PUBLIC "-//W3C//DTD SVG 1.1//EN" "http://www.w3.org/Graphics/SVG/1.1/DTD/svg11.dtd">
<svg version="1.1" id="Layer_1" xmlns="http://www.w3.org/2000/svg" xmlns:xlink="http://www.w3.org/1999/xlink" x="0px" y="0px"
	 width="290.7px" height="410.7px" viewBox="0 0 290.7 410.7" enable-background="new 0 0 290.7 410.7" xml:space="preserve">
<g>
	<rect x="0" fill="#EFEFEF" width="290.7" height="410.7"/>
	<g>
		<polygon fill="#302F2F" points="68.2,58.2 71.1,75.9 74.8,75.9 77.5,58 77.5,75.9 81.2,75.9 81.2,50.9 75.7,50.9 73.1,68.6 
			70.2,50.9 64.7,50.9 64.7,75.9 68.2,75.9 		"/>
		<polygon fill="#302F2F" points="93.6,45.6 89.7,45.6 87.3,49.6 89.9,49.6 		"/>
		<polygon fill="#302F2F" points="94.8,72.3 88,72.3 88,65 93.4,65 93.4,61.4 88,61.4 88,54.5 94.8,54.5 94.8,50.9 84.1,50.9 
			84.1,75.9 94.8,75.9 		"/>
		<polygon fill="#302F2F" points="100,75.9 103.2,66 106.4,75.9 110.5,75.9 106.2,63 110.3,50.9 106.6,50.9 103.6,60.1 100.6,50.9 
			96.6,50.9 100.7,63 96.3,75.9 		"/>
		<rect x="112.5" y="50.9" fill="#302F2F" width="3.9" height="25"/>
		<path fill="#302F2F" d="M124.8,76.1c3.9,0,5.8-2.3,5.8-6.3v-3.3H127v3.6c0,1.8-0.8,2.4-2,2.4s-2-0.6-2-2.4V56.6
			c0-1.8,0.8-2.5,2-2.5s2,0.7,2,2.5v2.7h3.7v-2.4c0-4-2-6.3-5.8-6.3s-5.8,2.3-5.8,6.3v13C119,73.9,121,76.1,124.8,76.1z"/>
		<path fill="#302F2F" d="M138.7,76.1c3.9,0,6-2.3,6-6.3v-13c0-4-2.1-6.3-6-6.3c-3.9,0-6,2.3-6,6.3v13
			C132.7,73.9,134.8,76.1,138.7,76.1z M136.7,56.6c0-1.8,0.8-2.5,2-2.5s2,0.7,2,2.5v13.5c0,1.8-0.8,2.5-2,2.5s-2-0.7-2-2.5V56.6z"/>
		<path fill="#302F2F" d="M156.6,66.5h1.9c3.9,0,5.8-2.2,5.8-6.2v-3.2c0-4-1.9-6.2-5.8-6.2h-5.8v25h3.9V66.5z M156.6,54.5h1.9
			c1.2,0,1.9,0.6,1.9,2.4v3.7c0,1.8-0.7,2.4-1.9,2.4h-1.9V54.5z"/>
		<rect x="166.1" y="50.9" fill="#302F2F" width="3.9" height="25"/>
		<polygon fill="#302F2F" points="183.6,72.3 176.8,72.3 176.8,65 182.2,65 182.2,61.4 176.8,61.4 176.8,54.5 183.6,54.5 
			183.6,50.9 172.9,50.9 172.9,75.9 183.6,75.9 		"/>
		<path fill="#302F2F" d="M190,65.7h1.4c1.8,0,2.6,0.9,2.6,3.2v3.9c0,2,0.1,2.4,0.4,3.1h4c-0.4-0.9-0.4-1.8-0.4-3V69
			c0-2.6-0.6-4.5-2.6-5.3c1.7-0.8,2.6-2.5,2.6-5.1v-2c0-3.9-1.7-5.7-5.8-5.7H186v25h3.9V65.7z M190,54.5h1.9c1.4,0,2,0.8,2,2.6v2.5
			c0,2-0.9,2.6-2.4,2.6H190V54.5z"/>
		<path fill="#302F2F" d="M206.6,50.9h-6.2v25h6.2c3.9,0,5.8-2.2,5.8-6.2V57.1C212.4,53.1,210.5,50.9,206.6,50.9z M208.5,69.9
			c0,1.8-0.7,2.4-2,2.4h-2.2V54.5h2.2c1.2,0,2,0.6,2,2.4V69.9z"/>
		<polygon fill="#302F2F" points="225.6,54.5 225.6,50.9 214.9,50.9 214.9,75.9 225.6,75.9 225.6,72.3 218.8,72.3 218.8,65 
			224.2,65 224.2,61.4 218.8,61.4 218.8,54.5 		"/>
		<polygon fill="#302F2F" points="66,292.1 67.7,302 69.8,302 71.3,292 71.3,302 73.4,302 73.4,288 70.3,288 68.8,298 67.2,288 
			64.1,288 64.1,302 66,302 		"/>
		<rect x="75" y="288" fill="#302F2F" width="2.2" height="14"/>
		<path fill="#302F2F" d="M78.6,291.4v7.3c0,2.2,1.1,3.5,3.3,3.5s3.3-1.3,3.3-3.5v-4.4h-3.1v2h1v2.6c0,1-0.4,1.4-1.1,1.4
			s-1.1-0.4-1.1-1.4v-7.6c0-1,0.4-1.4,1.1-1.4s1.1,0.4,1.1,1.4v1.5h2.1v-1.4c0-2.2-1.1-3.5-3.3-3.5S78.6,289.1,78.6,291.4z"/>
		<path fill="#302F2F" d="M93,298.7V288h-2.1v10.8c0,1-0.4,1.4-1.1,1.4s-1.1-0.4-1.1-1.4V288h-2.2v10.7c0,2.2,1.1,3.5,3.3,3.5
			C91.9,302.2,93,300.9,93,298.7z"/>
		<polygon fill="#302F2F" points="100.5,290 100.5,288 94.5,288 94.5,302 100.5,302 100.5,300 96.7,300 96.7,295.9 99.7,295.9 
			99.7,293.9 96.7,293.9 96.7,290 		"/>
		<polygon fill="#302F2F" points="101.9,288 101.9,302 107.7,302 107.7,300 104.1,300 104.1,288 		"/>
		<polygon fill="#302F2F" points="114,296 116.5,296 116.5,302 118.7,302 118.7,288 116.5,288 116.5,294 114,294 114,288 111.8,288 
			111.8,302 114,302 		"/>
		<polygon fill="#302F2F" points="126.3,300 122.5,300 122.5,295.9 125.5,295.9 125.5,293.9 122.5,293.9 122.5,290 126.3,290 
			126.3,288 120.3,288 120.3,302 126.3,302 		"/>
		<path fill="#302F2F" d="M127.7,302h2.2v-5.7h0.8c1,0,1.4,0.5,1.4,1.8v2.2c0,1.1,0.1,1.4,0.2,1.7h2.2c-0.2-0.5-0.2-1-0.2-1.7v-2.2
			c0-1.5-0.4-2.5-1.5-3c1-0.5,1.4-1.4,1.4-2.8v-1.1c0-2.2-1-3.2-3.3-3.2h-3.3V302z M129.9,290h1.1c0.8,0,1.1,0.4,1.1,1.4v1.4
			c0,1.1-0.5,1.5-1.3,1.5h-0.9V290z"/>
		<path fill="#302F2F" d="M140.1,298.1v2.2c0,1.1,0.1,1.4,0.2,1.7h2.2c-0.2-0.5-0.2-1-0.2-1.7v-2.2c0-1.5-0.4-2.5-1.5-3
			c1-0.5,1.4-1.4,1.4-2.8v-1.1c0-2.2-1-3.2-3.3-3.2h-3.3v14h2.2v-5.7h0.8C139.7,296.3,140.1,296.8,140.1,298.1z M138.8,294.3h-0.9
			V290h1.1c0.8,0,1.1,0.4,1.1,1.4v1.4C140.1,294,139.6,294.3,138.8,294.3z"/>
		<polygon fill="#302F2F" points="149.7,290 149.7,288 143.7,288 143.7,302 149.7,302 149.7,300 145.9,300 145.9,295.9 149,295.9 
			149,293.9 145.9,293.9 145.9,290 		"/>
		<path fill="#302F2F" d="M155.5,300.3c0,1.1,0.1,1.4,0.2,1.7h2.2c-0.2-0.5-0.2-1-0.2-1.7v-2.2c0-1.5-0.4-2.5-1.5-3
			c1-0.5,1.4-1.4,1.4-2.8v-1.1c0-2.2-1-3.2-3.3-3.2h-3.3v14h2.2v-5.7h0.8c1,0,1.4,0.5,1.4,1.8V300.3z M155.5,292.8
			c0,1.1-0.5,1.5-1.3,1.5h-0.9V290h1.1c0.8,0,1.1,0.4,1.1,1.4V292.8z"/>
		<path fill="#302F2F" d="M160.8,288l-2.2,14h2l0.4-2.5h2.7l0.4,2.5h2.2l-2.2-14H160.8z M161.2,297.6l1.1-7.1l1.1,7.1H161.2z"/>
		<path fill="#302F2F" d="M177.1,298.6v-7.1c0-2.2-1.1-3.5-3.3-3.5h-3.5v14h3.5C176.1,302,177.1,300.8,177.1,298.6z M172.6,300v-10
			h1.2c0.7,0,1.1,0.4,1.1,1.4v7.3c0,1-0.4,1.4-1.1,1.4H172.6z"/>
		<rect x="178.5" y="288" fill="#302F2F" width="2.2" height="14"/>
		<path fill="#302F2F" d="M182.2,291.4v7.3c0,2.2,1.1,3.5,3.3,3.5s3.3-1.3,3.3-3.5v-1.9h-2.1v2c0,1-0.4,1.4-1.1,1.4
			c-0.7,0-1.1-0.4-1.1-1.4v-7.6c0-1,0.4-1.4,1.1-1.4c0.7,0,1.1,0.4,1.1,1.4v1.5h2.1v-1.4c0-2.2-1.1-3.5-3.3-3.5
			S182.2,289.1,182.2,291.4z"/>
		<polygon fill="#302F2F" points="196.1,290 196.1,288 190.1,288 190.1,302 196.1,302 196.1,300 192.3,300 192.3,295.9 195.3,295.9 
			195.3,293.9 192.3,293.9 192.3,290 		"/>
		<rect x="197.4" y="299.9" fill="#302F2F" width="2.1" height="2.1"/>
		<rect x="197.4" y="292.3" fill="#302F2F" width="2.1" height="2.1"/>
		<polygon fill="#302F2F" points="66,310.2 65.2,310.2 65.7,308.4 64.9,308.4 64.1,310.4 64.1,312.1 66,312.1 		"/>
		<polygon fill="#302F2F" points="67.6,308.4 66.7,310.4 66.7,312.1 68.6,312.1 68.6,310.2 67.8,310.2 68.4,308.4 		"/>
		<polygon fill="#302F2F" points="70,308.4 70,321 75.3,321 75.3,319.2 72,319.2 72,308.4 		"/>
		<path fill="#302F2F" d="M79,321.2c1.9,0,3-1.2,3-3.2v-6.6c0-2-1.1-3.2-3-3.2c-1.9,0-3,1.2-3,3.2v6.6C76,320,77,321.2,79,321.2z
			 M78,311.3c0-0.9,0.4-1.2,1-1.2c0.6,0,1,0.3,1,1.2v6.8c0,0.9-0.4,1.2-1,1.2c-0.6,0-1-0.3-1-1.2V311.3z"/>
		<path fill="#302F2F" d="M83,317.2v0.8c0,2,1,3.2,3,3.2c1.9,0,3-1.2,3-3.2c0-3.6-3.9-4.1-3.9-6.7c0-0.9,0.4-1.2,1-1.2
			c0.6,0,1,0.3,1,1.2v0.5h1.9v-0.4c0-2-1-3.2-2.9-3.2c-1.9,0-2.9,1.2-2.9,3.2c0,3.6,3.9,4.1,3.9,6.7c0,0.9-0.4,1.2-1,1.2
			s-1-0.3-1-1.2v-0.9H83z"/>
		<polygon fill="#302F2F" points="101.1,321 101.1,308.4 98.3,308.4 97,317.4 95.5,308.4 92.8,308.4 92.8,321 94.5,321 94.5,312.1 
			96,321 97.8,321 99.2,312 99.2,321 		"/>
		<path fill="#302F2F" d="M104,308.4l-2,12.6h1.8l0.3-2.3h2.4l0.3,2.3h2l-2-12.6H104z M104.4,317l1-6.4l1,6.4H104.4z"/>
		<path fill="#302F2F" d="M114,321h2c-0.2-0.5-0.2-0.9-0.2-1.5v-1.9c0-1.3-0.3-2.3-1.3-2.7c0.9-0.4,1.3-1.3,1.3-2.6v-1
			c0-1.9-0.9-2.9-2.9-2.9h-3V321h2v-5.1h0.7c0.9,0,1.3,0.4,1.3,1.6v2C113.8,320.5,113.9,320.7,114,321z M113.8,312.8
			c0,1-0.5,1.3-1.2,1.3h-0.8v-3.9h1c0.7,0,1,0.4,1,1.3V312.8z"/>
		<path fill="#302F2F" d="M121.2,321h2c-0.2-0.5-0.2-0.9-0.2-1.5v-1.9c0-1.3-0.3-2.3-1.3-2.7c0.9-0.4,1.3-1.3,1.3-2.6v-1
			c0-1.9-0.9-2.9-2.9-2.9h-3V321h2v-5.1h0.7c0.9,0,1.3,0.4,1.3,1.6v2C121,320.5,121.1,320.7,121.2,321z M121,312.8
			c0,1-0.5,1.3-1.2,1.3h-0.8v-3.9h1c0.7,0,1,0.4,1,1.3V312.8z"/>
		<path fill="#302F2F" d="M126,318.7h2.4l0.3,2.3h2l-2-12.6h-2.9l-2,12.6h1.8L126,318.7z M127.2,310.6l1,6.4h-1.9L127.2,310.6z"/>
		<polygon fill="#302F2F" points="136.1,316 134.1,308.4 131.6,308.4 131.6,321 133.4,321 133.4,311.9 135.9,321 137.9,321 
			137.9,308.4 136.1,308.4 		"/>
		<path fill="#302F2F" d="M142.2,308.3c-1.9,0-3,1.2-3,3.2v6.6c0,2,1.1,3.2,3,3.2c1.9,0,3-1.2,3-3.2v-6.6
			C145.2,309.4,144.1,308.3,142.2,308.3z M143.2,318.1c0,0.9-0.4,1.2-1,1.2c-0.6,0-1-0.3-1-1.2v-6.8c0-0.9,0.4-1.2,1-1.2
			c0.6,0,1,0.3,1,1.2V318.1z"/>
		<path fill="#302F2F" d="M152.1,318c0-3.6-3.9-4.1-3.9-6.7c0-0.9,0.4-1.2,1-1.2c0.6,0,1,0.3,1,1.2v0.5h1.9v-0.4c0-2-1-3.2-2.9-3.2
			s-2.9,1.2-2.9,3.2c0,3.6,3.9,4.1,3.9,6.7c0,0.9-0.4,1.2-1,1.2c-0.6,0-1-0.3-1-1.2v-0.9h-1.9v0.8c0,2,1,3.2,3,3.2
			S152.1,320,152.1,318z"/>
		<polygon fill="#302F2F" points="156,321 161.4,321 161.4,319.2 158,319.2 158,315.5 160.7,315.5 160.7,313.7 158,313.7 158,310.2 
			161.4,310.2 161.4,308.4 156,308.4 		"/>
		<path fill="#302F2F" d="M164.3,311.3c0-0.9,0.4-1.2,1-1.2c0.6,0,1,0.3,1,1.2v0.5h1.9v-0.4c0-2-1-3.2-2.9-3.2s-2.9,1.2-2.9,3.2
			c0,3.6,3.9,4.1,3.9,6.7c0,0.9-0.4,1.2-1,1.2s-1-0.3-1-1.2v-0.9h-1.9v0.8c0,2,1,3.2,3,3.2c1.9,0,3-1.2,3-3.2
			C168.2,314.4,164.3,313.9,164.3,311.3z"/>
		<polygon fill="#302F2F" points="168.8,310.2 170.8,310.2 170.8,321 172.8,321 172.8,310.2 174.9,310.2 174.9,308.4 168.8,308.4 		
			"/>
		<path fill="#302F2F" d="M181.6,318v-6.6c0-2-1.1-3.2-3-3.2c-1.9,0-3,1.2-3,3.2v6.6c0,2,1.1,3.2,3,3.2
			C180.5,321.2,181.6,320,181.6,318z M179.6,318.1c0,0.9-0.4,1.2-1,1.2c-0.6,0-1-0.3-1-1.2v-6.8c0-0.9,0.4-1.2,1-1.2
			c0.6,0,1,0.3,1,1.2V318.1z"/>
		<path fill="#302F2F" d="M182.6,317.2v0.8c0,2,1,3.2,3,3.2c1.9,0,3-1.2,3-3.2c0-3.6-3.9-4.1-3.9-6.7c0-0.9,0.4-1.2,1-1.2
			c0.6,0,1,0.3,1,1.2v0.5h1.9v-0.4c0-2-1-3.2-2.9-3.2s-2.9,1.2-2.9,3.2c0,3.6,3.9,4.1,3.9,6.7c0,0.9-0.4,1.2-1,1.2s-1-0.3-1-1.2
			v-0.9H182.6z"/>
		<polygon fill="#302F2F" points="190.6,322.8 191.4,320.8 191.4,319.1 189.5,319.1 189.5,321 190.3,321 189.7,322.8 		"/>
		<polygon fill="#302F2F" points="200.2,316 198.1,308.4 195.6,308.4 195.6,321 197.4,321 197.4,311.9 199.9,321 201.9,321 
			201.9,308.4 200.2,308.4 		"/>
		<path fill="#302F2F" d="M206.2,308.3c-1.9,0-3,1.2-3,3.2v6.6c0,2,1.1,3.2,3,3.2c1.9,0,3-1.2,3-3.2v-6.6
			C209.2,309.4,208.1,308.3,206.2,308.3z M207.2,318.1c0,0.9-0.4,1.2-1,1.2c-0.6,0-1-0.3-1-1.2v-6.8c0-0.9,0.4-1.2,1-1.2
			c0.6,0,1,0.3,1,1.2V318.1z"/>
		<path fill="#302F2F" d="M69.9,332.2v-1.6c0-2-1-3.1-3-3.1h-2.9V340h2v-4.7H67C69,335.3,69.9,334.2,69.9,332.2z M66,329.2H67
			c0.6,0,1,0.3,1,1.2v1.9c0,0.9-0.3,1.2-1,1.2H66V329.2z"/>
		<path fill="#302F2F" d="M76.7,330.4c0-2-1.1-3.2-3-3.2c-1.9,0-3,1.2-3,3.2v6.6c0,2,1.1,3.2,3,3.2c1.9,0,3-1.2,3-3.2V330.4z
			 M74.7,337.1c0,0.9-0.4,1.2-1,1.2c-0.6,0-1-0.3-1-1.2v-6.8c0-0.9,0.4-1.2,1-1.2c0.6,0,1,0.3,1,1.2V337.1z"/>
		<path fill="#302F2F" d="M84.1,330.5c0-2-1-3.1-3-3.1H78V340h3.1c2,0,3-1.1,3-3.1V330.5z M82.1,337c0,0.9-0.4,1.2-1,1.2H80v-9h1.1
			c0.6,0,1,0.3,1,1.2V337z"/>
		<path fill="#302F2F" d="M89.5,340h2c-0.2-0.5-0.2-0.9-0.2-1.5v-1.9c0-1.3-0.3-2.3-1.3-2.7c0.9-0.4,1.3-1.3,1.3-2.6v-1
			c0-1.9-0.9-2.9-2.9-2.9h-3V340h2v-5.1H88c0.9,0,1.3,0.4,1.3,1.6v2C89.3,339.5,89.3,339.7,89.5,340z M89.3,331.8
			c0,1-0.5,1.3-1.2,1.3h-0.8v-3.9h1c0.7,0,1,0.4,1,1.3V331.8z"/>
		<path fill="#302F2F" d="M94.2,337.7h2.4L97,340h2l-2-12.6H94L92,340h1.8L94.2,337.7z M95.4,329.6l1,6.4h-1.9L95.4,329.6z"/>
		<polygon fill="#302F2F" points="95.7,324.8 94.4,326.8 95.8,326.8 97.6,324.8 		"/>
		<polygon fill="#302F2F" points="106.1,340 106.1,327.4 104.4,327.4 104.4,335 102.3,327.4 99.9,327.4 99.9,340 101.6,340 
			101.6,330.9 104.1,340 		"/>
		<polygon fill="#302F2F" points="114.6,332.8 112.3,332.8 112.3,327.4 110.4,327.4 110.4,340 112.3,340 112.3,334.6 114.6,334.6 
			114.6,340 116.6,340 116.6,327.4 114.6,327.4 		"/>
		<path fill="#302F2F" d="M119.5,327.4l-2,12.6h1.8l0.3-2.3h2.4l0.3,2.3h2l-2-12.6H119.5z M119.9,336l1-6.4l1,6.4H119.9z"/>
		<path fill="#302F2F" d="M128.1,327.3c-1.9,0-3,1.2-3,3.2v6.6c0,2,1,3.2,3,3.2c1.9,0,3-1.2,3-3.2v-1.7h-1.9v1.8
			c0,0.9-0.4,1.2-1,1.2c-0.6,0-1-0.3-1-1.2v-6.8c0-0.9,0.4-1.2,1-1.2c0.6,0,1,0.3,1,1.2v1.4h1.9v-1.2
			C131.1,328.4,130.1,327.3,128.1,327.3z"/>
		<polygon fill="#302F2F" points="132.3,340 137.7,340 137.7,338.2 134.3,338.2 134.3,334.5 137,334.5 137,332.7 134.3,332.7 
			134.3,329.2 137.7,329.2 137.7,327.4 132.3,327.4 		"/>
		<path fill="#302F2F" d="M144.9,336.5c0-1.3-0.3-2.3-1.3-2.7c0.9-0.4,1.3-1.3,1.3-2.6v-1c0-1.9-0.9-2.9-2.9-2.9h-3V340h2v-5.1h0.7
			c0.9,0,1.3,0.4,1.3,1.6v2c0,1,0.1,1.2,0.2,1.5h2c-0.2-0.5-0.2-0.9-0.2-1.5V336.5z M142.9,331.8c0,1-0.5,1.3-1.2,1.3h-0.8v-3.9h1
			c0.7,0,1,0.4,1,1.3V331.8z"/>
		<polygon fill="#302F2F" points="148.9,340 154.3,340 154.3,338.2 150.9,338.2 150.9,334.5 153.6,334.5 153.6,332.7 150.9,332.7 
			150.9,329.2 154.3,329.2 154.3,327.4 148.9,327.4 		"/>
		<path fill="#302F2F" d="M157.3,330.3c0-0.9,0.4-1.2,1-1.2c0.6,0,1,0.3,1,1.2v0.5h1.9v-0.4c0-2-1-3.2-2.9-3.2
			c-1.9,0-2.9,1.2-2.9,3.2c0,3.6,3.9,4.1,3.9,6.7c0,0.9-0.4,1.2-1,1.2c-0.6,0-1-0.3-1-1.2v-0.9h-1.9v0.8c0,2,1,3.2,3,3.2
			c1.9,0,3-1.2,3-3.2C161.2,333.4,157.3,332.9,157.3,330.3z"/>
		<polygon fill="#302F2F" points="161.7,329.2 163.8,329.2 163.8,340 165.8,340 165.8,329.2 167.8,329.2 167.8,327.4 161.7,327.4 		
			"/>
		<path fill="#302F2F" d="M171.6,327.3c-1.9,0-3,1.2-3,3.2v6.6c0,2,1.1,3.2,3,3.2c1.9,0,3-1.2,3-3.2v-6.6
			C174.6,328.4,173.5,327.3,171.6,327.3z M172.6,337.1c0,0.9-0.4,1.2-1,1.2c-0.6,0-1-0.3-1-1.2v-6.8c0-0.9,0.4-1.2,1-1.2
			c0.6,0,1,0.3,1,1.2V337.1z"/>
		<polygon fill="#302F2F" points="178.6,340 184,340 184,338.2 180.6,338.2 180.6,334.5 183.3,334.5 183.3,332.7 180.6,332.7 
			180.6,329.2 184,329.2 184,327.4 178.6,327.4 		"/>
		<polygon fill="#302F2F" points="189.7,335 187.7,327.4 185.2,327.4 185.2,340 187,340 187,330.9 189.5,340 191.5,340 191.5,327.4 
			189.7,327.4 		"/>
		<polygon fill="#302F2F" points="195.7,340 201.1,340 201.1,338.2 197.7,338.2 197.7,334.5 200.4,334.5 200.4,332.7 197.7,332.7 
			197.7,329.2 201.1,329.2 201.1,327.4 195.7,327.4 		"/>
		<polygon fill="#302F2F" points="204.3,327.4 202.3,327.4 202.3,340 207.6,340 207.6,338.2 204.3,338.2 		"/>
		<polygon fill="#302F2F" points="71,355.4 69.6,346.4 66.8,346.4 66.8,359 68.6,359 68.6,350.1 70,359 71.9,359 73.3,350 73.3,359 
			75.1,359 75.1,346.4 72.4,346.4 		"/>
		<path fill="#302F2F" d="M80.5,356.1c0,0.9-0.4,1.2-1,1.2c-0.6,0-1-0.3-1-1.2v-9.7h-2v9.6c0,2,1,3.2,3,3.2c1.9,0,3-1.2,3-3.2v-9.6
			h-1.9V356.1z"/>
		<polygon fill="#302F2F" points="88.2,354 86.2,346.4 83.7,346.4 83.7,359 85.5,359 85.5,349.9 88,359 90,359 90,346.4 88.2,346.4 
					"/>
		<path fill="#302F2F" d="M94.6,346.4h-3.1V359h3.1c2,0,3-1.1,3-3.1v-6.4C97.5,347.5,96.5,346.4,94.6,346.4z M95.5,356
			c0,0.9-0.4,1.2-1,1.2h-1.1v-9h1.1c0.6,0,1,0.3,1,1.2V356z"/>
		<rect x="98.8" y="346.4" fill="#302F2F" width="2" height="12.6"/>
		<path fill="#302F2F" d="M103.7,346.4l-2,12.6h1.8l0.3-2.3h2.4l0.3,2.3h2l-2-12.6H103.7z M104.1,355l1-6.4l1,6.4H104.1z"/>
		<polygon fill="#302F2F" points="111.5,346.4 109.5,346.4 109.5,359 114.8,359 114.8,357.2 111.5,357.2 		"/>
		<polygon fill="#302F2F" points="114.3,348.3 115,348.3 114.5,350.1 115.3,350.1 116.2,348.1 116.2,346.4 114.3,346.4 		"/>
		<polygon fill="#302F2F" points="116.9,348.3 117.7,348.3 117.1,350.1 117.9,350.1 118.8,348.1 118.8,346.4 116.9,346.4 		"/>
	</g>
	<g>
		<g>
			<path fill="#37896F" d="M107.7,110.1c0,4,2.2,7.5,5.4,9.3v-18.7C109.8,102.6,107.7,106.1,107.7,110.1z"/>
			<path fill="#FFFFFF" d="M118.3,99.3c-1.9,0-3.7,0.6-5.3,1.4v18.7c1.5,0.9,3.3,1.4,5.2,1.4h0.4c1.9,0,3.7-0.6,5.2-1.4v-18.7
				c-1.6-0.9-3.3-1.4-5.2-1.4H118.3z"/>
			<path fill="#DC6A77" d="M123.8,100.7v18.7c3.2-1.9,5.4-5.3,5.4-9.3C129.3,106.1,127.1,102.6,123.8,100.7z"/>
		</g>
		<polygon fill="#FBE4A3" points="114.1,110.6 114.2,110.6 114.2,110.6 114.1,110.5 		"/>
		<polygon fill="#FBE4A4" points="114.2,110.6 114.2,110.7 114.2,110.7 114.3,110.5 114.3,110.5 		"/>
		<circle fill="#7F6054" cx="118.2" cy="110.1" r="2.4"/>
	</g>
	<circle fill="none" stroke="#898989" stroke-width="0.6776" stroke-miterlimit="10" cx="118.5" cy="110.1" r="10.8"/>
	<g>
		<rect x="143.6" y="100.1" fill="#898989" width="81.9" height="5.4"/>
		<rect x="143.6" y="107.3" fill="#898989" width="81.9" height="5.4"/>
		<rect x="143.6" y="114.2" fill="#898989" width="81.9" height="5.4"/>
		<rect x="143.6" y="121.2" fill="#898989" width="81.9" height="5.4"/>
		<rect x="143.6" y="128" fill="#898989" width="58" height="5.4"/>
		<polygon fill="#898989" points="143.6,144.9 143.6,149.1 143.6,150.3 217.2,150.3 217.2,149.1 225.5,149.1 225.5,143.7 
			143.6,143.7 		"/>
		<rect x="143.6" y="150.9" fill="#898989" width="81.9" height="5.4"/>
	</g>
	<g>
		<text transform="matrix(1 0 0 1 76.6091 155.8667)" fill="#898989" font-family="'BebasNeue'" font-size="35.6592">1 - o</text>
	</g>
	<g>
		<g>
			<path fill="#6464B5" d="M75.1,107.4c0,0,0-0.1,0-0.1L75.1,107.4L75.1,107.4z"/>
			<path fill="#6464B5" d="M91.9,101.3V119c2.7-2,4.5-5.2,4.5-8.8C96.4,106.5,94.7,103.3,91.9,101.3z"/>
			<path fill="#6464B5" d="M75.4,106.4h0.9l-1.2,0.8c0,0,0,0.1,0,0.1l0.4,1.3l-0.6-0.5c-0.1,0.6-0.2,1.2-0.2,1.9
				c0,5.5,4,10,9.3,10.7h3.1l-1.1-0.8h1.5l0.5-1.4l0.5,1.4h1.5l-0.1,0.1c0.3-0.1,0.6-0.3,0.9-0.4L76,105
				C75.8,105.5,75.6,105.9,75.4,106.4z M85.2,115.9l0.5,1.4h1.5l-1.2,0.9l0.5,1.4l-1.2-0.9l-1.2,0.9l0.5-1.4l-1.2-0.9h1.5
				L85.2,115.9z M82.5,113.2l0.5,1.4h1.5l-1.2,0.9l0.5,1.4l-1.2-0.9l-1.2,0.9l0.5-1.4l-1.2-0.9H82L82.5,113.2z M79.8,110.4l0.5,1.4
				h1.5l-1.2,0.9l0.5,1.4l-1.2-0.9l-1.2,0.9l0.5-1.4l-1.2-0.9h1.5L79.8,110.4z M77,107.7l0.5,1.4H79l-1.2,0.9l0.5,1.4l-1.2-0.9
				l-1.2,0.9l0.5-1.4l-1.2-0.9h1.5L77,107.7z"/>
			<path fill="#F9E47B" d="M76,105l14.7,14.7c0.4-0.2,0.8-0.5,1.2-0.8v-17.6c-1.8-1.3-4-2-6.3-2C81.4,99.3,77.8,101.6,76,105z"/>
			<path fill="#FFFFFF" d="M75.1,107.2l1.2-0.8h-0.9C75.3,106.7,75.2,106.9,75.1,107.2z"/>
			<path fill="#FFFFFF" d="M74.9,108.3l0.6,0.5l-0.4-1.3C75,107.7,74.9,108,74.9,108.3z"/>
			<polygon fill="#FFFFFF" points="77.5,109.1 77,107.7 76.6,109.1 75.1,109.1 76.3,110 75.8,111.4 77,110.6 78.3,111.4 77.8,110 
				79,109.1 			"/>
			<polygon fill="#FFFFFF" points="80.2,111.9 79.8,110.4 79.3,111.9 77.8,111.9 79,112.7 78.5,114.2 79.8,113.3 81,114.2 
				80.5,112.7 81.7,111.9 			"/>
			<polygon fill="#FFFFFF" points="83,114.6 82.5,113.2 82,114.6 80.5,114.6 81.7,115.5 81.3,116.9 82.5,116 83.7,116.9 83.3,115.5 
				84.5,114.6 			"/>
			<polygon fill="#FFFFFF" points="85.7,117.3 85.2,115.9 84.8,117.3 83.3,117.3 84.5,118.2 84,119.7 85.2,118.8 86.5,119.7 
				86,118.2 87.2,117.3 			"/>
			<path fill="#FFFFFF" d="M88,118.6l-0.5,1.4H86l1.1,0.8h0c0.9-0.1,1.8-0.4,2.7-0.7l0.1-0.1h-1.5L88,118.6z"/>
		</g>
		<circle fill="none" stroke="#AAAAAA" stroke-width="0.6776" stroke-miterlimit="10" cx="85.6" cy="110.2" r="10.8"/>
	</g>
	<rect x="9.5" y="10.1" fill="#C18080" width="272" height="23"/>
	<rect x="9.5" y="45.6" fill="#B27070" width="44" height="59.3"/>
	<rect x="9.5" y="111.7" fill="#895959" width="44" height="34"/>
	<rect x="9.5" y="305.7" fill="#895959" width="44" height="34"/>
	<rect x="9.5" y="350.4" fill="#B27070" width="44" height="40.7"/>
	<rect x="237.4" y="45.6" fill="#895959" width="44" height="158.5"/>
	<rect x="237.4" y="261.6" fill="#895959" width="44" height="129.6"/>
	<rect x="237.4" y="211.6" fill="#B27070" width="44" height="40.5"/>
	<g>
		<rect x="9.5" y="153.1" fill="#898989" width="44" height="4.1"/>
		<rect x="9.5" y="159.1" fill="#898989" width="32.1" height="4.1"/>
		<rect x="9.5" y="165.1" fill="#898989" width="44" height="4.1"/>
		<rect x="9.5" y="171.1" fill="#898989" width="44" height="4.1"/>
		<rect x="9.5" y="177.1" fill="#898989" width="44" height="4.1"/>
		<rect x="9.5" y="183.1" fill="#898989" width="44" height="4.1"/>
		<rect x="9.5" y="189.3" fill="#898989" width="38.8" height="4.1"/>
		<rect x="9.5" y="195.3" fill="#898989" width="44" height="4.1"/>
		<rect x="9.5" y="201.3" fill="#898989" width="44" height="4.1"/>
		<rect x="9.5" y="207.3" fill="#898989" width="44" height="4.1"/>
		<rect x="9.5" y="213.3" fill="#898989" width="37.1" height="4.1"/>
		<rect x="9.5" y="219.3" fill="#898989" width="44" height="4.1"/>
		<rect x="9.5" y="225.5" fill="#898989" width="44" height="4.1"/>
		<rect x="9.5" y="231.5" fill="#898989" width="32.1" height="4.1"/>
		<rect x="9.5" y="237.5" fill="#898989" width="44" height="4.1"/>
		<rect x="9.5" y="243.5" fill="#898989" width="44" height="4.1"/>
		<rect x="9.5" y="249.5" fill="#898989" width="44" height="4.1"/>
		<rect x="9.5" y="255.5" fill="#898989" width="44" height="4.1"/>
		<rect x="9.5" y="261.7" fill="#898989" width="38.8" height="4.1"/>
		<rect x="9.5" y="267.7" fill="#898989" width="44" height="4.1"/>
		<rect x="9.5" y="273.7" fill="#898989" width="44" height="4.1"/>
		<rect x="9.5" y="279.7" fill="#898989" width="44" height="4.1"/>
		<rect x="9.5" y="285.7" fill="#898989" width="37.1" height="4.1"/>
		<rect x="9.5" y="291.7" fill="#898989" width="44" height="4.1"/>
	</g>
	<rect x="64" y="83.5" fill="#302F2F" width="164" height="2"/>
	<g>
		<rect x="64.2" y="176.9" fill="#ADADAD" width="161.7" height="98.7"/>
		<g>
			<g>
				<defs>
					<rect id="SVGID_1_" x="64.2" y="176.9" width="161.7" height="98.7"/>
				</defs>
				<clipPath id="SVGID_2_">
					<use xlink:href="#SVGID_1_"  overflow="visible"/>
				</clipPath>
				<g clip-path="url(#SVGID_2_)">
					<path fill="#776537" d="M126.8,218.9c0,0-1.7,0.6-1.7,3.4c0,0.9,0.5,3.4-1.3,3.6c0,0,2.2,0.3,2.8-1.1c0,0-0.1,2.5-1.1,3.2
						c0,0,6,2.5,7-3.2l-0.5-8.4C132.1,216.4,128.4,214.8,126.8,218.9z"/>
					<path fill="#776537" d="M164.5,222.3c0-2.8-1.7-3.4-1.7-3.4c-1.5-4.1-5.2-2.5-5.2-2.5l-0.5,8.4c1,5.7,7,3.2,7,3.2
						c-1-0.6-1.1-3.2-1.1-3.2c0.6,1.4,2.8,1.1,2.8,1.1C164,225.8,164.5,223.3,164.5,222.3z"/>
					<g>
						<polygon fill="#B7B7B7" points="124.8,233 129.5,237 128.8,232.5 						"/>
						<polygon fill="#B7B7B7" points="160.2,237 164.9,233 160.8,232.5 						"/>
						<path fill="#F4B07D" d="M128.8,217.6c0,13.9-7.9,42.9-7.9,42.9h48c0,0-8-22.8-8-42.9C160.9,209.6,128.8,209.6,128.8,217.6z"/>
						<g>
							<path fill="#776537" d="M127.4,190.4c-4.7,3.6-6.7,18.5,1.1,26.4l17.1-19.1l-0.4-7.4C145.2,190.2,139,181.5,127.4,190.4z"/>
							<path fill="#776537" d="M163.1,190.4c-11.6-8.9-17.8-0.1-17.8-0.1l-0.4,7.4l17.1,19.1C169.8,208.9,167.7,194,163.1,190.4z"/>
							<path fill="#F4B07D" d="M144.3,193.4c-10.2-0.1-14.5,6.8-14.5,6.8c-3.6,5.9-2.5,24-2.5,24c0,9,12.5,16.1,17.7,16.1
								s17.7-6.7,17.7-16.1c0,0,0.9-18.2-2.7-24C160,200.2,154.6,193.3,144.3,193.4z"/>
							<g>
								<path opacity="0.1" fill="#232222" enable-background="new    " d="M144.9,234c-6.1,0-8.6-3.6-8.6-3.6s1.4,4.8,8.3,4.8
									c7,0,8.3-4.8,8.3-4.8C149,234.4,144.9,234,144.9,234z"/>
							</g>
							<g opacity="0.2">
								<path fill="#231F20" d="M149.3,215.1c0.2,0.2,0.4,0.4,0.5,0.7c0.1,0.3,0.2,0.6,0.2,0.9c0,0.2-0.1,0.3-0.2,0.5
									c-0.1,0.1-0.2,0.3-0.3,0.4c-0.3,0.2-0.5,0.3-0.8,0.4l0,0l0,0c-0.3,0.1-0.7,0.2-1,0.3c-0.2,0.1-0.3,0.2-0.4,0.3
									c-0.1,0.1-0.2,0.2-0.3,0.4c-0.1,0.2-0.2,0.4-0.4,0.5c-0.2,0.2-0.4,0.3-0.6,0.3c-0.2,0.1-0.4,0.1-0.6,0.1c-0.2,0-0.4,0-0.6,0
									c-0.4,0-0.8,0-1.2-0.2c-0.2-0.1-0.4-0.2-0.6-0.3c-0.2-0.1-0.3-0.3-0.5-0.5l-0.1-0.1c0,0,0-0.1,0,0l0-0.1
									c-0.1-0.1-0.1-0.2-0.2-0.2c-0.1-0.1-0.2-0.2-0.4-0.3c-0.3-0.2-0.7-0.3-1-0.3l0,0l0,0c-0.3-0.1-0.6-0.2-0.8-0.4
									c-0.1-0.1-0.2-0.2-0.3-0.4c-0.1-0.1-0.2-0.3-0.2-0.5c0-0.3,0.1-0.7,0.2-0.9c0.1-0.3,0.3-0.5,0.5-0.7c0.1-0.1,0.2-0.1,0.3,0
									c0.1,0.1,0.1,0.2,0,0.3l0,0c-0.3,0.4-0.6,0.9-0.5,1.3c0,0.1,0.1,0.2,0.1,0.3c0.1,0.1,0.1,0.2,0.2,0.2
									c0.2,0.1,0.4,0.2,0.7,0.3l0,0c0.4,0.1,0.8,0.2,1.2,0.4c0.2,0.1,0.4,0.2,0.6,0.4c0.1,0.1,0.1,0.2,0.2,0.2l0,0.1
									c0.1,0.1,0,0.1,0.1,0.1l0.1,0.1c0.1,0.1,0.2,0.3,0.3,0.4c0.1,0.1,0.3,0.2,0.4,0.2c0.3,0.1,0.7,0.1,1.1,0.1l0.5,0
									c0.2,0,0.4,0,0.5-0.1c0.3-0.1,0.5-0.3,0.7-0.6c0.1-0.2,0.3-0.4,0.4-0.5c0.2-0.1,0.4-0.3,0.6-0.4c0.4-0.2,0.8-0.3,1.2-0.4
									l0,0c0.2-0.1,0.5-0.2,0.6-0.3c0.1-0.1,0.2-0.1,0.2-0.2c0.1-0.1,0.1-0.2,0.1-0.3c0.1-0.4-0.2-0.9-0.5-1.3l0,0
									c-0.1-0.1-0.1-0.2,0-0.3C149.1,215.1,149.2,215.1,149.3,215.1z"/>
							</g>
							<circle fill="#2E230E" cx="136" cy="210.3" r="1"/>
							<path fill="#593B2E" d="M133,206.4c0,0,4.4-1.5,8.1,1.6c0,0,1.6-0.2,0.7-1.1C141.9,206.9,137.2,203.7,133,206.4z"/>
							<path fill="#593B2E" d="M147.6,206.9c-0.9,0.9,0.7,1.1,0.7,1.1c3.8-3.1,8.1-1.6,8.1-1.6C152.3,203.7,147.6,206.9,147.6,206.9
								z"/>
							<circle fill="#2E230E" cx="153.2" cy="210.3" r="1"/>
							<path fill="#F4B07D" d="M124.1,213c-0.4,1.6-0.4,10.1,4.4,4.7l0.1-4.3C128.7,213.4,125.4,207.9,124.1,213z"/>
							
								<path fill="none" stroke="#C18963" stroke-width="0.5381" stroke-linecap="round" stroke-linejoin="round" stroke-miterlimit="10" d="
								M126.6,213.5c0,0-1.7,1.3,0,3.4"/>
							<path fill="#F4B07D" d="M160.7,213.4l0.1,4.3c4.8,5.4,4.8-3.1,4.4-4.7C164,207.9,160.7,213.4,160.7,213.4z"/>
							
								<path fill="none" stroke="#C18963" stroke-width="0.5381" stroke-linecap="round" stroke-linejoin="round" stroke-miterlimit="10" d="
								M162.8,213.5c0,0,1.7,1.3,0,3.4"/>
							<path fill="#776537" d="M147.2,191.1l-12.2,1.3l-8.3,1.8c0,0-2,11.8-1.7,11.9c0.3,0.1,9.5-4.8,9.5-4.8l10.7-3.7l15.9,4.9
								l3.2-1.3l-1.7-8.4L147.2,191.1z"/>
							<path opacity="0.3" fill="#231F20" enable-background="new    " d="M161.2,199.9l-16-2.3c0,0,6.5,15,20.8,7.3
								C166,204.9,161.8,202.7,161.2,199.9z"/>
							<path opacity="0.3" fill="#231F20" enable-background="new    " d="M127,205c14.1,3.8,18-7.5,18-7.5l-13.6,3.3
								C130.3,203.5,127,205,127,205z"/>
							<path fill="#776537" d="M161.2,199.6l-15.9-2c0,0,6.1,13,19.7,7.1C164.9,204.8,161.8,202.5,161.2,199.6z"/>
							<path fill="#776537" d="M128.5,204.7c11.7,2,16.6-7.2,16.6-7.2l-13.6,2.6C131,202.6,128.5,204.7,128.5,204.7z"/>
							<path fill="#776537" d="M146.5,182c-2.1,0.7-3,5.6-3,5.6c0-2.3-2.4-4.7-2.4-4.7c0.7,3.2-1.4,3.9-1.4,3.9l-1.4,6.2l8.3,1.5
								l4.5-5.5l1.1-2.6C145.8,188.3,146.5,182,146.5,182z"/>
						</g>
						
							<ellipse fill="#C18963" stroke="#C18963" stroke-width="0.6722" stroke-linecap="round" stroke-linejoin="round" stroke-miterlimit="10" cx="144.5" cy="225.6" rx="4.3" ry="2.1"/>
						<path opacity="0.1" fill="#232222" enable-background="new    " d="M143.1,209.5c0,0,2-1.4,4.4,0.2
							C147.4,209.7,145.2,206.6,143.1,209.5z"/>
					</g>
					
						<path fill="none" stroke="#F4B07D" stroke-width="9.8302" stroke-linecap="round" stroke-linejoin="round" stroke-miterlimit="10" d="
						M127.7,241.9c0,0-18.8,13.6-20.4,28.2c-1.7,15.1-0.8,18.7-0.8,26.7"/>
					<path fill="none" stroke="#282828" stroke-width="10.0667" stroke-linejoin="round" stroke-miterlimit="10" d="M127.7,241.9
						c0,0-18.8,13.6-20.4,28.2c-1.7,15.1-0.8,18.7-0.8,26.7"/>
					
						<path fill="none" stroke="#F4B07D" stroke-width="9.8302" stroke-linecap="round" stroke-linejoin="round" stroke-miterlimit="10" d="
						M162.4,241.9c0,0,18.8,13.6,20.4,28.2c1.7,15.1,0.8,18.7,0.8,26.7"/>
					<path fill="none" stroke="#282828" stroke-width="10.0667" stroke-linejoin="round" stroke-miterlimit="10" d="M162.4,241.9
						c0,0,18.8,13.6,20.4,28.2c1.7,15.1,0.8,18.7,0.8,26.7"/>
					
						<line fill="none" stroke="#2D2D2D" stroke-width="11.1943" stroke-linecap="round" stroke-linejoin="round" stroke-miterlimit="10" x1="133.9" y1="295.2" x2="133.9" y2="350"/>
					
						<line fill="none" stroke="#2D2D2D" stroke-width="11.1943" stroke-linecap="round" stroke-linejoin="round" stroke-miterlimit="10" x1="154.8" y1="295.2" x2="154.8" y2="350"/>
					<path fill="#F4B07D" d="M118,271.5c0,18.7,0,21.2,0,21.4c0,0,0,0,0,0c0,0,0,0,0,0c0,0,2.8,0.1,2.8,0.1H145v-53.4h-18.5
						C123.5,251.8,118,250.8,118,271.5z"/>
					<path fill="#F4B07D" d="M144,239.6V293h24.1c0,0,2.8,0,2.8-0.1c0,0,0,0,0,0c0,0,0,0,0,0c0-0.3,0-2.7,0-21.4
						c0-20.6-5.5-19.7-8.4-31.9H144z"/>
					<g>
						<circle opacity="0.2" fill="#232222" enable-background="new    " cx="132.3" cy="257.7" r="2.4"/>
						<circle opacity="0.2" fill="#232222" enable-background="new    " cx="132.3" cy="257.7" r="1.2"/>
					</g>
					<g>
						<circle opacity="0.2" fill="#232222" enable-background="new    " cx="156.7" cy="257.7" r="2.4"/>
						<circle opacity="0.2" fill="#232222" enable-background="new    " cx="156.7" cy="257.7" r="1.2"/>
					</g>
					<ellipse opacity="0.2" fill="#232222" enable-background="new    " cx="144.9" cy="281.7" rx="0.7" ry="1.2"/>
					<path fill="#2D2D2D" d="M144.5,315.3c14.7,0,26.7-9.2,26.7-23.9h-53.4C117.8,306.1,129.7,315.3,144.5,315.3z"/>
					<path fill="#1C1C1C" d="M112.4,358.9h27.1v-7.2C124.5,351.7,112.4,354.9,112.4,358.9z"/>
					<path fill="#1C1C1C" d="M149.2,351.7v7.2h27.1C176.3,354.9,164.1,351.7,149.2,351.7z"/>
					<rect x="127.6" y="348.1" fill="#2D2D2D" width="12.3" height="4.2"/>
					<rect x="148.6" y="348.1" fill="#2D2D2D" width="12.3" height="4.2"/>
					<rect x="118" y="291.4" fill="#161516" width="53.1" height="4"/>
					<rect x="141" y="291.4" fill="#D6D6D6" width="7.6" height="4"/>
					<rect x="126.2" y="239" fill="#FFFFFF" width="36.3" height="52.5"/>
					<path fill="#282828" d="M114.7,279.1c0,0-0.2,12.7-1.1,18.5c0,0,1.7,0.8,6,0.8c0,0,8.7,1,9.6-0.1l-0.3-12.7L114.7,279.1z"/>
					<path fill="#282828" d="M115.3,292H129v-54.6h-4.1C111.1,252.2,115.3,292,115.3,292z"/>
					<path fill="#282828" d="M160.8,285.6l-0.3,12.7c0.9,1.1,8.9,0.5,8.9,0.5c4.3,0,7.4-0.8,7.4-0.8c-1.3-4.3-1.3-17.3-1.3-17.3
						L160.8,285.6z"/>
					<path fill="#282828" d="M164.8,237.4h-4.1V292h14.7C175.4,292,177.9,246.7,164.8,237.4z"/>
					<polygon fill="#2D2D2D" points="128.3,247.5 121.4,256.3 128.7,283.2 128.7,237.4 121.4,247 					"/>
					<polygon fill="#2D2D2D" points="160.6,237.4 160.6,283.2 168,256.3 161.1,247.5 168,247 					"/>
					<g>
						<g>
							<polygon fill="#EA94C7" points="139.2,239.2 144.6,244.6 150.3,239.2 144.8,237.8 							"/>
							<path fill="#EA94C7" d="M144.8,240.6v-0.2V240.6l-0.2-0.2l0,0.2l-1.7,1.7l-4,37.7c0,0,4.3,9.8,5.8,9.8c1.9,0,5.7-9.8,5.7-9.8
								l-4-37.7L144.8,240.6z"/>
						</g>
						<polygon fill="#D6D6D6" points="124.8,233 124.8,237.4 139.2,244 145,237.8 126.3,233.5 						"/>
						<polygon fill="#D6D6D6" points="144.8,237.8 150.5,244 165,237.4 165,233 163.4,233.5 						"/>
					</g>
					<g>
						<path fill="#F4B07D" d="M145.1,236.9c-9.5,0-13.4-5-13.4-5s2.2,6.8,12.9,6.8c10.9,0,12.9-6.8,12.9-6.8
							C151.4,237.5,145.1,236.9,145.1,236.9z"/>
					</g>
				</g>
			</g>
		</g>
	</g>
</g>
</svg>
