<?xml version="1.0" encoding="utf-8"?>
<!-- Generator: Adobe Illustrator 16.0.0, SVG Export Plug-In . SVG Version: 6.00 Build 0)  -->
<!DOCTYPE svg PUBLIC "-//W3C//DTD SVG 1.1//EN" "http://www.w3.org/Graphics/SVG/1.1/DTD/svg11.dtd">
<svg version="1.1" id="Layer_1" xmlns="http://www.w3.org/2000/svg" xmlns:xlink="http://www.w3.org/1999/xlink" x="0px" y="0px"
	 width="61.625px" height="22.091px" viewBox="0 0 61.625 22.091" enable-background="new 0 0 61.625 22.091" xml:space="preserve">
<g>
	<rect x="30.054" y="7.5" fill="#5D5D5D" width="17.431" height="6.686"/>
	<g>
		<g>
			<path fill="#DEDFE0" d="M36.13,5.212l-8.266,0.831c-2.346,0.083-15.777,1.898-16.676,2.02c1.881,3.813,4.778,8.357,8.594,10.451
				c12.57,1.799,24.613,1.02,32.946-0.295c6.229-0.983,7.021-4.844,7.017-6.755c-1.051-0.786-2.187-1.147-2.187-1.147
				C54.03,3.832,36.13,5.212,36.13,5.212z M33.772,10.928c0,0.296-0.24,0.535-0.535,0.535h-1.221c-0.295,0-0.535-0.239-0.535-0.535
				v-1.99c0-0.296,0.24-0.535,0.535-0.535h1.221c0.295,0,0.535,0.239,0.535,0.535V10.928z M36.7,10.928
				c0,0.296-0.239,0.535-0.535,0.535h-1.221c-0.295,0-0.535-0.239-0.535-0.535v-1.99c0-0.296,0.24-0.535,0.535-0.535h1.221
				c0.296,0,0.535,0.239,0.535,0.535V10.928z M39.636,10.928c0,0.296-0.239,0.535-0.535,0.535h-1.22
				c-0.296,0-0.535-0.239-0.535-0.535v-1.99c0-0.296,0.239-0.535,0.535-0.535h1.22c0.296,0,0.535,0.239,0.535,0.535V10.928z
				 M42.54,10.928c0,0.296-0.24,0.535-0.535,0.535h-1.221c-0.295,0-0.535-0.239-0.535-0.535v-1.99c0-0.296,0.24-0.535,0.535-0.535
				h1.221c0.295,0,0.535,0.239,0.535,0.535V10.928z M45.476,10.928c0,0.296-0.24,0.535-0.535,0.535H43.72
				c-0.295,0-0.535-0.239-0.535-0.535v-1.99c0-0.296,0.24-0.535,0.535-0.535h1.221c0.295,0,0.535,0.239,0.535,0.535V10.928z"/>
			<path fill="#DEDFE0" d="M11.188,8.062c-0.031,0.005-0.049,0.007-0.049,0.007c-1.193-1.61-5.17-6.115-5.17-6.115
				c-0.85-2.009-2.787-2.067-3.963-1.89c0.566,2.299,4.006,14.404,14.448,17.914c1.112,0.199,2.988,0.76,4.094,0.918
				C16.733,16.801,13.069,11.876,11.188,8.062z"/>
			<path fill="#DEDFE0" d="M2.007,0.064C1.435,0.15,1.042,0.292,1.042,0.292l3.124,10.296c0,0-2.021,0.184-2.44,0.324
				c-0.583,0.193-1.312,0.849-1.637,1.37c-0.355,0.572,0.433,1.401,0.893,1.815c2.023,0.93,11.631,3.104,11.631,3.104
				c1.281,0.288,2.563,0.546,3.843,0.776C6.013,14.469,2.573,2.363,2.007,0.064z"/>
			<path fill="#9D9D9E" d="M59.745,11.464c0.004,1.911-0.787,5.771-7.017,6.755c-8.333,1.314-20.376,2.094-32.946,0.295
				c0.252,0.139,0.508,0.266,0.767,0.383c-0.259-0.117-0.515-0.244-0.767-0.383c-1.105-0.158-2.215-0.336-3.327-0.535
				c0.937,0.314,1.929,0.561,2.98,0.725c-1.052-0.164-2.044-0.41-2.98-0.725c-1.279-0.23-2.562-0.488-3.843-0.776
				c0,0-9.607-2.175-11.631-3.104c0.176,0.156,0.304,0.254,0.304,0.254l0.255,0.816c0.629,1.172,16.422,4.209,16.422,4.209
				c7.699,1.025,3.954,1.035,13.997,1.264c7.677,0.174,19.745-1.027,19.745-1.027c7.545-0.932,8.641-2.029,9.744-4.568
				C62.111,13.52,60.77,12.23,59.745,11.464z"/>
		</g>
		<path fill="#A5A5A5" d="M34.821,17.67v3.488c4.758,2.061,10.07,0.064,10.07,0.064V17.67C38.224,15.832,34.821,17.67,34.821,17.67z
			"/>
		<path fill="#BFC0C1" d="M39.997,14.502c0,0-21.76-3.529-22.531-3.669c0,0-2.515-2.878-3.293-3.402l-0.768,0.091
			c0,0,1.215,3.363,2.609,3.953c0,0,4.268,2,5.498,1.978l4.895,2.604c0,0,7.691-0.141,9.607-0.559
			C36.015,15.498,41.239,15.095,39.997,14.502z"/>
		
			<ellipse transform="matrix(-0.018 -0.9998 0.9998 -0.018 8.7715 37.0204)" fill="#9D9D9E" cx="22.566" cy="14.203" rx="0.462" ry="5.731"/>
		<ellipse fill="#A5A5A5" cx="34.901" cy="19.413" rx="0.586" ry="1.759"/>
		<ellipse fill="#A5A5A5" cx="44.827" cy="19.444" rx="0.57" ry="1.79"/>
	</g>
</g>
</svg>
