<?xml version="1.0" encoding="utf-8"?>
<!-- Generator: Adobe Illustrator 16.0.0, SVG Export Plug-In . SVG Version: 6.00 Build 0)  -->
<!DOCTYPE svg PUBLIC "-//W3C//DTD SVG 1.1//EN" "http://www.w3.org/Graphics/SVG/1.1/DTD/svg11.dtd">
<svg version="1.1" id="Layer_1" xmlns="http://www.w3.org/2000/svg" xmlns:xlink="http://www.w3.org/1999/xlink" x="0px" y="0px"
	 width="37px" height="37px" viewBox="0 0 37 37" enable-background="new 0 0 37 37" xml:space="preserve">
<g>
	<path fill="#249924" d="M18.5,37c7.822,0,14.494-4.861,17.201-11.72H1.299C4.006,32.139,10.678,37,18.5,37z"/>
	<path fill="#CC3030" d="M18.5,0C8.282,0,0,8.281,0,18.499c0,2.396,0.471,4.68,1.299,6.781h34.402
		C36.529,23.179,37,20.895,37,18.499C37,8.281,28.718,0,18.5,0z"/>
	<path fill="#FFFFFF" d="M0,18.499c0,6.491,3.35,12.192,8.408,15.494V3.006C3.35,6.308,0,12.008,0,18.499z"/>
	<path fill="#CC3031" d="M5.594,6.596l0.404,0.008c0-0.314,0-0.629,0-0.943h0.4c0-0.311,0-0.622,0-0.935l0.4-0.008
		c0-0.181,0-0.362,0-0.544C6.234,4.637,5.705,5.136,5.198,5.66h0.398C5.597,5.973,5.597,6.283,5.594,6.596z"/>
	<path fill="#FFFFFF" d="M3.21,9.035c0.002,0.312-0.004,0.627,0.002,0.938h0.397c0,0.313,0,0.624,0,0.933l0.4,0.002
		c0,0.312,0,0.625,0,0.936h0.389c0-0.311,0-0.624,0-0.936l0.4-0.002c0-0.309,0-0.619,0-0.93l0.398-0.003c0-0.312,0-0.626,0-0.938
		h0.399c0-0.312,0-0.624,0-0.936h0.401c0,0.311,0,0.623,0,0.936h0.396c0.012,0.312,0,0.627,0.004,0.938l0.4,0.003
		c-0.002,0.311-0.002,0.621,0,0.93l0.398,0.002c0,0.312,0,0.625,0,0.936H7.59v-1.498H7.187c0.005-0.375,0-0.752,0-1.127H7.59v-1.5
		H7.387v0.565h-0.2v0.562H6.59V8.284H6.386V7.719H6.188v-0.75h0.197V6.404h0.2L6.59,5.844l0.597-0.001l0.011,0.563l0.189-0.002
		v0.564H7.59V5.476H7.187c0-0.376,0.005-0.755,0-1.128L7.59,4.344V3.582C7.325,3.775,7.054,3.965,6.799,4.174
		c0,0.182,0,0.363,0,0.544l-0.4,0.008c0,0.312,0,0.624,0,0.935h-0.4c0,0.314,0,0.629,0,0.943L5.594,6.596
		C5.597,6.283,5.597,5.973,5.597,5.66H5.198C4.298,6.594,3.5,7.624,2.811,8.73c0,0.1,0,0.202,0,0.305H3.21z"/>
	<path fill="#CC3031" d="M7.187,5.476H7.59V4.344L7.187,4.348C7.191,4.721,7.187,5.1,7.187,5.476z"/>
	<polygon fill="#CC3031" points="7.387,6.404 7.197,6.406 7.187,5.843 6.59,5.844 6.586,6.404 6.386,6.404 6.386,6.969 6.188,6.969 
		6.188,7.719 6.386,7.719 6.386,8.284 6.59,8.284 6.59,8.846 7.187,8.846 7.187,8.284 7.387,8.284 7.387,7.719 7.59,7.719 
		7.59,6.969 7.387,6.969 	"/>
	<path fill="#CC3031" d="M3.402,8.286v0.565H4.01V8.286h0.389v0.565h0.607V8.286h0.199V7.725h0.194V6.969L5.205,6.972V6.408H5.006
		V5.872c-0.65,0.694-1.26,1.431-1.799,2.22L3.21,8.287L3.402,8.286z"/>
	<path fill="#FFFFFF" d="M3.799,7.908V7.537h0.2V7.16L3.904,7.159c-0.1,0.129-0.197,0.263-0.295,0.395v0.354H3.799z"/>
	<polygon fill="#FFFFFF" points="4.799,6.786 4.608,6.786 4.608,7.156 4.408,7.16 4.408,7.533 4.608,7.537 4.608,7.908 4.799,7.908 
		4.799,7.537 4.996,7.533 4.996,7.16 4.799,7.16 	"/>
	<polygon fill="#FFFFFF" points="6.985,6.786 6.787,6.786 6.787,7.156 6.59,7.16 6.59,7.526 6.787,7.528 6.787,7.903 6.985,7.903 
		6.987,7.528 7.187,7.528 7.187,7.156 6.985,7.156 	"/>
	<path fill="#CC3031" d="M3.204,28.031c0-0.316,0-0.63,0-0.941h0.401c0-0.316,0-0.633,0-0.948l0.402-0.001c0-0.313,0-0.625,0-0.939
		h0.392c0,0.314,0,0.626,0,0.94h0.402c0,0.315,0,0.632,0,0.948h0.401c0,0.311,0,0.625,0,0.938h0.398l0.004,0.157v0.165v0.588
		l0.053,0.037H6.01c0-0.314,0-0.63,0-0.947h0.402c0-0.312,0-0.627,0-0.938h0.401c0-0.316,0-0.633,0-0.948l0.401-0.001
		c-0.004-0.313,0-0.625,0-0.939h0.396v-0.95H7.215c0-0.312,0-0.624,0-0.937l-0.401-0.003c0.003-0.312,0-0.626,0.003-0.937
		l-0.404-0.003c-0.005-0.315,0-0.63,0-0.947H6.004c0,0.317,0.004,0.632-0.002,0.947l-0.396,0.003c0,0.311,0,0.625,0,0.937H5.203
		c0,0.315,0,0.631,0,0.945h0.398c0.004,0.378,0.004,0.753,0.004,1.129H5.203v-0.751H4.809c0-0.505,0-1.008,0-1.508L4.61,23.125
		c-0.002-0.314-0.002-0.629,0-0.945h0.601v-0.753l0.399-0.002l0.004-0.565H6.01c0-0.312,0-0.624,0-0.939h0.397
		c0,0.315,0,0.628,0,0.939h0.396v0.565l0.401,0.002v0.565l0.406,0.002v-1.701H7.215v-0.756H6.813v-0.656H6.412v-0.752l0.387-0.001
		l0.015-0.013l0.003-0.648l0.398-0.001v-0.753h0.396v-1.7l-0.406,0.004v0.56H6.804v0.569H6.407c0,0.312,0,0.626-0.002,0.938H6.01
		c0-0.312,0-0.626,0-0.938H5.61v-0.569H5.211v-0.752H4.61c0-0.312,0-0.627,0-0.941h0.198c0-0.504-0.002-1.006,0-1.512h0.4
		l-0.006-0.396l0.006-0.358h0.393c0.004,0.376,0.004,0.755,0.004,1.134l-0.398,0.001c-0.012,0.315-0.004,0.628-0.004,0.94h0.398
		c0.004,0.316,0,0.631,0.004,0.947h0.398c0,0.312,0.004,0.626,0,0.938h0.408c0-0.312,0-0.625,0-0.938h0.401
		c0.003-0.316,0-0.631,0.003-0.947h0.398c-0.004-0.314,0-0.625,0-0.938h0.396v-0.951l-0.396-0.001c0-0.312,0-0.627,0-0.94
		l-0.398-0.002c-0.003-0.311-0.003-0.624,0-0.936L6.412,9.922C6.407,9.607,6.42,9.291,6.407,8.977H6.01c0-0.314,0-0.629,0-0.941
		H5.605c0,0.313,0,0.627,0,0.941H5.203c0,0.314,0,0.631,0,0.945L4.802,9.924c0,0.312,0,0.625,0,0.936l-0.402,0.002
		c0,0.313,0,0.628,0,0.941l-0.392-0.001c0-0.312,0-0.627,0-0.94l-0.402-0.002c0-0.311,0-0.624,0-0.938H3.206
		c-0.007-0.314,0-0.63-0.002-0.945H2.801c0-0.104,0-0.207,0-0.307c-0.79,1.269-1.442,2.634-1.913,4.084h0.305
		c0,0.312,0,0.623,0,0.938h0.399c0.004,0.316,0,0.631,0,0.947h0.402c0,0.312,0,0.626,0,0.938H2.4c0-0.312,0-0.625,0-0.938h0.4
		c0.003-0.316-0.002-0.631,0.003-0.947h0.4c0-0.314,0-0.627,0-0.941l-0.396,0.001l-0.009-0.037l0.002-0.69l-0.002-0.352l0.005-0.056
		h0.393l0.001,0.442l0.007,0.312h0.394c0.004,0.506,0,1.008,0.002,1.512h0.197c0.015,0.311,0.007,0.62,0.008,0.924l-0.601,0.018
		l-0.007,0.752H2.791v0.569H2.394c0,0.312,0,0.626,0,0.938H1.998c0-0.312,0-0.626,0-0.938H1.602v-0.569H1.2v-0.563H0.794v1.7h0.398
		v0.753l0.399,0.001v0.661l0.402,0.001v0.752H1.592v0.656H1.192v0.756H0.794v1.701L1.2,21.992v-0.565l0.401-0.002v-0.565h0.396
		C2,20.548,1.998,20.235,2,19.92h0.394c0,0.315,0,0.628,0,0.939h0.397v0.565h0.405l0.008,0.755l0.601,0.015
		c-0.001,0.311,0.009,0.62-0.01,0.933H3.6c0,0.5,0,1.003,0,1.508H3.204v0.751H2.801v-0.577v-0.552h0.403c0-0.314,0-0.63,0-0.945
		H2.801c0-0.312,0-0.626,0-0.937l-0.4-0.003c-0.007-0.315,0.01-0.63-0.007-0.947l-0.399,0.002c0,0.315,0,0.63,0,0.945l-0.402,0.003
		c0,0.311,0,0.625,0,0.937l-0.399,0.003c0,0.312,0,0.625,0,0.937H0.89c0.472,1.45,1.123,2.812,1.914,4.082c0-0.101,0-0.202,0-0.302
		H3.204z"/>
	<path fill="#CC3031" d="M3.999,9.219c0,0.375,0,0.752,0,1.127h0.407c0-0.317,0-0.637,0-0.956L4.398,9.216L3.999,9.219z"/>
	<path fill="#CC3031" d="M7.187,10.346H7.59V9.219H7.187C7.187,9.594,7.191,9.971,7.187,10.346z"/>
	<path fill="#FFFFFF" d="M1.219,13.912v0.75H0.814v0.371h0.404v0.562h0.399v0.564h0.394c0,0.312,0,0.624,0,0.935h0.393
		c0-0.311,0-0.623,0-0.935h0.396v-0.564h0.403l0.006-0.749l0.597-0.016c-0.002-0.303,0.007-0.611-0.008-0.918H3.604
		c-0.002-0.502,0.002-1-0.002-1.503H3.21l-0.006-0.312l-0.002-0.439h-0.39l-0.004,0.056l0.002,0.351l-0.002,0.685l0.008,0.038
		l0.394-0.002c0,0.312,0,0.624,0,0.935H2.812c-0.004,0.315,0,0.629-0.002,0.942H2.411c0,0.311,0,0.623,0,0.933H2.008
		c0-0.31,0-0.622,0-0.933h-0.4c0-0.313,0.005-0.627,0-0.942H1.211c0-0.311,0-0.62,0-0.931H0.908
		c-0.029,0.092-0.064,0.18-0.094,0.273v0.848L1.219,13.912z"/>
	<path fill="#FFFFFF" d="M7.197,13.72H6.799c-0.002,0.315,0,0.629-0.002,0.942H6.398c0,0.311,0,0.623,0,0.933H5.992
		c0.004-0.31,0-0.622,0-0.933H5.597c-0.003-0.313,0-0.627-0.003-0.942H5.197c0-0.31-0.008-0.62,0.004-0.933l0.396-0.002
		c0-0.376,0-0.752-0.003-1.127H5.203l-0.006,0.356l0.006,0.394l-0.398,0.001c-0.003,0.503,0,1.001,0,1.503H4.608
		c0,0.312,0,0.625,0,0.934h0.597v0.749h0.396v0.564h0.396c0,0.312,0,0.624,0,0.935h0.394c0.003-0.311,0.003-0.623,0.003-0.935h0.393
		v-0.564h0.399v-0.558l0.403-0.004v-0.371H7.187v-0.75L7.59,13.91v-1.121H7.197C7.197,13.1,7.193,13.409,7.197,13.72z"/>
	<rect x="0.814" y="13.912" fill="#CC3031" width="0.404" height="0.75"/>
	<rect x="7.187" y="13.91" fill="#CC3031" width="0.403" height="0.752"/>
	<path fill="#FFFFFF" d="M5.602,18.134l-0.005-0.073l-0.003-0.588l-0.396-0.001V17.28v-0.366v-0.19l-0.599-0.003
		c0-0.293,0-0.59,0-0.882l-0.2-0.009v-0.419H4.01v0.433h-0.2c-0.005,0.291-0.003,0.587-0.003,0.877L3.21,16.724v0.749H2.812v0.658
		H2.411l0.004,0.748l0.396,0.002v0.65H3.21v0.75l0.589-0.002l0.008,0.173v0.71l0.203,0.004v0.428h0.389v-0.42h0.197
		c0.005-0.296,0-0.596,0.005-0.893h0.595l0.006-0.045l-0.004-0.705h0.399L5.6,19.173l-0.006-0.292l0.398-0.002l0.004-0.204v-0.249
		l-0.004-0.295L5.602,18.134z"/>
	<path fill="#CC3031" d="M4.372,16.527h-0.36l-0.013,0.137v0.808h0.409c-0.002-0.304-0.002-0.604-0.002-0.905L4.372,16.527z"/>
	<path fill="#FFFFFF" d="M1.607,17.473l-0.396-0.001v-0.748H0.814v1.216h0.404c0,0.375,0,0.748,0,1.127H0.814v1.215h0.396v-0.75
		h0.396v-0.652h0.4v-0.748l-0.4-0.002V17.473z"/>
	<path fill="#FFFFFF" d="M7.197,17.472l-0.398,0.001l-0.002,0.645l-0.014,0.012l-0.385,0.002v0.748h0.398v0.652h0.4v0.75H7.59
		v-1.215H7.187c0-0.375,0-0.752,0-1.127H7.59v-1.216H7.197V17.472z"/>
	<polygon fill="#CC3031" points="4.805,18.131 4.805,17.85 5.004,17.85 5.006,17.285 4.599,17.285 4.599,17.656 4.398,17.656 
		4.398,17.939 4.01,17.939 4.01,17.656 3.807,17.656 3.807,17.285 3.402,17.285 3.402,17.68 3.41,17.85 3.604,17.85 3.605,18.131 
		3.799,18.131 3.797,18.879 3.604,18.879 3.602,19.162 3.402,19.164 3.402,19.717 3.81,19.716 3.805,19.351 4.01,19.348 
		4.01,19.066 4.398,19.066 4.398,19.348 4.599,19.348 4.596,19.716 5.006,19.724 5.006,19.164 4.809,19.162 4.805,18.879 
		4.608,18.879 4.608,18.131 	"/>
	<path fill="#CC3031" d="M0.814,19.066h0.404c0-0.379,0-0.752,0-1.127H0.814V19.066z"/>
	<path fill="#CC3031" d="M3.004,19.066l0.406-0.002c0-0.371-0.004-0.743,0-1.117l-0.406-0.008
		C3.004,18.314,3.004,18.691,3.004,19.066z"/>
	<path fill="#CC3031" d="M5,19.064l0.399,0.002c0-0.375,0.004-0.752,0-1.127l-0.403,0.01C5,18.321,4.996,18.693,5,19.064z"/>
	<path fill="#CC3031" d="M7.187,19.066H7.59v-1.127H7.187C7.187,18.314,7.187,18.691,7.187,19.066z"/>
	<polygon fill="#CC3031" points="3.999,20.318 4.01,20.475 4.398,20.475 4.406,20.318 4.408,19.531 3.999,19.531 	"/>
	<path fill="#FFFFFF" d="M7.187,21.408l-0.399-0.002v-0.561H6.395c0-0.311,0-0.621,0-0.935H5.998c0,0.313,0,0.624,0,0.935H5.605
		l-0.004,0.561l-0.396,0.002v0.75H4.608c-0.002,0.314-0.002,0.625,0,0.938l0.196,0.003c0,0.497,0,0.997,0,1.497h0.393v0.748h0.399
		c0-0.375,0-0.748-0.003-1.122H5.197c0-0.313,0-0.626,0-0.939h0.399c0-0.312,0-0.622,0-0.932l0.394-0.003
		c0.006-0.312,0.002-0.625,0.002-0.941h0.406c0,0.316-0.004,0.629,0,0.941l0.4,0.003c-0.002,0.31,0,0.62-0.002,0.932l0.4,0.003
		c0,0.311,0,0.622,0,0.93H7.59v-1.114l-0.391-0.002l-0.013-0.058v-0.69l0.403-0.003v-0.375l-0.403-0.002V21.408z"/>
	<rect x="0.814" y="22.352" fill="#CC3031" width="0.404" height="0.748"/>
	<polygon fill="#CC3031" points="7.187,23.041 7.199,23.099 7.59,23.101 7.59,22.348 7.187,22.351 	"/>
	<path fill="#FFFFFF" d="M7.187,32.657c0.005-0.377,0-0.753,0.005-1.132H7.59v-1.486H7.387v0.564h-0.2v0.558H6.59l-0.004-0.565
		l-0.195-0.002l-0.005-0.555H6.188v-0.756h0.197v-0.557l0.204-0.006v-0.557l0.597-0.004v0.559l0.2,0.002v0.562H7.59v-1.498H7.187
		c0-0.379,0-0.752,0-1.129H7.59V25.16H7.197c0,0.312-0.004,0.621,0,0.934h-0.4c0,0.314,0,0.629,0,0.942H6.398
		c0,0.31,0,0.622,0,0.933h-0.4c0,0.315,0,0.629,0,0.941H5.649l-0.053-0.037v-0.584v-0.164l-0.003-0.156H5.197
		c0-0.311,0-0.623,0-0.933H4.799c0-0.313,0-0.628,0-0.942h-0.4c0-0.312,0-0.622,0-0.934H4.01c0,0.312,0,0.621,0,0.934h-0.4
		c0,0.314,0,0.629,0,0.942H3.21c0,0.312,0,0.622,0,0.937H2.812c0,0.099,0,0.199,0,0.3c0.69,1.105,1.487,2.137,2.389,3.069h0.396
		c0-0.312,0-0.621-0.003-0.931l0.404-0.005c0,0.312,0,0.624,0,0.936h0.4c0,0.312,0,0.628,0,0.941l0.4,0.001c0,0.181,0,0.36,0,0.54
		c0.255,0.209,0.525,0.398,0.791,0.594v-0.761H7.187z"/>
	<line fill="#CC3031" x1="1.219" y1="26.656" x2="0.814" y2="26.656"/>
	<path fill="#CC3031" d="M3.999,27.785h0.407c0-0.379,0-0.752,0-1.129H3.999C3.999,27.033,3.999,27.406,3.999,27.785z"/>
	<path fill="#CC3031" d="M7.187,27.785H7.59v-1.129H7.187C7.187,27.033,7.187,27.406,7.187,27.785z"/>
	<path fill="#CC3031" d="M5.205,30.594v-0.562h0.194v-0.75H5.205v-0.564H5.006v-0.553l-0.286-0.01l-0.321,0.011v0.552H4.01v-0.552
		l-0.105-0.011l-0.486,0.003L3.402,28.17v0.547h-0.19L3.21,28.906v0.004c0.538,0.789,1.146,1.522,1.796,2.217v-0.531L5.205,30.594z"
		/>
	<polygon fill="#CC3031" points="7.387,28.721 7.187,28.719 7.187,28.16 6.59,28.164 6.59,28.721 6.386,28.727 6.386,29.283 
		6.188,29.283 6.188,30.039 6.386,30.039 6.391,30.594 6.586,30.596 6.59,31.161 7.187,31.161 7.187,30.604 7.387,30.604 
		7.387,30.039 7.59,30.039 7.59,29.283 7.387,29.283 	"/>
	<path fill="#FFFFFF" d="M3.999,29.472l-0.2-0.005v-0.368H3.609v0.347c0.098,0.133,0.195,0.268,0.298,0.398h0.092V29.472z"/>
	<polygon fill="#FFFFFF" points="4.799,29.099 4.608,29.099 4.608,29.47 4.406,29.472 4.406,29.844 4.608,29.844 4.608,30.215 
		4.799,30.215 4.799,29.844 5,29.844 5,29.472 4.799,29.472 	"/>
	<polygon fill="#FFFFFF" points="6.985,29.099 6.787,29.1 6.787,29.475 6.59,29.479 6.59,29.846 6.787,29.848 6.787,30.223 
		6.985,30.225 6.987,29.848 7.187,29.848 7.187,29.475 6.987,29.475 	"/>
	<path fill="#CC3031" d="M6.398,32.283c0-0.313,0-0.629,0-0.941h-0.4c0-0.312,0-0.624,0-0.936l-0.404,0.005
		c0.003,0.31,0.003,0.619,0.003,0.931H5.201c0.504,0.522,1.033,1.021,1.598,1.482c0-0.18,0-0.359,0-0.54L6.398,32.283z"/>
	<path fill="#CC3031" d="M7.187,32.657H7.59v-1.132H7.191C7.187,31.904,7.191,32.28,7.187,32.657z"/>
</g>
</svg>
