<?xml version="1.0" encoding="utf-8"?>
<!-- Generator: Adobe Illustrator 16.0.0, SVG Export Plug-In . SVG Version: 6.00 Build 0)  -->
<!DOCTYPE svg PUBLIC "-//W3C//DTD SVG 1.1//EN" "http://www.w3.org/Graphics/SVG/1.1/DTD/svg11.dtd">
<svg version="1.1" id="Layer_1" xmlns="http://www.w3.org/2000/svg" xmlns:xlink="http://www.w3.org/1999/xlink" x="0px" y="0px"
	 width="874.887px" height="476.086px" viewBox="0 0 874.887 476.086" enable-background="new 0 0 874.887 476.086"
	 xml:space="preserve">
<g>
	<rect x="0.888" y="0.659" fill="#62A362" width="873.999" height="475"/>
	<rect x="0.888" y="0.659" fill="#8EBCB4" width="873.999" height="475"/>
	<path opacity="0.2" fill="#FFFFFF" d="M256.483,74.259c0,0,52.498,176.992,25.499,382.48l-25.499,1.499
		C256.483,458.238,290.981,363.747,256.483,74.259z"/>
	<path opacity="0.2" fill="#FFFFFF" d="M523.693,74.259c0,0-52.498,176.992-25.499,382.48l25.499,1.499
		C523.693,458.238,489.195,363.747,523.693,74.259z"/>
	<path opacity="0.2" fill="#FFFFFF" d="M808.6,14.134c0,0-91.541,160.32-112.197,366.543l24.482,7.284
		C720.885,387.961,708.885,288.088,808.6,14.134z"/>
	<g>
		<g>
			<path fill="#6B6D6B" d="M100.366,473.71C100.366,46.342,7.17,0,7.17,0h21.674c0,0,93.195,46.342,93.195,473.71H100.366z"/>
			<path fill="#6B6D6B" d="M280.508,0c0,0,36.594,130.443,33.343,346.7v127.01h18.423c0,0,14.088-298.641-34.678-473.71H280.508z"/>
			<path fill="#6B6D6B" d="M779.555,473.71C779.555,46.342,872.75,0,872.75,0h-21.673c0,0-93.196,46.342-93.196,473.71H779.555z"/>
			<path fill="#6B6D6B" d="M599.412,0c0,0-36.593,130.443-33.342,346.7v127.01h-18.423c0,0-14.088-298.641,34.678-473.71H599.412z"
				/>
		</g>
		<g>
			<path fill="#9B9B9B" d="M93.195,476.086C93.195,48.718,0,0,0,0h21.674c0,0,93.195,48.718,93.195,476.086H93.195z"/>
			<path fill="#9B9B9B" d="M273.338,0c0,0,36.594,132.819,33.342,349.076v127.01h18.423c0,0,14.088-301.016-34.678-476.086H273.338z
				"/>
			<path fill="#9B9B9B" d="M772.384,476.086C772.384,48.718,865.58,0,865.58,0h-21.674c0,0-93.196,48.718-93.196,476.086H772.384z"
				/>
			<path fill="#9B9B9B" d="M592.242,0c0,0-36.595,132.819-33.343,349.076v127.01h-18.423c0,0-14.088-301.016,34.679-476.086H592.242
				z"/>
		</g>
	</g>
	<g>
		<rect x="55.923" y="250.1" fill="#303030" width="16.153" height="55.385"/>
		<rect x="145.154" y="250.1" fill="#303030" width="16.153" height="55.385"/>
		<g>
			<path fill="#16408C" d="M157.24,225.005c-14.512-9.431-31.357-14.415-48.715-14.415s-34.202,4.984-48.715,14.415
				c-14.127,9.181-25.384,22.097-32.555,37.351c-0.545,1.158-0.459,2.514,0.228,3.596c0.687,1.08,1.877,1.734,3.157,1.734h155.77
				c1.28,0,2.471-0.654,3.158-1.734c0.686-1.082,0.771-2.438,0.227-3.596C182.625,247.102,171.367,234.186,157.24,225.005z"/>
			<path fill="#16408C" d="M185.336,283.496H31.716c-2.546,0-4.617,2.086-4.617,4.648v187.514h162.854V288.145
				C189.953,285.582,187.881,283.496,185.336,283.496z"/>
		</g>
		<g>
			
				<ellipse transform="matrix(0.0576 -0.9983 0.9983 0.0576 -192.1169 383.5272)" fill="#EFB597" cx="107.089" cy="293.524" rx="68.846" ry="52.6"/>
			<g>
				<circle fill="#492925" cx="86.637" cy="299.138" r="2.437"/>
				<g>
					<path fill="#231F20" d="M92.049,294.885c0,0-0.27-0.082-0.74-0.225c-0.481-0.143-1.188-0.328-2.041-0.535
						c-1.708-0.412-4.023-0.847-6.339-1.038c-0.581-0.065-1.153-0.067-1.724-0.097c-0.569-0.027-1.116,0.01-1.657,0.008
						c-0.532,0.025-1.038,0.084-1.527,0.119c-0.473,0.078-0.921,0.152-1.333,0.221c-0.405,0.088-0.758,0.205-1.084,0.289
						c-0.334,0.072-0.58,0.203-0.799,0.291c-0.436,0.18-0.684,0.282-0.684,0.282l-0.188,0.077c-0.637,0.264-1.365-0.039-1.628-0.675
						c-0.241-0.583-0.007-1.245,0.524-1.553c0,0,0.298-0.173,0.818-0.476c0.263-0.146,0.578-0.354,0.961-0.494
						c0.381-0.155,0.81-0.355,1.285-0.523c0.478-0.143,0.997-0.311,1.551-0.462c0.552-0.114,1.139-0.256,1.745-0.361
						c0.603-0.079,1.235-0.195,1.87-0.247c0.634-0.049,1.285-0.125,1.927-0.135c2.581-0.111,5.139,0.046,7.048,0.258
						c0.955,0.107,1.75,0.213,2.313,0.305c0.573,0.098,0.899,0.154,0.899,0.154c1.355,0.23,2.267,1.518,2.035,2.871
						c-0.231,1.355-1.518,2.266-2.872,2.035c-0.099-0.018-0.196-0.039-0.29-0.067L92.049,294.885z"/>
				</g>
				<circle fill="#492925" cx="125.635" cy="299.138" r="2.437"/>
				<g>
					<path fill="#231F20" d="M119.02,290.068c0,0,0.328-0.057,0.9-0.154c0.563-0.092,1.358-0.197,2.314-0.305
						c1.908-0.211,4.466-0.369,7.047-0.258c0.642,0.01,1.294,0.086,1.928,0.135c0.635,0.052,1.267,0.168,1.87,0.247
						c0.606,0.105,1.193,0.247,1.745,0.361c0.553,0.151,1.073,0.319,1.551,0.462c0.475,0.168,0.904,0.368,1.285,0.523
						c0.383,0.141,0.698,0.348,0.961,0.494c0.521,0.303,0.818,0.476,0.818,0.476c0.594,0.346,0.796,1.108,0.449,1.703
						c-0.316,0.546-0.984,0.761-1.552,0.524l-0.188-0.077c0,0-0.248-0.103-0.684-0.282c-0.219-0.088-0.465-0.219-0.799-0.291
						c-0.326-0.084-0.68-0.201-1.084-0.289c-0.413-0.068-0.86-0.143-1.334-0.221c-0.488-0.035-0.994-0.094-1.527-0.119
						c-0.54,0.002-1.087-0.035-1.657-0.008c-0.569,0.029-1.142,0.031-1.724,0.097c-2.314,0.191-4.631,0.626-6.338,1.038
						c-0.854,0.207-1.561,0.393-2.042,0.535c-0.471,0.143-0.739,0.225-0.739,0.225l-0.06,0.018
						c-1.315,0.399-2.705-0.344-3.104-1.658c-0.398-1.315,0.344-2.705,1.659-3.104C118.812,290.111,118.924,290.086,119.02,290.068z
						"/>
				</g>
				<g>
					<path fill="#C6977F" d="M117.914,318.781c0.531,0.633,0.996,1.285,1.422,1.989c0.427,0.7,0.806,1.446,1.068,2.279
						c0.151,0.404,0.219,0.86,0.299,1.312c0.016,0.477,0.052,0.957-0.085,1.467l-0.081,0.379l-0.163,0.362
						c-0.126,0.231-0.205,0.508-0.392,0.693c-0.168,0.202-0.343,0.403-0.523,0.6c-0.188,0.176-0.399,0.301-0.604,0.45
						c-0.414,0.325-0.845,0.451-1.278,0.645l-0.163,0.066l-0.082,0.034l-0.041,0.017l-0.021,0.008l-0.011,0.004l-0.005,0.002
						l-0.097,0.023l-0.284,0.068c-0.221,0.043-0.671,0.082-0.862,0.069c-0.991-0.018-1.731-0.179-2.438-0.222
						c-0.697-0.058-1.311-0.027-1.855,0.125c-0.272,0.075-0.531,0.176-0.779,0.305c-0.249,0.125-0.483,0.297-0.719,0.464
						l0.632-0.851l-0.007,0.021c-0.195,0.484-0.241,0.45-0.347,0.609c-0.116,0.142-0.168,0.178-0.242,0.246
						c-0.149,0.131-0.301,0.236-0.398,0.287c-0.111,0.063-0.233,0.13-0.343,0.182l-0.281,0.106
						c-0.199,0.077-0.371,0.124-0.527,0.157c-0.159,0.035-0.335,0.082-0.483,0.104c-0.293,0.037-0.604,0.091-0.884,0.106
						l-0.419,0.024l-0.479,0.021l-0.739-0.005c-0.106,0.004-0.286-0.013-0.445-0.025l-0.484-0.044
						c-0.162-0.016-0.334-0.057-0.5-0.086c-0.16-0.027-0.336-0.067-0.543-0.141l-0.294-0.102c-0.115-0.05-0.244-0.116-0.362-0.181
						c-0.103-0.049-0.266-0.157-0.427-0.296c-0.081-0.072-0.137-0.107-0.263-0.26c-0.116-0.174-0.166-0.132-0.38-0.664l-0.008-0.023
						l0.695,0.941c-0.223-0.168-0.445-0.341-0.683-0.469c-0.236-0.131-0.483-0.237-0.747-0.318
						c-0.525-0.163-1.129-0.209-1.825-0.166c-0.704,0.027-1.449,0.175-2.445,0.178c-0.237,0.006-0.524-0.024-0.801-0.069
						l-0.438-0.104l-0.121-0.039l-0.008-0.004l-0.017-0.008l-0.033-0.016l-0.067-0.029l-0.133-0.061
						c-0.368-0.184-0.66-0.252-1.166-0.616c-0.223-0.159-0.457-0.304-0.647-0.487c-0.177-0.197-0.348-0.398-0.511-0.602
						c-0.184-0.187-0.256-0.463-0.378-0.691l-0.157-0.361l-0.073-0.373c-0.128-0.506-0.083-0.979-0.062-1.448
						c0.087-0.444,0.16-0.892,0.318-1.29c0.273-0.818,0.661-1.551,1.097-2.236c0.436-0.689,0.907-1.326,1.446-1.945
						c0.154-0.178,0.424-0.196,0.602-0.041c0.161,0.141,0.191,0.376,0.078,0.551l-0.012,0.018c-0.398,0.621-0.765,1.302-1.064,1.98
						c-0.306,0.68-0.55,1.383-0.669,2.07c-0.084,0.344-0.076,0.676-0.101,1.001c0.043,0.308,0.053,0.618,0.173,0.861l0.062,0.193
						l0.114,0.156c0.088,0.095,0.104,0.228,0.229,0.296c0.103,0.08,0.198,0.162,0.288,0.248c0.102,0.068,0.221,0.1,0.319,0.159
						c0.118,0.117,0.602,0.226,0.952,0.333l0.141,0.04l0.07,0.021l0.035,0.01l0.018,0.006l0.009,0.002
						c0.099,0.031-0.129-0.041-0.104-0.034l0.002-0.001c0.047-0.002,0.092-0.002,0.135,0.002c0.109-0.008,0.213-0.006,0.362-0.034
						c0.56-0.08,1.331-0.324,2.17-0.494c0.84-0.177,1.813-0.281,2.817-0.142c0.5,0.068,1,0.191,1.479,0.365
						c0.482,0.172,0.924,0.402,1.36,0.648l0.696,0.941l-0.007-0.02c-0.19-0.475-0.196-0.389-0.274-0.513l-0.129-0.134
						c-0.068-0.059-0.135-0.091-0.123-0.09c-0.01-0.007-0.031-0.012-0.036-0.01l0.057,0.02c0.022,0.018,0.085,0.037,0.168,0.054
						c0.076,0.016,0.143,0.044,0.226,0.055l0.25,0.037c0.086,0.013,0.15,0.032,0.291,0.036l0.738,0.043l0.578-0.002
						c0.215,0.002,0.39-0.027,0.588-0.035c0.096-0.008,0.158-0.027,0.24-0.038c0.087-0.011,0.154-0.024,0.186-0.038l0.068-0.014
						c0-0.001-0.014,0.004-0.017,0.012c0.017-0.001-0.039,0.028-0.094,0.08l-0.108,0.119c-0.068,0.11-0.069,0.033-0.242,0.457
						l-0.005,0.02l0.632-0.852c0.424-0.246,0.854-0.479,1.325-0.653c0.466-0.177,0.955-0.304,1.445-0.377
						c0.985-0.151,1.949-0.063,2.787,0.099c0.836,0.155,1.612,0.386,2.178,0.451c0.196,0.021,0.136,0.027,0.3,0.034l0.29-0.038
						c-0.04,0.01,0.096-0.021-0.088,0.021l0.003-0.002l0.008-0.002l0.014-0.004l0.027-0.009l0.055-0.018l0.11-0.034
						c0.285-0.096,0.629-0.146,0.84-0.304c0.116-0.069,0.26-0.12,0.363-0.196c0.086-0.088,0.177-0.17,0.275-0.251
						c0.12-0.067,0.132-0.2,0.215-0.294l0.107-0.153l0.054-0.189c0.111-0.237,0.113-0.542,0.149-0.841
						c-0.031-0.319-0.029-0.642-0.118-0.98c-0.131-0.672-0.384-1.36-0.698-2.025c-0.31-0.666-0.682-1.33-1.089-1.938l-0.01-0.014
						c-0.189-0.283-0.113-0.666,0.17-0.855C117.362,318.49,117.715,318.545,117.914,318.781z"/>
				</g>
			</g>
			<g>
				<path fill="#303030" d="M137.742,224.765c-5.269-3.113-12.369-9.745-18.563-11.099c-2.997-0.654-6.962,0.793-10.122,0.611
					c-3.971-0.23-6.992-1.936-10.785-1.401c-5.984,0.845-10.406,6.904-15.697,9.425c-18.762,8.938-32.203,27.559-33.484,49.77
					c-1.912,33.146,26.361,4.988,58.549,6.846c32.446,1.873,57.075,32.381,58.947-0.064
					C167.899,256.094,156.101,235.613,137.742,224.765z"/>
				<path fill="#303030" d="M54.34,301.268c0.388-6.719,11.028-14.197,11.028-14.197l6.13-22.76l-22.264,5.266
					C46.908,279.844,54.34,301.268,54.34,301.268z"/>
				<path fill="#303030" d="M144.992,268.551l3.471,23.316c0,0,9.709,8.65,9.322,15.369c0,0,9.846-20.426,8.717-30.895
					L144.992,268.551z"/>
				<path fill="#27994A" d="M49.09,272.07c0,0-0.331,5.76,0.731,7.363c0,0,12.612-11.602,38.021-11.289l0.266-4.609
					C88.107,263.535,68.954,261.658,49.09,272.07z"/>
				<path fill="#27994A" d="M51.076,261.014c0,0-2.904,6.959-1.842,8.562c0,0,12.612-11.602,38.021-11.291l0.266-4.607
					C87.521,253.678,70.94,250.602,51.076,261.014z"/>
				<path fill="#27994A" d="M128.433,270.484c25.276,2.615,36.47,15.59,36.47,15.59c1.24-1.471,1.573-7.23,1.573-7.23
					c-18.534-12.627-37.777-12.965-37.777-12.965L128.433,270.484z"/>
				<path fill="#27994A" d="M130.415,256.152l-0.266,4.607c25.276,2.615,36.47,15.588,36.47,15.588
					c1.24-1.469-0.845-8.717-0.845-8.717C147.24,255.004,130.415,256.152,130.415,256.152z"/>
				<circle fill="#27994A" cx="106.952" cy="260.77" r="8.847"/>
			</g>
			<path fill="#D5B970" d="M173.668,309.693c-1.869-14.361-9.91-15.209-9.91-15.209c-4.193,5.922-8.152,20.451-8.152,20.451
				c-22.512-0.432-43.078,10.516-43.078,10.516c-50.406,2.293-58.188-24.184-58.188-24.184c-13.08,5.289-8.733,27.256-8.733,27.256
				c-12.893,13.125-22.72,74.636-22.72,74.636c-20.5,36.5-2.388,60.843-7.53,72.499h203.188
				c-7.347-45.983-24.158-90.999-24.158-90.999C198.407,345.019,173.668,309.693,173.668,309.693z"/>
		</g>
		<rect x="271.691" y="250.1" fill="#303030" width="16.154" height="55.385"/>
		<rect x="360.922" y="250.1" fill="#303030" width="16.154" height="55.385"/>
		<g>
			<path fill="#16408C" d="M373.009,225.005c-14.513-9.431-31.356-14.415-48.715-14.415c-17.356,0-34.202,4.984-48.714,14.415
				c-14.127,9.181-25.385,22.097-32.555,37.351c-0.545,1.158-0.46,2.514,0.227,3.596c0.687,1.08,1.877,1.734,3.158,1.734h155.769
				c1.28,0,2.472-0.654,3.157-1.734c0.688-1.082,0.772-2.438,0.229-3.596C398.393,247.102,387.135,234.186,373.009,225.005z"/>
			<path fill="#16408C" d="M401.105,283.496H247.484c-2.547,0-4.617,2.086-4.617,4.648v187.514h162.854V288.145
				C405.721,285.582,403.65,283.496,401.105,283.496z"/>
		</g>
		<g>
			
				<ellipse transform="matrix(0.0576 -0.9983 0.9983 0.0576 11.2224 598.9374)" fill="#FFCCB8" cx="322.857" cy="293.524" rx="68.846" ry="52.599"/>
			<g>
				<path fill="#303030" d="M353.51,224.765c-5.268-3.113-12.368-9.745-18.562-11.099c-2.996-0.654-6.963,0.793-10.121,0.611
					c-3.971-0.23-6.994-1.936-10.785-1.401c-5.985,0.845-10.407,6.904-15.697,9.425c-18.762,8.938-32.203,27.559-33.485,49.77
					c-1.912,33.146,26.361,4.988,58.55,6.846c32.445,1.873,57.074,32.381,58.947-0.064
					C383.668,256.094,371.869,235.613,353.51,224.765z"/>
				<path fill="#303030" d="M270.108,301.268c0.388-6.719,11.028-14.197,11.028-14.197l6.129-22.76l-22.263,5.266
					C262.677,279.844,270.108,301.268,270.108,301.268z"/>
				<path fill="#303030" d="M360.762,268.551l3.47,23.316c0,0,9.71,8.65,9.322,15.369c0,0,9.847-20.426,8.718-30.895
					L360.762,268.551z"/>
				<path fill="#27994A" d="M264.858,272.07c0,0-0.331,5.76,0.731,7.363c0,0,12.612-11.602,38.021-11.289l0.266-4.609
					C303.877,263.535,284.723,261.658,264.858,272.07z"/>
				<path fill="#27994A" d="M266.845,261.014c0,0-2.905,6.959-1.842,8.562c0,0,12.612-11.602,38.021-11.291l0.266-4.607
					C303.29,253.678,286.709,250.602,266.845,261.014z"/>
				<path fill="#27994A" d="M344.201,270.484c25.275,2.615,36.471,15.59,36.471,15.59c1.24-1.471,1.572-7.23,1.572-7.23
					c-18.533-12.627-37.777-12.965-37.777-12.965L344.201,270.484z"/>
				<path fill="#27994A" d="M346.184,256.152l-0.266,4.607c25.277,2.615,36.471,15.588,36.471,15.588
					c1.239-1.469-0.846-8.717-0.846-8.717C363.008,255.004,346.184,256.152,346.184,256.152z"/>
				<circle fill="#27994A" cx="322.721" cy="260.77" r="8.847"/>
			</g>
			<circle fill="#431200" cx="303.541" cy="298.561" r="3.582"/>
			<g>
				<path fill="#231F20" d="M311.582,290.713c0,0-0.085-0.025-0.246-0.072c-0.158-0.043-0.391-0.105-0.687-0.185
					c-0.606-0.151-1.486-0.354-2.558-0.529c-0.534-0.097-1.117-0.177-1.736-0.252c-0.617-0.089-1.273-0.123-1.951-0.192
					c-0.68-0.025-1.383-0.083-2.098-0.08c-0.715,0.004-1.444-0.013-2.169,0.043c-0.728,0.025-1.453,0.082-2.164,0.175
					c-0.715,0.062-1.409,0.183-2.081,0.307c-0.678,0.101-1.318,0.261-1.926,0.417c-0.611,0.141-1.184,0.295-1.699,0.481
					c-0.519,0.175-1,0.322-1.418,0.476c-0.41,0.174-0.768,0.326-1.062,0.45c-0.591,0.25-0.928,0.394-0.928,0.394l-0.023,0.009
					c-0.145,0.062-0.312-0.007-0.375-0.151c-0.059-0.141,0.003-0.302,0.137-0.369c0,0,0.336-0.165,0.923-0.455
					c0.294-0.146,0.651-0.322,1.062-0.524c0.419-0.183,0.902-0.362,1.425-0.572c0.519-0.223,1.098-0.415,1.718-0.597
					c0.615-0.197,1.268-0.4,1.958-0.545c0.686-0.169,1.396-0.335,2.13-0.442c0.729-0.139,1.477-0.241,2.227-0.312
					c0.749-0.101,1.502-0.129,2.244-0.174c0.742-0.047,1.473-0.03,2.182-0.044c0.706,0.029,1.393,0.026,2.04,0.081
					c0.648,0.04,1.262,0.09,1.826,0.156c1.13,0.119,2.068,0.277,2.728,0.401c0.327,0.062,0.59,0.117,0.775,0.161
					c0.176,0.041,0.27,0.062,0.27,0.062c0.525,0.123,0.852,0.648,0.729,1.174c-0.123,0.525-0.648,0.853-1.175,0.729
					c-0.017-0.004-0.034-0.009-0.051-0.013L311.582,290.713z"/>
			</g>
			<circle fill="#431200" cx="343.422" cy="298.561" r="3.582"/>
			<g>
				<path fill="#231F20" d="M334.86,288.83c0,0,0.094-0.021,0.269-0.062c0.187-0.044,0.449-0.099,0.776-0.161
					c0.659-0.124,1.597-0.282,2.728-0.401c0.564-0.066,1.178-0.115,1.826-0.156c0.646-0.055,1.334-0.052,2.04-0.081
					c0.709,0.014,1.439-0.003,2.182,0.044c0.741,0.045,1.495,0.073,2.243,0.174c0.751,0.07,1.497,0.172,2.227,0.312
					c0.734,0.107,1.445,0.273,2.131,0.442c0.689,0.145,1.342,0.348,1.957,0.545c0.62,0.182,1.199,0.373,1.718,0.597
					c0.522,0.21,1.006,0.39,1.425,0.572c0.41,0.202,0.768,0.379,1.062,0.524c0.587,0.29,0.923,0.455,0.923,0.455
					c0.141,0.07,0.199,0.242,0.129,0.384c-0.067,0.136-0.229,0.195-0.367,0.138l-0.023-0.01c0,0-0.337-0.144-0.928-0.394
					c-0.295-0.124-0.652-0.276-1.062-0.45c-0.418-0.153-0.899-0.301-1.418-0.476c-0.515-0.187-1.088-0.341-1.699-0.481
					c-0.607-0.156-1.248-0.316-1.925-0.417c-0.672-0.124-1.366-0.245-2.082-0.307c-0.71-0.093-1.436-0.149-2.163-0.175
					c-0.726-0.056-1.454-0.039-2.169-0.043c-0.715-0.003-1.419,0.055-2.098,0.08c-0.678,0.069-1.335,0.104-1.952,0.192
					c-0.618,0.075-1.201,0.155-1.735,0.252c-1.071,0.176-1.951,0.378-2.558,0.529c-0.296,0.079-0.528,0.142-0.688,0.185
					c-0.16,0.047-0.245,0.072-0.245,0.072l-0.022,0.006c-0.518,0.153-1.061-0.143-1.214-0.66s0.143-1.061,0.66-1.214
					C334.823,288.84,334.844,288.834,334.86,288.83z"/>
			</g>
			<g opacity="0.2">
				<path fill="#231F20" d="M334.333,314.901c0.396,0.286,0.739,0.616,1.043,1c0.14,0.199,0.292,0.394,0.399,0.62
					c0.117,0.222,0.221,0.451,0.279,0.703c0.092,0.242,0.096,0.505,0.119,0.766c0.025,0.262-0.048,0.518-0.074,0.779
					c-0.061,0.252-0.169,0.486-0.257,0.731c-0.104,0.233-0.257,0.433-0.387,0.651c-0.124,0.227-0.306,0.389-0.466,0.576
					c-0.17,0.173-0.319,0.385-0.512,0.523c-0.373,0.295-0.724,0.648-1.129,0.885c-0.398,0.246-0.781,0.547-1.199,0.75l-1.238,0.661
					l0.25-0.183c-0.235,0.346-0.439,0.589-0.692,0.838c-0.237,0.264-0.515,0.451-0.781,0.676c-0.271,0.219-0.573,0.366-0.865,0.553
					c-0.291,0.193-0.611,0.303-0.925,0.439c-0.314,0.129-0.63,0.283-0.961,0.346l-0.99,0.246c-0.331,0.098-0.666,0.081-1.001,0.125
					l-1.006,0.086l-0.997-0.059c-0.314-0.032-0.574-0.012-0.935-0.088l-1.053-0.223c-0.359-0.061-0.674-0.193-0.994-0.316
					c-0.317-0.132-0.645-0.225-0.943-0.408c-0.301-0.177-0.609-0.319-0.893-0.525c-0.277-0.219-0.565-0.394-0.817-0.652
					c-0.268-0.246-0.482-0.477-0.746-0.834l0.299,0.215l-1.246-0.693c-0.418-0.215-0.805-0.527-1.203-0.785
					c-0.406-0.246-0.758-0.619-1.131-0.924c-0.189-0.148-0.34-0.367-0.508-0.547c-0.162-0.191-0.337-0.365-0.46-0.6
					c-0.127-0.228-0.282-0.428-0.377-0.675c-0.083-0.253-0.194-0.491-0.241-0.751c-0.021-0.268-0.096-0.527-0.058-0.793
					c0.024-0.264,0.04-0.527,0.134-0.771c0.062-0.253,0.174-0.48,0.292-0.703c0.112-0.225,0.266-0.421,0.409-0.619
					c0.309-0.383,0.65-0.707,1.057-0.996c0.109-0.078,0.262-0.053,0.34,0.058c0.072,0.102,0.056,0.239-0.034,0.321l-0.017,0.016
					c-0.621,0.566-1.137,1.336-1.263,2.114c-0.054,0.192-0.032,0.389-0.032,0.579c-0.011,0.191,0.081,0.374,0.108,0.558
					c0.054,0.182,0.167,0.35,0.241,0.522c0.086,0.172,0.239,0.318,0.351,0.479c0.104,0.164,0.275,0.295,0.425,0.435
					c0.161,0.132,0.285,0.289,0.471,0.401c0.365,0.227,0.673,0.502,1.075,0.684c0.393,0.19,0.746,0.423,1.162,0.578l1.212,0.5
					l0.299,0.215l0.652,0.32c0.223,0.121,0.488,0.204,0.724,0.305c0.236,0.106,0.504,0.166,0.748,0.252
					c0.241,0.094,0.511,0.137,0.766,0.199c0.521,0.146,1.002,0.178,1.489,0.264c0.234,0.046,0.586,0.041,0.873,0.064l0.816,0.047
					l0.807-0.028c0.267-0.018,0.546,0.007,0.805-0.042l0.794-0.099c0.271-0.019,0.52-0.1,0.782-0.149
					c0.26-0.057,0.528-0.103,0.775-0.193c0.248-0.086,0.522-0.141,0.762-0.25c0.243-0.101,0.512-0.186,0.742-0.309
					c0.238-0.105,0.501-0.25,0.686-0.341l0.251-0.185l1.204-0.522c0.413-0.161,0.766-0.402,1.154-0.6
					c0.398-0.189,0.709-0.47,1.068-0.704c0.188-0.112,0.311-0.274,0.47-0.41c0.146-0.145,0.321-0.273,0.425-0.443
					c0.111-0.162,0.256-0.314,0.349-0.486c0.073-0.176,0.177-0.348,0.237-0.529c0.025-0.187,0.107-0.371,0.1-0.562
					c-0.006-0.19,0.018-0.386-0.043-0.576c-0.143-0.773-0.668-1.516-1.304-2.062l-0.01-0.008c-0.116-0.101-0.129-0.275-0.029-0.392
					C334.055,314.836,334.217,314.818,334.333,314.901z"/>
			</g>
			<path fill="#CD122D" d="M389.436,309.693c-1.867-14.361-9.908-15.209-9.908-15.209c-4.193,5.922-8.152,20.451-8.152,20.451
				c-22.512-0.432-43.08,10.516-43.08,10.516c-50.405,2.293-58.187-24.184-58.187-24.184c-13.081,5.289-8.733,27.256-8.733,27.256
				c-32.988,29.136-16.488,117.636-16.488,117.636c-3.959,9.83,0.171,19.585-2.066,29.499h191.492
				c6.574-31.999-23.926-93.499-23.926-93.499C414.408,342.519,389.436,309.693,389.436,309.693z"/>
		</g>
		<rect x="492.076" y="250.1" fill="#303030" width="16.153" height="55.385"/>
		<rect x="581.307" y="250.1" fill="#303030" width="16.154" height="55.385"/>
		<g>
			<path fill="#16408C" d="M593.393,225.005c-14.512-9.431-31.356-14.415-48.715-14.415c-17.357,0-34.201,4.984-48.714,14.415
				c-14.126,9.181-25.385,22.097-32.556,37.351c-0.544,1.158-0.459,2.514,0.228,3.596c0.687,1.08,1.878,1.734,3.158,1.734h155.77
				c1.28,0,2.471-0.654,3.157-1.734c0.686-1.082,0.771-2.438,0.227-3.596C618.777,247.102,607.52,234.186,593.393,225.005z"/>
			<path fill="#16408C" d="M621.489,283.496H467.868c-2.546,0-4.616,2.086-4.616,4.648v187.514h162.854V288.145
				C626.105,285.582,624.034,283.496,621.489,283.496z"/>
		</g>
		<g>
			
				<ellipse transform="matrix(0.0576 -0.9983 0.9983 0.0576 218.9079 818.9535)" fill="#ECC19C" cx="543.242" cy="293.524" rx="68.846" ry="52.6"/>
			<g>
				<g>
					<path fill="#381C0A" d="M533.357,294.537c0,0-0.076-0.029-0.217-0.084c-0.104-0.044-0.307-0.113-0.584-0.203
						c-0.549-0.168-1.362-0.406-2.375-0.587c-1.008-0.203-2.211-0.34-3.512-0.4c-0.648-0.009-1.326-0.044-2.01,0.01
						c-0.689,0.013-1.383,0.087-2.078,0.181c-0.703,0.059-1.382,0.238-2.066,0.363c-0.687,0.121-1.328,0.363-1.974,0.531
						c-0.646,0.172-1.227,0.454-1.806,0.66c-0.585,0.199-1.093,0.482-1.578,0.717c-0.476,0.25-0.943,0.434-1.309,0.678
						c-0.375,0.231-0.701,0.433-0.971,0.599c-0.542,0.333-0.852,0.524-0.852,0.524l-0.055,0.033
						c-0.317,0.195-0.733,0.097-0.929-0.221c-0.179-0.291-0.111-0.664,0.146-0.875c0,0,0.295-0.242,0.81-0.668
						c0.26-0.213,0.574-0.471,0.936-0.769c0.354-0.311,0.813-0.573,1.286-0.908c0.481-0.321,0.989-0.698,1.584-0.999
						c0.589-0.309,1.187-0.698,1.859-0.983c0.673-0.28,1.35-0.641,2.083-0.88c0.731-0.244,1.466-0.543,2.234-0.718
						c0.761-0.212,1.53-0.399,2.3-0.522c0.766-0.164,1.53-0.234,2.272-0.324c1.485-0.136,2.888-0.167,4.094-0.095
						c1.206,0.05,2.217,0.194,2.937,0.313c0.354,0.062,0.647,0.118,0.877,0.175c0.192,0.046,0.295,0.069,0.295,0.069
						c1.24,0.293,2.009,1.535,1.716,2.775c-0.292,1.24-1.534,2.008-2.774,1.715c-0.099-0.023-0.194-0.053-0.287-0.087
						L533.357,294.537z"/>
				</g>
				<path fill="#2E230E" d="M524.582,298.898c-1.62,0-2.937,1.312-2.937,2.934c0,1.623,1.316,2.932,2.937,2.932
					c1.616,0,2.931-1.309,2.931-2.932C527.513,300.211,526.198,298.898,524.582,298.898z"/>
				<g>
					<path fill="#381C0A" d="M550.812,290.914c0,0,0.101-0.034,0.288-0.096c0.224-0.078,0.51-0.16,0.858-0.254
						c0.706-0.182,1.699-0.416,2.896-0.573c1.194-0.18,2.595-0.273,4.086-0.271c0.747,0.023,1.515,0.025,2.292,0.12
						c0.777,0.054,1.561,0.173,2.337,0.316c0.78,0.105,1.54,0.339,2.29,0.517c0.751,0.173,1.458,0.471,2.152,0.69
						c0.695,0.224,1.325,0.56,1.939,0.813c0.619,0.247,1.158,0.578,1.667,0.854c0.5,0.292,0.981,0.513,1.361,0.79
						c0.386,0.264,0.723,0.494,1,0.683c0.552,0.378,0.866,0.593,0.866,0.593c0.308,0.211,0.387,0.631,0.176,0.938
						c-0.193,0.282-0.562,0.372-0.858,0.224l-0.058-0.029c0,0-0.325-0.162-0.895-0.446c-0.283-0.142-0.627-0.313-1.021-0.51
						c-0.386-0.21-0.867-0.353-1.364-0.559c-0.504-0.19-1.035-0.427-1.635-0.574c-0.596-0.153-1.199-0.382-1.857-0.495
						c-0.658-0.11-1.318-0.295-2.013-0.354c-0.693-0.063-1.385-0.183-2.09-0.177c-0.701-0.033-1.399-0.045-2.087,0.004
						c-0.686,0.008-1.356,0.102-2.003,0.169c-1.289,0.176-2.476,0.419-3.462,0.712c-0.991,0.271-1.781,0.58-2.312,0.797
						c-0.269,0.113-0.464,0.201-0.563,0.254c-0.136,0.066-0.208,0.102-0.208,0.102l-0.04,0.02c-1.143,0.562-2.525,0.092-3.088-1.052
						c-0.562-1.144-0.09-2.526,1.053-3.088C550.613,290.987,550.718,290.945,550.812,290.914z"/>
				</g>
				<path fill="#2E230E" d="M560.575,298.898c-1.618,0-2.933,1.312-2.933,2.934c0,1.623,1.314,2.932,2.933,2.932
					c1.619,0,2.934-1.309,2.934-2.932C563.509,300.211,562.194,298.898,560.575,298.898z"/>
				<g opacity="0.2">
					<path fill="#231F20" d="M552.692,316.182c1.149,0.995,2.178,2.167,2.846,3.607c0.333,0.717,0.536,1.527,0.513,2.375
						c-0.033,0.848-0.354,1.697-0.854,2.386c-0.5,0.694-1.148,1.235-1.825,1.686c-0.336,0.239-0.693,0.417-1.045,0.619l-0.54,0.261
						c-0.113,0.051-0.13,0.07-0.322,0.146l-0.265,0.1c-0.153,0.069-0.403,0.129-0.64,0.185c-0.253,0.064-0.427,0.077-0.643,0.116
						l-1.154,0.143c-0.73,0.086-1.407,0.213-2.069,0.391l0.414-0.178h-0.001c-0.179,0.121-0.306,0.197-0.459,0.286l-0.443,0.242
						c-0.301,0.152-0.606,0.295-0.927,0.416c-0.636,0.246-1.321,0.433-2.065,0.49l-0.283,0.011
						c-0.064,0.001-0.054,0.007-0.181,0.002l-0.112-0.005l-0.234-0.012l-0.318-0.036c-0.398-0.062-0.76-0.15-1.118-0.291
						c-0.355-0.137-0.694-0.309-1.011-0.515c-0.159-0.101-0.312-0.214-0.461-0.334c-0.158-0.132-0.273-0.228-0.467-0.437
						l-0.001-0.001l0.623,0.363c-0.663-0.177-1.347-0.303-2.081-0.388c-0.73-0.096-1.541-0.128-2.429-0.412l-0.329-0.118
						l-0.081-0.03l-0.093-0.041l-0.128-0.062l-0.513-0.249c-0.35-0.191-0.741-0.388-1.073-0.621
						c-0.346-0.217-0.673-0.477-0.991-0.744c-0.312-0.281-0.603-0.59-0.861-0.931c-0.246-0.352-0.473-0.723-0.619-1.134
						c-0.167-0.4-0.23-0.836-0.269-1.258c-0.031-0.854,0.166-1.674,0.499-2.396c0.667-1.454,1.703-2.632,2.859-3.635
						c0.031-0.026,0.078-0.024,0.105,0.007c0.025,0.029,0.023,0.072-0.002,0.101l-0.004,0.004c-1.016,1.101-1.889,2.382-2.336,3.763
						c-0.229,0.686-0.301,1.402-0.201,2.062c0.072,0.325,0.151,0.646,0.316,0.932c0.143,0.295,0.35,0.555,0.566,0.802
						c0.23,0.241,0.489,0.458,0.767,0.656c0.288,0.188,0.579,0.372,0.897,0.524c0.312,0.17,0.62,0.277,0.952,0.416l0.538,0.189
						l0.135,0.047l0.033,0.012c-0.005-0.002,0.035,0.014-0.007-0.003l0.014,0.003l0.055,0.011l0.216,0.046
						c0.584,0.113,1.311,0.074,2.091,0.07c0.782-0.008,1.61,0.032,2.438,0.147l0.623,0.363v-0.001
						c0.01,0.012,0.118,0.114,0.191,0.171c0.084,0.066,0.172,0.133,0.266,0.19c0.185,0.119,0.382,0.219,0.584,0.296
						c0.197,0.081,0.423,0.128,0.613,0.159l0.126,0.018l0.213,0.011l0.112,0.005c-0.052,0,0.033-0.002,0.043-0.004l0.165-0.006
						c0.448-0.033,0.933-0.152,1.409-0.336c0.239-0.089,0.478-0.199,0.71-0.315l0.344-0.185l0.304-0.186l0.414-0.178
						c0.819-0.113,1.645-0.154,2.421-0.146l1.105,0.006c0.159-0.008,0.364-0.004,0.48-0.021c0.135-0.013,0.26-0.007,0.463-0.066
						l0.275-0.065l0.201-0.069l0.505-0.176c0.319-0.14,0.658-0.26,0.959-0.43c0.618-0.314,1.194-0.699,1.638-1.188
						c0.443-0.486,0.75-1.075,0.856-1.734c0.094-0.659,0.014-1.37-0.216-2.052c-0.45-1.371-1.317-2.643-2.329-3.738
						c-0.029-0.028-0.03-0.076-0.001-0.105C552.616,316.158,552.662,316.158,552.692,316.182z"/>
				</g>
			</g>
			<g>
				<path fill="#303030" d="M573.895,224.765c-5.268-3.113-12.369-9.745-18.562-11.099c-2.997-0.654-6.963,0.793-10.123,0.611
					c-3.97-0.23-6.992-1.936-10.785-1.401c-5.984,0.845-10.406,6.904-15.696,9.425c-18.762,8.938-32.202,27.559-33.485,49.77
					c-1.912,33.146,26.361,4.988,58.55,6.846c32.445,1.873,57.074,32.381,58.947-0.064
					C604.052,256.094,592.253,235.613,573.895,224.765z"/>
				<path fill="#303030" d="M490.493,301.268c0.387-6.719,11.028-14.197,11.028-14.197l6.129-22.76l-22.263,5.266
					C483.062,279.844,490.493,301.268,490.493,301.268z"/>
				<path fill="#303030" d="M581.146,268.551l3.47,23.316c0,0,9.71,8.65,9.323,15.369c0,0,9.846-20.426,8.717-30.895
					L581.146,268.551z"/>
				<path fill="#27994A" d="M485.242,272.07c0,0-0.331,5.76,0.731,7.363c0,0,12.612-11.602,38.022-11.289l0.265-4.609
					C524.261,263.535,505.106,261.658,485.242,272.07z"/>
				<path fill="#27994A" d="M487.229,261.014c0,0-2.905,6.959-1.842,8.562c0,0,12.611-11.602,38.021-11.291l0.266-4.607
					C523.674,253.678,507.094,250.602,487.229,261.014z"/>
				<path fill="#27994A" d="M564.585,270.484c25.276,2.615,36.471,15.59,36.471,15.59c1.239-1.471,1.572-7.23,1.572-7.23
					c-18.533-12.627-37.776-12.965-37.776-12.965L564.585,270.484z"/>
				<path fill="#27994A" d="M566.568,256.152l-0.266,4.607c25.275,2.615,36.47,15.588,36.47,15.588
					c1.24-1.469-0.846-8.717-0.846-8.717C583.393,255.004,566.568,256.152,566.568,256.152z"/>
				<circle fill="#27994A" cx="543.105" cy="260.77" r="8.847"/>
			</g>
			<path fill="#4B2F60" d="M609.82,309.693c-1.868-14.361-9.909-15.209-9.909-15.209c-4.194,5.922-8.152,20.451-8.152,20.451
				c-22.512-0.432-43.079,10.516-43.079,10.516c-50.405,2.293-58.187-24.184-58.187-24.184c-13.081,5.289-8.733,27.256-8.733,27.256
				c-26.873,23.636-14.373,85.636-14.373,85.636c-29.5,26-8.448,49.441-11.122,61.499h185.122c0-39.999-20.5-49.999-20.5-49.999
				C638.887,383.659,609.82,309.693,609.82,309.693z"/>
		</g>
		<rect x="707.845" y="250.1" fill="#303030" width="16.154" height="55.385"/>
		<rect x="797.075" y="250.1" fill="#303030" width="16.154" height="55.385"/>
		<g>
			<path fill="#16408C" d="M809.161,225.005c-14.512-9.431-31.356-14.415-48.714-14.415s-34.202,4.984-48.715,14.415
				c-14.127,9.181-25.385,22.097-32.556,37.351c-0.544,1.158-0.458,2.514,0.228,3.596c0.687,1.08,1.878,1.734,3.158,1.734h155.769
				c1.281,0,2.472-0.654,3.158-1.734c0.686-1.082,0.772-2.438,0.228-3.596C834.547,247.102,823.288,234.186,809.161,225.005z"/>
			<path fill="#16408C" d="M837.258,283.496H683.637c-2.545,0-4.616,2.086-4.616,4.648v187.514h162.854V288.145
				C841.874,285.582,839.803,283.496,837.258,283.496z"/>
		</g>
		<g>
			
				<ellipse transform="matrix(0.0576 -0.9983 0.9983 0.0576 422.2457 1034.3636)" fill="#FFCCB8" cx="759.01" cy="293.524" rx="68.846" ry="52.6"/>
			<g>
				<circle fill="#6E3612" cx="739.777" cy="297.416" r="3.512"/>
				<g>
					<path fill="#3A1D0C" d="M746.346,290.759c0,0-0.057-0.024-0.164-0.07c-0.066-0.034-0.252-0.099-0.464-0.177
						c-0.448-0.148-1.116-0.346-1.955-0.514c-0.421-0.072-0.879-0.165-1.372-0.217c-0.493-0.062-1.017-0.115-1.563-0.136
						c-1.093-0.071-2.271-0.022-3.455,0.064c-0.587,0.077-1.181,0.136-1.762,0.226c-0.579,0.11-1.149,0.219-1.702,0.324
						c-0.547,0.141-1.076,0.275-1.578,0.402c-0.502,0.136-0.963,0.307-1.398,0.441c-0.875,0.26-1.567,0.579-2.068,0.768
						c-0.497,0.199-0.781,0.312-0.781,0.312l-0.038,0.015c-0.317,0.126-0.678-0.028-0.805-0.347
						c-0.116-0.291,0.005-0.619,0.272-0.77c0,0,0.275-0.154,0.759-0.426c0.488-0.262,1.163-0.688,2.036-1.078
						c0.434-0.201,0.896-0.442,1.403-0.654c0.513-0.205,1.053-0.422,1.611-0.646c0.574-0.189,1.168-0.387,1.771-0.587
						c0.611-0.18,1.244-0.329,1.874-0.496c1.274-0.267,2.57-0.492,3.809-0.577c0.617-0.058,1.219-0.076,1.793-0.081
						c0.573-0.014,1.118,0.021,1.624,0.041c1.01,0.065,1.862,0.195,2.469,0.311c0.312,0.069,0.539,0.114,0.747,0.175
						c0.169,0.048,0.259,0.073,0.259,0.073c1.028,0.288,1.629,1.355,1.34,2.384c-0.288,1.028-1.355,1.628-2.383,1.34
						c-0.08-0.022-0.157-0.049-0.231-0.08L746.346,290.759z"/>
				</g>
				<circle fill="#6E3612" cx="776.749" cy="297.416" r="3.512"/>
				<g>
					<path fill="#3A1D0C" d="M768.858,287.136c0,0,0.09-0.025,0.259-0.073c0.208-0.061,0.436-0.105,0.747-0.175
						c0.606-0.115,1.459-0.245,2.47-0.311c0.505-0.021,1.05-0.055,1.623-0.041c0.574,0.005,1.176,0.023,1.793,0.081
						c1.238,0.085,2.534,0.311,3.809,0.577c0.631,0.167,1.263,0.316,1.873,0.496c0.604,0.2,1.197,0.397,1.771,0.587
						c0.559,0.225,1.1,0.44,1.611,0.646c0.508,0.211,0.969,0.453,1.402,0.654c0.873,0.391,1.549,0.816,2.037,1.078
						c0.482,0.271,0.759,0.426,0.759,0.426c0.298,0.168,0.404,0.545,0.237,0.844c-0.154,0.274-0.485,0.387-0.77,0.272l-0.038-0.015
						c0,0-0.284-0.113-0.782-0.312c-0.5-0.188-1.192-0.508-2.067-0.768c-0.435-0.135-0.897-0.306-1.398-0.441
						c-0.502-0.127-1.031-0.263-1.579-0.402c-0.551-0.105-1.121-0.214-1.701-0.324c-0.581-0.09-1.175-0.148-1.762-0.226
						c-1.184-0.087-2.362-0.136-3.455-0.064c-0.547,0.021-1.07,0.073-1.562,0.136c-0.494,0.052-0.952,0.145-1.373,0.217
						c-0.839,0.168-1.507,0.365-1.955,0.514c-0.211,0.078-0.396,0.143-0.464,0.177c-0.107,0.046-0.164,0.07-0.164,0.07l-0.036,0.016
						c-0.981,0.421-2.118-0.033-2.539-1.015c-0.422-0.98,0.033-2.118,1.014-2.539C768.693,287.188,768.781,287.158,768.858,287.136z
						"/>
				</g>
				<path opacity="0.2" fill="none" stroke="#231F20" stroke-width="2.0096" stroke-linecap="round" stroke-miterlimit="10" d="
					M768.385,316.008c0,0,4.544,6.193-3.099,7.021c0,0-3.304-0.828-4.543,0.412c0,0-0.775,1.033-3.048,1.033
					c-2.271,0-3.048-1.033-3.048-1.033c-1.238-1.24-4.544-0.412-4.544-0.412c-7.642-0.828-3.098-7.021-3.098-7.021"/>
			</g>
			<g>
				<path fill="#303030" d="M789.663,224.765c-5.268-3.113-12.369-9.745-18.562-11.099c-2.996-0.654-6.963,0.793-10.122,0.611
					c-3.972-0.23-6.993-1.936-10.786-1.401c-5.983,0.845-10.406,6.904-15.696,9.425c-18.762,8.938-32.202,27.559-33.484,49.77
					c-1.913,33.146,26.36,4.988,58.549,6.846c32.445,1.873,57.074,32.381,58.947-0.064
					C819.82,256.094,808.022,235.613,789.663,224.765z"/>
				<path fill="#303030" d="M706.262,301.268c0.387-6.719,11.028-14.197,11.028-14.197l6.129-22.76l-22.263,5.266
					C698.829,279.844,706.262,301.268,706.262,301.268z"/>
				<path fill="#303030" d="M796.914,268.551l3.47,23.316c0,0,9.71,8.65,9.323,15.369c0,0,9.846-20.426,8.717-30.895
					L796.914,268.551z"/>
				<path fill="#27994A" d="M701.012,272.07c0,0-0.331,5.76,0.73,7.363c0,0,12.612-11.602,38.022-11.289l0.265-4.609
					C740.029,263.535,720.875,261.658,701.012,272.07z"/>
				<path fill="#27994A" d="M702.997,261.014c0,0-2.903,6.959-1.841,8.562c0,0,12.611-11.602,38.021-11.291l0.265-4.607
					C739.442,253.678,722.862,250.602,702.997,261.014z"/>
				<path fill="#27994A" d="M780.354,270.484c25.276,2.615,36.471,15.59,36.471,15.59c1.24-1.471,1.573-7.23,1.573-7.23
					c-18.534-12.627-37.778-12.965-37.778-12.965L780.354,270.484z"/>
				<path fill="#27994A" d="M782.337,256.152l-0.266,4.607c25.275,2.615,36.47,15.588,36.47,15.588
					c1.24-1.469-0.846-8.717-0.846-8.717C799.161,255.004,782.337,256.152,782.337,256.152z"/>
				<circle fill="#27994A" cx="758.874" cy="260.77" r="8.847"/>
			</g>
			<path fill="#83B0C7" d="M848.387,381.659c4.021-39.641-22.797-71.966-22.797-71.966c-1.869-14.361-9.909-15.209-9.909-15.209
				c-4.195,5.922-8.153,20.451-8.153,20.451c-22.512-0.432-43.079,10.516-43.079,10.516c-50.405,2.293-58.187-24.184-58.187-24.184
				c-13.081,5.289-8.733,27.256-8.733,27.256c-12.893,13.125-33.062,113.215-33.062,113.215c1.5,17.999,5.237,24.006,3,33.92
				h189.921C857.387,433.159,848.387,381.659,848.387,381.659z"/>
		</g>
	</g>
</g>
</svg>
