<?xml version="1.0" encoding="utf-8"?>
<!-- Generator: Adobe Illustrator 16.0.0, SVG Export Plug-In . SVG Version: 6.00 Build 0)  -->
<!DOCTYPE svg PUBLIC "-//W3C//DTD SVG 1.1//EN" "http://www.w3.org/Graphics/SVG/1.1/DTD/svg11.dtd">
<svg version="1.1" id="Layer_1" xmlns="http://www.w3.org/2000/svg" xmlns:xlink="http://www.w3.org/1999/xlink" x="0px" y="0px"
	 width="874.9px" height="476.1px" viewBox="0 0 874.9 476.1" enable-background="new 0 0 874.9 476.1" xml:space="preserve">
<g>
	<rect x="0.9" y="0.7" fill="#62A362" width="874" height="475"/>
	<rect fill="#8EBCB4" width="874.9" height="475.7"/>
	<path opacity="0.2" fill="#FFFFFF" enable-background="new    " d="M256.5,74.3c0,0,52.5,177,25.5,382.5l-25.5,1.5
		C256.5,458.2,291,363.7,256.5,74.3z"/>
	<path opacity="0.2" fill="#FFFFFF" enable-background="new    " d="M523.7,74.3c0,0-52.5,177-25.5,382.5l25.5,1.5
		C523.7,458.2,489.2,363.7,523.7,74.3z"/>
	<path opacity="0.2" fill="#FFFFFF" enable-background="new    " d="M808.6,14.1c0,0-91.5,160.3-112.2,366.5l24.5,7.3
		C720.9,388,708.9,288.1,808.6,14.1z"/>
	<g>
		<g>
			<path fill="#6B6D6B" d="M100.4,473.7C100.4,46.3,7.2,0,7.2,0h21.7c0,0,93.2,46.3,93.2,473.7H100.4z"/>
			<path fill="#6B6D6B" d="M280.5,0c0,0,36.6,130.4,33.3,346.7v127h18.4c0,0,14.1-298.6-34.7-473.7H280.5z"/>
			<path fill="#6B6D6B" d="M779.6,473.7C779.6,46.3,872.8,0,872.8,0h-21.7c0,0-93.2,46.3-93.2,473.7H779.6z"/>
			<path fill="#6B6D6B" d="M599.4,0c0,0-36.6,130.4-33.3,346.7v127h-18.4c0,0-14.1-298.6,34.7-473.7H599.4z"/>
		</g>
		<g>
			<path fill="#9B9B9B" d="M93.2,476.1C93.2,48.7,0,0,0,0h21.7c0,0,93.2,48.7,93.2,476.1H93.2z"/>
			<path fill="#9B9B9B" d="M273.3,0c0,0,36.6,132.8,33.3,349.1v127h18.4c0,0,14.1-301-34.7-476.1H273.3z"/>
			<path fill="#9B9B9B" d="M772.4,476.1C772.4,48.7,865.6,0,865.6,0h-21.7c0,0-93.2,48.7-93.2,476.1H772.4z"/>
			<path fill="#9B9B9B" d="M592.2,0c0,0-36.6,132.8-33.3,349.1v127h-18.4c0,0-14.1-301,34.7-476.1H592.2z"/>
		</g>
	</g>
	<g>
		<rect x="55.9" y="250.1" fill="#303030" width="16.2" height="55.4"/>
		<rect x="145.2" y="250.1" fill="#303030" width="16.2" height="55.4"/>
		<g>
			<path fill="#16408C" d="M157.2,225c-14.5-9.4-31.4-14.4-48.7-14.4s-34.2,5-48.7,14.4c-14.1,9.2-25.4,22.1-32.6,37.4
				c-0.5,1.2-0.5,2.5,0.2,3.6c0.7,1.1,1.9,1.7,3.2,1.7h155.8c1.3,0,2.5-0.7,3.2-1.7c0.7-1.1,0.8-2.4,0.2-3.6
				C182.6,247.1,171.4,234.2,157.2,225z"/>
			<path fill="#16408C" d="M185.3,283.5H31.7c-2.5,0-4.6,2.1-4.6,4.6v187.5H190V288.1C190,285.6,187.9,283.5,185.3,283.5z"/>
		</g>
		<g>
			
				<ellipse transform="matrix(-0.9983 -5.759356e-02 5.759356e-02 -0.9983 197.0698 592.7344)" fill="#EFB597" cx="107.1" cy="293.5" rx="52.6" ry="68.8"/>
			<g>
				<circle fill="#492925" cx="86.6" cy="299.1" r="2.4"/>
				<g>
					<path fill="#231F20" d="M92,294.9c0,0-0.3-0.1-0.7-0.2c-0.5-0.1-1.2-0.3-2-0.5c-1.7-0.4-4-0.8-6.3-1c-0.6-0.1-1.2-0.1-1.7-0.1
						c-0.6,0-1.1,0-1.7,0c-0.5,0-1,0.1-1.5,0.1c-0.5,0.1-0.9,0.2-1.3,0.2c-0.4,0.1-0.8,0.2-1.1,0.3c-0.3,0.1-0.6,0.2-0.8,0.3
						c-0.4,0.2-0.7,0.3-0.7,0.3l-0.2,0.1c-0.6,0.3-1.4,0-1.6-0.7c-0.2-0.6,0-1.2,0.5-1.6c0,0,0.3-0.2,0.8-0.5c0.3-0.1,0.6-0.4,1-0.5
						c0.4-0.2,0.8-0.4,1.3-0.5c0.5-0.1,1-0.3,1.6-0.5c0.6-0.1,1.1-0.3,1.7-0.4c0.6-0.1,1.2-0.2,1.9-0.2c0.6,0,1.3-0.1,1.9-0.1
						c2.6-0.1,5.1,0,7,0.3c1,0.1,1.8,0.2,2.3,0.3c0.6,0.1,0.9,0.2,0.9,0.2c1.4,0.2,2.3,1.5,2,2.9c-0.2,1.4-1.5,2.3-2.9,2
						C92.3,295,92.2,294.9,92,294.9L92,294.9z"/>
				</g>
				<circle fill="#492925" cx="125.6" cy="299.1" r="2.4"/>
				<g>
					<path fill="#231F20" d="M119,290.1c0,0,0.3-0.1,0.9-0.2c0.6-0.1,1.4-0.2,2.3-0.3c1.9-0.2,4.5-0.4,7-0.3c0.6,0,1.3,0.1,1.9,0.1
						c0.6,0.1,1.3,0.2,1.9,0.2c0.6,0.1,1.2,0.2,1.7,0.4c0.6,0.2,1.1,0.3,1.6,0.5c0.5,0.2,0.9,0.4,1.3,0.5c0.4,0.1,0.7,0.3,1,0.5
						c0.5,0.3,0.8,0.5,0.8,0.5c0.6,0.3,0.8,1.1,0.4,1.7c-0.3,0.5-1,0.8-1.6,0.5l-0.2-0.1c0,0-0.2-0.1-0.7-0.3
						c-0.2-0.1-0.5-0.2-0.8-0.3c-0.3-0.1-0.7-0.2-1.1-0.3c-0.4-0.1-0.9-0.1-1.3-0.2c-0.5,0-1-0.1-1.5-0.1c-0.5,0-1.1,0-1.7,0
						c-0.6,0-1.1,0-1.7,0.1c-2.3,0.2-4.6,0.6-6.3,1c-0.9,0.2-1.6,0.4-2,0.5c-0.5,0.1-0.7,0.2-0.7,0.2l-0.1,0
						c-1.3,0.4-2.7-0.3-3.1-1.7c-0.4-1.3,0.3-2.7,1.7-3.1C118.8,290.1,118.9,290.1,119,290.1z"/>
				</g>
				<g>
					<path fill="#C6977F" d="M117.9,318.8c0.5,0.6,1,1.3,1.4,2c0.4,0.7,0.8,1.4,1.1,2.3c0.2,0.4,0.2,0.9,0.3,1.3
						c0,0.5,0.1,1-0.1,1.5l-0.1,0.4l-0.2,0.4c-0.1,0.2-0.2,0.5-0.4,0.7c-0.2,0.2-0.3,0.4-0.5,0.6c-0.2,0.2-0.4,0.3-0.6,0.5
						c-0.4,0.3-0.8,0.5-1.3,0.6l-0.2,0.1l-0.1,0l0,0l0,0l0,0l0,0l-0.1,0l-0.3,0.1c-0.2,0-0.7,0.1-0.9,0.1c-1,0-1.7-0.2-2.4-0.2
						c-0.7-0.1-1.3,0-1.9,0.1c-0.3,0.1-0.5,0.2-0.8,0.3c-0.2,0.1-0.5,0.3-0.7,0.5l0.6-0.9l0,0c-0.2,0.5-0.2,0.5-0.3,0.6
						c-0.1,0.1-0.2,0.2-0.2,0.2c-0.1,0.1-0.3,0.2-0.4,0.3c-0.1,0.1-0.2,0.1-0.3,0.2l-0.3,0.1c-0.2,0.1-0.4,0.1-0.5,0.2
						c-0.2,0-0.3,0.1-0.5,0.1c-0.3,0-0.6,0.1-0.9,0.1l-0.4,0l-0.5,0l-0.7,0c-0.1,0-0.3,0-0.4,0l-0.5,0c-0.2,0-0.3-0.1-0.5-0.1
						c-0.2,0-0.3-0.1-0.5-0.1l-0.3-0.1c-0.1-0.1-0.2-0.1-0.4-0.2c-0.1,0-0.3-0.2-0.4-0.3c-0.1-0.1-0.1-0.1-0.3-0.3
						c-0.1-0.2-0.2-0.1-0.4-0.7l0,0l0.7,0.9c-0.2-0.2-0.4-0.3-0.7-0.5c-0.2-0.1-0.5-0.2-0.7-0.3c-0.5-0.2-1.1-0.2-1.8-0.2
						c-0.7,0-1.4,0.2-2.4,0.2c-0.2,0-0.5,0-0.8-0.1l-0.4-0.1l-0.1,0l0,0l0,0l0,0l-0.1,0l-0.1-0.1c-0.4-0.2-0.7-0.3-1.2-0.6
						c-0.2-0.2-0.5-0.3-0.6-0.5c-0.2-0.2-0.3-0.4-0.5-0.6c-0.2-0.2-0.3-0.5-0.4-0.7l-0.2-0.4l-0.1-0.4c-0.1-0.5-0.1-1-0.1-1.4
						c0.1-0.4,0.2-0.9,0.3-1.3c0.3-0.8,0.7-1.6,1.1-2.2c0.4-0.7,0.9-1.3,1.4-1.9c0.2-0.2,0.4-0.2,0.6,0c0.2,0.1,0.2,0.4,0.1,0.6l0,0
						c-0.4,0.6-0.8,1.3-1.1,2c-0.3,0.7-0.6,1.4-0.7,2.1c-0.1,0.3-0.1,0.7-0.1,1c0,0.3,0.1,0.6,0.2,0.9l0.1,0.2l0.1,0.2
						c0.1,0.1,0.1,0.2,0.2,0.3c0.1,0.1,0.2,0.2,0.3,0.2c0.1,0.1,0.2,0.1,0.3,0.2c0.1,0.1,0.6,0.2,1,0.3l0.1,0l0.1,0l0,0l0,0l0,0
						c0.1,0-0.1,0-0.1,0h0c0,0,0.1,0,0.1,0c0.1,0,0.2,0,0.4,0c0.6-0.1,1.3-0.3,2.2-0.5c0.8-0.2,1.8-0.3,2.8-0.1
						c0.5,0.1,1,0.2,1.5,0.4c0.5,0.2,0.9,0.4,1.4,0.6l0.7,0.9l0,0c-0.2-0.5-0.2-0.4-0.3-0.5l-0.1-0.1c-0.1-0.1-0.1-0.1-0.1-0.1
						c0,0,0,0,0,0l0.1,0c0,0,0.1,0,0.2,0.1c0.1,0,0.1,0,0.2,0.1l0.2,0c0.1,0,0.1,0,0.3,0l0.7,0l0.6,0c0.2,0,0.4,0,0.6,0
						c0.1,0,0.2,0,0.2,0c0.1,0,0.2,0,0.2,0l0.1,0c0,0,0,0,0,0c0,0,0,0-0.1,0.1l-0.1,0.1c-0.1,0.1-0.1,0-0.2,0.5l0,0l0.6-0.9
						c0.4-0.2,0.9-0.5,1.3-0.7c0.5-0.2,1-0.3,1.4-0.4c1-0.2,1.9-0.1,2.8,0.1c0.8,0.2,1.6,0.4,2.2,0.5c0.2,0,0.1,0,0.3,0l0.3,0
						c0,0,0.1,0-0.1,0l0,0l0,0l0,0l0,0l0.1,0l0.1,0c0.3-0.1,0.6-0.1,0.8-0.3c0.1-0.1,0.3-0.1,0.4-0.2c0.1-0.1,0.2-0.2,0.3-0.3
						c0.1-0.1,0.1-0.2,0.2-0.3l0.1-0.2l0.1-0.2c0.1-0.2,0.1-0.5,0.1-0.8c0-0.3,0-0.6-0.1-1c-0.1-0.7-0.4-1.4-0.7-2
						c-0.3-0.7-0.7-1.3-1.1-1.9l0,0c-0.2-0.3-0.1-0.7,0.2-0.9C117.4,318.5,117.7,318.5,117.9,318.8z"/>
				</g>
			</g>
			<g>
				<path fill="#303030" d="M137.7,224.8c-5.3-3.1-12.4-9.7-18.6-11.1c-3-0.7-7,0.8-10.1,0.6c-4-0.2-7-1.9-10.8-1.4
					c-6,0.8-10.4,6.9-15.7,9.4c-18.8,8.9-32.2,27.6-33.5,49.8c-1.9,33.1,26.4,5,58.5,6.8c32.4,1.9,57.1,32.4,58.9-0.1
					C167.9,256.1,156.1,235.6,137.7,224.8z"/>
				<path fill="#303030" d="M54.3,301.3c0.4-6.7,11-14.2,11-14.2l6.1-22.8l-22.3,5.3C46.9,279.8,54.3,301.3,54.3,301.3z"/>
				<path fill="#303030" d="M145,268.6l3.5,23.3c0,0,9.7,8.7,9.3,15.4c0,0,9.8-20.4,8.7-30.9L145,268.6z"/>
				<path fill="#27994A" d="M49.1,272.1c0,0-0.3,5.8,0.7,7.4c0,0,12.6-11.6,38-11.3l0.3-4.6C88.1,263.5,69,261.7,49.1,272.1z"/>
				<path fill="#27994A" d="M51.1,261c0,0-2.9,7-1.8,8.6c0,0,12.6-11.6,38-11.3l0.3-4.6C87.5,253.7,70.9,250.6,51.1,261z"/>
				<path fill="#27994A" d="M128.4,270.5c25.3,2.6,36.5,15.6,36.5,15.6c1.2-1.5,1.6-7.2,1.6-7.2c-18.5-12.6-37.8-13-37.8-13
					L128.4,270.5z"/>
				<path fill="#27994A" d="M130.4,256.2l-0.3,4.6c25.3,2.6,36.5,15.6,36.5,15.6c1.2-1.5-0.8-8.7-0.8-8.7
					C147.2,255,130.4,256.2,130.4,256.2z"/>
				<circle fill="#27994A" cx="107" cy="260.8" r="8.8"/>
			</g>
			<path fill="#D5B970" d="M173.7,309.7c-1.9-14.4-9.9-15.2-9.9-15.2c-4.2,5.9-8.2,20.5-8.2,20.5c-22.5-0.4-43.1,10.5-43.1,10.5
				c-50.4,2.3-58.2-24.2-58.2-24.2c-13.1,5.3-8.7,27.3-8.7,27.3c-12.9,13.1-22.7,74.6-22.7,74.6c-20.5,36.5-2.4,60.8-7.5,72.5h203.2
				c-7.3-46-24.2-91-24.2-91C198.4,345,173.7,309.7,173.7,309.7z"/>
		</g>
		<rect x="271.7" y="250.1" fill="#303030" width="16.2" height="55.4"/>
		<rect x="360.9" y="250.1" fill="#303030" width="16.2" height="55.4"/>
		<g>
			<path fill="#16408C" d="M373,225c-14.5-9.4-31.4-14.4-48.7-14.4c-17.4,0-34.2,5-48.7,14.4c-14.1,9.2-25.4,22.1-32.6,37.4
				c-0.5,1.2-0.5,2.5,0.2,3.6c0.7,1.1,1.9,1.7,3.2,1.7h155.8c1.3,0,2.5-0.7,3.2-1.7c0.7-1.1,0.8-2.4,0.2-3.6
				C398.4,247.1,387.1,234.2,373,225z"/>
			<path fill="#16408C" d="M401.1,283.5H247.5c-2.5,0-4.6,2.1-4.6,4.6v187.5h162.9V288.1C405.7,285.6,403.7,283.5,401.1,283.5z"/>
		</g>
		<g>
			
				<ellipse transform="matrix(-0.9983 -5.761307e-02 5.761307e-02 -0.9983 628.2402 605.1847)" fill="#FFCCB8" cx="322.8" cy="293.5" rx="52.6" ry="68.8"/>
			<g>
				<path fill="#303030" d="M353.5,224.8c-5.3-3.1-12.4-9.7-18.6-11.1c-3-0.7-7,0.8-10.1,0.6c-4-0.2-7-1.9-10.8-1.4
					c-6,0.8-10.4,6.9-15.7,9.4c-18.8,8.9-32.2,27.6-33.5,49.8c-1.9,33.1,26.4,5,58.6,6.8c32.4,1.9,57.1,32.4,58.9-0.1
					C383.7,256.1,371.9,235.6,353.5,224.8z"/>
				<path fill="#303030" d="M270.1,301.3c0.4-6.7,11-14.2,11-14.2l6.1-22.8l-22.3,5.3C262.7,279.8,270.1,301.3,270.1,301.3z"/>
				<path fill="#303030" d="M360.8,268.6l3.5,23.3c0,0,9.7,8.7,9.3,15.4c0,0,9.8-20.4,8.7-30.9L360.8,268.6z"/>
				<path fill="#27994A" d="M264.9,272.1c0,0-0.3,5.8,0.7,7.4c0,0,12.6-11.6,38-11.3l0.3-4.6C303.9,263.5,284.7,261.7,264.9,272.1z"
					/>
				<path fill="#27994A" d="M266.8,261c0,0-2.9,7-1.8,8.6c0,0,12.6-11.6,38-11.3l0.3-4.6C303.3,253.7,286.7,250.6,266.8,261z"/>
				<path fill="#27994A" d="M344.2,270.5c25.3,2.6,36.5,15.6,36.5,15.6c1.2-1.5,1.6-7.2,1.6-7.2c-18.5-12.6-37.8-13-37.8-13
					L344.2,270.5z"/>
				<path fill="#27994A" d="M346.2,256.2l-0.3,4.6c25.3,2.6,36.5,15.6,36.5,15.6c1.2-1.5-0.8-8.7-0.8-8.7
					C363,255,346.2,256.2,346.2,256.2z"/>
				<circle fill="#27994A" cx="322.7" cy="260.8" r="8.8"/>
			</g>
			<circle fill="#431200" cx="303.5" cy="298.6" r="3.6"/>
			<g>
				<path fill="#231F20" d="M311.6,290.7c0,0-0.1,0-0.2-0.1c-0.2,0-0.4-0.1-0.7-0.2c-0.6-0.2-1.5-0.4-2.6-0.5
					c-0.5-0.1-1.1-0.2-1.7-0.3c-0.6-0.1-1.3-0.1-2-0.2c-0.7,0-1.4-0.1-2.1-0.1c-0.7,0-1.4,0-2.2,0c-0.7,0-1.5,0.1-2.2,0.2
					c-0.7,0.1-1.4,0.2-2.1,0.3c-0.7,0.1-1.3,0.3-1.9,0.4c-0.6,0.1-1.2,0.3-1.7,0.5c-0.5,0.2-1,0.3-1.4,0.5c-0.4,0.2-0.8,0.3-1.1,0.5
					c-0.6,0.2-0.9,0.4-0.9,0.4l0,0c-0.1,0.1-0.3,0-0.4-0.2c-0.1-0.1,0-0.3,0.1-0.4c0,0,0.3-0.2,0.9-0.5c0.3-0.1,0.7-0.3,1.1-0.5
					c0.4-0.2,0.9-0.4,1.4-0.6c0.5-0.2,1.1-0.4,1.7-0.6c0.6-0.2,1.3-0.4,2-0.5c0.7-0.2,1.4-0.3,2.1-0.4c0.7-0.1,1.5-0.2,2.2-0.3
					c0.7-0.1,1.5-0.1,2.2-0.2c0.7,0,1.5,0,2.2,0c0.7,0,1.4,0,2,0.1c0.6,0,1.3,0.1,1.8,0.2c1.1,0.1,2.1,0.3,2.7,0.4
					c0.3,0.1,0.6,0.1,0.8,0.2c0.2,0,0.3,0.1,0.3,0.1c0.5,0.1,0.9,0.6,0.7,1.2C312.7,290.5,312.2,290.9,311.6,290.7
					C311.6,290.7,311.6,290.7,311.6,290.7L311.6,290.7z"/>
			</g>
			<circle fill="#431200" cx="343.4" cy="298.6" r="3.6"/>
			<g>
				<path fill="#231F20" d="M334.9,288.8c0,0,0.1,0,0.3-0.1c0.2,0,0.4-0.1,0.8-0.2c0.7-0.1,1.6-0.3,2.7-0.4c0.6-0.1,1.2-0.1,1.8-0.2
					c0.6-0.1,1.3-0.1,2-0.1c0.7,0,1.4,0,2.2,0c0.7,0,1.5,0.1,2.2,0.2c0.8,0.1,1.5,0.2,2.2,0.3c0.7,0.1,1.4,0.3,2.1,0.4
					c0.7,0.1,1.3,0.3,2,0.5c0.6,0.2,1.2,0.4,1.7,0.6c0.5,0.2,1,0.4,1.4,0.6c0.4,0.2,0.8,0.4,1.1,0.5c0.6,0.3,0.9,0.5,0.9,0.5
					c0.1,0.1,0.2,0.2,0.1,0.4c-0.1,0.1-0.2,0.2-0.4,0.1l0,0c0,0-0.3-0.1-0.9-0.4c-0.3-0.1-0.7-0.3-1.1-0.5c-0.4-0.2-0.9-0.3-1.4-0.5
					c-0.5-0.2-1.1-0.3-1.7-0.5c-0.6-0.2-1.2-0.3-1.9-0.4c-0.7-0.1-1.4-0.2-2.1-0.3c-0.7-0.1-1.4-0.1-2.2-0.2c-0.7-0.1-1.5,0-2.2,0
					c-0.7,0-1.4,0.1-2.1,0.1c-0.7,0.1-1.3,0.1-2,0.2c-0.6,0.1-1.2,0.2-1.7,0.3c-1.1,0.2-2,0.4-2.6,0.5c-0.3,0.1-0.5,0.1-0.7,0.2
					c-0.2,0-0.2,0.1-0.2,0.1l0,0c-0.5,0.2-1.1-0.1-1.2-0.7C334,289.5,334.3,289,334.9,288.8C334.8,288.8,334.8,288.8,334.9,288.8z"
					/>
			</g>
			<g opacity="0.2">
				<path fill="#231F20" d="M334.3,314.9c0.4,0.3,0.7,0.6,1,1c0.1,0.2,0.3,0.4,0.4,0.6c0.1,0.2,0.2,0.5,0.3,0.7
					c0.1,0.2,0.1,0.5,0.1,0.8c0,0.3,0,0.5-0.1,0.8c-0.1,0.3-0.2,0.5-0.3,0.7c-0.1,0.2-0.3,0.4-0.4,0.7c-0.1,0.2-0.3,0.4-0.5,0.6
					c-0.2,0.2-0.3,0.4-0.5,0.5c-0.4,0.3-0.7,0.6-1.1,0.9c-0.4,0.2-0.8,0.5-1.2,0.8l-1.2,0.7l0.2-0.2c-0.2,0.3-0.4,0.6-0.7,0.8
					c-0.2,0.3-0.5,0.5-0.8,0.7c-0.3,0.2-0.6,0.4-0.9,0.6c-0.3,0.2-0.6,0.3-0.9,0.4c-0.3,0.1-0.6,0.3-1,0.3l-1,0.2
					c-0.3,0.1-0.7,0.1-1,0.1l-1,0.1l-1-0.1c-0.3,0-0.6,0-0.9-0.1l-1.1-0.2c-0.4-0.1-0.7-0.2-1-0.3c-0.3-0.1-0.6-0.2-0.9-0.4
					c-0.3-0.2-0.6-0.3-0.9-0.5c-0.3-0.2-0.6-0.4-0.8-0.7c-0.3-0.2-0.5-0.5-0.7-0.8l0.3,0.2l-1.2-0.7c-0.4-0.2-0.8-0.5-1.2-0.8
					c-0.4-0.2-0.8-0.6-1.1-0.9c-0.2-0.1-0.3-0.4-0.5-0.5c-0.2-0.2-0.3-0.4-0.5-0.6c-0.1-0.2-0.3-0.4-0.4-0.7
					c-0.1-0.3-0.2-0.5-0.2-0.8c0-0.3-0.1-0.5-0.1-0.8c0-0.3,0-0.5,0.1-0.8c0.1-0.3,0.2-0.5,0.3-0.7c0.1-0.2,0.3-0.4,0.4-0.6
					c0.3-0.4,0.7-0.7,1.1-1c0.1-0.1,0.3-0.1,0.3,0.1c0.1,0.1,0.1,0.2,0,0.3l0,0c-0.6,0.6-1.1,1.3-1.3,2.1c-0.1,0.2,0,0.4,0,0.6
					c0,0.2,0.1,0.4,0.1,0.6c0.1,0.2,0.2,0.3,0.2,0.5c0.1,0.2,0.2,0.3,0.4,0.5c0.1,0.2,0.3,0.3,0.4,0.4c0.2,0.1,0.3,0.3,0.5,0.4
					c0.4,0.2,0.7,0.5,1.1,0.7c0.4,0.2,0.7,0.4,1.2,0.6l1.2,0.5l0.3,0.2l0.7,0.3c0.2,0.1,0.5,0.2,0.7,0.3c0.2,0.1,0.5,0.2,0.7,0.3
					c0.2,0.1,0.5,0.1,0.8,0.2c0.5,0.1,1,0.2,1.5,0.3c0.2,0,0.6,0,0.9,0.1l0.8,0l0.8,0c0.3,0,0.5,0,0.8,0l0.8-0.1
					c0.3,0,0.5-0.1,0.8-0.1c0.3-0.1,0.5-0.1,0.8-0.2c0.2-0.1,0.5-0.1,0.8-0.2c0.2-0.1,0.5-0.2,0.7-0.3c0.2-0.1,0.5-0.2,0.7-0.3
					l0.3-0.2l1.2-0.5c0.4-0.2,0.8-0.4,1.2-0.6c0.4-0.2,0.7-0.5,1.1-0.7c0.2-0.1,0.3-0.3,0.5-0.4c0.1-0.1,0.3-0.3,0.4-0.4
					c0.1-0.2,0.3-0.3,0.3-0.5c0.1-0.2,0.2-0.3,0.2-0.5c0-0.2,0.1-0.4,0.1-0.6c0-0.2,0-0.4,0-0.6c-0.1-0.8-0.7-1.5-1.3-2.1l0,0
					c-0.1-0.1-0.1-0.3,0-0.4C334.1,314.8,334.2,314.8,334.3,314.9z"/>
			</g>
			<path fill="#CD122D" d="M389.4,309.7c-1.9-14.4-9.9-15.2-9.9-15.2c-4.2,5.9-8.2,20.5-8.2,20.5c-22.5-0.4-43.1,10.5-43.1,10.5
				c-50.4,2.3-58.2-24.2-58.2-24.2c-13.1,5.3-8.7,27.3-8.7,27.3c-33,29.1-16.5,117.6-16.5,117.6c-4,9.8,0.2,19.6-2.1,29.5h191.5
				c6.6-32-23.9-93.5-23.9-93.5C414.4,342.5,389.4,309.7,389.4,309.7z"/>
		</g>
		<rect x="492.1" y="250.1" fill="#303030" width="16.2" height="55.4"/>
		<rect x="581.3" y="250.1" fill="#303030" width="16.2" height="55.4"/>
		<g>
			<path fill="#16408C" d="M593.4,225c-14.5-9.4-31.4-14.4-48.7-14.4c-17.4,0-34.2,5-48.7,14.4c-14.1,9.2-25.4,22.1-32.6,37.4
				c-0.5,1.2-0.5,2.5,0.2,3.6c0.7,1.1,1.9,1.7,3.2,1.7h155.8c1.3,0,2.5-0.7,3.2-1.7c0.7-1.1,0.8-2.4,0.2-3.6
				C618.8,247.1,607.5,234.2,593.4,225z"/>
			<path fill="#16408C" d="M621.5,283.5H467.9c-2.5,0-4.6,2.1-4.6,4.6v187.5h162.9V288.1C626.1,285.6,624,283.5,621.5,283.5z"/>
		</g>
		<g>
			
				<ellipse transform="matrix(-0.9983 -5.761189e-02 5.761189e-02 -0.9983 1068.6335 617.8926)" fill="#ECC19C" cx="543.2" cy="293.5" rx="52.6" ry="68.8"/>
			<g>
				<g>
					<path fill="#381C0A" d="M533.4,294.5c0,0-0.1,0-0.2-0.1c-0.1,0-0.3-0.1-0.6-0.2c-0.5-0.2-1.4-0.4-2.4-0.6
						c-1-0.2-2.2-0.3-3.5-0.4c-0.6,0-1.3,0-2,0c-0.7,0-1.4,0.1-2.1,0.2c-0.7,0.1-1.4,0.2-2.1,0.4c-0.7,0.1-1.3,0.4-2,0.5
						c-0.6,0.2-1.2,0.5-1.8,0.7c-0.6,0.2-1.1,0.5-1.6,0.7c-0.5,0.2-0.9,0.4-1.3,0.7c-0.4,0.2-0.7,0.4-1,0.6
						c-0.5,0.3-0.9,0.5-0.9,0.5l-0.1,0c-0.3,0.2-0.7,0.1-0.9-0.2c-0.2-0.3-0.1-0.7,0.1-0.9c0,0,0.3-0.2,0.8-0.7
						c0.3-0.2,0.6-0.5,0.9-0.8c0.4-0.3,0.8-0.6,1.3-0.9c0.5-0.3,1-0.7,1.6-1c0.6-0.3,1.2-0.7,1.9-1c0.7-0.3,1.3-0.6,2.1-0.9
						c0.7-0.2,1.5-0.5,2.2-0.7c0.8-0.2,1.5-0.4,2.3-0.5c0.8-0.2,1.5-0.2,2.3-0.3c1.5-0.1,2.9-0.2,4.1-0.1c1.2,0,2.2,0.2,2.9,0.3
						c0.4,0.1,0.6,0.1,0.9,0.2c0.2,0,0.3,0.1,0.3,0.1c1.2,0.3,2,1.5,1.7,2.8c-0.3,1.2-1.5,2-2.8,1.7
						C533.6,294.6,533.5,294.6,533.4,294.5L533.4,294.5z"/>
				</g>
				<path fill="#2E230E" d="M524.6,298.9c-1.6,0-2.9,1.3-2.9,2.9c0,1.6,1.3,2.9,2.9,2.9c1.6,0,2.9-1.3,2.9-2.9
					C527.5,300.2,526.2,298.9,524.6,298.9z"/>
				<g>
					<path fill="#381C0A" d="M550.8,290.9c0,0,0.1,0,0.3-0.1c0.2-0.1,0.5-0.2,0.9-0.3c0.7-0.2,1.7-0.4,2.9-0.6
						c1.2-0.2,2.6-0.3,4.1-0.3c0.7,0,1.5,0,2.3,0.1c0.8,0.1,1.6,0.2,2.3,0.3c0.8,0.1,1.5,0.3,2.3,0.5c0.8,0.2,1.5,0.5,2.2,0.7
						c0.7,0.2,1.3,0.6,1.9,0.8c0.6,0.2,1.2,0.6,1.7,0.9c0.5,0.3,1,0.5,1.4,0.8c0.4,0.3,0.7,0.5,1,0.7c0.6,0.4,0.9,0.6,0.9,0.6
						c0.3,0.2,0.4,0.6,0.2,0.9c-0.2,0.3-0.6,0.4-0.9,0.2l-0.1,0c0,0-0.3-0.2-0.9-0.4c-0.3-0.1-0.6-0.3-1-0.5
						c-0.4-0.2-0.9-0.4-1.4-0.6c-0.5-0.2-1-0.4-1.6-0.6c-0.6-0.2-1.2-0.4-1.9-0.5c-0.7-0.1-1.3-0.3-2-0.4c-0.7-0.1-1.4-0.2-2.1-0.2
						c-0.7,0-1.4,0-2.1,0c-0.7,0-1.4,0.1-2,0.2c-1.3,0.2-2.5,0.4-3.5,0.7c-1,0.3-1.8,0.6-2.3,0.8c-0.3,0.1-0.5,0.2-0.6,0.3
						c-0.1,0.1-0.2,0.1-0.2,0.1l0,0c-1.1,0.6-2.5,0.1-3.1-1.1c-0.6-1.1-0.1-2.5,1.1-3.1C550.6,291,550.7,290.9,550.8,290.9z"/>
				</g>
				<path fill="#2E230E" d="M560.6,298.9c-1.6,0-2.9,1.3-2.9,2.9c0,1.6,1.3,2.9,2.9,2.9s2.9-1.3,2.9-2.9
					C563.5,300.2,562.2,298.9,560.6,298.9z"/>
				<g opacity="0.2">
					<path fill="#231F20" d="M552.7,316.2c1.1,1,2.2,2.2,2.8,3.6c0.3,0.7,0.5,1.5,0.5,2.4c0,0.8-0.4,1.7-0.9,2.4
						c-0.5,0.7-1.1,1.2-1.8,1.7c-0.3,0.2-0.7,0.4-1,0.6l-0.5,0.3c-0.1,0.1-0.1,0.1-0.3,0.1l-0.3,0.1c-0.2,0.1-0.4,0.1-0.6,0.2
						c-0.3,0.1-0.4,0.1-0.6,0.1l-1.2,0.1c-0.7,0.1-1.4,0.2-2.1,0.4l0.4-0.2h0c-0.2,0.1-0.3,0.2-0.5,0.3l-0.4,0.2
						c-0.3,0.2-0.6,0.3-0.9,0.4c-0.6,0.2-1.3,0.4-2.1,0.5l-0.3,0c-0.1,0-0.1,0-0.2,0l-0.1,0l-0.2,0l-0.3,0c-0.4-0.1-0.8-0.2-1.1-0.3
						c-0.4-0.1-0.7-0.3-1-0.5c-0.2-0.1-0.3-0.2-0.5-0.3c-0.2-0.1-0.3-0.2-0.5-0.4l0,0l0.6,0.4c-0.7-0.2-1.3-0.3-2.1-0.4
						c-0.7-0.1-1.5-0.1-2.4-0.4l-0.3-0.1l-0.1,0l-0.1,0l-0.1-0.1l-0.5-0.2c-0.3-0.2-0.7-0.4-1.1-0.6c-0.3-0.2-0.7-0.5-1-0.7
						c-0.3-0.3-0.6-0.6-0.9-0.9c-0.2-0.4-0.5-0.7-0.6-1.1c-0.2-0.4-0.2-0.8-0.3-1.3c0-0.9,0.2-1.7,0.5-2.4c0.7-1.5,1.7-2.6,2.9-3.6
						c0,0,0.1,0,0.1,0c0,0,0,0.1,0,0.1l0,0c-1,1.1-1.9,2.4-2.3,3.8c-0.2,0.7-0.3,1.4-0.2,2.1c0.1,0.3,0.2,0.6,0.3,0.9
						c0.1,0.3,0.3,0.6,0.6,0.8c0.2,0.2,0.5,0.5,0.8,0.7c0.3,0.2,0.6,0.4,0.9,0.5c0.3,0.2,0.6,0.3,1,0.4l0.5,0.2l0.1,0l0,0
						c0,0,0,0,0,0l0,0l0.1,0l0.2,0c0.6,0.1,1.3,0.1,2.1,0.1c0.8,0,1.6,0,2.4,0.1l0.6,0.4v0c0,0,0.1,0.1,0.2,0.2
						c0.1,0.1,0.2,0.1,0.3,0.2c0.2,0.1,0.4,0.2,0.6,0.3c0.2,0.1,0.4,0.1,0.6,0.2l0.1,0l0.2,0l0.1,0c-0.1,0,0,0,0,0l0.2,0
						c0.4,0,0.9-0.2,1.4-0.3c0.2-0.1,0.5-0.2,0.7-0.3l0.3-0.2l0.3-0.2l0.4-0.2c0.8-0.1,1.6-0.2,2.4-0.1l1.1,0c0.2,0,0.4,0,0.5,0
						c0.1,0,0.3,0,0.5-0.1l0.3-0.1l0.2-0.1l0.5-0.2c0.3-0.1,0.7-0.3,1-0.4c0.6-0.3,1.2-0.7,1.6-1.2c0.4-0.5,0.8-1.1,0.9-1.7
						c0.1-0.7,0-1.4-0.2-2.1c-0.5-1.4-1.3-2.6-2.3-3.7c0,0,0-0.1,0-0.1C552.6,316.2,552.7,316.2,552.7,316.2z"/>
				</g>
			</g>
			<g>
				<path fill="#303030" d="M573.9,224.8c-5.3-3.1-12.4-9.7-18.6-11.1c-3-0.7-7,0.8-10.1,0.6c-4-0.2-7-1.9-10.8-1.4
					c-6,0.8-10.4,6.9-15.7,9.4c-18.8,8.9-32.2,27.6-33.5,49.8c-1.9,33.1,26.4,5,58.5,6.8c32.4,1.9,57.1,32.4,58.9-0.1
					C604.1,256.1,592.3,235.6,573.9,224.8z"/>
				<path fill="#303030" d="M490.5,301.3c0.4-6.7,11-14.2,11-14.2l6.1-22.8l-22.3,5.3C483.1,279.8,490.5,301.3,490.5,301.3z"/>
				<path fill="#303030" d="M581.1,268.6l3.5,23.3c0,0,9.7,8.7,9.3,15.4c0,0,9.8-20.4,8.7-30.9L581.1,268.6z"/>
				<path fill="#27994A" d="M485.2,272.1c0,0-0.3,5.8,0.7,7.4c0,0,12.6-11.6,38-11.3l0.3-4.6C524.3,263.5,505.1,261.7,485.2,272.1z"
					/>
				<path fill="#27994A" d="M487.2,261c0,0-2.9,7-1.8,8.6c0,0,12.6-11.6,38-11.3l0.3-4.6C523.7,253.7,507.1,250.6,487.2,261z"/>
				<path fill="#27994A" d="M564.6,270.5c25.3,2.6,36.5,15.6,36.5,15.6c1.2-1.5,1.6-7.2,1.6-7.2c-18.5-12.6-37.8-13-37.8-13
					L564.6,270.5z"/>
				<path fill="#27994A" d="M566.6,256.2l-0.3,4.6c25.3,2.6,36.5,15.6,36.5,15.6c1.2-1.5-0.8-8.7-0.8-8.7
					C583.4,255,566.6,256.2,566.6,256.2z"/>
				<circle fill="#27994A" cx="543.1" cy="260.8" r="8.8"/>
			</g>
			<path fill="#4B2F60" d="M609.8,309.7c-1.9-14.4-9.9-15.2-9.9-15.2c-4.2,5.9-8.2,20.5-8.2,20.5c-22.5-0.4-43.1,10.5-43.1,10.5
				c-50.4,2.3-58.2-24.2-58.2-24.2c-13.1,5.3-8.7,27.3-8.7,27.3c-26.9,23.6-14.4,85.6-14.4,85.6c-29.5,26-8.4,49.4-11.1,61.5h185.1
				c0-40-20.5-50-20.5-50C638.9,383.7,609.8,309.7,609.8,309.7z"/>
		</g>
		<rect x="707.8" y="250.1" fill="#303030" width="16.2" height="55.4"/>
		<rect x="797.1" y="250.1" fill="#303030" width="16.2" height="55.4"/>
		<g>
			<path fill="#16408C" d="M809.2,225c-14.5-9.4-31.4-14.4-48.7-14.4c-17.4,0-34.2,5-48.7,14.4c-14.1,9.2-25.4,22.1-32.6,37.4
				c-0.5,1.2-0.5,2.5,0.2,3.6c0.7,1.1,1.9,1.7,3.2,1.7h155.8c1.3,0,2.5-0.7,3.2-1.7c0.7-1.1,0.8-2.4,0.2-3.6
				C834.5,247.1,823.3,234.2,809.2,225z"/>
			<path fill="#16408C" d="M837.3,283.5H683.6c-2.5,0-4.6,2.1-4.6,4.6v187.5h162.9V288.1C841.9,285.6,839.8,283.5,837.3,283.5z"/>
		</g>
		<g>
			
				<ellipse transform="matrix(-0.9983 -5.759380e-02 5.759380e-02 -0.9983 1499.813 630.3274)" fill="#FFCCB8" cx="759" cy="293.6" rx="52.6" ry="68.8"/>
			<g>
				<circle fill="#6E3612" cx="739.8" cy="297.4" r="3.5"/>
				<g>
					<path fill="#3A1D0C" d="M746.3,290.8c0,0-0.1,0-0.2-0.1c-0.1,0-0.3-0.1-0.5-0.2c-0.4-0.1-1.1-0.3-2-0.5
						c-0.4-0.1-0.9-0.2-1.4-0.2c-0.5-0.1-1-0.1-1.6-0.1c-1.1-0.1-2.3,0-3.5,0.1c-0.6,0.1-1.2,0.1-1.8,0.2c-0.6,0.1-1.1,0.2-1.7,0.3
						c-0.5,0.1-1.1,0.3-1.6,0.4c-0.5,0.1-1,0.3-1.4,0.4c-0.9,0.3-1.6,0.6-2.1,0.8c-0.5,0.2-0.8,0.3-0.8,0.3l0,0
						c-0.3,0.1-0.7,0-0.8-0.3c-0.1-0.3,0-0.6,0.3-0.8c0,0,0.3-0.2,0.8-0.4c0.5-0.3,1.2-0.7,2-1.1c0.4-0.2,0.9-0.4,1.4-0.7
						c0.5-0.2,1.1-0.4,1.6-0.6c0.6-0.2,1.2-0.4,1.8-0.6c0.6-0.2,1.2-0.3,1.9-0.5c1.3-0.3,2.6-0.5,3.8-0.6c0.6-0.1,1.2-0.1,1.8-0.1
						c0.6,0,1.1,0,1.6,0c1,0.1,1.9,0.2,2.5,0.3c0.3,0.1,0.5,0.1,0.7,0.2c0.2,0,0.3,0.1,0.3,0.1c1,0.3,1.6,1.4,1.3,2.4
						c-0.3,1-1.4,1.6-2.4,1.3C746.5,290.8,746.5,290.8,746.3,290.8L746.3,290.8z"/>
				</g>
				<circle fill="#6E3612" cx="776.7" cy="297.4" r="3.5"/>
				<g>
					<path fill="#3A1D0C" d="M768.9,287.1c0,0,0.1,0,0.3-0.1c0.2-0.1,0.4-0.1,0.7-0.2c0.6-0.1,1.5-0.2,2.5-0.3c0.5,0,1-0.1,1.6,0
						c0.6,0,1.2,0,1.8,0.1c1.2,0.1,2.5,0.3,3.8,0.6c0.6,0.2,1.3,0.3,1.9,0.5c0.6,0.2,1.2,0.4,1.8,0.6c0.6,0.2,1.1,0.4,1.6,0.6
						c0.5,0.2,1,0.5,1.4,0.7c0.9,0.4,1.5,0.8,2,1.1c0.5,0.3,0.8,0.4,0.8,0.4c0.3,0.2,0.4,0.5,0.2,0.8c-0.2,0.3-0.5,0.4-0.8,0.3l0,0
						c0,0-0.3-0.1-0.8-0.3c-0.5-0.2-1.2-0.5-2.1-0.8c-0.4-0.1-0.9-0.3-1.4-0.4c-0.5-0.1-1-0.3-1.6-0.4c-0.6-0.1-1.1-0.2-1.7-0.3
						c-0.6-0.1-1.2-0.1-1.8-0.2c-1.2-0.1-2.4-0.1-3.5-0.1c-0.5,0-1.1,0.1-1.6,0.1c-0.5,0.1-1,0.1-1.4,0.2c-0.8,0.2-1.5,0.4-2,0.5
						c-0.2,0.1-0.4,0.1-0.5,0.2c-0.1,0-0.2,0.1-0.2,0.1l0,0c-1,0.4-2.1,0-2.5-1c-0.4-1,0-2.1,1-2.5
						C768.7,287.2,768.8,287.2,768.9,287.1z"/>
				</g>
				
					<path opacity="0.2" fill="none" stroke="#231F20" stroke-width="2.0096" stroke-linecap="round" stroke-miterlimit="10" enable-background="new    " d="
					M768.4,316c0,0,4.5,6.2-3.1,7c0,0-3.3-0.8-4.5,0.4c0,0-0.8,1-3,1c-2.3,0-3-1-3-1c-1.2-1.2-4.5-0.4-4.5-0.4c-7.6-0.8-3.1-7-3.1-7
					"/>
			</g>
			<g>
				<path fill="#303030" d="M789.7,224.8c-5.3-3.1-12.4-9.7-18.6-11.1c-3-0.7-7,0.8-10.1,0.6c-4-0.2-7-1.9-10.8-1.4
					c-6,0.8-10.4,6.9-15.7,9.4c-18.8,8.9-32.2,27.6-33.5,49.8c-1.9,33.1,26.4,5,58.5,6.8c32.4,1.9,57.1,32.4,58.9-0.1
					C819.8,256.1,808,235.6,789.7,224.8z"/>
				<path fill="#303030" d="M706.3,301.3c0.4-6.7,11-14.2,11-14.2l6.1-22.8l-22.3,5.3C698.8,279.8,706.3,301.3,706.3,301.3z"/>
				<path fill="#303030" d="M796.9,268.6l3.5,23.3c0,0,9.7,8.7,9.3,15.4c0,0,9.8-20.4,8.7-30.9L796.9,268.6z"/>
				<path fill="#27994A" d="M701,272.1c0,0-0.3,5.8,0.7,7.4c0,0,12.6-11.6,38-11.3l0.3-4.6C740,263.5,720.9,261.7,701,272.1z"/>
				<path fill="#27994A" d="M703,261c0,0-2.9,7-1.8,8.6c0,0,12.6-11.6,38-11.3l0.3-4.6C739.4,253.7,722.9,250.6,703,261z"/>
				<path fill="#27994A" d="M780.4,270.5c25.3,2.6,36.5,15.6,36.5,15.6c1.2-1.5,1.6-7.2,1.6-7.2c-18.5-12.6-37.8-13-37.8-13
					L780.4,270.5z"/>
				<path fill="#27994A" d="M782.3,256.2l-0.3,4.6c25.3,2.6,36.5,15.6,36.5,15.6c1.2-1.5-0.8-8.7-0.8-8.7
					C799.2,255,782.3,256.2,782.3,256.2z"/>
				<circle fill="#27994A" cx="758.9" cy="260.8" r="8.8"/>
			</g>
			<path fill="#83B0C7" d="M848.4,381.7c4-39.6-22.8-72-22.8-72c-1.9-14.4-9.9-15.2-9.9-15.2c-4.2,5.9-8.2,20.5-8.2,20.5
				c-22.5-0.4-43.1,10.5-43.1,10.5c-50.4,2.3-58.2-24.2-58.2-24.2c-13.1,5.3-8.7,27.3-8.7,27.3c-12.9,13.1-33.1,113.2-33.1,113.2
				c1.5,18,5.2,24,3,33.9h189.9C857.4,433.2,848.4,381.7,848.4,381.7z"/>
		</g>
	</g>
</g>
</svg>
