<?xml version="1.0" encoding="utf-8"?>
<!-- Generator: Adobe Illustrator 16.0.0, SVG Export Plug-In . SVG Version: 6.00 Build 0)  -->
<!DOCTYPE svg PUBLIC "-//W3C//DTD SVG 1.1//EN" "http://www.w3.org/Graphics/SVG/1.1/DTD/svg11.dtd">
<svg version="1.1" id="Layer_1" xmlns="http://www.w3.org/2000/svg" xmlns:xlink="http://www.w3.org/1999/xlink" x="0px" y="0px"
	 width="994.887px" height="211.679px" viewBox="0 0 994.887 211.679" enable-background="new 0 0 994.887 211.679"
	 xml:space="preserve">
<g>
	<g>
		<g>
			<path fill="#F4B07D" d="M546.081,102.796c-8.177-8.732-15.985-14.43-16.313-14.668c-3.48-2.525-8.349-1.75-10.872,1.729
				c-2.524,3.48-1.75,8.348,1.729,10.872c7.503,5.443,27.369,23.112,29.167,39.289c1.923,17.312,1.695,24.71,1.454,32.542
				c-0.085,2.76-0.173,5.613-0.173,8.94c0,4.299,3.485,7.784,7.784,7.784s7.784-3.485,7.784-7.784c0-3.088,0.084-5.819,0.166-8.461
				c0.247-8.029,0.503-16.332-1.543-34.74C564.009,126.996,557.555,115.052,546.081,102.796z"/>
		</g>
		<g>
			<path fill="#282828" d="M546.217,102.668c-8.188-8.746-16.011-14.453-16.34-14.691l-9.361,12.904
				c7.484,5.43,27.3,23.05,29.09,39.158c1.922,17.299,1.694,24.69,1.453,32.516c-0.085,2.761-0.173,5.616-0.173,8.946h15.943
				c0-3.085,0.084-5.815,0.165-8.455c0.248-8.036,0.504-16.346-1.543-34.768C564.19,126.935,557.72,114.954,546.217,102.668z"/>
		</g>
		<g>
			<path fill="#F4B07D" d="M465.604,88.663c-0.329,0.238-8.137,5.936-16.312,14.668c-11.473,12.255-17.928,24.2-19.184,35.504
				c-2.045,18.407-1.789,26.71-1.541,34.739c0.08,2.642,0.165,5.374,0.165,8.462c0,4.299,3.485,7.784,7.784,7.784
				s7.784-3.485,7.784-7.784c0-3.328-0.088-6.182-0.173-8.941c-0.241-7.832-0.469-15.229,1.454-32.54
				c1.79-16.1,21.653-33.815,29.165-39.29c3.479-2.524,4.254-7.393,1.729-10.872S469.082,86.138,465.604,88.663z"/>
		</g>
		<g>
			<path fill="#282828" d="M474.855,101.416l-4.682-6.452l-4.681-6.452c-0.329,0.238-8.151,5.945-16.339,14.691
				c-11.501,12.285-17.972,24.267-19.232,35.611c-2.047,18.421-1.791,26.729-1.543,34.766c0.081,2.641,0.165,5.371,0.165,8.456
				h15.943c0-3.331-0.088-6.186-0.173-8.947c-0.241-7.825-0.469-15.216,1.453-32.514c1.781-16.036,21.606-33.708,29.095-39.164
				l-4.688-6.447L474.855,101.416z"/>
		</g>
		<g>
			<g>
				<path fill="#F4B07D" d="M465.086,49.077c-0.592,2.493-0.641,15.98,7.029,7.459l0.213-6.82
					C472.328,49.716,467.004,40.98,465.086,49.077z"/>
			</g>
			<g>
				<path fill="#F4B07D" d="M522.911,49.716l0.215,6.82c7.669,8.521,7.621-4.966,7.03-7.459
					C528.239,40.98,522.911,49.716,522.911,49.716z"/>
			</g>
		</g>
		<g>
			<polygon fill="#B7B7B7" points="466.057,80.76 473.512,87.207 472.504,79.953 			"/>
		</g>
		<g>
			<polygon fill="#B7B7B7" points="522.165,87.207 529.62,80.76 523.173,79.953 			"/>
		</g>
		<g>
			<path fill="#F4B07D" d="M472.459,56.418c0,22.024-12.445,67.98-12.445,67.98h76.02c0,0-12.667-36.151-12.667-67.98
				C523.366,43.692,472.459,43.691,472.459,56.418z"/>
		</g>
		<g>
			<polygon fill="#282828" points="491.98,86.646 466.132,83.972 466.199,87.769 487.881,110.354 529.239,91.459 529.239,82.545 
				520.325,84.862 			"/>
		</g>
		<g>
			<path fill="#FFFFFF" d="M466.311,80.584l-0.179,3.388c34.763,8.735,63.107,0.178,63.107,0.178v-3.208
				C488.059,89.676,466.311,80.584,466.311,80.584z"/>
		</g>
		<g>
			<path fill="#2D2D2D" d="M480.584,170.422c-4.896,0-8.865,3.969-8.865,8.864v32.393h17.729v-32.393
				C489.447,174.391,485.479,170.422,480.584,170.422z"/>
		</g>
		<g>
			<path fill="#2D2D2D" d="M513.6,170.422c-4.896,0-8.864,3.969-8.864,8.864v32.393h17.729v-32.393
				C522.464,174.391,518.495,170.422,513.6,170.422z"/>
		</g>
		<g>
			<path fill="#F4B07D" d="M455.389,141.769c0,29.476,0,33.488,0,33.926c0,0.038,0,0.05,0,0.05c0,0.015,0,0.036,0,0.065
				c0,0.073,4.43,0.107,4.43,0.107h38.225V91.279h-29.367C464.145,110.624,455.389,109.066,455.389,141.769z"/>
		</g>
		<g>
			<path fill="#F4B07D" d="M496.577,91.279v84.638h38.224c0,0,4.429-0.034,4.429-0.107c0-0.029,0-0.051,0-0.067c0,0,0-0.01,0-0.048
				c0-0.438,0-4.45,0-33.926c0-32.702-8.754-31.145-13.286-50.489H496.577z"/>
		</g>
		<g>
			<path fill="#2D2D2D" d="M497.305,211.078c23.346,0,42.271-14.498,42.271-37.844h-84.543
				C455.033,196.58,473.959,211.078,497.305,211.078z"/>
		</g>
		<g>
			<rect x="455.371" y="173.292" fill="#161516" width="84.038" height="6.319"/>
		</g>
		<g>
			<path fill="#282828" d="M448.414,183.135c0,0,2.684,1.216,9.439,1.216c0,0,36.74,1.617,38.228-0.137v-20.137l-45.94-10.214
				C450.141,153.863,449.805,173.942,448.414,183.135z"/>
		</g>
		<g>
			<path fill="#282828" d="M451.037,174.21h48.788V87.769h-33.626C444.387,111.154,451.037,174.21,451.037,174.21z"/>
		</g>
		<g>
			<path fill="#282828" d="M495.189,164.077v20.137c1.489,1.754,41.603,0.81,41.603,0.81c6.758,0,11.765-1.344,11.765-1.344
				c-2.115-6.851-2.115-27.399-2.115-27.399L495.189,164.077z"/>
		</g>
		<g>
			<path fill="#282828" d="M529.262,87.76l-37.637,0.009v86.441H546.3C546.3,174.21,549.961,102.549,529.262,87.76z"/>
		</g>
		<g>
			<g>
				<path fill="#776537" d="M476.479,66.52c0,0-2.645,0.966-2.619,5.439c0.01,1.5,0.807,5.439-2.014,5.642
					c0,0,3.425,0.402,4.432-1.813c0,0-0.201,4.03-1.813,5.036c0,0,9.47,4.03,11.081-5.036l-0.806-13.297
					C484.739,62.49,478.896,60.072,476.479,66.52z"/>
			</g>
			<g>
				<g>
					<g>
						<path fill="#776537" d="M470.229,13.281c-7.404,5.684-10.675,29.297,1.789,41.763l27.06-30.258l-0.64-11.717
							C498.438,13.069,488.553-0.78,470.229,13.281z"/>
					</g>
					<g>
						<path fill="#776537" d="M526.744,13.281c-18.324-14.062-28.209-0.212-28.209-0.212l-0.639,11.717l27.06,30.258
							C537.42,42.578,534.147,18.966,526.744,13.281z"/>
					</g>
					<g>
						<path fill="#776537" d="M497.021,18.101c-16.215-0.218-23.025,9.946-23.025,9.946c-5.691,8.651-3.99,35.376-3.99,35.376
							c0,13.222,19.743,23.757,28.035,23.757c8.293,0,28.107-9.848,28.107-23.757c0,0,1.397-26.725-4.294-35.376
							C521.854,28.047,513.299,17.883,497.021,18.101z"/>
					</g>
					<g>
						<path fill="#776537" d="M501.548,14.49l-19.315,2.129l-13.068,2.841c0,0-3.129,18.683-2.703,18.824
							c0.426,0.143,15.061-7.602,15.061-7.602l16.977-5.896l25.212,7.743l5.115-2.13l-2.7-13.354L501.548,14.49z"/>
					</g>
					<g>
						<path fill="#776537" d="M500.556,0c-3.268,1.137-4.829,8.808-4.829,8.808c0-3.696-3.836-7.389-3.836-7.389
							c1.164,5.034-2.273,6.253-2.273,6.253l-2.271,9.8l13.067,2.414l7.104-8.663l1.788-4.099C499.366,10.08,500.556,0,500.556,0z"
							/>
					</g>
				</g>
				<g>
					<path fill="#776537" d="M469.348,59.566c0,0-2.644,0.967-2.618,5.439c0.01,1.499,0.806,5.439-2.015,5.642
						c0,0,3.426,0.403,4.432-1.812c0,0-0.201,4.028-1.812,5.035c0,0,9.469,4.03,11.08-5.035l-0.806-13.297
						C477.608,55.538,471.766,53.119,469.348,59.566z"/>
				</g>
				<g>
					<path fill="#776537" d="M483.432,69.55c0,0-2.645,0.968-2.619,5.44c0.01,1.499,0.806,5.439-2.016,5.641
						c0,0,3.426,0.403,4.433-1.812c0,0-0.201,4.029-1.813,5.036c0,0,9.47,4.029,11.08-5.036l-0.805-13.297
						C491.691,65.521,485.849,63.104,483.432,69.55z"/>
				</g>
				<g>
					<path fill="#776537" d="M521.144,71.959c0.026-4.474-2.618-5.439-2.618-5.439c-2.418-6.447-8.26-4.029-8.26-4.029
						l-0.807,13.297c1.612,9.066,11.081,5.036,11.081,5.036c-1.611-1.006-1.813-5.036-1.813-5.036
						c1.007,2.216,4.433,1.813,4.433,1.813C520.339,77.398,521.135,73.459,521.144,71.959z"/>
				</g>
				<g>
					<path fill="#776537" d="M514.192,74.99c0.025-4.473-2.619-5.44-2.619-5.44c-2.418-6.446-8.261-4.028-8.261-4.028l-0.805,13.297
						c1.61,9.065,11.08,5.036,11.08,5.036c-1.611-1.007-1.813-5.036-1.813-5.036c1.008,2.216,4.432,1.812,4.432,1.812
						C513.387,80.43,514.182,76.489,514.192,74.99z"/>
				</g>
				<g>
					<path fill="#776537" d="M470.062,49.762c0,0-2.646,0.966-2.618,5.439c0.008,1.5,0.805,5.44-2.016,5.642
						c0,0,3.425,0.402,4.432-1.813c0,0-0.201,4.03-1.813,5.036c0,0,9.47,4.03,11.081-5.036l-0.806-13.297
						C478.321,45.732,472.479,43.314,470.062,49.762z"/>
				</g>
				<g>
					<path fill="#776537" d="M528.969,65.006c0.025-4.473-2.618-5.439-2.618-5.439c-2.419-6.447-8.26-4.028-8.26-4.028
						l-0.806,13.297c1.611,9.065,11.079,5.035,11.079,5.035c-1.611-1.007-1.813-5.035-1.813-5.035
						c1.008,2.216,4.434,1.812,4.434,1.812C528.163,70.445,528.96,66.505,528.969,65.006z"/>
				</g>
				<g>
					<path fill="#776537" d="M528.969,55.558c0.025-4.473-2.618-5.439-2.618-5.439c-2.419-6.447-8.26-4.028-8.26-4.028
						l-0.806,13.296c1.611,9.066,11.079,5.036,11.079,5.036c-1.611-1.006-1.813-5.036-1.813-5.036
						c1.008,2.216,4.434,1.813,4.434,1.813C528.163,60.998,528.96,57.058,528.969,55.558z"/>
				</g>
			</g>
		</g>
	</g>
	<g>
		<path fill="#3F3F3F" d="M323.842,115.794h-99.77c-0.551,0-0.998,0.446-0.998,0.997v94.888H324.84v-94.888
			C324.84,116.24,324.393,115.794,323.842,115.794z"/>
		<path fill="#3F3F3F" d="M211.839,115.794h-99.771c-0.551,0-0.998,0.446-0.998,0.997v94.888h101.766v-94.888
			C212.836,116.24,212.389,115.794,211.839,115.794z"/>
		<path fill="#3F3F3F" d="M100.769,115.794H0.998c-0.551,0-0.998,0.446-0.998,0.997v94.888h101.766v-94.888
			C101.766,116.24,101.319,115.794,100.769,115.794z"/>
		<path fill="#3F3F3F" d="M435.586,115.794h-99.771c-0.551,0-0.997,0.446-0.997,0.997v94.888h101.767v-94.888
			C436.584,116.24,436.137,115.794,435.586,115.794z"/>
		<path fill="#3F3F3F" d="M659.072,115.794h-99.771c-0.552,0-0.998,0.446-0.998,0.997v94.888h101.766v-94.888
			C660.069,116.24,659.623,115.794,659.072,115.794z"/>
		<path fill="#3F3F3F" d="M770.814,115.794h-99.771c-0.551,0-0.998,0.446-0.998,0.997v94.888h101.767v-94.888
			C771.812,116.24,771.365,115.794,770.814,115.794z"/>
		<path fill="#3F3F3F" d="M882.146,115.794h-99.771c-0.551,0-0.998,0.446-0.998,0.997v94.888h101.766v-94.888
			C883.143,116.24,882.696,115.794,882.146,115.794z"/>
		<path fill="#3F3F3F" d="M993.889,115.794h-99.771c-0.552,0-0.998,0.446-0.998,0.997v94.888h101.767v-94.888
			C994.887,116.24,994.439,115.794,993.889,115.794z"/>
		<path fill="#3F3F3F" d="M547.329,115.794h-99.771c-0.551,0-0.998,0.446-0.998,0.997v94.888h101.766v-94.888
			C548.326,116.24,547.88,115.794,547.329,115.794z"/>
	</g>
</g>
</svg>
