<?xml version="1.0" encoding="utf-8"?>
<!-- Generator: Adobe Illustrator 16.0.0, SVG Export Plug-In . SVG Version: 6.00 Build 0)  -->
<!DOCTYPE svg PUBLIC "-//W3C//DTD SVG 1.1//EN" "http://www.w3.org/Graphics/SVG/1.1/DTD/svg11.dtd">
<svg version="1.1" id="Layer_1" xmlns="http://www.w3.org/2000/svg" xmlns:xlink="http://www.w3.org/1999/xlink" x="0px" y="0px"
	 width="1004.565px" height="360.115px" viewBox="0 0 1004.565 360.115" enable-background="new 0 0 1004.565 360.115"
	 xml:space="preserve">
<g>
	<g>
		<rect x="489.917" y="122.271" fill="#1C7CA4" width="284.133" height="108.973"/>
		<g>
			<g>
				<path fill="#C8EAF9" d="M938.272,168.182C880.76,62.471,588.973,84.963,588.973,84.963L454.215,98.51
					c-38.24,1.352-257.175,30.942-271.832,32.928c30.675,62.155,77.902,136.224,140.098,170.365
					c204.901,29.329,401.221,16.612,537.059-4.819c101.551-16.024,114.43-78.944,114.369-110.107
					C956.776,174.053,938.272,168.182,938.272,168.182z M550.532,178.146c0,4.818-3.906,8.725-8.725,8.725h-19.891
					c-4.818,0-8.725-3.906-8.725-8.725v-32.454c0-4.817,3.906-8.723,8.725-8.723h19.891c4.818,0,8.725,3.905,8.725,8.723V178.146z
					 M598.262,178.146c0,4.818-3.906,8.725-8.724,8.725h-19.892c-4.818,0-8.725-3.906-8.725-8.725v-32.454
					c0-4.817,3.906-8.723,8.725-8.723h19.892c4.817,0,8.724,3.905,8.724,8.723V178.146z M646.12,178.146
					c0,4.818-3.906,8.725-8.725,8.725h-19.892c-4.817,0-8.724-3.906-8.724-8.725v-32.454c0-4.817,3.906-8.723,8.724-8.723h19.892
					c4.818,0,8.725,3.905,8.725,8.723V178.146z M693.45,178.146c0,4.818-3.906,8.725-8.725,8.725h-19.891
					c-4.816,0-8.725-3.906-8.725-8.725v-32.454c0-4.817,3.908-8.723,8.725-8.723h19.891c4.818,0,8.725,3.905,8.725,8.723V178.146z
					 M741.307,178.146c0,4.818-3.906,8.725-8.725,8.725h-19.891c-4.818,0-8.725-3.906-8.725-8.725v-32.454
					c0-4.817,3.906-8.723,8.725-8.723h19.891c4.818,0,8.725,3.905,8.725,8.723V178.146z"/>
				<path fill="#AC4C82" d="M268.243,293.065c18.123,3.254,48.709,12.381,66.732,14.961
					c-62.194-34.143-121.917-114.434-152.592-176.589c-0.51,0.069-0.779,0.106-0.779,0.106
					c-19.452-26.248-84.273-99.69-84.273-99.69C83.466-0.878,51.899-1.832,32.719,1.05
					C41.942,38.527,98.027,235.849,268.243,293.065z"/>
				<path fill="#FFFFFF" d="M268.243,293.065C98.027,235.849,41.942,38.527,32.719,1.05c-9.332,1.403-15.731,3.712-15.731,3.712
					l50.929,167.832c0,0-32.934,2.993-39.789,5.279c-9.49,3.163-21.383,13.848-26.667,22.344
					c-5.801,9.327,7.046,22.847,14.558,29.585c32.983,15.157,189.594,50.616,189.594,50.616
					C226.495,285.117,247.389,289.321,268.243,293.065z"/>
				<path fill="#1C8A87" d="M973.909,186.876c0.061,31.163-12.818,94.083-114.369,110.107
					c-135.838,21.432-332.157,34.148-537.059,4.819c4.101,2.251,8.264,4.336,12.494,6.224c-4.23-1.888-8.394-3.973-12.494-6.224
					c-18.025-2.581-36.115-5.483-54.238-8.737c15.265,5.132,31.441,9.145,48.59,11.806c-17.148-2.661-33.325-6.674-48.59-11.806
					c-20.854-3.744-41.748-7.948-62.631-12.647c0,0-156.61-35.459-189.594-50.616c2.855,2.561,4.941,4.143,4.941,4.143l4.144,13.318
					c10.272,19.097,267.713,68.604,267.713,68.604c125.49,16.732,64.446,16.885,228.155,20.592
					c125.14,2.833,321.871-16.747,321.871-16.747c122.979-15.181,140.855-33.061,158.844-74.459
					C1012.485,220.396,990.618,199.383,973.909,186.876z"/>
			</g>
			<path fill="#67C3EA" d="M731.797,288.044v57.911c0,0-86.603,32.554-164.162-1.059v-56.853
				C567.635,288.044,623.106,258.076,731.797,288.044z"/>
			<path fill="#93D5F1" d="M652,236.403c0,0-354.707-57.527-367.288-59.808c0,0-40.984-46.914-53.681-55.464l-12.516,1.484
				c0,0,19.808,54.821,42.556,64.442c0,0,69.569,32.599,89.628,32.233l79.781,42.449c0,0,125.37-2.274,156.599-9.112
				C587.08,252.629,672.243,246.067,652,236.403z"/>
			
				<ellipse transform="matrix(-0.9998 0.0181 -0.0181 -0.9998 739.8448 456.3389)" fill="#59BEE9" cx="367.853" cy="231.524" rx="93.417" ry="7.524"/>
			<ellipse fill="#67C3EA" cx="568.938" cy="316.451" rx="9.555" ry="28.663"/>
			<ellipse fill="#67C3EA" cx="730.741" cy="316.977" rx="9.291" ry="29.188"/>
		</g>
	</g>
	<path fill="#44D5F3" d="M909.985,142.378h-22.613v26.996h44.174C931.545,169.374,925.411,158.155,909.985,142.378z"/>
	<path fill="none" stroke="#AFB1B2" stroke-width="0.5259" stroke-miterlimit="10" d="M909.985,142.378h-22.613v26.996h44.174
		C931.545,169.374,925.411,158.155,909.985,142.378z"/>
	<path fill="#78CBED" d="M732.583,140.108c3.078,0,5.586,2.507,5.586,5.583v32.454c0,3.079-2.508,5.584-5.586,5.584h-19.891
		c-3.078,0-5.584-2.505-5.584-5.584v-32.454c0-3.076,2.506-5.583,5.584-5.583H732.583 M732.583,136.969h-19.891
		c-4.818,0-8.725,3.905-8.725,8.723v32.454c0,4.818,3.906,8.725,8.725,8.725h19.891c4.818,0,8.725-3.906,8.725-8.725v-32.454
		C741.307,140.874,737.401,136.969,732.583,136.969L732.583,136.969z"/>
	<path fill="#78CBED" d="M684.725,140.108c3.078,0,5.584,2.507,5.584,5.583v32.454c0,3.079-2.506,5.584-5.584,5.584h-19.891
		c-3.078,0-5.584-2.505-5.584-5.584v-32.454c0-3.076,2.506-5.583,5.584-5.583H684.725 M684.725,136.969h-19.891
		c-4.816,0-8.725,3.905-8.725,8.723v32.454c0,4.818,3.908,8.725,8.725,8.725h19.891c4.818,0,8.725-3.906,8.725-8.725v-32.454
		C693.45,140.874,689.543,136.969,684.725,136.969L684.725,136.969z"/>
	<path fill="#78CBED" d="M637.395,140.108c3.078,0,5.582,2.507,5.582,5.583v32.454c0,3.079-2.504,5.584-5.582,5.584h-19.892
		c-3.077,0-5.582-2.505-5.582-5.584v-32.454c0-3.076,2.505-5.583,5.582-5.583H637.395 M637.395,136.969h-19.892
		c-4.817,0-8.724,3.905-8.724,8.723v32.454c0,4.818,3.906,8.725,8.724,8.725h19.892c4.818,0,8.725-3.906,8.725-8.725v-32.454
		C646.12,140.874,642.213,136.969,637.395,136.969L637.395,136.969z"/>
	<path fill="#78CBED" d="M589.539,140.108c3.077,0,5.582,2.507,5.582,5.583v32.454c0,3.079-2.505,5.584-5.582,5.584h-19.892
		c-3.078,0-5.583-2.505-5.583-5.584v-32.454c0-3.076,2.505-5.583,5.583-5.583H589.539 M589.539,136.969h-19.892
		c-4.818,0-8.725,3.905-8.725,8.723v32.454c0,4.818,3.906,8.725,8.725,8.725h19.892c4.817,0,8.724-3.906,8.724-8.725v-32.454
		C598.262,140.874,594.356,136.969,589.539,136.969L589.539,136.969z"/>
	<path fill="#78CBED" d="M541.807,140.108c3.08,0,5.584,2.507,5.584,5.583v32.454c0,3.079-2.504,5.584-5.584,5.584h-19.891
		c-3.078,0-5.583-2.505-5.583-5.584v-32.454c0-3.076,2.505-5.583,5.583-5.583H541.807 M541.807,136.969h-19.891
		c-4.818,0-8.725,3.905-8.725,8.723v32.454c0,4.818,3.906,8.725,8.725,8.725h19.891c4.818,0,8.725-3.906,8.725-8.725v-32.454
		C550.532,140.874,546.625,136.969,541.807,136.969L541.807,136.969z"/>
</g>
</svg>
