<?xml version="1.0" encoding="utf-8"?>
<!-- Generator: Adobe Illustrator 16.0.0, SVG Export Plug-In . SVG Version: 6.00 Build 0)  -->
<!DOCTYPE svg PUBLIC "-//W3C//DTD SVG 1.1//EN" "http://www.w3.org/Graphics/SVG/1.1/DTD/svg11.dtd">
<svg version="1.1" id="Layer_1" xmlns="http://www.w3.org/2000/svg" xmlns:xlink="http://www.w3.org/1999/xlink" x="0px" y="0px"
	 width="591.67px" height="323.648px" viewBox="0 0 591.67 323.648" enable-background="new 0 0 591.67 323.648"
	 xml:space="preserve">
<g>
	<path fill="#262626" d="M591.67,321.963c0,0.93-0.755,1.686-1.686,1.686H1.686c-0.931,0-1.686-0.756-1.686-1.686V1.686
		C0,0.754,0.755,0,1.686,0h588.299c0.931,0,1.686,0.754,1.686,1.686V321.963z"/>
	<path fill="#494949" d="M573.479,306.73c0,0.855-0.691,1.547-1.547,1.547H16.228c-0.855,0-1.547-0.691-1.547-1.547V12.916
		c0-0.854,0.691-1.547,1.547-1.547h555.705c0.855,0,1.547,0.693,1.547,1.547V306.73z"/>
	<g>
		<path fill="#2E62FB" d="M571.556,309.764c0,0.865-0.693,1.562-1.551,1.562H13.106c-0.856,0-1.551-0.697-1.551-1.562V12.89
			c0-0.863,0.694-1.563,1.551-1.563h556.898c0.857,0,1.551,0.7,1.551,1.563V309.764z"/>
		<rect x="11.556" y="11.326" fill="#F9D450" width="560" height="107.977"/>
		<g>
			<path fill="#494848" d="M243.57,39.006c0-2.266,0.54-4.006,1.62-5.22c1.08-1.213,2.7-1.82,4.86-1.82s3.779,0.607,4.859,1.82
				c1.08,1.214,1.62,2.954,1.62,5.22v0.88h-4.16v-1.159c0-1.014-0.193-1.727-0.58-2.141c-0.387-0.413-0.927-0.62-1.62-0.62
				s-1.233,0.207-1.619,0.62c-0.387,0.414-0.58,1.127-0.58,2.141c0,0.96,0.213,1.807,0.64,2.54s0.96,1.427,1.601,2.079
				c0.639,0.654,1.326,1.308,2.06,1.96c0.733,0.654,1.42,1.367,2.06,2.141c0.641,0.773,1.174,1.653,1.6,2.64
				c0.427,0.987,0.641,2.147,0.641,3.48c0,2.267-0.554,4.007-1.66,5.22c-1.107,1.214-2.74,1.82-4.9,1.82s-3.793-0.606-4.899-1.82
				c-1.106-1.213-1.66-2.953-1.66-5.22v-1.721h4.16v2c0,1.015,0.206,1.721,0.62,2.12c0.413,0.4,0.966,0.601,1.66,0.601
				c0.693,0,1.246-0.2,1.66-0.601c0.412-0.399,0.619-1.105,0.619-2.12c0-0.96-0.213-1.806-0.64-2.54
				c-0.427-0.732-0.96-1.426-1.601-2.079c-0.64-0.653-1.326-1.307-2.06-1.96s-1.42-1.367-2.06-2.141
				c-0.641-0.773-1.174-1.653-1.6-2.64C243.783,41.5,243.57,40.34,243.57,39.006z"/>
			<path fill="#494848" d="M273.33,60.286h-4.439l-0.76-5.08h-5.4l-0.76,5.08h-4.041l4.48-28h6.439L273.33,60.286z M263.29,51.406
				h4.24l-2.12-14.16L263.29,51.406z"/>
			<path fill="#494848" d="M275.37,32.286h4.399v24h7.24v4h-11.64V32.286z"/>
			<path fill="#494848" d="M288.93,32.286h4.4v28h-4.4V32.286z"/>
			<path fill="#494848" d="M296.529,32.286h6.96c2.213,0,3.86,0.587,4.94,1.76c1.08,1.174,1.619,2.894,1.619,5.16v14.16
				c0,2.267-0.539,3.986-1.619,5.16s-2.728,1.76-4.94,1.76h-6.96V32.286z M300.93,36.286v20h2.479c0.693,0,1.24-0.2,1.64-0.6
				c0.4-0.4,0.601-1.106,0.601-2.12V39.006c0-1.013-0.2-1.72-0.601-2.12c-0.399-0.399-0.946-0.6-1.64-0.6H300.93z"/>
			<path fill="#494848" d="M327.049,60.286h-4.439l-0.76-5.08h-5.4l-0.76,5.08h-4.04l4.479-28h6.44L327.049,60.286z M317.01,51.406
				h4.24l-2.121-14.16L317.01,51.406z"/>
			<path fill="#494848" d="M328.529,39.006c0-2.266,0.54-4.006,1.62-5.22c1.08-1.213,2.7-1.82,4.86-1.82s3.779,0.607,4.859,1.82
				c1.08,1.214,1.62,2.954,1.62,5.22v0.88h-4.16v-1.159c0-1.014-0.193-1.727-0.58-2.141c-0.387-0.413-0.927-0.62-1.62-0.62
				s-1.233,0.207-1.619,0.62c-0.387,0.414-0.58,1.127-0.58,2.141c0,0.96,0.213,1.807,0.64,2.54s0.96,1.427,1.601,2.079
				c0.639,0.654,1.326,1.308,2.06,1.96c0.733,0.654,1.42,1.367,2.06,2.141c0.641,0.773,1.174,1.653,1.6,2.64
				c0.427,0.987,0.641,2.147,0.641,3.48c0,2.267-0.554,4.007-1.66,5.22c-1.107,1.214-2.74,1.82-4.9,1.82s-3.793-0.606-4.899-1.82
				c-1.106-1.213-1.66-2.953-1.66-5.22v-1.721h4.16v2c0,1.015,0.206,1.721,0.62,2.12c0.413,0.4,0.966,0.601,1.66,0.601
				c0.693,0,1.246-0.2,1.66-0.601c0.412-0.399,0.619-1.105,0.619-2.12c0-0.96-0.213-1.806-0.64-2.54
				c-0.427-0.732-0.96-1.426-1.601-2.079c-0.64-0.653-1.326-1.307-2.06-1.96s-1.42-1.367-2.06-2.141
				c-0.641-0.773-1.174-1.653-1.6-2.64C328.742,41.5,328.529,40.34,328.529,39.006z"/>
		</g>
		<g>
			<g>
				<path fill="#494848" d="M275.498,86.25l2.051,10.962l2.035-10.962h1.295l-2.357,12.6h-2.07l-2.376-12.6H275.498z"/>
				<path fill="#494848" d="M283.291,95.88c0,0.576,0.117,1.022,0.352,1.341s0.608,0.477,1.125,0.477
					c0.504,0,0.873-0.158,1.106-0.477c0.234-0.318,0.351-0.765,0.351-1.341v-9.63h1.314v9.558c0,0.96-0.229,1.731-0.684,2.313
					c-0.457,0.582-1.17,0.872-2.143,0.872c-0.96,0-1.668-0.29-2.123-0.872c-0.457-0.582-0.685-1.354-0.685-2.313V86.25h1.386V95.88z
					"/>
				<path fill="#494848" d="M293.407,91.83v1.26h-3.078v4.481h3.78v1.278h-5.184v-12.6h5.184v1.277h-3.78v4.303H293.407z"/>
				<path fill="#494848" d="M295.405,98.85v-12.6h1.403v11.321h3.601v1.278H295.405z"/>
				<path fill="#494848" d="M301.363,89.292c0-0.973,0.236-1.743,0.711-2.313c0.474-0.569,1.197-0.854,2.169-0.854
					s1.698,0.285,2.178,0.854c0.479,0.57,0.72,1.341,0.72,2.313v6.516c0,0.96-0.24,1.728-0.72,2.304s-1.206,0.864-2.178,0.864
					s-1.695-0.288-2.169-0.864c-0.475-0.576-0.711-1.344-0.711-2.304V89.292z M302.749,95.88c0,0.576,0.123,1.022,0.369,1.341
					c0.245,0.318,0.62,0.477,1.125,0.477c0.516,0,0.894-0.158,1.134-0.477s0.359-0.765,0.359-1.341v-6.66
					c0-0.576-0.119-1.023-0.359-1.341c-0.24-0.318-0.618-0.478-1.134-0.478c-0.505,0-0.88,0.159-1.125,0.478
					c-0.246,0.317-0.369,0.765-0.369,1.341V95.88z"/>
			</g>
			<g>
				<path fill="#494848" d="M162.472,87.25c0.983,0,1.707,0.278,2.169,0.837c0.462,0.558,0.693,1.322,0.693,2.295v6.354
					c0,0.973-0.231,1.734-0.693,2.286s-1.186,0.828-2.169,0.828h-2.952v-12.6H162.472z M162.453,98.571
					c0.505,0,0.879-0.152,1.125-0.459c0.246-0.306,0.369-0.747,0.369-1.322v-6.48c0-0.576-0.123-1.017-0.369-1.323
					c-0.246-0.306-0.627-0.459-1.143-0.459h-1.512v10.044H162.453z"/>
				<path fill="#494848" d="M171.13,92.83v1.26h-3.078v4.481h3.78v1.278h-5.184v-12.6h5.184v1.277h-3.78v4.303H171.13z"/>
				<path fill="#494848" d="M175.773,87.124c0.959,0,1.668,0.285,2.124,0.854c0.456,0.57,0.684,1.335,0.684,2.295v0.342h-1.332
					v-0.414c0-0.575-0.114-1.02-0.342-1.332c-0.228-0.312-0.595-0.468-1.099-0.468s-0.869,0.156-1.098,0.468
					c-0.229,0.312-0.342,0.751-0.342,1.314c0,0.468,0.105,0.876,0.314,1.224c0.211,0.349,0.472,0.67,0.783,0.964
					c0.312,0.294,0.651,0.582,1.018,0.863c0.365,0.282,0.705,0.592,1.018,0.927c0.311,0.337,0.572,0.718,0.782,1.144
					s0.315,0.934,0.315,1.521c0,0.961-0.231,1.726-0.693,2.296c-0.462,0.569-1.18,0.854-2.15,0.854
					c-0.973,0-1.687-0.285-2.143-0.854c-0.456-0.57-0.684-1.335-0.684-2.296v-0.72h1.313v0.792c0,0.576,0.12,1.021,0.36,1.332
					c0.24,0.312,0.611,0.468,1.115,0.468s0.877-0.155,1.117-0.468c0.239-0.312,0.359-0.756,0.359-1.332
					c0-0.468-0.105-0.873-0.314-1.215c-0.211-0.342-0.472-0.66-0.783-0.954c-0.312-0.294-0.648-0.582-1.008-0.864
					c-0.361-0.281-0.697-0.591-1.009-0.927s-0.573-0.717-0.782-1.143c-0.211-0.426-0.315-0.934-0.315-1.521
					c0-0.972,0.228-1.739,0.684-2.304S174.825,87.124,175.773,87.124z"/>
				<path fill="#494848" d="M181.642,99.85V88.527h-2.322V87.25h6.03v1.277h-2.322V99.85H181.642z"/>
				<path fill="#494848" d="M187.707,87.25v12.6h-1.404v-12.6H187.707z"/>
				<path fill="#494848" d="M190.389,99.85h-1.26v-12.6h1.781l2.916,9.107V87.25h1.242v12.6h-1.457l-3.223-10.188V99.85z"/>
				<path fill="#494848" d="M196.4,90.292c0-0.973,0.237-1.743,0.712-2.313c0.474-0.569,1.196-0.854,2.169-0.854
					c0.972,0,1.697,0.285,2.178,0.854c0.48,0.57,0.721,1.341,0.721,2.313v6.516c0,0.96-0.24,1.728-0.721,2.304
					s-1.206,0.864-2.178,0.864c-0.973,0-1.695-0.288-2.169-0.864c-0.475-0.576-0.712-1.344-0.712-2.304V90.292z M197.787,96.88
					c0,0.576,0.123,1.022,0.369,1.341s0.621,0.477,1.125,0.477c0.516,0,0.894-0.158,1.134-0.477c0.239-0.318,0.36-0.765,0.36-1.341
					v-6.66c0-0.576-0.121-1.023-0.36-1.341c-0.24-0.318-0.618-0.478-1.134-0.478c-0.504,0-0.879,0.159-1.125,0.478
					c-0.246,0.317-0.369,0.765-0.369,1.341V96.88z"/>
			</g>
			<g>
				<path fill="#494848" d="M54.496,94.18v5.67h-1.404v-12.6h1.404v5.67h3.096v-5.67h1.404v12.6h-1.404v-5.67H54.496z"/>
				<path fill="#494848" d="M60.328,90.292c0-0.973,0.236-1.743,0.711-2.313c0.474-0.569,1.197-0.854,2.169-0.854
					s1.698,0.285,2.178,0.854c0.479,0.57,0.72,1.341,0.72,2.313v6.516c0,0.96-0.24,1.728-0.72,2.304s-1.206,0.864-2.178,0.864
					s-1.695-0.288-2.169-0.864c-0.475-0.576-0.711-1.344-0.711-2.304V90.292z M61.714,96.88c0,0.576,0.123,1.022,0.369,1.341
					c0.245,0.318,0.62,0.477,1.125,0.477c0.516,0,0.894-0.158,1.134-0.477s0.359-0.765,0.359-1.341v-6.66
					c0-0.576-0.119-1.023-0.359-1.341c-0.24-0.318-0.618-0.478-1.134-0.478c-0.505,0-0.88,0.159-1.125,0.478
					c-0.246,0.317-0.369,0.765-0.369,1.341V96.88z"/>
				<path fill="#494848" d="M70.246,87.25c0.996,0,1.713,0.246,2.15,0.737c0.438,0.492,0.657,1.206,0.657,2.143v1.025
					c0,0.696-0.126,1.261-0.378,1.692s-0.648,0.732-1.188,0.9c0.576,0.168,0.983,0.477,1.224,0.927
					c0.239,0.45,0.36,1.017,0.36,1.701v1.962c0,0.276,0.012,0.543,0.035,0.801c0.024,0.258,0.096,0.495,0.217,0.711h-1.422
					c-0.084-0.18-0.145-0.375-0.181-0.585s-0.054-0.524-0.054-0.945V96.34c0-0.708-0.159-1.197-0.477-1.467
					c-0.318-0.271-0.771-0.405-1.359-0.405h-0.99v5.382h-1.404v-12.6H70.246z M69.886,93.189c0.563,0,1.002-0.117,1.313-0.351
					c0.312-0.234,0.469-0.693,0.469-1.377v-1.206c0-0.576-0.111-1.008-0.333-1.296s-0.597-0.433-1.125-0.433h-1.368v4.662H69.886z"
					/>
				<path fill="#494848" d="M75.951,97.312l-0.486,2.538H74.17l2.412-12.6h2.033l2.412,12.6h-1.404l-0.485-2.538H75.951z
					 M76.131,96.105h2.809l-1.422-7.271L76.131,96.105z"/>
			</g>
			<g>
				<path fill="#494848" d="M384.211,87.25c0.995,0,1.715,0.272,2.159,0.818c0.444,0.547,0.666,1.3,0.666,2.259v1.513
					c0,1.008-0.237,1.767-0.711,2.276c-0.474,0.511-1.215,0.766-2.223,0.766h-1.242v4.968h-1.403v-12.6H384.211z M384.103,93.622
					c0.528,0,0.918-0.129,1.17-0.388c0.252-0.258,0.378-0.692,0.378-1.305v-1.674c0-0.576-0.111-1.008-0.333-1.296
					s-0.591-0.433-1.106-0.433h-1.351v5.095H384.103z"/>
				<path fill="#494848" d="M389.466,96.88c0,0.576,0.117,1.022,0.351,1.341c0.234,0.318,0.609,0.477,1.125,0.477
					c0.505,0,0.873-0.158,1.107-0.477s0.352-0.765,0.352-1.341v-9.63h1.313v9.558c0,0.96-0.228,1.731-0.684,2.313
					s-1.171,0.872-2.142,0.872c-0.961,0-1.669-0.29-2.125-0.872c-0.455-0.582-0.684-1.354-0.684-2.313V87.25h1.386V96.88z"/>
				<path fill="#494848" d="M399.582,92.83v1.26h-3.078v4.481h3.779v1.278H395.1v-12.6h5.184v1.277h-3.779v4.303H399.582z"/>
				<path fill="#494848" d="M404.388,87.25c0.996,0,1.713,0.246,2.151,0.737c0.438,0.492,0.656,1.206,0.656,2.143v1.025
					c0,0.696-0.125,1.261-0.377,1.692s-0.648,0.732-1.188,0.9c0.576,0.168,0.983,0.477,1.224,0.927s0.36,1.017,0.36,1.701v1.962
					c0,0.276,0.012,0.543,0.036,0.801c0.023,0.258,0.096,0.495,0.216,0.711h-1.422c-0.084-0.18-0.144-0.375-0.181-0.585
					c-0.035-0.21-0.053-0.524-0.053-0.945V96.34c0-0.708-0.16-1.197-0.478-1.467c-0.318-0.271-0.771-0.405-1.359-0.405h-0.989v5.382
					h-1.404v-12.6H404.388z M404.027,93.189c0.564,0,1.002-0.117,1.314-0.351c0.312-0.234,0.469-0.693,0.469-1.377v-1.206
					c0-0.576-0.111-1.008-0.334-1.296c-0.222-0.288-0.597-0.433-1.125-0.433h-1.367v4.662H404.027z"/>
				<path fill="#494848" d="M410.49,99.85V88.527h-2.322V87.25h6.029v1.277h-2.322V99.85H410.49z"/>
				<path fill="#494848" d="M415.89,97.312l-0.486,2.538h-1.296l2.412-12.6h2.034l2.411,12.6h-1.403l-0.485-2.538H415.89z
					 M416.069,96.105h2.808l-1.422-7.271L416.069,96.105z"/>
			</g>
			<g>
				<path fill="#494848" d="M471.549,90.414c0-0.973,0.236-1.743,0.711-2.313c0.475-0.569,1.197-0.854,2.17-0.854
					c0.971,0,1.697,0.285,2.178,0.854c0.479,0.57,0.72,1.341,0.72,2.313v6.516c0,0.96-0.24,1.728-0.72,2.304
					c-0.48,0.576-1.207,0.864-2.178,0.864c-0.973,0-1.695-0.288-2.17-0.864s-0.711-1.344-0.711-2.304V90.414z M472.936,97.002
					c0,0.576,0.123,1.022,0.369,1.341c0.245,0.318,0.62,0.477,1.125,0.477c0.516,0,0.893-0.158,1.133-0.477s0.36-0.765,0.36-1.341
					v-6.66c0-0.576-0.12-1.023-0.36-1.341c-0.24-0.318-0.617-0.478-1.133-0.478c-0.505,0-0.88,0.159-1.125,0.478
					c-0.246,0.317-0.369,0.765-0.369,1.341V97.002z"/>
				<path fill="#494848" d="M481.484,87.372c0.984,0,1.687,0.23,2.106,0.692s0.63,1.161,0.63,2.098v0.594
					c0,0.672-0.107,1.215-0.324,1.629c-0.215,0.414-0.6,0.705-1.151,0.873c0.612,0.168,1.047,0.486,1.305,0.954
					c0.259,0.468,0.388,1.05,0.388,1.746v1.062c0,0.948-0.234,1.677-0.703,2.188c-0.467,0.51-1.193,0.765-2.178,0.765h-2.897v-12.6
					H481.484z M481.143,92.718c0.564,0,0.987-0.114,1.27-0.342c0.281-0.229,0.423-0.672,0.423-1.332v-0.738
					c0-0.563-0.104-0.981-0.315-1.251c-0.209-0.27-0.566-0.405-1.07-0.405h-1.387v4.068H481.143z M481.557,98.693
					c0.996,0,1.494-0.569,1.494-1.71v-1.115c0-0.708-0.141-1.197-0.423-1.468c-0.282-0.27-0.729-0.404-1.341-0.404h-1.225v4.697
					H481.557z"/>
				<path fill="#494848" d="M488.361,87.246c0.959,0,1.667,0.285,2.123,0.854c0.456,0.57,0.684,1.335,0.684,2.295v0.342h-1.332
					v-0.414c0-0.575-0.113-1.02-0.342-1.332c-0.228-0.312-0.594-0.468-1.098-0.468s-0.87,0.156-1.098,0.468
					c-0.229,0.312-0.342,0.751-0.342,1.314c0,0.468,0.104,0.876,0.314,1.224c0.21,0.349,0.471,0.67,0.783,0.964
					s0.65,0.582,1.018,0.863c0.365,0.282,0.704,0.592,1.017,0.927c0.312,0.337,0.573,0.718,0.782,1.144
					c0.211,0.426,0.315,0.934,0.315,1.521c0,0.961-0.231,1.726-0.692,2.296c-0.463,0.569-1.18,0.854-2.151,0.854
					s-1.687-0.285-2.142-0.854c-0.457-0.57-0.685-1.335-0.685-2.296v-0.72h1.313v0.792c0,0.576,0.121,1.021,0.36,1.332
					c0.24,0.312,0.612,0.468,1.116,0.468s0.876-0.155,1.116-0.468c0.239-0.312,0.36-0.756,0.36-1.332
					c0-0.468-0.105-0.873-0.315-1.215s-0.472-0.66-0.783-0.954s-0.647-0.582-1.008-0.864c-0.36-0.281-0.696-0.591-1.009-0.927
					c-0.312-0.336-0.572-0.717-0.782-1.143s-0.315-0.934-0.315-1.521c0-0.972,0.229-1.739,0.684-2.304
					C486.711,87.527,487.412,87.246,488.361,87.246z"/>
				<path fill="#494848" d="M496.893,92.952v1.26h-3.078v4.481h3.78v1.278h-5.184v-12.6h5.184v1.277h-3.78v4.303H496.893z"/>
				<path fill="#494848" d="M501.698,87.372c0.996,0,1.713,0.246,2.151,0.737c0.438,0.492,0.656,1.206,0.656,2.143v1.025
					c0,0.696-0.125,1.261-0.377,1.692s-0.648,0.732-1.188,0.9c0.576,0.168,0.983,0.477,1.224,0.927s0.36,1.017,0.36,1.701v1.962
					c0,0.276,0.012,0.543,0.036,0.801c0.023,0.258,0.096,0.495,0.216,0.711h-1.422c-0.084-0.18-0.144-0.375-0.181-0.585
					c-0.035-0.21-0.053-0.524-0.053-0.945v-1.979c0-0.708-0.16-1.197-0.478-1.467c-0.318-0.271-0.771-0.405-1.359-0.405h-0.989
					v5.382h-1.404v-12.6H501.698z M501.338,93.312c0.564,0,1.002-0.117,1.314-0.351c0.312-0.234,0.469-0.693,0.469-1.377v-1.206
					c0-0.576-0.111-1.008-0.334-1.296c-0.222-0.288-0.597-0.433-1.125-0.433h-1.367v4.662H501.338z"/>
				<path fill="#494848" d="M507.009,87.372l2.052,10.962l2.034-10.962h1.296l-2.357,12.6h-2.07l-2.377-12.6H507.009z"/>
				<path fill="#494848" d="M514.443,97.434l-0.486,2.538h-1.297l2.412-12.6h2.035l2.411,12.6h-1.403l-0.486-2.538H514.443z
					 M514.623,96.228h2.808l-1.422-7.271L514.623,96.228z"/>
				<path fill="#494848" d="M523.316,87.246c0.973,0,1.689,0.287,2.15,0.863c0.463,0.576,0.693,1.345,0.693,2.305v1.134h-1.332
					v-1.206c0-0.576-0.117-1.023-0.351-1.341c-0.233-0.318-0.609-0.478-1.125-0.478c-0.504,0-0.876,0.159-1.116,0.478
					c-0.24,0.317-0.359,0.765-0.359,1.341v6.66c0,0.576,0.119,1.022,0.359,1.341s0.612,0.477,1.116,0.477
					c0.516,0,0.892-0.158,1.125-0.477s0.351-0.765,0.351-1.341v-1.639h1.332v1.566c0,0.96-0.23,1.728-0.693,2.304
					c-0.461,0.576-1.178,0.864-2.15,0.864c-0.96,0-1.672-0.288-2.133-0.864c-0.463-0.576-0.693-1.344-0.693-2.304v-6.516
					c0-0.48,0.057-0.915,0.172-1.306c0.113-0.39,0.287-0.723,0.521-0.999c0.234-0.275,0.527-0.488,0.882-0.639
					S522.836,87.246,523.316,87.246z"/>
				<path fill="#494848" d="M528.842,87.372v12.6h-1.403v-12.6H528.842z"/>
				<path fill="#494848" d="M530.174,90.414c0-0.973,0.237-1.743,0.712-2.313c0.474-0.569,1.196-0.854,2.169-0.854
					c0.972,0,1.697,0.285,2.178,0.854c0.48,0.57,0.721,1.341,0.721,2.313v6.516c0,0.96-0.24,1.728-0.721,2.304
					s-1.206,0.864-2.178,0.864c-0.973,0-1.695-0.288-2.169-0.864c-0.475-0.576-0.712-1.344-0.712-2.304V90.414z M531.561,97.002
					c0,0.576,0.123,1.022,0.369,1.341s0.621,0.477,1.125,0.477c0.516,0,0.894-0.158,1.134-0.477c0.239-0.318,0.36-0.765,0.36-1.341
					v-6.66c0-0.576-0.121-1.023-0.36-1.341c-0.24-0.318-0.618-0.478-1.134-0.478c-0.504,0-0.879,0.159-1.125,0.478
					c-0.246,0.317-0.369,0.765-0.369,1.341V97.002z"/>
				<path fill="#494848" d="M538.525,99.972h-1.26v-12.6h1.782l2.916,9.107v-9.107h1.242v12.6h-1.458l-3.223-10.188V99.972z"/>
				<path fill="#494848" d="M549.129,92.952v1.26h-3.078v4.481h3.779v1.278h-5.184v-12.6h5.184v1.277h-3.779v4.303H549.129z"/>
				<path fill="#494848" d="M553.771,87.246c0.96,0,1.668,0.285,2.125,0.854c0.455,0.57,0.684,1.335,0.684,2.295v0.342h-1.332
					v-0.414c0-0.575-0.114-1.02-0.342-1.332c-0.229-0.312-0.595-0.468-1.099-0.468s-0.87,0.156-1.098,0.468
					c-0.229,0.312-0.343,0.751-0.343,1.314c0,0.468,0.105,0.876,0.315,1.224c0.21,0.349,0.472,0.67,0.783,0.964
					s0.651,0.582,1.017,0.863c0.366,0.282,0.705,0.592,1.018,0.927c0.312,0.337,0.572,0.718,0.783,1.144
					c0.209,0.426,0.314,0.934,0.314,1.521c0,0.961-0.23,1.726-0.693,2.296c-0.461,0.569-1.179,0.854-2.15,0.854
					c-0.973,0-1.686-0.285-2.143-0.854c-0.455-0.57-0.684-1.335-0.684-2.296v-0.72h1.314v0.792c0,0.576,0.119,1.021,0.359,1.332
					c0.24,0.312,0.612,0.468,1.116,0.468s0.876-0.155,1.116-0.468c0.24-0.312,0.359-0.756,0.359-1.332
					c0-0.468-0.105-0.873-0.314-1.215c-0.211-0.342-0.471-0.66-0.783-0.954s-0.648-0.582-1.008-0.864
					c-0.36-0.281-0.696-0.591-1.008-0.927c-0.312-0.336-0.574-0.717-0.783-1.143c-0.211-0.426-0.314-0.934-0.314-1.521
					c0-0.972,0.227-1.739,0.684-2.304C552.121,87.527,552.824,87.246,553.771,87.246z"/>
			</g>
		</g>
		<line fill="none" stroke="#FFFFFF" stroke-miterlimit="10" x1="11.335" y1="173.296" x2="572.835" y2="173.296"/>
		<line fill="none" stroke="#FFFFFF" stroke-miterlimit="10" x1="11.335" y1="219.629" x2="572.835" y2="219.629"/>
		<line fill="none" stroke="#FFFFFF" stroke-miterlimit="10" x1="11.335" y1="266.629" x2="572.835" y2="266.629"/>
		<g>
			<g opacity="0.5">
				<g>
					<path fill="#707070" d="M564.335,80.53v26.266H463.339V80.53H564.335 M565.335,79.53H462.339v28.266h102.996V79.53
						L565.335,79.53z"/>
				</g>
			</g>
			<g opacity="0.5">
				<g>
					<path fill="#707070" d="M453.208,80.53v26.266H352.214V80.53H453.208 M454.208,79.53H351.214v28.266h102.994V79.53
						L454.208,79.53z"/>
				</g>
			</g>
			<g opacity="0.5">
				<g>
					<path fill="#707070" d="M342.47,80.53v26.266H241.475V80.53H342.47 M343.47,79.53H240.475v28.266H343.47V79.53L343.47,79.53z"
						/>
				</g>
			</g>
			<g opacity="0.5">
				<g>
					<path fill="#707070" d="M230.956,80.53v26.266H129.961V80.53H230.956 M231.956,79.53H128.961v28.266h102.995V79.53
						L231.956,79.53z"/>
				</g>
			</g>
			<g opacity="0.5">
				<g>
					<path fill="#707070" d="M119.83,80.53v26.266H18.835V80.53H119.83 M120.83,79.53H17.835v28.266H120.83V79.53L120.83,79.53z"/>
				</g>
			</g>
		</g>
	</g>
</g>
</svg>
