<?xml version="1.0" encoding="utf-8"?>
<!-- Generator: Adobe Illustrator 16.0.0, SVG Export Plug-In . SVG Version: 6.00 Build 0)  -->
<!DOCTYPE svg PUBLIC "-//W3C//DTD SVG 1.1//EN" "http://www.w3.org/Graphics/SVG/1.1/DTD/svg11.dtd">
<svg version="1.1" id="Layer_1" xmlns="http://www.w3.org/2000/svg" xmlns:xlink="http://www.w3.org/1999/xlink" x="0px" y="0px"
	 width="16.2px" height="16.2px" viewBox="0 0 16.2 16.2" enable-background="new 0 0 16.2 16.2" xml:space="preserve">
<g>
	<g>
		<circle fill="#FFFFFF" cx="8.1" cy="8.1" r="8.1"/>
		<path fill="#3F3F3E" d="M8.1,16.2C3.6,16.2,0,12.6,0,8.1S3.6,0,8.1,0s8.1,3.6,8.1,8.1S12.6,16.2,8.1,16.2z M8.1,0.1
			c-4.4,0-8.1,3.6-8.1,8.1s3.6,8.1,8.1,8.1s8.1-3.6,8.1-8.1S12.6,0.1,8.1,0.1z"/>
	</g>
	<g>
		<path fill="#3F3F3E" d="M12.1,11.1l2.4-1c0.2,0.3,0.8,0.8,1.1,1c0.4-0.9,0.6-2,0.6-3c0-0.9-0.1-1.7-0.4-2.5
			c-0.2,0.2-0.7,0.6-1,0.8l-2.4-2c0,0,0,0,0,0c0-0.3-0.5-1.9-0.9-2.4l0.7-0.9C12.1,1.1,12,1,12,1l-0.6,0.8C10.8,1.7,8.6,1.3,8,1.4
			L5.8,0.6V0.4c-1.2,0.4-2.3,1-3.2,1.9l0.3,0.1L2,4.9c-0.5,0.5-1.3,2-1.5,2.5L0.1,7.5c0,0.1,0,0.2,0,0.3l0.5-0.1
			c0.1,0.6,1,1.8,1.3,2.2l0.6,3L1.7,13c0.9,1.1,2.1,2.1,3.4,2.6v-0.5l2.5-1.6c0.5,0.2,2.3,0.4,2.8,0.4l0.7,1.6
			c0.1,0,0.2-0.1,0.2-0.1l-0.7-1.6C11.1,13.5,12,11.6,12.1,11.1z M3.1,2.3l2.6-1.5l2.1,0.8C7.6,2.1,7,3.5,7.2,3.9c0,0,0,0,0,0.1
			L4.3,5.6C3.9,5.3,2.8,4.8,2.4,4.8L3.1,2.3z M5,14.9l-2.2-2L2.1,9.9c0.5-0.1,1.6-0.7,2-1.1l2.7,1.8c0,0.6,0.4,2.3,0.6,2.7L5,14.9z
			 M9.7,8.9C9.1,9,7.3,10,7,10.4L4.3,8.6c0.1-0.5,0.3-2.3,0.1-2.8l2.9-1.5c0.5,0.6,1.9,1.4,2.5,1.6L9.7,8.9z M9.9,9l0.2-3.2
			c0.5-0.1,1.7-0.7,2.1-1.1l2.4,2c-0.1,0.3-0.3,2.6-0.2,3.2L12,10.8C11.7,10.4,10.4,9.2,9.9,9z"/>
	</g>
</g>
</svg>
