<?xml version="1.0" encoding="utf-8"?>
<!-- Generator: Adobe Illustrator 16.0.0, SVG Export Plug-In . SVG Version: 6.00 Build 0)  -->
<!DOCTYPE svg PUBLIC "-//W3C//DTD SVG 1.1//EN" "http://www.w3.org/Graphics/SVG/1.1/DTD/svg11.dtd">
<svg version="1.1" id="Layer_1" xmlns="http://www.w3.org/2000/svg" xmlns:xlink="http://www.w3.org/1999/xlink" x="0px" y="0px"
	 width="997px" height="429px" viewBox="0 0 997 429" enable-background="new 0 0 997 429" xml:space="preserve">
<g opacity="0.5">
	<g>
		<path fill="#5AD8E5" d="M10.6,16.9c0,2.3-1.8,4.1-4.1,4.1s-4.1-1.8-4.1-4.1c0-2.3,4.1-14.8,4.1-14.8S10.6,14.6,10.6,16.9z"/>
		<path fill="#5AD8E5" d="M151.2,16.9c0,2.3-1.8,4.1-4.1,4.1s-4.1-1.8-4.1-4.1c0-2.3,4.1-14.8,4.1-14.8S151.2,14.6,151.2,16.9z"/>
		<path fill="#5AD8E5" d="M291.8,16.9c0,2.3-1.8,4.1-4.1,4.1s-4.1-1.8-4.1-4.1c0-2.3,4.1-14.8,4.1-14.8S291.8,14.6,291.8,16.9z"/>
		<path fill="#5AD8E5" d="M432.3,16.9c0,2.3-1.8,4.1-4.1,4.1s-4.1-1.8-4.1-4.1c0-2.3,4.1-14.8,4.1-14.8S432.3,14.6,432.3,16.9z"/>
		<path fill="#5AD8E5" d="M572.9,16.9c0,2.3-1.8,4.1-4.1,4.1s-4.1-1.8-4.1-4.1c0-2.3,4.1-14.8,4.1-14.8S572.9,14.6,572.9,16.9z"/>
		<path fill="#5AD8E5" d="M713.5,16.9c0,2.3-1.8,4.1-4.1,4.1s-4.1-1.8-4.1-4.1c0-2.3,4.1-14.8,4.1-14.8S713.5,14.6,713.5,16.9z"/>
		<path fill="#5AD8E5" d="M854.1,16.9c0,2.3-1.8,4.1-4.1,4.1s-4.1-1.8-4.1-4.1c0-2.3,4.1-14.8,4.1-14.8S854.1,14.6,854.1,16.9z"/>
		<path fill="#5AD8E5" d="M994.6,16.9c0,2.3-1.8,4.1-4.1,4.1c-2.3,0-4.1-1.8-4.1-4.1c0-2.3,4.1-14.8,4.1-14.8S994.6,14.6,994.6,16.9
			z"/>
	</g>
	<g>
		<path fill="#5AD8E5" d="M10.6,134.9c0,2.3-1.8,4.1-4.1,4.1s-4.1-1.8-4.1-4.1c0-2.3,4.1-14.8,4.1-14.8S10.6,132.6,10.6,134.9z"/>
		<path fill="#5AD8E5" d="M151.2,134.9c0,2.3-1.8,4.1-4.1,4.1s-4.1-1.8-4.1-4.1c0-2.3,4.1-14.8,4.1-14.8S151.2,132.6,151.2,134.9z"
			/>
		<path fill="#5AD8E5" d="M291.8,134.9c0,2.3-1.8,4.1-4.1,4.1s-4.1-1.8-4.1-4.1c0-2.3,4.1-14.8,4.1-14.8S291.8,132.6,291.8,134.9z"
			/>
		<path fill="#5AD8E5" d="M432.3,134.9c0,2.3-1.8,4.1-4.1,4.1s-4.1-1.8-4.1-4.1c0-2.3,4.1-14.8,4.1-14.8S432.3,132.6,432.3,134.9z"
			/>
		<path fill="#5AD8E5" d="M572.9,134.9c0,2.3-1.8,4.1-4.1,4.1s-4.1-1.8-4.1-4.1c0-2.3,4.1-14.8,4.1-14.8S572.9,132.6,572.9,134.9z"
			/>
		<path fill="#5AD8E5" d="M713.5,134.9c0,2.3-1.8,4.1-4.1,4.1s-4.1-1.8-4.1-4.1c0-2.3,4.1-14.8,4.1-14.8S713.5,132.6,713.5,134.9z"
			/>
		<path fill="#5AD8E5" d="M854.1,134.9c0,2.3-1.8,4.1-4.1,4.1s-4.1-1.8-4.1-4.1c0-2.3,4.1-14.8,4.1-14.8S854.1,132.6,854.1,134.9z"
			/>
		<path fill="#5AD8E5" d="M994.6,134.9c0,2.3-1.8,4.1-4.1,4.1c-2.3,0-4.1-1.8-4.1-4.1c0-2.3,4.1-14.8,4.1-14.8
			S994.6,132.6,994.6,134.9z"/>
	</g>
	<g>
		<path fill="#5AD8E5" d="M10.6,244.9c0,2.3-1.8,4.1-4.1,4.1s-4.1-1.8-4.1-4.1c0-2.3,4.1-14.8,4.1-14.8S10.6,242.6,10.6,244.9z"/>
		<path fill="#5AD8E5" d="M120,244.9c0,2.3-1.8,4.1-4.1,4.1c-2.3,0-4.1-1.8-4.1-4.1c0-2.3,4.1-14.8,4.1-14.8S120,242.6,120,244.9z"
			/>
		<path fill="#5AD8E5" d="M229.3,244.9c0,2.3-1.8,4.1-4.1,4.1s-4.1-1.8-4.1-4.1c0-2.3,4.1-14.8,4.1-14.8S229.3,242.6,229.3,244.9z"
			/>
		<path fill="#5AD8E5" d="M338.6,244.9c0,2.3-1.8,4.1-4.1,4.1s-4.1-1.8-4.1-4.1c0-2.3,4.1-14.8,4.1-14.8S338.6,242.6,338.6,244.9z"
			/>
		<path fill="#5AD8E5" d="M448,244.9c0,2.3-1.8,4.1-4.1,4.1s-4.1-1.8-4.1-4.1c0-2.3,4.1-14.8,4.1-14.8S448,242.6,448,244.9z"/>
		<path fill="#5AD8E5" d="M557.3,244.9c0,2.3-1.8,4.1-4.1,4.1s-4.1-1.8-4.1-4.1c0-2.3,4.1-14.8,4.1-14.8S557.3,242.6,557.3,244.9z"
			/>
		<path fill="#5AD8E5" d="M666.6,244.9c0,2.3-1.8,4.1-4.1,4.1c-2.3,0-4.1-1.8-4.1-4.1c0-2.3,4.1-14.8,4.1-14.8
			S666.6,242.6,666.6,244.9z"/>
		<path fill="#5AD8E5" d="M776,244.9c0,2.3-1.8,4.1-4.1,4.1s-4.1-1.8-4.1-4.1c0-2.3,4.1-14.8,4.1-14.8S776,242.6,776,244.9z"/>
		<path fill="#5AD8E5" d="M885.3,244.9c0,2.3-1.8,4.1-4.1,4.1s-4.1-1.8-4.1-4.1c0-2.3,4.1-14.8,4.1-14.8S885.3,242.6,885.3,244.9z"
			/>
		<path fill="#5AD8E5" d="M994.6,244.9c0,2.3-1.8,4.1-4.1,4.1c-2.3,0-4.1-1.8-4.1-4.1c0-2.3,4.1-14.8,4.1-14.8
			S994.6,242.6,994.6,244.9z"/>
	</g>
	<g>
		<path fill="#5AD8E5" d="M10.6,362.9c0,2.3-1.8,4.1-4.1,4.1s-4.1-1.8-4.1-4.1c0-2.3,4.1-14.8,4.1-14.8S10.6,360.6,10.6,362.9z"/>
		<path fill="#5AD8E5" d="M151.2,362.9c0,2.3-1.8,4.1-4.1,4.1s-4.1-1.8-4.1-4.1c0-2.3,4.1-14.8,4.1-14.8S151.2,360.6,151.2,362.9z"
			/>
		<path fill="#5AD8E5" d="M291.8,362.9c0,2.3-1.8,4.1-4.1,4.1s-4.1-1.8-4.1-4.1c0-2.3,4.1-14.8,4.1-14.8S291.8,360.6,291.8,362.9z"
			/>
		<path fill="#5AD8E5" d="M432.3,362.9c0,2.3-1.8,4.1-4.1,4.1s-4.1-1.8-4.1-4.1c0-2.3,4.1-14.8,4.1-14.8S432.3,360.6,432.3,362.9z"
			/>
		<path fill="#5AD8E5" d="M572.9,362.9c0,2.3-1.8,4.1-4.1,4.1s-4.1-1.8-4.1-4.1c0-2.3,4.1-14.8,4.1-14.8S572.9,360.6,572.9,362.9z"
			/>
		<path fill="#5AD8E5" d="M713.5,362.9c0,2.3-1.8,4.1-4.1,4.1s-4.1-1.8-4.1-4.1c0-2.3,4.1-14.8,4.1-14.8S713.5,360.6,713.5,362.9z"
			/>
		<path fill="#5AD8E5" d="M854.1,362.9c0,2.3-1.8,4.1-4.1,4.1s-4.1-1.8-4.1-4.1c0-2.3,4.1-14.8,4.1-14.8S854.1,360.6,854.1,362.9z"
			/>
		<path fill="#5AD8E5" d="M994.6,362.9c0,2.3-1.8,4.1-4.1,4.1c-2.3,0-4.1-1.8-4.1-4.1c0-2.3,4.1-14.8,4.1-14.8
			S994.6,360.6,994.6,362.9z"/>
	</g>
	<g>
		<path fill="#5AD8E5" d="M74.4,423.6c0,1.2-1,2.1-2.1,2.1s-2.1-1-2.1-2.1s2.1-7.6,2.1-7.6S74.4,422.5,74.4,423.6z"/>
		<path fill="#5AD8E5" d="M246.5,423.8c0,1.2-1,2.2-2.2,2.2s-2.2-1-2.2-2.2s2.2-8,2.2-8S246.5,422.5,246.5,423.8z"/>
		<path fill="#5AD8E5" d="M418.6,423.9c0,1.3-1,2.3-2.3,2.3c-1.3,0-2.3-1-2.3-2.3s2.3-8.4,2.3-8.4S418.6,422.6,418.6,423.9z"/>
		<path fill="#5AD8E5" d="M590.6,424c0,1.3-1.1,2.4-2.4,2.4s-2.4-1.1-2.4-2.4c0-1.3,2.4-8.7,2.4-8.7S590.6,422.7,590.6,424z"/>
		<path fill="#5AD8E5" d="M762.7,424.2c0,1.4-1.1,2.5-2.5,2.5c-1.4,0-2.5-1.1-2.5-2.5c0-1.4,2.5-9.1,2.5-9.1
			S762.7,422.8,762.7,424.2z"/>
		<path fill="#5AD8E5" d="M934.8,424.3c0,1.5-1.2,2.6-2.6,2.6c-1.5,0-2.6-1.2-2.6-2.6c0-1.4,2.6-9.4,2.6-9.4
			S934.8,422.8,934.8,424.3z"/>
	</g>
</g>
</svg>
