<?xml version="1.0" encoding="utf-8"?>
<!-- Generator: Adobe Illustrator 16.0.0, SVG Export Plug-In . SVG Version: 6.00 Build 0)  -->
<!DOCTYPE svg PUBLIC "-//W3C//DTD SVG 1.1//EN" "http://www.w3.org/Graphics/SVG/1.1/DTD/svg11.dtd">
<svg version="1.1" id="Layer_1" xmlns="http://www.w3.org/2000/svg" xmlns:xlink="http://www.w3.org/1999/xlink" x="0px" y="0px"
	 width="997px" height="429px" viewBox="0 0 997 429" enable-background="new 0 0 997 429" xml:space="preserve">
<g opacity="0.5">
	<g>
		<path fill="#5AD8E5" d="M74.4,77.6c0,1.2-1,2.1-2.1,2.1s-2.1-1-2.1-2.1s2.1-7.6,2.1-7.6S74.4,76.5,74.4,77.6z"/>
		<path fill="#5AD8E5" d="M246.5,77.8c0,1.2-1,2.2-2.2,2.2s-2.2-1-2.2-2.2c0-1.2,2.2-8,2.2-8S246.5,76.5,246.5,77.8z"/>
		<path fill="#5AD8E5" d="M418.6,77.9c0,1.3-1,2.3-2.3,2.3c-1.3,0-2.3-1-2.3-2.3c0-1.3,2.3-8.4,2.3-8.4S418.6,76.6,418.6,77.9z"/>
		<path fill="#5AD8E5" d="M590.6,78c0,1.3-1.1,2.4-2.4,2.4s-2.4-1.1-2.4-2.4c0-1.3,2.4-8.7,2.4-8.7S590.6,76.7,590.6,78z"/>
		<path fill="#5AD8E5" d="M762.7,78.2c0,1.4-1.1,2.5-2.5,2.5c-1.4,0-2.5-1.1-2.5-2.5c0-1.4,2.5-9.1,2.5-9.1S762.7,76.8,762.7,78.2z"
			/>
		<path fill="#5AD8E5" d="M934.8,78.3c0,1.4-1.2,2.6-2.6,2.6c-1.5,0-2.6-1.2-2.6-2.6c0-1.4,2.6-9.4,2.6-9.4S934.8,76.8,934.8,78.3z"
			/>
	</g>
	<g>
		<path fill="#5AD8E5" d="M74.4,195.6c0,1.2-1,2.1-2.1,2.1s-2.1-1-2.1-2.1s2.1-7.6,2.1-7.6S74.4,194.5,74.4,195.6z"/>
		<path fill="#5AD8E5" d="M246.5,195.8c0,1.2-1,2.2-2.2,2.2s-2.2-1-2.2-2.2c0-1.2,2.2-8,2.2-8S246.5,194.5,246.5,195.8z"/>
		<path fill="#5AD8E5" d="M418.6,195.9c0,1.3-1,2.3-2.3,2.3c-1.3,0-2.3-1-2.3-2.3s2.3-8.4,2.3-8.4S418.6,194.6,418.6,195.9z"/>
		<path fill="#5AD8E5" d="M590.6,196c0,1.3-1.1,2.4-2.4,2.4s-2.4-1.1-2.4-2.4c0-1.3,2.4-8.7,2.4-8.7S590.6,194.7,590.6,196z"/>
		<path fill="#5AD8E5" d="M762.7,196.2c0,1.4-1.1,2.5-2.5,2.5c-1.4,0-2.5-1.1-2.5-2.5c0-1.4,2.5-9.1,2.5-9.1
			S762.7,194.8,762.7,196.2z"/>
		<path fill="#5AD8E5" d="M934.8,196.3c0,1.4-1.2,2.6-2.6,2.6c-1.5,0-2.6-1.2-2.6-2.6c0-1.4,2.6-9.4,2.6-9.4
			S934.8,194.8,934.8,196.3z"/>
	</g>
	<g>
		<path fill="#5AD8E5" d="M74.4,305.6c0,1.2-1,2.1-2.1,2.1s-2.1-1-2.1-2.1s2.1-7.6,2.1-7.6S74.4,304.5,74.4,305.6z"/>
		<path fill="#5AD8E5" d="M197.3,305.7c0,1.2-1,2.2-2.2,2.2s-2.2-1-2.2-2.2c0-1.2,2.2-7.9,2.2-7.9S197.3,304.5,197.3,305.7z"/>
		<path fill="#5AD8E5" d="M320.2,305.8c0,1.3-1,2.3-2.3,2.3c-1.3,0-2.3-1-2.3-2.3c0-1.3,2.3-8.1,2.3-8.1S320.2,304.6,320.2,305.8z"
			/>
		<path fill="#5AD8E5" d="M443.1,305.9c0,1.3-1,2.3-2.3,2.3s-2.3-1-2.3-2.3s2.3-8.4,2.3-8.4S443.1,304.6,443.1,305.9z"/>
		<path fill="#5AD8E5" d="M566.1,306c0,1.3-1.1,2.4-2.4,2.4c-1.3,0-2.4-1.1-2.4-2.4c0-1.3,2.4-8.7,2.4-8.7S566.1,304.7,566.1,306z"
			/>
		<path fill="#5AD8E5" d="M689,306.1c0,1.4-1.1,2.5-2.5,2.5c-1.4,0-2.5-1.1-2.5-2.5c0-1.4,2.5-8.9,2.5-8.9S689,304.7,689,306.1z"/>
		<path fill="#5AD8E5" d="M811.9,306.2c0,1.4-1.1,2.6-2.6,2.6c-1.4,0-2.6-1.1-2.6-2.6c0-1.4,2.6-9.2,2.6-9.2
			S811.9,304.8,811.9,306.2z"/>
		<path fill="#5AD8E5" d="M934.8,306.3c0,1.4-1.2,2.6-2.6,2.6c-1.5,0-2.6-1.2-2.6-2.6c0-1.4,2.6-9.4,2.6-9.4
			S934.8,304.8,934.8,306.3z"/>
	</g>
	<g>
		<path fill="#5AD8E5" d="M74.4,423.6c0,1.2-1,2.1-2.1,2.1s-2.1-1-2.1-2.1s2.1-7.6,2.1-7.6S74.4,422.5,74.4,423.6z"/>
		<path fill="#5AD8E5" d="M246.5,423.8c0,1.2-1,2.2-2.2,2.2s-2.2-1-2.2-2.2s2.2-8,2.2-8S246.5,422.5,246.5,423.8z"/>
		<path fill="#5AD8E5" d="M418.6,423.9c0,1.3-1,2.3-2.3,2.3c-1.3,0-2.3-1-2.3-2.3s2.3-8.4,2.3-8.4S418.6,422.6,418.6,423.9z"/>
		<path fill="#5AD8E5" d="M590.6,424c0,1.3-1.1,2.4-2.4,2.4s-2.4-1.1-2.4-2.4c0-1.3,2.4-8.7,2.4-8.7S590.6,422.7,590.6,424z"/>
		<path fill="#5AD8E5" d="M762.7,424.2c0,1.4-1.1,2.5-2.5,2.5c-1.4,0-2.5-1.1-2.5-2.5c0-1.4,2.5-9.1,2.5-9.1
			S762.7,422.8,762.7,424.2z"/>
		<path fill="#5AD8E5" d="M934.8,424.3c0,1.5-1.2,2.6-2.6,2.6c-1.5,0-2.6-1.2-2.6-2.6c0-1.4,2.6-9.4,2.6-9.4
			S934.8,422.8,934.8,424.3z"/>
	</g>
</g>
</svg>
