<?xml version="1.0" encoding="utf-8"?>
<!-- Generator: Adobe Illustrator 16.0.0, SVG Export Plug-In . SVG Version: 6.00 Build 0)  -->
<!DOCTYPE svg PUBLIC "-//W3C//DTD SVG 1.1//EN" "http://www.w3.org/Graphics/SVG/1.1/DTD/svg11.dtd">
<svg version="1.1" id="Layer_1" xmlns="http://www.w3.org/2000/svg" xmlns:xlink="http://www.w3.org/1999/xlink" x="0px" y="0px"
	 width="55.4px" height="81.6px" viewBox="0 0 55.4 81.6" enable-background="new 0 0 55.4 81.6" xml:space="preserve">
<g>
	<g>
		<g>
			<path fill="#FFC5B3" d="M19.7,18.6c0,0,8.8-0.9,10.4-4.5l-1.8-6.4l-1.1,0.7l-2.3,5.8L19.7,18.6z"/>
		</g>
		<g>
			<path fill="#FFC5B3" d="M53.1,35.2c-0.5,0-1.1-0.2-1.5-0.5c-0.5-0.4-1.1-1-1.8-1.5c-2.2-1.9-5.3-4.6-8.9-7
				c-3.1-2-9.2-1.1-11.3-0.6c-1.2,0.3-2.5-0.4-2.8-1.7s0.4-2.5,1.7-2.8c1-0.2,9.7-2.3,15,1.2c3.9,2.6,7.1,5.3,9.4,7.4
				c0.6,0.6,1.2,1.1,1.7,1.5c1,0.8,1.1,2.3,0.3,3.3C54.4,34.9,53.8,35.2,53.1,35.2z"/>
		</g>
		<g>
			<path fill="#FCD329" d="M29.6,25.5L28.5,21c0.2-0.1,6-1.5,11-0.4l-1,4.6C35.2,24.4,31,25.2,29.6,25.5z"/>
		</g>
		<g>
			<path fill="#D3B124" d="M19.9,20.5c0,0,4.5-1.9,10,0l-4.4,3.7L19.9,20.5z"/>
		</g>
		<g>
			<g>
				<path fill="#FFC5B3" d="M2.3,40c-1,0-1.8-0.6-2.2-1.5c-0.4-1.2,0.2-2.6,1.4-3c0.6-0.2,1.4-0.5,2.2-0.8c2.8-1,6.7-2.3,10.5-4.2
					c3.3-1.6,5.6-7.4,6.2-9.5c0.4-1.2,1.6-2,2.9-1.6c1.2,0.4,2,1.6,1.6,2.9c-0.3,1-2.8,9.5-8.6,12.4c-4.1,2.1-8.2,3.4-11.1,4.5
					c-0.8,0.3-1.5,0.5-2.1,0.8C2.9,39.9,2.6,40,2.3,40z"/>
			</g>
			<g>
				<path fill="#EFCB1D" d="M19.8,32l-3.5-3.2c2.7-3,4.1-7.8,4.1-7.9l4.5,1.3C24.9,22.5,23.2,28.2,19.8,32z"/>
			</g>
		</g>
		<g>
			<path fill="#FFC5B3" d="M31.9,28.8H18.3c0,0,2.7-5.5,2.7-16c0-3,8.2-3,8.2,0C29.2,26.9,31.9,28.8,31.9,28.8z"/>
		</g>
		<g>
			<path fill="#FFC5B3" d="M21.7,80.4c-1.3,0-2.4-1-2.5-2.3l-1-14.5c0-0.1,0-0.2,0-0.3l1-14.7c0.1-1.4,1.3-2.4,2.7-2.3
				c1.4,0.1,2.4,1.3,2.3,2.7l-1,14.5l1,14.3c0.1,1.4-0.9,2.6-2.3,2.7C21.8,80.4,21.8,80.4,21.7,80.4z"/>
		</g>
		<g>
			
				<rect x="18.8" y="46.3" transform="matrix(0.9976 6.913722e-02 -6.913722e-02 0.9976 3.8014 -1.3448)" fill="#EAC52A" width="5" height="16"/>
		</g>
		<g>
			<path fill="#FFC5B3" d="M34.7,66.7c-1,0-1.9-0.6-2.3-1.5l-6-13.4c-0.6-1.3,0-2.7,1.3-3.3c1.3-0.6,2.7,0,3.3,1.3l5.3,11.7L50,59.9
				c1.4-0.2,2.6,0.8,2.8,2.2s-0.8,2.6-2.2,2.8L35,66.7C34.9,66.7,34.8,66.7,34.7,66.7z"/>
		</g>
		<g>
			
				<rect x="23.6" y="52.4" transform="matrix(0.4104 0.9119 -0.9119 0.4104 68.0294 4.5261)" fill="#EAC52A" width="13.9" height="5"/>
		</g>
		<g>
			<path fill="#FCD329" d="M19.9,20.5c-1.1,4.6-3.2,4.2-3.2,12.1c0,9.6,0,11.7,0,12c0,0,1.1,0,1.1,0h9.1v-24H19.9z"/>
		</g>
		<g>
			<path fill="#FCD329" d="M29.9,20.5C31,25.1,33,24.7,33,32.5c0,9.6,0,11.7,0,12c0,0-1.1,0-1.1,0h-9.1v-24H29.9z"/>
		</g>
		<g>
			<path fill="#EAC52A" d="M24.8,51.9c4.5,0,8.2-2.8,8.2-7.3H16.6C16.6,49.1,20.3,51.9,24.8,51.9z"/>
		</g>
		<g>
			<path fill="#1C1C1C" d="M49.3,60c1.5,6.3,4,11,5.7,10.6l-2.7-11.4L49.3,60z"/>
		</g>
		<g>
			<path fill="#1C1C1C" d="M24.3,77.2c-6.4,0.8-11.4,2.7-11.2,4.4l11.6-1.4L24.3,77.2z"/>
		</g>
		<g>
			<path fill="#FFC5B3" d="M24.9,15.1c0,0-5.8,6.2-7.4,2.3c-0.4-1-0.3-2.4-0.3-4.6c0,0-1.6-0.5-0.7-1.9c0.4-0.6,0.7-1.3,0.6-2.6
				c0,0,0-4.5,2.7-5.4c2.2-0.7,8.4-1.6,7.4,5.3C27.3,8.3,27.1,13.1,24.9,15.1z"/>
		</g>
		<g>
			<path fill="#5E5423" d="M19.1,3.8C18.6,3,18.4,2,19.8,0.3c0,0,0.7,1,1,0.9c0,0,0.3-1,0.7-1.2c0,0,0.1,0.9,0.6,0.8
				c0,0,3.4-0.6,5.6,0.4c0,0,2.5,1.1,3,2.7c0,0,0.6,0,0.6-0.5c0,0,0.4,0.8,0.1,1.2c0,0,0.6-0.1,1,0.2c0,0-0.9,0.5-0.8,1
				c0,0,1.4,9.3-3.5,10.2c0,0,0.6-6.8-1.2-6.2c-0.7,0.2-0.7,0.9-0.9,2.7L25.3,12c0,0,0.8-5.4,0.3-6.4c-0.4-1-2.1-2.2-4.7-1.7
				C20.5,4,19.7,4.6,19.1,3.8z"/>
		</g>
		<g>
			<circle fill="#473920" cx="19.4" cy="8.9" r="0.3"/>
		</g>
		<g>
			<path fill="#49401D" d="M18.2,7.7c0,0,0.2-0.1,0.6-0.1c0.3,0,0.8,0,1.2,0.1c0.2,0.1,0.4,0.1,0.6,0.2c0.2,0.1,0.4,0.2,0.5,0.3
				c0.3,0.2,0.4,0.3,0.4,0.3c0.1,0.1,0.1,0.1,0,0.2c-0.1,0.1-0.1,0.1-0.2,0l0,0c0,0-0.2-0.1-0.4-0.3c-0.1-0.1-0.3-0.2-0.4-0.2
				c-0.2-0.1-0.4-0.1-0.5-0.2C19.5,8,19.1,8,18.8,8.1c-0.3,0-0.5,0.1-0.5,0.1c-0.1,0-0.3,0-0.3-0.2C18,7.9,18.1,7.7,18.2,7.7z"/>
		</g>
		<g>
			<path fill="#C18963" d="M19.2,15.7L19.2,15.7c-1.1,0-1.8-0.1-2-0.2c-0.1,0-0.1-0.1,0-0.2c0-0.1,0.1-0.1,0.2,0
				c0,0,0.3,0.1,1.8,0.1c0.1,0,0.2,0.1,0.2,0.2C19.3,15.6,19.3,15.7,19.2,15.7z"/>
		</g>
		<g opacity="0.1">
			<path fill="#231F20" d="M20.6,18.5c0,0,0.6,1.9,6.2-1.8C26.8,16.7,24.5,18.5,20.6,18.5z"/>
		</g>
		<g>
			<path fill="#FFC5B3" d="M26.6,10.2c0,0,1.8-2.9,2.4-0.2c0.2,0.8,0.2,5.4-2.4,2.5"/>
		</g>
		<g>
			<path fill="#C18963" d="M27.7,12.2C27.7,12.2,27.7,12.2,27.7,12.2c-0.2-0.1-0.2-0.2-0.1-0.2c0.3-0.3,0.4-0.6,0.4-0.9
				c0-0.4-0.3-0.6-0.4-0.6c-0.1,0-0.1-0.1,0-0.2c0-0.1,0.1-0.1,0.2,0c0,0,0.4,0.3,0.5,0.8c0,0.4-0.1,0.8-0.4,1.1
				C27.8,12.2,27.8,12.2,27.7,12.2z"/>
		</g>
	</g>
	<g>
		
			<path fill="none" stroke="#101423" stroke-width="3.8055" stroke-linecap="round" stroke-linejoin="round" stroke-miterlimit="10" d="
			M26.6,18.6"/>
	</g>
	<g>
		<path fill="#FFFFFF" d="M29,31.7c0,1.2-0.9,2.1-2.1,2.1h-5.6c-1.2,0-2.1-0.9-2.1-2.1l0,0c0-1.2,0.9-2.1,2.1-2.1h5.6
			C28,29.6,29,30.5,29,31.7L29,31.7z"/>
	</g>
	<g>
		<polygon fill="#0259A6" points="16.7,33.8 23.8,43.9 33,33.3 33,32.9 23.8,42.8 16.7,33 		"/>
	</g>
</g>
</svg>
