<?xml version="1.0" encoding="utf-8"?>
<!-- Generator: Adobe Illustrator 16.0.0, SVG Export Plug-In . SVG Version: 6.00 Build 0)  -->
<!DOCTYPE svg PUBLIC "-//W3C//DTD SVG 1.1//EN" "http://www.w3.org/Graphics/SVG/1.1/DTD/svg11.dtd">
<svg version="1.1" id="Layer_1" xmlns="http://www.w3.org/2000/svg" xmlns:xlink="http://www.w3.org/1999/xlink" x="0px" y="0px"
	 width="40.8px" height="82.3px" viewBox="0 0 40.8 82.3" enable-background="new 0 0 40.8 82.3" xml:space="preserve">
<g>
	<path fill="#263451" d="M32.5,50.9h-5.7c-0.5-0.5-1.1-0.8-1.9-0.8s-1.4,0.3-1.9,0.8h-5.9C16.6,50.4,16,50,15.2,50s-1.4,0.3-1.9,0.8
		H7.7c0,4,1.9,7.1,4.9,9v18.2c0,1.4,1.2,2.6,2.6,2.6s2.6-1.2,2.6-2.6V61.8c0.7,0.1,1.5,0.2,2.3,0.2c0.7,0,1.5-0.1,2.2-0.2v16.3
		c0,1.4,1.2,2.6,2.6,2.6s2.6-1.2,2.6-2.6V60C30.6,58.1,32.5,55,32.5,50.9z"/>
	<g>
		<path fill="#776537" d="M11.9,17.2c0,0-0.8,0.3-0.8,1.6c0,0.4,0.2,1.6-0.6,1.7c0,0,1,0.1,1.3-0.5c0,0-0.1,1.2-0.5,1.5
			c0,0,2.8,1.2,3.3-1.5L14.3,16C14.3,16,12.6,15.3,11.9,17.2z"/>
	</g>
	<g>
		<path fill="#776537" d="M28.7,17.2c0,0,0.8,0.3,0.8,1.6c0,0.4-0.2,1.6,0.6,1.7c0,0-1,0.1-1.3-0.5c0,0,0.1,1.2,0.5,1.5
			c0,0-2.8,1.2-3.3-1.5l0.2-3.9C26.2,16,28,15.3,28.7,17.2z"/>
	</g>
	<g>
		<g>
			<polygon fill="#B7B7B7" points="11,23.7 12.8,23.5 13.1,25.6 			"/>
		</g>
		<g>
			<polygon fill="#B7B7B7" points="29.6,23.7 27.7,23.5 27.4,25.6 			"/>
		</g>
		<g>
			<path fill="#F4B07D" d="M31.5,36.5H9.2c0,0,3.7-13.5,3.7-20c0-3.7,15-3.7,15,0C27.8,25.9,31.5,36.5,31.5,36.5z"/>
		</g>
		<g>
			<g>
				<path fill="#776537" d="M20.5,3.8c0,0-2.9-4.1-8.3,0.1C10,5.6,9,12.5,12.7,16.2l7.9-8.9L20.5,3.8z"/>
			</g>
			<g>
				<path fill="#776537" d="M20.5,3.8c0,0,2.9-4.1,8.3,0.1c2.2,1.7,3.1,8.6-0.5,12.3l-7.9-8.9L20.5,3.8z"/>
			</g>
			<g>
				<path fill="#F4B07D" d="M27.3,8.5c0,0-2.5-3.2-7.3-3.1c-4.8-0.1-6.8,3.1-6.8,3.1c-1.7,2.7-1.2,11.2-1.2,11.2
					c0,4.2,5.8,7.5,8.2,7.5c2.4,0,8.3-3.1,8.3-7.5C28.6,19.6,29,11.2,27.3,8.5z"/>
			</g>
			<g opacity="0.2">
				<g>
					<path fill="#231F20" d="M22.4,15.4c0.1,0.1,0.2,0.2,0.2,0.3c0,0.1,0.1,0.1,0.1,0.2c0,0.1,0,0.2,0,0.2c0,0.1,0,0.2-0.1,0.2
						l-0.2,0.2c-0.1,0.1-0.1,0.1-0.2,0.1l-0.2,0.1l0,0l0,0c-0.2,0-0.3,0.1-0.5,0.2c-0.1,0-0.1,0.1-0.2,0.1c0,0.1-0.1,0.1-0.2,0.2
						c0,0.1-0.1,0.2-0.2,0.2c-0.1,0.1-0.2,0.1-0.3,0.1c-0.1,0.1-0.2,0-0.3,0.1c-0.1,0-0.2,0-0.3,0c-0.2,0-0.3,0-0.6-0.1
						c-0.1,0-0.2-0.1-0.3-0.1c-0.1-0.1-0.2-0.1-0.2-0.2l0-0.1c0,0,0,0,0,0l0,0l-0.1-0.1C18.9,17,18.8,17,18.7,17
						c-0.1-0.1-0.3-0.1-0.5-0.2l0,0l0,0l-0.2-0.1c-0.1,0-0.1-0.1-0.2-0.1l-0.2-0.2c0-0.1-0.1-0.2-0.1-0.2c0-0.1,0-0.2,0-0.2
						c0-0.1,0.1-0.1,0.1-0.2c0.1-0.1,0.1-0.2,0.2-0.3c0,0,0.1,0,0.1,0c0,0,0,0.1,0,0.1l0,0c-0.1,0.1-0.1,0.2-0.2,0.3
						c0,0.1-0.1,0.1,0,0.2c0,0,0,0.1,0,0.1c0,0,0,0.1,0.1,0.1l0.1,0.1c0,0,0.1,0.1,0.1,0.1l0.2,0.1l0,0c0.2,0,0.4,0.1,0.6,0.2
						c0.1,0,0.2,0.1,0.2,0.2l0.1,0.1l0,0c0,0.1,0,0,0,0l0,0.1c0,0.1,0.1,0.1,0.2,0.2c0,0.1,0.1,0.1,0.2,0.1c0.1,0.1,0.3,0,0.5,0.1
						l0.2,0c0.1,0,0.2,0,0.2,0c0.1,0,0.2,0,0.2-0.1c0,0,0.1-0.1,0.2-0.2c0-0.1,0.1-0.1,0.2-0.2c0.1-0.1,0.2-0.1,0.3-0.2
						c0.2-0.1,0.4-0.1,0.6-0.2l0,0l0.2-0.1c0,0,0.1,0,0.1-0.1l0.1-0.1c0,0,0-0.1,0.1-0.1c0,0,0-0.1,0-0.1c0-0.1,0-0.1,0-0.2
						c0-0.1-0.1-0.2-0.2-0.3c0,0,0-0.1,0-0.1C22.3,15.4,22.3,15.4,22.4,15.4z"/>
				</g>
			</g>
			<g>
				<circle fill="#2E230E" cx="16.2" cy="13.2" r="0.5"/>
			</g>
			<g>
				<path fill="#593B2E" d="M13.8,13c0,0,1.6-1.5,3.8-0.9c0,0,0.6-0.4,0.1-0.6C17.7,11.5,15.1,11,13.8,13z"/>
			</g>
			<g>
				<circle fill="#2E230E" cx="24.2" cy="13.2" r="0.5"/>
			</g>
			<g>
				<path fill="#593B2E" d="M26.6,12.8c0,0-1.7-1.3-3.8-0.6c0,0-0.7-0.3-0.1-0.6C22.7,11.7,25.2,11,26.6,12.8z"/>
			</g>
			<g>
				<path fill="#F4B07D" d="M12.8,14.6c0,0-1.6-2.6-2.1-0.2c-0.2,0.7-0.2,4.7,2.1,2.2"/>
			</g>
			<g>
				<path fill="#C18963" d="M11.8,16.4C11.8,16.4,11.7,16.3,11.8,16.4c-0.4-0.4-0.5-0.7-0.5-1c0-0.5,0.4-0.7,0.4-0.7
					c0.1,0,0.1,0,0.2,0c0,0.1,0,0.1,0,0.2c0,0-0.3,0.2-0.3,0.6c0,0.3,0.1,0.5,0.3,0.8C11.9,16.2,11.9,16.3,11.8,16.4
					C11.9,16.3,11.8,16.4,11.8,16.4z"/>
			</g>
			<g>
				<path fill="#F4B07D" d="M27.7,14.6c0,0,1.6-2.6,2.1-0.2c0.2,0.7,0.2,4.7-2.1,2.2"/>
			</g>
			<g>
				<path fill="#C18963" d="M28.7,16.4C28.6,16.4,28.6,16.3,28.7,16.4c-0.1-0.1-0.1-0.2-0.1-0.2c0.2-0.3,0.4-0.6,0.3-0.8
					c0-0.3-0.3-0.6-0.3-0.6c-0.1,0-0.1-0.1,0-0.2c0-0.1,0.1-0.1,0.2,0c0,0,0.4,0.3,0.4,0.7C29.2,15.6,29,16,28.7,16.4
					C28.7,16.3,28.7,16.4,28.7,16.4z"/>
			</g>
			<g>
				<path fill="#C18963" d="M20.8,19.5c-0.6,0-1.5,0-2.6-0.1c-0.1,0-0.1-0.1-0.1-0.2c0-0.1,0.1-0.1,0.2-0.1c1.7,0.1,3.7,0.2,3.9,0
					c0-0.1,0.1-0.1,0.2-0.1c0.1,0,0.1,0.1,0.1,0.2C22.3,19.3,22.2,19.5,20.8,19.5z"/>
			</g>
			<g>
				<path fill="#776537" d="M11.9,5.7c0,0-0.9,5.5-0.8,5.5c0.1,0,4.4-2.2,4.4-2.2l5-1.7l7.4,2.3l1.5-0.6L28.6,5l-7.2-0.7l-5.7,0.6
					L11.9,5.7z"/>
			</g>
			<g opacity="0.3">
				<path fill="#231F20" d="M20.4,7.3c0,0,3,7,9.7,3.4c0,0-1.9-1-2.2-2.4"/>
			</g>
			<g opacity="0.3">
				<path fill="#231F20" d="M20.4,7.2c0,0-1.8,5.3-8.4,3.5c0,0,1.5-0.7,2.1-2"/>
			</g>
			<g>
				<path fill="#776537" d="M20.5,7.3c0,0,2.8,6,9.2,3.3c0,0-1.4-1.1-1.8-2.4"/>
			</g>
			<g>
				<path fill="#776537" d="M20.4,7.2c0,0-2.3,4.3-7.7,3.4c0,0,1.2-1,1.4-2.1"/>
			</g>
			<g>
				<path fill="#776537" d="M17.9,2.3c0,0,1-0.4,0.7-1.8c0,0,1.1,1.1,1.1,2.2c0,0,0.5-2.3,1.4-2.6c0,0-0.3,3,2.6,2.1l-0.5,1.2
					L21,5.8l-3.8-0.7L17.9,2.3z"/>
			</g>
		</g>
		<g opacity="0.1">
			<path fill="#232222" d="M12.5,21.4c0,0,2.4,6.3,8.3,5.6c0,0,5.3-0.1,7.2-5.7c0,0-4.2,4.5-8.2,4C19.7,25.3,16.2,25.1,12.5,21.4z"
				/>
		</g>
	</g>
	<g>
		<path fill="#F4B07D" d="M2.4,55.8c-1.3,0-2.3-1-2.3-2.3c0-0.9,0-1.7,0-2.5C0,48.6-0.1,46.2,0.5,40.8C1.4,33,10.6,26.3,10.9,26
			c1-0.8,2.5-0.5,3.3,0.5c0.8,1,0.5,2.5-0.5,3.3c-2.2,1.6-8,6.8-8.5,11.5c-0.6,5.1-0.5,7.3-0.4,9.6c0,0.8,0.1,1.7,0.1,2.6
			C4.8,54.8,3.7,55.8,2.4,55.8z"/>
	</g>
	<g>
		<path fill="#101423" d="M4.8,53.5H0.1c0-0.9,0-1.7,0-2.5C0,48.6-0.1,46.2,0.5,40.8C1.4,33,10.6,26.3,10.9,26l2.8,3.8
			c-2.2,1.6-8,6.8-8.5,11.5c-0.6,5.1-0.5,7.3-0.4,9.6C4.8,51.7,4.8,52.5,4.8,53.5z"/>
	</g>
	<g>
		<path fill="#F4B07D" d="M38.4,55.8c-1.3,0-2.3-1-2.3-2.3c0-1,0-1.8,0.1-2.6c0.1-2.3,0.1-4.5-0.4-9.5c-0.5-4.7-6.3-9.9-8.5-11.5
			c-1-0.8-1.3-2.2-0.5-3.3c0.8-1,2.2-1.3,3.3-0.5c0.4,0.3,9.6,7,10.4,14.8c0.6,5.4,0.5,7.9,0.5,10.2c0,0.8,0,1.6,0,2.5
			C40.7,54.8,39.7,55.8,38.4,55.8z"/>
	</g>
	<g>
		<path fill="#101423" d="M40.7,53.5H36c0-1,0-1.8,0.1-2.6c0.1-2.3,0.1-4.5-0.4-9.5c-0.5-4.7-6.3-9.9-8.5-11.5l2.7-3.8
			c0.4,0.3,9.6,7,10.4,14.8c0.6,5.4,0.5,7.9,0.5,10.2C40.7,51.8,40.7,52.5,40.7,53.5z"/>
	</g>
	<g>
		<g opacity="0.2">
			<circle fill="#232222" cx="25.8" cy="35.2" r="1.1"/>
		</g>
		<g opacity="0.2">
			<circle fill="#232222" cx="25.8" cy="35.2" r="0.6"/>
		</g>
	</g>
	<g opacity="0.2">
		<ellipse fill="#232222" cx="20.3" cy="46.4" rx="0.3" ry="0.6"/>
	</g>
	<g>
		<path fill="#1C1C1C" d="M17.8,78.9c-7,0-12.6,1.5-12.6,3.3h12.6V78.9z"/>
	</g>
	<g>
		<path fill="#1C1C1C" d="M22.3,78.9c7,0,12.6,1.5,12.6,3.3H22.3V78.9z"/>
	</g>
	<g>
		<rect x="12.3" y="77.3" fill="#263451" width="5.7" height="2"/>
	</g>
	<g>
		<rect x="22.1" y="77.3" fill="#263451" width="5.7" height="2"/>
	</g>
	<g>
		<rect x="7.8" y="50.9" fill="#161516" width="24.7" height="1.9"/>
	</g>
	<g>
		<rect x="18.5" y="50.9" fill="#D6D6D6" width="3.5" height="1.9"/>
	</g>
	<g>
		<rect x="11.6" y="26.5" fill="#FFFFFF" width="16.9" height="24.4"/>
	</g>
	<g>
		<path fill="#101423" d="M6.3,45.2c0,0-0.1,5.9-0.5,8.6c0,0,0.8,0.4,2.8,0.4c0,0,4,0.5,4.5,0l-0.1-5.9L6.3,45.2z"/>
	</g>
	<g>
		<path fill="#101423" d="M12.9,25.8v25.4H6.5c0,0-2-18.5,4.5-25.4H12.9z"/>
	</g>
	<g>
		<path fill="#101423" d="M34.6,45.9c0,0,0,6,0.6,8c0,0-1.5,0.4-3.5,0.4c0,0-3.7,0.3-4.1-0.2l0.1-5.9L34.6,45.9z"/>
	</g>
	<g>
		<path fill="#101423" d="M27.7,25.8v25.4h6.9c0,0,1.2-21-4.9-25.4H27.7z"/>
	</g>
	<g>
		<polygon fill="#192033" points="12.8,25.8 9.4,30.2 12.6,30.5 9.4,34.6 12.8,47.1 		"/>
	</g>
	<g>
		<polygon fill="#192033" points="27.6,25.8 31.1,30.2 27.9,30.5 31.1,34.6 27.6,47.1 		"/>
	</g>
	<g>
		<g>
			<g>
				<polygon fill="#192033" points="17.7,26.6 20.2,29.2 22.8,26.6 20.3,26 				"/>
			</g>
			<g>
				<path fill="#192033" d="M21.1,28.1l-0.8-0.8v-0.1l0,0l0,0l0,0.1l-0.8,0.8l-1.8,17.5c0,0,2,4.6,2.7,4.6c0.9,0,2.6-4.6,2.6-4.6
					L21.1,28.1z"/>
			</g>
		</g>
		<g>
			<polygon fill="#D6D6D6" points="11.7,24 20.3,26 17.7,28.8 11,25.8 11,23.7 			"/>
		</g>
		<g>
			<polygon fill="#D6D6D6" points="28.9,24 20.3,26 23,28.8 29.7,25.8 29.7,23.7 			"/>
		</g>
	</g>
	<g>
		<g>
			<path fill="#F4B07D" d="M26.7,22.1c0,0-1.4,4.3-6.4,4.3c-5,0-7.2-5.3-7.2-5.3s2.7,1.3,7.1,1.3C20.1,22.4,22.4,21.7,26.7,22.1z"/>
		</g>
	</g>
	<g>
		<g opacity="0.1">
			<path fill="#232222" d="M24.1,22.5c0,0-0.6,2.2-3.9,2.2c-3.2,0-3.9-2.2-3.9-2.2s1.2,1.7,4,1.7C20.3,24.2,22.2,24.4,24.1,22.5z"/>
		</g>
	</g>
</g>
</svg>
