<?xml version="1.0" encoding="utf-8"?>
<!-- Generator: Adobe Illustrator 16.0.0, SVG Export Plug-In . SVG Version: 6.00 Build 0)  -->
<!DOCTYPE svg PUBLIC "-//W3C//DTD SVG 1.1//EN" "http://www.w3.org/Graphics/SVG/1.1/DTD/svg11.dtd">
<svg version="1.1" id="Layer_1" xmlns="http://www.w3.org/2000/svg" xmlns:xlink="http://www.w3.org/1999/xlink" x="0px" y="0px"
	 width="32.2px" height="79.3px" viewBox="0 0 32.2 79.3" enable-background="new 0 0 32.2 79.3" xml:space="preserve">
<g>
	<g>
		<g>
			<g>
				<g>
					
						<rect x="7.1" y="26.4" transform="matrix(0.9978 -6.691476e-02 6.691476e-02 0.9978 -1.986 0.7919)" fill="#DF300A" width="7.4" height="7.4"/>
				</g>
				<g>
					<circle fill="#FFFFFF" cx="10.8" cy="30" r="3"/>
				</g>
				<g>
					<g>
						
							<rect x="10" y="28" transform="matrix(0.9977 -6.771364e-02 6.771364e-02 0.9977 -2.0092 0.8022)" fill="#132356" width="1.7" height="4.2"/>
					</g>
					<g>
						
							<rect x="10" y="28" transform="matrix(6.684127e-02 0.9978 -0.9978 6.684127e-02 40.0782 17.2301)" fill="#132356" width="1.7" height="4.2"/>
					</g>
				</g>
			</g>
		</g>
	</g>
	<g>
		<g>
			<g>
				<g>
					<path fill="#E4AA8A" d="M14.9,28.9H1.3c0,0,2.7-5.5,2.7-16c0-3,8.2-3,8.2,0C12.2,27,14.9,28.9,14.9,28.9z"/>
				</g>
				<g opacity="0.2">
					<path fill="#231F20" d="M3.5,13.8c0,0,3.2,4,8.8,4.4l-0.1-1.5C12.2,16.6,9.4,16.5,3.5,13.8z"/>
				</g>
				<g>
					<path fill="#E4AA8A" d="M3.5,14.2c0,0,11.9,6.4,12.1,1.7c0,0-0.2-2.6,0.3-3.8c0,0,1.3-0.9-0.1-2.3c0,0-0.5-1.3-0.2-3.2
						c0,0,0-3.1-2.7-4.5L6,2.5L3,5.9L3.5,14.2z"/>
				</g>
				<g>
					<path fill="#0D0908" d="M7,11.2c0,0.1,0.1,0.2,0.1,0.2l0.1,0.2l-0.5,0.3c0-0.4,0-0.7,0-0.7L7,11.2z"/>
				</g>
				<g>
					<path fill="#0D0908" d="M1.9,2.4c0,0,1.4-2.2,5.3-2.4c2.1-0.1,8.6,0.6,7.9,3.4C15,4,14.3,3.5,12.6,3.2c0,0-3.3-0.8-3.8,0.1
						c0,0,1.5,3,0.1,3.7c0,0-2.4,0.6-2.2,3.1l0.3,1.3c0-0.1-0.1-0.2-0.1-0.2l-0.4,0c0,0,0,0.3,0,0.7l0,0c0,0,0-2.1-1.1-2.5
						c0,0-1.4-0.8-1.5,0.1c0,0,0.8,4.1-0.4,5.1c0,0-1.7-0.8-2.5-5.3C1.2,9.3,0.5,3.9,1.9,2.4z"/>
				</g>
				<g opacity="0.4">
					<g opacity="0.2">
						<path fill="#231F20" d="M6.6,11.2l0.4,0c0.9,2.7,3.7,3.8,4.9,3c0.4-0.2,0.4-0.8,0.5-1c0.9-1.1,2.5-1.2,3.5-1.1c0,0,0,0,0,0
							c-0.1,0.2-0.2,0.5-0.2,0.8c-0.9,0-2.2,0.2-2.8,1.1c0,0,0.9,0.9,2.7,0.8c0,0.6,0,1,0,1c-0.1,3-4.9,1.5-8.4,0.1
							c-0.2-0.4-0.3-0.8-0.4-1.3C6.8,14.2,6.6,11.2,6.6,11.2z"/>
					</g>
				</g>
				<g opacity="0.5">
					<path fill="#231F20" d="M15.2,13.9c-0.3,0-0.8,0-1.5-0.1c0,0-0.1,0-0.1-0.1c0,0,0-0.1,0.1-0.1c1.2,0.2,1.9,0.1,1.9,0.1
						c0,0,0.1,0,0.1,0.1c0,0,0,0.1-0.1,0.1C15.6,13.9,15.4,13.9,15.2,13.9z"/>
				</g>
				<g>
					<path fill="#231F20" d="M15.1,7.6c0,0-0.2,0-0.5-0.1c-0.2,0-0.3,0-0.5,0c-0.2,0-0.4,0-0.6,0c-0.4,0-0.9,0.1-1.2,0.1
						c-0.3,0-0.5,0.1-0.5,0.1l0,0c0,0-0.1,0-0.1-0.1c0,0,0-0.1,0.1-0.1c0,0,0.2,0,0.5-0.1c0.3-0.1,0.8-0.2,1.2-0.2
						c0.2,0,0.4,0,0.6,0c0.2,0,0.4,0,0.6,0c0.3,0,0.6,0,0.6,0l0,0c0.1,0,0.2,0.1,0.1,0.2C15.3,7.6,15.2,7.7,15.1,7.6
						C15.1,7.6,15.1,7.6,15.1,7.6z"/>
				</g>
				<g>
					<circle fill="#3F2D20" cx="14" cy="8.2" r="0.3"/>
				</g>
			</g>
			<g>
				<g>
					<path fill="#F4B07D" d="M14.9,32.8c-5.7,0-11.8-4.4-12-4.6c-0.8-0.6-1-1.8-0.4-2.7c0.6-0.8,1.8-1,2.7-0.4
						c1.8,1.3,7.2,4.5,11,3.7c4.3-0.9,8.1-2.2,10.9-3.2c0.8-0.3,1.6-0.5,2.2-0.7c1-0.3,2.1,0.2,2.4,1.2c0.3,1-0.2,2.1-1.2,2.4
						c-0.6,0.2-1.3,0.4-2.1,0.7c-2.9,1-6.9,2.4-11.4,3.3C16.3,32.8,15.6,32.8,14.9,32.8z"/>
				</g>
				<g>
					<path fill="#F4B07D" d="M14.9,33.3c-5.7,0-11.6-4.1-12.3-4.7c-1-0.8-1.3-2.2-0.5-3.3c0.8-1,2.2-1.3,3.3-0.5
						c1.7,1.3,7.1,4.4,10.7,3.7c4.2-0.9,8.1-2.2,10.9-3.2c0.8-0.3,1.6-0.5,2.2-0.8c1.2-0.4,2.5,0.3,2.9,1.5s-0.3,2.5-1.5,2.9
						c-0.6,0.2-1.3,0.4-2.1,0.7c-2.9,1-7,2.4-11.5,3.3C16.3,33.2,15.6,33.3,14.9,33.3z"/>
				</g>
				<g>
					<path fill="#F4B07D" d="M14.9,32.8c-5.7,0-11.8-4.4-12-4.6c-0.8-0.6-1-1.8-0.4-2.7c0.6-0.8,1.8-1,2.7-0.4
						c1.8,1.3,7.2,4.5,11,3.7c4.3-0.9,8.1-2.2,10.9-3.2c0.8-0.3,1.6-0.5,2.2-0.7c1-0.3,2.1,0.2,2.4,1.2c0.3,1-0.2,2.1-1.2,2.4
						c-0.6,0.2-1.3,0.4-2.1,0.7c-2.9,1-6.9,2.4-11.4,3.3C16.3,32.8,15.6,32.8,14.9,32.8z"/>
				</g>
				<g>
					<path fill="#212121" d="M10.2,32.4c-0.3,0-0.5,0-0.8-0.1c-3.7-1.3-6.6-3.5-6.8-3.6c-1-0.8-1.3-2.2-0.5-3.3
						c0.8-1,2.2-1.3,3.3-0.5c0,0,2.6,1.9,5.6,3c1.2,0.4,1.8,1.8,1.4,3C12,31.8,11.1,32.4,10.2,32.4z"/>
				</g>
				<g>
					<path fill="#212121" d="M14.9,33.4c-5.7,0-11.6-4.1-12.3-4.7l2.8-3.9L4,26.7l1.4-1.9c1.7,1.3,7.1,4.4,10.6,3.6
						c3.7-0.8,7.1-1.8,10.2-2.9l1.6,4.5c-3.3,1.1-6.8,2.3-10.8,3.1C16.3,33.3,15.6,33.4,14.9,33.4z"/>
				</g>
			</g>
			<g>
				<path fill="#F4B07D" d="M12.1,79.1c-0.1,0-0.1,0-0.2,0c-1.4-0.1-2.4-1.3-2.3-2.7l1-14.3l-1-14.5c-0.1-1.4,0.9-2.6,2.3-2.7
					c1.4-0.1,2.6,0.9,2.7,2.3l1,14.7c0,0.1,0,0.2,0,0.3l-1,14.5C14.5,78.1,13.4,79.1,12.1,79.1z"/>
			</g>
			<g>
				<path fill="#1C1C1C" d="M9.5,76.6c5.7,0,10.2,1.2,10.2,2.7H9.5V76.6z"/>
			</g>
			<g>
				<path fill="#F4B07D" d="M5.1,79.1c-0.1,0-0.1,0-0.2,0c-1.4-0.1-2.4-1.3-2.3-2.7l1-14.3l-1-14.5C2.5,46.2,3.5,45,4.9,45
					c1.4-0.1,2.6,0.9,2.7,2.3l1,14.7c0,0.1,0,0.2,0,0.3l-1,14.5C7.5,78.1,6.4,79.1,5.1,79.1z"/>
			</g>
			<g>
				<path fill="#1C1C1C" d="M2.5,76.6c5.7,0,10.2,1.2,10.2,2.7H2.5V76.6z"/>
			</g>
			<g>
				
					<rect x="4.5" y="50.4" transform="matrix(6.912718e-02 0.9976 -0.9976 6.912718e-02 64.3857 36.8412)" fill="#FFFFFF" width="16" height="5"/>
			</g>
			<g>
				<path fill="#333333" d="M12.9,18.7c1.1,4.6,3.2,4.2,3.2,12c0,9.6,0,11.7,0,12c0,0-1.1,0-1.1,0H5.9v-24H12.9z"/>
			</g>
			<g>
				<path fill="#333333" d="M3.2,18.7c-1.1,4.6-3.2,4.2-3.2,12c0,9.6,0,11.7,0,12c0,0,1.1,0,1.1,0h9.1v-24H3.2z"/>
			</g>
			<g>
				<g>
					
						<rect x="7.1" y="26.4" transform="matrix(0.9978 -6.691476e-02 6.691476e-02 0.9978 -1.986 0.7919)" fill="#DF300A" width="7.4" height="7.4"/>
				</g>
				<g>
					<circle fill="#FFFFFF" cx="10.8" cy="30" r="3"/>
				</g>
				<g>
					<g>
						
							<rect x="10" y="28" transform="matrix(0.9977 -6.771364e-02 6.771364e-02 0.9977 -2.0092 0.8022)" fill="#132356" width="1.7" height="4.2"/>
					</g>
					<g>
						
							<rect x="10" y="28" transform="matrix(6.684127e-02 0.9978 -0.9978 6.684127e-02 40.0782 17.2301)" fill="#132356" width="1.7" height="4.2"/>
					</g>
				</g>
			</g>
			<g>
				<path fill="#FFFFFF" d="M8.1,50C3.6,50,0,47.2,0,42.8h16.2C16.2,47.2,12.5,50,8.1,50z"/>
			</g>
			<g>
				
					<rect x="-2.5" y="50.4" transform="matrix(6.912718e-02 0.9976 -0.9976 6.912718e-02 57.8696 43.8245)" fill="#FFFFFF" width="16" height="5"/>
			</g>
			<g>
				<g>
					<path fill="#F4B07D" d="M24.2,41c-0.2,0-0.5,0-0.7-0.1c-0.6-0.2-1.3-0.5-2.1-0.8c-2.9-1.1-6.8-2.6-10.9-4.8
						c-5.6-3-7.9-12-7.9-12.3c-0.3-1,0.4-2,1.4-2.3c1-0.3,2,0.4,2.3,1.4c0.5,2.1,2.7,8.1,6.1,9.9c3.8,2.1,7.6,3.5,10.4,4.6
						c0.8,0.3,1.6,0.6,2.2,0.8c1,0.4,1.4,1.5,1.1,2.5C25.6,40.5,24.9,41,24.2,41z"/>
				</g>
				<g>
					<path fill="#F4B07D" d="M24.2,41.5c-0.3,0-0.6-0.1-0.9-0.2c-0.6-0.2-1.3-0.5-2.1-0.8c-2.9-1.1-6.9-2.6-10.9-4.8
						C4.6,32.6,2.3,24,2.1,23c-0.3-1.3,0.4-2.5,1.7-2.8c1.3-0.3,2.5,0.4,2.8,1.7c0.5,2.1,2.6,7.9,5.9,9.7c3.8,2,7.6,3.5,10.4,4.5
						c0.8,0.3,1.6,0.6,2.2,0.9c1.2,0.5,1.8,1.8,1.3,3C26,40.9,25.1,41.5,24.2,41.5z"/>
				</g>
				<g>
					<path fill="#F4B07D" d="M24.2,41c-0.2,0-0.5,0-0.7-0.1c-0.6-0.2-1.3-0.5-2.1-0.8c-2.9-1.1-6.8-2.6-10.9-4.8
						c-5.6-3-7.9-12-7.9-12.3c-0.3-1,0.4-2,1.4-2.3c1-0.3,2,0.4,2.3,1.4c0.5,2.1,2.7,8.1,6.1,9.9c3.8,2.1,7.6,3.5,10.4,4.6
						c0.8,0.3,1.6,0.6,2.2,0.8c1,0.4,1.4,1.5,1.1,2.5C25.6,40.5,24.9,41,24.2,41z"/>
				</g>
				<g>
					<path fill="#212121" d="M7,31.3c-0.8,0-1.6-0.4-2-1.2c-2-3.4-2.9-6.9-2.9-7.1c-0.3-1.3,0.4-2.5,1.7-2.8
						c1.3-0.3,2.5,0.4,2.8,1.7l0,0c0,0,0.8,3.1,2.4,5.9c0.6,1.1,0.3,2.5-0.9,3.2C7.8,31.2,7.4,31.3,7,31.3z"/>
				</g>
				<g>
					<path fill="#212121" d="M20.5,40.2c-3.2-1.2-6.7-2.6-10.2-4.5C4.6,32.7,2.3,24,2,23l4.6-1.2l-2.3,0.6l2.3-0.6
						c0.5,2.1,2.6,7.9,5.8,9.6c3.3,1.8,6.6,3.1,9.7,4.3L20.5,40.2z"/>
				</g>
			</g>
			<g>
				<path fill="#E4AA8A" d="M5.3,9.3c0,0-1.3-2.2-1.8-0.2c-0.1,0.6-0.2,4,1.7,1.8"/>
			</g>
			<g>
				<path fill="#C18963" d="M4.5,10.8C4.5,10.8,4.4,10.8,4.5,10.8c-0.3-0.3-0.4-0.6-0.4-0.9c0-0.4,0.3-0.6,0.3-0.6c0,0,0.1,0,0.1,0
					c0,0,0,0.1,0,0.1c0,0-0.2,0.2-0.3,0.5c0,0.2,0.1,0.5,0.3,0.7C4.6,10.7,4.6,10.7,4.5,10.8C4.5,10.8,4.5,10.8,4.5,10.8z"/>
			</g>
		</g>
		<g>
			
				<path fill="none" stroke="#101423" stroke-width="3.8055" stroke-linecap="round" stroke-linejoin="round" stroke-miterlimit="10" d="
				M7.2,16.9"/>
		</g>
	</g>
</g>
</svg>
