<?xml version="1.0" encoding="utf-8"?>
<!-- Generator: Adobe Illustrator 16.0.0, SVG Export Plug-In . SVG Version: 6.00 Build 0)  -->
<!DOCTYPE svg PUBLIC "-//W3C//DTD SVG 1.1//EN" "http://www.w3.org/Graphics/SVG/1.1/DTD/svg11.dtd">
<svg version="1.1" id="Layer_1" xmlns="http://www.w3.org/2000/svg" xmlns:xlink="http://www.w3.org/1999/xlink" x="0px" y="0px"
	 width="149.7px" height="446.6px" viewBox="0 0 149.7 446.6" enable-background="new 0 0 149.7 446.6" xml:space="preserve">
<g>
	<g>
		
			<path fill="none" stroke="#FFCCB8" stroke-width="19.1637" stroke-linecap="round" stroke-linejoin="round" stroke-miterlimit="10" d="
			M99.3,108.8c0,0,35.8,26,38.9,53.8c3.2,28.7,1.6,55,1.6,70.3"/>
		<path fill="none" stroke="#203F39" stroke-width="19.163" stroke-linejoin="round" stroke-miterlimit="10" d="M99.3,108.8
			c0,0,28.4,20.6,36.8,44.7"/>
		<path fill="none" stroke="#238557" stroke-width="19.163" stroke-linejoin="round" stroke-miterlimit="10" d="M126.1,135.5
			c4.1,5.6,7.7,11.7,9.9,18"/>
		<path fill="none" stroke="#FFFFFF" stroke-width="1.9372" stroke-miterlimit="10" d="M106.9,104.6c0,0,20.1,14.7,30.7,35.1"/>
		<path fill="none" stroke="#FFFFFF" stroke-width="1.9372" stroke-miterlimit="10" d="M103.5,105c0,0,19.4,13.9,31,34.5"/>
	</g>
	<path fill="#FFFFFF" d="M118.2,140.9c0,0,9.1-12.1,13.8-13.5c0,0,6.7,8.8,8.2,12.4c0,0-11.5,1.5-18,6.9
		C122.2,146.7,119.4,142.5,118.2,140.9z"/>
</g>
<g>
	
		<path fill="none" stroke="#FFCCB8" stroke-width="19.1637" stroke-linecap="round" stroke-linejoin="round" stroke-miterlimit="10" d="
		M50.4,108.8c0,0-35.8,26-38.9,53.8c-3.2,28.7-1.6,55-1.6,70.3"/>
	<path fill="none" stroke="#203F39" stroke-width="19.163" stroke-linejoin="round" stroke-miterlimit="10" d="M50.4,108.8
		c0,0-28.4,20.6-36.8,44.7"/>
	<path fill="none" stroke="#238557" stroke-width="19.163" stroke-linejoin="round" stroke-miterlimit="10" d="M23.6,135.5
		c-4.1,5.6-7.7,11.7-9.9,18"/>
	<path fill="none" stroke="#FFFFFF" stroke-width="1.9372" stroke-miterlimit="10" d="M42.8,104.6c0,0-20.1,14.7-30.7,35.1"/>
	<path fill="none" stroke="#FFFFFF" stroke-width="1.9372" stroke-miterlimit="10" d="M46.2,105c0,0-19.4,13.9-31,34.5"/>
</g>
<polygon fill="#161616" points="46.4,97.8 53.7,96.9 54.8,105.1 "/>
<polygon fill="#161616" points="103.7,97.8 96.4,96.9 95.3,105.1 "/>
<path fill="#FFCCB8" d="M113.8,145.2H37.9c0,0,14.9-27.9,15-81.7c0-15.3,45.7-15.3,45.7,0C98.6,135.3,113.8,145.2,113.8,145.2z"/>
<path opacity="0.1" fill="#232222" d="M75.8,102.3c15.2,0,17.6-14.1,21-17.5h-43C53.8,84.8,59.8,102.3,75.8,102.3z"/>
<g>
	<rect x="44.3" y="239.2" fill="#FFCCB8" width="21.3" height="201.1"/>
</g>
<g>
	<rect x="83.4" y="239.2" fill="#FFCCB8" width="21.3" height="201.1"/>
</g>
<line fill="none" stroke="#D3340E" stroke-width="21.3094" stroke-linecap="square" stroke-linejoin="round" stroke-miterlimit="10" x1="54.9" y1="359.6" x2="54.9" y2="429.7"/>
<line fill="none" stroke="#D3340E" stroke-width="21.3094" stroke-linecap="square" stroke-linejoin="round" stroke-miterlimit="10" x1="94" y1="359.6" x2="94" y2="429.7"/>
<g>
	<circle opacity="0.2" fill="#232222" cx="51.8" cy="139.9" r="4.6"/>
	<circle opacity="0.2" fill="#232222" cx="51.8" cy="139.9" r="2.3"/>
</g>
<g>
	<circle opacity="0.2" fill="#232222" cx="98.3" cy="139.9" r="4.6"/>
	<circle opacity="0.2" fill="#232222" cx="98.3" cy="139.9" r="2.3"/>
</g>
<path opacity="0.2" fill="#232222" d="M77.1,204.8c0,1.3-0.6,2.3-1.4,2.3s-1.4-1-1.4-2.3c0-1.3,0.6-2.3,1.4-2.3
	S77.1,203.5,77.1,204.8z"/>
<path fill="#FFFFFF" d="M117.6,223.8H32.7c0,13.7,3.6,24.9,10.6,32.7V329h23.2v-60.8c2.7,0.4,5.6,0.6,8.6,0.6c2.5,0,4.9-0.1,7.2-0.4
	V329h23.2v-71.2C113.5,250.1,117.6,238.4,117.6,223.8z"/>
<path fill="#1C1C1C" d="M65.9,432.9c-28.5,0-51.6,6.1-51.6,13.7h51.6V432.9z"/>
<path fill="#1C1C1C" d="M83.4,432.4c28.5,0,51.6,6.1,51.6,13.7H83.4V432.4z"/>
<path fill="#203F39" d="M109.4,105.4H75.9h-1.8H40.6c-5.4,23.2-8.2,21.4-8.2,60.7c0,48.4,0,59.1,0,60.3c0,0.1,5.3,0.1,5.3,0.1h36.4
	h1.8h36.4c0,0,5.3,0,5.3-0.1c0-1.2,0-11.9,0-60.3C117.7,126.7,114.9,128.6,109.4,105.4z"/>
<g>
	<path fill="#203F39" d="M46.3,143.6l-9.8-11.4c0,0,32.4,16.3,38,18.6c2.4-0.9,38.5-18.6,38.5-18.6l-9.8,11.4l13.4-6.6
		c-1.3-11.6-3.7-16.7-7.1-31.6H75.9h-1.8H40.6c-3.5,15-5.9,19.6-7.2,31.5L46.3,143.6z"/>
	<path fill="#238557" d="M95.8,148.5l7.6-9.6l-26.9,11.6l-30.3-11.6l7.6,9.6l-20.6-8.2c-0.5,6.1-0.7,14.1-0.7,25.8
		c0,48.4,0,59.1,0,60.3c0,0.1,5.3,0.1,5.3,0.1h36.4h1.8h36.4c0,0,5.3,0,5.3-0.1c0-1.2,0-11.9,0-60.3c0-12-0.3-20.1-0.8-26.3
		L95.8,148.5z"/>
</g>
<g>
	<polygon fill="#FFFFFF" points="74.7,152.7 49.5,141.4 57,150.6 32.9,143.7 32.7,147.3 65.7,157 57.8,147.3 74,153.9 	"/>
</g>
<g>
	<polygon fill="#FFFFFF" points="75.1,152.6 100.3,141.4 92.8,150.5 117.2,143.4 117.4,146.9 84.1,156.9 92,147.2 75.8,153.8 	"/>
</g>
<path fill="#203F39" d="M106.4,112.4c-0.5,0,0,0-0.2-0.1c-0.2-0.1-1.4,0.8-1.4,0.8l-5.6-0.6l-22.3,3.8l2.7-1l29.3-6.4l0.6-3.6
	l-0.4-0.9c0,0-1.8-1.2-2.3-1.2c-0.1,0-0.1,0-0.2,0c0,0,0,0,0,0c0,0,0,0,0,0c-0.6-1.3-1.5-3.2-2.9-5.4c0,0-12.7,7.4-28.6,7.6
	c-15.9-0.3-28.6-7.6-28.6-7.6c-1.7,2.6-2.6,4.6-3.2,6l-0.5-0.4l-2.2,1.2l0.1,0.7l0.7,2.3l1,3.3l23.4,7.2l-18.6,3.2l-1-6.2l-3.6-2.7
	l-2.2,1.2l0.1,0.7l0.7,2.3l1,3.3l23.6,7.3l42.9-9.4l0.6-3.6l-0.4-0.9C108.6,113.6,106.9,112.4,106.4,112.4z M46.5,106.8l10.8,3.8
	l-9.8,1.7L46.5,106.8z M73.9,116.5l0.3,0.1v0.1l-5.1,0.9L73.9,116.5z"/>
<path fill="#D3340E" d="M73.4,149.6c0.1,0.3-36.9-17.5-36.9-17.5l9.8,11.4l-13.1-6.8l-0.1,3.6l20.6,8.1l-7.6-9.6L73,150.5
	L73.4,149.6z"/>
<path fill="#D3340E" d="M76.1,149.6C76,150,113,132.2,113,132.2l-9.8,11.4l13.5-7l0.2,3.5l-21.1,8.4l7.6-9.6l-26.9,11.6L76.1,149.6z
	"/>
<path fill="#FFFFFF" d="M31.5,140.9c0,0-9.1-12.1-13.8-13.5c0,0-6.7,8.8-8.2,12.4c0,0,11.5,1.5,18,6.9
	C27.5,146.7,30.3,142.5,31.5,140.9z"/>
<g>
	<g>
		<g>
			<path fill="#D3340E" d="M80.5,155.6l-0.2-0.2c-0.2-0.1-0.1-0.3-0.1-0.3c1-1.9,0.6-3.8,0.6-3.8c-0.3-2.2-2.2-3.5-2.2-3.5
				c-0.2-0.1,0-0.3,0-0.3l0.2-0.2c0,0,0.2-0.2,0-0.4l-1.1-0.6c0,0,0,0,0-0.1c0,0,0-0.6-0.2-0.9c0,0-0.5-0.7-1-1c0,0-0.8-0.5-1.1-0.6
				c0,0-0.9-0.3-1.5-0.2c0,0-0.2,0-0.3,0.1c0,0,0,0.1,0,0.1c-0.1,0-0.3,0.1-0.3,0.2c0,0,0,0,0,0.1c0,0.1,0,0.2,0.2,0.2
				c0,0,0.3,0.2,0.4,0.3c0,0,0,0,0,0.1v0c0,0,0,0,0,0h0h0c0,0,0,0,0,0c-0.1-0.1-0.2-0.2-0.3-0.3c0,0-0.1-0.1-0.1-0.1
				c0,0-0.1,0-0.1-0.1c-0.1-0.1-0.1-0.2-0.1-0.3c0,0-0.1-0.1-0.1-0.1c0,0-0.2,0.1-0.2,0.1c-0.1,0-0.2,0.1-0.3,0.1
				c-0.2,0.1-0.4,0.1-0.4,0.1c-0.1,0-0.2,0-0.3,0.2c-0.1,0.2,0,0.3,0.1,0.4c0.1,0.1,0.2,0.1,0.2,0.1c0,0,0-0.1,0.1-0.1
				c0.1,0,0.1,0,0.3,0.1c0.2,0,0.3,0,0.4,0c0.1,0,0.1,0.2,0.1,0.3c0,0.2-0.1,0.3-0.1,0.5c0,0,0,0.1,0,0.2c-0.1,0-0.2,0.1-0.2,0.1
				c-0.2,0.1-0.4,0.2-0.8,0.4c-0.4,0.2-1.1,0.7-1.1,0.7c-0.3,0.2-0.1,0.4-0.1,0.4l0.2,0.2c0,0,0.3,0.2,0,0.3c0,0-1.6,1.3-1.8,3.5
				c0,0-0.4,2,0.8,3.9c0,0,0.2,0.2,0,0.3l-0.2,0.2c0,0-0.2,0.2,0.1,0.5c0,0,1.3,1.6,2.6,1.9c0,0-0.5-0.6-0.8-1.2
				c0,0-0.2-0.2,0.1-0.2l0.6-0.1c0,0,0,0,0-0.1c0,0,0,0,0,0c0.1,0.3,0.3,0.5,0.4,0.8l0,0c0,0,0,0,0,0c0.6,0.7,1.5,1.2,2.4,1.2
				c1.4,0,2.6-0.9,3-2.2l0.3,0c0.2,0,0.5,0,0.5,0c-0.2,0.6-0.9,1.4-0.9,1.4c1.2-0.3,2.2-1.6,2.2-1.6
				C80.7,155.7,80.5,155.6,80.5,155.6z"/>
		</g>
		<path fill="#FFFFFF" d="M82.4,155c0.7-1.9,0.4-3.6,0.3-4c-0.3-1.7-1.1-3-1.9-3.8c0-0.2,0-0.3,0-0.5c-0.1-0.6-0.5-1.2-1-1.5
			l-0.4-0.2c-0.1-0.3-0.2-0.6-0.4-0.8c-0.2-0.2-0.8-1-1.6-1.5c-0.4-0.3-1.1-0.6-1.5-0.8c0,0-1-0.3-2-0.3c-0.1,0-0.2,0-0.3,0l0,0
			c-0.2,0-0.7,0.1-1.2,0.4c-0.2,0-0.3,0.1-0.4,0.2c-0.1,0-0.1,0-0.2,0.1l0,0c-0.1,0-0.1,0-0.2,0.1c-0.7,0.1-1.3,0.5-1.6,1.1
			c-0.2,0.3-0.5,1-0.2,2c-0.2,0.1-0.3,0.2-0.4,0.3c-0.6,0.4-0.9,1-0.9,1.7c0,0.1,0,0.3,0,0.4c-0.6,0.8-1.3,2-1.5,3.7
			c-0.1,0.4-0.3,2.3,0.6,4.3c-0.2,0.7-0.1,1.5,0.5,2.2c0.3,0.4,1.9,2.2,3.7,2.6l1.6,0.4c0,0,1.2,0,1.7,0c0.5,0,1.9-0.1,1.9-0.1
			l1.6-0.5c1.6-0.5,2.9-2,3.2-2.3c0.5-0.6,1.1-1.4,0.9-2.5C82.4,155.2,82.4,155.1,82.4,155z"/>
		<path fill="none" stroke="#D3340E" stroke-width="0.9139" stroke-miterlimit="10" d="M82.4,155c0.7-1.9,0.4-3.6,0.3-4
			c-0.3-1.7-1.1-3-1.9-3.8c0-0.2,0-0.3,0-0.5c-0.1-0.6-0.5-1.2-1-1.5l-0.4-0.2c-0.1-0.3-0.2-0.6-0.4-0.8c-0.2-0.2-0.8-1-1.6-1.5
			c-0.4-0.3-1.1-0.6-1.5-0.8c0,0-1-0.3-2-0.3c-0.1,0-0.2,0-0.3,0l0,0c-0.2,0-0.7,0.1-1.2,0.4c-0.2,0-0.3,0.1-0.4,0.2
			c-0.1,0-0.1,0-0.2,0.1l0,0c-0.1,0-0.1,0-0.2,0.1c-0.7,0.1-1.3,0.5-1.6,1.1c-0.2,0.3-0.5,1-0.2,2c-0.2,0.1-0.3,0.2-0.4,0.3
			c-0.6,0.4-0.9,1-0.9,1.7c0,0.1,0,0.3,0,0.4c-0.6,0.8-1.3,2-1.5,3.7c-0.1,0.4-0.3,2.3,0.6,4.3c-0.2,0.7-0.1,1.5,0.5,2.2
			c0.3,0.4,1.9,2.2,3.7,2.6l1.6,0.4c0,0,1.2,0,1.7,0c0.5,0,1.9-0.1,1.9-0.1l1.6-0.5c1.6-0.5,2.9-2,3.2-2.3c0.5-0.6,1.1-1.4,0.9-2.5
			C82.4,155.2,82.4,155.1,82.4,155z"/>
	</g>
	<g>
		<g>
			<path fill="#231F20" d="M73.4,144.7c-0.1,0-0.3,0.1-0.3,0.2c0,0.1,0.2,0.3,0.2,0.4c0.2,0.4,1,0.7,1.5,0.5c0.4-0.2,0.8-1,0.5-1.4
				c-0.1-0.2-0.3-0.2-0.5-0.3c-0.4-0.2-0.7-0.4-1.1-0.4c0,0-0.6-0.1-0.7,0.2c0,0,0,0,0,0.1c0,0.1,0,0.2,0.2,0.2c0,0,0.3,0.2,0.4,0.3
				c0,0,0,0,0,0.1c0,0,0,0,0,0c0,0,0,0,0,0l0,0l0,0c0,0-0.1,0-0.1,0.1C73.5,144.7,73.4,144.7,73.4,144.7z"/>
			<g>
				<path fill="#FFFFFF" d="M74,144.6C74,144.7,74,144.7,74,144.6c-0.1,0.1-0.1,0.1-0.2,0.1c0,0-0.1,0-0.1-0.1c0,0,0,0,0.1,0
					c0,0,0.1,0,0.1-0.1c0,0-0.1-0.1-0.1-0.1c-0.1-0.1-0.2-0.2-0.3-0.2c0,0-0.3-0.1-0.2-0.3c0,0,0-0.1,0.7,0c0,0,0.8,0.3,1.1,0.5
					c0,0,0.1,0.1,0,0.1c0,0,0,0-0.4-0.2c0,0-0.8-0.4-1-0.3c0,0-0.1,0,0,0.1c0.1,0.1,0.1,0.1,0.2,0.2c0,0.1,0.1,0.1,0.1,0.2
					C74,144.5,74,144.6,74,144.6z"/>
				<path fill="#FFFFFF" d="M73.9,144.2c0,0.1,0.1,0.1,0.1,0.2c0,0.1,0.1,0.2,0.1,0.3c0,0,0,0,0,0.1c0,0,0,0-0.1,0.1c0,0,0,0-0.1,0
					c-0.1,0,0,0.1,0.1,0.2c0,0,0.1,0.1,0.1,0.1c0,0,0,0.1,0.1,0.1c0,0,0,0,0,0c0,0,0-0.1,0-0.1c0,0,0-0.1,0-0.1c0,0,0,0,0-0.1
					c0,0,0,0,0,0c0.1,0,0.1,0.1,0.1,0.2c0,0,0.1,0,0.1,0c0,0,0-0.1-0.1-0.1c0,0-0.1-0.1-0.1-0.1c0,0,0,0,0,0c0,0,0,0,0,0
					c0,0,0,0,0,0c0,0,0.1,0,0.1,0c0.1,0,0.2,0.1,0.2,0.1c0,0,0.3,0.2,0.5,0.2c0,0,0.1,0,0-0.1c0,0-0.6-0.3-0.7-0.3c0,0-0.1,0,0-0.1
					c0,0,0,0,0.5,0.1c0,0,0.3,0.2,0.4,0.1c0,0,0,0,0-0.1c0,0,0.1-0.1-0.6-0.3c0,0-0.2,0-0.1-0.1c0,0,0,0,0.2,0c0,0,0.3,0.1,0.4,0.2
					c0,0,0.1,0,0.1,0c0,0,0-0.1-0.3-0.2c0,0-0.3-0.1-0.4-0.2C74.5,144.3,73.8,144,73.9,144.2z"/>
			</g>
		</g>
		<ellipse fill="#FFFFFF" cx="74.8" cy="152.1" rx="5.4" ry="5.4"/>
		<path fill="#231F20" stroke="#231F20" stroke-width="2.446900e-02" d="M77.1,152.4c0,1.3-1.1,2.3-2.3,2.3c-1.2,0-2.2-0.9-2.3-2.1
			v0c0-0.1,0.1,0,0.1,0c0.1,0.1,0.1-0.1,0.1-0.1v-0.2c0-0.1-0.1,0-0.1,0c-0.2,0.1-0.1,0-0.1,0c0-1.3,1.1-2.3,2.3-2.3
			c1.2,0,2.3,1,2.3,2.2c0,0,0,0.1-0.1,0c0,0-0.1-0.1-0.1,0c0,0,0,0.1,0,0.2C76.9,152.4,76.9,152.5,77.1,152.4
			C77,152.4,77.1,152.3,77.1,152.4L77.1,152.4z"/>
		<circle fill="#FFFFFF" stroke="#231F20" stroke-width="2.446900e-02" cx="74.8" cy="152.3" r="1.7"/>
		<path fill="#231F20" stroke="#231F20" stroke-width="0.1468" d="M72.2,149.2c0,0,0.3,0.4-0.2,0.8c0,0-0.8,0.8-0.8,2.3
			c0,0,0,1.3,0.4,1.8c0,0,0.4,0.5,0.1,0.8c0,0-0.2,0.3-0.5,0.2c0,0-0.3,0-0.5-0.5c0,0-0.9-1.6-0.5-3.3c0,0,0.4-1.6,1.2-2.2
			C71.4,149.1,71.9,148.8,72.2,149.2z"/>
		<path fill="#231F20" stroke="#231F20" stroke-width="0.1468" d="M77.3,149c0,0-0.3,0.4,0.3,0.8c0,0,0.9,0.7,1,2.2
			c0,0,0.1,1.3-0.3,1.8c0,0-0.3,0.5-0.1,0.8c0,0,0.2,0.3,0.5,0.2c0,0,0.3,0,0.4-0.5c0,0,0.8-1.6,0.3-3.4c0,0-0.5-1.6-1.3-2.2
			C78,149,77.6,148.7,77.3,149z"/>
		<path fill="#008240" d="M72.2,149.2c0,0,0.3,0.4-0.3,0.8c0,0-0.8,0.8-0.8,2.3c0,0,0,1.2,0.4,1.8c0,0,0.4,0.5,0.1,0.8
			c0,0-0.1,0.2-0.5,0.2c0,0-0.3,0-0.5-0.4c0,0-0.9-1.5-0.5-3.3c0,0,0.4-1.6,1.2-2.2C71.4,149.2,71.9,148.8,72.2,149.2z"/>
		<path fill="#FD1813" d="M77.3,149.1c0,0-0.3,0.4,0.3,0.8c0,0,0.9,0.7,0.9,2.2c0,0,0,1.2-0.3,1.8c0,0-0.3,0.5-0.1,0.8
			c0,0,0.1,0.2,0.5,0.2c0,0,0.3,0,0.4-0.5c0,0,0.8-1.6,0.3-3.3c0,0-0.5-1.5-1.3-2.1C78.1,149,77.6,148.7,77.3,149.1z"/>
		<g>
			<g>
				<path fill="none" stroke="#231F20" stroke-width="5.872700e-02" d="M72.6,149.4c0,0,0.1,0.3,0.3,0.4"/>
				<path fill="none" stroke="#231F20" stroke-width="5.872700e-02" d="M72.3,149.6c0,0,0.3,0.3,0.4,0.4"/>
			</g>
			<g>
				<path fill="none" stroke="#231F20" stroke-width="5.872700e-02" d="M72.1,150L72.1,150c0.1,0.1,0.2,0.2,0.1,0.3l-0.1,0.1"/>
				<path fill="none" stroke="#231F20" stroke-width="5.872700e-02" d="M72.3,149.9l0.1,0.1c0,0,0.2,0.1,0,0.2l-0.2,0.2"/>
			</g>
			<g>
				<path fill="none" stroke="#231F20" stroke-width="5.872700e-02" d="M71.8,150.6l0.1,0.1c0,0,0.1,0,0.1,0.2l-0.1,0.2"/>
				<path fill="none" stroke="#231F20" stroke-width="5.872700e-02" d="M71.8,150.4l0.2,0.1c0,0,0.2,0.1,0.1,0.2L72,151"/>
			</g>
			<g>
				<path fill="none" stroke="#231F20" stroke-width="5.872700e-02" d="M71.5,151.1l0.1,0c0,0,0.1,0,0.1,0.1l0,0.2"/>
				<path fill="none" stroke="#231F20" stroke-width="5.872700e-02" d="M71.5,151l0.2,0c0,0,0.2,0,0.2,0.2l0,0.2"/>
			</g>
			<g>
				<path fill="none" stroke="#231F20" stroke-width="5.872700e-02" d="M71.4,151.7l0.1,0c0,0,0.1,0,0.1,0.1l0,0.2"/>
				<path fill="none" stroke="#231F20" stroke-width="5.872700e-02" d="M71.4,151.6l0.2,0c0,0,0.2,0,0.2,0.2l0,0.2"/>
			</g>
			<g>
				<path fill="none" stroke="#231F20" stroke-width="5.872700e-02" d="M71.3,152.4l0.1,0c0,0,0.1,0,0.1,0.1l0,0.2"/>
				<path fill="none" stroke="#231F20" stroke-width="5.872700e-02" d="M71.3,152.2l0.2,0c0,0,0.2,0,0.2,0.2l0,0.2"/>
			</g>
			<g>
				<path fill="none" stroke="#231F20" stroke-width="5.872700e-02" d="M71.4,153l0.1,0c0,0,0.1,0,0.2,0.1l0,0.2"/>
				<path fill="none" stroke="#231F20" stroke-width="5.872700e-02" d="M71.4,152.8l0.2,0c0,0,0.2,0,0.2,0.1l0,0.2"/>
			</g>
			<g>
				<path fill="none" stroke="#231F20" stroke-width="5.872700e-02" d="M71.6,153.6l0.1,0c0,0,0.1-0.1,0.2,0l0.1,0.2"/>
				<path fill="none" stroke="#231F20" stroke-width="5.872700e-02" d="M71.5,153.5l0.2-0.1c0,0,0.2-0.1,0.2,0.1l0.1,0.2"/>
			</g>
			<g>
				<path fill="none" stroke="#231F20" stroke-width="5.872700e-02" d="M71.8,154.2l0.1-0.1c0,0,0.1-0.1,0.2,0l0.1,0.2"/>
				<path fill="none" stroke="#231F20" stroke-width="5.872700e-02" d="M71.8,154l0.1-0.1c0,0,0.2-0.1,0.2,0l0.1,0.2"/>
			</g>
			<path fill="none" stroke="#231F20" stroke-width="5.872700e-02" d="M76.9,149.3c0,0-0.1,0.3-0.3,0.4"/>
			<path fill="none" stroke="#231F20" stroke-width="5.872700e-02" d="M77.1,149.4c0,0-0.3,0.3-0.4,0.4"/>
			<path fill="none" stroke="#231F20" stroke-width="5.872700e-02" d="M77.3,149.9L77.3,149.9c-0.1,0.1-0.2,0.2-0.1,0.3l0.1,0.1"/>
			<path fill="none" stroke="#231F20" stroke-width="5.872700e-02" d="M77.2,149.8l-0.1,0.1c0,0-0.2,0.1,0,0.2l0.2,0.2"/>
			<path fill="none" stroke="#231F20" stroke-width="5.872700e-02" d="M76.1,149.1l0,0.1c0,0-0.1,0.1,0.1,0.2l0.2,0.1"/>
			<path fill="none" stroke="#231F20" stroke-width="5.872700e-02" d="M76,149.1l0,0.2c0,0-0.1,0.2,0.1,0.2l0.2,0.1"/>
			<path fill="none" stroke="#231F20" stroke-width="5.872700e-02" d="M77.7,150.4l-0.1,0.1c0,0-0.1,0-0.1,0.2l0.1,0.2"/>
			<path fill="none" stroke="#231F20" stroke-width="5.872700e-02" d="M77.7,150.3l-0.2,0.1c0,0-0.2,0.1-0.1,0.2l0.1,0.2"/>
			<path fill="none" stroke="#231F20" stroke-width="5.872700e-02" d="M78,151l-0.1,0c0,0-0.1,0-0.1,0.2l0.1,0.2"/>
			<path fill="none" stroke="#231F20" stroke-width="5.872700e-02" d="M78,150.8l-0.2,0.1c0,0-0.2,0-0.1,0.2l0.1,0.2"/>
			<path fill="none" stroke="#231F20" stroke-width="5.872700e-02" d="M78.2,151.6l-0.1,0c0,0-0.1,0-0.1,0.1l0,0.2"/>
			<path fill="none" stroke="#231F20" stroke-width="5.872700e-02" d="M78.2,151.4l-0.2,0c0,0-0.2,0-0.2,0.2l0,0.2"/>
			<path fill="none" stroke="#231F20" stroke-width="5.872700e-02" d="M78.4,152.2h-0.1c0,0-0.1,0-0.1,0.1l0,0.2"/>
			<path fill="none" stroke="#231F20" stroke-width="5.872700e-02" d="M78.3,152.1l-0.2,0c0,0-0.2,0-0.2,0.2v0.2"/>
			<path fill="none" stroke="#231F20" stroke-width="5.872700e-02" d="M78.3,152.8l-0.1,0c0,0-0.1,0-0.2,0.1l0,0.2"/>
			<path fill="none" stroke="#231F20" stroke-width="5.872700e-02" d="M78.3,152.7l-0.2,0c0,0-0.2,0-0.2,0.1l0,0.2"/>
			<path fill="none" stroke="#231F20" stroke-width="5.872700e-02" d="M78.1,153.4l-0.1,0c0,0-0.1-0.1-0.2,0.1l0,0.2"/>
			<path fill="none" stroke="#231F20" stroke-width="5.872700e-02" d="M78.2,153.3l-0.2,0c0,0-0.2-0.1-0.2,0.1l-0.1,0.2"/>
			<path fill="none" stroke="#231F20" stroke-width="5.872700e-02" d="M77.9,154l-0.1-0.1c0,0-0.1-0.1-0.2,0l-0.1,0.2"/>
			<path fill="none" stroke="#231F20" stroke-width="5.872700e-02" d="M78,153.9l-0.2-0.1c0,0-0.2-0.1-0.2,0l-0.1,0.2"/>
			<path fill="none" stroke="#231F20" stroke-width="5.872700e-02" d="M73.3,149.2L73.3,149.2c0.1,0.1,0.1,0.2,0,0.3l-0.2,0.1"/>
		</g>
		<g>
			<path fill="#231F20" d="M73.7,149.7C73.7,149.8,73.7,149.8,73.7,149.7C73.7,149.8,73.6,149.8,73.7,149.7
				C73.6,149.7,73.6,149.7,73.7,149.7C73.6,149.7,73.7,149.7,73.7,149.7z"/>
			<g>
				<circle fill="#231F20" cx="75.8" cy="149.6" r="0"/>
				<g>
					<path fill="#231F20" d="M72.3,151.3C72.3,151.4,72.3,151.4,72.3,151.3C72.3,151.4,72.3,151.4,72.3,151.3
						C72.3,151.3,72.3,151.3,72.3,151.3C72.3,151.3,72.3,151.3,72.3,151.3z"/>
					<g>
						<path fill="#231F20" d="M73,150.1C73,150.1,73,150.1,73,150.1c0,0.1,0,0.1,0,0.1S72.9,150.2,73,150.1
							C72.9,150.1,72.9,150.1,73,150.1C72.9,150.1,73,150.1,73,150.1z"/>
						<path fill="#231F20" d="M72.2,150.9C72.3,150.9,72.3,151,72.2,150.9c0.1,0.1,0.1,0.1,0,0.1C72.2,151.1,72.2,151,72.2,150.9
							C72.2,151,72.2,151,72.2,150.9C72.2,151,72.2,150.9,72.2,150.9z"/>
						<path fill="#231F20" d="M71.9,152C72,152,72,152,71.9,152C72,152,72,152.1,71.9,152C72,152.1,71.9,152.1,71.9,152
							C71.9,152.1,71.9,152,71.9,152C71.9,152,71.9,152,71.9,152z"/>
						<path fill="#231F20" d="M72,153.2C72,153.2,72.1,153.2,72,153.2C72.1,153.2,72.1,153.2,72,153.2
							C72.1,153.3,72.1,153.3,72,153.2C72,153.3,72,153.2,72,153.2C72,153.2,72,153.2,72,153.2z"/>
						<path fill="#231F20" d="M76.5,150C76.5,150,76.5,150,76.5,150C76.5,150.1,76.5,150.1,76.5,150C76.5,150.1,76.6,150.1,76.5,150
							C76.6,150,76.5,150,76.5,150C76.5,150,76.5,150,76.5,150z"/>
						<path fill="#231F20" d="M77.3,150.8C77.3,150.8,77.3,150.8,77.3,150.8c-0.1,0.1,0,0.1,0,0.1C77.3,150.9,77.3,150.9,77.3,150.8
							C77.4,150.8,77.3,150.8,77.3,150.8C77.3,150.8,77.3,150.8,77.3,150.8z"/>
						<path fill="#231F20" d="M77.7,151.9C77.7,151.9,77.6,151.9,77.7,151.9C77.6,151.9,77.6,152,77.7,151.9
							C77.7,152,77.7,152,77.7,151.9C77.7,151.9,77.7,151.9,77.7,151.9C77.7,151.9,77.7,151.9,77.7,151.9z"/>
						<path fill="#231F20" d="M77.7,153C77.7,153,77.6,153,77.7,153C77.6,153.1,77.6,153.1,77.7,153C77.6,153.1,77.7,153.2,77.7,153
							C77.7,153.1,77.7,153.1,77.7,153C77.7,153.1,77.7,153.1,77.7,153z"/>
						<g>
							<path fill="#231F20" d="M73.8,149.7c0,0-0.1,0.1-0.1,0.1c-0.1,0-0.2,0.1-0.2,0c0,0,0.1-0.1,0.2-0.1
								C73.8,149.8,73.8,149.7,73.8,149.7z"/>
							<circle fill="#231F20" cx="73.6" cy="149.7" r="0"/>
							<path fill="#231F20" d="M73.6,150.1c0,0-0.1-0.1,0-0.2c0,0,0.2-0.1,0.3,0c0,0,0.1,0.1,0,0.1c0,0,0,0,0,0c0,0,0-0.1-0.1,0
								C73.8,150,73.7,150,73.6,150.1C73.7,150.1,73.7,150.2,73.6,150.1z"/>
							<path fill="#231F20" d="M73,150.1l0.1-0.2c0,0,0-0.1,0.2-0.1c0,0,0,0,0,0.1l-0.1,0c0,0,0,0,0,0.1c0,0,0,0-0.1,0.1
								c0,0-0.1,0-0.1,0.1C73.2,150.2,73.1,150.2,73,150.1C73.1,150.1,73.1,150.1,73,150.1C73,150.1,72.9,150.1,73,150.1z"/>
							<path fill="#231F20" d="M72.3,150.9l0.1-0.2c0,0,0-0.1,0.2-0.2c0,0,0.1,0,0,0l-0.1,0.1c0,0,0,0.1,0.1,0.1c0,0,0.1,0,0,0.1
								c0,0-0.1,0.1,0,0.1c0,0,0,0.1-0.1,0C72.4,150.9,72.4,150.9,72.3,150.9C72.3,151,72.2,151,72.3,150.9z"/>
							<path fill="#231F20" d="M72,152l0-0.2c0,0-0.1-0.1,0.1-0.2c0,0,0.1,0,0,0l0,0.1c0,0,0,0.1,0.1,0c0,0,0.1,0,0,0.1
								c0,0,0,0.1,0,0.1c0,0,0,0.1-0.1,0.1C72.1,152,72,151.9,72,152C72,152,71.9,152,72,152z"/>
							<path fill="#231F20" d="M72,153.1l-0.1-0.2c0,0-0.1-0.1,0-0.2c0,0,0.1,0,0.1,0l0,0.1c0,0,0,0.1,0.1,0c0,0,0,0,0,0.1
								c0,0,0,0.1,0,0.1C72.2,153,72.2,153.1,72,153.1C72.1,153.1,72.1,153.1,72,153.1C72.1,153.2,72,153.2,72,153.1z"/>
							<path fill="#231F20" d="M72.5,150.1c0,0,0.1,0.1,0.2,0.2c0,0,0,0,0,0c0,0,0.3,0,0.2,0.1c0,0-0.1,0.2-0.2,0.1
								c0,0-0.1-0.2-0.1-0.2L72.5,150.1z"/>
							<path fill="#231F20" d="M71.7,152.4c0,0,0.1,0,0.2,0c0,0,0,0,0,0c0,0,0.2-0.2,0.2-0.1c0,0,0.1,0.2,0,0.2c0,0-0.2,0-0.2-0.1
								L71.7,152.4z"/>
							<path fill="#231F20" d="M72.9,150.8C72.9,150.8,72.9,150.8,72.9,150.8l0.1-0.2l0.2,0c0,0,0-0.1,0-0.1l-0.1,0
								c0,0-0.1,0.1-0.1,0.1L72.9,150.8z"/>
							<g>
								<path fill="#231F20" d="M72.3,151.1c0,0,0,0.1,0,0.2c0,0.1-0.1,0.2-0.1,0.2c0,0,0-0.1,0-0.2
									C72.2,151.2,72.3,151.1,72.3,151.1z"/>
								
									<ellipse transform="matrix(0.3686 -0.9296 0.9296 0.3686 -95.0707 162.593)" fill="#231F20" cx="72.2" cy="151.3" rx="0" ry="0.1"/>
								<path fill="#231F20" d="M72.1,151.2C72.1,151.2,72.1,151.3,72.1,151.2C72.1,151.3,72.1,151.3,72.1,151.2
									C72,151.3,72,151.2,72.1,151.2C72.1,151.2,72.1,151.2,72.1,151.2z"/>
								<path fill="#231F20" d="M72.4,151.5c0,0-0.1,0-0.1-0.1c0,0,0-0.2,0.2-0.2c0,0,0.1,0,0.1,0c0,0,0,0,0,0c0,0-0.1,0-0.1,0.1
									C72.4,151.3,72.4,151.5,72.4,151.5C72.4,151.5,72.5,151.5,72.4,151.5z"/>
							</g>
							<g>
								<path fill="#231F20" d="M72.2,153.3c0,0,0.1,0.1,0.1,0.2s0,0.2,0,0.2c0,0-0.1-0.1-0.1-0.2S72.2,153.3,72.2,153.3z"/>
								
									<ellipse transform="matrix(-0.2425 -0.9701 0.9701 -0.2425 -59.1408 260.7559)" fill="#231F20" cx="72.2" cy="153.5" rx="0" ry="0.1"/>
								<circle fill="#231F20" cx="72.2" cy="153.5" r="0"/>
								<path fill="#231F20" d="M72.6,153.5c0,0-0.1,0.1-0.1,0c0,0-0.1-0.2,0-0.3c0,0,0.1-0.1,0.1,0c0,0,0,0,0,0c0,0-0.1,0,0,0.1
									C72.4,153.4,72.5,153.5,72.6,153.5C72.5,153.5,72.7,153.4,72.6,153.5z"/>
							</g>
							<path fill="#231F20" d="M72.4,153.4C72.4,153.4,72.4,153.5,72.4,153.4C72.4,153.5,72.4,153.5,72.4,153.4
								C72.3,153.4,72.3,153.4,72.4,153.4C72.4,153.4,72.4,153.4,72.4,153.4z"/>
							<path fill="#231F20" d="M72.4,152.2C72.4,152.3,72.4,152.3,72.4,152.2L72.4,152.2c-0.1,0.1-0.1,0.1-0.1,0.1l0,0
								c0,0,0,0,0-0.1L72.4,152.2C72.4,152.2,72.4,152.2,72.4,152.2L72.4,152.2z"/>
							<path fill="#231F20" d="M72.3,152.5C72.2,152.5,72.3,152.5,72.3,152.5L72.3,152.5c0.1,0.1,0.1,0.1,0.2,0.1l0,0
								c0,0,0-0.1,0-0.1L72.3,152.5C72.3,152.5,72.3,152.5,72.3,152.5L72.3,152.5z"/>
							
								<ellipse transform="matrix(-0.914 -0.4056 0.4056 -0.914 84.2994 317.3159)" fill="#231F20" cx="75.8" cy="149.7" rx="0.2" ry="0"/>
							
								<ellipse transform="matrix(-0.9565 -0.2918 0.2918 -0.9565 104.6379 314.9035)" fill="#231F20" cx="75.8" cy="149.6" rx="0" ry="0.1"/>
							<path fill="#231F20" d="M75.8,150c0,0,0.1-0.1,0-0.1c0,0-0.2-0.1-0.3,0c0,0-0.1,0.1,0,0.1c0,0,0,0,0,0c0,0,0-0.1,0.1,0
								C75.7,149.9,75.8,149.9,75.8,150C75.8,150,75.7,150.1,75.8,150z"/>
							<path fill="#231F20" d="M76.4,150l-0.1-0.2c0,0,0-0.1-0.2-0.1c0,0,0,0,0,0.1l0.1,0c0,0,0,0,0,0.1c0,0,0,0,0.1,0.1
								c0,0,0.1,0,0.1,0.1C76.3,150.1,76.3,150.1,76.4,150C76.3,150.1,76.4,150,76.4,150C76.5,150,76.5,150,76.4,150z"/>
							<path fill="#231F20" d="M77.2,150.8l-0.1-0.2c0,0,0-0.1-0.2-0.1c0,0,0,0,0,0.1l0.1,0c0,0,0,0,0,0.1c0,0-0.1,0,0,0.1
								c0,0,0.1,0.1,0,0.1C77,150.8,77.1,150.9,77.2,150.8C77.1,150.8,77.2,150.8,77.2,150.8C77.3,150.8,77.3,150.8,77.2,150.8z"/>
							<path fill="#231F20" d="M77.6,151.8l0-0.2c0,0,0-0.1-0.1-0.2c0,0-0.1,0,0,0l0.1,0.1c0,0,0,0.1-0.1,0.1c0,0-0.1,0,0,0.1
								c0,0,0,0.1,0,0.1c0,0,0,0.1,0.1,0C77.5,151.8,77.6,151.8,77.6,151.8C77.6,151.9,77.7,151.9,77.6,151.8z"/>
							<path fill="#231F20" d="M77.6,153l0-0.2c0,0,0.1-0.1-0.1-0.2c0,0-0.1,0-0.1,0l0,0.1c0,0,0,0.1-0.1,0c0,0-0.1,0,0,0.1
								c0,0,0,0.1,0,0.1c0,0,0,0.1,0.1,0.1C77.5,153,77.6,152.9,77.6,153C77.6,153,77.7,153.1,77.6,153z"/>
							<path fill="#231F20" d="M77,150c0,0-0.1,0.1-0.2,0.2c0,0,0,0,0,0c0,0-0.3,0-0.2,0.1c0,0,0.1,0.2,0.2,0.1c0,0,0.1-0.2,0.1-0.2
								L77,150z"/>
							<path fill="#231F20" d="M78,152.3c0,0-0.1,0-0.2,0c0,0,0,0,0,0c0,0-0.2-0.2-0.2-0.1c0,0-0.1,0.2,0,0.2c0,0,0.2,0,0.2-0.1
								L78,152.3z"/>
							<path fill="#231F20" d="M76.6,150.7C76.6,150.7,76.6,150.7,76.6,150.7l-0.1-0.2l-0.2,0c0,0,0-0.1,0-0.1l0.1,0
								c0,0,0.1,0.1,0.1,0.1L76.6,150.7z"/>
							<g>
								<path fill="#231F20" d="M77.2,151c0,0,0,0.1,0,0.2c0,0.1,0.1,0.2,0.1,0.2c0,0,0-0.1,0-0.2C77.3,151.1,77.2,151,77.2,151z"/>
								<path fill="#231F20" d="M77.3,151.1C77.3,151.2,77.3,151.2,77.3,151.1C77.3,151.2,77.3,151.2,77.3,151.1
									C77.4,151.2,77.4,151.1,77.3,151.1C77.4,151.1,77.4,151.1,77.3,151.1z"/>
								<path fill="#231F20" d="M77.4,151.1C77.4,151.1,77.4,151.1,77.4,151.1C77.4,151.2,77.4,151.2,77.4,151.1
									C77.5,151.2,77.5,151.1,77.4,151.1C77.4,151.1,77.4,151.1,77.4,151.1z"/>
								<path fill="#231F20" d="M77.1,151.4c0,0,0.1,0,0.1-0.1c0,0,0-0.2-0.2-0.2c0,0-0.1,0-0.1,0c0,0,0,0,0,0c0,0,0.1,0,0.1,0.1
									C77.1,151.2,77.2,151.3,77.1,151.4C77.1,151.4,77,151.4,77.1,151.4z"/>
							</g>
							<path fill="#231F20" d="M77.2,151.2C77.2,151.3,77.2,151.3,77.2,151.2C77.2,151.3,77.3,151.2,77.2,151.2
								C77.2,151.2,77.2,151.2,77.2,151.2C77.2,151.2,77.2,151.2,77.2,151.2z"/>
							<g>
								
									<ellipse transform="matrix(0.3623 -0.9321 0.9321 0.3623 -93.594 169.9208)" fill="#231F20" cx="77.4" cy="153.4" rx="0.2" ry="0"/>
								<path fill="#231F20" d="M77.5,153.4C77.4,153.3,77.4,153.4,77.5,153.4C77.4,153.4,77.4,153.4,77.5,153.4
									C77.5,153.4,77.5,153.4,77.5,153.4C77.5,153.4,77.5,153.4,77.5,153.4z"/>
								<path fill="#231F20" d="M77.5,153.4C77.5,153.4,77.5,153.4,77.5,153.4C77.5,153.4,77.5,153.5,77.5,153.4
									C77.6,153.5,77.6,153.4,77.5,153.4C77.6,153.4,77.6,153.4,77.5,153.4z"/>
								<path fill="#231F20" d="M77.1,153.4c0,0,0.1,0.1,0.1,0c0,0,0.1-0.2,0-0.3c0,0-0.1-0.1-0.1,0c0,0,0,0,0,0c0,0,0.1,0,0,0.1
									C77.2,153.3,77.2,153.4,77.1,153.4C77.1,153.4,77,153.4,77.1,153.4z"/>
							</g>
							<path fill="#231F20" d="M77.3,153.3C77.3,153.4,77.3,153.4,77.3,153.3C77.3,153.4,77.3,153.4,77.3,153.3
								C77.4,153.3,77.4,153.3,77.3,153.3C77.3,153.3,77.3,153.3,77.3,153.3z"/>
							<path fill="#231F20" d="M77.3,152.1C77.2,152.1,77.3,152.1,77.3,152.1L77.3,152.1c0.1,0.1,0.1,0.1,0.2,0.1l0,0
								c0,0,0-0.1,0-0.1L77.3,152.1C77.3,152.1,77.3,152.1,77.3,152.1L77.3,152.1z"/>
							<path fill="#231F20" d="M77.4,152.3C77.4,152.4,77.4,152.4,77.4,152.3L77.4,152.3c-0.1,0.1-0.1,0.1-0.1,0.1l0,0
								c0,0,0,0,0-0.1L77.4,152.3C77.4,152.3,77.4,152.3,77.4,152.3L77.4,152.3z"/>
							<path fill="#231F20" d="M72.3,154l0-0.2c0,0,0-0.1,0.1,0l0.1,0"/>
						</g>
					</g>
				</g>
			</g>
		</g>
		<g>
			<path fill="#FFFFFF" d="M73,152.7c0,0.1,0,0.1-0.1,0.1l0,0c-0.1,0-0.1,0-0.1-0.1v-0.2c0-0.1,0-0.1,0.1-0.1l0,0
				c0.1,0,0.1,0,0.1,0.1V152.7z"/>
			<path fill="#FFFFFF" d="M73,152.1c0,0.1-0.1,0.1-0.1,0.1l0,0c-0.1,0-0.1-0.1-0.1-0.1l0-0.2c0-0.1,0.1-0.1,0.1-0.1l0,0
				c0.1,0,0.1,0.1,0.1,0.1L73,152.1z"/>
			<path fill="#FFFFFF" d="M73.2,151.6c0,0.1-0.1,0.1-0.1,0.1l0,0c-0.1,0-0.1-0.1-0.1-0.1l0.1-0.2c0-0.1,0.1-0.1,0.1-0.1l0,0
				c0.1,0,0.1,0.1,0.1,0.1L73.2,151.6z"/>
			<path fill="#FFFFFF" d="M73.5,151.2c0,0-0.1,0-0.2,0l0,0c0,0,0-0.1,0-0.2l0.1-0.1c0,0,0.1,0,0.2,0l0,0c0,0,0,0.1,0,0.2
				L73.5,151.2z"/>
			<path fill="#FFFFFF" d="M76.6,152.6c0,0.1,0,0.1,0.1,0.1l0,0c0.1,0,0.1,0,0.1-0.1v-0.2c0-0.1,0-0.1-0.1-0.1l0,0
				c-0.1,0-0.1,0-0.1,0.1V152.6z"/>
			<path fill="#FFFFFF" d="M76.6,152c0,0.1,0.1,0.1,0.1,0.1l0,0c0.1,0,0.1-0.1,0.1-0.1l0-0.2c0-0.1-0.1-0.1-0.1-0.1l0,0
				c-0.1,0-0.1,0.1-0.1,0.1L76.6,152z"/>
			<path fill="#FFFFFF" d="M76.4,151.5c0,0.1,0.1,0.1,0.1,0.1l0,0c0.1,0,0.1-0.1,0.1-0.1l-0.1-0.2c0-0.1-0.1-0.1-0.1-0.1l0,0
				c-0.1,0-0.1,0.1-0.1,0.1L76.4,151.5z"/>
			<path fill="#FFFFFF" d="M76.1,151.1c0,0,0.1,0,0.2,0l0,0c0,0,0-0.1,0-0.2l-0.1-0.1c0,0-0.1,0-0.2,0l0,0c0,0,0,0.1,0,0.2
				L76.1,151.1z"/>
			<path fill="#FFFFFF" d="M73.9,150.8c-0.1,0-0.1,0-0.1,0l0,0c0-0.1,0-0.1,0-0.1l0.2-0.1c0.1,0,0.1,0,0.2,0l0,0c0,0.1,0,0.1,0,0.1
				L73.9,150.8z"/>
			<path fill="#FFFFFF" d="M75.6,150.8c0.1,0,0.1,0,0.2,0l0,0c0-0.1,0-0.1,0-0.2l-0.2-0.1c-0.1,0-0.1,0-0.2,0l0,0c0,0.1,0,0.1,0,0.2
				L75.6,150.8z"/>
			<path fill="#FFFFFF" d="M74.4,150.6c-0.1,0-0.1,0-0.1-0.1l0,0c0-0.1,0-0.1,0.1-0.1l0.2,0c0.1,0,0.1,0,0.1,0.1l0,0
				c0,0.1,0,0.1-0.1,0.1L74.4,150.6z"/>
			<path fill="#FFFFFF" d="M75.1,150.6c0.1,0,0.1,0,0.1-0.1l0,0c0-0.1,0-0.1-0.1-0.1l-0.2,0c-0.1,0-0.1,0-0.1,0.1l0,0
				c0,0.1,0,0.1,0.1,0.1L75.1,150.6z"/>
			<path fill="#FFFFFF" d="M73.1,153c0,0,0,0.1,0,0.1l-0.1,0c0,0-0.1,0-0.1,0l0,0c0,0,0-0.1,0-0.1l0.1,0
				C73.1,152.9,73.1,152.9,73.1,153L73.1,153z"/>
			<path fill="#FFFFFF" d="M76.5,152.9c0,0,0,0.1,0,0.1l0.1,0c0,0,0.1,0,0.1,0l0,0c0,0,0-0.1,0-0.1l-0.1,0
				C76.6,152.8,76.5,152.8,76.5,152.9L76.5,152.9z"/>
			<path fill="#FFFFFF" d="M72.8,153c0,0,0,0.1-0.1,0.1l0,0c0,0-0.1,0-0.1-0.1l0-0.1c0,0,0-0.1,0.1-0.1l0,0c0,0,0.1,0,0.1,0.1
				L72.8,153z"/>
			<path fill="#FFFFFF" d="M72.7,151.9C72.7,152,72.7,152,72.7,151.9L72.7,151.9c-0.1,0.1-0.2,0-0.2,0l0-0.2c0-0.1,0-0.1,0.1-0.1
				l0,0c0,0,0.1,0.1,0.1,0.1L72.7,151.9z"/>
			<path fill="#FFFFFF" d="M72.9,153.2C72.9,153.3,72.8,153.3,72.9,153.2L72.9,153.2c-0.1,0.1-0.2,0-0.2,0l0,0
				C72.7,153.2,72.8,153.2,72.9,153.2L72.9,153.2C72.8,153.2,72.9,153.2,72.9,153.2L72.9,153.2z"/>
			<path fill="#FFFFFF" d="M72.8,151.5C72.8,151.6,72.8,151.6,72.8,151.5L72.8,151.5c-0.1,0.1-0.2,0.1-0.2,0v0
				C72.7,151.5,72.7,151.4,72.8,151.5L72.8,151.5C72.8,151.4,72.8,151.5,72.8,151.5L72.8,151.5z"/>
			<path fill="#FFFFFF" d="M73.6,150.6c0,0-0.1,0-0.1,0l0,0c0,0,0-0.1,0-0.1l0,0c0,0,0.1,0,0.1,0l0,0
				C73.6,150.5,73.6,150.6,73.6,150.6L73.6,150.6z"/>
			<path fill="#FFFFFF" d="M72.9,151.3C72.9,151.4,72.9,151.4,72.9,151.3L72.9,151.3c-0.1,0.1-0.2,0-0.2,0v0
				C72.8,151.3,72.8,151.2,72.9,151.3L72.9,151.3C72.9,151.2,72.9,151.3,72.9,151.3L72.9,151.3z"/>
			<path fill="#FFFFFF" d="M73.4,150.7C73.4,150.8,73.4,150.8,73.4,150.7L73.4,150.7c-0.1,0.1-0.2,0-0.2,0v0
				C73.2,150.7,73.3,150.6,73.4,150.7L73.4,150.7C73.4,150.6,73.4,150.7,73.4,150.7L73.4,150.7z"/>
			<path fill="#FFFFFF" d="M73.1,151.1c0,0-0.1,0.1-0.1,0l0,0c0,0-0.1-0.1,0-0.1l0,0c0,0,0.1-0.1,0.1,0l0,0
				C73.1,151,73.1,151.1,73.1,151.1L73.1,151.1z"/>
			<path fill="#FFFFFF" d="M73.8,150.5c0,0-0.1,0-0.1,0l0,0c0,0,0-0.1,0-0.1l0,0c0,0,0.1,0,0.1,0l0,0
				C73.8,150.4,73.8,150.4,73.8,150.5L73.8,150.5z"/>
			<path fill="#FFFFFF" d="M74,150.3c0,0,0,0.1,0,0.1l0,0c0,0-0.1,0-0.1-0.1l0,0c0,0,0-0.1,0-0.1l0,0C74,150.2,74,150.2,74,150.3
				L74,150.3z"/>
			<path fill="#FFFFFF" d="M73.2,150.9c0,0-0.1,0.1-0.1,0l0,0c0,0-0.1-0.1,0-0.1l0,0c0,0,0.1-0.1,0.1-0.1l0,0
				C73.2,150.8,73.3,150.9,73.2,150.9L73.2,150.9z"/>
			<path fill="#FFFFFF" d="M74.3,150.2c0,0,0,0.1-0.1,0.1l-0.1,0c0,0-0.1,0-0.1-0.1l0,0c0,0,0-0.1,0.1-0.1l0.1,0
				C74.3,150.1,74.3,150.2,74.3,150.2L74.3,150.2z"/>
			<path fill="#FFFFFF" d="M76.8,152.9c0,0,0,0.1,0.1,0.1l0,0c0,0,0.1,0,0.1-0.1l0-0.1c0,0,0-0.1-0.1-0.1l0,0c0,0-0.1,0-0.1,0.1
				L76.8,152.9z"/>
			<path fill="#FFFFFF" d="M76.9,151.9c0,0.1,0.1,0.1,0.1,0.1l0,0c0,0,0.1-0.1,0.1-0.1l0-0.2c0-0.1-0.1-0.1-0.1-0.1l0,0
				c0,0-0.1,0.1-0.1,0.1L76.9,151.9z"/>
			<path fill="#FFFFFF" d="M76.8,153.1C76.8,153.1,76.8,153.2,76.8,153.1L76.8,153.1c0.1,0.1,0.1,0.1,0.2,0.1l0,0c0,0,0-0.1,0-0.1
				L76.8,153.1C76.8,153,76.8,153.1,76.8,153.1L76.8,153.1z"/>
			<path fill="#FFFFFF" d="M76.7,151.4C76.7,151.5,76.7,151.5,76.7,151.4L76.7,151.4c0.1,0.1,0.2,0,0.2,0v0
				C76.9,151.4,76.8,151.3,76.7,151.4L76.7,151.4C76.7,151.3,76.7,151.4,76.7,151.4L76.7,151.4z"/>
			<path fill="#FFFFFF" d="M75.9,150.6c0,0,0.1,0,0.1,0l0,0c0,0,0-0.1,0-0.1l0,0c0,0-0.1,0-0.1,0l0,0
				C75.9,150.5,75.9,150.6,75.9,150.6L75.9,150.6z"/>
			<path fill="#FFFFFF" d="M76.6,151.2C76.6,151.3,76.6,151.3,76.6,151.2L76.6,151.2c0.1,0.1,0.2,0,0.2,0v0
				C76.8,151.2,76.7,151.1,76.6,151.2L76.6,151.2C76.6,151.1,76.6,151.2,76.6,151.2L76.6,151.2z"/>
			<path fill="#FFFFFF" d="M76.1,150.7C76.1,150.7,76.1,150.8,76.1,150.7L76.1,150.7c0.1,0.1,0.2,0,0.2,0v0
				C76.3,150.6,76.2,150.6,76.1,150.7L76.1,150.7C76.1,150.6,76.1,150.6,76.1,150.7L76.1,150.7z"/>
			<path fill="#FFFFFF" d="M76.5,151.1c0,0,0.1,0.1,0.1,0.1l0,0c0,0,0.1-0.1,0-0.1l0,0c0,0-0.1-0.1-0.1,0l0,0
				C76.5,150.9,76.4,151,76.5,151.1L76.5,151.1z"/>
			<path fill="#FFFFFF" d="M75.7,150.5c0,0,0.1,0,0.1,0l0,0c0,0,0-0.1,0-0.1l0,0c0,0-0.1,0-0.1,0l0,0
				C75.7,150.4,75.7,150.4,75.7,150.5L75.7,150.5z"/>
			<path fill="#FFFFFF" d="M75.5,150.3c0,0,0,0.1,0,0.1l0,0c0,0,0.1,0,0.1,0l0,0c0,0,0-0.1,0-0.1l0,0
				C75.6,150.2,75.5,150.2,75.5,150.3L75.5,150.3z"/>
			<path fill="#FFFFFF" d="M76.3,150.9c0,0,0.1,0.1,0.1,0.1l0,0c0,0,0.1-0.1,0-0.1l0,0c0,0-0.1-0.1-0.1,0l0,0
				C76.3,150.8,76.3,150.8,76.3,150.9L76.3,150.9z"/>
			<path fill="#FFFFFF" d="M75.2,150.2c0,0,0,0.1,0.1,0.1l0.1,0c0,0,0.1,0,0.1-0.1l0,0c0,0,0-0.1-0.1-0.1l-0.1,0
				C75.2,150.1,75.2,150.1,75.2,150.2L75.2,150.2z"/>
		</g>
		<path fill="#231F20" stroke="#231F20" stroke-width="2.446900e-02" d="M73.5,152.9c0.1-0.1-0.1-0.1-0.1-0.1
			c-0.2,0-0.2-0.4-0.2-0.4c0-0.6,0.4-0.4,0.4-0.4c0.1,0,0.1-0.1,0.1-0.1l-0.2-0.4c-0.1-0.1,0.6-0.4,0.6-0.4c0.2-0.1,0.2,0,0.2,0
			l0.1,0.2c0.1,0.1,0.1,0,0.1,0l0.2-0.5v-0.1h0.1v0.1l0.2,0.5c0,0,0.1,0.1,0.1,0l0.1-0.2c0,0,0-0.1,0.1,0l0.6,0.3c0,0,0.2,0.1,0,0.3
			l-0.1,0.2c0,0-0.1,0.1,0.1,0.1c0,0,0.3-0.1,0.4,0c0,0,0.1,0.4,0.1,0.5c0,0,0,0.2-0.2,0.2c0,0-0.1,0.1,0,0.1c0,0-0.4-0.2-1.3-0.2
			C74.9,152.6,74.4,152.5,73.5,152.9z"/>
		<path fill="#FFFFFF" d="M74.4,151.4l-0.1-0.2c0,0,0-0.1-0.3,0c0,0-0.2,0.1-0.3,0.1c0,0-0.2,0,0,0.2l0.1,0.3c0,0,0.1,0.2,0,0.2
			c0,0-0.2,0-0.2,0c0,0-0.2-0.1-0.2,0.1c0,0-0.1,0.6,0.2,0.5c0,0,0.1-0.1,0.2-0.1c0,0,0,0,0,0c0,0,0,0.1,0.2,0c0,0,0.1,0,0-0.2
			c0,0-0.1-0.6,0.4-0.8C74.4,151.7,74.5,151.6,74.4,151.4z"/>
		<path fill="#FFFFFF" d="M75.2,151.3l0.1-0.2c0,0,0-0.1,0.3,0c0,0,0.2,0.1,0.3,0.1c0,0,0.2,0,0,0.2l-0.1,0.3c0,0-0.1,0.2,0,0.2
			c0,0,0.2,0,0.2,0c0,0,0.2-0.1,0.2,0.1c0,0,0.2,0.6-0.2,0.5c0,0-0.1-0.1-0.2-0.1c0,0,0,0,0,0c0,0,0,0.1-0.2,0c0,0-0.1,0,0-0.2
			c0,0,0.1-0.6-0.4-0.8C75.2,151.6,75.1,151.6,75.2,151.3z"/>
		<g>
			<path fill="#231F20" d="M73.5,151.8c0,0-0.1,0.1-0.2,0c-0.1,0-0.1-0.1-0.1-0.1c0,0,0.1-0.1,0.2,0
				C73.5,151.7,73.6,151.7,73.5,151.8z"/>
			<path fill="#231F20" d="M76.1,151.8c0,0,0.1,0.1,0.2,0.1c0.1,0,0.1-0.1,0.1-0.1c0-0.1-0.1-0.1-0.2-0.1
				C76.1,151.7,76,151.7,76.1,151.8z"/>
			<path fill="#231F20" d="M73.8,151.5C73.8,151.5,73.7,151.5,73.8,151.5C73.7,151.5,73.7,151.5,73.8,151.5
				C73.7,151.5,73.7,151.4,73.8,151.5C73.7,151.4,73.8,151.5,73.8,151.5z"/>
			<path fill="#231F20" d="M74.2,151.3C74.2,151.3,74.2,151.3,74.2,151.3C74.2,151.3,74.1,151.3,74.2,151.3
				C74.1,151.2,74.2,151.2,74.2,151.3C74.2,151.2,74.2,151.2,74.2,151.3z"/>
			<circle fill="#231F20" cx="73.5" cy="152.2" r="0.1"/>
			<circle fill="#231F20" cx="73.8" cy="152.2" r="0"/>
			<path fill="#231F20" d="M73.9,152.4C73.9,152.4,73.9,152.4,73.9,152.4C73.8,152.4,73.8,152.4,73.9,152.4
				C73.8,152.4,73.8,152.3,73.9,152.4C73.9,152.3,73.9,152.4,73.9,152.4z"/>
			<circle fill="#231F20" cx="73.8" cy="152.5" r="0"/>
			<circle fill="#231F20" cx="75.9" cy="151.4" r="0"/>
			<circle fill="#231F20" cx="75.4" cy="151.2" r="0"/>
			<path fill="#231F20" d="M76.1,152.1C76.1,152.1,76.1,152.1,76.1,152.1C76.2,152.1,76.2,152.1,76.1,152.1
				C76.2,152,76.2,152,76.1,152.1C76.1,152,76.1,152,76.1,152.1z"/>
			<path fill="#231F20" d="M75.8,152.1C75.8,152.2,75.8,152.2,75.8,152.1C75.9,152.2,75.9,152.2,75.8,152.1
				C75.9,152.1,75.9,152.1,75.8,152.1C75.8,152.1,75.8,152.1,75.8,152.1z"/>
			<circle fill="#231F20" cx="75.8" cy="152.3" r="0"/>
			<path fill="#231F20" d="M75.8,152.4C75.8,152.4,75.8,152.4,75.8,152.4C75.9,152.4,75.9,152.4,75.8,152.4
				C75.9,152.4,75.9,152.4,75.8,152.4C75.8,152.4,75.8,152.4,75.8,152.4z"/>
		</g>
		<g>
			<path fill="#FFFFFF" d="M74.5,151.9c0,0,0,0.1,0,0.1c0,0,0.1,0,0,0c0,0,0,0,0.1,0c0,0,0.1,0,0.1,0c0,0,0,0.1,0,0.1c0,0,0,0,0,0.1
				c0,0,0,0.1-0.1,0c0,0-0.1,0-0.1,0.1c0,0,0,0.1-0.1,0C74.4,152.5,74.3,152.3,74.5,151.9C74.5,152,74.5,151.9,74.5,151.9z"/>
			<path fill="#FFFFFF" d="M75.1,151.9c0,0,0,0.1,0,0.1c0,0-0.1,0,0,0c0,0,0,0-0.1,0c0,0-0.1,0-0.1,0c0,0,0,0.1,0,0.1c0,0,0,0,0,0.1
				c0,0,0,0.1,0.1,0c0,0,0.1,0,0.1,0.1c0,0,0,0.1,0.1,0C75.2,152.5,75.4,152.3,75.1,151.9C75.2,152,75.1,151.9,75.1,151.9z"/>
			<path fill="#FFFFFF" d="M74.3,152c0,0,0.1,0,0,0.1c0,0-0.1,0.1,0,0.2c0,0,0,0.2-0.1,0.2c0,0-0.1,0-0.1-0.4
				C74.1,152.2,74.1,151.9,74.3,152z"/>
			<path fill="#FFFFFF" d="M75.4,151.9c0,0-0.1,0,0,0.1c0,0,0.1,0.1,0,0.2c0,0,0,0.2,0.1,0.2c0,0,0.1,0,0.1-0.4
				C75.5,152.1,75.5,151.9,75.4,151.9z"/>
			<path fill="#FFFFFF" d="M74.7,151.8C74.6,151.8,74.6,151.8,74.7,151.8C74.6,151.8,74.5,151.8,74.7,151.8
				C74.6,151.7,74.6,151.7,74.7,151.8C74.7,151.7,74.7,151.8,74.7,151.8z"/>
			<path fill="#FFFFFF" d="M74.5,151.8C74.4,151.9,74.4,151.9,74.5,151.8C74.4,151.9,74.3,151.8,74.5,151.8
				C74.4,151.8,74.4,151.7,74.5,151.8C74.5,151.8,74.5,151.8,74.5,151.8z"/>
			<path fill="#FFFFFF" d="M75,151.8C75,151.8,75,151.8,75,151.8C75.1,151.8,75.1,151.8,75,151.8C75,151.7,75,151.7,75,151.8
				C75,151.7,75,151.8,75,151.8z"/>
			
				<ellipse transform="matrix(-0.8808 0.4735 -0.4735 -0.8808 213.353 249.8863)" fill="#FFFFFF" cx="75.2" cy="151.8" rx="0.1" ry="0.1"/>
			<ellipse fill="#FFFFFF" cx="74.8" cy="151.1" rx="0.1" ry="0.1"/>
			<path fill="#FFFFFF" d="M74.9,151.4C74.9,151.5,74.8,151.5,74.9,151.4c-0.1,0.1-0.1,0-0.1,0C74.7,151.4,74.7,151.4,74.9,151.4
				C74.8,151.4,74.9,151.4,74.9,151.4z"/>
		</g>
		<path fill="#231F20" stroke="#231F20" stroke-width="3.425800e-02" d="M73.3,147.3c-0.1-0.1-0.8,0.2-0.8,0.2
			c-0.4,0.2-0.2,0.3-0.2,0.3l0.2,0.3c0.2,0.2-0.1,0.4-0.1,0.4c-1.5,0.9-1.9,2.5-1.9,2.5c-0.5,1.4,0,2.8,0,2.8
			c0.4,1.4,1.1,1.9,1.1,1.9c0.2,0.1,0.1,0.3,0.1,0.3l-0.1,0.2c-0.1,0.1-0.1,0.2-0.1,0.2l0.6,0.5c0,0.1,0.1,0.2,0.1,0.2l-0.6,0.1
			c-0.3,0-0.1,0.2-0.1,0.2c0.3,0.6,0.8,1.2,0.8,1.2c-1.3-0.3-2.6-1.9-2.6-1.9c-0.3-0.3-0.1-0.5-0.1-0.5l0.2-0.2c0.2-0.1,0-0.3,0-0.3
			c-1.2-1.8-0.8-3.9-0.8-3.9c0.3-2.2,1.8-3.5,1.8-3.5c0.3-0.2,0-0.3,0-0.3l-0.2-0.2c0,0-0.2-0.2,0.1-0.4c0,0,0.6-0.5,1.1-0.7
			c0.4-0.2,0.6-0.3,0.8-0.4c0.2-0.1,0.5-0.2,0.5-0.2l-0.1,0.3l0.2,0.7L73.3,147.3"/>
		<path fill="#231F20" stroke="#231F20" stroke-width="3.425800e-02" d="M76.2,147.1c0.1-0.1,0.7,0.2,0.7,0.2
			c0.3,0.2,0.2,0.3,0.2,0.3l-0.4,0.4c-0.2,0.2,0.1,0.3,0.3,0.4c0.4,0.2,0.8,0.4,1,0.7c0.8,0.7,1,1.6,1,1.6c0.6,1.4,0.2,2.8,0.2,2.8
			c-0.2,1.4-1.1,2-1.1,2c-0.3,0.3-0.1,0.3-0.1,0.3c0.3,0.2,0.2,0.3,0.2,0.3l-0.5,0.5c-0.1,0.1-0.2,0.2-0.2,0.1l0.4,0
			c0.2,0,0.5,0,0.5,0c-0.2,0.6-0.9,1.4-0.9,1.4c1.2-0.3,2.2-1.6,2.2-1.6c0.7-0.8,0.4-0.9,0.4-0.9l-0.2-0.2c-0.2-0.1-0.1-0.3-0.1-0.3
			c1-1.9,0.6-3.8,0.6-3.8c-0.3-2.2-2.2-3.5-2.2-3.5c-0.2-0.1,0-0.3,0-0.3l0.2-0.2c0,0,0.2-0.2,0-0.4l-1.3-0.7v0.1l0,0l-0.1,0
			l-0.1-0.1l-0.2-0.2l-0.2-0.1l-0.2,0l-0.1,0.2l-0.2,0.7L76.2,147.1"/>
		<path fill="none" stroke="#231F20" stroke-width="5.872700e-02" d="M74,149.3c0,0,0.2,0.3,0.2,0.4"/>
		<path fill="none" stroke="#231F20" stroke-width="5.872700e-02" d="M73.9,149.5c0,0,0.2,0.2,0.2,0.3"/>
		<path fill="#FFFFFF" d="M74.3,149.2C74.3,149.2,74.3,149.2,74.3,149.2C74.4,149.2,74.4,149.2,74.3,149.2
			C74.3,149.1,74.3,149.1,74.3,149.2C74.3,149.1,74.3,149.2,74.3,149.2z"/>
		<g>
			<path fill="#BA9C67" d="M71.9,158.1c0,0-1.4-0.7-2.4-2c0,0,0-0.2,0.1-0.2c0,0,0.1,0,0.5,0.5c0,0,0.3,0.5,0.6,0.2l0.4-0.4l0.5,0.5
				l-0.5,0.1c0,0-0.2,0-0.1,0.2C71.1,157,71.5,157.9,71.9,158.1z"/>
			<path fill="#BA9C67" stroke="#A9906F" stroke-width="3.425800e-02" d="M70.9,156.4l0.5-0.6c0,0,0.1-0.1,0-0.2c0,0-0.6-0.6-1-1.7
				c0,0-0.3-0.7-0.3-1.7c0,0,0-0.7,0.3-1.7c0,0,0.3-0.8,0.9-1.4c0,0,0.6-0.6,1.1-0.9c0,0,0.1-0.1,0-0.2c0,0-0.1-0.1-0.3,0.1
				l-0.4,0.3c0,0-0.2,0.1-0.4-0.1l-0.3-0.3c0,0,0-0.1-0.2,0c0,0-0.8,0.8-1.1,1.4c0,0-0.4,0.7-0.6,1.6c0,0-0.2,0.9-0.1,2
				c0,0,0.1,1.3,0.9,2.4c0,0,0.6,0.8,0.8,0.9C70.7,156.4,70.8,156.5,70.9,156.4z"/>
			<path fill="#BA9C67" stroke="#A9906F" stroke-width="3.425800e-02" d="M71.4,148.1c0,0,0.6-0.5,1.6-0.8c0,0,0.1-0.1,0.1-0.2
				c0,0-0.2-0.4-0.2-0.5c0,0-0.1-0.3-0.2-0.4c0,0-0.1-0.1-0.2,0.1c0,0-0.6,0.2-0.9,0.5c0,0-0.7,0.5-0.9,0.6c0,0-0.1,0.1,0.1,0.3
				l0.5,0.6C71.2,148.1,71.3,148.2,71.4,148.1z"/>
			<path fill="#BA9C67" d="M77.8,146.4c0.5,0.3,0.5,0.3,0.8,0.5c0,0,0.3,0.2,0,0.5l-0.2,0.2l-0.4,0.5l-0.4-0.2c0,0,0-0.1,0-0.1
				c0-0.1-0.1-0.1-0.1-0.1c-0.1-0.1,0.1-0.2,0.1-0.3c0,0,0-0.8,0-0.8L77.8,146.4L77.8,146.4L77.8,146.4z"/>
			<path fill="#BA9C67" d="M76.9,148.1c0,0,0-0.2,0.2-0.1c0,0,0.4,0.2,0.5,0.3c0,0,0.2,0.2,0.4,0c0,0,0.3-0.3,0.3-0.4
				c0,0,0-0.1,0.1,0c0,0,1.2,1,1.7,2.1c0,0,0.5,1.1,0.5,2.4c0,0,0.1,0.9-0.4,2c0,0-0.4,1.2-1,1.7c0,0-0.1,0.2-0.3,0l-0.6-0.5
				c0,0-0.1-0.1,0-0.2c0,0,0.5-0.6,0.5-0.7c0,0,0.4-0.9,0.5-1.7c0,0,0.1-0.6,0-1.2c0,0-0.1-0.8-0.6-1.8c0,0-0.4-0.9-1.3-1.4
				c0,0-0.5-0.4-0.7-0.4C77,148.2,76.9,148.2,76.9,148.1z"/>
			<path fill="#BA9C67" d="M78.2,158c0,0,1.3-0.8,2.2-2.2c0,0,0-0.2-0.2-0.1c0,0-0.1,0-0.4,0.5c0,0-0.3,0.5-0.6,0.2l-0.5-0.4
				l-0.5,0.5l0.5,0c0,0,0.2,0,0.1,0.2C78.9,156.8,78.6,157.8,78.2,158z"/>
		</g>
		<g>
			<circle fill="#FFFFFF" stroke="#231F20" stroke-width="5.872700e-02" cx="74.9" cy="155.7" r="3.1"/>
			<path fill="none" stroke="#231F20" stroke-width="5.872700e-02" d="M75.8,153.1c0,0,1,0.7,1.2,0.8"/>
			<path fill="none" stroke="#231F20" stroke-width="5.872700e-02" d="M72.6,154.1c0,0,1.1-0.9,1.2-0.9"/>
			<line fill="none" stroke="#231F20" stroke-width="5.872700e-02" x1="72.8" y1="155" x2="73.9" y2="155.3"/>
			<path fill="none" stroke="#231F20" stroke-width="5.872700e-02" d="M75.9,155.3c0,0,1-0.4,1.2-0.4"/>
			<path fill="none" stroke="#231F20" stroke-width="5.872700e-02" d="M75.6,156.5c0,0,0.6,0.8,0.7,1"/>
			<path fill="none" stroke="#231F20" stroke-width="5.872700e-02" d="M77.7,155.8c0,0-0.3,1.4-0.5,1.5"/>
			<path fill="none" stroke="#231F20" stroke-width="5.872700e-02" d="M73.6,157.4c0,0,0.6-0.9,0.7-0.9"/>
			<path fill="none" stroke="#231F20" stroke-width="5.872700e-02" d="M74.2,158.3c0,0,0.7,0.1,1.6,0"/>
			<path fill="none" stroke="#231F20" stroke-width="5.872700e-02" d="M72.6,157.2c0,0-0.4-0.7-0.5-1.4"/>
			<path fill="none" stroke="#231F20" stroke-width="5.872700e-02" d="M74.9,154.6c0,0,0-0.8-0.1-1.2"/>
		</g>
		<g>
			<path fill="#231F20" d="M74,152.7c0,0,0.8-0.3,1.7-0.1c0,0,0.2,0.4,0.3,0.4c0,0-0.9,0.2-1.1,0.4c0,0-0.1-0.3-1.1-0.4
				C73.8,153.2,74.1,152.8,74,152.7z"/>
			<path fill="#231F20" d="M72.3,154.1c0,0,0.3,0,0.4-0.1c0,0-0.1,1,0.2,1.1c0,0-0.2-0.1-0.7,0.9c0,0-0.2-0.4-0.4-0.3
				C71.8,155.7,71.8,154.7,72.3,154.1z"/>
			<path fill="#231F20" d="M72.5,157.6c0,0,0.2,0,0.1-0.5c0,0,0.2,0.3,1.1,0.3c0,0,0.3,0.9,0.7,0.9c0,0-0.6,0.1-0.4,0.3
				C73.9,158.6,73.2,158.4,72.5,157.6z"/>
			<path fill="#231F20" d="M76.2,157.4c0,0-0.4,0.9-0.6,0.9c0,0,0.5,0.1,0.4,0.3c0,0,0.9-0.2,1.5-1.1c0,0-0.2,0.2-0.2-0.4
				C77.3,157.1,76.6,157.5,76.2,157.4"/>
			<path fill="#231F20" d="M74.9,154.5c0,0-0.8,0.4-1.1,0.8c0,0,0.2,1,0.4,1.3c0,0,0.6,0.1,1.4,0c0,0,0.3-0.6,0.3-1.3
				C76,155.3,75.7,154.9,74.9,154.5z"/>
			<path fill="#231F20" d="M77.4,153.9c0,0-0.1,0.2-0.5-0.1c0,0,0.2,1,0,1.1c0,0,0.4,0.2,0.7,0.9c0,0,0.3-0.5,0.4-0.3
				C78,155.5,78.1,154.9,77.4,153.9z"/>
		</g>
		<g>
			<path fill="#231F20" d="M70.6,156L70.6,156l0.2,0.1l0.1-0.1l-0.1-0.1l0.1-0.1l0.1,0.1l0.2-0.2l0.1,0.1l-0.4,0.4L70.6,156z"/>
			<path fill="#231F20" d="M70.7,155.3L70.7,155.3l0.3,0.2l-0.5,0.4l-0.2-0.2l0.1-0.1l0.1,0.2l0.1-0.1l-0.1-0.2l0.1-0.1l0.1,0.2
				l0.1-0.1L70.7,155.3z"/>
			<path fill="#231F20" d="M70.3,155.4c0-0.1-0.1-0.1,0-0.1c0,0,0.1-0.1,0.2-0.1c0.1,0,0.1-0.1,0.2-0.1c0,0,0,0,0.1,0.1l0,0
				L70.3,155.4z M70.8,155.2l-0.1-0.1c0-0.1-0.1-0.1-0.1-0.1c0,0-0.1,0-0.1,0c0,0-0.1,0-0.2,0.1c-0.1,0.1-0.2,0.1-0.2,0.2
				c0,0,0,0.1,0,0.2l0.1,0.2L70.8,155.2z"/>
			<path fill="#231F20" d="M70.3,154.6L70.3,154.6l0.2,0.2l-0.5,0.3l-0.1-0.3l0.1,0l0.1,0.2l0.1-0.1l-0.1-0.2l0.1,0l0.1,0.2l0.1-0.1
				L70.3,154.6z"/>
			<path fill="#231F20" d="M69.8,154.5c0-0.1,0-0.1,0-0.1c0,0,0,0,0-0.1c0,0,0.1,0,0.1,0c0,0,0,0,0,0.1c0,0,0,0,0,0c0,0,0,0,0,0
				L69.8,154.5z M69.9,154.2C69.9,154.2,69.8,154.3,69.9,154.2c-0.1,0-0.2,0.1-0.2,0.1c0,0,0,0.1,0,0.1l0.1,0.2l0.5-0.2l0-0.1
				l-0.2,0.1c0-0.1,0-0.1,0-0.1c0,0,0,0,0.1-0.1c0,0,0.1,0,0.1,0c0,0,0,0,0,0l-0.1-0.1c0,0,0,0,0,0.1s-0.1,0-0.1,0
				C70,154.2,70,154.2,69.9,154.2C69.9,154.2,69.9,154.3,69.9,154.2C69.9,154.3,69.9,154.3,69.9,154.2z"/>
			<path fill="#231F20" d="M69.7,154l0.2-0.1l0,0.1L69.7,154z M69.6,154.1l0.6,0l0-0.1l-0.2,0l0-0.1l0.1-0.1l0-0.1l-0.5,0.3
				L69.6,154.1z"/>
			<path fill="#231F20" d="M69.8,153.4l0-0.1c0.1,0,0.1,0,0.2,0c0,0,0.1,0.1,0.1,0.1c0,0.1,0,0.1,0,0.2c0,0-0.1,0.1-0.3,0.1
				c-0.1,0-0.2,0-0.2,0c0,0-0.1-0.1-0.1-0.1c0-0.1,0-0.1,0-0.1c0,0,0.1-0.1,0.1-0.1l0,0.1c0,0,0,0-0.1,0c0,0,0,0,0,0.1
				c0,0,0,0,0.1,0c0,0,0.1,0,0.1,0c0,0,0,0,0,0c0.1,0,0.2,0,0.2-0.1c0,0,0,0,0-0.1c0,0,0,0,0,0C69.9,153.4,69.8,153.4,69.8,153.4z"
				/>
			<path fill="#231F20" d="M69.3,153.2l0.6-0.1l0,0.1l-0.6,0.1L69.3,153.2z"/>
			<path fill="#231F20" d="M69.4,152.9C69.4,152.9,69.4,152.9,69.4,152.9c-0.1-0.1-0.1-0.1,0-0.1c0,0,0.1,0,0.2,0c0.1,0,0.1,0,0.2,0
				c0,0,0,0,0,0.1c0,0,0,0.1-0.1,0.1c0,0,0,0-0.1,0C69.5,152.9,69.5,152.9,69.4,152.9z M69.3,152.7c0,0-0.1,0.1,0,0.2
				c0,0.1,0,0.1,0.1,0.1c0,0,0.1,0,0.2,0c0.1,0,0.2,0,0.2-0.1c0.1,0,0.1-0.1,0.1-0.2c0-0.1,0-0.1-0.1-0.1c0,0-0.1,0-0.1,0
				c0,0-0.1,0-0.2,0C69.5,152.6,69.4,152.7,69.3,152.7z"/>
			<path fill="#231F20" d="M69.3,152.2l0.6,0l0,0.1l-0.4,0.2l0.4,0l0,0.1l-0.6,0l0-0.1l0.4-0.2l-0.4,0L69.3,152.2z"/>
			<path fill="#231F20" d="M69.4,151.2l0.6,0.1l0,0.1l-0.5-0.1l0.5,0.2l0,0.1l-0.5,0l0.5,0.1l0,0.1l-0.6-0.1l0-0.2l0.4,0l-0.4-0.1
				L69.4,151.2z"/>
			<path fill="#231F20" d="M70,150.9L70,150.9l0,0.3l-0.6-0.2l0.1-0.3l0.1,0l-0.1,0.2l0.1,0l0-0.2l0.1,0l0,0.2l0.2,0L70,150.9z"/>
			<path fill="#231F20" d="M69.9,150.6l0.3,0l0,0.1L69.9,150.6l0.2,0.3l0,0.1l-0.2-0.2l-0.3,0l0-0.1l0.2,0l-0.1-0.1l0-0.1
				L69.9,150.6z"/>
			<path fill="#231F20" d="M69.7,150.1l0.5,0.2l0,0.1l-0.5-0.2L69.7,150.1z"/>
			<path fill="#231F20" d="M70.2,150l0.1-0.1c0.1,0,0.1,0.1,0.1,0.1c0,0,0,0.1,0,0.2c0,0.1-0.1,0.1-0.1,0.1c-0.1,0-0.1,0-0.3-0.1
				c-0.1,0-0.2-0.1-0.2-0.1c0,0,0-0.1,0-0.2c0-0.1,0.1-0.1,0.1-0.1c0,0,0.1,0,0.2,0l-0.1,0.1c0,0,0,0-0.1,0c0,0-0.1,0-0.1,0
				c0,0,0,0.1,0.1,0.1c0,0,0,0,0.1,0c0,0,0,0,0,0c0.1,0,0.1,0.1,0.2,0.1c0,0,0,0,0.1,0C70.3,150.1,70.3,150.1,70.2,150
				C70.3,150,70.3,150,70.2,150z"/>
			<path fill="#231F20" d="M70.2,149.5l0.2,0.1l-0.1,0.1L70.2,149.5z M70.1,149.5l0.4,0.4l0.1-0.1l-0.1-0.1l0.1-0.1l0.1,0.1l0.1-0.1
				l-0.6-0.2L70.1,149.5z"/>
			<path fill="#231F20" d="M70.5,148.9l0.5,0.4l-0.1,0.1l-0.4-0.1l0.3,0.3l-0.1,0.1l-0.5-0.4l0.1-0.1l0.4,0.1L70.5,148.9L70.5,148.9
				z"/>
			<path fill="#231F20" d="M70.8,148.7l0.2,0.1l-0.1,0.1L70.8,148.7z M70.7,148.7l0.3,0.5l0.1-0.1L71,149l0.1-0.1l0.1,0.1l0.1-0.1
				l-0.5-0.3L70.7,148.7z"/>
			<path fill="#231F20" d="M78.3,148.7C78.3,148.7,78.3,148.7,78.3,148.7l0.2-0.3c0,0,0,0,0,0.1c0,0,0,0,0,0.1L78.3,148.7
				C78.4,148.7,78.4,148.7,78.3,148.7z M78.7,148.5c0,0,0-0.1-0.1-0.2l-0.1-0.1l-0.4,0.4l0.1,0.1c0.1,0.1,0.1,0.1,0.2,0.1
				c0,0,0.1-0.1,0.2-0.1C78.7,148.6,78.7,148.5,78.7,148.5z"/>
			<path fill="#231F20" d="M78.6,149.2l-0.2-0.2l0.5-0.4l0.2,0.2l-0.1,0.1l-0.1-0.1l-0.1,0.1l0.1,0.1l-0.1,0.1l-0.1-0.1l-0.1,0.1
				L78.6,149.2L78.6,149.2z"/>
			<path fill="#231F20" d="M79.4,149.4l-0.1-0.2l-0.1,0.1L79.4,149.4l-0.2,0.1l-0.1-0.1l-0.2,0.1l-0.1-0.1l0.5-0.3L79.4,149.4
				L79.4,149.4z"/>
			<path fill="#231F20" d="M79.4,150c-0.1,0-0.1,0.1-0.2,0.1c0,0-0.1,0-0.1-0.1c0-0.1,0-0.1,0-0.2c0,0,0.1-0.1,0.2-0.1l0.3-0.2
				l0.1,0.1l-0.3,0.2c0,0-0.1,0-0.1,0.1c0,0,0,0,0,0c0,0,0,0,0,0c0,0,0.1,0,0.1,0l0.3-0.2l0.1,0.1L79.4,150z"/>
			<path fill="#231F20" d="M79.8,150.2l-0.1-0.1l-0.4,0.2l-0.1-0.1l0.4-0.2l0-0.1l0.1,0l0.2,0.3L79.8,150.2z"/>
			<path fill="#231F20" d="M79.8,150.5C79.8,150.5,79.8,150.5,79.8,150.5L79.8,150.5c0.1-0.1,0.1,0,0.1,0
				C79.9,150.5,79.9,150.5,79.8,150.5C79.9,150.6,79.9,150.6,79.8,150.5z M79.8,150.7C79.8,150.7,79.8,150.7,79.8,150.7
				C79.9,150.7,79.9,150.7,79.8,150.7c0.1-0.1,0.1-0.1,0.2-0.1c0.1,0,0.1-0.1,0.1-0.1c0,0,0-0.1,0-0.2l-0.1-0.1l-0.6,0.2l0.1,0.2
				c0,0.1,0.1,0.1,0.1,0.1C79.6,150.8,79.7,150.8,79.8,150.7C79.8,150.8,79.8,150.8,79.8,150.7z M79.6,150.7
				C79.6,150.7,79.6,150.6,79.6,150.7l0.1-0.1c0,0,0,0.1,0,0.1C79.7,150.6,79.7,150.6,79.6,150.7C79.7,150.7,79.6,150.7,79.6,150.7z
				"/>
			<path fill="#231F20" d="M79.8,151.1C79.8,151.1,79.7,151.1,79.8,151.1c-0.1-0.1,0-0.1,0-0.1c0,0,0,0,0.1,0l0.1,0
				c0.1,0,0.1,0,0.1,0c0,0,0,0,0,0c0,0,0,0,0,0.1c0,0,0,0-0.1,0c0,0,0,0,0,0c0,0,0,0,0,0C79.9,151.1,79.8,151.1,79.8,151.1z
				 M80.2,151.1c0,0,0-0.1,0-0.2c0-0.1,0-0.1-0.1-0.1c0,0-0.1,0-0.1,0c0,0-0.1,0-0.2,0c-0.1,0-0.2,0.1-0.2,0.1c0,0,0,0.1,0,0.2
				c0,0.1,0,0.1,0.1,0.1c0,0,0.1,0,0.1,0c0,0,0.1,0,0.2,0C80.1,151.2,80.2,151.1,80.2,151.1z"/>
			<path fill="#231F20" d="M79.8,151.6l-0.1-0.3l0.6-0.1l0,0.1l-0.5,0.1l0,0.2L79.8,151.6z"/>
			<path fill="#231F20" d="M80,152l0.3,0L80,152L80,152z M80.4,152.1l0-0.2l-0.6-0.1l0,0.1l0.1,0l0,0.1l-0.1,0l0,0.1L80.4,152.1z"/>
			<path fill="#231F20" d="M80,152.7c-0.1,0-0.1,0-0.1,0c0,0-0.1-0.1-0.1-0.1c0-0.1,0-0.1,0-0.1c0,0,0.1,0,0.2,0l0,0.1
				c0,0-0.1,0-0.1,0c0,0,0,0,0,0c0,0,0,0,0,0c0,0,0,0,0,0c0,0,0.1,0,0.1-0.1c0,0,0.1-0.1,0.1-0.1c0,0,0,0,0,0c0,0,0.1,0,0.1,0
				c0,0,0.1,0,0.1,0c0,0,0.1,0.1,0,0.1c0,0.1,0,0.1,0,0.1c0,0-0.1,0-0.2,0l0-0.1c0,0,0,0,0.1,0c0,0,0,0,0,0c0,0,0,0,0,0c0,0,0,0,0,0
				s0,0,0,0c0,0,0,0-0.1,0.1c0,0,0,0.1-0.1,0.1C80.1,152.7,80.1,152.7,80,152.7z"/>
			<path fill="#231F20" d="M79.9,153C79.9,153,79.9,153,79.9,153c0-0.1,0-0.1,0-0.1c0,0,0,0,0.1,0l0.1,0c0.1,0,0.1,0,0.1,0
				c0,0,0,0,0,0c0,0,0,0,0,0c0,0,0,0-0.1,0c0,0,0,0,0,0c0,0,0,0,0,0C80,153,79.9,153,79.9,153z M80.3,153.1c0,0,0.1-0.1,0.1-0.1
				c0-0.1,0-0.1,0-0.1c0,0-0.1,0-0.1-0.1c0,0-0.1,0-0.2,0c-0.1,0-0.2,0-0.2,0c0,0-0.1,0.1-0.1,0.1c0,0.1,0,0.1,0,0.1
				c0,0,0,0.1,0.1,0.1c0,0,0.1,0,0.2,0C80.2,153.2,80.3,153.2,80.3,153.1z"/>
			<path fill="#231F20" d="M79.9,153.6c-0.1,0-0.1,0-0.2-0.1c0,0,0-0.1,0-0.2c0-0.1,0-0.1,0.1-0.1c0.1,0,0.1,0,0.3,0
				c0.1,0,0.2,0.1,0.2,0.1c0,0,0,0.1,0,0.2c0,0.1,0,0.1-0.1,0.1c0,0-0.1,0-0.2,0l0-0.1c0.1,0,0.1,0,0.1,0c0,0,0,0-0.1-0.1
				c0,0-0.1,0-0.1,0c0,0,0,0,0,0l0,0c0,0-0.1,0-0.1,0c0,0-0.1,0-0.1,0c0,0,0,0,0,0c0,0,0.1,0,0.1,0L79.9,153.6z"/>
			<path fill="#231F20" d="M79.6,153.7l0-0.1l0.1,0l0,0.1L79.6,153.7z"/>
			<path fill="#231F20" d="M79.5,153.9C79.5,153.9,79.5,153.9,79.5,153.9c-0.1-0.1-0.1-0.1-0.1-0.2l0,0
				C79.5,153.8,79.5,153.8,79.5,153.9C79.5,153.9,79.5,153.9,79.5,153.9l0-0.1l0.1,0l0,0.1L79.5,153.9z"/>
			<path fill="#231F20" d="M79.5,154.4l0.2,0.1L79.5,154.4L79.5,154.4z M79.8,154.7l0.1-0.1l-0.5-0.4l-0.1,0.1l0.1,0.1l0,0.1l-0.1,0
				l-0.1,0.1L79.8,154.7z"/>
			<path fill="#231F20" d="M79.1,154.7l0.1-0.1l0.1,0.1l-0.1,0.1L79.1,154.7z"/>
			<path fill="#231F20" d="M79.1,155.2c-0.1,0-0.1-0.1-0.1-0.1c0,0,0-0.1,0-0.2c0-0.1,0.1-0.1,0.1-0.1c0.1,0,0.1,0,0.2,0.1
				c0.1,0.1,0.2,0.1,0.2,0.2c0,0,0,0.1,0,0.2c0,0-0.1,0.1-0.1,0.1c-0.1,0-0.1,0-0.2,0l0.1-0.1c0.1,0,0.1,0,0.1,0c0,0,0,0,0-0.1
				c0,0,0,0-0.1-0.1c0,0,0,0,0,0l0,0c0,0-0.1,0-0.1-0.1c0,0-0.1,0-0.1,0c0,0,0,0,0,0c0,0,0,0,0.1,0.1L79.1,155.2z"/>
			<path fill="#231F20" d="M78.8,155.3l0.1-0.1l0.1,0.1l-0.1,0.1L78.8,155.3z"/>
		</g>
		<path fill="#231F20" d="M72.8,146.5c0,0,0,0.2,0.1,0.2l0.1,0.3l0,0.1c0,0,0.3,0.3,0.5,0.4c0,0,0.1,0,0.2,0c0,0,0,0,0,0v0l0,0
			c0,0,0,0.4,0.1,0.5c0,0,0,0.1,0,0.1c0,0,0,0,0,0c0,0-0.6,0.4-0.6,0.6c0,0.1,0,0.2,0,0.2l0,0c0,0,0,0,0,0c0,0,0,0,0,0
			c0,0,0,0-0.1,0c0,0,0,0,0,0l0,0c-0.2,0.1-0.4,0.3-0.5,0.3v0c0,0,0,0,0,0c0,0,0.1,0,0.5-0.3c0,0,0.1,0,0.1,0.1l0.1,0.2
			c0,0,0,0.1,0,0.1c0,0,0,0,0,0h0l-0.3,0.2l0,0c0,0,0,0,0,0.1c0,0,0,0,0,0h0l0.4-0.2c0,0,0,0,0,0c0,0,0,0,0,0c0,0,0-0.1,0-0.1
			l-0.1-0.2c0,0,0,0,0-0.1c0,0,0,0,0,0c0,0,0,0,0,0c0,0,0.1,0,0.1,0c0,0,0,0.1,0.2,0c0.1,0,0.2,0,0.2,0c0,0,0,0,0,0l0,0v0
			c0,0,0,0,0,0l0,0l-0.2,0.1l0,0.1v0c0,0,0,0,0,0c0,0,0,0,0.1,0h0c0,0,0.2-0.2,0.2-0.2c0,0,0,0,0.1,0l0,0l0.3,0.5h0.1v-0.1l-0.1-0.2
			c0,0,0,0,0,0c0,0,0,0,0.1,0h0.2c0,0,0,0,0,0s0,0,0,0.1l-0.1,0.3h0.3l-0.1-0.3c0,0,0-0.1,0-0.1c0,0,0,0,0,0c0,0,0.2,0,0.2,0
			c0,0,0,0,0,0c0,0,0,0,0,0s0,0,0,0c0,0-0.1,0.1-0.1,0.2c0,0,0,0.1,0,0.1l0,0h0.1l0-0.1v0c0,0,0,0,0,0c0,0,0-0.1,0.1-0.2
			c0,0,0.1-0.1,0.1-0.1c0,0,0,0,0,0h0c0,0,0,0,0,0c0,0,0,0,0.1,0c0,0,0,0,0,0l0,0c0,0,0,0,0,0l0,0l0,0c-0.1,0.1-0.2,0.3-0.2,0.4
			c0,0,0,0,0,0l0,0h0.1l0,0c0.1-0.2,0.2-0.4,0.2-0.4h0l0,0c0,0,0,0,0,0l0,0l0,0h0c0,0,0,0,0.1,0c0,0,0,0,0,0c0,0,0-0.1,0-0.1
			c0,0,0,0,0,0c0,0,0,0,0,0c0,0,0,0,0-0.2c0,0,0,0,0-0.1c0,0,0.1,0,0.2,0l0.6,0.3c0,0,0.1,0,0.1,0c0,0,0,0,0,0c0,0,0,0,0,0
			c0,0,0,0,0,0v0c0,0-0.1-0.1-0.3-0.2c0,0-0.5-0.3-0.7-0.2c0,0,0,0,0,0c0,0,0,0,0-0.1c0,0,0-0.3-0.2-0.3l0,0h0c0,0-0.2,0-0.3-0.1h0
			v0c0,0-0.1-0.1-0.1-0.1c0,0,0,0,0,0c0,0,0.1-0.1,0.1-0.1c0,0,0,0,0,0c0,0,0.1,0.2,0.3,0.2c0.1,0,0.2,0,0.2,0l0,0h0
			c0,0,0.1,0.1,0.3,0c0,0,0.2-0.1,0.2-0.1c0,0,0.2,0,0.3-0.1c0,0,0.1,0,0.1,0l0,0l0.1-0.1l0,0c0,0,0-0.1,0.1-0.1c0,0,0.1,0,0.1,0
			c0,0,0.4,0.2,0.5,0.3c0,0,0.2,0.2,0.4,0l0,0l0,0c0,0,0.3-0.3,0.3-0.4c0,0,0-0.1,0.1-0.1c0,0,0,0,0,0l0,0l0-0.1l-0.1-0.1l-0.3,0.4
			c0,0-0.1,0.1-0.1,0c0,0-0.1-0.1-0.1-0.1c0,0-0.1-0.1-0.1-0.1c-0.1,0-0.2-0.1-0.2-0.2c-0.1-0.1,0.1-0.2,0.1-0.3c0-0.1,0-0.3,0-0.4
			c0-0.1-0.1-0.6,0.1-0.6h0l0.1-0.1l0,0c0,0-0.2-0.1-0.2-0.2c0,0,0-0.6-0.2-0.9c0,0-0.5-0.7-1-1c0,0-0.8-0.5-1.1-0.6
			c0,0-0.9-0.3-1.5-0.2c0,0-0.2,0-0.3,0.1c0,0,0,0.1,0,0.1c0,0,0,0.1,0.2,0.3c0.1,0.1,0.2,0.1,0.3,0.2c0.1,0.1,0.1,0.1,0.2,0.2
			c0,0.1,0.1,0.2,0.1,0.3c0,0.1,0,0.2,0,0.3c0,0,0,0.1-0.1,0.1c0,0-0.1-0.1-0.1-0.1c0,0-0.1-0.1-0.1-0.1c0,0-0.1-0.1-0.1-0.2
			c0-0.1-0.1-0.1-0.2-0.2c-0.1-0.1-0.2-0.2-0.3-0.3c0,0-0.1-0.1-0.1-0.1c0,0-0.1,0-0.1-0.1c-0.1-0.1-0.1-0.2-0.1-0.3
			c0,0-0.1-0.1-0.1-0.1c-0.1,0-0.2,0.1-0.2,0.1c-0.1,0-0.2,0.1-0.3,0.1c-0.2,0-0.4,0.1-0.4,0.1c-0.1,0-0.2,0-0.3,0.2
			c-0.1,0.2,0,0.3,0.1,0.4c0.1,0.1,0.2,0.1,0.2,0.1c0,0,0-0.1,0.1-0.1c0.1,0,0.1,0,0.3,0.1c0.2,0,0.3,0,0.4,0c0.1,0,0.1,0.2,0.1,0.3
			c0,0.2-0.1,0.3-0.1,0.5c0,0.1,0,0.4,0,0.4C72.7,146.1,72.8,146.3,72.8,146.5z"/>
		<path fill="#FFFFFF" d="M73.2,145.4c0,0-0.2,0-0.1,0.1c0,0,0.2,0.1,0.2,0.1c0,0,0,0,0.1,0c0,0,0.2-0.1,0.3-0.1c0,0,0,0,0-0.1
			c0,0,0-0.1-0.2-0.1L73.2,145.4z"/>
		<g>
			<path fill="#FFFFFF" d="M72.8,146c0,0,0.1,0,0.1,0c0,0,0.1,0,0.1,0c0,0,0.1,0.2,0.1,0.3c0,0,0,0.3,0,0.3
				C73.1,146.5,72.9,146.4,72.8,146z"/>
			<path fill="#FFFFFF" d="M73.1,145.9L73.1,145.9c0.1,0,0.1,0,0.2,0.1c0,0,0.2,0.2,0.1,0.3c0,0,0,0-0.1-0.1
				C73.3,146.2,73,146,73.1,145.9z"/>
			<path fill="#FFFFFF" d="M73.2,146.3C73.2,146.3,73.2,146.2,73.2,146.3c0.1,0,0.5,0.4,0.5,0.8c0,0,0,0.1-0.1,0
				c0,0-0.2-0.2-0.2-0.2c0,0,0,0,0-0.1c0,0,0-0.1-0.1-0.2c0,0,0,0,0-0.1L73.2,146.3z"/>
			<path fill="#FFFFFF" d="M73,146.6C73,146.6,73,146.5,73,146.6c0.1-0.1,0.3,0,0.3,0.4c0,0,0,0.2-0.1,0.1
				C73.2,147.1,73.1,146.9,73,146.6z"/>
			<path fill="#FFFFFF" d="M73.5,145.9C73.5,145.9,73.4,145.8,73.5,145.9c0-0.1,0-0.2,0.1-0.1c0,0,0.3,0.2,0.4,1c0,0,0,0.2,0,0.1
				c0,0-0.3-0.2-0.3-0.3c0,0,0,0,0-0.1c0,0,0-0.1-0.1-0.1c0,0-0.1-0.1,0-0.1c0,0,0.1-0.1-0.1-0.3C73.4,146,73.3,145.9,73.5,145.9
				c-0.1,0,0,0.1,0.1,0.1c0,0,0.1,0.1,0.1,0C73.6,146,73.6,145.9,73.5,145.9z"/>
			<path fill="#FFFFFF" d="M73.5,147c0,0-0.1-0.1-0.1,0c0,0,0,0.2,0.1,0.3c0,0,0.1,0.1,0.2,0c0,0,0.1,0,0-0.1L73.5,147z"/>
			<path fill="#FFFFFF" d="M74,147l-0.1-0.1c0,0-0.1-0.1-0.1,0c0,0,0.2,0.4,0.2,0.5c0,0,0,0.2,0,0.2c0,0,0.1,0.1,0.1-0.2
				C74,147.5,74.1,147.1,74,147z"/>
			<path fill="#FFFFFF" d="M74.1,147.3C74.1,147.3,74.1,147.2,74.1,147.3c0.1,0,0.2,0.3,0.2,0.3c0,0,0.1,0.3,0.1,0.3
				c0,0,0,0.1-0.2-0.1c0,0-0.1-0.1-0.1-0.1c0,0,0,0,0-0.1L74.1,147.3z"/>
			<path fill="#FFFFFF" d="M74.4,148.2C74.4,148.2,74.5,148.2,74.4,148.2c0.1,0.1,0.2,0.1,0.1,0.2c0,0-0.1,0.1-0.1,0
				C74.4,148.3,74.3,148.1,74.4,148.2C74.3,148.1,74.4,148.1,74.4,148.2z"/>
			<path fill="#FFFFFF" d="M74.1,147.9C74.1,147.9,74.2,147.9,74.1,147.9c0.1,0.1,0.1,0.3,0.2,0.4c0,0,0.2,0.2,0.1,0.2
				c0,0-0.1,0.1-0.3,0.1c0,0-0.1,0-0.1,0c0,0-0.1,0-0.1-0.1c0,0,0,0,0.1-0.1c0,0,0-0.1-0.1,0c0,0-0.2,0.1-0.2,0c0,0-0.1-0.1,0-0.1
				c0,0,0.2-0.1,0.2-0.2C74,148.1,74,147.9,74.1,147.9z"/>
			<path fill="#FFFFFF" d="M73.4,148.7c0,0,0.1-0.1,0.1-0.1c0,0,0.1-0.1,0-0.1C73.5,148.5,73.4,148.6,73.4,148.7
				C73.4,148.7,73.3,148.8,73.4,148.7z"/>
			<path fill="#FFFFFF" d="M73.8,148.9c0,0,0-0.1,0.2-0.1c0,0,0.2,0,0.2,0.1c0,0,0,0.1-0.2,0.1C74,149,73.8,149,73.8,148.9z"/>
			<path fill="#FFFFFF" d="M74.5,148.8c0,0,0.1-0.1,0.1-0.1c0,0,0.1,0,0.1,0.1C74.7,148.8,74.6,148.9,74.5,148.8
				C74.5,148.9,74.4,148.9,74.5,148.8z"/>
			<path fill="#FFFFFF" d="M74.3,148.7c0,0,0.1,0,0.1,0.1c0,0-0.1,0.1-0.1,0.1C74.3,148.9,74.1,148.9,74.3,148.7z"/>
			<path fill="#FFFFFF" d="M74.5,148.5C74.4,148.6,74.6,148.6,74.5,148.5c0.3-0.1,0.3,0,0.3,0c0.1,0,0,0.1,0,0.1
				c-0.1,0.1-0.1,0.1-0.1,0.1c0.1,0.1,0.2,0,0.2,0c0.1-0.2,0.4-0.1,0.4-0.1c0.1,0.1,0.1,0,0.1,0c0-0.1-0.2-0.1-0.2-0.1
				c-0.1,0-0.2-0.2-0.2-0.2c-0.1-0.1-0.2,0-0.2,0S74.5,148.5,74.5,148.5z"/>
			<path fill="#FFFFFF" d="M73.7,148.7C73.7,148.7,73.6,148.8,73.7,148.7C73.7,148.8,73.7,148.8,73.7,148.7
				C73.8,148.8,73.8,148.7,73.7,148.7C73.7,148.7,73.7,148.7,73.7,148.7z"/>
			<path fill="#FFFFFF" d="M74.6,149.2c0,0,0.3,0,0.3-0.1l0-0.2c0,0,0-0.1-0.1,0c0,0-0.1,0-0.2,0.1
				C74.6,148.9,74.3,149.1,74.6,149.2z"/>
			<path fill="#FFFFFF" d="M75.1,148.9c0,0,0.4,0,0.5-0.1c0,0,0.1-0.1-0.3-0.1c0,0-0.3,0-0.3,0C75,148.8,75,148.9,75.1,148.9z"/>
			<path fill="#FFFFFF" d="M75.1,149.2c0,0,0.1-0.1,0.1-0.1c0,0-0.1-0.2-0.2,0C75,149,75,149.3,75.1,149.2z"/>
			<path fill="#FFFFFF" d="M74.2,147c0,0,0.5,0.7,0.4,1.1c0,0,0,0.1-0.1,0.1c0,0-0.1,0-0.1-0.2c0,0-0.2-0.7-0.3-0.8
				C74.2,147.2,74,146.8,74.2,147z"/>
			<path fill="#FFFFFF" d="M74,146.4l0,0.2c0,0,0,0.1,0.1,0.1c0,0,0.3,0.4,0.3,0.5c0,0,0,0.1,0.1,0l-0.1-0.4c0,0,0-0.1-0.1-0.1
				C74.3,146.6,74.1,146.3,74,146.4z"/>
			<path fill="#FFFFFF" d="M74.7,146.7c0,0,0,0.8,0,0.9c0,0,0,0.1-0.1,0l-0.1-0.1c0,0-0.1-0.6,0-0.7
				C74.5,146.9,74.6,146.8,74.7,146.7C74.6,146.8,74.6,146.7,74.7,146.7z"/>
			<path fill="#FFFFFF" d="M74.8,147.3C74.8,147.3,74.8,147.2,74.8,147.3c-0.1,0-0.1,0.6-0.1,0.7c0,0,0.1,0.2,0.3,0.1
				c0,0,0.1,0,0-0.3C75,147.8,74.8,147.5,74.8,147.3z"/>
			<path fill="#FFFFFF" d="M74.8,146.8c0,0,0.2,0.1,0.2,0.2c0,0,0.2,0.8,0.2,0.9c0,0,0,0.1-0.1,0c0,0-0.4-0.9-0.4-1
				C74.8,146.9,74.7,146.8,74.8,146.8z"/>
			<path fill="#FFFFFF" d="M75.2,147.2c0,0,0.5,0.8,0.5,0.9c0,0,0.1,0.2-0.1,0.1c0,0-0.3-0.3-0.3-0.4
				C75.3,147.8,75.1,147.1,75.2,147.2z"/>
			<path fill="#FFFFFF" d="M75.3,147.1c0,0,0.7,0.5,0.9,0.9c0,0,0.1,0.2-0.1,0.2c0,0-0.3,0.1-0.3-0.1c0,0-0.4-0.8-0.5-0.9
				C75.3,147.2,75.1,147.1,75.3,147.1z"/>
			<path fill="#FFFFFF" d="M75.4,147c0,0,1.4,0.7,1.4,0.8c0,0,0,0.1-0.1,0.2c0,0-0.3,0.2-0.4,0C76.3,148,75.8,147.3,75.4,147
				C75.4,147.1,75.3,147,75.4,147z"/>
			<ellipse fill="#FFFFFF" cx="75.5" cy="149" rx="0.1" ry="0"/>
			<path fill="#FFFFFF" d="M73.7,145.6C73.7,145.6,73.8,145.6,73.7,145.6c0.1,0,0.2-0.1,0.3,0.1c0,0,0.1,0.2,0,0.3
				c0,0-0.1,0.1-0.2-0.1c0,0-0.1-0.2-0.2-0.2C73.6,145.7,73.5,145.6,73.7,145.6z"/>
			<path fill="#FFFFFF" d="M74.1,145.6C74.1,145.6,74.1,145.7,74.1,145.6c0.1,0,0.2,0,0.2,0.2c0,0,0.2,0.8,0.2,0.8c0,0,0,0.1-0.1,0
				c0,0-0.4-0.4-0.4-0.5c0,0-0.1-0.1,0-0.1c0,0,0.2,0,0.1-0.2C74.1,145.9,74,145.6,74.1,145.6z"/>
			<path fill="#FFFFFF" d="M73.7,145.2c0,0,0.3,0.1,0.3,0.1c0,0,0,0,0.1,0.1c0,0,0.2,0.2,0.2,0.3c0,0,0,0.1,0.1,0.1
				c0,0,0.2,0,0.5,0.6c0,0,0.1,0.1,0.1,0.4c0,0,0,0.2-0.1,0.1c0,0-0.4-0.2-0.4-0.3c0,0-0.3-0.7-0.2-0.8c0,0,0-0.1-0.1-0.1
				C74.3,145.6,73.8,145.6,73.7,145.2C73.7,145.2,73.7,145.1,73.7,145.2z"/>
			<path fill="#FFFFFF" d="M74.7,145.8c0,0,0.2,0.3,0.2,0.4c0,0,0,0.1,0.2,0.1c0,0,0.2,0,0.4,0.3c0,0,0.2,0.3,0.3,0.3
				c0,0,0.1,0,0-0.1c0,0-0.3-0.5-0.3-0.5C75.5,146.2,75.1,145.8,74.7,145.8C74.8,145.7,74.6,145.7,74.7,145.8z"/>
			<path fill="#FFFFFF" d="M75.2,146.4c0,0,0.4,0.2,0.5,0.5c0,0,0,0.2-0.1,0.1c0,0-0.3-0.1-0.3-0.1c0,0,0,0,0-0.1
				C75.2,146.7,75.1,146.3,75.2,146.4z"/>
			<path fill="#FFFFFF" d="M75.8,146.9C75.8,146.9,75.9,146.9,75.8,146.9c0.1,0,0.1-0.1,0.2,0c0,0,0.2,0.3,0.1,0.3
				c0,0-0.1,0.1-0.3-0.1C75.9,147,75.7,146.9,75.8,146.9z"/>
			<path fill="#FFFFFF" d="M76.1,147.2c0,0,0.4,0,0.4,0.1c0,0,0.1,0.1,0.2,0.1c0,0,0.3,0,0.3,0.1c0,0,0,0.2-0.1,0.1L76.1,147.2
				C76,147.2,76,147.2,76.1,147.2z"/>
			<path fill="#FFFFFF" d="M75.5,146c0,0,0.2,0,0.3,0.1c0,0,0.5,0.8,0.6,1c0,0,0.1,0.2-0.1,0c0,0-0.5-0.7-0.6-0.9
				C75.6,146.2,75.4,146,75.5,146z"/>
			<path fill="#FFFFFF" d="M73.8,143.5c0,0-0.3,0-0.2,0.2c0,0,0,0.1,0.3,0.2c0,0,0.4,0.1,0.5,0.8c0,0,0,0.3,0,0.3c0,0-0.2,0.1,0,0.2
				c0,0,0.7,0.5,1.1,0.5c0,0,0.1,0,0-0.1c0,0-0.3-0.3-1-0.6c0,0-0.1-0.1,0-0.1c0,0,0.5,0.2,1,0.1c0,0,0.1,0,0-0.1
				c0,0-0.3-0.2-0.9-0.3c0,0-0.1-0.1,0-0.1c0,0,0.4,0.1,0.8,0.1c0,0,0.2,0,0-0.1c0,0-0.3-0.2-0.8-0.3c0,0-0.1-0.1,0-0.1
				c0,0,0.5,0,0.6,0c0,0,0.1,0,0-0.1c0,0-0.2-0.2-0.8-0.3l-0.3,0c0,0-0.3-0.1,0-0.1c0,0,0.4,0.1,0.9,0c0,0,0.2-0.1,0.1-0.1
				C75.2,143.7,74.5,143.5,73.8,143.5z"/>
			<path fill="#FFFFFF" d="M75.1,144c0,0,0.2-0.1,0.5,0c0,0,0.5,0.2,0.8,0.5c0,0,0.1,0.1-0.1,0.1c0,0-0.7,0-1.1-0.4
				c0,0-0.1-0.1-0.2-0.1C75.1,144.1,75,144,75.1,144z"/>
			<path fill="#FFFFFF" d="M75.2,144.4c0,0,0.3-0.1,0.4,0c0,0,0.2,0.1,0.3,0.1c0,0,0.2,0,0.2,0.1c0,0,0.3,0.4,0.1,0.3l-0.6-0.3
				C75.7,144.7,75.4,144.5,75.2,144.4C75.2,144.5,75.1,144.4,75.2,144.4z"/>
			<path fill="#FFFFFF" d="M75.4,144.9c0,0,0.1,0,0.1,0c0,0,0.1-0.1,0.2,0c0,0,1.1,0.5,0.9,0.6c0,0-0.1,0.1-0.8-0.2
				c0,0-0.2,0-0.2-0.1C75.6,145.1,75.5,145,75.4,144.9C75.4,145,75.4,144.9,75.4,144.9z"/>
			<path fill="#FFFFFF" d="M75.1,145.3l0.5,0c0,0,0.2,0,0.8,0.2c0,0,0.3,0,0.1,0.1c0,0-0.4,0-0.4,0.1c0,0-0.4,0.1-0.6,0L75.1,145.3
				C75.1,145.4,75,145.3,75.1,145.3z"/>
			<path fill="#FFFFFF" d="M75.9,145.8c0,0,0.5,0.5,0.8,1.5c0,0,0,0.1-0.2-0.1c0,0-0.6-1.2-0.8-1.3
				C75.7,145.9,75.6,145.7,75.9,145.8z"/>
			<path fill="#FFFFFF" d="M76.3,145.8c0,0,0.9,0.8,1,1.8c0,0,0,0.1-0.1,0c0,0-0.2-0.1-0.3-0.3c0,0-0.1-0.6-0.8-1.5
				C76.1,145.9,76,145.7,76.3,145.8z"/>
			<path fill="#FFFFFF" d="M76.7,145.7c0,0,0.7,1.1,0.8,1.4c0,0,0.1,0.2,0,0.4c0,0-0.1,0.2-0.1-0.1c0,0-0.1-0.7-0.9-1.5
				c0,0-0.1-0.1,0-0.2C76.5,145.7,76.6,145.6,76.7,145.7z"/>
			<path fill="#FFFFFF" d="M77.2,146.2c0,0,0.4,0.3,0.4,0.5c0,0,0,0.5-0.1,0.2C77.5,146.9,76.9,146,77.2,146.2z"/>
			<path fill="#FFFFFF" d="M77,145.6l0.3,0.1c0,0,0.2,0,0.2,0.3c0,0,0.2,0.7-0.1,0.3c0,0-0.4-0.3-0.4-0.5c0,0-0.3-0.3-0.1-0.3
				C76.8,145.5,76.9,145.5,77,145.6z"/>
			<path fill="#FFFFFF" d="M76.4,144.7c0,0,0.4-0.1,0.6,0.2c0,0,0.4,0.5,0.4,0.7c0,0,0.1,0.2-0.1,0.1c0,0-0.4-0.1-0.5-0.3
				C76.7,145.3,76.3,144.7,76.4,144.7z"/>
		</g>
		<path fill="#FFFFFF" d="M72.8,144.1C72.8,144.1,72.8,144.1,72.8,144.1c0.1-0.1,0.1-0.2-0.1-0.1c0,0-0.3,0.1-0.3,0.2c0,0,0,0,0,0
			L72.8,144.1z"/>
		<path fill="#FFFFFF" d="M72.6,144.2c0,0-0.1,0.2-0.2,0.1c0,0-0.1,0-0.1,0c0,0,0,0.1,0.2,0.1C72.5,144.4,72.8,144.4,72.6,144.2
			C72.7,144.2,72.7,144.1,72.6,144.2z"/>
		<path fill="#FFFFFF" d="M72.6,144.6c0,0-0.2-0.1-0.3-0.1c0,0-0.1,0-0.1-0.1c0,0,0-0.2-0.1-0.2c0,0-0.1,0-0.1,0.1c0,0,0,0-0.1,0
			c0,0-0.2-0.1-0.2,0.2c0,0,0,0.1,0.2,0.2c0,0,0.1,0.1,0.1-0.1c0,0,0-0.1,0.2,0c0,0,0.2,0.1,0.2,0.1c0,0-0.3-0.1-0.3,0
			c0,0,0,0.1,0.1,0.1C72.2,144.6,72.6,144.7,72.6,144.6C72.6,144.7,72.7,144.7,72.6,144.6z"/>
		<path fill="#FFFFFF" d="M73,144.1c0,0,0.2,0.1,0.2,0.2c0,0,0.1,0.1,0,0.1c0,0-0.1,0-0.1,0c0,0-0.1,0-0.1,0.1c0,0,0,0,0.2,0
			c0,0,0.1,0,0.1,0.2c0,0,0,0.1-0.1,0c0,0-0.2-0.1-0.2-0.1c0,0,0,0,0.1,0.1c0,0,0.1,0,0.1,0.2c0,0,0,0.1-0.1,0c0,0-0.4-0.4-0.4-0.5
			c0,0,0.1-0.2,0.2-0.3C72.9,144.2,72.9,144.1,73,144.1z"/>
		<path fill="#FFFFFF" d="M72.9,145.5C72.9,145.4,73,145.4,72.9,145.5c0.1,0,0.1,0,0.1,0c0,0.1,0.1,0.1,0.2,0.1
			c0.2,0.1,0.2,0.2,0,0.2c-0.1,0-0.1,0-0.2,0c-0.1,0-0.1-0.1-0.1-0.2C73,145.6,73,145.6,72.9,145.5C73,145.5,72.9,145.5,72.9,145.5z
			"/>
		<path fill="#FFFFFF" d="M72.7,145.5c0,0.1,0,0.1,0,0.2c0,0,0,0,0,0.1c0,0,0,0,0,0.1c0,0,0.1,0,0.1,0c0.1,0,0-0.1,0-0.2
			c0-0.1,0-0.2,0-0.2c0,0-0.1,0-0.1,0C72.7,145.4,72.7,145.5,72.7,145.5z"/>
		<path fill="#FFFFFF" d="M73,144.9c-0.1-0.1-0.1,0.2-0.1,0.2c0,0,0,0.1,0,0.2c0,0,0,0.1,0.1,0.1c0,0,0-0.1,0.1-0.2
			c0,0,0-0.1,0.1-0.1C73,145,73,145,73,144.9"/>
		<path fill="#FFFFFF" d="M73.4,145.3C73.4,145.3,73.4,145.3,73.4,145.3c0.1,0,0.2,0.1,0.2,0c0.1-0.1-0.3-0.2-0.3-0.2
			c-0.1,0-0.3-0.1-0.3,0.1c0,0.1,0,0.1,0.1,0.1c0.1,0,0.1,0,0.2,0C73.3,145.3,73.4,145.3,73.4,145.3z"/>
		<path fill="#FFFFFF" d="M73.6,145.1c0.1,0,0-0.1-0.1-0.1c-0.1,0-0.2-0.1-0.3,0C73.2,145.1,73.5,145.1,73.6,145.1z"/>
		<path fill="#FFFFFF" d="M73.4,144.8c0,0,0.1,0,0.1,0.1c0.1,0,0.1,0.1,0.1,0.1c0.1,0,0.1,0.1,0.2,0.1c0,0,0.1,0,0.1,0.1
			c0.1,0,0.1,0,0.1-0.1c0,0-0.1-0.1-0.1-0.1c-0.1-0.1-0.1-0.1-0.1-0.2c-0.1-0.1-0.3-0.4-0.4-0.3C73.3,144.5,73.3,144.8,73.4,144.8z"
			/>
	</g>
</g>
<g>
	<path fill="#FFCCB8" d="M109.7,46.2c-1-0.3-2.1,0.2-3.2,1.2c0.5-6.7,0.7-11.6,0.7-11.6c-2.1-31-28.3-27.5-31.4-27
		c-3.1-0.6-29.3-4-31.4,27c0,0,0.2,4.9,0.7,11.6c-1.1-1.1-2.3-1.5-3.2-1.2c-2.7,0.8-3.1,7.1-1,14.1c1.6,5.3,4.2,9.4,6.5,10.8
		c0.8,5.4,1.7,9.7,2.8,11.1c0,0,11.3,15.1,25.3,15.5v0c0.1,0,0.2,0,0.3,0c0.1,0,0.2,0,0.3,0v0c13.9-0.5,25.3-15.5,25.3-15.5
		c1.1-1.4,2-5.7,2.8-11.1c2.3-1.4,4.9-5.5,6.5-10.8C112.8,53.3,112.3,47,109.7,46.2z"/>
	<path fill="#020203" d="M111.6,32.6c0,0-1.1-8.2-3.1-11.5c0,0-3.2-7.3-7.1-10.4c0,0-10.7-10.3-25.1-10.7v0c-0.1,0-0.2,0-0.3,0
		c-0.1,0-0.2,0-0.3,0v0C61.3,0.3,50.6,10.7,50.6,10.7c-3.9,3.1-7.1,10.4-7.1,10.4c-1.9,3.3-3.1,11.5-3.1,11.5
		c-0.3,9.1,5.3,21.5,5.3,21.5c-2.6-13.1,4.6-13.4,4.2-18c-0.6-7.9,0.1-13.8,3.2-16.7c7-6.5,12.6-5.6,16.5-3.9c2.4,1,5.3,2.6,6,2.1
		c0.1-0.1,0,0,0.3,0.2c0.3-0.2,0.3-0.2,0.3-0.2c0.8-0.4,3.6-1.1,6-2.1c3.9-1.7,9.6-2.6,16.5,3.9c3.1,2.9,4.5,9.7,3.2,16.7
		c-0.8,4.5,6.8,4.9,4.2,18C106.3,54.1,112,41.6,111.6,32.6z"/>
</g>
<path fill="none" stroke="#C18963" stroke-width="1.0141" stroke-linecap="round" stroke-linejoin="round" stroke-miterlimit="10" d="
	M62.2,72.9c0,0,12,5.4,25.9-0.6"/>
<circle fill="#431200" cx="61.7" cy="49.2" r="2.3"/>
<g>
	<path fill="#231F20" d="M67,44.1c0,0-0.9-0.3-2.3-0.5c-1.4-0.2-3.3-0.4-5.2-0.3c-0.5,0-1,0.1-1.4,0.1c-0.5,0-0.9,0.1-1.4,0.2
		c-0.4,0.1-0.9,0.2-1.3,0.3c-0.4,0.1-0.8,0.2-1.1,0.3c-0.7,0.2-1.2,0.4-1.6,0.6c-0.4,0.2-0.6,0.3-0.6,0.3l0,0c-0.1,0-0.2,0-0.2-0.1
		c0-0.1,0-0.2,0.1-0.2c0,0,0.2-0.1,0.6-0.3c0.4-0.2,0.9-0.5,1.6-0.7c0.3-0.1,0.7-0.3,1.1-0.4c0.4-0.1,0.8-0.3,1.3-0.4
		c0.4-0.1,0.9-0.2,1.4-0.3c0.5-0.1,1-0.2,1.5-0.2c2-0.2,3.9-0.2,5.4,0c1.5,0.2,2.5,0.4,2.5,0.4l0,0c0.3,0.1,0.5,0.4,0.5,0.8
		C67.7,43.9,67.4,44.2,67,44.1C67,44.1,67,44.1,67,44.1z"/>
</g>
<circle fill="#431200" cx="87.8" cy="49.2" r="2.3"/>
<g>
	<path fill="#231F20" d="M82.2,42.8c0,0,1-0.3,2.5-0.4c1.5-0.2,3.5-0.2,5.4,0c0.5,0,1,0.1,1.5,0.2c0.5,0.1,0.9,0.2,1.4,0.3
		c0.5,0.1,0.9,0.2,1.3,0.4c0.4,0.1,0.8,0.2,1.1,0.4c0.7,0.3,1.2,0.5,1.6,0.7c0.4,0.2,0.6,0.3,0.6,0.3c0.1,0,0.1,0.2,0.1,0.3
		c0,0.1-0.1,0.1-0.2,0.1l0,0c0,0-0.2-0.1-0.6-0.3c-0.4-0.2-0.9-0.4-1.6-0.6c-0.3-0.1-0.7-0.2-1.1-0.3c-0.4-0.1-0.8-0.2-1.3-0.3
		c-0.4-0.1-0.9-0.2-1.4-0.2c-0.5-0.1-0.9-0.1-1.4-0.1c-1.9-0.1-3.8,0.1-5.2,0.3c-1.4,0.2-2.3,0.5-2.3,0.5c-0.3,0.1-0.7-0.1-0.8-0.4
		S81.8,42.9,82.2,42.8C82.2,42.8,82.2,42.8,82.2,42.8L82.2,42.8z"/>
</g>
<g opacity="0.2">
	<path fill="#231F20" d="M81.9,59.9c0.5,0.4,0.9,0.9,1.1,1.5c0.1,0.2,0.1,0.3,0.1,0.5c0,0.2,0,0.3,0,0.5c-0.1,0.3-0.2,0.6-0.4,0.9
		c-0.1,0.1-0.2,0.3-0.3,0.4c-0.1,0.1-0.2,0.3-0.3,0.3c-0.2,0.2-0.5,0.4-0.7,0.6c-0.3,0.2-0.5,0.4-0.8,0.5l-0.8,0.4l0.2-0.1
		c-0.2,0.2-0.3,0.4-0.5,0.5c-0.2,0.2-0.3,0.3-0.5,0.4c-0.2,0.1-0.4,0.2-0.6,0.4c-0.2,0.1-0.4,0.2-0.6,0.3c-0.4,0.2-0.8,0.3-1.3,0.4
		c-0.2,0.1-0.4,0.1-0.7,0.1l-0.7,0.1l-0.7,0c-0.2,0-0.4,0-0.6-0.1c-0.5-0.1-0.9-0.2-1.3-0.4C72.3,67,72,67,71.9,66.9
		c-0.2-0.1-0.4-0.2-0.6-0.3c-0.2-0.1-0.4-0.3-0.5-0.4c-0.2-0.2-0.3-0.3-0.5-0.5l0.2,0.1l-0.8-0.5c-0.3-0.1-0.5-0.3-0.8-0.5
		c-0.3-0.2-0.5-0.4-0.7-0.6c-0.1-0.1-0.2-0.2-0.3-0.4c-0.1-0.1-0.2-0.2-0.3-0.4c-0.2-0.3-0.3-0.6-0.4-0.9c0-0.2-0.1-0.3,0-0.5
		c0-0.2,0-0.3,0.1-0.5c0.2-0.7,0.6-1.1,1.1-1.5c0.1-0.1,0.2,0,0.2,0c0,0.1,0,0.2,0,0.2l0,0c-0.4,0.4-0.7,0.9-0.8,1.4
		c0,0.1,0,0.3,0,0.4c0,0.1,0.1,0.2,0.1,0.4c0.1,0.2,0.2,0.5,0.4,0.7c0.1,0.1,0.2,0.2,0.3,0.3c0.1,0.1,0.2,0.2,0.3,0.3
		c0.2,0.1,0.4,0.3,0.7,0.4c0.3,0.1,0.5,0.3,0.8,0.4l0.8,0.3l0.2,0.1l0.4,0.2c0.1,0.1,0.3,0.1,0.5,0.2c0.2,0.1,0.3,0.1,0.5,0.2
		c0.2,0.1,0.3,0.1,0.5,0.1c0.3,0.1,0.7,0.1,1,0.2c0.2,0,0.4,0,0.6,0l0.5,0l0.5,0c0.2,0,0.4,0,0.5,0c0.3,0,0.7-0.1,1-0.2
		c0.2,0,0.3-0.1,0.5-0.1c0.2-0.1,0.3-0.1,0.5-0.2c0.2-0.1,0.3-0.1,0.5-0.2c0.2-0.1,0.3-0.2,0.4-0.2l0.2-0.1l0.8-0.3
		c0.3-0.1,0.5-0.3,0.8-0.4c0.3-0.1,0.5-0.3,0.7-0.5c0.1-0.1,0.2-0.2,0.3-0.3c0.1-0.1,0.2-0.2,0.3-0.3c0.2-0.2,0.3-0.4,0.4-0.7
		c0-0.1,0.1-0.2,0.1-0.4c0-0.1,0-0.3,0-0.4c-0.1-0.5-0.4-1-0.9-1.3l0,0c-0.1-0.1-0.1-0.2,0-0.3C81.7,59.8,81.8,59.8,81.9,59.9z"/>
</g>
<path opacity="0.1" fill="#232222" d="M60.5,65.7c0,0-3.9,4.9-1.2,15.5C59.3,81.2,52.5,72.3,60.5,65.7z"/>
<path opacity="0.1" fill="#232222" d="M89.7,65.7c0,0,3.9,4.9,1.2,15.5C91,81.2,97.7,72.3,89.7,65.7z"/>
</svg>
