<?xml version="1.0" encoding="utf-8"?>
<!-- Generator: Adobe Illustrator 16.0.0, SVG Export Plug-In . SVG Version: 6.00 Build 0)  -->
<!DOCTYPE svg PUBLIC "-//W3C//DTD SVG 1.1//EN" "http://www.w3.org/Graphics/SVG/1.1/DTD/svg11.dtd">
<svg version="1.1" id="Layer_1" xmlns="http://www.w3.org/2000/svg" xmlns:xlink="http://www.w3.org/1999/xlink" x="0px" y="0px"
	 width="1440px" height="700px" viewBox="0 0 1440 700" enable-background="new 0 0 1440 700" xml:space="preserve">
<rect fill="#5F7482" width="1440" height="700"/>
<g>
	<rect x="887.8" y="80.3" fill="#2D2D2D" width="313.5" height="301.5"/>
	<path fill="#FFFFFF" d="M877.3,64.7v328.9h338.5V64.7H877.3z M898.3,84.7h144.2v288.8H898.3V84.7z M1194.8,373.6h-140.9v-110h8.7
		v-57.2h-8.7V84.7h140.9V373.6z"/>
	<g>
		<circle fill="#F1F2F2" cx="1079.5" cy="125.9" r="3.3"/>
		<circle fill="#F1F2F2" cx="1153" cy="246.4" r="2.5"/>
		<circle fill="#F1F2F2" cx="1114.2" cy="315.9" r="2.5"/>
		<circle fill="#F1F2F2" cx="980.8" cy="288.6" r="2.5"/>
		<circle fill="#F1F2F2" cx="1017.7" cy="183.2" r="2.5"/>
		<circle fill="#F1F2F2" cx="933.3" cy="117.9" r="2.5"/>
		<circle fill="#F1F2F2" cx="911" cy="171.9" r="2.5"/>
		<circle fill="#F1F2F2" cx="993.5" cy="135.4" r="2.5"/>
		<circle fill="#F1F2F2" cx="959.5" cy="177.2" r="2.5"/>
		<circle fill="#F1F2F2" cx="920.8" cy="246.1" r="2.5"/>
		<circle fill="#F1F2F2" cx="1021.5" cy="241.9" r="2.5"/>
		<circle fill="#F1F2F2" cx="1014" cy="329.2" r="2.5"/>
		<circle fill="#F1F2F2" cx="953.5" cy="346.1" r="2.5"/>
		<circle fill="#F1F2F2" cx="929.7" cy="288.6" r="2.5"/>
		<circle fill="#F1F2F2" cx="978.2" cy="229.4" r="2.5"/>
		<circle fill="#F1F2F2" cx="1104.8" cy="226.7" r="2.5"/>
		<circle fill="#F1F2F2" cx="1162.3" cy="314.6" r="2.5"/>
		<circle fill="#F1F2F2" cx="1075.5" cy="297.2" r="2.5"/>
		<circle fill="#F1F2F2" cx="1092.2" cy="350.7" r="2.5"/>
	</g>
	<path fill="#F1F2F2" d="M1148,141.2c16,18.8,49.8,16.3,31,32.3c-18.8,16-47,13.7-63-5c-16-18.8-13.7-47,5-63
		C1139.9,89.4,1132,122.4,1148,141.2z"/>
</g>
<g>
	<rect x="277.7" y="171.8" fill="#232221" width="387.2" height="229.4"/>
	<path fill="#63452B" d="M266,160.7v251.5h410.6V160.7H266z M658.1,397.2H284.5V175.8h373.6V397.2z"/>
</g>
<g>
	<path fill="#776537" d="M414.6,349.3c0,0-4.1,1.5-4.1,8.5c0,2.4,1.3,8.5-3.2,8.8c0,0,5.4,0.6,7-2.8c0,0-0.3,6.3-2.8,7.9
		c0,0,14.9,6.3,17.4-7.9l-1.3-20.9C427.6,343,418.4,339.2,414.6,349.3z"/>
	<path fill="#776537" d="M504,349.3c0,0,4.1,1.5,4.1,8.5c0,2.4-1.3,8.5,3.2,8.8c0,0-5.4,0.6-7-2.8c0,0,0.3,6.3,2.8,7.9
		c0,0-14.9,6.3-17.4-7.9L491,343C491,343,500.2,339.2,504,349.3z"/>
	<g>
		<polygon fill="#B7B7B7" points="409.4,384.2 419.5,383 421.1,394.3 		"/>
		<polygon fill="#B7B7B7" points="509.1,384.2 499,383 497.4,394.3 		"/>
		<path fill="#F4B07D" d="M519.2,452.7H400c0,0,19.5-72.1,19.5-106.6c0-20,79.8-20,79.8,0C499.3,396,519.2,452.7,519.2,452.7z"/>
		<g>
			<path fill="#776537" d="M504.6,278.4c-13.6-10.4-24.2-11.1-31.6-8.8c-10.9,0.7-9.4-12-9.4-12c-5.1,1.8-7.6,13.8-7.6,13.8
				c0-5.8-6-11.6-6-11.6c1.5,6.4-1.7,8.8-3,9.6c-7.4-2-17.8-1-30.9,9c-11.6,8.9-16.7,45.9,2.8,65.5l41.5-46.4l41.5,46.4
				C521.4,324.4,516.2,287.3,504.6,278.4z"/>
			<path fill="#F4B07D" d="M496.9,302.8c0,0-13.4-17.2-38.9-16.8c-25.4-0.4-36.1,16.8-36.1,16.8c-8.9,14.6-6.3,59.7-6.3,59.7
				c0,22.3,31,40.1,44,40.1c13,0,44.1-16.6,44.1-40.1C503.7,362.5,505.9,317.4,496.9,302.8z"/>
			<g>
				<path opacity="0.1" fill="#232222" d="M479.6,377.9c0,0-3.3,12-20.7,12c-17.3,0-20.7-12-20.7-12s6.3,8.8,21.5,8.8
					C459.6,386.7,469.7,387.8,479.6,377.9z"/>
			</g>
			<g opacity="0.2">
				<path fill="#231F20" d="M470.4,340c0.5,0.5,1,1.1,1.3,1.8c0.2,0.3,0.3,0.7,0.4,1.1c0,0.2,0.1,0.4,0.1,0.6c0,0.2,0,0.4,0,0.6
					c0,0.2-0.1,0.4-0.2,0.6c-0.1,0.2-0.2,0.4-0.3,0.6c-0.1,0.2-0.2,0.4-0.4,0.5l-0.5,0.4c-0.1,0.1-0.3,0.2-0.5,0.3l-0.5,0.3l-1,0.4
					l0,0l-0.1,0c-0.4,0.1-0.9,0.2-1.3,0.3c-0.4,0.1-0.8,0.3-1.2,0.5c-0.2,0.1-0.4,0.2-0.6,0.3l-0.5,0.4c-0.3,0.3-0.5,0.5-0.8,1
					c-0.3,0.4-0.6,0.9-1.1,1.3c-0.5,0.4-1,0.6-1.5,0.8c-0.5,0.2-1.1,0.2-1.6,0.3c-0.5,0-1,0.1-1.6,0.1c-0.5,0-1,0-1.5-0.1
					c-0.5-0.1-1.1-0.1-1.6-0.3c-0.3-0.1-0.5-0.2-0.8-0.3c-0.3-0.1-0.5-0.3-0.7-0.5c-0.5-0.3-0.8-0.8-1.1-1.3l-0.2-0.3l0-0.1l0,0
					c0,0-0.1-0.1,0.1,0.1l0,0l0,0l0,0l-0.1-0.1c-0.2-0.2-0.3-0.4-0.5-0.5c-0.1-0.1-0.3-0.2-0.4-0.3c-0.2-0.1-0.4-0.2-0.6-0.3
					c-0.4-0.2-0.8-0.4-1.2-0.5c-0.4-0.2-0.9-0.3-1.3-0.3l-0.1,0l0,0l-1-0.4l-0.5-0.3c-0.2-0.1-0.3-0.2-0.5-0.3l-0.5-0.4
					c-0.1-0.2-0.3-0.3-0.4-0.5c-0.1-0.2-0.2-0.4-0.3-0.6c-0.1-0.2-0.1-0.4-0.2-0.6c0-0.2,0-0.4,0-0.6c0-0.2,0-0.4,0.1-0.6
					c0.1-0.4,0.2-0.8,0.4-1.1c0.2-0.3,0.4-0.6,0.6-0.9c0.2-0.3,0.4-0.6,0.7-0.8c0.2-0.2,0.6-0.2,0.8,0c0.2,0.2,0.2,0.5,0,0.7l0,0
					c-0.2,0.2-0.4,0.5-0.6,0.7c-0.2,0.3-0.3,0.5-0.4,0.8c-0.1,0.3-0.2,0.6-0.3,0.8c0,0.1,0,0.3,0,0.4c0,0.1,0,0.3,0,0.4
					c0,0.1,0,0.2,0.1,0.3c0.1,0.1,0.1,0.2,0.2,0.3c0.1,0.1,0.1,0.2,0.2,0.3l0.3,0.3c0.1,0.1,0.2,0.2,0.4,0.2l0.4,0.2l0.9,0.3l-0.1,0
					c0.5,0.1,1,0.2,1.5,0.4c0.5,0.1,1,0.3,1.5,0.6c0.2,0.1,0.5,0.2,0.7,0.4c0.2,0.2,0.5,0.4,0.7,0.6c0.2,0.2,0.3,0.4,0.5,0.6
					l0.1,0.1l0,0l0.1,0.1l0,0l0,0.1l0.2,0.3c0.3,0.4,0.5,0.7,0.8,0.9c0.1,0.1,0.3,0.2,0.5,0.3c0.2,0.1,0.4,0.2,0.6,0.2
					c0.4,0.1,0.8,0.2,1.2,0.3c0.4,0.1,1,0,1.4,0.1l1.3-0.1c0.4-0.1,0.9-0.1,1.3-0.2c0.2-0.1,0.4-0.1,0.6-0.2
					c0.2-0.1,0.3-0.2,0.5-0.3c0.3-0.2,0.5-0.5,0.8-0.9c0.2-0.4,0.6-0.9,1-1.3l0.7-0.5c0.2-0.1,0.5-0.3,0.7-0.4
					c0.5-0.2,1-0.4,1.5-0.6c0.5-0.2,1-0.3,1.5-0.4l-0.1,0l0.9-0.3l0.4-0.2c0.1-0.1,0.3-0.1,0.4-0.2l0.3-0.3c0.1-0.1,0.2-0.2,0.2-0.3
					c0.1-0.1,0.1-0.2,0.2-0.3c0.1-0.1,0.1-0.2,0.1-0.3c0-0.1,0-0.2,0-0.4c0-0.1,0-0.3,0-0.4c0-0.3-0.1-0.6-0.3-0.8
					c-0.2-0.5-0.6-1.1-1-1.5l0,0c-0.2-0.2-0.2-0.6,0-0.8C469.9,339.8,470.2,339.8,470.4,340z"/>
			</g>
			<path fill="#2E230E" d="M439.9,332.1c0,1.3-1.1,2.4-2.4,2.4c-1.3,0-2.4-1.1-2.4-2.4c0-1.3,1.1-2.4,2.4-2.4
				C438.8,329.7,439.9,330.8,439.9,332.1z"/>
			<path fill="#593B2E" d="M424.8,331.2c0,0,8.3-7.9,20-4.8c0,0,3.4-2,0.5-3.2C445.3,323.2,431.3,320.8,424.8,331.2z"/>
			<path fill="#2E230E" d="M477.6,327.9c0,1.3,1.1,2.4,2.4,2.4c1.3,0,2.4-1.1,2.4-2.4c0-1.3-1.1-2.4-2.4-2.4
				C478.7,325.5,477.6,326.6,477.6,327.9z"/>
			<path fill="#593B2E" d="M493,322.7c0,0-9-7.1-20.4-3c0,0-3.5-1.7-0.7-3.2C471.9,316.5,485.6,312.9,493,322.7z"/>
			<path fill="#F4B07D" d="M419.3,335.6c0,0-8.4-13.7-11.4-1c-0.9,3.9-1,25.1,11,11.7"/>
			
				<path fill="none" stroke="#C18963" stroke-width="1.3367" stroke-linecap="round" stroke-linejoin="round" stroke-miterlimit="10" d="
				M413.9,335.9c0,0-4.3,3.3,0,8.4"/>
			<path fill="#F4B07D" d="M498.6,335.6c0,0,8.4-13.7,11.4-1c0.9,3.9,1,25.1-11,11.7"/>
			
				<path fill="none" stroke="#C18963" stroke-width="1.3367" stroke-linecap="round" stroke-linejoin="round" stroke-miterlimit="10" d="
				M504,335.9c0,0,4.3,3.3,0,8.4"/>
			
				<path fill="none" stroke="#C18963" stroke-width="1.0141" stroke-linecap="round" stroke-linejoin="round" stroke-miterlimit="10" d="
				M464.1,362.1c0,0-7.8-5.9-16-1.5"/>
			<path fill="#776537" d="M414.3,288.1c0,0-4.9,29.3-4.2,29.5c0.7,0.2,23.6-11.9,23.6-11.9l26.6-9.2l39.5,12.1l8-3.3l-4.2-20.9
				l-38.5-4l-30.3,3.3L414.3,288.1z"/>
			<path opacity="0.3" fill="#231F20" d="M460.1,296.5c0,0,16,37.2,51.7,18.2c0,0-10.2-5.5-11.9-12.6"/>
			<path opacity="0.3" fill="#231F20" d="M459.9,296.2c0,0-9.6,28.1-44.8,18.7c0,0,8.1-3.9,11-10.5"/>
			<path fill="#776537" d="M460.3,296.5c0,0,15,32.2,48.9,17.7c0,0-7.7-5.7-9.4-12.7"/>
			<path fill="#776537" d="M459.9,296.2c0,0-12.3,22.8-41.2,17.9c0,0,6.3-5.3,7.4-11.5"/>
		</g>
	</g>
	
		<path fill="none" stroke="#F4B07D" stroke-width="24.4172" stroke-linecap="round" stroke-linejoin="round" stroke-miterlimit="10" d="
		M416.7,406.5c0,0-46.7,33.9-50.7,70.2c-4.2,37.5-2.1,46.5-2.1,66.4"/>
	<path fill="none" stroke="#282828" stroke-width="25.0046" stroke-linejoin="round" stroke-miterlimit="10" d="M416.7,406.5
		c0,0-46.7,33.9-50.7,70.2c-4.2,37.5-2.1,46.5-2.1,66.4"/>
	
		<path fill="none" stroke="#F4B07D" stroke-width="24.4172" stroke-linecap="round" stroke-linejoin="round" stroke-miterlimit="10" d="
		M503,406.5c0,0,46.7,33.9,50.7,70.2c4.2,37.5,2.1,46.5,2.1,66.4"/>
	<path fill="none" stroke="#282828" stroke-width="25.0046" stroke-linejoin="round" stroke-miterlimit="10" d="M503,406.5
		c0,0,46.7,33.9,50.7,70.2c4.2,37.5,2.1,46.5,2.1,66.4"/>
	<path fill="#F4B07D" d="M413.5,400.7c-7.1,30.3-20.8,27.9-20.8,79.2c0,63.1,0,51.8,0,53.4c0,0.1,6.9,0.2,6.9,0.2h59.9V400.7H413.5z
		"/>
	<path fill="#F4B07D" d="M503.4,400.7c7.1,30.3,20.8,27.9,20.8,79.2c0,63.1,0,51.8,0,53.4c0,0.1-6.9,0.2-6.9,0.2h-59.9V400.7H503.4z
		"/>
	<g>
		<circle opacity="0.2" fill="#232222" cx="428.1" cy="445.8" r="6"/>
		<path opacity="0.2" fill="#232222" d="M431.1,445.8c0,1.7-1.3,3-3,3c-1.7,0-3-1.4-3-3s1.3-3,3-3
			C429.8,442.8,431.1,444.1,431.1,445.8z"/>
	</g>
	<g>
		<circle opacity="0.2" fill="#232222" cx="488.8" cy="445.8" r="6"/>
		<path opacity="0.2" fill="#232222" d="M491.8,445.8c0,1.7-1.3,3-3,3c-1.7,0-3-1.4-3-3s1.3-3,3-3
			C490.4,442.8,491.8,444.1,491.8,445.8z"/>
	</g>
	<path opacity="0.2" fill="#232222" d="M461.2,505.2c0,1.7-0.8,3-1.9,3c-1,0-1.9-1.3-1.9-3c0-1.7,0.8-3,1.9-3
		C460.4,502.2,461.2,503.6,461.2,505.2z"/>
	<rect x="392.7" y="529.4" fill="#161516" width="131.8" height="9.9"/>
	<rect x="449.8" y="529.4" fill="#D6D6D6" width="18.8" height="9.9"/>
	<rect x="413" y="399.2" fill="#FFFFFF" width="90.1" height="130.3"/>
	<path fill="#282828" d="M384.5,498.9c0,0-0.5,31.5-2.7,45.9c0,0,4.2,1.9,14.8,1.9c0,0,21.5,2.5,23.8-0.2l-0.6-31.6L384.5,498.9z"/>
	<path fill="#282828" d="M419.9,395.2v135.6h-34.1c0,0-10.4-98.9,23.8-135.6H419.9z"/>
	<path fill="#282828" d="M535.5,502.7c0,0,0,32.2,3.3,43c0,0-7.9,2.1-18.5,2.1c0,0-19.8,1.5-22.2-1.3l0.6-31.6L535.5,502.7z"/>
	<path fill="#282828" d="M498.7,395.2v135.6h36.6c0,0,6.2-112.4-26.3-135.6H498.7z"/>
	<polygon fill="#2D2D2D" points="419.3,395.2 401,419.1 418.2,420.4 401,442.2 419.3,509.1 	"/>
	<polygon fill="#2D2D2D" points="498.6,395.2 516.9,419.1 499.7,420.4 516.9,442.2 498.6,509.1 	"/>
	<g>
		<g>
			<polygon fill="#EA94C7" points="445.4,399.8 458.8,413.3 472.8,399.8 459.2,396.3 			"/>
			<path fill="#EA94C7" d="M463.5,407.5l-4.2-4.3v-0.5l-0.2,0.2l-0.2-0.2l0,0.5l-4.2,4.3l-9.8,93.6c0,0,10.8,24.4,14.5,24.4
				c4.7,0,14-24.4,14-24.4L463.5,407.5z"/>
		</g>
		<polygon fill="#D6D6D6" points="413.2,385.5 459.6,396.3 445.2,411.6 409.4,395.2 409.4,384.2 		"/>
		<polygon fill="#D6D6D6" points="505.5,385.5 459.2,396.3 473.5,411.6 509.3,395.2 509.3,384.2 		"/>
	</g>
	<g>
		<path fill="#F4B07D" d="M491,381.6c0,0-5.1,17-32.1,17c-26.8,0-32.1-17-32.1-17s9.8,12.5,33.3,12.5
			C460,394.1,475.6,395.6,491,381.6z"/>
	</g>
</g>
<text transform="matrix(1 0 0 1 295.1621 250.3604)" opacity="0.3" fill="#FFFFFF" font-family="'BebasNeue'" font-size="76.1294"> Bosnia</text>
<g>
	<rect x="277.1" y="490.8" fill="#3F2B1C" width="485.1" height="210.2"/>
	<polygon opacity="0.1" fill="#231F20" points="277.1,701 762.3,701 762.3,490.8 	"/>
	<rect x="264.9" y="475.6" fill="#2D1F15" width="509.6" height="20.3"/>
</g>
<g>
	
		<rect x="528.5" y="473" fill="#FFFFFF" stroke="#6B6B6B" stroke-width="0.1447" stroke-miterlimit="10" width="102.3" height="2.4"/>
	
		<rect x="533.1" y="470.8" fill="#FFFFFF" stroke="#6B6B6B" stroke-width="0.1447" stroke-miterlimit="10" width="102.3" height="2.4"/>
	
		<rect x="530.1" y="468.4" fill="#FFFFFF" stroke="#6B6B6B" stroke-width="0.1447" stroke-miterlimit="10" width="102.3" height="2.4"/>
	
		<rect x="533.9" y="466.1" fill="#FFFFFF" stroke="#6B6B6B" stroke-width="0.1447" stroke-miterlimit="10" width="102.3" height="2.4"/>
	
		<rect x="531.4" y="463.8" fill="#FFFFFF" stroke="#6B6B6B" stroke-width="0.1447" stroke-miterlimit="10" width="102.3" height="2.4"/>
</g>
<g>
	<circle opacity="0.1" fill="#231F20" cx="475.1" cy="82.5" r="54"/>
	<circle fill="#3F4E56" cx="473.8" cy="81.2" r="50.1"/>
	<circle fill="#EDEEEF" cx="473.8" cy="81.2" r="46.6"/>
	<circle fill="#5F7482" cx="473.8" cy="81.8" r="2.9"/>
	
		<line fill="none" stroke="#3F4E56" stroke-width="0.6423" stroke-linecap="round" stroke-linejoin="round" stroke-miterlimit="10" x1="433.6" y1="81.8" x2="442.2" y2="81.8"/>
	
		<line fill="none" stroke="#3F4E56" stroke-width="0.6423" stroke-linecap="round" stroke-linejoin="round" stroke-miterlimit="10" x1="505.2" y1="81.8" x2="513.9" y2="81.8"/>
	
		<line fill="none" stroke="#3F4E56" stroke-width="0.6423" stroke-linecap="round" stroke-linejoin="round" stroke-miterlimit="10" x1="473.7" y1="42" x2="473.7" y2="50.7"/>
	
		<line fill="none" stroke="#3F4E56" stroke-width="0.6423" stroke-linecap="round" stroke-linejoin="round" stroke-miterlimit="10" x1="473.7" y1="113.7" x2="473.7" y2="122.3"/>
	
		<line fill="none" stroke="#5F7482" stroke-width="2.5693" stroke-linecap="round" stroke-linejoin="round" stroke-miterlimit="10" x1="473.8" y1="81.2" x2="473.8" y2="59.4"/>
	
		<line fill="none" stroke="#5F7482" stroke-width="3.2108" stroke-linecap="round" stroke-linejoin="round" stroke-miterlimit="10" x1="474.2" y1="81.8" x2="508.3" y2="81.8"/>
</g>
<g>
	<path fill="#FFFFFF" d="M827.1,216.6c0-14.9-10-27.4-23.6-31.4c-8.8-24.2-34.1-41.7-63.9-41.7c-1.9,0-3.8,0.1-5.7,0.2
		c-12.3-13.7-31.1-22.4-52.2-22.4c-21.1,0-39.9,8.8-52.2,22.5c-2.1-0.2-4.3-0.3-6.5-0.3c-30.3,0-56,18.1-64.4,43
		c-11.8,4.9-20,16.6-20,30.1c0,14.5,9.4,26.7,22.4,31c10.2,21.8,34.1,37,62,37c2.2,0,4.3-0.1,6.5-0.3c12.3,13.7,31.1,22.5,52.2,22.5
		c21.1,0,39.9-8.7,52.2-22.4c1.9,0.1,3.8,0.2,5.7,0.2c27.4,0,51-14.8,61.5-36.1C815.9,245.5,827.1,232.3,827.1,216.6z"/>
	<g>
		<g>
			<path fill="#666666" d="M737,187.8c-20.4,0-36.9,23.7-36.9,52.9c0,0.3,0,0.6,0,0.8H774c0-0.3,0-0.6,0-0.8
				C774,211.5,757.5,187.8,737,187.8z"/>
			<circle fill="#666666" cx="736.1" cy="178.5" r="21.2"/>
		</g>
		<g>
			<path fill="#666666" d="M626,187.8c-20.4,0-36.9,23.7-36.9,52.9c0,0.3,0,0.6,0,0.8H663c0-0.3,0-0.6,0-0.8
				C663,211.5,646.4,187.8,626,187.8z"/>
			<circle fill="#666666" cx="625.1" cy="178.5" r="21.2"/>
		</g>
		<g>
			<path fill="#7A7A7A" d="M681.9,195.9c-26,0-47,30.1-47,67.3c0,0.4,0,0.7,0,1.1h94c0-0.4,0-0.7,0-1.1
				C729,226,707.9,195.9,681.9,195.9z"/>
			<circle fill="#7A7A7A" cx="680.7" cy="183.9" r="27"/>
		</g>
		<text transform="matrix(1 0 0 1 671.1855 250.0996)" fill="#4C4B4B" font-family="'BebasNeue'" font-size="52.1776">?</text>
	</g>
</g>
<path fill="#FFFFFF" d="M637.5,323.5c0-2.7-1.8-5-4.3-5.8c-1.6-4.5-6.3-7.7-11.7-7.7c-0.4,0-0.7,0-1.1,0c-2.3-2.5-5.7-4.1-9.6-4.1
	c-3.9,0-7.3,1.6-9.6,4.1c-0.4,0-0.8-0.1-1.2-0.1c-5.6,0-10.3,3.3-11.8,7.9c-2.2,0.9-3.7,3-3.7,5.5c0,2.7,1.7,4.9,4.1,5.7
	c1.9,4,6.3,6.8,11.4,6.8c0.4,0,0.8,0,1.2-0.1c2.3,2.5,5.7,4.1,9.6,4.1c3.9,0,7.3-1.6,9.6-4.1c0.3,0,0.7,0,1.1,0
	c5,0,9.4-2.7,11.3-6.6C635.4,328.8,637.5,326.4,637.5,323.5z"/>
<path fill="#FFFFFF" d="M572.5,340c0-1.6-1.1-2.9-2.5-3.3c-0.9-2.6-3.6-4.4-6.8-4.4c-0.2,0-0.4,0-0.6,0c-1.3-1.4-3.3-2.4-5.5-2.4
	c-2.2,0-4.2,0.9-5.5,2.4c-0.2,0-0.5,0-0.7,0c-3.2,0-5.9,1.9-6.8,4.5c-1.2,0.5-2.1,1.8-2.1,3.2c0,1.5,1,2.8,2.4,3.3
	c1.1,2.3,3.6,3.9,6.6,3.9c0.2,0,0.5,0,0.7,0c1.3,1.4,3.3,2.4,5.5,2.4c2.2,0,4.2-0.9,5.5-2.4c0.2,0,0.4,0,0.6,0
	c2.9,0,5.4-1.6,6.5-3.8C571.3,343,572.5,341.6,572.5,340z"/>
</svg>
