<?xml version="1.0" encoding="utf-8"?>
<!-- Generator: Adobe Illustrator 16.0.0, SVG Export Plug-In . SVG Version: 6.00 Build 0)  -->
<!DOCTYPE svg PUBLIC "-//W3C//DTD SVG 1.1//EN" "http://www.w3.org/Graphics/SVG/1.1/DTD/svg11.dtd">
<svg version="1.1" id="Layer_1" xmlns="http://www.w3.org/2000/svg" xmlns:xlink="http://www.w3.org/1999/xlink" x="0px" y="0px"
	 width="151.9px" height="454.1px" viewBox="0 0 151.9 454.1" enable-background="new 0 0 151.9 454.1" xml:space="preserve">
<g>
	<g>
		<g>
			<g>
				<path fill="#FFC5B3" d="M141.8,246.9c-5.4,0-9.7-4.4-9.7-9.7c0-3.5,0.1-7.5,0.2-12c0.3-15.2,0.7-36.1-1.7-58.2
					c-2.2-19.6-26.4-41.1-35.5-47.8c-4.3-3.2-5.3-9.2-2.1-13.6c3.2-4.3,9.2-5.3,13.6-2.2c1.6,1.2,39.8,29.2,43.4,61.3
					c2.6,23.3,2.2,45,1.8,60.8c-0.1,4.5-0.2,8.3-0.2,11.6C151.5,242.6,147.1,246.9,141.8,246.9z"/>
			</g>
			<g>
				<path fill="#203F39" d="M128.8,159.9c-7.4-21.3-33.6-40.5-33.8-40.7l11.4-15.7c1.3,0.9,31.4,23,40.8,50.1L128.8,159.9z"/>
			</g>
			<g>
				<path fill="#238557" d="M128.8,159.9c-1.7-4.9-4.6-10.2-8.7-15.7l15.6-11.5c5.2,7.1,9,14.1,11.4,20.9L128.8,159.9z"/>
			</g>
			<path fill="#FFFFFF" d="M133.9,130.2c-0.2,0.1-0.5,0.2-0.8,0.3c-10.8-14.4-23.9-24.1-24-24.2l-1.2,1.6c0.2,0.1,13,9.6,23.5,23.7
				c-0.2,0.1-0.4,0.3-0.6,0.5c-11.4-15.3-25.1-25.3-25.2-25.4l-1.1,1.6c0.2,0.1,13.7,9.9,24.9,25c-4.5,4.1-9.5,10.6-9.5,10.6
				c1.2,1.6,4,5.9,4,5.9c6.6-5.5,18.3-7,18.3-7C140.7,139.1,133.9,130.2,133.9,130.2z"/>
		</g>
	</g>
	<g>
		<g>
			<path fill="#FFC5B3" d="M10.1,246.9c-5.4,0-9.7-4.4-9.7-9.7c0-3.3-0.1-7.2-0.2-11.6c-0.3-15.8-0.7-37.4,1.8-60.8
				c3.6-32.1,41.8-60.2,43.4-61.3c4.3-3.2,10.4-2.2,13.6,2.2c3.2,4.3,2.2,10.4-2.2,13.6l0,0c-9.1,6.7-33.3,28.2-35.5,47.8
				c-2.5,22.1-2,43-1.7,58.2c0.1,4.6,0.2,8.5,0.2,12C19.8,242.6,15.5,246.9,10.1,246.9z"/>
		</g>
		<g>
			<path fill="#203F39" d="M23.1,159.9l-18.4-6.4c9.4-27.1,39.5-49.2,40.8-50.1l11.4,15.7l-5.7-7.9l5.7,7.9
				C56.6,119.4,30.4,138.7,23.1,159.9z"/>
		</g>
		<g>
			<path fill="#238557" d="M23.1,159.9l-18.4-6.4c2.4-6.8,6.2-13.8,11.4-20.9l15.7,11.5C27.7,149.7,24.8,155,23.1,159.9z"/>
		</g>
		<path fill="#FFFFFF" d="M47.4,108.2l-1.1-1.6c-0.2,0.2-13.9,10.1-25.3,25.4c-0.2-0.2-0.4-0.3-0.6-0.4
			C31,117.5,43.9,108,44.1,107.9l-1.2-1.6c-0.2,0.1-13.3,9.8-24.1,24.2c-0.3-0.1-0.6-0.3-0.8-0.3c0,0-6.8,8.9-8.3,12.6
			c0,0,11.7,1.5,18.3,7c-0.1,0,2.8-4.3,4-5.9c0,0-5-6.5-9.5-10.6C33.7,118.2,47.2,108.4,47.4,108.2z"/>
	</g>
	<polygon fill="#161616" points="47.1,100.2 54.5,99.3 55.6,107.6 	"/>
	<polygon fill="#161616" points="105.2,100.2 97.8,99.3 96.7,107.6 	"/>
	<path fill="#FFC5B3" d="M115.5,148.2h-77c0,0,15.1-28.3,15.2-82.9c0-15.5,46.4-15.5,46.4,0C100,138.2,115.5,148.2,115.5,148.2z"/>
	<path opacity="0.1" fill="#232222" enable-background="new    " d="M55.2,86.2c0,0,6.8,17.5,22.8,17.5c0,0,20-2,20-21L55.2,86.2z"
		/>
	<g>
		<rect x="44.9" y="322.7" fill="#ECC19C" width="21.6" height="125.1"/>
	</g>
	<g>
		<rect x="84.6" y="322.7" fill="#ECC19C" width="21.6" height="125.1"/>
	</g>
	<g>
		<rect x="44.9" y="355" fill="#D3340E" width="21.6" height="92.8"/>
	</g>
	<g>
		<rect x="84.6" y="355" fill="#D3340E" width="21.6" height="92.8"/>
	</g>
	<path opacity="0.2" fill="#232222" enable-background="new    " d="M78.3,208.8c0,1.3-0.6,2.3-1.4,2.3s-1.4-1-1.4-2.3
		c0-1.3,0.6-2.3,1.4-2.3S78.3,207.5,78.3,208.8z"/>
	<path fill="#FFFFFF" d="M119.4,228H33.2c0,13.9,3.7,25.2,10.7,33.1v73.7h23.6v-61.7c2.8,0.4,5.7,0.6,8.8,0.6c2.6,0,5-0.1,7.3-0.4
		v61.5h23.6v-72.2C115.2,254.7,119.4,242.8,119.4,228z"/>
	<path fill="#1C1C1C" d="M66.9,440.2c-28.9,0-52.4,6.2-52.4,13.9h52.4V440.2z"/>
	<path fill="#1C1C1C" d="M84.7,439.7c28.9,0,52.3,6.2,52.3,13.9H84.7V439.7z"/>
	<path fill="#203F39" d="M111,107.8H77h-1.8h-34c-5.5,23.6-8.3,21.7-8.3,61.6c0,49.1,0,59.9,0,61.2c0,0.1,5.4,0.1,5.4,0.1h37H77h37
		c0,0,5.4,0,5.4-0.1c0-1.2,0-12.1,0-61.2C119.4,129.5,116.6,131.4,111,107.8z"/>
	<g>
		<path fill="#238557" d="M97.2,151.6l7.7-9.8l-27.3,11.8l-30.8-11.8l7.7,9.8l-20.9-8.3c-0.5,6.2-0.7,14.3-0.7,26.1
			c0,49.1,0,59.9,0,61.2c0,0.1,5.4,0.1,5.4,0.1h37H77h37c0,0,5.4,0,5.4-0.1c0-1.2,0-12.1,0-61.2c0-12.1-0.3-20.4-0.8-26.7
			L97.2,151.6z"/>
	</g>
	<path fill="#203F39" d="M108.9,108c0,0-0.7-3.1-3.8-7.7c0,0-13.3,7.7-29.9,7.7v11.9L108.9,108z"/>
	<polygon fill="#FFFFFF" points="119.1,150 118.9,146.4 94.2,153.6 101.8,144.4 75.7,156 75.8,155.8 50.2,144.5 57.8,153.7 
		33.4,146.8 33.2,150.4 66.7,160.2 58.6,150.4 74.1,156.7 71.6,157.8 72.3,159 93.4,150.3 85.3,160.1 	"/>
	<path fill="#203F39" d="M43.3,108c0,0,0.7-3.1,3.8-7.7c0,0,13.3,7.7,29.9,7.7v11.9L43.3,108z"/>
	<path fill="#203F39" d="M107.9,115c-0.4,0,0,0-0.2-0.1c-0.3-0.1-1.4,0.8-1.4,0.8l-5.7-0.7l-29.3,5l39.1-8.5l0.6-3.6l-0.4-0.9
		c0,0-1.8-1.2-2.3-1.2c-0.4,0,0,0-0.2-0.1c-0.3-0.1-1.4,0.8-1.4,0.8l-5.7-0.7l-52.9,9.1l-1.1-6.3l-3.7-2.7l-2.2,1.2l0.1,0.7l0.7,2.4
		l1.1,3.4l23.5,7.3l-18.8,3.2l-1.1-6.3l-3.7-2.7l-2.2,1.2l0.1,0.7l0.7,2.4l1.1,3.4l23.9,7.4l43.5-9.5l0.6-3.6l-0.4-0.9
		C110.2,116.2,108.4,115,107.9,115z"/>
	<path fill="#D3340E" d="M76.9,153.9C77.1,154.2,37,135,37,135l10,11.6l-13.3-6.9l-0.1,3.7l20.9,8.2l-7.7-9.8l27.3,11.8L76.9,153.9z
		"/>
	<path fill="#D3340E" d="M71.6,155.5c-0.1,0.3,43.1-20.4,43.1-20.4l-10,11.6l13.7-7.1l0.2,3.5l-21.4,8.5l7.7-9.8l-33,14.5
		L71.6,155.5z"/>
	<g>
		<path fill="#FFC5B3" d="M108.9,45c-0.6-0.1-1.1,0-1.7,0.4c0.3-4.4,0.3-7.3,0.3-7.3c-0.7-30.5-30.4-26.3-30.6-26.3
			s-30-4.3-30.6,26.3c0,0,0.1,2.9,0.3,7.3C46,45,45.4,44.9,44.8,45c-2.8,0.5-4,7-2.6,14.4s4.8,13,7.7,12.5c0,0,0,0,0.1,0
			c1.9,8.6,4.7,16.2,9,19c0,0,4.4,9.6,17.9,10.5c13.6-0.9,17.9-10.5,17.9-10.5c4.3-2.8,7.1-10.4,9-19c0,0,0,0,0.1,0
			c2.9,0.5,6.3-5,7.7-12.5C112.9,52,111.7,45.6,108.9,45z"/>
		<path fill="#5E5423" d="M107.5,26c-1.1-3.8-3.5-10.7-7-14c0,0-4.3-5.9-10.7-9.4c-3-1.6-6-2.7-13.2-2.6l0,0
			C63.7,0.1,56.5,5.2,56.5,5.2c-5.7,3.7-3.3,6.8-3.3,6.8c-3.5,3.3-5.9,10.2-7,14c-4.7,16.3,1.1,27.4,1.1,27.4
			c1.1-23.6,4-29.1,8.4-32.9c5.3-4.5,10-4.2,12.9-3.7c5.3,0.9,10.8,0.6,13.9,0.3c0.8,0,1.7,0,2.6-0.2c2.9-0.6,7.6-0.8,12.9,3.7
			c4.5,3.7,7.3,9.2,8.4,32.8C106.4,53.4,112.2,42.3,107.5,26z"/>
		<circle fill="#6E3612" cx="64.7" cy="49.1" r="2.4"/>
		<g>
			<path fill="#3A1D0C" d="M69.3,44.4c0,0,0,0-0.1-0.1c-0.1,0-0.2-0.1-0.4-0.1c-0.1,0-0.3-0.1-0.5-0.2c-0.3,0-0.6,0-0.9-0.1
				s-0.6-0.1-1-0.1c-0.3-0.1-0.7-0.1-1.1-0.1c-0.4,0-0.8,0-1.2,0c-0.4,0-0.8,0.1-1.2,0.1c-0.4,0-0.8,0.1-1.2,0.1
				c-0.4,0.1-0.8,0.2-1.2,0.3c-0.4,0.1-0.8,0.2-1.1,0.2c-0.4,0.1-0.7,0.2-1,0.3c-1.2,0.4-2,0.7-2,0.7h-0.1c-0.2,0.1-0.5,0-0.6-0.3
				c-0.1-0.2,0-0.4,0.2-0.5c0,0,0.8-0.4,2-1c0.3-0.1,0.6-0.3,1-0.5c0.4-0.1,0.7-0.3,1.1-0.4c0.4-0.1,0.8-0.3,1.2-0.4
				c0.4-0.1,0.9-0.2,1.3-0.3c0.4-0.1,0.9-0.2,1.3-0.3c0.4,0,0.9-0.1,1.3-0.1c0.4-0.1,0.8-0.1,1.2-0.1c0.4,0,0.8,0,1.1,0
				c0.4,0,0.7,0.1,1,0.1s0.6,0.1,0.8,0.1s0.4,0.1,0.5,0.1s0.2,0,0.2,0c0.7,0.2,1.2,0.9,1,1.6C70.7,44.1,70,44.6,69.3,44.4
				C69.4,44.5,69.3,44.5,69.3,44.4L69.3,44.4z"/>
		</g>
		<circle fill="#6E3612" cx="90.4" cy="49.1" r="2.4"/>
		<g>
			<path fill="#3A1D0C" d="M85,41.9c0,0,0.1,0,0.2,0s0.3-0.1,0.5-0.1s0.5-0.1,0.8-0.1s0.6-0.1,1-0.1c0.4,0,0.7,0,1.1,0
				c0.4,0,0.8,0,1.2,0.1c0.4,0,0.9,0.1,1.3,0.1c0.4,0.1,0.9,0.2,1.3,0.3c0.4,0.1,0.9,0.2,1.3,0.3c0.4,0.2,0.8,0.3,1.2,0.4
				c0.4,0.1,0.8,0.3,1.1,0.4c0.4,0.1,0.7,0.3,1,0.5c1.2,0.6,2,1,2,1c0.2,0.1,0.3,0.4,0.2,0.6c-0.1,0.2-0.3,0.3-0.5,0.2h-0.1
				c0,0-0.8-0.3-2-0.7c-0.3-0.1-0.6-0.2-1-0.3c-0.4-0.1-0.7-0.2-1.1-0.2c-0.4-0.1-0.8-0.2-1.2-0.3c-0.4-0.1-0.8-0.1-1.2-0.1
				c-0.4,0-0.8-0.1-1.2-0.1c-0.4,0-0.8,0-1.2,0s-0.7,0-1.1,0.1c-0.3,0.1-0.7,0.1-1,0.1c-0.3,0.1-0.5,0.1-0.8,0.2
				c-0.2,0-0.4,0.1-0.5,0.2c-0.1,0.1-0.2,0.1-0.4,0.1c-0.1,0-0.1,0.1-0.1,0.1l0,0c-0.7,0.3-1.5-0.1-1.8-0.7
				c-0.3-0.7,0.1-1.5,0.7-1.8C84.8,41.9,84.9,41.9,85,41.9z"/>
		</g>
		
			<path opacity="0.2" fill="none" stroke="#231F20" stroke-width="1.4005" stroke-linecap="round" stroke-miterlimit="10" enable-background="new    " d="
			M84.6,62c0,0,3.2,4.3-2.2,4.9c0,0-2.3-0.6-3.2,0.3c0,0-0.5,0.7-2.1,0.7c-1.6,0-2.1-0.7-2.1-0.7c-0.9-0.9-3.2-0.3-3.2-0.3
			c-5.3-0.6-2.2-4.9-2.2-4.9"/>
		
			<path fill="none" stroke="#C18963" stroke-width="0.8758" stroke-linecap="round" stroke-linejoin="round" stroke-miterlimit="10" d="
			M65.2,75.3c0,0,14.7,4.6,25.3-0.9"/>
		<g>
			<path fill="#EFB9A9" d="M72.9,82.8c5.7,4.7,9-0.6,9.1-0.6C80.7,83.4,72.9,82.8,72.9,82.8z"/>
			<path fill="#EFB9A9" d="M93.3,85c0,0,0.1-0.3,0.4-0.7c0,0,0,0-0.1,0L93.3,85z"/>
			<path fill="#EFB9A9" d="M99,70c-0.2,3.4-3.4,10.2-4.9,13.3c-0.2,0.4-0.3,0.7-0.4,1C98.8,80.4,99,70,99,70z"/>
			<path fill="#EFB9A9" d="M56.1,70c0,0,0.2,10.4,5.3,14.3c-0.1-0.3-0.3-0.6-0.4-1C59.5,80.2,56.3,73.4,56.1,70z"/>
			<path fill="#EFB9A9" d="M61.5,84.3L61.5,84.3c0.2,0.4,0.3,0.7,0.3,0.7L61.5,84.3z"/>
			<path fill="#EFB9A9" d="M62.8,69.2c0,0,2.2-5.2,5.8-7.5C68.5,61.7,63.1,62.9,62.8,69.2z"/>
			<path fill="#EFB9A9" d="M85.7,61.5c3.6,2.3,5.8,7.5,5.8,7.5C91.3,62.7,85.8,61.5,85.7,61.5z"/>
		</g>
	</g>
	<g>
		<g>
			<g>
				<path fill="#D3340E" d="M81.5,158.9l-0.2-0.2c-0.2-0.1-0.1-0.3-0.1-0.3c1-1.9,0.6-3.8,0.6-3.8c-0.3-2.2-2.2-3.5-2.2-3.5
					c-0.2-0.1,0-0.3,0-0.3l0.2-0.2c0,0,0.2-0.2,0-0.4l-1.1-0.6c0,0,0,0,0-0.1c0,0,0-0.6-0.2-0.9c0,0-0.5-0.7-1-1
					c0,0-0.8-0.5-1.1-0.6c0,0-0.9-0.3-1.5-0.2c0,0-0.2,0-0.3,0.1c0,0,0,0.1,0,0.1c-0.1,0-0.3,0.1-0.3,0.2c0,0,0,0,0,0.1
					c0,0.1,0,0.2,0.2,0.2c0,0,0.3,0.2,0.4,0.3c0,0,0,0,0,0.1v0c0,0,0,0,0,0h0h0c0,0,0,0,0,0c-0.1-0.1-0.2-0.2-0.3-0.3
					c0,0-0.1-0.1-0.1-0.1c0,0-0.1,0-0.1-0.1c-0.1-0.1-0.1-0.2-0.1-0.3c0,0-0.1-0.1-0.1-0.1c0,0-0.2,0.1-0.2,0.1
					c-0.1,0-0.2,0.1-0.3,0.1c-0.2,0.1-0.4,0.1-0.4,0.1c-0.1,0-0.2,0-0.3,0.2c-0.1,0.2,0,0.3,0.1,0.4c0.1,0.1,0.2,0.1,0.2,0.1
					c0,0,0-0.1,0.1-0.1c0.1,0,0.1,0,0.3,0.1c0.2,0,0.3,0,0.4,0c0.1,0,0.1,0.2,0.1,0.3c0,0.2-0.1,0.3-0.1,0.5c0,0,0,0.1,0,0.2
					c-0.1,0-0.2,0.1-0.2,0.1c-0.2,0.1-0.4,0.2-0.8,0.4c-0.4,0.2-1.1,0.7-1.1,0.7c-0.3,0.2-0.1,0.4-0.1,0.4l0.2,0.2
					c0,0,0.3,0.2,0,0.3c0,0-1.6,1.3-1.8,3.5c0,0-0.4,2,0.8,3.9c0,0,0.2,0.2,0,0.3l-0.2,0.2c0,0-0.2,0.2,0.1,0.5c0,0,1.3,1.6,2.6,1.9
					c0,0-0.5-0.6-0.8-1.2c0,0-0.2-0.2,0.1-0.2l0.6-0.1c0,0,0,0,0-0.1c0,0,0,0,0,0c0.1,0.3,0.3,0.5,0.4,0.8l0,0c0,0,0,0,0,0
					c0.6,0.7,1.5,1.2,2.4,1.2c1.4,0,2.6-0.9,3-2.2l0.3,0c0.2,0,0.5,0,0.5,0c-0.2,0.6-0.9,1.4-0.9,1.4c1.2-0.3,2.2-1.6,2.2-1.6
					C81.7,159.1,81.5,158.9,81.5,158.9z"/>
			</g>
			<path fill="#FFFFFF" d="M83.4,158.4c0.7-1.9,0.4-3.6,0.3-4c-0.3-1.7-1.1-3-1.9-3.8c0-0.2,0-0.3,0-0.5c-0.1-0.6-0.5-1.2-1-1.5
				l-0.4-0.2c-0.1-0.3-0.2-0.6-0.4-0.8c-0.2-0.2-0.8-1-1.6-1.5c-0.4-0.3-1.1-0.6-1.5-0.8c0,0-1-0.3-2-0.3c-0.1,0-0.2,0-0.3,0l0,0
				c-0.2,0-0.7,0.1-1.2,0.4c-0.2,0-0.3,0.1-0.4,0.2c-0.1,0-0.1,0-0.2,0.1l0,0c-0.1,0-0.1,0-0.2,0.1c-0.7,0.1-1.3,0.5-1.6,1.1
				c-0.2,0.3-0.5,1-0.2,2c-0.2,0.1-0.3,0.2-0.4,0.3c-0.6,0.4-0.9,1-0.9,1.7c0,0.1,0,0.3,0,0.4c-0.6,0.8-1.3,2-1.5,3.7
				c-0.1,0.4-0.3,2.3,0.6,4.3c-0.2,0.7-0.1,1.5,0.5,2.2c0.3,0.4,1.9,2.2,3.7,2.6l1.6,0.4c0,0,1.2,0,1.7,0c0.5,0,1.9-0.1,1.9-0.1
				l1.6-0.5c1.6-0.5,2.9-2,3.2-2.3c0.5-0.6,1.1-1.4,0.9-2.5C83.4,158.6,83.4,158.5,83.4,158.4z"/>
			<path fill="none" stroke="#D3340E" stroke-width="0.9139" stroke-miterlimit="10" d="M83.4,158.4c0.7-1.9,0.4-3.6,0.3-4
				c-0.3-1.7-1.1-3-1.9-3.8c0-0.2,0-0.3,0-0.5c-0.1-0.6-0.5-1.2-1-1.5l-0.4-0.2c-0.1-0.3-0.2-0.6-0.4-0.8c-0.2-0.2-0.8-1-1.6-1.5
				c-0.4-0.3-1.1-0.6-1.5-0.8c0,0-1-0.3-2-0.3c-0.1,0-0.2,0-0.3,0l0,0c-0.2,0-0.7,0.1-1.2,0.4c-0.2,0-0.3,0.1-0.4,0.2
				c-0.1,0-0.1,0-0.2,0.1l0,0c-0.1,0-0.1,0-0.2,0.1c-0.7,0.1-1.3,0.5-1.6,1.1c-0.2,0.3-0.5,1-0.2,2c-0.2,0.1-0.3,0.2-0.4,0.3
				c-0.6,0.4-0.9,1-0.9,1.7c0,0.1,0,0.3,0,0.4c-0.6,0.8-1.3,2-1.5,3.7c-0.1,0.4-0.3,2.3,0.6,4.3c-0.2,0.7-0.1,1.5,0.5,2.2
				c0.3,0.4,1.9,2.2,3.7,2.6l1.6,0.4c0,0,1.2,0,1.7,0c0.5,0,1.9-0.1,1.9-0.1l1.6-0.5c1.6-0.5,2.9-2,3.2-2.3c0.5-0.6,1.1-1.4,0.9-2.5
				C83.4,158.6,83.4,158.5,83.4,158.4z"/>
		</g>
		<g>
			<g>
				<path fill="#231F20" d="M74.4,148.1c-0.1,0-0.3,0.1-0.3,0.2c0,0.1,0.2,0.3,0.2,0.4c0.2,0.4,1,0.7,1.5,0.5c0.4-0.2,0.8-1,0.5-1.4
					c-0.1-0.2-0.3-0.2-0.5-0.3c-0.4-0.2-0.7-0.4-1.1-0.4c0,0-0.6-0.1-0.7,0.2c0,0,0,0,0,0.1c0,0.1,0,0.2,0.2,0.2
					c0,0,0.3,0.2,0.4,0.3c0,0,0,0,0,0.1c0,0,0,0,0,0c0,0,0,0,0,0l0,0l0,0c0,0-0.1,0-0.1,0.1C74.5,148,74.4,148,74.4,148.1z"/>
				<g>
					<path fill="#FFFFFF" d="M75,148C75,148,75,148,75,148c-0.1,0.1-0.1,0.1-0.2,0.1c0,0-0.1,0-0.1-0.1c0,0,0,0,0.1,0
						c0,0,0.1,0,0.1-0.1c0,0-0.1-0.1-0.1-0.1c-0.1-0.1-0.2-0.2-0.3-0.2c0,0-0.3-0.1-0.2-0.3c0,0,0-0.1,0.7,0c0,0,0.8,0.3,1.1,0.5
						c0,0,0.1,0.1,0,0.1c0,0,0,0-0.4-0.2c0,0-0.8-0.4-1-0.3c0,0-0.1,0,0,0.1c0.1,0.1,0.1,0.1,0.2,0.2c0,0.1,0.1,0.1,0.1,0.2
						C75,147.9,75,147.9,75,148z"/>
					<path fill="#FFFFFF" d="M74.9,147.6c0,0.1,0.1,0.1,0.1,0.2c0,0.1,0.1,0.2,0.1,0.3c0,0,0,0,0,0.1c0,0,0,0-0.1,0.1c0,0,0,0-0.1,0
						c-0.1,0,0,0.1,0.1,0.2c0,0,0.1,0.1,0.1,0.1c0,0,0,0.1,0.1,0.1c0,0,0,0,0,0c0,0,0-0.1,0-0.1c0,0,0-0.1,0-0.1c0,0,0,0,0-0.1
						c0,0,0,0,0,0c0.1,0,0.1,0.1,0.1,0.2c0,0,0.1,0,0.1,0c0,0,0-0.1-0.1-0.1c0,0-0.1-0.1-0.1-0.1c0,0,0,0,0,0c0,0,0,0,0,0
						c0,0,0,0,0,0c0,0,0.1,0,0.1,0c0.1,0,0.2,0.1,0.2,0.1c0,0,0.3,0.2,0.5,0.2c0,0,0.1,0,0-0.1c0,0-0.6-0.3-0.7-0.3c0,0-0.1,0,0-0.1
						c0,0,0,0,0.5,0.1c0,0,0.3,0.2,0.4,0.1c0,0,0,0,0-0.1c0,0,0.1-0.1-0.6-0.3c0,0-0.2,0-0.1-0.1c0,0,0,0,0.2,0c0,0,0.3,0.1,0.4,0.2
						c0,0,0.1,0,0.1,0c0,0,0-0.1-0.3-0.2c0,0-0.3-0.1-0.4-0.2C75.5,147.7,74.8,147.4,74.9,147.6z"/>
				</g>
			</g>
			<ellipse fill="#FFFFFF" cx="75.8" cy="155.5" rx="5.4" ry="5.4"/>
			<path fill="#231F20" stroke="#231F20" stroke-width="2.446900e-02" d="M78.1,155.8c0,1.3-1.1,2.3-2.3,2.3c-1.2,0-2.2-0.9-2.3-2.1
				v0c0-0.1,0.1,0,0.1,0c0.1,0.1,0.1-0.1,0.1-0.1v-0.2c0-0.1-0.1,0-0.1,0c-0.2,0.1-0.1,0-0.1,0c0-1.3,1.1-2.3,2.3-2.3
				c1.2,0,2.3,1,2.3,2.2c0,0,0,0.1-0.1,0c0,0-0.1-0.1-0.1,0c0,0,0,0.1,0,0.2C77.9,155.7,77.9,155.9,78.1,155.8
				C78,155.8,78.1,155.6,78.1,155.8L78.1,155.8z"/>
			<circle fill="#FFFFFF" stroke="#231F20" stroke-width="2.446900e-02" cx="75.8" cy="155.7" r="1.7"/>
			<path fill="#231F20" stroke="#231F20" stroke-width="0.1468" d="M73.2,152.5c0,0,0.3,0.4-0.2,0.8c0,0-0.8,0.8-0.8,2.3
				c0,0,0,1.3,0.4,1.8c0,0,0.4,0.5,0.1,0.8c0,0-0.2,0.3-0.5,0.2c0,0-0.3,0-0.5-0.5c0,0-0.9-1.6-0.5-3.3c0,0,0.4-1.6,1.2-2.2
				C72.4,152.5,72.9,152.2,73.2,152.5z"/>
			<path fill="#231F20" stroke="#231F20" stroke-width="0.1468" d="M78.3,152.4c0,0-0.3,0.4,0.3,0.8c0,0,0.9,0.7,1,2.2
				c0,0,0.1,1.3-0.3,1.8c0,0-0.3,0.5-0.1,0.8c0,0,0.2,0.3,0.5,0.2c0,0,0.3,0,0.4-0.5c0,0,0.8-1.6,0.3-3.4c0,0-0.5-1.6-1.3-2.2
				C79,152.3,78.6,152,78.3,152.4z"/>
			<path fill="#008240" d="M73.2,152.6c0,0,0.3,0.4-0.3,0.8c0,0-0.8,0.8-0.8,2.3c0,0,0,1.2,0.4,1.8c0,0,0.4,0.5,0.1,0.8
				c0,0-0.1,0.2-0.5,0.2c0,0-0.3,0-0.5-0.4c0,0-0.9-1.5-0.5-3.3c0,0,0.4-1.6,1.2-2.2C72.4,152.5,72.9,152.2,73.2,152.6z"/>
			<path fill="#FD1813" d="M78.3,152.4c0,0-0.3,0.4,0.3,0.8c0,0,0.9,0.7,0.9,2.2c0,0,0,1.2-0.3,1.8c0,0-0.3,0.5-0.1,0.8
				c0,0,0.1,0.2,0.5,0.2c0,0,0.3,0,0.4-0.5c0,0,0.8-1.6,0.3-3.3c0,0-0.5-1.5-1.3-2.1C79.1,152.3,78.6,152,78.3,152.4z"/>
			<g>
				<g>
					<path fill="none" stroke="#231F20" stroke-width="5.872700e-02" d="M73.6,152.8c0,0,0.1,0.3,0.3,0.4"/>
					<path fill="none" stroke="#231F20" stroke-width="5.872700e-02" d="M73.3,152.9c0,0,0.3,0.3,0.4,0.4"/>
				</g>
				<g>
					<path fill="none" stroke="#231F20" stroke-width="5.872700e-02" d="M73.1,153.4L73.1,153.4c0.1,0.1,0.2,0.2,0.1,0.3l-0.1,0.1"
						/>
					<path fill="none" stroke="#231F20" stroke-width="5.872700e-02" d="M73.3,153.3l0.1,0.1c0,0,0.2,0.1,0,0.2l-0.2,0.2"/>
				</g>
				<g>
					<path fill="none" stroke="#231F20" stroke-width="5.872700e-02" d="M72.8,153.9l0.1,0.1c0,0,0.1,0,0.1,0.2l-0.1,0.2"/>
					<path fill="none" stroke="#231F20" stroke-width="5.872700e-02" d="M72.8,153.8l0.2,0.1c0,0,0.2,0.1,0.1,0.2l-0.1,0.2"/>
				</g>
				<g>
					<path fill="none" stroke="#231F20" stroke-width="5.872700e-02" d="M72.5,154.5l0.1,0c0,0,0.1,0,0.1,0.1l0,0.2"/>
					<path fill="none" stroke="#231F20" stroke-width="5.872700e-02" d="M72.5,154.4l0.2,0c0,0,0.2,0,0.2,0.2l0,0.2"/>
				</g>
				<g>
					<path fill="none" stroke="#231F20" stroke-width="5.872700e-02" d="M72.4,155.1l0.1,0c0,0,0.1,0,0.1,0.1l0,0.2"/>
					<path fill="none" stroke="#231F20" stroke-width="5.872700e-02" d="M72.4,155l0.2,0c0,0,0.2,0,0.2,0.2l0,0.2"/>
				</g>
				<g>
					<path fill="none" stroke="#231F20" stroke-width="5.872700e-02" d="M72.3,155.7l0.1,0c0,0,0.1,0,0.1,0.1l0,0.2"/>
					<path fill="none" stroke="#231F20" stroke-width="5.872700e-02" d="M72.3,155.6l0.2,0c0,0,0.2,0,0.2,0.2l0,0.2"/>
				</g>
				<g>
					<path fill="none" stroke="#231F20" stroke-width="5.872700e-02" d="M72.4,156.3l0.1,0c0,0,0.1,0,0.2,0.1l0,0.2"/>
					<path fill="none" stroke="#231F20" stroke-width="5.872700e-02" d="M72.4,156.2l0.2,0c0,0,0.2,0,0.2,0.1l0,0.2"/>
				</g>
				<g>
					<path fill="none" stroke="#231F20" stroke-width="5.872700e-02" d="M72.6,157l0.1,0c0,0,0.1-0.1,0.2,0l0.1,0.2"/>
					<path fill="none" stroke="#231F20" stroke-width="5.872700e-02" d="M72.5,156.9l0.2-0.1c0,0,0.2-0.1,0.2,0.1l0.1,0.2"/>
				</g>
				<g>
					<path fill="none" stroke="#231F20" stroke-width="5.872700e-02" d="M72.8,157.5l0.1-0.1c0,0,0.1-0.1,0.2,0l0.1,0.2"/>
					<path fill="none" stroke="#231F20" stroke-width="5.872700e-02" d="M72.8,157.4l0.1-0.1c0,0,0.2-0.1,0.2,0l0.1,0.2"/>
				</g>
				<path fill="none" stroke="#231F20" stroke-width="5.872700e-02" d="M77.9,152.6c0,0-0.1,0.3-0.3,0.4"/>
				<path fill="none" stroke="#231F20" stroke-width="5.872700e-02" d="M78.1,152.8c0,0-0.3,0.3-0.4,0.4"/>
				<path fill="none" stroke="#231F20" stroke-width="5.872700e-02" d="M78.3,153.2L78.3,153.2c-0.1,0.1-0.2,0.2-0.1,0.3l0.1,0.1"/>
				<path fill="none" stroke="#231F20" stroke-width="5.872700e-02" d="M78.2,153.1l-0.1,0.1c0,0-0.2,0.1,0,0.2l0.2,0.2"/>
				<path fill="none" stroke="#231F20" stroke-width="5.872700e-02" d="M77.1,152.5l0,0.1c0,0-0.1,0.1,0.1,0.2l0.2,0.1"/>
				<path fill="none" stroke="#231F20" stroke-width="5.872700e-02" d="M77,152.4l0,0.2c0,0-0.1,0.2,0.1,0.2l0.2,0.1"/>
				<path fill="none" stroke="#231F20" stroke-width="5.872700e-02" d="M78.7,153.8l-0.1,0.1c0,0-0.1,0-0.1,0.2l0.1,0.2"/>
				<path fill="none" stroke="#231F20" stroke-width="5.872700e-02" d="M78.7,153.6l-0.2,0.1c0,0-0.2,0.1-0.1,0.2l0.1,0.2"/>
				<path fill="none" stroke="#231F20" stroke-width="5.872700e-02" d="M79,154.3l-0.1,0c0,0-0.1,0-0.1,0.2l0.1,0.2"/>
				<path fill="none" stroke="#231F20" stroke-width="5.872700e-02" d="M79,154.2l-0.2,0.1c0,0-0.2,0-0.1,0.2l0.1,0.2"/>
				<path fill="none" stroke="#231F20" stroke-width="5.872700e-02" d="M79.2,154.9l-0.1,0c0,0-0.1,0-0.1,0.1l0,0.2"/>
				<path fill="none" stroke="#231F20" stroke-width="5.872700e-02" d="M79.2,154.8l-0.2,0c0,0-0.2,0-0.2,0.2l0,0.2"/>
				<path fill="none" stroke="#231F20" stroke-width="5.872700e-02" d="M79.4,155.6h-0.1c0,0-0.1,0-0.1,0.1l0,0.2"/>
				<path fill="none" stroke="#231F20" stroke-width="5.872700e-02" d="M79.3,155.5l-0.2,0c0,0-0.2,0-0.2,0.2v0.2"/>
				<path fill="none" stroke="#231F20" stroke-width="5.872700e-02" d="M79.3,156.2l-0.1,0c0,0-0.1,0-0.2,0.1l0,0.2"/>
				<path fill="none" stroke="#231F20" stroke-width="5.872700e-02" d="M79.3,156.1l-0.2,0c0,0-0.2,0-0.2,0.1l0,0.2"/>
				<path fill="none" stroke="#231F20" stroke-width="5.872700e-02" d="M79.1,156.8l-0.1,0c0,0-0.1-0.1-0.2,0.1l0,0.2"/>
				<path fill="none" stroke="#231F20" stroke-width="5.872700e-02" d="M79.2,156.6l-0.2,0c0,0-0.2-0.1-0.2,0.1l-0.1,0.2"/>
				<path fill="none" stroke="#231F20" stroke-width="5.872700e-02" d="M78.9,157.4l-0.1-0.1c0,0-0.1-0.1-0.2,0l-0.1,0.2"/>
				<path fill="none" stroke="#231F20" stroke-width="5.872700e-02" d="M79,157.2l-0.2-0.1c0,0-0.2-0.1-0.2,0l-0.1,0.2"/>
				<path fill="none" stroke="#231F20" stroke-width="5.872700e-02" d="M74.3,152.5L74.3,152.5c0.1,0.1,0.1,0.2,0,0.3l-0.2,0.1"/>
			</g>
			<g>
				<path fill="#231F20" d="M74.7,153.1C74.7,153.1,74.7,153.2,74.7,153.1C74.7,153.2,74.6,153.2,74.7,153.1
					C74.6,153.1,74.6,153,74.7,153.1C74.6,153,74.7,153.1,74.7,153.1z"/>
				<g>
					<circle fill="#231F20" cx="76.8" cy="152.9" r="0"/>
					<g>
						<path fill="#231F20" d="M73.3,154.7C73.3,154.7,73.3,154.8,73.3,154.7C73.3,154.8,73.3,154.7,73.3,154.7
							C73.3,154.7,73.3,154.6,73.3,154.7C73.3,154.6,73.3,154.7,73.3,154.7z"/>
						<g>
							<path fill="#231F20" d="M74,153.4C74,153.5,74,153.5,74,153.4c0,0.1,0,0.1,0,0.1S73.9,153.5,74,153.4
								C73.9,153.5,73.9,153.4,74,153.4C73.9,153.4,74,153.4,74,153.4z"/>
							<path fill="#231F20" d="M73.2,154.3C73.3,154.3,73.3,154.3,73.2,154.3c0.1,0.1,0.1,0.1,0,0.1
								C73.2,154.4,73.2,154.4,73.2,154.3C73.2,154.4,73.2,154.3,73.2,154.3C73.2,154.3,73.2,154.3,73.2,154.3z"/>
							<path fill="#231F20" d="M72.9,155.4C73,155.4,73,155.4,72.9,155.4C73,155.4,73,155.4,72.9,155.4
								C73,155.5,72.9,155.5,72.9,155.4C72.9,155.4,72.9,155.4,72.9,155.4C72.9,155.4,72.9,155.4,72.9,155.4z"/>
							<path fill="#231F20" d="M73,156.6C73,156.5,73.1,156.5,73,156.6C73.1,156.6,73.1,156.6,73,156.6
								C73.1,156.6,73.1,156.7,73,156.6C73,156.6,73,156.6,73,156.6C73,156.6,73,156.6,73,156.6z"/>
							<path fill="#231F20" d="M77.5,153.4C77.5,153.4,77.5,153.4,77.5,153.4C77.5,153.4,77.5,153.5,77.5,153.4
								C77.5,153.5,77.6,153.4,77.5,153.4C77.6,153.4,77.5,153.4,77.5,153.4C77.5,153.4,77.5,153.4,77.5,153.4z"/>
							<path fill="#231F20" d="M78.3,154.2C78.3,154.2,78.3,154.2,78.3,154.2c-0.1,0.1,0,0.1,0,0.1
								C78.3,154.3,78.3,154.3,78.3,154.2C78.4,154.2,78.3,154.2,78.3,154.2C78.3,154.2,78.3,154.2,78.3,154.2z"/>
							<path fill="#231F20" d="M78.7,155.2C78.7,155.2,78.6,155.2,78.7,155.2C78.6,155.3,78.6,155.3,78.7,155.2
								C78.7,155.4,78.7,155.3,78.7,155.2C78.7,155.3,78.7,155.3,78.7,155.2C78.7,155.2,78.7,155.2,78.7,155.2z"/>
							<path fill="#231F20" d="M78.7,156.4C78.7,156.4,78.6,156.4,78.7,156.4C78.6,156.4,78.6,156.5,78.7,156.4
								C78.6,156.5,78.7,156.5,78.7,156.4C78.7,156.5,78.7,156.5,78.7,156.4C78.7,156.4,78.7,156.4,78.7,156.4z"/>
							<g>
								<path fill="#231F20" d="M74.8,153.1c0,0-0.1,0.1-0.1,0.1c-0.1,0-0.2,0.1-0.2,0c0,0,0.1-0.1,0.2-0.1
									C74.8,153.1,74.8,153.1,74.8,153.1z"/>
								<circle fill="#231F20" cx="74.6" cy="153" r="0"/>
								<path fill="#231F20" d="M74.6,153.5c0,0-0.1-0.1,0-0.2c0,0,0.2-0.1,0.3,0c0,0,0.1,0.1,0,0.1c0,0,0,0,0,0c0,0,0-0.1-0.1,0
									C74.8,153.3,74.7,153.4,74.6,153.5C74.7,153.4,74.7,153.6,74.6,153.5z"/>
								<path fill="#231F20" d="M74,153.4l0.1-0.2c0,0,0-0.1,0.2-0.1c0,0,0,0,0,0.1l-0.1,0c0,0,0,0,0,0.1c0,0,0,0-0.1,0.1
									c0,0-0.1,0-0.1,0.1C74.2,153.5,74.1,153.6,74,153.4C74.1,153.5,74.1,153.4,74,153.4C74,153.5,73.9,153.5,74,153.4z"/>
								<path fill="#231F20" d="M73.3,154.3l0.1-0.2c0,0,0-0.1,0.2-0.2c0,0,0.1,0,0,0l-0.1,0.1c0,0,0,0.1,0.1,0.1c0,0,0.1,0,0,0.1
									c0,0-0.1,0.1,0,0.1c0,0,0,0.1-0.1,0C73.4,154.3,73.4,154.2,73.3,154.3C73.3,154.3,73.2,154.3,73.3,154.3z"/>
								<path fill="#231F20" d="M73,155.3l0-0.2c0,0-0.1-0.1,0.1-0.2c0,0,0.1,0,0,0l0,0.1c0,0,0,0.1,0.1,0c0,0,0.1,0,0,0.1
									c0,0,0,0.1,0,0.1c0,0,0,0.1-0.1,0.1C73.1,155.3,73,155.3,73,155.3C73,155.4,72.9,155.4,73,155.3z"/>
								<path fill="#231F20" d="M73,156.5l-0.1-0.2c0,0-0.1-0.1,0-0.2c0,0,0.1,0,0.1,0l0,0.1c0,0,0,0.1,0.1,0c0,0,0,0,0,0.1
									c0,0,0,0.1,0,0.1C73.2,156.4,73.2,156.4,73,156.5C73.1,156.4,73.1,156.4,73,156.5C73.1,156.5,73,156.6,73,156.5z"/>
								<path fill="#231F20" d="M73.5,153.5c0,0,0.1,0.1,0.2,0.2c0,0,0,0,0,0c0,0,0.3,0,0.2,0.1c0,0-0.1,0.2-0.2,0.1
									c0,0-0.1-0.2-0.1-0.2L73.5,153.5z"/>
								<path fill="#231F20" d="M72.7,155.8c0,0,0.1,0,0.2,0c0,0,0,0,0,0c0,0,0.2-0.2,0.2-0.1c0,0,0.1,0.2,0,0.2c0,0-0.2,0-0.2-0.1
									L72.7,155.8z"/>
								<path fill="#231F20" d="M73.9,154.1C73.9,154.1,73.9,154.2,73.9,154.1L74,154l0.2,0c0,0,0-0.1,0-0.1l-0.1,0
									c0,0-0.1,0.1-0.1,0.1L73.9,154.1z"/>
								<g>
									<path fill="#231F20" d="M73.3,154.5c0,0,0,0.1,0,0.2c0,0.1-0.1,0.2-0.1,0.2c0,0,0-0.1,0-0.2
										C73.2,154.6,73.3,154.5,73.3,154.5z"/>
									
										<ellipse transform="matrix(0.3686 -0.9296 0.9296 0.3686 -97.5668 165.6465)" fill="#231F20" cx="73.2" cy="154.6" rx="0" ry="0.1"/>
									<path fill="#231F20" d="M73.1,154.6C73.1,154.6,73.1,154.6,73.1,154.6C73.1,154.7,73.1,154.7,73.1,154.6
										C73,154.6,73,154.6,73.1,154.6C73.1,154.6,73.1,154.6,73.1,154.6z"/>
									<path fill="#231F20" d="M73.4,154.9c0,0-0.1,0-0.1-0.1c0,0,0-0.2,0.2-0.2c0,0,0.1,0,0.1,0c0,0,0,0,0,0c0,0-0.1,0-0.1,0.1
										C73.4,154.7,73.4,154.8,73.4,154.9C73.4,154.8,73.5,154.9,73.4,154.9z"/>
								</g>
								<g>
									<path fill="#231F20" d="M73.2,156.6c0,0,0.1,0.1,0.1,0.2s0,0.2,0,0.2c0,0-0.1-0.1-0.1-0.2S73.2,156.6,73.2,156.6z"/>
									
										<ellipse transform="matrix(-0.2425 -0.9701 0.9701 -0.2425 -61.1624 265.906)" fill="#231F20" cx="73.2" cy="156.8" rx="0" ry="0.1"/>
									<circle fill="#231F20" cx="73.2" cy="156.9" r="0"/>
									<path fill="#231F20" d="M73.6,156.9c0,0-0.1,0.1-0.1,0c0,0-0.1-0.2,0-0.3c0,0,0.1-0.1,0.1,0c0,0,0,0,0,0c0,0-0.1,0,0,0.1
										C73.4,156.7,73.5,156.8,73.6,156.9C73.5,156.8,73.7,156.8,73.6,156.9z"/>
								</g>
								<path fill="#231F20" d="M73.4,156.8C73.4,156.8,73.4,156.8,73.4,156.8C73.4,156.8,73.3,156.8,73.4,156.8
									C73.3,156.8,73.3,156.7,73.4,156.8C73.4,156.7,73.4,156.7,73.4,156.8z"/>
								<path fill="#231F20" d="M73.4,155.6C73.4,155.6,73.4,155.7,73.4,155.6L73.4,155.6c-0.1,0.1-0.1,0.1-0.1,0.1l0,0
									c0,0,0,0,0-0.1L73.4,155.6C73.4,155.6,73.4,155.6,73.4,155.6L73.4,155.6z"/>
								<path fill="#231F20" d="M73.3,155.9C73.2,155.9,73.3,155.9,73.3,155.9L73.3,155.9c0.1,0.1,0.1,0.1,0.2,0.1l0,0
									c0,0,0-0.1,0-0.1L73.3,155.9C73.3,155.8,73.3,155.8,73.3,155.9L73.3,155.9z"/>
								
									<ellipse transform="matrix(-0.9136 -0.4067 0.4067 -0.9136 84.6551 324.1697)" fill="#231F20" cx="76.8" cy="153.1" rx="0.2" ry="0"/>
								
									<ellipse transform="matrix(-0.9551 -0.2964 0.2964 -0.9551 104.801 321.9138)" fill="#231F20" cx="76.8" cy="153" rx="0" ry="0.1"/>
								<path fill="#231F20" d="M76.8,153.4c0,0,0.1-0.1,0-0.1c0,0-0.2-0.1-0.3,0c0,0-0.1,0.1,0,0.1c0,0,0,0,0,0c0,0,0-0.1,0.1,0
									C76.7,153.2,76.8,153.3,76.8,153.4C76.8,153.3,76.7,153.5,76.8,153.4z"/>
								<path fill="#231F20" d="M77.4,153.3l-0.1-0.2c0,0,0-0.1-0.2-0.1c0,0,0,0,0,0.1l0.1,0c0,0,0,0,0,0.1c0,0,0,0,0.1,0.1
									c0,0,0.1,0,0.1,0.1C77.3,153.4,77.3,153.5,77.4,153.3C77.3,153.4,77.4,153.4,77.4,153.3C77.5,153.4,77.5,153.4,77.4,153.3z"
									/>
								<path fill="#231F20" d="M78.2,154.1l-0.1-0.2c0,0,0-0.1-0.2-0.1c0,0-0.1,0,0,0.1l0.1,0c0,0,0,0,0,0.1c0,0-0.1,0,0,0.1
									c0,0,0.1,0.1,0,0.1C78,154.2,78.1,154.3,78.2,154.1C78.1,154.2,78.2,154.1,78.2,154.1C78.3,154.2,78.3,154.2,78.2,154.1z"/>
								<path fill="#231F20" d="M78.6,155.2l0-0.2c0,0,0-0.1-0.1-0.2c0,0-0.1,0,0,0l0.1,0.1c0,0,0,0.1-0.1,0.1c0,0-0.1,0,0,0.1
									c0,0,0,0.1,0,0.1c0,0,0,0.1,0.1,0C78.5,155.2,78.6,155.2,78.6,155.2C78.6,155.3,78.7,155.3,78.6,155.2z"/>
								<path fill="#231F20" d="M78.6,156.4l0-0.2c0,0,0.1-0.1-0.1-0.2c0,0-0.1,0-0.1,0l0,0.1c0,0,0,0.1-0.1,0c0,0-0.1,0,0,0.1
									c0,0,0,0.1,0,0.1c0,0,0,0.1,0.1,0.1C78.5,156.3,78.6,156.3,78.6,156.4C78.6,156.4,78.7,156.4,78.6,156.4z"/>
								<path fill="#231F20" d="M78,153.4c0,0-0.1,0.1-0.2,0.2c0,0,0,0,0,0c0,0-0.3,0-0.2,0.1c0,0,0.1,0.2,0.2,0.1
									c0,0,0.1-0.2,0.1-0.2L78,153.4z"/>
								<path fill="#231F20" d="M78.9,155.7c0,0-0.1,0-0.2,0c0,0,0,0,0,0c0,0-0.2-0.2-0.2-0.1c0,0-0.1,0.2,0,0.2c0,0,0.2,0,0.2-0.1
									L78.9,155.7z"/>
								<path fill="#231F20" d="M77.6,154C77.6,154,77.6,154.1,77.6,154l-0.1-0.2l-0.2,0c0,0,0-0.1,0-0.1l0.1,0c0,0,0.1,0.1,0.1,0.1
									L77.6,154z"/>
								<g>
									<path fill="#231F20" d="M78.2,154.4c0,0,0,0.1,0,0.2c0,0.1,0.1,0.2,0.1,0.2c0,0,0-0.1,0-0.2
										C78.3,154.5,78.2,154.4,78.2,154.4z"/>
									<path fill="#231F20" d="M78.3,154.5C78.3,154.5,78.3,154.5,78.3,154.5C78.3,154.6,78.3,154.6,78.3,154.5
										C78.4,154.5,78.4,154.5,78.3,154.5C78.4,154.5,78.4,154.5,78.3,154.5z"/>
									<path fill="#231F20" d="M78.4,154.5C78.4,154.5,78.4,154.5,78.4,154.5C78.4,154.6,78.4,154.6,78.4,154.5
										C78.5,154.5,78.5,154.5,78.4,154.5C78.4,154.5,78.4,154.4,78.4,154.5z"/>
									<path fill="#231F20" d="M78.1,154.8c0,0,0.1,0,0.1-0.1c0,0,0-0.2-0.2-0.2c0,0-0.1,0-0.1,0c0,0,0,0,0,0c0,0,0.1,0,0.1,0.1
										C78.1,154.6,78.2,154.7,78.1,154.8C78.1,154.7,78,154.8,78.1,154.8z"/>
								</g>
								<path fill="#231F20" d="M78.2,154.6C78.2,154.6,78.2,154.6,78.2,154.6C78.2,154.6,78.3,154.6,78.2,154.6
									C78.2,154.5,78.2,154.5,78.2,154.6C78.2,154.5,78.2,154.6,78.2,154.6z"/>
								<g>
									<path fill="#231F20" d="M78.4,156.6c0,0-0.1,0.1-0.1,0.2c0,0.1-0.1,0.2,0,0.2c0,0,0.1-0.1,0.1-0.2
										C78.4,156.6,78.5,156.6,78.4,156.6z"/>
									<path fill="#231F20" d="M78.5,156.7C78.4,156.7,78.4,156.7,78.5,156.7C78.4,156.7,78.4,156.8,78.5,156.7
										C78.5,156.8,78.5,156.8,78.5,156.7C78.5,156.8,78.5,156.7,78.5,156.7z"/>
									<path fill="#231F20" d="M78.5,156.7C78.5,156.7,78.5,156.8,78.5,156.7C78.5,156.8,78.5,156.8,78.5,156.7
										C78.6,156.8,78.6,156.8,78.5,156.7C78.6,156.7,78.6,156.7,78.5,156.7z"/>
									<path fill="#231F20" d="M78.1,156.8c0,0,0.1,0.1,0.1,0c0,0,0.1-0.2,0-0.3c0,0-0.1-0.1-0.1,0c0,0,0,0,0,0c0,0,0.1,0,0,0.1
										C78.2,156.7,78.2,156.8,78.1,156.8C78.1,156.7,78,156.7,78.1,156.8z"/>
								</g>
								<path fill="#231F20" d="M78.3,156.7C78.3,156.7,78.3,156.8,78.3,156.7C78.3,156.8,78.3,156.8,78.3,156.7
									C78.4,156.7,78.4,156.7,78.3,156.7C78.3,156.6,78.3,156.7,78.3,156.7z"/>
								<path fill="#231F20" d="M78.3,155.5C78.2,155.5,78.3,155.5,78.3,155.5L78.3,155.5c0.1,0.1,0.1,0.1,0.2,0.1l0,0
									c0,0,0-0.1,0-0.1L78.3,155.5C78.3,155.4,78.3,155.4,78.3,155.5L78.3,155.5z"/>
								<path fill="#231F20" d="M78.4,155.7C78.4,155.7,78.4,155.8,78.4,155.7L78.4,155.7c-0.1,0.1-0.1,0.1-0.1,0.1l0,0
									c0,0,0,0,0-0.1L78.4,155.7C78.4,155.7,78.4,155.7,78.4,155.7L78.4,155.7z"/>
								<path fill="#231F20" d="M73.3,157.4l0-0.2c0,0,0-0.1,0.1,0l0.1,0"/>
							</g>
						</g>
					</g>
				</g>
			</g>
			<g>
				<path fill="#FFFFFF" d="M74,156c0,0.1,0,0.1-0.1,0.1l0,0c-0.1,0-0.1,0-0.1-0.1v-0.2c0-0.1,0-0.1,0.1-0.1l0,0
					c0.1,0,0.1,0,0.1,0.1V156z"/>
				<path fill="#FFFFFF" d="M74,155.5c0,0.1-0.1,0.1-0.1,0.1l0,0c-0.1,0-0.1-0.1-0.1-0.1l0-0.2c0-0.1,0.1-0.1,0.1-0.1l0,0
					c0.1,0,0.1,0.1,0.1,0.1L74,155.5z"/>
				<path fill="#FFFFFF" d="M74.2,154.9c0,0.1-0.1,0.1-0.1,0.1l0,0c-0.1,0-0.1-0.1-0.1-0.1l0.1-0.2c0-0.1,0.1-0.1,0.1-0.1l0,0
					c0.1,0,0.1,0.1,0.1,0.1L74.2,154.9z"/>
				<path fill="#FFFFFF" d="M74.5,154.5c0,0-0.1,0-0.2,0l0,0c0,0,0-0.1,0-0.2l0.1-0.1c0,0,0.1,0,0.2,0l0,0c0,0,0,0.1,0,0.2
					L74.5,154.5z"/>
				<path fill="#FFFFFF" d="M77.6,155.9c0,0.1,0,0.1,0.1,0.1l0,0c0.1,0,0.1,0,0.1-0.1v-0.2c0-0.1,0-0.1-0.1-0.1l0,0
					c-0.1,0-0.1,0-0.1,0.1V155.9z"/>
				<path fill="#FFFFFF" d="M77.6,155.4c0,0.1,0.1,0.1,0.1,0.1l0,0c0.1,0,0.1-0.1,0.1-0.1l0-0.2c0-0.1-0.1-0.1-0.1-0.1l0,0
					c-0.1,0-0.1,0.1-0.1,0.1L77.6,155.4z"/>
				<path fill="#FFFFFF" d="M77.4,154.9c0,0.1,0.1,0.1,0.1,0.1l0,0c0.1,0,0.1-0.1,0.1-0.1l-0.1-0.2c0-0.1-0.1-0.1-0.1-0.1l0,0
					c-0.1,0-0.1,0.1-0.1,0.1L77.4,154.9z"/>
				<path fill="#FFFFFF" d="M77.1,154.5c0,0,0.1,0,0.2,0l0,0c0,0,0-0.1,0-0.2l-0.1-0.1c0,0-0.1,0-0.2,0l0,0c0,0,0,0.1,0,0.2
					L77.1,154.5z"/>
				<path fill="#FFFFFF" d="M74.9,154.2c-0.1,0-0.1,0-0.1,0l0,0c0-0.1,0-0.1,0-0.1l0.2-0.1c0.1,0,0.1,0,0.2,0l0,0c0,0.1,0,0.1,0,0.1
					L74.9,154.2z"/>
				<path fill="#FFFFFF" d="M76.6,154.1c0.1,0,0.1,0,0.2,0l0,0c0-0.1,0-0.1,0-0.2l-0.2-0.1c-0.1,0-0.1,0-0.2,0l0,0
					c0,0.1,0,0.1,0,0.2L76.6,154.1z"/>
				<path fill="#FFFFFF" d="M75.4,153.9c-0.1,0-0.1,0-0.1-0.1l0,0c0-0.1,0-0.1,0.1-0.1l0.2,0c0.1,0,0.1,0,0.1,0.1l0,0
					c0,0.1,0,0.1-0.1,0.1L75.4,153.9z"/>
				<path fill="#FFFFFF" d="M76.1,154c0.1,0,0.1,0,0.1-0.1l0,0c0-0.1,0-0.1-0.1-0.1l-0.2,0c-0.1,0-0.1,0-0.1,0.1l0,0
					c0,0.1,0,0.1,0.1,0.1L76.1,154z"/>
				<path fill="#FFFFFF" d="M74.1,156.3c0,0,0,0.1,0,0.1l-0.1,0c0,0-0.1,0-0.1,0l0,0c0,0,0-0.1,0-0.1l0.1,0
					C74.1,156.3,74.1,156.3,74.1,156.3L74.1,156.3z"/>
				<path fill="#FFFFFF" d="M77.5,156.2c0,0,0,0.1,0,0.1l0.1,0c0,0,0.1,0,0.1,0l0,0c0,0,0-0.1,0-0.1l-0.1,0
					C77.6,156.2,77.5,156.2,77.5,156.2L77.5,156.2z"/>
				<path fill="#FFFFFF" d="M73.8,156.4c0,0,0,0.1-0.1,0.1l0,0c0,0-0.1,0-0.1-0.1l0-0.1c0,0,0-0.1,0.1-0.1l0,0c0,0,0.1,0,0.1,0.1
					L73.8,156.4z"/>
				<path fill="#FFFFFF" d="M73.7,155.3C73.7,155.4,73.7,155.4,73.7,155.3L73.7,155.3c-0.1,0.1-0.2,0-0.2,0l0-0.2
					c0-0.1,0-0.1,0.1-0.1l0,0c0,0,0.1,0.1,0.1,0.1L73.7,155.3z"/>
				<path fill="#FFFFFF" d="M73.9,156.6C73.9,156.7,73.8,156.7,73.9,156.6L73.9,156.6c-0.1,0.1-0.2,0-0.2,0l0,0
					C73.7,156.6,73.8,156.5,73.9,156.6L73.9,156.6C73.8,156.5,73.9,156.6,73.9,156.6L73.9,156.6z"/>
				<path fill="#FFFFFF" d="M73.8,154.9C73.8,154.9,73.8,155,73.8,154.9L73.8,154.9c-0.1,0.1-0.2,0.1-0.2,0v0
					C73.7,154.8,73.7,154.8,73.8,154.9L73.8,154.9C73.8,154.8,73.8,154.8,73.8,154.9L73.8,154.9z"/>
				<path fill="#FFFFFF" d="M74.6,154c0,0-0.1,0-0.1,0l0,0c0,0,0-0.1,0-0.1l0,0c0,0,0.1,0,0.1,0l0,0C74.6,153.9,74.6,154,74.6,154
					L74.6,154z"/>
				<path fill="#FFFFFF" d="M73.9,154.7C73.9,154.7,73.9,154.8,73.9,154.7L73.9,154.7c-0.1,0.1-0.2,0-0.2,0v0
					C73.8,154.6,73.8,154.6,73.9,154.7L73.9,154.7C73.9,154.6,73.9,154.6,73.9,154.7L73.9,154.7z"/>
				<path fill="#FFFFFF" d="M74.4,154.1C74.4,154.1,74.4,154.2,74.4,154.1L74.4,154.1c-0.1,0.1-0.2,0-0.2,0v0
					C74.2,154,74.3,154,74.4,154.1L74.4,154.1C74.4,154,74.4,154,74.4,154.1L74.4,154.1z"/>
				<path fill="#FFFFFF" d="M74.1,154.5c0,0-0.1,0.1-0.1,0l0,0c0,0-0.1-0.1,0-0.1l0,0c0,0,0.1-0.1,0.1,0l0,0
					C74.1,154.4,74.1,154.4,74.1,154.5L74.1,154.5z"/>
				<path fill="#FFFFFF" d="M74.8,153.9c0,0-0.1,0-0.1,0l0,0c0,0,0-0.1,0-0.1l0,0c0,0,0.1,0,0.1,0l0,0
					C74.8,153.7,74.8,153.8,74.8,153.9L74.8,153.9z"/>
				<path fill="#FFFFFF" d="M75,153.7c0,0,0,0.1,0,0.1l0,0c0,0-0.1,0-0.1-0.1l0,0c0,0,0-0.1,0-0.1l0,0C75,153.6,75,153.6,75,153.7
					L75,153.7z"/>
				<path fill="#FFFFFF" d="M74.2,154.3c0,0-0.1,0.1-0.1,0l0,0c0,0-0.1-0.1,0-0.1l0,0c0,0,0.1-0.1,0.1-0.1l0,0
					C74.2,154.2,74.3,154.2,74.2,154.3L74.2,154.3z"/>
				<path fill="#FFFFFF" d="M75.3,153.6c0,0,0,0.1-0.1,0.1l-0.1,0c0,0-0.1,0-0.1-0.1l0,0c0,0,0-0.1,0.1-0.1l0.1,0
					C75.3,153.5,75.3,153.5,75.3,153.6L75.3,153.6z"/>
				<path fill="#FFFFFF" d="M77.8,156.2c0,0,0,0.1,0.1,0.1l0,0c0.1,0,0.1,0,0.1-0.1l0-0.1c0,0,0-0.1-0.1-0.1l0,0c0,0-0.1,0-0.1,0.1
					L77.8,156.2z"/>
				<path fill="#FFFFFF" d="M77.9,155.2c0,0.1,0.1,0.1,0.1,0.1l0,0c0,0,0.1-0.1,0.1-0.1l0-0.2c0-0.1-0.1-0.1-0.1-0.1l0,0
					c0,0-0.1,0.1-0.1,0.1L77.9,155.2z"/>
				<path fill="#FFFFFF" d="M77.8,156.5C77.8,156.5,77.8,156.5,77.8,156.5L77.8,156.5c0.1,0.1,0.1,0.1,0.2,0.1l0,0c0,0,0-0.1,0-0.1
					L77.8,156.5C77.8,156.4,77.8,156.4,77.8,156.5L77.8,156.5z"/>
				<path fill="#FFFFFF" d="M77.7,154.8C77.7,154.9,77.7,154.9,77.7,154.8L77.7,154.8c0.1,0.1,0.2,0,0.2,0v0
					C77.9,154.7,77.8,154.7,77.7,154.8L77.7,154.8C77.7,154.7,77.7,154.7,77.7,154.8L77.7,154.8z"/>
				<path fill="#FFFFFF" d="M76.9,154c0,0,0.1,0,0.1,0l0,0c0,0,0-0.1,0-0.1l0,0c0,0-0.1,0-0.1,0l0,0C76.9,153.9,76.9,153.9,76.9,154
					L76.9,154z"/>
				<path fill="#FFFFFF" d="M77.6,154.6C77.6,154.6,77.6,154.7,77.6,154.6L77.6,154.6c0.1,0.1,0.2,0,0.2,0v0
					C77.8,154.5,77.7,154.5,77.6,154.6L77.6,154.6C77.6,154.5,77.6,154.5,77.6,154.6L77.6,154.6z"/>
				<path fill="#FFFFFF" d="M77.1,154C77.1,154.1,77.1,154.1,77.1,154L77.1,154c0.1,0.1,0.2,0,0.2,0v0C77.3,154,77.2,153.9,77.1,154
					L77.1,154C77.1,153.9,77.1,154,77.1,154L77.1,154z"/>
				<path fill="#FFFFFF" d="M77.5,154.4c0,0,0.1,0.1,0.1,0.1l0,0c0,0,0.1-0.1,0-0.1l0,0c0,0-0.1-0.1-0.1,0l0,0
					C77.5,154.3,77.4,154.4,77.5,154.4L77.5,154.4z"/>
				<path fill="#FFFFFF" d="M76.7,153.8c0,0,0.1,0,0.1,0l0,0c0,0,0-0.1,0-0.1l0,0c0,0-0.1,0-0.1,0l0,0
					C76.7,153.7,76.7,153.8,76.7,153.8L76.7,153.8z"/>
				<path fill="#FFFFFF" d="M76.5,153.6c0,0,0,0.1,0,0.1l0,0c0.1,0,0.1,0,0.1,0l0,0c0,0,0-0.1,0-0.1l0,0
					C76.6,153.5,76.5,153.6,76.5,153.6L76.5,153.6z"/>
				<path fill="#FFFFFF" d="M77.3,154.2c0,0,0.1,0.1,0.1,0.1l0,0c0,0,0.1-0.1,0-0.1l0,0c0,0-0.1-0.1-0.1,0l0,0
					C77.3,154.1,77.3,154.2,77.3,154.2L77.3,154.2z"/>
				<path fill="#FFFFFF" d="M76.2,153.5c0,0,0,0.1,0.1,0.1l0.1,0c0,0,0.1,0,0.1-0.1l0,0c0,0,0-0.1-0.1-0.1l-0.1,0
					C76.2,153.5,76.2,153.5,76.2,153.5L76.2,153.5z"/>
			</g>
			<path fill="#231F20" stroke="#231F20" stroke-width="2.446900e-02" d="M74.5,156.3c0.1-0.1-0.1-0.1-0.1-0.1
				c-0.2,0-0.2-0.4-0.2-0.4c0-0.6,0.4-0.4,0.4-0.4c0.1,0,0.1-0.1,0.1-0.1l-0.2-0.4c-0.1-0.1,0.6-0.4,0.6-0.4c0.2-0.1,0.2,0,0.2,0
				l0.1,0.2c0.1,0.1,0.1,0,0.1,0l0.2-0.5V154h0.1v0.1l0.2,0.5c0,0,0.1,0.1,0.1,0l0.1-0.2c0,0,0-0.1,0.1,0l0.6,0.3c0,0,0.2,0.1,0,0.3
				l-0.1,0.2c0,0-0.1,0.1,0.1,0.1c0,0,0.3-0.1,0.4,0c0,0,0.1,0.4,0.1,0.5c0,0,0,0.2-0.2,0.2c0,0-0.1,0.1,0,0.1c0,0-0.4-0.2-1.3-0.2
				C75.9,156,75.4,155.9,74.5,156.3z"/>
			<path fill="#FFFFFF" d="M75.4,154.7l-0.1-0.2c0,0,0-0.1-0.3,0c0,0-0.2,0.1-0.3,0.1c0,0-0.2,0,0,0.2l0.1,0.3c0,0,0.1,0.2,0,0.2
				c0,0-0.2,0-0.2,0c0,0-0.2-0.1-0.2,0.1c0,0-0.1,0.6,0.2,0.5c0,0,0.1-0.1,0.2-0.1c0,0,0,0,0,0c0,0,0,0.1,0.2,0c0,0,0.1,0,0-0.2
				c0,0-0.1-0.6,0.4-0.8C75.4,155,75.5,155,75.4,154.7z"/>
			<path fill="#FFFFFF" d="M76.2,154.7l0.1-0.2c0,0,0-0.1,0.3,0c0,0,0.2,0.1,0.3,0.1c0,0,0.2,0,0,0.2l-0.1,0.3c0,0-0.1,0.2,0,0.2
				c0,0,0.2,0,0.2,0c0,0,0.2-0.1,0.2,0.1c0,0,0.2,0.6-0.2,0.5c0,0-0.1-0.1-0.2-0.1c0,0,0,0,0,0c0,0,0,0.1-0.2,0c0,0-0.1,0,0-0.2
				c0,0,0.1-0.6-0.4-0.8C76.2,155,76.1,154.9,76.2,154.7z"/>
			<g>
				<path fill="#231F20" d="M74.5,155.2c0,0-0.1,0.1-0.2,0c-0.1,0-0.1-0.1-0.1-0.1c0,0,0.1-0.1,0.2,0
					C74.5,155.1,74.6,155.1,74.5,155.2z"/>
				<path fill="#231F20" d="M77.1,155.1c0,0,0.1,0.1,0.2,0.1c0.1,0,0.1-0.1,0.1-0.1c0-0.1-0.1-0.1-0.2-0.1
					C77.1,155,77,155.1,77.1,155.1z"/>
				<path fill="#231F20" d="M74.8,154.8C74.8,154.9,74.7,154.9,74.8,154.8C74.7,154.9,74.7,154.9,74.8,154.8
					C74.7,154.8,74.7,154.8,74.8,154.8C74.7,154.8,74.8,154.8,74.8,154.8z"/>
				<path fill="#231F20" d="M75.2,154.6C75.2,154.7,75.2,154.7,75.2,154.6C75.2,154.7,75.1,154.7,75.2,154.6
					C75.1,154.6,75.2,154.6,75.2,154.6C75.2,154.6,75.2,154.6,75.2,154.6z"/>
				<circle fill="#231F20" cx="74.5" cy="155.5" r="0.1"/>
				<circle fill="#231F20" cx="74.8" cy="155.6" r="0"/>
				<path fill="#231F20" d="M74.9,155.7C74.9,155.8,74.9,155.8,74.9,155.7C74.8,155.8,74.8,155.8,74.9,155.7
					C74.8,155.7,74.8,155.7,74.9,155.7C74.9,155.7,74.9,155.7,74.9,155.7z"/>
				<circle fill="#231F20" cx="74.8" cy="155.9" r="0"/>
				<circle fill="#231F20" cx="76.9" cy="154.8" r="0"/>
				<circle fill="#231F20" cx="76.4" cy="154.6" r="0"/>
				<path fill="#231F20" d="M77.1,155.4C77.1,155.5,77.1,155.5,77.1,155.4C77.2,155.5,77.2,155.5,77.1,155.4
					C77.2,155.4,77.2,155.4,77.1,155.4C77.1,155.4,77.1,155.4,77.1,155.4z"/>
				<path fill="#231F20" d="M76.8,155.5C76.8,155.5,76.8,155.6,76.8,155.5C76.9,155.5,76.9,155.5,76.8,155.5
					C76.9,155.5,76.9,155.5,76.8,155.5C76.8,155.5,76.8,155.5,76.8,155.5z"/>
				<circle fill="#231F20" cx="76.8" cy="155.6" r="0"/>
				<path fill="#231F20" d="M76.8,155.8C76.8,155.8,76.8,155.8,76.8,155.8C76.9,155.8,76.9,155.8,76.8,155.8
					C76.9,155.7,76.9,155.7,76.8,155.8C76.8,155.7,76.8,155.8,76.8,155.8z"/>
			</g>
			<g>
				<path fill="#FFFFFF" d="M75.5,155.3c0,0,0,0.1,0,0.1c0,0,0.1,0,0,0c0,0,0,0,0.1,0c0,0,0.1,0,0.1,0c0,0,0,0.1,0,0.1
					c0,0,0,0,0,0.1c0,0,0,0.1-0.1,0c0,0-0.1,0-0.1,0.1c0,0,0,0.1-0.1,0C75.4,155.9,75.3,155.7,75.5,155.3
					C75.5,155.3,75.5,155.3,75.5,155.3z"/>
				<path fill="#FFFFFF" d="M76.1,155.3c0,0,0,0.1,0,0.1c0,0-0.1,0,0,0c0,0,0,0-0.1,0c0,0-0.1,0-0.1,0c0,0,0,0.1,0,0.1
					c0,0,0,0,0,0.1c0,0,0,0.1,0.1,0c0,0,0.1,0,0.1,0.1c0,0,0,0.1,0.1,0C76.2,155.9,76.4,155.7,76.1,155.3
					C76.2,155.3,76.1,155.3,76.1,155.3z"/>
				<path fill="#FFFFFF" d="M75.3,155.3c0,0,0.1,0,0,0.1c0,0-0.1,0.1,0,0.2c0,0,0,0.2-0.1,0.2c0,0-0.1,0-0.1-0.4
					C75.1,155.6,75.1,155.3,75.3,155.3z"/>
				<path fill="#FFFFFF" d="M76.4,155.3c0,0-0.1,0,0,0.1c0,0,0.1,0.1,0,0.2c0,0,0,0.2,0.1,0.2c0,0,0.1,0,0.1-0.4
					C76.5,155.5,76.5,155.2,76.4,155.3z"/>
				<path fill="#FFFFFF" d="M75.7,155.2C75.6,155.2,75.6,155.2,75.7,155.2C75.6,155.2,75.5,155.1,75.7,155.2
					C75.6,155.1,75.6,155.1,75.7,155.2C75.7,155.1,75.7,155.1,75.7,155.2z"/>
				<path fill="#FFFFFF" d="M75.5,155.2C75.4,155.2,75.4,155.2,75.5,155.2C75.4,155.2,75.3,155.2,75.5,155.2
					C75.4,155.1,75.4,155.1,75.5,155.2C75.5,155.1,75.5,155.2,75.5,155.2z"/>
				<path fill="#FFFFFF" d="M76,155.1C76,155.2,76,155.2,76,155.1C76.1,155.2,76.1,155.1,76,155.1C76,155.1,76,155.1,76,155.1
					C76,155.1,76,155.1,76,155.1z"/>
				
					<ellipse transform="matrix(-0.8808 0.4735 -0.4735 -0.8808 216.8264 255.7402)" fill="#FFFFFF" cx="76.2" cy="155.2" rx="0.1" ry="0.1"/>
				<ellipse fill="#FFFFFF" cx="75.8" cy="154.4" rx="0.1" ry="0.1"/>
				<path fill="#FFFFFF" d="M75.9,154.8C75.9,154.9,75.8,154.9,75.9,154.8c-0.1,0.1-0.1,0-0.1,0C75.7,154.8,75.7,154.7,75.9,154.8
					C75.8,154.7,75.9,154.8,75.9,154.8z"/>
			</g>
			<path fill="#231F20" stroke="#231F20" stroke-width="3.425800e-02" d="M74.3,150.6c-0.1-0.1-0.8,0.2-0.8,0.2
				c-0.4,0.2-0.2,0.3-0.2,0.3l0.2,0.3c0.2,0.2-0.1,0.4-0.1,0.4c-1.5,0.9-1.9,2.5-1.9,2.5c-0.5,1.4,0,2.8,0,2.8
				c0.4,1.4,1.1,1.9,1.1,1.9c0.2,0.1,0.1,0.3,0.1,0.3l-0.1,0.2c-0.1,0.1-0.1,0.2-0.1,0.2l0.6,0.5c0,0.1,0.1,0.2,0.1,0.2l-0.6,0.1
				c-0.3,0-0.1,0.2-0.1,0.2c0.3,0.6,0.8,1.2,0.8,1.2c-1.3-0.3-2.6-1.9-2.6-1.9c-0.3-0.3-0.1-0.5-0.1-0.5l0.2-0.2
				c0.2-0.1,0-0.3,0-0.3c-1.2-1.8-0.8-3.9-0.8-3.9c0.3-2.2,1.8-3.5,1.8-3.5c0.3-0.2,0-0.3,0-0.3l-0.2-0.2c0,0-0.2-0.2,0.1-0.4
				c0,0,0.6-0.5,1.1-0.7c0.4-0.2,0.6-0.3,0.8-0.4c0.2-0.1,0.5-0.2,0.5-0.2l-0.1,0.3l0.2,0.7L74.3,150.6"/>
			<path fill="#231F20" stroke="#231F20" stroke-width="3.425800e-02" d="M77.2,150.4c0.1-0.1,0.7,0.2,0.7,0.2
				c0.3,0.2,0.2,0.3,0.2,0.3l-0.4,0.4c-0.2,0.2,0.1,0.3,0.3,0.4c0.4,0.2,0.8,0.4,1,0.7c0.8,0.7,1,1.6,1,1.6c0.6,1.4,0.2,2.8,0.2,2.8
				c-0.2,1.4-1.1,2-1.1,2c-0.3,0.3-0.1,0.3-0.1,0.3c0.3,0.2,0.2,0.3,0.2,0.3l-0.5,0.5c-0.1,0.1-0.2,0.2-0.2,0.1l0.4,0
				c0.2,0,0.5,0,0.5,0c-0.2,0.6-0.9,1.4-0.9,1.4c1.2-0.3,2.2-1.6,2.2-1.6c0.7-0.8,0.4-0.9,0.4-0.9l-0.2-0.2
				c-0.2-0.1-0.1-0.3-0.1-0.3c1-1.9,0.6-3.8,0.6-3.8c-0.3-2.2-2.2-3.5-2.2-3.5c-0.2-0.1,0-0.3,0-0.3l0.2-0.2c0,0,0.2-0.2,0-0.4
				l-1.3-0.7v0.1l0,0l-0.1,0l-0.1-0.1l-0.2-0.2l-0.2-0.1l-0.2,0l-0.1,0.2l-0.2,0.7L77.2,150.4"/>
			<path fill="none" stroke="#231F20" stroke-width="5.872700e-02" d="M75,152.7c0,0,0.2,0.3,0.2,0.4"/>
			<path fill="none" stroke="#231F20" stroke-width="5.872700e-02" d="M74.9,152.8c0,0,0.2,0.2,0.2,0.3"/>
			<path fill="#FFFFFF" d="M75.3,152.6C75.3,152.6,75.3,152.6,75.3,152.6C75.4,152.6,75.4,152.5,75.3,152.6
				C75.3,152.5,75.3,152.5,75.3,152.6C75.3,152.5,75.3,152.5,75.3,152.6z"/>
			<g>
				<path fill="#BA9C67" d="M72.9,161.5c0,0-1.4-0.7-2.4-2c0,0,0-0.2,0.1-0.2c0,0,0.1,0,0.5,0.5c0,0,0.3,0.5,0.6,0.2l0.4-0.4
					l0.5,0.5l-0.5,0.1c0,0-0.2,0-0.1,0.2C72.1,160.4,72.5,161.3,72.9,161.5z"/>
				<path fill="#BA9C67" stroke="#A9906F" stroke-width="3.425800e-02" d="M71.9,159.8l0.5-0.6c0,0,0.1-0.1,0-0.2c0,0-0.6-0.6-1-1.7
					c0,0-0.3-0.7-0.3-1.7c0,0,0-0.7,0.3-1.7c0,0,0.3-0.8,0.9-1.4c0,0,0.6-0.6,1.1-0.9c0,0,0.1-0.1,0-0.2c0,0-0.1-0.1-0.3,0.1
					l-0.4,0.3c0,0-0.2,0.1-0.4-0.1l-0.3-0.3c0,0,0-0.1-0.2,0c0,0-0.8,0.8-1.1,1.4c0,0-0.4,0.7-0.6,1.6c0,0-0.2,0.9-0.1,2
					c0,0,0.1,1.3,0.9,2.4c0,0,0.6,0.8,0.8,0.9C71.7,159.8,71.8,159.9,71.9,159.8z"/>
				<path fill="#BA9C67" stroke="#A9906F" stroke-width="3.425800e-02" d="M72.4,151.4c0,0,0.6-0.5,1.6-0.8c0,0,0.1-0.1,0.1-0.2
					c0,0-0.2-0.4-0.2-0.5c0,0-0.1-0.3-0.2-0.4c0,0-0.1-0.1-0.2,0.1c0,0-0.6,0.2-0.9,0.5c0,0-0.7,0.5-0.9,0.6c0,0-0.1,0.1,0.1,0.3
					l0.5,0.6C72.2,151.4,72.3,151.6,72.4,151.4z"/>
				<path fill="#BA9C67" d="M78.8,149.8c0.5,0.3,0.5,0.3,0.8,0.5c0,0,0.3,0.2,0,0.5l-0.2,0.2l-0.4,0.5l-0.4-0.2c0,0,0-0.1,0-0.1
					c0-0.1-0.1-0.1-0.1-0.1c-0.1-0.1,0.1-0.2,0.1-0.3c0,0,0-0.8,0-0.8L78.8,149.8L78.8,149.8L78.8,149.8z"/>
				<path fill="#BA9C67" d="M77.9,151.4c0,0,0-0.2,0.2-0.1c0,0,0.4,0.2,0.5,0.3c0,0,0.2,0.2,0.4,0c0,0,0.3-0.3,0.3-0.4
					c0,0,0-0.1,0.1,0c0,0,1.2,1,1.7,2.1c0,0,0.5,1.1,0.5,2.4c0,0,0.1,0.9-0.4,2c0,0-0.4,1.2-1,1.7c0,0-0.1,0.2-0.3,0l-0.6-0.5
					c0,0-0.1-0.1,0-0.2c0,0,0.5-0.6,0.5-0.7c0,0,0.4-0.9,0.5-1.7c0,0,0.1-0.6,0-1.2c0,0-0.1-0.8-0.6-1.8c0,0-0.4-0.9-1.3-1.4
					c0,0-0.5-0.4-0.7-0.4C78,151.5,77.9,151.5,77.9,151.4z"/>
				<path fill="#BA9C67" d="M79.2,161.3c0,0,1.3-0.8,2.2-2.2c0,0,0-0.2-0.2-0.1c0,0-0.1,0-0.4,0.5c0,0-0.3,0.5-0.6,0.2l-0.5-0.4
					l-0.5,0.5l0.5,0c0,0,0.2,0,0.1,0.2C79.9,160.2,79.6,161.1,79.2,161.3z"/>
			</g>
			<g>
				<circle fill="#FFFFFF" stroke="#231F20" stroke-width="5.872700e-02" cx="75.9" cy="159.1" r="3.1"/>
				<path fill="none" stroke="#231F20" stroke-width="5.872700e-02" d="M76.8,156.4c0,0,1,0.7,1.2,0.8"/>
				<path fill="none" stroke="#231F20" stroke-width="5.872700e-02" d="M73.6,157.4c0,0,1.1-0.9,1.2-0.9"/>
				<line fill="none" stroke="#231F20" stroke-width="5.872700e-02" x1="73.8" y1="158.4" x2="74.9" y2="158.7"/>
				<path fill="none" stroke="#231F20" stroke-width="5.872700e-02" d="M76.9,158.7c0,0,1-0.4,1.2-0.4"/>
				<path fill="none" stroke="#231F20" stroke-width="5.872700e-02" d="M76.6,159.8c0,0,0.6,0.8,0.7,1"/>
				<path fill="none" stroke="#231F20" stroke-width="5.872700e-02" d="M78.7,159.1c0,0-0.3,1.4-0.5,1.5"/>
				<path fill="none" stroke="#231F20" stroke-width="5.872700e-02" d="M74.6,160.8c0,0,0.6-0.9,0.7-0.9"/>
				<path fill="none" stroke="#231F20" stroke-width="5.872700e-02" d="M75.2,161.7c0,0,0.7,0.1,1.6,0"/>
				<path fill="none" stroke="#231F20" stroke-width="5.872700e-02" d="M73.6,160.6c0,0-0.4-0.7-0.5-1.4"/>
				<path fill="none" stroke="#231F20" stroke-width="5.872700e-02" d="M75.9,158c0,0,0-0.8-0.1-1.2"/>
			</g>
			<g>
				<path fill="#231F20" d="M75,156.1c0,0,0.8-0.3,1.7-0.1c0,0,0.2,0.4,0.3,0.4c0,0-0.9,0.2-1.1,0.4c0,0-0.1-0.3-1.1-0.4
					C74.8,156.5,75.1,156.2,75,156.1z"/>
				<path fill="#231F20" d="M73.3,157.4c0,0,0.3,0,0.4-0.1c0,0-0.1,1,0.2,1.1c0,0-0.2-0.1-0.7,0.9c0,0-0.2-0.4-0.4-0.3
					C72.8,159,72.8,158.1,73.3,157.4z"/>
				<path fill="#231F20" d="M73.5,160.9c0,0,0.2,0,0.1-0.5c0,0,0.2,0.3,1.1,0.3c0,0,0.3,0.9,0.7,0.9c0,0-0.6,0.1-0.4,0.3
					C74.9,162,74.2,161.8,73.5,160.9z"/>
				<path fill="#231F20" d="M77.2,160.8c0,0-0.4,0.9-0.6,0.9c0,0,0.5,0.1,0.4,0.3c0,0,0.9-0.2,1.5-1.1c0,0-0.2,0.2-0.2-0.4
					C78.3,160.5,77.6,160.8,77.2,160.8"/>
				<path fill="#231F20" d="M75.9,157.9c0,0-0.8,0.4-1.1,0.8c0,0,0.2,1,0.4,1.3c0,0,0.6,0.1,1.4,0c0,0,0.3-0.6,0.3-1.3
					C77,158.7,76.7,158.3,75.9,157.9z"/>
				<path fill="#231F20" d="M78.4,157.2c0,0-0.1,0.2-0.5-0.1c0,0,0.2,1,0,1.1c0,0,0.4,0.2,0.7,0.9c0,0,0.3-0.5,0.4-0.3
					C79,158.9,79.1,158.2,78.4,157.2z"/>
			</g>
			<g>
				<path fill="#231F20" d="M71.6,159.3L71.6,159.3l0.2,0.1l0.1-0.1l-0.1-0.1l0.1-0.1l0.1,0.1l0.2-0.2l0.1,0.1l-0.4,0.4L71.6,159.3z
					"/>
				<path fill="#231F20" d="M71.7,158.7L71.7,158.7l0.3,0.2l-0.5,0.4l-0.2-0.2l0.1-0.1l0.1,0.2l0.1-0.1l-0.1-0.2l0.1-0.1l0.1,0.2
					l0.1-0.1L71.7,158.7z"/>
				<path fill="#231F20" d="M71.3,158.7c0-0.1-0.1-0.1,0-0.1c0,0,0.1-0.1,0.2-0.1c0.1,0,0.1-0.1,0.2-0.1c0,0,0,0,0.1,0.1l0,0
					L71.3,158.7z M71.8,158.6l-0.1-0.1c0-0.1-0.1-0.1-0.1-0.1c0,0-0.1,0-0.1,0c0,0-0.1,0-0.2,0.1c-0.1,0.1-0.2,0.1-0.2,0.2
					c0,0,0,0.1,0,0.2l0.1,0.2L71.8,158.6z"/>
				<path fill="#231F20" d="M71.3,157.9L71.3,157.9l0.2,0.2l-0.5,0.3l-0.1-0.3l0.1,0l0.1,0.2l0.1-0.1l-0.1-0.2l0.1,0l0.1,0.2
					l0.1-0.1L71.3,157.9z"/>
				<path fill="#231F20" d="M70.8,157.9c0-0.1,0-0.1,0-0.1c0,0,0,0,0-0.1c0,0,0.1,0,0.1,0c0,0,0,0,0,0.1c0,0,0,0,0,0c0,0,0,0,0,0
					L70.8,157.9z M70.9,157.6C70.9,157.6,70.8,157.6,70.9,157.6c-0.1,0-0.2,0.1-0.2,0.1c0,0,0,0.1,0,0.1l0.1,0.2l0.5-0.2l0-0.1
					l-0.2,0.1c0-0.1,0-0.1,0-0.1c0,0,0,0,0.1-0.1c0,0,0.1,0,0.1,0c0,0,0,0,0,0l-0.1-0.1c0,0,0,0,0,0.1s-0.1,0-0.1,0
					C71,157.5,71,157.6,70.9,157.6C70.9,157.6,70.9,157.6,70.9,157.6C70.9,157.6,70.9,157.6,70.9,157.6z"/>
				<path fill="#231F20" d="M70.7,157.4l0.2-0.1l0,0.1L70.7,157.4z M70.6,157.5l0.6,0l0-0.1l-0.2,0l0-0.1l0.1-0.1l0-0.1l-0.5,0.3
					L70.6,157.5z"/>
				<path fill="#231F20" d="M70.8,156.8l0-0.1c0.1,0,0.1,0,0.2,0c0,0,0.1,0.1,0.1,0.1c0,0.1,0,0.1,0,0.2c0,0-0.1,0.1-0.3,0.1
					c-0.1,0-0.2,0-0.2,0c0,0-0.1-0.1-0.1-0.1c0-0.1,0-0.1,0-0.1c0,0,0.1-0.1,0.1-0.1l0,0.1c0,0,0,0-0.1,0c0,0,0,0,0,0.1
					c0,0,0,0,0.1,0c0,0,0.1,0,0.1,0c0,0,0,0,0,0c0.1,0,0.2,0,0.2-0.1c0,0,0,0,0-0.1c0,0,0,0,0,0C70.9,156.8,70.8,156.8,70.8,156.8z"
					/>
				<path fill="#231F20" d="M70.3,156.5l0.6-0.1l0,0.1l-0.6,0.1L70.3,156.5z"/>
				<path fill="#231F20" d="M70.4,156.3C70.4,156.3,70.4,156.3,70.4,156.3c-0.1-0.1-0.1-0.1,0-0.1c0,0,0.1,0,0.2,0
					c0.1,0,0.1,0,0.2,0c0,0,0,0,0,0.1c0,0,0,0.1-0.1,0.1c0,0,0,0-0.1,0C70.5,156.3,70.5,156.3,70.4,156.3z M70.3,156.1
					c0,0-0.1,0.1,0,0.2c0,0.1,0,0.1,0.1,0.1c0,0,0.1,0,0.2,0c0.1,0,0.2,0,0.2-0.1c0.1,0,0.1-0.1,0.1-0.2c0-0.1,0-0.1-0.1-0.1
					c0,0-0.1,0-0.1,0c0,0-0.1,0-0.2,0C70.5,156,70.4,156,70.3,156.1z"/>
				<path fill="#231F20" d="M70.3,155.5l0.6,0l0,0.1l-0.4,0.2l0.4,0l0,0.1l-0.6,0l0-0.1l0.4-0.2l-0.4,0L70.3,155.5z"/>
				<path fill="#231F20" d="M70.4,154.6l0.6,0.1l0,0.1l-0.5-0.1l0.5,0.2l0,0.1l-0.5,0l0.5,0.1l0,0.1l-0.6-0.1l0-0.2l0.4,0l-0.4-0.1
					L70.4,154.6z"/>
				<path fill="#231F20" d="M71,154.3L71,154.3l0,0.3l-0.6-0.2l0.1-0.3l0.1,0l-0.1,0.2l0.1,0l0-0.2l0.1,0l0,0.2l0.2,0L71,154.3z"/>
				<path fill="#231F20" d="M70.9,153.9l0.3,0l0,0.1L70.9,153.9l0.2,0.3l0,0.1l-0.2-0.2l-0.3,0l0-0.1l0.2,0l-0.1-0.1l0-0.1
					L70.9,153.9z"/>
				<path fill="#231F20" d="M70.7,153.5l0.5,0.2l0,0.1l-0.5-0.2L70.7,153.5z"/>
				<path fill="#231F20" d="M71.2,153.3l0.1-0.1c0.1,0,0.1,0.1,0.1,0.1c0,0,0,0.1,0,0.2c0,0.1-0.1,0.1-0.1,0.1c-0.1,0-0.1,0-0.3-0.1
					c-0.1,0-0.2-0.1-0.2-0.1c0,0,0-0.1,0-0.2c0-0.1,0.1-0.1,0.1-0.1c0,0,0.1,0,0.2,0l-0.1,0.1c0,0,0,0-0.1,0c0,0-0.1,0-0.1,0
					c0,0,0,0.1,0.1,0.1c0,0,0,0,0.1,0c0,0,0,0,0,0c0.1,0,0.1,0.1,0.2,0.1c0,0,0,0,0.1,0C71.3,153.4,71.3,153.4,71.2,153.3
					C71.3,153.4,71.3,153.4,71.2,153.3z"/>
				<path fill="#231F20" d="M71.2,152.9l0.2,0.1l-0.1,0.1L71.2,152.9z M71.1,152.9l0.4,0.4l0.1-0.1l-0.1-0.1l0.1-0.1l0.1,0.1
					l0.1-0.1l-0.6-0.2L71.1,152.9z"/>
				<path fill="#231F20" d="M71.5,152.2l0.5,0.4l-0.1,0.1l-0.4-0.1l0.3,0.3l-0.1,0.1l-0.5-0.4l0.1-0.1l0.4,0.1L71.5,152.2
					L71.5,152.2z"/>
				<path fill="#231F20" d="M71.8,152.1l0.2,0.1l-0.1,0.1L71.8,152.1z M71.7,152.1l0.3,0.5l0.1-0.1l-0.1-0.1l0.1-0.1l0.1,0.1
					l0.1-0.1l-0.5-0.3L71.7,152.1z"/>
				<path fill="#231F20" d="M79.3,152.1C79.3,152.1,79.3,152.1,79.3,152.1l0.2-0.3c0,0,0,0,0,0.1c0,0,0,0,0,0.1L79.3,152.1
					C79.4,152,79.4,152.1,79.3,152.1z M79.7,151.9c0,0,0-0.1-0.1-0.2l-0.1-0.1l-0.4,0.4l0.1,0.1c0.1,0.1,0.1,0.1,0.2,0.1
					c0,0,0.1-0.1,0.2-0.1C79.7,152,79.7,151.9,79.7,151.9z"/>
				<path fill="#231F20" d="M79.6,152.6l-0.2-0.2l0.5-0.4l0.2,0.2l-0.1,0.1l-0.1-0.1l-0.1,0.1l0.1,0.1l-0.1,0.1l-0.1-0.1l-0.1,0.1
					L79.6,152.6L79.6,152.6z"/>
				<path fill="#231F20" d="M80.4,152.8l-0.1-0.2l-0.1,0.1L80.4,152.8l-0.2,0.1l-0.1-0.1l-0.2,0.1l-0.1-0.1l0.5-0.3L80.4,152.8
					L80.4,152.8z"/>
				<path fill="#231F20" d="M80.4,153.3c-0.1,0-0.1,0.1-0.2,0.1c0,0-0.1,0-0.1-0.1c0-0.1,0-0.1,0-0.2c0,0,0.1-0.1,0.2-0.1l0.3-0.2
					l0.1,0.1l-0.3,0.2c0,0-0.1,0-0.1,0.1c0,0,0,0,0,0c0,0,0,0,0,0c0,0,0.1,0,0.1,0l0.3-0.2l0.1,0.1L80.4,153.3z"/>
				<path fill="#231F20" d="M80.8,153.6l-0.1-0.1l-0.4,0.2l-0.1-0.1l0.4-0.2l0-0.1l0.1,0l0.2,0.3L80.8,153.6z"/>
				<path fill="#231F20" d="M80.8,153.9C80.8,153.9,80.8,153.9,80.8,153.9L80.8,153.9c0.1-0.1,0.1,0,0.1,0
					C80.9,153.9,80.9,153.9,80.8,153.9C80.9,153.9,80.9,153.9,80.8,153.9z M80.8,154.1C80.8,154.1,80.8,154.1,80.8,154.1
					C80.9,154,80.9,154,80.8,154.1c0.1-0.1,0.1-0.1,0.2-0.1c0.1,0,0.1-0.1,0.1-0.1c0,0,0-0.1,0-0.2l-0.1-0.1l-0.6,0.2l0.1,0.2
					c0,0.1,0.1,0.1,0.1,0.1C80.6,154.2,80.7,154.2,80.8,154.1C80.8,154.1,80.8,154.1,80.8,154.1z M80.6,154
					C80.6,154,80.6,154,80.6,154l0.1-0.1c0,0,0,0.1,0,0.1C80.7,154,80.7,154,80.6,154C80.7,154,80.6,154,80.6,154z"/>
				<path fill="#231F20" d="M80.8,154.5C80.8,154.5,80.7,154.5,80.8,154.5c-0.1-0.1,0-0.1,0-0.1c0,0,0,0,0.1,0l0.1,0
					c0.1,0,0.1,0,0.1,0c0,0,0,0,0,0c0,0,0,0,0,0.1c0,0,0,0-0.1,0c0,0,0,0,0,0c0,0,0,0,0,0C80.9,154.4,80.8,154.5,80.8,154.5z
					 M81.2,154.4c0,0,0-0.1,0-0.2c0-0.1,0-0.1-0.1-0.1c0,0-0.1,0-0.1,0c0,0-0.1,0-0.2,0c-0.1,0-0.2,0.1-0.2,0.1c0,0,0,0.1,0,0.2
					c0,0.1,0,0.1,0.1,0.1c0,0,0.1,0,0.1,0c0,0,0.1,0,0.2,0C81.1,154.5,81.2,154.5,81.2,154.4z"/>
				<path fill="#231F20" d="M80.8,155l-0.1-0.3l0.6-0.1l0,0.1l-0.5,0.1l0,0.2L80.8,155z"/>
				<path fill="#231F20" d="M81,155.4l0.3,0L81,155.4L81,155.4z M81.4,155.5l0-0.2l-0.6-0.1l0,0.1l0.1,0l0,0.1l-0.1,0l0,0.1
					L81.4,155.5z"/>
				<path fill="#231F20" d="M81,156c-0.1,0-0.1,0-0.1,0c0,0-0.1-0.1-0.1-0.1c0-0.1,0-0.1,0-0.1c0,0,0.1,0,0.2,0l0,0.1
					c0,0-0.1,0-0.1,0c0,0,0,0,0,0c0,0,0,0,0,0c0,0,0,0,0,0c0,0,0.1,0,0.1-0.1s0.1-0.1,0.1-0.1c0,0,0,0,0,0c0,0,0.1,0,0.1,0
					c0,0,0.1,0,0.1,0c0,0,0.1,0.1,0,0.1c0,0.1,0,0.1,0,0.1c0,0-0.1,0-0.2,0l0-0.1c0,0,0,0,0.1,0c0,0,0,0,0,0c0,0,0,0,0,0
					c0,0,0,0,0,0c0,0,0,0,0,0s0,0-0.1,0.1c0,0,0,0.1-0.1,0.1C81.1,156,81,156,81,156z"/>
				<path fill="#231F20" d="M80.9,156.4C80.9,156.3,80.9,156.3,80.9,156.4c0-0.1,0-0.1,0-0.1c0,0,0,0,0.1,0l0.1,0c0.1,0,0.1,0,0.1,0
					c0,0,0,0,0,0c0,0,0,0-0.1,0c0,0,0,0-0.1,0c0,0,0,0,0,0c0,0,0,0,0,0C81,156.4,80.9,156.4,80.9,156.4z M81.3,156.5
					c0,0,0.1-0.1,0.1-0.1c0-0.1,0-0.1,0-0.1c0,0-0.1,0-0.1-0.1c0,0-0.1,0-0.2,0c-0.1,0-0.2,0-0.2,0c0,0-0.1,0.1-0.1,0.1
					c0,0.1,0,0.1,0,0.1c0,0,0.1,0.1,0.1,0.1c0,0,0.1,0,0.2,0C81.2,156.5,81.3,156.5,81.3,156.5z"/>
				<path fill="#231F20" d="M80.9,157c-0.1,0-0.1,0-0.2-0.1c0,0,0-0.1,0-0.2c0-0.1,0.1-0.1,0.1-0.1c0.1,0,0.1,0,0.3,0
					c0.1,0,0.2,0.1,0.2,0.1c0,0,0,0.1,0,0.2c0,0.1,0,0.1-0.1,0.1c0,0-0.1,0-0.2,0l0-0.1c0.1,0,0.1,0,0.1,0c0,0,0,0-0.1-0.1
					c0,0-0.1,0-0.1,0c0,0,0,0,0,0l0,0c0,0-0.1,0-0.1,0c0,0-0.1,0-0.1,0c0,0,0,0,0,0c0,0,0.1,0,0.1,0L80.9,157z"/>
				<path fill="#231F20" d="M80.6,157.1l0-0.1l0.1,0l0,0.1L80.6,157.1z"/>
				<path fill="#231F20" d="M80.5,157.3C80.5,157.3,80.5,157.3,80.5,157.3c-0.1-0.1-0.1-0.1-0.1-0.2l0,0
					C80.5,157.2,80.5,157.2,80.5,157.3C80.5,157.2,80.5,157.2,80.5,157.3l0-0.1l0.1,0l0,0.1L80.5,157.3z"/>
				<path fill="#231F20" d="M80.5,157.8l0.2,0.1L80.5,157.8L80.5,157.8z M80.8,158.1l0.1-0.1l-0.5-0.4l-0.1,0.1l0.1,0.1l0,0.1
					l-0.1,0l-0.1,0.1L80.8,158.1z"/>
				<path fill="#231F20" d="M80.1,158.1l0.1-0.1l0.1,0.1l-0.1,0.1L80.1,158.1z"/>
				<path fill="#231F20" d="M80.1,158.6c-0.1,0-0.1-0.1-0.1-0.1c0,0,0-0.1,0-0.2c0-0.1,0.1-0.1,0.1-0.1c0.1,0,0.1,0,0.2,0.1
					c0.1,0.1,0.2,0.1,0.2,0.2c0,0,0,0.1,0,0.2c0,0-0.1,0.1-0.1,0.1c-0.1,0-0.1,0-0.2,0l0.1-0.1c0.1,0,0.1,0,0.1,0c0,0,0,0,0-0.1
					c0,0,0,0-0.1-0.1c0,0,0,0,0,0l0,0c0,0-0.1,0-0.1-0.1c0,0-0.1,0-0.1,0c0,0,0,0,0,0c0,0,0,0,0.1,0.1L80.1,158.6z"/>
				<path fill="#231F20" d="M79.8,158.6l0.1-0.1l0.1,0.1l-0.1,0.1L79.8,158.6z"/>
			</g>
			<path fill="#231F20" d="M73.8,149.9c0,0,0,0.2,0.1,0.2l0.1,0.3l0,0.1c0,0,0.3,0.3,0.5,0.4c0,0,0.1,0,0.2,0c0,0,0,0,0,0v0l0,0
				c0,0,0,0.4,0.1,0.5c0,0,0,0.1,0,0.1c0,0,0,0,0,0c0,0-0.6,0.4-0.6,0.6c0,0.1,0,0.2,0,0.2l0,0c0,0,0,0,0,0c0,0,0,0,0,0
				c0,0,0,0-0.1,0c0,0,0,0,0,0l0,0c-0.2,0.1-0.4,0.3-0.5,0.3v0c0,0,0,0,0,0c0,0,0.1,0,0.5-0.3c0,0,0.1,0,0.1,0.1l0.1,0.2
				c0,0,0,0.1,0,0.1c0,0,0,0,0,0h0l-0.3,0.2l0,0c0,0,0,0,0,0.1c0,0,0,0,0,0h0l0.4-0.2c0,0,0,0,0,0c0,0,0,0,0,0c0,0,0-0.1,0-0.1
				l-0.1-0.2c0,0,0,0,0-0.1c0,0,0,0,0,0c0,0,0,0,0,0c0,0,0.1,0,0.1,0c0,0,0,0.1,0.2,0c0.1,0,0.2,0,0.2,0c0,0,0,0,0,0l0,0v0
				c0,0,0,0,0,0l0,0l-0.2,0.1l0,0.1v0c0,0,0,0,0,0c0,0,0,0,0.1,0h0c0,0,0.2-0.2,0.2-0.2c0,0,0,0,0.1,0l0,0l0.3,0.5h0.1v-0.1
				l-0.1-0.2c0,0,0,0,0,0c0,0,0,0,0.1,0h0.2c0,0,0,0,0,0s0,0,0,0.1l-0.1,0.3h0.3l-0.1-0.3c0,0,0-0.1,0-0.1c0,0,0,0,0,0
				c0,0,0.2,0,0.2,0c0,0,0,0,0,0c0,0,0,0,0,0s0,0,0,0c0,0-0.1,0.1-0.1,0.2c0,0,0,0.1,0,0.1l0,0h0.1l0-0.1v0c0,0,0,0,0,0
				c0,0,0-0.1,0.1-0.2c0,0,0.1-0.1,0.1-0.1c0,0,0,0,0,0h0c0,0,0,0,0,0c0,0,0,0,0.1,0c0,0,0,0,0,0l0,0c0,0,0,0,0,0l0,0l0,0
				c-0.1,0.1-0.2,0.3-0.2,0.4c0,0,0,0,0,0l0,0h0.1l0,0c0.1-0.2,0.2-0.4,0.2-0.4h0l0,0c0,0,0,0,0,0l0,0l0,0h0c0,0,0,0,0.1,0
				c0,0,0,0,0,0c0,0,0-0.1,0-0.1c0,0,0,0,0,0c0,0,0,0,0,0c0,0,0,0,0-0.2c0,0,0,0,0-0.1c0,0,0.1,0,0.2,0l0.6,0.3c0,0,0.1,0,0.1,0
				c0,0,0,0,0,0c0,0,0,0,0,0c0,0,0,0,0,0v0c0,0-0.1-0.1-0.3-0.2c0,0-0.5-0.3-0.7-0.2c0,0,0,0,0,0c0,0,0,0,0-0.1c0,0,0-0.3-0.2-0.3
				l0,0h0c0,0-0.2,0-0.3-0.1h0v0c0,0-0.1-0.1-0.1-0.1c0,0,0,0,0,0c0,0,0.1-0.1,0.1-0.1c0,0,0,0,0,0c0,0,0.1,0.2,0.3,0.2
				c0.1,0,0.2,0,0.2,0l0,0h0c0,0,0.1,0.1,0.3,0c0,0,0.2-0.1,0.2-0.1c0,0,0.2,0,0.3-0.1c0,0,0.1,0,0.1,0l0,0l0.1-0.1l0,0
				c0,0,0-0.1,0.1-0.1c0,0,0.1,0,0.1,0c0,0,0.4,0.2,0.5,0.3c0,0,0.2,0.2,0.4,0l0,0l0,0c0,0,0.3-0.3,0.3-0.4c0,0,0-0.1,0.1-0.1
				c0,0,0,0,0,0l0,0l0-0.1l-0.1-0.1l-0.3,0.4c0,0-0.1,0.1-0.1,0c0,0-0.1-0.1-0.1-0.1c0,0-0.1-0.1-0.1-0.1c-0.1,0-0.2-0.1-0.2-0.2
				c-0.1-0.1,0.1-0.2,0.1-0.3c0-0.1,0-0.3,0-0.4c0-0.1-0.1-0.6,0.1-0.6h0l0.1-0.1l0,0c0,0-0.2-0.1-0.2-0.2c0,0,0-0.6-0.2-0.9
				c0,0-0.5-0.7-1-1c0,0-0.8-0.5-1.1-0.6c0,0-0.9-0.3-1.5-0.2c0,0-0.2,0-0.3,0.1c0,0,0,0.1,0,0.1c0,0,0,0.1,0.2,0.3
				c0.1,0.1,0.2,0.1,0.3,0.2c0.1,0.1,0.1,0.1,0.2,0.2c0,0.1,0.1,0.2,0.1,0.3c0,0.1,0,0.2,0,0.3c0,0,0,0.1-0.1,0.1
				c0,0-0.1-0.1-0.1-0.1c0,0-0.1-0.1-0.1-0.1c0,0-0.1-0.1-0.1-0.2c0-0.1-0.1-0.1-0.2-0.2c-0.1-0.1-0.2-0.2-0.3-0.3
				c0,0-0.1-0.1-0.1-0.1c0,0-0.1,0-0.1-0.1c-0.1-0.1-0.1-0.2-0.1-0.3c0,0-0.1-0.1-0.1-0.1c-0.1,0-0.2,0.1-0.2,0.1
				c-0.1,0-0.2,0.1-0.3,0.1c-0.2,0-0.4,0.1-0.4,0.1c-0.1,0-0.2,0-0.3,0.2c-0.1,0.2,0,0.3,0.1,0.4c0.1,0.1,0.2,0.1,0.2,0.1
				c0,0,0-0.1,0.1-0.1c0.1,0,0.1,0,0.3,0.1c0.2,0,0.3,0,0.4,0c0.1,0,0.1,0.2,0.1,0.3c0,0.2-0.1,0.3-0.1,0.5c0,0.1,0,0.4,0,0.4
				C73.7,149.5,73.8,149.7,73.8,149.9z"/>
			<path fill="#FFFFFF" d="M74.2,148.7c0,0-0.2,0-0.1,0.1c0,0,0.2,0.1,0.2,0.1c0,0,0,0,0.1,0c0,0,0.2-0.1,0.3-0.1c0,0,0,0,0-0.1
				c0,0,0-0.1-0.2-0.1L74.2,148.7z"/>
			<g>
				<path fill="#FFFFFF" d="M73.8,149.3c0,0,0.1,0,0.1,0c0,0,0.1,0,0.1,0c0,0,0.1,0.2,0.1,0.3c0,0,0,0.3,0,0.3
					C74.1,149.9,73.9,149.8,73.8,149.3z"/>
				<path fill="#FFFFFF" d="M74.1,149.2L74.1,149.2c0.1,0,0.1,0,0.2,0.1c0,0,0.2,0.2,0.1,0.3c0,0,0,0-0.1-0.1
					C74.3,149.6,74,149.3,74.1,149.2z"/>
				<path fill="#FFFFFF" d="M74.2,149.7C74.2,149.7,74.2,149.6,74.2,149.7c0.1,0,0.5,0.4,0.5,0.8c0,0,0,0.1-0.1,0
					c0,0-0.2-0.2-0.2-0.2c0,0,0,0,0-0.1c0,0,0-0.1-0.1-0.2c0,0,0,0,0-0.1L74.2,149.7z"/>
				<path fill="#FFFFFF" d="M74,150C74,150,74,149.9,74,150c0.1-0.1,0.3,0,0.3,0.4c0,0,0,0.2-0.1,0.1C74.2,150.4,74.1,150.3,74,150z
					"/>
				<path fill="#FFFFFF" d="M74.5,149.2C74.5,149.2,74.4,149.2,74.5,149.2c0-0.1,0-0.2,0.1-0.1c0,0,0.3,0.2,0.4,1c0,0,0,0.2,0,0.1
					c0,0-0.3-0.2-0.3-0.3c0,0,0,0,0-0.1c0,0,0-0.1-0.1-0.1c0,0-0.1-0.1,0-0.1c0,0,0.1-0.1-0.1-0.3C74.4,149.4,74.3,149.2,74.5,149.2
					c-0.1,0,0,0.1,0.1,0.1c0,0,0.1,0.1,0.1,0C74.6,149.3,74.6,149.3,74.5,149.2z"/>
				<path fill="#FFFFFF" d="M74.5,150.4c0,0-0.1-0.1-0.1,0c0,0,0,0.2,0.1,0.3c0,0,0.1,0.1,0.2,0c0,0,0.1,0,0-0.1L74.5,150.4z"/>
				<path fill="#FFFFFF" d="M75,150.3l-0.1-0.1c0,0-0.1-0.1-0.1,0c0,0,0.2,0.4,0.2,0.5c0,0,0,0.2,0,0.2c0,0,0.1,0.1,0.1-0.2
					C75,150.8,75.1,150.4,75,150.3z"/>
				<path fill="#FFFFFF" d="M75.1,150.6C75.1,150.6,75.1,150.6,75.1,150.6c0.1,0,0.2,0.3,0.2,0.3c0,0,0.1,0.3,0.1,0.3
					c0,0,0,0.1-0.2-0.1c0,0-0.1-0.1-0.1-0.1c0,0,0,0,0-0.1L75.1,150.6z"/>
				<path fill="#FFFFFF" d="M75.4,151.5C75.4,151.5,75.5,151.6,75.4,151.5c0.1,0.1,0.2,0.1,0.1,0.2c0,0-0.1,0.1-0.1,0
					C75.4,151.6,75.3,151.5,75.4,151.5C75.3,151.5,75.4,151.4,75.4,151.5z"/>
				<path fill="#FFFFFF" d="M75.1,151.3C75.1,151.3,75.2,151.2,75.1,151.3c0.1,0.1,0.1,0.3,0.2,0.4c0,0,0.2,0.2,0.1,0.2
					c0,0-0.1,0.1-0.3,0.1c0,0-0.1,0-0.1,0c0,0-0.1,0-0.1-0.1c0,0,0,0,0.1-0.1c0,0,0-0.1-0.1,0c0,0-0.2,0.1-0.2,0c0,0-0.1-0.1,0-0.1
					c0,0,0.2-0.1,0.2-0.2C75,151.5,75,151.3,75.1,151.3z"/>
				<path fill="#FFFFFF" d="M74.4,152.1c0,0,0.1-0.1,0.1-0.1c0,0,0.1-0.1,0-0.1C74.5,151.9,74.4,151.9,74.4,152.1
					C74.4,152.1,74.3,152.1,74.4,152.1z"/>
				<path fill="#FFFFFF" d="M74.8,152.3c0,0,0-0.1,0.2-0.1c0,0,0.2,0,0.2,0.1c0,0,0,0.1-0.2,0.1C75,152.3,74.8,152.4,74.8,152.3z"/>
				<path fill="#FFFFFF" d="M75.5,152.2c0,0,0.1-0.1,0.1-0.1c0,0,0.1,0,0.1,0.1C75.7,152.1,75.6,152.3,75.5,152.2
					C75.5,152.3,75.4,152.3,75.5,152.2z"/>
				<path fill="#FFFFFF" d="M75.3,152c0,0,0.1,0,0.1,0.1c0,0-0.1,0.1-0.1,0.1C75.3,152.2,75.1,152.2,75.3,152z"/>
				<path fill="#FFFFFF" d="M75.5,151.8C75.4,152,75.6,151.9,75.5,151.8c0.3-0.1,0.3,0,0.3,0c0.1,0,0,0.1,0,0.1
					c-0.1,0.1-0.1,0.1-0.1,0.1c0.1,0.1,0.2,0,0.2,0c0.1-0.2,0.4-0.1,0.4-0.1c0.1,0.1,0.1,0,0.1,0c0-0.1-0.2-0.1-0.2-0.1
					c-0.1,0-0.2-0.2-0.2-0.2c-0.1-0.1-0.2,0-0.2,0S75.5,151.8,75.5,151.8z"/>
				<path fill="#FFFFFF" d="M74.7,152.1C74.7,152.1,74.6,152.1,74.7,152.1C74.7,152.2,74.7,152.2,74.7,152.1
					C74.8,152.1,74.8,152.1,74.7,152.1C74.7,152,74.7,152,74.7,152.1z"/>
				<path fill="#FFFFFF" d="M75.6,152.6c0,0,0.3,0,0.3-0.1l0-0.2c0,0,0-0.1-0.1,0c0,0-0.1,0-0.2,0.1
					C75.6,152.3,75.3,152.5,75.6,152.6z"/>
				<path fill="#FFFFFF" d="M76.1,152.3c0,0,0.4,0,0.5-0.1c0,0,0.1-0.1-0.3-0.1c0,0-0.3,0-0.3,0C76,152.2,76,152.3,76.1,152.3z"/>
				<path fill="#FFFFFF" d="M76.1,152.6c0,0,0.1-0.1,0.1-0.1c0,0-0.1-0.2-0.2,0C76,152.4,76,152.6,76.1,152.6z"/>
				<path fill="#FFFFFF" d="M75.2,150.4c0,0,0.5,0.7,0.4,1.1c0,0,0,0.1-0.1,0.1c0,0-0.1,0-0.1-0.2c0,0-0.2-0.7-0.3-0.8
					C75.2,150.5,75,150.2,75.2,150.4z"/>
				<path fill="#FFFFFF" d="M75,149.8l0,0.2c0,0,0,0.1,0.1,0.1c0,0,0.3,0.4,0.3,0.5c0,0,0,0.1,0.1,0l-0.1-0.4c0,0,0-0.1-0.1-0.1
					C75.3,150,75.1,149.7,75,149.8z"/>
				<path fill="#FFFFFF" d="M75.7,150.1c0,0,0,0.8,0,0.9c0,0,0,0.1-0.1,0l-0.1-0.1c0,0-0.1-0.6,0-0.7
					C75.5,150.2,75.6,150.2,75.7,150.1C75.6,150.1,75.6,150,75.7,150.1z"/>
				<path fill="#FFFFFF" d="M75.8,150.7C75.8,150.7,75.8,150.6,75.8,150.7c-0.1,0-0.1,0.6-0.1,0.7c0,0,0.1,0.2,0.3,0.1
					c0,0,0.1,0,0-0.3C76,151.2,75.8,150.9,75.8,150.7z"/>
				<path fill="#FFFFFF" d="M75.8,150.2c0,0,0.2,0.1,0.2,0.2c0,0,0.2,0.8,0.2,0.9c0,0,0,0.1-0.1,0c0,0-0.4-0.9-0.4-1
					C75.8,150.3,75.7,150.1,75.8,150.2z"/>
				<path fill="#FFFFFF" d="M76.2,150.5c0,0,0.5,0.8,0.5,0.9c0,0,0.1,0.2-0.1,0.1c0,0-0.3-0.3-0.3-0.4
					C76.3,151.2,76.1,150.5,76.2,150.5z"/>
				<path fill="#FFFFFF" d="M76.3,150.5c0,0,0.7,0.5,0.9,0.9c0,0,0.1,0.2-0.1,0.2c0,0-0.3,0.1-0.3-0.1c0,0-0.4-0.8-0.5-0.9
					C76.3,150.6,76.1,150.5,76.3,150.5z"/>
				<path fill="#FFFFFF" d="M76.4,150.4c0,0,1.4,0.7,1.4,0.8c0,0,0,0.1-0.1,0.2c0,0-0.3,0.2-0.4,0C77.3,151.4,76.8,150.7,76.4,150.4
					C76.4,150.5,76.3,150.4,76.4,150.4z"/>
				<ellipse fill="#FFFFFF" cx="76.5" cy="152.4" rx="0.1" ry="0"/>
				<path fill="#FFFFFF" d="M74.7,149C74.7,149,74.8,149,74.7,149c0.1,0,0.2-0.1,0.3,0.1c0,0,0.1,0.2,0,0.3c0,0-0.1,0.1-0.2-0.1
					c0,0-0.1-0.2-0.2-0.2C74.6,149.1,74.5,149,74.7,149z"/>
				<path fill="#FFFFFF" d="M75.1,149C75.1,149,75.1,149.1,75.1,149c0.1,0,0.2,0,0.2,0.2c0,0,0.2,0.8,0.2,0.8c0,0,0,0.1-0.1,0
					c0,0-0.4-0.4-0.4-0.5c0,0-0.1-0.1,0-0.1c0,0,0.2,0,0.1-0.2C75.1,149.2,75,149,75.1,149z"/>
				<path fill="#FFFFFF" d="M74.7,148.5c0,0,0.3,0.1,0.3,0.1c0,0,0,0,0.1,0.1c0,0,0.2,0.2,0.2,0.3c0,0,0,0.1,0.1,0.1
					c0,0,0.2,0,0.5,0.6c0,0,0.1,0.1,0.1,0.4c0,0,0,0.2-0.1,0.1c0,0-0.4-0.2-0.4-0.3c0,0-0.3-0.7-0.2-0.8c0,0,0-0.1-0.1-0.1
					C75.3,149,74.8,149,74.7,148.5C74.7,148.6,74.7,148.5,74.7,148.5z"/>
				<path fill="#FFFFFF" d="M75.7,149.2c0,0,0.2,0.3,0.2,0.4c0,0,0,0.1,0.2,0.1c0,0,0.2,0,0.4,0.3c0,0,0.2,0.3,0.3,0.3
					c0,0,0.1,0,0-0.1c0,0-0.3-0.5-0.3-0.5C76.5,149.5,76.1,149.2,75.7,149.2C75.8,149.1,75.6,149.1,75.7,149.2z"/>
				<path fill="#FFFFFF" d="M76.2,149.8c0,0,0.4,0.2,0.5,0.5c0,0,0,0.2-0.1,0.1c0,0-0.3-0.1-0.3-0.1c0,0,0,0,0-0.1
					C76.2,150.1,76.1,149.7,76.2,149.8z"/>
				<path fill="#FFFFFF" d="M76.8,150.2C76.8,150.2,76.9,150.3,76.8,150.2c0.1,0,0.1-0.1,0.2,0c0,0,0.2,0.3,0.1,0.3
					c0,0-0.1,0.1-0.3-0.1C76.9,150.4,76.7,150.3,76.8,150.2z"/>
				<path fill="#FFFFFF" d="M77.1,150.5c0,0,0.4,0,0.4,0.1c0,0,0.1,0.1,0.2,0.1c0,0,0.3,0,0.3,0.1c0,0,0,0.2-0.1,0.1L77.1,150.5
					C77,150.6,77,150.6,77.1,150.5z"/>
				<path fill="#FFFFFF" d="M76.5,149.3c0,0,0.2,0,0.3,0.1c0,0,0.5,0.8,0.6,1c0,0,0.1,0.2-0.1,0c0,0-0.5-0.7-0.6-0.9
					C76.6,149.5,76.4,149.3,76.5,149.3z"/>
				<path fill="#FFFFFF" d="M74.8,146.9c0,0-0.3,0-0.2,0.2c0,0,0,0.1,0.3,0.2c0,0,0.4,0.1,0.5,0.8c0,0,0,0.3,0,0.3
					c0,0-0.2,0.1,0,0.2c0,0,0.7,0.5,1.1,0.5c0,0,0.1,0,0-0.1c0,0-0.3-0.3-1-0.6c0,0-0.1-0.1,0-0.1c0,0,0.5,0.2,1,0.1
					c0,0,0.1,0,0-0.1c0,0-0.3-0.2-0.9-0.3c0,0-0.1-0.1,0-0.1c0,0,0.4,0.1,0.8,0.1c0,0,0.2,0,0-0.1c0,0-0.3-0.2-0.8-0.3
					c0,0-0.1-0.1,0-0.1c0,0,0.5,0,0.6,0c0,0,0.1,0,0-0.1c0,0-0.2-0.2-0.8-0.3l-0.3,0c0,0-0.3-0.1,0-0.1c0,0,0.4,0.1,0.9,0
					c0,0,0.2-0.1,0.1-0.1C76.2,147.1,75.5,146.9,74.8,146.9z"/>
				<path fill="#FFFFFF" d="M76.1,147.3c0,0,0.2-0.1,0.5,0c0,0,0.5,0.2,0.8,0.5c0,0,0.1,0.1-0.1,0.1c0,0-0.7,0-1.1-0.4
					c0,0-0.1-0.1-0.2-0.1C76.1,147.4,76,147.4,76.1,147.3z"/>
				<path fill="#FFFFFF" d="M76.2,147.8c0,0,0.3-0.1,0.4,0c0,0,0.2,0.1,0.3,0.1c0,0,0.2,0,0.2,0.1c0,0,0.3,0.4,0.1,0.3l-0.6-0.3
					C76.7,148.1,76.4,147.9,76.2,147.8C76.2,147.8,76.1,147.8,76.2,147.8z"/>
				<path fill="#FFFFFF" d="M76.4,148.3c0,0,0.1,0,0.1,0c0,0,0.1-0.1,0.2,0c0,0,1.1,0.5,0.9,0.6c0,0-0.1,0.1-0.8-0.2
					c0,0-0.2,0-0.2-0.1C76.6,148.5,76.5,148.4,76.4,148.3C76.4,148.4,76.4,148.3,76.4,148.3z"/>
				<path fill="#FFFFFF" d="M76.1,148.7l0.5,0c0,0,0.2,0,0.8,0.2c0,0,0.3,0,0.1,0.1c0,0-0.4,0-0.4,0.1c0,0-0.4,0.1-0.6,0L76.1,148.7
					C76.1,148.8,76,148.7,76.1,148.7z"/>
				<path fill="#FFFFFF" d="M76.9,149.2c0,0,0.5,0.5,0.8,1.5c0,0,0,0.1-0.2-0.1c0,0-0.6-1.2-0.8-1.3C76.7,149.2,76.6,149,76.9,149.2
					z"/>
				<path fill="#FFFFFF" d="M77.3,149.2c0,0,0.9,0.8,1,1.8c0,0,0,0.1-0.1,0c0,0-0.2-0.1-0.3-0.3c0,0-0.1-0.6-0.8-1.5
					C77.1,149.2,77,149.1,77.3,149.2z"/>
				<path fill="#FFFFFF" d="M77.7,149.1c0,0,0.7,1.1,0.8,1.4c0,0,0.1,0.2,0,0.4c0,0-0.1,0.2-0.1-0.1c0,0-0.1-0.7-0.9-1.5
					c0,0-0.1-0.1,0-0.2C77.5,149,77.6,149,77.7,149.1z"/>
				<path fill="#FFFFFF" d="M78.2,149.6c0,0,0.4,0.3,0.4,0.5c0,0,0,0.5-0.1,0.2C78.4,150.2,77.9,149.4,78.2,149.6z"/>
				<path fill="#FFFFFF" d="M78,148.9l0.3,0.1c0,0,0.2,0,0.2,0.3c0,0,0.2,0.7-0.1,0.3c0,0-0.4-0.3-0.4-0.5c0,0-0.3-0.3-0.1-0.3
					C77.8,148.9,77.9,148.9,78,148.9z"/>
				<path fill="#FFFFFF" d="M77.4,148c0,0,0.4-0.1,0.6,0.2c0,0,0.4,0.5,0.4,0.7c0,0,0.1,0.2-0.1,0.1c0,0-0.4-0.1-0.5-0.3
					C77.7,148.6,77.3,148,77.4,148z"/>
			</g>
			<path fill="#FFFFFF" d="M73.8,147.4C73.8,147.4,73.8,147.4,73.8,147.4c0.1-0.1,0.1-0.2-0.1-0.1c0,0-0.3,0.1-0.3,0.2c0,0,0,0,0,0
				L73.8,147.4z"/>
			<path fill="#FFFFFF" d="M73.6,147.6c0,0-0.1,0.2-0.2,0.1c0,0-0.1,0-0.1,0c0,0,0,0.1,0.2,0.1C73.5,147.8,73.8,147.7,73.6,147.6
				C73.7,147.6,73.7,147.5,73.6,147.6z"/>
			<path fill="#FFFFFF" d="M73.6,148c0,0-0.2-0.1-0.3-0.1c0,0-0.1,0-0.1-0.1c0,0,0-0.2-0.1-0.2c0,0-0.1,0-0.1,0.1c0,0,0,0-0.1,0
				c0,0-0.2-0.1-0.2,0.2c0,0,0,0.1,0.2,0.2c0,0,0.1,0.1,0.1-0.1c0,0,0-0.1,0.2,0c0,0,0.2,0.1,0.2,0.1c0,0-0.3-0.1-0.3,0
				c0,0,0,0.1,0.1,0.1C73.2,148,73.6,148.1,73.6,148C73.6,148,73.7,148,73.6,148z"/>
			<path fill="#FFFFFF" d="M74,147.5c0,0,0.2,0.1,0.2,0.2c0,0,0.1,0.1,0,0.1c0,0-0.1,0-0.1,0c0,0-0.1,0-0.1,0.1c0,0,0,0,0.2,0
				c0,0,0.1,0,0.1,0.2c0,0,0,0.1-0.1,0c0,0-0.2-0.1-0.2-0.1c0,0,0,0,0.1,0.1c0,0,0.1,0,0.1,0.2c0,0,0,0.1-0.1,0c0,0-0.4-0.4-0.4-0.5
				c0,0,0.1-0.2,0.2-0.3C73.9,147.5,73.9,147.4,74,147.5z"/>
			<path fill="#FFFFFF" d="M73.9,148.8C73.9,148.8,74,148.8,73.9,148.8c0.1,0,0.1,0,0.1,0c0,0.1,0.1,0.1,0.2,0.1
				c0.2,0.1,0.2,0.2,0,0.2c-0.1,0-0.1,0-0.2,0c-0.1,0-0.1-0.1-0.1-0.2C74,148.9,74,148.9,73.9,148.8C74,148.9,73.9,148.8,73.9,148.8
				z"/>
			<path fill="#FFFFFF" d="M73.7,148.9c0,0.1,0,0.1,0,0.2c0,0,0,0,0,0.1c0,0,0,0,0,0.1c0,0,0.1,0,0.1,0c0.1,0,0-0.1,0-0.2
				c0-0.1,0-0.2,0-0.2c0,0-0.1,0-0.1,0C73.7,148.8,73.7,148.8,73.7,148.9z"/>
			<path fill="#FFFFFF" d="M74,148.3c-0.1-0.1-0.1,0.2-0.1,0.2c0,0,0,0.1,0,0.2c0,0,0,0.1,0.1,0.1c0,0,0-0.1,0.1-0.2
				c0,0,0-0.1,0.1-0.1C74,148.4,74,148.3,74,148.3"/>
			<path fill="#FFFFFF" d="M74.4,148.7C74.4,148.7,74.4,148.7,74.4,148.7c0.1,0,0.2,0.1,0.2,0c0.1-0.1-0.3-0.2-0.3-0.2
				c-0.1,0-0.3-0.1-0.3,0.1c0,0.1,0,0.1,0.1,0.1c0.1,0,0.1,0,0.2,0C74.3,148.7,74.4,148.7,74.4,148.7z"/>
			<path fill="#FFFFFF" d="M74.6,148.5c0.1,0,0-0.1-0.1-0.1c-0.1,0-0.2-0.1-0.3,0C74.2,148.4,74.5,148.5,74.6,148.5z"/>
			<path fill="#FFFFFF" d="M74.4,148.2c0,0,0.1,0,0.1,0.1c0.1,0,0.1,0.1,0.1,0.1c0.1,0,0.1,0.1,0.2,0.1c0,0,0.1,0,0.1,0.1
				c0.1,0,0.1,0,0.1-0.1c0,0-0.1-0.1-0.1-0.1c-0.1-0.1-0.1-0.1-0.1-0.2c-0.1-0.1-0.3-0.4-0.4-0.3C74.3,147.9,74.3,148.1,74.4,148.2z
				"/>
		</g>
	</g>
</g>
</svg>
