<?xml version="1.0" encoding="utf-8"?>
<!-- Generator: Adobe Illustrator 16.0.0, SVG Export Plug-In . SVG Version: 6.00 Build 0)  -->
<!DOCTYPE svg PUBLIC "-//W3C//DTD SVG 1.1//EN" "http://www.w3.org/Graphics/SVG/1.1/DTD/svg11.dtd">
<svg version="1.1" id="Layer_1" xmlns="http://www.w3.org/2000/svg" xmlns:xlink="http://www.w3.org/1999/xlink" x="0px" y="0px"
	 width="157.5px" height="476.6px" viewBox="0 0 157.5 476.6" enable-background="new 0 0 157.5 476.6" xml:space="preserve">
<g>
	<g>
		
			<path fill="none" stroke="#F4B07D" stroke-width="20.1285" stroke-linecap="round" stroke-linejoin="round" stroke-miterlimit="10" d="
			M53,121.8c0,0-37.6,27.3-40.8,56.5c-3.4,30.2-1.7,57.8-1.7,73.8"/>
		<path fill="none" stroke="#101423" stroke-width="20.1278" stroke-linejoin="round" stroke-miterlimit="10" d="M53,121.8
			c0,0-37.6,27.3-40.8,56.5c-3.4,30.2-1.7,57.8-1.7,73.8"/>
		
			<path fill="none" stroke="#F4B07D" stroke-width="20.1285" stroke-linecap="round" stroke-linejoin="round" stroke-miterlimit="10" d="
			M53,121.8c0,0-37.6,27.3-40.8,56.5c-3.4,30.2-1.7,57.8-1.7,73.8"/>
		<path fill="none" stroke="#232222" stroke-width="20.1278" stroke-linejoin="round" stroke-miterlimit="10" d="M53,121.8
			c0,0-37.6,27.3-40.8,56.5c-3.4,30.2-1.7,57.8-1.7,73.8"/>
		<path fill="none" stroke="#232222" stroke-width="20.1278" stroke-linejoin="round" stroke-miterlimit="10" d="M53,121.8
			c0,0-37.6,27.3-40.8,56.5c-3.4,30.2-1.7,57.8-1.7,73.8"/>
		<path fill="none" stroke="#D3340E" stroke-width="2.0347" stroke-miterlimit="10" d="M44.9,117.4c0,0-24.6,18.5-35.5,40.4
			c-5.7,11.6-6.8,17.7-8,79.9"/>
		<path fill="none" stroke="#D3340E" stroke-width="2.0347" stroke-miterlimit="10" d="M48.5,117.8c0,0-24.6,18.5-35.5,40.4
			c-5.7,11.6-6.8,17.7-8,79.9"/>
		<polygon fill="#232222" points="13.1,147.3 30.5,159.5 33.8,146.4 33,137.2 26,131.4 		"/>
	</g>
	<g>
		
			<path fill="none" stroke="#F4B07D" stroke-width="20.1285" stroke-linecap="round" stroke-linejoin="round" stroke-miterlimit="10" d="
			M104.5,121.8c0,0,37.6,27.3,40.8,56.5c3.4,30.2,1.7,57.8,1.7,73.8"/>
		<path fill="none" stroke="#101423" stroke-width="20.1278" stroke-linejoin="round" stroke-miterlimit="10" d="M104.5,121.8
			c0,0,37.6,27.3,40.8,56.5c3.4,30.2,1.7,57.8,1.7,73.8"/>
		
			<path fill="none" stroke="#F4B07D" stroke-width="20.1285" stroke-linecap="round" stroke-linejoin="round" stroke-miterlimit="10" d="
			M104.5,121.8c0,0,37.6,27.3,40.8,56.5c3.4,30.2,1.7,57.8,1.7,73.8"/>
		<path fill="none" stroke="#232222" stroke-width="20.1278" stroke-linejoin="round" stroke-miterlimit="10" d="M104.5,121.8
			c0,0,37.6,27.3,40.8,56.5c3.4,30.2,1.7,57.8,1.7,73.8"/>
		<path fill="none" stroke="#232222" stroke-width="20.1278" stroke-linejoin="round" stroke-miterlimit="10" d="M104.5,121.8
			c0,0,37.6,27.3,40.8,56.5c3.4,30.2,1.7,57.8,1.7,73.8"/>
		<path fill="none" stroke="#D3340E" stroke-width="2.0347" stroke-miterlimit="10" d="M112.5,117.4c0,0,24.6,18.5,35.5,40.4
			c5.7,11.6,6.8,17.7,8,79.9"/>
		<path fill="none" stroke="#D3340E" stroke-width="2.0347" stroke-miterlimit="10" d="M109,117.8c0,0,24.6,18.5,35.5,40.4
			c5.7,11.6,6.8,17.7,8,79.9"/>
		<polygon fill="#232222" points="144.4,147.3 127,159.5 123.7,146.4 124.4,137.2 131.4,131.4 		"/>
	</g>
	<polygon fill="#161616" points="48.8,110.3 56.4,109.3 57.6,117.9 	"/>
	<polygon fill="#161616" points="108.9,110.3 101.3,109.3 100.1,117.9 	"/>
	<path fill="#E0B899" d="M119.5,160H39.9c0,0,15.7-58,15.7-85.8c0-16.1,48-16.1,48,0C103.6,114.4,119.5,160,119.5,160z"/>
	<g>
		<path fill="#49270C" d="M111.4,72c0,0,10.2-0.4,12.7-12.4l-5-3.7l-8.1,9L111.4,72z"/>
		<g>
			<path opacity="0.1" fill="#232222" d="M103,97.2c0,0-3.7,20.8-23.7,20.8c-19.8,0-23.7-20.8-23.7-20.8s7.2,15.3,24.6,15.3
				C80.1,112.6,91.7,114.4,103,97.2z"/>
		</g>
		<path fill="#ECC19C" d="M79.2,11.6v-0.2c0,0-0.4,0-1.2,0.1c-0.8-0.1-1.2-0.1-1.2-0.1v0.2c-8.2,1-34.7,6.8-30.9,40
			c0,0-0.6,41.9,11.5,52.4c4.5,3.9,10.3,12.5,20.7,11c10.4,1.5,16.1-7,20.7-11c12-10.5,11.5-52.4,11.5-52.4
			C113.9,18.4,87.4,12.6,79.2,11.6z"/>
		<g>
			<path fill="#381C0A" d="M70.6,60.8c0,0-0.1,0-0.2-0.1c-0.1,0-0.2-0.1-0.4-0.1c-0.4-0.1-1-0.3-1.7-0.4c-0.7-0.1-1.6-0.2-2.5-0.3
				c-0.9,0-1.9,0-2.9,0.1c-0.5,0-1,0.2-1.5,0.3c-0.5,0.1-1,0.3-1.4,0.4c-0.5,0.1-0.9,0.3-1.3,0.5c-0.4,0.1-0.8,0.3-1.1,0.5
				c-0.3,0.2-0.7,0.3-0.9,0.5c-0.3,0.2-0.5,0.3-0.7,0.4c-0.4,0.2-0.6,0.4-0.6,0.4l0,0c-0.2,0.1-0.5,0.1-0.7-0.2
				c-0.1-0.2-0.1-0.5,0.1-0.6c0,0,0.2-0.2,0.6-0.5c0.2-0.2,0.4-0.3,0.7-0.6c0.3-0.2,0.6-0.4,0.9-0.7c0.3-0.2,0.7-0.5,1.1-0.7
				c0.4-0.2,0.9-0.5,1.3-0.7c0.5-0.2,1-0.5,1.5-0.6c0.5-0.2,1.1-0.4,1.6-0.5c1.1-0.3,2.2-0.5,3.3-0.6c1.1-0.1,2.1-0.1,2.9-0.1
				c0.9,0,1.6,0.1,2.1,0.2c0.3,0,0.5,0.1,0.6,0.1c0.1,0,0.2,0,0.2,0c0.9,0.2,1.4,1.1,1.2,2c-0.2,0.9-1.1,1.4-2,1.2
				C70.8,60.9,70.7,60.9,70.6,60.8L70.6,60.8z"/>
		</g>
		<circle fill="#2E230E" cx="64.3" cy="66.1" r="2.1"/>
		<g>
			<path fill="#381C0A" d="M83.1,54.9c0,0,0.1,0,0.2-0.1c0.2-0.1,0.4-0.1,0.6-0.2c0.5-0.1,1.2-0.3,2.1-0.4c0.9-0.1,1.9-0.2,2.9-0.2
				c1.1,0,2.2,0.1,3.3,0.3c0.6,0.1,1.1,0.2,1.6,0.4c0.5,0.1,1,0.3,1.5,0.5c0.5,0.2,1,0.4,1.4,0.6c0.4,0.2,0.8,0.4,1.2,0.6
				c0.4,0.2,0.7,0.4,1,0.6c0.3,0.2,0.5,0.4,0.7,0.5c0.4,0.3,0.6,0.4,0.6,0.4c0.2,0.2,0.3,0.5,0.1,0.7c-0.1,0.2-0.4,0.3-0.6,0.2l0,0
				c0,0-0.2-0.1-0.6-0.3c-0.2-0.1-0.5-0.2-0.7-0.4c-0.3-0.2-0.6-0.3-1-0.4c-0.4-0.1-0.7-0.3-1.2-0.4c-0.4-0.1-0.9-0.3-1.3-0.4
				c-0.5-0.1-0.9-0.2-1.4-0.3c-0.5,0-1-0.1-1.5-0.1c-1-0.1-2,0-2.9,0.1c-0.9,0.1-1.8,0.3-2.5,0.5c-0.7,0.2-1.3,0.4-1.7,0.6
				c-0.2,0.1-0.3,0.1-0.4,0.2c-0.1,0-0.1,0.1-0.1,0.1l0,0c-0.8,0.4-1.8,0.1-2.2-0.8c-0.4-0.8-0.1-1.8,0.8-2.2
				C83,55,83.1,54.9,83.1,54.9z"/>
		</g>
		<circle fill="#2E230E" cx="90.2" cy="66.1" r="2.1"/>
		<g opacity="0.2">
			<path fill="#231F20" d="M84.5,76.4c0.8,0.7,1.6,1.6,2,2.6c0.2,0.5,0.4,1.1,0.4,1.7c0,0.6-0.3,1.2-0.6,1.7
				c-0.4,0.5-0.8,0.9-1.3,1.2c-0.2,0.2-0.5,0.3-0.8,0.4l-0.4,0.2c-0.1,0-0.1,0-0.2,0.1l-0.2,0.1c-0.2,0.1-0.7,0.2-0.9,0.2l-0.8,0.1
				c-0.5,0.1-1,0.2-1.5,0.3l0.3-0.1h0c-0.1,0.1-0.2,0.1-0.3,0.2c-0.1,0.1-0.2,0.1-0.3,0.2c-0.2,0.1-0.4,0.2-0.7,0.3
				c-0.5,0.2-0.9,0.3-1.5,0.3l-0.2,0c0,0,0,0-0.1,0l-0.1,0c-0.1,0-0.2,0-0.4,0c-0.3,0-0.5-0.1-0.8-0.2c-0.3-0.1-0.5-0.2-0.7-0.4
				c-0.1-0.1-0.2-0.2-0.3-0.2c-0.1-0.1-0.2-0.2-0.3-0.3l0,0l0.4,0.3c-0.5-0.1-1-0.2-1.5-0.3c-0.5-0.1-1.1-0.1-1.7-0.3
				c-0.3-0.1-0.6-0.2-0.8-0.4c-0.3-0.1-0.5-0.3-0.8-0.4c-0.5-0.3-1-0.7-1.3-1.2c-0.4-0.5-0.6-1.1-0.6-1.7c0-0.6,0.1-1.2,0.4-1.7
				c0.5-1,1.2-1.9,2.1-2.6c0,0,0.1,0,0.1,0c0,0,0,0.1,0,0.1c-0.7,0.8-1.4,1.7-1.7,2.7c-0.2,0.5-0.2,1-0.1,1.5
				c0.1,0.5,0.3,0.9,0.6,1.2c0.3,0.4,0.7,0.6,1.2,0.8c0.2,0.1,0.4,0.2,0.7,0.3c0.3,0.1,0.5,0.2,0.7,0.2c0.4,0.1,0.9,0.1,1.5,0
				c0.6,0,1.2,0,1.8,0.1l0.4,0.3l0,0l0.1,0.1c0.1,0,0.1,0.1,0.2,0.1c0.1,0.1,0.3,0.2,0.4,0.2c0.1,0.1,0.3,0.1,0.4,0.1
				c0.1,0,0.1,0,0.2,0l0.1,0c0,0,0,0,0,0l0.1,0c0.3,0,0.7-0.1,1-0.2c0.2-0.1,0.3-0.1,0.5-0.2c0.1,0,0.2-0.1,0.2-0.1l0.2-0.1l0,0
				l0.2-0.1l0.1,0c0.6-0.1,1.2-0.1,1.7-0.1l0.8,0c0.3,0,0.4,0,0.7-0.1l0.2,0l0.1-0.1l0.4-0.1c0.2-0.1,0.5-0.2,0.7-0.3
				c0.4-0.2,0.9-0.5,1.2-0.9c0.3-0.3,0.5-0.8,0.6-1.2c0.1-0.5,0-1-0.2-1.5C85.8,78.2,85.2,77.3,84.5,76.4
				C84.4,76.5,84.4,76.4,84.5,76.4C84.4,76.4,84.5,76.4,84.5,76.4z"/>
		</g>
		
			<path fill="none" stroke="#C18963" stroke-width="0.746" stroke-linecap="round" stroke-linejoin="round" stroke-miterlimit="10" d="
			M70.3,94.9c0,0,8.3,1.7,16-0.5"/>
		<path fill="#49270C" d="M47.1,73.5c0,0-1.8-15.6-1.6-19.3c0,0-1.2-5.8,1.1-7.9l1-1.4l1.2-1.9c0,0,0.8,18.4,0.9,25l-0.3,3.5
			c0,0-0.5,1.2-0.3,1.9c0.2,0.8-0.8,4.9-0.8,4.9s-0.8-3.2-0.7-3C47.7,75.8,46.7,74.4,47.1,73.5z"/>
		<path fill="#49270C" d="M109,73.3c0,0,0.5-15.7,0-19.4c0,0,0.7-5.9-1.7-7.7l-1.1-1.3l-1.3-1.8c0,0,0.7,18.4,1.1,25l0.5,3.5
			c0,0,0.6,1.1,0.5,1.9c-0.1,0.8,1.2,4.8,1.2,4.8s0.5-3.3,0.4-3C108.5,75.6,109.4,74.1,109,73.3z"/>
		<path fill="#49270C" d="M48.8,43.1L47.6,45l2.9-0.2c0,0,2.2-0.3,2.5-3.5c0,0,2.2-3.6,5.2-3.7c0,0,4.9-4.4,9.6-4.4
			c0,0,6.4-0.5,8.1-1.5c0,0,5.9-0.8,7.8,0.5c0,0,7.4,5.2,11.3,5.7c0,0,3.2,1.2,5.6,3.2c0,0,3.1,4.9,5.3,5.2c0,0-4.4-15-24.9-17.2
			C81,29.1,59.6,25.5,48.8,43.1z"/>
		<path fill="#49270C" d="M47.1,73.5c0,0-14.5-1.3-16.1-8.9c0,0,1.6-21.5,7.6-28.1c0,0,9.1-8.2,9.1-7.6
			C47.6,29.5,44.4,58.6,47.1,73.5z"/>
		<path fill="#49270C" d="M46.3,40.3c0,0,11.2-20.3,28.5-19.1c0,0,23.1-2.2,34.9,24.9l7-15.9L93.5,6.4L63,1.8L43.7,32.1L46.3,40.3z"
			/>
		<path fill="#49270C" d="M107,72.8c0,0,10.6-9.4,12.2-16.9c0,0,1.8-12-4.2-18.5c0,0-10-9-10-8.4C105,29.5,108.8,58.2,107,72.8z"/>
		<path fill="#231F20" d="M76.4,9.3c-57.5,4.5-35,62.6-35,62.6c0-43.4,33.4-42.6,35.2-42.7c1.9,0,34.7-0.7,34.7,42.7
			C111.4,72,131.1,15.9,76.4,9.3z"/>
		<path fill="#49270C" d="M85.8,8.8c0,0-10.4-0.4-10.5-3.1c0,0-0.7-6.1,4.4-5.5c0,0,7.5-1.3,8.3,2.5c0,0,5.8-2.6,5.2,2.2
			c0,0,5.5-3.9,6.1,2.7c0,0,9.2,0.6,9.4,7c0,0,3.6,0.6,4.7,4.6c0,0,4.5,1.2,4.1,6c0,0,4.4-2.7,2.9,0.3c0,0-3.1,1.6-3.5,3.4
			c0,0,1,2.3,0.4,4c0,0,8-2.9,5.8,3.4c0,0-0.6,1.6-2.4,2c0,0,5.3,3.1-0.5,8.2l2.2,2.1c0,0,4.3,1.8,1.6,6l-0.9,2.4c0,0,7.5,0,3.9,7.6
			c0,0-1.6,1-2.1-1.1c0,0,1.9,0.7,1.6-1.6c0,0,0.6-3.4-4.8-3.8c0,0,5,7.1-1.8,12c0,0,3.2-3.4,1.8-3.8c0,0-3.1,1.9-4.9-0.4
			c0,0-1.9-0.1-1.6-8.4c0,0-3.3-17.4-4.8-24.5c0,0-2.2-7.2-4.5-9.2c0,0-7-1.3-7.5-8.7c0,0-5.3-0.2-6.3-3
			C92.2,12.3,89.5,14.9,85.8,8.8z"/>
		<path fill="#49270C" d="M67.3,9.1c0,0,10-0.3,10.2-3c0,0,0.7-5.9-4.3-5.4c0,0-7.3-1.3-8,2.4c0,0-5.6-2.5-5.1,2.1
			c0,0-5.3-3.8-5.9,2.6c0,0-8.9,0.6-9.1,6.8c0,0-3.5,0.6-4.6,4.5c0,0-4.3,1.2-4,5.8c0,0-4.3-2.6-2.8,0.3c0,0,3,1.5,3.4,3.3
			c0,0-1,2.2-0.4,3.9c0,0-7.7-2.8-5.6,3.3c0,0,0.6,1.5,2.3,2c0,0-5.1,3,0.5,7.9l-2.1,2c0,0-4.2,1.7-1.5,5.8l0.8,2.3
			c0,0-7.2,0-3.7,7.3c0,0,1.6,0.9,2-1c0,0-1.8,0.7-1.5-1.6c0,0-0.6-3.3,4.7-3.6c0,0-4.9,6.9,1.7,11.6c0,0-3.1-3.3-1.7-3.7
			c0,0,3.4,2.4,5.2,0.2c0,0,1.4-0.6,1.1-8.7c0,0,3.2-16.9,4.6-23.7c0,0,2.5-6.3,4.8-8.3c0,0,6.3-1.8,6.8-9c0,0,5.1-0.2,6.1-2.9
			C61.2,12.5,63.9,15,67.3,9.1z"/>
		<path fill="#ECC19C" d="M52.6,65.9c1.6,6.6-0.2,12.7-3.9,13.6c-3.7,0.9-8-3.8-9.6-10.4c-1.6-6.6,0.2-12.7,3.9-13.6
			C46.7,54.7,51,59.3,52.6,65.9z"/>
		<path fill="#ECC19C" d="M117,69.2c1.6-6.6-0.2-12.7-3.9-13.6c-3.7-0.9-8,3.8-9.6,10.4c-1.6,6.6,0.2,12.7,3.9,13.6
			C111.2,80.4,115.5,75.8,117,69.2z"/>
	</g>
	
		<line fill="none" stroke="#ECC19C" stroke-width="22.364" stroke-linecap="square" stroke-linejoin="round" stroke-miterlimit="10" x1="57.7" y1="270" x2="57.7" y2="458.9"/>
	
		<line fill="none" stroke="#ECC19C" stroke-width="22.364" stroke-linecap="square" stroke-linejoin="round" stroke-miterlimit="10" x1="99.2" y1="270" x2="99.2" y2="458.9"/>
	
		<line fill="none" stroke="#ECC19C" stroke-width="22.364" stroke-linecap="square" stroke-linejoin="round" stroke-miterlimit="10" x1="99.2" y1="270" x2="99.2" y2="458.9"/>
	<g>
		<path opacity="0.2" fill="#232222" d="M59.2,154.4c0,2.7-2.2,4.8-4.8,4.8c-2.7,0-4.8-2.2-4.8-4.8c0-2.7,2.2-4.8,4.8-4.8
			C57.1,149.6,59.2,151.8,59.2,154.4z"/>
		<circle opacity="0.2" fill="#232222" cx="54.4" cy="154.4" r="2.4"/>
	</g>
	<g>
		<circle opacity="0.2" fill="#232222" cx="103.2" cy="154.4" r="4.8"/>
		<circle opacity="0.2" fill="#232222" cx="103.2" cy="154.4" r="2.4"/>
	</g>
	<ellipse opacity="0.2" fill="#232222" cx="79.5" cy="222.7" rx="1.5" ry="2.4"/>
	<path fill="#D3340E" d="M123.7,242.2H33.9c0,14.7,3.9,26.6,11.6,34.8v76.2h24.4V289c2.8,0.4,5.8,0.6,8.9,0.6c2.9,0,5.6-0.2,8.2-0.5
		v64h24.4v-75.4C119.5,269.5,123.7,257.3,123.7,242.2z"/>
	<path fill="#1C1C1C" d="M69.3,462.2c-29.9,0-54.2,6.4-54.2,14.4h54.2V462.2z"/>
	<path fill="#1C1C1C" d="M87.6,461.7c29.9,0,54.2,6.4,54.2,14.4H87.6V461.7z"/>
	<rect x="34" y="242.1" fill="#161516" width="89.8" height="8"/>
	<rect x="71.8" y="242.1" fill="#D6D6D6" width="15.2" height="8"/>
	<path fill="#232222" d="M114.9,118.2H79.7h-1.9H42.7c-5.7,24.4-8.6,22.5-8.6,63.7c0,50.8,0,62,0,63.3c0,0.1,5.6,0.1,5.6,0.1h38.3
		h1.9H118c0,0,5.6,0,5.6-0.1c0-1.3,0-12.5,0-63.3C123.6,140.7,120.7,142.6,114.9,118.2z"/>
	<path fill="#232222" d="M112.7,118.3c0,0-0.8-3.2-3.9-8c0,0-13.8,8-30.9,8v12.3L112.7,118.3z"/>
	<path fill="#D3340E" d="M77.1,164.7c0.1,0.3-38.7-18.4-38.7-18.4l10.3,12l-13.8-7.1l-0.1,3.8l21.6,8.5l-7.9-10.1l28.2,12.2
		L77.1,164.7z"/>
	<g>
		<polygon fill="none" points="60.3,162 60.8,162.6 60.8,162.2 		"/>
		<polygon fill="none" points="64.9,163.9 64.9,167.6 65.7,168.5 65.7,164.2 		"/>
		<polygon fill="none" points="63.9,163.5 63.9,166.4 64.7,167.3 64.7,163.8 		"/>
		<polygon fill="none" points="61,162.3 61,162.8 61.8,163.8 61.8,162.6 		"/>
		<polygon fill="none" points="59.8,165.8 59.1,165 59.1,165.6 		"/>
		<polygon fill="none" points="49.3,162.8 49.3,166.4 50.1,166.6 50.1,163 		"/>
		<polygon fill="none" points="34.7,158.5 34.7,162.2 35.5,162.4 35.5,158.8 		"/>
		<polygon fill="none" points="75.6,166.6 75.6,168.2 76.4,168.5 76.4,166.9 		"/>
		<polygon fill="none" points="76.6,167 76.6,168.6 76.8,168.7 77.4,167.6 77.4,167.4 		"/>
		<polygon fill="none" points="43.5,161.1 43.5,164.7 44.3,164.9 44.3,161.3 		"/>
		<polygon fill="none" points="42.5,160.8 42.5,164.4 43.3,164.6 43.3,161 		"/>
		<polygon fill="none" points="41.5,160.5 41.5,164.1 42.3,164.4 42.3,160.8 		"/>
		<polygon fill="none" points="45.4,161.6 45.4,165.2 46.2,165.5 46.2,161.9 		"/>
		<polygon fill="none" points="40.6,160.2 40.6,163.9 41.4,164.1 41.4,160.5 		"/>
		<polygon fill="none" points="50.3,163.1 50.3,166.6 51.1,166.9 51.1,163.3 		"/>
		<polygon fill="none" points="39.6,160 39.6,163.6 40.4,163.8 40.4,160.2 		"/>
		<polygon fill="none" points="46.4,161.9 46.4,165.5 47.2,165.7 47.2,162.2 		"/>
		<polygon fill="none" points="68.4,171.8 67.8,171.1 67.8,171.6 		"/>
		<polygon fill="none" points="44.5,161.4 44.5,165 45.3,165.2 45.3,161.6 		"/>
		<polygon fill="none" points="35.7,158.8 35.7,162.5 36.5,162.7 36.5,159.1 		"/>
		<polygon fill="none" points="47.4,162.2 47.4,165.8 48.2,166 48.2,162.4 		"/>
		<polygon fill="none" points="48.4,162.5 48.4,166.1 49.2,166.3 49.2,162.7 		"/>
		<polygon fill="none" points="37.6,159.4 37.6,163 38.4,163.2 38.4,159.6 		"/>
		<polygon fill="none" points="36.7,159.1 36.7,162.7 37.5,163 37.5,159.3 		"/>
		<polygon fill="none" points="38.6,159.7 38.6,163.3 39.4,163.5 39.4,159.9 		"/>
		<polygon fill="none" points="71.7,164.9 71.7,166.6 72.5,166.9 72.5,165.2 		"/>
		<polygon fill="none" points="59.1,159.2 59.1,165 59.8,165.8 59.1,165.6 59.1,169.1 59.9,169.4 59.9,159.6 		"/>
		<polygon fill="none" points="70.8,164.4 70.8,166.2 71.6,166.6 71.6,164.8 		"/>
		<polygon fill="none" points="65.7,164.2 65.7,162.2 64.9,161.8 64.9,163.9 		"/>
		<polygon fill="none" points="58.1,165.3 58.1,168.8 58.9,169.1 58.9,165.5 		"/>
		<polygon fill="none" points="67.7,165 67.7,163.1 66.9,162.7 66.9,164.6 		"/>
		<polygon fill="none" points="69.8,164 69.8,165.8 70.6,166.2 70.6,164.4 		"/>
		<polygon fill="none" points="66.7,164.6 66.7,162.6 65.9,162.3 65.9,164.2 		"/>
		<polygon fill="none" points="53.2,163.9 53.2,167.5 54,167.7 54,164.1 		"/>
		<polygon fill="none" points="52.2,163.6 52.2,167.2 53.1,167.4 53.1,163.9 		"/>
		<polygon fill="none" points="51.3,163.3 51.3,166.9 52.1,167.1 52.1,163.6 		"/>
		<polygon fill="none" points="57.1,165 57.1,168.6 57.9,168.8 57.9,165.3 		"/>
		<polygon fill="none" points="56.1,164.8 56.1,168.3 56.9,168.5 56.9,165 		"/>
		<polygon fill="none" points="54.2,164.2 54.2,167.7 55,168 55,164.4 		"/>
		<polygon fill="none" points="55.2,164.5 55.2,168 56,168.2 56,164.7 		"/>
		<polygon fill="none" points="63,165.2 63,170.2 63.8,170.5 63.8,166.2 		"/>
		<polygon fill="none" points="52.1,156.8 52.1,156.2 51.3,155.8 51.3,155.8 		"/>
		<polygon fill="none" points="63.9,166.4 63.9,170.5 64.7,170.7 64.7,167.3 		"/>
		<polygon fill="none" points="65.9,168.7 65.9,171.1 66.7,171.3 66.7,169.7 		"/>
		<polygon fill="none" points="64.9,167.6 64.9,170.8 65.7,171 65.7,168.5 		"/>
		<polygon fill="none" points="66.9,169.9 66.9,171.3 67.7,171.6 67.7,170.9 		"/>
		<polygon fill="none" points="68.8,163.6 68.8,165.4 69.6,165.8 69.6,163.9 		"/>
		<polygon fill="none" points="67.8,163.1 67.8,165 68.6,165.4 68.6,163.5 		"/>
		<polygon fill="none" points="62,164 62,170 62.8,170.2 62.8,165 		"/>
		<polygon fill="none" points="62.8,163 62.8,160.9 62,160.5 62,162.7 		"/>
		<polygon fill="none" points="61.8,162.6 61.8,160.5 61,160.1 61,162.3 		"/>
		<polygon fill="none" points="63.8,163.4 63.8,161.3 63,161 63,163.1 		"/>
		<polygon fill="none" points="64.7,163.8 64.7,161.8 63.9,161.4 63.9,163.5 		"/>
		<polygon fill="none" points="61,162.8 61,169.7 61.8,169.9 61.8,163.8 		"/>
		<polygon fill="none" points="60.3,162 60.8,162.2 60.8,160 60,159.7 60,169.4 60.8,169.6 60.8,162.6 		"/>
		<polygon fill="none" points="54,159 54,157 53.2,156.7 53.2,158.1 		"/>
		<polygon fill="none" points="53.1,157.9 53.1,156.6 52.2,156.2 52.2,157 		"/>
		<polygon fill="none" points="73.7,165.7 73.7,167.4 74.5,167.7 74.5,166.1 		"/>
		<polygon fill="none" points="56.9,162.5 56.9,158.3 56.1,158 56.1,161.5 		"/>
		<polygon fill="none" points="72.7,165.3 72.7,167 73.5,167.3 73.5,165.6 		"/>
		<polygon fill="none" points="56,161.3 56,157.9 55.2,157.5 55.2,160.4 		"/>
		<polygon fill="none" points="74.7,166.2 74.7,167.8 75.5,168.1 75.5,166.5 		"/>
		<polygon fill="none" points="55,160.2 55,157.4 54.2,157.1 54.2,159.3 		"/>
		<polygon fill="none" points="57.9,163.6 57.9,158.7 57.1,158.4 57.1,162.7 		"/>
		<polygon fill="none" points="58.9,164.8 58.9,159.2 58.1,158.8 58.1,163.8 		"/>
		<polygon fill="#D3340E" points="34.5,158.5 34.5,162.1 34.7,162.2 34.7,158.5 		"/>
		<polygon fill="#D3340E" points="35.5,158.8 35.5,162.4 35.7,162.5 35.7,158.8 		"/>
		<polygon fill="#D3340E" points="36.5,159.1 36.5,162.7 36.7,162.7 36.7,159.1 		"/>
		<polygon fill="#D3340E" points="37.5,159.3 37.5,163 37.6,163 37.6,159.4 		"/>
		<polygon fill="#D3340E" points="38.4,159.6 38.4,163.2 38.6,163.3 38.6,159.7 		"/>
		<polygon fill="#D3340E" points="39.4,159.9 39.4,163.5 39.6,163.6 39.6,160 		"/>
		<polygon fill="#D3340E" points="40.4,160.2 40.4,163.8 40.6,163.9 40.6,160.2 		"/>
		<polygon fill="#D3340E" points="41.4,160.5 41.4,164.1 41.5,164.1 41.5,160.5 		"/>
		<polygon fill="#D3340E" points="42.3,160.8 42.3,164.4 42.5,164.4 42.5,160.8 		"/>
		<polygon fill="#D3340E" points="43.3,161 43.3,164.6 43.5,164.7 43.5,161.1 		"/>
		<polygon fill="#D3340E" points="44.3,161.3 44.3,164.9 44.5,165 44.5,161.4 		"/>
		<polygon fill="#D3340E" points="45.3,161.6 45.3,165.2 45.4,165.2 45.4,161.6 		"/>
		<polygon fill="#D3340E" points="46.2,161.9 46.2,165.5 46.4,165.5 46.4,161.9 		"/>
		<polygon fill="#D3340E" points="47.2,162.2 47.2,165.7 47.4,165.8 47.4,162.2 		"/>
		<polygon fill="#D3340E" points="48.2,162.4 48.2,166 48.4,166.1 48.4,162.5 		"/>
		<polygon fill="#D3340E" points="49.2,162.7 49.2,166.3 49.3,166.4 49.3,162.8 		"/>
		<polygon fill="#D3340E" points="50.1,163 50.1,166.6 50.3,166.6 50.3,163.1 		"/>
		<polygon fill="#D3340E" points="51.1,163.3 51.1,166.9 51.3,166.9 51.3,163.3 		"/>
		<polygon fill="#D3340E" points="51.3,155.8 51.3,155.8 51.2,155.8 		"/>
		<polygon fill="#D3340E" points="52.2,157 52.2,156.2 52.1,156.2 52.1,156.8 		"/>
		<polygon fill="#D3340E" points="52.1,163.6 52.1,167.1 52.2,167.2 52.2,163.6 		"/>
		<polygon fill="#D3340E" points="53.2,158.1 53.2,156.7 53.1,156.6 53.1,157.9 		"/>
		<polygon fill="#D3340E" points="53.1,163.9 53.1,167.4 53.2,167.5 53.2,163.9 		"/>
		<polygon fill="#D3340E" points="54.2,159.3 54.2,157.1 54,157 54,159 		"/>
		<polygon fill="#D3340E" points="54,164.1 54,167.7 54.2,167.7 54.2,164.2 		"/>
		<polygon fill="#D3340E" points="55.2,160.4 55.2,157.5 55,157.4 55,160.2 		"/>
		<polygon fill="#D3340E" points="55,164.4 55,168 55.2,168 55.2,164.5 		"/>
		<polygon fill="#D3340E" points="56.1,161.5 56.1,158 56,157.9 56,161.3 		"/>
		<polygon fill="#D3340E" points="56,164.7 56,168.2 56.1,168.3 56.1,164.8 		"/>
		<polygon fill="#D3340E" points="57.1,162.7 57.1,158.4 56.9,158.3 56.9,162.5 		"/>
		<polygon fill="#D3340E" points="56.9,165 56.9,168.5 57.1,168.6 57.1,165 		"/>
		<polygon fill="#D3340E" points="58.1,163.8 58.1,158.8 57.9,158.7 57.9,163.6 		"/>
		<polygon fill="#D3340E" points="57.9,165.3 57.9,168.8 58.1,168.8 58.1,165.3 		"/>
		<polygon fill="#D3340E" points="58.9,165.5 58.9,169.1 59.1,169.1 59.1,165.6 		"/>
		<polygon fill="#D3340E" points="59.1,165 59.1,159.2 58.9,159.2 58.9,164.8 		"/>
		<polygon fill="#D3340E" points="59.9,159.6 59.9,169.4 60,169.4 60,159.7 		"/>
		<polygon fill="#D3340E" points="61,162.3 61,160.1 60.8,160 60.8,162.2 		"/>
		<polygon fill="#D3340E" points="60.8,162.6 60.8,169.6 61,169.7 61,162.8 		"/>
		<polygon fill="#D3340E" points="61.8,163.8 61.8,169.9 62,170 62,164 		"/>
		<polygon fill="#D3340E" points="62,162.7 62,160.5 61.8,160.5 61.8,162.6 		"/>
		<polygon fill="#D3340E" points="62.8,165 62.8,170.2 63,170.2 63,165.2 		"/>
		<polygon fill="#D3340E" points="63,163.1 63,161 62.8,160.9 62.8,163 		"/>
		<polygon fill="#D3340E" points="63.9,163.5 63.9,161.4 63.8,161.3 63.8,163.4 		"/>
		<polygon fill="#D3340E" points="63.8,166.2 63.8,170.5 63.9,170.5 63.9,166.4 		"/>
		<polygon fill="#D3340E" points="64.7,167.3 64.7,170.7 64.9,170.8 64.9,167.6 		"/>
		<polygon fill="#D3340E" points="64.9,163.9 64.9,161.8 64.7,161.8 64.7,163.8 		"/>
		<polygon fill="#D3340E" points="65.7,168.5 65.7,171 65.9,171.1 65.9,168.7 		"/>
		<polygon fill="#D3340E" points="65.9,164.2 65.9,162.3 65.7,162.2 65.7,164.2 		"/>
		<polygon fill="#D3340E" points="66.7,169.7 66.7,171.3 66.9,171.3 66.9,169.9 		"/>
		<polygon fill="#D3340E" points="66.9,164.6 66.9,162.7 66.7,162.6 66.7,164.6 		"/>
		<polygon fill="#D3340E" points="67.7,171.6 67.8,171.6 67.8,171.1 67.7,170.9 		"/>
		<polygon fill="#D3340E" points="67.7,163.1 67.7,165 67.8,165 67.8,163.1 		"/>
		<polygon fill="#D3340E" points="68.6,163.5 68.6,165.4 68.8,165.4 68.8,163.6 		"/>
		<polygon fill="#D3340E" points="69.6,163.9 69.6,165.8 69.8,165.8 69.8,164 		"/>
		<polygon fill="#D3340E" points="70.6,164.4 70.6,166.2 70.8,166.2 70.8,164.4 		"/>
		<polygon fill="#D3340E" points="71.6,164.8 71.6,166.6 71.7,166.6 71.7,164.9 		"/>
		<polygon fill="#D3340E" points="72.5,165.2 72.5,166.9 72.7,167 72.7,165.3 		"/>
		<polygon fill="#D3340E" points="73.5,165.6 73.5,167.3 73.7,167.4 73.7,165.7 		"/>
		<polygon fill="#D3340E" points="74.5,166.1 74.5,167.7 74.7,167.8 74.7,166.2 		"/>
		<polygon fill="#D3340E" points="75.5,166.5 75.5,168.1 75.6,168.2 75.6,166.6 		"/>
		<polygon fill="#D3340E" points="76.4,166.9 76.4,168.5 76.6,168.6 76.6,167 		"/>
		<polygon fill="#D3340E" points="77.4,167.4 77.4,167.6 77.5,167.4 		"/>
	</g>
	<path fill="#D3340E" d="M80,164.7c-0.1,0.3,38.7-18.4,38.7-18.4l-10.3,12l14.2-7.3l0.3,3.6l-22.2,8.8l7.9-10.1l-28.2,12.2L80,164.7
		z"/>
	<g>
		<polygon fill="none" points="96.7,162 96.2,162.6 96.2,162.2 		"/>
		<polygon fill="none" points="92.1,163.9 92.1,167.6 91.3,168.5 91.3,164.2 		"/>
		<polygon fill="none" points="93.1,163.5 93.1,166.4 92.3,167.3 92.3,163.8 		"/>
		<polygon fill="none" points="96,162.3 96,162.8 95.2,163.8 95.2,162.6 		"/>
		<polygon fill="none" points="97.3,165.8 98,165 98,165.6 		"/>
		<polygon fill="none" points="107.7,162.8 107.7,166.4 106.9,166.6 106.9,163 		"/>
		<polygon fill="none" points="122.3,158.5 122.3,162.2 121.5,162.4 121.5,158.8 		"/>
		<polygon fill="none" points="81.4,166.6 81.4,168.2 80.6,168.5 80.6,166.9 		"/>
		<polygon fill="none" points="123.3,158.3 123.3,161.9 122.5,162.1 122.5,158.5 		"/>
		<polygon fill="none" points="123.5,158.2 124.3,159.8 124.3,161.6 123.5,161.9 123.5,158.2 		"/>
		<polygon fill="none" points="80.4,167 80.4,168.6 80.2,168.7 79.6,167.6 79.6,167.4 		"/>
		<polygon fill="none" points="113.6,161.1 113.6,164.7 112.8,164.9 112.8,161.3 		"/>
		<polygon fill="none" points="125,161.4 124.4,161.6 124.4,160.2 		"/>
		<polygon fill="none" points="114.5,160.8 114.5,164.4 113.7,164.6 113.7,161 		"/>
		<polygon fill="none" points="115.5,160.5 115.5,164.1 114.7,164.4 114.7,160.8 		"/>
		<polygon fill="none" points="111.6,161.6 111.6,165.2 110.8,165.5 110.8,161.9 		"/>
		<polygon fill="none" points="116.5,160.2 116.5,163.9 115.7,164.1 115.7,160.5 		"/>
		<polygon fill="none" points="106.7,163.1 106.7,166.6 105.9,166.9 105.9,163.3 		"/>
		<polygon fill="none" points="117.5,160 117.5,163.6 116.7,163.8 116.7,160.2 		"/>
		<polygon fill="none" points="110.6,161.9 110.6,165.5 109.8,165.7 109.8,162.2 		"/>
		<polygon fill="none" points="88.6,171.8 89.2,171.1 89.2,171.6 		"/>
		<polygon fill="none" points="112.6,161.4 112.6,165 111.8,165.2 111.8,161.6 		"/>
		<polygon fill="none" points="121.4,158.8 121.4,162.5 120.6,162.7 120.6,159.1 		"/>
		<polygon fill="none" points="109.7,162.2 109.7,165.8 108.9,166 108.9,162.4 		"/>
		<polygon fill="none" points="108.7,162.5 108.7,166.1 107.9,166.3 107.9,162.7 		"/>
		<polygon fill="none" points="119.4,159.4 119.4,163 118.6,163.2 118.6,159.6 		"/>
		<polygon fill="none" points="120.4,159.1 120.4,162.7 119.6,163 119.6,159.3 		"/>
		<polygon fill="none" points="118.4,159.7 118.4,163.3 117.6,163.5 117.6,159.9 		"/>
		<polygon fill="none" points="85.3,164.9 85.3,166.6 84.5,166.9 84.5,165.2 		"/>
		<polygon fill="none" points="98,159.2 98,165 97.3,165.8 98,165.6 98,169.1 97.2,169.4 97.2,159.6 		"/>
		<polygon fill="none" points="86.3,164.4 86.3,166.2 85.5,166.6 85.5,164.8 		"/>
		<polygon fill="none" points="91.3,164.2 91.3,162.2 92.1,161.8 92.1,163.9 		"/>
		<polygon fill="none" points="98.9,165.3 98.9,168.8 98.1,169.1 98.1,165.5 		"/>
		<polygon fill="none" points="89.4,165 89.4,163.1 90.2,162.7 90.2,164.6 		"/>
		<polygon fill="none" points="87.3,164 87.3,165.8 86.4,166.2 86.4,164.4 		"/>
		<polygon fill="none" points="90.3,164.6 90.3,162.6 91.1,162.3 91.1,164.2 		"/>
		<polygon fill="none" points="103.8,163.9 103.8,167.5 103,167.7 103,164.1 		"/>
		<polygon fill="none" points="104.8,163.6 104.8,167.2 104,167.4 104,163.9 		"/>
		<polygon fill="none" points="105.8,163.3 105.8,166.9 105,167.1 105,163.6 		"/>
		<polygon fill="none" points="99.9,165 99.9,168.6 99.1,168.8 99.1,165.3 		"/>
		<polygon fill="none" points="100.9,164.8 100.9,168.3 100.1,168.5 100.1,165 		"/>
		<polygon fill="none" points="102.8,164.2 102.8,167.7 102,168 102,164.4 		"/>
		<polygon fill="none" points="101.9,164.5 101.9,168 101.1,168.2 101.1,164.7 		"/>
		<polygon fill="none" points="94.1,165.2 94.1,170.2 93.3,170.5 93.3,166.2 		"/>
		<polygon fill="none" points="105,156.8 105,156.2 105.8,155.8 105.8,155.8 		"/>
		<polygon fill="none" points="93.1,166.4 93.1,170.5 92.3,170.7 92.3,167.3 		"/>
		<polygon fill="none" points="91.1,168.7 91.1,171.1 90.3,171.3 90.3,169.7 		"/>
		<polygon fill="none" points="92.1,167.6 92.1,170.8 91.3,171 91.3,168.5 		"/>
		<polygon fill="none" points="90.2,169.9 90.2,171.3 89.4,171.6 89.4,170.9 		"/>
		<polygon fill="none" points="88.2,163.6 88.2,165.4 87.4,165.8 87.4,163.9 		"/>
		<polygon fill="none" points="89.2,163.1 89.2,165 88.4,165.4 88.4,163.5 		"/>
		<polygon fill="none" points="95,164 95,170 94.2,170.2 94.2,165 		"/>
		<polygon fill="none" points="94.2,163 94.2,160.9 95,160.5 95,162.7 		"/>
		<polygon fill="none" points="95.2,162.6 95.2,160.5 96,160.1 96,162.3 		"/>
		<polygon fill="none" points="93.3,163.4 93.3,161.3 94.1,161 94.1,163.1 		"/>
		<polygon fill="none" points="92.3,163.8 92.3,161.8 93.1,161.4 93.1,163.5 		"/>
		<polygon fill="none" points="96,162.8 96,169.7 95.2,169.9 95.2,163.8 		"/>
		<polygon fill="none" points="96.7,162 96.2,162.2 96.2,160 97,159.7 97,169.4 96.2,169.6 96.2,162.6 		"/>
		<polygon fill="none" points="103,159 103,157 103.8,156.7 103.8,158.1 		"/>
		<polygon fill="none" points="104,157.9 104,156.6 104.8,156.2 104.8,157 		"/>
		<polygon fill="none" points="83.4,165.7 83.4,167.4 82.6,167.7 82.6,166.1 		"/>
		<polygon fill="none" points="100.1,162.5 100.1,158.3 100.9,158 100.9,161.5 		"/>
		<polygon fill="none" points="84.3,165.3 84.3,167 83.5,167.3 83.5,165.6 		"/>
		<polygon fill="none" points="101.1,161.3 101.1,157.9 101.9,157.5 101.9,160.4 		"/>
		<polygon fill="none" points="82.4,166.2 82.4,167.8 81.6,168.1 81.6,166.5 		"/>
		<polygon fill="none" points="102,160.2 102,157.4 102.8,157.1 102.8,159.3 		"/>
		<polygon fill="none" points="99.1,163.6 99.1,158.7 99.9,158.4 99.9,162.7 		"/>
		<polygon fill="none" points="98.1,164.8 98.1,159.2 98.9,158.8 98.9,163.8 		"/>
		<polygon fill="#D3340E" points="122.5,158.5 122.5,162.1 122.3,162.2 122.3,158.5 		"/>
		<polygon fill="#D3340E" points="121.5,158.8 121.5,162.4 121.4,162.5 121.4,158.8 		"/>
		<polygon fill="#D3340E" points="120.6,159.1 120.6,162.7 120.4,162.7 120.4,159.1 		"/>
		<polygon fill="#D3340E" points="119.6,159.3 119.6,163 119.4,163 119.4,159.4 		"/>
		<polygon fill="#D3340E" points="118.6,159.6 118.6,163.2 118.4,163.3 118.4,159.7 		"/>
		<polygon fill="#D3340E" points="117.6,159.9 117.6,163.5 117.5,163.6 117.5,160 		"/>
		<polygon fill="#D3340E" points="116.7,160.2 116.7,163.8 116.5,163.9 116.5,160.2 		"/>
		<polygon fill="#D3340E" points="115.7,160.5 115.7,164.1 115.5,164.1 115.5,160.5 		"/>
		<polygon fill="#D3340E" points="114.7,160.8 114.7,164.4 114.5,164.4 114.5,160.8 		"/>
		<polygon fill="#D3340E" points="113.7,161 113.7,164.6 113.6,164.7 113.6,161.1 		"/>
		<polygon fill="#D3340E" points="112.8,161.3 112.8,164.9 112.6,165 112.6,161.4 		"/>
		<polygon fill="#D3340E" points="111.8,161.6 111.8,165.2 111.6,165.2 111.6,161.6 		"/>
		<polygon fill="#D3340E" points="110.8,161.9 110.8,165.5 110.6,165.5 110.6,161.9 		"/>
		<polygon fill="#D3340E" points="109.8,162.2 109.8,165.7 109.7,165.8 109.7,162.2 		"/>
		<polygon fill="#D3340E" points="108.9,162.4 108.9,166 108.7,166.1 108.7,162.5 		"/>
		<polygon fill="#D3340E" points="107.9,162.7 107.9,166.3 107.7,166.4 107.7,162.8 		"/>
		<polygon fill="#D3340E" points="106.9,163 106.9,166.6 106.7,166.6 106.7,163.1 		"/>
		<polygon fill="#D3340E" points="105.9,163.3 105.9,166.9 105.8,166.9 105.8,163.3 		"/>
		<polygon fill="#D3340E" points="105.8,155.8 105.8,155.8 105.8,155.8 		"/>
		<polygon fill="#D3340E" points="104.8,157 104.8,156.2 105,156.2 105,156.8 		"/>
		<polygon fill="#D3340E" points="105,163.6 105,167.1 104.8,167.2 104.8,163.6 		"/>
		<polygon fill="#D3340E" points="103.8,158.1 103.8,156.7 104,156.6 104,157.9 		"/>
		<polygon fill="#D3340E" points="104,163.9 104,167.4 103.8,167.5 103.8,163.9 		"/>
		<polygon fill="#D3340E" points="102.8,159.3 102.8,157.1 103,157 103,159 		"/>
		<polygon fill="#D3340E" points="103,164.1 103,167.7 102.8,167.7 102.8,164.2 		"/>
		<polygon fill="#D3340E" points="101.9,160.4 101.9,157.5 102,157.4 102,160.2 		"/>
		<polygon fill="#D3340E" points="102,164.4 102,168 101.9,168 101.9,164.5 		"/>
		<polygon fill="#D3340E" points="100.9,161.5 100.9,158 101.1,157.9 101.1,161.3 		"/>
		<polygon fill="#D3340E" points="101.1,164.7 101.1,168.2 100.9,168.3 100.9,164.8 		"/>
		<polygon fill="#D3340E" points="99.9,162.7 99.9,158.4 100.1,158.3 100.1,162.5 		"/>
		<polygon fill="#D3340E" points="100.1,165 100.1,168.5 99.9,168.6 99.9,165 		"/>
		<polygon fill="#D3340E" points="98.9,163.8 98.9,158.8 99.1,158.7 99.1,163.6 		"/>
		<polygon fill="#D3340E" points="99.1,165.3 99.1,168.8 98.9,168.8 98.9,165.3 		"/>
		<polygon fill="#D3340E" points="98.1,165.5 98.1,169.1 98,169.1 98,165.6 		"/>
		<polygon fill="#D3340E" points="98,165 98,159.2 98.1,159.2 98.1,164.8 		"/>
		<polygon fill="#D3340E" points="97.2,159.6 97.2,169.4 97,169.4 97,159.7 		"/>
		<polygon fill="#D3340E" points="96,162.3 96,160.1 96.2,160 96.2,162.2 		"/>
		<polygon fill="#D3340E" points="96.2,162.6 96.2,169.6 96,169.7 96,162.8 		"/>
		<polygon fill="#D3340E" points="95.2,163.8 95.2,169.9 95,170 95,164 		"/>
		<polygon fill="#D3340E" points="95,162.7 95,160.5 95.2,160.5 95.2,162.6 		"/>
		<polygon fill="#D3340E" points="94.2,165 94.2,170.2 94.1,170.2 94.1,165.2 		"/>
		<polygon fill="#D3340E" points="94.1,163.1 94.1,161 94.2,160.9 94.2,163 		"/>
		<polygon fill="#D3340E" points="93.1,163.5 93.1,161.4 93.3,161.3 93.3,163.4 		"/>
		<polygon fill="#D3340E" points="93.3,166.2 93.3,170.5 93.1,170.5 93.1,166.4 		"/>
		<polygon fill="#D3340E" points="92.3,167.3 92.3,170.7 92.1,170.8 92.1,167.6 		"/>
		<polygon fill="#D3340E" points="92.1,163.9 92.1,161.8 92.3,161.8 92.3,163.8 		"/>
		<polygon fill="#D3340E" points="91.3,168.5 91.3,171 91.1,171.1 91.1,168.7 		"/>
		<polygon fill="#D3340E" points="91.1,164.2 91.1,162.3 91.3,162.2 91.3,164.2 		"/>
		<polygon fill="#D3340E" points="90.3,169.7 90.3,171.3 90.2,171.3 90.2,169.9 		"/>
		<polygon fill="#D3340E" points="90.2,164.6 90.2,162.7 90.3,162.6 90.3,164.6 		"/>
		<polygon fill="#D3340E" points="89.4,171.6 89.2,171.6 89.2,171.1 89.4,170.9 		"/>
		<polygon fill="#D3340E" points="89.4,163.1 89.4,165 89.2,165 89.2,163.1 		"/>
		<polygon fill="#D3340E" points="88.4,163.5 88.4,165.4 88.2,165.4 88.2,163.6 		"/>
		<polygon fill="#D3340E" points="87.4,163.9 87.4,165.8 87.3,165.8 87.3,164 		"/>
		<polygon fill="#D3340E" points="86.4,164.4 86.4,166.2 86.3,166.2 86.3,164.4 		"/>
		<polygon fill="#D3340E" points="85.5,164.8 85.5,166.6 85.3,166.6 85.3,164.9 		"/>
		<polygon fill="#D3340E" points="84.5,165.2 84.5,166.9 84.3,167 84.3,165.3 		"/>
		<polygon fill="#D3340E" points="83.5,165.6 83.5,167.3 83.4,167.4 83.4,165.7 		"/>
		<polygon fill="#D3340E" points="82.6,166.1 82.6,167.7 82.4,167.8 82.4,166.2 		"/>
		<polygon fill="#D3340E" points="81.6,166.5 81.6,168.1 81.4,168.2 81.4,166.6 		"/>
		<polygon fill="#D3340E" points="80.6,166.9 80.6,168.5 80.4,168.6 80.4,167 		"/>
		<polygon fill="#D3340E" points="79.6,167.4 79.6,167.6 79.5,167.4 		"/>
	</g>
	<ellipse fill="#D3340E" cx="78.9" cy="166.3" rx="8.4" ry="9.7"/>
	<path fill="#232222" d="M85.2,166.3c0,4-2.8,7.3-6.3,7.3c-3.5,0-6.3-3.2-6.3-7.3c0-4,2.8-7.3,6.3-7.3
		C82.4,159,85.2,162.3,85.2,166.3z"/>
	<path fill="#232222" d="M44.9,118.3c0,0,0.8-3.2,3.9-8c0,0,13.8,8,30.9,8v12.3L44.9,118.3z"/>
	<path fill="#232222" d="M44.5,124.1l-1.1-3.5l-0.7-2.5l-0.1-0.8l2.3-1.3l3.8,2.8l1.1,6.5l54.8-9.4l5.9,0.7c0,0,1.2-0.9,1.4-0.8
		c0.3,0.1-0.3,0.1,0.3,0.1c0.5,0,2.4,1.3,2.4,1.3l0.5,0.9l-0.6,3.7l-45,9.8L44.5,124.1z"/>
	<g>
		<g>
			<path fill="#D3340E" d="M85.3,170.1l-0.2-0.2c-0.2-0.1-0.1-0.3-0.1-0.3c1.1-2,0.6-4,0.6-4c-0.3-2.3-2.3-3.7-2.3-3.7
				c-0.2-0.1,0-0.3,0-0.3l0.2-0.2c0,0,0.2-0.2,0-0.4l-1.2-0.7c0,0,0,0,0-0.1c0,0,0-0.6-0.3-0.9c0,0-0.5-0.7-1-1c0,0-0.8-0.5-1.2-0.6
				c0,0-0.9-0.3-1.6-0.2c0,0-0.2,0-0.3,0.1c0,0-0.1,0.1,0,0.2c-0.1,0-0.3,0.1-0.3,0.2c0,0,0,0,0,0.1c0,0.1,0,0.2,0.2,0.2
				c0,0,0.4,0.2,0.4,0.3c0,0,0,0,0,0.1c0,0,0,0,0,0c0,0,0,0,0,0h0l0,0c0,0,0,0,0,0c-0.1-0.1-0.2-0.2-0.3-0.3c-0.1,0-0.1-0.1-0.2-0.1
				c0,0-0.1,0-0.1-0.1c-0.1-0.1-0.1-0.2-0.1-0.3c0,0-0.1-0.1-0.1-0.1c-0.1,0-0.2,0.1-0.2,0.1c-0.1,0-0.2,0.1-0.3,0.1
				c-0.2,0.1-0.4,0.1-0.4,0.1c-0.1,0-0.2,0-0.3,0.2c-0.1,0.2,0,0.3,0.1,0.4c0.1,0.1,0.2,0.1,0.2,0.1c0,0,0-0.1,0.1-0.1
				c0.1,0,0.1,0,0.3,0.1c0.2,0,0.3,0,0.4,0c0.1,0,0.1,0.2,0.1,0.3c0,0.2-0.1,0.4-0.1,0.6c0,0,0,0.1,0,0.2c-0.1,0-0.2,0.1-0.2,0.1
				c-0.2,0.1-0.4,0.2-0.8,0.4c-0.5,0.3-1.1,0.7-1.1,0.7c-0.3,0.2-0.1,0.4-0.1,0.4l0.2,0.2c0,0,0.3,0.2,0,0.4c0,0-1.6,1.3-1.9,3.6
				c0,0-0.4,2.1,0.8,4.1c0,0,0.2,0.2,0,0.3l-0.2,0.2c0,0-0.2,0.2,0.1,0.5c0,0,1.4,1.7,2.8,2c0,0-0.5-0.6-0.8-1.2
				c0,0-0.2-0.2,0.1-0.2l0.6-0.1c0,0,0-0.1-0.1-0.1c0,0,0,0,0,0c0.1,0.3,0.3,0.6,0.4,0.8l0,0c0,0,0,0,0,0c0.6,0.8,1.5,1.3,2.6,1.3
				c1.5,0,2.7-1,3.1-2.3l0.3,0c0.3,0,0.5,0,0.5,0c-0.2,0.7-0.9,1.5-0.9,1.5c1.2-0.4,2.3-1.7,2.3-1.7
				C85.6,170.3,85.3,170.1,85.3,170.1z"/>
		</g>
		<path fill="#231F20" d="M87.3,169.5c0.7-2,0.4-3.8,0.3-4.2c-0.3-1.8-1.2-3.1-2-4c0-0.2,0-0.3,0-0.5c-0.1-0.7-0.5-1.3-1.1-1.6
			l-0.4-0.2c-0.1-0.3-0.2-0.6-0.4-0.9c-0.2-0.2-0.8-1.1-1.6-1.6c-0.5-0.3-1.1-0.7-1.6-0.8c0,0-1.1-0.4-2.1-0.4c-0.1,0-0.2,0-0.3,0
			l0,0c-0.2,0-0.7,0.1-1.2,0.4c-0.2,0-0.4,0.1-0.5,0.2c-0.1,0-0.1,0-0.2,0.1l0,0c-0.1,0-0.1,0-0.2,0.1c-0.7,0.1-1.3,0.5-1.7,1.2
			c-0.2,0.3-0.6,1.1-0.2,2.1c-0.2,0.1-0.3,0.2-0.4,0.3c-0.6,0.4-0.9,1-1,1.7c0,0.1,0,0.3,0,0.4c-0.7,0.8-1.4,2.1-1.6,3.9
			c-0.1,0.4-0.3,2.4,0.6,4.5c-0.2,0.7-0.1,1.5,0.5,2.3c0.4,0.4,2,2.3,3.8,2.7l1.7,0.4c0,0,1.3,0,1.7,0c0.5,0,2-0.1,2-0.1l1.7-0.5
			c1.7-0.5,3.1-2.1,3.3-2.4c0.5-0.6,1.1-1.5,0.9-2.6C87.4,169.7,87.4,169.6,87.3,169.5z"/>
		<path fill="none" stroke="#D3340E" stroke-width="0.9599" stroke-miterlimit="10" d="M87.3,169.5c0.7-2,0.4-3.8,0.3-4.2
			c-0.3-1.8-1.2-3.1-2-4c0-0.2,0-0.3,0-0.5c-0.1-0.7-0.5-1.3-1.1-1.6l-0.4-0.2c-0.1-0.3-0.2-0.6-0.4-0.9c-0.2-0.2-0.8-1.1-1.6-1.6
			c-0.5-0.3-1.1-0.7-1.6-0.8c0,0-1.1-0.4-2.1-0.4c-0.1,0-0.2,0-0.3,0l0,0c-0.2,0-0.7,0.1-1.2,0.4c-0.2,0-0.4,0.1-0.5,0.2
			c-0.1,0-0.1,0-0.2,0.1l0,0c-0.1,0-0.1,0-0.2,0.1c-0.7,0.1-1.3,0.5-1.7,1.2c-0.2,0.3-0.6,1.1-0.2,2.1c-0.2,0.1-0.3,0.2-0.4,0.3
			c-0.6,0.4-0.9,1-1,1.7c0,0.1,0,0.3,0,0.4c-0.7,0.8-1.4,2.1-1.6,3.9c-0.1,0.4-0.3,2.4,0.6,4.5c-0.2,0.7-0.1,1.5,0.5,2.3
			c0.4,0.4,2,2.3,3.8,2.7l1.7,0.4c0,0,1.3,0,1.7,0c0.5,0,2-0.1,2-0.1l1.7-0.5c1.7-0.5,3.1-2.1,3.3-2.4c0.5-0.6,1.1-1.5,0.9-2.6
			C87.4,169.7,87.4,169.6,87.3,169.5z"/>
		<g>
			<g>
				<path fill="#231F20" d="M77.9,158.7c-0.1,0-0.3,0.1-0.3,0.2c0,0.1,0.2,0.4,0.2,0.4c0.3,0.4,1.1,0.7,1.6,0.5
					c0.4-0.2,0.8-1,0.5-1.4c-0.1-0.2-0.3-0.2-0.5-0.3c-0.4-0.2-0.7-0.4-1.1-0.4c0,0-0.6-0.1-0.7,0.2c0,0,0,0,0,0.1
					c0,0.1,0,0.2,0.2,0.2c0,0,0.4,0.2,0.4,0.3c0,0,0,0,0,0.1c0,0,0,0,0,0c0,0,0,0,0,0h0l0,0c0,0-0.1,0-0.1,0.1
					C77.9,158.7,77.9,158.7,77.9,158.7z"/>
				<g>
					<path fill="#D3340E" d="M78.5,158.6C78.5,158.7,78.5,158.7,78.5,158.6c-0.1,0.1-0.2,0.1-0.2,0.1c0,0-0.1,0-0.1-0.1
						c0,0,0,0,0.1,0c0,0,0.1,0,0.1-0.1c0,0-0.1-0.1-0.1-0.1c-0.1-0.1-0.2-0.2-0.3-0.3c0,0-0.3-0.1-0.2-0.3c0,0,0-0.1,0.7,0
						c0,0,0.9,0.3,1.1,0.5c0,0,0.1,0.1,0,0.1c0,0,0,0-0.4-0.2c0,0-0.8-0.4-1-0.3c0,0-0.1,0,0,0.1c0.1,0.1,0.1,0.1,0.2,0.2
						c0.1,0.1,0.1,0.1,0.1,0.2C78.5,158.5,78.5,158.6,78.5,158.6z"/>
					<path fill="#D3340E" d="M78.4,158.2c0,0.1,0.1,0.1,0.1,0.2c0,0.1,0.2,0.2,0.1,0.3c0,0,0,0,0,0.1c0,0,0,0-0.1,0.1c0,0,0,0-0.1,0
						c-0.1,0,0,0.1,0.1,0.2c0,0,0.1,0.1,0.1,0.1c0,0,0.1,0.1,0.1,0.1c0,0,0,0,0,0c0-0.1,0-0.1-0.1-0.1c0,0,0-0.1,0-0.1
						c0,0,0,0,0-0.1c0,0,0,0,0,0c0.1,0,0.1,0.1,0.1,0.2c0,0,0.1,0,0.1,0c0,0,0-0.1-0.1-0.1c0,0-0.1-0.1-0.1-0.2c0,0,0,0,0,0
						c0,0,0,0,0,0c0,0,0,0,0.1,0c0,0,0.1,0,0.1,0c0.1,0,0.2,0.1,0.2,0.1c0,0,0.3,0.2,0.5,0.2c0,0,0.1,0,0-0.1c0,0-0.7-0.3-0.7-0.3
						c0,0-0.1,0,0-0.1c0,0,0-0.1,0.5,0.2c0,0,0.3,0.2,0.4,0.1c0,0,0,0,0-0.1c0,0,0.1-0.1-0.7-0.3c0,0-0.2,0-0.1-0.1c0,0,0,0,0.2,0
						c0,0,0.3,0.1,0.5,0.2c0,0,0.1,0,0.1,0c0,0,0-0.1-0.3-0.2c0,0-0.3-0.1-0.4-0.2C79.1,158.3,78.3,158,78.4,158.2z"/>
				</g>
			</g>
			<g>
				<ellipse fill="#D3340E" cx="79.3" cy="166.5" rx="5.7" ry="5.7"/>
				<path fill="#231F20" d="M81.8,166.8c0,1.3-1.1,2.4-2.5,2.4c-1.3,0-2.3-1-2.4-2.2v0c0-0.1,0.1,0,0.1,0c0.1,0.1,0.1-0.1,0.1-0.1
					v-0.2c0-0.1-0.1,0-0.1,0c-0.2,0.1-0.1,0-0.1,0c0-1.3,1.1-2.4,2.5-2.4c1.3,0,2.4,1,2.5,2.3c0,0,0,0.1-0.1,0c0,0-0.1-0.1-0.1,0
					c0,0,0,0.2,0,0.2C81.6,166.8,81.6,166.9,81.8,166.8C81.7,166.8,81.8,166.6,81.8,166.8L81.8,166.8z"/>
				<circle fill="#D3340E" cx="79.4" cy="166.7" r="1.8"/>
				<path fill="#231F20" d="M76.6,163.4c0,0,0.3,0.4-0.2,0.9c0,0-0.9,0.8-0.9,2.4c0,0,0,1.3,0.5,1.9c0,0,0.4,0.5,0.1,0.9
					c0,0-0.2,0.3-0.5,0.2c0,0-0.3,0-0.5-0.5c0,0-0.9-1.6-0.5-3.5c0,0,0.4-1.7,1.2-2.3C75.8,163.4,76.3,163,76.6,163.4z"/>
				<path fill="#231F20" d="M81.9,163.3c0,0-0.3,0.4,0.3,0.9c0,0,0.9,0.7,1,2.4c0,0,0.1,1.3-0.4,1.9c0,0-0.3,0.5-0.1,0.9
					c0,0,0.2,0.3,0.5,0.2c0,0,0.3,0,0.5-0.5c0,0,0.8-1.7,0.3-3.5c0,0-0.5-1.6-1.4-2.3C82.7,163.2,82.3,162.8,81.9,163.3z"/>
				<g>
					<g>
						<path fill="none" stroke="#231F20" stroke-width="6.169000e-02" d="M77,163.6c0,0,0.1,0.3,0.4,0.4"/>
						<path fill="none" stroke="#231F20" stroke-width="6.169000e-02" d="M76.8,163.8c0,0,0.3,0.4,0.4,0.4"/>
					</g>
					<g>
						<path fill="none" stroke="#231F20" stroke-width="6.169000e-02" d="M76.6,164.3L76.6,164.3c0.1,0.1,0.2,0.2,0.1,0.3l-0.1,0.1"
							/>
						<path fill="none" stroke="#231F20" stroke-width="6.169000e-02" d="M76.7,164.2l0.1,0.1c0,0,0.2,0.1,0,0.3l-0.2,0.2"/>
					</g>
					<g>
						<path fill="none" stroke="#231F20" stroke-width="6.169000e-02" d="M76.2,164.9l0.1,0.1c0,0,0.1,0,0.1,0.2l-0.1,0.2"/>
						<path fill="none" stroke="#231F20" stroke-width="6.169000e-02" d="M76.2,164.7l0.2,0.1c0,0,0.2,0.1,0.1,0.2l-0.1,0.2"/>
					</g>
					<g>
						<path fill="none" stroke="#231F20" stroke-width="6.169000e-02" d="M75.9,165.4l0.1,0c0,0,0.2,0,0.1,0.1l0,0.2"/>
						<path fill="none" stroke="#231F20" stroke-width="6.169000e-02" d="M75.9,165.3l0.2,0c0,0,0.2,0,0.2,0.2l0,0.3"/>
					</g>
					<g>
						<path fill="none" stroke="#231F20" stroke-width="6.169000e-02" d="M75.7,166.1l0.1,0c0,0,0.2,0,0.1,0.1l0,0.2"/>
						<path fill="none" stroke="#231F20" stroke-width="6.169000e-02" d="M75.8,166l0.2,0c0,0,0.2,0,0.2,0.2l0,0.3"/>
					</g>
					<g>
						<path fill="none" stroke="#231F20" stroke-width="6.169000e-02" d="M75.7,166.7l0.1,0c0,0,0.2,0,0.2,0.1l0,0.2"/>
						<path fill="none" stroke="#231F20" stroke-width="6.169000e-02" d="M75.7,166.6l0.2,0c0,0,0.2,0,0.2,0.2l0,0.3"/>
					</g>
					<g>
						<path fill="none" stroke="#231F20" stroke-width="6.169000e-02" d="M75.7,167.4l0.1,0c0,0,0.1,0,0.2,0.1l0,0.2"/>
						<path fill="none" stroke="#231F20" stroke-width="6.169000e-02" d="M75.8,167.2l0.2,0c0,0,0.2-0.1,0.2,0.1l0,0.3"/>
					</g>
					<g>
						<path fill="none" stroke="#231F20" stroke-width="6.169000e-02" d="M75.9,168.1l0.1-0.1c0,0,0.1-0.1,0.2,0l0.1,0.2"/>
						<path fill="none" stroke="#231F20" stroke-width="6.169000e-02" d="M75.9,167.9l0.2-0.1c0,0,0.2-0.1,0.3,0.1l0.1,0.2"/>
					</g>
					<g>
						<path fill="none" stroke="#231F20" stroke-width="6.169000e-02" d="M76.2,168.7l0.1-0.1c0,0,0.1-0.1,0.2,0l0.1,0.2"/>
						<path fill="none" stroke="#231F20" stroke-width="6.169000e-02" d="M76.2,168.5l0.2-0.1c0,0,0.2-0.1,0.3,0l0.1,0.2"/>
					</g>
					<path fill="none" stroke="#231F20" stroke-width="6.169000e-02" d="M81.6,163.5c0,0-0.1,0.3-0.4,0.4"/>
					<path fill="none" stroke="#231F20" stroke-width="6.169000e-02" d="M81.8,163.7c0,0-0.3,0.4-0.4,0.4"/>
					<path fill="none" stroke="#231F20" stroke-width="6.169000e-02" d="M82,164.1L82,164.1c-0.1,0.1-0.2,0.2-0.1,0.3l0.1,0.1"/>
					<path fill="none" stroke="#231F20" stroke-width="6.169000e-02" d="M81.9,164l-0.1,0.1c0,0-0.2,0.1,0,0.3l0.2,0.2"/>
					<path fill="none" stroke="#231F20" stroke-width="6.169000e-02" d="M80.7,163.3l0,0.1c0,0-0.1,0.1,0.1,0.2l0.2,0.1"/>
					<path fill="none" stroke="#231F20" stroke-width="6.169000e-02" d="M80.6,163.3l-0.1,0.2c0,0-0.1,0.2,0.1,0.2l0.2,0.1"/>
					<path fill="none" stroke="#231F20" stroke-width="6.169000e-02" d="M82.4,164.7l-0.1,0.1c0,0-0.1,0-0.1,0.2l0.1,0.2"/>
					<path fill="none" stroke="#231F20" stroke-width="6.169000e-02" d="M82.4,164.6l-0.2,0.1c0,0-0.2,0.1-0.1,0.2l0.1,0.2"/>
					<path fill="none" stroke="#231F20" stroke-width="6.169000e-02" d="M82.7,165.3l-0.1,0.1c0,0-0.2,0-0.1,0.2l0.1,0.2"/>
					<path fill="none" stroke="#231F20" stroke-width="6.169000e-02" d="M82.7,165.1l-0.2,0.1c0,0-0.2,0-0.1,0.2l0.1,0.2"/>
					<path fill="none" stroke="#231F20" stroke-width="6.169000e-02" d="M83,165.9l-0.1,0c0,0-0.1,0-0.1,0.1l0,0.2"/>
					<path fill="none" stroke="#231F20" stroke-width="6.169000e-02" d="M82.9,165.8l-0.2,0c0,0-0.2,0-0.2,0.2l0,0.3"/>
					<path fill="none" stroke="#231F20" stroke-width="6.169000e-02" d="M83.1,166.6l-0.1,0c0,0-0.2,0-0.1,0.1l0,0.2"/>
					<path fill="none" stroke="#231F20" stroke-width="6.169000e-02" d="M83.1,166.5l-0.2,0c0,0-0.2,0-0.2,0.2v0.3"/>
					<path fill="none" stroke="#231F20" stroke-width="6.169000e-02" d="M83,167.2l-0.1,0c0,0-0.1,0-0.2,0.1l0,0.2"/>
					<path fill="none" stroke="#231F20" stroke-width="6.169000e-02" d="M83,167.1l-0.2,0c0,0-0.2-0.1-0.2,0.1l0,0.3"/>
					<path fill="none" stroke="#231F20" stroke-width="6.169000e-02" d="M82.9,167.9l-0.1,0c0,0-0.1-0.1-0.2,0.1l0,0.2"/>
					<path fill="none" stroke="#231F20" stroke-width="6.169000e-02" d="M82.9,167.7l-0.2,0c0,0-0.2-0.1-0.2,0.1l-0.1,0.2"/>
					<path fill="none" stroke="#231F20" stroke-width="6.169000e-02" d="M82.6,168.5l-0.1-0.1c0,0-0.1-0.1-0.2,0l-0.1,0.2"/>
					<path fill="none" stroke="#231F20" stroke-width="6.169000e-02" d="M82.7,168.3l-0.2-0.1c0,0-0.2-0.1-0.3,0l-0.1,0.2"/>
					<path fill="none" stroke="#231F20" stroke-width="6.169000e-02" d="M77.8,163.4L77.8,163.4c0.1,0.1,0.1,0.2,0,0.3l-0.2,0.1"/>
				</g>
				<g>
					<path fill="#231F20" d="M78.2,164C78.2,164,78.2,164.1,78.2,164C78.2,164.1,78.1,164,78.2,164C78.1,164,78.1,163.9,78.2,164
						C78.1,163.9,78.2,163.9,78.2,164z"/>
					<g>
						<path fill="#231F20" d="M80.4,163.8C80.4,163.8,80.4,163.9,80.4,163.8C80.5,163.9,80.5,163.8,80.4,163.8
							C80.5,163.8,80.5,163.8,80.4,163.8C80.4,163.8,80.4,163.8,80.4,163.8z"/>
						<g>
							<path fill="#231F20" d="M76.8,165.7C76.8,165.7,76.7,165.7,76.8,165.7C76.7,165.7,76.7,165.7,76.8,165.7
								C76.7,165.6,76.7,165.6,76.8,165.7C76.8,165.6,76.8,165.6,76.8,165.7z"/>
							<g>
								<path fill="#231F20" d="M77.4,164.4C77.4,164.4,77.5,164.4,77.4,164.4c0,0.1,0,0.1,0,0.1C77.4,164.5,77.3,164.4,77.4,164.4
									C77.3,164.4,77.4,164.3,77.4,164.4C77.4,164.3,77.4,164.3,77.4,164.4z"/>
								<path fill="#231F20" d="M76.7,165.3C76.7,165.3,76.7,165.3,76.7,165.3c0.1,0.1,0.1,0.1,0,0.1
									C76.7,165.4,76.6,165.4,76.7,165.3C76.6,165.3,76.6,165.3,76.7,165.3C76.6,165.3,76.7,165.3,76.7,165.3z"/>
								<path fill="#231F20" d="M76.4,166.4C76.4,166.4,76.4,166.4,76.4,166.4C76.4,166.4,76.4,166.5,76.4,166.4
									C76.4,166.5,76.4,166.5,76.4,166.4C76.3,166.4,76.3,166.4,76.4,166.4C76.3,166.4,76.3,166.4,76.4,166.4z"/>
								<path fill="#231F20" d="M76.4,167.6C76.4,167.6,76.5,167.6,76.4,167.6C76.5,167.6,76.5,167.7,76.4,167.6
									C76.5,167.7,76.5,167.7,76.4,167.6C76.4,167.7,76.4,167.7,76.4,167.6C76.4,167.6,76.4,167.6,76.4,167.6z"/>
								<path fill="#231F20" d="M81.1,164.3C81.1,164.3,81.1,164.3,81.1,164.3c0,0.1,0,0.1,0,0.1C81.2,164.4,81.2,164.3,81.1,164.3
									C81.2,164.3,81.2,164.2,81.1,164.3C81.1,164.2,81.1,164.3,81.1,164.3z"/>
								<path fill="#231F20" d="M82,165.1C82,165.1,81.9,165.1,82,165.1c-0.1,0.1,0,0.1,0,0.1C82,165.2,82,165.2,82,165.1
									C82,165.2,82,165.1,82,165.1C82,165.1,82,165.1,82,165.1z"/>
								<path fill="#231F20" d="M82.4,166.2C82.4,166.2,82.3,166.2,82.4,166.2C82.3,166.3,82.3,166.3,82.4,166.2
									C82.4,166.4,82.4,166.3,82.4,166.2C82.4,166.3,82.4,166.3,82.4,166.2C82.4,166.2,82.4,166.2,82.4,166.2z"/>
								<path fill="#231F20" d="M82.4,167.5C82.4,167.5,82.3,167.5,82.4,167.5C82.3,167.5,82.3,167.5,82.4,167.5
									C82.3,167.6,82.4,167.6,82.4,167.5C82.4,167.5,82.4,167.5,82.4,167.5C82.4,167.5,82.4,167.5,82.4,167.5z"/>
								<g>
									
										<ellipse transform="matrix(0.9106 -0.4132 0.4132 0.9106 -60.8109 46.9653)" fill="#231F20" cx="78.2" cy="164.1" rx="0.2" ry="0"/>
									<circle fill="#231F20" cx="78.1" cy="163.9" r="0"/>
									<path fill="#231F20" d="M78.1,164.4c0,0-0.1-0.1,0-0.2c0,0,0.2-0.2,0.3,0c0,0,0.1,0.1,0,0.1c0,0,0,0,0,0c0,0-0.1-0.1-0.1,0
										C78.3,164.2,78.1,164.3,78.1,164.4C78.2,164.3,78.2,164.5,78.1,164.4z"/>
									<path fill="#231F20" d="M77.5,164.3l0.1-0.2c0,0,0-0.1,0.2-0.1c0,0,0,0,0,0.1l-0.1,0c0,0-0.1,0,0,0.1c0,0,0.1,0-0.1,0.1
										c0,0-0.1,0-0.1,0.1C77.7,164.4,77.6,164.5,77.5,164.3C77.6,164.4,77.6,164.3,77.5,164.3C77.5,164.4,77.4,164.4,77.5,164.3z
										"/>
									<path fill="#231F20" d="M76.7,165.2l0.1-0.2c0,0,0-0.1,0.2-0.2c0,0,0.1,0,0,0.1l-0.1,0.1c0,0,0,0.1,0.1,0.1
										c0,0,0.1,0,0,0.1c0,0-0.1,0.1,0,0.1c0,0,0,0.1-0.1,0C76.8,165.3,76.8,165.2,76.7,165.2C76.7,165.3,76.7,165.3,76.7,165.2z"
										/>
									<path fill="#231F20" d="M76.4,166.3l0-0.2c0,0-0.1-0.1,0.1-0.2c0,0,0.1,0,0,0l0,0.1c0,0,0,0.1,0.1,0c0,0,0.1,0,0,0.1
										c0,0,0,0.1,0,0.1c0,0,0,0.1-0.1,0.1C76.5,166.3,76.5,166.3,76.4,166.3C76.4,166.4,76.4,166.4,76.4,166.3z"/>
									<path fill="#231F20" d="M76.4,167.6l-0.1-0.2c0,0-0.1-0.1,0-0.2c0,0,0.1,0,0.1,0l0,0.1c0,0,0,0.1,0.1,0c0,0,0.1,0,0,0.1
										c0,0,0,0.1,0,0.1c0,0,0.1,0.1,0,0.1C76.5,167.5,76.5,167.5,76.4,167.6C76.5,167.6,76.5,167.7,76.4,167.6z"/>
									<path fill="#231F20" d="M76.9,164.4c0,0,0.1,0.1,0.2,0.2c0,0,0,0,0,0c0,0,0.3,0,0.2,0.1c0,0-0.1,0.2-0.2,0.1
										c0,0-0.1-0.2-0.1-0.2L76.9,164.4z"/>
									<path fill="#231F20" d="M76.1,166.8c0,0,0.1,0,0.2,0c0,0,0,0,0,0c0,0,0.2-0.2,0.2-0.1c0,0,0.1,0.2,0,0.2c0,0-0.2,0-0.2-0.1
										L76.1,166.8z"/>
									<path fill="#231F20" d="M77.3,165.1C77.3,165.1,77.4,165.1,77.3,165.1l0.1-0.2l0.2,0c0,0,0.1-0.1,0-0.1l-0.1,0
										c0,0-0.1,0.1-0.1,0.1L77.3,165.1z"/>
									<g>
										
											<ellipse transform="matrix(0.2996 -0.9541 0.9541 0.2996 -104.3453 189.1485)" fill="#231F20" cx="76.7" cy="165.6" rx="0.2" ry="0"/>
										<path fill="#231F20" d="M76.6,165.6C76.6,165.6,76.7,165.6,76.6,165.6C76.6,165.7,76.6,165.7,76.6,165.6
											C76.5,165.6,76.5,165.6,76.6,165.6C76.5,165.6,76.5,165.6,76.6,165.6z"/>
										<path fill="#231F20" d="M76.5,165.6C76.5,165.6,76.6,165.6,76.5,165.6C76.5,165.6,76.5,165.6,76.5,165.6
											C76.4,165.6,76.4,165.6,76.5,165.6C76.5,165.5,76.5,165.5,76.5,165.6z"/>
										<path fill="#231F20" d="M76.8,165.9c0,0-0.1,0-0.1-0.1c0,0,0-0.2,0.2-0.2c0,0,0.1,0,0.1,0c0,0,0,0,0,0c0,0-0.1,0-0.1,0.1
											C76.8,165.7,76.8,165.8,76.8,165.9C76.8,165.8,77,165.9,76.8,165.9z"/>
									</g>
									<g>
										<path fill="#231F20" d="M76.7,167.7c0,0,0.1,0.1,0.1,0.2c0,0.1,0.1,0.2,0,0.2c0,0-0.1-0.1-0.1-0.2
											C76.7,167.8,76.6,167.7,76.7,167.7z"/>
										<path fill="#231F20" d="M76.6,167.9C76.7,167.9,76.7,167.9,76.6,167.9C76.7,167.9,76.7,167.9,76.6,167.9
											C76.6,167.9,76.6,167.9,76.6,167.9C76.6,167.9,76.6,167.9,76.6,167.9z"/>
										<path fill="#231F20" d="M76.6,167.9C76.6,167.9,76.6,167.9,76.6,167.9C76.6,168,76.6,168,76.6,167.9
											C76.5,168,76.5,168,76.6,167.9C76.5,167.9,76.5,167.9,76.6,167.9z"/>
										<path fill="#231F20" d="M77,168c0,0-0.1,0.1-0.2,0c0,0-0.1-0.2,0-0.3c0,0,0.1-0.1,0.1,0c0,0,0,0,0,0c0,0-0.1,0,0,0.1
											C76.9,167.8,76.9,167.9,77,168C77,167.9,77.1,167.9,77,168z"/>
									</g>
									<path fill="#231F20" d="M76.8,167.8C76.8,167.9,76.8,167.9,76.8,167.8C76.8,167.9,76.8,167.9,76.8,167.8
										C76.7,167.8,76.8,167.8,76.8,167.8C76.8,167.8,76.8,167.8,76.8,167.8z"/>
									<path fill="#231F20" d="M76.8,166.6C76.8,166.6,76.8,166.7,76.8,166.6L76.8,166.6c-0.1,0.1-0.1,0.1-0.2,0.1l0,0
										c0,0,0-0.1,0-0.1L76.8,166.6C76.8,166.6,76.8,166.6,76.8,166.6L76.8,166.6z"/>
									<path fill="#231F20" d="M76.7,166.9C76.7,166.9,76.7,166.9,76.7,166.9L76.7,166.9c0.1,0.1,0.1,0.1,0.2,0.1l0,0
										c0,0,0-0.1,0-0.1L76.7,166.9C76.7,166.8,76.7,166.9,76.7,166.9L76.7,166.9z"/>
									<path fill="#231F20" d="M80.2,163.9c0,0,0.1,0.1,0.2,0.1c0.1,0,0.2,0.1,0.2,0c0,0-0.1-0.1-0.2-0.1
										C80.3,163.9,80.2,163.9,80.2,163.9z"/>
									
										<ellipse transform="matrix(-0.9502 -0.3118 0.3118 -0.9502 105.7015 344.6943)" fill="#231F20" cx="80.4" cy="163.9" rx="0" ry="0.1"/>
									<path fill="#231F20" d="M80.4,164.3c0,0,0.1-0.1,0-0.2c0,0-0.2-0.2-0.3,0c0,0-0.1,0.1,0,0.1c0,0,0,0,0,0c0,0,0.1-0.1,0.2,0
										C80.3,164.1,80.4,164.2,80.4,164.3C80.4,164.2,80.3,164.4,80.4,164.3z"/>
									<path fill="#231F20" d="M81.1,164.2l-0.1-0.2c0,0,0-0.1-0.2-0.1c0,0,0,0,0,0.1l0.1,0c0,0,0,0,0,0.1c0,0,0,0,0.1,0.1
										c0,0,0.1,0,0.1,0.1C80.9,164.3,80.9,164.4,81.1,164.2C81,164.3,81,164.2,81.1,164.2C81.1,164.3,81.2,164.3,81.1,164.2z"/>
									<path fill="#231F20" d="M81.9,165.1l-0.1-0.2c0,0,0-0.1-0.2-0.1c0,0-0.1,0,0,0.1l0.1,0.1c0,0,0,0.1-0.1,0.1
										c0,0-0.1,0,0,0.1c0,0,0.1,0.1,0.1,0.1C81.7,165.1,81.7,165.2,81.9,165.1C81.8,165.1,81.8,165.1,81.9,165.1
										C81.9,165.1,82,165.1,81.9,165.1z"/>
									<path fill="#231F20" d="M82.3,166.2l0-0.2c0,0,0-0.1-0.1-0.2c0,0-0.1,0,0,0l0.1,0.1c0,0,0,0.1-0.1,0.1c0,0-0.1,0,0,0.1
										c0,0,0,0.1,0,0.1c0,0,0,0.1,0.1,0.1C82.2,166.2,82.3,166.1,82.3,166.2C82.3,166.3,82.4,166.3,82.3,166.2z"/>
									<path fill="#231F20" d="M82.3,167.4l0-0.2c0,0,0.1-0.1-0.1-0.2c0,0-0.1,0-0.1,0l0,0.1c0,0,0,0.1-0.1,0c0,0-0.1,0,0,0.1
										c0,0,0,0.1,0,0.1c0,0,0,0.1,0.1,0.1C82.2,167.4,82.3,167.3,82.3,167.4C82.3,167.5,82.4,167.5,82.3,167.4z"/>
									<path fill="#231F20" d="M81.7,164.3c0,0-0.1,0.1-0.2,0.2c0,0,0,0,0,0c0,0-0.3,0-0.3,0.1c0,0,0.1,0.2,0.2,0.1
										c0,0,0.1-0.2,0.1-0.2L81.7,164.3z"/>
									<path fill="#231F20" d="M82.7,166.7c0,0-0.1,0-0.2,0c0,0,0,0,0,0c0,0-0.2-0.2-0.2-0.1c0,0-0.1,0.2,0,0.2c0,0,0.2,0,0.2-0.1
										L82.7,166.7z"/>
									<path fill="#231F20" d="M81.3,165C81.3,165,81.2,165,81.3,165l-0.1-0.2l-0.2,0c0,0,0-0.1,0-0.1l0.1,0c0,0,0.1,0.1,0.1,0.1
										L81.3,165z"/>
									<g>
										<path fill="#231F20" d="M81.9,165.3c0,0,0,0.1,0,0.2c0,0.1,0.1,0.2,0.1,0.2c0,0,0-0.1,0-0.2
											C81.9,165.4,81.9,165.3,81.9,165.3z"/>
										<path fill="#231F20" d="M82,165.5C82,165.5,81.9,165.5,82,165.5C82,165.5,82,165.5,82,165.5
											C82.1,165.5,82.1,165.5,82,165.5C82.1,165.4,82.1,165.4,82,165.5z"/>
										<circle fill="#231F20" cx="82.1" cy="165.5" r="0.1"/>
										<path fill="#231F20" d="M81.8,165.8c0,0,0.1,0,0.1-0.1c0,0,0-0.2-0.2-0.2c0,0-0.1,0-0.1,0c0,0,0,0,0,0c0,0,0.1,0,0.1,0.1
											C81.8,165.6,81.8,165.7,81.8,165.8C81.8,165.7,81.6,165.8,81.8,165.8z"/>
									</g>
									
										<ellipse transform="matrix(-0.9796 0.2009 -0.2009 -0.9796 195.364 311.2629)" fill="#231F20" cx="81.9" cy="165.5" rx="0" ry="0.1"/>
									<g>
										
											<ellipse transform="matrix(0.3655 -0.9308 0.9308 0.3655 -104.1165 182.8566)" fill="#231F20" cx="82.1" cy="167.8" rx="0.2" ry="0"/>
										<path fill="#231F20" d="M82.2,167.8C82.1,167.8,82.1,167.8,82.2,167.8C82.1,167.8,82.1,167.8,82.2,167.8
											C82.2,167.9,82.2,167.9,82.2,167.8C82.2,167.8,82.2,167.8,82.2,167.8z"/>
										<circle fill="#231F20" cx="82.2" cy="167.9" r="0"/>
										<path fill="#231F20" d="M81.8,167.9c0,0,0.1,0.1,0.2,0c0,0,0.1-0.2,0-0.3c0,0-0.1-0.1-0.1,0c0,0,0,0,0,0c0,0,0.1,0,0,0.1
											C81.9,167.7,81.9,167.8,81.8,167.9C81.8,167.8,81.7,167.8,81.8,167.9z"/>
									</g>
									<path fill="#231F20" d="M82,167.8C81.9,167.8,81.9,167.8,82,167.8C82,167.8,82,167.8,82,167.8C82,167.8,82,167.7,82,167.8
										C82,167.7,82,167.7,82,167.8z"/>
									<path fill="#231F20" d="M81.9,166.5C81.9,166.5,81.9,166.5,81.9,166.5L81.9,166.5c0.1,0.1,0.1,0.1,0.2,0.1l0,0
										c0,0,0-0.1,0-0.1L81.9,166.5C82,166.4,81.9,166.4,81.9,166.5L81.9,166.5z"/>
									<path fill="#231F20" d="M82.1,166.7C82.1,166.8,82.1,166.8,82.1,166.7L82.1,166.7c-0.1,0.1-0.1,0.1-0.2,0.1l0,0
										c0,0,0-0.1,0-0.1L82.1,166.7C82,166.7,82.1,166.7,82.1,166.7L82.1,166.7z"/>
									<path fill="#231F20" d="M76.8,168.5l0-0.2c0,0,0-0.1,0.1-0.1l0.1,0"/>
								</g>
							</g>
						</g>
					</g>
				</g>
				<g>
					<path fill="#D3340E" d="M77.5,167.1c0,0.1-0.1,0.1-0.1,0.1l0,0c-0.1,0-0.1-0.1-0.1-0.1v-0.2c0-0.1,0.1-0.1,0.1-0.1l0,0
						c0.1,0,0.1,0.1,0.1,0.1V167.1z"/>
					<path fill="#D3340E" d="M77.5,166.5c0,0.1-0.1,0.1-0.1,0.1l0,0c-0.1,0-0.1-0.1-0.1-0.1l0-0.2c0-0.1,0.1-0.1,0.1-0.1l0,0
						c0.1,0,0.1,0.1,0.1,0.1L77.5,166.5z"/>
					<path fill="#D3340E" d="M77.7,165.9c0,0.1-0.1,0.1-0.2,0.1l0,0c-0.1,0-0.1-0.1-0.1-0.2l0.1-0.2c0-0.1,0.1-0.1,0.2-0.1l0,0
						c0.1,0,0.1,0.1,0.1,0.2L77.7,165.9z"/>
					<path fill="#D3340E" d="M78,165.5c0,0-0.1,0-0.2,0l0,0c0,0,0-0.1,0-0.2l0.1-0.1c0,0,0.1,0,0.2,0l0,0c0,0,0.1,0.1,0,0.2
						L78,165.5z"/>
					<path fill="#D3340E" d="M81.2,167c0,0.1,0,0.1,0.1,0.1l0,0c0.1,0,0.1-0.1,0.1-0.1v-0.2c0-0.1-0.1-0.1-0.1-0.1l0,0
						c-0.1,0-0.1,0.1-0.1,0.1V167z"/>
					<path fill="#D3340E" d="M81.2,166.4c0,0.1,0.1,0.1,0.1,0.1l0,0c0.1,0,0.1-0.1,0.1-0.1l0-0.2c0-0.1-0.1-0.1-0.1-0.1l0,0
						c-0.1,0-0.1,0.1-0.1,0.1L81.2,166.4z"/>
					<path fill="#D3340E" d="M81,165.9c0,0.1,0.1,0.1,0.2,0.1l0,0c0.1,0,0.1-0.1,0.1-0.2l-0.1-0.2c0-0.1-0.1-0.1-0.2-0.1l0,0
						c-0.1,0-0.1,0.1-0.1,0.2L81,165.9z"/>
					<path fill="#D3340E" d="M80.7,165.4c0,0,0.1,0,0.2,0l0,0c0,0,0.1-0.1,0-0.2l-0.1-0.1c0,0-0.1,0-0.2,0l0,0c0,0-0.1,0.1,0,0.2
						L80.7,165.4z"/>
					<path fill="#D3340E" d="M78.4,165.1c-0.1,0-0.1,0-0.2,0l0,0c0-0.1,0-0.1,0-0.2l0.2-0.1c0.1,0,0.1,0,0.2,0l0,0
						c0,0.1,0,0.1,0,0.2L78.4,165.1z"/>
					<path fill="#D3340E" d="M80.2,165.1c0.1,0,0.1,0,0.2,0l0,0c0-0.1,0-0.1,0-0.2l-0.2-0.1c-0.1,0-0.1,0-0.2,0l0,0
						c0,0.1,0,0.1,0,0.2L80.2,165.1z"/>
					<path fill="#D3340E" d="M78.9,164.9c-0.1,0-0.1,0-0.1-0.1l0,0c0-0.1,0-0.1,0.1-0.1l0.2,0c0.1,0,0.1,0,0.1,0.1l0,0
						c0,0.1,0,0.1-0.1,0.1L78.9,164.9z"/>
					<path fill="#D3340E" d="M79.7,164.9c0.1,0,0.1,0,0.1-0.1l0,0c0-0.1,0-0.1-0.1-0.1l-0.2,0c-0.1,0-0.1,0-0.1,0.1l0,0
						c0,0.1,0,0.1,0.1,0.1L79.7,164.9z"/>
					<path fill="#D3340E" d="M77.6,167.4c0,0,0,0.1,0,0.1l-0.1,0c0,0-0.1,0-0.1,0l0,0c0,0,0-0.1,0-0.1l0.1,0
						C77.5,167.3,77.6,167.3,77.6,167.4L77.6,167.4z"/>
					<path fill="#D3340E" d="M81.2,167.3c0,0,0,0.1,0,0.1l0.1,0c0,0,0.1,0,0.1,0l0,0c0,0,0-0.1,0-0.1l-0.1,0
						C81.2,167.2,81.2,167.2,81.2,167.3L81.2,167.3z"/>
					<path fill="#D3340E" d="M77.3,167.4c0,0.1,0,0.1-0.1,0.1l0,0c-0.1,0-0.1,0-0.1-0.1l0-0.1c0-0.1,0-0.1,0.1-0.1l0,0
						c0.1,0,0.1,0,0.1,0.1L77.3,167.4z"/>
					<path fill="#D3340E" d="M77.2,166.3C77.2,166.4,77.1,166.4,77.2,166.3L77.2,166.3c-0.1,0.1-0.2,0-0.2,0l0-0.2
						c0-0.1,0.1-0.1,0.1-0.1l0,0c0,0,0.1,0.1,0.1,0.1L77.2,166.3z"/>
					<path fill="#D3340E" d="M77.3,167.7C77.3,167.7,77.3,167.8,77.3,167.7L77.3,167.7c-0.1,0.1-0.2,0-0.2,0l0,0
						C77.2,167.6,77.2,167.6,77.3,167.7L77.3,167.7C77.3,167.6,77.3,167.6,77.3,167.7L77.3,167.7z"/>
					<path fill="#D3340E" d="M77.3,165.9C77.3,165.9,77.3,166,77.3,165.9L77.3,165.9c-0.2,0.1-0.2,0.1-0.2,0v0c0-0.1,0-0.1,0.1-0.1
						l0,0C77.3,165.8,77.3,165.8,77.3,165.9L77.3,165.9z"/>
					<path fill="#D3340E" d="M78.1,164.9c0,0-0.1,0-0.1,0l0,0c0,0,0-0.1,0-0.1l0,0c0,0,0.1,0,0.1,0l0,0
						C78.1,164.8,78.1,164.9,78.1,164.9L78.1,164.9z"/>
					<path fill="#D3340E" d="M77.4,165.6C77.4,165.7,77.4,165.7,77.4,165.6L77.4,165.6c-0.1,0.1-0.2,0.1-0.2,0v0
						C77.2,165.6,77.3,165.5,77.4,165.6L77.4,165.6C77.4,165.5,77.4,165.6,77.4,165.6L77.4,165.6z"/>
					<path fill="#D3340E" d="M77.9,165C77.9,165.1,77.8,165.1,77.9,165L77.9,165c-0.1,0.1-0.2,0.1-0.2,0v0
						C77.7,165,77.7,164.9,77.9,165L77.9,165C77.8,164.9,77.9,165,77.9,165L77.9,165z"/>
					<path fill="#D3340E" d="M77.5,165.5c0,0.1-0.1,0.1-0.1,0.1l0,0c-0.1,0-0.1-0.1-0.1-0.1l0,0c0-0.1,0.1-0.1,0.1-0.1l0,0
						C77.5,165.3,77.6,165.4,77.5,165.5L77.5,165.5z"/>
					<path fill="#D3340E" d="M78.3,164.8c0,0-0.1,0-0.1,0l0,0c0,0,0-0.1,0-0.1l0,0c0,0,0.1,0,0.1,0l0,0
						C78.3,164.7,78.3,164.7,78.3,164.8L78.3,164.8z"/>
					<path fill="#D3340E" d="M78.5,164.6c0,0.1,0,0.1,0,0.1l0,0c0,0-0.1,0-0.1-0.1l0,0c0,0,0-0.1,0-0.1l0,0
						C78.5,164.5,78.5,164.5,78.5,164.6L78.5,164.6z"/>
					<path fill="#D3340E" d="M77.7,165.2c0,0.1-0.1,0.1-0.1,0.1l0,0c-0.1,0-0.1-0.1-0.1-0.1l0,0c0-0.1,0.1-0.1,0.1-0.1l0,0
						C77.7,165.1,77.7,165.2,77.7,165.2L77.7,165.2z"/>
					<path fill="#D3340E" d="M78.9,164.5c0,0,0,0.1-0.1,0.1l-0.1,0c-0.1,0-0.1,0-0.1-0.1l0,0c0-0.1,0-0.1,0.1-0.1l0.1,0
						C78.8,164.4,78.9,164.4,78.9,164.5L78.9,164.5z"/>
					<path fill="#D3340E" d="M81.5,167.3c0,0.1,0,0.1,0.1,0.1l0,0c0.1,0,0.1,0,0.1-0.1l0-0.2c0-0.1,0-0.1-0.1-0.1l0,0
						c-0.1,0-0.1,0-0.1,0.1L81.5,167.3z"/>
					<path fill="#D3340E" d="M81.5,166.2c0,0.1,0.1,0.1,0.1,0.1l0,0c0,0,0.1-0.1,0.1-0.1l0-0.2c0-0.1-0.1-0.1-0.1-0.1l0,0
						c0,0-0.1,0.1-0.1,0.1L81.5,166.2z"/>
					<path fill="#D3340E" d="M81.4,167.5C81.4,167.5,81.5,167.6,81.4,167.5L81.4,167.5c0.1,0.1,0.1,0.1,0.2,0.1l0,0
						c0,0,0-0.1-0.1-0.1L81.4,167.5C81.5,167.5,81.5,167.5,81.4,167.5L81.4,167.5z"/>
					<path fill="#D3340E" d="M81.4,165.8C81.4,165.8,81.4,165.9,81.4,165.8L81.4,165.8c0.1,0.1,0.2,0.1,0.2,0v0c0-0.1,0-0.1-0.1-0.1
						l0,0C81.4,165.7,81.4,165.7,81.4,165.8L81.4,165.8z"/>
					<path fill="#D3340E" d="M80.5,164.9c0,0,0.1,0,0.1,0l0,0c0,0,0-0.1,0-0.1l0,0c0,0-0.1,0-0.1,0l0,0
						C80.5,164.8,80.5,164.8,80.5,164.9L80.5,164.9z"/>
					<path fill="#D3340E" d="M81.2,165.5C81.2,165.6,81.3,165.6,81.2,165.5L81.2,165.5c0.1,0.1,0.2,0,0.2,0v0
						C81.4,165.5,81.4,165.4,81.2,165.5L81.2,165.5C81.3,165.4,81.2,165.5,81.2,165.5L81.2,165.5z"/>
					<path fill="#D3340E" d="M80.7,165C80.7,165,80.8,165.1,80.7,165L80.7,165c0.1,0.1,0.2,0,0.2,0v0
						C80.9,164.9,80.9,164.9,80.7,165L80.7,165C80.8,164.9,80.7,164.9,80.7,165L80.7,165z"/>
					<path fill="#D3340E" d="M81.1,165.4c0,0.1,0.1,0.1,0.1,0.1l0,0c0.1,0,0.1-0.1,0.1-0.1l0,0c0-0.1-0.1-0.1-0.1-0.1l0,0
						C81.1,165.3,81.1,165.3,81.1,165.4L81.1,165.4z"/>
					<path fill="#D3340E" d="M80.3,164.7c0,0,0.1,0,0.1,0l0,0c0,0,0-0.1,0-0.1l0,0c0,0-0.1,0-0.1,0l0,0
						C80.3,164.6,80.3,164.7,80.3,164.7L80.3,164.7z"/>
					<path fill="#D3340E" d="M80.1,164.5c0,0.1,0,0.1,0,0.1l0,0c0,0,0.1,0,0.1-0.1l0,0c0-0.1,0-0.1,0-0.1l0,0
						C80.1,164.5,80.1,164.5,80.1,164.5L80.1,164.5z"/>
					<path fill="#D3340E" d="M80.9,165.2c0,0,0.1,0.1,0.1,0.1l0,0c0,0,0.1-0.1,0-0.1l0,0c0-0.1-0.1-0.1-0.1-0.1l0,0
						C80.9,165.1,80.9,165.1,80.9,165.2L80.9,165.2z"/>
					<path fill="#D3340E" d="M79.7,164.5c0,0,0,0.1,0.1,0.1l0.1,0c0.1,0,0.1,0,0.1-0.1l0,0c0-0.1,0-0.1-0.1-0.1l-0.1,0
						C79.8,164.4,79.7,164.4,79.7,164.5L79.7,164.5z"/>
				</g>
				<path fill="#231F20" d="M78,167.3c0.1-0.1-0.1-0.1-0.1-0.1c-0.2,0-0.2-0.5-0.2-0.5c0-0.6,0.4-0.4,0.4-0.4
					c0.2,0.1,0.1-0.1,0.1-0.1l-0.2-0.4c-0.1-0.1,0.7-0.4,0.7-0.4c0.2-0.1,0.2,0,0.2,0l0.1,0.2c0.1,0.1,0.1,0,0.1,0l0.2-0.6v-0.1
					l0.1,0v0.1l0.3,0.6c0,0,0.1,0.1,0.1,0l0.1-0.2c0,0,0-0.1,0.1-0.1l0.7,0.3c0,0,0.2,0.1,0,0.4l-0.1,0.2c0,0-0.1,0.1,0.1,0.1
					c0,0,0.3-0.1,0.4,0c0,0,0.1,0.5,0.1,0.6c0,0,0,0.2-0.2,0.3c0,0-0.1,0.1,0,0.1c0,0-0.4-0.2-1.4-0.2C79.5,167,78.9,166.9,78,167.3
					z"/>
				<path fill="#D3340E" d="M78.9,165.7l-0.1-0.2c0,0,0-0.2-0.4,0c0,0-0.3,0.1-0.3,0.1c0,0-0.2,0,0,0.2l0.2,0.3c0,0,0.1,0.2,0,0.2
					c0,0-0.2,0-0.2,0c0,0-0.2-0.1-0.3,0.1c0,0-0.1,0.7,0.3,0.6c0,0,0.1-0.1,0.3-0.1c0,0,0,0,0,0c0,0,0,0.1,0.2,0c0,0,0.1,0,0-0.2
					c0,0-0.1-0.6,0.4-0.9C78.9,166,79,166,78.9,165.7z"/>
				<path fill="#D3340E" d="M79.8,165.7l0.1-0.2c0,0,0-0.1,0.4,0c0,0,0.3,0.1,0.3,0.1c0,0,0.2,0,0,0.2l-0.1,0.3c0,0-0.1,0.2,0,0.2
					c0,0,0.2,0,0.2,0c0,0,0.2-0.1,0.3,0.1c0,0,0.2,0.7-0.2,0.6c0,0-0.2-0.1-0.3-0.1c0,0,0,0,0,0c0,0,0,0.1-0.2,0c0,0-0.1,0,0-0.2
					c0,0,0.1-0.6-0.4-0.9C79.8,166,79.7,165.9,79.8,165.7z"/>
				<g>
					
						<ellipse transform="matrix(0.9509 0.3096 -0.3096 0.9509 55.2522 -15.9554)" fill="#231F20" cx="77.9" cy="166.1" rx="0.1" ry="0.1"/>
					<path fill="#231F20" d="M80.7,166.1c0,0.1,0.1,0.1,0.2,0.1c0.1,0,0.1-0.1,0.1-0.1c0-0.1-0.1-0.1-0.2-0.1
						C80.7,166,80.7,166.1,80.7,166.1z"/>
					<circle fill="#231F20" cx="78.2" cy="165.8" r="0.1"/>
					<circle fill="#231F20" cx="78.7" cy="165.6" r="0.1"/>
					<path fill="#231F20" d="M78,166.6C78,166.6,78,166.6,78,166.6c-0.1,0.1-0.1,0-0.1,0C77.9,166.5,78,166.5,78,166.6
						C78,166.5,78,166.5,78,166.6z"/>
					<circle fill="#231F20" cx="78.3" cy="166.6" r="0"/>
					<path fill="#231F20" d="M78.4,166.8C78.4,166.8,78.4,166.8,78.4,166.8C78.3,166.8,78.3,166.8,78.4,166.8
						C78.3,166.7,78.3,166.7,78.4,166.8C78.4,166.7,78.4,166.7,78.4,166.8z"/>
					<circle fill="#231F20" cx="78.3" cy="166.9" r="0"/>
					<path fill="#231F20" d="M80.4,165.7C80.4,165.8,80.4,165.8,80.4,165.7c0.1,0,0.1,0,0.1,0C80.5,165.7,80.5,165.7,80.4,165.7
						C80.4,165.7,80.4,165.7,80.4,165.7z"/>
					<circle fill="#231F20" cx="80" cy="165.5" r="0.1"/>
					<path fill="#231F20" d="M80.7,166.4C80.7,166.5,80.7,166.5,80.7,166.4c0.1,0,0.1,0,0.1,0C80.8,166.4,80.8,166.4,80.7,166.4
						C80.7,166.4,80.7,166.4,80.7,166.4z"/>
					<path fill="#231F20" d="M80.4,166.5C80.4,166.5,80.5,166.6,80.4,166.5C80.5,166.6,80.5,166.5,80.4,166.5
						C80.5,166.5,80.5,166.5,80.4,166.5C80.4,166.5,80.4,166.5,80.4,166.5z"/>
					<path fill="#231F20" d="M80.4,166.7C80.4,166.7,80.4,166.7,80.4,166.7C80.4,166.7,80.5,166.7,80.4,166.7
						C80.5,166.6,80.4,166.6,80.4,166.7C80.4,166.6,80.4,166.6,80.4,166.7z"/>
					<path fill="#231F20" d="M80.4,166.8C80.4,166.8,80.4,166.8,80.4,166.8C80.5,166.8,80.5,166.8,80.4,166.8
						C80.5,166.8,80.5,166.7,80.4,166.8C80.4,166.8,80.4,166.8,80.4,166.8z"/>
				</g>
				<g>
					<path fill="#D3340E" d="M79.1,166.3c0,0,0,0.1,0,0.1c0,0,0.1,0,0,0c0,0,0,0,0.1,0c0,0,0.1,0,0.1,0c0,0,0,0.1,0,0.2
						c0,0,0,0,0,0.1c0,0,0,0.1-0.1,0c0,0-0.1,0-0.1,0.1c0,0,0,0.1-0.1,0C79,166.9,78.8,166.7,79.1,166.3
						C79,166.3,79.1,166.2,79.1,166.3z"/>
					<path fill="#D3340E" d="M79.7,166.3c0,0,0,0.1,0,0.1c0,0-0.1,0,0,0c0,0,0,0-0.1,0c0,0-0.1,0-0.1,0c0,0,0,0.1,0,0.2
						c0,0,0,0,0,0.1c0,0,0,0.1,0.1,0c0,0,0.1,0,0.1,0.1c0,0,0,0.1,0.1,0C79.8,166.9,80,166.7,79.7,166.3
						C79.8,166.3,79.7,166.2,79.7,166.3z"/>
					<path fill="#D3340E" d="M78.8,166.3c0,0,0.1,0,0,0.2c0,0-0.1,0.1,0,0.2c0,0,0,0.2-0.1,0.2c0,0-0.1,0-0.1-0.4
						C78.6,166.6,78.7,166.3,78.8,166.3z"/>
					<path fill="#D3340E" d="M79.9,166.3c0,0-0.1,0,0,0.2c0,0,0.1,0.1,0,0.3c0,0,0,0.2,0.1,0.2c0,0,0.1,0,0.1-0.4
						C80.1,166.5,80.1,166.2,79.9,166.3z"/>
					<path fill="#D3340E" d="M79.2,166.1C79.2,166.2,79.1,166.2,79.2,166.1C79.1,166.2,79.1,166.1,79.2,166.1
						C79.1,166.1,79.2,166,79.2,166.1C79.2,166.1,79.2,166.1,79.2,166.1z"/>
					<path fill="#D3340E" d="M79,166.2C79,166.2,78.9,166.2,79,166.2C78.9,166.2,78.9,166.2,79,166.2
						C78.9,166.1,78.9,166.1,79,166.2C79,166.1,79,166.2,79,166.2z"/>
					
						<ellipse transform="matrix(-0.8775 0.4795 -0.4795 -0.8775 229.0661 273.727)" fill="#D3340E" cx="79.6" cy="166.1" rx="0.1" ry="0.1"/>
					<path fill="#D3340E" d="M79.7,166.2C79.8,166.2,79.8,166.2,79.7,166.2C79.8,166.2,79.9,166.2,79.7,166.2
						C79.8,166.1,79.8,166.1,79.7,166.2C79.7,166.1,79.7,166.2,79.7,166.2z"/>
					<ellipse fill="#D3340E" cx="79.3" cy="165.4" rx="0.1" ry="0.1"/>
					<ellipse fill="#D3340E" cx="79.3" cy="165.8" rx="0.1" ry="0.1"/>
				</g>
				<g>
					<g>
						<circle fill="#D3340E" cx="79.5" cy="170.2" r="3.3"/>
						<path fill="none" stroke="#231F20" stroke-width="6.169000e-02" d="M80.5,167.5c0,0,1,0.8,1.3,0.9"/>
						<path fill="none" stroke="#231F20" stroke-width="6.169000e-02" d="M77.1,168.5c0,0,1.2-0.9,1.3-1"/>
						<line fill="none" stroke="#231F20" stroke-width="6.169000e-02" x1="77.3" y1="169.5" x2="78.4" y2="169.9"/>
						<path fill="none" stroke="#231F20" stroke-width="6.169000e-02" d="M80.5,169.9c0,0,1.1-0.4,1.2-0.4"/>
						<path fill="none" stroke="#231F20" stroke-width="6.169000e-02" d="M80.2,171.1c0,0,0.6,0.9,0.7,1"/>
						<path fill="none" stroke="#231F20" stroke-width="6.169000e-02" d="M82.4,170.3c0,0-0.3,1.5-0.5,1.6"/>
						<path fill="none" stroke="#231F20" stroke-width="6.169000e-02" d="M78.1,172.1c0,0,0.6-0.9,0.7-1"/>
						<path fill="none" stroke="#231F20" stroke-width="6.169000e-02" d="M78.7,173c0,0,0.8,0.1,1.6,0"/>
						<path fill="none" stroke="#231F20" stroke-width="6.169000e-02" d="M77.1,171.8c0,0-0.4-0.7-0.5-1.4"/>
						<path fill="none" stroke="#231F20" stroke-width="6.169000e-02" d="M79.5,169.1c0,0,0-0.8-0.1-1.3"/>
					</g>
					<g>
						<path fill="#231F20" d="M78.5,167.1c0,0,0.8-0.3,1.8-0.1c0,0,0.2,0.4,0.3,0.5c0,0-1,0.2-1.1,0.4c0,0-0.1-0.3-1.2-0.4
							C78.3,167.6,78.6,167.2,78.5,167.1z"/>
						<path fill="#231F20" d="M76.7,168.5c0,0,0.3,0,0.5-0.1c0,0-0.1,1.1,0.2,1.1c0,0-0.2-0.1-0.7,1c0,0-0.2-0.4-0.4-0.3
							C76.2,170.2,76.2,169.2,76.7,168.5z"/>
						<path fill="#231F20" d="M76.9,172.2c0,0,0.2,0,0.1-0.5c0,0,0.2,0.3,1.2,0.3c0,0,0.3,0.9,0.7,1c0,0-0.6,0.1-0.4,0.3
							C78.5,173.3,77.6,173.1,76.9,172.2z"/>
						<path fill="#231F20" d="M80.8,172c0,0-0.4,1-0.7,1c0,0,0.5,0.1,0.4,0.3c0,0,0.9-0.3,1.6-1.2c0,0-0.2,0.2-0.2-0.4
							C82,171.8,81.2,172.1,80.8,172"/>
						<path fill="#231F20" d="M79.5,169c0,0-0.9,0.4-1.1,0.8c0,0,0.2,1,0.5,1.3c0,0,0.7,0.1,1.4,0c0,0,0.3-0.6,0.3-1.3
							C80.6,169.8,80.3,169.5,79.5,169z"/>
						<path fill="#231F20" d="M82.1,168.3c0,0-0.1,0.2-0.5-0.1c0,0,0.2,1.1,0,1.2c0,0,0.4,0.2,0.8,1c0,0,0.4-0.5,0.4-0.3
							C82.7,170.1,82.8,169.4,82.1,168.3z"/>
					</g>
					<path fill="#231F20" d="M76.6,163.4c0,0,0.3,0.4-0.3,0.9c0,0-0.9,0.8-0.9,2.4c0,0,0,1.3,0.5,1.9c0,0,0.4,0.5,0.1,0.9
						c0,0-0.1,0.2-0.5,0.2c0,0-0.3,0-0.5-0.5c0,0-0.9-1.6-0.5-3.5c0,0,0.4-1.7,1.2-2.3C75.8,163.4,76.3,163,76.6,163.4z"/>
					<path fill="#231F20" d="M82,163.3c0,0-0.3,0.4,0.3,0.9c0,0,0.9,0.7,1,2.3c0,0,0,1.3-0.3,1.9c0,0-0.3,0.5-0.1,0.9
						c0,0,0.1,0.2,0.5,0.2c0,0,0.3,0,0.5-0.5c0,0,0.8-1.7,0.3-3.5c0,0-0.5-1.6-1.4-2.2C82.8,163.2,82.3,162.9,82,163.3z"/>
				</g>
				<path fill="#231F20" d="M77.8,161.4c-0.1-0.1-0.8,0.3-0.8,0.3c-0.4,0.2-0.2,0.3-0.2,0.3l0.2,0.3c0.2,0.2-0.2,0.4-0.2,0.4
					c-1.5,0.9-2,2.6-2,2.6c-0.5,1.5,0,2.9,0,2.9c0.4,1.4,1.2,2,1.2,2c0.2,0.1,0.1,0.3,0.1,0.3l-0.1,0.2c-0.1,0.1-0.1,0.2-0.1,0.2
					l0.6,0.5c0,0.1,0.1,0.2,0.1,0.2l-0.6,0.1c-0.3,0-0.1,0.2-0.1,0.2c0.3,0.7,0.8,1.2,0.8,1.2c-1.3-0.3-2.8-2-2.8-2
					c-0.3-0.3-0.1-0.5-0.1-0.5l0.2-0.2c0.2-0.1,0-0.3,0-0.3c-1.2-1.9-0.8-4.1-0.8-4.1c0.3-2.3,1.9-3.6,1.9-3.6c0.3-0.2,0-0.4,0-0.4
					l-0.2-0.2c0,0-0.2-0.2,0.1-0.4c0,0,0.6-0.5,1.1-0.7c0.5-0.3,0.7-0.4,0.8-0.4c0.2-0.1,0.5-0.2,0.5-0.2l-0.1,0.3l0.2,0.7
					L77.8,161.4"/>
				<path fill="#231F20" d="M80.8,161.2c0.1-0.1,0.8,0.2,0.8,0.2c0.4,0.2,0.2,0.3,0.2,0.3l-0.4,0.4c-0.2,0.2,0.1,0.3,0.3,0.4
					c0.4,0.2,0.8,0.5,1.1,0.7c0.8,0.8,1.1,1.6,1.1,1.6c0.7,1.5,0.2,2.9,0.2,2.9c-0.3,1.5-1.1,2.1-1.1,2.1c-0.3,0.3-0.1,0.4-0.1,0.4
					c0.4,0.2,0.3,0.3,0.3,0.3l-0.5,0.5c-0.1,0.1-0.2,0.2-0.2,0.1l0.5,0c0.3,0,0.5,0,0.5,0c-0.2,0.7-0.9,1.5-0.9,1.5
					c1.2-0.4,2.3-1.7,2.3-1.7c0.7-0.8,0.4-1,0.4-1l-0.2-0.2c-0.2-0.1-0.1-0.3-0.1-0.3c1.1-2,0.6-4,0.6-4c-0.3-2.3-2.3-3.7-2.3-3.7
					c-0.2-0.1,0-0.3,0-0.3l0.2-0.2c0,0,0.2-0.2,0-0.4l-1.3-0.8v0.1l0,0l-0.1,0l-0.1-0.1l-0.2-0.2l-0.2-0.1l-0.2,0l-0.1,0.2l-0.2,0.7
					L80.8,161.2"/>
				<path fill="none" stroke="#231F20" stroke-width="6.169000e-02" d="M78.5,163.6c0,0,0.3,0.3,0.3,0.4"/>
				<path fill="none" stroke="#231F20" stroke-width="6.169000e-02" d="M78.4,163.7c0,0,0.2,0.2,0.2,0.3"/>
				<g>
					<path fill="#D3340E" d="M76.3,172.8c0,0-1.5-0.7-2.5-2.1c0,0,0-0.2,0.2-0.2c0,0,0.1,0,0.5,0.5c0,0,0.4,0.5,0.6,0.2l0.5-0.4
						l0.6,0.5l-0.6,0.1c0,0-0.2,0-0.1,0.2C75.5,171.6,75.9,172.6,76.3,172.8z"/>
					<path fill="#D3340E" d="M75.2,171l0.5-0.6c0,0,0.1-0.1,0-0.2c0,0-0.7-0.6-1.1-1.7c0,0-0.3-0.8-0.3-1.7c0,0,0-0.8,0.4-1.8
						c0,0,0.3-0.9,0.9-1.5c0,0,0.6-0.6,1.1-0.9c0,0,0.1-0.1,0-0.2c0,0-0.1-0.1-0.3,0.1l-0.4,0.3c0,0-0.2,0.1-0.4-0.1l-0.3-0.4
						c0,0,0-0.1-0.2,0c0,0-0.9,0.8-1.2,1.4c0,0-0.4,0.7-0.7,1.7c0,0-0.2,1-0.1,2.1c0,0,0.1,1.4,1,2.5c0,0,0.6,0.8,0.8,0.9
						C75.1,171,75.1,171.1,75.2,171z"/>
					<path fill="#D3340E" d="M75.8,162.2c0,0,0.6-0.6,1.7-0.9c0,0,0.2-0.1,0.1-0.2c0,0-0.2-0.5-0.2-0.6c0,0-0.1-0.3-0.2-0.4
						c0,0-0.1-0.1-0.3,0.1c0,0-0.6,0.2-1,0.5c0,0-0.8,0.5-0.9,0.6c0,0-0.1,0.1,0.1,0.3l0.5,0.6C75.5,162.2,75.6,162.4,75.8,162.2z"
						/>
					<path fill="#D3340E" d="M82.5,160.5c0.6,0.3,0.6,0.3,0.8,0.5c0,0,0.4,0.2,0,0.5l-0.2,0.2l-0.4,0.6l-0.4-0.2c0,0,0-0.1,0-0.1
						c0-0.1-0.1-0.1-0.1-0.1c-0.1-0.1,0.1-0.2,0.1-0.4l0-0.8L82.5,160.5L82.5,160.5L82.5,160.5z"/>
					<path fill="#D3340E" d="M81.6,162.2c0,0,0-0.2,0.2-0.1c0,0,0.4,0.2,0.5,0.3c0,0,0.2,0.2,0.4,0c0,0,0.3-0.3,0.4-0.5
						c0,0,0-0.1,0.1,0c0,0,1.3,1.1,1.8,2.2c0,0,0.6,1.2,0.6,2.5c0,0,0.1,1-0.4,2.1c0,0-0.5,1.3-1.1,1.8c0,0-0.1,0.2-0.3,0l-0.6-0.5
						c0,0-0.2-0.1,0-0.2c0,0,0.5-0.7,0.6-0.7c0,0,0.5-1,0.5-1.8c0,0,0.1-0.7,0-1.3c0,0-0.1-0.8-0.6-1.9c0,0-0.4-1-1.3-1.5
						c0,0-0.5-0.4-0.7-0.5C81.7,162.3,81.5,162.3,81.6,162.2z"/>
					<path fill="#D3340E" d="M82.9,172.6c0,0,1.4-0.8,2.3-2.3c0,0,0-0.2-0.2-0.1c0,0-0.1,0-0.5,0.6c0,0-0.3,0.5-0.6,0.2l-0.5-0.4
						l-0.5,0.6l0.6,0c0,0,0.2,0,0.1,0.2C83.6,171.4,83.3,172.4,82.9,172.6z"/>
				</g>
				<g>
					<path fill="#231F20" d="M74.9,170.5L74.9,170.5l0.2,0.1l0.1-0.1l-0.1-0.1l0.1-0.1l0.1,0.1l0.2-0.2l0.1,0.1l-0.4,0.4L74.9,170.5
						z"/>
					<path fill="#231F20" d="M75.1,169.8L75.1,169.8l0.3,0.2l-0.5,0.4l-0.2-0.3l0.1-0.1l0.1,0.2l0.1-0.1l-0.1-0.2l0.1-0.1l0.1,0.2
						l0.1-0.1L75.1,169.8z"/>
					<path fill="#231F20" d="M74.6,169.9c0-0.1-0.1-0.1,0-0.1c0,0,0.1-0.1,0.2-0.2c0.1,0,0.1-0.1,0.2-0.1c0,0,0.1,0,0.1,0.1l0,0
						L74.6,169.9z M75.1,169.7l-0.1-0.1c0-0.1-0.1-0.1-0.1-0.1c0,0-0.1,0-0.1,0c0,0-0.1,0-0.2,0.1c-0.1,0.1-0.2,0.1-0.2,0.2
						c0,0,0,0.1,0,0.2l0.1,0.2L75.1,169.7z"/>
					<path fill="#231F20" d="M74.6,169.1L74.6,169.1l0.2,0.3l-0.6,0.3l-0.2-0.3l0.1,0l0.1,0.2l0.1-0.1l-0.1-0.2l0.1,0l0.1,0.2
						l0.2-0.1L74.6,169.1z"/>
					<path fill="#231F20" d="M74.1,169c0-0.1,0-0.1,0-0.1c0,0,0,0,0-0.1c0,0,0.1,0,0.1,0c0,0,0,0,0,0.1c0,0,0,0,0,0c0,0,0,0,0,0
						L74.1,169z M74.2,168.7C74.2,168.7,74.1,168.7,74.2,168.7c-0.1,0-0.2,0.1-0.2,0.1s0,0.1,0,0.1l0.1,0.2l0.6-0.2l0-0.1l-0.3,0.1
						c0-0.1,0-0.1,0-0.1c0,0,0,0,0.1-0.1c0,0,0.1,0,0.1,0c0,0,0,0,0,0l-0.1-0.1c0,0,0,0-0.1,0.1c0,0-0.1,0-0.1,0
						C74.3,168.7,74.3,168.7,74.2,168.7C74.2,168.7,74.2,168.7,74.2,168.7C74.2,168.8,74.2,168.7,74.2,168.7z"/>
					<path fill="#231F20" d="M73.9,168.5l0.2-0.1l0,0.1L73.9,168.5z M73.9,168.6l0.6,0l0-0.1l-0.2,0l0-0.1l0.1-0.1l0-0.1l-0.6,0.3
						L73.9,168.6z"/>
					<path fill="#231F20" d="M74.1,167.9l0-0.1c0.1,0,0.1,0,0.2,0c0,0,0.1,0.1,0.1,0.1c0,0.1,0,0.1,0,0.2c0,0-0.1,0.1-0.3,0.1
						c-0.1,0-0.2,0-0.2,0c-0.1,0-0.1-0.1-0.1-0.1c0-0.1,0-0.1,0-0.1c0,0,0.1-0.1,0.2-0.1l0,0.1c0,0,0,0-0.1,0c0,0,0,0,0,0.1
						c0,0,0,0.1,0.1,0c0,0,0.1,0,0.1,0c0,0,0,0,0,0c0.1,0,0.2,0,0.2-0.1c0,0,0,0,0-0.1c0,0,0,0,0-0.1
						C74.2,167.8,74.1,167.8,74.1,167.9z"/>
					<path fill="#231F20" d="M73.6,167.6l0.6-0.1l0,0.1l-0.6,0.1L73.6,167.6z"/>
					<path fill="#231F20" d="M73.7,167.3C73.7,167.3,73.7,167.3,73.7,167.3c-0.1-0.1-0.1-0.1,0-0.2c0,0,0.1,0,0.2,0
						c0.1,0,0.1,0,0.2,0c0,0,0,0,0.1,0.1c0,0.1,0,0.1-0.1,0.1c0,0,0,0-0.1,0C73.8,167.3,73.8,167.3,73.7,167.3z M73.6,167.1
						c0,0-0.1,0.1,0,0.2c0,0.1,0,0.1,0.1,0.2c0.1,0,0.1,0,0.3,0c0.1,0,0.2,0,0.2-0.1c0.1,0,0.1-0.1,0.1-0.2c0-0.1,0-0.1-0.1-0.1
						c0,0-0.1,0-0.1,0c0,0-0.1,0-0.2,0C73.7,167,73.7,167.1,73.6,167.1z"/>
					<path fill="#231F20" d="M73.5,166.5l0.6,0l0,0.1l-0.4,0.2l0.4,0l0,0.1l-0.6,0l0-0.1l0.4-0.2l-0.4,0L73.5,166.5z"/>
					<path fill="#231F20" d="M73.6,165.6l0.6,0.1l0,0.1l-0.5-0.1l0.5,0.2l0,0.1l-0.6,0l0.5,0.1l0,0.1l-0.6-0.1l0-0.2l0.4,0l-0.4-0.2
						L73.6,165.6z"/>
					<path fill="#231F20" d="M74.3,165.2l0.1,0l-0.1,0.3l-0.6-0.2l0.1-0.3l0.1,0l-0.1,0.2l0.1,0l0.1-0.2l0.1,0l-0.1,0.2l0.2,0
						L74.3,165.2z"/>
					<path fill="#231F20" d="M74.2,164.9l0.4,0l0,0.1l-0.2,0l0.2,0.2l0,0.1l-0.2-0.3l-0.3,0l0-0.1l0.2,0l-0.2-0.2l0-0.1L74.2,164.9z
						"/>
					<path fill="#231F20" d="M74,164.4l0.6,0.3l-0.1,0.1l-0.6-0.3L74,164.4z"/>
					<path fill="#231F20" d="M74.6,164.2l0.1-0.1c0.1,0,0.1,0.1,0.1,0.1c0,0,0,0.1,0,0.2c0,0.1-0.1,0.1-0.1,0.1
						c-0.1,0-0.2,0-0.3-0.1c-0.1,0-0.2-0.1-0.2-0.1c0,0,0-0.1,0-0.2c0-0.1,0.1-0.1,0.1-0.1c0,0,0.1,0,0.2,0l-0.1,0.1c0,0,0,0-0.1,0
						c0,0-0.1,0-0.1,0c0,0,0,0.1,0.1,0.1c0,0,0,0,0.1,0c0,0,0,0,0,0c0.1,0,0.2,0.1,0.2,0.1c0,0,0.1,0,0.1,0
						C74.7,164.4,74.7,164.3,74.6,164.2C74.6,164.3,74.6,164.3,74.6,164.2z"/>
					<path fill="#231F20" d="M74.5,163.7l0.2,0.1l-0.1,0.1L74.5,163.7z M74.4,163.8l0.4,0.5l0.1-0.1l-0.1-0.1l0.1-0.1l0.2,0.1
						l0.1-0.1l-0.6-0.2L74.4,163.8z"/>
					<path fill="#231F20" d="M74.9,163.1l0.5,0.4l-0.1,0.1l-0.5-0.1l0.3,0.3l-0.1,0.1l-0.5-0.4l0.1-0.1l0.5,0.1L74.9,163.1
						L74.9,163.1z"/>
					<path fill="#231F20" d="M75.2,162.9l0.2,0.1l-0.1,0.1L75.2,162.9z M75,162.9l0.4,0.5l0.1-0.1l-0.1-0.1l0.1-0.1l0.1,0.1l0.1-0.1
						l-0.6-0.3L75,162.9z"/>
					<path fill="#231F20" d="M83.1,162.9C83.1,162.9,83,162.9,83.1,162.9l0.2-0.3c0,0,0,0.1,0,0.1c0,0,0,0,0,0.1L83.1,162.9
						C83.1,162.9,83.1,162.9,83.1,162.9z M83.5,162.7c0,0,0-0.1-0.1-0.2l-0.1-0.1l-0.4,0.4l0.1,0.1c0.1,0.1,0.1,0.1,0.2,0.1
						c0,0,0.1-0.1,0.2-0.1C83.4,162.8,83.5,162.7,83.5,162.7z"/>
					<path fill="#231F20" d="M83.4,163.4l-0.2-0.3l0.5-0.4l0.2,0.3l-0.1,0.1l-0.1-0.1l-0.1,0.1l0.1,0.1l-0.1,0.1l-0.1-0.1l-0.1,0.1
						L83.4,163.4L83.4,163.4z"/>
					<path fill="#231F20" d="M84.2,163.7l-0.1-0.2l-0.1,0.1L84.2,163.7l-0.2,0.1l-0.1-0.1l-0.2,0.1l-0.1-0.1l0.5-0.4l0.2,0.3
						L84.2,163.7z"/>
					<path fill="#231F20" d="M84.2,164.2c-0.1,0.1-0.2,0.1-0.2,0.1c-0.1,0-0.1,0-0.1-0.1c0-0.1,0-0.1,0-0.2c0,0,0.1-0.1,0.2-0.2
						l0.3-0.2l0.1,0.1l-0.3,0.2c0,0-0.1,0-0.1,0.1c0,0,0,0,0,0c0,0,0,0,0,0c0,0,0.1,0,0.1,0l0.3-0.2l0.1,0.1L84.2,164.2z"/>
					<path fill="#231F20" d="M84.6,164.5l-0.1-0.1l-0.5,0.2l-0.1-0.1l0.4-0.2l-0.1-0.1l0.1-0.1l0.2,0.3L84.6,164.5z"/>
					<path fill="#231F20" d="M84.6,164.8C84.6,164.8,84.6,164.8,84.6,164.8l0.1-0.1c0,0,0,0.1,0,0.1
						C84.8,164.8,84.7,164.8,84.6,164.8C84.7,164.9,84.7,164.8,84.6,164.8z M84.6,165C84.6,165,84.6,165,84.6,165
						C84.7,165,84.7,165,84.6,165c0.1-0.1,0.2-0.1,0.2-0.1c0.1,0,0.1-0.1,0.1-0.1c0,0,0-0.1,0-0.2l-0.1-0.1l-0.6,0.2l0.1,0.2
						c0,0.1,0.1,0.1,0.1,0.1C84.4,165.1,84.5,165.1,84.6,165C84.6,165.1,84.6,165.1,84.6,165z M84.4,165
						C84.4,164.9,84.4,164.9,84.4,165l0.1-0.1c0,0,0,0.1,0,0.1C84.5,164.9,84.5,164.9,84.4,165C84.5,165,84.4,165,84.4,165z"/>
					<path fill="#231F20" d="M84.6,165.4C84.6,165.4,84.5,165.4,84.6,165.4c-0.1-0.1-0.1-0.1,0-0.1c0,0,0,0,0.1,0l0.1,0
						c0.1,0,0.1,0,0.1,0c0,0,0,0,0.1,0c0,0,0,0,0,0.1c0,0,0,0-0.1,0c0,0,0,0,0,0c0,0,0,0,0,0C84.7,165.4,84.6,165.4,84.6,165.4z
						 M85,165.4c0,0,0-0.1,0-0.2c0-0.1,0-0.1-0.1-0.1c0,0-0.1,0-0.1,0c0,0-0.1,0-0.2,0c-0.1,0-0.2,0.1-0.2,0.1c0,0,0,0.1,0,0.2
						c0,0.1,0,0.1,0.1,0.1c0,0,0.1,0,0.1,0c0,0,0.1,0,0.2,0C84.9,165.5,85,165.4,85,165.4z"/>
					<path fill="#231F20" d="M84.6,166l-0.1-0.3l0.6-0.1l0,0.1l-0.5,0.1l0,0.2L84.6,166z"/>
					<path fill="#231F20" d="M84.9,166.4l0.3,0L84.9,166.4L84.9,166.4z M85.3,166.5l0-0.2l-0.6-0.1l0,0.1l0.1,0l0,0.1l-0.1,0l0,0.1
						L85.3,166.5z"/>
					<path fill="#231F20" d="M84.8,167.1c-0.1,0-0.1,0-0.1,0c0,0-0.1-0.1-0.1-0.2c0-0.1,0-0.1,0-0.1c0,0,0.1,0,0.2,0l0,0.1
						c0,0-0.1,0-0.1,0c0,0,0,0,0,0c0,0,0,0,0,0c0,0,0,0,0,0c0,0,0.1,0,0.1-0.1c0-0.1,0.1-0.1,0.1-0.1c0,0,0,0,0,0c0,0,0.1,0,0.1,0
						c0.1,0,0.1,0,0.1,0c0,0,0.1,0.1,0.1,0.1c0,0.1,0,0.1,0,0.1c0,0-0.1,0-0.2,0l0-0.1c0,0,0,0,0.1,0c0,0,0,0,0,0c0,0,0,0,0,0
						c0,0,0,0,0,0c0,0,0,0-0.1,0c0,0,0,0-0.1,0.1c0,0,0,0.1-0.1,0.1C84.9,167.1,84.9,167.1,84.8,167.1z"/>
					<path fill="#231F20" d="M84.7,167.4C84.7,167.4,84.7,167.4,84.7,167.4c0-0.1,0-0.1,0-0.1c0,0,0,0,0.1,0l0.1,0
						c0.1,0,0.1,0,0.1,0c0,0,0,0,0,0.1c0,0,0,0-0.1,0c0,0-0.1,0-0.1,0c0,0,0,0,0,0c0,0,0,0,0,0C84.8,167.4,84.7,167.4,84.7,167.4z
						 M85.1,167.6c0,0,0.1-0.1,0.1-0.1c0-0.1,0-0.1,0-0.1c0,0-0.1-0.1-0.1-0.1c0,0-0.1,0-0.2,0c-0.1,0-0.2,0-0.3,0
						c-0.1,0-0.1,0.1-0.1,0.2c0,0.1,0,0.1,0,0.1c0,0,0.1,0.1,0.1,0.1c0,0,0.1,0,0.2,0C85,167.6,85.1,167.6,85.1,167.6z"/>
					<path fill="#231F20" d="M84.7,168.1c-0.1,0-0.1,0-0.2-0.1c0,0,0-0.1,0-0.2c0-0.1,0-0.1,0.1-0.1c0.1,0,0.1,0,0.3,0
						c0.1,0,0.2,0.1,0.2,0.1c0,0,0,0.1,0,0.2c0,0.1,0,0.1-0.1,0.1c0,0-0.1,0-0.2,0l0-0.1c0.1,0,0.1,0,0.1,0c0,0,0,0-0.1-0.1
						c0,0-0.1,0-0.1,0c0,0,0,0,0,0l0,0c-0.1,0-0.1,0-0.1,0c0,0-0.1,0-0.1,0c0,0,0,0,0,0c0,0,0.1,0,0.1,0L84.7,168.1z"/>
					<path fill="#231F20" d="M84.4,168.2l0-0.1l0.1,0l0,0.1L84.4,168.2z"/>
					<path fill="#231F20" d="M84.3,168.4C84.3,168.4,84.3,168.4,84.3,168.4c-0.1-0.1-0.1-0.1-0.1-0.2l0,0c0,0,0,0,0,0
						C84.3,168.3,84.3,168.3,84.3,168.4l0-0.1l0.1,0l0,0.1L84.3,168.4z"/>
					<path fill="#231F20" d="M84.3,168.9l0.2,0.2L84.3,168.9L84.3,168.9z M84.6,169.2l0.1-0.2l-0.5-0.4l-0.1,0.1l0.1,0.1l-0.1,0.1
						l-0.1,0l-0.1,0.1L84.6,169.2z"/>
					<path fill="#231F20" d="M83.9,169.2l0.1-0.1l0.1,0.1l-0.1,0.1L83.9,169.2z"/>
					<path fill="#231F20" d="M83.9,169.7c-0.1,0-0.1-0.1-0.1-0.1c0-0.1,0-0.1,0-0.2c0-0.1,0.1-0.1,0.1-0.1c0.1,0,0.1,0,0.3,0.1
						c0.1,0.1,0.2,0.1,0.2,0.2c0,0,0,0.1,0,0.2c0,0.1-0.1,0.1-0.1,0.1c-0.1,0-0.1,0-0.2,0l0.1-0.1c0.1,0,0.1,0,0.1,0c0,0,0,0,0-0.1
						c0,0,0,0-0.1-0.1c0,0,0,0,0,0l0,0c0,0-0.1-0.1-0.1-0.1c0,0-0.1,0-0.1,0c0,0,0,0,0,0c0,0,0,0,0.1,0.1L83.9,169.7z"/>
					<path fill="#231F20" d="M83.5,169.8l0.1-0.1l0.1,0.1l-0.1,0.1L83.5,169.8z"/>
				</g>
			</g>
			<path fill="#231F20" d="M77.3,160.6c0,0,0.1,0.2,0.1,0.3l0.1,0.3l0,0.1c0,0,0.3,0.4,0.5,0.4c0,0,0.1,0,0.2,0c0,0,0,0,0,0v0v0
				c0,0,0,0.4,0.1,0.5c0,0,0,0.1,0,0.1c0,0,0,0,0,0.1c0,0-0.7,0.4-0.6,0.6c0,0.1,0,0.2,0,0.2l0,0c0,0,0,0,0,0c0,0,0,0,0,0
				c0,0,0,0-0.1,0c0,0,0,0,0,0l0,0c-0.2,0.1-0.5,0.3-0.5,0.3v0c0,0,0,0,0,0c0,0,0.1,0,0.5-0.3c0,0,0.1,0,0.1,0.1l0.1,0.2
				c0,0,0,0.1,0,0.1c0,0,0,0,0,0h0l-0.3,0.2l0,0c0,0,0,0,0,0.1c0,0,0,0,0,0l0,0l0.4-0.2c0,0,0,0,0.1,0c0,0,0,0,0,0c0,0,0-0.1,0-0.1
				l-0.1-0.2c0,0,0-0.1,0-0.1c0,0,0,0,0,0c0,0,0,0,0.1,0c0,0,0.1,0,0.1,0c0,0,0,0.1,0.2,0c0.1,0,0.2,0,0.2,0c0,0,0,0,0,0v0l0,0
				c0,0,0,0,0,0.1v0l-0.2,0.1l0,0.1v0c0,0,0,0,0,0c0,0,0,0,0.1,0v0c0,0,0.2-0.2,0.2-0.2c0,0,0,0,0.1,0v0l0.3,0.5h0.1v-0.1l-0.1-0.2
				c0,0,0,0,0,0c0,0,0,0,0.1,0h0.2c0,0,0,0,0,0c0,0,0,0,0,0.1l-0.1,0.3h0.3l-0.1-0.3c0,0,0-0.1,0-0.1c0,0,0,0,0,0c0,0,0.2,0,0.2,0
				c0,0,0,0,0,0c0,0,0,0,0,0c0,0,0,0,0,0c0,0-0.1,0.1-0.1,0.2c0,0,0,0.1,0,0.1l0,0h0.1l0-0.1v0c0,0,0,0,0,0c0,0,0-0.1,0.2-0.3
				c0,0,0.1-0.1,0.1-0.1c0,0,0,0,0,0v0c0,0,0,0,0,0c0,0,0,0,0.1,0c0,0,0,0,0,0l0,0c0,0,0,0,0,0l0,0v0c-0.1,0.1-0.3,0.3-0.3,0.4
				c0,0,0,0,0,0l0,0h0.1l0,0c0.1-0.2,0.2-0.4,0.2-0.4v0l0,0c0,0,0,0,0,0v0l0.1,0h0c0,0,0,0,0.1,0c0,0,0,0,0,0c0,0,0-0.1,0-0.1
				c0,0,0,0,0,0c0,0,0,0,0,0c0,0,0,0,0-0.2c0,0,0,0,0-0.1c0,0,0.1,0,0.2,0l0.7,0.3c0,0,0.1,0,0.1,0c0,0,0,0,0,0l0,0c0,0,0,0,0,0v0
				c0,0-0.1-0.1-0.3-0.2c0,0-0.5-0.3-0.7-0.3c0,0,0,0,0,0c0,0,0,0,0-0.1c0,0,0-0.3-0.2-0.3h0l0,0c0,0-0.2,0-0.3-0.1v0h0
				c0,0-0.1-0.1-0.1-0.1c0,0,0,0,0,0c0,0,0.1-0.1,0.1-0.1c0,0,0,0,0,0c0,0,0.1,0.2,0.3,0.2c0.1,0,0.2,0,0.3,0v0h0c0,0,0.2,0.1,0.3,0
				c0.1,0,0.2-0.1,0.2-0.1c0,0,0.2,0,0.3-0.1c0,0,0.1-0.1,0.1,0l0,0l0.1-0.1l0,0c0,0,0-0.1,0.1-0.1c0,0,0.1,0,0.1,0
				c0,0,0.4,0.2,0.5,0.3c0,0,0.2,0.2,0.4,0l0,0l0,0c0,0,0.3-0.3,0.3-0.5c0,0,0-0.1,0.1-0.1c0,0,0,0,0,0l0,0l0-0.1l-0.1-0.1l-0.3,0.4
				c0,0-0.1,0.1-0.1,0c-0.1,0-0.1-0.1-0.1-0.1c0,0-0.1-0.1-0.1-0.1c-0.1,0-0.2-0.1-0.2-0.2c-0.1-0.1,0.1-0.2,0.1-0.3
				c0-0.1,0-0.3,0-0.4c0-0.1-0.1-0.7,0.1-0.6l0,0l0.1-0.1l0,0c0,0-0.2-0.1-0.2-0.2c0,0,0-0.6-0.3-0.9c0,0-0.5-0.7-1-1
				c0,0-0.8-0.5-1.2-0.6c0,0-0.9-0.3-1.6-0.2c0,0-0.2,0-0.3,0.1c0,0-0.1,0.1,0,0.2c0,0,0,0.1,0.2,0.3c0.1,0.1,0.2,0.1,0.3,0.2
				c0.1,0.1,0.1,0.1,0.2,0.2c0.1,0.1,0.1,0.2,0.1,0.3c0,0.1,0,0.2,0,0.3c0,0.1,0,0.1-0.1,0.1c0,0-0.1-0.1-0.1-0.1
				c0,0-0.1-0.1-0.1-0.1c-0.1-0.1-0.1-0.1-0.1-0.2c0-0.1-0.1-0.1-0.2-0.2c-0.1-0.1-0.2-0.2-0.3-0.3c-0.1,0-0.1-0.1-0.2-0.1
				c0,0-0.1,0-0.1-0.1c-0.1-0.1-0.1-0.2-0.1-0.3c0,0-0.1-0.1-0.1-0.1c-0.1,0-0.2,0.1-0.2,0.1c-0.1,0-0.2,0.1-0.3,0.1
				c-0.2,0.1-0.4,0.1-0.4,0.1c-0.1,0-0.2,0-0.3,0.2c-0.1,0.2,0,0.3,0.1,0.4c0.1,0.1,0.2,0.1,0.2,0.1c0,0,0-0.1,0.1-0.1
				c0.1,0,0.1,0,0.3,0.1c0.2,0,0.3,0,0.4,0c0.1,0,0.1,0.2,0.1,0.3c0,0.2-0.1,0.4-0.1,0.6c0,0.1-0.1,0.4,0,0.5
				C77.1,160.2,77.2,160.4,77.3,160.6z"/>
			<path fill="#D3340E" d="M77.7,159.4c0,0-0.2,0-0.1,0.1c0,0,0.2,0.1,0.2,0.1c0,0,0,0,0.1,0c0,0,0.2-0.1,0.3-0.1c0,0,0.1,0,0-0.1
				c0,0,0-0.1-0.2-0.1L77.7,159.4z"/>
			<g>
				<path fill="#D3340E" d="M77.3,160c0,0,0.1,0,0.1,0c0,0,0.1,0,0.1,0c0,0,0.1,0.2,0.1,0.3c0,0,0,0.3,0,0.3
					C77.6,160.6,77.3,160.5,77.3,160z"/>
				<path fill="#D3340E" d="M77.6,159.9L77.6,159.9c0.1,0,0.1,0,0.2,0.1c0,0,0.2,0.3,0.1,0.3c0,0,0,0-0.1-0.1
					C77.8,160.3,77.4,160,77.6,159.9z"/>
				<path fill="#D3340E" d="M77.7,160.4C77.7,160.4,77.7,160.3,77.7,160.4c0.1,0,0.5,0.4,0.5,0.8c0,0,0,0.1-0.1,0
					c0,0-0.2-0.2-0.3-0.2c0,0,0,0,0-0.1c0,0,0-0.2-0.1-0.2c0,0,0,0,0-0.1L77.7,160.4z"/>
				<path fill="#D3340E" d="M77.5,160.7C77.5,160.7,77.4,160.6,77.5,160.7c0.1-0.1,0.3,0,0.3,0.4c0,0,0,0.2-0.1,0.1
					C77.7,161.2,77.5,161,77.5,160.7z"/>
				<path fill="#D3340E" d="M78,159.9C78,159.9,77.9,159.9,78,159.9c0-0.1,0-0.2,0.2-0.1c0,0,0.4,0.2,0.4,1c0,0,0,0.2,0,0.1
					c0,0-0.3-0.3-0.3-0.3c0,0,0,0,0-0.1c0,0,0-0.1-0.1-0.1c0,0-0.1-0.1,0-0.1c0,0,0.1-0.1-0.1-0.3C77.9,160.1,77.8,159.9,78,159.9
					c-0.1,0,0,0.1,0.1,0.1c0,0,0.1,0.1,0.1,0C78.1,160,78,159.9,78,159.9z"/>
				<path fill="#D3340E" d="M78,161.2c0,0-0.1-0.1-0.1,0c0,0,0,0.2,0.1,0.3c0,0,0.1,0.1,0.3,0c0,0,0.1,0,0-0.1L78,161.2z"/>
				<path fill="#D3340E" d="M78.5,161.1l-0.1-0.1c0,0-0.2-0.1-0.1,0c0,0,0.2,0.4,0.2,0.6c0,0,0,0.2,0,0.2c0,0,0.1,0.1,0.1-0.2
					C78.5,161.6,78.6,161.2,78.5,161.1z"/>
				<path fill="#D3340E" d="M78.6,161.4C78.6,161.4,78.7,161.3,78.6,161.4c0.1,0,0.2,0.3,0.2,0.3c0,0,0.1,0.3,0.1,0.3
					c0,0,0,0.1-0.2-0.1c0,0-0.1-0.1-0.1-0.1c0,0,0,0,0-0.1L78.6,161.4z"/>
				<path fill="#D3340E" d="M79,162.3C79,162.3,79,162.4,79,162.3c0.1,0.1,0.2,0.1,0.1,0.2c0,0-0.1,0.1-0.1-0.1
					C78.9,162.5,78.8,162.3,79,162.3C78.9,162.3,78.9,162.2,79,162.3z"/>
				<path fill="#D3340E" d="M78.6,162C78.6,162,78.7,162,78.6,162c0.1,0.1,0.1,0.4,0.2,0.4c0,0,0.2,0.2,0.1,0.3c0,0-0.1,0.1-0.3,0.1
					c0,0-0.1,0-0.1,0c0,0-0.1,0-0.1-0.1c0,0,0,0,0.1-0.1c0,0,0-0.1-0.1,0c0,0-0.2,0.1-0.2,0.1c0,0-0.1-0.1,0-0.1
					c0,0,0.2-0.1,0.2-0.2C78.5,162.3,78.5,162.1,78.6,162z"/>
				<path fill="#D3340E" d="M77.9,162.9c0,0,0.1-0.1,0.1-0.1c0,0,0.1-0.1,0-0.1C78,162.7,77.8,162.8,77.9,162.9
					C77.8,162.9,77.8,163,77.9,162.9z"/>
				<path fill="#D3340E" d="M78.3,163.1c0,0,0-0.1,0.2-0.1c0,0,0.2,0,0.2,0.1c0,0,0,0.1-0.2,0.1C78.5,163.2,78.3,163.2,78.3,163.1z"
					/>
				<path fill="#D3340E" d="M79,163.1c0,0,0.1-0.1,0.1-0.1c0,0,0.1,0,0.1,0.1C79.2,163,79.1,163.1,79,163.1
					C79,163.1,79,163.1,79,163.1z"/>
				<path fill="#D3340E" d="M78.8,162.9c0,0,0.1,0,0.1,0.1c0,0-0.1,0.1-0.1,0.1C78.8,163.1,78.7,163.1,78.8,162.9z"/>
				<path fill="#D3340E" d="M79.1,162.7C78.9,162.8,79.1,162.8,79.1,162.7c0.3-0.1,0.3,0,0.3,0c0.1,0,0,0.1,0,0.1
					c-0.1,0.1-0.1,0.1-0.1,0.1c0.1,0.1,0.2,0,0.2,0c0.1-0.2,0.4-0.1,0.4-0.1c0.1,0.1,0.2,0,0.2,0c0-0.1-0.2-0.1-0.2-0.1
					c-0.1,0-0.2-0.2-0.2-0.2c-0.1-0.1-0.3,0-0.3,0S79.1,162.6,79.1,162.7z"/>
				<path fill="#D3340E" d="M78.2,162.9C78.1,162.9,78.1,163,78.2,162.9C78.2,163,78.2,163,78.2,162.9
					C78.3,163,78.3,162.9,78.2,162.9C78.2,162.9,78.2,162.9,78.2,162.9z"/>
				<path fill="#D3340E" d="M79.1,163.4c0,0,0.3,0,0.4-0.1l0-0.2c0,0,0-0.1-0.1,0c0,0-0.1,0-0.2,0.1
					C79.2,163.1,78.8,163.3,79.1,163.4z"/>
				<path fill="#D3340E" d="M79.7,163.1c0,0,0.4,0,0.5-0.1c0,0,0.1-0.1-0.3-0.1c0,0-0.3,0-0.3,0C79.6,163,79.5,163.1,79.7,163.1z"/>
				<path fill="#D3340E" d="M79.7,163.4c0,0,0.2-0.1,0.1-0.1c0,0-0.1-0.2-0.2,0C79.6,163.2,79.5,163.5,79.7,163.4z"/>
				<path fill="#D3340E" d="M78.7,161.1c0,0,0.5,0.8,0.4,1.2c0,0,0,0.1-0.1,0.1c0,0-0.1,0-0.1-0.3c0,0-0.2-0.7-0.3-0.8
					C78.7,161.3,78.5,160.9,78.7,161.1z"/>
				<path fill="#D3340E" d="M78.5,160.5l0,0.2c0,0,0,0.1,0.1,0.1c0,0,0.3,0.4,0.3,0.5c0,0,0,0.1,0.1,0l-0.1-0.5c0,0,0-0.1-0.1-0.1
					C78.8,160.7,78.6,160.4,78.5,160.5z"/>
				<path fill="#D3340E" d="M79.2,160.8c0,0,0,0.9,0,1c0,0,0,0.1-0.1,0l-0.1-0.1c0,0-0.1-0.7,0-0.7C79.1,161,79.1,160.9,79.2,160.8
					C79.1,160.9,79.1,160.8,79.2,160.8z"/>
				<path fill="#D3340E" d="M79.4,161.5C79.4,161.5,79.3,161.3,79.4,161.5c-0.1,0-0.1,0.7-0.1,0.8c0,0,0.1,0.2,0.3,0.1
					c0,0,0.1,0,0-0.3C79.6,162,79.4,161.6,79.4,161.5z"/>
				<path fill="#D3340E" d="M79.4,160.9c0,0,0.2,0.1,0.2,0.2c0,0,0.2,0.9,0.2,1c0,0,0,0.1-0.1,0c0,0-0.4-1-0.4-1.1
					C79.3,161,79.2,160.9,79.4,160.9z"/>
				<path fill="#D3340E" d="M79.8,161.3c0,0,0.5,0.9,0.6,0.9c0,0,0.1,0.2-0.1,0.1c0,0-0.3-0.3-0.3-0.4
					C79.9,162,79.6,161.2,79.8,161.3z"/>
				<path fill="#D3340E" d="M79.8,161.2c0,0,0.7,0.5,1,1c0,0,0.2,0.2-0.1,0.2c0,0-0.3,0.1-0.3-0.1c0,0-0.4-0.8-0.5-0.9
					C79.9,161.3,79.7,161.2,79.8,161.2z"/>
				<path fill="#D3340E" d="M80,161.2c0,0,1.4,0.7,1.4,0.8c0,0,0,0.2-0.2,0.2c0,0-0.3,0.2-0.4,0C80.9,162.2,80.4,161.4,80,161.2
					C80,161.2,79.9,161.2,80,161.2z"/>
				<path fill="#D3340E" d="M80.1,163.3C80.1,163.3,80.1,163.3,80.1,163.3c-0.1,0-0.2,0-0.2,0C80,163.2,80,163.2,80.1,163.3
					C80.1,163.2,80.1,163.2,80.1,163.3z"/>
				<path fill="#D3340E" d="M78.2,159.7c0,0,0.1,0,0.1,0c0,0,0.1-0.1,0.2,0.1c0,0,0.1,0.3,0,0.3c0,0-0.1,0.1-0.2-0.1
					c0,0-0.1-0.2-0.2-0.2C78.1,159.8,78,159.7,78.2,159.7z"/>
				<path fill="#D3340E" d="M78.6,159.7c0,0,0.1,0,0.1,0c0,0,0.1,0,0.1,0.1c0,0,0.2,0.8,0.2,0.8c0,0,0,0.1-0.1,0
					c0,0-0.4-0.5-0.4-0.5c0,0-0.1-0.1,0-0.1c0,0,0.2,0,0.1-0.2C78.6,159.9,78.5,159.7,78.6,159.7z"/>
				<path fill="#D3340E" d="M78.2,159.2c0,0,0.3,0.1,0.4,0.1c0,0,0,0,0.1,0.1c0,0,0.2,0.2,0.2,0.3c0,0,0,0.1,0.1,0.1
					c0,0,0.2,0,0.6,0.6c0,0,0.1,0.1,0.1,0.4c0,0,0,0.2-0.1,0.1c0,0-0.4-0.2-0.4-0.3c0,0-0.3-0.7-0.3-0.8c0,0,0-0.1-0.1-0.1
					C78.8,159.7,78.3,159.6,78.2,159.2C78.2,159.2,78.2,159.2,78.2,159.2z"/>
				<path fill="#D3340E" d="M79.3,159.9c0,0,0.3,0.3,0.3,0.4c0,0,0,0.1,0.2,0.1c0,0,0.2,0,0.4,0.3c0,0,0.2,0.3,0.3,0.3
					c0,0,0.1,0,0-0.1c0,0-0.3-0.5-0.4-0.5C80.1,160.2,79.7,159.9,79.3,159.9C79.3,159.8,79.2,159.8,79.3,159.9z"/>
				<path fill="#D3340E" d="M79.8,160.5c0,0,0.4,0.3,0.5,0.5c0,0,0,0.2-0.1,0.1c0,0-0.3-0.1-0.4-0.2c0,0-0.1,0,0-0.1
					C79.8,160.9,79.7,160.4,79.8,160.5z"/>
				<path fill="#D3340E" d="M80.4,161C80.4,161,80.5,161,80.4,161c0.1,0,0.1-0.1,0.2,0c0,0,0.2,0.3,0.1,0.3c0,0-0.1,0.1-0.3-0.1
					C80.5,161.2,80.3,161,80.4,161z"/>
				<path fill="#D3340E" d="M80.7,161.3c0,0,0.4,0,0.4,0.1c0,0,0.1,0.1,0.2,0.1c0,0,0.3,0,0.3,0.1c0,0,0,0.2-0.1,0.1L80.7,161.3
					C80.7,161.4,80.6,161.3,80.7,161.3z"/>
				<path fill="#D3340E" d="M80.1,160c0,0,0.2,0,0.3,0.1c0,0,0.6,0.9,0.6,1c0,0,0.1,0.2-0.1,0c0,0-0.5-0.7-0.7-1
					C80.2,160.2,80,160,80.1,160z"/>
				<path fill="#D3340E" d="M78.2,157.5c0,0-0.3,0-0.2,0.2c0,0,0,0.1,0.3,0.2c0,0,0.5,0.1,0.5,0.9c0,0,0,0.3,0,0.4
					c0,0-0.2,0.1,0,0.2c0,0,0.7,0.5,1.2,0.6c0,0,0.1,0,0.1-0.1c0,0-0.3-0.4-1.1-0.6c0,0-0.1-0.1,0-0.1c0,0,0.5,0.2,1,0.1
					c0,0,0.1,0,0-0.1c0,0-0.3-0.2-0.9-0.3c0,0-0.1-0.1,0-0.1c0,0,0.5,0.1,0.9,0.1c0,0,0.2,0,0-0.1c0,0-0.3-0.2-0.9-0.3
					c0,0-0.1-0.1,0-0.1c0,0,0.6,0,0.6,0c0,0,0.1,0,0-0.1c0,0-0.2-0.3-0.8-0.3l-0.3,0c0,0-0.3-0.1,0-0.1c0,0,0.5,0.1,0.9,0
					c0,0,0.2-0.1,0.1-0.1C79.7,157.7,79.1,157.5,78.2,157.5z"/>
				<path fill="#D3340E" d="M79.7,157.9c0,0,0.2-0.1,0.6,0c0,0,0.5,0.2,0.9,0.5c0,0,0.1,0.1-0.1,0.1c0,0-0.7,0-1.2-0.4
					c0,0-0.1-0.1-0.2-0.1C79.7,158,79.6,158,79.7,157.9z"/>
				<path fill="#D3340E" d="M79.8,158.4c0,0,0.3-0.1,0.4,0c0,0,0.3,0.1,0.4,0.1c0,0,0.2,0,0.3,0.2c0,0,0.3,0.4,0.1,0.3l-0.7-0.3
					C80.3,158.7,80,158.5,79.8,158.4C79.8,158.5,79.7,158.4,79.8,158.4z"/>
				<path fill="#D3340E" d="M80,158.9c0,0,0.1,0,0.2-0.1c0,0,0.1-0.1,0.2,0c0,0,1.1,0.5,0.9,0.6c0,0-0.1,0.1-0.8-0.2
					c0,0-0.2,0-0.3-0.1C80.2,159.1,80.1,159,80,158.9C80,159,80,158.9,80,158.9z"/>
				<path fill="#D3340E" d="M79.7,159.4l0.5,0c0,0,0.2,0,0.8,0.2c0,0,0.3,0,0.1,0.2c0,0-0.4,0-0.4,0.1c0,0-0.5,0.1-0.6,0l-0.4-0.2
					C79.7,159.5,79.5,159.4,79.7,159.4z"/>
				<path fill="#D3340E" d="M80.6,159.9c0,0,0.5,0.5,0.9,1.5c0,0,0,0.2-0.2-0.1c0,0-0.6-1.2-0.9-1.4
					C80.3,159.9,80.2,159.7,80.6,159.9z"/>
				<path fill="#D3340E" d="M80.9,159.8c0,0,1,0.9,1,1.9c0,0,0,0.2-0.1,0c0,0-0.2-0.1-0.3-0.3c0,0-0.1-0.6-0.8-1.5
					C80.7,159.9,80.6,159.8,80.9,159.8z"/>
				<path fill="#D3340E" d="M81.4,159.7c0,0,0.7,1.1,0.8,1.4c0,0,0.1,0.2,0,0.4c0,0-0.1,0.2-0.1-0.2c0,0-0.1-0.7-0.9-1.6
					c0,0-0.1-0.1,0-0.2C81.2,159.7,81.3,159.7,81.4,159.7z"/>
				<path fill="#D3340E" d="M81.9,160.3c0,0,0.4,0.4,0.4,0.5c0,0,0,0.5-0.1,0.2C82.1,161,81.6,160.1,81.9,160.3z"/>
				<path fill="#D3340E" d="M81.7,159.6l0.3,0.1c0,0,0.2,0,0.2,0.3c0,0,0.2,0.8-0.1,0.3c0,0-0.4-0.4-0.5-0.5c0,0-0.3-0.3-0.1-0.3
					C81.4,159.6,81.6,159.5,81.7,159.6z"/>
				<path fill="#D3340E" d="M81,158.7c0,0,0.4-0.1,0.6,0.2c0,0,0.4,0.5,0.4,0.7c0,0,0.1,0.2-0.1,0.1c0,0-0.5-0.1-0.6-0.3
					C81.4,159.3,80.9,158.7,81,158.7z"/>
			</g>
			<path fill="#D3340E" d="M77.2,158.1C77.2,158.1,77.3,158,77.2,158.1c0.1-0.1,0.1-0.2-0.1-0.1c0,0-0.3,0.1-0.3,0.2c0,0,0,0,0,0
				L77.2,158.1z"/>
			<path fill="#D3340E" d="M77.1,158.2c0,0-0.1,0.2-0.2,0.1c0,0-0.1,0-0.1,0c0,0,0,0.1,0.2,0.1C77,158.4,77.2,158.4,77.1,158.2
				C77.2,158.2,77.1,158.1,77.1,158.2z"/>
			<path fill="#D3340E" d="M77.1,158.6c0,0-0.3-0.1-0.3-0.2c0,0-0.1,0-0.1-0.1c0,0,0-0.2-0.1-0.2c0,0-0.1,0-0.1,0.1c0,0,0,0-0.1,0
				c0,0-0.2-0.1-0.3,0.2c0,0,0,0.1,0.2,0.2c0,0,0.1,0.1,0.2-0.1c0,0,0-0.1,0.2,0c0,0,0.2,0.1,0.2,0.1c0,0-0.3-0.1-0.3,0
				c0,0,0,0.1,0.1,0.1C76.6,158.6,77,158.7,77.1,158.6C77,158.7,77.1,158.7,77.1,158.6z"/>
			<path fill="#D3340E" d="M77.4,158.1c0,0,0.2,0.1,0.2,0.2c0,0,0.1,0.1,0,0.1c0,0-0.1,0-0.1,0c0,0-0.1,0-0.1,0.1c0,0,0,0,0.2,0
				c0,0,0.1,0,0.1,0.2c0,0,0,0.1-0.1,0.1c0,0-0.2-0.1-0.2-0.1c0,0,0,0,0.1,0.1c0,0,0.1,0,0.1,0.2c0,0,0,0.1-0.1,0
				c0,0-0.5-0.4-0.4-0.5c0,0,0.1-0.2,0.2-0.3C77.3,158.1,77.4,158,77.4,158.1z"/>
			<path fill="#D3340E" d="M77.4,159.5C77.4,159.5,77.5,159.4,77.4,159.5c0.1,0,0.1,0,0.1,0c0,0.1,0.1,0.1,0.2,0.1
				c0.2,0.1,0.3,0.2,0,0.2c-0.1,0-0.1,0-0.2,0c-0.1,0-0.1-0.1-0.1-0.2C77.5,159.6,77.4,159.6,77.4,159.5
				C77.4,159.5,77.4,159.5,77.4,159.5z"/>
			<path fill="#D3340E" d="M77.2,159.6c0,0.1,0,0.2,0,0.2c0,0,0,0,0,0.1c0,0,0,0.1,0,0.1c0,0,0.1,0,0.1,0c0.1,0,0-0.1,0-0.2
				c0-0.1,0-0.2,0-0.2c0,0-0.1-0.1-0.1,0C77.2,159.5,77.2,159.5,77.2,159.6z"/>
			<path fill="#D3340E" d="M77.4,158.9c-0.1-0.1-0.1,0.2-0.1,0.2c0,0.1,0,0.1,0,0.2c0,0,0.1,0.1,0.1,0.1c0,0,0-0.1,0.1-0.2
				c0,0,0.1-0.1,0.1-0.1C77.5,159,77.5,159,77.4,158.9"/>
			<path fill="#D3340E" d="M77.9,159.3C77.9,159.3,77.9,159.3,77.9,159.3c0.1,0,0.2,0.1,0.2,0c0.1-0.1-0.3-0.2-0.3-0.2
				c-0.1,0-0.3-0.1-0.3,0.1c0,0.1,0,0.1,0.1,0.1c0.1,0,0.1,0,0.2,0C77.8,159.3,77.9,159.3,77.9,159.3z"/>
			<path fill="#D3340E" d="M78.1,159.1c0.2,0,0-0.1-0.1-0.1c-0.1,0-0.3-0.2-0.3,0C77.7,159.1,78,159.1,78.1,159.1z"/>
			<path fill="#D3340E" d="M77.9,158.8c0,0,0.1,0,0.1,0.1c0.1,0,0.1,0.1,0.2,0.1c0.1,0,0.1,0.1,0.2,0.1c0,0,0.1,0,0.1,0.1
				c0.1,0,0.1,0,0-0.1c0,0-0.1-0.1-0.1-0.1c-0.1-0.1-0.1-0.1-0.2-0.2c-0.1-0.1-0.3-0.4-0.4-0.3C77.7,158.5,77.8,158.8,77.9,158.8z"
				/>
		</g>
	</g>
</g>
</svg>
