<?xml version="1.0" encoding="utf-8"?>
<!-- Generator: Adobe Illustrator 16.0.0, SVG Export Plug-In . SVG Version: 6.00 Build 0)  -->
<!DOCTYPE svg PUBLIC "-//W3C//DTD SVG 1.1//EN" "http://www.w3.org/Graphics/SVG/1.1/DTD/svg11.dtd">
<svg version="1.1" id="Layer_1" xmlns="http://www.w3.org/2000/svg" xmlns:xlink="http://www.w3.org/1999/xlink" x="0px" y="0px"
	 width="153.1px" height="456.4px" viewBox="0 0 153.1 456.4" enable-background="new 0 0 153.1 456.4" xml:space="preserve">
<g>
	<g>
		<g>
			
				<path fill="none" stroke="#DAA28B" stroke-width="19.5978" stroke-linecap="round" stroke-linejoin="round" stroke-miterlimit="10" d="
				M101.5,111c0,0,36.6,26.5,39.7,55c3.3,29.4,1.6,56.3,1.6,71.9"/>
			<path fill="none" stroke="#203F39" stroke-width="19.5971" stroke-linejoin="round" stroke-miterlimit="10" d="M101.5,111
				c0,0,29,21.1,37.6,45.8"/>
			<path fill="none" stroke="#238557" stroke-width="19.5971" stroke-linejoin="round" stroke-miterlimit="10" d="M129,138.4
				c4.2,5.7,7.9,11.9,10.1,18.4"/>
			<path fill="none" stroke="#FFFFFF" stroke-width="1.9811" stroke-miterlimit="10" d="M109.3,106.7c0,0,20.5,15.1,31.4,35.9"/>
			<path fill="none" stroke="#FFFFFF" stroke-width="1.9811" stroke-miterlimit="10" d="M105.9,107.1c0,0,19.9,14.2,31.8,35.3"/>
		</g>
		<path fill="#FFFFFF" d="M120.8,143.9c0,0,9.3-12.3,14.2-13.8c0,0,6.8,9,8.4,12.7c0,0-11.8,1.5-18.4,7.1
			C124.9,149.8,122.1,145.5,120.8,143.9z"/>
	</g>
	<g>
		
			<path fill="none" stroke="#DAA28B" stroke-width="19.5978" stroke-linecap="round" stroke-linejoin="round" stroke-miterlimit="10" d="
			M51.6,111c0,0-36.6,26.5-39.7,55c-3.3,29.4-1.6,56.3-1.6,71.9"/>
		<path fill="none" stroke="#203F39" stroke-width="19.5971" stroke-linejoin="round" stroke-miterlimit="10" d="M51.6,111
			c0,0-29,21.1-37.6,45.8"/>
		<path fill="none" stroke="#238557" stroke-width="19.5971" stroke-linejoin="round" stroke-miterlimit="10" d="M24.1,138.4
			c-4.2,5.7-7.9,11.9-10.1,18.4"/>
		<path fill="none" stroke="#FFFFFF" stroke-width="1.9811" stroke-miterlimit="10" d="M43.7,106.7c0,0-20.5,15.1-31.4,35.9"/>
		<path fill="none" stroke="#FFFFFF" stroke-width="1.9811" stroke-miterlimit="10" d="M47.2,107.1c0,0-19.9,14.2-31.8,35.3"/>
	</g>
	<polygon fill="#161616" points="47.5,99.8 54.9,98.9 56.1,107.2 	"/>
	<polygon fill="#161616" points="106,99.8 98.6,98.9 97.4,107.2 	"/>
	<path fill="#EFB597" d="M116.4,148.2H38.8c0,0,15.2-28.6,15.3-83.6c0-15.6,46.7-15.6,46.7,0C100.8,138.1,116.4,148.2,116.4,148.2z"
		/>
	<path opacity="0.2" fill="#231F20" d="M53.2,86.8c0,0,1.2,12.4,20.7,13.8c8.2,0.6,27.8,0.5,27.5-18.3L53.2,86.8z"/>
	
		<line fill="none" stroke="#DAA28B" stroke-width="21.7743" stroke-linecap="square" stroke-linejoin="round" stroke-miterlimit="10" x1="56.2" y1="255.3" x2="56.2" y2="439.2"/>
	
		<line fill="none" stroke="#DAA28B" stroke-width="21.7743" stroke-linecap="square" stroke-linejoin="round" stroke-miterlimit="10" x1="96.2" y1="255.3" x2="96.2" y2="439.2"/>
	
		<line fill="none" stroke="#D3340E" stroke-width="21.7922" stroke-linecap="square" stroke-linejoin="round" stroke-miterlimit="10" x1="56.2" y1="367.5" x2="56.2" y2="439.2"/>
	
		<line fill="none" stroke="#D3340E" stroke-width="21.7922" stroke-linecap="square" stroke-linejoin="round" stroke-miterlimit="10" x1="96.2" y1="367.5" x2="96.2" y2="439.2"/>
	<g>
		<path opacity="0.2" fill="#232222" d="M57.7,142.8c0,2.6-2.1,4.7-4.7,4.7c-2.6,0-4.7-2.1-4.7-4.7c0-2.6,2.1-4.7,4.7-4.7
			C55.6,138.1,57.7,140.2,57.7,142.8z"/>
		<circle opacity="0.2" fill="#232222" cx="52.9" cy="142.8" r="2.4"/>
	</g>
	<g>
		<circle opacity="0.2" fill="#232222" cx="100.5" cy="142.8" r="4.7"/>
		<circle opacity="0.2" fill="#232222" cx="100.5" cy="142.8" r="2.4"/>
	</g>
	<ellipse opacity="0.2" fill="#232222" cx="77.4" cy="209.2" rx="1.5" ry="2.4"/>
	<path fill="#FFFFFF" d="M120.3,228.6H33.5c0,14,3.7,25.4,10.8,33.4v74.3H68V274c2.8,0.4,5.7,0.6,8.8,0.6c2.6,0,5-0.2,7.4-0.4v62
		h23.8v-72.8C116.1,255.5,120.3,243.5,120.3,228.6z"/>
	<path fill="#1C1C1C" d="M67.4,442.4c-29.1,0-52.8,6.3-52.8,14h52.8V442.4z"/>
	<path fill="#1C1C1C" d="M85.3,441.9c29.1,0,52.8,6.3,52.8,14H85.3V441.9z"/>
	<path fill="#203F39" d="M111.9,107.5H77.6h-1.8H41.5c-5.6,23.8-8.4,21.9-8.4,62.1c0,49.5,0,60.4,0,61.7c0,0.1,5.4,0.1,5.4,0.1h37.3
		h1.8h37.3c0,0,5.4,0,5.4-0.1c0-1.3,0-12.2,0-61.7C120.3,129.3,117.5,131.3,111.9,107.5z"/>
	<g>
		<path fill="#203F39" d="M47.4,146.5l-10-11.7c0,0,33.2,16.7,38.9,19c2.4-0.9,39.3-19,39.3-19l-10,11.7l13.7-6.8
			c-1.3-11.9-3.7-17.1-7.3-32.3H77.6h-1.8H41.5c-3.6,15.4-6.1,20-7.3,32.2L47.4,146.5z"/>
		<path fill="#238557" d="M98,151.6l7.7-9.9l-27.5,11.9l-31-11.9l7.7,9.9l-21.1-8.4c-0.5,6.3-0.7,14.5-0.7,26.3
			c0,49.5,0,60.4,0,61.7c0,0.1,5.4,0.1,5.4,0.1h37.3h1.8h37.3c0,0,5.4,0,5.4-0.1c0-1.3,0-12.2,0-61.7c0-12.2-0.3-20.5-0.8-26.9
			L98,151.6z"/>
	</g>
	<path fill="#203F39" d="M109.8,107.6c0,0-0.7-3.1-3.8-7.8c0,0-13.4,7.8-30.1,7.8v12L109.8,107.6z"/>
	<g>
		<polygon fill="#FFFFFF" points="76.4,155.9 50.6,144.4 58.3,153.7 33.6,146.7 33.4,150.4 67.2,160.3 59.1,150.4 75.7,157.1 		"/>
	</g>
	<g>
		<polygon fill="#FFFFFF" points="76.8,155.8 102.6,144.3 94.9,153.6 119.8,146.4 120,150 86,160.2 94.1,150.3 77.5,157.1 		"/>
	</g>
	<path fill="#203F39" d="M43.7,107.6c0,0,0.7-3.1,3.8-7.8c0,0,13.4,7.8,30.1,7.8v12L43.7,107.6z"/>
	<path fill="#203F39" d="M108.8,114.6c-0.5,0,0,0-0.2-0.1s-1.4,0.8-1.4,0.8l-5.7-0.7L70.6,120l40.7-8.9l0.6-3.6l-0.4-0.9
		c0,0-1.8-1.2-2.3-1.2c-0.5,0,0,0-0.2-0.1s-1.4,0.8-1.4,0.8l-5.7-0.7l-53.3,9.2l-1.1-6.4l-3.7-2.7l-2.2,1.2l0.1,0.7l0.7,2.4l1.1,3.4
		l23.9,7.3l-19,3.3l-1.1-6.4l-3.7-2.7l-2.2,1.2l0.1,0.7l0.7,2.4l1.1,3.4l24.2,7.4l43.8-9.6l0.6-3.6l-0.4-0.9
		C111.1,115.9,109.3,114.6,108.8,114.6z"/>
	<path fill="#D3340E" d="M75,152.8c0.1,0.3-37.7-17.9-37.7-17.9l10,11.7l-13.4-7l-0.1,3.7l21.1,8.3l-7.7-9.9l27.5,11.9L75,152.8z"/>
	<path fill="#D3340E" d="M77.9,152.8c-0.1,0.3,37.7-17.9,37.7-17.9l-10,11.7l13.8-7.1l0.2,3.5L98,151.6l7.7-9.9l-27.5,11.9
		L77.9,152.8z"/>
	<path fill="#FFFFFF" d="M32.3,143.9c0,0-9.3-12.3-14.2-13.8c0,0-6.8,9-8.4,12.7c0,0,11.8,1.5,18.4,7.1
		C28.2,149.8,31,145.5,32.3,143.9z"/>
	<g>
		<g>
			<g>
				<path fill="#D3340E" d="M82.3,158.8l-0.2-0.2c-0.2-0.1-0.1-0.3-0.1-0.3c1-1.9,0.6-3.9,0.6-3.9c-0.3-2.2-2.2-3.6-2.2-3.6
					c-0.2-0.1,0-0.3,0-0.3l0.2-0.2c0,0,0.2-0.2,0-0.4l-1.1-0.7c0,0,0,0,0-0.1c0,0,0-0.6-0.3-0.9c0,0-0.5-0.7-1-1
					c0,0-0.8-0.5-1.2-0.6c0,0-0.9-0.3-1.5-0.2c0,0-0.2,0-0.3,0.1c0,0-0.1,0.1,0,0.1c-0.1,0-0.3,0.1-0.3,0.2c0,0,0,0,0,0.1
					c0,0.1,0,0.2,0.2,0.2c0,0,0.4,0.2,0.4,0.3c0,0,0,0,0,0.1c0,0,0,0,0,0c0,0,0,0,0,0h0l0,0c0,0,0,0,0,0c-0.1-0.1-0.2-0.2-0.3-0.3
					c0,0-0.1-0.1-0.1-0.1c0,0-0.1,0-0.1-0.1c-0.1-0.1-0.1-0.2-0.1-0.3c0,0-0.1-0.1-0.1-0.1c-0.1,0-0.2,0.1-0.2,0.1
					c-0.1,0-0.2,0.1-0.3,0.1c-0.2,0.1-0.4,0.1-0.4,0.1c-0.1,0-0.2,0-0.3,0.2c-0.1,0.2,0,0.3,0.1,0.4c0.1,0.1,0.2,0.1,0.2,0.1
					c0,0,0-0.1,0.1-0.1c0.1,0,0.1,0,0.3,0.1c0.2,0,0.3,0,0.4,0c0.1,0,0.1,0.2,0.1,0.3c0,0.2-0.1,0.4-0.1,0.5c0,0,0,0.1,0,0.2
					c-0.1,0-0.2,0.1-0.2,0.1c-0.2,0.1-0.4,0.2-0.8,0.4c-0.4,0.3-1.1,0.7-1.1,0.7c-0.3,0.2-0.1,0.4-0.1,0.4l0.2,0.2
					c0,0,0.3,0.2,0,0.4c0,0-1.6,1.3-1.9,3.5c0,0-0.4,2.1,0.8,3.9c0,0,0.2,0.2,0,0.3l-0.2,0.2c0,0-0.2,0.2,0.1,0.5c0,0,1.4,1.7,2.7,2
					c0,0-0.5-0.6-0.8-1.2c0,0-0.2-0.2,0.1-0.2l0.6-0.1c0,0,0-0.1,0-0.1c0,0,0,0,0,0c0.1,0.3,0.3,0.5,0.4,0.8l0,0c0,0,0,0,0,0
					c0.6,0.7,1.5,1.2,2.5,1.2c1.4,0,2.6-0.9,3-2.2l0.3,0c0.2,0,0.5,0,0.5,0c-0.2,0.6-0.9,1.5-0.9,1.5c1.2-0.4,2.3-1.7,2.3-1.7
					C82.5,159,82.3,158.8,82.3,158.8z"/>
			</g>
			<path fill="#FFFFFF" d="M84.3,158.3c0.7-1.9,0.4-3.7,0.3-4.1c-0.3-1.7-1.2-3.1-1.9-3.9c0-0.2,0-0.3,0-0.5
				c-0.1-0.7-0.5-1.2-1.1-1.6l-0.4-0.2c-0.1-0.3-0.2-0.6-0.4-0.8c-0.2-0.2-0.8-1.1-1.6-1.6c-0.5-0.3-1.1-0.7-1.5-0.8
				c0,0-1-0.3-2-0.3c-0.1,0-0.2,0-0.3,0l0,0c-0.2,0-0.7,0.1-1.2,0.4c-0.2,0-0.3,0.1-0.4,0.2c-0.1,0-0.1,0-0.2,0.1l0,0
				c-0.1,0-0.1,0-0.2,0.1c-0.7,0.1-1.3,0.5-1.7,1.1c-0.2,0.3-0.6,1-0.2,2c-0.2,0.1-0.3,0.2-0.4,0.3c-0.6,0.4-0.9,1-1,1.7
				c0,0.1,0,0.3,0,0.4c-0.6,0.8-1.4,2.1-1.6,3.8c-0.1,0.4-0.3,2.3,0.6,4.4c-0.2,0.7-0.1,1.5,0.5,2.2c0.4,0.4,1.9,2.2,3.7,2.6L75,164
				c0,0,1.3,0,1.7,0c0.5,0,1.9-0.1,1.9-0.1l1.6-0.5c1.7-0.5,3-2,3.3-2.3c0.5-0.6,1.1-1.5,0.9-2.5C84.3,158.5,84.3,158.4,84.3,158.3z
				"/>
			<path fill="none" stroke="#D3340E" stroke-width="0.9346" stroke-miterlimit="10" d="M84.3,158.3c0.7-1.9,0.4-3.7,0.3-4.1
				c-0.3-1.7-1.2-3.1-1.9-3.9c0-0.2,0-0.3,0-0.5c-0.1-0.7-0.5-1.2-1.1-1.6l-0.4-0.2c-0.1-0.3-0.2-0.6-0.4-0.8
				c-0.2-0.2-0.8-1.1-1.6-1.6c-0.5-0.3-1.1-0.7-1.5-0.8c0,0-1-0.3-2-0.3c-0.1,0-0.2,0-0.3,0l0,0c-0.2,0-0.7,0.1-1.2,0.4
				c-0.2,0-0.3,0.1-0.4,0.2c-0.1,0-0.1,0-0.2,0.1l0,0c-0.1,0-0.1,0-0.2,0.1c-0.7,0.1-1.3,0.5-1.7,1.1c-0.2,0.3-0.6,1-0.2,2
				c-0.2,0.1-0.3,0.2-0.4,0.3c-0.6,0.4-0.9,1-1,1.7c0,0.1,0,0.3,0,0.4c-0.6,0.8-1.4,2.1-1.6,3.8c-0.1,0.4-0.3,2.3,0.6,4.4
				c-0.2,0.7-0.1,1.5,0.5,2.2c0.4,0.4,1.9,2.2,3.7,2.6L75,164c0,0,1.3,0,1.7,0c0.5,0,1.9-0.1,1.9-0.1l1.6-0.5c1.7-0.5,3-2,3.3-2.3
				c0.5-0.6,1.1-1.5,0.9-2.5C84.3,158.5,84.3,158.4,84.3,158.3z"/>
		</g>
		<g>
			<g>
				<path fill="#231F20" d="M75.1,147.7c-0.1,0-0.3,0.1-0.3,0.2c0,0.1,0.2,0.4,0.2,0.4c0.3,0.4,1.1,0.7,1.5,0.5
					c0.4-0.2,0.8-1,0.5-1.4c-0.1-0.2-0.3-0.2-0.5-0.3c-0.4-0.2-0.7-0.4-1.1-0.4c0,0-0.6-0.1-0.7,0.2c0,0,0,0,0,0.1
					c0,0.1,0,0.2,0.2,0.2c0,0,0.4,0.2,0.4,0.3c0,0,0,0,0,0.1c0,0,0,0,0,0c0,0,0,0,0,0h0l0,0c0,0-0.1,0-0.1,0.1
					C75.1,147.7,75.1,147.7,75.1,147.7z"/>
				<g>
					<path fill="#FFFFFF" d="M75.7,147.7C75.7,147.7,75.7,147.7,75.7,147.7c-0.1,0.1-0.1,0.1-0.2,0.1c0,0-0.1,0-0.1-0.1
						c0,0,0,0,0.1,0c0,0,0.1,0,0.1-0.1c0,0-0.1-0.1-0.1-0.1c-0.1-0.1-0.2-0.2-0.3-0.3c0,0-0.3-0.1-0.2-0.3c0,0,0-0.1,0.7,0
						c0,0,0.8,0.3,1.1,0.5c0,0,0.1,0.1,0,0.1c0,0,0,0-0.4-0.2c0,0-0.8-0.4-1-0.3c0,0-0.1,0,0,0.1c0.1,0.1,0.1,0.1,0.2,0.2
						c0,0.1,0.1,0.1,0.1,0.2C75.7,147.5,75.7,147.6,75.7,147.7z"/>
					<path fill="#FFFFFF" d="M75.5,147.2c0,0.1,0.1,0.1,0.1,0.2c0,0.1,0.1,0.2,0.1,0.3c0,0,0,0,0,0.1c0,0,0,0-0.1,0.1c0,0,0,0-0.1,0
						c-0.1,0,0,0.1,0.1,0.2c0,0,0.1,0.1,0.1,0.1c0,0,0.1,0.1,0.1,0.1c0,0,0,0,0,0c0-0.1,0-0.1-0.1-0.1c0,0,0-0.1,0-0.1
						c0,0,0,0,0-0.1c0,0,0,0,0,0c0.1,0,0.1,0.1,0.1,0.2c0,0,0.1,0,0.1,0c0,0,0-0.1-0.1-0.1c0,0-0.1-0.1-0.1-0.2c0,0,0,0,0,0
						c0,0,0,0,0,0c0,0,0,0,0,0c0,0,0.1,0,0.1,0c0.1,0,0.2,0.1,0.2,0.1c0,0,0.3,0.2,0.5,0.2c0,0,0.1,0,0-0.1c0,0-0.6-0.3-0.7-0.3
						c0,0-0.1,0,0-0.1c0,0,0,0,0.5,0.1c0,0,0.3,0.2,0.4,0.1c0,0,0,0,0-0.1c0,0,0.1-0.1-0.7-0.3c0,0-0.2,0-0.1-0.1c0,0,0,0,0.2,0
						c0,0,0.3,0.1,0.5,0.2c0,0,0.1,0,0.1,0c0,0,0-0.1-0.3-0.2c0,0-0.3-0.1-0.4-0.2C76.2,147.3,75.4,147,75.5,147.2z"/>
				</g>
			</g>
			<ellipse fill="#FFFFFF" cx="76.5" cy="155.3" rx="5.5" ry="5.6"/>
			<path fill="#231F20" stroke="#231F20" stroke-width="2.502300e-02" d="M78.9,155.6c0,1.3-1.1,2.3-2.4,2.3c-1.2,0-2.3-0.9-2.4-2.2
				v0c0-0.1,0.1,0,0.1,0c0.1,0.1,0.1-0.1,0.1-0.1v-0.2c0-0.1-0.1,0-0.1,0c-0.2,0.1-0.1,0-0.1,0c0-1.3,1.1-2.3,2.4-2.3
				c1.3,0,2.3,1,2.4,2.2c0,0,0,0.1-0.1,0c0,0-0.1-0.1-0.1,0c0,0,0,0.2,0,0.2C78.7,155.6,78.7,155.7,78.9,155.6
				C78.8,155.6,78.9,155.5,78.9,155.6L78.9,155.6z"/>
			<circle fill="#FFFFFF" stroke="#231F20" stroke-width="2.502300e-02" cx="76.5" cy="155.5" r="1.7"/>
			<path fill="#231F20" stroke="#231F20" stroke-width="0.1501" d="M73.8,152.3c0,0,0.3,0.4-0.2,0.9c0,0-0.9,0.8-0.8,2.3
				c0,0,0,1.3,0.5,1.8c0,0,0.4,0.5,0.1,0.8c0,0-0.2,0.3-0.5,0.2c0,0-0.3,0-0.5-0.5c0,0-0.9-1.6-0.5-3.4c0,0,0.4-1.6,1.2-2.3
				C73.1,152.2,73.5,151.9,73.8,152.3z"/>
			<path fill="#231F20" stroke="#231F20" stroke-width="0.1501" d="M79,152.2c0,0-0.3,0.4,0.3,0.8c0,0,0.9,0.7,1,2.3
				c0,0,0.1,1.3-0.3,1.9c0,0-0.3,0.5-0.1,0.8c0,0,0.2,0.3,0.5,0.2c0,0,0.3,0,0.5-0.5c0,0,0.8-1.6,0.3-3.4c0,0-0.5-1.6-1.3-2.2
				C79.8,152.1,79.3,151.8,79,152.2z"/>
			<path fill="#008240" d="M73.8,152.3c0,0,0.3,0.4-0.3,0.9c0,0-0.9,0.8-0.8,2.3c0,0,0,1.3,0.5,1.8c0,0,0.4,0.5,0.1,0.8
				c0,0-0.1,0.2-0.5,0.2c0,0-0.3,0-0.5-0.5c0,0-0.9-1.6-0.5-3.4c0,0,0.4-1.6,1.2-2.3C73,152.3,73.5,151.9,73.8,152.3z"/>
			<path fill="#FD1813" d="M79,152.2c0,0-0.3,0.4,0.3,0.8c0,0,0.9,0.7,1,2.3c0,0,0,1.3-0.3,1.8c0,0-0.3,0.5-0.1,0.8
				c0,0,0.1,0.2,0.5,0.2c0,0,0.3,0,0.5-0.5c0,0,0.8-1.6,0.3-3.4c0,0-0.5-1.6-1.3-2.2C79.8,152.1,79.3,151.8,79,152.2z"/>
			<g>
				<g>
					<path fill="none" stroke="#231F20" stroke-width="6.005700e-02" d="M74.2,152.5c0,0,0.1,0.3,0.3,0.4"/>
					<path fill="none" stroke="#231F20" stroke-width="6.005700e-02" d="M74,152.7c0,0,0.3,0.3,0.4,0.4"/>
				</g>
				<g>
					<path fill="none" stroke="#231F20" stroke-width="6.005700e-02" d="M73.8,153.1L73.8,153.1c0.1,0.1,0.2,0.2,0.1,0.3l-0.1,0.1"
						/>
					<path fill="none" stroke="#231F20" stroke-width="6.005700e-02" d="M73.9,153.1l0.1,0.1c0,0,0.2,0.1,0,0.3l-0.2,0.2"/>
				</g>
				<g>
					<path fill="none" stroke="#231F20" stroke-width="6.005700e-02" d="M73.4,153.7l0.1,0.1c0,0,0.1,0,0.1,0.2l-0.1,0.2"/>
					<path fill="none" stroke="#231F20" stroke-width="6.005700e-02" d="M73.5,153.6l0.2,0.1c0,0,0.2,0.1,0.1,0.2l-0.1,0.2"/>
				</g>
				<g>
					<path fill="none" stroke="#231F20" stroke-width="6.005700e-02" d="M73.1,154.3l0.1,0c0,0,0.1,0,0.1,0.1l0,0.2"/>
					<path fill="none" stroke="#231F20" stroke-width="6.005700e-02" d="M73.2,154.1l0.2,0c0,0,0.2,0,0.2,0.2l0,0.2"/>
				</g>
				<g>
					<path fill="none" stroke="#231F20" stroke-width="6.005700e-02" d="M73,154.9l0.1,0c0,0,0.2,0,0.1,0.1l0,0.2"/>
					<path fill="none" stroke="#231F20" stroke-width="6.005700e-02" d="M73,154.8l0.2,0c0,0,0.2,0,0.2,0.2l0,0.2"/>
				</g>
				<g>
					<path fill="none" stroke="#231F20" stroke-width="6.005700e-02" d="M72.9,155.5l0.1,0c0,0,0.1,0,0.1,0.1l0,0.2"/>
					<path fill="none" stroke="#231F20" stroke-width="6.005700e-02" d="M72.9,155.4l0.2,0c0,0,0.2,0,0.2,0.2l0,0.3"/>
				</g>
				<g>
					<path fill="none" stroke="#231F20" stroke-width="6.005700e-02" d="M73,156.2l0.1,0c0,0,0.1,0,0.2,0.1l0,0.2"/>
					<path fill="none" stroke="#231F20" stroke-width="6.005700e-02" d="M73,156l0.2,0c0,0,0.2,0,0.2,0.1l0,0.2"/>
				</g>
				<g>
					<path fill="none" stroke="#231F20" stroke-width="6.005700e-02" d="M73.2,156.8l0.1,0c0,0,0.1-0.1,0.2,0l0.1,0.2"/>
					<path fill="none" stroke="#231F20" stroke-width="6.005700e-02" d="M73.1,156.7l0.2-0.1c0,0,0.2-0.1,0.2,0.1l0.1,0.2"/>
				</g>
				<g>
					<path fill="none" stroke="#231F20" stroke-width="6.005700e-02" d="M73.5,157.4l0.1-0.1c0,0,0.1-0.1,0.2,0l0.1,0.2"/>
					<path fill="none" stroke="#231F20" stroke-width="6.005700e-02" d="M73.4,157.3l0.2-0.1c0,0,0.2-0.1,0.3,0l0.1,0.2"/>
				</g>
				<path fill="none" stroke="#231F20" stroke-width="6.005700e-02" d="M78.6,152.4c0,0-0.1,0.3-0.3,0.4"/>
				<path fill="none" stroke="#231F20" stroke-width="6.005700e-02" d="M78.9,152.5c0,0-0.3,0.3-0.4,0.4"/>
				<path fill="none" stroke="#231F20" stroke-width="6.005700e-02" d="M79.1,153L79.1,153c-0.1,0.1-0.2,0.2-0.1,0.3l0.1,0.1"/>
				<path fill="none" stroke="#231F20" stroke-width="6.005700e-02" d="M79,152.9l-0.1,0.1c0,0-0.2,0.1,0,0.3l0.2,0.2"/>
				<path fill="none" stroke="#231F20" stroke-width="6.005700e-02" d="M77.8,152.2l0,0.1c0,0-0.1,0.1,0.1,0.2l0.2,0.1"/>
				<path fill="none" stroke="#231F20" stroke-width="6.005700e-02" d="M77.7,152.2l-0.1,0.2c0,0-0.1,0.2,0.1,0.2l0.2,0.1"/>
				<path fill="none" stroke="#231F20" stroke-width="6.005700e-02" d="M79.5,153.5l-0.1,0.1c0,0-0.1,0-0.1,0.2l0.1,0.2"/>
				<path fill="none" stroke="#231F20" stroke-width="6.005700e-02" d="M79.4,153.4l-0.2,0.1c0,0-0.2,0.1-0.1,0.2l0.1,0.2"/>
				<path fill="none" stroke="#231F20" stroke-width="6.005700e-02" d="M79.8,154.1l-0.1,0c0,0-0.1,0-0.1,0.2l0.1,0.2"/>
				<path fill="none" stroke="#231F20" stroke-width="6.005700e-02" d="M79.7,154l-0.2,0.1c0,0-0.2,0-0.1,0.2l0.1,0.2"/>
				<path fill="none" stroke="#231F20" stroke-width="6.005700e-02" d="M80,154.7l-0.1,0c0,0-0.2,0-0.1,0.1l0,0.2"/>
				<path fill="none" stroke="#231F20" stroke-width="6.005700e-02" d="M80,154.6l-0.2,0c0,0-0.2,0-0.2,0.2l0,0.2"/>
				<path fill="none" stroke="#231F20" stroke-width="6.005700e-02" d="M80.1,155.4H80c0,0-0.1,0-0.1,0.1l0,0.2"/>
				<path fill="none" stroke="#231F20" stroke-width="6.005700e-02" d="M80.1,155.3l-0.2,0c0,0-0.2,0-0.2,0.2l0,0.3"/>
				<path fill="none" stroke="#231F20" stroke-width="6.005700e-02" d="M80.1,156l-0.1,0c0,0-0.1,0-0.2,0.1l0,0.2"/>
				<path fill="none" stroke="#231F20" stroke-width="6.005700e-02" d="M80,155.9l-0.2,0c0,0-0.2-0.1-0.2,0.1l0,0.2"/>
				<path fill="none" stroke="#231F20" stroke-width="6.005700e-02" d="M79.9,156.6l-0.1,0c0,0-0.1-0.1-0.2,0.1l0,0.2"/>
				<path fill="none" stroke="#231F20" stroke-width="6.005700e-02" d="M79.9,156.5l-0.2,0c0,0-0.2-0.1-0.2,0.1l-0.1,0.2"/>
				<path fill="none" stroke="#231F20" stroke-width="6.005700e-02" d="M79.7,157.2l-0.1-0.1c0,0-0.1-0.1-0.2,0l-0.1,0.2"/>
				<path fill="none" stroke="#231F20" stroke-width="6.005700e-02" d="M79.7,157.1l-0.2-0.1c0,0-0.2-0.1-0.3,0l-0.1,0.2"/>
				<path fill="none" stroke="#231F20" stroke-width="6.005700e-02" d="M74.9,152.3L74.9,152.3c0.1,0.1,0.1,0.2,0,0.3l-0.2,0.1"/>
			</g>
			<g>
				<path fill="#231F20" d="M75.4,152.9C75.4,152.9,75.4,152.9,75.4,152.9C75.3,153,75.3,152.9,75.4,152.9
					C75.3,152.8,75.3,152.8,75.4,152.9C75.3,152.8,75.3,152.8,75.4,152.9z"/>
				<g>
					<circle fill="#231F20" cx="77.6" cy="152.7" r="0"/>
					<g>
						<path fill="#231F20" d="M74,154.5C74,154.5,73.9,154.6,74,154.5C73.9,154.6,73.9,154.5,74,154.5
							C73.9,154.5,73.9,154.4,74,154.5C74,154.4,74,154.5,74,154.5z"/>
						<g>
							<path fill="#231F20" d="M74.6,153.2C74.6,153.2,74.6,153.2,74.6,153.2c0,0.1,0,0.1,0,0.1C74.6,153.3,74.5,153.3,74.6,153.2
								C74.5,153.2,74.6,153.2,74.6,153.2C74.6,153.2,74.6,153.2,74.6,153.2z"/>
							<path fill="#231F20" d="M73.9,154.1C73.9,154.1,73.9,154.1,73.9,154.1c0.1,0.1,0.1,0.1,0,0.1
								C73.9,154.2,73.8,154.2,73.9,154.1C73.8,154.2,73.8,154.1,73.9,154.1C73.9,154.1,73.9,154.1,73.9,154.1z"/>
							<path fill="#231F20" d="M73.6,155.2C73.6,155.2,73.6,155.2,73.6,155.2C73.6,155.2,73.6,155.3,73.6,155.2
								C73.6,155.3,73.6,155.3,73.6,155.2C73.5,155.3,73.5,155.2,73.6,155.2C73.6,155.2,73.6,155.2,73.6,155.2z"/>
							<path fill="#231F20" d="M73.6,156.4C73.7,156.4,73.7,156.4,73.6,156.4C73.7,156.4,73.7,156.4,73.6,156.4
								C73.7,156.5,73.7,156.5,73.6,156.4C73.6,156.5,73.6,156.4,73.6,156.4C73.6,156.4,73.6,156.4,73.6,156.4z"/>
							<path fill="#231F20" d="M78.2,153.1C78.2,153.1,78.2,153.2,78.2,153.1c0,0.1,0,0.1,0,0.1C78.3,153.2,78.3,153.2,78.2,153.1
								C78.3,153.1,78.3,153.1,78.2,153.1C78.2,153.1,78.2,153.1,78.2,153.1z"/>
							<path fill="#231F20" d="M79,154C79,154,79,154,79,154c-0.1,0.1,0,0.1,0,0.1C79.1,154.1,79.1,154.1,79,154
								C79.1,154,79.1,154,79,154C79.1,154,79.1,154,79,154z"/>
							<path fill="#231F20" d="M79.4,155.1C79.4,155,79.4,155.1,79.4,155.1C79.4,155.1,79.4,155.1,79.4,155.1
								C79.4,155.2,79.5,155.2,79.4,155.1C79.5,155.1,79.5,155.1,79.4,155.1C79.5,155.1,79.5,155.1,79.4,155.1z"/>
							<path fill="#231F20" d="M79.4,156.3C79.4,156.2,79.4,156.2,79.4,156.3C79.4,156.3,79.3,156.3,79.4,156.3
								C79.4,156.4,79.4,156.4,79.4,156.3C79.5,156.3,79.5,156.3,79.4,156.3C79.5,156.3,79.4,156.3,79.4,156.3z"/>
							<g>
								
									<ellipse transform="matrix(0.91 -0.4146 0.4146 0.91 -56.6328 45.0068)" fill="#231F20" cx="75.3" cy="152.9" rx="0.2" ry="0"/>
								<circle fill="#231F20" cx="75.3" cy="152.8" r="0"/>
								<path fill="#231F20" d="M75.3,153.2c0,0-0.1-0.1,0-0.2c0,0,0.2-0.2,0.3,0c0,0,0.1,0.1,0,0.1c0,0,0,0,0,0c0,0,0-0.1-0.1,0
									C75.4,153.1,75.3,153.1,75.3,153.2C75.3,153.2,75.4,153.3,75.3,153.2z"/>
								<path fill="#231F20" d="M74.7,153.2l0.1-0.2c0,0,0-0.1,0.2-0.1c0,0,0,0,0,0.1l-0.1,0c0,0,0,0,0,0.1c0,0,0,0-0.1,0.1
									c0,0-0.1,0-0.1,0.1C74.9,153.3,74.8,153.4,74.7,153.2C74.8,153.3,74.8,153.2,74.7,153.2C74.6,153.3,74.6,153.2,74.7,153.2z"
									/>
								<path fill="#231F20" d="M73.9,154.1l0.1-0.2c0,0,0-0.1,0.2-0.2c0,0,0.1,0,0,0.1l-0.1,0.1c0,0,0,0.1,0.1,0.1c0,0,0.1,0,0,0.1
									c0,0-0.1,0.1,0,0.1c0,0,0,0.1-0.1,0C74,154.1,74,154,73.9,154.1C73.9,154.1,73.9,154.1,73.9,154.1z"/>
								<path fill="#231F20" d="M73.6,155.1l0-0.2c0,0-0.1-0.1,0.1-0.2c0,0,0.1,0,0,0l0,0.1c0,0,0,0.1,0.1,0c0,0,0.1,0,0,0.1
									c0,0,0,0.1,0,0.1c0,0,0,0.1-0.1,0.1C73.7,155.1,73.7,155.1,73.6,155.1C73.6,155.2,73.6,155.2,73.6,155.1z"/>
								<path fill="#231F20" d="M73.7,156.3l-0.1-0.2c0,0-0.1-0.1,0-0.2c0,0,0.1,0,0.1,0l0,0.1c0,0,0,0.1,0.1,0c0,0,0.1,0,0,0.1
									c0,0,0,0.1,0,0.1c0,0,0.1,0.1,0,0.1C73.8,156.3,73.7,156.3,73.7,156.3C73.7,156.4,73.7,156.4,73.7,156.3z"/>
								<path fill="#231F20" d="M74.1,153.3c0,0,0.1,0.1,0.2,0.2c0,0,0,0,0,0c0,0,0.3,0,0.2,0.1c0,0-0.1,0.2-0.2,0.1
									c0,0-0.1-0.2-0.1-0.2L74.1,153.3z"/>
								<path fill="#231F20" d="M73.3,155.6c0,0,0.1,0,0.2,0c0,0,0,0,0,0c0,0,0.2-0.2,0.2-0.1c0,0,0.1,0.2,0,0.2c0,0-0.2,0-0.2-0.1
									L73.3,155.6z"/>
								<path fill="#231F20" d="M74.5,153.9C74.5,153.9,74.6,153.9,74.5,153.9l0.1-0.2l0.2,0c0,0,0-0.1,0-0.1l-0.1,0
									c0,0-0.1,0.1-0.1,0.1L74.5,153.9z"/>
								<g>
									
										<ellipse transform="matrix(0.2983 -0.9545 0.9545 0.2983 -95.6076 178.9085)" fill="#231F20" cx="73.9" cy="154.5" rx="0.2" ry="0"/>
									<path fill="#231F20" d="M73.8,154.4C73.8,154.4,73.9,154.5,73.8,154.4C73.9,154.5,73.8,154.5,73.8,154.4
										C73.7,154.5,73.7,154.4,73.8,154.4C73.7,154.4,73.8,154.4,73.8,154.4z"/>
									<circle fill="#231F20" cx="73.7" cy="154.4" r="0"/>
									<path fill="#231F20" d="M74,154.7c0,0-0.1,0-0.1-0.1c0,0,0-0.2,0.2-0.2c0,0,0.1,0,0.1,0.1c0,0,0,0,0,0c0,0-0.1,0-0.1,0.1
										C74,154.5,74,154.6,74,154.7C74,154.6,74.2,154.7,74,154.7z"/>
								</g>
								<g>
									
										<ellipse transform="matrix(-0.3606 -0.9327 0.9327 -0.3606 -45.5074 282.1069)" fill="#231F20" cx="73.9" cy="156.7" rx="0.2" ry="0"/>
									<path fill="#231F20" d="M73.9,156.6C73.9,156.6,73.9,156.6,73.9,156.6C73.9,156.7,73.9,156.7,73.9,156.6
										C73.8,156.7,73.8,156.7,73.9,156.6C73.8,156.7,73.8,156.7,73.9,156.6z"/>
									<circle fill="#231F20" cx="73.8" cy="156.7" r="0"/>
									<path fill="#231F20" d="M74.2,156.7c0,0-0.1,0.1-0.2,0c0,0-0.1-0.2,0-0.3c0,0,0.1-0.1,0.1,0c0,0,0,0,0,0c0,0-0.1,0,0,0.1
										C74.1,156.6,74.1,156.7,74.2,156.7C74.2,156.7,74.3,156.6,74.2,156.7z"/>
								</g>
								<path fill="#231F20" d="M74,156.6C74.1,156.6,74.1,156.7,74,156.6C74,156.7,74,156.7,74,156.6C74,156.6,74,156.6,74,156.6
									C74,156.6,74,156.6,74,156.6z"/>
								<path fill="#231F20" d="M74,155.4C74,155.4,74,155.5,74,155.4L74,155.4c-0.1,0.1-0.1,0.1-0.2,0.1l0,0c0,0,0,0,0-0.1
									L74,155.4C74,155.4,74,155.4,74,155.4L74,155.4z"/>
								<path fill="#231F20" d="M73.9,155.7C73.9,155.7,73.9,155.7,73.9,155.7L73.9,155.7c0.1,0.1,0.1,0.1,0.2,0.1l0,0
									c0,0,0-0.1,0-0.1L73.9,155.7C73.9,155.6,73.9,155.7,73.9,155.7L73.9,155.7z"/>
								
									<ellipse transform="matrix(-0.9136 -0.4066 0.4066 -0.9136 86.1231 324.0084)" fill="#231F20" cx="77.5" cy="152.9" rx="0.2" ry="0"/>
								
									<ellipse transform="matrix(-0.9533 -0.3019 0.3019 -0.9533 105.2991 321.822)" fill="#231F20" cx="77.5" cy="152.8" rx="0" ry="0.1"/>
								<path fill="#231F20" d="M77.5,153.1c0,0,0.1-0.1,0-0.2c0,0-0.2-0.2-0.3,0c0,0-0.1,0.1,0,0.1c0,0,0,0,0,0c0,0,0-0.1,0.1,0
									C77.4,153,77.5,153,77.5,153.1C77.5,153.1,77.5,153.2,77.5,153.1z"/>
								<path fill="#231F20" d="M78.2,153.1L78,153c0,0,0-0.1-0.2-0.1c0,0,0,0,0,0.1l0.1,0c0,0,0,0,0,0.1c0,0,0,0,0.1,0.1
									c0,0,0.1,0,0.1,0.1C78,153.2,78,153.3,78.2,153.1C78.1,153.2,78.1,153.1,78.2,153.1C78.2,153.2,78.2,153.2,78.2,153.1z"/>
								<path fill="#231F20" d="M79,153.9l-0.1-0.2c0,0,0-0.1-0.2-0.1c0,0,0,0,0,0.1l0.1,0.1c0,0,0,0.1-0.1,0.1c0,0-0.1,0,0,0.1
									c0,0,0.1,0.1,0.1,0.1C78.8,153.9,78.8,154,79,153.9C78.9,154,78.9,153.9,79,153.9C79,154,79.1,154,79,153.9z"/>
								<path fill="#231F20" d="M79.4,155l0-0.2c0,0,0-0.1-0.1-0.2c0,0-0.1,0,0,0l0.1,0.1c0,0,0,0.1-0.1,0.1c0,0-0.1,0,0,0.1
									c0,0,0,0.1,0,0.1c0,0,0,0.1,0.1,0.1C79.3,155,79.3,155,79.4,155C79.4,155.1,79.4,155.1,79.4,155z"/>
								<path fill="#231F20" d="M79.4,156.2l0-0.2c0,0,0.1-0.1-0.1-0.2c0,0-0.1,0-0.1,0l0,0.1c0,0,0,0.1-0.1,0c0,0-0.1,0,0,0.1
									c0,0,0,0.1,0,0.1c0,0,0,0.1,0.1,0.1C79.3,156.2,79.4,156.1,79.4,156.2C79.4,156.3,79.4,156.3,79.4,156.2z"/>
								<path fill="#231F20" d="M78.8,153.2c0,0-0.1,0.1-0.2,0.2c0,0,0,0,0,0c0,0-0.3,0-0.2,0.1c0,0,0.1,0.2,0.2,0.1
									c0,0,0.1-0.2,0.1-0.2L78.8,153.2z"/>
								<path fill="#231F20" d="M79.7,155.5c0,0-0.1,0-0.2,0c0,0,0,0,0,0c0,0-0.2-0.2-0.2-0.1c0,0-0.1,0.2,0,0.2c0,0,0.2,0,0.2-0.1
									L79.7,155.5z"/>
								<path fill="#231F20" d="M78.3,153.8C78.3,153.8,78.3,153.9,78.3,153.8l-0.1-0.2l-0.2,0c0,0,0-0.1,0-0.1l0.1,0
									c0,0,0.1,0.1,0.1,0.1L78.3,153.8z"/>
								<g>
									
										<ellipse transform="matrix(-0.295 -0.9555 0.9555 -0.295 -45.142 275.4)" fill="#231F20" cx="79" cy="154.4" rx="0.2" ry="0"/>
									<path fill="#231F20" d="M79.1,154.3C79,154.3,79,154.3,79.1,154.3C79,154.4,79.1,154.4,79.1,154.3
										C79.2,154.3,79.2,154.3,79.1,154.3C79.2,154.3,79.1,154.3,79.1,154.3z"/>
									<path fill="#231F20" d="M79.1,154.3C79.1,154.3,79.1,154.3,79.1,154.3C79.2,154.4,79.2,154.4,79.1,154.3
										C79.2,154.3,79.2,154.3,79.1,154.3C79.2,154.2,79.2,154.2,79.1,154.3z"/>
									<path fill="#231F20" d="M78.8,154.6c0,0,0.1,0,0.1-0.1c0,0,0-0.2-0.2-0.2c0,0-0.1,0-0.1,0.1c0,0,0,0,0,0c0,0,0.1,0,0.1,0.1
										C78.9,154.4,78.9,154.5,78.8,154.6C78.8,154.5,78.7,154.6,78.8,154.6z"/>
								</g>
								
									<ellipse transform="matrix(-0.9694 0.2456 -0.2456 -0.9694 193.4131 284.6427)" fill="#231F20" cx="79" cy="154.4" rx="0" ry="0.1"/>
								<g>
									<path fill="#231F20" d="M79.2,156.4c0,0-0.1,0.1-0.1,0.2c0,0.1-0.1,0.2,0,0.2c0,0,0.1-0.1,0.1-0.2
										C79.2,156.5,79.2,156.4,79.2,156.4z"/>
									
										<ellipse transform="matrix(0.2617 -0.9651 0.9651 0.2617 -92.6565 192.064)" fill="#231F20" cx="79.2" cy="156.6" rx="0" ry="0.1"/>
									<path fill="#231F20" d="M79.3,156.6C79.3,156.6,79.2,156.6,79.3,156.6C79.2,156.7,79.3,156.7,79.3,156.6
										C79.3,156.7,79.3,156.6,79.3,156.6C79.3,156.6,79.3,156.6,79.3,156.6z"/>
									<path fill="#231F20" d="M78.9,156.6c0,0,0.1,0.1,0.2,0c0,0,0.1-0.2,0-0.3c0,0-0.1-0.1-0.1,0c0,0,0,0,0,0c0,0,0.1,0,0,0.1
										C79,156.5,78.9,156.6,78.9,156.6C78.9,156.6,78.8,156.6,78.9,156.6z"/>
								</g>
								<path fill="#231F20" d="M79,156.5C79,156.6,79,156.6,79,156.5C79.1,156.6,79.1,156.6,79,156.5
									C79.1,156.5,79.1,156.5,79,156.5C79.1,156.5,79,156.5,79,156.5z"/>
								<path fill="#231F20" d="M79,155.3C79,155.3,79,155.3,79,155.3L79,155.3c0.1,0.1,0.1,0.1,0.2,0.1l0,0c0,0,0-0.1,0-0.1
									L79,155.3C79,155.2,79,155.2,79,155.3L79,155.3z"/>
								<path fill="#231F20" d="M79.1,155.5C79.2,155.5,79.1,155.6,79.1,155.5L79.1,155.5c-0.1,0.1-0.1,0.1-0.2,0.1l0,0
									c0,0,0-0.1,0-0.1L79.1,155.5C79.1,155.5,79.1,155.5,79.1,155.5L79.1,155.5z"/>
								<path fill="#231F20" d="M74,157.2l0-0.2c0,0,0-0.1,0.1,0l0.1,0"/>
							</g>
						</g>
					</g>
				</g>
			</g>
			<g>
				<path fill="#FFFFFF" d="M74.7,155.9c0,0.1-0.1,0.1-0.1,0.1l0,0c-0.1,0-0.1-0.1-0.1-0.1v-0.2c0-0.1,0-0.1,0.1-0.1l0,0
					c0.1,0,0.1,0,0.1,0.1V155.9z"/>
				<path fill="#FFFFFF" d="M74.7,155.3c0,0.1-0.1,0.1-0.1,0.1l0,0c-0.1,0-0.1-0.1-0.1-0.1l0-0.2c0-0.1,0.1-0.1,0.1-0.1l0,0
					c0.1,0,0.1,0.1,0.1,0.1L74.7,155.3z"/>
				<path fill="#FFFFFF" d="M74.8,154.7c0,0.1-0.1,0.1-0.1,0.1l0,0c-0.1,0-0.1-0.1-0.1-0.1l0.1-0.2c0-0.1,0.1-0.1,0.1-0.1l0,0
					c0.1,0,0.1,0.1,0.1,0.1L74.8,154.7z"/>
				<path fill="#FFFFFF" d="M75.1,154.3c0,0-0.1,0-0.2,0l0,0c0,0,0-0.1,0-0.2l0.1-0.1c0,0,0.1,0,0.2,0l0,0c0,0,0,0.1,0,0.2
					L75.1,154.3z"/>
				<path fill="#FFFFFF" d="M78.3,155.8c0,0.1,0.1,0.1,0.1,0.1l0,0c0.1,0,0.1,0,0.1-0.1v-0.2c0-0.1-0.1-0.1-0.1-0.1l0,0
					c-0.1,0-0.1,0.1-0.1,0.1V155.8z"/>
				<path fill="#FFFFFF" d="M78.3,155.2c0,0.1,0.1,0.1,0.1,0.1l0,0c0.1,0,0.1-0.1,0.1-0.1l0-0.2c0-0.1-0.1-0.1-0.1-0.1l0,0
					c-0.1,0-0.1,0.1-0.1,0.1L78.3,155.2z"/>
				<path fill="#FFFFFF" d="M78.1,154.7c0,0.1,0.1,0.1,0.1,0.1l0,0c0.1,0,0.1-0.1,0.1-0.2l-0.1-0.2c0-0.1-0.1-0.1-0.1-0.1l0,0
					c-0.1,0-0.1,0.1-0.1,0.1L78.1,154.7z"/>
				<path fill="#FFFFFF" d="M77.8,154.2c0,0,0.1,0,0.2,0l0,0c0,0,0-0.1,0-0.2l-0.1-0.1c0,0-0.1,0-0.2,0l0,0c0,0,0,0.1,0,0.2
					L77.8,154.2z"/>
				<path fill="#FFFFFF" d="M75.6,153.9c-0.1,0-0.1,0-0.2,0l0,0c0-0.1,0-0.1,0-0.2l0.2-0.1c0.1,0,0.1,0,0.2,0l0,0c0,0.1,0,0.1,0,0.2
					L75.6,153.9z"/>
				<path fill="#FFFFFF" d="M77.3,153.9c0.1,0,0.1,0,0.2,0l0,0c0-0.1,0-0.1,0-0.2l-0.2-0.1c-0.1,0-0.1,0-0.2,0l0,0
					c0,0.1,0,0.1,0,0.2L77.3,153.9z"/>
				<path fill="#FFFFFF" d="M76.1,153.7c-0.1,0-0.1,0-0.1-0.1l0,0c0-0.1,0-0.1,0.1-0.1l0.2,0c0.1,0,0.1,0,0.1,0.1l0,0
					c0,0.1,0,0.1-0.1,0.1L76.1,153.7z"/>
				<path fill="#FFFFFF" d="M76.8,153.7c0.1,0,0.1,0,0.1-0.1l0,0c0-0.1,0-0.1-0.1-0.1l-0.2,0c-0.1,0-0.1,0-0.1,0.1l0,0
					c0,0.1,0,0.1,0.1,0.1L76.8,153.7z"/>
				<path fill="#FFFFFF" d="M74.8,156.2c0,0,0,0.1,0,0.1l-0.1,0c0,0-0.1,0-0.1,0l0,0c0,0,0-0.1,0-0.1l0.1,0
					C74.7,156.1,74.8,156.1,74.8,156.2L74.8,156.2z"/>
				<path fill="#FFFFFF" d="M78.2,156c0,0,0,0.1,0,0.1l0.1,0c0,0,0.1,0,0.1,0l0,0c0,0,0-0.1,0-0.1l-0.1,0
					C78.3,156,78.3,156,78.2,156L78.2,156z"/>
				<path fill="#FFFFFF" d="M74.5,156.2c0,0,0,0.1-0.1,0.1l0,0c0,0-0.1,0-0.1-0.1l0-0.1c0,0,0-0.1,0.1-0.1l0,0c0.1,0,0.1,0,0.1,0.1
					L74.5,156.2z"/>
				<path fill="#FFFFFF" d="M74.4,155.1C74.4,155.2,74.3,155.2,74.4,155.1L74.4,155.1c-0.1,0.1-0.2,0-0.2,0l0-0.2
					c0-0.1,0-0.1,0.1-0.1l0,0c0,0,0.1,0.1,0.1,0.1L74.4,155.1z"/>
				<path fill="#FFFFFF" d="M74.5,156.5C74.5,156.5,74.5,156.5,74.5,156.5L74.5,156.5c-0.1,0.1-0.2,0-0.2,0l0,0
					C74.4,156.4,74.4,156.4,74.5,156.5L74.5,156.5C74.5,156.4,74.5,156.4,74.5,156.5L74.5,156.5z"/>
				<path fill="#FFFFFF" d="M74.5,154.7C74.5,154.7,74.5,154.8,74.5,154.7L74.5,154.7c-0.1,0.1-0.2,0.1-0.2,0v0
					C74.3,154.6,74.3,154.6,74.5,154.7L74.5,154.7C74.5,154.6,74.5,154.6,74.5,154.7L74.5,154.7z"/>
				<path fill="#FFFFFF" d="M75.2,153.8c0,0-0.1,0-0.1,0l0,0c0,0,0-0.1,0-0.1l0,0c0,0,0.1,0,0.1,0l0,0
					C75.3,153.7,75.3,153.7,75.2,153.8L75.2,153.8z"/>
				<path fill="#FFFFFF" d="M74.6,154.5C74.6,154.5,74.6,154.6,74.6,154.5L74.6,154.5c-0.1,0.1-0.2,0-0.2,0v0
					C74.4,154.4,74.5,154.4,74.6,154.5L74.6,154.5C74.6,154.4,74.6,154.4,74.6,154.5L74.6,154.5z"/>
				<path fill="#FFFFFF" d="M75.1,153.9C75.1,153.9,75,154,75.1,153.9L75.1,153.9c-0.1,0.1-0.2,0-0.2,0v0
					C74.9,153.8,74.9,153.8,75.1,153.9L75.1,153.9C75,153.8,75.1,153.8,75.1,153.9L75.1,153.9z"/>
				<path fill="#FFFFFF" d="M74.7,154.3c0,0.1-0.1,0.1-0.1,0.1l0,0c0,0-0.1-0.1,0-0.1l0,0c0,0,0.1-0.1,0.1-0.1l0,0
					C74.7,154.2,74.7,154.2,74.7,154.3L74.7,154.3z"/>
				<path fill="#FFFFFF" d="M75.5,153.6c0,0-0.1,0-0.1,0l0,0c0,0,0-0.1,0-0.1l0,0c0,0,0.1,0,0.1,0l0,0
					C75.5,153.5,75.5,153.6,75.5,153.6L75.5,153.6z"/>
				<path fill="#FFFFFF" d="M75.7,153.4c0,0,0,0.1,0,0.1l0,0c0,0-0.1,0-0.1-0.1l0,0c0-0.1,0-0.1,0-0.1l0,0
					C75.6,153.3,75.7,153.4,75.7,153.4L75.7,153.4z"/>
				<path fill="#FFFFFF" d="M74.9,154.1c0,0.1-0.1,0.1-0.1,0.1l0,0c0,0-0.1-0.1,0-0.1l0,0c0,0,0.1-0.1,0.1-0.1l0,0
					C74.9,154,74.9,154,74.9,154.1L74.9,154.1z"/>
				<path fill="#FFFFFF" d="M76,153.3c0,0.1,0,0.1-0.1,0.1l-0.1,0c0,0-0.1,0-0.1-0.1l0,0c0,0,0-0.1,0.1-0.1l0.1,0
					C76,153.3,76,153.3,76,153.3L76,153.3z"/>
				<path fill="#FFFFFF" d="M78.6,156.1c0,0,0,0.1,0.1,0.1l0,0c0,0,0.1,0,0.1-0.1l0-0.1c0-0.1,0-0.1-0.1-0.1l0,0c0,0-0.1,0-0.1,0.1
					L78.6,156.1z"/>
				<path fill="#FFFFFF" d="M78.6,155c0,0.1,0.1,0.1,0.1,0.1l0,0c0,0,0.1-0.1,0.1-0.1l0-0.2c0-0.1-0.1-0.1-0.1-0.1l0,0
					c0,0-0.1,0.1-0.1,0.1L78.6,155z"/>
				<path fill="#FFFFFF" d="M78.5,156.3C78.5,156.3,78.5,156.4,78.5,156.3L78.5,156.3c0.1,0.1,0.1,0.1,0.2,0.1l0,0
					c0,0,0-0.1-0.1-0.1L78.5,156.3C78.6,156.3,78.5,156.3,78.5,156.3L78.5,156.3z"/>
				<path fill="#FFFFFF" d="M78.4,154.6C78.4,154.7,78.5,154.7,78.4,154.6L78.4,154.6c0.1,0.1,0.2,0.1,0.2,0v0
					C78.6,154.5,78.6,154.5,78.4,154.6L78.4,154.6C78.5,154.5,78.4,154.5,78.4,154.6L78.4,154.6z"/>
				<path fill="#FFFFFF" d="M77.6,153.7c0,0,0.1,0,0.1,0l0,0c0,0,0-0.1,0-0.1l0,0c0,0-0.1,0-0.1,0l0,0
					C77.6,153.6,77.6,153.7,77.6,153.7L77.6,153.7z"/>
				<path fill="#FFFFFF" d="M78.3,154.4C78.3,154.4,78.4,154.5,78.3,154.4L78.3,154.4c0.1,0.1,0.2,0,0.2,0v0
					C78.5,154.3,78.5,154.3,78.3,154.4L78.3,154.4C78.4,154.3,78.3,154.3,78.3,154.4L78.3,154.4z"/>
				<path fill="#FFFFFF" d="M77.8,153.8C77.8,153.9,77.9,153.9,77.8,153.8L77.8,153.8c0.1,0.1,0.2,0,0.2,0v0
					C78,153.8,78,153.7,77.8,153.8L77.8,153.8C77.9,153.7,77.8,153.8,77.8,153.8L77.8,153.8z"/>
				<path fill="#FFFFFF" d="M78.2,154.2c0,0.1,0.1,0.1,0.1,0.1l0,0c0,0,0.1-0.1,0-0.1l0,0c0,0-0.1-0.1-0.1,0l0,0
					C78.2,154.1,78.2,154.2,78.2,154.2L78.2,154.2z"/>
				<path fill="#FFFFFF" d="M77.4,153.6c0,0,0.1,0,0.1,0l0,0c0,0,0-0.1,0-0.1l0,0c0,0-0.1,0-0.1,0l0,0
					C77.4,153.5,77.4,153.6,77.4,153.6L77.4,153.6z"/>
				<path fill="#FFFFFF" d="M77.2,153.4c0,0,0,0.1,0,0.1l0,0c0,0,0.1,0,0.1,0l0,0c0,0,0-0.1,0-0.1l0,0
					C77.3,153.3,77.2,153.3,77.2,153.4L77.2,153.4z"/>
				<path fill="#FFFFFF" d="M78,154c0,0.1,0.1,0.1,0.1,0.1l0,0c0,0,0.1-0.1,0-0.1l0,0c0-0.1-0.1-0.1-0.1-0.1l0,0
					C78,153.9,78,154,78,154L78,154z"/>
				<path fill="#FFFFFF" d="M76.9,153.3c0,0,0,0.1,0.1,0.1l0.1,0c0,0,0.1,0,0.1-0.1l0,0c0-0.1,0-0.1-0.1-0.1l-0.1,0
					C76.9,153.2,76.9,153.3,76.9,153.3L76.9,153.3z"/>
			</g>
			<path fill="#231F20" stroke="#231F20" stroke-width="2.502300e-02" d="M75.1,156.1c0.1-0.1-0.1-0.1-0.1-0.1
				c-0.2,0-0.2-0.5-0.2-0.5c0-0.6,0.4-0.4,0.4-0.4c0.1,0.1,0.1-0.1,0.1-0.1l-0.2-0.4c-0.1-0.1,0.7-0.4,0.7-0.4c0.2-0.1,0.2,0,0.2,0
				l0.1,0.2c0.1,0.1,0.1,0.1,0.1,0.1l0.2-0.5v-0.1h0.1v0.1l0.2,0.5c0,0,0.1,0.1,0.1,0l0.1-0.2c0,0,0-0.1,0.1,0l0.7,0.3
				c0,0,0.2,0.1,0,0.3l-0.1,0.2c0,0-0.1,0.1,0.1,0.1c0,0,0.3-0.1,0.4,0c0,0,0.1,0.4,0.1,0.5c0,0,0,0.2-0.2,0.2c0,0-0.1,0.1,0,0.1
				c0,0-0.4-0.2-1.3-0.2C76.6,155.8,76.1,155.7,75.1,156.1z"/>
			<path fill="#FFFFFF" d="M76.1,154.5l-0.1-0.2c0,0,0-0.1-0.3,0c0,0-0.2,0.1-0.3,0.1c0,0-0.2,0,0,0.2l0.2,0.3c0,0,0.1,0.2,0,0.2
				c0,0-0.2,0-0.2,0c0,0-0.2-0.1-0.2,0.1c0,0-0.1,0.7,0.3,0.5c0,0,0.1-0.1,0.2-0.1c0,0,0,0,0,0c0,0,0,0.1,0.2,0c0,0,0.1,0,0-0.2
				c0,0-0.1-0.6,0.4-0.9C76.1,154.8,76.2,154.8,76.1,154.5z"/>
			<path fill="#FFFFFF" d="M76.9,154.5l0.1-0.2c0,0,0-0.1,0.3,0c0,0,0.3,0.1,0.3,0.1c0,0,0.2,0,0,0.2l-0.1,0.3c0,0-0.1,0.2,0,0.2
				c0,0,0.2,0,0.2,0c0,0,0.2-0.1,0.3,0.1c0,0,0.2,0.6-0.2,0.6c0,0-0.1-0.1-0.3-0.1c0,0,0,0,0,0c0,0,0,0.1-0.2,0c0,0-0.1,0,0-0.2
				c0,0,0.1-0.6-0.4-0.8C76.9,154.8,76.8,154.7,76.9,154.5z"/>
			<g>
				<path fill="#231F20" d="M75.2,155c0,0.1-0.1,0.1-0.2,0.1c-0.1,0-0.1-0.1-0.1-0.1c0-0.1,0.1-0.1,0.2-0.1
					C75.2,154.9,75.2,154.9,75.2,155z"/>
				
					<ellipse transform="matrix(-0.9509 0.3094 -0.3094 -0.9509 199.9203 278.0728)" fill="#231F20" cx="77.9" cy="154.9" rx="0.1" ry="0.1"/>
				<circle fill="#231F20" cx="75.4" cy="154.6" r="0.1"/>
				<path fill="#231F20" d="M75.9,154.4C75.9,154.5,75.9,154.5,75.9,154.4c-0.1,0-0.1,0-0.1,0C75.8,154.4,75.8,154.4,75.9,154.4
					C75.9,154.4,75.9,154.4,75.9,154.4z"/>
				<circle fill="#231F20" cx="75.2" cy="155.4" r="0.1"/>
				<circle fill="#231F20" cx="75.4" cy="155.4" r="0"/>
				<path fill="#231F20" d="M75.5,155.6C75.5,155.6,75.5,155.6,75.5,155.6C75.5,155.6,75.5,155.6,75.5,155.6
					C75.5,155.5,75.5,155.5,75.5,155.6C75.5,155.5,75.5,155.5,75.5,155.6z"/>
				<circle fill="#231F20" cx="75.5" cy="155.7" r="0"/>
				<circle fill="#231F20" cx="77.6" cy="154.6" r="0"/>
				<circle fill="#231F20" cx="77.1" cy="154.4" r="0.1"/>
				<path fill="#231F20" d="M77.8,155.3C77.8,155.3,77.8,155.3,77.8,155.3c0.1,0,0.1,0,0.1,0C77.9,155.2,77.9,155.2,77.8,155.3
					C77.8,155.2,77.8,155.2,77.8,155.3z"/>
				<circle fill="#231F20" cx="77.6" cy="155.3" r="0"/>
				<circle fill="#231F20" cx="77.5" cy="155.5" r="0"/>
				<circle fill="#231F20" cx="77.6" cy="155.6" r="0"/>
			</g>
			<g>
				<path fill="#FFFFFF" d="M76.2,155.1c0,0,0,0.1,0,0.1c0,0,0.1,0,0,0c0,0,0,0,0.1,0c0,0,0.1,0,0.1,0c0,0,0,0.1,0,0.2
					c0,0,0,0,0,0.1c0,0,0,0.1-0.1,0c0,0-0.1,0-0.1,0.1c0,0,0,0.1-0.1,0C76.1,155.7,76,155.5,76.2,155.1
					C76.1,155.1,76.2,155.1,76.2,155.1z"/>
				<path fill="#FFFFFF" d="M76.8,155.1c0,0,0,0.1,0,0.1c0,0-0.1,0,0,0c0,0,0,0-0.1,0c0,0-0.1,0-0.1,0c0,0,0,0.1,0,0.2
					c0,0,0,0,0,0.1c0,0,0,0.1,0.1,0c0,0,0.1,0,0.1,0.1c0,0,0,0.1,0.1,0C76.9,155.7,77.1,155.5,76.8,155.1
					C76.9,155.1,76.8,155.1,76.8,155.1z"/>
				<path fill="#FFFFFF" d="M75.9,155.2c0,0,0.1,0,0,0.2c0,0-0.1,0.1,0,0.2c0,0,0,0.2-0.1,0.2c0,0-0.1,0-0.1-0.4
					C75.8,155.4,75.8,155.1,75.9,155.2z"/>
				<path fill="#FFFFFF" d="M77.1,155.1c0,0-0.1,0,0,0.2c0,0,0.1,0.1,0,0.2c0,0,0,0.2,0.1,0.2c0,0,0.1,0,0.1-0.4
					C77.2,155.3,77.2,155.1,77.1,155.1z"/>
				
					<ellipse transform="matrix(0.8607 0.509 -0.509 0.8607 89.4956 -17.2633)" fill="#FFFFFF" cx="76.3" cy="154.9" rx="0.1" ry="0.1"/>
				
					<ellipse transform="matrix(0.8728 0.488 -0.488 0.8728 85.3144 -17.428)" fill="#FFFFFF" cx="76.1" cy="155" rx="0.1" ry="0.1"/>
				<path fill="#FFFFFF" d="M76.7,155C76.7,155,76.7,155,76.7,155C76.8,155,76.8,154.9,76.7,155C76.7,154.9,76.7,154.9,76.7,155
					C76.7,154.9,76.7,154.9,76.7,155z"/>
				<path fill="#FFFFFF" d="M76.9,155C76.9,155,76.9,155,76.9,155C77,155,77,155,76.9,155C76.9,154.9,76.9,154.9,76.9,155
					C76.9,154.9,76.9,155,76.9,155z"/>
				<ellipse fill="#FFFFFF" cx="76.5" cy="154.2" rx="0.1" ry="0.1"/>
				<path fill="#FFFFFF" d="M76.5,154.6C76.5,154.7,76.5,154.7,76.5,154.6c-0.1,0.1-0.1,0-0.1,0C76.4,154.6,76.4,154.5,76.5,154.6
					C76.5,154.5,76.5,154.6,76.5,154.6z"/>
			</g>
			<path fill="#231F20" stroke="#231F20" stroke-width="3.503400e-02" d="M75,150.3c-0.1-0.1-0.8,0.3-0.8,0.3
				c-0.4,0.2-0.2,0.3-0.2,0.3l0.2,0.3c0.2,0.2-0.1,0.4-0.1,0.4c-1.5,0.9-2,2.5-2,2.5c-0.5,1.5,0,2.8,0,2.8c0.4,1.4,1.2,2,1.2,2
				c0.2,0.1,0.1,0.3,0.1,0.3l-0.1,0.2c-0.1,0.1-0.1,0.2-0.1,0.2l0.6,0.5c0,0.1,0.1,0.2,0.1,0.2l-0.6,0.1c-0.3,0-0.1,0.2-0.1,0.2
				c0.3,0.6,0.8,1.2,0.8,1.2c-1.3-0.3-2.7-2-2.7-2c-0.3-0.3-0.1-0.5-0.1-0.5l0.2-0.2c0.2-0.1,0-0.3,0-0.3c-1.2-1.9-0.8-3.9-0.8-3.9
				c0.3-2.3,1.9-3.5,1.9-3.5c0.3-0.2,0-0.4,0-0.4l-0.2-0.2c0,0-0.2-0.2,0.1-0.4c0,0,0.6-0.5,1.1-0.7c0.4-0.2,0.6-0.3,0.8-0.4
				c0.2-0.1,0.5-0.2,0.5-0.2l-0.1,0.3l0.2,0.7L75,150.3"/>
			<path fill="#231F20" stroke="#231F20" stroke-width="3.503400e-02" d="M77.9,150.1c0.1-0.1,0.7,0.2,0.7,0.2
				c0.4,0.2,0.2,0.3,0.2,0.3l-0.4,0.4c-0.2,0.2,0.1,0.3,0.3,0.4c0.4,0.2,0.8,0.4,1.1,0.7c0.8,0.8,1.1,1.6,1.1,1.6
				c0.6,1.5,0.2,2.8,0.2,2.8c-0.3,1.5-1.1,2.1-1.1,2.1c-0.3,0.3-0.1,0.3-0.1,0.3c0.3,0.2,0.2,0.3,0.2,0.3l-0.5,0.5
				c-0.1,0.1-0.2,0.2-0.2,0.1L80,160c0.2,0,0.5,0,0.5,0c-0.2,0.6-0.9,1.5-0.9,1.5c1.2-0.3,2.3-1.7,2.3-1.7c0.7-0.8,0.4-1,0.4-1
				l-0.2-0.2c-0.2-0.1-0.1-0.3-0.1-0.3c1-1.9,0.6-3.9,0.6-3.9c-0.3-2.2-2.2-3.6-2.2-3.6c-0.2-0.1,0-0.3,0-0.3l0.2-0.2
				c0,0,0.2-0.2,0-0.4l-1.3-0.8v0.1l0,0l-0.1,0l-0.1-0.1l-0.2-0.2l-0.2-0.1l-0.2,0l-0.1,0.2l-0.2,0.7L77.9,150.1"/>
			<path fill="none" stroke="#231F20" stroke-width="6.005700e-02" d="M75.7,152.5c0,0,0.2,0.3,0.2,0.4"/>
			<path fill="none" stroke="#231F20" stroke-width="6.005700e-02" d="M75.6,152.6c0,0,0.2,0.2,0.2,0.3"/>
			<path fill="#FFFFFF" d="M76,152.3C76,152.3,76,152.4,76,152.3C76.1,152.3,76.1,152.3,76,152.3C76,152.2,76,152.2,76,152.3
				C75.9,152.2,75.9,152.3,76,152.3z"/>
			<g>
				<path fill="#BA9C67" d="M73.5,161.4c0,0-1.4-0.7-2.4-2c0,0,0-0.2,0.1-0.2c0,0,0.1,0,0.5,0.5c0,0,0.4,0.5,0.6,0.2l0.4-0.4
					l0.6,0.5l-0.5,0.1c0,0-0.2,0-0.1,0.2C72.7,160.3,73.1,161.3,73.5,161.4z"/>
				<path fill="#BA9C67" stroke="#A9906F" stroke-width="3.503400e-02" d="M72.5,159.7l0.5-0.6c0,0,0.1-0.1,0-0.2c0,0-0.7-0.6-1-1.7
					c0,0-0.3-0.7-0.3-1.7c0,0,0-0.8,0.3-1.8c0,0,0.3-0.8,0.9-1.4c0,0,0.6-0.6,1.1-0.9c0,0,0.1-0.1,0-0.2c0,0-0.1-0.1-0.3,0.1
					l-0.4,0.3c0,0-0.2,0.1-0.4-0.1l-0.3-0.4c0,0,0-0.1-0.2,0c0,0-0.8,0.8-1.1,1.4c0,0-0.4,0.7-0.7,1.7c0,0-0.2,1-0.1,2
					c0,0,0.1,1.4,0.9,2.5c0,0,0.6,0.8,0.8,0.9C72.3,159.7,72.4,159.8,72.5,159.7z"/>
				<path fill="#BA9C67" stroke="#A9906F" stroke-width="3.503400e-02" d="M73,151.2c0,0,0.6-0.6,1.6-0.9c0,0,0.2-0.1,0.1-0.2
					c0,0-0.2-0.5-0.2-0.6c0,0-0.1-0.3-0.2-0.4c0,0-0.1-0.1-0.3,0.1c0,0-0.6,0.2-1,0.5c0,0-0.8,0.5-0.9,0.6c0,0-0.1,0.1,0.1,0.3
					l0.5,0.6C72.8,151.1,72.9,151.3,73,151.2z"/>
				<path fill="#BA9C67" d="M79.5,149.5c0.6,0.3,0.6,0.3,0.8,0.5c0,0,0.4,0.2,0,0.5l-0.2,0.2l-0.4,0.5l-0.4-0.2c0,0,0-0.1,0-0.1
					c0-0.1-0.1-0.1-0.1-0.1c-0.1-0.1,0.1-0.2,0.1-0.3l0-0.8L79.5,149.5L79.5,149.5L79.5,149.5z"/>
				<path fill="#BA9C67" d="M78.7,151.1c0,0,0-0.2,0.2-0.1c0,0,0.4,0.2,0.5,0.3c0,0,0.2,0.2,0.4,0c0,0,0.3-0.3,0.3-0.5
					c0,0,0-0.1,0.1,0c0,0,1.3,1.1,1.7,2.2c0,0,0.5,1.2,0.6,2.5c0,0,0.1,0.9-0.4,2.1c0,0-0.4,1.2-1,1.8c0,0-0.1,0.2-0.3,0l-0.6-0.5
					c0,0-0.1-0.1,0-0.2c0,0,0.5-0.7,0.6-0.7c0,0,0.4-0.9,0.5-1.7c0,0,0.1-0.6,0-1.2c0,0-0.1-0.8-0.6-1.8c0,0-0.4-0.9-1.3-1.4
					c0,0-0.5-0.4-0.7-0.4C78.7,151.3,78.6,151.2,78.7,151.1z"/>
				<path fill="#BA9C67" d="M80,161.3c0,0,1.4-0.8,2.2-2.2c0,0,0-0.2-0.2-0.1c0,0-0.1,0-0.4,0.5c0,0-0.3,0.5-0.6,0.2l-0.5-0.4
					l-0.5,0.5l0.5,0c0,0,0.2,0,0.1,0.2C80.7,160.1,80.3,161.1,80,161.3z"/>
			</g>
			<g>
				<circle fill="#FFFFFF" stroke="#231F20" stroke-width="6.005700e-02" cx="76.6" cy="159" r="3.2"/>
				<path fill="none" stroke="#231F20" stroke-width="6.005700e-02" d="M77.6,156.3c0,0,1,0.7,1.2,0.8"/>
				<path fill="none" stroke="#231F20" stroke-width="6.005700e-02" d="M74.3,157.3c0,0,1.2-0.9,1.3-1"/>
				<line fill="none" stroke="#231F20" stroke-width="6.005700e-02" x1="74.5" y1="158.3" x2="75.6" y2="158.6"/>
				<path fill="none" stroke="#231F20" stroke-width="6.005700e-02" d="M77.6,158.6c0,0,1-0.4,1.2-0.4"/>
				<path fill="none" stroke="#231F20" stroke-width="6.005700e-02" d="M77.3,159.8c0,0,0.6,0.8,0.7,1"/>
				<path fill="none" stroke="#231F20" stroke-width="6.005700e-02" d="M79.4,159c0,0-0.3,1.4-0.5,1.5"/>
				<path fill="none" stroke="#231F20" stroke-width="6.005700e-02" d="M75.3,160.7c0,0,0.6-0.9,0.7-0.9"/>
				<path fill="none" stroke="#231F20" stroke-width="6.005700e-02" d="M75.9,161.6c0,0,0.7,0.1,1.6,0"/>
				<path fill="none" stroke="#231F20" stroke-width="6.005700e-02" d="M74.3,160.5c0,0-0.4-0.7-0.5-1.4"/>
				<path fill="none" stroke="#231F20" stroke-width="6.005700e-02" d="M76.6,157.9c0,0,0-0.8-0.1-1.3"/>
			</g>
			<g>
				<path fill="#231F20" d="M75.6,155.9c0,0,0.8-0.3,1.7-0.1c0,0,0.2,0.4,0.3,0.5c0,0-0.9,0.2-1.1,0.4c0,0-0.1-0.3-1.1-0.4
					C75.5,156.4,75.8,156,75.6,155.9z"/>
				<path fill="#231F20" d="M73.9,157.3c0,0,0.3,0,0.4-0.1c0,0-0.1,1,0.2,1.1c0,0-0.2-0.1-0.7,1c0,0-0.2-0.4-0.4-0.3
					C73.5,158.9,73.4,158,73.9,157.3z"/>
				<path fill="#231F20" d="M74.1,160.9c0,0,0.2,0,0.1-0.5c0,0,0.2,0.3,1.1,0.3c0,0,0.3,0.9,0.7,1c0,0-0.6,0.1-0.4,0.3
					C75.6,162,74.8,161.7,74.1,160.9z"/>
				<path fill="#231F20" d="M77.9,160.7c0,0-0.4,0.9-0.7,1c0,0,0.5,0.1,0.4,0.3c0,0,0.9-0.3,1.5-1.1c0,0-0.2,0.2-0.2-0.4
					C79,160.4,78.3,160.8,77.9,160.7"/>
				<path fill="#231F20" d="M76.6,157.8c0,0-0.9,0.4-1.1,0.8c0,0,0.2,1,0.4,1.3c0,0,0.6,0.1,1.4,0c0,0,0.3-0.6,0.3-1.3
					C77.7,158.6,77.4,158.2,76.6,157.8z"/>
				<path fill="#231F20" d="M79.2,157.1c0,0-0.1,0.2-0.5-0.1c0,0,0.2,1,0,1.2c0,0,0.4,0.2,0.7,0.9c0,0,0.3-0.5,0.4-0.3
					C79.8,158.8,79.9,158.1,79.2,157.1z"/>
			</g>
			<g>
				<path fill="#231F20" d="M72.2,159.2L72.2,159.2l0.2,0.1l0.1-0.1l-0.1-0.1l0.1-0.1l0.1,0.1l0.2-0.2l0.1,0.1l-0.4,0.4L72.2,159.2z
					"/>
				<path fill="#231F20" d="M72.3,158.6L72.3,158.6l0.3,0.2l-0.5,0.4l-0.2-0.3l0.1-0.1l0.1,0.2l0.1-0.1l-0.1-0.2l0.1-0.1l0.1,0.2
					l0.1-0.1L72.3,158.6z"/>
				<path fill="#231F20" d="M71.9,158.6c0-0.1-0.1-0.1,0-0.1c0,0,0.1-0.1,0.2-0.1c0.1,0,0.1-0.1,0.2-0.1c0,0,0,0,0.1,0.1l0,0
					L71.9,158.6z M72.4,158.4l-0.1-0.1c0-0.1-0.1-0.1-0.1-0.1c0,0-0.1,0-0.1,0c0,0-0.1,0-0.2,0.1c-0.1,0.1-0.2,0.1-0.2,0.2
					c0,0,0,0.1,0,0.2l0.1,0.2L72.4,158.4z"/>
				<path fill="#231F20" d="M71.9,157.8L71.9,157.8l0.2,0.2l-0.5,0.3l-0.1-0.3l0.1,0l0.1,0.2l0.1-0.1l-0.1-0.2l0.1,0l0.1,0.2L72,158
					L71.9,157.8z"/>
				<path fill="#231F20" d="M71.4,157.8c0-0.1,0-0.1,0-0.1c0,0,0,0,0-0.1c0,0,0.1,0,0.1,0c0,0,0,0,0,0.1c0,0,0,0,0,0c0,0,0,0,0,0
					L71.4,157.8z M71.5,157.5C71.4,157.5,71.4,157.5,71.5,157.5c-0.1,0-0.2,0.1-0.2,0.1c0,0,0,0.1,0,0.1l0.1,0.2l0.6-0.2l0-0.1
					l-0.2,0.1c0-0.1,0-0.1,0-0.1c0,0,0,0,0.1-0.1c0,0,0.1,0,0.1,0s0,0,0,0l-0.1-0.1c0,0,0,0-0.1,0.1c0,0-0.1,0-0.1,0
					C71.6,157.4,71.5,157.4,71.5,157.5C71.5,157.5,71.5,157.5,71.5,157.5C71.5,157.5,71.5,157.5,71.5,157.5z"/>
				<path fill="#231F20" d="M71.2,157.2l0.2-0.1l0,0.1L71.2,157.2z M71.1,157.3l0.6,0l0-0.1l-0.2,0l0-0.1l0.1-0.1l0-0.1l-0.5,0.3
					L71.1,157.3z"/>
				<path fill="#231F20" d="M71.4,156.6l0-0.1c0.1,0,0.1,0,0.2,0c0,0,0.1,0.1,0.1,0.1c0,0.1,0,0.1,0,0.2c0,0-0.1,0.1-0.3,0.1
					c-0.1,0-0.2,0-0.2,0c0,0-0.1-0.1-0.1-0.1c0-0.1,0-0.1,0-0.1c0,0,0.1-0.1,0.1-0.1l0,0.1c0,0,0,0-0.1,0c0,0,0,0,0,0.1
					c0,0,0,0,0.1,0c0,0,0.1,0,0.1,0c0,0,0,0,0,0c0.1,0,0.2,0,0.2-0.1s0,0,0-0.1c0,0,0,0,0-0.1C71.5,156.6,71.4,156.6,71.4,156.6z"/>
				<path fill="#231F20" d="M70.9,156.4l0.6-0.1l0,0.1l-0.6,0.1L70.9,156.4z"/>
				<path fill="#231F20" d="M71,156.1C71,156.1,71,156.1,71,156.1c-0.1-0.1-0.1-0.1,0-0.1c0,0,0.1,0,0.2,0c0.1,0,0.1,0,0.2,0
					c0,0,0,0,0,0.1c0,0,0,0.1-0.1,0.1c0,0,0,0-0.1,0C71.1,156.1,71,156.1,71,156.1z M70.9,155.9c0,0-0.1,0.1,0,0.2
					c0,0.1,0,0.1,0.1,0.2c0,0,0.1,0,0.2,0c0.1,0,0.2,0,0.2-0.1c0.1,0,0.1-0.1,0.1-0.2c0-0.1,0-0.1-0.1-0.1c0,0-0.1,0-0.1,0
					c0,0-0.1,0-0.2,0C71,155.8,70.9,155.9,70.9,155.9z"/>
				<path fill="#231F20" d="M70.8,155.3l0.6,0l0,0.1l-0.4,0.2l0.4,0l0,0.1l-0.6,0l0-0.1l0.4-0.2l-0.4,0L70.8,155.3z"/>
				<path fill="#231F20" d="M70.9,154.4l0.6,0.1l0,0.1l-0.5-0.1l0.5,0.2l0,0.1l-0.6,0l0.5,0.1l0,0.1l-0.6-0.1l0-0.2l0.4,0l-0.4-0.1
					L70.9,154.4z"/>
				<path fill="#231F20" d="M71.5,154.1L71.5,154.1l0,0.3l-0.6-0.2l0.1-0.3l0.1,0l-0.1,0.2l0.1,0l0.1-0.2l0.1,0l-0.1,0.2l0.2,0
					L71.5,154.1z"/>
				<path fill="#231F20" d="M71.5,153.7l0.3,0l0,0.1l-0.2,0l0.2,0.2l0,0.1l-0.2-0.3l-0.3,0l0-0.1l0.2,0l-0.1-0.1l0-0.1L71.5,153.7z"
					/>
				<path fill="#231F20" d="M71.3,153.3l0.6,0.2l0,0.1l-0.6-0.2L71.3,153.3z"/>
				<path fill="#231F20" d="M71.8,153.1l0.1-0.1c0.1,0,0.1,0.1,0.1,0.1c0,0,0,0.1,0,0.2c0,0.1-0.1,0.1-0.1,0.1c-0.1,0-0.1,0-0.3-0.1
					c-0.1-0.1-0.2-0.1-0.2-0.1c0,0,0-0.1,0-0.2c0-0.1,0.1-0.1,0.1-0.1c0,0,0.1,0,0.2,0l-0.1,0.1c0,0,0,0-0.1,0c0,0-0.1,0-0.1,0
					c0,0,0,0.1,0.1,0.1c0,0,0,0,0.1,0c0,0,0,0,0,0c0.1,0,0.2,0.1,0.2,0.1c0,0,0,0,0.1,0C71.9,153.2,71.9,153.2,71.8,153.1
					C71.9,153.2,71.9,153.1,71.8,153.1z"/>
				<path fill="#231F20" d="M71.8,152.6l0.2,0.1l-0.1,0.1L71.8,152.6z M71.7,152.6l0.4,0.4l0.1-0.1l-0.1-0.1l0.1-0.1l0.1,0.1
					l0.1-0.1l-0.6-0.2L71.7,152.6z"/>
				<path fill="#231F20" d="M72.1,152l0.5,0.4l-0.1,0.1l-0.4-0.1l0.3,0.3l-0.1,0.1l-0.5-0.4l0.1-0.1l0.4,0.1L72.1,152L72.1,152z"/>
				<path fill="#231F20" d="M72.4,151.8l0.2,0.1l-0.1,0.1L72.4,151.8z M72.3,151.8l0.3,0.5l0.1-0.1l-0.1-0.1l0.1-0.1l0.1,0.1
					l0.1-0.1l-0.5-0.3L72.3,151.8z"/>
				<path fill="#231F20" d="M80.1,151.8C80.1,151.8,80.1,151.8,80.1,151.8l0.2-0.3c0,0,0,0,0,0.1c0,0,0,0,0,0.1L80.1,151.8
					C80.2,151.8,80.1,151.8,80.1,151.8z M80.5,151.6c0,0,0-0.1-0.1-0.2l-0.1-0.1l-0.4,0.4l0.1,0.1c0.1,0.1,0.1,0.1,0.2,0.1
					c0,0,0.1-0.1,0.2-0.1C80.5,151.7,80.5,151.6,80.5,151.6z"/>
				<path fill="#231F20" d="M80.4,152.3l-0.2-0.3l0.5-0.4l0.2,0.3l-0.1,0.1l-0.1-0.1l-0.1,0.1l0.1,0.1l-0.1,0.1l-0.1-0.1l-0.1,0.1
					L80.4,152.3L80.4,152.3z"/>
				<path fill="#231F20" d="M81.2,152.6l-0.1-0.2l-0.1,0.1L81.2,152.6l-0.2,0.1l-0.1-0.1l-0.2,0.1l-0.1-0.1l0.5-0.3L81.2,152.6
					L81.2,152.6z"/>
				<path fill="#231F20" d="M81.2,153.1c-0.1,0-0.2,0.1-0.2,0.1c0,0-0.1,0-0.1-0.1c0-0.1,0-0.1,0-0.2c0,0,0.1-0.1,0.2-0.1l0.3-0.2
					l0.1,0.1l-0.3,0.2c0,0-0.1,0-0.1,0.1c0,0,0,0,0,0c0,0,0,0,0,0c0,0,0.1,0,0.1,0l0.3-0.2l0.1,0.1L81.2,153.1z"/>
				<path fill="#231F20" d="M81.6,153.4l-0.1-0.1l-0.4,0.2l-0.1-0.1l0.4-0.2l0-0.1l0.1,0l0.2,0.3L81.6,153.4z"/>
				<path fill="#231F20" d="M81.6,153.7C81.6,153.7,81.6,153.7,81.6,153.7l0.1-0.1c0,0,0,0.1,0,0.1
					C81.8,153.7,81.7,153.7,81.6,153.7C81.7,153.7,81.7,153.7,81.6,153.7z M81.6,153.9C81.6,153.9,81.6,153.8,81.6,153.9
					C81.7,153.8,81.7,153.8,81.6,153.9c0.1-0.1,0.1-0.1,0.2-0.1c0.1,0,0.1-0.1,0.1-0.1c0,0,0-0.1,0-0.2l-0.1-0.1l-0.6,0.2l0.1,0.2
					c0,0.1,0.1,0.1,0.1,0.1C81.4,154,81.5,154,81.6,153.9C81.6,153.9,81.6,153.9,81.6,153.9z M81.4,153.8
					C81.4,153.8,81.4,153.8,81.4,153.8l0.1-0.1c0,0,0,0.1,0,0.1C81.5,153.8,81.5,153.8,81.4,153.8C81.5,153.8,81.4,153.8,81.4,153.8
					z"/>
				<path fill="#231F20" d="M81.6,154.3C81.6,154.3,81.5,154.2,81.6,154.3c-0.1-0.1,0-0.1,0-0.1c0,0,0,0,0.1,0l0.1,0
					c0.1,0,0.1,0,0.1,0c0,0,0,0,0.1,0c0,0,0,0,0,0.1c0,0,0,0-0.1,0c0,0,0,0,0,0c0,0,0,0,0,0C81.7,154.2,81.6,154.3,81.6,154.3z
					 M82,154.2c0,0,0-0.1,0-0.2c0-0.1,0-0.1-0.1-0.1c0,0-0.1,0-0.1,0c0,0-0.1,0-0.2,0c-0.1,0-0.2,0.1-0.2,0.1c0,0,0,0.1,0,0.2
					c0,0.1,0,0.1,0.1,0.1c0,0,0.1,0,0.1,0c0,0,0.1,0,0.2,0C81.9,154.3,82,154.3,82,154.2z"/>
				<path fill="#231F20" d="M81.6,154.8l-0.1-0.3l0.6-0.1l0,0.1l-0.5,0.1l0,0.2L81.6,154.8z"/>
				<path fill="#231F20" d="M81.9,155.2l0.3,0L81.9,155.2L81.9,155.2z M82.2,155.3l0-0.2l-0.6-0.1l0,0.1l0.1,0l0,0.1l-0.1,0l0,0.1
					L82.2,155.3z"/>
				<path fill="#231F20" d="M81.8,155.9c-0.1,0-0.1,0-0.1,0c0,0-0.1-0.1-0.1-0.2c0-0.1,0-0.1,0-0.1c0,0,0.1,0,0.2,0l0,0.1
					c0,0-0.1,0-0.1,0c0,0,0,0,0,0c0,0,0,0,0,0c0,0,0,0,0,0c0,0,0.1,0,0.1-0.1c0-0.1,0.1-0.1,0.1-0.1c0,0,0,0,0,0c0,0,0.1,0,0.1,0
					c0,0,0.1,0,0.1,0c0,0,0.1,0.1,0,0.1c0,0.1,0,0.1,0,0.1c0,0-0.1,0-0.2,0l0-0.1c0,0,0,0,0.1,0c0,0,0,0,0,0c0,0,0,0,0,0
					c0,0,0,0,0,0c0,0,0,0-0.1,0c0,0,0,0-0.1,0.1c0,0,0,0.1-0.1,0.1C81.9,155.9,81.9,155.9,81.8,155.9z"/>
				<path fill="#231F20" d="M81.7,156.2C81.7,156.2,81.7,156.2,81.7,156.2c0-0.1,0-0.1,0-0.1c0,0,0,0,0.1,0l0.1,0c0.1,0,0.1,0,0.1,0
					c0,0,0,0,0,0.1c0,0,0,0,0,0c0,0-0.1,0-0.1,0c0,0,0,0,0,0c0,0,0,0,0,0C81.8,156.2,81.7,156.2,81.7,156.2z M82.1,156.4
					c0,0,0.1-0.1,0.1-0.1c0-0.1,0-0.1,0-0.1c0,0-0.1-0.1-0.1-0.1c0,0-0.1,0-0.2,0c-0.1,0-0.2,0-0.3,0c0,0-0.1,0.1-0.1,0.2
					c0,0.1,0,0.1,0,0.1c0,0,0.1,0.1,0.1,0.1c0,0,0.1,0,0.2,0C82,156.4,82.1,156.4,82.1,156.4z"/>
				<path fill="#231F20" d="M81.7,156.8c-0.1,0-0.1,0-0.2-0.1c0,0,0-0.1,0-0.2c0-0.1,0-0.1,0.1-0.1c0.1,0,0.1,0,0.3,0
					c0.1,0,0.2,0.1,0.2,0.1c0,0,0,0.1,0,0.2c0,0.1,0,0.1-0.1,0.1c0,0-0.1,0-0.2,0l0-0.1c0.1,0,0.1,0,0.1,0c0,0,0,0-0.1-0.1
					c0,0-0.1,0-0.1,0c0,0,0,0,0,0l0,0c-0.1,0-0.1,0-0.1,0c0,0-0.1,0-0.1,0c0,0,0,0,0,0c0,0,0.1,0,0.1,0.1L81.7,156.8z"/>
				<path fill="#231F20" d="M81.4,157l0-0.1l0.1,0l0,0.1L81.4,157z"/>
				<path fill="#231F20" d="M81.3,157.2C81.3,157.1,81.3,157.1,81.3,157.2c-0.1-0.1-0.1-0.1-0.1-0.2l0,0c0,0,0,0,0,0
					C81.3,157.1,81.3,157.1,81.3,157.2l0-0.1l0.1,0l0,0.1L81.3,157.2z"/>
				<path fill="#231F20" d="M81.3,157.7l0.2,0.2L81.3,157.7L81.3,157.7z M81.6,157.9l0.1-0.2l-0.5-0.4l-0.1,0.1l0.1,0.1l-0.1,0.1
					l-0.1,0l-0.1,0.1L81.6,157.9z"/>
				<path fill="#231F20" d="M80.9,157.9l0.1-0.1l0.1,0.1l-0.1,0.1L80.9,157.9z"/>
				<path fill="#231F20" d="M80.9,158.5c-0.1,0-0.1-0.1-0.1-0.1c0,0,0-0.1,0-0.2c0-0.1,0.1-0.1,0.1-0.1c0.1,0,0.1,0,0.3,0.1
					c0.1,0.1,0.2,0.1,0.2,0.2c0,0.1,0,0.1,0,0.2c0,0.1-0.1,0.1-0.1,0.1c-0.1,0-0.1,0-0.2,0l0.1-0.1c0.1,0,0.1,0,0.1,0c0,0,0,0,0-0.1
					c0,0,0,0-0.1-0.1c0,0,0,0,0,0l0,0c0,0-0.1,0-0.1-0.1c0,0-0.1,0-0.1,0c0,0,0,0,0,0c0,0,0,0.1,0.1,0.1L80.9,158.5z"/>
				<path fill="#231F20" d="M80.6,158.5l0.1-0.1l0.1,0.1l-0.1,0.1L80.6,158.5z"/>
			</g>
			<path fill="#231F20" d="M74.5,149.5c0,0,0,0.2,0.1,0.3l0.1,0.3l0,0.1c0,0,0.3,0.4,0.5,0.4c0,0,0.1,0,0.2,0c0,0,0,0,0,0v0l0,0
				c0,0,0,0.4,0.1,0.5c0,0,0,0.1,0,0.1c0,0,0,0,0,0.1c0,0-0.6,0.4-0.6,0.6c0,0.1,0,0.2,0,0.2l0,0c0,0,0,0,0,0c0,0,0,0,0,0
				c0,0,0,0-0.1,0c0,0,0,0,0,0l0,0c-0.2,0.1-0.4,0.3-0.5,0.3v0c0,0,0,0,0,0c0,0,0.1,0,0.5-0.3c0,0,0.1,0,0.1,0.1l0.1,0.2
				c0,0,0,0.1,0,0.1c0,0,0,0,0,0h0l-0.3,0.2l0,0c0,0,0,0,0,0.1c0,0,0,0,0,0h0l0.4-0.2c0,0,0,0,0.1-0.1c0,0,0,0,0,0c0,0,0-0.1,0-0.1
				l-0.1-0.2c0,0,0-0.1,0-0.1c0,0,0,0,0,0c0,0,0,0,0.1,0c0,0,0.1,0,0.1,0c0,0,0,0.1,0.2,0c0.1,0,0.2,0,0.2,0c0,0,0,0,0,0l0,0v0
				c0,0,0,0,0,0.1l0,0l-0.2,0.1l0,0.1v0c0,0,0,0,0,0c0,0,0,0,0.1,0h0c0,0,0.2-0.2,0.2-0.2c0,0,0,0,0.1,0l0,0l0.3,0.5h0.1v-0.1
				l-0.1-0.2c0,0,0,0,0,0c0,0,0,0,0.1,0h0.2c0,0,0,0,0,0c0,0,0,0,0,0.1l-0.1,0.3h0.3l-0.1-0.3c0,0,0-0.1,0-0.1c0,0,0,0,0,0
				c0,0,0.2,0,0.2,0c0,0,0,0,0,0c0,0,0,0,0,0c0,0,0,0,0,0c0,0-0.1,0.1-0.1,0.2c0,0,0,0.1,0,0.1l0,0h0.1l0-0.1v0c0,0,0,0,0,0
				c0,0,0-0.1,0.2-0.2c0,0,0.1-0.1,0.1-0.1c0,0,0,0,0,0h0c0,0,0,0,0,0c0,0,0,0,0.1,0c0,0,0,0,0,0l0,0c0,0,0,0,0,0h0l0,0
				c-0.1,0.1-0.2,0.3-0.2,0.4c0,0,0,0,0,0l0,0H77l0,0c0.1-0.2,0.2-0.4,0.2-0.4h0l0,0c0,0,0,0,0,0l0,0l0,0h0c0,0,0,0,0.1,0
				c0,0,0,0,0,0c0,0,0-0.1,0-0.1c0,0,0,0,0,0c0,0,0,0,0,0c0,0,0,0,0-0.2c0,0,0,0,0-0.1c0,0,0.1,0,0.2,0l0.6,0.3c0,0,0.1,0,0.1,0
				c0,0,0,0,0,0v0c0,0,0,0,0,0v0c0,0-0.1-0.1-0.3-0.2c0,0-0.5-0.3-0.7-0.2c0,0,0,0,0,0c0,0,0,0,0-0.1c0,0,0-0.3-0.2-0.3h0h0
				c0,0-0.2,0-0.3-0.1h0l0,0c0,0-0.1-0.1-0.1-0.1c0,0,0,0,0,0c0,0,0.1-0.1,0.1-0.1c0,0,0,0,0,0c0,0,0.1,0.2,0.3,0.2
				c0.1,0,0.2,0,0.3,0l0,0h0c0,0,0.2,0.1,0.3,0c0,0,0.2-0.1,0.2-0.1c0,0,0.2,0,0.3-0.1c0,0,0.1,0,0.1,0l0,0l0.1-0.1l0,0
				c0,0,0-0.1,0.1-0.1c0,0,0.1,0,0.1,0c0,0,0.4,0.2,0.5,0.3c0,0,0.2,0.2,0.4,0h0l0,0c0,0,0.3-0.3,0.3-0.4c0,0,0-0.1,0.1-0.1
				c0,0,0,0,0,0l0,0l0-0.1l-0.1-0.1l-0.3,0.4c0,0-0.1,0.1-0.1,0c-0.1,0-0.1-0.1-0.1-0.1c0,0-0.1-0.1-0.1-0.1c-0.1,0-0.2-0.1-0.2-0.2
				c-0.1-0.1,0.1-0.2,0.1-0.3c0-0.1,0-0.3,0-0.4c0-0.1-0.1-0.7,0.1-0.6h0l0.1-0.1l0,0c0,0-0.2-0.1-0.2-0.2c0,0,0-0.6-0.2-0.9
				c0,0-0.5-0.7-1-1c0,0-0.8-0.5-1.2-0.6c0,0-0.9-0.3-1.5-0.2c0,0-0.2,0-0.3,0.1c0,0,0,0.1,0,0.2c0,0,0,0.1,0.2,0.3
				c0.1,0.1,0.2,0.1,0.3,0.2c0.1,0.1,0.1,0.1,0.2,0.2c0,0.1,0.1,0.2,0.1,0.3c0,0.1,0,0.2,0,0.3c0,0.1,0,0.1-0.1,0.1
				c0,0-0.1-0.1-0.1-0.1c0,0-0.1-0.1-0.1-0.1c-0.1,0-0.1-0.1-0.1-0.2c0-0.1-0.1-0.1-0.2-0.2c-0.1-0.1-0.2-0.2-0.3-0.3
				c0,0-0.1-0.1-0.1-0.1c0,0-0.1,0-0.1-0.1c-0.1-0.1-0.1-0.2-0.1-0.3c0,0-0.1-0.1-0.1-0.1c-0.1,0-0.2,0.1-0.2,0.1
				c-0.1,0-0.2,0.1-0.3,0.1c-0.2,0-0.4,0.1-0.4,0.1c-0.1,0-0.2,0-0.3,0.2c-0.1,0.2,0,0.3,0.1,0.4c0.1,0.1,0.2,0.1,0.2,0.1
				c0,0,0-0.1,0.1-0.1c0.1,0,0.1,0,0.3,0.1c0.2,0,0.3,0,0.4,0c0.1,0,0.1,0.2,0.1,0.3c0,0.2-0.1,0.4-0.1,0.5c0,0.1-0.1,0.4,0,0.5
				C74.3,149.2,74.4,149.4,74.5,149.5z"/>
			<path fill="#FFFFFF" d="M74.9,148.4c0,0-0.2,0-0.1,0.1c0,0,0.2,0.1,0.2,0.1c0,0,0,0,0.1,0c0,0,0.2-0.1,0.3-0.1c0,0,0,0,0-0.1
				c0,0,0-0.1-0.2-0.1L74.9,148.4z"/>
			<g>
				<path fill="#FFFFFF" d="M74.5,149c0,0,0.1,0,0.1,0c0,0,0.1,0,0.1,0c0,0,0.1,0.2,0.1,0.3c0,0,0,0.3,0,0.3
					C74.7,149.5,74.5,149.5,74.5,149z"/>
				<path fill="#FFFFFF" d="M74.8,148.9L74.8,148.9c0.1,0,0.1,0,0.2,0.1c0,0,0.2,0.3,0.1,0.3c0,0,0,0-0.1-0.1
					C74.9,149.2,74.6,149,74.8,148.9z"/>
				<path fill="#FFFFFF" d="M74.9,149.3C74.9,149.3,74.9,149.3,74.9,149.3c0.1,0,0.5,0.4,0.5,0.8c0,0,0,0.1-0.1,0
					c0,0-0.2-0.2-0.3-0.2c0,0,0,0,0-0.1c0,0,0-0.2-0.1-0.2c0,0,0,0,0-0.1L74.9,149.3z"/>
				<path fill="#FFFFFF" d="M74.7,149.7C74.7,149.7,74.6,149.6,74.7,149.7c0.1-0.1,0.3,0,0.3,0.4c0,0,0,0.2-0.1,0.1
					C74.9,150.1,74.7,150,74.7,149.7z"/>
				<path fill="#FFFFFF" d="M75.1,148.9C75.1,148.9,75,148.9,75.1,148.9c0-0.1,0-0.2,0.2-0.1c0,0,0.3,0.2,0.4,1c0,0,0,0.2,0,0.1
					c0,0-0.3-0.2-0.3-0.3c0,0,0,0,0-0.1c0,0,0-0.1-0.1-0.1c0,0-0.1-0.1,0-0.1c0,0,0.1-0.1-0.1-0.3C75.1,149.1,75,148.9,75.1,148.9
					c-0.1,0,0,0.1,0.1,0.1c0,0,0.1,0.1,0.1,0C75.3,149,75.2,148.9,75.1,148.9z"/>
				<path fill="#FFFFFF" d="M75.1,150.1c0,0-0.1-0.1-0.1,0c0,0,0,0.2,0.1,0.3c0,0,0.1,0.1,0.3,0c0,0,0.1,0,0-0.1L75.1,150.1z"/>
				<path fill="#FFFFFF" d="M75.7,150l-0.1-0.1c0,0-0.1-0.1-0.1,0c0,0,0.2,0.4,0.2,0.6c0,0,0,0.2,0,0.2c0,0,0.1,0.1,0.1-0.2
					C75.7,150.5,75.8,150.1,75.7,150z"/>
				<path fill="#FFFFFF" d="M75.8,150.3C75.8,150.3,75.8,150.3,75.8,150.3c0.1,0,0.2,0.3,0.2,0.3c0,0,0.1,0.3,0.1,0.3
					c0,0,0,0.1-0.2-0.1c0,0-0.1-0.1-0.1-0.1c0,0,0,0,0-0.1L75.8,150.3z"/>
				<path fill="#FFFFFF" d="M76.1,151.3C76.1,151.3,76.2,151.3,76.1,151.3c0.1,0.1,0.2,0.1,0.1,0.2c0,0-0.1,0.1-0.1,0
					C76.1,151.4,75.9,151.2,76.1,151.3C76,151.2,76.1,151.2,76.1,151.3z"/>
				<path fill="#FFFFFF" d="M75.8,151C75.8,151,75.9,151,75.8,151c0.1,0.1,0.1,0.4,0.2,0.4c0,0,0.2,0.2,0.1,0.2c0,0-0.1,0.1-0.3,0.1
					c0,0-0.1,0-0.1,0c0,0-0.1,0-0.1-0.1c0,0,0,0,0.1-0.1c0,0,0-0.1-0.1,0c0,0-0.2,0.1-0.2,0.1c0,0-0.1-0.1,0-0.1
					c0,0,0.2-0.1,0.2-0.2C75.7,151.2,75.7,151,75.8,151z"/>
				<path fill="#FFFFFF" d="M75.1,151.8c0,0,0.1-0.1,0.1-0.1c0,0,0.1-0.1,0-0.1C75.2,151.6,75,151.7,75.1,151.8
					C75,151.8,75,151.9,75.1,151.8z"/>
				<path fill="#FFFFFF" d="M75.5,152c0,0,0-0.1,0.2-0.1c0,0,0.2,0,0.2,0.1c0,0,0,0.1-0.2,0.1C75.6,152.1,75.4,152.1,75.5,152z"/>
				<path fill="#FFFFFF" d="M76.1,152c0,0,0.1-0.1,0.1-0.1c0,0,0.1,0,0.1,0.1C76.3,151.9,76.3,152,76.1,152
					C76.2,152,76.1,152,76.1,152z"/>
				<path fill="#FFFFFF" d="M75.9,151.8c0,0,0.1,0,0.1,0.1c0,0-0.1,0.1-0.1,0.1C75.9,152,75.8,152,75.9,151.8z"/>
				<path fill="#FFFFFF" d="M76.2,151.6C76.1,151.7,76.3,151.7,76.2,151.6c0.3-0.1,0.3,0,0.3,0c0.1,0,0,0.1,0,0.1
					c-0.1,0.1-0.1,0.1-0.1,0.1c0.1,0.1,0.2,0,0.2,0c0.1-0.2,0.4-0.1,0.4-0.1c0.1,0.1,0.1,0,0.1,0c0-0.1-0.2-0.1-0.2-0.1
					c-0.1,0-0.2-0.2-0.2-0.2c-0.1-0.1-0.3,0-0.3,0S76.2,151.6,76.2,151.6z"/>
				
					<ellipse transform="matrix(-0.6963 -0.7177 0.7177 -0.6963 18.8775 311.6856)" fill="#FFFFFF" cx="75.4" cy="151.8" rx="0" ry="0.1"/>
				<path fill="#FFFFFF" d="M76.3,152.3c0,0,0.3,0,0.4-0.1l0-0.2c0,0,0-0.1-0.1,0c0,0-0.1,0-0.2,0.1C76.3,152,76,152.2,76.3,152.3z"
					/>
				<path fill="#FFFFFF" d="M76.8,152c0,0,0.4,0,0.5-0.1c0,0,0.1-0.1-0.3-0.1c0,0-0.3,0-0.3,0.1C76.7,151.9,76.7,152,76.8,152z"/>
				<path fill="#FFFFFF" d="M76.8,152.3c0,0,0.1-0.1,0.1-0.1c0,0-0.1-0.2-0.2,0C76.7,152.1,76.7,152.4,76.8,152.3z"/>
				<path fill="#FFFFFF" d="M75.9,150.1c0,0,0.5,0.8,0.4,1.1c0,0,0,0.1-0.1,0.1c0,0-0.1,0-0.1-0.2c0,0-0.2-0.7-0.3-0.8
					C75.9,150.2,75.7,149.9,75.9,150.1z"/>
				<path fill="#FFFFFF" d="M75.7,149.4l0,0.2c0,0,0,0.1,0.1,0.1c0,0,0.3,0.4,0.3,0.5c0,0,0,0.1,0.1,0l-0.1-0.4c0,0,0-0.1-0.1-0.1
					C76,149.7,75.8,149.4,75.7,149.4z"/>
				<path fill="#FFFFFF" d="M76.4,149.8c0,0,0,0.9,0,0.9c0,0,0,0.1-0.1,0l-0.1-0.1c0,0-0.1-0.6,0-0.7
					C76.2,149.9,76.2,149.9,76.4,149.8C76.3,149.8,76.3,149.7,76.4,149.8z"/>
				<path fill="#FFFFFF" d="M76.5,150.4C76.5,150.4,76.5,150.3,76.5,150.4c-0.1,0-0.1,0.7-0.1,0.7c0,0,0.1,0.2,0.3,0.1
					c0,0,0.1,0,0-0.3C76.7,150.9,76.5,150.6,76.5,150.4z"/>
				<path fill="#FFFFFF" d="M76.5,149.9c0,0,0.2,0.1,0.2,0.2c0,0,0.2,0.8,0.2,1c0,0,0,0.1-0.1,0c0,0-0.4-1-0.4-1
					C76.5,150,76.4,149.8,76.5,149.9z"/>
				<path fill="#FFFFFF" d="M76.9,150.2c0,0,0.5,0.8,0.5,0.9c0,0,0.1,0.2-0.1,0.1c0,0-0.3-0.3-0.3-0.4
					C77,150.9,76.8,150.2,76.9,150.2z"/>
				<path fill="#FFFFFF" d="M77,150.2c0,0,0.7,0.5,1,1c0,0,0.1,0.2-0.1,0.2c0,0-0.3,0.1-0.3-0.1c0,0-0.4-0.8-0.5-0.9
					C77,150.3,76.8,150.2,77,150.2z"/>
				<path fill="#FFFFFF" d="M77.1,150.1c0,0,1.4,0.7,1.4,0.8c0,0,0,0.2-0.1,0.2c0,0-0.3,0.2-0.4,0C78,151.1,77.5,150.4,77.1,150.1
					C77.1,150.2,77,150.1,77.1,150.1z"/>
				<ellipse fill="#FFFFFF" cx="77.2" cy="152.2" rx="0.1" ry="0"/>
				<path fill="#FFFFFF" d="M75.3,148.7c0,0,0.1,0,0.1,0c0,0,0.1-0.1,0.2,0.1c0,0,0.1,0.3,0,0.3c0,0-0.1,0.1-0.2-0.1
					c0,0-0.1-0.2-0.2-0.2C75.3,148.8,75.2,148.7,75.3,148.7z"/>
				<path fill="#FFFFFF" d="M75.7,148.7c0,0,0.1,0,0.1,0c0,0,0.1,0,0.1,0.1c0,0,0.2,0.8,0.2,0.8c0,0,0,0.1-0.1,0
					c0,0-0.4-0.4-0.4-0.5c0,0-0.1-0.1,0-0.1c0,0,0.2,0,0.1-0.2C75.8,148.9,75.6,148.7,75.7,148.7z"/>
				<path fill="#FFFFFF" d="M75.4,148.2c0,0,0.3,0.1,0.3,0.1c0,0,0,0,0.1,0.1c0,0,0.2,0.2,0.2,0.3c0,0,0,0.1,0.1,0.1
					c0,0,0.2,0,0.6,0.6c0,0,0.1,0.1,0.1,0.4c0,0,0,0.2-0.1,0.1c0,0-0.4-0.2-0.4-0.3c0,0-0.3-0.7-0.2-0.8c0,0,0-0.1-0.1-0.1
					C76,148.7,75.5,148.6,75.4,148.2C75.4,148.2,75.4,148.2,75.4,148.2z"/>
				<path fill="#FFFFFF" d="M76.4,148.8c0,0,0.2,0.3,0.2,0.4c0,0,0,0.1,0.2,0.1c0,0,0.2,0,0.4,0.3c0,0,0.2,0.3,0.3,0.3
					c0,0,0.1,0,0-0.1c0,0-0.3-0.5-0.3-0.5C77.2,149.2,76.8,148.8,76.4,148.8C76.5,148.8,76.3,148.7,76.4,148.8z"/>
				<path fill="#FFFFFF" d="M76.9,149.5c0,0,0.4,0.2,0.5,0.5c0,0,0,0.2-0.1,0.1c0,0-0.3-0.1-0.4-0.1c0,0,0,0,0-0.1
					C76.9,149.8,76.8,149.4,76.9,149.5z"/>
				<path fill="#FFFFFF" d="M77.5,149.9C77.5,149.9,77.6,150,77.5,149.9c0.1,0,0.1-0.1,0.2,0c0,0,0.2,0.3,0.1,0.3
					c0,0-0.1,0.1-0.3-0.1C77.6,150.1,77.4,150,77.5,149.9z"/>
				<path fill="#FFFFFF" d="M77.8,150.3c0,0,0.4,0,0.4,0.1c0,0,0.1,0.1,0.2,0.1c0,0,0.3,0,0.3,0.1c0,0,0,0.2-0.1,0.1L77.8,150.3
					C77.8,150.3,77.7,150.3,77.8,150.3z"/>
				<path fill="#FFFFFF" d="M77.2,149c0,0,0.2,0,0.3,0.1c0,0,0.6,0.9,0.6,1c0,0,0.1,0.2-0.1,0c0,0-0.5-0.7-0.7-0.9
					C77.3,149.2,77.1,149,77.2,149z"/>
				<path fill="#FFFFFF" d="M75.4,146.5c0,0-0.3,0-0.2,0.2c0,0,0,0.1,0.3,0.2c0,0,0.4,0.1,0.5,0.9c0,0,0,0.3,0,0.4
					c0,0-0.2,0.1,0,0.2c0,0,0.7,0.5,1.1,0.6c0,0,0.1,0,0-0.1c0,0-0.3-0.4-1-0.6c0,0-0.1-0.1,0-0.1c0,0,0.5,0.2,1,0.1
					c0,0,0.1,0,0-0.1c0,0-0.3-0.2-0.9-0.3c0,0-0.1-0.1,0-0.1c0,0,0.4,0.1,0.8,0.1c0,0,0.2,0,0-0.1c0,0-0.3-0.2-0.8-0.3
					c0,0-0.1-0.1,0-0.1c0,0,0.6,0,0.6,0c0,0,0.1,0,0-0.1c0,0-0.2-0.2-0.8-0.3l-0.3,0c0,0-0.3-0.1,0-0.1c0,0,0.5,0.1,0.9,0
					c0,0,0.2-0.1,0.1-0.1C76.9,146.7,76.2,146.5,75.4,146.5z"/>
				<path fill="#FFFFFF" d="M76.8,147c0,0,0.2-0.1,0.6,0c0,0,0.5,0.2,0.9,0.5c0,0,0.1,0.1-0.1,0.1c0,0-0.7,0-1.1-0.4
					c0,0-0.1-0.1-0.2-0.1C76.8,147.1,76.7,147,76.8,147z"/>
				<path fill="#FFFFFF" d="M76.9,147.4c0,0,0.3-0.1,0.4,0c0,0,0.2,0.1,0.4,0.1c0,0,0.2,0,0.3,0.2c0,0,0.3,0.4,0.1,0.3l-0.6-0.3
					C77.4,147.8,77.1,147.5,76.9,147.4C76.9,147.5,76.8,147.4,76.9,147.4z"/>
				<path fill="#FFFFFF" d="M77.1,147.9c0,0,0.1,0,0.2-0.1c0,0,0.1-0.1,0.2,0c0,0,1.1,0.5,0.9,0.6c0,0-0.1,0.1-0.8-0.2
					c0,0-0.2,0-0.2-0.1C77.3,148.1,77.2,148,77.1,147.9C77.1,148,77.1,147.9,77.1,147.9z"/>
				<path fill="#FFFFFF" d="M76.8,148.4l0.5,0c0,0,0.2,0,0.8,0.2c0,0,0.3,0,0.1,0.2c0,0-0.4,0-0.4,0.1c0,0-0.5,0.1-0.6,0L76.8,148.4
					C76.8,148.5,76.7,148.4,76.8,148.4z"/>
				<path fill="#FFFFFF" d="M77.7,148.8c0,0,0.5,0.5,0.8,1.5c0,0,0,0.1-0.2-0.1c0,0-0.6-1.2-0.8-1.4
					C77.4,148.9,77.3,148.7,77.7,148.8z"/>
				<path fill="#FFFFFF" d="M78,148.8c0,0,1,0.8,1,1.9c0,0,0,0.2-0.1,0c0,0-0.2-0.1-0.3-0.3c0,0-0.1-0.6-0.8-1.5
					C77.8,148.9,77.7,148.7,78,148.8z"/>
				<path fill="#FFFFFF" d="M78.4,148.7c0,0,0.7,1.1,0.8,1.4c0,0,0.1,0.2,0,0.4c0,0-0.1,0.2-0.1-0.2c0,0-0.1-0.7-0.9-1.5
					c0,0-0.1-0.1,0-0.2C78.2,148.7,78.4,148.6,78.4,148.7z"/>
				<path fill="#FFFFFF" d="M78.9,149.3c0,0,0.4,0.4,0.4,0.5c0,0,0,0.5-0.1,0.2C79.2,149.9,78.7,149,78.9,149.3z"/>
				<path fill="#FFFFFF" d="M78.7,148.6l0.3,0.1c0,0,0.2,0,0.2,0.3c0,0,0.2,0.7-0.1,0.3c0,0-0.4-0.3-0.4-0.5c0,0-0.3-0.3-0.1-0.3
					C78.5,148.6,78.7,148.5,78.7,148.6z"/>
				<path fill="#FFFFFF" d="M78.1,147.7c0,0,0.4-0.1,0.6,0.2c0,0,0.4,0.5,0.4,0.7c0,0,0.1,0.2-0.1,0.1c0,0-0.5-0.1-0.5-0.3
					C78.5,148.3,78,147.7,78.1,147.7z"/>
			</g>
			<path fill="#FFFFFF" d="M74.4,147.1C74.4,147.1,74.5,147.1,74.4,147.1c0.1-0.1,0.1-0.2-0.1-0.1c0,0-0.3,0.1-0.3,0.2c0,0,0,0,0,0
				L74.4,147.1z"/>
			<path fill="#FFFFFF" d="M74.3,147.2c0,0-0.1,0.2-0.2,0.1c0,0-0.1,0-0.1,0c0,0,0,0.1,0.2,0.1C74.2,147.4,74.4,147.4,74.3,147.2
				C74.4,147.2,74.3,147.2,74.3,147.2z"/>
			<path fill="#FFFFFF" d="M74.3,147.6c0,0-0.2-0.1-0.3-0.2c0,0-0.1,0-0.1-0.1c0,0,0-0.2-0.1-0.2c0,0-0.1,0-0.1,0.1c0,0,0,0-0.1,0
				c0,0-0.2-0.1-0.3,0.2c0,0,0,0.1,0.2,0.2c0,0,0.1,0.1,0.2-0.1c0,0,0-0.1,0.2,0c0,0,0.2,0.1,0.2,0.1c0,0-0.3-0.1-0.3,0
				c0,0,0,0.1,0.1,0.1C73.8,147.7,74.2,147.7,74.3,147.6C74.2,147.7,74.4,147.7,74.3,147.6z"/>
			<path fill="#FFFFFF" d="M74.6,147.1c0,0,0.2,0.1,0.2,0.2c0,0,0.1,0.1,0,0.1c0,0-0.1,0-0.1,0c0,0-0.1,0-0.1,0.1c0,0,0,0,0.2,0
				c0,0,0.1,0,0.1,0.2c0,0,0,0.1-0.1,0.1c0,0-0.2-0.1-0.2-0.1c0,0,0,0,0.1,0.1c0,0,0.1,0,0.1,0.2c0,0,0,0.1-0.1,0
				c0,0-0.4-0.4-0.4-0.5c0,0,0.1-0.2,0.2-0.3C74.5,147.2,74.6,147.1,74.6,147.1z"/>
			<path fill="#FFFFFF" d="M74.6,148.5C74.6,148.5,74.6,148.4,74.6,148.5c0.1,0,0.1,0,0.1,0c0,0.1,0.1,0.1,0.2,0.1
				c0.2,0.1,0.2,0.2,0,0.2c-0.1,0-0.1,0-0.2,0c-0.1,0-0.1-0.1-0.1-0.2C74.6,148.6,74.6,148.6,74.6,148.5
				C74.6,148.5,74.6,148.5,74.6,148.5z"/>
			<path fill="#FFFFFF" d="M74.4,148.6c0,0.1,0,0.1,0,0.2c0,0,0,0,0,0.1c0,0,0,0,0,0.1c0,0,0.1,0,0.1,0c0.1,0,0-0.1,0-0.2
				c0-0.1,0-0.2,0-0.2c0,0-0.1,0-0.1,0C74.4,148.5,74.4,148.5,74.4,148.6z"/>
			<path fill="#FFFFFF" d="M74.6,147.9c-0.1-0.1-0.1,0.2-0.1,0.2c0,0.1,0,0.1,0,0.2c0,0,0.1,0.1,0.1,0.1c0,0,0-0.1,0.1-0.2
				c0,0,0.1-0.1,0.1-0.1C74.7,148,74.7,148,74.6,147.9"/>
			<path fill="#FFFFFF" d="M75.1,148.3C75.1,148.3,75.1,148.3,75.1,148.3c0.1,0,0.2,0.1,0.2,0c0.1-0.1-0.3-0.2-0.3-0.2
				c-0.1,0-0.3-0.1-0.3,0.1c0,0.1,0,0.1,0.1,0.1c0.1,0,0.1,0,0.2,0C75,148.3,75.1,148.3,75.1,148.3z"/>
			<path fill="#FFFFFF" d="M75.3,148.1c0.1,0,0-0.1-0.1-0.1c-0.1,0-0.3-0.1-0.3,0C74.9,148.1,75.2,148.1,75.3,148.1z"/>
			<path fill="#FFFFFF" d="M75.1,147.8c0,0,0.1,0,0.1,0.1c0.1,0,0.1,0.1,0.2,0.1c0.1,0,0.1,0.1,0.2,0.1c0,0,0.1,0,0.1,0.1
				c0.1,0,0.1,0,0-0.1c0,0-0.1-0.1-0.1-0.1c-0.1-0.1-0.1-0.1-0.1-0.2c-0.1-0.1-0.3-0.4-0.4-0.3C74.9,147.6,75,147.8,75.1,147.8z"/>
		</g>
	</g>
	<g>
		<path fill="#231F20" d="M46.6,54.4c0,0-8.6-25.3,0.8-34.8c0,0,4.9-8.9,7.8-9.7c0,0,2.2-6.6,10.5-6.4c0,0,9.5-2.4,18.6-0.6
			c0,0,12.6-0.2,19.5,8.7c0,0,10,8.7,8.1,19.6c0,0,2.8,15.5-5.9,23.9L46.6,54.4z"/>
		
			<ellipse transform="matrix(1 3.793002e-03 -3.793002e-03 1 0.2237 -0.1863)" fill="#EFB597" cx="49.2" cy="58.9" rx="6.8" ry="12.1"/>
		
			<ellipse transform="matrix(1 3.864844e-03 -3.864844e-03 1 0.2292 -0.4093)" fill="#EFB597" cx="106" cy="59.1" rx="6.8" ry="12.1"/>
		<path fill="#EFB597" d="M105.3,30.5c0.1-14.6-23.2-11.9-28-11.3c-4.7-0.7-28-3.6-28,11c0,0-2.5,24.6,0.1,34.6
			c0,0-0.2,5.5,0.6,14.8c0,0,0.2,4.2,4.6,8.8c0,0,3.9,6.2,8.3,8.2c0,0,1.6,2,13.3,2.2v0c0.3,0,0.6,0,0.9,0c0.3,0,0.5,0,0.8,0v0
			c11.7-0.1,13.3-2.1,13.3-2.1c4.4-2,8.4-8.1,8.4-8.1c4.4-4.6,4.7-8.8,4.7-8.8C105.2,70.5,105,65,105,65
			C107.7,55.1,105.3,30.5,105.3,30.5z"/>
		<path fill="#231F20" d="M99.5,14l-17.7-3.2l19-0.8C98.1-5.3,63.4,1.5,63.4,1.5c-13.1,3.7-5.8,10.4-5.8,10.4l2.6-0.1L46.7,25.2
			c0,0-0.9,18.3,1.7,29.2c0,0,4-7.7,4.2-19.4c0,0-0.9-9.1,7.8-11.9c0,0,10.9-4.6,30.2-1.2c0,0,13.9,0.8,12.1,13.6
			c-1.1,8.2,0,15.3,3.1,18.2l2.7-27.7L99.5,14z"/>
		<circle fill="#492925" cx="63.7" cy="47.3" r="1.7"/>
		<g>
			<path fill="#231F20" d="M67.5,44.3c0,0-0.2-0.1-0.5-0.2c-0.3-0.1-0.8-0.2-1.4-0.4c-1.2-0.3-2.8-0.6-4.4-0.7
				C60.3,43,59.5,43,58.8,43c-0.4,0-0.7,0.1-1.1,0.1c-0.3,0.1-0.6,0.1-0.9,0.2c-0.6,0.1-1,0.3-1.3,0.4c-0.3,0.1-0.5,0.2-0.5,0.2
				l-0.1,0.1c-0.4,0.2-0.9,0-1.1-0.5c-0.2-0.4,0-0.9,0.4-1.1c0,0,0.2-0.1,0.6-0.3c0.4-0.2,0.9-0.4,1.6-0.7c0.3-0.1,0.7-0.2,1.1-0.3
				c0.4-0.1,0.8-0.2,1.2-0.3c0.8-0.1,1.7-0.2,2.6-0.3c1.8-0.1,3.6,0,4.9,0.2c0.7,0.1,1.2,0.1,1.6,0.2c0.4,0.1,0.6,0.1,0.6,0.1
				c0.9,0.2,1.6,1.1,1.4,2c-0.2,0.9-1.1,1.6-2,1.4C67.7,44.4,67.6,44.4,67.5,44.3L67.5,44.3z"/>
		</g>
		<circle fill="#492925" cx="90.8" cy="47.3" r="1.7"/>
		<g>
			<path fill="#231F20" d="M86.2,41c0,0,0.2,0,0.6-0.1c0.4-0.1,0.9-0.1,1.6-0.2c1.3-0.1,3.1-0.3,4.9-0.2c0.9,0,1.8,0.1,2.6,0.3
				c0.4,0.1,0.8,0.2,1.2,0.3c0.4,0.1,0.7,0.2,1.1,0.3c0.7,0.3,1.2,0.5,1.6,0.7c0.4,0.2,0.6,0.3,0.6,0.3c0.4,0.2,0.6,0.8,0.3,1.2
				c-0.2,0.4-0.7,0.5-1.1,0.4l-0.1-0.1c0,0-0.2-0.1-0.5-0.2c-0.3-0.1-0.8-0.3-1.3-0.4c-0.3,0-0.6-0.1-0.9-0.2
				c-0.3,0-0.7-0.1-1.1-0.1c-0.7,0-1.5,0-2.4,0.1c-1.6,0.1-3.2,0.4-4.4,0.7c-0.6,0.1-1.1,0.3-1.4,0.4c-0.3,0.1-0.5,0.2-0.5,0.2l0,0
				c-0.9,0.3-1.9-0.2-2.2-1.2c-0.3-0.9,0.2-1.9,1.2-2.2C86.1,41,86.2,41,86.2,41z"/>
		</g>
		
			<path fill="none" stroke="#C18963" stroke-width="1.3762" stroke-linecap="round" stroke-linejoin="round" stroke-miterlimit="10" d="
			M65.2,75.6c0,0,14.4,1.7,23.1-0.1"/>
		<path opacity="0.1" fill="#231F20" d="M58.3,74.3c0,0-2.3,8.6,4.1,14.9C62.3,89.3,58.3,80.7,58.3,74.3z"/>
		<path opacity="0.1" fill="#231F20" d="M97.7,74.3c0,0,2.3,8.6-4.1,14.9C93.6,89.3,97.7,80.7,97.7,74.3z"/>
		<path opacity="0.1" fill="#231F20" d="M72.7,82.9c0,0,7.2-0.5,11.3-0.5C84,82.5,77.7,87.9,72.7,82.9z"/>
		<path opacity="0.1" fill="#231F20" d="M106.1,51.9l-1.7-4.4c0.7,6.2-1.5,18.5-2.2,22.2h-11l-13.5-2.4l-13.4,2.4l-12.6,0
			c-0.9-5.1-2.3-14.5-1.7-19.7l-1.7,4.4L49.6,74l0,0c0.1,1.6,0.2,3.5,0.4,5.5c0,0,0.2,4.2,4.6,8.8c0,0,3.9,6.2,8.3,8.2
			c0,0,1.6,2,13.3,2.2v0c0.3,0,0.6,0,0.9,0c0.3,0,0.5,0,0.8,0v0c11.7-0.1,13.3-2.1,13.3-2.1c4.4-2,8.4-8.1,8.4-8.1
			c4.4-4.6,4.7-8.8,4.7-8.8c0.3-3.2,0.5-6,0.6-8.2l0,0L106.1,51.9z M76.1,78.9c0,0-15.3,0-13.1-5.2c0.1-0.3,28,0,28,0
			S94.6,78.9,76.1,78.9z"/>
		<g>
			<path fill="#C6977F" d="M85.5,59.4c0.4,0.4,0.7,0.9,1,1.4c0.3,0.5,0.6,1,0.7,1.6c0.1,0.3,0.2,0.6,0.2,0.9c0,0.3,0,0.7-0.1,1
				c0,0.2-0.1,0.3-0.2,0.5c-0.1,0.2-0.1,0.4-0.3,0.5l-0.4,0.4c-0.1,0.1-0.3,0.2-0.4,0.3c-0.3,0.2-0.6,0.3-0.9,0.5l-0.1,0l-0.1,0l0,0
				l0,0l0,0l0,0l-0.1,0l-0.2,0c-0.2,0-0.2,0.1-0.4,0.1c-0.2,0-0.4,0-0.6,0l-0.4,0l-0.8-0.1c-0.2,0-0.5,0-0.7,0
				c-0.2,0-0.4,0.1-0.6,0.1c-0.2,0.1-0.4,0.1-0.5,0.2c-0.2,0.1-0.3,0.2-0.5,0.3l0,0l0.4-0.6c-0.1,0.3-0.4,0.6-0.4,0.6
				c-0.1,0.1-0.2,0.1-0.3,0.2c-0.1,0.1-0.2,0.1-0.3,0.2l-0.2,0.1l-0.4,0.1c-0.1,0-0.3,0.1-0.4,0.1l-0.6,0.1l-0.3,0l-0.2,0l-0.1,0
				l0,0l0,0h0l-0.1,0l-1,0c-0.1,0-0.3,0-0.4-0.1l-0.4-0.1l-0.2-0.1c-0.1,0-0.2-0.1-0.3-0.2c-0.1-0.1-0.2-0.1-0.3-0.2
				c0,0-0.3-0.3-0.4-0.6l0.5,0.7l0,0c-0.2-0.1-0.3-0.2-0.5-0.3c-0.2-0.1-0.3-0.1-0.5-0.2c-0.2-0.1-0.4-0.1-0.6-0.1
				c-0.2,0-0.4,0-0.7,0l-0.8,0.1c-0.3,0-0.6,0.1-0.9,0.1c-0.1,0-0.4,0-0.6-0.1L70,66.5l-0.1,0l0,0l0,0l0,0l0,0l-0.1,0
				c-0.3-0.1-0.5-0.2-0.8-0.4c-0.2-0.1-0.3-0.2-0.5-0.3l-0.4-0.4c-0.1-0.1-0.2-0.3-0.3-0.5c-0.1-0.2-0.1-0.3-0.2-0.5
				c-0.1-0.4-0.1-0.7,0-1c0.1-0.3,0.1-0.6,0.2-0.9c0.2-0.6,0.5-1.1,0.8-1.6c0.3-0.5,0.6-0.9,1-1.4c0.1-0.1,0.3-0.1,0.4,0
				c0.1,0.1,0.1,0.3,0.1,0.4l0,0c-0.3,0.4-0.5,0.9-0.7,1.4c-0.2,0.5-0.4,1-0.5,1.4c-0.1,0.2-0.1,0.5-0.1,0.7c0,0.2,0,0.4,0.1,0.6
				c0,0.1,0.1,0.2,0.1,0.2c0.1,0.1,0.1,0.2,0.2,0.2c0.1,0.1,0.1,0.1,0.2,0.2c0.1,0,0.2,0.1,0.2,0.1c0.1,0.1,0.4,0.2,0.7,0.2l0.1,0
				l0,0l0,0l0,0l0,0h0c0.1,0-0.1,0-0.1,0l0.1,0c0.1,0,0.1,0,0.2,0c0.2,0,0.4-0.1,0.7-0.1l0.8-0.2c0.3-0.1,0.6-0.1,0.9-0.1
				c0.3,0,0.7,0,1,0c0.3,0.1,0.7,0.1,1,0.3c0.3,0.1,0.6,0.3,1,0.4l0,0l0.5,0.7c0-0.2-0.3-0.5-0.3-0.4c0,0,0,0-0.1-0.1
				c0,0-0.1,0-0.1,0l0,0c0,0,0.1,0,0.1,0c0,0,0,0,0.1,0l1,0.1c0.1,0-0.1,0-0.1,0h0h0l0,0h0h0l0,0l0.1,0l0.1,0l0.2,0l0.4,0
				c0.1,0,0.1,0,0.1,0l0.1,0l0.1,0c0,0,0,0-0.1,0c0,0,0,0,0,0.1c0.1,0-0.2,0.2-0.2,0.4l0.4-0.6l0,0c0.3-0.2,0.6-0.3,0.9-0.5
				c0.3-0.1,0.7-0.2,1-0.3c0.3,0,0.7,0,1-0.1c0.3,0,0.6,0.1,0.9,0.1l0.8,0.2l0.4,0.1c0.1,0,0.2,0,0.2,0.1c0.1,0,0.2,0,0.4,0l0.2,0
				c-0.2,0-0.1,0-0.1,0h0l0,0l0,0l0,0l0,0l0.1,0c0.2-0.1,0.4-0.1,0.6-0.2c0.1,0,0.2-0.1,0.3-0.1c0.1-0.1,0.1-0.1,0.2-0.2
				c0.1,0,0.1-0.1,0.1-0.2C86,64.1,86,64,86,63.9c0.1-0.2,0.1-0.4,0.1-0.6c0-0.2,0-0.4-0.1-0.7c-0.1-0.5-0.3-0.9-0.5-1.4
				c-0.2-0.5-0.5-0.9-0.8-1.3l0,0c-0.1-0.2-0.1-0.5,0.1-0.6C85.1,59.2,85.3,59.2,85.5,59.4z"/>
		</g>
	</g>
</g>
</svg>
