<?xml version="1.0" encoding="utf-8"?>
<!-- Generator: Adobe Illustrator 16.0.0, SVG Export Plug-In . SVG Version: 6.00 Build 0)  -->
<!DOCTYPE svg PUBLIC "-//W3C//DTD SVG 1.1//EN" "http://www.w3.org/Graphics/SVG/1.1/DTD/svg11.dtd">
<svg version="1.1" xmlns="http://www.w3.org/2000/svg" xmlns:xlink="http://www.w3.org/1999/xlink" x="0px" y="0px"
	 width="410.882px" height="639.967px" viewBox="0 0 410.882 639.967" enable-background="new 0 0 410.882 639.967"
	 xml:space="preserve">
<g id="_x34_8" display="none">
</g>
<g id="_x34_9_1_">
	<g>
		<g>
			<path fill="#776537" d="M120.059,172.985c0,0-7.818,2.858-7.744,16.085c0.027,4.433,2.383,16.086-5.957,16.682
				c0,0,10.127,1.192,13.105-5.361c0,0-0.596,11.916-5.362,14.894c0,0,28.003,11.915,32.768-14.894l-2.383-39.32
				C144.485,161.071,127.209,153.92,120.059,172.985z"/>
		</g>
		<g>
			<path fill="#776537" d="M296.367,189.07c0.074-13.227-7.745-16.085-7.745-16.085c-7.149-19.064-24.426-11.914-24.426-11.914
				l-2.383,39.32c4.767,26.809,32.767,14.894,32.767,14.894c-4.766-2.979-5.363-14.894-5.363-14.894
				c2.98,6.553,13.109,5.361,13.109,5.361C293.984,205.156,296.34,193.502,296.367,189.07z"/>
		</g>
		<g>
			<g>
				<polygon fill="#B7B7B7" points="110.326,238.817 132.369,257.882 129.392,236.434 				"/>
			</g>
			<g>
				<polygon fill="#B7B7B7" points="276.245,257.882 298.29,238.817 279.226,236.434 				"/>
			</g>
			<g>
				<path fill="#F4B07D" d="M129.256,166.836c0,65.129-36.799,201.028-36.799,201.028h224.799c0,0-37.459-106.902-37.459-201.028
					C279.797,129.206,129.256,129.202,129.256,166.836z"/>
			</g>
			<g>
				<g>
					<path fill="#776537" d="M122.664,39.273c-21.898,16.807-31.569,86.637,5.289,123.5l80.017-89.476l-1.889-34.647
						C206.081,38.649,176.852-2.308,122.664,39.273z"/>
				</g>
				<g>
					<path fill="#776537" d="M289.786,39.273c-54.188-41.582-83.416-0.624-83.416-0.624l-1.889,34.647l80.017,89.476
						C321.358,125.91,311.681,56.085,289.786,39.273z"/>
				</g>
				<g>
					<path fill="#F4B07D" d="M201.893,53.526c-47.95-0.694-68.089,31.668-68.089,31.668c-16.831,27.541-11.8,112.618-11.8,112.618
						c0,42.093,58.384,75.634,82.905,75.634c24.522,0,83.117-31.352,83.117-75.634c0,0,4.134-85.078-12.697-112.618
						C275.329,85.194,250.028,52.832,201.893,53.526z"/>
				</g>
				<g>
					<g opacity="0.1">
						<path fill="#232222" d="M204.889,243.545c-28.576,0-40.482-16.672-40.482-16.672s6.549,22.631,39.091,22.631
							c32.944,0,39.093-22.631,39.093-22.631C223.926,245.538,204.889,243.545,204.889,243.545z"/>
					</g>
				</g>
				<g opacity="0.2">
					<g>
						<path fill="#231F20" d="M184.72,166.529c-0.02-0.006-0.037-0.015-0.057-0.021c-0.062-0.01-0.115-0.024-0.177-0.034
							L184.72,166.529z"/>
						<path fill="#231F20" d="M221.836,166.472c-0.062,0.009-0.116,0.024-0.178,0.034c-0.02,0.006-0.037,0.015-0.057,0.021
							L221.836,166.472z"/>
						<path fill="#231F20" d="M226.681,156.948c-0.424-0.558-0.854-1.064-1.378-1.579c-0.38-0.371-0.99-0.392-1.393-0.033
							c-0.42,0.375-0.456,1.02-0.081,1.439l0.022,0.025c0.366,0.41,0.742,0.909,1.061,1.397c0.321,0.496,0.617,1.002,0.851,1.521
							c0.473,1.034,0.703,2.12,0.518,3.034c-0.09,0.458-0.278,0.875-0.555,1.259c-0.122,0.199-0.302,0.375-0.469,0.557
							c-0.187,0.172-0.37,0.346-0.594,0.498c-0.418,0.322-0.919,0.583-1.426,0.835c-0.506,0.227-1.037,0.423-1.579,0.604
							c0.062-0.01,0.115-0.025,0.178-0.034l-0.234,0.056c0.02-0.006,0.037-0.015,0.057-0.021c-0.964,0.156-1.828,0.361-2.725,0.629
							c-0.94,0.287-1.87,0.641-2.778,1.091c-0.904,0.458-1.795,1.002-2.599,1.736c-0.806,0.694-1.526,1.75-1.944,2.453
							c-0.239,0.324-0.455,0.728-0.702,0.971l-0.354,0.412c-0.13,0.118-0.272,0.214-0.405,0.325c-0.241,0.245-0.583,0.386-0.9,0.553
							c-0.292,0.196-0.691,0.279-1.06,0.397l-0.557,0.175c-0.195,0.045-0.408,0.064-0.611,0.098l-1.23,0.188l-2.525,0.097
							c-0.898-0.05-1.875-0.041-2.71-0.139c-0.789-0.134-1.602-0.197-2.342-0.472l-0.57-0.164c-0.172-0.076-0.33-0.167-0.498-0.247
							l-0.5-0.241c-0.154-0.095-0.283-0.215-0.43-0.318c-0.593-0.39-1.028-0.995-1.514-1.664l-0.368-0.565l-0.093-0.142l-0.045-0.07
							l-0.105-0.147l-0.207-0.275c-0.209-0.316-0.737-0.877-1.121-1.225c-0.805-0.733-1.693-1.279-2.598-1.734
							c-0.909-0.451-1.839-0.806-2.779-1.092c-0.896-0.268-1.76-0.474-2.724-0.63c0.02,0.006,0.037,0.015,0.057,0.021l-0.233-0.056
							c0.062,0.01,0.115,0.024,0.177,0.034c-0.542-0.181-1.073-0.378-1.579-0.604c-0.507-0.251-1.008-0.513-1.426-0.835
							c-0.223-0.152-0.407-0.326-0.594-0.498c-0.166-0.182-0.347-0.358-0.469-0.557c-0.148-0.188-0.252-0.394-0.349-0.602
							c-0.094-0.209-0.158-0.43-0.208-0.657c-0.186-0.914,0.045-2,0.516-3.034c0.233-0.52,0.529-1.026,0.85-1.522
							c0.16-0.248,0.334-0.489,0.512-0.727c0.174-0.231,0.377-0.479,0.543-0.665l0.033-0.038c0.352-0.396,0.342-1.002-0.034-1.387
							c-0.394-0.402-1.038-0.41-1.44-0.017c-0.281,0.274-0.499,0.512-0.73,0.778c-0.225,0.262-0.444,0.529-0.65,0.807
							c-0.419,0.553-0.793,1.146-1.121,1.781c-0.642,1.257-1.126,2.77-0.898,4.413c0.111,0.81,0.42,1.607,0.859,2.285
							c0.213,0.35,0.479,0.643,0.74,0.937c0.273,0.275,0.553,0.545,0.853,0.768c0.59,0.476,1.222,0.832,1.854,1.167
							c0.639,0.311,1.284,0.574,1.935,0.81l0.071,0.025l0.163,0.03c0.771,0.142,1.647,0.374,2.442,0.642
							c0.808,0.272,1.588,0.601,2.312,0.988c0.719,0.389,1.41,0.814,1.953,1.333c0.164,0.126,0.227,0.237,0.35,0.35
							c0.057,0.062,0.106,0.095,0.172,0.18l0.204,0.277l0.204,0.277l0.015,0.02l-0.019-0.028c-0.014-0.02,0.099,0.142,0.049,0.069
							l-0.007-0.009l-0.013-0.018l-0.011-0.015l0.029,0.046l0.095,0.148l0.377,0.592c0.57,0.817,1.23,1.737,2.158,2.394
							c0.225,0.167,0.443,0.351,0.678,0.498l0.73,0.376c0.245,0.121,0.49,0.252,0.736,0.359l0.748,0.235
							c0.992,0.365,2.018,0.474,3.039,0.635c0.985,0.116,1.853,0.109,2.784,0.17l0.086,0.004l0.043,0.002l0.096,0.001l0.022-0.001
							l0.182-0.008l0.364-0.017l0.727-0.036l1.455-0.079l1.488-0.24c0.249-0.045,0.494-0.073,0.745-0.133l0.757-0.237
							c0.503-0.167,1.008-0.291,1.5-0.589c0.493-0.261,0.993-0.504,1.421-0.901c0.219-0.183,0.448-0.36,0.651-0.555l0.545-0.631
							c0.386-0.426,0.601-0.846,0.897-1.264c0.524-0.87,0.851-1.343,1.421-1.874c0.544-0.517,1.233-0.945,1.953-1.331
							c0.725-0.387,1.505-0.715,2.312-0.987c0.796-0.268,1.672-0.5,2.442-0.642l0.164-0.03l0.071-0.026
							c0.65-0.235,1.296-0.499,1.935-0.81c0.634-0.335,1.265-0.69,1.854-1.167c0.301-0.223,0.58-0.493,0.854-0.768
							c0.262-0.294,0.527-0.587,0.739-0.938c0.441-0.677,0.749-1.476,0.86-2.287c0.226-1.644-0.261-3.156-0.903-4.414
							C227.475,158.093,227.1,157.5,226.681,156.948z"/>
						<path fill="#231F20" d="M191.769,173.264l0.007,0.009c0.05,0.072-0.062-0.089-0.049-0.069l0.019,0.028l0.011,0.015
							L191.769,173.264z"/>
					</g>
				</g>
				<g>
					<path fill="#2E230E" d="M163.205,128.033c-2.533,0-4.59,2.057-4.59,4.594c0,2.536,2.057,4.584,4.59,4.584
						c2.532,0,4.59-2.048,4.59-4.584C167.795,130.09,165.737,128.033,163.205,128.033z"/>
				</g>
				<g>
					<path fill="#593B2E" d="M177.936,115.772c0,0-26.311-4.528-38.645,15.222c0,0,15.648-14.97,37.793-9.143
						C177.084,121.852,183.424,118.119,177.936,115.772z"/>
				</g>
				<g>
					<path fill="#2E230E" d="M243.439,130.033c-3.952,0-7.151,1.057-7.151,3.594c0,2.536,3.199-0.416,7.151-0.416
						c3.954,0,7.161,2.952,7.161,0.416C250.601,131.09,247.394,130.033,243.439,130.033z"/>
				</g>
				<g>
					<path fill="#593B2E" d="M228.088,117.486c-5.246,2.845,1.408,5.976,1.408,5.976c21.519-7.856,38.479,5.594,38.479,5.594
						C253.863,110.542,228.088,117.486,228.088,117.486z"/>
				</g>
				<g>
					<path fill="#F4B07D" d="M107.454,145.128c-1.751,7.373-1.894,47.256,20.786,22.057l0.633-20.167
						C128.873,147.018,113.124,121.187,107.454,145.128z"/>
				</g>
				<g>
					<path fill="#C18963" d="M116.447,154.379c0.342-3.521,3.08-5.706,3.118-5.736c0.548-0.425,0.65-1.214,0.228-1.765
						c-0.426-0.551-1.217-0.654-1.768-0.23c-0.148,0.114-3.617,2.832-4.082,7.449c-0.337,3.347,0.975,6.753,3.898,10.125
						c0.249,0.287,0.6,0.435,0.952,0.435c0.292,0,0.587-0.102,0.825-0.308c0.525-0.456,0.582-1.252,0.127-1.778
						C117.304,159.755,116.194,156.999,116.447,154.379z"/>
				</g>
				<g>
					<path fill="#F4B07D" d="M278.452,147.018l0.638,20.167c22.675,25.199,22.536-14.685,20.786-22.057
						C294.208,121.187,278.452,147.018,278.452,147.018z"/>
				</g>
				<g>
					<path fill="#C18963" d="M289.308,146.648c-0.551-0.425-1.342-0.322-1.768,0.23c-0.424,0.551-0.321,1.343,0.23,1.767
						c0.027,0.021,2.751,2.156,3.108,5.704c0.265,2.629-0.843,5.396-3.292,8.222c-0.456,0.526-0.399,1.322,0.127,1.777
						c0.238,0.207,0.532,0.308,0.824,0.308c0.354,0,0.704-0.147,0.953-0.435c2.922-3.372,4.232-6.778,3.896-10.125
						C292.922,149.479,289.455,146.761,289.308,146.648z"/>
				</g>
				<g>
					<path fill="#C18963" d="M228.011,186.777c-21.892,16.357-47.697,2.59-47.955,2.448c-0.763-0.417-1.718-0.137-2.136,0.625
						s-0.139,1.718,0.623,2.136c0.173,0.095,11.069,5.931,24.979,5.931c8.267,0,17.599-2.062,26.374-8.619
						c0.696-0.52,0.839-1.506,0.318-2.203C229.694,186.398,228.707,186.257,228.011,186.777z"/>
				</g>
				<g>
					<path fill="#776537" d="M215.278,42.848l-57.118,6.297l-38.646,8.402c0,0-9.252,55.248-7.991,55.666
						c1.257,0.418,44.532-22.481,44.532-22.481l50.204-17.435l74.555,22.896l15.126-6.297l-7.983-39.488L215.278,42.848z"/>
				</g>
				<g opacity="0.3">
					<path fill="#231F20" d="M280.813,83.857l-74.984-10.561c0,0,30.25,70.151,97.454,34.238
						C303.283,107.535,283.963,97.085,280.813,83.857z"/>
				</g>
				<g opacity="0.3">
					<path fill="#231F20" d="M120.972,108.02c66.241,17.733,84.43-35.252,84.43-35.252l-63.63,15.415
						C136.163,100.716,120.972,108.02,120.972,108.02z"/>
				</g>
				<g>
					<path fill="#776537" d="M280.813,82.751l-74.555-9.454c0,0,28.354,60.703,92.193,33.4
						C298.452,106.697,283.963,95.983,280.813,82.751z"/>
				</g>
				<g>
					<path fill="#776537" d="M127.627,106.521c54.613,9.169,77.774-33.753,77.774-33.753L141.57,84.915
						C139.561,96.5,127.627,106.521,127.627,106.521z"/>
				</g>
				<g>
					<path fill="#776537" d="M212.346,0c-9.662,3.361-14.279,26.045-14.279,26.045c0-10.928-11.348-21.847-11.348-21.847
						c3.443,14.884-6.722,18.488-6.722,18.488l-6.716,28.978l38.641,7.141l21.006-25.618l5.288-12.121
						C208.827,29.807,212.346,0,212.346,0z"/>
				</g>
			</g>
		</g>
		<g>
			<path fill="#F4B07D" d="M110.566,262.189c-0.971,0.705-24.06,17.551-48.236,43.376c-33.929,36.24-53.016,71.563-56.73,104.99
				c-6.046,54.434-5.29,78.985-4.559,102.729c0.24,7.812,0.489,15.892,0.489,25.023c0,12.713,10.306,23.02,23.02,23.02
				s23.02-10.307,23.02-23.02c0-9.841-0.261-18.279-0.511-26.44c-0.714-23.16-1.388-45.036,4.299-96.228
				c5.292-47.617,64.049-100.013,86.255-116.193c10.282-7.467,12.568-21.855,5.104-32.143
				C135.252,257.014,120.859,254.723,110.566,262.189z"/>
		</g>
		<g>
			<polygon fill="#282828" points="137.928,299.901 124.17,280.937 124.085,280.821 			"/>
			<path fill="#282828" d="M137.928,299.901l-13.843-19.08l0.085,0.116l-13.928-19.196c-0.973,0.706-24.104,17.583-48.316,43.447
				C27.914,341.517,8.778,376.946,5.049,410.494c-6.05,54.473-5.293,79.045-4.561,102.808c0.24,7.808,0.488,15.883,0.488,25.006
				h47.146c0-9.85-0.26-18.292-0.512-26.458c-0.713-23.14-1.386-44.996,4.296-96.149c5.271-47.418,63.896-99.678,86.04-115.812
				l-13.777-18.951L137.928,299.901z"/>
		</g>
		<g>
			<path fill="#F4B07D" d="M348.55,305.565c-24.179-25.825-47.27-42.672-48.24-43.377c-10.289-7.465-24.686-5.176-32.15,5.116
				c-7.465,10.291-5.175,24.684,5.115,32.15c22.188,16.096,80.934,68.346,86.25,116.185c5.688,51.191,5.013,73.067,4.3,96.227
				c-0.252,8.162-0.512,16.601-0.512,26.442c0,12.713,10.307,23.02,23.02,23.02s23.02-10.307,23.02-23.02
				c0-9.133,0.249-17.212,0.489-25.024c0.731-23.743,1.488-48.295-4.559-102.729C401.567,377.129,382.48,341.806,348.55,305.565z"/>
		</g>
		<g>
			<path fill="#282828" d="M348.954,305.187c-24.215-25.863-47.347-42.74-48.319-43.446l-27.686,38.162
				c22.133,16.056,80.731,68.158,86.025,115.797c5.683,51.153,5.009,73.01,4.296,96.149c-0.251,8.165-0.512,16.609-0.512,26.459
				h47.146c0-9.124,0.249-17.198,0.489-25.008c0.732-23.762,1.489-48.334-4.562-102.807
				C402.104,376.946,382.968,341.517,348.954,305.187z"/>
		</g>
		<g>
			<path fill="#2D2D2D" d="M153.282,503.962c-14.478,0-26.214,11.736-26.214,26.214v109.791h52.428V530.176
				C179.496,515.698,167.76,503.962,153.282,503.962z"/>
		</g>
		<g>
			<path fill="#2D2D2D" d="M250.918,503.962c-14.478,0-26.214,11.736-26.214,26.214v109.791h52.428V530.176
				C277.132,515.698,265.396,503.962,250.918,503.962z"/>
		</g>
		<g>
			<path fill="#F4B07D" d="M78.779,419.229c0,87.186,0,99.036,0,100.325c0,0.113,0,0.146,0,0.141c0,0.05,0,0.114,0,0.201
				c0,0.214,13.097,0.316,13.097,0.316h113.037V269.926H118.07C104.671,327.134,78.779,322.525,78.779,419.229z"/>
		</g>
		<g>
			<path fill="#F4B07D" d="M200.58,269.926v250.287h113.031c0,0,13.098-0.103,13.098-0.316c0-0.087,0-0.151,0-0.201
				c0,0.006,0-0.027,0-0.141c0-1.289,0-13.14,0-100.325c0-96.704-25.888-92.096-39.292-149.304H200.58z"/>
		</g>
		<g>
			<g opacity="0.2">
				<path fill="#232222" d="M145.541,343.485c-6.265,0-11.347,5.082-11.347,11.352s5.082,11.352,11.347,11.352
					c6.27,0,11.347-5.082,11.347-11.352S151.811,343.485,145.541,343.485z"/>
			</g>
			<g opacity="0.2">
				<path fill="#232222" d="M145.541,349.164c-3.137,0-5.678,2.54-5.678,5.673s2.541,5.684,5.678,5.684
					c3.139,0,5.679-2.551,5.679-5.684S148.68,349.164,145.541,349.164z"/>
			</g>
		</g>
		<g>
			<g opacity="0.2">
				<path fill="#232222" d="M259.919,343.485c-6.265,0-11.349,5.082-11.349,11.352s5.084,11.352,11.349,11.352
					c6.266,0,11.347-5.082,11.347-11.352S266.185,343.485,259.919,343.485z"/>
			</g>
			<g opacity="0.2">
				<path fill="#232222" d="M259.919,349.164c-3.139,0-5.68,2.54-5.68,5.673s2.541,5.684,5.68,5.684
					c3.137,0,5.677-2.551,5.677-5.684S263.056,349.164,259.919,349.164z"/>
			</g>
		</g>
		<g opacity="0.2">
			<path fill="#232222" d="M204.475,461.278c-1.926,0-3.49,2.541-3.49,5.679c0,3.131,1.564,5.672,3.49,5.672
				c1.928,0,3.491-2.541,3.491-5.672C207.966,463.819,206.402,461.278,204.475,461.278z"/>
		</g>
		<g>
			<path fill="#2D2D2D" d="M202.729,624.19c69.038,0,125.002-42.872,125.002-111.91H77.727
				C77.727,581.318,133.691,624.19,202.729,624.19z"/>
		</g>
		<g>
			<rect x="78.728" y="512.448" fill="#161516" width="248.512" height="18.688"/>
		</g>
		<g>
			<rect x="186.369" y="512.448" fill="#D6D6D6" width="35.495" height="18.688"/>
		</g>
		<g>
			<rect x="117.006" y="267.115" fill="#FFFFFF" width="169.8" height="245.762"/>
		</g>
		<g>
			<path fill="#282828" d="M63.262,454.999c0,0-0.997,59.376-5.106,86.558c0,0,7.931,3.594,27.912,3.594
				c0,0,40.562,4.785,44.961-0.401l-1.195-59.549L63.262,454.999z"/>
		</g>
		<g>
			<path fill="#282828" d="M65.91,515.165h64.221V259.548H110.75C46.245,328.698,65.91,515.165,65.91,515.165z"/>
		</g>
		<g>
			<path fill="#282828" d="M278.928,485.2l-1.202,59.549c4.403,5.187,41.774,2.393,41.774,2.393c19.985,0,34.791-3.976,34.791-3.976
				c-6.256-20.255-6.256-81.022-6.256-81.022L278.928,485.2z"/>
		</g>
		<g>
			<path fill="#282828" d="M298.011,259.548h-19.383v255.617h68.988C347.616,515.165,359.22,303.279,298.011,259.548z"/>
		</g>
		<g>
			<polygon fill="#2D2D2D" points="126.904,306.995 94.402,348.046 128.967,474.175 128.967,259.427 94.402,304.589 			"/>
		</g>
		<g>
			<polygon fill="#2D2D2D" points="278.396,259.427 278.396,474.175 312.961,348.046 280.463,306.995 312.961,304.589 			"/>
		</g>
		<g>
			<g>
				<g>
					<polygon fill="#EA94C7" points="178.104,268.178 203.46,293.534 229.731,268.178 204.062,261.53 					"/>
				</g>
				<g>
					<path fill="#EA94C7" d="M204.359,274.628v-0.885l-0.443,0.438l-0.438-0.438l-0.046,0.937l-7.902,8.019l-18.543,176.546
						c0,0,20.366,45.916,27.372,45.916c8.885,0,26.488-45.916,26.488-45.916l-18.544-176.546L204.359,274.628z"/>
				</g>
			</g>
			<g>
				<polygon fill="#D6D6D6" points="110.326,238.817 110.326,259.474 177.848,290.452 204.909,261.53 117.475,241.2 				"/>
			</g>
			<g>
				<polygon fill="#D6D6D6" points="204.062,261.53 231.121,290.452 298.64,259.474 298.64,238.817 291.49,241.2 				"/>
			</g>
		</g>
		<g>
			<g>
				<path fill="#F4B07D" d="M205.651,257.396c-44.299,0-62.749-23.624-62.749-23.624s10.147,32.067,60.595,32.067
					c51.068,0,60.596-32.067,60.596-32.067C235.166,260.222,205.651,257.396,205.651,257.396z"/>
			</g>
		</g>
	</g>
</g>
<g id="_x35_0" display="none">
</g>
</svg>
