<?xml version="1.0" encoding="utf-8"?>
<!-- Generator: Adobe Illustrator 16.0.0, SVG Export Plug-In . SVG Version: 6.00 Build 0)  -->
<!DOCTYPE svg PUBLIC "-//W3C//DTD SVG 1.1//EN" "http://www.w3.org/Graphics/SVG/1.1/DTD/svg11.dtd">
<svg version="1.1" xmlns="http://www.w3.org/2000/svg" xmlns:xlink="http://www.w3.org/1999/xlink" x="0px" y="0px" width="1440px"
	 height="700px" viewBox="0 0 1440 700" enable-background="new 0 0 1440 700" xml:space="preserve">
<g id="_x34_8" display="none">
	<rect display="inline" fill="#CC3A33" width="1440" height="699.999"/>
	<polygon display="inline" opacity="0.3" fill="#FFFFFF" points="537.908,0 437.908,699.999 1001.964,699.999 901.964,0 	"/>
	<ellipse display="inline" opacity="0.3" fill="#231F20" cx="724.116" cy="605.776" rx="148.5" ry="4.556"/>
	<g display="inline">
		<path fill="#776537" d="M669.681,190.036c0,0-4.944,1.807-4.896,10.171c0.018,2.803,1.507,10.171-3.767,10.548
			c0,0,6.404,0.754,8.287-3.39c0,0-0.376,7.534-3.391,9.417c0,0,17.706,7.534,20.719-9.417l-1.507-24.862
			C685.126,182.503,674.202,177.981,669.681,190.036z"/>
		<path fill="#776537" d="M781.163,200.207c0.047-8.364-4.897-10.171-4.897-10.171c-4.521-12.055-15.444-7.533-15.444-7.533
			l-1.507,24.862c3.014,16.951,20.719,9.417,20.719,9.417c-3.014-1.883-3.392-9.417-3.392-9.417c1.885,4.144,8.289,3.39,8.289,3.39
			C779.656,210.378,781.146,203.01,781.163,200.207z"/>
		<g>
			<polygon fill="#B7B7B7" points="663.528,231.663 677.466,243.717 675.583,230.156 			"/>
			<polygon fill="#B7B7B7" points="768.439,243.717 782.379,231.663 770.324,230.156 			"/>
			<path fill="#F4B07D" d="M675.497,186.148c0,41.182-23.268,127.112-23.268,127.112h142.142c0,0-23.686-67.595-23.686-127.112
				C770.686,162.354,675.497,162.352,675.497,186.148z"/>
			<g>
				<path fill="#776537" d="M671.329,105.489c-13.847,10.627-19.962,54.781,3.344,78.09l50.596-56.577l-1.194-21.908
					C724.074,105.095,705.592,79.197,671.329,105.489z"/>
				<path fill="#776537" d="M777.002,105.489c-34.264-26.292-52.745-0.395-52.745-0.395l-1.194,21.908l50.596,56.577
					C796.965,160.271,790.846,116.119,777.002,105.489z"/>
				<path fill="#F4B07D" d="M721.426,114.501c-30.319-0.438-43.053,20.024-43.053,20.024c-10.642,17.414-7.461,71.209-7.461,71.209
					c0,26.616,36.917,47.824,52.421,47.824c15.506,0,52.556-19.824,52.556-47.824c0,0,2.614-53.795-8.028-71.209
					C767.86,134.525,751.862,114.062,721.426,114.501z"/>
				<g>
					<path opacity="0.1" fill="#232222" d="M723.32,234.652c-18.069,0-25.598-10.542-25.598-10.542s4.141,14.31,24.718,14.31
						c20.831,0,24.719-14.31,24.719-14.31C735.357,235.912,723.32,234.652,723.32,234.652z"/>
				</g>
				<g opacity="0.2">
					<path fill="#231F20" d="M736.231,178.901c0.153,0.148,0.314,0.329,0.452,0.487c0.139,0.168,0.28,0.334,0.407,0.512
						c0.259,0.354,0.505,0.72,0.706,1.127c0.105,0.199,0.204,0.403,0.279,0.625c0.087,0.214,0.164,0.435,0.209,0.675
						c0.059,0.232,0.106,0.469,0.107,0.724c0.019,0.25,0.026,0.5-0.029,0.757c-0.037,0.257-0.075,0.514-0.19,0.75
						c-0.104,0.236-0.18,0.499-0.343,0.691c-0.151,0.201-0.295,0.419-0.462,0.599l-0.543,0.48c-0.178,0.175-0.381,0.27-0.576,0.395
						l-0.593,0.352l-1.224,0.512l-0.034,0.015l-0.114,0.021c-0.487,0.089-1.041,0.236-1.544,0.406
						c-0.511,0.172-1.005,0.379-1.462,0.625c-0.456,0.244-0.892,0.514-1.236,0.841c-0.36,0.335-0.566,0.635-0.897,1.185
						c-0.342,0.508-0.727,1.116-1.324,1.55c-0.271,0.251-0.586,0.405-0.898,0.57c-0.311,0.189-0.63,0.267-0.948,0.372
						c-0.644,0.246-1.26,0.262-1.892,0.386c-0.632,0.034-1.184,0.074-1.88,0.084c-0.59-0.039-1.138-0.035-1.761-0.108
						c-0.646-0.102-1.294-0.171-1.921-0.401l-0.473-0.148c-0.156-0.068-0.311-0.151-0.465-0.228
						c-0.314-0.146-0.616-0.317-0.891-0.553c-0.587-0.415-1.004-0.997-1.364-1.513l-0.239-0.375l-0.06-0.093l-0.03-0.047
						c0.058,0.083-0.002-0.002,0.002,0.005l-0.129-0.175c-0.195-0.28-0.285-0.33-0.458-0.51c-0.344-0.328-0.781-0.597-1.235-0.843
						c-0.458-0.245-0.952-0.452-1.462-0.625c-0.503-0.169-1.057-0.316-1.544-0.406l-0.114-0.021l-0.034-0.015l-1.223-0.512
						l-0.593-0.352c-0.195-0.125-0.398-0.22-0.576-0.395l-0.542-0.479c-0.167-0.179-0.311-0.398-0.461-0.599
						c-0.163-0.192-0.239-0.455-0.343-0.69c-0.116-0.236-0.154-0.493-0.191-0.749c-0.056-0.257-0.048-0.507-0.029-0.757
						c0-0.254,0.047-0.492,0.106-0.724c0.044-0.24,0.121-0.46,0.208-0.675c0.076-0.222,0.174-0.427,0.28-0.626
						c0.2-0.406,0.446-0.773,0.704-1.127c0.268-0.355,0.528-0.674,0.865-1.007c0.253-0.25,0.662-0.247,0.911,0.006
						c0.242,0.245,0.247,0.634,0.019,0.885l-0.018,0.02c-0.229,0.25-0.468,0.571-0.671,0.876c-0.203,0.312-0.394,0.633-0.533,0.963
						c-0.077,0.164-0.146,0.328-0.19,0.495c-0.058,0.165-0.106,0.33-0.123,0.493c-0.034,0.164-0.059,0.325-0.044,0.479
						c-0.005,0.157-0.005,0.311,0.043,0.451c0.03,0.145,0.049,0.291,0.132,0.416c0.074,0.126,0.098,0.272,0.218,0.381
						c0.102,0.115,0.178,0.243,0.289,0.355l0.381,0.312c0.111,0.116,0.286,0.186,0.435,0.274l0.459,0.259l1.034,0.396l-0.148-0.036
						c0.658,0.101,1.231,0.24,1.834,0.42c0.594,0.181,1.182,0.405,1.757,0.69c0.572,0.288,1.134,0.633,1.643,1.097
						c0.243,0.22,0.577,0.575,0.709,0.774l0.13,0.174l0.096,0.137l0.058,0.089l0.233,0.357c0.307,0.423,0.583,0.806,0.958,1.052
						c0.092,0.065,0.174,0.141,0.271,0.201l0.316,0.152l0.315,0.156l0.36,0.104c0.468,0.174,0.982,0.214,1.481,0.299
						c0.527,0.062,1.146,0.056,1.714,0.088l1.597-0.062c0.504-0.102,1.071-0.11,1.517-0.292c0.232-0.074,0.484-0.126,0.67-0.251
						c0.2-0.105,0.416-0.195,0.569-0.35c0.361-0.239,0.618-0.637,0.924-1.081c0.265-0.444,0.72-1.112,1.229-1.551
						c0.509-0.464,1.071-0.809,1.643-1.098c0.575-0.285,1.163-0.509,1.758-0.69c0.604-0.18,1.177-0.319,1.835-0.419l-0.148,0.035
						l1.034-0.396l0.459-0.258c0.148-0.089,0.324-0.159,0.435-0.275l0.382-0.311c0.11-0.112,0.187-0.24,0.288-0.355
						c0.119-0.109,0.144-0.254,0.218-0.381c0.083-0.125,0.102-0.271,0.132-0.416c0.048-0.14,0.047-0.294,0.042-0.451
						c0.015-0.154-0.01-0.315-0.044-0.479c-0.018-0.163-0.065-0.328-0.124-0.493c-0.044-0.167-0.112-0.331-0.189-0.495
						c-0.293-0.652-0.727-1.303-1.212-1.846l-0.006-0.006c-0.237-0.265-0.215-0.673,0.051-0.91
						C735.605,178.656,735.991,178.668,736.231,178.901z"/>
				</g>
				<circle fill="#2E230E" cx="696.963" cy="164.514" r="2.902"/>
				<path fill="#593B2E" d="M706.277,153.86c0,0-16.637-2.863-24.436,9.625c0,0,9.895-9.466,23.897-5.781
					C705.739,157.704,709.748,155.344,706.277,153.86z"/>
				<circle fill="#2E230E" cx="747.697" cy="164.514" r="2.902"/>
				<path fill="#593B2E" d="M737.989,154.944c-3.317,1.799,0.891,3.779,0.891,3.779c13.606-4.968,24.33,3.537,24.33,3.537
					C754.287,150.553,737.989,154.944,737.989,154.944z"/>
				<path fill="#F4B07D" d="M661.711,172.422c-1.107,4.662-1.198,29.88,13.144,13.947l0.4-12.752
					C675.255,173.617,665.296,157.284,661.711,172.422z"/>
				
					<path fill="none" stroke="#C18963" stroke-width="1.5936" stroke-linecap="round" stroke-linejoin="round" stroke-miterlimit="10" d="
					M668.881,174.015c0,0-5.18,3.985,0,9.958"/>
				<path fill="#F4B07D" d="M769.835,173.617l0.403,12.752c14.338,15.934,14.25-9.285,13.144-13.947
					C779.798,157.284,769.835,173.617,769.835,173.617z"/>
				
					<path fill="none" stroke="#C18963" stroke-width="1.5936" stroke-linecap="round" stroke-linejoin="round" stroke-miterlimit="10" d="
					M776.213,174.015c0,0,5.177,3.985,0,9.958"/>
				
					<path fill="none" stroke="#C18963" stroke-width="1.9905" stroke-linecap="round" stroke-linejoin="round" stroke-miterlimit="10" d="
					M707.14,201.178c0,0,16.854,9.241,31.396-1.624"/>
				<path fill="#776537" d="M729.89,107.75l-36.117,3.982l-24.436,5.312c0,0-5.85,34.934-5.053,35.198
					c0.795,0.265,28.159-14.215,28.159-14.215l31.744-11.024l47.142,14.477l9.564-3.982l-5.048-24.968L729.89,107.75z"/>
				<path opacity="0.3" fill="#231F20" d="M771.328,133.68l-47.413-6.678c0,0,19.127,44.357,61.621,21.649
					C785.536,148.651,773.319,142.044,771.328,133.68z"/>
				<path opacity="0.3" fill="#231F20" d="M670.259,148.958c41.885,11.213,53.386-22.291,53.386-22.291l-40.234,9.747
					C679.864,144.34,670.259,148.958,670.259,148.958z"/>
				<path fill="#776537" d="M771.328,132.98l-47.142-5.978c0,0,17.929,38.383,58.295,21.12
					C782.481,148.122,773.319,141.347,771.328,132.98z"/>
				<path fill="#776537" d="M674.467,148.01c34.533,5.797,49.178-21.343,49.178-21.343l-40.361,7.681
					C682.012,141.674,674.467,148.01,674.467,148.01z"/>
				<path fill="#776537" d="M728.035,80.656c-6.109,2.125-9.029,16.469-9.029,16.469c0-6.91-7.175-13.814-7.175-13.814
					c2.178,9.412-4.25,11.69-4.25,11.69l-4.247,18.323l24.433,4.515l13.282-16.198l3.344-7.664
					C725.811,99.503,728.035,80.656,728.035,80.656z"/>
			</g>
		</g>
		
			<path fill="none" stroke="#F4B07D" stroke-width="29.1108" stroke-linecap="round" stroke-linejoin="round" stroke-miterlimit="10" d="
			M672.227,258.223c0,0-55.644,40.37-60.453,83.639c-4.967,44.719-2.484,55.484-2.484,79.172"/>
		<path fill="none" stroke="#282828" stroke-width="29.811" stroke-linejoin="round" stroke-miterlimit="10" d="M672.227,258.223
			c0,0-55.644,40.37-60.453,83.639c-4.967,44.719-2.484,55.484-2.484,79.172"/>
		
			<path fill="none" stroke="#F4B07D" stroke-width="29.1108" stroke-linecap="round" stroke-linejoin="round" stroke-miterlimit="10" d="
			M775.108,258.223c0,0,55.647,40.37,60.456,83.639c4.968,44.719,2.484,55.484,2.484,79.172"/>
		<path fill="none" stroke="#282828" stroke-width="29.811" stroke-linejoin="round" stroke-miterlimit="10" d="M775.108,258.223
			c0,0,55.647,40.37,60.456,83.639c4.968,44.719,2.484,55.484,2.484,79.172"/>
		
			<line fill="none" stroke="#2D2D2D" stroke-width="33.1501" stroke-linecap="round" stroke-linejoin="round" stroke-miterlimit="10" x1="690.689" y1="415.892" x2="690.689" y2="578.259"/>
		
			<line fill="none" stroke="#2D2D2D" stroke-width="33.1501" stroke-linecap="round" stroke-linejoin="round" stroke-miterlimit="10" x1="752.425" y1="415.892" x2="752.425" y2="578.259"/>
		<path fill="#F4B07D" d="M643.58,345.739c0,55.126,0,62.621,0,63.437c0,0.071,0,0.093,0,0.089c0,0.031,0,0.072,0,0.127
			c0,0.136,8.281,0.2,8.281,0.2h71.475V251.333h-54.912C659.952,287.506,643.58,284.592,643.58,345.739z"/>
		<path fill="#F4B07D" d="M720.596,251.333v158.259h71.471c0,0,8.282-0.064,8.282-0.2c0-0.055,0-0.096,0-0.127
			c0,0.004,0-0.018,0-0.089c0-0.815,0-8.311,0-63.437c0-61.147-16.369-58.233-24.845-94.406H720.596z"/>
		<g>
			<circle opacity="0.2" fill="#232222" cx="685.794" cy="305.023" r="7.178"/>
			<path opacity="0.2" fill="#232222" d="M685.794,301.436c-1.983,0-3.59,1.606-3.59,3.587c0,1.981,1.607,3.594,3.59,3.594
				c1.984,0,3.591-1.613,3.591-3.594C689.385,303.042,687.778,301.436,685.794,301.436z"/>
		</g>
		<g>
			<circle opacity="0.2" fill="#232222" cx="758.116" cy="305.023" r="7.178"/>
			<circle opacity="0.2" fill="#232222" cx="758.116" cy="305.026" r="3.59"/>
		</g>
		<ellipse opacity="0.2" fill="#232222" cx="723.059" cy="375.916" rx="2.207" ry="3.588"/>
		<path fill="#2D2D2D" d="M721.955,475.338c43.653,0,79.04-27.108,79.04-70.762H642.914
			C642.914,448.229,678.302,475.338,721.955,475.338z"/>
		<path fill="#1C1C1C" d="M626.801,604.46h80.268v-21.302C662.745,583.158,626.801,592.693,626.801,604.46z"/>
		<path fill="#1C1C1C" d="M735.802,583.158v21.302h80.263C816.064,592.693,780.13,583.158,735.802,583.158z"/>
		<rect x="671.968" y="572.55" fill="#2D2D2D" width="36.464" height="12.513"/>
		<rect x="734.172" y="572.55" fill="#2D2D2D" width="36.458" height="12.513"/>
		<rect x="643.547" y="404.683" fill="#161516" width="157.136" height="11.816"/>
		<rect x="711.61" y="404.683" fill="#D6D6D6" width="22.443" height="11.816"/>
		<rect x="667.751" y="249.556" fill="#FFFFFF" width="107.366" height="155.397"/>
		<path fill="#282828" d="M633.768,368.356c0,0-0.63,37.544-3.229,54.731c0,0,5.015,2.272,17.649,2.272
			c0,0,25.648,3.025,28.429-0.254l-0.756-37.653L633.768,368.356z"/>
		<path fill="#282828" d="M635.442,406.4h40.608V244.771h-12.255C623.008,288.495,635.442,406.4,635.442,406.4z"/>
		<path fill="#282828" d="M770.136,387.453l-0.76,37.653c2.784,3.279,26.414,1.513,26.414,1.513c12.637,0,21.999-2.514,21.999-2.514
			c-3.956-12.808-3.956-51.231-3.956-51.231L770.136,387.453z"/>
		<path fill="#282828" d="M782.202,244.771h-12.256V406.4h43.622C813.568,406.4,820.905,272.423,782.202,244.771z"/>
		<polygon fill="#2D2D2D" points="674.01,274.772 653.459,300.729 675.314,380.481 675.314,244.694 653.459,273.25 		"/>
		<polygon fill="#2D2D2D" points="769.8,244.694 769.8,380.481 791.655,300.729 771.106,274.772 791.655,273.25 		"/>
		<g>
			<g>
				<polygon fill="#EA94C7" points="706.383,250.228 722.417,266.261 739.028,250.228 722.797,246.024 				"/>
				<path fill="#EA94C7" d="M722.985,254.306v-0.56l-0.28,0.276l-0.276-0.276l-0.029,0.592l-4.997,5.07l-11.725,111.632
					c0,0,12.878,29.033,17.308,29.033c5.618,0,16.749-29.033,16.749-29.033l-11.726-111.632L722.985,254.306z"/>
			</g>
			<polygon fill="#D6D6D6" points="663.528,231.663 663.528,244.724 706.222,264.312 723.333,246.024 668.048,233.169 			"/>
			<polygon fill="#D6D6D6" points="722.797,246.024 739.907,264.312 782.6,244.724 782.6,231.663 778.079,233.169 			"/>
		</g>
		<g>
			<path fill="#F4B07D" d="M723.803,243.41c-28.011,0-39.677-14.938-39.677-14.938s6.416,20.276,38.314,20.276
				c32.291,0,38.315-20.276,38.315-20.276C742.465,245.197,723.803,243.41,723.803,243.41z"/>
		</g>
	</g>
	<g display="inline">
		<path fill="#FFFFFF" d="M801.795,218.025c-0.867-1.253-0.892-2.064-0.892-2.064s-0.361,1.197-1.229,2.064
			c-0.378,0.378-1.871,1.036-1.871,1.036s1.663,0.503,2.016,0.939c0.703,0.869,1.084,4.384,1.084,4.384s0.261-3.512,0.988-4.384
			c0.367-0.44,2.111-0.939,2.111-0.939S802.493,219.033,801.795,218.025z"/>
		<path fill="#FFFFFF" d="M588.008,283.846c-0.867-1.253-0.892-2.064-0.892-2.064s-0.361,1.197-1.229,2.064
			c-0.378,0.378-1.871,1.036-1.871,1.036s1.663,0.502,2.016,0.939c0.703,0.869,1.084,4.384,1.084,4.384s0.261-3.512,0.988-4.384
			c0.367-0.44,2.111-0.939,2.111-0.939S588.706,284.854,588.008,283.846z"/>
		<path fill="#FFFFFF" d="M597.976,453.024c-0.867-1.253-0.892-2.064-0.892-2.064s-0.361,1.197-1.229,2.064
			c-0.378,0.378-1.871,1.035-1.871,1.035s1.663,0.504,2.016,0.94c0.703,0.868,1.084,4.384,1.084,4.384s0.261-3.513,0.988-4.384
			c0.367-0.44,2.111-0.94,2.111-0.94S598.674,454.033,597.976,453.024z"/>
		<path fill="#FFFFFF" d="M579.236,369.781c-0.867-1.253-0.892-2.064-0.892-2.064s-0.361,1.197-1.229,2.064
			c-0.378,0.378-1.871,1.035-1.871,1.035s1.663,0.504,2.016,0.94c0.703,0.868,1.084,4.384,1.084,4.384s0.261-3.513,0.988-4.384
			c0.367-0.44,2.111-0.94,2.111-0.94S579.935,370.79,579.236,369.781z"/>
		<path fill="#FFFFFF" d="M652.976,462.025c-0.867-1.254-0.892-2.064-0.892-2.064s-0.361,1.197-1.229,2.064
			c-0.378,0.377-1.871,1.035-1.871,1.035s1.663,0.503,2.016,0.939c0.703,0.869,1.084,4.384,1.084,4.384s0.261-3.513,0.988-4.384
			c0.367-0.439,2.111-0.939,2.111-0.939S653.674,463.033,652.976,462.025z"/>
		<path fill="#FFFFFF" d="M792,473c-0.867-1.254-0.892-2.064-0.892-2.064s-0.361,1.197-1.229,2.064
			c-0.378,0.377-1.871,1.035-1.871,1.035s1.663,0.503,2.016,0.939c0.703,0.869,1.084,4.384,1.084,4.384s0.261-3.513,0.988-4.384
			c0.367-0.439,2.111-0.939,2.111-0.939S792.698,474.008,792,473z"/>
		<path fill="#FFFFFF" d="M861,346.795c-0.867-1.253-0.892-2.064-0.892-2.064s-0.361,1.197-1.229,2.064
			c-0.378,0.378-1.871,1.036-1.871,1.036s1.663,0.503,2.016,0.94c0.703,0.868,1.084,4.384,1.084,4.384s0.261-3.513,0.988-4.384
			c0.367-0.44,2.111-0.94,2.111-0.94S861.698,347.804,861,346.795z"/>
		<path fill="#FFFFFF" d="M864.892,297.859c-0.867-1.253-0.892-2.064-0.892-2.064s-0.361,1.197-1.229,2.064
			c-0.378,0.378-1.871,1.036-1.871,1.036s1.663,0.502,2.016,0.939c0.703,0.869,1.084,4.384,1.084,4.384s0.261-3.512,0.988-4.384
			c0.367-0.44,2.111-0.939,2.111-0.939S865.59,298.868,864.892,297.859z"/>
		<path fill="#FFFFFF" d="M654.008,506.634c-0.867-1.253-0.892-2.063-0.892-2.063s-0.361,1.197-1.229,2.063
			c-0.378,0.378-1.871,1.036-1.871,1.036s1.663,0.503,2.016,0.939c0.703,0.869,1.084,4.384,1.084,4.384s0.261-3.513,0.988-4.384
			c0.367-0.439,2.111-0.939,2.111-0.939S654.706,507.643,654.008,506.634z"/>
		<path fill="#FFFFFF" d="M802.819,166c-0.867-1.253-0.892-2.064-0.892-2.064s-0.361,1.197-1.229,2.064
			c-0.378,0.378-1.871,1.036-1.871,1.036s1.663,0.503,2.016,0.94c0.703,0.868,1.084,4.383,1.084,4.383s0.261-3.512,0.988-4.383
			c0.367-0.44,2.111-0.94,2.111-0.94S803.518,167.009,802.819,166z"/>
		<path fill="#FFFFFF" d="M639.903,205.025c-0.867-1.253-0.892-2.064-0.892-2.064s-0.361,1.197-1.229,2.064
			c-0.378,0.378-1.871,1.036-1.871,1.036s1.663,0.503,2.016,0.939c0.703,0.869,1.084,4.384,1.084,4.384s0.261-3.512,0.988-4.384
			c0.367-0.44,2.111-0.939,2.111-0.939S640.602,206.033,639.903,205.025z"/>
		<path fill="#FFFFFF" d="M639.003,139.137c-0.867-1.253-0.892-2.064-0.892-2.064s-0.361,1.197-1.229,2.064
			c-0.378,0.378-1.871,1.036-1.871,1.036s1.663,0.503,2.016,0.939c0.703,0.869,1.084,4.384,1.084,4.384s0.261-3.513,0.988-4.384
			c0.367-0.439,2.111-0.939,2.111-0.939S639.701,140.145,639.003,139.137z"/>
		<path fill="#FFFFFF" d="M821.595,200.406c-2.017-2.914-2.074-4.802-2.074-4.802s-0.84,2.784-2.857,4.802
			c-0.879,0.879-4.352,2.408-4.352,2.408s3.868,1.17,4.688,2.186c1.635,2.021,2.521,10.195,2.521,10.195s0.606-8.168,2.299-10.195
			c0.854-1.023,4.911-2.186,4.911-2.186S823.219,202.751,821.595,200.406z"/>
		<path fill="#FFFFFF" d="M857.074,252.801C855.058,249.888,855,248,855,248s-0.84,2.784-2.857,4.802
			c-0.879,0.879-4.352,2.408-4.352,2.408s3.868,1.17,4.688,2.186c1.635,2.021,2.521,10.195,2.521,10.195s0.606-8.168,2.299-10.195
			c0.854-1.023,4.911-2.186,4.911-2.186S858.698,255.146,857.074,252.801z"/>
		<path fill="#FFFFFF" d="M875.074,393.801C873.058,390.888,873,389,873,389s-0.84,2.783-2.857,4.801
			c-0.879,0.879-4.352,2.408-4.352,2.408s3.868,1.17,4.688,2.186c1.635,2.021,2.521,10.195,2.521,10.195s0.606-8.168,2.299-10.195
			c0.854-1.022,4.911-2.186,4.911-2.186S876.698,396.146,875.074,393.801z"/>
		<path fill="#FFFFFF" d="M768.595,73.407c-2.017-2.914-2.074-4.802-2.074-4.802s-0.84,2.784-2.857,4.802
			c-0.879,0.878-4.352,2.408-4.352,2.408S763.18,76.984,764,78c1.635,2.021,2.521,10.195,2.521,10.195s0.606-8.168,2.299-10.195
			c0.854-1.023,4.911-2.186,4.911-2.186S770.219,75.751,768.595,73.407z"/>
		<path fill="#FFFFFF" d="M662.775,62.406c-2.017-2.914-2.074-4.802-2.074-4.802s-0.84,2.784-2.857,4.802
			c-0.879,0.879-4.352,2.408-4.352,2.408s3.868,1.17,4.688,2.186c1.635,2.021,2.521,10.195,2.521,10.195S661.308,69.027,663,67
			c0.854-1.023,4.911-2.186,4.911-2.186S664.399,64.751,662.775,62.406z"/>
		<path fill="#FFFFFF" d="M629.711,460.188c-2.017-2.914-2.074-4.802-2.074-4.802s-0.84,2.784-2.857,4.802
			c-0.879,0.879-4.352,2.408-4.352,2.408s3.868,1.17,4.688,2.186c1.635,2.021,2.521,10.195,2.521,10.195s0.606-8.168,2.299-10.195
			c0.854-1.023,4.911-2.186,4.911-2.186S631.335,462.532,629.711,460.188z"/>
		<path fill="#FFFFFF" d="M566.19,431.787c-2.017-2.913-2.074-4.801-2.074-4.801s-0.84,2.783-2.857,4.801
			c-0.879,0.879-4.352,2.408-4.352,2.408s3.868,1.17,4.688,2.186c1.635,2.021,2.521,10.195,2.521,10.195s0.606-8.168,2.299-10.195
			c0.854-1.022,4.911-2.186,4.911-2.186S567.814,434.133,566.19,431.787z"/>
		<path fill="#FFFFFF" d="M827.074,447.006c-2.018-2.913-2.074-4.801-2.074-4.801s-0.84,2.783-2.857,4.801
			c-0.879,0.879-4.352,2.408-4.352,2.408s3.867,1.17,4.688,2.186c1.635,2.021,2.521,10.195,2.521,10.195s0.605-8.168,2.299-10.195
			c0.854-1.022,4.91-2.186,4.91-2.186S828.697,449.352,827.074,447.006z"/>
		<path fill="#FFFFFF" d="M790,532c-2.018-2.914-2.074-4.802-2.074-4.802s-0.84,2.784-2.857,4.802
			c-0.879,0.879-4.352,2.408-4.352,2.408s3.867,1.17,4.688,2.186c1.635,2.021,2.521,10.195,2.521,10.195s0.605-8.168,2.299-10.195
			c0.854-1.023,4.91-2.186,4.91-2.186S791.623,534.345,790,532z"/>
		<path fill="#FFFFFF" d="M558.01,318.244c-5.225-7.55-5.374-12.441-5.374-12.441s-2.176,7.214-7.404,12.441
			c-2.277,2.277-11.275,6.24-11.275,6.24s10.022,3.031,12.148,5.663c4.235,5.235,6.531,26.417,6.531,26.417
			s1.571-21.164,5.956-26.417c2.214-2.652,12.725-5.663,12.725-5.663S562.218,324.319,558.01,318.244z"/>
		<path fill="#FFFFFF" d="M605.905,194.097c-5.225-7.55-5.374-12.442-5.374-12.442s-2.176,7.214-7.404,12.442
			c-2.277,2.277-11.275,6.24-11.275,6.24S591.875,203.368,594,206c4.235,5.235,6.531,26.416,6.531,26.416s1.571-21.163,5.956-26.416
			c2.214-2.652,12.725-5.663,12.725-5.663S610.113,200.172,605.905,194.097z"/>
		<path fill="#FFFFFF" d="M842.418,487.098c-5.225-7.551-5.374-12.441-5.374-12.441s-2.177,7.214-7.403,12.441
			c-2.277,2.277-11.275,6.24-11.275,6.24s10.022,3.031,12.148,5.662c4.234,5.235,6.53,26.416,6.53,26.416S838.615,504.253,843,499
			c2.214-2.652,12.725-5.662,12.725-5.662S846.626,493.173,842.418,487.098z"/>
		<path fill="#FFFFFF" d="M591.534,511.879c-5.225-7.551-5.374-12.441-5.374-12.441s-2.177,7.214-7.403,12.441
			c-2.277,2.277-11.275,6.24-11.275,6.24s10.022,3.031,12.148,5.662c4.234,5.235,6.53,26.416,6.53,26.416s1.571-21.163,5.956-26.416
			c2.214-2.652,12.725-5.662,12.725-5.662S595.742,517.954,591.534,511.879z"/>
	</g>
</g>
<g id="_x34_9_1_">
	<rect fill="#CC3A33" width="1440" height="699.999"/>
	<polygon opacity="0.3" fill="#FFFFFF" points="425.269,0 325.269,699.999 1114.603,699.999 1014.603,0 	"/>
</g>
<g id="_x35_0" display="none">
	<rect display="inline" fill="#CC3A33" width="1440" height="699.999"/>
	<polygon display="inline" opacity="0.3" fill="#FFFFFF" points="537.908,0 437.908,699.999 1001.964,699.999 901.964,0 	"/>
	<ellipse display="inline" opacity="0.3" fill="#231F20" cx="724.116" cy="605.776" rx="148.5" ry="4.556"/>
	<g display="inline">
		<path fill="#776537" d="M669.681,190.036c0,0-4.944,1.807-4.896,10.171c0.018,2.803,1.507,10.171-3.767,10.548
			c0,0,6.404,0.754,8.287-3.39c0,0-0.376,7.534-3.391,9.417c0,0,17.706,7.534,20.719-9.417l-1.507-24.862
			C685.126,182.503,674.202,177.981,669.681,190.036z"/>
		<path fill="#776537" d="M781.163,200.207c0.047-8.364-4.897-10.171-4.897-10.171c-4.521-12.055-15.444-7.533-15.444-7.533
			l-1.507,24.862c3.014,16.951,20.719,9.417,20.719,9.417c-3.014-1.883-3.392-9.417-3.392-9.417c1.885,4.144,8.289,3.39,8.289,3.39
			C779.656,210.378,781.146,203.01,781.163,200.207z"/>
		<g>
			<polygon fill="#B7B7B7" points="663.528,231.663 677.466,243.717 675.583,230.156 			"/>
			<polygon fill="#B7B7B7" points="768.439,243.717 782.379,231.663 770.324,230.156 			"/>
			<path fill="#F4B07D" d="M675.497,186.148c0,41.182-23.268,127.112-23.268,127.112h142.142c0,0-23.686-67.595-23.686-127.112
				C770.686,162.354,675.497,162.352,675.497,186.148z"/>
			<g>
				<path fill="#776537" d="M671.329,105.489c-13.847,10.627-19.962,54.781,3.344,78.09l50.596-56.577l-1.194-21.908
					C724.074,105.095,705.592,79.197,671.329,105.489z"/>
				<path fill="#776537" d="M777.002,105.489c-34.264-26.292-52.745-0.395-52.745-0.395l-1.194,21.908l50.596,56.577
					C796.965,160.271,790.846,116.119,777.002,105.489z"/>
				<path fill="#F4B07D" d="M721.426,114.501c-30.319-0.438-43.053,20.024-43.053,20.024c-10.642,17.414-7.461,71.209-7.461,71.209
					c0,26.616,36.917,47.824,52.421,47.824c15.506,0,52.556-19.824,52.556-47.824c0,0,2.614-53.795-8.028-71.209
					C767.86,134.525,751.862,114.062,721.426,114.501z"/>
				<g>
					<path opacity="0.1" fill="#232222" d="M723.32,234.652c-18.069,0-25.598-10.542-25.598-10.542s4.141,14.31,24.718,14.31
						c20.831,0,24.719-14.31,24.719-14.31C735.357,235.912,723.32,234.652,723.32,234.652z"/>
				</g>
				<g opacity="0.2">
					<path fill="#231F20" d="M736.231,178.901c0.153,0.148,0.314,0.329,0.452,0.487c0.139,0.168,0.28,0.334,0.407,0.512
						c0.259,0.354,0.505,0.72,0.706,1.127c0.105,0.199,0.204,0.403,0.279,0.625c0.087,0.214,0.164,0.435,0.209,0.675
						c0.059,0.232,0.106,0.469,0.107,0.724c0.019,0.25,0.026,0.5-0.029,0.757c-0.037,0.257-0.075,0.514-0.19,0.75
						c-0.104,0.236-0.18,0.499-0.343,0.691c-0.151,0.201-0.295,0.419-0.462,0.599l-0.543,0.48c-0.178,0.175-0.381,0.27-0.576,0.395
						l-0.593,0.352l-1.224,0.512l-0.034,0.015l-0.114,0.021c-0.487,0.089-1.041,0.236-1.544,0.406
						c-0.511,0.172-1.005,0.379-1.462,0.625c-0.456,0.244-0.892,0.514-1.236,0.841c-0.36,0.335-0.566,0.635-0.897,1.185
						c-0.342,0.508-0.727,1.116-1.324,1.55c-0.271,0.251-0.586,0.405-0.898,0.57c-0.311,0.189-0.63,0.267-0.948,0.372
						c-0.644,0.246-1.26,0.262-1.892,0.386c-0.632,0.034-1.184,0.074-1.88,0.084c-0.59-0.039-1.138-0.035-1.761-0.108
						c-0.646-0.102-1.294-0.171-1.921-0.401l-0.473-0.148c-0.156-0.068-0.311-0.151-0.465-0.228
						c-0.314-0.146-0.616-0.317-0.891-0.553c-0.587-0.415-1.004-0.997-1.364-1.513l-0.239-0.375l-0.06-0.093l-0.03-0.047
						c0.058,0.083-0.002-0.002,0.002,0.005l-0.129-0.175c-0.195-0.28-0.285-0.33-0.458-0.51c-0.344-0.328-0.781-0.597-1.235-0.843
						c-0.458-0.245-0.952-0.452-1.462-0.625c-0.503-0.169-1.057-0.316-1.544-0.406l-0.114-0.021l-0.034-0.015l-1.223-0.512
						l-0.593-0.352c-0.195-0.125-0.398-0.22-0.576-0.395l-0.542-0.479c-0.167-0.179-0.311-0.398-0.461-0.599
						c-0.163-0.192-0.239-0.455-0.343-0.69c-0.116-0.236-0.154-0.493-0.191-0.749c-0.056-0.257-0.048-0.507-0.029-0.757
						c0-0.254,0.047-0.492,0.106-0.724c0.044-0.24,0.121-0.46,0.208-0.675c0.076-0.222,0.174-0.427,0.28-0.626
						c0.2-0.406,0.446-0.773,0.704-1.127c0.268-0.355,0.528-0.674,0.865-1.007c0.253-0.25,0.662-0.247,0.911,0.006
						c0.242,0.245,0.247,0.634,0.019,0.885l-0.018,0.02c-0.229,0.25-0.468,0.571-0.671,0.876c-0.203,0.312-0.394,0.633-0.533,0.963
						c-0.077,0.164-0.146,0.328-0.19,0.495c-0.058,0.165-0.106,0.33-0.123,0.493c-0.034,0.164-0.059,0.325-0.044,0.479
						c-0.005,0.157-0.005,0.311,0.043,0.451c0.03,0.145,0.049,0.291,0.132,0.416c0.074,0.126,0.098,0.272,0.218,0.381
						c0.102,0.115,0.178,0.243,0.289,0.355l0.381,0.312c0.111,0.116,0.286,0.186,0.435,0.274l0.459,0.259l1.034,0.396l-0.148-0.036
						c0.658,0.101,1.231,0.24,1.834,0.42c0.594,0.181,1.182,0.405,1.757,0.69c0.572,0.288,1.134,0.633,1.643,1.097
						c0.243,0.22,0.577,0.575,0.709,0.774l0.13,0.174l0.096,0.137l0.058,0.089l0.233,0.357c0.307,0.423,0.583,0.806,0.958,1.052
						c0.092,0.065,0.174,0.141,0.271,0.201l0.316,0.152l0.315,0.156l0.36,0.104c0.468,0.174,0.982,0.214,1.481,0.299
						c0.527,0.062,1.146,0.056,1.714,0.088l1.597-0.062c0.504-0.102,1.071-0.11,1.517-0.292c0.232-0.074,0.484-0.126,0.67-0.251
						c0.2-0.105,0.416-0.195,0.569-0.35c0.361-0.239,0.618-0.637,0.924-1.081c0.265-0.444,0.72-1.112,1.229-1.551
						c0.509-0.464,1.071-0.809,1.643-1.098c0.575-0.285,1.163-0.509,1.758-0.69c0.604-0.18,1.177-0.319,1.835-0.419l-0.148,0.035
						l1.034-0.396l0.459-0.258c0.148-0.089,0.324-0.159,0.435-0.275l0.382-0.311c0.11-0.112,0.187-0.24,0.288-0.355
						c0.119-0.109,0.144-0.254,0.218-0.381c0.083-0.125,0.102-0.271,0.132-0.416c0.048-0.14,0.047-0.294,0.042-0.451
						c0.015-0.154-0.01-0.315-0.044-0.479c-0.018-0.163-0.065-0.328-0.124-0.493c-0.044-0.167-0.112-0.331-0.189-0.495
						c-0.293-0.652-0.727-1.303-1.212-1.846l-0.006-0.006c-0.237-0.265-0.215-0.673,0.051-0.91
						C735.605,178.656,735.991,178.668,736.231,178.901z"/>
				</g>
				<circle fill="#2E230E" cx="696.963" cy="164.514" r="2.902"/>
				<path fill="#593B2E" d="M706.277,153.86c0,0-16.637-2.863-24.436,9.625c0,0,9.895-9.466,23.897-5.781
					C705.739,157.704,709.748,155.344,706.277,153.86z"/>
				<circle fill="#2E230E" cx="747.697" cy="164.514" r="2.902"/>
				<path fill="#593B2E" d="M737.989,154.944c-3.317,1.799,0.891,3.779,0.891,3.779c13.606-4.968,24.33,3.537,24.33,3.537
					C754.287,150.553,737.989,154.944,737.989,154.944z"/>
				<path fill="#F4B07D" d="M661.711,172.422c-1.107,4.662-1.198,29.88,13.144,13.947l0.4-12.752
					C675.255,173.617,665.296,157.284,661.711,172.422z"/>
				
					<path fill="none" stroke="#C18963" stroke-width="1.5936" stroke-linecap="round" stroke-linejoin="round" stroke-miterlimit="10" d="
					M668.881,174.015c0,0-5.18,3.985,0,9.958"/>
				<path fill="#F4B07D" d="M769.835,173.617l0.403,12.752c14.338,15.934,14.25-9.285,13.144-13.947
					C779.798,157.284,769.835,173.617,769.835,173.617z"/>
				
					<path fill="none" stroke="#C18963" stroke-width="1.5936" stroke-linecap="round" stroke-linejoin="round" stroke-miterlimit="10" d="
					M776.213,174.015c0,0,5.177,3.985,0,9.958"/>
				
					<path fill="none" stroke="#C18963" stroke-width="1.9905" stroke-linecap="round" stroke-linejoin="round" stroke-miterlimit="10" d="
					M707.14,201.178c0,0,16.854,9.241,31.396-1.624"/>
				<path fill="#776537" d="M729.89,107.75l-36.117,3.982l-24.436,5.312c0,0-5.85,34.934-5.053,35.198
					c0.795,0.265,28.159-14.215,28.159-14.215l31.744-11.024l47.142,14.477l9.564-3.982l-5.048-24.968L729.89,107.75z"/>
				<path opacity="0.3" fill="#231F20" d="M771.328,133.68l-47.413-6.678c0,0,19.127,44.357,61.621,21.649
					C785.536,148.651,773.319,142.044,771.328,133.68z"/>
				<path opacity="0.3" fill="#231F20" d="M670.259,148.958c41.885,11.213,53.386-22.291,53.386-22.291l-40.234,9.747
					C679.864,144.34,670.259,148.958,670.259,148.958z"/>
				<path fill="#776537" d="M771.328,132.98l-47.142-5.978c0,0,17.929,38.383,58.295,21.12
					C782.481,148.122,773.319,141.347,771.328,132.98z"/>
				<path fill="#776537" d="M674.467,148.01c34.533,5.797,49.178-21.343,49.178-21.343l-40.361,7.681
					C682.012,141.674,674.467,148.01,674.467,148.01z"/>
				<path fill="#776537" d="M728.035,80.656c-6.109,2.125-9.029,16.469-9.029,16.469c0-6.91-7.175-13.814-7.175-13.814
					c2.178,9.412-4.25,11.69-4.25,11.69l-4.247,18.323l24.433,4.515l13.282-16.198l3.344-7.664
					C725.811,99.503,728.035,80.656,728.035,80.656z"/>
			</g>
		</g>
		
			<path fill="none" stroke="#F4B07D" stroke-width="29.1108" stroke-linecap="round" stroke-linejoin="round" stroke-miterlimit="10" d="
			M672.227,258.223c0,0-55.644,40.37-60.453,83.639c-4.967,44.719-2.484,55.484-2.484,79.172"/>
		<path fill="none" stroke="#282828" stroke-width="29.811" stroke-linejoin="round" stroke-miterlimit="10" d="M672.227,258.223
			c0,0-55.644,40.37-60.453,83.639c-4.967,44.719-2.484,55.484-2.484,79.172"/>
		
			<path fill="none" stroke="#F4B07D" stroke-width="29.1108" stroke-linecap="round" stroke-linejoin="round" stroke-miterlimit="10" d="
			M775.108,258.223c0,0,55.647,40.37,60.456,83.639c4.968,44.719,2.484,55.484,2.484,79.172"/>
		<path fill="none" stroke="#282828" stroke-width="29.811" stroke-linejoin="round" stroke-miterlimit="10" d="M775.108,258.223
			c0,0,55.647,40.37,60.456,83.639c4.968,44.719,2.484,55.484,2.484,79.172"/>
		
			<line fill="none" stroke="#2D2D2D" stroke-width="33.1501" stroke-linecap="round" stroke-linejoin="round" stroke-miterlimit="10" x1="690.689" y1="415.892" x2="690.689" y2="578.259"/>
		
			<line fill="none" stroke="#2D2D2D" stroke-width="33.1501" stroke-linecap="round" stroke-linejoin="round" stroke-miterlimit="10" x1="752.425" y1="415.892" x2="752.425" y2="578.259"/>
		<path fill="#F4B07D" d="M643.58,345.739c0,55.126,0,62.621,0,63.437c0,0.071,0,0.093,0,0.089c0,0.031,0,0.072,0,0.127
			c0,0.136,8.281,0.2,8.281,0.2h71.475V251.333h-54.912C659.952,287.506,643.58,284.592,643.58,345.739z"/>
		<path fill="#F4B07D" d="M720.596,251.333v158.259h71.471c0,0,8.282-0.064,8.282-0.2c0-0.055,0-0.096,0-0.127
			c0,0.004,0-0.018,0-0.089c0-0.815,0-8.311,0-63.437c0-61.147-16.369-58.233-24.845-94.406H720.596z"/>
		<g>
			<circle opacity="0.2" fill="#232222" cx="685.794" cy="305.023" r="7.178"/>
			<path opacity="0.2" fill="#232222" d="M685.794,301.436c-1.983,0-3.59,1.606-3.59,3.587c0,1.981,1.607,3.594,3.59,3.594
				c1.984,0,3.591-1.613,3.591-3.594C689.385,303.042,687.778,301.436,685.794,301.436z"/>
		</g>
		<g>
			<circle opacity="0.2" fill="#232222" cx="758.116" cy="305.023" r="7.178"/>
			<circle opacity="0.2" fill="#232222" cx="758.116" cy="305.026" r="3.59"/>
		</g>
		<ellipse opacity="0.2" fill="#232222" cx="723.059" cy="375.916" rx="2.207" ry="3.588"/>
		<path fill="#2D2D2D" d="M721.955,475.338c43.653,0,79.04-27.108,79.04-70.762H642.914
			C642.914,448.229,678.302,475.338,721.955,475.338z"/>
		<path fill="#1C1C1C" d="M626.801,604.46h80.268v-21.302C662.745,583.158,626.801,592.693,626.801,604.46z"/>
		<path fill="#1C1C1C" d="M735.802,583.158v21.302h80.263C816.064,592.693,780.13,583.158,735.802,583.158z"/>
		<rect x="671.968" y="572.55" fill="#2D2D2D" width="36.464" height="12.513"/>
		<rect x="734.172" y="572.55" fill="#2D2D2D" width="36.458" height="12.513"/>
		<rect x="643.547" y="404.683" fill="#161516" width="157.136" height="11.816"/>
		<rect x="711.61" y="404.683" fill="#D6D6D6" width="22.443" height="11.816"/>
		<rect x="667.751" y="249.556" fill="#FFFFFF" width="107.366" height="155.397"/>
		<path fill="#282828" d="M633.768,368.356c0,0-0.63,37.544-3.229,54.731c0,0,5.015,2.272,17.649,2.272
			c0,0,25.648,3.025,28.429-0.254l-0.756-37.653L633.768,368.356z"/>
		<path fill="#282828" d="M635.442,406.4h40.608V244.771h-12.255C623.008,288.495,635.442,406.4,635.442,406.4z"/>
		<path fill="#282828" d="M770.136,387.453l-0.76,37.653c2.784,3.279,26.414,1.513,26.414,1.513c12.637,0,21.999-2.514,21.999-2.514
			c-3.956-12.808-3.956-51.231-3.956-51.231L770.136,387.453z"/>
		<path fill="#282828" d="M782.202,244.771h-12.256V406.4h43.622C813.568,406.4,820.905,272.423,782.202,244.771z"/>
		<polygon fill="#2D2D2D" points="674.01,274.772 653.459,300.729 675.314,380.481 675.314,244.694 653.459,273.25 		"/>
		<polygon fill="#2D2D2D" points="769.8,244.694 769.8,380.481 791.655,300.729 771.106,274.772 791.655,273.25 		"/>
		<g>
			<g>
				<polygon fill="#EA94C7" points="706.383,250.228 722.417,266.261 739.028,250.228 722.797,246.024 				"/>
				<path fill="#EA94C7" d="M722.985,254.306v-0.56l-0.28,0.276l-0.276-0.276l-0.029,0.592l-4.997,5.07l-11.725,111.632
					c0,0,12.878,29.033,17.308,29.033c5.618,0,16.749-29.033,16.749-29.033l-11.726-111.632L722.985,254.306z"/>
			</g>
			<polygon fill="#D6D6D6" points="663.528,231.663 663.528,244.724 706.222,264.312 723.333,246.024 668.048,233.169 			"/>
			<polygon fill="#D6D6D6" points="722.797,246.024 739.907,264.312 782.6,244.724 782.6,231.663 778.079,233.169 			"/>
		</g>
		<g>
			<path fill="#F4B07D" d="M723.803,243.41c-28.011,0-39.677-14.938-39.677-14.938s6.416,20.276,38.314,20.276
				c32.291,0,38.315-20.276,38.315-20.276C742.465,245.197,723.803,243.41,723.803,243.41z"/>
		</g>
	</g>
	<g display="inline">
		<path fill="#FFFFFF" d="M801.795,218.025c-0.867-1.253-0.892-2.064-0.892-2.064s-0.361,1.197-1.229,2.064
			c-0.378,0.378-1.871,1.036-1.871,1.036s1.663,0.503,2.016,0.939c0.703,0.869,1.084,4.384,1.084,4.384s0.261-3.512,0.988-4.384
			c0.367-0.44,2.111-0.939,2.111-0.939S802.493,219.033,801.795,218.025z"/>
		<path fill="#FFFFFF" d="M588.008,283.846c-0.867-1.253-0.892-2.064-0.892-2.064s-0.361,1.197-1.229,2.064
			c-0.378,0.378-1.871,1.036-1.871,1.036s1.663,0.502,2.016,0.939c0.703,0.869,1.084,4.384,1.084,4.384s0.261-3.512,0.988-4.384
			c0.367-0.44,2.111-0.939,2.111-0.939S588.706,284.854,588.008,283.846z"/>
		<path fill="#FFFFFF" d="M597.976,453.024c-0.867-1.253-0.892-2.064-0.892-2.064s-0.361,1.197-1.229,2.064
			c-0.378,0.378-1.871,1.035-1.871,1.035s1.663,0.504,2.016,0.94c0.703,0.868,1.084,4.384,1.084,4.384s0.261-3.513,0.988-4.384
			c0.367-0.44,2.111-0.94,2.111-0.94S598.674,454.033,597.976,453.024z"/>
		<path fill="#FFFFFF" d="M579.236,369.781c-0.867-1.253-0.892-2.064-0.892-2.064s-0.361,1.197-1.229,2.064
			c-0.378,0.378-1.871,1.035-1.871,1.035s1.663,0.504,2.016,0.94c0.703,0.868,1.084,4.384,1.084,4.384s0.261-3.513,0.988-4.384
			c0.367-0.44,2.111-0.94,2.111-0.94S579.935,370.79,579.236,369.781z"/>
		<path fill="#FFFFFF" d="M652.976,462.025c-0.867-1.254-0.892-2.064-0.892-2.064s-0.361,1.197-1.229,2.064
			c-0.378,0.377-1.871,1.035-1.871,1.035s1.663,0.503,2.016,0.939c0.703,0.869,1.084,4.384,1.084,4.384s0.261-3.513,0.988-4.384
			c0.367-0.439,2.111-0.939,2.111-0.939S653.674,463.033,652.976,462.025z"/>
		<path fill="#FFFFFF" d="M792,473c-0.867-1.254-0.892-2.064-0.892-2.064s-0.361,1.197-1.229,2.064
			c-0.378,0.377-1.871,1.035-1.871,1.035s1.663,0.503,2.016,0.939c0.703,0.869,1.084,4.384,1.084,4.384s0.261-3.513,0.988-4.384
			c0.367-0.439,2.111-0.939,2.111-0.939S792.698,474.008,792,473z"/>
		<path fill="#FFFFFF" d="M861,346.795c-0.867-1.253-0.892-2.064-0.892-2.064s-0.361,1.197-1.229,2.064
			c-0.378,0.378-1.871,1.036-1.871,1.036s1.663,0.503,2.016,0.94c0.703,0.868,1.084,4.384,1.084,4.384s0.261-3.513,0.988-4.384
			c0.367-0.44,2.111-0.94,2.111-0.94S861.698,347.804,861,346.795z"/>
		<path fill="#FFFFFF" d="M864.892,297.859c-0.867-1.253-0.892-2.064-0.892-2.064s-0.361,1.197-1.229,2.064
			c-0.378,0.378-1.871,1.036-1.871,1.036s1.663,0.502,2.016,0.939c0.703,0.869,1.084,4.384,1.084,4.384s0.261-3.512,0.988-4.384
			c0.367-0.44,2.111-0.939,2.111-0.939S865.59,298.868,864.892,297.859z"/>
		<path fill="#FFFFFF" d="M654.008,506.634c-0.867-1.253-0.892-2.063-0.892-2.063s-0.361,1.197-1.229,2.063
			c-0.378,0.378-1.871,1.036-1.871,1.036s1.663,0.503,2.016,0.939c0.703,0.869,1.084,4.384,1.084,4.384s0.261-3.513,0.988-4.384
			c0.367-0.439,2.111-0.939,2.111-0.939S654.706,507.643,654.008,506.634z"/>
		<path fill="#FFFFFF" d="M802.819,166c-0.867-1.253-0.892-2.064-0.892-2.064s-0.361,1.197-1.229,2.064
			c-0.378,0.378-1.871,1.036-1.871,1.036s1.663,0.503,2.016,0.94c0.703,0.868,1.084,4.383,1.084,4.383s0.261-3.512,0.988-4.383
			c0.367-0.44,2.111-0.94,2.111-0.94S803.518,167.009,802.819,166z"/>
		<path fill="#FFFFFF" d="M639.903,205.025c-0.867-1.253-0.892-2.064-0.892-2.064s-0.361,1.197-1.229,2.064
			c-0.378,0.378-1.871,1.036-1.871,1.036s1.663,0.503,2.016,0.939c0.703,0.869,1.084,4.384,1.084,4.384s0.261-3.512,0.988-4.384
			c0.367-0.44,2.111-0.939,2.111-0.939S640.602,206.033,639.903,205.025z"/>
		<path fill="#FFFFFF" d="M639.003,139.137c-0.867-1.253-0.892-2.064-0.892-2.064s-0.361,1.197-1.229,2.064
			c-0.378,0.378-1.871,1.036-1.871,1.036s1.663,0.503,2.016,0.939c0.703,0.869,1.084,4.384,1.084,4.384s0.261-3.513,0.988-4.384
			c0.367-0.439,2.111-0.939,2.111-0.939S639.701,140.145,639.003,139.137z"/>
		<path fill="#FFFFFF" d="M821.595,200.406c-2.017-2.914-2.074-4.802-2.074-4.802s-0.84,2.784-2.857,4.802
			c-0.879,0.879-4.352,2.408-4.352,2.408s3.868,1.17,4.688,2.186c1.635,2.021,2.521,10.195,2.521,10.195s0.606-8.168,2.299-10.195
			c0.854-1.023,4.911-2.186,4.911-2.186S823.219,202.751,821.595,200.406z"/>
		<path fill="#FFFFFF" d="M857.074,252.801C855.058,249.888,855,248,855,248s-0.84,2.784-2.857,4.802
			c-0.879,0.879-4.352,2.408-4.352,2.408s3.868,1.17,4.688,2.186c1.635,2.021,2.521,10.195,2.521,10.195s0.606-8.168,2.299-10.195
			c0.854-1.023,4.911-2.186,4.911-2.186S858.698,255.146,857.074,252.801z"/>
		<path fill="#FFFFFF" d="M875.074,393.801C873.058,390.888,873,389,873,389s-0.84,2.783-2.857,4.801
			c-0.879,0.879-4.352,2.408-4.352,2.408s3.868,1.17,4.688,2.186c1.635,2.021,2.521,10.195,2.521,10.195s0.606-8.168,2.299-10.195
			c0.854-1.022,4.911-2.186,4.911-2.186S876.698,396.146,875.074,393.801z"/>
		<path fill="#FFFFFF" d="M768.595,73.407c-2.017-2.914-2.074-4.802-2.074-4.802s-0.84,2.784-2.857,4.802
			c-0.879,0.878-4.352,2.408-4.352,2.408S763.18,76.984,764,78c1.635,2.021,2.521,10.195,2.521,10.195s0.606-8.168,2.299-10.195
			c0.854-1.023,4.911-2.186,4.911-2.186S770.219,75.751,768.595,73.407z"/>
		<path fill="#FFFFFF" d="M662.775,62.406c-2.017-2.914-2.074-4.802-2.074-4.802s-0.84,2.784-2.857,4.802
			c-0.879,0.879-4.352,2.408-4.352,2.408s3.868,1.17,4.688,2.186c1.635,2.021,2.521,10.195,2.521,10.195S661.308,69.027,663,67
			c0.854-1.023,4.911-2.186,4.911-2.186S664.399,64.751,662.775,62.406z"/>
		<path fill="#FFFFFF" d="M629.711,460.188c-2.017-2.914-2.074-4.802-2.074-4.802s-0.84,2.784-2.857,4.802
			c-0.879,0.879-4.352,2.408-4.352,2.408s3.868,1.17,4.688,2.186c1.635,2.021,2.521,10.195,2.521,10.195s0.606-8.168,2.299-10.195
			c0.854-1.023,4.911-2.186,4.911-2.186S631.335,462.532,629.711,460.188z"/>
		<path fill="#FFFFFF" d="M566.19,431.787c-2.017-2.913-2.074-4.801-2.074-4.801s-0.84,2.783-2.857,4.801
			c-0.879,0.879-4.352,2.408-4.352,2.408s3.868,1.17,4.688,2.186c1.635,2.021,2.521,10.195,2.521,10.195s0.606-8.168,2.299-10.195
			c0.854-1.022,4.911-2.186,4.911-2.186S567.814,434.133,566.19,431.787z"/>
		<path fill="#FFFFFF" d="M827.074,447.006c-2.018-2.913-2.074-4.801-2.074-4.801s-0.84,2.783-2.857,4.801
			c-0.879,0.879-4.352,2.408-4.352,2.408s3.867,1.17,4.688,2.186c1.635,2.021,2.521,10.195,2.521,10.195s0.605-8.168,2.299-10.195
			c0.854-1.022,4.91-2.186,4.91-2.186S828.697,449.352,827.074,447.006z"/>
		<path fill="#FFFFFF" d="M790,532c-2.018-2.914-2.074-4.802-2.074-4.802s-0.84,2.784-2.857,4.802
			c-0.879,0.879-4.352,2.408-4.352,2.408s3.867,1.17,4.688,2.186c1.635,2.021,2.521,10.195,2.521,10.195s0.605-8.168,2.299-10.195
			c0.854-1.023,4.91-2.186,4.91-2.186S791.623,534.345,790,532z"/>
		<path fill="#FFFFFF" d="M558.01,318.244c-5.225-7.55-5.374-12.441-5.374-12.441s-2.176,7.214-7.404,12.441
			c-2.277,2.277-11.275,6.24-11.275,6.24s10.022,3.031,12.148,5.663c4.235,5.235,6.531,26.417,6.531,26.417
			s1.571-21.164,5.956-26.417c2.214-2.652,12.725-5.663,12.725-5.663S562.218,324.319,558.01,318.244z"/>
		<path fill="#FFFFFF" d="M605.905,194.097c-5.225-7.55-5.374-12.442-5.374-12.442s-2.176,7.214-7.404,12.442
			c-2.277,2.277-11.275,6.24-11.275,6.24S591.875,203.368,594,206c4.235,5.235,6.531,26.416,6.531,26.416s1.571-21.163,5.956-26.416
			c2.214-2.652,12.725-5.663,12.725-5.663S610.113,200.172,605.905,194.097z"/>
		<path fill="#FFFFFF" d="M842.418,487.098c-5.225-7.551-5.374-12.441-5.374-12.441s-2.177,7.214-7.403,12.441
			c-2.277,2.277-11.275,6.24-11.275,6.24s10.022,3.031,12.148,5.662c4.234,5.235,6.53,26.416,6.53,26.416S838.615,504.253,843,499
			c2.214-2.652,12.725-5.662,12.725-5.662S846.626,493.173,842.418,487.098z"/>
		<path fill="#FFFFFF" d="M591.534,511.879c-5.225-7.551-5.374-12.441-5.374-12.441s-2.177,7.214-7.403,12.441
			c-2.277,2.277-11.275,6.24-11.275,6.24s10.022,3.031,12.148,5.662c4.234,5.235,6.53,26.416,6.53,26.416s1.571-21.163,5.956-26.416
			c2.214-2.652,12.725-5.662,12.725-5.662S595.742,517.954,591.534,511.879z"/>
	</g>
	<rect display="inline" fill="#BCBEC0" width="1440" height="699.999"/>
	<g display="inline">
		<g>
			<rect x="538.11" y="430.755" fill="#5D5D5D" width="284.134" height="108.973"/>
			<g>
				<g>
					<path fill="#DEDFE0" d="M637.167,393.447L502.41,406.994c-38.24,1.352-257.175,30.942-271.832,32.928
						c30.675,62.155,77.902,136.224,140.098,170.365c204.901,29.329,401.221,16.612,537.059-4.819
						c101.551-16.024,114.43-78.944,114.369-110.107c-17.133-12.823-35.637-18.694-35.637-18.694
						C928.955,370.954,637.167,393.447,637.167,393.447z M598.726,486.63c0,4.818-3.907,8.725-8.724,8.725h-19.891
						c-4.818,0-8.725-3.906-8.725-8.725v-32.454c0-4.817,3.906-8.724,8.725-8.724h19.891c4.817,0,8.724,3.906,8.724,8.724V486.63z
						 M646.457,486.63c0,4.818-3.907,8.725-8.724,8.725h-19.892c-4.818,0-8.724-3.906-8.724-8.725v-32.454
						c0-4.817,3.906-8.724,8.724-8.724h19.892c4.817,0,8.724,3.906,8.724,8.724V486.63z M694.314,486.63
						c0,4.818-3.907,8.725-8.724,8.725h-19.892c-4.817,0-8.724-3.906-8.724-8.725v-32.454c0-4.817,3.907-8.724,8.724-8.724h19.892
						c4.817,0,8.724,3.906,8.724,8.724V486.63z M741.645,486.63c0,4.818-3.906,8.725-8.725,8.725h-19.891
						c-4.817,0-8.725-3.906-8.725-8.725v-32.454c0-4.817,3.907-8.724,8.725-8.724h19.891c4.818,0,8.725,3.906,8.725,8.724V486.63z
						 M789.502,486.63c0,4.818-3.906,8.725-8.725,8.725h-19.891c-4.818,0-8.725-3.906-8.725-8.725v-32.454
						c0-4.817,3.906-8.724,8.725-8.724h19.891c4.818,0,8.725,3.906,8.725,8.724V486.63z"/>
					<path fill="#0A2375" d="M230.578,439.922c-0.509,0.069-0.78,0.106-0.78,0.106c-19.452-26.248-84.273-99.69-84.273-99.69
						c-13.864-32.731-45.432-33.686-64.611-30.804c9.223,37.478,65.308,234.799,235.523,292.016
						c18.123,3.254,48.708,12.381,66.733,14.961C320.975,582.368,261.252,502.077,230.578,439.922z"/>
					<path fill="#E2A305" d="M80.914,309.534c-9.332,1.403-15.731,3.712-15.731,3.712l50.929,167.831c0,0-32.934,2.994-39.789,5.28
						c-9.491,3.163-21.383,13.848-26.667,22.344c-5.801,9.327,7.045,22.847,14.558,29.585
						c32.983,15.157,189.593,50.616,189.593,50.616c20.883,4.699,41.777,8.903,62.631,12.647
						C146.221,544.333,90.136,347.012,80.914,309.534z"/>
					
						<path fill="#0A2375" stroke="#0E2991" stroke-width="1.5777" stroke-linecap="round" stroke-linejoin="round" stroke-miterlimit="10" d="
						M1022.104,495.36c0.061,31.163-12.818,94.083-114.369,110.107c-135.838,21.432-332.158,34.148-537.059,4.819
						c4.101,2.251,8.264,4.336,12.495,6.224c-4.23-1.888-8.394-3.973-12.495-6.224c-18.025-2.581-36.115-5.483-54.238-8.737
						c15.265,5.132,31.441,9.145,48.59,11.806c-17.149-2.661-33.326-6.674-48.59-11.806c-20.854-3.744-41.749-7.948-62.631-12.647
						c0,0-156.61-35.459-189.593-50.616c2.854,2.561,4.94,4.143,4.94,4.143l4.144,13.318
						c10.272,19.097,267.713,68.604,267.713,68.604c125.49,16.732,64.447,16.885,228.155,20.592
						c125.14,2.833,321.872-16.747,321.872-16.747c122.979-15.181,140.855-33.061,158.844-74.459
						C1060.68,528.881,1038.812,507.867,1022.104,495.36z"/>
				</g>
				<path fill="#A5A5A5" d="M615.83,596.528v56.853c77.56,33.612,164.163,1.059,164.163,1.059v-57.911
					C671.3,566.561,615.83,596.528,615.83,596.528z"/>
				<path fill="#BFC0C1" d="M700.195,544.888c0,0-354.708-57.527-367.289-59.808c0,0-40.984-46.914-53.681-55.464l-12.515,1.484
					c0,0,19.807,54.821,42.555,64.442c0,0,69.569,32.599,89.628,32.233l79.781,42.449c0,0,125.371-2.274,156.599-9.112
					C635.274,561.113,720.438,554.552,700.195,544.888z"/>
				
					<ellipse transform="matrix(-0.0182 -0.9998 0.9998 -0.0182 -116.3104 965.8019)" fill="#9D9D9E" cx="416.049" cy="540.009" rx="7.524" ry="93.418"/>
				<ellipse fill="#A5A5A5" cx="617.132" cy="624.936" rx="9.554" ry="28.663"/>
				<ellipse fill="#A5A5A5" cx="778.936" cy="625.461" rx="9.291" ry="29.188"/>
			</g>
		</g>
		<path fill="#869FAD" d="M935.566,450.862v26.996h44.174c0,0-6.135-11.219-21.561-26.996H935.566z"/>
		<path fill="none" stroke="#AFB1B2" stroke-width="0.5259" stroke-miterlimit="10" d="M935.566,450.862v26.996h44.174
			c0,0-6.135-11.219-21.561-26.996H935.566z"/>
		<path fill="#AFB1B2" d="M780.777,445.452h-19.891c-4.818,0-8.725,3.906-8.725,8.724v32.454c0,4.818,3.906,8.725,8.725,8.725
			h19.891c4.818,0,8.725-3.906,8.725-8.725v-32.454C789.502,449.358,785.596,445.452,780.777,445.452z M786.363,486.63
			c0,3.079-2.508,5.584-5.586,5.584h-19.891c-3.078,0-5.584-2.505-5.584-5.584v-32.454c0-3.076,2.506-5.583,5.584-5.583h19.891
			c3.078,0,5.586,2.507,5.586,5.583V486.63z"/>
		<path fill="#AFB1B2" d="M732.92,445.452h-19.891c-4.817,0-8.725,3.906-8.725,8.724v32.454c0,4.818,3.907,8.725,8.725,8.725h19.891
			c4.818,0,8.725-3.906,8.725-8.725v-32.454C741.645,449.358,737.738,445.452,732.92,445.452z M738.504,486.63
			c0,3.079-2.506,5.584-5.584,5.584h-19.891c-3.078,0-5.584-2.505-5.584-5.584v-32.454c0-3.076,2.506-5.583,5.584-5.583h19.891
			c3.078,0,5.584,2.507,5.584,5.583V486.63z"/>
		<path fill="#AFB1B2" d="M685.59,445.452h-19.892c-4.817,0-8.724,3.906-8.724,8.724v32.454c0,4.818,3.907,8.725,8.724,8.725h19.892
			c4.817,0,8.724-3.906,8.724-8.725v-32.454C694.314,449.358,690.407,445.452,685.59,445.452z M691.172,486.63
			c0,3.079-2.505,5.584-5.582,5.584h-19.892c-3.077,0-5.582-2.505-5.582-5.584v-32.454c0-3.076,2.505-5.583,5.582-5.583h19.892
			c3.077,0,5.582,2.507,5.582,5.583V486.63z"/>
		<path fill="#AFB1B2" d="M637.733,445.452h-19.892c-4.818,0-8.724,3.906-8.724,8.724v32.454c0,4.818,3.906,8.725,8.724,8.725
			h19.892c4.817,0,8.724-3.906,8.724-8.725v-32.454C646.457,449.358,642.55,445.452,637.733,445.452z M643.315,486.63
			c0,3.079-2.505,5.584-5.582,5.584h-19.892c-3.078,0-5.583-2.505-5.583-5.584v-32.454c0-3.076,2.504-5.583,5.583-5.583h19.892
			c3.077,0,5.582,2.507,5.582,5.583V486.63z"/>
		<path fill="#AFB1B2" d="M590.002,445.452h-19.891c-4.818,0-8.725,3.906-8.725,8.724v32.454c0,4.818,3.906,8.725,8.725,8.725
			h19.891c4.817,0,8.724-3.906,8.724-8.725v-32.454C598.726,449.358,594.819,445.452,590.002,445.452z M595.585,486.63
			c0,3.079-2.504,5.584-5.583,5.584h-19.891c-3.078,0-5.583-2.505-5.583-5.584v-32.454c0-3.076,2.505-5.583,5.583-5.583h19.891
			c3.079,0,5.583,2.507,5.583,5.583V486.63z"/>
	</g>
	<g display="inline">
		<rect x="227" y="9" fill="#27AAE1" width="988" height="684"/>
		<g>
			<path fill="#AAAAAA" d="M1216.816,17.547H225.694l971.261,668.527h19.861c1.543,0,2.796-1.557,2.796-3.483V21.029
				C1219.612,19.106,1218.359,17.547,1216.816,17.547z"/>
		</g>
		<rect x="208.333" y="699.999" fill="#838483" width="1026" height="0.001"/>
		<path fill="#838483" d="M208.333,0v699.999h1026V0H208.333z M236.182,681V19h970.302v662H236.182z"/>
		<rect x="707.333" y="11" fill="#9B9B9B" width="28" height="678"/>
		<rect x="707.333" y="11" fill="#838483" width="28" height="678"/>
		<rect x="221" y="336" fill="#9B9B9B" width="1000" height="28"/>
		<rect x="221" y="336" fill="#838483" width="1000" height="28"/>
	</g>
	<g display="inline">
		<path fill="#262626" d="M1017.149,85.173H428.851c-0.931,0-1.686,0.755-1.686,1.686v320.278c0,0.93,0.755,1.686,1.686,1.686
			h588.299c0.931,0,1.686-0.756,1.686-1.686V86.859C1018.835,85.928,1018.08,85.173,1017.149,85.173z"/>
		<path fill="#494949" d="M1000.432,98.543H444.726c-0.854,0-1.547,0.692-1.547,1.546v293.814c0,0.855,0.692,1.547,1.547,1.547
			h555.706c0.854,0,1.547-0.691,1.547-1.547V100.09C1001.979,99.236,1001.286,98.543,1000.432,98.543z"/>
		<g>
			<path fill="#AAAAAA" d="M1000.432,98.543H452.183l537.264,296.908h10.985c0.854,0,1.547-0.691,1.547-1.547V100.09
				C1001.979,99.236,1001.286,98.543,1000.432,98.543z"/>
		</g>
	</g>
	<g display="inline">
		<g>
			<path fill="#F4B07D" d="M770.663,591.116c-8.177-8.732-15.985-14.43-16.313-14.668c-3.48-2.525-8.349-1.75-10.872,1.729
				c-2.524,3.48-1.75,8.348,1.729,10.872c7.503,5.443,27.369,23.112,29.167,39.289c1.923,17.312,1.695,24.71,1.454,32.542
				c-0.085,2.76-0.173,5.613-0.173,8.94c0,4.299,3.485,7.784,7.784,7.784s7.784-3.485,7.784-7.784c0-3.088,0.084-5.819,0.166-8.461
				c0.247-8.029,0.503-16.332-1.543-34.74C788.591,615.316,782.137,603.372,770.663,591.116z"/>
		</g>
		<g>
			<path fill="#282828" d="M770.799,590.988c-8.188-8.746-16.011-14.453-16.34-14.691l-9.361,12.904
				c7.484,5.43,27.3,23.05,29.09,39.158c1.922,17.299,1.694,24.69,1.453,32.516c-0.085,2.761-0.173,5.616-0.173,8.946h15.943
				c0-3.085,0.084-5.815,0.165-8.455c0.248-8.036,0.504-16.346-1.543-34.768C788.772,615.255,782.302,603.274,770.799,590.988z"/>
		</g>
		<g>
			<path fill="#F4B07D" d="M690.185,576.983c-0.329,0.238-8.136,5.936-16.312,14.668c-11.473,12.255-17.927,24.2-19.184,35.504
				c-2.045,18.407-1.789,26.71-1.542,34.739c0.081,2.642,0.166,5.374,0.166,8.462c0,4.299,3.485,7.784,7.784,7.784
				s7.784-3.485,7.784-7.784c0-3.328-0.088-6.182-0.173-8.941c-0.241-7.832-0.469-15.229,1.454-32.54
				c1.79-16.1,21.653-33.815,29.165-39.29c3.48-2.524,4.254-7.393,1.729-10.872C698.532,575.233,693.664,574.458,690.185,576.983z"
				/>
		</g>
		<g>
			<path fill="#282828" d="M699.438,589.736l-4.681-6.452l-4.681-6.452c-0.329,0.238-8.151,5.945-16.339,14.691
				c-11.501,12.285-17.972,24.267-19.233,35.611c-2.046,18.421-1.791,26.729-1.543,34.766c0.082,2.641,0.166,5.371,0.166,8.456
				h15.943c0-3.331-0.088-6.186-0.173-8.947c-0.241-7.825-0.469-15.216,1.453-32.514c1.782-16.036,21.607-33.708,29.095-39.164
				l-4.688-6.447L699.438,589.736z"/>
		</g>
		<g>
			<g>
				<path fill="#F4B07D" d="M689.667,537.397c-0.592,2.493-0.64,15.98,7.03,7.459l0.213-6.82
					C696.911,538.036,691.585,529.301,689.667,537.397z"/>
			</g>
			<g>
				<path fill="#F4B07D" d="M747.493,538.036l0.215,6.82c7.669,8.521,7.621-4.966,7.03-7.459
					C752.821,529.301,747.493,538.036,747.493,538.036z"/>
			</g>
		</g>
		<g>
			<polygon fill="#B7B7B7" points="690.639,569.08 698.093,575.527 697.086,568.273 			"/>
		</g>
		<g>
			<polygon fill="#B7B7B7" points="746.747,575.527 754.202,569.08 747.755,568.273 			"/>
		</g>
		<g>
			<path fill="#F4B07D" d="M697.041,544.738c0,22.024-12.444,67.98-12.444,67.98h76.019c0,0-12.667-36.151-12.667-67.98
				C747.948,532.013,697.041,532.012,697.041,544.738z"/>
		</g>
		<g>
			<polygon fill="#282828" points="716.563,574.967 690.714,572.292 690.782,576.089 712.463,598.675 753.821,579.779 
				753.821,570.865 744.907,573.183 			"/>
		</g>
		<g>
			<path fill="#FFFFFF" d="M690.892,568.904l-0.178,3.388c34.763,8.735,63.107,0.178,63.107,0.178v-3.208
				C712.641,577.996,690.892,568.904,690.892,568.904z"/>
		</g>
		<g>
			<path fill="#2D2D2D" d="M705.166,658.742c-4.896,0-8.864,3.969-8.864,8.864v32.393h17.729v-32.393
				C714.03,662.711,710.061,658.742,705.166,658.742z"/>
		</g>
		<g>
			<path fill="#2D2D2D" d="M738.182,658.742c-4.896,0-8.864,3.969-8.864,8.864v32.393h17.729v-32.393
				C747.046,662.711,743.077,658.742,738.182,658.742z"/>
		</g>
		<g>
			<path fill="#F4B07D" d="M679.971,630.089c0,29.476,0,33.488,0,33.926c0,0.038,0,0.05,0,0.048c0,0.017,0,0.038,0,0.067
				c0,0.073,4.429,0.107,4.429,0.107h38.225V579.6h-29.368C688.727,598.944,679.971,597.387,679.971,630.089z"/>
		</g>
		<g>
			<path fill="#F4B07D" d="M721.159,579.6v84.638h38.224c0,0,4.429-0.034,4.429-0.107c0-0.029,0-0.051,0-0.067
				c0,0.002,0-0.01,0-0.048c0-0.438,0-4.45,0-33.926c0-32.702-8.754-31.145-13.286-50.489H721.159z"/>
		</g>
		<g>
			<path fill="#2D2D2D" d="M721.887,699.398c23.346,0,42.271-14.498,42.271-37.844h-84.543
				C679.615,684.9,698.541,699.398,721.887,699.398z"/>
		</g>
		<g>
			<rect x="679.954" y="661.612" fill="#161516" width="84.038" height="6.319"/>
		</g>
		<g>
			<path fill="#282828" d="M672.997,671.455c0,0,2.683,1.216,9.439,1.216c0,0,36.741,1.617,38.228-0.137v-20.137l-45.94-10.214
				C674.723,642.184,674.387,662.263,672.997,671.455z"/>
		</g>
		<g>
			<path fill="#282828" d="M675.619,662.53h48.789v-86.441h-33.625C668.969,599.475,675.619,662.53,675.619,662.53z"/>
		</g>
		<g>
			<path fill="#282828" d="M719.772,652.397v20.137c1.489,1.754,41.602,0.81,41.602,0.81c6.758,0,11.765-1.344,11.765-1.344
				c-2.115-6.851-2.115-27.399-2.115-27.399L719.772,652.397z"/>
		</g>
		<g>
			<path fill="#282828" d="M753.844,576.08l-37.637,0.009v86.441h54.675C770.882,662.53,774.543,590.869,753.844,576.08z"/>
		</g>
		<g>
			<g>
				<path fill="#776537" d="M701.061,554.84c0,0-2.644,0.966-2.619,5.439c0.01,1.5,0.806,5.439-2.015,5.642
					c0,0,3.425,0.402,4.432-1.813c0,0-0.202,4.03-1.813,5.036c0,0,9.469,4.03,11.081-5.036l-0.805-13.297
					C709.321,550.811,703.479,548.393,701.061,554.84z"/>
			</g>
			<g>
				<g>
					<g>
						<path fill="#776537" d="M694.811,501.602c-7.405,5.684-10.675,29.297,1.789,41.763l27.06-30.258l-0.64-11.717
							C723.02,501.39,713.135,487.54,694.811,501.602z"/>
					</g>
					<g>
						<path fill="#776537" d="M751.326,501.602c-18.324-14.062-28.209-0.212-28.209-0.212l-0.639,11.717l27.06,30.258
							C762.002,530.898,758.729,507.286,751.326,501.602z"/>
					</g>
					<g>
						<path fill="#776537" d="M721.604,506.421c-16.215-0.218-23.025,9.946-23.025,9.946c-5.691,8.651-3.99,35.376-3.99,35.376
							c0,13.222,19.743,23.757,28.035,23.757c8.293,0,28.107-9.848,28.107-23.757c0,0,1.397-26.725-4.294-35.376
							C746.437,516.367,737.881,506.203,721.604,506.421z"/>
					</g>
					<g>
						<path fill="#776537" d="M726.13,502.811l-19.315,2.129l-13.069,2.841c0,0-3.129,18.683-2.703,18.824
							c0.425,0.143,15.06-7.602,15.06-7.602l16.977-5.896l25.212,7.743l5.115-2.13l-2.7-13.354L726.13,502.811z"/>
					</g>
					<g>
						<path fill="#776537" d="M725.138,488.32c-3.268,1.137-4.829,8.808-4.829,8.808c0-3.696-3.837-7.389-3.837-7.389
							c1.165,5.034-2.273,6.253-2.273,6.253l-2.271,9.8l13.067,2.414l7.104-8.663l1.788-4.099
							C723.948,498.4,725.138,488.32,725.138,488.32z"/>
					</g>
				</g>
				<g>
					<path fill="#776537" d="M693.93,547.887c0,0-2.644,0.967-2.619,5.439c0.01,1.499,0.805,5.439-2.015,5.642
						c0,0,3.425,0.403,4.432-1.812c0,0-0.201,4.028-1.813,5.035c0,0,9.469,4.03,11.08-5.035l-0.805-13.297
						C702.19,543.858,696.348,541.439,693.93,547.887z"/>
				</g>
				<g>
					<path fill="#776537" d="M708.014,557.87c0,0-2.645,0.968-2.619,5.44c0.009,1.499,0.805,5.439-2.016,5.641
						c0,0,3.425,0.403,4.432-1.812c0,0-0.201,4.029-1.813,5.036c0,0,9.47,4.029,11.081-5.036l-0.805-13.297
						C716.273,553.842,710.431,551.424,708.014,557.87z"/>
				</g>
				<g>
					<path fill="#776537" d="M745.726,560.279c0.026-4.474-2.618-5.439-2.618-5.439c-2.418-6.447-8.26-4.029-8.26-4.029
						l-0.807,13.297c1.612,9.066,11.081,5.036,11.081,5.036c-1.611-1.006-1.813-5.036-1.813-5.036
						c1.007,2.216,4.433,1.813,4.433,1.813C744.921,565.719,745.717,561.779,745.726,560.279z"/>
				</g>
				<g>
					<path fill="#776537" d="M738.774,563.311c0.025-4.473-2.619-5.44-2.619-5.44c-2.418-6.446-8.261-4.028-8.261-4.028
						l-0.805,13.297c1.61,9.065,11.08,5.036,11.08,5.036c-1.611-1.007-1.813-5.036-1.813-5.036c1.008,2.216,4.432,1.812,4.432,1.812
						C737.969,568.75,738.764,564.81,738.774,563.311z"/>
				</g>
				<g>
					<path fill="#776537" d="M694.644,538.082c0,0-2.645,0.966-2.619,5.439c0.009,1.5,0.805,5.44-2.016,5.642
						c0,0,3.425,0.402,4.432-1.813c0,0-0.201,4.03-1.813,5.036c0,0,9.47,4.03,11.081-5.036l-0.805-13.297
						C702.903,534.053,697.061,531.635,694.644,538.082z"/>
				</g>
				<g>
					<path fill="#776537" d="M753.551,553.326c0.025-4.473-2.618-5.439-2.618-5.439c-2.419-6.447-8.26-4.028-8.26-4.028
						l-0.806,13.297c1.611,9.065,11.079,5.035,11.079,5.035c-1.611-1.007-1.813-5.035-1.813-5.035
						c1.008,2.216,4.434,1.812,4.434,1.812C752.745,558.766,753.542,554.825,753.551,553.326z"/>
				</g>
				<g>
					<path fill="#776537" d="M753.551,543.878c0.025-4.473-2.618-5.439-2.618-5.439c-2.419-6.447-8.26-4.028-8.26-4.028
						l-0.806,13.296c1.611,9.066,11.079,5.036,11.079,5.036c-1.611-1.006-1.813-5.036-1.813-5.036
						c1.008,2.216,4.434,1.813,4.434,1.813C752.745,549.318,753.542,545.378,753.551,543.878z"/>
				</g>
			</g>
		</g>
	</g>
	<g display="inline">
		<path fill="#3F3F3F" d="M548.424,604.114h-99.771c-0.551,0-0.998,0.446-0.998,0.997v94.888h101.766v-94.888
			C549.422,604.561,548.975,604.114,548.424,604.114z"/>
		<path fill="#3F3F3F" d="M436.421,604.114H336.65c-0.551,0-0.998,0.446-0.998,0.997v94.888h101.766v-94.888
			C437.418,604.561,436.971,604.114,436.421,604.114z"/>
		<path fill="#3F3F3F" d="M325.351,604.114H225.58c-0.551,0-0.998,0.446-0.998,0.997v94.888h101.766v-94.888
			C326.348,604.561,325.901,604.114,325.351,604.114z"/>
		<path fill="#3F3F3F" d="M660.167,604.114h-99.771c-0.551,0-0.998,0.446-0.998,0.997v94.888h101.766v-94.888
			C661.166,604.561,660.718,604.114,660.167,604.114z"/>
		<path fill="#3F3F3F" d="M883.654,604.114h-99.771c-0.552,0-0.998,0.446-0.998,0.997v94.888h101.766v-94.888
			C884.651,604.561,884.205,604.114,883.654,604.114z"/>
		<path fill="#3F3F3F" d="M995.396,604.114h-99.771c-0.551,0-0.998,0.446-0.998,0.997v94.888h101.767v-94.888
			C996.395,604.561,995.947,604.114,995.396,604.114z"/>
		<path fill="#3F3F3F" d="M1106.728,604.114h-99.771c-0.551,0-0.998,0.446-0.998,0.997v94.888h101.766v-94.888
			C1107.725,604.561,1107.278,604.114,1106.728,604.114z"/>
		<path fill="#3F3F3F" d="M1218.471,604.114H1118.7c-0.552,0-0.998,0.446-0.998,0.997v94.888h101.767v-94.888
			C1219.469,604.561,1219.021,604.114,1218.471,604.114z"/>
		<path fill="#3F3F3F" d="M771.911,604.114H672.14c-0.551,0-0.998,0.446-0.998,0.997v94.888h101.766v-94.888
			C772.908,604.561,772.462,604.114,771.911,604.114z"/>
	</g>
</g>
</svg>
