<?xml version="1.0" encoding="utf-8"?>
<!-- Generator: Adobe Illustrator 16.0.0, SVG Export Plug-In . SVG Version: 6.00 Build 0)  -->
<!DOCTYPE svg PUBLIC "-//W3C//DTD SVG 1.1//EN" "http://www.w3.org/Graphics/SVG/1.1/DTD/svg11.dtd">
<svg version="1.1" id="Layer_1" xmlns="http://www.w3.org/2000/svg" xmlns:xlink="http://www.w3.org/1999/xlink" x="0px" y="0px"
	 width="297px" height="529.676px" viewBox="0 0 297 529.676" enable-background="new 0 0 297 529.676" xml:space="preserve">
<g>
	<ellipse fill="#A33E38" cx="148.5" cy="525.12" rx="148.5" ry="4.556"/>
	<g>
		<path fill="#776537" d="M94.065,109.38c0,0-4.944,1.808-4.896,10.171c0.018,2.804,1.506,10.172-3.768,10.548
			c0,0,6.404,0.754,8.287-3.39c0,0-0.377,7.534-3.391,9.418c0,0,17.706,7.533,20.719-9.418l-1.506-24.862
			C109.511,101.847,98.586,97.325,94.065,109.38z"/>
		<path fill="#776537" d="M205.547,119.551c0.047-8.363-4.897-10.171-4.897-10.171c-4.521-12.055-15.444-7.533-15.444-7.533
			l-1.507,24.862c3.014,16.951,20.719,9.418,20.719,9.418c-3.014-1.884-3.392-9.418-3.392-9.418c1.885,4.144,8.289,3.39,8.289,3.39
			C204.04,129.723,205.529,122.354,205.547,119.551z"/>
		<g>
			<polygon fill="#B7B7B7" points="87.911,151.006 101.85,163.062 99.966,149.5 			"/>
			<polygon fill="#B7B7B7" points="192.823,163.062 206.763,151.006 194.708,149.5 			"/>
			<path fill="#F4B07D" d="M99.881,105.492c0,41.182-23.269,127.112-23.269,127.112h142.143c0,0-23.686-67.596-23.686-127.112
				C195.069,81.697,99.881,81.695,99.881,105.492z"/>
			<g>
				<path fill="#776537" d="M95.713,24.833c-13.847,10.627-19.962,54.781,3.344,78.09l50.596-56.577l-1.194-21.907
					C148.458,24.438,129.976-1.459,95.713,24.833z"/>
				<path fill="#776537" d="M201.386,24.833c-34.264-26.292-52.745-0.395-52.745-0.395l-1.194,21.907l50.596,56.577
					C221.349,79.614,215.229,35.463,201.386,24.833z"/>
				<path fill="#F4B07D" d="M145.81,33.845c-30.319-0.438-43.053,20.024-43.053,20.024c-10.643,17.414-7.461,71.209-7.461,71.209
					c0,26.616,36.916,47.824,52.421,47.824c15.506,0,52.556-19.824,52.556-47.824c0,0,2.614-53.795-8.028-71.209
					C192.244,53.869,176.246,33.406,145.81,33.845z"/>
				<g>
					<path opacity="0.1" fill="#232222" d="M147.704,153.996c-18.069,0-25.598-10.542-25.598-10.542s4.141,14.31,24.718,14.31
						c20.831,0,24.719-14.31,24.719-14.31C159.741,155.256,147.704,153.996,147.704,153.996z"/>
				</g>
				<g opacity="0.2">
					<path fill="#231F20" d="M160.615,98.244c0.153,0.149,0.314,0.33,0.452,0.488c0.139,0.168,0.28,0.334,0.407,0.512
						c0.259,0.354,0.505,0.721,0.706,1.127c0.105,0.199,0.204,0.403,0.279,0.625c0.087,0.215,0.164,0.436,0.209,0.676
						c0.059,0.232,0.106,0.469,0.107,0.724c0.019,0.25,0.026,0.5-0.029,0.757c-0.037,0.257-0.075,0.514-0.19,0.75
						c-0.104,0.235-0.18,0.498-0.343,0.69c-0.151,0.2-0.295,0.419-0.462,0.599l-0.543,0.48c-0.178,0.175-0.381,0.27-0.576,0.395
						l-0.593,0.352l-1.224,0.512l-0.034,0.016l-0.114,0.021c-0.487,0.089-1.041,0.236-1.544,0.405
						c-0.511,0.173-1.005,0.38-1.462,0.625c-0.456,0.244-0.892,0.514-1.236,0.842c-0.36,0.335-0.566,0.635-0.897,1.185
						c-0.342,0.509-0.727,1.116-1.324,1.55c-0.271,0.252-0.586,0.405-0.898,0.571c-0.311,0.188-0.63,0.266-0.948,0.37
						c-0.644,0.246-1.26,0.262-1.892,0.387c-0.632,0.033-1.184,0.073-1.88,0.084c-0.59-0.039-1.138-0.035-1.761-0.107
						c-0.646-0.103-1.294-0.172-1.922-0.402l-0.473-0.148c-0.156-0.068-0.311-0.15-0.465-0.227
						c-0.314-0.146-0.616-0.317-0.891-0.553c-0.588-0.416-1.005-0.997-1.365-1.514l-0.238-0.375l-0.061-0.093l-0.029-0.047
						c0.058,0.084-0.002-0.002,0.002,0.005l-0.129-0.176c-0.195-0.279-0.285-0.33-0.459-0.51c-0.344-0.328-0.78-0.597-1.234-0.843
						c-0.458-0.245-0.952-0.452-1.463-0.624c-0.502-0.17-1.057-0.316-1.544-0.406l-0.114-0.021l-0.034-0.014l-1.223-0.512
						l-0.593-0.353c-0.195-0.124-0.398-0.22-0.576-0.395l-0.543-0.479c-0.167-0.18-0.311-0.398-0.461-0.6
						c-0.163-0.191-0.238-0.454-0.344-0.689c-0.115-0.236-0.153-0.492-0.19-0.749c-0.056-0.257-0.048-0.507-0.029-0.757
						c0.001-0.253,0.048-0.492,0.106-0.724c0.045-0.24,0.121-0.46,0.207-0.675c0.076-0.223,0.174-0.427,0.28-0.626
						c0.2-0.406,0.446-0.773,0.704-1.127c0.268-0.354,0.528-0.675,0.865-1.007c0.253-0.25,0.661-0.247,0.91,0.006
						c0.242,0.245,0.248,0.635,0.02,0.886l-0.018,0.02c-0.229,0.25-0.469,0.571-0.672,0.876c-0.203,0.312-0.395,0.633-0.533,0.963
						c-0.076,0.164-0.146,0.328-0.189,0.495c-0.059,0.165-0.106,0.33-0.123,0.494c-0.034,0.162-0.059,0.323-0.045,0.478
						c-0.004,0.156-0.005,0.311,0.043,0.45c0.03,0.145,0.049,0.291,0.133,0.416c0.073,0.126,0.098,0.272,0.217,0.381
						c0.102,0.115,0.179,0.243,0.289,0.355l0.382,0.312c0.11,0.115,0.286,0.186,0.435,0.274l0.459,0.259l1.034,0.396l-0.147-0.036
						c0.657,0.101,1.23,0.24,1.834,0.421c0.594,0.181,1.182,0.404,1.757,0.689c0.572,0.288,1.134,0.634,1.643,1.098
						c0.243,0.219,0.577,0.574,0.71,0.773l0.13,0.175l0.096,0.138l0.058,0.089l0.233,0.357c0.308,0.423,0.583,0.806,0.958,1.052
						c0.092,0.065,0.174,0.142,0.271,0.201l0.316,0.152l0.315,0.156l0.359,0.104c0.469,0.174,0.982,0.213,1.481,0.299
						c0.527,0.062,1.146,0.056,1.714,0.088l1.597-0.062c0.504-0.102,1.071-0.109,1.517-0.291c0.232-0.074,0.484-0.127,0.67-0.252
						c0.2-0.105,0.416-0.194,0.569-0.35c0.361-0.238,0.618-0.637,0.924-1.079c0.265-0.445,0.72-1.112,1.229-1.552
						c0.509-0.464,1.071-0.809,1.643-1.098c0.575-0.285,1.163-0.509,1.758-0.689c0.604-0.18,1.177-0.319,1.835-0.42l-0.148,0.035
						l1.034-0.396l0.459-0.258c0.148-0.089,0.324-0.159,0.435-0.275l0.382-0.312c0.11-0.111,0.187-0.24,0.288-0.355
						c0.119-0.109,0.144-0.254,0.218-0.381c0.083-0.124,0.102-0.271,0.132-0.415c0.048-0.14,0.047-0.294,0.042-0.45
						c0.015-0.154-0.01-0.315-0.044-0.478c-0.018-0.164-0.065-0.329-0.124-0.494c-0.044-0.167-0.112-0.331-0.189-0.495
						c-0.293-0.651-0.727-1.302-1.212-1.845l-0.006-0.007c-0.237-0.266-0.215-0.673,0.051-0.909
						C159.989,98,160.375,98.012,160.615,98.244z"/>
				</g>
				<circle fill="#2E230E" cx="121.347" cy="83.858" r="2.901"/>
				<path fill="#593B2E" d="M130.661,73.204c0,0-16.637-2.863-24.436,9.625c0,0,9.895-9.466,23.897-5.781
					C130.123,77.048,134.132,74.688,130.661,73.204z"/>
				<circle fill="#2E230E" cx="172.081" cy="83.858" r="2.901"/>
				<path fill="#593B2E" d="M162.373,74.287c-3.317,1.799,0.891,3.779,0.891,3.779c13.606-4.968,24.33,3.538,24.33,3.538
					C178.671,69.896,162.373,74.287,162.373,74.287z"/>
				<path fill="#F4B07D" d="M86.095,91.766c-1.106,4.662-1.197,29.881,13.145,13.947l0.399-12.752
					C99.639,92.961,89.681,76.627,86.095,91.766z"/>
				
					<path fill="none" stroke="#C18963" stroke-width="1.5936" stroke-linecap="round" stroke-linejoin="round" stroke-miterlimit="10" d="
					M93.265,93.358c0,0-5.18,3.985,0,9.958"/>
				<path fill="#F4B07D" d="M194.219,92.961l0.403,12.752c14.338,15.934,14.25-9.285,13.144-13.947
					C204.182,76.627,194.219,92.961,194.219,92.961z"/>
				
					<path fill="none" stroke="#C18963" stroke-width="1.5936" stroke-linecap="round" stroke-linejoin="round" stroke-miterlimit="10" d="
					M200.597,93.358c0,0,5.177,3.985,0,9.958"/>
				
					<path fill="none" stroke="#C18963" stroke-width="1.9905" stroke-linecap="round" stroke-linejoin="round" stroke-miterlimit="10" d="
					M131.524,120.521c0,0,16.854,9.242,31.396-1.623"/>
				<path fill="#776537" d="M154.273,27.094l-36.116,3.981l-24.437,5.312c0,0-5.851,34.934-5.054,35.198
					c0.795,0.265,28.159-14.215,28.159-14.215l31.744-11.025l47.142,14.478l9.564-3.981l-5.048-24.969L154.273,27.094z"/>
				<path opacity="0.3" fill="#231F20" d="M195.712,53.023l-47.413-6.678c0,0,19.127,44.357,61.621,21.649
					C209.92,67.995,197.703,61.388,195.712,53.023z"/>
				<path opacity="0.3" fill="#231F20" d="M94.643,68.302c41.885,11.213,53.386-22.29,53.386-22.29l-40.234,9.746
					C104.248,63.684,94.643,68.302,94.643,68.302z"/>
				<path fill="#776537" d="M195.712,52.324l-47.142-5.979c0,0,17.929,38.384,58.295,21.12
					C206.865,67.466,197.703,60.691,195.712,52.324z"/>
				<path fill="#776537" d="M98.851,67.354c34.533,5.797,49.178-21.343,49.178-21.343l-40.361,7.681
					C106.396,61.018,98.851,67.354,98.851,67.354z"/>
				<path fill="#776537" d="M152.419,0c-6.109,2.125-9.029,16.469-9.029,16.469c0-6.91-7.175-13.814-7.175-13.814
					c2.178,9.412-4.25,11.69-4.25,11.69l-4.247,18.323l24.434,4.515l13.282-16.198l3.344-7.664C150.194,18.848,152.419,0,152.419,0z
					"/>
			</g>
		</g>
		
			<path fill="none" stroke="#F4B07D" stroke-width="29.1108" stroke-linecap="round" stroke-linejoin="round" stroke-miterlimit="10" d="
			M96.61,177.566c0,0-55.643,40.37-60.452,83.639c-4.968,44.719-2.484,55.484-2.484,79.172"/>
		<path fill="none" stroke="#282828" stroke-width="29.811" stroke-linejoin="round" stroke-miterlimit="10" d="M96.61,177.566
			c0,0-55.643,40.37-60.452,83.639c-4.968,44.719-2.484,55.484-2.484,79.172"/>
		
			<path fill="none" stroke="#F4B07D" stroke-width="29.1108" stroke-linecap="round" stroke-linejoin="round" stroke-miterlimit="10" d="
			M199.492,177.566c0,0,55.647,40.37,60.456,83.639c4.968,44.719,2.484,55.484,2.484,79.172"/>
		<path fill="none" stroke="#282828" stroke-width="29.811" stroke-linejoin="round" stroke-miterlimit="10" d="M199.492,177.566
			c0,0,55.647,40.37,60.456,83.639c4.968,44.719,2.484,55.484,2.484,79.172"/>
		
			<line fill="none" stroke="#2D2D2D" stroke-width="33.1501" stroke-linecap="round" stroke-linejoin="round" stroke-miterlimit="10" x1="115.073" y1="335.235" x2="115.073" y2="497.603"/>
		
			<line fill="none" stroke="#2D2D2D" stroke-width="33.1501" stroke-linecap="round" stroke-linejoin="round" stroke-miterlimit="10" x1="176.809" y1="335.235" x2="176.809" y2="497.603"/>
		<path fill="#F4B07D" d="M67.964,265.083c0,55.126,0,62.621,0,63.438c0,0.07,0,0.092,0,0.088c0,0.031,0,0.072,0,0.127
			c0,0.136,8.281,0.201,8.281,0.201h71.475v-158.26H92.808C84.335,206.85,67.964,203.937,67.964,265.083z"/>
		<path fill="#F4B07D" d="M144.979,170.677v158.26h71.471c0,0,8.282-0.065,8.282-0.201c0-0.055,0-0.096,0-0.127
			c0,0.004,0-0.018,0-0.088c0-0.816,0-8.312,0-63.438c0-61.146-16.369-58.233-24.845-94.406H144.979z"/>
		<g>
			<circle opacity="0.2" fill="#232222" cx="110.178" cy="224.367" r="7.178"/>
			<circle opacity="0.2" fill="#232222" cx="110.178" cy="224.37" r="3.591"/>
		</g>
		<g>
			<circle opacity="0.2" fill="#232222" cx="182.5" cy="224.367" r="7.178"/>
			<circle opacity="0.2" fill="#232222" cx="182.5" cy="224.37" r="3.591"/>
		</g>
		<ellipse opacity="0.2" fill="#232222" cx="147.442" cy="295.259" rx="2.207" ry="3.588"/>
		<path fill="#2D2D2D" d="M146.339,394.682c43.653,0,79.04-27.108,79.04-70.762H67.298
			C67.298,367.573,102.686,394.682,146.339,394.682z"/>
		<path fill="#1C1C1C" d="M51.185,523.804h80.269v-21.302C87.128,502.502,51.185,512.037,51.185,523.804z"/>
		<path fill="#1C1C1C" d="M160.186,502.502v21.302h80.263C240.448,512.037,204.514,502.502,160.186,502.502z"/>
		<rect x="96.353" y="491.894" fill="#2D2D2D" width="36.463" height="12.513"/>
		<rect x="158.556" y="491.894" fill="#2D2D2D" width="36.458" height="12.513"/>
		<rect x="67.931" y="324.026" fill="#161516" width="157.137" height="11.816"/>
		<rect x="135.994" y="324.026" fill="#D6D6D6" width="22.443" height="11.816"/>
		<rect x="92.135" y="168.899" fill="#FFFFFF" width="107.366" height="155.397"/>
		<path fill="#282828" d="M58.151,287.7c0,0-0.63,37.544-3.229,54.731c0,0,5.016,2.272,17.649,2.272c0,0,25.647,3.025,28.429-0.254
			l-0.756-37.653L58.151,287.7z"/>
		<path fill="#282828" d="M59.826,325.744h40.608V164.115H88.179C47.392,207.839,59.826,325.744,59.826,325.744z"/>
		<path fill="#282828" d="M194.52,306.797l-0.76,37.653c2.784,3.279,26.414,1.513,26.414,1.513c12.637,0,21.999-2.514,21.999-2.514
			c-3.956-12.808-3.956-51.231-3.956-51.231L194.52,306.797z"/>
		<path fill="#282828" d="M206.586,164.115H194.33v161.629h43.622C237.952,325.744,245.289,191.767,206.586,164.115z"/>
		<polygon fill="#2D2D2D" points="98.394,194.115 77.843,220.072 99.698,299.825 99.698,164.038 77.843,192.594 		"/>
		<polygon fill="#2D2D2D" points="194.184,164.038 194.184,299.825 216.039,220.072 195.49,194.115 216.039,192.594 		"/>
		<g>
			<g>
				<polygon fill="#EA94C7" points="130.767,169.571 146.801,185.604 163.412,169.571 147.181,165.367 				"/>
				<path fill="#EA94C7" d="M147.369,173.65v-0.561l-0.28,0.277l-0.276-0.277l-0.029,0.593l-4.997,5.069l-11.725,111.633
					c0,0,12.878,29.033,17.308,29.033c5.618,0,16.749-29.033,16.749-29.033l-11.726-111.633L147.369,173.65z"/>
			</g>
			<polygon fill="#D6D6D6" points="87.911,151.006 87.911,164.068 130.605,183.656 147.717,165.367 92.432,152.514 			"/>
			<polygon fill="#D6D6D6" points="147.181,165.367 164.291,183.656 206.983,164.068 206.983,151.006 202.463,152.514 			"/>
		</g>
		<g>
			<path fill="#F4B07D" d="M148.187,162.754c-28.011,0-39.677-14.938-39.677-14.938s6.416,20.276,38.314,20.276
				c32.291,0,38.315-20.276,38.315-20.276C166.849,164.541,148.187,162.754,148.187,162.754z"/>
		</g>
	</g>
</g>
</svg>
