<?xml version="1.0" encoding="utf-8"?>
<!-- Generator: Adobe Illustrator 16.0.0, SVG Export Plug-In . SVG Version: 6.00 Build 0)  -->
<!DOCTYPE svg PUBLIC "-//W3C//DTD SVG 1.1//EN" "http://www.w3.org/Graphics/SVG/1.1/DTD/svg11.dtd">
<svg version="1.1" id="Layer_1" xmlns="http://www.w3.org/2000/svg" xmlns:xlink="http://www.w3.org/1999/xlink" x="0px" y="0px"
	 width="430.4px" height="523.8px" viewBox="0 0 430.4 523.8" enable-background="new 0 0 430.4 523.8" xml:space="preserve">
<g>
	<path fill="#77601F" d="M244.6,286.4c0,0-4.8,5.4-16.7-1.8c0,0-19.7,16.1-24.5-9.6c0,0-22.7,11.4-18.5-13.8
		c0,0-23.3,10.2-19.7-10.8c0,0-17.9-9.6-4.8-28.7c0,0-36.5-5.4-31.1-27.5c0,0-33.5,4.8-30.5-19.7c0,0-17.3-13.8-6-19.7
		c0,0-67-10.2-48.4-44.3c0,0-42.5-8.4-32.3-39.5c0,0-26.9-22.7,0-30.5c0,0-21.5-23.3-6-37.7c0,0,19.1,7.2,33.5,25.1
		c0,0,78.3,46,93.3,62.8c0,0,52.6,35.9,67,69.4c0,0,13.2,20.3,17.9,21.5c0,0,31.7,9.6,39.5,28.7
		C257.1,210.5,272.7,272.7,244.6,286.4z"/>
	<path fill="#77601F" d="M280.3,207.6c0,0,8.4-53.2,42.5-66.4c0,0,8.4-1.2,12.6,1.8c0,0,40.4,1.5,46.3-2.4c0,0,36.5-7.5,42.5-4.2
		c0,0,11.4,3.9,3.6,10.8c0,0,0.9,9.9-31.4,16.4c0,0,23.6-0.3,21.2,10.8c0,0,3.9,3.6-17.6,9.3l-8.4,2.1c0,0,2.7,10.8-8.4,13.8
		c0,0-1.2,3-9.6,4.5c0,0-2.4,1.2,3.3,6c0,0,5.7,2.1,0,8.4c0,0-7.5,7.5-17.6,1.2c0,0-6-1.2-7.8-1.2c0,0-2.4,6.3-6,8.4
		c0,0,3.6,12-12.3,12c0,0,0.3,11.7-15,13.8C318.3,252.5,270.4,247.4,280.3,207.6z"/>
	<path fill="#776316" d="M185.1,109.4c0,0-5,1.8-5,10.2c0,2.8,1.5,10.2-3.8,10.5c0,0,6.5,0.8,8.4-3.4c0,0-0.4,7.5-3.4,9.4
		c0,0,17.9,7.5,21-9.4l-1.5-24.9C200.8,101.8,189.7,97.3,185.1,109.4z"/>
	<path fill="#776316" d="M293,109.4c0,0,5,1.8,5,10.2c0,2.8-1.5,10.2,3.8,10.5c0,0-6.5,0.8-8.4-3.4c0,0,0.4,7.5,3.4,9.4
		c0,0-17.9,7.5-21-9.4l1.5-24.9C277.3,101.8,288.4,97.3,293,109.4z"/>
	<g>
		<polygon fill="#594A19" points="178.9,155 191.1,153.5 193,167.1 		"/>
		<polygon fill="#594A19" points="297.6,154.3 285.4,152.8 283.5,166.4 		"/>
		<path fill="#F3C027" d="M311.3,232.6H167.5c0,0,23.5-85.9,23.5-127.1c0-23.8,96.3-23.8,96.3,0C287.3,165,311.3,232.6,311.3,232.6z
			"/>
		<g>
			<path fill="#776316" d="M293.7,24.8c-16.4-12.4-29.2-13.2-38.2-10.5C242.4,15.1,244.2,0,244.2,0C238,2.1,235,16.5,235,16.5
				c0-6.9-7.3-13.8-7.3-13.8c1.8,7.6-2.1,10.5-3.7,11.4c-8.9-2.3-21.4-1.3-37.3,10.8c-14,10.6-20.2,54.8,3.4,78.1l50.1-55.3
				l50.1,55.3C313.9,79.6,307.7,35.5,293.7,24.8z"/>
			<path fill="#F3C027" d="M284.4,53.9c0,0-16.2-20.5-47-20c-30.7-0.4-43.5,20-43.5,20c-10.8,17.4-7.5,71.2-7.5,71.2
				c0,26.6,37.3,47.8,53,47.8c15.7,0,53.2-19.8,53.2-47.8C292.6,125.1,295.2,71.3,284.4,53.9z"/>
			<g>
				<path opacity="0.1" fill="#232222" d="M263.5,143.5c0,0-3.9,14.3-25,14.3c-20.8,0-25-14.3-25-14.3s7.6,10.5,25.9,10.5
					C239.4,154,251.6,155.3,263.5,143.5z"/>
			</g>
			<path fill="#F3C027" d="M190.8,93c0,0-10.1-16.3-13.7-1.2c-1.1,4.7-1.2,29.9,13.3,13.9"/>
			
				<path fill="none" stroke="#C1A53B" stroke-width="1.5936" stroke-linecap="round" stroke-linejoin="round" stroke-miterlimit="10" d="
				M184.3,93.4c0,0-5.2,4,0,10"/>
			<path fill="#F3C027" d="M286.4,93c0,0,10.1-16.3,13.7-1.2c1.1,4.7,1.2,29.9-13.3,13.9"/>
			
				<path fill="none" stroke="#C1A53B" stroke-width="1.5936" stroke-linecap="round" stroke-linejoin="round" stroke-miterlimit="10" d="
				M292.9,93.4c0,0,5.2,4,0,10"/>
			<g display="none">
				<g display="inline" opacity="0.2">
					<path fill="#231F20" d="M252.5,98.2c0.2,0.1,0.3,0.3,0.5,0.5c0.1,0.2,0.3,0.3,0.4,0.5c0.3,0.4,0.5,0.7,0.7,1.1
						c0.1,0.2,0.2,0.4,0.3,0.6c0.1,0.2,0.2,0.4,0.2,0.7c0.1,0.2,0.1,0.5,0.1,0.7c0,0.3,0,0.5,0,0.8c0,0.3-0.1,0.5-0.2,0.8
						c-0.1,0.2-0.2,0.5-0.4,0.7c-0.2,0.2-0.3,0.4-0.5,0.6l-0.5,0.5c-0.2,0.2-0.4,0.3-0.6,0.4l-0.6,0.3l-1.2,0.5l0,0l-0.1,0
						c-0.5,0.1-1.1,0.2-1.6,0.4c-0.5,0.2-1,0.4-1.5,0.6c-0.5,0.2-0.9,0.5-1.3,0.8c-0.4,0.3-0.6,0.6-0.9,1.2
						c-0.3,0.5-0.7,1.1-1.3,1.6c-0.3,0.3-0.6,0.4-0.9,0.6c-0.3,0.2-0.6,0.3-1,0.4c-0.6,0.2-1.3,0.3-1.9,0.4c-0.6,0-1.2,0.1-1.9,0.1
						c-0.6,0-1.1,0-1.8-0.1c-0.7-0.1-1.3-0.2-1.9-0.4l-0.5-0.1c-0.2-0.1-0.3-0.2-0.5-0.2c-0.3-0.1-0.6-0.3-0.9-0.5
						c-0.6-0.4-1-1-1.4-1.5l-0.2-0.4l-0.1-0.1l0,0c0.1,0.1,0,0,0,0l-0.1-0.2c-0.2-0.3-0.3-0.3-0.5-0.5c-0.3-0.3-0.8-0.6-1.3-0.8
						c-0.5-0.2-1-0.5-1.5-0.6c-0.5-0.2-1.1-0.3-1.6-0.4l-0.1,0l0,0l-1.2-0.5l-0.6-0.3c-0.2-0.1-0.4-0.2-0.6-0.4l-0.5-0.5
						c-0.2-0.2-0.3-0.4-0.5-0.6c-0.2-0.2-0.2-0.5-0.4-0.7c-0.1-0.2-0.2-0.5-0.2-0.8c-0.1-0.3-0.1-0.5,0-0.8c0-0.3,0-0.5,0.1-0.7
						c0-0.2,0.1-0.5,0.2-0.7c0.1-0.2,0.2-0.4,0.3-0.6c0.2-0.4,0.5-0.8,0.7-1.1c0.3-0.4,0.5-0.7,0.9-1c0.3-0.2,0.7-0.2,0.9,0
						c0.2,0.2,0.2,0.6,0,0.9l0,0c-0.2,0.2-0.5,0.6-0.7,0.9c-0.2,0.3-0.4,0.6-0.5,1c-0.1,0.2-0.1,0.3-0.2,0.5
						c-0.1,0.2-0.1,0.3-0.1,0.5c0,0.2-0.1,0.3,0,0.5c0,0.2,0,0.3,0,0.5c0,0.1,0.1,0.3,0.1,0.4c0.1,0.1,0.1,0.3,0.2,0.4
						c0.1,0.1,0.2,0.2,0.3,0.4l0.4,0.3c0.1,0.1,0.3,0.2,0.4,0.3l0.5,0.3l1,0.4l-0.1,0c0.7,0.1,1.2,0.2,1.8,0.4
						c0.6,0.2,1.2,0.4,1.8,0.7c0.6,0.3,1.1,0.6,1.7,1.1c0.2,0.2,0.6,0.6,0.7,0.8l0.1,0.2l0.1,0.1l0.1,0.1l0.2,0.4
						c0.3,0.4,0.6,0.8,1,1.1c0.2,0.1,0.4,0.3,0.6,0.4c0.1,0.1,0.2,0.1,0.3,0.2l0.4,0.1c0.5,0.2,1,0.2,1.5,0.3
						c0.5,0.1,1.2,0.1,1.7,0.1l1.6-0.1c0.5-0.1,1.1-0.1,1.5-0.3c0.2-0.1,0.5-0.1,0.7-0.2c0.2-0.1,0.4-0.2,0.6-0.4
						c0.4-0.2,0.6-0.6,0.9-1.1c0.3-0.4,0.7-1.1,1.2-1.6c0.5-0.5,1.1-0.8,1.7-1.1c0.6-0.3,1.2-0.5,1.8-0.7c0.6-0.2,1.2-0.3,1.8-0.4
						l-0.1,0l1-0.4l0.5-0.3c0.1-0.1,0.3-0.2,0.4-0.3l0.4-0.3c0.1-0.1,0.2-0.2,0.3-0.4c0.1-0.1,0.2-0.3,0.2-0.4
						c0.1-0.1,0.1-0.3,0.1-0.4c0-0.1,0.1-0.3,0-0.5c0-0.2,0-0.3,0-0.5c0-0.2-0.1-0.3-0.1-0.5c0-0.2-0.1-0.3-0.2-0.5
						c-0.3-0.7-0.7-1.3-1.2-1.8l0,0c-0.2-0.3-0.2-0.7,0-0.9C251.8,98,252.2,98,252.5,98.2z"/>
				</g>
				<path display="inline" fill="#2E230E" d="M215.7,83.9c0,1.6-1.3,2.9-2.9,2.9c-1.6,0-2.9-1.3-2.9-2.9c0-1.6,1.3-2.9,2.9-2.9
					C214.4,81,215.7,82.3,215.7,83.9z"/>
				<path display="inline" fill="#593B2E" d="M197.4,82.8c0,0,10-9.5,24.2-5.8c0,0,4.1-2.4,0.5-3.8
					C222.2,73.2,205.3,70.3,197.4,82.8z"/>
				<path display="inline" fill="#2E230E" d="M261.1,83.9c0,1.6,1.3,2.9,2.9,2.9c1.6,0,2.9-1.3,2.9-2.9c0-1.6-1.3-2.9-2.9-2.9
					C262.4,81,261.1,82.3,261.1,83.9z"/>
				<path display="inline" fill="#593B2E" d="M279.7,81.6c0,0-10.8-8.5-24.6-3.5c0,0-4.3-2-0.9-3.8
					C254.2,74.3,270.7,69.9,279.7,81.6z"/>
				
					<path display="inline" fill="none" stroke="#C18963" stroke-width="2.0019" stroke-linecap="round" stroke-linejoin="round" stroke-miterlimit="10" d="
					M223,120.5c0,0,17,9.2,31.8-1.6"/>
			</g>
			<g>
				<g opacity="0.2">
					<path fill="#231F20" d="M252.7,99.5c0.2,0.2,0.3,0.3,0.5,0.5c0.1,0.2,0.3,0.3,0.4,0.5c0.3,0.4,0.5,0.7,0.7,1.1
						c0.1,0.2,0.2,0.4,0.3,0.6c0.1,0.2,0.2,0.4,0.2,0.7c0.1,0.2,0.1,0.5,0.1,0.7c0,0.3,0,0.5,0,0.8c0,0.3-0.1,0.5-0.2,0.8
						c-0.1,0.2-0.2,0.5-0.4,0.7c-0.2,0.2-0.3,0.4-0.5,0.6l-0.6,0.5c-0.2,0.2-0.4,0.3-0.6,0.4l-0.6,0.4l-1.2,0.5l0,0l-0.1,0
						c-0.5,0.1-1.1,0.2-1.6,0.4c-0.5,0.2-1,0.4-1.5,0.6c-0.5,0.2-0.9,0.5-1.3,0.9c-0.4,0.3-0.6,0.6-0.9,1.2
						c-0.4,0.5-0.8,1.1-1.4,1.6c-0.3,0.3-0.6,0.4-0.9,0.6c-0.3,0.2-0.6,0.3-1,0.4c-0.7,0.2-1.3,0.3-1.9,0.4c-0.6,0-1.2,0.1-1.9,0.1
						c-0.6,0-1.2,0-1.8-0.1c-0.7-0.1-1.3-0.2-2-0.4c-0.3-0.1-0.6-0.2-1-0.4c-0.3-0.1-0.6-0.3-0.9-0.6c-0.6-0.4-1-1-1.4-1.5l-0.2-0.4
						L231,111l0,0c0.1,0.1,0,0,0,0l0,0l0,0l0,0l-0.1-0.2c-0.2-0.3-0.3-0.3-0.5-0.5c-0.4-0.3-0.8-0.6-1.3-0.9c-0.5-0.2-1-0.5-1.5-0.6
						c-0.5-0.2-1.1-0.3-1.6-0.4l-0.1,0l0,0l-1.2-0.5l-0.6-0.4c-0.2-0.1-0.4-0.2-0.6-0.4l-0.6-0.5c-0.2-0.2-0.3-0.4-0.5-0.6
						c-0.2-0.2-0.3-0.5-0.4-0.7c-0.1-0.2-0.2-0.5-0.2-0.8c-0.1-0.3-0.1-0.5,0-0.8c0-0.3,0-0.5,0.1-0.7c0-0.2,0.1-0.5,0.2-0.7
						c0.1-0.2,0.2-0.4,0.3-0.6c0.2-0.4,0.5-0.8,0.7-1.1c0.3-0.4,0.5-0.7,0.9-1c0.3-0.3,0.7-0.2,0.9,0c0.2,0.3,0.2,0.6,0,0.9l0,0
						c-0.2,0.3-0.5,0.6-0.7,0.9c-0.2,0.3-0.4,0.6-0.5,1c-0.1,0.2-0.1,0.3-0.2,0.5c-0.1,0.2-0.1,0.3-0.1,0.5c0,0.2-0.1,0.3,0,0.5
						c0,0.2,0,0.3,0,0.5c0,0.1,0.1,0.3,0.1,0.4c0.1,0.1,0.1,0.3,0.2,0.4c0.1,0.1,0.2,0.2,0.3,0.4l0.4,0.3c0.1,0.1,0.3,0.2,0.4,0.3
						l0.5,0.3l1.1,0.4l-0.1,0c0.7,0.1,1.3,0.2,1.9,0.4c0.6,0.2,1.2,0.4,1.8,0.7c0.6,0.3,1.2,0.6,1.7,1.1c0.2,0.2,0.6,0.6,0.7,0.8
						l0.1,0.2l0.1,0.1l0.1,0.1l0.2,0.4c0.3,0.4,0.6,0.8,1,1.1c0.2,0.2,0.4,0.3,0.6,0.4c0.2,0.1,0.4,0.2,0.7,0.3
						c0.5,0.2,1,0.2,1.5,0.3c0.5,0.1,1.2,0.1,1.8,0.1l1.6-0.1c0.5-0.1,1.1-0.1,1.6-0.3c0.2-0.1,0.5-0.1,0.7-0.3
						c0.2-0.1,0.4-0.2,0.6-0.4c0.4-0.2,0.6-0.6,1-1.1c0.3-0.5,0.7-1.1,1.3-1.6c0.5-0.5,1.1-0.8,1.7-1.1c0.6-0.3,1.2-0.5,1.8-0.7
						c0.6-0.2,1.2-0.3,1.9-0.4l-0.1,0l1.1-0.4l0.5-0.3c0.2-0.1,0.3-0.2,0.4-0.3l0.4-0.3c0.1-0.1,0.2-0.2,0.3-0.4
						c0.1-0.1,0.2-0.3,0.2-0.4c0.1-0.1,0.1-0.3,0.1-0.4c0-0.1,0.1-0.3,0-0.5c0-0.2,0-0.3,0-0.5c0-0.2-0.1-0.3-0.1-0.5
						c0-0.2-0.1-0.3-0.2-0.5c-0.3-0.7-0.7-1.3-1.2-1.9l0,0c-0.2-0.3-0.2-0.7,0-0.9C252,99.2,252.4,99.2,252.7,99.5z"/>
				</g>
				<path fill="#594D2B" d="M226.4,76.1c0,0-16.2-5.9-26.4,5.1c0,0,11.7-7.6,25.2-1.3C225.1,79.8,229.6,78.2,226.4,76.1z"/>
				
					<path fill="#C1A53B" stroke="#C1A53B" stroke-width="2.0168" stroke-linecap="round" stroke-linejoin="round" stroke-miterlimit="10" d="
					M229.5,120.5c-5.3,2.8,2.5,6.3,3.5,7.4c2.4,2.4,3.5,3.5,5.2,5.1c9.2,9.2,16.9-8.6,15.8-12.9
					C252.9,115.9,229.5,120.5,229.5,120.5z"/>
				<path fill="#2E2710" d="M218.1,94.8c0,0,10.7-2.6,3.3-12.9C221.4,81.9,225.8,91.5,218.1,94.8z"/>
				<path fill="#2E2710" d="M204.9,89.3c0,0,13.1-2.8,18.4,0.4C223.2,89.7,227.1,82.6,204.9,89.3z"/>
				<path fill="#594D2B" d="M250.3,76.1c-3.2,2.1,1.3,3.7,1.3,3.7c13.4-6.3,25.2,1.3,25.2,1.3C266.5,70.1,250.3,76.1,250.3,76.1z"/>
				<path fill="#2E2710" d="M255.2,81.9c-7.4,10.3,3.3,12.9,3.3,12.9C250.9,91.5,255.2,81.9,255.2,81.9z"/>
				<path fill="#2E2710" d="M253.4,89.7c5.3-3.2,18.4-0.4,18.4-0.4C249.5,82.6,253.4,89.7,253.4,89.7z"/>
			</g>
			<path fill="#776316" d="M184.8,36.4c0,0-5.9,34.9-5.1,35.2c0.8,0.3,28.5-14.2,28.5-14.2l32.1-11L288,60.8l9.7-4l-5.1-25L246,27.1
				l-36.5,4L184.8,36.4z"/>
			<path opacity="0.3" fill="#231F20" d="M240,46.3c0,0,19.3,44.4,62.3,21.6c0,0-12.4-6.6-14.4-15"/>
			<path opacity="0.3" fill="#231F20" d="M239.7,46c0,0-11.6,33.5-54,22.3c0,0,9.7-4.6,13.3-12.5"/>
			<path fill="#776316" d="M242.3,46.3c0,0,18.1,38.4,59,21.1c0,0-9.3-6.8-11.3-15.1"/>
			<path fill="#776316" d="M239.7,46c0,0-14.8,27.1-49.7,21.3c0,0,7.6-6.3,8.9-13.7"/>
		</g>
	</g>
	
		<path fill="none" stroke="#F3C027" stroke-width="29.277" stroke-linecap="round" stroke-linejoin="round" stroke-miterlimit="10" d="
		M187.7,192.8c0,0-56.3-40.4-61.1-83.6c-5-44.7-2.5-55.5-2.5-79.2"/>
	<path fill="none" stroke="#594A19" stroke-width="29.8111" stroke-linejoin="round" stroke-miterlimit="10" d="M187.7,192.8
		c0,0-56.3-40.4-61.1-83.6c-5-44.7-2.5-55.5-2.5-79.2"/>
	
		<path fill="none" stroke="#F3C027" stroke-width="29.277" stroke-linecap="round" stroke-linejoin="round" stroke-miterlimit="10" d="
		M291.8,177.6c0,0,56.3,40.4,61.1,83.6c5,44.7,2.5,55.5,2.5,79.2"/>
	<path fill="none" stroke="#594A19" stroke-width="29.8111" stroke-linejoin="round" stroke-miterlimit="10" d="M291.8,177.6
		c0,0,56.3,40.4,61.1,83.6c5,44.7,2.5,55.5,2.5,79.2"/>
	<g>
		<path fill="#594A19" d="M206.4,514.2c-9.2,0-16.6-7.4-16.6-16.6V335.2c0-9.2,7.4-16.6,16.6-16.6s16.6,7.4,16.6,16.6v162.4
			C223,506.8,215.5,514.2,206.4,514.2z"/>
	</g>
	<g>
		<path fill="#594A19" d="M268.8,514.2c-9.2,0-16.6-7.4-16.6-16.6V335.2c0-9.2,7.4-16.6,16.6-16.6s16.6,7.4,16.6,16.6v162.4
			C285.4,506.8,278,514.2,268.8,514.2z"/>
	</g>
	<path fill="#F4B07D" d="M183.9,170.7c-8.6,36.2-25.1,33.3-25.1,94.4c0,75.3,0,61.7,0,63.7c0,0.1,8.4,0.2,8.4,0.2h72.3V170.7H183.9z
		"/>
	<path fill="#F4B07D" d="M292.2,170.7c8.6,36.2,25.1,33.3,25.1,94.4c0,75.3,0,61.7,0,63.7c0,0.1-8.4,0.2-8.4,0.2h-72.3V170.7H292.2z
		"/>
	<path opacity="0.2" fill="#232222" d="M241.4,295.3c0,2-1,3.6-2.2,3.6c-1.2,0-2.2-1.6-2.2-3.6c0-2,1-3.6,2.2-3.6
		C240.4,291.7,241.4,293.3,241.4,295.3z"/>
	<path fill="#715F19" d="M238,394.7c44.2,0,79.9-27.1,79.9-70.8H158.1C158.1,367.6,193.9,394.7,238,394.7z"/>
	<path fill="#594A19" d="M223,502.5c-44.8,0-81.2,9.5-81.2,21.3H223V502.5z"/>
	<path fill="#594A19" d="M252,502.5c44.8,0,81.2,9.5,81.2,21.3H252V502.5z"/>
	<rect x="187.5" y="491.9" fill="#715F19" width="36.9" height="12.5"/>
	<rect x="250.4" y="491.9" fill="#715F19" width="36.9" height="12.5"/>
	<rect x="158.7" y="324" fill="#443715" width="158.9" height="11.8"/>
	<rect x="227.6" y="324" fill="#D6C07E" width="22.7" height="11.8"/>
	<rect x="183.2" y="168.9" fill="#FFFFFF" width="108.6" height="155.4"/>
	<g>
		<path opacity="0.2" fill="#232222" d="M240.7,295.8c0,2-1,3.6-2.2,3.6c-1.2,0-2.2-1.6-2.2-3.6c0-2,1-3.6,2.2-3.6
			C239.7,292.2,240.7,293.8,240.7,295.8z"/>
		<path fill="#9B7E2F" d="M209.8,248.2l-9.1-17.2l16.1,7.8l16.7,6l15.7-0.9l30.8-12.9l-10.7,17.6l54.2-16.8c-4.2-29-12.1-56.2-27-67
			l-58.9,11.7h-3l-54.5-11.7c-14.6,15.9-22.2,41.5-26.1,67.7L209.8,248.2z"/>
		<path fill="#E5CF07" d="M323.7,232.7l-56.6,17.6l10.5-17.2l-28.3,11.8l-16,0.9l-16.9-6.1l-13.4-6.5l8.8,16.6l-57.9-16.4
			c-6.6,45.7-1.7,92.9-1.7,92.9h83.9h4.4h86.8C327.4,326.3,330,277.4,323.7,232.7z"/>
	</g>
	<g>
		<path fill="#906F21" d="M235.9,241.9c0.2,0.6-71.7-33.2-71.7-33.2l19.1,21.6l-25.5-12.9l-0.9,6l40.7,16.2l-14.7-18.3l52.3,22.1
			L235.9,241.9z"/>
		<polygon fill="#D6C07E" points="236.7,246.8 188.1,225.7 203.8,243.8 155.2,230.1 152.4,235.9 219.8,254.7 204.9,237 235.4,249 		
			"/>
		<g>
			<polygon fill="none" points="204.9,237 205.8,238.1 205.8,237.3 			"/>
			<polygon fill="none" points="213.4,240.3 213.4,247 214.9,248.8 214.9,240.9 			"/>
			<polygon fill="none" points="211.6,239.6 211.6,244.9 213.1,246.6 213.1,240.2 			"/>
			<polygon fill="none" points="206.2,237.5 206.2,238.5 207.7,240.2 207.7,238.1 			"/>
			<polygon fill="none" points="203.8,243.8 202.6,242.4 202.6,243.5 			"/>
			<polygon fill="none" points="184.5,238.4 184.5,244.8 186,245.3 186,238.8 			"/>
			<polygon fill="none" points="157.4,230.7 157.4,237.3 158.9,237.7 158.9,231.2 			"/>
			<polygon fill="none" points="233.2,245.3 233.2,248.2 234.7,248.8 234.7,245.9 			"/>
			<polygon fill="none" points="155.6,230.2 155.6,236.8 157.1,237.2 157.1,230.6 			"/>
			<polygon fill="none" points="155.2,230.1 153.8,233 153.8,236.3 155.3,236.7 155.3,230.1 			"/>
			<polygon fill="none" points="235,246 235,248.9 235.4,249 236.5,247 236.5,246.7 			"/>
			<polygon fill="none" points="173.7,235.3 173.7,241.8 175.2,242.2 175.2,235.7 			"/>
			<polygon fill="none" points="152.4,235.9 153.5,236.2 153.5,233.7 			"/>
			<polygon fill="none" points="171.9,234.8 171.9,241.3 173.4,241.7 173.4,235.2 			"/>
			<polygon fill="none" points="170.1,234.3 170.1,240.8 171.6,241.2 171.6,234.7 			"/>
			<polygon fill="none" points="177.3,236.3 177.3,242.8 178.8,243.3 178.8,236.8 			"/>
			<polygon fill="none" points="168.3,233.8 168.3,240.3 169.8,240.7 169.8,234.2 			"/>
			<polygon fill="none" points="186.3,238.9 186.3,245.3 187.8,245.8 187.8,239.3 			"/>
			<polygon fill="none" points="166.5,233.3 166.5,239.8 167.9,240.2 167.9,233.7 			"/>
			<polygon fill="none" points="179.1,236.9 179.1,243.3 180.6,243.8 180.6,237.3 			"/>
			<polygon fill="none" points="219.8,254.7 218.8,253.4 218.8,254.4 			"/>
			<polygon fill="none" points="175.5,235.8 175.5,242.3 177,242.8 177,236.3 			"/>
			<polygon fill="none" points="159.2,231.2 159.2,237.8 160.7,238.2 160.7,231.7 			"/>
			<polygon fill="none" points="180.9,237.4 180.9,243.8 182.4,244.3 182.4,237.8 			"/>
			<polygon fill="none" points="182.7,237.9 182.7,244.3 184.2,244.8 184.2,238.3 			"/>
			<polygon fill="none" points="162.9,232.3 162.9,238.8 164.3,239.2 164.3,232.7 			"/>
			<polygon fill="none" points="161,231.8 161,238.3 162.5,238.7 162.5,232.2 			"/>
			<polygon fill="none" points="164.7,232.8 164.7,239.3 166.1,239.7 166.1,233.2 			"/>
			<polygon fill="none" points="226,242.1 226,245.3 227.5,245.9 227.5,242.8 			"/>
			<polygon fill="none" points="202.6,232 202.6,242.4 203.8,243.8 202.6,243.5 202.6,249.9 204,250.3 204,232.6 			"/>
			<polygon fill="none" points="224.2,241.4 224.2,244.6 225.7,245.2 225.7,242 			"/>
			<polygon fill="none" points="214.9,240.9 214.9,237.3 213.4,236.7 213.4,240.3 			"/>
			<polygon fill="none" points="200.8,243 200.8,249.4 202.2,249.8 202.2,243.4 			"/>
			<polygon fill="none" points="218.5,242.3 218.5,238.9 217,238.2 217,241.8 			"/>
			<polygon fill="none" points="222.4,240.6 222.4,243.9 223.9,244.5 223.9,241.2 			"/>
			<polygon fill="none" points="216.7,241.6 216.7,238.1 215.2,237.5 215.2,241 			"/>
			<polygon fill="none" points="191.7,240.4 191.7,246.9 193.2,247.3 193.2,240.8 			"/>
			<polygon fill="none" points="189.9,239.9 189.9,246.4 191.4,246.8 191.4,240.3 			"/>
			<polygon fill="none" points="188.1,239.4 188.1,245.8 189.6,246.3 189.6,239.8 			"/>
			<polygon fill="none" points="199,242.5 199,248.9 200.4,249.3 200.4,242.9 			"/>
			<polygon fill="none" points="197.1,242 197.1,248.4 198.6,248.8 198.6,242.4 			"/>
			<polygon fill="none" points="193.5,240.9 193.5,247.4 195,247.8 195,241.4 			"/>
			<polygon fill="none" points="195.3,241.4 195.3,247.9 196.8,248.3 196.8,241.9 			"/>
			<polygon fill="none" points="209.8,242.7 209.8,251.9 211.3,252.3 211.3,244.5 			"/>
			<polygon fill="none" points="189.6,227.5 189.6,226.4 188.1,225.8 188.1,225.8 			"/>
			<polygon fill="none" points="211.6,244.9 211.6,252.4 213.1,252.8 213.1,246.6 			"/>
			<polygon fill="none" points="215.2,249.2 215.2,253.4 216.7,253.8 216.7,250.9 			"/>
			<polygon fill="none" points="213.4,247 213.4,252.9 214.9,253.3 214.9,248.8 			"/>
			<polygon fill="none" points="217,251.3 217,253.9 218.5,254.3 218.5,253.1 			"/>
			<polygon fill="none" points="220.6,239.8 220.6,243.2 222.1,243.8 222.1,240.4 			"/>
			<polygon fill="none" points="218.8,239 218.8,242.5 220.3,243.1 220.3,239.7 			"/>
			<polygon fill="none" points="208,240.6 208,251.4 209.5,251.8 209.5,242.4 			"/>
			<polygon fill="none" points="209.5,238.8 209.5,235 208,234.3 208,238.2 			"/>
			<polygon fill="none" points="207.7,238.1 207.7,234.2 206.2,233.6 206.2,237.5 			"/>
			<polygon fill="none" points="211.3,239.5 211.3,235.8 209.8,235.1 209.8,238.9 			"/>
			<polygon fill="none" points="213.1,240.2 213.1,236.5 211.6,235.9 211.6,239.6 			"/>
			<polygon fill="none" points="206.2,238.5 206.2,250.9 207.7,251.3 207.7,240.2 			"/>
			<polygon fill="none" points="204.9,237 205.8,237.3 205.8,233.4 204.4,232.8 204.4,250.4 205.8,250.8 205.8,238.1 			"/>
			<polygon fill="none" points="193.2,231.6 193.2,228 191.7,227.3 191.7,229.9 			"/>
			<polygon fill="none" points="191.4,229.6 191.4,227.2 189.9,226.5 189.9,227.9 			"/>
			<polygon fill="none" points="229.6,243.7 229.6,246.8 231.1,247.3 231.1,244.3 			"/>
			<polygon fill="none" points="198.6,237.9 198.6,230.3 197.1,229.7 197.1,236.2 			"/>
			<polygon fill="none" points="227.8,242.9 227.8,246 229.3,246.6 229.3,243.6 			"/>
			<polygon fill="none" points="196.8,235.8 196.8,229.5 195.3,228.9 195.3,234.1 			"/>
			<polygon fill="none" points="231.4,244.5 231.4,247.5 232.9,248.1 232.9,245.1 			"/>
			<polygon fill="none" points="195,233.7 195,228.7 193.5,228.1 193.5,232 			"/>
			<polygon fill="none" points="200.4,239.9 200.4,231.1 199,230.4 199,238.2 			"/>
			<polygon fill="none" points="202.2,242 202.2,231.9 200.8,231.2 200.8,240.3 			"/>
			<polygon fill="#736529" points="153.5,233.7 153.5,236.2 153.8,236.3 153.8,233 			"/>
			<polygon fill="#736529" points="155.3,230.1 155.3,236.7 155.6,236.8 155.6,230.2 			"/>
			<polygon fill="#736529" points="157.1,230.6 157.1,237.2 157.4,237.3 157.4,230.7 			"/>
			<polygon fill="#736529" points="158.9,231.2 158.9,237.7 159.2,237.8 159.2,231.2 			"/>
			<polygon fill="#736529" points="160.7,231.7 160.7,238.2 161,238.3 161,231.8 			"/>
			<polygon fill="#736529" points="162.5,232.2 162.5,238.7 162.9,238.8 162.9,232.3 			"/>
			<polygon fill="#736529" points="164.3,232.7 164.3,239.2 164.7,239.3 164.7,232.8 			"/>
			<polygon fill="#736529" points="166.1,233.2 166.1,239.7 166.5,239.8 166.5,233.3 			"/>
			<polygon fill="#736529" points="167.9,233.7 167.9,240.2 168.3,240.3 168.3,233.8 			"/>
			<polygon fill="#736529" points="169.8,234.2 169.8,240.7 170.1,240.8 170.1,234.3 			"/>
			<polygon fill="#736529" points="171.6,234.7 171.6,241.2 171.9,241.3 171.9,234.8 			"/>
			<polygon fill="#736529" points="173.4,235.2 173.4,241.7 173.7,241.8 173.7,235.3 			"/>
			<polygon fill="#736529" points="175.2,235.7 175.2,242.2 175.5,242.3 175.5,235.8 			"/>
			<polygon fill="#736529" points="177,236.3 177,242.8 177.3,242.8 177.3,236.3 			"/>
			<polygon fill="#736529" points="178.8,236.8 178.8,243.3 179.1,243.3 179.1,236.9 			"/>
			<polygon fill="#736529" points="180.6,237.3 180.6,243.8 180.9,243.8 180.9,237.4 			"/>
			<polygon fill="#736529" points="182.4,237.8 182.4,244.3 182.7,244.3 182.7,237.9 			"/>
			<polygon fill="#736529" points="184.2,238.3 184.2,244.8 184.5,244.8 184.5,238.4 			"/>
			<polygon fill="#736529" points="186,238.8 186,245.3 186.3,245.3 186.3,238.9 			"/>
			<polygon fill="#736529" points="187.8,239.3 187.8,245.8 188.1,245.8 188.1,239.4 			"/>
			<polygon fill="#736529" points="188.1,225.8 188.1,225.8 188.1,225.7 			"/>
			<polygon fill="#736529" points="189.9,227.9 189.9,226.5 189.6,226.4 189.6,227.5 			"/>
			<polygon fill="#736529" points="189.6,239.8 189.6,246.3 189.9,246.4 189.9,239.9 			"/>
			<polygon fill="#736529" points="191.7,229.9 191.7,227.3 191.4,227.2 191.4,229.6 			"/>
			<polygon fill="#736529" points="191.4,240.3 191.4,246.8 191.7,246.9 191.7,240.4 			"/>
			<polygon fill="#736529" points="193.5,232 193.5,228.1 193.2,228 193.2,231.6 			"/>
			<polygon fill="#736529" points="193.2,240.8 193.2,247.3 193.5,247.4 193.5,240.9 			"/>
			<polygon fill="#736529" points="195.3,234.1 195.3,228.9 195,228.7 195,233.7 			"/>
			<polygon fill="#736529" points="195,241.4 195,247.8 195.3,247.9 195.3,241.4 			"/>
			<polygon fill="#736529" points="197.1,236.2 197.1,229.7 196.8,229.5 196.8,235.8 			"/>
			<polygon fill="#736529" points="196.8,241.9 196.8,248.3 197.1,248.4 197.1,242 			"/>
			<polygon fill="#736529" points="199,238.2 199,230.4 198.6,230.3 198.6,237.9 			"/>
			<polygon fill="#736529" points="198.6,242.4 198.6,248.8 199,248.9 199,242.5 			"/>
			<polygon fill="#736529" points="200.8,240.3 200.8,231.2 200.4,231.1 200.4,239.9 			"/>
			<polygon fill="#736529" points="200.4,242.9 200.4,249.3 200.8,249.4 200.8,243 			"/>
			<polygon fill="#736529" points="202.2,243.4 202.2,249.8 202.6,249.9 202.6,243.5 			"/>
			<polygon fill="#736529" points="202.6,242.4 202.6,232 202.2,231.9 202.2,242 			"/>
			<polygon fill="#736529" points="204,232.6 204,250.3 204.4,250.4 204.4,232.8 			"/>
			<polygon fill="#736529" points="206.2,237.5 206.2,233.6 205.8,233.4 205.8,237.3 			"/>
			<polygon fill="#736529" points="205.8,238.1 205.8,250.8 206.2,250.9 206.2,238.5 			"/>
			<polygon fill="#736529" points="207.7,240.2 207.7,251.3 208,251.4 208,240.6 			"/>
			<polygon fill="#736529" points="208,238.2 208,234.3 207.7,234.2 207.7,238.1 			"/>
			<polygon fill="#736529" points="209.5,242.4 209.5,251.8 209.8,251.9 209.8,242.7 			"/>
			<polygon fill="#736529" points="209.8,238.9 209.8,235.1 209.5,235 209.5,238.8 			"/>
			<polygon fill="#736529" points="211.6,239.6 211.6,235.9 211.3,235.8 211.3,239.5 			"/>
			<polygon fill="#736529" points="211.3,244.5 211.3,252.3 211.6,252.4 211.6,244.9 			"/>
			<polygon fill="#736529" points="213.1,246.6 213.1,252.8 213.4,252.9 213.4,247 			"/>
			<polygon fill="#736529" points="213.4,240.3 213.4,236.7 213.1,236.5 213.1,240.2 			"/>
			<polygon fill="#736529" points="214.9,248.8 214.9,253.3 215.2,253.4 215.2,249.2 			"/>
			<polygon fill="#736529" points="215.2,241 215.2,237.5 214.9,237.3 214.9,240.9 			"/>
			<polygon fill="#736529" points="216.7,250.9 216.7,253.8 217,253.9 217,251.3 			"/>
			<polygon fill="#736529" points="217,241.8 217,238.2 216.7,238.1 216.7,241.6 			"/>
			<polygon fill="#736529" points="218.5,254.3 218.8,254.4 218.8,253.4 218.5,253.1 			"/>
			<polygon fill="#736529" points="218.5,238.9 218.5,242.3 218.8,242.5 218.8,239 			"/>
			<polygon fill="#736529" points="220.3,239.7 220.3,243.1 220.6,243.2 220.6,239.8 			"/>
			<polygon fill="#736529" points="222.1,240.4 222.1,243.8 222.4,243.9 222.4,240.6 			"/>
			<polygon fill="#736529" points="223.9,241.2 223.9,244.5 224.2,244.6 224.2,241.4 			"/>
			<polygon fill="#736529" points="225.7,242 225.7,245.2 226,245.3 226,242.1 			"/>
			<polygon fill="#736529" points="227.5,242.8 227.5,245.9 227.8,246 227.8,242.9 			"/>
			<polygon fill="#736529" points="229.3,243.6 229.3,246.6 229.6,246.8 229.6,243.7 			"/>
			<polygon fill="#736529" points="231.1,244.3 231.1,247.3 231.4,247.5 231.4,244.5 			"/>
			<polygon fill="#736529" points="232.9,245.1 232.9,248.1 233.2,248.2 233.2,245.3 			"/>
			<polygon fill="#736529" points="234.7,245.9 234.7,248.8 235,248.9 235,246 			"/>
			<polygon fill="#736529" points="236.5,246.7 236.5,247 236.7,246.8 			"/>
		</g>
		<path fill="#906F21" d="M241.3,241.9c-0.2,0.6,71.7-33.2,71.7-33.2l-19.1,21.6l25.5-12.9l0.9,6l-40.7,16.2l14.7-18.3L242,243.4
			L241.3,241.9z"/>
		<polygon fill="#D6C07E" points="240.5,246.8 289.1,225.7 273.3,243.8 322,230.1 324.7,235.9 257.3,254.7 272.3,237 241.8,249 		
			"/>
		<g>
			<polygon fill="none" points="272.3,237 271.3,238.1 271.3,237.3 			"/>
			<polygon fill="none" points="263.8,240.3 263.8,247 262.3,248.8 262.3,240.9 			"/>
			<polygon fill="none" points="265.6,239.6 265.6,244.9 264.1,246.6 264.1,240.2 			"/>
			<polygon fill="none" points="271,237.5 271,238.5 269.5,240.2 269.5,238.1 			"/>
			<polygon fill="none" points="273.3,243.8 274.6,242.4 274.6,243.5 			"/>
			<polygon fill="none" points="292.7,238.4 292.7,244.8 291.2,245.3 291.2,238.8 			"/>
			<polygon fill="none" points="319.7,230.7 319.7,237.3 318.3,237.7 318.3,231.2 			"/>
			<polygon fill="none" points="243.9,245.3 243.9,248.2 242.4,248.8 242.4,245.9 			"/>
			<polygon fill="none" points="321.5,230.2 321.5,236.8 320.1,237.2 320.1,230.6 			"/>
			<polygon fill="none" points="322,230.1 323.3,233 323.3,236.3 321.9,236.7 321.9,230.1 			"/>
			<polygon fill="none" points="242.1,246 242.1,248.9 241.8,249 240.6,247 240.6,246.7 			"/>
			<polygon fill="none" points="303.5,235.3 303.5,241.8 302,242.2 302,235.7 			"/>
			<polygon fill="none" points="324.7,235.9 323.7,236.2 323.7,233.7 			"/>
			<polygon fill="none" points="305.3,234.8 305.3,241.3 303.8,241.7 303.8,235.2 			"/>
			<polygon fill="none" points="307.1,234.3 307.1,240.8 305.6,241.2 305.6,234.7 			"/>
			<polygon fill="none" points="299.9,236.3 299.9,242.8 298.4,243.3 298.4,236.8 			"/>
			<polygon fill="none" points="308.9,233.8 308.9,240.3 307.4,240.7 307.4,234.2 			"/>
			<polygon fill="none" points="290.9,238.9 290.9,245.3 289.4,245.8 289.4,239.3 			"/>
			<polygon fill="none" points="310.7,233.3 310.7,239.8 309.2,240.2 309.2,233.7 			"/>
			<polygon fill="none" points="298.1,236.9 298.1,243.3 296.6,243.8 296.6,237.3 			"/>
			<polygon fill="none" points="257.3,254.7 258.4,253.4 258.4,254.4 			"/>
			<polygon fill="none" points="301.7,235.8 301.7,242.3 300.2,242.8 300.2,236.3 			"/>
			<polygon fill="none" points="317.9,231.2 317.9,237.8 316.4,238.2 316.4,231.7 			"/>
			<polygon fill="none" points="296.3,237.4 296.3,243.8 294.8,244.3 294.8,237.8 			"/>
			<polygon fill="none" points="294.5,237.9 294.5,244.3 293,244.8 293,238.3 			"/>
			<polygon fill="none" points="314.3,232.3 314.3,238.8 312.8,239.2 312.8,232.7 			"/>
			<polygon fill="none" points="316.1,231.8 316.1,238.3 314.6,238.7 314.6,232.2 			"/>
			<polygon fill="none" points="312.5,232.8 312.5,239.3 311,239.7 311,233.2 			"/>
			<polygon fill="none" points="251.2,242.1 251.2,245.3 249.7,245.9 249.7,242.8 			"/>
			<polygon fill="none" points="274.6,232 274.6,242.4 273.3,243.8 274.6,243.5 274.6,249.9 273.1,250.3 273.1,232.6 			"/>
			<polygon fill="none" points="253,241.4 253,244.6 251.5,245.2 251.5,242 			"/>
			<polygon fill="none" points="262.3,240.9 262.3,237.3 263.8,236.7 263.8,240.3 			"/>
			<polygon fill="none" points="276.4,243 276.4,249.4 274.9,249.8 274.9,243.4 			"/>
			<polygon fill="none" points="258.7,242.3 258.7,238.9 260.2,238.2 260.2,241.8 			"/>
			<polygon fill="none" points="254.8,240.6 254.8,243.9 253.3,244.5 253.3,241.2 			"/>
			<polygon fill="none" points="260.5,241.6 260.5,238.1 262,237.5 262,241 			"/>
			<polygon fill="none" points="285.4,240.4 285.4,246.9 284,247.3 284,240.8 			"/>
			<polygon fill="none" points="287.3,239.9 287.3,246.4 285.8,246.8 285.8,240.3 			"/>
			<polygon fill="none" points="289.1,239.4 289.1,245.8 287.6,246.3 287.6,239.8 			"/>
			<polygon fill="none" points="278.2,242.5 278.2,248.9 276.7,249.3 276.7,242.9 			"/>
			<polygon fill="none" points="280,242 280,248.4 278.5,248.8 278.5,242.4 			"/>
			<polygon fill="none" points="283.6,240.9 283.6,247.4 282.2,247.8 282.2,241.4 			"/>
			<polygon fill="none" points="281.8,241.4 281.8,247.9 280.3,248.3 280.3,241.9 			"/>
			<polygon fill="none" points="267.4,242.7 267.4,251.9 265.9,252.3 265.9,244.5 			"/>
			<polygon fill="none" points="287.6,227.5 287.6,226.4 289.1,225.8 289.1,225.8 			"/>
			<polygon fill="none" points="265.6,244.9 265.6,252.4 264.1,252.8 264.1,246.6 			"/>
			<polygon fill="none" points="262,249.2 262,253.4 260.5,253.8 260.5,250.9 			"/>
			<polygon fill="none" points="263.8,247 263.8,252.9 262.3,253.3 262.3,248.8 			"/>
			<polygon fill="none" points="260.2,251.3 260.2,253.9 258.7,254.3 258.7,253.1 			"/>
			<polygon fill="none" points="256.6,239.8 256.6,243.2 255.1,243.8 255.1,240.4 			"/>
			<polygon fill="none" points="258.4,239 258.4,242.5 256.9,243.1 256.9,239.7 			"/>
			<polygon fill="none" points="269.2,240.6 269.2,251.4 267.7,251.8 267.7,242.4 			"/>
			<polygon fill="none" points="267.7,238.8 267.7,235 269.2,234.3 269.2,238.2 			"/>
			<polygon fill="none" points="269.5,238.1 269.5,234.2 271,233.6 271,237.5 			"/>
			<polygon fill="none" points="265.9,239.5 265.9,235.8 267.4,235.1 267.4,238.9 			"/>
			<polygon fill="none" points="264.1,240.2 264.1,236.5 265.6,235.9 265.6,239.6 			"/>
			<polygon fill="none" points="271,238.5 271,250.9 269.5,251.3 269.5,240.2 			"/>
			<polygon fill="none" points="272.3,237 271.3,237.3 271.3,233.4 272.8,232.8 272.8,250.4 271.3,250.8 271.3,238.1 			"/>
			<polygon fill="none" points="284,231.6 284,228 285.4,227.3 285.4,229.9 			"/>
			<polygon fill="none" points="285.8,229.6 285.8,227.2 287.3,226.5 287.3,227.9 			"/>
			<polygon fill="none" points="247.5,243.7 247.5,246.8 246.1,247.3 246.1,244.3 			"/>
			<polygon fill="none" points="278.5,237.9 278.5,230.3 280,229.7 280,236.2 			"/>
			<polygon fill="none" points="249.3,242.9 249.3,246 247.9,246.6 247.9,243.6 			"/>
			<polygon fill="none" points="280.3,235.8 280.3,229.5 281.8,228.9 281.8,234.1 			"/>
			<polygon fill="none" points="245.7,244.5 245.7,247.5 244.3,248.1 244.3,245.1 			"/>
			<polygon fill="none" points="282.2,233.7 282.2,228.7 283.6,228.1 283.6,232 			"/>
			<polygon fill="none" points="276.7,239.9 276.7,231.1 278.2,230.4 278.2,238.2 			"/>
			<polygon fill="none" points="274.9,242 274.9,231.9 276.4,231.2 276.4,240.3 			"/>
			<polygon fill="#736529" points="323.7,233.7 323.7,236.2 323.3,236.3 323.3,233 			"/>
			<polygon fill="#736529" points="321.9,230.1 321.9,236.7 321.5,236.8 321.5,230.2 			"/>
			<polygon fill="#736529" points="320.1,230.6 320.1,237.2 319.7,237.3 319.7,230.7 			"/>
			<polygon fill="#736529" points="318.3,231.2 318.3,237.7 317.9,237.8 317.9,231.2 			"/>
			<polygon fill="#736529" points="316.4,231.7 316.4,238.2 316.1,238.3 316.1,231.8 			"/>
			<polygon fill="#736529" points="314.6,232.2 314.6,238.7 314.3,238.8 314.3,232.3 			"/>
			<polygon fill="#736529" points="312.8,232.7 312.8,239.2 312.5,239.3 312.5,232.8 			"/>
			<polygon fill="#736529" points="311,233.2 311,239.7 310.7,239.8 310.7,233.3 			"/>
			<polygon fill="#736529" points="309.2,233.7 309.2,240.2 308.9,240.3 308.9,233.8 			"/>
			<polygon fill="#736529" points="307.4,234.2 307.4,240.7 307.1,240.8 307.1,234.3 			"/>
			<polygon fill="#736529" points="305.6,234.7 305.6,241.2 305.3,241.3 305.3,234.8 			"/>
			<polygon fill="#736529" points="303.8,235.2 303.8,241.7 303.5,241.8 303.5,235.3 			"/>
			<polygon fill="#736529" points="302,235.7 302,242.2 301.7,242.3 301.7,235.8 			"/>
			<polygon fill="#736529" points="300.2,236.3 300.2,242.8 299.9,242.8 299.9,236.3 			"/>
			<polygon fill="#736529" points="298.4,236.8 298.4,243.3 298.1,243.3 298.1,236.9 			"/>
			<polygon fill="#736529" points="296.6,237.3 296.6,243.8 296.3,243.8 296.3,237.4 			"/>
			<polygon fill="#736529" points="294.8,237.8 294.8,244.3 294.5,244.3 294.5,237.9 			"/>
			<polygon fill="#736529" points="293,238.3 293,244.8 292.7,244.8 292.7,238.4 			"/>
			<polygon fill="#736529" points="291.2,238.8 291.2,245.3 290.9,245.3 290.9,238.9 			"/>
			<polygon fill="#736529" points="289.4,239.3 289.4,245.8 289.1,245.8 289.1,239.4 			"/>
			<polygon fill="#736529" points="289.1,225.8 289.1,225.8 289.1,225.7 			"/>
			<polygon fill="#736529" points="287.3,227.9 287.3,226.5 287.6,226.4 287.6,227.5 			"/>
			<polygon fill="#736529" points="287.6,239.8 287.6,246.3 287.3,246.4 287.3,239.9 			"/>
			<polygon fill="#736529" points="285.4,229.9 285.4,227.3 285.8,227.2 285.8,229.6 			"/>
			<polygon fill="#736529" points="285.8,240.3 285.8,246.8 285.4,246.9 285.4,240.4 			"/>
			<polygon fill="#736529" points="283.6,232 283.6,228.1 284,228 284,231.6 			"/>
			<polygon fill="#736529" points="284,240.8 284,247.3 283.6,247.4 283.6,240.9 			"/>
			<polygon fill="#736529" points="281.8,234.1 281.8,228.9 282.2,228.7 282.2,233.7 			"/>
			<polygon fill="#736529" points="282.2,241.4 282.2,247.8 281.8,247.9 281.8,241.4 			"/>
			<polygon fill="#736529" points="280,236.2 280,229.7 280.3,229.5 280.3,235.8 			"/>
			<polygon fill="#736529" points="280.3,241.9 280.3,248.3 280,248.4 280,242 			"/>
			<polygon fill="#736529" points="278.2,238.2 278.2,230.4 278.5,230.3 278.5,237.9 			"/>
			<polygon fill="#736529" points="278.5,242.4 278.5,248.8 278.2,248.9 278.2,242.5 			"/>
			<polygon fill="#736529" points="276.4,240.3 276.4,231.2 276.7,231.1 276.7,239.9 			"/>
			<polygon fill="#736529" points="276.7,242.9 276.7,249.3 276.4,249.4 276.4,243 			"/>
			<polygon fill="#736529" points="274.9,243.4 274.9,249.8 274.6,249.9 274.6,243.5 			"/>
			<polygon fill="#736529" points="274.6,242.4 274.6,232 274.9,231.9 274.9,242 			"/>
			<polygon fill="#736529" points="273.1,232.6 273.1,250.3 272.8,250.4 272.8,232.8 			"/>
			<polygon fill="#736529" points="271,237.5 271,233.6 271.3,233.4 271.3,237.3 			"/>
			<polygon fill="#736529" points="271.3,238.1 271.3,250.8 271,250.9 271,238.5 			"/>
			<polygon fill="#736529" points="269.5,240.2 269.5,251.3 269.2,251.4 269.2,240.6 			"/>
			<polygon fill="#736529" points="269.2,238.2 269.2,234.3 269.5,234.2 269.5,238.1 			"/>
			<polygon fill="#736529" points="267.7,242.4 267.7,251.8 267.4,251.9 267.4,242.7 			"/>
			<polygon fill="#736529" points="267.4,238.9 267.4,235.1 267.7,235 267.7,238.8 			"/>
			<polygon fill="#736529" points="265.6,239.6 265.6,235.9 265.9,235.8 265.9,239.5 			"/>
			<polygon fill="#736529" points="265.9,244.5 265.9,252.3 265.6,252.4 265.6,244.9 			"/>
			<polygon fill="#736529" points="264.1,246.6 264.1,252.8 263.8,252.9 263.8,247 			"/>
			<polygon fill="#736529" points="263.8,240.3 263.8,236.7 264.1,236.5 264.1,240.2 			"/>
			<polygon fill="#736529" points="262.3,248.8 262.3,253.3 262,253.4 262,249.2 			"/>
			<polygon fill="#736529" points="262,241 262,237.5 262.3,237.3 262.3,240.9 			"/>
			<polygon fill="#736529" points="260.5,250.9 260.5,253.8 260.2,253.9 260.2,251.3 			"/>
			<polygon fill="#736529" points="260.2,241.8 260.2,238.2 260.5,238.1 260.5,241.6 			"/>
			<polygon fill="#736529" points="258.7,254.3 258.4,254.4 258.4,253.4 258.7,253.1 			"/>
			<polygon fill="#736529" points="258.7,238.9 258.7,242.3 258.4,242.5 258.4,239 			"/>
			<polygon fill="#736529" points="256.9,239.7 256.9,243.1 256.6,243.2 256.6,239.8 			"/>
			<polygon fill="#736529" points="255.1,240.4 255.1,243.8 254.8,243.9 254.8,240.6 			"/>
			<polygon fill="#736529" points="253.3,241.2 253.3,244.5 253,244.6 253,241.4 			"/>
			<polygon fill="#736529" points="251.5,242 251.5,245.2 251.2,245.3 251.2,242.1 			"/>
			<polygon fill="#736529" points="249.7,242.8 249.7,245.9 249.3,246 249.3,242.9 			"/>
			<polygon fill="#736529" points="247.9,243.6 247.9,246.6 247.5,246.8 247.5,243.7 			"/>
			<polygon fill="#736529" points="246.1,244.3 246.1,247.3 245.7,247.5 245.7,244.5 			"/>
			<polygon fill="#736529" points="244.3,245.1 244.3,248.1 243.9,248.2 243.9,245.3 			"/>
			<polygon fill="#736529" points="242.4,245.9 242.4,248.8 242.1,248.9 242.1,246 			"/>
			<polygon fill="#736529" points="240.6,246.7 240.6,247 240.5,246.8 			"/>
		</g>
		<g>
			<ellipse fill="#926608" cx="236.6" cy="245.8" rx="15.6" ry="15.2"/>
			<ellipse fill="#FAECC9" cx="236.6" cy="245.8" rx="13.9" ry="13.6"/>
			<ellipse fill="#D3B23F" cx="236.6" cy="245.8" rx="11.2" ry="10.9"/>
			<g>
				<path fill="#FFF100" d="M236.7,235c6.3,0,11.5,5,11.5,11.2c0,6.2-5.2,11.2-11.5,11.2s-11.5-5-11.5-11.2
					C225.2,240,230.3,235,236.7,235L236.7,235z"/>
				<path fill="#91742E" d="M236.7,235.4c-6.1,0-11.1,4.9-11.1,10.8s5,10.8,11.1,10.8c6.1,0,11.1-4.9,11.1-10.8
					S242.8,235.4,236.7,235.4z"/>
				<path fill="#FFF100" d="M247.3,246h-2c-0.1-0.3-0.2-0.5-0.3-0.7c-0.5-1.3-1.2-2.3-2.1-2.8l-0.2-0.1l-0.2,0.1
					c-0.1,0-0.1,0.1-0.2,0.1c-0.1-0.5-0.3-0.9-0.5-1.4l2.3-2.3C246.1,240.8,247.3,243.3,247.3,246z"/>
				<path fill="#FFF100" d="M236.7,235.8c2.9,0,5.5,1.1,7.4,2.9l-2.3,2.3c-0.4-0.2-0.7-0.3-1.1-0.4l0.1-0.7l-0.1-0.1
					c0,0.1-0.3,0-0.3-0.3c-0.1,0,0.1-0.2-0.1-0.2l-0.1-0.2l-0.1,0l-0.3-0.3l0-0.1c-0.1-0.1-0.3,0-0.3,0c-0.1,0-0.3,0.1-0.3,0.1
					l-0.1,0l-0.1,0l-0.1,0.2c0,0.1,0,0.1,0,0.2c0.1,0,0.1,0.2,0.2,0.2l0,0.1c0,0.1,0.2,0,0.3,0.2l0.1,0.1c0,0.1,0,0.1,0.1,0.2
					l0.1,0.2l0.1,0l0.1,0.1l0.1,0c0.1,0.1,0,0.5,0,0.6l-0.1,0.1c-0.1,0-0.4,0.1-0.4,0.2c0.1,0,0,0.4,0.2,0.2c0,0.1,0.2,0.2,0.2,0.2
					l0,0.2c0.1,0.2,0.3,0.4,0.5,0.4c0.1,0,0.1,0.1,0.1-0.3l0-0.1c-0.1-0.3-0.1-0.5,0.2-0.2l0.1-0.1l0.1-0.1l0-0.3
					c0.3,0.1,0.5,0.2,0.8,0.3c0.2,0.5,0.4,1,0.5,1.5c-0.6,0.6-1.1,1.4-1.5,2.4c-0.5,1.2-0.8,2.7-0.8,4.3l0,0.1l-0.1-0.1
					c-0.1,0-0.1-0.2-0.2-0.2c0-0.1-0.1,0-0.1-0.1l-0.2-0.1l-0.1-0.1c-0.1,0-0.1-0.1-0.1-0.2c0.1,0,0.1-0.1,0.2-0.1l0-0.1l-0.1,0
					c0-0.1-0.1-0.2-0.1-0.3c-0.1,0-0.4-0.3-0.4-0.5c0-0.1-0.1-0.2-0.2-0.2c0-0.1-0.2-0.1-0.2-0.2c-0.1,0-0.1-0.1-0.1-0.1l-0.2-0.2
					c-0.1,0-0.2,0-0.4,0.1l-0.3,0.3l-0.3-0.3l0-0.3c-0.1,0-0.1,0-0.1-0.1l-0.1-0.1l-0.2-0.1c0-0.1,0.1-0.3,0.2-0.3l0.1-0.1l-0.1-0.1
					l-0.2,0.1l-0.1,0.1l-0.2,0.1l-0.1-0.1c0-0.1-0.1-0.2-0.1-0.2c0-0.2,0-0.5,0.3-0.6c0.2-0.1,0.3-0.1,0.4,0c0.3,0-0.1-0.1,0.5-0.1
					l-0.1,0.4l0.1,0.1c0.1,0,0.1,0,0.2,0l0.1-0.3c0-0.1,0-0.1,0-0.2c0-0.1,0.2,0,0.2-0.1l0.1-0.1c0.1,0,0.2,0,0.2-0.1
					c0,0,0-0.1,0.1-0.1c0-0.1,0.1-0.1,0.1-0.2l0.2-0.1l0-0.1l0.2-0.1l0.1-0.1c0-0.1,0.1-0.2,0.2-0.2l0.5,0.2
					c0.1-0.1,0.4-0.3,0.2-0.4c0-0.1-0.2,0-0.1-0.4l0.1-0.1l0.1,0l0.4,0.1c0,0.1-0.1,0.1-0.2,0.3c0.1,0,0,0.3,0,0.3l0,0.1
					c0.1,0,0.2,0.1,0.3,0.1c0,0,0.1,0,0.1,0c0,0,0.2-0.1,0.2-0.1c0-0.2,0-0.4-0.1-0.4c0-0.1,0.2-0.2,0.2-0.3c0-0.1-0.2-0.3-0.2-0.4
					c0-0.2-0.2-0.3-0.2-0.5c0-0.2,0.1-0.2,0.1-0.4l-0.1-0.2l-0.2,0l-0.1-0.1c-0.1-0.1-0.1-0.3-0.3-0.4c0-0.1-0.2,0-0.2-0.1
					c-0.2-0.1-0.3-0.1-0.4,0l-0.1,0.1l0,0.1l-0.1,0.1c-0.1,0.3-0.2,0.5-0.3,0.7l-0.1,0l0,0.4l-0.1,0.1c-0.1,0-0.1-0.5-0.2-0.5
					c0-0.1,0.1-0.2,0-0.2l-0.2-0.1l-0.1-0.1c-0.1,0,0-0.6-0.2-0.6c0-0.1,0.1-0.2,0.1-0.3l0.2-0.2l0-0.1l0-0.1c0.1,0,0.3-0.4,0.5-0.4
					c0-0.1,0.4-0.1,0.5-0.1c0.1-0.1,0.1-0.2,0.1-0.2l0-0.6l-0.3,0.2c-0.1-0.1-0.1-0.1-0.1-0.1c-0.1-0.1-0.2-0.2-0.2-0.5
					c0-0.1,0.2-0.3,0.1-0.3l-0.2,0.1c-0.1,0.1-0.3,0.2-0.1,0.5c0.1,0.1-0.1,0.2-0.2,0.2l-0.1,0l-0.1,0c0,0.1-0.2,0-0.3,0.1l-0.3-0.1
					c0,0-0.2-0.1-0.3-0.1l-0.3,0l-0.2-0.3c-0.1,0-0.2,0-0.2-0.1l0-0.2c0,0-0.2-0.1-0.2-0.2c-0.2,0-0.1-0.2-0.2-0.3
					c-0.5,0-1.3-0.1-1.5-0.5l0-0.1c-0.1,0-0.4-0.3-0.4-0.3l-0.1-0.1c-0.2,0-0.4,0.1-0.5,0.1c-0.1,0.1-0.3,0.3-0.5,0.3
					c-0.1,0-0.1,0.1-0.1,0.3l0.1,0c0,0.1,0.1,0.2,0.1,0.3l-0.1,0.1c-0.1,0-0.2,0-0.2,0l-0.1,0.2l-0.1,0l0,0.2l0.1,0l0.1,0.3
					c-0.1,0.2-0.4,0.2-0.6,0.3c-0.1,0-0.2,0.2-0.1,0.3c0.1,0.1,0.2,0.2,0.2,0.2l0.3,0.3c0,0,0,0.1,0,0.1c-0.1,0-0.1,0-0.2,0.1
					c0,0,0,0-0.1,0c0,0,0,0-0.1,0.1c-0.1,0-0.2,0.1-0.2,0.1c-0.1,0-0.3,0-0.3,0.1l0,0.1c-0.1,0-0.2,0.1-0.2,0.1l-2.3-2.2
					C231.2,236.9,233.8,235.8,236.7,235.8z"/>
				<path fill="#FFF100" d="M236.2,249.5l0.2,0.4c0,0.1,0,0.3,0.2,0.3c0,0.1,0,0.2,0.1,0.2l-0.1,0.1l-0.1,0.2c0,0.1-0.3,0.5-0.4,0.6
					c-0.1,0.1,0,0.3-0.1,0.4l-0.1,0.1c-0.1,0.1-0.1,0.2-0.2,0.3c-1.4-0.1-2.7-0.5-4.1-1c-0.2-0.4-0.3-0.8-0.5-1.2
					c0.5,0,1.1-0.1,1.5-0.3c0.5-0.2,0.9-0.5,1.3-0.9l0.2-0.2l-0.2-0.2l-1.2-1.1l-0.3,0.3c-0.2,0.2-0.4,0.3-0.6,0.4
					c-0.2,0.1-0.5,0.2-0.7,0.2c-0.2,0-0.3,0-0.5-0.1c-0.2-1.1-0.2-2.3,0-3.4c0.1,0,0.3-0.1,0.5-0.1c0.3,0,0.5,0.1,0.7,0.2
					c0.2,0.1,0.4,0.3,0.6,0.4l0.2,0.3l1.4-1.3l-0.2-0.2c-0.4-0.4-0.8-0.7-1.3-0.9c-0.5-0.2-1-0.3-1.5-0.3c0.1-0.4,0.3-0.7,0.4-1.1
					c0.3-0.1,0.6-0.2,0.9-0.4c0.3,0,0.5-0.1,0.6-0.2c0.3-0.1,0.6-0.2,1-0.2c0,0.1,0.1,0.1,0.1,0.1c0,0.3,0,0.7,0,0.9
					c0.3,0.3,0.3,0.6,0.3,1.1c-0.1,0.2-0.2,1-0.1,1.1l0.1,0c0,0.1-0.1,0.5,0.1,0.5c0.3,0.3,0.2,0.6,0.2,0.7c0,0.1,0,0.2,0.2,0.4
					c0.1,0.6,0.1,0.2,0.2,0.2c-0.1-0.3,0-0.6-0.1-0.7l-0.1-0.1l0-0.2l0.1,0c0,0,0.1,0.1,0.1,0.1c0.1,0.1,0.1,0.2,0.1,0.3
					c0.1,0.1-0.1,0.4,0.1,0.4l0,0.2l0,0.3c0.2,0.3,0.5,0.7,0.9,0.6l0.2,0.2c0,0.2,0.1,0.4,0.2,0.5l0.1,0.1c0,0,0,0.2,0.3,0.2
					c0.1,0,0.1,0.1,0.1,0.1l0.1,0.2l-0.1,0.1l-0.2,0.1c-0.1-0.1-0.3,0.1-0.4,0.1c-0.1,0.5-0.1,0.4-0.3,0.5
					C236.1,249.1,236.2,249.3,236.2,249.5z"/>
				<path fill="#FFF100" d="M229,239l2.3,2.2c-0.2,0.4-0.3,0.9-0.5,1.3c-0.9,0.1-1.7,0.5-2.3,1.1c-0.6,0.6-1.1,1.5-1.1,2.4H226
					C226.1,243.3,227.2,240.8,229,239z"/>
				<path fill="#FFF100" d="M230.2,246h-0.8c0-0.4,0.2-0.8,0.5-1.1c0.1-0.1,0.3-0.2,0.4-0.3C230.3,245.1,230.3,245.5,230.2,246z"/>
				<path fill="#FFF100" d="M230.3,247.7c-0.1-0.1-0.3-0.2-0.4-0.3c-0.3-0.3-0.4-0.6-0.5-1h0.8C230.2,246.9,230.3,247.3,230.3,247.7
					z"/>
				<path fill="#FFF100" d="M226,246.5h1.4c0.1,0.9,0.5,1.7,1.1,2.4c0.6,0.6,1.4,1,2.3,1.1c0.1,0.4,0.3,0.9,0.5,1.3l-2.3,2.2
					C227.2,251.6,226.1,249.2,226,246.5z"/>
				<path fill="#FFF100" d="M236.7,256.6c-2.9,0-5.5-1.1-7.4-3l2.3-2.2c1.3,0.5,2.6,0.8,3.9,1c0,0.1,0,0.1,0,0.2l-0.1,0.1
					c0,0.2-0.1,0.4-0.1,0.7l0,0.1l0.1,0l0,0.1l0.1,0.1c0,0,0.2,0,0.2-0.1c0.1-0.1,0.2-0.2,0.2-0.2l0-0.2l0.1,0l0-0.1
					c0.1,0,0.2-0.3,0.3-0.4l0.1,0l0-0.1c0.1,0,0-0.2,0.1-0.2c0,0,0-0.1,0.1-0.1c1.8,0,3.5-0.3,5.2-1.1l2.3,2.3
					C242.2,255.5,239.6,256.6,236.7,256.6z"/>
				<path fill="#FFF100" d="M244.4,253.4l-2.4-2.3c0.3-0.7,0.5-1.4,0.7-2.2l1.4,0c0,0,0,0.1,0,0.2c0,0.2,0,0.3,0,0.5v0.3h1.9l0-0.4
					c0-1.1-0.2-2.1-0.4-3.1h1.8C247.3,249.1,246.2,251.6,244.4,253.4z"/>
				<path fill="#ECA814" d="M231.2,242.8c1,0,1.9,0.4,2.5,1.1l-0.9,0.9c-0.4-0.4-1-0.7-1.6-0.7c-1.2,0-2.2,1-2.2,2.1
					c0,1.2,1,2.1,2.2,2.1c0.6,0,1.2-0.3,1.6-0.7l0.9,0.9c-0.6,0.7-1.5,1.1-2.5,1.1c-1.9,0-3.5-1.5-3.5-3.4
					C227.7,244.3,229.3,242.8,231.2,242.8L231.2,242.8z"/>
				<path fill="#ECA814" d="M242.9,242.8c-1.5,0.9-2.7,3.7-2.7,6.8h1.1c0-0.3,0-0.6,0.1-1l3,0c0.1,0.3,0.1,0.6,0.1,0.9h1.2
					C245.5,246.5,244.4,243.7,242.9,242.8L242.9,242.8z"/>
				<path fill="#FFF100" d="M240.1,250.1L240.1,250.1c-0.1-0.1-0.1-0.1-0.2-0.2h1.7l0-0.3c0-0.1,0-0.3,0-0.4c0-0.1,0-0.1,0-0.2
					l0.6,0c-0.2,0.7-0.4,1.4-0.7,2.1c-1.4,0.6-2.8,1-4.2,1c0.1-0.1,0.2-0.2,0.2-0.2c0.1,0,0.2,0,0.2-0.1c0.1,0,0.1-0.1,0.1-0.1
					l0.1-0.2c0-0.1,0.5-0.4,0.5-0.3c0.2,0,0.4,0,0.6,0c0,0,0.2-0.2,0.3-0.2c0-0.1,0.1,0,0.1-0.1c0.1,0,0.1-0.1,0.1-0.1l0.1-0.1
					l0.1-0.1c0.1,0,0.3-0.2,0.3-0.1l0.1-0.1C240.1,250.4,240.1,250.2,240.1,250.1z"/>
				<path fill="#91742E" d="M236.9,238.5l-0.1,0.4c0.3,0.1,0.3,0.2,0.2,0.3c-0.1,0.1,0,0.2,0.3,0.3c0.4,0.2,0.7,0.3,0.8,0.1
					l-0.1-0.4c-0.1-0.1,0-0.3,0-0.4c0.1-0.2,0-0.4-0.4-0.6C237.4,238.1,237.2,238.2,236.9,238.5z"/>
				<path fill="#91742E" d="M236.5,238.7l0.5-0.4l0.1-0.5c-0.1-0.1-0.2-0.1-0.4-0.1c-0.1,0.2-0.2,0.3-0.3,0.5l-0.1,0.2
					C236.3,238.7,236.4,238.8,236.5,238.7z"/>
				<path fill="#91742E" d="M242.9,245.1c-0.3,0.4-0.6,1-0.9,1.9h1.7C243.5,246.2,243.2,245.5,242.9,245.1L242.9,245.1z"/>
				<path fill="#FFF100" d="M243.2,246.7H243c0-0.1,0-0.1,0-0.2h0.2C243.2,246.5,243.2,246.6,243.2,246.7z"/>
				<path fill="#FFF100" d="M242.6,246.3c0,0.1,0,0.2,0,0.3h-0.1C242.6,246.5,242.6,246.4,242.6,246.3z"/>
			</g>
		</g>
	</g>
	<path fill="#594A19" d="M148.8,287.7c0,0-0.6,37.5-3.3,54.7c0,0,5.1,2.3,17.9,2.3c0,0,25.9,3,28.8-0.3l-0.8-37.7L148.8,287.7z"/>
	<path fill="#594A19" d="M191.6,164.1v161.6h-41.1c0,0-12.6-117.9,28.7-161.6H191.6z"/>
	<path fill="#594A19" d="M330.9,292.2c0,0,0,38.4,4,51.2c0,0-9.5,2.5-22.3,2.5c0,0-23.9,1.8-26.7-1.5l0.8-37.7L330.9,292.2z"/>
	<path fill="#594A19" d="M286.6,164.1v161.6h44.1c0,0,7.4-134-31.7-161.6H286.6z"/>
	<polygon fill="#715F19" points="191.6,164 169.5,192.6 190.3,194.1 169.5,220.1 191.6,299.8 	"/>
	<polygon fill="#715F19" points="286.4,164 308.5,192.6 287.7,194.1 308.5,220.1 286.4,299.8 	"/>
	<path fill="#9B7E2F" d="M239.1,167.4c-0.8,0-1.5,0-2.3-0.1l0,0c-0.3,0-0.7,0-1,0l0,0c-1,0-2-0.1-3-0.1c0,0-0.1,0-0.1,0
		c-31.1-1.7-53.9-12.3-53.9-12.3l-0.5,9.5c21.4,14.5,42.3,17.9,53,18.6c2,0.2,4.1,0.2,5.8,0.2c1.1,0,1.7,0,1.7,0
		c31.1,0,59-18.6,59-18.6l0.1-10.2C275,164.4,257.2,167.6,239.1,167.4z"/>
	<g>
		<path fill="#F3C027" d="M279.1,149.7c0,0-6.1,20.3-38.8,20.3c-32.3,0-38.8-20.3-38.8-20.3s11.8,14.9,40.1,14.9
			C241.7,164.6,260.6,166.4,279.1,149.7z"/>
	</g>
</g>
</svg>
