<?xml version="1.0" encoding="utf-8"?>
<!-- Generator: Adobe Illustrator 16.0.0, SVG Export Plug-In . SVG Version: 6.00 Build 0)  -->
<!DOCTYPE svg PUBLIC "-//W3C//DTD SVG 1.1//EN" "http://www.w3.org/Graphics/SVG/1.1/DTD/svg11.dtd">
<svg version="1.1" id="Layer_1" xmlns="http://www.w3.org/2000/svg" xmlns:xlink="http://www.w3.org/1999/xlink" x="0px" y="0px"
	 width="313.62px" height="304.868px" viewBox="0 0 313.62 304.868" enable-background="new 0 0 313.62 304.868"
	 xml:space="preserve">
<g>
	<path fill="#F4B07D" d="M117.363,26.387C96.006-2.504,55.274-8.611,26.386,12.744c-28.89,21.356-34.997,62.088-13.641,90.977
		c16.531,22.364,31.297,41.104,45.577,59.227c29.979,38.048,58.733,74.543,101.249,141.92h152.233
		c-70.894-120.4-111.736-172.235-151.295-222.44C146.84,65.079,132.703,47.139,117.363,26.387z"/>
	<path fill="#282828" d="M118.621,25.456L11.486,104.652c16.546,22.382,31.319,41.132,45.606,59.264
		c29.828,37.854,58.439,74.168,100.628,140.952H313.62C242.387,183.812,201.418,131.815,161.739,81.459
		C148.076,64.119,133.947,46.189,118.621,25.456z"/>
</g>
</svg>
