<?xml version="1.0" encoding="utf-8"?>
<!-- Generator: Adobe Illustrator 16.0.0, SVG Export Plug-In . SVG Version: 6.00 Build 0)  -->
<!DOCTYPE svg PUBLIC "-//W3C//DTD SVG 1.1//EN" "http://www.w3.org/Graphics/SVG/1.1/DTD/svg11.dtd">
<svg version="1.1" id="Layer_1" xmlns="http://www.w3.org/2000/svg" xmlns:xlink="http://www.w3.org/1999/xlink" x="0px" y="0px"
	 width="290.7px" height="410.7px" viewBox="0 0 290.7 410.7" enable-background="new 0 0 290.7 410.7" xml:space="preserve">
<rect y="-2.4" fill="#EFEFEF" width="290.7" height="410.7"/>
<g enable-background="new    ">
	<path fill="#302F2F" d="M72.9,33.8L75.6,16H81v25h-3.7V23.1L74.6,41h-3.7L68,23.3V41h-3.4V16H70L72.9,33.8z"/>
	<path fill="#302F2F" d="M87.8,26.5h5.4v3.6h-5.4v7.3h6.8V41H83.9V16h10.7v3.6h-6.8V26.5z M93.4,10.8l-3.6,4h-2.6l2.4-4H93.4z"/>
	<path fill="#302F2F" d="M110.1,16L106,28.2l4.4,12.8h-4.1l-3.2-9.9L99.8,41h-3.7l4.4-12.8L96.4,16h4.1l3,9.2l3-9.2H110.1z"/>
	<path fill="#302F2F" d="M112.3,16h3.9v25h-3.9V16z"/>
	<path fill="#302F2F" d="M130.5,31.7V35c0,4-2,6.3-5.8,6.3s-5.8-2.3-5.8-6.3V22c0-4,2-6.3,5.8-6.3s5.8,2.3,5.8,6.3v2.4h-3.7v-2.7
		c0-1.8-0.8-2.5-2-2.5s-2,0.7-2,2.5v13.5c0,1.8,0.8,2.4,2,2.4s2-0.6,2-2.4v-3.6H130.5z"/>
	<path fill="#302F2F" d="M132.6,22c0-4,2.1-6.3,6-6.3c3.9,0,6,2.3,6,6.3v13c0,4-2.1,6.3-6,6.3c-3.9,0-6-2.3-6-6.3V22z M136.5,35.2
		c0,1.8,0.8,2.5,2,2.5s2-0.7,2-2.5V21.8c0-1.8-0.8-2.5-2-2.5s-2,0.7-2,2.5V35.2z"/>
	<path fill="#302F2F" d="M158.4,36.4l3-20.4h3.6l-3.9,25h-5.8l-3.9-25h4L158.4,36.4z"/>
	<path fill="#302F2F" d="M172.1,15.7c3.8,0,5.8,2.3,5.8,6.3v0.8h-3.7v-1c0-1.8-0.7-2.5-2-2.5s-2,0.7-2,2.5c0,5.1,7.7,6.1,7.7,13.2
		c0,4-2,6.3-5.8,6.3c-3.9,0-5.8-2.3-5.8-6.3v-1.5h3.7v1.8c0,1.8,0.8,2.4,2,2.4s2-0.6,2-2.4c0-5.1-7.7-6.1-7.7-13.2
		C166.4,18,168.3,15.7,172.1,15.7z"/>
</g>
<g enable-background="new    ">
	<path fill="#302F2F" d="M76.2,54.2v3.2c0,4-1.9,6.2-5.8,6.2h-1.9V73h-3.9V48h5.8C74.3,48,76.2,50.2,76.2,54.2z M68.5,51.6V60h1.9
		c1.2,0,1.9-0.6,1.9-2.4v-3.7c0-1.8-0.7-2.4-1.9-2.4H68.5z"/>
	<path fill="#302F2F" d="M77.7,54c0-4,2.1-6.3,6-6.3c3.9,0,6,2.3,6,6.3v13c0,4-2.1,6.3-6,6.3c-3.9,0-6-2.3-6-6.3V54z M81.6,67.2
		c0,1.8,0.8,2.5,2,2.5s2-0.7,2-2.5V53.8c0-1.8-0.8-2.5-2-2.5s-2,0.7-2,2.5V67.2z"/>
	<path fill="#302F2F" d="M100.4,73c-0.2-0.6-0.4-1-0.4-3.1V66c0-2.3-0.8-3.2-2.6-3.2h-1.4V73h-3.9V48h5.9c4.1,0,5.8,1.9,5.8,5.7v2
		c0,2.6-0.8,4.2-2.6,5.1c2,0.8,2.6,2.7,2.6,5.3V70c0,1.2,0,2.1,0.4,3H100.4z M96.1,51.6v7.7h1.5c1.5,0,2.4-0.6,2.4-2.6v-2.5
		c0-1.8-0.6-2.6-2-2.6H96.1z"/>
	<path fill="#302F2F" d="M105.4,48h12.1v3.6h-4.1V73h-3.9V51.6h-4.1V48z"/>
	<path fill="#302F2F" d="M122.9,48v19.3c0,1.8,0.8,2.4,2,2.4s2-0.6,2-2.4V48h3.7v19c0,4-2,6.3-5.8,6.3c-3.9,0-5.8-2.3-5.8-6.3V48
		H122.9z"/>
	<path fill="#302F2F" d="M139.3,59.1h5.5V67c0,4-2,6.3-5.8,6.3s-5.8-2.3-5.8-6.3V54c0-4,2-6.3,5.8-6.3s5.8,2.3,5.8,6.3v2.4H141v-2.7
		c0-1.8-0.8-2.5-2-2.5s-2,0.7-2,2.5v13.5c0,1.8,0.8,2.4,2,2.4s2-0.6,2-2.4v-4.6h-1.8V59.1z"/>
	<path fill="#302F2F" d="M159.9,73h-4l-0.7-4.5h-4.8l-0.7,4.5h-3.6l4-25h5.7L159.9,73z M151,65.1h3.8l-1.9-12.6L151,65.1z"/>
	<path fill="#302F2F" d="M161.8,48h3.9v21.4h6.5V73h-10.4V48z"/>
</g>
<g enable-background="new    ">
	<path fill="#302F2F" d="M73.9,181.8v2.8c0,3.4-1.7,5.3-4.9,5.3c-3.2,0-4.9-1.9-4.9-5.3v-10.9c0-3.4,1.7-5.3,4.9-5.3
		c3.2,0,4.9,1.9,4.9,5.3v2h-3.1v-2.2c0-1.5-0.7-2.1-1.7-2.1c-1.1,0-1.7,0.6-1.7,2.1v11.3c0,1.5,0.7,2,1.7,2c1,0,1.7-0.5,1.7-2v-3
		H73.9z"/>
	<path fill="#302F2F" d="M82.9,189.7c-0.2-0.5-0.3-0.9-0.3-2.6v-3.3c0-2-0.7-2.7-2.2-2.7h-1.1v8.5H76v-21h5c3.4,0,4.9,1.6,4.9,4.8
		v1.6c0,2.2-0.7,3.6-2.2,4.3c1.6,0.7,2.2,2.3,2.2,4.5v3.2c0,1,0,1.8,0.4,2.5H82.9z M79.3,171.7v6.4h1.3c1.2,0,2-0.5,2-2.2v-2.1
		c0-1.5-0.5-2.2-1.7-2.2H79.3z"/>
	<path fill="#302F2F" d="M88,168.7h3.3v21H88V168.7z"/>
	<path fill="#302F2F" d="M98.1,168.4c3.2,0,4.9,1.9,4.9,5.3v0.7h-3.1v-0.9c0-1.5-0.6-2.1-1.6-2.1c-1.1,0-1.6,0.6-1.6,2.1
		c0,4.3,6.4,5.1,6.4,11.1c0,3.4-1.7,5.3-4.9,5.3s-4.9-1.9-4.9-5.3v-1.3h3.1v1.5c0,1.5,0.7,2,1.7,2c1.1,0,1.7-0.5,1.7-2
		c0-4.3-6.4-5.1-6.4-11.1C93.3,170.3,94.9,168.4,98.1,168.4z"/>
	<path fill="#302F2F" d="M104.9,168.7h3.3v21h-3.3V168.7z"/>
	<path fill="#302F2F" d="M115.1,168.4c3.2,0,4.9,1.9,4.9,5.3v0.7h-3.1v-0.9c0-1.5-0.6-2.1-1.6-2.1c-1.1,0-1.7,0.6-1.7,2.1
		c0,4.3,6.5,5.1,6.5,11.1c0,3.4-1.7,5.3-4.9,5.3s-4.9-1.9-4.9-5.3v-1.3h3.1v1.5c0,1.5,0.7,2,1.7,2c1,0,1.7-0.5,1.7-2
		c0-4.3-6.4-5.1-6.4-11.1C110.2,170.3,111.9,168.4,115.1,168.4z"/>
	<path fill="#302F2F" d="M126.5,168.7h5.2c3.3,0,4.9,1.8,4.9,5.2v10.6c0,3.4-1.6,5.2-4.9,5.2h-5.2V168.7z M129.8,171.7v15h1.9
		c1,0,1.7-0.5,1.7-2v-10.9c0-1.5-0.6-2-1.7-2H129.8z"/>
	<path fill="#302F2F" d="M142,177.5h4.5v3H142v6.1h5.7v3h-9v-21h9v3H142V177.5z"/>
	<path fill="#302F2F" d="M159.4,178h4.6v6.7c0,3.4-1.7,5.3-4.9,5.3s-4.9-1.9-4.9-5.3v-10.9c0-3.4,1.7-5.3,4.9-5.3s4.9,1.9,4.9,5.3v2
		h-3.1v-2.2c0-1.5-0.7-2.1-1.7-2.1c-1.1,0-1.7,0.6-1.7,2.1v11.3c0,1.5,0.7,2,1.7,2c1,0,1.7-0.5,1.7-2V181h-1.5V178z"/>
	<path fill="#302F2F" d="M165.9,173.7c0-3.4,1.8-5.3,5-5.3c3.2,0,5,1.9,5,5.3v10.9c0,3.4-1.8,5.3-5,5.3c-3.2,0-5-1.9-5-5.3V173.7z
		 M169.2,184.8c0,1.5,0.7,2.1,1.7,2.1s1.7-0.6,1.7-2.1v-11.3c0-1.5-0.7-2.1-1.7-2.1s-1.7,0.6-1.7,2.1V184.8z"/>
	<path fill="#302F2F" d="M178,168.7h3.3v18h5.4v3H178V168.7z"/>
</g>
<g>
	<rect x="143.5" y="100.7" fill="#898989" width="81.9" height="5.4"/>
	<rect x="143.5" y="107.9" fill="#898989" width="81.9" height="5.4"/>
	<rect x="143.5" y="114.9" fill="#898989" width="81.9" height="5.4"/>
	<rect x="143.5" y="121.9" fill="#898989" width="81.9" height="5.4"/>
	<rect x="143.5" y="128.6" fill="#898989" width="58" height="5.4"/>
</g>
<rect x="64" y="231.4" fill="#898989" width="81.9" height="5.4"/>
<g>
	<rect x="64" y="224.2" fill="#898989" width="162.4" height="5.4"/>
	<rect x="64" y="231.4" fill="#898989" width="162.4" height="5.4"/>
	<rect x="64" y="238.4" fill="#898989" width="162.4" height="5.4"/>
	<rect x="64" y="245.4" fill="#898989" width="162.4" height="5.4"/>
	<rect x="64" y="195.7" fill="#898989" width="162.4" height="5.4"/>
	<rect x="64" y="202.9" fill="#898989" width="162.4" height="5.4"/>
	<rect x="64" y="209.9" fill="#898989" width="162.4" height="5.4"/>
	<rect x="64" y="216.9" fill="#898989" width="162.4" height="5.4"/>
	<rect x="64" y="252.1" fill="#898989" width="58" height="5.4"/>
</g>
<g>
	<g enable-background="new    ">
		<path fill="#898989" d="M77.5,137.5c0-4,2.1-6.3,6-6.3c3.9,0,6,2.3,6,6.3v13c0,4-2.1,6.3-6,6.3c-3.9,0-6-2.3-6-6.3V137.5z
			 M81.5,150.8c0,1.8,0.8,2.5,2,2.5s2-0.7,2-2.5v-13.5c0-1.8-0.8-2.5-2-2.5s-2,0.7-2,2.5V150.8z"/>
		<path fill="#898989" d="M97.3,142.2h7.1v3.6h-7.1V142.2z"/>
		<path fill="#898989" d="M115.1,134.7c3,0,3.7-1.5,4.3-3.1h2.6v25h-3.9v-19h-3V134.7z"/>
	</g>
</g>
<g>
	<g>
		<g>
			<path fill="#37896F" d="M74.5,110.7c0,4,2.2,7.5,5.4,9.3v-18.7C76.6,103.2,74.5,106.7,74.5,110.7z"/>
			<path fill="#FFFFFF" d="M85.1,99.9c-1.9,0-3.7,0.6-5.3,1.4V120c1.5,0.9,3.3,1.4,5.2,1.4h0.4c1.9,0,3.7-0.6,5.2-1.4v-18.7
				c-1.5-0.9-3.3-1.4-5.2-1.4H85.1L85.1,99.9z"/>
			<path fill="#DC6A77" d="M90.7,101.4v18.7c3.2-1.9,5.4-5.3,5.4-9.3S93.9,103.2,90.7,101.4z"/>
		</g>
		<circle fill="#7F6054" cx="85.1" cy="110.6" r="2.4"/>
	</g>
	<g>
		<circle fill="none" stroke="#AAAAAA" stroke-width="0.6776" stroke-miterlimit="10" cx="85.4" cy="110.8" r="10.8"/>
	</g>
	<g>
		<g>
			<path fill="#CE5865" d="M118,100.1c-0.9,0-1.8,0.1-2.6,0.3v20.9c0.8,0.2,1.7,0.3,2.6,0.3c6,0,10.8-4.8,10.8-10.8
				S123.9,100.1,118,100.1z"/>
			<path fill="#5F8E59" d="M107.2,110.9c0,5,3.5,9.3,8.1,10.4v-20.9C110.7,101.6,107.2,105.8,107.2,110.9z"/>
			<circle fill="none" stroke="#FCE285" stroke-width="0.7314" stroke-miterlimit="10" cx="115.4" cy="110.8" r="5.5"/>
			<path fill="#CE5865" stroke="#050505" stroke-width="0.25" stroke-miterlimit="10" d="M112.2,107.4v4.4h0c0,1.7,1.4,3,3.1,3
				s3-1.4,3.1-3h0v-4.4H112.2z"/>
		</g>
		<circle fill="none" stroke="#AAAAAA" stroke-width="0.677" stroke-miterlimit="10" cx="118" cy="110.9" r="10.8"/>
	</g>
</g>
<rect x="9.4" y="163.9" fill="#B27070" width="44" height="59.3"/>
<rect x="9.4" y="230.3" fill="#895959" width="44" height="110"/>
<rect x="9.4" y="351" fill="#B27070" width="44" height="40.7"/>
<rect x="237.2" y="10.7" fill="#895959" width="44" height="158.5"/>
<rect x="237.2" y="226.7" fill="#895959" width="44" height="114.1"/>
<rect x="237.2" y="176.7" fill="#B27070" width="44" height="40.5"/>
<rect x="63.8" y="84.2" fill="#302F2F" width="164" height="2"/>
<g>
	<rect x="64.1" y="267.5" fill="#4C5859" width="161.7" height="98.7"/>
</g>
<g>
	<g>
		<g>
			<defs>
				<rect id="SVGID_1_" x="64.1" y="267.5" width="161.7" height="98.7"/>
			</defs>
			<clipPath id="SVGID_2_">
				<use xlink:href="#SVGID_1_"  overflow="visible"/>
			</clipPath>
			<g clip-path="url(#SVGID_2_)">
				<path fill="#776537" d="M126.7,308.4c0,0-1.7,0.6-1.7,3.4c0,0.9,0.5,3.4-1.3,3.6c0,0,2.2,0.3,2.8-1.1c0,0-0.1,2.5-1.1,3.2
					c0,0,6,2.5,7-3.2l-0.5-8.4C131.9,305.9,128.2,304.3,126.7,308.4z"/>
				<path fill="#776537" d="M164.3,311.9c0-2.8-1.7-3.4-1.7-3.4c-1.5-4.1-5.2-2.5-5.2-2.5l-0.5,8.4c1,5.7,7,3.2,7,3.2
					c-1-0.6-1.1-3.2-1.1-3.2c0.6,1.4,2.8,1.1,2.8,1.1C163.8,315.3,164.3,312.8,164.3,311.9z"/>
				<g>
					<polygon fill="#B7B7B7" points="124.6,322.5 129.3,326.5 128.7,322 					"/>
					<polygon fill="#B7B7B7" points="160,326.5 164.7,322.5 160.7,322 					"/>
					<path fill="#F4B07D" d="M128.6,307.1c0,13.9-7.9,42.9-7.9,42.9h48c0,0-8-22.8-8-42.9C160.8,299.1,128.6,299.1,128.6,307.1z"/>
					<g>
						<path fill="#776537" d="M127.2,279.9c-4.7,3.6-6.7,18.5,1.1,26.4l17.1-19.1l-0.4-7.4C145,279.7,138.8,271,127.2,279.9z"/>
						<path fill="#776537" d="M162.9,279.9c-11.6-8.9-17.8-0.1-17.8-0.1l-0.4,7.4l17.1,19.1C169.7,298.4,167.6,283.5,162.9,279.9z"
							/>
						<path fill="#F4B07D" d="M144.1,282.9c-10.2-0.1-14.5,6.8-14.5,6.8c-3.6,5.9-2.5,24-2.5,24c0,9,12.5,16.1,17.7,16.1
							c5.2,0,17.7-6.7,17.7-16.1c0,0,0.9-18.2-2.7-24C159.8,289.7,154.4,282.8,144.1,282.9z"/>
						<g>
							<path opacity="0.1" fill="#232222" enable-background="new    " d="M144.8,323.5c-6.1,0-8.6-3.6-8.6-3.6s1.4,4.8,8.3,4.8
								c7,0,8.3-4.8,8.3-4.8C148.8,323.9,144.8,323.5,144.8,323.5z"/>
						</g>
						<g opacity="0.2">
							<path fill="#231F20" d="M149.1,304.7c0.2,0.2,0.4,0.4,0.5,0.7s0.2,0.6,0.2,0.9c0,0.2-0.1,0.3-0.2,0.5
								c-0.1,0.1-0.2,0.3-0.3,0.4c-0.3,0.2-0.5,0.3-0.8,0.4l0,0l0,0c-0.3,0.1-0.7,0.2-1,0.3c-0.2,0.1-0.3,0.2-0.4,0.3
								s-0.2,0.2-0.3,0.4c-0.1,0.2-0.2,0.4-0.4,0.5c-0.2,0.2-0.4,0.3-0.6,0.3c-0.2,0.1-0.4,0.1-0.6,0.1c-0.2,0-0.4,0-0.6,0
								c-0.4,0-0.8,0-1.2-0.2c-0.2-0.1-0.4-0.2-0.6-0.3c-0.2-0.1-0.3-0.3-0.5-0.5l-0.1-0.1c0,0,0-0.1,0,0v-0.1
								c-0.1-0.1-0.1-0.2-0.2-0.2c-0.1-0.1-0.2-0.2-0.4-0.3c-0.3-0.2-0.7-0.3-1-0.3l0,0l0,0c-0.3-0.1-0.6-0.2-0.8-0.4
								c-0.1-0.1-0.2-0.2-0.3-0.4c-0.1-0.1-0.2-0.3-0.2-0.5c0-0.3,0.1-0.7,0.2-0.9c0.1-0.3,0.3-0.5,0.5-0.7c0.1-0.1,0.2-0.1,0.3,0
								c0.1,0.1,0.1,0.2,0,0.3l0,0c-0.3,0.4-0.6,0.9-0.5,1.3c0,0.1,0.1,0.2,0.1,0.3c0.1,0.1,0.1,0.2,0.2,0.2
								c0.2,0.1,0.4,0.2,0.7,0.3l0,0c0.4,0.1,0.8,0.2,1.2,0.4c0.2,0.1,0.4,0.2,0.6,0.4c0.1,0.1,0.1,0.1,0.2,0.2v0.1
								c0.1,0.1,0,0.1,0.1,0.1l0.1,0.1c0.1,0.1,0.2,0.3,0.3,0.4c0.1,0.1,0.3,0.2,0.4,0.2c0.3,0.1,0.7,0.1,1.1,0.1h0.5
								c0.2,0,0.4,0,0.5-0.1c0.3-0.1,0.5-0.3,0.7-0.6c0.1-0.2,0.3-0.4,0.4-0.5c0.2-0.1,0.4-0.3,0.6-0.4c0.4-0.2,0.8-0.3,1.2-0.4l0,0
								c0.2-0.1,0.5-0.2,0.6-0.3c0.1-0.1,0.2-0.1,0.2-0.2c0.1-0.1,0.1-0.2,0.1-0.3c0.1-0.4-0.2-0.9-0.5-1.3l0,0
								C149,304.8,149,304.7,149.1,304.7C148.9,304.6,149.1,304.6,149.1,304.7z"/>
						</g>
						<circle fill="#2E230E" cx="135.9" cy="299.8" r="1"/>
						<path fill="#593B2E" d="M141.4,294.7c0,0-5.6-1-8.3,3.2c0,0,3.4-3.2,8.1-1.9C141.2,296,142.6,295.2,141.4,294.7z"/>
						<path fill="#593B2E" d="M147.3,294.6c-1.2,0.5,0.2,1.3,0.2,1.3c4.7-1.3,8.1,1.9,8.1,1.9C152.9,293.6,147.3,294.6,147.3,294.6z
							"/>
						<circle fill="#2E230E" cx="153" cy="299.8" r="1"/>
						<path fill="#F4B07D" d="M124,302.5c-0.4,1.6-0.4,10.1,4.4,4.7l0.1-4.3C128.6,302.9,125.2,297.4,124,302.5z"/>
						
							<path fill="none" stroke="#C18963" stroke-width="0.5381" stroke-linecap="round" stroke-linejoin="round" stroke-miterlimit="10" d="
							M126.4,303c0,0-1.7,1.3,0,3.4"/>
						<path fill="#F4B07D" d="M160.5,302.9l0.1,4.3c4.8,5.4,4.8-3.1,4.4-4.7C163.9,297.4,160.5,302.9,160.5,302.9z"/>
						
							<path fill="none" stroke="#C18963" stroke-width="0.5381" stroke-linecap="round" stroke-linejoin="round" stroke-miterlimit="10" d="
							M162.6,303c0,0,1.7,1.3,0,3.4"/>
						<path fill="#776537" d="M147,280.6l-12.2,1.3l-8.3,1.8c0,0-2,11.8-1.7,11.9c0.3,0.1,9.5-4.8,9.5-4.8l10.7-3.7l16,4.9l3.2-1.3
							l-1.7-8.4L147,280.6z"/>
						<path opacity="0.3" fill="#231F20" enable-background="new    " d="M161,289.4l-16-2.3c0,0,6.5,15,20.8,7.3
							C165.8,294.4,161.7,292.2,161,289.4z"/>
						<path opacity="0.3" fill="#231F20" enable-background="new    " d="M126.9,294.5c14.1,3.8,18-7.5,18-7.5l-13.6,3.3
							C130.1,293,126.9,294.5,126.9,294.5z"/>
						<path fill="#776537" d="M161,289.2l-15.9-2c0,0,6.1,13,19.7,7.1C164.8,294.3,161.7,292,161,289.2z"/>
						<path fill="#776537" d="M128.3,294.2c11.7,2,16.6-7.2,16.6-7.2l-13.6,2.6C130.8,292.1,128.3,294.2,128.3,294.2z"/>
						<path fill="#776537" d="M146.4,271.5c-2.1,0.7-3,5.6-3,5.6c0-2.3-2.4-4.7-2.4-4.7c0.7,3.2-1.4,3.9-1.4,3.9l-1.4,6.2l8.3,1.5
							l4.5-5.5l1.1-2.6C145.6,277.8,146.4,271.5,146.4,271.5z"/>
					</g>
					<path opacity="0.1" fill="#232222" enable-background="new    " d="M142.9,299c0,0,2-1.4,4.4,0.2
						C147.3,299.2,145,296.1,142.9,299z"/>
					
						<path fill="#C18963" stroke="#C18963" stroke-width="0.6722" stroke-linecap="round" stroke-linejoin="round" stroke-miterlimit="10" d="
						M146,314.7h-3.4C143,314.9,144.2,315.4,146,314.7z"/>
					
						<path fill="#C18963" stroke="#C18963" stroke-width="0.6722" stroke-linecap="round" stroke-linejoin="round" stroke-miterlimit="10" d="
						M139.2,314.7h3.3c-0.1-0.1-0.2-0.1-0.2-0.1C140.1,313.9,139.2,314.7,139.2,314.7z"/>
					
						<path fill="#C18963" stroke="#C18963" stroke-width="0.6722" stroke-linecap="round" stroke-linejoin="round" stroke-miterlimit="10" d="
						M146.3,314.6c-0.1,0-0.2,0.1-0.3,0.1h3.5C147.4,314,146.3,314.6,146.3,314.6z"/>
				</g>
				<rect x="126" y="328.5" fill="#FFFFFF" width="36.3" height="52.5"/>
				<g>
					<path fill="#282828" d="M128.8,333.2v-6.3h-4.1c-0.3,0.3-0.5,0.6-0.8,0.9c-3.5,2.7-20.2,16.1-21.8,31.2
						c-1.3,11.5-1.1,16.8-0.9,21.8c0.1,1.8,0.1,3.5,0.1,5.5h10.1c0-2.2-0.1-4-0.1-5.8c-0.2-4.9-0.3-9.5,0.9-20.4
						c0.3-3,1.6-6,3.4-8.9c-2,15.1-0.4,30.3-0.4,30.3h13.7V333.2z"/>
					<path fill="#282828" d="M187.7,359.1c-1.8-16.6-21.6-31.1-22.5-31.7l0,0c-0.2-0.1-0.4-0.3-0.5-0.4h-4.1v6.8v47.8h14.7
						c0,0,0.8-15.6-1.1-30.4c1.8,3,3.2,6.1,3.5,9.1c1.2,10.8,1.1,15.4,0.9,20.3c-0.1,1.8-0.1,3.6-0.1,5.8h10.1c0-2,0.1-3.7,0.1-5.4
						C188.8,375.8,189,370.6,187.7,359.1z"/>
				</g>
				<polygon fill="#2D2D2D" points="128.1,337 121.2,345.8 128.6,372.7 128.6,326.9 121.2,336.5 				"/>
				<polygon fill="#2D2D2D" points="160.5,326.9 160.5,372.7 167.9,345.8 160.9,337 167.9,336.5 				"/>
				<g>
					<g>
						<polygon fill="#EA94C7" points="139.1,328.7 144.5,334.2 150.1,328.7 144.6,327.3 						"/>
						<path fill="#EA94C7" d="M144.7,330.1v-0.2V330.1l-0.2-0.2v0.2l-1.7,1.7l-4,37.7c0,0,4.3,9.8,5.8,9.8c1.9,0,5.7-9.8,5.7-9.8
							l-4-37.7L144.7,330.1z"/>
					</g>
					<polygon fill="#D6D6D6" points="124.6,322.5 124.6,326.9 139,333.5 144.8,327.3 126.1,323 					"/>
					<polygon fill="#D6D6D6" points="144.6,327.3 150.4,333.5 164.8,326.9 164.8,322.5 163.3,323 					"/>
				</g>
				<g>
					<path fill="#F4B07D" d="M144.9,326.4c-9.5,0-13.4-5-13.4-5s2.2,6.8,12.9,6.8c10.9,0,12.9-6.8,12.9-6.8
						C151.2,327,144.9,326.4,144.9,326.4z"/>
				</g>
			</g>
		</g>
	</g>
</g>
<g>
	<rect x="9.4" y="11.2" fill="#898989" width="44" height="4.1"/>
	<rect x="9.4" y="17.2" fill="#898989" width="32.1" height="4.1"/>
	<rect x="9.4" y="23.2" fill="#898989" width="44" height="4.1"/>
	<rect x="9.4" y="29.2" fill="#898989" width="44" height="4.1"/>
	<rect x="9.4" y="35.2" fill="#898989" width="44" height="4.1"/>
	<rect x="9.4" y="41.2" fill="#898989" width="44" height="4.1"/>
	<rect x="9.4" y="47.4" fill="#898989" width="38.8" height="4.1"/>
	<rect x="9.4" y="53.4" fill="#898989" width="44" height="4.1"/>
	<rect x="9.4" y="59.4" fill="#898989" width="44" height="4.1"/>
	<rect x="9.4" y="65.4" fill="#898989" width="44" height="4.1"/>
	<rect x="9.4" y="71.4" fill="#898989" width="37.1" height="4.1"/>
	<rect x="9.4" y="77.4" fill="#898989" width="44" height="4.1"/>
	<rect x="9.4" y="83.6" fill="#898989" width="44" height="4.1"/>
	<rect x="9.4" y="89.6" fill="#898989" width="32.1" height="4.1"/>
	<rect x="9.4" y="95.6" fill="#898989" width="44" height="4.1"/>
	<rect x="9.4" y="101.6" fill="#898989" width="44" height="4.1"/>
	<rect x="9.4" y="107.6" fill="#898989" width="44" height="4.1"/>
	<rect x="9.4" y="113.6" fill="#898989" width="44" height="4.1"/>
	<rect x="9.4" y="119.9" fill="#898989" width="38.8" height="4.1"/>
	<rect x="9.4" y="125.9" fill="#898989" width="44" height="4.1"/>
	<rect x="9.4" y="131.9" fill="#898989" width="44" height="4.1"/>
	<rect x="9.4" y="137.9" fill="#898989" width="44" height="4.1"/>
	<rect x="9.4" y="143.9" fill="#898989" width="37.1" height="4.1"/>
	<rect x="9.4" y="149.9" fill="#898989" width="44" height="4.1"/>
	<rect x="237.9" y="351.2" fill="#898989" width="44" height="4.1"/>
	<rect x="237.9" y="357.2" fill="#898989" width="32.1" height="4.1"/>
	<rect x="237.9" y="363.2" fill="#898989" width="44" height="4.1"/>
	<rect x="237.9" y="369.2" fill="#898989" width="44" height="4.1"/>
	<rect x="237.9" y="375.2" fill="#898989" width="44" height="4.1"/>
	<rect x="237.9" y="381.2" fill="#898989" width="44" height="4.1"/>
	<rect x="237.9" y="387.4" fill="#898989" width="38.8" height="4.1"/>
</g>
<rect x="64.4" y="374.4" fill="#898989" width="161" height="3.7"/>
<rect x="64.4" y="385.7" fill="#898989" width="35.5" height="3.7"/>
<rect x="109.6" y="385.7" fill="#898989" width="35.5" height="3.7"/>
<rect x="154.6" y="385.7" fill="#898989" width="35.5" height="3.7"/>
<rect x="199.9" y="385.7" fill="#898989" width="25.5" height="3.7"/>
</svg>
