<?xml version="1.0" encoding="utf-8"?>
<!-- Generator: Adobe Illustrator 16.0.0, SVG Export Plug-In . SVG Version: 6.00 Build 0)  -->
<!DOCTYPE svg PUBLIC "-//W3C//DTD SVG 1.1//EN" "http://www.w3.org/Graphics/SVG/1.1/DTD/svg11.dtd">
<svg version="1.1" id="Layer_1" xmlns="http://www.w3.org/2000/svg" xmlns:xlink="http://www.w3.org/1999/xlink" x="0px" y="0px"
	 width="297px" height="529.6px" viewBox="0 0 297 529.6" enable-background="new 0 0 297 529.6" xml:space="preserve">
<g>
	<ellipse fill="#A33E38" cx="148.5" cy="525.1" rx="148.5" ry="4.6"/>
	<g>
		<path fill="#776537" d="M93.9,109.4c0,0-4.9,1.8-4.9,10.2c0,2.8,1.5,10.2-3.8,10.5c0,0,6.4,0.8,8.3-3.4c0,0-0.4,7.5-3.4,9.4
			c0,0,17.7,7.5,20.7-9.4l-1.5-24.9C109.4,101.8,98.4,97.3,93.9,109.4z"/>
		<path fill="#776537" d="M200.5,109.4c0,0,4.9,1.8,4.9,10.2c0,2.8-1.5,10.2,3.8,10.5c0,0-6.4,0.8-8.3-3.4c0,0,0.4,7.5,3.4,9.4
			c0,0-17.7,7.5-20.7-9.4l1.5-24.9C185,101.8,196,97.3,200.5,109.4z"/>
		<g>
			<polygon fill="#0B4349" points="88.6,154.4 99.8,152.5 101.7,166.1 			"/>
			<polygon fill="#0B4349" points="206.1,153.8 194.9,152.1 193,165.7 			"/>
			<path fill="#F4B07D" d="M218.6,232.6H76.4c0,0,23.3-85.9,23.3-127.1c0-23.8,95.2-23.8,95.2,0C194.9,165,218.6,232.6,218.6,232.6z
				"/>
			<g>
				<path fill="#776537" d="M201.2,24.8c-16.2-12.4-28.9-13.2-37.7-10.5C150.5,15.1,152.3,0,152.3,0c-6.1,2.1-9,16.5-9,16.5
					c0-6.9-7.2-13.8-7.2-13.8c1.8,7.6-2.1,10.5-3.6,11.4c-8.8-2.3-21.2-1.2-36.9,10.8c-13.9,10.6-20,54.8,3.3,78.1l49.5-55.3
					l49.5,55.3C221.2,79.6,215.1,35.5,201.2,24.8z"/>
				<path fill="#F4B07D" d="M192.1,53.9c0,0-16-20.5-46.4-20c-30.3-0.4-43.1,20-43.1,20c-10.6,17.4-7.5,71.2-7.5,71.2
					c0,26.6,36.9,47.8,52.4,47.8c15.5,0,52.6-19.8,52.6-47.8C200.1,125.1,202.7,71.3,192.1,53.9z"/>
				<g opacity="0.2">
					<path fill="#231F20" d="M160.5,98.2c0.2,0.1,0.3,0.3,0.5,0.5c0.1,0.2,0.3,0.3,0.4,0.5c0.3,0.4,0.5,0.7,0.7,1.1
						c0.1,0.2,0.2,0.4,0.3,0.6c0.1,0.2,0.2,0.4,0.2,0.7c0.1,0.2,0.1,0.5,0.1,0.7c0,0.2,0,0.5,0,0.8c0,0.3-0.1,0.5-0.2,0.7
						c-0.1,0.2-0.2,0.5-0.3,0.7c-0.2,0.2-0.3,0.4-0.5,0.6l-0.5,0.5c-0.2,0.2-0.4,0.3-0.6,0.4l-0.6,0.4l-1.2,0.5l0,0l-0.1,0
						c-0.5,0.1-1,0.2-1.5,0.4c-0.5,0.2-1,0.4-1.5,0.6c-0.5,0.2-0.9,0.5-1.2,0.8c-0.4,0.3-0.6,0.6-0.9,1.2c-0.3,0.5-0.7,1.1-1.3,1.5
						c-0.3,0.3-0.6,0.4-0.9,0.6c-0.3,0.2-0.6,0.3-0.9,0.4c-0.6,0.2-1.3,0.3-1.9,0.4c-0.6,0-1.2,0.1-1.9,0.1c-0.6,0-1.1,0-1.8-0.1
						c-0.6-0.1-1.3-0.2-1.9-0.4l-0.5-0.1c-0.2-0.1-0.3-0.2-0.5-0.2c-0.3-0.1-0.6-0.3-0.9-0.6c-0.6-0.4-1-1-1.4-1.5l-0.2-0.4
						c0,0-0.1-0.2-0.1-0.1l-0.1-0.2c-0.2-0.3-0.3-0.3-0.5-0.5c-0.3-0.3-0.8-0.6-1.2-0.8c-0.5-0.2-1-0.5-1.5-0.6
						c-0.5-0.2-1.1-0.3-1.5-0.4l-0.1,0l0,0l-1.2-0.5l-0.6-0.4c-0.2-0.1-0.4-0.2-0.6-0.4l-0.5-0.5c-0.2-0.2-0.3-0.4-0.5-0.6
						c-0.2-0.2-0.2-0.5-0.3-0.7c-0.1-0.2-0.2-0.5-0.2-0.7c-0.1-0.3,0-0.5,0-0.8c0-0.3,0-0.5,0.1-0.7c0-0.2,0.1-0.5,0.2-0.7
						c0.1-0.2,0.2-0.4,0.3-0.6c0.2-0.4,0.4-0.8,0.7-1.1c0.3-0.4,0.5-0.7,0.9-1c0.3-0.2,0.7-0.2,0.9,0c0.2,0.2,0.2,0.6,0,0.9l0,0
						c-0.2,0.2-0.5,0.6-0.7,0.9c-0.2,0.3-0.4,0.6-0.5,1c-0.1,0.2-0.1,0.3-0.2,0.5c-0.1,0.2-0.1,0.3-0.1,0.5c0,0.2-0.1,0.3,0,0.5
						c0,0.2,0,0.3,0,0.5c0,0.1,0,0.3,0.1,0.4c0.1,0.1,0.1,0.3,0.2,0.4c0.1,0.1,0.2,0.2,0.3,0.4l0.4,0.3c0.1,0.1,0.3,0.2,0.4,0.3
						l0.5,0.3l1,0.4l-0.1,0c0.7,0.1,1.2,0.2,1.8,0.4c0.6,0.2,1.2,0.4,1.8,0.7c0.6,0.3,1.1,0.6,1.6,1.1c0.2,0.2,0.6,0.6,0.7,0.8
						l0.1,0.2c0.1,0.2,0.1,0.1,0.2,0.2l0.2,0.4c0.3,0.4,0.6,0.8,1,1c0.2,0.1,0.4,0.3,0.6,0.4c0.1,0.1,0.2,0.1,0.3,0.2l0.4,0.1
						c0.5,0.2,1,0.2,1.5,0.3c0.5,0.1,1.1,0.1,1.7,0.1l1.6-0.1c0.5-0.1,1.1-0.1,1.5-0.3c0.2-0.1,0.5-0.1,0.7-0.3
						c0.2-0.1,0.4-0.2,0.6-0.3c0.4-0.2,0.6-0.6,0.9-1.1c0.3-0.4,0.7-1.1,1.2-1.5c0.5-0.5,1.1-0.8,1.6-1.1c0.6-0.3,1.2-0.5,1.8-0.7
						c0.6-0.2,1.2-0.3,1.8-0.4l-0.1,0l1-0.4l0.5-0.3c0.1-0.1,0.3-0.2,0.4-0.3l0.4-0.3c0.1-0.1,0.2-0.2,0.3-0.4
						c0.1-0.1,0.1-0.3,0.2-0.4c0.1-0.1,0.1-0.3,0.1-0.4c0-0.1,0-0.3,0-0.5c0-0.2,0-0.3,0-0.5c0-0.2-0.1-0.3-0.1-0.5
						c0-0.2-0.1-0.3-0.2-0.5c-0.3-0.7-0.7-1.3-1.2-1.8l0,0c-0.2-0.3-0.2-0.7,0.1-0.9C159.8,98,160.2,98,160.5,98.2z"/>
				</g>
				<path fill="#2E230E" d="M124.1,83.9c0,1.6-1.3,2.9-2.9,2.9c-1.6,0-2.9-1.3-2.9-2.9c0-1.6,1.3-2.9,2.9-2.9
					C122.8,81,124.1,82.3,124.1,83.9z"/>
				<path fill="#593B2E" d="M106.1,82.8c0,0,9.9-9.5,23.9-5.8c0,0,4-2.4,0.5-3.9C130.5,73.2,113.9,70.3,106.1,82.8z"/>
				<path fill="#2E230E" d="M169,83.9c0,1.6,1.3,2.9,2.9,2.9s2.9-1.3,2.9-2.9c0-1.6-1.3-2.9-2.9-2.9S169,82.3,169,83.9z"/>
				<path fill="#593B2E" d="M187.4,81.6c0,0-10.7-8.5-24.3-3.5c0,0-4.2-2-0.9-3.8C162.2,74.3,178.5,69.9,187.4,81.6z"/>
				<path fill="#F4B07D" d="M99.5,93c0,0-10-16.3-13.5-1.2c-1.1,4.7-1.2,29.9,13.2,13.9"/>
				
					<path fill="none" stroke="#C18963" stroke-width="1.5936" stroke-linecap="round" stroke-linejoin="round" stroke-miterlimit="10" d="
					M93.1,93.4c0,0-5.2,4,0,10"/>
				<path fill="#F4B07D" d="M194.1,93c0,0,10-16.3,13.5-1.2c1.1,4.7,1.2,29.9-13.1,13.9"/>
				
					<path fill="none" stroke="#C18963" stroke-width="1.5936" stroke-linecap="round" stroke-linejoin="round" stroke-miterlimit="10" d="
					M200.4,93.4c0,0,5.2,4,0,10"/>
				
					<path fill="#C18963" stroke="#C18963" stroke-width="1.9905" stroke-linecap="round" stroke-linejoin="round" stroke-miterlimit="10" d="
					M133.7,122.1c0,0,16.2,2.6,25.6-0.3C159.3,121.8,146.4,146.9,133.7,122.1z"/>
				<path fill="#776537" d="M93.6,36.4c0,0-5.8,34.9-5.1,35.2c0.8,0.3,28.2-14.2,28.2-14.2l31.7-11l47.1,14.5l9.6-4l-5-25l-46-4.8
					l-36.1,4L93.6,36.4z"/>
				<path opacity="0.3" fill="#231F20" d="M148.1,46.3c0,0,19.1,44.4,61.6,21.7c0,0-12.2-6.6-14.2-15"/>
				<path opacity="0.3" fill="#231F20" d="M147.9,46c0,0-11.5,33.5-53.4,22.3c0,0,9.6-4.6,13.1-12.5"/>
				<path fill="#776537" d="M148.4,46.3c0,0,17.9,38.4,58.3,21.1c0,0-9.2-6.8-11.2-15.1"/>
				<path fill="#776537" d="M147.9,46c0,0-14.6,27.1-49.2,21.3c0,0,7.5-6.3,8.8-13.7"/>
			</g>
			<path opacity="0.1" fill="#232222" d="M97.5,136.1c0,0,15.4,40.1,52.8,35.5c0,0,33.4-0.5,45.6-36.3c0,0-26.5,28.4-52.5,25.7
				C143.4,161,120.8,159.7,97.5,136.1z"/>
		</g>
		<path fill="#263451" d="M225.2,323.9h-36.5c-3-3.2-7.3-5.3-12.1-5.3s-9.1,2-12.1,5.3H127c-3-3.2-7.3-5.3-12.1-5.3s-9.1,2-12.1,5.3
			H67.1c0,25.7,12.2,45.6,31.2,57.7v116c0,9.2,7.4,16.6,16.6,16.6s16.6-7.4,16.6-16.6v-104c4.8,0.7,9.7,1.1,14.7,1.1
			c4.7,0,9.4-0.3,13.9-1v103.9c0,9.2,7.4,16.6,16.6,16.6s16.6-7.4,16.6-16.6V382.1C212.6,370.1,225.2,349.9,225.2,323.9z"/>
		<path fill="#1C1C1C" d="M131.3,502.5C87,502.5,51,512,51,523.8h80.3V502.5z"/>
		<path fill="#1C1C1C" d="M160,502.5c44.3,0,80.3,9.5,80.3,21.3H160V502.5z"/>
		<rect x="96.2" y="491.9" fill="#263451" width="36.5" height="12.5"/>
		<rect x="158.4" y="491.9" fill="#263451" width="36.5" height="12.5"/>
		<rect x="67.8" y="324" fill="#161516" width="157.1" height="11.8"/>
		<rect x="135.8" y="324" fill="#D6D6D6" width="22.4" height="11.8"/>
		<path fill="#083B47" d="M206.4,164.1l-59.9,11.7h-3L88,164.1c-40.8,43.7-28.4,161.6-28.4,161.6H145h4.5h88.3
			C237.8,325.7,245.1,191.8,206.4,164.1z"/>
		<path fill="#0D5B68" d="M207.4,196.9h-42.5c-0.6,0-1.2,0.5-1.2,1.2v33.8c0,0.4,0.2,0.7,0.5,1l21.3,14.6c0.2,0.1,0.4,0.2,0.7,0.2
			c0.2,0,0.5-0.1,0.7-0.2l21.3-15.1c0.3-0.2,0.5-0.6,0.5-0.9v-33.2C208.6,197.4,208.1,196.9,207.4,196.9z"/>
		<g>
			<g>
				<defs>
					<polygon id="SVGID_1_" points="127.1,195 112.7,212.3 135.7,223.3 119.7,242.3 140.1,251 124.7,262 159.1,276.3 156.1,254.3 
						185.4,264.3 164.7,238.3 190.1,236.6 166.4,221.3 189.7,203.3 158.1,203.6 175.1,189.6 165.1,178 173.1,168.9 118.9,168.9 
						105.1,187.6 					"/>
				</defs>
				<clipPath id="SVGID_2_">
					<use xlink:href="#SVGID_1_"  overflow="visible"/>
				</clipPath>
				<path opacity="0.2" clip-path="url(#SVGID_2_)" fill="#232222" d="M149.6,294.3c0,2-1,3.6-2.1,3.6c-1.2,0-2.1-1.6-2.1-3.6
					c0-2,1-3.6,2.1-3.6C148.6,290.7,149.6,292.3,149.6,294.3z"/>
				<path clip-path="url(#SVGID_2_)" fill="#1C7363" d="M119.1,246.7l-9-17.2l15.9,7.8l16.5,6l15.5-0.9l30.5-12.9L177.9,247
					l53.6-16.8c-4.1-29-12-56.2-26.7-67l-58.3,4.1h-2.9l-53.9-4.1c-14.4,15.9-22,41.5-25.8,67.7L119.1,246.7z"/>
				<path clip-path="url(#SVGID_2_)" fill="#F4E206" d="M231.7,231.2l-56,17.6l10.3-17.2l-27.9,11.8l-15.8,0.9l-16.7-6.1l-13.2-6.5
					l8.7,16.6l-57.3-16.4c-6.5,45.7-1.6,92.9-1.6,92.9h82.9h4.4h85.9C235.3,324.8,237.9,276,231.7,231.2z"/>
				<g clip-path="url(#SVGID_2_)">
					<path fill="#902123" d="M144.9,240.4c0.2,0.6-70.9-33.2-70.9-33.2l18.9,21.6L67.6,216l-0.8,6l40.3,16.2l-14.6-18.3l51.7,22.1
						L144.9,240.4z"/>
					<polygon fill="#FFFFFF" points="145.7,245.3 97.6,224.3 113.2,242.4 65.1,228.7 62.4,234.5 129,253.2 114.2,235.5 144.4,247.6 
											"/>
					<g>
						<polygon fill="none" points="114.2,235.5 115.2,236.6 115.2,235.9 						"/>
						<polygon fill="none" points="122.6,238.9 122.6,245.6 124.1,247.3 124.1,239.5 						"/>
						<polygon fill="none" points="120.8,238.2 120.8,243.4 122.3,245.2 122.3,238.8 						"/>
						<polygon fill="none" points="115.5,236 115.5,237 116.9,238.8 116.9,236.6 						"/>
						<polygon fill="none" points="113.2,242.4 111.9,240.9 111.9,242 						"/>
						<polygon fill="none" points="94.1,236.9 94.1,243.4 95.5,243.8 95.5,237.4 						"/>
						<polygon fill="none" points="67.3,229.3 67.3,235.9 68.8,236.3 68.8,229.7 						"/>
						<polygon fill="none" points="142.2,243.8 142.2,246.7 143.7,247.3 143.7,244.5 						"/>
						<polygon fill="none" points="65.5,228.8 65.5,235.4 67,235.8 67,229.2 						"/>
						<polygon fill="none" points="65.1,228.7 63.7,231.6 63.7,234.9 65.2,235.3 65.2,228.7 						"/>
						<polygon fill="none" points="144,244.6 144,247.5 144.4,247.6 145.5,245.6 145.5,245.2 						"/>
						<polygon fill="none" points="83.4,233.9 83.4,240.4 84.8,240.8 84.8,234.3 						"/>
						<polygon fill="none" points="62.4,234.5 63.4,234.8 63.4,232.2 						"/>
						<polygon fill="none" points="81.6,233.4 81.6,239.9 83,240.3 83,233.8 						"/>
						<polygon fill="none" points="79.8,232.9 79.8,239.4 81.3,239.8 81.3,233.3 						"/>
						<polygon fill="none" points="86.9,234.9 86.9,241.4 88.4,241.8 88.4,235.3 						"/>
						<polygon fill="none" points="78,232.3 78,238.9 79.5,239.3 79.5,232.8 						"/>
						<polygon fill="none" points="95.8,237.4 95.8,243.9 97.3,244.3 97.3,237.9 						"/>
						<polygon fill="none" points="76.2,231.8 76.2,238.4 77.7,238.8 77.7,232.3 						"/>
						<polygon fill="none" points="88.7,235.4 88.7,241.9 90.2,242.3 90.2,235.8 						"/>
						<polygon fill="none" points="129,253.2 128,252 128,252.9 						"/>
						<polygon fill="none" points="85.1,234.4 85.1,240.9 86.6,241.3 86.6,234.8 						"/>
						<polygon fill="none" points="69.1,229.8 69.1,236.4 70.5,236.8 70.5,230.2 						"/>
						<polygon fill="none" points="90.5,235.9 90.5,242.4 92,242.8 92,236.3 						"/>
						<polygon fill="none" points="92.3,236.4 92.3,242.9 93.7,243.3 93.7,236.8 						"/>
						<polygon fill="none" points="72.6,230.8 72.6,237.4 74.1,237.8 74.1,231.2 						"/>
						<polygon fill="none" points="70.9,230.3 70.9,236.9 72.3,237.3 72.3,230.7 						"/>
						<polygon fill="none" points="74.4,231.3 74.4,237.9 75.9,238.3 75.9,231.7 						"/>
						<polygon fill="none" points="135.1,240.7 135.1,243.9 136.6,244.5 136.6,241.3 						"/>
						<polygon fill="none" points="111.9,230.6 111.9,240.9 113.2,242.4 111.9,242 111.9,248.4 113.4,248.8 113.4,231.2 						"/>
						<polygon fill="none" points="133.3,239.9 133.3,243.2 134.8,243.8 134.8,240.6 						"/>
						<polygon fill="none" points="124.1,239.5 124.1,235.9 122.6,235.2 122.6,238.9 						"/>
						<polygon fill="none" points="110.1,241.5 110.1,247.9 111.6,248.3 111.6,241.9 						"/>
						<polygon fill="none" points="127.6,240.9 127.6,237.4 126.2,236.8 126.2,240.3 						"/>
						<polygon fill="none" points="131.5,239.1 131.5,242.5 133,243 133,239.8 						"/>
						<polygon fill="none" points="125.9,240.2 125.9,236.7 124.4,236 124.4,239.6 						"/>
						<polygon fill="none" points="101.2,239 101.2,245.4 102.7,245.8 102.7,239.4 						"/>
						<polygon fill="none" points="99.4,238.5 99.4,244.9 100.9,245.3 100.9,238.9 						"/>
						<polygon fill="none" points="97.6,238 97.6,244.4 99.1,244.8 99.1,238.4 						"/>
						<polygon fill="none" points="108.3,241 108.3,247.4 109.8,247.8 109.8,241.4 						"/>
						<polygon fill="none" points="106.6,240.5 106.6,246.9 108,247.3 108,240.9 						"/>
						<polygon fill="none" points="103,239.5 103,245.9 104.5,246.3 104.5,239.9 						"/>
						<polygon fill="none" points="104.8,240 104.8,246.4 106.2,246.8 106.2,240.4 						"/>
						<polygon fill="none" points="119,241.3 119,250.4 120.5,250.8 120.5,243.1 						"/>
						<polygon fill="none" points="99.1,226.1 99.1,225 97.6,224.3 97.6,224.4 						"/>
						<polygon fill="none" points="120.8,243.4 120.8,250.9 122.3,251.3 122.3,245.2 						"/>
						<polygon fill="none" points="124.4,247.7 124.4,251.9 125.9,252.3 125.9,249.5 						"/>
						<polygon fill="none" points="122.6,245.6 122.6,251.4 124.1,251.8 124.1,247.3 						"/>
						<polygon fill="none" points="126.2,249.8 126.2,252.4 127.6,252.8 127.6,251.6 						"/>
						<polygon fill="none" points="129.7,238.4 129.7,241.7 131.2,242.3 131.2,239 						"/>
						<polygon fill="none" points="128,237.6 128,241 129.4,241.6 129.4,238.2 						"/>
						<polygon fill="none" points="117.3,239.2 117.3,249.9 118.7,250.3 118.7,240.9 						"/>
						<polygon fill="none" points="118.7,237.3 118.7,233.5 117.3,232.9 117.3,236.7 						"/>
						<polygon fill="none" points="116.9,236.6 116.9,232.8 115.5,232.1 115.5,236 						"/>
						<polygon fill="none" points="120.5,238 120.5,234.3 119,233.7 119,237.5 						"/>
						<polygon fill="none" points="122.3,238.8 122.3,235.1 120.8,234.5 120.8,238.2 						"/>
						<polygon fill="none" points="115.5,237 115.5,249.4 116.9,249.8 116.9,238.8 						"/>
						<polygon fill="none" points="114.2,235.5 115.2,235.9 115.2,232 113.7,231.3 113.7,248.9 115.2,249.3 115.2,236.6 						"/>
						<polygon fill="none" points="102.7,230.2 102.7,226.5 101.2,225.9 101.2,228.5 						"/>
						<polygon fill="none" points="100.9,228.1 100.9,225.7 99.4,225.1 99.4,226.4 						"/>
						<polygon fill="none" points="138.7,242.3 138.7,245.3 140.1,245.9 140.1,242.9 						"/>
						<polygon fill="none" points="108,236.4 108,228.9 106.6,228.2 106.6,234.7 						"/>
						<polygon fill="none" points="136.9,241.5 136.9,244.6 138.4,245.2 138.4,242.1 						"/>
						<polygon fill="none" points="106.2,234.3 106.2,228.1 104.8,227.4 104.8,232.6 						"/>
						<polygon fill="none" points="140.5,243 140.5,246 141.9,246.6 141.9,243.7 						"/>
						<polygon fill="none" points="104.5,232.3 104.5,227.3 103,226.7 103,230.6 						"/>
						<polygon fill="none" points="109.8,238.5 109.8,229.6 108.3,229 108.3,236.8 						"/>
						<polygon fill="none" points="111.6,240.6 111.6,230.4 110.1,229.8 110.1,238.8 						"/>
						<polygon fill="#1C7363" points="63.4,232.2 63.4,234.8 63.7,234.9 63.7,231.6 						"/>
						<polygon fill="#1C7363" points="65.2,228.7 65.2,235.3 65.5,235.4 65.5,228.8 						"/>
						<polygon fill="#1C7363" points="67,229.2 67,235.8 67.3,235.9 67.3,229.3 						"/>
						<polygon fill="#1C7363" points="68.8,229.7 68.8,236.3 69.1,236.4 69.1,229.8 						"/>
						<polygon fill="#1C7363" points="70.5,230.2 70.5,236.8 70.9,236.9 70.9,230.3 						"/>
						<polygon fill="#1C7363" points="72.3,230.7 72.3,237.3 72.6,237.4 72.6,230.8 						"/>
						<polygon fill="#1C7363" points="74.1,231.2 74.1,237.8 74.4,237.9 74.4,231.3 						"/>
						<polygon fill="#1C7363" points="75.9,231.7 75.9,238.3 76.2,238.4 76.2,231.8 						"/>
						<polygon fill="#1C7363" points="77.7,232.3 77.7,238.8 78,238.9 78,232.3 						"/>
						<polygon fill="#1C7363" points="79.5,232.8 79.5,239.3 79.8,239.4 79.8,232.9 						"/>
						<polygon fill="#1C7363" points="81.3,233.3 81.3,239.8 81.6,239.9 81.6,233.4 						"/>
						<polygon fill="#1C7363" points="83,233.8 83,240.3 83.4,240.4 83.4,233.9 						"/>
						<polygon fill="#1C7363" points="84.8,234.3 84.8,240.8 85.1,240.9 85.1,234.4 						"/>
						<polygon fill="#1C7363" points="86.6,234.8 86.6,241.3 86.9,241.4 86.9,234.9 						"/>
						<polygon fill="#1C7363" points="88.4,235.3 88.4,241.8 88.7,241.9 88.7,235.4 						"/>
						<polygon fill="#1C7363" points="90.2,235.8 90.2,242.3 90.5,242.4 90.5,235.9 						"/>
						<polygon fill="#1C7363" points="92,236.3 92,242.8 92.3,242.9 92.3,236.4 						"/>
						<polygon fill="#1C7363" points="93.7,236.8 93.7,243.3 94.1,243.4 94.1,236.9 						"/>
						<polygon fill="#1C7363" points="95.5,237.4 95.5,243.8 95.8,243.9 95.8,237.4 						"/>
						<polygon fill="#1C7363" points="97.3,237.9 97.3,244.3 97.6,244.4 97.6,238 						"/>
						<polygon fill="#1C7363" points="97.6,224.4 97.6,224.3 97.6,224.3 						"/>
						<polygon fill="#1C7363" points="99.4,226.4 99.4,225.1 99.1,225 99.1,226.1 						"/>
						<polygon fill="#1C7363" points="99.1,238.4 99.1,244.8 99.4,244.9 99.4,238.5 						"/>
						<polygon fill="#1C7363" points="101.2,228.5 101.2,225.9 100.9,225.7 100.9,228.1 						"/>
						<polygon fill="#1C7363" points="100.9,238.9 100.9,245.3 101.2,245.4 101.2,239 						"/>
						<polygon fill="#1C7363" points="103,230.6 103,226.7 102.7,226.5 102.7,230.2 						"/>
						<polygon fill="#1C7363" points="102.7,239.4 102.7,245.8 103,245.9 103,239.5 						"/>
						<polygon fill="#1C7363" points="104.8,232.6 104.8,227.4 104.5,227.3 104.5,232.3 						"/>
						<polygon fill="#1C7363" points="104.5,239.9 104.5,246.3 104.8,246.4 104.8,240 						"/>
						<polygon fill="#1C7363" points="106.6,234.7 106.6,228.2 106.2,228.1 106.2,234.3 						"/>
						<polygon fill="#1C7363" points="106.2,240.4 106.2,246.8 106.6,246.9 106.6,240.5 						"/>
						<polygon fill="#1C7363" points="108.3,236.8 108.3,229 108,228.9 108,236.4 						"/>
						<polygon fill="#1C7363" points="108,240.9 108,247.3 108.3,247.4 108.3,241 						"/>
						<polygon fill="#1C7363" points="110.1,238.8 110.1,229.8 109.8,229.6 109.8,238.5 						"/>
						<polygon fill="#1C7363" points="109.8,241.4 109.8,247.8 110.1,247.9 110.1,241.5 						"/>
						<polygon fill="#1C7363" points="111.6,241.9 111.6,248.3 111.9,248.4 111.9,242 						"/>
						<polygon fill="#1C7363" points="111.9,240.9 111.9,230.6 111.6,230.4 111.6,240.6 						"/>
						<polygon fill="#1C7363" points="113.4,231.2 113.4,248.8 113.7,248.9 113.7,231.3 						"/>
						<polygon fill="#1C7363" points="115.5,236 115.5,232.1 115.2,232 115.2,235.9 						"/>
						<polygon fill="#1C7363" points="115.2,236.6 115.2,249.3 115.5,249.4 115.5,237 						"/>
						<polygon fill="#1C7363" points="116.9,238.8 116.9,249.8 117.3,249.9 117.3,239.2 						"/>
						<polygon fill="#1C7363" points="117.3,236.7 117.3,232.9 116.9,232.8 116.9,236.6 						"/>
						<polygon fill="#1C7363" points="118.7,240.9 118.7,250.3 119,250.4 119,241.3 						"/>
						<polygon fill="#1C7363" points="119,237.5 119,233.7 118.7,233.5 118.7,237.3 						"/>
						<polygon fill="#1C7363" points="120.8,238.2 120.8,234.5 120.5,234.3 120.5,238 						"/>
						<polygon fill="#1C7363" points="120.5,243.1 120.5,250.8 120.8,250.9 120.8,243.4 						"/>
						<polygon fill="#1C7363" points="122.3,245.2 122.3,251.3 122.6,251.4 122.6,245.6 						"/>
						<polygon fill="#1C7363" points="122.6,238.9 122.6,235.2 122.3,235.1 122.3,238.8 						"/>
						<polygon fill="#1C7363" points="124.1,247.3 124.1,251.8 124.4,251.9 124.4,247.7 						"/>
						<polygon fill="#1C7363" points="124.4,239.6 124.4,236 124.1,235.9 124.1,239.5 						"/>
						<polygon fill="#1C7363" points="125.9,249.5 125.9,252.3 126.2,252.4 126.2,249.8 						"/>
						<polygon fill="#1C7363" points="126.2,240.3 126.2,236.8 125.9,236.7 125.9,240.2 						"/>
						<polygon fill="#1C7363" points="127.6,252.8 128,252.9 128,252 127.6,251.6 						"/>
						<polygon fill="#1C7363" points="127.6,237.4 127.6,240.9 128,241 128,237.6 						"/>
						<polygon fill="#1C7363" points="129.4,238.2 129.4,241.6 129.7,241.7 129.7,238.4 						"/>
						<polygon fill="#1C7363" points="131.2,239 131.2,242.3 131.5,242.5 131.5,239.1 						"/>
						<polygon fill="#1C7363" points="133,239.8 133,243 133.3,243.2 133.3,239.9 						"/>
						<polygon fill="#1C7363" points="134.8,240.6 134.8,243.8 135.1,243.9 135.1,240.7 						"/>
						<polygon fill="#1C7363" points="136.6,241.3 136.6,244.5 136.9,244.6 136.9,241.5 						"/>
						<polygon fill="#1C7363" points="138.4,242.1 138.4,245.2 138.7,245.3 138.7,242.3 						"/>
						<polygon fill="#1C7363" points="140.1,242.9 140.1,245.9 140.5,246 140.5,243 						"/>
						<polygon fill="#1C7363" points="141.9,243.7 141.9,246.6 142.2,246.7 142.2,243.8 						"/>
						<polygon fill="#1C7363" points="143.7,244.5 143.7,247.3 144,247.5 144,244.6 						"/>
						<polygon fill="#1C7363" points="145.5,245.2 145.5,245.6 145.7,245.3 						"/>
					</g>
					<path fill="#902123" d="M150.2,240.4c-0.2,0.6,70.9-33.2,70.9-33.2l-18.9,21.6l25.2-12.9l0.8,6L188,238.2l14.5-18.3L150.9,242
						L150.2,240.4z"/>
					<polygon fill="#FFFFFF" points="149.4,245.3 197.5,224.3 181.9,242.4 230,228.7 232.7,234.5 166.1,253.2 180.8,235.5 
						150.7,247.6 					"/>
					<g>
						<polygon fill="none" points="180.8,235.5 179.9,236.6 179.9,235.9 						"/>
						<polygon fill="none" points="172.4,238.9 172.4,245.6 171,247.3 171,239.5 						"/>
						<polygon fill="none" points="174.2,238.2 174.2,243.4 172.8,245.2 172.8,238.8 						"/>
						<polygon fill="none" points="179.6,236 179.6,237 178.1,238.8 178.1,236.6 						"/>
						<polygon fill="none" points="181.9,242.4 183.1,240.9 183.1,242 						"/>
						<polygon fill="none" points="201,236.9 201,243.4 199.5,243.8 199.5,237.4 						"/>
						<polygon fill="none" points="227.8,229.3 227.8,235.9 226.3,236.3 226.3,229.7 						"/>
						<polygon fill="none" points="152.8,243.8 152.8,246.7 151.3,247.3 151.3,244.5 						"/>
						<polygon fill="none" points="229.5,228.8 229.5,235.4 228.1,235.8 228.1,229.2 						"/>
						<polygon fill="none" points="230,228.7 231.3,231.6 231.3,234.9 229.9,235.3 229.9,228.7 						"/>
						<polygon fill="none" points="151,244.6 151,247.5 150.7,247.6 149.6,245.6 149.6,245.2 						"/>
						<polygon fill="none" points="211.7,233.9 211.7,240.4 210.2,240.8 210.2,234.3 						"/>
						<polygon fill="none" points="232.7,234.5 231.6,234.8 231.6,232.2 						"/>
						<polygon fill="none" points="213.5,233.4 213.5,239.9 212,240.3 212,233.8 						"/>
						<polygon fill="none" points="215.3,232.9 215.3,239.4 213.8,239.8 213.8,233.3 						"/>
						<polygon fill="none" points="208.1,234.9 208.1,241.4 206.7,241.8 206.7,235.3 						"/>
						<polygon fill="none" points="217,232.3 217,238.9 215.6,239.3 215.6,232.8 						"/>
						<polygon fill="none" points="199.2,237.4 199.2,243.9 197.7,244.3 197.7,237.9 						"/>
						<polygon fill="none" points="218.8,231.8 218.8,238.4 217.4,238.8 217.4,232.3 						"/>
						<polygon fill="none" points="206.3,235.4 206.3,241.9 204.9,242.3 204.9,235.8 						"/>
						<polygon fill="none" points="166.1,253.2 167.1,252 167.1,252.9 						"/>
						<polygon fill="none" points="209.9,234.4 209.9,240.9 208.4,241.3 208.4,234.8 						"/>
						<polygon fill="none" points="226,229.8 226,236.4 224.5,236.8 224.5,230.2 						"/>
						<polygon fill="none" points="204.6,235.9 204.6,242.4 203.1,242.8 203.1,236.3 						"/>
						<polygon fill="none" points="202.8,236.4 202.8,242.9 201.3,243.3 201.3,236.8 						"/>
						<polygon fill="none" points="222.4,230.8 222.4,237.4 220.9,237.8 220.9,231.2 						"/>
						<polygon fill="none" points="224.2,230.3 224.2,236.9 222.7,237.3 222.7,230.7 						"/>
						<polygon fill="none" points="220.6,231.3 220.6,237.9 219.1,238.3 219.1,231.7 						"/>
						<polygon fill="none" points="159.9,240.7 159.9,243.9 158.5,244.5 158.5,241.3 						"/>
						<polygon fill="none" points="183.1,230.6 183.1,240.9 181.9,242.4 183.1,242 183.1,248.4 181.7,248.8 181.7,231.2 						"/>
						<polygon fill="none" points="161.7,239.9 161.7,243.2 160.3,243.8 160.3,240.6 						"/>
						<polygon fill="none" points="171,239.5 171,235.9 172.4,235.2 172.4,238.9 						"/>
						<polygon fill="none" points="184.9,241.5 184.9,247.9 183.5,248.3 183.5,241.9 						"/>
						<polygon fill="none" points="167.4,240.9 167.4,237.4 168.9,236.8 168.9,240.3 						"/>
						<polygon fill="none" points="163.5,239.1 163.5,242.5 162,243 162,239.8 						"/>
						<polygon fill="none" points="169.2,240.2 169.2,236.7 170.7,236 170.7,239.6 						"/>
						<polygon fill="none" points="193.9,239 193.9,245.4 192.4,245.8 192.4,239.4 						"/>
						<polygon fill="none" points="195.6,238.5 195.6,244.9 194.2,245.3 194.2,238.9 						"/>
						<polygon fill="none" points="197.4,238 197.4,244.4 196,244.8 196,238.4 						"/>
						<polygon fill="none" points="186.7,241 186.7,247.4 185.2,247.8 185.2,241.4 						"/>
						<polygon fill="none" points="188.5,240.5 188.5,246.9 187,247.3 187,240.9 						"/>
						<polygon fill="none" points="192.1,239.5 192.1,245.9 190.6,246.3 190.6,239.9 						"/>
						<polygon fill="none" points="190.3,240 190.3,246.4 188.8,246.8 188.8,240.4 						"/>
						<polygon fill="none" points="176,241.3 176,250.4 174.5,250.8 174.5,243.1 						"/>
						<polygon fill="none" points="196,226.1 196,225 197.4,224.3 197.4,224.4 						"/>
						<polygon fill="none" points="174.2,243.4 174.2,250.9 172.8,251.3 172.8,245.2 						"/>
						<polygon fill="none" points="170.7,247.7 170.7,251.9 169.2,252.3 169.2,249.5 						"/>
						<polygon fill="none" points="172.4,245.6 172.4,251.4 171,251.8 171,247.3 						"/>
						<polygon fill="none" points="168.9,249.8 168.9,252.4 167.4,252.8 167.4,251.6 						"/>
						<polygon fill="none" points="165.3,238.4 165.3,241.7 163.8,242.3 163.8,239 						"/>
						<polygon fill="none" points="167.1,237.6 167.1,241 165.6,241.6 165.6,238.2 						"/>
						<polygon fill="none" points="177.8,239.2 177.8,249.9 176.3,250.3 176.3,240.9 						"/>
						<polygon fill="none" points="176.3,237.3 176.3,233.5 177.8,232.9 177.8,236.7 						"/>
						<polygon fill="none" points="178.1,236.6 178.1,232.8 179.6,232.1 179.6,236 						"/>
						<polygon fill="none" points="174.5,238 174.5,234.3 176,233.7 176,237.5 						"/>
						<polygon fill="none" points="172.8,238.8 172.8,235.1 174.2,234.5 174.2,238.2 						"/>
						<polygon fill="none" points="179.6,237 179.6,249.4 178.1,249.8 178.1,238.8 						"/>
						<polygon fill="none" points="180.8,235.5 179.9,235.9 179.9,232 181.4,231.3 181.4,248.9 179.9,249.3 179.9,236.6 						"/>
						<polygon fill="none" points="192.4,230.2 192.4,226.5 193.9,225.9 193.9,228.5 						"/>
						<polygon fill="none" points="194.2,228.1 194.2,225.7 195.6,225.1 195.6,226.4 						"/>
						<polygon fill="none" points="156.4,242.3 156.4,245.3 154.9,245.9 154.9,242.9 						"/>
						<polygon fill="none" points="187,236.4 187,228.9 188.5,228.2 188.5,234.7 						"/>
						<polygon fill="none" points="158.2,241.5 158.2,244.6 156.7,245.2 156.7,242.1 						"/>
						<polygon fill="none" points="188.8,234.3 188.8,228.1 190.3,227.4 190.3,232.6 						"/>
						<polygon fill="none" points="154.6,243 154.6,246 153.1,246.6 153.1,243.7 						"/>
						<polygon fill="none" points="190.6,232.3 190.6,227.3 192.1,226.7 192.1,230.6 						"/>
						<polygon fill="none" points="185.2,238.5 185.2,229.6 186.7,229 186.7,236.8 						"/>
						<polygon fill="none" points="183.5,240.6 183.5,230.4 184.9,229.8 184.9,238.8 						"/>
						<polygon fill="#1C7363" points="231.6,232.2 231.6,234.8 231.3,234.9 231.3,231.6 						"/>
						<polygon fill="#1C7363" points="229.9,228.7 229.9,235.3 229.5,235.4 229.5,228.8 						"/>
						<polygon fill="#1C7363" points="228.1,229.2 228.1,235.8 227.8,235.9 227.8,229.3 						"/>
						<polygon fill="#1C7363" points="226.3,229.7 226.3,236.3 226,236.4 226,229.8 						"/>
						<polygon fill="#1C7363" points="224.5,230.2 224.5,236.8 224.2,236.9 224.2,230.3 						"/>
						<polygon fill="#1C7363" points="222.7,230.7 222.7,237.3 222.4,237.4 222.4,230.8 						"/>
						<polygon fill="#1C7363" points="220.9,231.2 220.9,237.8 220.6,237.9 220.6,231.3 						"/>
						<polygon fill="#1C7363" points="219.1,231.7 219.1,238.3 218.8,238.4 218.8,231.8 						"/>
						<polygon fill="#1C7363" points="217.4,232.3 217.4,238.8 217,238.9 217,232.3 						"/>
						<polygon fill="#1C7363" points="215.6,232.8 215.6,239.3 215.3,239.4 215.3,232.9 						"/>
						<polygon fill="#1C7363" points="213.8,233.3 213.8,239.8 213.5,239.9 213.5,233.4 						"/>
						<polygon fill="#1C7363" points="212,233.8 212,240.3 211.7,240.4 211.7,233.9 						"/>
						<polygon fill="#1C7363" points="210.2,234.3 210.2,240.8 209.9,240.9 209.9,234.4 						"/>
						<polygon fill="#1C7363" points="208.4,234.8 208.4,241.3 208.1,241.4 208.1,234.9 						"/>
						<polygon fill="#1C7363" points="206.7,235.3 206.7,241.8 206.3,241.9 206.3,235.4 						"/>
						<polygon fill="#1C7363" points="204.9,235.8 204.9,242.3 204.6,242.4 204.6,235.9 						"/>
						<polygon fill="#1C7363" points="203.1,236.3 203.1,242.8 202.8,242.9 202.8,236.4 						"/>
						<polygon fill="#1C7363" points="201.3,236.8 201.3,243.3 201,243.4 201,236.9 						"/>
						<polygon fill="#1C7363" points="199.5,237.4 199.5,243.8 199.2,243.9 199.2,237.4 						"/>
						<polygon fill="#1C7363" points="197.7,237.9 197.7,244.3 197.4,244.4 197.4,238 						"/>
						<polygon fill="#1C7363" points="197.4,224.4 197.4,224.3 197.5,224.3 						"/>
						<polygon fill="#1C7363" points="195.6,226.4 195.6,225.1 196,225 196,226.1 						"/>
						<polygon fill="#1C7363" points="196,238.4 196,244.8 195.6,244.9 195.6,238.5 						"/>
						<polygon fill="#1C7363" points="193.9,228.5 193.9,225.9 194.2,225.7 194.2,228.1 						"/>
						<polygon fill="#1C7363" points="194.2,238.9 194.2,245.3 193.9,245.4 193.9,239 						"/>
						<polygon fill="#1C7363" points="192.1,230.6 192.1,226.7 192.4,226.5 192.4,230.2 						"/>
						<polygon fill="#1C7363" points="192.4,239.4 192.4,245.8 192.1,245.9 192.1,239.5 						"/>
						<polygon fill="#1C7363" points="190.3,232.6 190.3,227.4 190.6,227.3 190.6,232.3 						"/>
						<polygon fill="#1C7363" points="190.6,239.9 190.6,246.3 190.3,246.4 190.3,240 						"/>
						<polygon fill="#1C7363" points="188.5,234.7 188.5,228.2 188.8,228.1 188.8,234.3 						"/>
						<polygon fill="#1C7363" points="188.8,240.4 188.8,246.8 188.5,246.9 188.5,240.5 						"/>
						<polygon fill="#1C7363" points="186.7,236.8 186.7,229 187,228.9 187,236.4 						"/>
						<polygon fill="#1C7363" points="187,240.9 187,247.3 186.7,247.4 186.7,241 						"/>
						<polygon fill="#1C7363" points="184.9,238.8 184.9,229.8 185.2,229.6 185.2,238.5 						"/>
						<polygon fill="#1C7363" points="185.2,241.4 185.2,247.8 184.9,247.9 184.9,241.5 						"/>
						<polygon fill="#1C7363" points="183.5,241.9 183.5,248.3 183.1,248.4 183.1,242 						"/>
						<polygon fill="#1C7363" points="183.1,240.9 183.1,230.6 183.5,230.4 183.5,240.6 						"/>
						<polygon fill="#1C7363" points="181.7,231.2 181.7,248.8 181.4,248.9 181.4,231.3 						"/>
						<polygon fill="#1C7363" points="179.6,236 179.6,232.1 179.9,232 179.9,235.9 						"/>
						<polygon fill="#1C7363" points="179.9,236.6 179.9,249.3 179.6,249.4 179.6,237 						"/>
						<polygon fill="#1C7363" points="178.1,238.8 178.1,249.8 177.8,249.9 177.8,239.2 						"/>
						<polygon fill="#1C7363" points="177.8,236.7 177.8,232.9 178.1,232.8 178.1,236.6 						"/>
						<polygon fill="#1C7363" points="176.3,240.9 176.3,250.3 176,250.4 176,241.3 						"/>
						<polygon fill="#1C7363" points="176,237.5 176,233.7 176.3,233.5 176.3,237.3 						"/>
						<polygon fill="#1C7363" points="174.2,238.2 174.2,234.5 174.5,234.3 174.5,238 						"/>
						<polygon fill="#1C7363" points="174.5,243.1 174.5,250.8 174.2,250.9 174.2,243.4 						"/>
						<polygon fill="#1C7363" points="172.8,245.2 172.8,251.3 172.4,251.4 172.4,245.6 						"/>
						<polygon fill="#1C7363" points="172.4,238.9 172.4,235.2 172.8,235.1 172.8,238.8 						"/>
						<polygon fill="#1C7363" points="171,247.3 171,251.8 170.7,251.9 170.7,247.7 						"/>
						<polygon fill="#1C7363" points="170.7,239.6 170.7,236 171,235.9 171,239.5 						"/>
						<polygon fill="#1C7363" points="169.2,249.5 169.2,252.3 168.9,252.4 168.9,249.8 						"/>
						<polygon fill="#1C7363" points="168.9,240.3 168.9,236.8 169.2,236.7 169.2,240.2 						"/>
						<polygon fill="#1C7363" points="167.4,252.8 167.1,252.9 167.1,252 167.4,251.6 						"/>
						<polygon fill="#1C7363" points="167.4,237.4 167.4,240.9 167.1,241 167.1,237.6 						"/>
						<polygon fill="#1C7363" points="165.6,238.2 165.6,241.6 165.3,241.7 165.3,238.4 						"/>
						<polygon fill="#1C7363" points="163.8,239 163.8,242.3 163.5,242.5 163.5,239.1 						"/>
						<polygon fill="#1C7363" points="162,239.8 162,243 161.7,243.2 161.7,239.9 						"/>
						<polygon fill="#1C7363" points="160.3,240.6 160.3,243.8 159.9,243.9 159.9,240.7 						"/>
						<polygon fill="#1C7363" points="158.5,241.3 158.5,244.5 158.2,244.6 158.2,241.5 						"/>
						<polygon fill="#1C7363" points="156.7,242.1 156.7,245.2 156.4,245.3 156.4,242.3 						"/>
						<polygon fill="#1C7363" points="154.9,242.9 154.9,245.9 154.6,246 154.6,243 						"/>
						<polygon fill="#1C7363" points="153.1,243.7 153.1,246.6 152.8,246.7 152.8,243.8 						"/>
						<polygon fill="#1C7363" points="151.3,244.5 151.3,247.3 151,247.5 151,244.6 						"/>
						<polygon fill="#1C7363" points="149.6,245.2 149.6,245.6 149.4,245.3 						"/>
					</g>
					<g>
						<ellipse fill="#92190F" cx="145.6" cy="244.4" rx="15.4" ry="15.2"/>
						<ellipse fill="#FAEBEC" cx="145.6" cy="244.4" rx="13.7" ry="13.6"/>
						<ellipse fill="#D3B23F" cx="145.6" cy="244.4" rx="11.1" ry="10.9"/>
						<g>
							<path fill="#FFF100" d="M145.6,233.6c6.3,0,11.4,5,11.4,11.2c0,6.2-5.1,11.2-11.4,11.2c-6.3,0-11.4-5-11.4-11.2
								C134.3,238.6,139.4,233.6,145.6,233.6L145.6,233.6z"/>
							<path fill="#2E3191" d="M145.6,234c-6,0-11,4.9-11,10.8c0,6,4.9,10.8,11,10.8c6,0,11-4.9,11-10.8
								C156.6,238.8,151.7,234,145.6,234z"/>
							<path fill="#FFF100" d="M156.2,244.5h-2c-0.1-0.3-0.2-0.5-0.3-0.7c-0.5-1.3-1.2-2.3-2-2.8l-0.2-0.1l-0.2,0.1
								c-0.1,0-0.1,0.1-0.2,0.1c-0.1-0.5-0.3-0.9-0.5-1.4l2.3-2.3C155,239.4,156.1,241.8,156.2,244.5z"/>
							<path fill="#FFF100" d="M145.6,234.4c2.8,0,5.4,1.1,7.3,2.9l-2.3,2.3c-0.4-0.2-0.7-0.3-1.1-0.4l0.1-0.7l-0.1-0.1
								c0,0.1-0.3,0-0.3-0.3c-0.1,0,0.1-0.2-0.1-0.2l-0.1-0.2l-0.1,0l-0.2-0.3l0-0.1c-0.1-0.1-0.3,0-0.3,0c-0.1,0-0.3,0.1-0.3,0.1
								l-0.1,0l-0.1,0l-0.1,0.2c0,0.1,0,0.1,0,0.2c0.1,0,0.1,0.2,0.1,0.2l0,0.1c0,0.1,0.2,0,0.3,0.2l0.1,0.1c0,0.1,0,0.1,0.1,0.2
								l0.1,0.2l0.1,0l0.1,0.1l0.1,0c0.1,0.1,0,0.5,0,0.6l-0.1,0.1c-0.1,0-0.3,0.1-0.4,0.2c0.1,0,0,0.4,0.2,0.2
								c0,0.1,0.2,0.2,0.2,0.2l0,0.2c0.1,0.2,0.3,0.4,0.5,0.4c0.1,0,0.1,0.1,0.1-0.3l0-0.1c-0.1-0.3-0.1-0.5,0.2-0.2l0.1-0.1
								l0.1-0.1l0-0.3c0.3,0.1,0.5,0.2,0.8,0.3c0.2,0.5,0.4,1,0.5,1.5c-0.6,0.6-1.1,1.4-1.5,2.4c-0.5,1.2-0.8,2.7-0.8,4.3l0,0.1
								l-0.1-0.1c-0.1,0-0.1-0.2-0.2-0.2c0-0.1-0.1,0-0.1-0.1l-0.2-0.1l-0.1-0.1c-0.1,0-0.1-0.1-0.1-0.2c0.1,0,0.1-0.1,0.2-0.1
								l0-0.1l-0.1,0c0-0.1-0.1-0.2-0.1-0.3c-0.1,0-0.4-0.3-0.4-0.5c0-0.1-0.1-0.2-0.2-0.2c0-0.1-0.2-0.1-0.2-0.2
								c-0.1,0-0.1-0.1-0.1-0.1l-0.2-0.2c-0.1,0-0.2,0-0.4,0.1l-0.3,0.3l-0.3-0.3l0-0.3c-0.1,0-0.1,0-0.1-0.1l-0.1-0.1l-0.2-0.1
								c0-0.1,0.1-0.3,0.2-0.3l0.1-0.1l-0.1-0.1l-0.2,0.1l-0.1,0.1l-0.2,0.1l-0.1-0.1c0-0.1-0.1-0.2-0.1-0.2c0-0.2,0-0.5,0.3-0.6
								c0.2-0.1,0.3-0.1,0.4,0c0.3,0-0.1-0.1,0.5-0.1l-0.1,0.4l0.1,0.1c0.1,0,0.1,0,0.2,0l0.1-0.3c0-0.1,0-0.1,0-0.2
								c0-0.1,0.2,0,0.2-0.1l0.1-0.1c0.1,0,0.2,0,0.2-0.1c0,0,0-0.1,0.1-0.1c0-0.1,0.1-0.1,0.1-0.2l0.2-0.1l0-0.1l0.2-0.1l0.1-0.1
								c0-0.1,0.1-0.2,0.2-0.2l0.5,0.2c0.1-0.1,0.4-0.3,0.2-0.4c0-0.1-0.2,0-0.1-0.4l0.1-0.1l0.1,0l0.4,0.1c0,0.1-0.1,0.1-0.2,0.3
								c0.1,0,0,0.3,0,0.3l0,0.1c0.1,0,0.2,0.1,0.3,0.1c0,0,0.1,0,0.1,0c0,0,0.2-0.1,0.2-0.1c0-0.2,0-0.4-0.1-0.4
								c0-0.1,0.2-0.2,0.2-0.3c0-0.1-0.2-0.3-0.2-0.4c0-0.2-0.2-0.3-0.2-0.5c0-0.2,0.1-0.2,0.1-0.4l-0.1-0.2l-0.2,0l-0.1-0.1
								c-0.1-0.1-0.1-0.3-0.3-0.4c0-0.1-0.2,0-0.2-0.1c-0.2-0.1-0.3-0.1-0.4,0l-0.1,0.1l0,0.1l-0.1,0.1c-0.1,0.3-0.2,0.5-0.3,0.7
								l-0.1,0l0,0.4l-0.1,0.1c-0.1,0-0.1-0.5-0.2-0.5c0-0.1,0.1-0.2,0-0.2L147,241l-0.1-0.1c-0.1,0,0-0.6-0.2-0.6
								c0-0.1,0.1-0.2,0.1-0.3l0.2-0.2l0-0.1l0-0.1c0.1,0,0.3-0.4,0.5-0.4c0-0.1,0.4-0.1,0.5-0.1c0.1-0.1,0.1-0.2,0.1-0.2l0-0.6
								l-0.3,0.2c-0.1-0.1-0.1-0.1-0.1-0.1c-0.1-0.1-0.2-0.2-0.2-0.5c0-0.1,0.2-0.3,0.1-0.3l-0.2,0.1c-0.1,0.1-0.3,0.2-0.1,0.5
								c0.1,0.1-0.1,0.2-0.2,0.2l-0.1,0l-0.1,0c0,0.1-0.2,0-0.3,0.1l-0.3-0.1c0,0-0.2-0.1-0.3-0.1l-0.3,0l-0.2-0.3
								c-0.1,0-0.2,0-0.2-0.1l0-0.2c0,0-0.2-0.1-0.2-0.2c-0.2,0-0.1-0.2-0.2-0.3c-0.5,0-1.2-0.1-1.5-0.5l0-0.1
								c-0.1,0-0.4-0.3-0.4-0.3l-0.1-0.1c-0.2,0-0.4,0.1-0.5,0.1c-0.1,0.1-0.3,0.3-0.5,0.3c-0.1,0-0.1,0.1-0.1,0.3l0.1,0
								c0,0.1,0.1,0.2,0.1,0.3l-0.1,0.1c-0.1,0-0.1,0-0.2,0l-0.1,0.2l-0.1,0l0,0.2l0.1,0l0.1,0.3c-0.1,0.2-0.4,0.2-0.6,0.3
								c-0.1,0-0.2,0.2-0.1,0.3c0.1,0.1,0.2,0.2,0.2,0.2l0.3,0.3c0,0,0,0.1,0,0.1c-0.1,0-0.1,0-0.2,0.1c0,0,0,0-0.1,0c0,0,0,0,0,0.1
								c-0.1,0-0.2,0.1-0.2,0.1c-0.1,0-0.3,0-0.3,0.1l0,0.1c-0.1,0-0.2,0.1-0.2,0.1l-2.3-2.2C140.2,235.5,142.8,234.4,145.6,234.4z"
								/>
							<path fill="#FFF100" d="M145.2,248l0.2,0.4c0,0.1,0,0.3,0.2,0.3c0,0.1,0,0.2,0.1,0.2l-0.1,0.1l-0.1,0.2
								c0,0.1-0.3,0.5-0.3,0.6c-0.1,0.1,0,0.3-0.1,0.4l-0.1,0.1c-0.1,0.1-0.1,0.2-0.2,0.3c-1.3-0.1-2.7-0.5-4.1-1
								c-0.2-0.4-0.3-0.8-0.5-1.2c0.5,0,1-0.1,1.5-0.3c0.5-0.2,0.9-0.5,1.3-0.9l0.2-0.2l-0.2-0.2l-1.2-1.1l-0.2,0.3
								c-0.2,0.2-0.4,0.3-0.6,0.4c-0.2,0.1-0.5,0.2-0.7,0.2c-0.2,0-0.3,0-0.5-0.1c-0.2-1.1-0.1-2.3,0-3.4c0.1,0,0.3-0.1,0.5-0.1
								c0.3,0,0.5,0.1,0.7,0.2c0.2,0.1,0.4,0.3,0.6,0.4l0.2,0.3l1.4-1.3l-0.2-0.2c-0.3-0.4-0.8-0.7-1.3-0.9
								c-0.5-0.2-0.9-0.3-1.5-0.3c0.1-0.4,0.3-0.7,0.4-1.1c0.3-0.1,0.6-0.2,0.9-0.4c0.3,0,0.5-0.1,0.6-0.2c0.3-0.1,0.6-0.2,1-0.2
								c0,0.1,0.1,0.1,0.1,0.1c0,0.3,0,0.7,0,0.9c0.3,0.3,0.3,0.6,0.3,1.1c-0.1,0.2-0.2,1-0.1,1.1l0.1,0c0,0.1-0.1,0.5,0.1,0.5
								c0.3,0.3,0.2,0.6,0.2,0.7c0,0.1,0,0.2,0.2,0.4c0.1,0.6,0.1,0.2,0.2,0.2c-0.1-0.3,0-0.6-0.1-0.7l-0.1-0.1l0-0.2l0.1,0
								c0,0,0.1,0.1,0.1,0.1c0.1,0.1,0.1,0.2,0.1,0.3c0.1,0.1-0.1,0.4,0.1,0.4l0,0.2l0,0.3c0.2,0.3,0.5,0.7,0.9,0.6l0.2,0.2
								c0,0.2,0.1,0.4,0.2,0.5l0.1,0.1c0,0,0,0.2,0.3,0.2c0.1,0,0.1,0.1,0.1,0.1l0.1,0.2l-0.1,0.1l-0.2,0.1
								c-0.1-0.1-0.3,0.1-0.4,0.1c-0.1,0.5-0.1,0.4-0.3,0.5C145,247.6,145.1,247.9,145.2,248z"/>
							<path fill="#FFF100" d="M138.1,237.5l2.2,2.2c-0.2,0.4-0.3,0.9-0.5,1.3c-0.9,0.1-1.7,0.5-2.3,1.1c-0.6,0.6-1,1.5-1.1,2.4
								h-1.4C135.2,241.8,136.3,239.4,138.1,237.5z"/>
							<path fill="#FFF100" d="M139.3,244.5h-0.8c0-0.4,0.2-0.8,0.5-1.1c0.1-0.1,0.3-0.2,0.4-0.3
								C139.3,243.6,139.3,244.1,139.3,244.5z"/>
							<path fill="#FFF100" d="M139.4,246.3c-0.1-0.1-0.3-0.2-0.4-0.3c-0.3-0.3-0.4-0.6-0.5-1h0.8
								C139.3,245.4,139.3,245.8,139.4,246.3z"/>
							<path fill="#FFF100" d="M135.1,245h1.4c0.1,0.9,0.5,1.7,1.1,2.4c0.6,0.6,1.4,1,2.3,1.1c0.1,0.4,0.3,0.9,0.5,1.3L138,252
								C136.3,250.2,135.2,247.7,135.1,245z"/>
							<path fill="#FFF100" d="M145.6,255.2c-2.9,0-5.4-1.1-7.3-3l2.3-2.2c1.3,0.5,2.6,0.8,3.9,1c0,0.1,0,0.1,0,0.2l-0.1,0.1
								c0,0.2-0.1,0.4-0.1,0.7l0,0.1l0.1,0l0,0.1l0.1,0.1c0,0,0.2,0,0.2-0.1c0.1-0.1,0.1-0.2,0.2-0.2l0-0.2l0.1,0l0-0.1
								c0.1,0,0.2-0.3,0.3-0.4l0.1,0l0-0.1c0.1,0,0-0.2,0.1-0.2c0,0,0-0.1,0.1-0.1c1.7,0,3.5-0.3,5.2-1.1l2.3,2.3
								C151.1,254.1,148.5,255.2,145.6,255.2z"/>
							<path fill="#FFF100" d="M153.3,252l-2.3-2.3c0.3-0.7,0.5-1.4,0.7-2.2l1.3,0c0,0,0,0.1,0,0.2c0,0.2,0,0.3,0,0.5v0.3h1.8l0-0.4
								c0-1.1-0.2-2.1-0.4-3.1h1.8C156.1,247.7,155,250.2,153.3,252z"/>
							<path fill="#EC1C24" d="M140.2,241.4c1,0,1.9,0.4,2.5,1.1l-0.9,0.9c-0.4-0.4-1-0.7-1.6-0.7c-1.2,0-2.2,1-2.2,2.1
								c0,1.2,1,2.1,2.2,2.1c0.6,0,1.2-0.3,1.6-0.7l0.9,0.9c-0.6,0.7-1.5,1.1-2.5,1.1c-1.9,0-3.4-1.5-3.4-3.4
								C136.8,242.9,138.3,241.4,140.2,241.4L140.2,241.4z"/>
							<path fill="#EC1C24" d="M151.7,241.3c-1.5,0.9-2.6,3.7-2.7,6.8h1.1c0-0.3,0-0.6,0.1-1l2.9,0c0.1,0.3,0.1,0.6,0.1,0.9h1.1
								C154.4,245.1,153.3,242.3,151.7,241.3L151.7,241.3z"/>
							<path fill="#FFF100" d="M149,248.7L149,248.7c-0.1-0.1-0.1-0.1-0.2-0.2h1.7l0-0.3c0-0.1,0-0.3,0-0.4c0-0.1,0-0.1,0-0.2l0.6,0
								c-0.2,0.7-0.4,1.4-0.7,2.1c-1.4,0.6-2.8,1-4.2,1c0.1-0.1,0.2-0.2,0.2-0.2c0.1,0,0.2,0,0.2-0.1c0.1,0,0.1-0.1,0.1-0.1l0.1-0.2
								c0-0.1,0.5-0.4,0.5-0.3c0.2,0,0.4,0,0.6,0c0,0,0.2-0.2,0.3-0.2c0-0.1,0.1,0,0.1-0.1c0.1,0,0.1-0.1,0.1-0.1l0.1-0.1l0.1-0.1
								c0.1,0,0.3-0.2,0.3-0.1l0.1-0.1C149,248.9,149,248.7,149,248.7z"/>
							<path fill="#2E3191" d="M145.9,237.1l-0.1,0.4c0.3,0.1,0.3,0.2,0.2,0.3c-0.1,0.1,0,0.2,0.3,0.3c0.4,0.2,0.7,0.3,0.7,0.1
								l-0.1-0.4c-0.1-0.1,0-0.3,0-0.4c0.1-0.2,0-0.4-0.4-0.6C146.3,236.6,146.1,236.8,145.9,237.1z"/>
							<path fill="#2E3191" d="M145.4,237.3l0.5-0.4l0.1-0.5c-0.1-0.1-0.2-0.1-0.4-0.1c-0.1,0.2-0.2,0.3-0.3,0.5l-0.1,0.2
								C145.2,237.2,145.3,237.3,145.4,237.3z"/>
							<path fill="#2E3191" d="M151.8,243.7c-0.3,0.4-0.6,1-0.8,1.9h1.7C152.3,244.7,152.1,244.1,151.8,243.7L151.8,243.7z"/>
							<path fill="#FFF100" d="M152.1,245.2h-0.2c0-0.1,0-0.1,0-0.2h0.2C152.1,245.1,152.1,245.1,152.1,245.2z"/>
							<path fill="#FFF100" d="M151.5,244.9c0,0.1,0,0.2,0,0.3h-0.1C151.5,245.1,151.5,245,151.5,244.9z"/>
						</g>
					</g>
				</g>
			</g>
			<path fill="#0D5B68" d="M143.8,177.3h-2.9l1.8-9.6c-32.3-1.1-54.3-13.4-54.3-13.4l-0.5,9.5c23.9,16.3,45.1,19.6,54,19.8
				L143.8,177.3z"/>
			<path fill="#0D5B68" d="M148,166.8c-0.8,0-1.5,0-2.3-0.1l-1.6,8.6h3.1l-2.3,7.3c1.8,0,2.7,0,2.7,0c30.7,0,58.5-17,58.5-17v-11.8
				C183.6,163.8,165.9,167,148,166.8z"/>
		</g>
		<g>
			<path fill="#F4B07D" d="M187.7,140.9c0,0-8.8,27.2-41,27.2c-31.9,0-45.7-33.8-45.7-33.8s17.1,8.5,45.1,8.5
				C146.1,142.7,160.7,138.2,187.7,140.9z"/>
		</g>
		<g>
			<path opacity="0.1" fill="#232222" d="M171.4,143.5c0,0-3.9,14.3-24.7,14.3c-20.6,0-24.7-14.3-24.7-14.3s7.5,10.5,25.6,10.5
				C147.5,154,159.6,155.3,171.4,143.5z"/>
		</g>
		<g>
			<path opacity="0.3" fill="#231F20" d="M58.7,265.3c0,0,4.7,5.3,60.7-29.7l-16,29.7C103.4,265.3,73.1,273.6,58.7,265.3z"/>
			<path opacity="0.3" fill="#231F20" d="M58.7,295.6c0,0,34,15.3,77.3-37C136.1,258.6,115.1,266.3,58.7,295.6z"/>
			
				<path fill="none" stroke="#F4B07D" stroke-width="29.8123" stroke-linecap="round" stroke-linejoin="round" stroke-miterlimit="10" d="
				M36.6,227.6c-4,7.9-6,16.4-4.6,25.4c5.3,33.3,42.7,42,94.7-5.3"/>
			<path fill="none" stroke="#083B47" stroke-width="31" stroke-linejoin="round" stroke-miterlimit="10" d="M94.7,178.3
				c-15.1,7.7-68.5,38-62.7,74.7c5.3,33.3,42.7,42,94.7-5.3"/>
		</g>
		<g>
			<path opacity="0.3" fill="#231F20" d="M236.2,265.3c0,0-4.7,5.3-60.7-29.7l16,29.7C191.6,265.3,221.9,273.6,236.2,265.3z"/>
			<path opacity="0.3" fill="#231F20" d="M236.2,295.6c0,0-34,15.3-77.3-37C158.9,258.6,179.9,266.3,236.2,295.6z"/>
			
				<path fill="none" stroke="#F4B07D" stroke-width="29.8123" stroke-linecap="round" stroke-linejoin="round" stroke-miterlimit="10" d="
				M258.3,227.6c4,7.9,6,16.4,4.6,25.4c-5.3,33.3-42.7,42-94.7-5.3"/>
			<path fill="none" stroke="#083B47" stroke-width="31" stroke-linejoin="round" stroke-miterlimit="10" d="M200.2,178.3
				c15.1,7.7,68.5,38,62.7,74.7c-5.3,33.3-42.7,42-94.7-5.3"/>
		</g>
	</g>
</g>
</svg>
