<?xml version="1.0" encoding="utf-8"?>
<!-- Generator: Adobe Illustrator 16.0.0, SVG Export Plug-In . SVG Version: 6.00 Build 0)  -->
<!DOCTYPE svg PUBLIC "-//W3C//DTD SVG 1.1//EN" "http://www.w3.org/Graphics/SVG/1.1/DTD/svg11.dtd">
<svg version="1.1" id="Layer_1" xmlns="http://www.w3.org/2000/svg" xmlns:xlink="http://www.w3.org/1999/xlink" x="0px" y="0px"
	 width="1440px" height="700px" viewBox="0 0 1440 700" enable-background="new 0 0 1440 700" xml:space="preserve">
<g>
	<defs>
		<rect id="SVGID_1_" width="1440" height="700"/>
	</defs>
	<clipPath id="SVGID_2_">
		<use xlink:href="#SVGID_1_"  overflow="visible"/>
	</clipPath>
	<g clip-path="url(#SVGID_2_)">
		<rect fill="#BEE8ED" width="1440" height="700"/>
		<rect x="-19.8" y="245.5" fill="#747575" width="1462.4" height="166.5"/>
		<path fill="#0F352E" d="M1447.4,446.7l-3.9-67.2l-5.2,0c0.3-2.5,0.5-5.1,0.5-7.7c0-25.2-13.6-46.4-31.8-52.1
			c8.3-3.8,14-12.1,14-21.8c0-13.2-10.7-24-24-24c-13.2,0-24,10.7-24,24c0,9.7,5.8,18,14,21.8c-12.2,3.8-22.3,14.6-27.7,28.8
			c-5.4-14.2-15.5-25-27.7-28.8c8.3-3.8,14-12.1,14-21.8c0-13.2-10.7-24-24-24c-13.2,0-24,10.7-24,24c0,9.7,5.8,18,14,21.8
			c-12.2,3.8-22.3,14.6-27.7,28.8c-5.4-14.2-15.5-25-27.7-28.8c8.3-3.8,14-12.1,14-21.8c0-13.2-10.7-24-24-24c-13.2,0-24,10.7-24,24
			c0,9.7,5.8,18,14,21.8c-12.2,3.8-22.3,14.6-27.7,28.8c-5.4-14.2-15.5-25-27.7-28.8c8.3-3.8,14-12.1,14-21.8c0-13.2-10.7-24-24-24
			c-13.2,0-24,10.7-24,24c0,9.7,5.8,18,14,21.8c-12.2,3.8-22.3,14.6-27.7,28.8c-5.4-14.2-15.5-25-27.7-28.8c8.3-3.8,14-12.1,14-21.8
			c0-13.2-10.7-24-24-24c-13.2,0-24,10.7-24,24c0,9.7,5.8,18,14,21.8c-12.2,3.8-22.3,14.6-27.7,28.8c-5.4-14.2-15.5-25-27.7-28.8
			c8.3-3.8,14-12.1,14-21.8c0-13.2-10.7-24-24-24c-13.2,0-24,10.7-24,24c0,9.7,5.8,18,14,21.8c-12.2,3.8-22.3,14.6-27.7,28.8
			c-5.4-14.2-15.5-25-27.7-28.8c8.3-3.8,14-12.1,14-21.8c0-13.2-10.7-24-24-24c-13.2,0-24,10.7-24,24c0,9.7,5.8,18,14,21.8
			c-12.2,3.8-22.3,14.6-27.7,28.8c-5.4-14.2-15.5-25-27.7-28.8c8.3-3.8,14-12.1,14-21.8c0-13.2-10.7-24-24-24c-13.2,0-24,10.7-24,24
			c0,9.7,5.8,18,14,21.8c-12.2,3.8-22.3,14.6-27.7,28.8c-5.4-14.2-15.5-25-27.7-28.8c8.3-3.8,14-12.1,14-21.8c0-13.2-10.7-24-24-24
			c-13.2,0-24,10.7-24,24c0,9.7,5.8,18,14,21.8c-12.2,3.8-22.3,14.6-27.7,28.8c-5.4-14.2-15.5-25-27.7-28.8c8.3-3.8,14-12.1,14-21.8
			c0-13.2-10.7-24-24-24c-13.2,0-24,10.7-24,24c0,9.7,5.8,18,14,21.8c-12.2,3.8-22.3,14.6-27.7,28.8c-5.4-14.2-15.5-25-27.7-28.8
			c8.3-3.8,14-12.1,14-21.8c0-13.2-10.7-24-24-24c-13.2,0-24,10.7-24,24c0,9.7,5.8,18,14,21.8c-12.2,3.8-22.3,14.6-27.7,28.8
			c-5.4-14.2-15.5-25-27.7-28.8c8.3-3.8,14-12.1,14-21.8c0-13.2-10.7-24-24-24c-13.2,0-24,10.7-24,24c0,9.7,5.8,18,14,21.8
			c-12.2,3.8-22.3,14.6-27.7,28.8c-5.4-14.2-15.5-25-27.7-28.8c8.3-3.8,14-12.1,14-21.8c0-13.2-10.7-24-24-24c-13.2,0-24,10.7-24,24
			c0,9.7,5.8,18,14,21.8c-12.2,3.8-22.3,14.6-27.7,28.8c-5.4-14.2-15.5-25-27.7-28.8c8.3-3.8,14-12.1,14-21.8c0-13.2-10.7-24-24-24
			c-13.2,0-24,10.7-24,24c0,9.7,5.8,18,14,21.8c-12.2,3.8-22.3,14.6-27.7,28.8c-5.4-14.2-15.5-25-27.7-28.8c8.3-3.8,14-12.1,14-21.8
			c0-13.2-10.7-24-24-24c-13.2,0-24,10.7-24,24c0,9.7,5.8,18,14,21.8c-12.2,3.8-22.3,14.6-27.7,28.8c-5.4-14.2-15.5-25-27.7-28.8
			c8.3-3.8,14-12.1,14-21.8c0-13.2-10.7-24-24-24c-13.2,0-24,10.7-24,24c0,9.7,5.8,18,14,21.8c-12.2,3.8-22.3,14.6-27.7,28.8
			c-5.4-14.2-15.5-25-27.7-28.8c8.3-3.8,14-12.1,14-21.8c0-13.2-10.7-24-24-24c-13.2,0-24,10.7-24,24c0,9.7,5.8,18,14,21.8
			c-12.2,3.8-22.3,14.6-27.7,28.8c-5.4-14.2-15.5-25-27.7-28.8c8.3-3.8,14-12.1,14-21.8c0-13.2-10.7-24-24-24c-13.3,0-24,10.7-24,24
			c0,9.7,5.8,18,14,21.8c-12.2,3.8-22.3,14.6-27.7,28.8c-5.4-14.2-15.5-25-27.7-28.8c8.3-3.8,14-12.1,14-21.8c0-13.2-10.7-24-24-24
			c-13.3,0-24,10.7-24,24c0,9.7,5.8,18,14,21.8C13.6,325.3,0,346.4,0,371.7c0,4.3,0.4,8.4,1.1,12.4h0.2l-6.3,62.5H1447.4z"/>
		<path fill="#195B4E" d="M1447.4,511.7l-3.9-67.2l-5.2,0c0.3-2.5,0.5-5.1,0.5-7.7c0-25.2-13.6-46.4-31.8-52.1
			c8.3-3.8,14-12.1,14-21.8c0-13.2-10.7-24-24-24c-13.2,0-24,10.7-24,24c0,9.7,5.8,18,14,21.8c-12.2,3.8-22.3,14.6-27.7,28.8
			c-5.4-14.2-15.5-25-27.7-28.8c8.3-3.8,14-12.1,14-21.8c0-13.2-10.7-24-24-24c-13.2,0-24,10.7-24,24c0,9.7,5.8,18,14,21.8
			c-12.2,3.8-22.3,14.6-27.7,28.8c-5.4-14.2-15.5-25-27.7-28.8c8.3-3.8,14-12.1,14-21.8c0-13.2-10.7-24-24-24c-13.2,0-24,10.7-24,24
			c0,9.7,5.8,18,14,21.8c-12.2,3.8-22.3,14.6-27.7,28.8c-5.4-14.2-15.5-25-27.7-28.8c8.3-3.8,14-12.1,14-21.8c0-13.2-10.7-24-24-24
			c-13.2,0-24,10.7-24,24c0,9.7,5.8,18,14,21.8c-12.2,3.8-22.3,14.6-27.7,28.8c-5.4-14.2-15.5-25-27.7-28.8c8.3-3.8,14-12.1,14-21.8
			c0-13.2-10.7-24-24-24c-13.2,0-24,10.7-24,24c0,9.7,5.8,18,14,21.8c-12.2,3.8-22.3,14.6-27.7,28.8c-5.4-14.2-15.5-25-27.7-28.8
			c8.3-3.8,14-12.1,14-21.8c0-13.2-10.7-24-24-24c-13.2,0-24,10.7-24,24c0,9.7,5.8,18,14,21.8c-12.2,3.8-22.3,14.6-27.7,28.8
			c-5.4-14.2-15.5-25-27.7-28.8c8.3-3.8,14-12.1,14-21.8c0-13.2-10.7-24-24-24c-13.2,0-24,10.7-24,24c0,9.7,5.8,18,14,21.8
			c-12.2,3.8-22.3,14.6-27.7,28.8c-5.4-14.2-15.5-25-27.7-28.8c8.3-3.8,14-12.1,14-21.8c0-13.2-10.7-24-24-24c-13.2,0-24,10.7-24,24
			c0,9.7,5.8,18,14,21.8c-12.2,3.8-22.3,14.6-27.7,28.8c-5.4-14.2-15.5-25-27.7-28.8c8.3-3.8,14-12.1,14-21.8c0-13.2-10.7-24-24-24
			c-13.2,0-24,10.7-24,24c0,9.7,5.8,18,14,21.8c-12.2,3.8-22.3,14.6-27.7,28.8c-5.4-14.2-15.5-25-27.7-28.8c8.3-3.8,14-12.1,14-21.8
			c0-13.2-10.7-24-24-24c-13.2,0-24,10.7-24,24c0,9.7,5.8,18,14,21.8c-12.2,3.8-22.3,14.6-27.7,28.8c-5.4-14.2-15.5-25-27.7-28.8
			c8.3-3.8,14-12.1,14-21.8c0-13.2-10.7-24-24-24c-13.2,0-24,10.7-24,24c0,9.7,5.8,18,14,21.8c-12.2,3.8-22.3,14.6-27.7,28.8
			c-5.4-14.2-15.5-25-27.7-28.8c8.3-3.8,14-12.1,14-21.8c0-13.2-10.7-24-24-24c-13.2,0-24,10.7-24,24c0,9.7,5.8,18,14,21.8
			c-12.2,3.8-22.3,14.6-27.7,28.8c-5.4-14.2-15.5-25-27.7-28.8c8.3-3.8,14-12.1,14-21.8c0-13.2-10.7-24-24-24c-13.2,0-24,10.7-24,24
			c0,9.7,5.8,18,14,21.8c-12.2,3.8-22.3,14.6-27.7,28.8c-5.4-14.2-15.5-25-27.7-28.8c8.3-3.8,14-12.1,14-21.8c0-13.2-10.7-24-24-24
			c-13.2,0-24,10.7-24,24c0,9.7,5.8,18,14,21.8c-12.2,3.8-22.3,14.6-27.7,28.8c-5.4-14.2-15.5-25-27.7-28.8c8.3-3.8,14-12.1,14-21.8
			c0-13.2-10.7-24-24-24c-13.2,0-24,10.7-24,24c0,9.7,5.8,18,14,21.8c-12.2,3.8-22.3,14.6-27.7,28.8c-5.4-14.2-15.5-25-27.7-28.8
			c8.3-3.8,14-12.1,14-21.8c0-13.2-10.7-24-24-24c-13.2,0-24,10.7-24,24c0,9.7,5.8,18,14,21.8c-12.2,3.8-22.3,14.6-27.7,28.8
			c-5.4-14.2-15.5-25-27.7-28.8c8.3-3.8,14-12.1,14-21.8c0-13.2-10.7-24-24-24c-13.2,0-24,10.7-24,24c0,9.7,5.8,18,14,21.8
			c-12.2,3.8-22.3,14.6-27.7,28.8c-5.4-14.2-15.5-25-27.7-28.8c8.3-3.8,14-12.1,14-21.8c0-13.2-10.7-24-24-24c-13.3,0-24,10.7-24,24
			c0,9.7,5.8,18,14,21.8c-12.2,3.8-22.3,14.6-27.7,28.8c-5.4-14.2-15.5-25-27.7-28.8c8.3-3.8,14-12.1,14-21.8c0-13.2-10.7-24-24-24
			c-13.3,0-24,10.7-24,24c0,9.7,5.8,18,14,21.8C13.6,390.3,0,411.5,0,436.8c0,4.3,0.4,8.4,1.1,12.4h0.2l-6.3,62.5H1447.4z"/>
		<path fill="#1C7363" d="M1447.4,589.7l-3.9-67.2l-5.2,0c0.3-2.5,0.5-5.1,0.5-7.7c0-25.2-13.6-46.4-31.8-52.1
			c8.3-3.8,14-12.1,14-21.8c0-13.2-10.7-24-24-24c-13.2,0-24,10.7-24,24c0,9.7,5.8,18,14,21.8c-12.2,3.8-22.3,14.6-27.7,28.8
			c-5.4-14.2-15.5-25-27.7-28.8c8.3-3.8,14-12.1,14-21.8c0-13.2-10.7-24-24-24c-13.2,0-24,10.7-24,24c0,9.7,5.8,18,14,21.8
			c-12.2,3.8-22.3,14.6-27.7,28.8c-5.4-14.2-15.5-25-27.7-28.8c8.3-3.8,14-12.1,14-21.8c0-13.2-10.7-24-24-24c-13.2,0-24,10.7-24,24
			c0,9.7,5.8,18,14,21.8c-12.2,3.8-22.3,14.6-27.7,28.8c-5.4-14.2-15.5-25-27.7-28.8c8.3-3.8,14-12.1,14-21.8c0-13.2-10.7-24-24-24
			c-13.2,0-24,10.7-24,24c0,9.7,5.8,18,14,21.8c-12.2,3.8-22.3,14.6-27.7,28.8c-5.4-14.2-15.5-25-27.7-28.8c8.3-3.8,14-12.1,14-21.8
			c0-13.2-10.7-24-24-24c-13.2,0-24,10.7-24,24c0,9.7,5.8,18,14,21.8c-12.2,3.8-22.3,14.6-27.7,28.8c-5.4-14.2-15.5-25-27.7-28.8
			c8.3-3.8,14-12.1,14-21.8c0-13.2-10.7-24-24-24c-13.2,0-24,10.7-24,24c0,9.7,5.8,18,14,21.8c-12.2,3.8-22.3,14.6-27.7,28.8
			c-5.4-14.2-15.5-25-27.7-28.8c8.3-3.8,14-12.1,14-21.8c0-13.2-10.7-24-24-24c-13.2,0-24,10.7-24,24c0,9.7,5.8,18,14,21.8
			c-12.2,3.8-22.3,14.6-27.7,28.8c-5.4-14.2-15.5-25-27.7-28.8c8.3-3.8,14-12.1,14-21.8c0-13.2-10.7-24-24-24c-13.2,0-24,10.7-24,24
			c0,9.7,5.8,18,14,21.8c-12.2,3.8-22.3,14.6-27.7,28.8c-5.4-14.2-15.5-25-27.7-28.8c8.3-3.8,14-12.1,14-21.8c0-13.2-10.7-24-24-24
			c-13.2,0-24,10.7-24,24c0,9.7,5.8,18,14,21.8c-12.2,3.8-22.3,14.6-27.7,28.8c-5.4-14.2-15.5-25-27.7-28.8c8.3-3.8,14-12.1,14-21.8
			c0-13.2-10.7-24-24-24c-13.2,0-24,10.7-24,24c0,9.7,5.8,18,14,21.8c-12.2,3.8-22.3,14.6-27.7,28.8c-5.4-14.2-15.5-25-27.7-28.8
			c8.3-3.8,14-12.1,14-21.8c0-13.2-10.7-24-24-24c-13.2,0-24,10.7-24,24c0,9.7,5.8,18,14,21.8c-12.2,3.8-22.3,14.6-27.7,28.8
			c-5.4-14.2-15.5-25-27.7-28.8c8.3-3.8,14-12.1,14-21.8c0-13.2-10.7-24-24-24c-13.2,0-24,10.7-24,24c0,9.7,5.8,18,14,21.8
			c-12.2,3.8-22.3,14.6-27.7,28.8c-5.4-14.2-15.5-25-27.7-28.8c8.3-3.8,14-12.1,14-21.8c0-13.2-10.7-24-24-24c-13.2,0-24,10.7-24,24
			c0,9.7,5.8,18,14,21.8c-12.2,3.8-22.3,14.6-27.7,28.8c-5.4-14.2-15.5-25-27.7-28.8c8.3-3.8,14-12.1,14-21.8c0-13.2-10.7-24-24-24
			c-13.2,0-24,10.7-24,24c0,9.7,5.8,18,14,21.8c-12.2,3.8-22.3,14.6-27.7,28.8c-5.4-14.2-15.5-25-27.7-28.8c8.3-3.8,14-12.1,14-21.8
			c0-13.2-10.7-24-24-24c-13.2,0-24,10.7-24,24c0,9.7,5.8,18,14,21.8c-12.2,3.8-22.3,14.6-27.7,28.8c-5.4-14.2-15.5-25-27.7-28.8
			c8.3-3.8,14-12.1,14-21.8c0-13.2-10.7-24-24-24c-13.2,0-24,10.7-24,24c0,9.7,5.8,18,14,21.8c-12.2,3.8-22.3,14.6-27.7,28.8
			c-5.4-14.2-15.5-25-27.7-28.8c8.3-3.8,14-12.1,14-21.8c0-13.2-10.7-24-24-24c-13.2,0-24,10.7-24,24c0,9.7,5.8,18,14,21.8
			c-12.2,3.8-22.3,14.6-27.7,28.8c-5.4-14.2-15.5-25-27.7-28.8c8.3-3.8,14-12.1,14-21.8c0-13.2-10.7-24-24-24c-13.3,0-24,10.7-24,24
			c0,9.7,5.8,18,14,21.8c-12.2,3.8-22.3,14.6-27.7,28.8c-5.4-14.2-15.5-25-27.7-28.8c8.3-3.8,14-12.1,14-21.8c0-13.2-10.7-24-24-24
			c-13.3,0-24,10.7-24,24c0,9.7,5.8,18,14,21.8C13.6,468.3,0,489.5,0,514.8c0,4.3,0.4,8.4,1.1,12.4h0.2l-6.3,62.5H1447.4z"/>
		<rect y="609.7" fill="#609161" width="1440" height="90.3"/>
		<rect x="-15.1" y="521.7" fill="#404240" width="1469.3" height="88"/>
	</g>
</g>
</svg>
