<?xml version="1.0" encoding="utf-8"?>
<!-- Generator: Adobe Illustrator 16.0.0, SVG Export Plug-In . SVG Version: 6.00 Build 0)  -->
<!DOCTYPE svg PUBLIC "-//W3C//DTD SVG 1.1//EN" "http://www.w3.org/Graphics/SVG/1.1/DTD/svg11.dtd">
<svg version="1.1" id="Layer_1" xmlns="http://www.w3.org/2000/svg" xmlns:xlink="http://www.w3.org/1999/xlink" x="0px" y="0px"
	 width="1593.1px" height="192.1px" viewBox="0 0 1593.1 192.1" enable-background="new 0 0 1593.1 192.1" xml:space="preserve">
<g>
	<path fill="#FFFFFF" d="M221.7,14.6c-25.1,0-48.4,3.6-67.5,9.8c-12.3-4.9-27.2-7.8-43.3-7.8c-41.7,0-75.5,19.3-75.5,43.1
		c0,5.4,1.8,10.7,5,15.5c-5.7,6.8-8.9,14.6-8.9,22.8c0,5.8,1.6,11.4,4.6,16.6C18.8,122.2,8,133,8,145c0,23.3,40.8,42.1,91.1,42.1
		c38.8,0,71.9-11.2,85.1-27c11.6,3.4,25.1,5.4,39.4,5.4c44.4,0,80.4-18.9,80.4-42.1c0-5-1.7-9.9-4.8-14.4
		c24.6-9.9,40.1-24.4,40.1-40.5C339.3,38.8,286.6,14.6,221.7,14.6z"/>
	<path fill="#FFFFFF" d="M1583.7,117c-2.3-11.8-14.9-20.3-33.4-24.6c1.9-5.7,2.5-11.5,1.4-17.2c-1.5-8.1-6.2-15-13.1-20.7
		c2.3-5.3,3-10.8,2-16.1c-4.5-23.4-41.3-36-82.2-28.1c-15.8,3-29.9,8.7-41,15.8c-19.9-2.4-43.5-1.6-68.1,3.1
		c-14,2.7-27.2,6.4-39.2,10.9c-12.8-7.2-32.6-9.7-53.7-5.6c-13.1,2.5-24.8,7.2-34,13.1c-16.5-2-36-1.3-56.4,2.6
		c-52.8,10.1-91.9,38-87.2,62.2c2.5,13.1,17.4,22.5,38.9,26.7c-1.8,4.1-2.4,8.3-1.7,12.4c3.6,18.9,35.8,28.7,71.9,21.7
		c11.7-2.2,22.3-5.9,31.2-10.6c13.2,10.8,41.8,14.7,73.4,8.7c3.2-0.6,6.3-1.3,9.3-2.1c15.8,10.5,43.7,14.4,73.9,8.6
		c14.1-2.7,26.9-7.2,37.7-12.7c15.9,13,50.5,17.8,88.6,10.5C1551.6,166.1,1588.1,139.9,1583.7,117z"/>
</g>
</svg>
