<?xml version="1.0" encoding="utf-8"?>
<!-- Generator: Adobe Illustrator 16.0.0, SVG Export Plug-In . SVG Version: 6.00 Build 0)  -->
<!DOCTYPE svg PUBLIC "-//W3C//DTD SVG 1.1//EN" "http://www.w3.org/Graphics/SVG/1.1/DTD/svg11.dtd">
<svg version="1.1" id="Layer_1" xmlns="http://www.w3.org/2000/svg" xmlns:xlink="http://www.w3.org/1999/xlink" x="0px" y="0px"
	 width="37px" height="37px" viewBox="0 0 37 37" enable-background="new 0 0 37 37" xml:space="preserve">
<g>
	<path fill="#213A9F" d="M18.5,37c8.042,0,14.865-5.141,17.415-12.307H1.085C3.635,31.859,10.458,37,18.5,37z"/>
	<path fill="#FFFFFF" d="M35.915,12.305H1.085C0.396,14.244,0,16.322,0,18.499s0.396,4.255,1.085,6.194h34.829
		C36.604,22.754,37,20.676,37,18.499S36.604,14.244,35.915,12.305z"/>
	<path fill="#D64243" d="M18.5,0C10.458,0,3.636,5.139,1.085,12.305h34.829C33.364,5.139,26.542,0,18.5,0z"/>
	<path fill="#D64242" d="M25.092,12.678v-0.375h-0.093v0.095h-0.094h0.094v-0.095h-0.28h-6.22h-6.221h-0.373v0.375l-0.001,7.518
		l-0.001,0.174l0.018,0.442c0.076,0.649,0.258,1.271,0.542,1.849c0.252,0.51,0.583,0.994,0.982,1.438
		c0.657,0.727,1.486,1.326,2.404,1.738c0.728,0.324,1.683,0.534,2.631,0.583h0.014l0.004,0.002l0.018-0.002
		c0.948-0.049,1.904-0.259,2.631-0.583c0.917-0.412,1.749-1.012,2.403-1.738c0.4-0.443,0.731-0.928,0.982-1.438
		c0.285-0.578,0.468-1.199,0.545-1.849l0.016-0.442l-0.001-0.176L25.092,12.678z M24.893,20.789
		c-0.077,0.627-0.252,1.23-0.526,1.788c-0.244,0.494-0.566,0.964-0.954,1.397c-0.638,0.705-1.448,1.292-2.342,1.689
		c-0.698,0.312-1.636,0.522-2.564,0.568h-0.008h-0.01c-0.926-0.046-1.863-0.256-2.561-0.568c-0.895-0.397-1.706-0.984-2.341-1.689
		c-0.391-0.434-0.712-0.903-0.955-1.397c-0.274-0.558-0.45-1.161-0.526-1.788l-0.016-0.42l0.002-0.172v-7.52V12.49h0.187h6.221h6.22
		h0.187l0.002,0.188v7.518l0.002,0.174L24.893,20.789z"/>
	<path fill="#D64242" d="M24.86,12.539h-0.141h-6.22h-6.221h-0.14v0.139l-0.001,7.518l0.015,0.588
		c0.074,0.623,0.249,1.221,0.521,1.771c0.241,0.494,0.561,0.959,0.946,1.389c0.635,0.701,1.438,1.283,2.325,1.68
		c0.699,0.312,1.627,0.518,2.549,0.562h0.006h0.007c0.922-0.044,1.85-0.25,2.547-0.562c0.888-0.396,1.691-0.979,2.326-1.68
		c0.384-0.43,0.705-0.895,0.946-1.389c0.271-0.551,0.447-1.148,0.521-1.771l0.015-0.586l-0.001-7.52V12.539z"/>
	<rect x="19.729" y="12.783" fill="#FFFFFF" width="2.46" height="2.627"/>
	<rect x="17.27" y="15.41" fill="#FFFFFF" width="2.459" height="2.635"/>
	<rect x="22.188" y="15.41" fill="#FFFFFF" width="2.427" height="2.635"/>
	<rect x="12.383" y="15.41" fill="#FFFFFF" width="2.427" height="2.635"/>
	<rect x="17.27" y="20.678" fill="#FFFFFF" width="2.459" height="2.636"/>
	<path fill="#FFFFFF" d="M22.188,23.313h1.387c0.206-0.276,0.384-0.567,0.531-0.868c0.259-0.524,0.428-1.094,0.498-1.69l0.007-0.077
		h-2.422V23.313z"/>
	<path fill="#FFFFFF" d="M12.395,20.755c0.071,0.597,0.238,1.166,0.499,1.69c0.146,0.301,0.325,0.592,0.529,0.868h1.388v-2.636
		H12.39L12.395,20.755z"/>
	<rect x="14.811" y="12.783" fill="#FFFFFF" width="2.459" height="2.627"/>
	<rect x="19.729" y="18.045" fill="#FFFFFF" width="2.46" height="2.633"/>
	<rect x="14.811" y="18.045" fill="#FFFFFF" width="2.459" height="2.633"/>
	<path fill="#FFFFFF" d="M19.729,25.783c0.447-0.095,0.868-0.225,1.225-0.383c0.437-0.196,0.85-0.437,1.235-0.715v-1.372h-2.46
		V25.783z"/>
	<path fill="#FFFFFF" d="M14.811,24.686c0.385,0.278,0.798,0.519,1.234,0.715c0.357,0.158,0.778,0.288,1.225,0.383v-2.47h-2.459
		V24.686z"/>
	<path fill="#FFFFFF" d="M24.999,12.397h-0.28h-6.22h-6.221H12v0.28l-0.001,7.518l0.014,0.604c0.077,0.641,0.256,1.254,0.534,1.818
		c0.249,0.504,0.575,0.98,0.969,1.418c0.646,0.717,1.468,1.311,2.374,1.716c0.711,0.319,1.658,0.526,2.596,0.575h0.014h0.014
		c0.938-0.049,1.883-0.256,2.597-0.575c0.906-0.405,1.726-0.999,2.372-1.716c0.395-0.438,0.722-0.914,0.97-1.418
		c0.278-0.564,0.458-1.178,0.535-1.818L25,20.195l-0.001-7.518V12.397z M24.706,20.768c-0.069,0.599-0.241,1.184-0.507,1.727
		c-0.242,0.492-0.558,0.948-0.925,1.355c-0.631,0.699-1.416,1.26-2.278,1.645c-0.747,0.334-1.678,0.511-2.497,0.551
		c-0.819-0.04-1.75-0.217-2.497-0.551c-0.861-0.385-1.646-0.945-2.278-1.645c-0.367-0.407-0.683-0.863-0.926-1.355
		c-0.265-0.543-0.436-1.128-0.506-1.727l-0.014-0.57l0.001-7.52h6.221h6.22l0.002,7.52L24.706,20.768z"/>
	<path fill="#D64243" d="M25.47,6.658l-0.321,0.129c-0.289,0.121-0.722,0.299-1.083,0.447l-0.465,0.188l-0.142,0.057l-0.021,0.008
		h-0.001c-0.1-0.104-0.454-0.488-0.783-0.85l-0.441-0.482l-0.14-0.155l-0.04-0.042l-0.009-0.011l-0.002-0.004h-0.002l-0.03-0.034
		l-1.839,1.113L18.423,5.7L16.798,7l-1.896-1.098l-1.383,1.645l-2.076-0.889l-1.144,2.051l1.666,3.35l0.046-0.019
		c2.003-0.712,4.227-1.098,6.4-1.104h0.052c2.156,0,4.353,0.343,6.524,1.122l0.046,0.014l1.668-3.365l-1.186-2.066L25.47,6.658z"/>
	<path fill="#FFFFFF" d="M23.425,7.549l-1.446-1.57l-1.833,1.107L18.423,5.77l-1.619,1.297l-1.892-1.092l-1.379,1.637l-2.067-0.882
		L10.36,8.711l1.632,3.279c2.01-0.715,4.241-1.103,6.418-1.108c2.177-0.006,4.399,0.337,6.595,1.124l1.633-3.297L25.49,6.707
		L23.425,7.549z"/>
	<path fill="#515490" d="M21.944,6.262c-0.605,0.342-1.21,0.689-1.816,1.035c-0.102,1.137-0.202,2.275-0.306,3.414v0.004
		c0.547,0.044,1.096,0.096,1.64,0.184c0.312,0.05,0.623,0.113,0.934,0.176c0.297-1.033,0.593-2.068,0.89-3.104l0.051-0.176
		l0.003-0.004V7.785c-0.465-0.507-0.93-1.016-1.395-1.523H21.944z"/>
	<polygon fill="#D64242" points="22.327,8.285 22.079,8.303 21.926,8.285 21.788,8.225 21.65,8.172 21.639,8.146 21.734,8.15 
		21.897,8.142 22.02,8.102 22.174,7.998 22.174,7.952 22.101,7.95 22.041,7.98 21.863,8.004 21.724,7.977 21.564,7.926 
		21.493,7.918 21.404,7.881 21.336,7.873 21.146,7.879 20.855,7.954 20.721,8.069 21.08,8.309 21.23,8.281 21.434,8.34 
		21.564,8.396 21.91,8.457 22.178,8.434 22.445,8.311 22.448,8.271 22.386,8.27 	"/>
	<polygon fill="#8E413F" points="21.153,7.892 21.191,7.971 21.211,8.062 21.22,8.079 21.222,7.998 21.193,7.89 	"/>
	<polygon fill="#8E413F" points="21.46,8.092 21.474,8.047 21.485,7.92 21.445,7.906 	"/>
	<polygon fill="#8E413F" points="20.846,7.971 20.784,8.015 20.884,8.047 20.954,8.098 20.938,8.045 	"/>
	<polygon fill="#8E413F" points="21.687,8.009 21.718,8.144 21.735,8.148 21.724,8.035 	"/>
	<polygon fill="#8E413F" points="21.928,8.111 21.968,8.102 21.969,8.029 21.937,8.029 	"/>
	<polygon fill="#544D2E" points="22.662,8.804 22.646,8.721 22.607,8.685 22.548,8.721 22.46,8.785 22.378,8.812 22.276,8.799 
		22.163,8.797 22.063,8.813 21.991,8.799 21.91,8.793 21.844,8.82 21.742,8.834 21.687,8.832 21.573,8.848 21.516,8.868 
		21.456,8.85 21.322,8.838 21.251,8.822 21.191,8.781 21.025,8.562 21.258,8.448 21.347,8.317 21.097,8.327 21.065,8.319 
		20.704,8.079 20.604,8.134 20.555,8.182 20.329,8.069 20.288,8.127 20.308,8.225 20.429,8.346 20.375,8.505 20.31,8.628 
		20.296,8.734 20.347,8.779 20.546,8.768 20.53,8.85 20.581,8.879 20.56,8.92 20.563,8.941 20.642,8.961 20.471,9.131 20.44,9.217 
		20.486,9.248 20.45,9.3 20.464,9.362 20.514,9.369 20.516,9.542 20.502,9.606 20.497,9.724 20.396,9.865 20.318,9.977 
		20.283,10.083 20.495,10.137 20.527,10.087 20.546,9.988 20.55,9.951 20.692,9.724 20.721,9.701 20.819,9.68 20.889,9.713 
		20.826,9.899 20.825,10.107 20.789,10.176 20.729,10.335 20.872,10.375 20.915,10.383 20.922,10.386 20.962,10.342 21.018,10.301 
		21.031,10.147 21.046,10.045 21.123,9.939 21.209,9.778 21.282,9.776 21.354,9.734 21.395,9.76 21.499,9.722 21.548,9.76 
		21.676,9.752 21.548,9.957 21.526,10.006 21.512,10.066 21.472,10.125 21.656,10.17 21.684,10.093 21.769,10.049 21.801,9.955 
		21.841,9.92 22.016,9.74 22.131,9.818 22.141,9.851 22.136,10.016 22.115,10.089 22.019,10.234 21.994,10.283 22.178,10.354 
		22.295,10.262 22.299,10.153 22.323,10.1 22.494,9.939 22.514,9.914 22.521,9.782 22.482,9.752 22.483,9.625 22.518,9.582 
		22.499,9.536 22.506,9.383 22.53,9.32 22.609,9.211 22.626,9.169 22.631,9.096 22.607,9.052 22.664,8.929 	"/>
	<polygon fill="#F9F738" points="22.611,8.695 22.568,8.717 22.466,8.795 22.392,8.822 22.27,8.808 22.162,8.808 22.078,8.824 
		21.986,8.81 21.91,8.804 21.855,8.826 21.781,8.846 21.692,8.842 21.535,8.874 21.463,8.862 21.304,8.846 21.223,8.82 
		21.009,8.553 21.238,8.453 21.331,8.33 21.075,8.34 20.712,8.096 20.673,8.102 20.557,8.196 20.33,8.079 20.296,8.138 
		20.321,8.227 20.44,8.34 20.376,8.527 20.311,8.65 20.307,8.732 20.347,8.77 20.56,8.758 20.538,8.842 20.598,8.87 20.57,8.933 
		20.666,8.949 20.489,9.129 20.449,9.199 20.465,9.233 20.512,9.237 20.46,9.302 20.474,9.356 20.533,9.351 20.513,9.43 
		20.527,9.549 20.516,9.599 20.506,9.729 20.462,9.768 20.409,9.865 20.338,9.962 20.29,10.074 20.487,10.125 20.528,10.059 
		20.534,9.957 20.687,9.707 20.805,9.669 20.9,9.711 20.836,9.901 20.834,10.089 20.827,10.137 20.787,10.195 20.74,10.327 
		20.917,10.375 20.943,10.344 21.012,10.299 21.025,10.076 21.109,9.939 21.2,9.766 21.281,9.766 21.359,9.711 21.39,9.75 
		21.503,9.707 21.529,9.74 21.576,9.752 21.698,9.736 21.544,9.984 21.534,10.045 21.485,10.117 21.649,10.158 21.676,10.087 
		21.76,10.045 21.792,9.947 21.837,9.909 22.014,9.729 22.133,9.807 22.151,9.845 22.144,10.024 22.123,10.093 22.027,10.24 
		22.007,10.278 22.177,10.339 22.286,10.256 22.29,10.137 22.319,10.089 22.504,9.918 22.51,9.788 22.479,9.768 22.468,9.724 
		22.474,9.621 22.506,9.586 22.489,9.534 22.498,9.371 22.612,9.186 22.623,9.1 22.599,9.037 22.65,8.949 22.652,8.857 
		22.647,8.747 	"/>
	<polygon fill="#8E413F" points="21.378,8.202 21.371,8.281 21.416,8.184 21.35,8.086 	"/>
	<polygon fill="#8E413F" points="21.009,8.102 21.051,8.168 21.088,8.281 21.12,8.257 21.105,8.172 	"/>
	<polygon fill="#8E413F" points="21.671,8.184 21.636,8.346 21.625,8.363 21.679,8.332 21.705,8.293 21.686,8.196 	"/>
	<polygon fill="#8E413F" points="21.906,8.287 21.948,8.357 21.924,8.442 21.969,8.444 21.992,8.384 21.956,8.303 	"/>
	<polygon fill="#8E413F" points="22.155,8.307 22.165,8.422 22.2,8.402 22.195,8.307 	"/>
	<polygon fill="#544D2E" points="20.938,8.451 21.046,8.497 21.103,8.471 21.161,8.437 21.243,8.371 21.022,8.395 	"/>
	<polygon fill="#544D2E" points="20.603,8.428 20.681,8.461 20.734,8.488 20.773,8.465 20.848,8.428 20.734,8.395 	"/>
	<polygon fill="#544D2E" points="22.506,8.906 22.583,8.896 22.606,8.732 22.483,8.862 	"/>
	<polygon fill="#544D2E" points="22.006,9.025 21.961,9.02 21.988,9.127 22.014,9.271 22.042,9.271 22.037,9.231 	"/>
	<polygon fill="#544D2E" points="20.744,9.033 20.7,9.025 20.726,9.135 20.754,9.277 20.78,9.279 20.775,9.239 	"/>
	<polygon fill="#544D2E" points="20.944,9.49 20.901,9.481 20.929,9.588 20.955,9.734 20.981,9.734 20.977,9.693 	"/>
	<polygon fill="#544D2E" points="22.141,9.451 22.098,9.443 22.126,9.555 22.151,9.695 22.18,9.697 22.173,9.657 	"/>
	<polygon fill="#544D2E" points="21.164,9.076 21.139,9.076 21.142,9.106 21.186,9.279 21.235,9.271 21.222,9.221 	"/>
	<polygon fill="#544D2E" points="21.719,8.973 21.692,8.973 21.697,9.004 21.74,9.177 21.79,9.169 21.775,9.114 	"/>
	<polygon fill="#544D2E" points="21.442,9.006 21.417,9.006 21.419,9.035 21.464,9.211 21.512,9.203 21.497,9.148 	"/>
	<polygon fill="#544D2E" points="22.282,9.305 22.221,9.189 22.189,9.114 22.191,9.146 22.245,9.33 22.269,9.483 22.307,9.455 
		22.425,9.451 22.408,9.43 	"/>
	<polygon fill="#544D2E" points="21.656,9.393 21.628,9.512 21.636,9.538 21.679,9.443 21.695,9.211 21.688,9.211 	"/>
	<polygon fill="#544D2E" points="21.35,9.472 21.322,9.59 21.328,9.617 21.372,9.52 21.389,9.287 21.382,9.287 	"/>
	<polygon fill="#D64242" points="20.182,10.206 20.189,10.301 20.366,10.299 20.435,10.278 20.482,10.214 20.483,10.144 
		20.275,10.098 	"/>
	<polygon fill="#D64242" points="21.373,10.229 21.376,10.305 21.538,10.312 21.611,10.299 21.639,10.258 21.651,10.184 
		21.464,10.137 	"/>
	<polygon fill="#D64242" points="21.877,10.39 21.877,10.48 22.057,10.498 22.166,10.418 22.169,10.363 21.983,10.301 	"/>
	<polygon fill="#D64242" points="20.717,10.35 20.64,10.424 20.64,10.513 20.808,10.511 20.874,10.486 20.914,10.383 20.872,10.375 
			"/>
	<path fill="#515490" d="M15.217,6.385l-0.248-0.146h-0.002c-0.442,0.535-1.336,1.617-1.336,1.617
		c0.284-0.131,0.819-0.331,1.242-0.42l0.639-0.095c0.433-0.042,0.866-0.044,1.3-0.044l-0.025-0.019
		C16.263,6.981,15.74,6.681,15.217,6.385z"/>
	<path fill="#D64242" d="M16.79,7.297c-0.433,0-0.867,0.002-1.298,0.044l-0.64,0.095c-0.423,0.089-0.833,0.234-1.224,0.42
		l0.047,0.18l0.004,0.021l0.152,0.562l0.469-0.161c0.245-0.073,0.498-0.121,0.75-0.164L15.764,8.2l0.656-0.044l0.296-0.002
		l0.167-0.004c-0.022-0.283-0.049-0.572-0.072-0.854H16.79z"/>
	<path fill="#515490" d="M16.883,8.15l-0.167,0.004L16.42,8.156L15.764,8.2l-0.713,0.093c-0.252,0.043-0.504,0.091-0.75,0.164
		l-0.469,0.161c0.118,0.446,0.238,0.892,0.356,1.333L14.2,9.994l0.002-0.006l-0.167-0.624V9.342c0.423-0.143,0.858-0.256,1.299-0.32
		c0.537-0.082,1.082-0.085,1.622-0.055l-0.062-0.68L16.883,8.15z"/>
	<path fill="#D64242" d="M16.956,8.967c-0.54-0.03-1.084-0.027-1.622,0.055c-0.44,0.064-0.875,0.178-1.299,0.32v0.022l0.167,0.624
		L14.2,9.994l0.006,0.008l0.063,0.238h0.004c0.503-0.127,1.014-0.22,1.528-0.285c0.411-0.052,0.822-0.084,1.236-0.108l0.002-0.004
		c-0.024-0.288-0.051-0.581-0.079-0.874L16.956,8.967z"/>
	<path fill="#515490" d="M15.802,9.955c-0.514,0.065-1.025,0.158-1.528,0.285H14.27L14.206,10L14.2,9.994
		c0.097,0.361,0.192,0.721,0.291,1.08c0.322-0.055,0.648-0.113,0.972-0.162c0.549-0.089,1.102-0.149,1.655-0.188v-0.012
		c-0.027-0.291-0.053-0.578-0.079-0.866C16.625,9.871,16.213,9.903,15.802,9.955z"/>
	<path fill="#6690D9" d="M11.544,6.967h-0.003c-0.328,0.574-0.659,1.15-0.986,1.726v0.003c0.493,1.041,0.982,2.082,1.477,3.123
		c0.287-0.109,0.575-0.223,0.868-0.321c0.253-0.089,0.509-0.167,0.77-0.233c0.259-0.068,0.522-0.127,0.785-0.18v-0.01
		c-0.289-1.072-0.576-2.146-0.865-3.217C12.907,7.561,12.226,7.264,11.544,6.967z"/>
	<polygon fill="#FFFFFF" points="13.284,9.77 12.829,10.051 12.294,10.151 11.612,10.098 11.867,10.414 12.339,10.638 
		13.005,10.588 13.138,10.525 13.382,10.348 13.642,9.945 13.652,9.324 13.592,9.411 	"/>
	<polygon fill="#FED137" points="12.547,7.943 12.186,8.079 11.839,7.829 11.79,8.227 11.38,8.402 11.744,8.662 11.698,9.066 
		12.069,8.896 12.362,9.114 12.449,8.741 12.829,8.588 12.49,8.317 	"/>
	<polygon fill="#FAFC46" points="12.479,8.317 12.539,7.954 12.109,8.482 	"/>
	<polygon fill="#FAFC46" points="12.109,8.482 12.138,8.077 11.848,7.854 	"/>
	<polygon fill="#FAFC46" points="12.058,8.885 12.109,8.482 11.726,9.046 	"/>
	<polygon fill="#FAFC46" points="11.731,8.63 12.109,8.482 11.431,8.418 	"/>
	<polygon fill="#FAFC46" points="12.351,9.086 12.438,8.73 12.798,8.584 12.11,8.482 	"/>
	<path fill="#6690D9" d="M18.426,6.043c-0.528,0.42-1.057,0.84-1.586,1.262v0.006c0.105,1.134,0.21,2.27,0.315,3.404
		c0.527-0.022,1.055-0.039,1.584-0.033c0.332,0.004,0.665,0.015,1,0.033h0.054c0.097-1.135,0.193-2.264,0.291-3.395v-0.02
		C19.531,6.881,18.978,6.463,18.426,6.043L18.426,6.043z"/>
	<polygon fill="#544D2E" points="18.317,8.263 18.275,8.2 18.265,8.109 18.142,7.99 18.114,7.829 18.035,7.795 18.034,7.695 
		18.122,7.574 18.11,7.512 18.016,7.512 17.969,7.547 17.869,7.574 17.863,7.595 17.882,7.68 17.814,7.68 17.808,7.572 
		17.665,7.502 17.53,7.593 17.522,7.688 17.478,7.701 17.431,7.633 17.409,7.611 17.327,7.578 17.237,7.568 17.237,7.655 
		17.346,7.801 17.338,7.873 17.248,7.896 17.25,8.057 17.144,8.079 17.062,8.232 17.112,8.279 17.076,8.382 17.112,8.438 
		17.135,8.516 17.21,8.525 17.229,8.628 17.338,8.645 17.386,8.672 17.452,8.721 17.459,8.77 17.574,8.771 17.682,8.797 
		17.975,8.766 18.017,8.699 18.021,8.624 18.177,8.618 18.192,8.486 18.276,8.486 18.266,8.34 18.339,8.346 	"/>
	<polygon fill="#F8F638" points="17.693,7.602 17.683,7.534 17.667,7.528 17.65,7.539 17.641,7.602 17.55,7.615 17.547,7.655 
		17.634,7.649 17.646,7.611 17.687,7.609 17.71,7.647 17.79,7.662 17.789,7.6 	"/>
	<polygon fill="#F8F638" points="17.906,7.678 17.905,7.699 17.775,7.697 17.562,7.706 17.468,7.727 17.461,7.716 17.375,7.716 
		17.255,7.591 17.254,7.646 17.367,7.791 17.36,7.867 17.412,7.873 17.479,7.855 17.896,7.822 17.994,7.818 18.016,7.795 
		18.012,7.699 18.023,7.674 18.098,7.568 18.092,7.534 	"/>
	<polygon fill="#F8F638" points="17.911,7.846 17.821,7.833 17.475,7.881 17.4,7.941 17.405,7.99 17.44,8.045 17.672,8.047 
		17.672,7.948 17.602,7.91 17.643,7.899 17.797,7.899 17.719,7.952 17.719,8.035 17.854,8.039 17.928,8.039 17.987,8.025 
		17.977,7.938 	"/>
	<polygon fill="#F8F638" points="17.925,8.105 17.869,8.204 17.827,8.211 17.741,8.098 17.659,8.102 17.613,8.211 17.602,8.232 
		17.552,8.227 17.459,8.127 17.423,8.066 17.386,8.069 17.386,8.184 17.42,8.209 17.43,8.257 17.495,8.285 17.5,8.34 17.566,8.374 
		17.588,8.461 17.613,8.471 17.68,8.428 17.68,8.369 17.62,8.355 17.572,8.307 17.653,8.319 17.736,8.319 17.808,8.291 17.793,8.33 
		17.726,8.371 17.729,8.428 17.861,8.444 17.922,8.38 17.931,8.263 18.018,8.248 18.024,8.053 18.005,8.043 	"/>
	<polygon fill="#F8F638" points="18.25,8.184 18.131,8.196 18.05,8.307 18.042,8.325 18.042,8.475 18.045,8.501 18.1,8.598 
		18.158,8.598 18.171,8.471 18.151,8.388 18.17,8.38 18.195,8.465 18.255,8.465 18.244,8.336 18.202,8.273 18.221,8.259 
		18.261,8.317 18.311,8.321 18.298,8.273 	"/>
	<polygon fill="#F8F638" points="17.245,8.265 17.153,8.27 17.188,8.336 17.14,8.457 17.152,8.492 17.168,8.497 17.155,8.488 
		17.268,8.371 	"/>
	<polygon fill="#F8F638" points="17.285,8.391 17.231,8.52 17.248,8.607 17.317,8.618 17.311,8.412 	"/>
	<polygon fill="#F8F638" points="17.635,8.507 17.641,8.558 17.694,8.607 17.785,8.607 17.825,8.553 17.848,8.492 17.708,8.461 	"/>
	<polygon fill="#F8F638" points="17.885,8.584 17.904,8.672 17.918,8.695 17.965,8.736 17.997,8.69 18.001,8.602 18.034,8.602 
		17.991,8.527 	"/>
	<polygon fill="#F8F638" points="17.392,8.558 17.379,8.641 17.471,8.705 17.474,8.721 17.489,8.705 17.472,8.551 	"/>
	<polygon fill="#F8F638" points="17.756,8.699 17.734,8.771 17.854,8.756 17.805,8.679 	"/>
	<polygon fill="#F8F638" points="17.64,8.721 17.614,8.758 17.677,8.775 17.724,8.771 17.694,8.717 	"/>
	<polygon fill="#F8F638" points="17.508,8.123 17.552,8.156 17.596,8.123 17.552,8.09 	"/>
	<polygon fill="#F8F638" points="17.793,8.123 17.838,8.156 17.882,8.123 17.838,8.09 	"/>
	<polygon fill="#544D2E" points="19.811,8.263 19.766,8.2 19.757,8.109 19.634,7.99 19.607,7.829 19.528,7.795 19.525,7.695 
		19.613,7.574 19.602,7.512 19.509,7.512 19.462,7.547 19.361,7.574 19.356,7.595 19.375,7.68 19.305,7.68 19.301,7.572 
		19.157,7.502 19.022,7.593 19.017,7.688 18.971,7.701 18.924,7.633 18.902,7.611 18.818,7.578 18.729,7.568 18.729,7.655 
		18.839,7.801 18.83,7.873 18.739,7.896 18.743,8.057 18.637,8.079 18.555,8.232 18.603,8.279 18.567,8.382 18.606,8.438 
		18.628,8.516 18.703,8.525 18.722,8.628 18.829,8.645 18.88,8.672 18.943,8.721 18.952,8.77 19.066,8.771 19.175,8.797 
		19.465,8.766 19.51,8.699 19.512,8.624 19.67,8.618 19.685,8.486 19.768,8.486 19.759,8.34 19.831,8.346 	"/>
	<polygon fill="#F8F638" points="19.184,7.602 19.175,7.534 19.158,7.528 19.143,7.539 19.134,7.602 19.041,7.615 19.038,7.655 
		19.125,7.649 19.138,7.611 19.18,7.609 19.202,7.647 19.283,7.662 19.281,7.6 	"/>
	<polygon fill="#F8F638" points="19.397,7.678 19.397,7.699 19.269,7.697 19.055,7.706 18.963,7.727 18.954,7.716 18.867,7.716 
		18.748,7.591 18.747,7.646 18.86,7.791 18.852,7.867 18.902,7.873 18.971,7.855 19.39,7.822 19.487,7.818 19.507,7.795 
		19.503,7.699 19.514,7.674 19.591,7.568 19.585,7.534 	"/>
	<polygon fill="#F8F638" points="19.406,7.846 19.313,7.833 18.967,7.881 18.894,7.941 18.898,7.99 18.932,8.045 19.166,8.047 
		19.164,7.948 19.096,7.91 19.136,7.899 19.289,7.899 19.212,7.952 19.212,8.035 19.348,8.039 19.421,8.039 19.48,8.025 
		19.469,7.938 	"/>
	<polygon fill="#F8F638" points="19.418,8.105 19.359,8.204 19.32,8.211 19.234,8.098 19.151,8.102 19.106,8.211 19.096,8.232 
		19.045,8.227 18.95,8.127 18.914,8.066 18.877,8.069 18.88,8.184 18.914,8.209 18.923,8.257 18.989,8.285 18.993,8.34 
		19.059,8.374 19.081,8.461 19.106,8.471 19.173,8.428 19.172,8.369 19.111,8.355 19.064,8.307 19.145,8.319 19.229,8.319 
		19.301,8.291 19.285,8.33 19.217,8.371 19.22,8.428 19.354,8.444 19.414,8.38 19.422,8.263 19.51,8.248 19.516,8.053 19.499,8.043 
			"/>
	<polygon fill="#F8F638" points="19.744,8.184 19.624,8.196 19.543,8.307 19.535,8.325 19.535,8.475 19.539,8.501 19.591,8.598 
		19.651,8.598 19.664,8.471 19.642,8.388 19.664,8.38 19.687,8.465 19.747,8.465 19.737,8.336 19.694,8.273 19.712,8.259 
		19.752,8.317 19.804,8.321 19.79,8.273 	"/>
	<polygon fill="#F8F638" points="18.737,8.265 18.646,8.27 18.681,8.336 18.633,8.457 18.646,8.492 18.66,8.497 18.646,8.488 
		18.76,8.371 	"/>
	<polygon fill="#F8F638" points="18.777,8.391 18.724,8.52 18.739,8.607 18.811,8.618 18.804,8.412 	"/>
	<polygon fill="#F8F638" points="19.128,8.507 19.134,8.558 19.187,8.607 19.275,8.607 19.316,8.553 19.341,8.492 19.201,8.461 	"/>
	<polygon fill="#F8F638" points="19.379,8.584 19.396,8.672 19.411,8.695 19.458,8.736 19.489,8.69 19.494,8.602 19.528,8.602 
		19.482,8.527 	"/>
	<polygon fill="#F8F638" points="18.883,8.558 18.872,8.641 18.964,8.705 18.967,8.721 18.982,8.705 18.965,8.551 	"/>
	<polygon fill="#F8F638" points="19.249,8.699 19.227,8.771 19.346,8.756 19.297,8.679 	"/>
	<polygon fill="#F8F638" points="19.132,8.721 19.107,8.758 19.169,8.775 19.217,8.771 19.187,8.717 	"/>
	<polygon fill="#F8F638" points="19,8.123 19.045,8.156 19.089,8.123 19.045,8.09 	"/>
	<polygon fill="#F8F638" points="19.286,8.123 19.33,8.156 19.375,8.123 19.33,8.09 	"/>
	<polygon fill="#544D2E" points="19.064,9.562 19.022,9.5 19.013,9.411 18.889,9.287 18.861,9.131 18.782,9.092 18.781,8.997 
		18.868,8.874 18.858,8.813 18.763,8.812 18.718,8.848 18.617,8.874 18.612,8.896 18.63,8.979 18.561,8.979 18.558,8.874 
		18.411,8.804 18.278,8.895 18.271,8.989 18.225,9.004 18.178,8.933 18.156,8.91 18.074,8.881 17.983,8.87 17.983,8.957 18.094,9.1 
		18.084,9.173 17.995,9.197 17.999,9.356 17.893,9.381 17.808,9.534 17.858,9.58 17.823,9.68 17.859,9.74 17.885,9.814 
		17.958,9.824 17.976,9.926 18.084,9.941 18.135,9.972 18.199,10.018 18.206,10.066 18.32,10.07 18.43,10.1 18.722,10.066 
		18.763,9.996 18.77,9.924 18.924,9.918 18.939,9.788 19.023,9.788 19.015,9.639 19.088,9.646 	"/>
	<polygon fill="#F8F638" points="18.44,8.9 18.431,8.836 18.414,8.826 18.397,8.84 18.388,8.9 18.297,8.916 18.295,8.957 
		18.38,8.949 18.392,8.91 18.435,8.91 18.458,8.947 18.538,8.961 18.536,8.896 	"/>
	<polygon fill="#F8F638" points="18.652,8.979 18.652,9 18.524,9 18.311,9.006 18.217,9.027 18.208,9.018 18.123,9.018 
		18.005,8.893 18.001,8.947 18.116,9.092 18.107,9.169 18.158,9.175 18.226,9.156 18.644,9.123 18.741,9.118 18.762,9.096 
		18.758,9.002 18.77,8.973 18.846,8.868 18.84,8.838 	"/>
	<polygon fill="#F8F638" points="18.66,9.145 18.567,9.135 18.222,9.184 18.148,9.244 18.152,9.292 18.188,9.342 18.421,9.346 
		18.419,9.248 18.35,9.211 18.389,9.203 18.543,9.201 18.467,9.252 18.467,9.336 18.603,9.338 18.676,9.338 18.737,9.324 
		18.724,9.239 	"/>
	<polygon fill="#F8F638" points="18.675,9.406 18.616,9.506 18.575,9.51 18.489,9.396 18.404,9.4 18.363,9.51 18.35,9.534 
		18.301,9.527 18.206,9.428 18.169,9.364 18.133,9.371 18.135,9.485 18.167,9.51 18.178,9.557 18.244,9.584 18.248,9.637 
		18.314,9.676 18.335,9.76 18.363,9.768 18.43,9.728 18.427,9.672 18.368,9.657 18.319,9.606 18.4,9.621 18.485,9.621 18.558,9.592 
		18.541,9.631 18.474,9.674 18.477,9.728 18.609,9.744 18.668,9.68 18.677,9.562 18.766,9.549 18.771,9.354 18.752,9.342 	"/>
	<polygon fill="#F8F638" points="18.997,9.483 18.877,9.5 18.798,9.604 18.792,9.627 18.792,9.776 18.793,9.803 18.847,9.899 
		18.905,9.896 18.919,9.77 18.898,9.686 18.919,9.68 18.942,9.766 19.001,9.766 18.992,9.635 18.95,9.574 18.968,9.561 
		19.007,9.619 19.058,9.623 19.045,9.574 	"/>
	<polygon fill="#F8F638" points="17.994,9.564 17.902,9.57 17.936,9.635 17.888,9.756 17.902,9.795 17.916,9.799 17.903,9.788 
		18.016,9.674 	"/>
	<polygon fill="#F8F638" points="18.033,9.689 17.979,9.82 17.994,9.909 18.067,9.92 18.059,9.711 	"/>
	<polygon fill="#F8F638" points="18.382,9.807 18.389,9.859 18.44,9.909 18.531,9.907 18.572,9.855 18.598,9.795 18.456,9.762 	"/>
	<polygon fill="#F8F638" points="18.633,9.883 18.65,9.974 18.666,9.994 18.715,10.039 18.743,9.99 18.748,9.903 18.782,9.903 
		18.737,9.826 	"/>
	<polygon fill="#F8F638" points="18.14,9.859 18.127,9.939 18.219,10.004 18.221,10.021 18.237,10.006 18.219,9.855 	"/>
	<polygon fill="#F8F638" points="18.503,10 18.482,10.07 18.603,10.057 18.554,9.979 	"/>
	<polygon fill="#F8F638" points="18.386,10.021 18.363,10.059 18.423,10.076 18.473,10.07 18.44,10.016 	"/>
	<polygon fill="#F8F638" points="18.257,9.423 18.301,9.455 18.345,9.423 18.301,9.391 	"/>
	<polygon fill="#F8F638" points="18.542,9.423 18.586,9.455 18.63,9.423 18.586,9.391 	"/>
	<path fill="#D64242" d="M23.993,9.527c-0.341-0.096-0.684-0.188-1.031-0.266l-0.17,0.609l-0.013,0.043L22.777,9.92l-0.069,0.25
		l-0.014,0.04l0.077,0.015c0.408,0.098,0.808,0.222,1.208,0.349c0.444,0.146,0.886,0.298,1.321,0.472l0.166-0.341l0.272-0.551
		L25.153,9.92C24.772,9.776,24.386,9.643,23.993,9.527z"/>
	<path fill="#FFFFFF" d="M22.694,10.21l-0.103,0.363l2.54,0.812l0.169-0.34c0,0-0.545-0.275-1.183-0.488S22.694,10.21,22.694,10.21z
		"/>
	<path fill="#FFFFFF" d="M23.064,8.896l-0.102,0.365l2.775,0.892l0.168-0.339c0,0-0.78-0.359-1.418-0.57
		C23.85,9.031,23.064,8.896,23.064,8.896z"/>
	<path fill="#6690D9" d="M25.369,6.99c-0.666,0.266-1.998,0.807-1.998,0.807l-0.308,1.1c0.566,0.121,1.127,0.266,1.675,0.456
		c0.396,0.138,0.782,0.296,1.167,0.462c0.162-0.329,0.32-0.658,0.48-0.984l0.038-0.072V8.756L26.361,8.65
		C26.03,8.098,25.701,7.541,25.369,6.99z"/>
	<path fill="#6690D9" d="M23.549,10.84c-0.317-0.1-0.95-0.291-0.95-0.291L22.44,11.09v0.004c0.392,0.087,0.78,0.178,1.165,0.289
		c0.343,0.096,0.68,0.213,1.013,0.342l0.293,0.117c0.167-0.334,0.226-0.474,0.226-0.474s-0.651-0.229-0.978-0.335L23.549,10.84z"/>
	<polygon fill="#FED137" points="25.168,8.102 25.102,7.727 24.802,7.975 24.393,7.846 24.475,8.238 24.141,8.537 24.57,8.666 
		24.656,9.064 24.955,8.785 25.3,8.896 25.263,8.516 25.574,8.248 	"/>
	<polygon fill="#FAFC46" points="24.857,8.378 25.157,8.105 25.098,7.742 	"/>
	<polygon fill="#FAFC46" points="24.41,7.867 24.857,8.378 24.757,7.986 	"/>
	<polygon fill="#FAFC46" points="24.677,9.033 24.938,8.775 24.857,8.378 	"/>
	<polygon fill="#FAFC46" points="24.549,8.641 24.857,8.378 24.197,8.537 	"/>
	<polygon fill="#FAFC46" points="24.86,8.378 25.282,8.874 25.25,8.509 25.545,8.253 	"/>
	<polygon fill="#311A14" points="25.361,10.225 24.747,10.125 24.719,10.1 24.591,9.977 24.354,9.896 23.825,9.854 23.796,9.845 
		23.575,9.754 23.443,9.676 23.439,9.58 23.179,9.58 23.132,9.635 23.021,9.697 23.024,9.756 23.087,9.797 23.284,9.816 
		23.311,9.875 23.308,9.939 23.162,9.957 23.009,9.939 22.947,9.928 22.951,9.979 22.967,9.994 23.067,10.03 23.192,10.037 
		23.355,10.039 23.384,10.093 23.084,10.153 23.075,10.191 23.104,10.212 23.179,10.221 23.33,10.188 23.434,10.166 23.781,10.164 
		23.85,10.184 24.062,10.269 24.3,10.307 24.304,10.39 24.206,10.383 24.121,10.371 24.056,10.377 24.048,10.426 24.23,10.471 
		24.334,10.488 24.406,10.492 24.507,10.399 24.541,10.396 24.598,10.432 24.808,10.506 24.864,10.535 24.901,10.604 24.909,10.7 
		24.883,10.761 24.94,10.797 24.992,10.75 24.994,10.506 24.952,10.484 24.832,10.375 24.802,10.316 24.934,10.339 25.13,10.39 
		25.383,10.371 25.483,10.295 25.47,10.242 	"/>
	<polygon fill="#503727" points="25.416,10.238 24.739,10.135 24.705,10.1 24.51,9.951 24.34,9.909 23.815,9.861 23.763,9.843 
		23.582,9.77 23.429,9.684 23.426,9.59 23.185,9.59 23.132,9.65 23.031,9.705 23.038,9.756 23.098,9.788 23.275,9.803 23.319,9.855 
		23.32,9.947 23.213,9.968 23.084,9.968 22.957,9.939 22.971,9.982 23.029,10.004 23.129,10.028 23.316,10.026 23.359,10.03 
		23.392,10.104 23.325,10.129 23.089,10.164 23.084,10.186 23.162,10.212 23.315,10.176 23.426,10.155 23.604,10.144 23.795,10.153 
		23.792,10.089 24.206,10.076 24.314,10.083 24.42,10.147 24.479,10.301 24.316,10.307 24.314,10.399 24.147,10.388 24.06,10.39 
		24.058,10.418 24.289,10.473 24.409,10.479 24.499,10.392 24.559,10.394 24.787,10.492 24.869,10.521 24.915,10.604 24.921,10.7 
		24.901,10.759 24.939,10.783 24.977,10.746 24.982,10.682 24.982,10.515 24.808,10.359 24.791,10.305 24.934,10.327 25.218,10.388 
		25.434,10.333 25.475,10.278 25.471,10.26 	"/>
	<polygon fill="#FEFEFE" points="24.234,10.089 23.8,10.1 23.807,10.158 24.04,10.246 24.305,10.299 24.463,10.289 24.381,10.125 	
		"/>
</g>
</svg>
