<?xml version="1.0" encoding="utf-8"?>
<!-- Generator: Adobe Illustrator 16.0.0, SVG Export Plug-In . SVG Version: 6.00 Build 0)  -->
<!DOCTYPE svg PUBLIC "-//W3C//DTD SVG 1.1//EN" "http://www.w3.org/Graphics/SVG/1.1/DTD/svg11.dtd">
<svg version="1.1" id="Layer_1" xmlns="http://www.w3.org/2000/svg" xmlns:xlink="http://www.w3.org/1999/xlink" x="0px" y="0px"
	 width="876px" height="476px" viewBox="0 0 876 476" enable-background="new 0 0 876 476" xml:space="preserve">
<g>
	<defs>
		<rect id="SVGID_1_" x="0.5" y="0.5" width="875" height="475"/>
	</defs>
	<clipPath id="SVGID_2_">
		<use xlink:href="#SVGID_1_"  overflow="visible"/>
	</clipPath>
	<rect x="0.5" y="0.5" clip-path="url(#SVGID_2_)" fill="#62A362" width="875" height="495.816"/>
	<rect x="-0.5" y="-3.5" clip-path="url(#SVGID_2_)" fill="#6D6D6C" width="876" height="171"/>
	<g clip-path="url(#SVGID_2_)">
		<g>
			<g>
				<path fill="#8C8C8C" d="M0.459,102.68c0-30.274,19.096-54.812,42.665-54.812c23.555,0,42.648,24.538,42.648,54.812
					c0,4.367-0.41,8.616-1.16,12.685H1.625C0.87,111.296,0.459,107.047,0.459,102.68z"/>
				<path fill="#8C8C8C" d="M18.633,27.17c0,13.524,10.964,24.483,24.491,24.483c13.513,0,24.469-10.959,24.469-24.483
					c0-13.521-10.957-24.479-24.469-24.479C29.598,2.69,18.633,13.649,18.633,27.17z"/>
			</g>
		</g>
		<g>
			<path fill="#8C8C8C" d="M79.56,102.68c0-30.274,19.096-54.812,42.665-54.812c23.555,0,42.648,24.538,42.648,54.812
				c0,4.367-0.41,8.617-1.16,12.685H80.726C79.97,111.297,79.56,107.047,79.56,102.68z"/>
			<path fill="#8C8C8C" d="M97.733,27.17c0,13.524,10.964,24.483,24.491,24.483c13.513,0,24.469-10.959,24.469-24.483
				c0-13.52-10.957-24.479-24.469-24.479C108.698,2.69,97.733,13.65,97.733,27.17z"/>
		</g>
		<g>
			<path fill="#8C8C8C" d="M158.66,102.68c0-30.274,19.096-54.812,42.665-54.812c23.556,0,42.648,24.538,42.648,54.812
				c0,4.367-0.41,8.616-1.16,12.685h-82.987C159.07,111.296,158.66,107.047,158.66,102.68z"/>
			<path fill="#8C8C8C" d="M176.833,27.17c0,13.523,10.964,24.483,24.491,24.483c13.513,0,24.469-10.96,24.469-24.483
				c0-13.521-10.957-24.479-24.469-24.479C187.798,2.69,176.833,13.649,176.833,27.17z"/>
		</g>
		<g>
			<path fill="#8C8C8C" d="M237.759,102.68c0-30.274,19.096-54.812,42.665-54.812c23.555,0,42.648,24.538,42.648,54.812
				c0,4.367-0.41,8.615-1.161,12.685h-82.987C238.169,111.295,237.759,107.047,237.759,102.68z"/>
			<path fill="#8C8C8C" d="M255.933,27.17c0,13.524,10.964,24.483,24.491,24.483c13.513,0,24.469-10.959,24.469-24.483
				c0-13.521-10.957-24.479-24.469-24.479C266.897,2.69,255.933,13.648,255.933,27.17z"/>
		</g>
		<g>
			<path fill="#8C8C8C" d="M316.859,102.68c0-30.274,19.097-54.812,42.665-54.812c23.555,0,42.648,24.538,42.648,54.812
				c0,4.367-0.41,8.616-1.16,12.685h-82.987C317.27,111.296,316.859,107.047,316.859,102.68z"/>
			<path fill="#8C8C8C" d="M335.033,27.17c0,13.524,10.964,24.483,24.491,24.483c13.513,0,24.469-10.959,24.469-24.483
				c0-13.521-10.956-24.479-24.469-24.479C345.997,2.69,335.033,13.649,335.033,27.17z"/>
		</g>
		<g>
			<path fill="#8C8C8C" d="M395.96,102.68c0-30.273,19.096-54.812,42.665-54.812c23.555,0,42.648,24.539,42.648,54.812
				c0,4.367-0.41,8.617-1.16,12.686h-82.987C396.37,111.297,395.96,107.047,395.96,102.68z"/>
			<path fill="#8C8C8C" d="M414.134,27.17c0,13.525,10.964,24.484,24.491,24.484c13.513,0,24.469-10.959,24.469-24.484
				c0-13.52-10.956-24.479-24.469-24.479C425.098,2.691,414.134,13.65,414.134,27.17z"/>
		</g>
		<g>
			<path fill="#8C8C8C" d="M475.06,102.68c0-30.274,19.096-54.812,42.665-54.812c23.555,0,42.648,24.538,42.648,54.812
				c0,4.367-0.41,8.616-1.16,12.685h-82.987C475.47,111.296,475.06,107.047,475.06,102.68z"/>
			<path fill="#8C8C8C" d="M493.233,27.17c0,13.524,10.964,24.483,24.491,24.483c13.513,0,24.469-10.959,24.469-24.483
				c0-13.521-10.956-24.479-24.469-24.479C504.197,2.69,493.233,13.649,493.233,27.17z"/>
		</g>
		<g>
			<path fill="#8C8C8C" d="M554.159,102.68c0-30.274,19.097-54.812,42.665-54.812c23.555,0,42.649,24.538,42.649,54.812
				c0,4.367-0.41,8.616-1.16,12.685h-82.988C554.569,111.296,554.159,107.047,554.159,102.68z"/>
			<path fill="#8C8C8C" d="M572.333,27.17c0,13.524,10.964,24.483,24.491,24.483c13.513,0,24.469-10.959,24.469-24.483
				c0-13.521-10.956-24.479-24.469-24.479C583.297,2.69,572.333,13.649,572.333,27.17z"/>
		</g>
		<g>
			<path fill="#8C8C8C" d="M633.26,102.68c0-30.274,19.097-54.812,42.665-54.812c23.555,0,42.648,24.538,42.648,54.812
				c0,4.367-0.41,8.616-1.16,12.685h-82.987C633.67,111.296,633.26,107.047,633.26,102.68z"/>
			<path fill="#8C8C8C" d="M651.434,27.17c0,13.524,10.964,24.483,24.491,24.483c13.513,0,24.469-10.959,24.469-24.483
				c0-13.521-10.957-24.479-24.469-24.479C662.397,2.69,651.434,13.649,651.434,27.17z"/>
		</g>
		<g>
			<path fill="#8C8C8C" d="M712.359,102.68c0-30.274,19.097-54.812,42.665-54.812c23.555,0,42.649,24.538,42.649,54.812
				c0,4.367-0.41,8.616-1.161,12.685h-82.987C712.77,111.296,712.359,107.047,712.359,102.68z"/>
			<path fill="#8C8C8C" d="M730.533,27.17c0,13.524,10.964,24.483,24.491,24.483c13.513,0,24.469-10.959,24.469-24.483
				c0-13.521-10.956-24.479-24.469-24.479C741.497,2.69,730.533,13.649,730.533,27.17z"/>
		</g>
		<g>
			<g>
				<path fill="#8C8C8C" d="M791.459,102.68c0-30.274,19.097-54.812,42.665-54.812c23.555,0,42.648,24.538,42.648,54.812
					c0,4.367-0.41,8.616-1.16,12.685h-82.987C791.87,111.296,791.459,107.047,791.459,102.68z"/>
				<path fill="#8C8C8C" d="M809.633,27.17c0,13.524,10.964,24.483,24.491,24.483c13.513,0,24.469-10.959,24.469-24.483
					c0-13.521-10.956-24.479-24.469-24.479C820.597,2.69,809.633,13.649,809.633,27.17z"/>
			</g>
		</g>
	</g>
	<rect x="-0.5" y="89.5" clip-path="url(#SVGID_2_)" fill="#8C8C8C" width="876" height="78"/>
	<g clip-path="url(#SVGID_2_)">
		<g>
			<g>
				<path fill="#D1D1D1" d="M0.459,161.68c0-30.274,19.096-54.812,42.665-54.812c23.555,0,42.648,24.538,42.648,54.812
					c0,4.367-0.41,8.616-1.16,12.685H1.625C0.87,170.296,0.459,166.047,0.459,161.68z"/>
				<path fill="#D1D1D1" d="M18.633,86.17c0,13.524,10.964,24.483,24.491,24.483c13.513,0,24.469-10.959,24.469-24.483
					c0-13.521-10.957-24.479-24.469-24.479C29.598,61.69,18.633,72.649,18.633,86.17z"/>
			</g>
		</g>
		<g>
			<path fill="#D1D1D1" d="M79.56,161.681c0-30.274,19.096-54.813,42.665-54.813c23.555,0,42.648,24.539,42.648,54.813
				c0,4.366-0.41,8.615-1.16,12.685H80.726C79.97,170.296,79.56,166.047,79.56,161.681z"/>
			<path fill="#D1D1D1" d="M97.733,86.171c0,13.524,10.964,24.483,24.491,24.483c13.513,0,24.469-10.959,24.469-24.483
				c0-13.521-10.957-24.48-24.469-24.48C108.698,61.69,97.733,72.649,97.733,86.171z"/>
		</g>
		<g>
			<path fill="#D1D1D1" d="M158.66,161.68c0-30.274,19.096-54.812,42.665-54.812c23.556,0,42.648,24.538,42.648,54.812
				c0,4.367-0.41,8.616-1.16,12.685h-82.987C159.07,170.296,158.66,166.047,158.66,161.68z"/>
			<path fill="#D1D1D1" d="M176.833,86.17c0,13.524,10.964,24.483,24.491,24.483c13.513,0,24.469-10.959,24.469-24.483
				c0-13.521-10.957-24.48-24.469-24.48C187.798,61.689,176.833,72.649,176.833,86.17z"/>
		</g>
		<g>
			<path fill="#D1D1D1" d="M237.759,161.68c0-30.275,19.096-54.812,42.665-54.812c23.555,0,42.648,24.537,42.648,54.812
				c0,4.367-0.41,8.616-1.161,12.684h-82.987C238.169,170.296,237.759,166.047,237.759,161.68z"/>
			<path fill="#D1D1D1" d="M255.933,86.17c0,13.523,10.964,24.482,24.491,24.482c13.513,0,24.469-10.959,24.469-24.482
				c0-13.521-10.957-24.479-24.469-24.479C266.897,61.69,255.933,72.649,255.933,86.17z"/>
		</g>
		<g>
			<path fill="#D1D1D1" d="M316.859,161.68c0-30.274,19.097-54.812,42.665-54.812c23.555,0,42.648,24.538,42.648,54.812
				c0,4.367-0.41,8.616-1.16,12.685h-82.987C317.27,170.296,316.859,166.047,316.859,161.68z"/>
			<path fill="#D1D1D1" d="M335.033,86.17c0,13.524,10.964,24.483,24.491,24.483c13.513,0,24.469-10.959,24.469-24.483
				c0-13.521-10.956-24.479-24.469-24.479C345.997,61.69,335.033,72.649,335.033,86.17z"/>
		</g>
		<g>
			<path fill="#D1D1D1" d="M395.96,161.68c0-30.273,19.096-54.812,42.665-54.812c23.555,0,42.648,24.539,42.648,54.812
				c0,4.367-0.41,8.617-1.16,12.686h-82.987C396.37,170.297,395.96,166.047,395.96,161.68z"/>
			<path fill="#D1D1D1" d="M414.134,86.17c0,13.525,10.964,24.484,24.491,24.484c13.513,0,24.469-10.959,24.469-24.484
				c0-13.52-10.956-24.479-24.469-24.479C425.098,61.691,414.134,72.65,414.134,86.17z"/>
		</g>
		<g>
			<path fill="#D1D1D1" d="M475.06,161.68c0-30.274,19.096-54.812,42.665-54.812c23.555,0,42.648,24.538,42.648,54.812
				c0,4.367-0.41,8.616-1.16,12.685h-82.987C475.47,170.296,475.06,166.047,475.06,161.68z"/>
			<path fill="#D1D1D1" d="M493.233,86.17c0,13.524,10.964,24.483,24.491,24.483c13.513,0,24.469-10.959,24.469-24.483
				c0-13.521-10.956-24.479-24.469-24.479C504.197,61.69,493.233,72.649,493.233,86.17z"/>
		</g>
		<g>
			<path fill="#D1D1D1" d="M554.159,161.68c0-30.274,19.097-54.812,42.665-54.812c23.555,0,42.649,24.538,42.649,54.812
				c0,4.367-0.41,8.616-1.16,12.685h-82.988C554.569,170.296,554.159,166.047,554.159,161.68z"/>
			<path fill="#D1D1D1" d="M572.333,86.17c0,13.524,10.964,24.483,24.491,24.483c13.513,0,24.469-10.959,24.469-24.483
				c0-13.521-10.956-24.479-24.469-24.479C583.297,61.69,572.333,72.649,572.333,86.17z"/>
		</g>
		<g>
			<path fill="#D1D1D1" d="M633.26,161.68c0-30.275,19.097-54.812,42.665-54.812c23.555,0,42.648,24.537,42.648,54.812
				c0,4.367-0.41,8.616-1.16,12.684h-82.987C633.67,170.296,633.26,166.047,633.26,161.68z"/>
			<path fill="#D1D1D1" d="M651.434,86.17c0,13.524,10.964,24.482,24.491,24.482c13.513,0,24.469-10.958,24.469-24.482
				c0-13.521-10.957-24.479-24.469-24.479C662.397,61.69,651.434,72.649,651.434,86.17z"/>
		</g>
		<g>
			<path fill="#D1D1D1" d="M712.359,161.68c0-30.274,19.097-54.812,42.665-54.812c23.555,0,42.649,24.538,42.649,54.812
				c0,4.367-0.41,8.616-1.161,12.685h-82.987C712.77,170.296,712.359,166.047,712.359,161.68z"/>
			<path fill="#D1D1D1" d="M730.533,86.17c0,13.524,10.964,24.483,24.491,24.483c13.513,0,24.469-10.959,24.469-24.483
				c0-13.521-10.956-24.479-24.469-24.479C741.497,61.69,730.533,72.649,730.533,86.17z"/>
		</g>
		<g>
			<g>
				<path fill="#D1D1D1" d="M791.459,161.68c0-30.274,19.097-54.812,42.665-54.812c23.555,0,42.648,24.538,42.648,54.812
					c0,4.367-0.41,8.616-1.16,12.685h-82.987C791.87,170.296,791.459,166.047,791.459,161.68z"/>
				<path fill="#D1D1D1" d="M809.633,86.17c0,13.524,10.964,24.483,24.491,24.483c13.513,0,24.469-10.959,24.469-24.483
					c0-13.521-10.956-24.479-24.469-24.479C820.597,61.69,809.633,72.649,809.633,86.17z"/>
			</g>
		</g>
	</g>
	<rect x="1.113" y="171.595" clip-path="url(#SVGID_2_)" fill="#231F20" width="875.456" height="134.993"/>
	<g clip-path="url(#SVGID_2_)">
		<g>
			<path fill="#D1D1D1" d="M862.668,169.893c0-10.674,6.736-19.327,15.045-19.327c8.305,0,15.041,8.653,15.041,19.327
				c0,1.54-0.146,3.038-0.412,4.473h-29.263C862.814,172.931,862.668,171.433,862.668,169.893z"/>
			<path fill="#D1D1D1" d="M869.078,143.268c0,4.769,3.867,8.633,8.635,8.633c4.764,0,8.628-3.864,8.628-8.633
				c0-4.768-3.864-8.631-8.628-8.631C872.945,134.637,869.078,138.5,869.078,143.268z"/>
		</g>
		<g>
			<path fill="#D1D1D1" d="M834.869,169.893c0-10.675,6.735-19.326,15.044-19.326c8.305,0,15.04,8.651,15.04,19.326
				c0,1.54-0.146,3.039-0.411,4.474h-29.263C835.014,172.932,834.869,171.433,834.869,169.893z"/>
			<path fill="#D1D1D1" d="M841.278,143.268c0,4.769,3.867,8.633,8.635,8.633c4.764,0,8.629-3.864,8.629-8.633
				c0-4.768-3.865-8.632-8.629-8.632C845.145,134.636,841.278,138.5,841.278,143.268z"/>
		</g>
		<g>
			<path fill="#D1D1D1" d="M807.068,169.894c0-10.675,6.735-19.327,15.044-19.327c8.305,0,15.041,8.652,15.041,19.327
				c0,1.54-0.146,3.038-0.412,4.473h-29.263C807.214,172.932,807.068,171.434,807.068,169.894z"/>
			<path fill="#D1D1D1" d="M813.478,143.269c0,4.769,3.867,8.633,8.635,8.633c4.764,0,8.628-3.864,8.628-8.633
				s-3.865-8.632-8.628-8.632C817.345,134.637,813.478,138.5,813.478,143.269z"/>
		</g>
		<g>
			<path fill="#D1D1D1" d="M779.268,169.893c0-10.674,6.735-19.326,15.044-19.326c8.305,0,15.041,8.652,15.041,19.326
				c0,1.54-0.146,3.038-0.411,4.473h-29.263C779.414,172.931,779.268,171.433,779.268,169.893z"/>
			<path fill="#D1D1D1" d="M785.677,143.268c0,4.77,3.867,8.633,8.635,8.633c4.764,0,8.629-3.863,8.629-8.633
				c0-4.768-3.865-8.631-8.629-8.631C789.544,134.637,785.677,138.5,785.677,143.268z"/>
		</g>
		<g>
			<path fill="#D1D1D1" d="M751.467,169.893c0-10.675,6.735-19.327,15.045-19.327c8.305,0,15.04,8.652,15.04,19.327
				c0,1.54-0.146,3.038-0.411,4.473h-29.263C751.613,172.931,751.467,171.433,751.467,169.893z"/>
			<path fill="#D1D1D1" d="M757.876,143.268c0,4.769,3.867,8.633,8.635,8.633c4.764,0,8.628-3.864,8.628-8.633
				c0-4.768-3.864-8.632-8.628-8.632C761.743,134.636,757.876,138.5,757.876,143.268z"/>
		</g>
		<g>
			<path fill="#D1D1D1" d="M723.667,169.893c0-10.674,6.735-19.327,15.044-19.327c8.305,0,15.04,8.653,15.04,19.327
				c0,1.54-0.146,3.039-0.412,4.473h-29.263C723.812,172.932,723.667,171.433,723.667,169.893z"/>
			<path fill="#D1D1D1" d="M730.076,143.268c0,4.769,3.867,8.633,8.635,8.633c4.764,0,8.628-3.864,8.628-8.633
				c0-4.768-3.864-8.631-8.628-8.631C733.943,134.637,730.076,138.5,730.076,143.268z"/>
		</g>
		<g>
			<path fill="#D1D1D1" d="M695.867,169.893c0-10.674,6.735-19.326,15.044-19.326c8.305,0,15.04,8.652,15.04,19.326
				c0,1.541-0.146,3.039-0.411,4.473h-29.263C696.012,172.932,695.867,171.434,695.867,169.893z"/>
			<path fill="#D1D1D1" d="M702.276,143.268c0,4.77,3.867,8.633,8.635,8.633c4.764,0,8.629-3.863,8.629-8.633
				c0-4.768-3.865-8.631-8.629-8.631C706.143,134.637,702.276,138.5,702.276,143.268z"/>
		</g>
		<g>
			<path fill="#D1D1D1" d="M668.066,169.893c0-10.675,6.734-19.327,15.044-19.327c8.306,0,15.04,8.652,15.04,19.327
				c0,1.54-0.146,3.038-0.411,4.473h-29.263C668.212,172.931,668.066,171.433,668.066,169.893z"/>
			<circle fill="#D1D1D1" cx="683.107" cy="143.268" r="8.632"/>
		</g>
		<g>
			<path fill="#D1D1D1" d="M640.266,169.893c0-10.675,6.735-19.328,15.044-19.328c8.305,0,15.04,8.653,15.04,19.328
				c0,1.539-0.146,3.038-0.411,4.473h-29.263C640.411,172.931,640.266,171.432,640.266,169.893z"/>
			<path fill="#D1D1D1" d="M646.675,143.268c0,4.768,3.867,8.633,8.635,8.633c4.764,0,8.628-3.865,8.628-8.633
				s-3.864-8.632-8.628-8.632C650.542,134.636,646.675,138.5,646.675,143.268z"/>
		</g>
		<g>
			<path fill="#D1D1D1" d="M612.466,169.893c0-10.675,6.734-19.327,15.044-19.327c8.305,0,15.04,8.652,15.04,19.327
				c0,1.54-0.146,3.038-0.411,4.473h-29.263C612.611,172.931,612.466,171.433,612.466,169.893z"/>
			<path fill="#D1D1D1" d="M618.875,143.268c0,4.769,3.867,8.633,8.635,8.633c4.764,0,8.628-3.864,8.628-8.633
				c0-4.768-3.864-8.632-8.628-8.632C622.741,134.636,618.875,138.5,618.875,143.268z"/>
		</g>
		<g>
			<path fill="#D1D1D1" d="M584.665,169.893c0-10.675,6.734-19.327,15.044-19.327c8.306,0,15.04,8.652,15.04,19.327
				c0,1.539-0.146,3.038-0.411,4.473h-29.263C584.811,172.931,584.665,171.432,584.665,169.893z"/>
			<circle fill="#D1D1D1" cx="599.706" cy="143.268" r="8.632"/>
		</g>
		<g>
			<path fill="#D1D1D1" d="M556.864,169.893c0-10.675,6.735-19.327,15.045-19.327c8.305,0,15.039,8.652,15.039,19.327
				c0,1.539-0.146,3.038-0.41,4.473h-29.263C557.01,172.931,556.864,171.432,556.864,169.893z"/>
			<path fill="#D1D1D1" d="M563.273,143.268c0,4.768,3.867,8.633,8.636,8.633c4.764,0,8.628-3.865,8.628-8.633
				s-3.864-8.632-8.628-8.632C567.14,134.636,563.273,138.5,563.273,143.268z"/>
		</g>
		<g>
			<path fill="#D1D1D1" d="M529.064,169.893c0-10.675,6.734-19.328,15.044-19.328c8.305,0,15.039,8.653,15.039,19.328
				c0,1.539-0.145,3.038-0.41,4.473h-29.263C529.209,172.931,529.064,171.432,529.064,169.893z"/>
			<path fill="#D1D1D1" d="M535.473,143.268c0,4.769,3.867,8.633,8.635,8.633c4.765,0,8.628-3.864,8.628-8.633
				c0-4.768-3.864-8.632-8.628-8.632C539.34,134.636,535.473,138.5,535.473,143.268z"/>
		</g>
		<g>
			<path fill="#D1D1D1" d="M501.264,169.893c0-10.675,6.734-19.327,15.044-19.327c8.306,0,15.04,8.652,15.04,19.327
				c0,1.539-0.145,3.038-0.411,4.473h-29.262C501.409,172.931,501.264,171.432,501.264,169.893z"/>
			<circle fill="#D1D1D1" cx="516.305" cy="143.268" r="8.632"/>
		</g>
		<g>
			<path fill="#D1D1D1" d="M473.463,169.893c0-10.676,6.734-19.328,15.044-19.328c8.305,0,15.039,8.652,15.039,19.328
				c0,1.539-0.146,3.038-0.41,4.473h-29.263C473.608,172.931,473.463,171.432,473.463,169.893z"/>
			<path fill="#D1D1D1" d="M479.872,143.268c0,4.768,3.867,8.633,8.636,8.633c4.764,0,8.628-3.865,8.628-8.633
				s-3.864-8.633-8.628-8.633C483.739,134.635,479.872,138.5,479.872,143.268z"/>
		</g>
		<g>
			<path fill="#D1D1D1" d="M445.663,169.893c0-10.676,6.734-19.327,15.044-19.327c8.305,0,15.039,8.651,15.039,19.327
				c0,1.539-0.145,3.038-0.41,4.473h-29.263C445.808,172.931,445.663,171.432,445.663,169.893z"/>
			<path fill="#D1D1D1" d="M452.071,143.268c0,4.769,3.867,8.633,8.636,8.633c4.764,0,8.628-3.864,8.628-8.633
				c0-4.768-3.864-8.633-8.628-8.633C455.938,134.635,452.071,138.5,452.071,143.268z"/>
		</g>
		<g>
			<path fill="#D1D1D1" d="M417.863,169.893c0-10.675,6.734-19.328,15.044-19.328c8.305,0,15.039,8.653,15.039,19.328
				c0,1.54-0.145,3.038-0.41,4.473h-29.262C418.007,172.931,417.863,171.433,417.863,169.893z"/>
			<path fill="#D1D1D1" d="M424.271,143.268c0,4.768,3.867,8.632,8.636,8.632c4.764,0,8.628-3.864,8.628-8.632
				c0-4.769-3.864-8.632-8.628-8.632C428.138,134.636,424.271,138.499,424.271,143.268z"/>
		</g>
		<g>
			<path fill="#D1D1D1" d="M390.062,169.892c0-10.674,6.734-19.327,15.044-19.327c8.306,0,15.039,8.653,15.039,19.327
				c0,1.54-0.145,3.039-0.41,4.473h-29.262C390.207,172.931,390.062,171.432,390.062,169.892z"/>
			<path fill="#D1D1D1" d="M396.471,143.268c0,4.768,3.866,8.633,8.636,8.633c4.764,0,8.628-3.865,8.628-8.633
				c0-4.769-3.864-8.632-8.628-8.632C400.337,134.636,396.471,138.499,396.471,143.268z"/>
		</g>
		<g>
			<path fill="#D1D1D1" d="M362.262,169.893c0-10.675,6.734-19.328,15.044-19.328c8.305,0,15.039,8.653,15.039,19.328
				c0,1.54-0.145,3.037-0.41,4.472h-29.262C362.407,172.93,362.262,171.433,362.262,169.893z"/>
			<path fill="#D1D1D1" d="M368.67,143.268c0,4.769,3.866,8.633,8.636,8.633c4.764,0,8.628-3.864,8.628-8.633
				c0-4.768-3.864-8.632-8.628-8.632C372.537,134.636,368.67,138.5,368.67,143.268z"/>
		</g>
		<g>
			<path fill="#D1D1D1" d="M334.461,169.893c0-10.675,6.734-19.327,15.044-19.327c8.305,0,15.038,8.652,15.038,19.327
				c0,1.539-0.145,3.037-0.41,4.473h-29.262C334.606,172.93,334.461,171.432,334.461,169.893z"/>
			<path fill="#D1D1D1" d="M340.87,143.267c0,4.769,3.867,8.633,8.636,8.633c4.764,0,8.628-3.864,8.628-8.633
				c0-4.768-3.864-8.631-8.628-8.631C344.736,134.636,340.87,138.499,340.87,143.267z"/>
		</g>
		<g>
			<path fill="#D1D1D1" d="M306.661,169.892c0-10.674,6.734-19.327,15.044-19.327c8.306,0,15.039,8.653,15.039,19.327
				c0,1.54-0.145,3.038-0.41,4.473h-29.262C306.806,172.93,306.661,171.432,306.661,169.892z"/>
			<path fill="#D1D1D1" d="M313.069,143.267c0,4.769,3.866,8.633,8.636,8.633c4.765,0,8.628-3.864,8.628-8.633
				c0-4.768-3.863-8.631-8.628-8.631C316.936,134.636,313.069,138.499,313.069,143.267z"/>
		</g>
		<g>
			<path fill="#D1D1D1" d="M278.86,169.892c0-10.675,6.734-19.327,15.044-19.327c8.306,0,15.038,8.652,15.038,19.327
				c0,1.54-0.145,3.038-0.41,4.474h-29.262C279.005,172.93,278.86,171.432,278.86,169.892z"/>
			<path fill="#D1D1D1" d="M285.269,143.267c0,4.769,3.866,8.633,8.636,8.633c4.764,0,8.628-3.864,8.628-8.633
				c0-4.767-3.864-8.632-8.628-8.632C289.135,134.635,285.269,138.5,285.269,143.267z"/>
		</g>
		<g>
			<path fill="#D1D1D1" d="M251.06,169.892c0-10.675,6.734-19.327,15.044-19.327c8.305,0,15.038,8.652,15.038,19.327
				c0,1.54-0.145,3.038-0.409,4.473h-29.262C251.205,172.93,251.06,171.432,251.06,169.892z"/>
			<path fill="#D1D1D1" d="M257.469,143.267c0,4.769,3.866,8.633,8.636,8.633c4.764,0,8.628-3.864,8.628-8.633
				c0-4.768-3.864-8.632-8.628-8.632C261.335,134.635,257.469,138.499,257.469,143.267z"/>
		</g>
		<g>
			<path fill="#D1D1D1" d="M223.26,169.892c0-10.675,6.734-19.327,15.044-19.327c8.306,0,15.038,8.652,15.038,19.327
				c0,1.54-0.145,3.038-0.409,4.473h-29.262C223.404,172.93,223.26,171.432,223.26,169.892z"/>
			<path fill="#D1D1D1" d="M229.668,143.268c0,4.768,3.866,8.632,8.636,8.632c4.765,0,8.628-3.864,8.628-8.632
				c0-4.769-3.863-8.633-8.628-8.633C233.534,134.635,229.668,138.499,229.668,143.268z"/>
		</g>
		<g>
			<g>
				<path fill="#D1D1D1" d="M195.459,169.892c0-10.675,6.733-19.327,15.044-19.327c8.306,0,15.038,8.652,15.038,19.327
					c0,1.54-0.145,3.038-0.409,4.473h-29.262C195.604,172.93,195.459,171.432,195.459,169.892z"/>
				<path fill="#D1D1D1" d="M201.868,143.267c0,4.769,3.866,8.633,8.636,8.633c4.765,0,8.628-3.864,8.628-8.633
					c0-4.768-3.863-8.632-8.628-8.632C205.734,134.635,201.868,138.499,201.868,143.267z"/>
			</g>
		</g>
	</g>
	<g clip-path="url(#SVGID_2_)">
		<g>
			<polygon fill="#B7B7B7" points="171.534,143.195 177.777,142.414 178.752,149.438 			"/>
			<polygon fill="#B7B7B7" points="233.084,143.195 226.84,142.414 225.865,149.438 			"/>
			<path fill="#F7D4BC" d="M235.95,173.738h-66.875c0,0,10.948-40.428,10.948-59.803c0-11.193,44.783-11.193,44.783,0
				C224.805,141.936,235.95,173.738,235.95,173.738z"/>
			<g>
				<path opacity="0.1" fill="#232222" d="M223.098,130.424c0,0-3.172,11.67-20.161,11.67c-16.781,0-20.159-11.67-20.159-11.67
					s6.141,8.598,20.876,8.598C203.654,139.021,213.471,140.05,223.098,130.424z"/>
			</g>
			
				<path fill="none" stroke="#F7D4BC" stroke-width="18.0854" stroke-linecap="round" stroke-linejoin="round" stroke-miterlimit="10" d="
				M178.238,156.836c0,0-34.57,25.08-37.557,51.96c-3.085,27.782-1.544,34.47-1.544,49.188"/>
			<path fill="none" stroke="#FFFFFF" stroke-width="18.5204" stroke-linejoin="round" stroke-miterlimit="10" d="M178.238,156.836
				c0,0-34.57,25.08-37.557,51.96c-3.085,27.782-1.544,34.47-1.544,49.188"/>
			
				<path fill="none" stroke="#F7D4BC" stroke-width="18.0854" stroke-linecap="round" stroke-linejoin="round" stroke-miterlimit="10" d="
				M224.915,155.756c0,0,34.572,25.08,37.559,51.959c3.085,27.783,1.544,34.471,1.544,49.187"/>
			<path fill="none" stroke="#FFFFFF" stroke-width="18.5204" stroke-linejoin="round" stroke-miterlimit="10" d="M224.915,155.756
				c0,0,34.572,25.08,37.559,51.959c3.085,27.783,1.544,34.471,1.544,49.187"/>
			
				<line fill="none" stroke="#8E8D8D" stroke-width="20.5948" stroke-linecap="round" stroke-linejoin="round" stroke-miterlimit="10" x1="182.253" y1="253.086" x2="182.253" y2="397.725"/>
			
				<line fill="none" stroke="#8E8D8D" stroke-width="20.5948" stroke-linecap="round" stroke-linejoin="round" stroke-miterlimit="10" x1="220.605" y1="253.086" x2="220.605" y2="397.725"/>
			<path fill="#FFFFFF" d="M173.229,150.854c-4.503,22.473-13.203,20.663-13.203,58.65c0,46.76,0,38.36,0,39.546
				c0,0.084,4.401,0.124,4.401,0.124h37.984v-98.32H173.229z"/>
			<path fill="#FFFFFF" d="M230.135,150.854c4.505,22.473,13.204,20.663,13.204,58.65c0,46.76,0,38.36,0,39.546
				c0,0.084-4.401,0.124-4.401,0.124h-37.983v-98.32H230.135z"/>
			<path fill="#8E8D8D" d="M201.678,286.806c23.153,0,41.92-14.381,41.92-37.532h-83.844
				C159.754,272.425,178.523,286.806,201.678,286.806z"/>
			<path fill="#1C1C1C" d="M192.429,400.771c-27.537,0-49.868,5.921-49.868,13.232h49.868V400.771z"/>
			<path fill="#1C1C1C" d="M210.28,400.771c27.539,0,49.865,5.921,49.865,13.232H210.28V400.771z"/>
			<rect x="170.623" y="394.182" fill="#8E8D8D" width="22.653" height="7.771"/>
			<rect x="209.268" y="394.182" fill="#8E8D8D" width="22.648" height="7.771"/>
			<rect x="159.954" y="246.124" fill="#161516" width="83.645" height="7.339"/>
			<rect x="195.249" y="246.124" fill="#D6D6D6" width="13.943" height="7.339"/>
			<polygon fill="#F7D4BC" points="199.34,150.631 203.605,159.035 205.935,149.329 202.829,145.989 			"/>
			<polygon fill="#D6D6D6" points="230.857,143.976 205.333,150.631 214.195,160.102 233.199,149.961 233.199,143.195 			"/>
			<polygon fill="#D6D6D6" points="173.817,143.976 199.34,150.631 190.48,160.102 171.475,149.961 171.475,143.195 			"/>
			<circle fill="#D6D6D6" cx="203.1" cy="161.793" r="1.979"/>
			<circle fill="#D6D6D6" cx="203.1" cy="180.432" r="1.979"/>
			<circle fill="#D6D6D6" cx="203.1" cy="199.07" r="1.979"/>
			<circle fill="#D6D6D6" cx="203.1" cy="217.707" r="1.979"/>
			<circle fill="#D6D6D6" cx="203.1" cy="236.344" r="1.979"/>
			<path fill="#170D0E" d="M168.19,99.071c0,0-3.88-7.183-2.156-13.217c0,0-0.143-15.227,4.455-19.392
				c0,0,1.869-11.492,14.078-9.051c0,0,5.458,2.586,5.172,5.029l-3.88,31.745L168.19,99.071z"/>
			<path fill="#170D0E" d="M189.738,62.441c0,0-10.343-7.04-4.741-13.506c0,0,6.896-12.065,33.328,4.021
				c0,0,17.237,11.066,18.961,23.129c0,0,3.877,11.348-1.15,19.392l-7.614,5.604C228.523,101.082,193.76,68.041,189.738,62.441z"/>
			<path fill="#F7D4BC" d="M203.958,139.293V61.432c0,0-29.735-2.727-32.321,20.401c0,0,0.862,22.121,2.729,28.009
				c0,0,2.875,20.975,12.354,25.861C186.72,135.703,189.45,139.293,203.958,139.293z"/>
			<path fill="#F7D4BC" d="M201.374,139.293V61.432c0,0,29.736-2.727,32.32,20.401c0,0-0.861,22.121-2.728,28.009
				c0,0-2.873,20.975-12.354,25.861C218.612,135.703,215.882,139.293,201.374,139.293z"/>
			<path fill="#F7D4BC" d="M180.109,105.699c1.857,6.385,0.776,12.307-2.415,13.236s-7.283-3.49-9.139-9.875
				c-1.856-6.382-0.775-12.307,2.416-13.232C174.162,94.896,178.255,99.317,180.109,105.699z"/>
			<path fill="#F7D4BC" d="M225.299,105.699c-1.855,6.385-0.774,12.307,2.417,13.236c3.19,0.93,7.283-3.49,9.139-9.875
				c1.857-6.382,0.775-12.307-2.416-13.232C231.248,94.896,227.155,99.317,225.299,105.699z"/>
			<g>
				<path fill="#231F20" d="M194.312,84.818c-0.021,0.005-0.208,0.01-0.614,0.066c-0.401,0.053-0.982,0.146-1.675,0.306
					c-1.384,0.312-3.223,0.882-4.921,1.777c-0.426,0.22-0.851,0.446-1.245,0.707c-0.41,0.239-0.792,0.507-1.151,0.782
					c-0.374,0.258-0.708,0.541-1.016,0.82c-0.318,0.271-0.613,0.534-0.854,0.809c-0.25,0.267-0.48,0.512-0.684,0.729
					c-0.182,0.234-0.341,0.439-0.472,0.609c-0.264,0.34-0.415,0.535-0.415,0.535l-0.007,0.008c-0.036,0.047-0.104,0.056-0.151,0.02
					c-0.043-0.033-0.054-0.094-0.027-0.139c0,0,0.125-0.216,0.346-0.593c0.111-0.19,0.245-0.42,0.4-0.685
					c0.178-0.248,0.38-0.529,0.6-0.836c0.212-0.314,0.479-0.625,0.771-0.948c0.282-0.333,0.591-0.673,0.944-0.993
					c0.338-0.337,0.702-0.67,1.098-0.978c0.381-0.329,0.794-0.628,1.215-0.919c0.835-0.592,1.729-1.098,2.586-1.539
					c0.864-0.424,1.691-0.789,2.421-1.049c0.727-0.271,1.35-0.459,1.797-0.578c0.439-0.122,0.745-0.178,0.723-0.176
					c0.625-0.092,1.206,0.342,1.297,0.967S194.937,84.727,194.312,84.818z"/>
			</g>
			<path fill="#5B4A40" d="M191.75,93.18c0,1.114-0.902,2.012-2.012,2.012c-1.111,0-2.012-0.897-2.012-2.012
				c0-1.109,0.901-2.008,2.012-2.008C190.848,91.172,191.75,92.07,191.75,93.18z"/>
			<g>
				<path fill="#231F20" d="M212.907,83.168c-0.021-0.003,0.278,0.076,0.707,0.233c0.436,0.155,1.042,0.392,1.746,0.719
					c0.708,0.317,1.503,0.747,2.331,1.237c0.819,0.508,1.669,1.084,2.455,1.74c0.396,0.324,0.785,0.653,1.139,1.012
					c0.37,0.339,0.707,0.699,1.017,1.062c0.327,0.347,0.608,0.711,0.863,1.064c0.265,0.346,0.506,0.676,0.692,1.008
					c0.195,0.322,0.374,0.618,0.532,0.88c0.133,0.276,0.249,0.517,0.344,0.714c0.189,0.393,0.297,0.618,0.297,0.618
					c0.026,0.054,0.003,0.118-0.05,0.144c-0.049,0.023-0.107,0.006-0.137-0.038l-0.006-0.01c0,0-0.135-0.206-0.371-0.565
					c-0.117-0.18-0.259-0.396-0.422-0.646c-0.186-0.232-0.395-0.495-0.624-0.78c-0.218-0.293-0.491-0.578-0.787-0.873
					c-0.284-0.304-0.595-0.611-0.947-0.898c-0.335-0.304-0.695-0.6-1.085-0.871c-0.372-0.291-0.777-0.551-1.185-0.805
					c-1.622-1.027-3.409-1.742-4.765-2.162c-0.677-0.213-1.25-0.354-1.645-0.438c-0.401-0.089-0.586-0.107-0.607-0.115
					c-0.616-0.141-1.001-0.754-0.861-1.369C211.678,83.413,212.291,83.027,212.907,83.168z"/>
			</g>
			<path fill="#5B4A40" d="M213.728,93.18c0,1.114,0.9,2.012,2.011,2.012c1.111,0,2.011-0.897,2.011-2.012
				c0-1.109-0.9-2.008-2.011-2.008C214.628,91.172,213.728,92.07,213.728,93.18z"/>
			<g opacity="0.2">
				<g>
					<path fill="#231F20" d="M209.312,104.004c0,0,0.24,0.34,0.591,0.953c0.175,0.311,0.385,0.69,0.589,1.154
						c0.195,0.471,0.432,0.995,0.505,1.692c0.018,0.175,0.008,0.37,0.007,0.56c-0.041,0.205-0.073,0.426-0.181,0.637
						c-0.13,0.211-0.264,0.438-0.491,0.56c-0.104,0.067-0.215,0.15-0.323,0.192l-0.328,0.089c-0.231,0.073-0.433,0.068-0.638,0.065
						l-0.312-0.001c-0.19-0.01-0.192-0.022-0.322-0.044c-0.501-0.128-0.778-0.273-1.139-0.414c-0.338-0.139-0.673-0.273-0.993-0.361
						c-0.313-0.097-0.632-0.1-0.709-0.055c-0.012,0.022-0.03,0.01-0.04,0.037c-0.005,0.012-0.012,0.02-0.022,0.026
						c-0.017,0.021-0.047,0.079-0.069,0.116c-0.103,0.178-0.274,0.449-0.547,0.643c-0.556,0.354-1.053,0.35-1.491,0.373h-0.021
						l-0.096-0.006l-0.037-0.005l-0.073-0.009l-0.147-0.018l-0.294-0.037c-0.257-0.08-0.583-0.178-0.801-0.338
						c-0.227-0.161-0.434-0.341-0.579-0.57l-0.06-0.082l-0.029-0.041l-0.015-0.021c-0.013-0.02,0.089,0.13,0.043,0.063l-0.005-0.007
						l-0.09-0.116c-0.04-0.061-0.047-0.044-0.036-0.022c0.001,0.013,0.03,0.018,0.021,0.015c-0.077-0.046-0.396-0.043-0.708,0.054
						c-0.319,0.088-0.654,0.223-0.992,0.361c-0.345,0.138-0.673,0.295-1.104,0.406c-0.129,0.023-0.221,0.056-0.405,0.055
						l-0.263-0.001c-0.168,0.001-0.333,0.012-0.607-0.06c-0.247-0.045-0.477-0.123-0.684-0.288c-0.227-0.122-0.36-0.348-0.491-0.56
						c-0.107-0.211-0.14-0.432-0.181-0.636c-0.001-0.19-0.01-0.386,0.007-0.561c0.073-0.697,0.309-1.223,0.504-1.692
						c0.204-0.465,0.414-0.844,0.589-1.154c0.354-0.619,0.593-0.955,0.593-0.955l0.004-0.006c0.129-0.183,0.381-0.226,0.563-0.097
						c0.174,0.124,0.221,0.36,0.111,0.54c0,0-0.198,0.324-0.493,0.93c-0.144,0.303-0.318,0.674-0.473,1.105
						c-0.146,0.427-0.317,0.93-0.35,1.42c-0.006,0.121,0.01,0.23,0.008,0.348c0.032,0.09,0.044,0.194,0.085,0.261
						c0.054,0.048,0.067,0.129,0.155,0.147c0.036,0.016,0.059,0.049,0.1,0.062c0.047,0.004,0.091,0.011,0.135,0.022
						c0.054,0.005,0.064,0.039,0.155,0.034l0.26-0.01l0.263-0.009c-0.007,0.005,0.074-0.017,0.119-0.027
						c0.258-0.08,0.597-0.226,0.937-0.372c0.346-0.146,0.709-0.301,1.125-0.423c0.411-0.101,0.905-0.257,1.559,0.005
						c0.08,0.035,0.182,0.108,0.265,0.174c0.094,0.073,0.167,0.147,0.179,0.172l0.204,0.26c0.064,0.109,0.162,0.178,0.257,0.248
						c0.099,0.068,0.172,0.069,0.275,0.137l0.51,0.057c0.344,0.002,0.675-0.055,0.792-0.135c0.05-0.038,0.105-0.098,0.2-0.257
						l0.083-0.136c0.05-0.069,0.103-0.138,0.159-0.203c0.104-0.134,0.274-0.234,0.42-0.316c0.654-0.262,1.148-0.105,1.559-0.004
						c0.415,0.121,0.778,0.276,1.125,0.422c0.324,0.143,0.714,0.3,0.901,0.364c0.045,0.013,0.216,0.052,0.203,0.038l0.214,0.007
						c0.145,0.01,0.289,0.021,0.385-0.019l0.165-0.027c0.047-0.016,0.065-0.049,0.103-0.063c0.088-0.019,0.101-0.1,0.155-0.147
						c0.041-0.066,0.053-0.172,0.085-0.262c-0.002-0.117,0.014-0.227,0.007-0.347c-0.033-0.491-0.204-0.994-0.35-1.421
						c-0.155-0.432-0.329-0.803-0.473-1.105c-0.297-0.609-0.494-0.932-0.495-0.932c-0.116-0.19-0.056-0.439,0.134-0.556
						c0.182-0.111,0.418-0.062,0.54,0.11L209.312,104.004z"/>
				</g>
			</g>
			<path fill="#170D0E" d="M170.971,95.828c0,0,2.18,11.963,3.362,11.552c0,0-0.827-8.309-0.827-13.193c0,0-1.007-8.187,0.142-9.625
				c0,0,3.735-5.027,4.31-7.903c0,0,1.58-7.754-0.717-9.477c0,0-7.04,0.287-8.621,10.773
				C168.62,77.955,170.306,94.16,170.971,95.828z"/>
			<path fill="#170D0E" d="M221.484,64.023c0,0,3.449,5.311,3.735,7.61c0,0,2.442,7.327,5.747,10.919c0,0-0.079,6.295,1.149,11.203
				c0.143,0.575-0.431,10.343-0.718,11.781c0,0,1.579-2.73,2.729-10.92c0,0,2.729-16.376-2.012-23.989
				C232.115,70.628,231.109,63.733,221.484,64.023z"/>
			<path fill="#170D0E" d="M177.383,69.766c0,0,9.625-1.795,21.405-5.602c0.411-0.133,9.91,1.865,13.072,0.146
				c0,0,11.062,3.445,13.073,1.866l-8.62-6.607l-28.156,0.717C188.157,60.285,177.526,61.289,177.383,69.766z"/>
			<path fill="#414042" d="M177.042,70.557c0,0-2.046,0.807-2.424,1.4c0,0,1.67-0.541,2.693,0.054c0,0-1.507,0.322-2.854,1.292
				c0,0,2.208-0.755,3.394,0c0,0-2.64,0.538-3.447,1.292c0,0,1.723-0.7,2.8-0.106c0,0-6.626,3.502-7.973,6.41
				c0,0,1.132-4.202,2.533-4.525c0,0-2.533,0.323-3.395,2.156c0,0,1.24-3.448,3.232-3.502c0,0-2.262-0.217-3.879,0.86
				C167.722,75.888,172.572,70.018,177.042,70.557z"/>
			<path fill="#414042" d="M226.764,72.279c0,0,4.686-0.162,6.249-2.102c0,0,0,1.186-1.08,2.049c0,0,1.186-0.162,1.563-1.023
				c0,0-0.701,1.777-1.616,2.316c0,0,1.455-0.109,2.1-1.35c0,0-0.59,2.694-2.853,2.748c-1.058,0.027-2.694,0-4.096-1.077
				c0,0,2.264,0.378,2.746-0.052C229.778,73.789,227.679,73.52,226.764,72.279z"/>
			<path fill="#414042" d="M193.311,62.744c0,0-10.45-5.332-7.972-12.443c0,0,0.323-1.24,1.454-2.156c0,0-1.617,5.387,0.43,7.058
				c0,0-1.399-5.604,1.617-8.135c0,0-1.159,5.903,0.377,8.674C190.222,57.553,192.18,61.668,193.311,62.744z"/>
			<path opacity="0.2" fill="none" stroke="#231F20" stroke-width="0.9319" stroke-linecap="round" stroke-miterlimit="10" d="
				M195.763,118.535c0,0,7.04-1.426,15.011,0.162"/>
			<path fill="#8CCDDD" d="M217.716,102.403c0,0.911-0.739,1.651-1.651,1.651s-1.651-0.74-1.651-1.651s1.651-3.933,1.651-3.933
				S217.716,101.492,217.716,102.403z"/>
		</g>
	</g>
	<g clip-path="url(#SVGID_2_)">
		<path fill="#776537" d="M486.641,174.144c0,0-7.328,2.673-7.252,15.048c0.025,4.144,2.228,15.05-5.577,15.621
			c0,0,9.477,1.109,12.264-5.022c0,0-0.554,11.154-5.019,13.936c0,0,26.206,11.15,30.671-13.936l-2.231-36.803
			C509.497,162.987,493.322,156.296,486.641,174.144z"/>
		<path fill="#776537" d="M644.399,174.144c0,0,7.321,2.673,7.244,15.048c-0.021,4.144-2.226,15.05,5.585,15.621
			c0,0-9.484,1.109-12.269-5.022c0,0,0.553,11.154,5.018,13.936c0,0-26.206,11.15-30.671-13.936l2.238-36.803
			C621.544,162.987,637.713,156.296,644.399,174.144z"/>
		<g>
			<polygon fill="#B7B7B7" points="477.527,235.751 495.375,233.525 498.154,253.599 			"/>
			<polygon fill="#B7B7B7" points="653.45,235.751 635.606,233.525 632.815,253.599 			"/>
			<path fill="#F4B07D" d="M671.2,356.536H460.798c0,0,34.446-127.195,34.446-188.157c0-35.219,140.891-35.219,140.891,0
				C636.135,256.48,671.2,356.536,671.2,356.536z"/>
			<path fill="#776537" d="M486.666,174.634c0,0-7.309,2.671-7.238,15.031c0.027,4.142,2.228,15.032-5.567,15.591
				c0,0,9.465,1.114,12.248-5.011c0,0-0.556,11.138-5.011,13.92c0,0,26.167,11.132,30.622-13.92l-2.228-36.747
				C509.492,163.498,493.345,156.82,486.666,174.634z"/>
			<path fill="#776537" d="M644.186,174.634c0,0,7.311,2.671,7.239,15.031c-0.025,4.142-2.226,15.032,5.569,15.591
				c0,0-9.467,1.114-12.251-5.011c0,0,0.558,11.138,5.015,13.92c0,0-26.171,11.132-30.624-13.92l2.229-36.747
				C621.363,163.498,637.506,156.82,644.186,174.634z"/>
			<g>
				<polygon fill="#B7B7B7" points="477.571,236.154 495.386,233.925 498.169,253.969 				"/>
				<polygon fill="#B7B7B7" points="653.223,236.154 635.407,233.925 632.623,253.969 				"/>
				<path fill="#F4B07D" d="M670.945,356.751H460.872c0,0,34.389-126.999,34.389-187.864c0-35.167,140.68-35.165,140.68,0
					C635.94,256.849,670.945,356.751,670.945,356.751z"/>
				<g>
					<path fill="#776537" d="M567.053,49.098c0,0-27.314-38.276-77.954,0.582c-20.462,15.707-29.502,80.961,4.942,115.412
						l74.775-83.615L567.053,49.098z"/>
					<path fill="#776537" d="M567.322,49.098c0,0,27.316-38.276,77.954,0.582c20.459,15.711,29.502,80.961-4.943,115.412
						l-74.776-83.615L567.322,49.098z"/>
					<path fill="#F4B07D" d="M631.764,92.594c0,0-23.641-30.243-68.627-29.594c-44.808-0.649-63.627,29.594-63.627,29.594
						c-15.727,25.737-11.027,105.241-11.027,105.241c0,39.34,54.559,70.68,77.477,70.68c22.915,0,77.672-29.299,77.672-70.68
						C643.631,197.835,647.493,118.331,631.764,92.594z"/>
					<g>
						<path opacity="0.1" fill="#232222" d="M601.17,224.993c0,0-5.745,21.146-36.531,21.146c-30.41,0-36.531-21.146-36.531-21.146
							s11.127,15.581,37.832,15.581C565.94,240.574,583.729,242.435,601.17,224.993z"/>
					</g>
					<g opacity="0.2">
						<path fill="#231F20" d="M585.023,158.176c0.227,0.219,0.467,0.484,0.671,0.717c0.207,0.248,0.418,0.491,0.608,0.754
							c0.387,0.52,0.746,1.066,1.043,1.668c0.156,0.294,0.301,0.598,0.412,0.926c0.128,0.317,0.241,0.645,0.306,0.999
							c0.087,0.345,0.156,0.694,0.157,1.071c0.027,0.369,0.038,0.74-0.045,1.121c-0.056,0.379-0.112,0.758-0.284,1.107
							c-0.155,0.348-0.267,0.736-0.51,1.02c-0.223,0.297-0.435,0.621-0.683,0.886l-0.802,0.709
							c-0.264,0.259-0.563,0.398-0.852,0.583l-0.877,0.52l-1.809,0.757l-0.05,0.021l-0.169,0.031
							c-0.72,0.133-1.539,0.35-2.282,0.601c-0.755,0.255-1.484,0.562-2.161,0.923c-0.673,0.361-1.317,0.76-1.826,1.244
							c-0.533,0.496-0.838,0.937-1.327,1.75c-0.276,0.391-0.478,0.783-0.837,1.182l-0.509,0.59c-0.189,0.182-0.404,0.348-0.608,0.52
							c-0.399,0.372-0.866,0.6-1.328,0.844c-0.459,0.279-0.931,0.395-1.401,0.551l-0.707,0.221
							c-0.234,0.058-0.464,0.084-0.696,0.125l-1.392,0.225l-1.359,0.074l-0.68,0.033l-0.339,0.016l-0.17,0.008l-0.151-0.002
							l-0.08-0.004c-0.871-0.057-1.681-0.051-2.603-0.159c-0.953-0.151-1.912-0.253-2.839-0.595l-0.699-0.219
							c-0.23-0.101-0.459-0.223-0.688-0.336l-0.682-0.353c-0.219-0.136-0.424-0.31-0.634-0.465
							c-0.867-0.613-1.483-1.474-2.016-2.236l-0.354-0.554l-0.088-0.138l-0.044-0.069c-0.047-0.067,0.057,0.083,0.044,0.064
							l-0.006-0.008l-0.012-0.017l-0.023-0.032l-0.19-0.26l-0.19-0.259c-0.062-0.081-0.108-0.11-0.162-0.169
							c-0.115-0.105-0.175-0.209-0.326-0.326c-0.508-0.484-1.153-0.883-1.825-1.246c-0.677-0.362-1.406-0.669-2.16-0.924
							c-0.743-0.251-1.562-0.469-2.282-0.602l-0.169-0.03l-0.05-0.021l-1.808-0.757l-0.877-0.521
							c-0.288-0.184-0.588-0.324-0.851-0.582l-0.802-0.709c-0.248-0.266-0.461-0.588-0.683-0.885
							c-0.242-0.284-0.354-0.672-0.51-1.02c-0.171-0.349-0.229-0.729-0.284-1.107c-0.083-0.379-0.073-0.75-0.046-1.119
							c0-0.377,0.069-0.728,0.156-1.071c0.064-0.354,0.177-0.682,0.305-0.999c0.111-0.329,0.256-0.633,0.412-0.927
							c0.296-0.602,0.655-1.147,1.041-1.667c0.19-0.264,0.401-0.507,0.607-0.756c0.218-0.246,0.42-0.473,0.681-0.727
							c0.377-0.367,0.979-0.359,1.347,0.018c0.351,0.361,0.358,0.928,0.029,1.298l-0.028,0.031
							c-0.157,0.175-0.343,0.407-0.507,0.622c-0.161,0.225-0.331,0.445-0.476,0.68c-0.295,0.464-0.582,0.934-0.787,1.422
							c-0.114,0.241-0.216,0.483-0.281,0.729c-0.087,0.244-0.158,0.487-0.184,0.728c-0.051,0.241-0.088,0.479-0.067,0.706
							c-0.008,0.23-0.009,0.459,0.062,0.666c0.043,0.213,0.071,0.43,0.193,0.613c0.108,0.188,0.144,0.402,0.32,0.564
							c0.15,0.17,0.264,0.359,0.427,0.525l0.564,0.46c0.164,0.171,0.422,0.274,0.643,0.405l0.679,0.383l1.528,0.584l-0.218-0.051
							c0.972,0.148,1.819,0.354,2.711,0.621c0.878,0.268,1.747,0.6,2.596,1.021c0.846,0.426,1.677,0.936,2.427,1.621
							c0.36,0.326,0.853,0.849,1.048,1.145l0.193,0.258l0.141,0.203l0.087,0.131l0.344,0.529c0.454,0.625,0.861,1.19,1.415,1.555
							c0.137,0.096,0.257,0.209,0.401,0.297l0.467,0.225c0.157,0.075,0.306,0.16,0.466,0.23l0.532,0.154
							c0.691,0.258,1.451,0.315,2.188,0.441c0.78,0.092,1.692,0.083,2.532,0.129l2.36-0.09l1.149-0.177
							c0.189-0.032,0.389-0.05,0.571-0.092l0.52-0.163c0.344-0.11,0.717-0.188,0.99-0.371c0.296-0.156,0.615-0.289,0.841-0.518
							c0.123-0.104,0.257-0.194,0.378-0.305l0.331-0.385c0.23-0.229,0.433-0.605,0.656-0.908c0.39-0.658,1.064-1.646,1.817-2.293
							c0.751-0.686,1.583-1.195,2.428-1.622c0.85-0.421,1.718-0.752,2.597-1.02c0.892-0.267,1.739-0.472,2.712-0.62l-0.219,0.052
							l1.528-0.585l0.679-0.381c0.221-0.131,0.479-0.234,0.643-0.406l0.564-0.461c0.163-0.166,0.276-0.354,0.427-0.524
							c0.175-0.161,0.211-0.376,0.319-0.563c0.122-0.184,0.15-0.401,0.193-0.613c0.07-0.207,0.069-0.436,0.062-0.666
							c0.021-0.227-0.017-0.465-0.067-0.706c-0.025-0.24-0.098-0.483-0.184-0.727c-0.066-0.246-0.168-0.488-0.282-0.729
							c-0.205-0.488-0.493-0.958-0.788-1.422c-0.145-0.234-0.314-0.455-0.476-0.68c-0.179-0.229-0.325-0.42-0.518-0.632
							c-0.354-0.39-0.324-0.993,0.065-1.347C584.094,157.818,584.665,157.833,585.023,158.176z"/>
					</g>
					<path fill="#2E230E" d="M531.272,144.31c0,2.369-1.921,4.282-4.287,4.282s-4.288-1.913-4.288-4.282
						c0-2.372,1.922-4.292,4.288-4.292S531.272,141.938,531.272,144.31z"/>
					<path fill="#593B2E" d="M504.636,142.783c0,0,14.626-13.988,35.319-8.545c0,0,5.926-3.487,0.795-5.68
						C540.75,128.559,516.163,124.326,504.636,142.783z"/>
					<path fill="#2E230E" d="M597.677,144.309c0,2.369,1.92,4.283,4.285,4.283c2.377,0,4.296-1.914,4.296-4.283
						c0-2.372-1.919-4.292-4.296-4.292C599.597,140.017,597.677,141.937,597.677,144.309z"/>
					<path fill="#593B2E" d="M624.891,134.023c0,0-15.845-12.568-35.956-5.229c0,0-6.22-2.923-1.315-5.584
						C587.62,123.21,611.704,116.722,624.891,134.023z"/>
					<path fill="#F4B07D" d="M494.902,150.366c0,0-14.718-24.138-20.016-1.765c-1.638,6.89-1.771,44.161,19.424,20.613"/>
					
						<path fill="none" stroke="#C18963" stroke-width="2.3552" stroke-linecap="round" stroke-linejoin="round" stroke-miterlimit="10" d="
						M485.483,150.955c0,0-7.656,5.889,0,14.718"/>
					<path fill="#F4B07D" d="M634.682,150.366c0,0,14.726-24.138,20.024-1.765c1.635,6.89,1.762,44.161-19.427,20.613"/>
					
						<path fill="none" stroke="#C18963" stroke-width="2.3552" stroke-linecap="round" stroke-linejoin="round" stroke-miterlimit="10" d="
						M644.111,150.955c0,0,7.65,5.889,0,14.718"/>
					
						<path fill="none" stroke="#C18963" stroke-width="1.7869" stroke-linecap="round" stroke-linejoin="round" stroke-miterlimit="10" d="
						M578.568,196.547c0,0-14.5,9.355-28.217,0.554"/>
					<path fill="#776537" d="M486.156,66.758c0,0-8.646,51.628-7.467,52.019c1.173,0.392,41.615-21.008,41.615-21.008l46.915-16.292
						l69.671,21.395l14.138-5.884l-7.463-36.901l-67.918-7.064l-53.377,5.883L486.156,66.758z"/>
					<path opacity="0.3" fill="#231F20" d="M566.816,81.477c0,0,28.269,65.554,91.071,31.994c0,0-18.056-9.766-20.997-22.127"/>
					<path opacity="0.3" fill="#231F20" d="M566.417,80.98c0,0-16.997,49.514-78.898,32.943c0,0,14.195-6.826,19.438-18.537"/>
					<path fill="#776537" d="M567.219,81.477c0,0,26.496,56.727,86.157,31.212c0,0-13.545-10.013-16.486-22.376"/>
					<path fill="#776537" d="M566.417,80.98c0,0-21.644,40.111-72.68,31.542c0,0,11.152-9.365,13.031-20.192"/>
					<path fill="#776537" d="M542.677,34.18c0,0,9.499-3.366,6.281-17.276c0,0,10.604,10.202,10.604,20.414
						c0,0,4.315-21.197,13.344-24.339c0,0-3.288,27.855,24.176,19.688l-4.941,11.326l-19.629,23.939l-36.111-6.674L542.677,34.18z"
						/>
				</g>
			</g>
		</g>
		
			<path fill="none" stroke="#F4B07D" stroke-width="43.0898" stroke-linecap="round" stroke-linejoin="round" stroke-miterlimit="10" d="
			M490.404,273.676c0,0-82.368,59.757-89.489,123.808c-7.345,66.191-3.672,82.128-3.672,117.188"/>
		<path fill="none" stroke="#282828" stroke-width="44.1264" stroke-linejoin="round" stroke-miterlimit="10" d="M490.404,273.676
			c0,0-82.368,59.757-89.489,123.808c-7.345,66.191-3.672,82.128-3.672,117.188"/>
		
			<path fill="none" stroke="#F4B07D" stroke-width="43.0898" stroke-linecap="round" stroke-linejoin="round" stroke-miterlimit="10" d="
			M642.691,274.746c0,0,82.366,59.763,89.488,123.81c7.345,66.186,3.679,82.117,3.679,117.181"/>
		<path fill="none" stroke="#282828" stroke-width="44.1264" stroke-linejoin="round" stroke-miterlimit="10" d="M642.691,274.746
			c0,0,82.366,59.763,89.488,123.81c7.345,66.186,3.679,82.117,3.679,117.181"/>
		<path fill="#F4B07D" d="M484.779,264.868c-12.546,53.545-36.78,49.233-36.78,139.745c0,111.407,0,91.387,0,94.214
			c0,0.204,12.258,0.298,12.258,0.298h105.799V264.868H484.779z"/>
		<path fill="#F4B07D" d="M643.274,264.868c12.543,53.545,36.773,49.233,36.773,139.745c0,111.407,0,91.387,0,94.214
			c0,0.204-12.259,0.298-12.259,0.298H561.997V264.868H643.274z"/>
		<rect x="483.779" y="262.238" fill="#FFFFFF" width="158.916" height="230.017"/>
		<path fill="#282828" d="M433.48,438.095c0,0-0.936,55.566-4.787,81.017c0,0,7.423,3.356,26.128,3.356
			c0,0,37.969,4.477,42.077-0.381l-1.117-55.726L433.48,438.095z"/>
		<path fill="#282828" d="M496.058,255.152v239.247h-60.109c0,0-18.395-174.524,41.971-239.247H496.058z"/>
		<path fill="#282828" d="M700.008,444.773c0,0,0,56.876,5.857,75.831c0,0-13.859,3.723-32.57,3.723c0,0-34.975,2.617-39.094-2.24
			l1.125-55.726L700.008,444.773z"/>
		<path fill="#282828" d="M635.046,255.152v239.247h64.567c0,0,10.865-198.312-46.428-239.247H635.046z"/>
		<polygon fill="#2D2D2D" points="494.969,255.042 462.625,297.313 493.046,299.563 462.625,337.986 494.969,456.037 		"/>
		<polygon fill="#2D2D2D" points="634.833,255.042 667.181,297.313 636.76,299.563 667.181,337.986 634.833,456.037 		"/>
		<g>
			<g>
				<polygon fill="#30AB64" points="540.963,263.238 564.699,286.968 589.279,263.238 565.257,257.012 				"/>
				<path fill="#30AB64" d="M572.966,276.822l-7.435-7.554v-0.827l-0.41,0.403l-0.41-0.403l-0.043,0.882l-7.399,7.499
					l-17.354,165.243c0,0,19.062,42.969,25.616,42.969c8.316,0,24.794-42.969,24.794-42.969L572.966,276.822z"/>
			</g>
			<polygon fill="#D6D6D6" points="484.217,237.984 566.055,257.012 540.72,284.079 477.527,255.081 477.527,235.751 			"/>
			<polygon fill="#D6D6D6" points="647.083,237.984 565.257,257.012 590.578,284.079 653.775,255.081 653.775,235.751 			"/>
		</g>
		<g>
			<path fill="#F4B07D" d="M621.444,231.031c0,0-8.924,30.016-56.716,30.016c-47.214,0-56.709-30.016-56.709-30.016
				s17.265,22.109,58.721,22.109C566.74,253.141,594.37,255.784,621.444,231.031z"/>
		</g>
	</g>
</g>
</svg>
