<?xml version="1.0" encoding="utf-8"?>
<!-- Generator: Adobe Illustrator 16.0.0, SVG Export Plug-In . SVG Version: 6.00 Build 0)  -->
<!DOCTYPE svg PUBLIC "-//W3C//DTD SVG 1.1//EN" "http://www.w3.org/Graphics/SVG/1.1/DTD/svg11.dtd">
<svg version="1.1" id="Layer_1" xmlns="http://www.w3.org/2000/svg" xmlns:xlink="http://www.w3.org/1999/xlink" x="0px" y="0px"
	 width="874px" height="476.039px" viewBox="0 0 874 476.039" enable-background="new 0 0 874 476.039" xml:space="preserve">
<g>
	<rect fill="#E8E8E8" width="874" height="475"/>
	<g opacity="0.4">
		<rect x="9.788" y="112.565" fill="#B7E5F3" width="91.418" height="22.221"/>
		<rect x="9.788" y="154.466" fill="#231F20" width="91.418" height="22.221"/>
		<rect x="9.788" y="196.365" fill="#231F20" width="91.418" height="22.221"/>
		<rect x="9.788" y="238.266" fill="#FFB743" width="91.418" height="22.221"/>
		<rect x="9.788" y="280.165" fill="#EDD732" width="91.418" height="22.221"/>
		<rect x="9.788" y="322.064" fill="#4FBA9E" width="91.418" height="22.222"/>
		<rect x="120.886" y="112.565" fill="#123478" width="91.419" height="22.221"/>
		<rect x="120.886" y="154.466" fill="#E0192D" width="91.419" height="22.221"/>
		<rect x="120.886" y="196.365" fill="#B7E5F3" width="91.419" height="22.221"/>
		<rect x="120.886" y="238.266" fill="#123478" width="91.419" height="22.221"/>
		<rect x="120.886" y="280.165" fill="#231F20" width="91.419" height="22.221"/>
		<rect x="120.886" y="322.064" fill="#B7E5F3" width="91.419" height="22.222"/>
		<rect x="232.619" y="112.565" fill="#231F20" width="91.417" height="22.221"/>
		<rect x="232.619" y="154.466" fill="#B7E5F3" width="91.417" height="22.221"/>
		<rect x="232.619" y="196.365" fill="#231F20" width="91.417" height="22.221"/>
		<rect x="232.619" y="238.266" fill="#E0192D" width="91.417" height="22.221"/>
		<rect x="232.619" y="280.165" fill="#32EDB7" width="91.417" height="22.221"/>
		<rect x="232.619" y="322.064" fill="#E0192D" width="91.417" height="22.222"/>
		<rect x="341.813" y="112.565" fill="#CAFEFF" width="91.416" height="22.221"/>
		<rect x="341.813" y="154.466" fill="#123478" width="91.416" height="22.221"/>
		<rect x="341.813" y="196.365" fill="#C8FEF7" width="91.416" height="22.221"/>
		<rect x="341.813" y="238.266" fill="#30EAEF" width="91.416" height="22.221"/>
		<rect x="341.813" y="280.165" fill="#231F20" width="91.416" height="22.221"/>
		<rect x="341.813" y="322.064" fill="#30EAEF" width="91.416" height="22.222"/>
	</g>
	<g opacity="0.4">
		<rect x="440.621" y="112.565" fill="#B7E5F3" width="91.418" height="22.221"/>
		<rect x="440.621" y="154.466" fill="#231F20" width="91.418" height="22.221"/>
		<rect x="440.621" y="196.365" fill="#231F20" width="91.418" height="22.221"/>
		<rect x="440.621" y="238.266" fill="#FFB743" width="91.418" height="22.221"/>
		<rect x="440.621" y="280.165" fill="#EDD732" width="91.418" height="22.221"/>
		<rect x="440.621" y="322.064" fill="#4FBA9E" width="91.418" height="22.222"/>
		<rect x="551.72" y="112.565" fill="#123478" width="91.418" height="22.221"/>
		<rect x="551.72" y="154.466" fill="#E0192D" width="91.418" height="22.221"/>
		<rect x="551.72" y="196.365" fill="#B7E5F3" width="91.418" height="22.221"/>
		<rect x="551.72" y="238.266" fill="#123478" width="91.418" height="22.221"/>
		<rect x="551.72" y="280.165" fill="#231F20" width="91.418" height="22.221"/>
		<rect x="551.72" y="322.064" fill="#B7E5F3" width="91.418" height="22.222"/>
		<rect x="663.453" y="112.565" fill="#231F20" width="91.418" height="22.221"/>
		<rect x="663.453" y="154.466" fill="#B7E5F3" width="91.418" height="22.221"/>
		<rect x="663.453" y="196.365" fill="#231F20" width="91.418" height="22.221"/>
		<rect x="663.453" y="238.266" fill="#E0192D" width="91.418" height="22.221"/>
		<rect x="663.453" y="280.165" fill="#32EDB7" width="91.418" height="22.221"/>
		<rect x="663.453" y="322.064" fill="#E0192D" width="91.418" height="22.222"/>
		<rect x="772.646" y="112.565" fill="#CAFEFF" width="91.416" height="22.221"/>
		<rect x="772.646" y="154.466" fill="#123478" width="91.416" height="22.221"/>
		<rect x="772.646" y="196.365" fill="#C8FEF7" width="91.416" height="22.221"/>
		<rect x="772.646" y="238.266" fill="#30EAEF" width="91.416" height="22.221"/>
		<rect x="772.646" y="280.165" fill="#231F20" width="91.416" height="22.221"/>
		<rect x="772.646" y="322.064" fill="#30EAEF" width="91.416" height="22.222"/>
	</g>
	<g>
		<g>
			
				<path fill="none" stroke="#F4B07D" stroke-width="29.1108" stroke-linecap="round" stroke-linejoin="round" stroke-miterlimit="10" d="
				M379.094,244.345c0,0-55.644-40.37-60.453-83.639c-4.967-44.719-2.483-55.484-2.483-79.172"/>
			<path fill="none" stroke="#282828" stroke-width="29.811" stroke-linejoin="round" stroke-miterlimit="10" d="M379.094,244.345
				c0,0-55.644-40.37-60.453-83.639c-4.967-44.719-2.483-55.484-2.483-79.172"/>
			<path fill="#776537" d="M376.548,162.598c0,0-4.943,1.808-4.896,10.171c0.018,2.803,1.507,10.172-3.768,10.548
				c0,0,6.404,0.754,8.287-3.39c0,0-0.376,7.534-3.391,9.418c0,0,17.706,7.533,20.719-9.418l-1.507-24.862
				C391.993,155.064,381.069,150.543,376.548,162.598z"/>
			<path fill="#776537" d="M483.132,162.598c0,0,4.945,1.808,4.898,10.171c-0.02,2.803-1.508,10.172,3.768,10.548
				c0,0-6.404,0.754-8.289-3.39c0,0,0.377,7.534,3.391,9.418c0,0-17.705,7.533-20.719-9.418l1.508-24.862
				C467.689,155.064,478.613,150.543,483.132,162.598z"/>
			<g>
				<polygon fill="#B7B7B7" points="370.396,204.224 382.449,202.718 384.333,216.278 				"/>
				<polygon fill="#B7B7B7" points="489.246,204.224 477.191,202.718 475.306,216.278 				"/>
				<path fill="#F4B07D" d="M501.238,285.821H359.096c0,0,23.269-85.93,23.269-127.111c0-23.797,95.188-23.795,95.188,0
					C477.552,218.227,501.238,285.821,501.238,285.821z"/>
				<g>
					<path fill="#776537" d="M430.941,77.656c0,0-18.482-25.897-52.745,0.395c-13.848,10.627-19.962,54.781,3.344,78.09
						l50.596-56.577L430.941,77.656z"/>
					<path fill="#776537" d="M431.124,77.656c0,0,18.481-25.897,52.745,0.395c13.844,10.63,19.963,54.781-3.344,78.09L429.93,99.564
						L431.124,77.656z"/>
					<path fill="#F4B07D" d="M474.728,107.087c0,0-15.998-20.463-46.435-20.024c-30.319-0.438-43.053,20.024-43.053,20.024
						c-10.643,17.414-7.461,71.209-7.461,71.209c0,26.616,36.917,47.824,52.421,47.824c15.506,0,52.555-19.824,52.555-47.824
						C482.755,178.296,485.371,124.501,474.728,107.087z"/>
					<g>
						<path opacity="0.1" fill="#232222" enable-background="new    " d="M454.027,196.672c0,0-3.891,14.31-24.72,14.31
							c-20.577,0-24.718-14.31-24.718-14.31s7.528,10.542,25.598,10.542C430.187,207.214,442.224,208.474,454.027,196.672z"/>
					</g>
					<g opacity="0.2">
						<path fill="#231F20" d="M443.097,151.462c0.154,0.148,0.314,0.329,0.453,0.487c0.139,0.168,0.279,0.334,0.406,0.512
							c0.26,0.354,0.506,0.721,0.705,1.127c0.105,0.199,0.205,0.404,0.281,0.626c0.086,0.214,0.164,0.435,0.209,0.675
							c0.059,0.232,0.105,0.469,0.105,0.725c0.02,0.249,0.027,0.5-0.027,0.756c-0.037,0.258-0.074,0.514-0.191,0.75
							c-0.104,0.236-0.178,0.499-0.342,0.691c-0.15,0.201-0.295,0.42-0.463,0.599l-0.543,0.479
							c-0.178,0.176-0.381,0.271-0.576,0.395l-0.592,0.353l-1.225,0.512l-0.035,0.015l-0.113,0.021
							c-0.486,0.089-1.041,0.236-1.543,0.405c-0.512,0.173-1.004,0.38-1.463,0.624c-0.455,0.245-0.892,0.516-1.235,0.843
							c-0.36,0.335-0.566,0.636-0.898,1.185c-0.341,0.509-0.727,1.116-1.324,1.551c-0.271,0.251-0.586,0.404-0.898,0.569
							c-0.311,0.188-0.63,0.267-0.948,0.372c-0.644,0.246-1.259,0.262-1.891,0.386c-0.632,0.034-1.186,0.073-1.881,0.085
							c-0.589-0.039-1.138-0.035-1.762-0.108c-0.646-0.103-1.294-0.171-1.921-0.4l-0.473-0.148
							c-0.156-0.068-0.311-0.151-0.466-0.229l-0.461-0.237c-0.148-0.093-0.287-0.209-0.429-0.315
							c-0.588-0.414-1.005-0.996-1.364-1.513l-0.239-0.374l-0.061-0.094l-0.029-0.047c0.058,0.083-0.002-0.002,0.002,0.005
							l-0.129-0.175c-0.195-0.281-0.285-0.33-0.458-0.511c-0.345-0.327-0.781-0.597-1.235-0.843
							c-0.458-0.245-0.952-0.453-1.462-0.625c-0.502-0.17-1.057-0.316-1.544-0.406l-0.114-0.021l-0.034-0.015l-1.223-0.512
							l-0.593-0.352c-0.195-0.125-0.398-0.22-0.576-0.395l-0.542-0.479c-0.168-0.18-0.312-0.398-0.462-0.599
							c-0.163-0.193-0.238-0.455-0.343-0.691c-0.116-0.235-0.154-0.492-0.191-0.748c-0.056-0.258-0.048-0.508-0.029-0.758
							c0-0.254,0.047-0.49,0.107-0.723c0.044-0.24,0.121-0.461,0.208-0.676c0.075-0.222,0.173-0.426,0.279-0.625
							c0.2-0.406,0.445-0.773,0.704-1.127c0.268-0.355,0.527-0.675,0.864-1.008c0.253-0.25,0.661-0.246,0.911,0.007
							c0.242,0.245,0.247,0.634,0.02,0.886l-0.019,0.02c-0.229,0.25-0.468,0.57-0.671,0.875c-0.203,0.312-0.394,0.634-0.533,0.964
							c-0.076,0.163-0.146,0.328-0.189,0.495c-0.059,0.164-0.106,0.33-0.123,0.492c-0.034,0.164-0.059,0.325-0.044,0.479
							c-0.005,0.156-0.005,0.312,0.043,0.451c0.03,0.145,0.049,0.291,0.132,0.416c0.074,0.126,0.098,0.271,0.218,0.381
							c0.103,0.115,0.179,0.242,0.289,0.355l0.382,0.311c0.111,0.117,0.286,0.187,0.436,0.275l0.459,0.258l1.034,0.396l-0.147-0.035
							c0.658,0.1,1.231,0.24,1.834,0.42c0.594,0.182,1.182,0.406,1.757,0.69c0.572,0.288,1.134,0.634,1.644,1.097
							c0.242,0.221,0.576,0.575,0.709,0.775l0.13,0.174l0.096,0.137l0.058,0.09l0.233,0.356c0.308,0.424,0.583,0.806,0.958,1.053
							c0.092,0.064,0.174,0.141,0.271,0.201l0.315,0.151l0.315,0.156l0.359,0.104c0.469,0.175,0.981,0.214,1.481,0.299
							c0.527,0.062,1.146,0.056,1.713,0.088l1.597-0.062c0.504-0.102,1.072-0.109,1.518-0.292c0.231-0.074,0.484-0.127,0.67-0.251
							c0.201-0.105,0.417-0.195,0.57-0.35c0.36-0.239,0.617-0.638,0.924-1.08c0.265-0.445,0.719-1.111,1.229-1.551
							c0.51-0.465,1.071-0.809,1.644-1.099c0.576-0.284,1.164-0.509,1.757-0.69c0.604-0.18,1.178-0.318,1.836-0.42l-0.148,0.035
							l1.033-0.395l0.459-0.259c0.15-0.089,0.324-0.159,0.436-0.274l0.383-0.312c0.109-0.112,0.186-0.239,0.287-0.355
							c0.119-0.108,0.145-0.254,0.219-0.381c0.082-0.124,0.102-0.271,0.131-0.415c0.049-0.14,0.047-0.295,0.043-0.451
							c0.016-0.153-0.01-0.314-0.045-0.479c-0.018-0.162-0.064-0.327-0.123-0.492c-0.045-0.167-0.113-0.332-0.189-0.495
							c-0.293-0.651-0.727-1.304-1.211-1.846l-0.008-0.007c-0.236-0.265-0.215-0.672,0.053-0.91
							C442.472,151.217,442.857,151.229,443.097,151.462z"/>
					</g>
					<circle fill="#2E230E" cx="403.83" cy="137.079" r="2.902"/>
					<path fill="#593B2E" d="M388.187,128.151c0,0,13.465-2.495,23.157,8.261c0,0,4.646,0.223,2.558-2.92
						C413.9,133.492,401.554,121.979,388.187,128.151z"/>
					<path fill="#2E230E" d="M451.664,137.079c0,1.604,1.297,2.898,2.9,2.898s2.904-1.295,2.904-2.898s-1.301-2.904-2.904-2.904
						S451.664,135.476,451.664,137.079z"/>
					<path fill="#593B2E" d="M469.033,127.842c0,0-13.221-3.543-23.732,6.422c0,0-4.648-0.146-2.318-3.114
						C442.98,131.149,456.193,120.645,469.033,127.842z"/>
					<path fill="#F4B07D" d="M382.122,146.179c0,0-9.958-16.334-13.543-1.195c-1.107,4.662-1.198,29.881,13.144,13.947"/>
					
						<path fill="none" stroke="#C18963" stroke-width="1.5936" stroke-linecap="round" stroke-linejoin="round" stroke-miterlimit="10" d="
						M375.748,146.576c0,0-5.18,3.985,0,9.958"/>
					<path fill="#F4B07D" d="M476.703,146.179c0,0,9.963-16.334,13.547-1.195c1.105,4.662,1.193,29.881-13.145,13.947"/>
					
						<path fill="none" stroke="#C18963" stroke-width="1.5936" stroke-linecap="round" stroke-linejoin="round" stroke-miterlimit="10" d="
						M483.08,146.576c0,0,5.178,3.985,0,9.958"/>
					<path fill="#776537" d="M376.204,89.605c0,0-5.85,34.934-5.053,35.198c0.795,0.265,28.158-14.215,28.158-14.215l31.744-11.025
						l47.141,14.478l9.564-3.981l-5.047-24.969l-45.956-4.779l-36.117,3.981L376.204,89.605z"/>
					<path opacity="0.3" fill="#231F20" enable-background="new    " d="M430.782,99.563c0,0,19.127,44.357,61.622,21.649
						c0,0-12.217-6.607-14.209-14.972"/>
					<path opacity="0.3" fill="#231F20" enable-background="new    " d="M430.511,99.229c0,0-11.501,33.503-53.386,22.29
						c0,0,9.604-4.618,13.151-12.544"/>
					<path fill="#776537" d="M431.053,99.563c0,0,17.929,38.384,58.294,21.12c0,0-9.16-6.774-11.152-15.142"/>
					<path fill="#776537" d="M430.511,99.229c0,0-14.645,27.14-49.178,21.342c0,0,7.545-6.336,8.816-13.661"/>
					<path fill="#776537" d="M414.448,67.562c0,0,6.428-2.278,4.25-11.69c0,0,7.175,6.904,7.175,13.814
						c0,0,2.919-14.344,9.029-16.469c0,0-2.226,18.848,16.359,13.32l-3.344,7.664L434.634,90.4l-24.433-4.515L414.448,67.562z"/>
					
						<path fill="#C18963" stroke="#C18963" stroke-width="1.9905" stroke-linecap="round" stroke-linejoin="round" stroke-miterlimit="10" d="
						M437.621,173.565c0,0-25.5-4-23.25,2.5c0,0,6.867,7.558,7.5,11c0.646,3.509,4,10.5,14.25-0.75
						C436.12,186.315,443.871,176.565,437.621,173.565z"/>
					<path opacity="0.1" fill="#232222" enable-background="new    " d="M422.37,139.815c0,0,5.5-4.75,14.5-0.25
						C436.87,139.565,428.37,129.815,422.37,139.815z"/>
				</g>
			</g>
			
				<path fill="none" stroke="#F4B07D" stroke-width="29.1108" stroke-linecap="round" stroke-linejoin="round" stroke-miterlimit="10" d="
				M481.976,230.784c0,0,55.646,40.37,60.455,83.639c4.969,44.72,2.484,55.484,2.484,79.172"/>
			<path fill="none" stroke="#282828" stroke-width="29.811" stroke-linejoin="round" stroke-miterlimit="10" d="M481.976,230.784
				c0,0,55.646,40.37,60.455,83.639c4.969,44.72,2.484,55.484,2.484,79.172"/>
			<path fill="#F4B07D" d="M375.291,223.895c-8.473,36.173-24.844,33.259-24.844,94.406c0,75.266,0,61.742,0,63.652
				c0,0.136,8.28,0.2,8.28,0.2h71.476V223.895H375.291z"/>
			<path fill="#F4B07D" d="M482.371,223.895c8.477,36.173,24.846,33.259,24.846,94.406c0,75.266,0,61.742,0,63.652
				c0,0.136-8.283,0.2-8.283,0.2h-71.47V223.895H482.371z"/>
			<g>
				<circle opacity="0.2" fill="#232222" enable-background="new    " cx="392.661" cy="277.585" r="7.175"/>
				<path opacity="0.2" fill="#232222" enable-background="new    " d="M396.251,277.585c0,1.979-1.605,3.594-3.591,3.594
					c-1.983,0-3.59-1.612-3.59-3.594s1.606-3.588,3.59-3.588C394.646,273.997,396.251,275.604,396.251,277.585z"/>
			</g>
			<g>
				<circle opacity="0.2" fill="#232222" enable-background="new    " cx="464.982" cy="277.585" r="7.175"/>
				<path opacity="0.2" fill="#232222" enable-background="new    " d="M468.574,277.585c0,1.979-1.607,3.594-3.59,3.594
					c-1.984,0-3.594-1.612-3.594-3.594s1.607-3.588,3.594-3.588C466.966,273.997,468.574,275.604,468.574,277.585z"/>
			</g>
			<path opacity="0.2" fill="#232222" enable-background="new    " d="M432.132,348.479c0,1.979-0.988,3.586-2.207,3.586
				c-1.218,0-2.207-1.605-2.207-3.586c0-1.983,0.989-3.591,2.207-3.591C431.144,344.889,432.132,346.495,432.132,348.479z"/>
			<rect x="350.414" y="377.244" fill="#161516" width="157.136" height="11.816"/>
			<rect x="418.478" y="377.244" fill="#D6D6D6" width="22.444" height="11.816"/>
			<rect x="374.618" y="222.117" fill="#FFFFFF" width="107.366" height="155.396"/>
			<path fill="#282828" d="M340.635,340.918c0,0-0.63,37.544-3.229,54.73c0,0,5.015,2.272,17.648,2.272
				c0,0,25.648,3.025,28.43-0.254l-0.757-37.653L340.635,340.918z"/>
			<path fill="#282828" d="M382.917,217.333v161.629h-40.608c0,0-12.434-117.905,28.354-161.629H382.917z"/>
			<path fill="#282828" d="M520.701,345.436c0,0,0,38.424,3.955,51.231c0,0-9.361,2.514-21.998,2.514c0,0-23.631,1.768-26.414-1.513
				l0.76-37.652L520.701,345.436z"/>
			<path fill="#282828" d="M476.814,217.333v161.629h43.619c0,0,7.34-133.978-31.363-161.629H476.814z"/>
			<polygon fill="#2D2D2D" points="382.181,217.256 360.326,245.812 380.877,247.333 360.326,273.29 382.181,353.043 			"/>
			<polygon fill="#2D2D2D" points="476.667,217.256 498.523,245.812 477.974,247.333 498.523,273.29 476.667,353.043 			"/>
			<g>
				<g>
					<polygon fill="#EA94C7" points="413.25,222.789 429.284,238.822 445.896,222.789 429.664,218.585 					"/>
					<path fill="#EA94C7" d="M434.875,231.97l-5.022-5.102v-0.561l-0.28,0.277l-0.276-0.277l-0.029,0.593l-4.996,5.069
						l-11.726,111.633c0,0,12.878,29.033,17.308,29.033c5.618,0,16.75-29.033,16.75-29.033L434.875,231.97z"/>
				</g>
				<polygon fill="#D6D6D6" points="374.915,205.731 430.2,218.585 413.088,236.874 370.396,217.286 370.396,204.224 				"/>
				<polygon fill="#D6D6D6" points="484.947,205.731 429.664,218.585 446.775,236.874 489.466,217.286 489.466,204.224 				"/>
			</g>
			<g>
				<path fill="#F4B07D" d="M467.623,201.034c0,0-6.023,20.276-38.316,20.276c-31.897,0-38.313-20.276-38.313-20.276
					s11.666,14.938,39.677,14.938C430.669,215.972,449.332,217.759,467.623,201.034z"/>
			</g>
		</g>
	</g>
	<rect y="372.039" fill="#5571AA" width="874" height="104"/>
	<g>
		
			<line fill="none" stroke="#231F20" stroke-width="2" stroke-miterlimit="10" x1="436.874" y1="367.215" x2="436.874" y2="264.383"/>
		<ellipse fill="#231F20" cx="436.999" cy="256.133" rx="5.375" ry="9.75"/>
	</g>
	<rect x="112.683" y="30.493" fill="#CCCCCC" width="207.027" height="52.002"/>
	<rect x="553.683" y="30.493" fill="#CCCCCC" width="207.027" height="52.002"/>
	<path fill="#FFFFFF" d="M169.632,210.012c0,0-53.87-19.518-67.358-70.245C88.79,89.04,118.877,11.708,243.176,19.282
		c124.304,7.574,121.479,139.218,48.238,179.017c0,0,9.016,21.664,25.921,25.643C317.336,223.941,243.561,246.17,169.632,210.012z"
		/>
	<rect x="158.933" y="92.897" fill="none" width="126.771" height="42.334"/>
	<g enable-background="new    ">
		<path fill="#464747" d="M186.064,125.558c-1.444,0-2.613-0.294-3.505-0.883c-0.893-0.589-1.396-1.548-1.51-2.879
			c-1.179,2.394-3.021,3.534-5.529,3.42c-2.015-0.075-3.448-0.864-4.303-2.365s-1.131-3.639-0.827-6.413l0.627-5.757
			c0.304-2.812,1.035-4.939,2.194-6.384c1.159-1.443,2.745-2.128,4.76-2.052c2.355,0.038,3.913,1.217,4.674,3.534l0.342-3.307h5.472
			l-1.71,16.474c-0.114,0.95,0.266,1.425,1.14,1.425c0.798,0,1.482-0.399,2.052-1.197c0.57-0.798,1.045-1.824,1.425-3.078
			c0.379-1.254,0.655-2.641,0.826-4.161c0.171-1.52,0.257-3.001,0.257-4.445c0-1.786-0.219-3.42-0.656-4.902
			c-0.437-1.482-1.121-2.745-2.052-3.791c-0.932-1.044-2.109-1.861-3.534-2.45c-1.425-0.589-3.126-0.884-5.102-0.884
			c-2.546,0-4.779,0.494-6.697,1.482c-1.919,0.988-3.525,2.394-4.816,4.218c-1.292,1.824-2.271,4.038-2.936,6.641
			c-0.666,2.603-0.998,5.52-0.998,8.749c0,4.599,1.083,8.228,3.249,10.887c2.166,2.661,5.509,3.99,10.032,3.99
			c1.063,0,2.089-0.057,3.078-0.171c0.988-0.114,1.957-0.313,2.907-0.599c0.949-0.285,1.909-0.684,2.878-1.197
			c0.969-0.513,1.947-1.148,2.936-1.909l-0.456,5.472c-1.901,1.255-3.791,2.1-5.671,2.537c-1.881,0.437-3.886,0.655-6.014,0.655
			c-3.192,0-5.948-0.484-8.265-1.453c-2.318-0.97-4.218-2.337-5.7-4.104c-1.482-1.767-2.575-3.866-3.278-6.298
			c-0.704-2.432-1.054-5.131-1.054-8.095c0-3.534,0.436-6.849,1.311-9.946c0.874-3.097,2.185-5.813,3.933-8.151
			c1.748-2.337,3.933-4.18,6.555-5.528s5.7-2.023,9.234-2.023c3.001,0,5.52,0.437,7.553,1.311c2.032,0.875,3.657,2.071,4.874,3.591
			c1.215,1.521,2.089,3.298,2.622,5.33c0.531,2.033,0.798,4.209,0.798,6.526c0,3.496-0.371,6.412-1.111,8.749
			c-0.741,2.337-1.673,4.209-2.793,5.615c-1.121,1.406-2.328,2.394-3.619,2.964C188.363,125.272,187.167,125.558,186.064,125.558z
			 M175.918,116.153c-0.152,1.33,0,2.279,0.456,2.85s1.121,0.875,1.995,0.912c0.874,0.038,1.586-0.219,2.138-0.77
			c0.55-0.551,0.902-1.491,1.054-2.821l0.57-5.415c0.114-1.102-0.077-1.91-0.57-2.423c-0.494-0.513-1.121-0.77-1.881-0.77
			c-0.875-0.037-1.596,0.219-2.166,0.77c-0.57,0.552-0.932,1.492-1.083,2.821L175.918,116.153z"/>
		<path fill="#464747" d="M200.542,120.086c0-2.052,0.333-3.791,0.998-5.216c0.665-1.425,1.776-2.479,3.334-3.163
			c-2.888-1.216-4.332-3.952-4.332-8.208v-0.741c0-3.229,0.77-5.681,2.309-7.353s3.885-2.509,7.04-2.509h7.182v5.7h-7.068
			c-0.988,0-1.767,0.285-2.337,0.855c-0.57,0.569-0.855,1.577-0.855,3.021v2.451c0,1.596,0.332,2.698,0.998,3.306
			c0.665,0.608,1.586,0.912,2.765,0.912h2.736v-4.445h6.27v4.445h1.653v5.7h-1.653v13.11c0,0.988,0.038,1.853,0.114,2.593
			c0.076,0.741,0.266,1.492,0.57,2.252h-6.384c-0.152-0.418-0.266-0.826-0.342-1.226c-0.077-0.398-0.152-1.035-0.228-1.909
			c-1.103,2.394-3.041,3.591-5.814,3.591c-2.318,0-4.057-0.778-5.215-2.337c-1.16-1.558-1.739-3.819-1.739-6.783V120.086z
			 M206.812,123.62c0,1.444,0.294,2.461,0.884,3.049c0.588,0.59,1.376,0.884,2.365,0.884c0.949,0,1.71-0.266,2.28-0.798
			c0.57-0.531,0.892-1.425,0.969-2.679v-9.234h-2.394c-1.444,0-2.489,0.381-3.135,1.14c-0.647,0.761-0.969,2.072-0.969,3.934V123.62
			z"/>
		<path fill="#464747" d="M223.741,98.996c0-2.052,0.513-3.629,1.539-4.731c1.026-1.102,2.527-1.652,4.503-1.652
			c1.976,0,3.477,0.551,4.503,1.652c1.026,1.103,1.539,2.68,1.539,4.731v13.109c0,2.053-0.513,3.63-1.539,4.731
			c-1.026,1.103-2.527,1.653-4.503,1.653c-1.976,0-3.477-0.551-4.503-1.653c-1.026-1.102-1.539-2.679-1.539-4.731V98.996z
			 M227.731,112.391c0,1.673,0.684,2.508,2.052,2.508c0.646,0,1.149-0.199,1.511-0.598c0.36-0.399,0.542-1.035,0.542-1.91v-13.68
			c0-0.874-0.181-1.511-0.542-1.909c-0.362-0.399-0.865-0.599-1.511-0.599c-1.368,0-2.052,0.836-2.052,2.508V112.391z
			 M245.515,92.896h3.705l-15.732,39.9h-3.705L245.515,92.896z M243.52,113.588c0-2.052,0.513-3.629,1.539-4.731
			c1.026-1.102,2.527-1.652,4.503-1.652c1.976,0,3.477,0.551,4.503,1.652c1.026,1.103,1.539,2.68,1.539,4.731v13.11
			c0,2.052-0.513,3.629-1.539,4.73c-1.026,1.103-2.528,1.653-4.503,1.653c-1.976,0-3.477-0.551-4.503-1.653
			c-1.026-1.102-1.539-2.679-1.539-4.73V113.588z M247.51,126.982c0,1.673,0.684,2.509,2.052,2.509c0.646,0,1.149-0.2,1.511-0.599
			c0.361-0.399,0.542-1.035,0.542-1.91v-13.68c0-0.874-0.181-1.511-0.542-1.909c-0.362-0.399-0.865-0.599-1.511-0.599
			c-1.368,0-2.052,0.836-2.052,2.508V126.982z"/>
		<path fill="#464747" d="M270.024,121.396h-3.705l-1.197,11.4h-5.13l1.197-11.4h-2.793l0.456-4.445h2.793l1.083-10.432h-2.85
			l0.456-4.445h2.85l0.969-9.178h5.13l-0.969,9.178h3.705l0.969-9.178h5.13l-0.969,9.178h2.907l-0.456,4.445h-2.907l-1.083,10.432
			h2.907l-0.456,4.445h-2.907l-1.197,11.4h-5.13L270.024,121.396z M266.775,116.951h3.705l1.083-10.432h-3.705L266.775,116.951z"/>
	</g>
</g>
</svg>
