<?xml version="1.0" encoding="utf-8"?>
<!-- Generator: Adobe Illustrator 16.0.0, SVG Export Plug-In . SVG Version: 6.00 Build 0)  -->
<!DOCTYPE svg PUBLIC "-//W3C//DTD SVG 1.1//EN" "http://www.w3.org/Graphics/SVG/1.1/DTD/svg11.dtd">
<svg version="1.1" id="Layer_1" xmlns="http://www.w3.org/2000/svg" xmlns:xlink="http://www.w3.org/1999/xlink" x="0px" y="0px"
	 width="873.999px" height="476.039px" viewBox="0 0 873.999 476.039" enable-background="new 0 0 873.999 476.039"
	 xml:space="preserve">
<g>
	<rect fill="#16ADFF" width="873.999" height="475"/>
	<g>
		<rect x="9.328" y="112.565" fill="#B7E5F3" width="91.418" height="22.221"/>
		<rect x="9.328" y="154.466" fill="#231F20" width="91.418" height="22.221"/>
		<rect x="9.328" y="196.365" fill="#231F20" width="91.418" height="22.221"/>
		<rect x="9.328" y="238.266" fill="#FFB743" width="91.418" height="22.221"/>
		<rect x="9.328" y="280.165" fill="#EDD732" width="91.418" height="22.221"/>
		<rect x="9.328" y="322.065" fill="#4FBA9E" width="91.418" height="22.221"/>
		<rect x="120.426" y="112.565" fill="#123478" width="91.419" height="22.221"/>
		<rect x="120.426" y="154.466" fill="#E0192D" width="91.419" height="22.221"/>
		<rect x="120.426" y="196.365" fill="#B7E5F3" width="91.419" height="22.221"/>
		<rect x="120.426" y="238.266" fill="#123478" width="91.419" height="22.221"/>
		<rect x="120.426" y="280.165" fill="#231F20" width="91.419" height="22.221"/>
		<rect x="120.426" y="322.065" fill="#B7E5F3" width="91.419" height="22.221"/>
		<rect x="232.159" y="112.565" fill="#231F20" width="91.417" height="22.221"/>
		<rect x="232.159" y="154.466" fill="#B7E5F3" width="91.417" height="22.221"/>
		<rect x="232.159" y="196.365" fill="#231F20" width="91.417" height="22.221"/>
		<rect x="232.159" y="238.266" fill="#E0192D" width="91.417" height="22.221"/>
		<rect x="232.159" y="280.165" fill="#32EDB7" width="91.417" height="22.221"/>
		<rect x="232.159" y="322.065" fill="#E0192D" width="91.417" height="22.221"/>
		<rect x="341.353" y="112.565" fill="#CAFEFF" width="91.417" height="22.221"/>
		<rect x="341.353" y="154.466" fill="#123478" width="91.417" height="22.221"/>
		<rect x="341.353" y="196.365" fill="#C8FEF7" width="91.417" height="22.221"/>
		<rect x="341.353" y="238.266" fill="#30EAEF" width="91.417" height="22.221"/>
		<rect x="341.353" y="280.165" fill="#231F20" width="91.417" height="22.221"/>
		<rect x="341.353" y="322.065" fill="#30EAEF" width="91.417" height="22.221"/>
	</g>
	<g>
		<rect x="440.788" y="112.565" fill="#B7E5F3" width="91.418" height="22.221"/>
		<rect x="440.788" y="154.466" fill="#231F20" width="91.418" height="22.221"/>
		<rect x="440.788" y="196.365" fill="#231F20" width="91.418" height="22.221"/>
		<rect x="440.788" y="238.266" fill="#FFB743" width="91.418" height="22.221"/>
		<rect x="440.788" y="280.165" fill="#EDD732" width="91.418" height="22.221"/>
		<rect x="440.788" y="322.065" fill="#4FBA9E" width="91.418" height="22.221"/>
		<rect x="551.886" y="112.565" fill="#123478" width="91.419" height="22.221"/>
		<rect x="551.886" y="154.466" fill="#E0192D" width="91.419" height="22.221"/>
		<rect x="551.886" y="196.365" fill="#B7E5F3" width="91.419" height="22.221"/>
		<rect x="551.886" y="238.266" fill="#123478" width="91.419" height="22.221"/>
		<rect x="551.886" y="280.165" fill="#231F20" width="91.419" height="22.221"/>
		<rect x="551.886" y="322.065" fill="#B7E5F3" width="91.419" height="22.221"/>
		<rect x="663.619" y="112.565" fill="#231F20" width="91.417" height="22.221"/>
		<rect x="663.619" y="154.466" fill="#B7E5F3" width="91.417" height="22.221"/>
		<rect x="663.619" y="196.365" fill="#231F20" width="91.417" height="22.221"/>
		<rect x="663.619" y="238.266" fill="#E0192D" width="91.417" height="22.221"/>
		<rect x="663.619" y="280.165" fill="#32EDB7" width="91.417" height="22.221"/>
		<rect x="663.619" y="322.065" fill="#E0192D" width="91.417" height="22.221"/>
		<rect x="772.813" y="112.565" fill="#CAFEFF" width="91.416" height="22.221"/>
		<rect x="772.813" y="154.466" fill="#123478" width="91.416" height="22.221"/>
		<rect x="772.813" y="196.365" fill="#C8FEF7" width="91.416" height="22.221"/>
		<rect x="772.813" y="238.266" fill="#30EAEF" width="91.416" height="22.221"/>
		<rect x="772.813" y="280.165" fill="#231F20" width="91.416" height="22.221"/>
		<rect x="772.813" y="322.065" fill="#30EAEF" width="91.416" height="22.221"/>
	</g>
	<g>
		<polygon fill="#090E11" points="384.791,213.181 394.979,211.909 396.57,223.37 		"/>
		<polygon fill="#090E11" points="485.228,213.181 475.039,211.909 473.447,223.37 		"/>
		<path fill="#F7D4BC" d="M489.901,263.023H380.78c0,0,17.866-65.969,17.866-97.583c0-18.268,73.073-18.268,73.073,0
			C471.72,211.13,489.901,263.023,489.901,263.023z"/>
		<g>
			<path opacity="0.1" fill="#232222" d="M468.931,192.342c0,0-5.175,19.044-32.894,19.044c-27.389,0-32.899-19.044-32.899-19.044
				s10.019,14.03,34.067,14.03C437.205,206.372,453.223,208.052,468.931,192.342z"/>
		</g>
		<path fill="#191C1C" d="M387.558,225.682c-7.35,36.669-21.545,33.715-21.545,95.7c0,76.302,0,62.596,0,64.53
			c0,0.138,7.185,0.203,7.185,0.203h61.978V225.682H387.558z"/>
		<path fill="#191C1C" d="M480.412,225.682c7.354,36.669,21.546,33.715,21.546,95.7c0,76.302,0,62.596,0,64.53
			c0,0.138-7.18,0.203-7.18,0.203h-61.978V225.682H480.412z"/>
		<path fill="#8E8D8D" d="M433.981,447.521c37.78,0,68.4-23.464,68.4-61.243H365.573
			C365.573,424.057,396.196,447.521,433.981,447.521z"/>
		<rect x="365.896" y="381.14" fill="#161516" width="136.485" height="11.974"/>
		<rect x="423.491" y="381.14" fill="#D6D6D6" width="22.75" height="11.974"/>
		<polygon fill="#F7D4BC" points="430.165,225.316 437.122,239.033 440.926,223.19 435.858,217.743 		"/>
		<path fill="#FFFFFF" d="M439.53,243.531c0,1.785-1.447,3.231-3.229,3.231c-1.791,0-3.232-1.446-3.232-3.231
			c0-1.784,1.441-3.232,3.232-3.232C438.083,240.299,439.53,241.747,439.53,243.531z"/>
		<path fill="#FFFFFF" d="M439.53,273.943c0,1.787-1.447,3.233-3.229,3.233c-1.791,0-3.232-1.446-3.232-3.233
			c0-1.784,1.441-3.23,3.232-3.23C438.083,270.713,439.53,272.159,439.53,273.943z"/>
		<path fill="#170D0E" d="M379.337,141.185c0,0-6.331-11.722-3.521-21.566c0,0-0.231-24.848,7.267-31.643
			c0,0,3.05-18.755,22.972-14.769c0,0,8.908,4.219,8.444,8.203l-6.331,51.804L379.337,141.185z"/>
		<path fill="#170D0E" d="M414.499,81.41c0,0-16.88-11.484-7.74-22.032c0,0,11.253-19.69,54.385,6.562
			c0,0,28.126,18.054,30.938,37.737c0,0,6.328,18.518-1.876,31.645l-12.421,9.145C477.786,144.467,421.062,90.552,414.499,81.41z"/>
		<path fill="#F7D4BC" d="M437.702,206.817V79.768c0,0-48.52-4.45-52.742,33.287c0,0,1.404,36.099,4.455,45.707
			c0,0,4.69,34.225,20.157,42.195C409.572,200.957,414.026,206.817,437.702,206.817z"/>
		<path fill="#F7D4BC" d="M433.484,206.817V79.768c0,0,48.519-4.45,52.738,33.287c0,0-1.404,36.099-4.451,45.707
			c0,0-4.689,34.225-20.16,42.195C461.61,200.957,457.159,206.817,433.484,206.817z"/>
		<path fill="#F7D4BC" d="M398.787,151.999c3.029,10.417,1.263,20.083-3.944,21.6c-5.204,1.517-11.883-5.697-14.908-16.115
			c-3.032-10.41-1.267-20.081,3.94-21.594C389.083,134.374,395.758,141.586,398.787,151.999z"/>
		<path fill="#F7D4BC" d="M472.523,151.999c-3.024,10.417-1.264,20.083,3.944,21.6c5.203,1.517,11.883-5.697,14.912-16.115
			c3.029-10.41,1.264-20.081-3.94-21.594C482.231,134.374,475.552,141.586,472.523,151.999z"/>
		<g>
			<path fill="#231F20" d="M422.978,123.063c0,0-0.089-0.032-0.255-0.095c-0.144-0.055-0.376-0.136-0.697-0.238
				c-0.627-0.203-1.55-0.473-2.682-0.725c-0.565-0.13-1.182-0.256-1.84-0.362c-0.656-0.131-1.356-0.196-2.081-0.296
				c-0.725-0.068-1.479-0.135-2.246-0.169c-0.765-0.004-1.552-0.062-2.331-0.005c-0.782,0.023-1.566,0.061-2.33,0.168
				c-0.385,0.045-0.766,0.09-1.143,0.133c-0.373,0.072-0.74,0.143-1.102,0.213c-0.361,0.072-0.723,0.13-1.069,0.213
				c-0.342,0.097-0.677,0.191-1.003,0.283c-0.658,0.176-1.277,0.357-1.824,0.592c-0.554,0.217-1.071,0.404-1.518,0.594
				c-0.434,0.219-0.812,0.41-1.124,0.567c-0.627,0.316-0.985,0.497-0.985,0.497l-0.017,0.008c-0.086,0.044-0.192,0.01-0.235-0.077
				c-0.04-0.079-0.014-0.175,0.058-0.224c0,0,0.336-0.229,0.925-0.631c0.296-0.201,0.656-0.446,1.069-0.728
				c0.429-0.253,0.929-0.513,1.47-0.811c0.534-0.315,1.145-0.587,1.8-0.857c0.327-0.141,0.663-0.284,1.006-0.433
				c0.348-0.133,0.713-0.242,1.081-0.368c0.37-0.122,0.746-0.247,1.126-0.373c0.388-0.099,0.781-0.198,1.177-0.298
				c0.793-0.219,1.611-0.367,2.435-0.502c0.821-0.167,1.653-0.217,2.472-0.318c0.82-0.072,1.63-0.107,2.417-0.136
				c0.784,0.004,1.548-0.022,2.268,0.023c0.723,0.021,1.405,0.069,2.035,0.13c1.261,0.111,2.311,0.271,3.053,0.408
				c0.365,0.066,0.668,0.129,0.887,0.18c0.197,0.045,0.302,0.069,0.302,0.069c1.008,0.23,1.638,1.234,1.407,2.241
				c-0.23,1.008-1.234,1.638-2.242,1.407c-0.077-0.018-0.151-0.04-0.224-0.065L422.978,123.063z"/>
		</g>
		<g>
			<path fill="#231F20" d="M445.285,119.497c0,0,0.105-0.024,0.302-0.069c0.219-0.051,0.522-0.113,0.888-0.18
				c0.742-0.137,1.792-0.297,3.053-0.408c0.63-0.061,1.312-0.108,2.035-0.13c0.72-0.046,1.483-0.02,2.268-0.023
				c0.786,0.028,1.597,0.063,2.416,0.136c0.82,0.102,1.651,0.151,2.473,0.318c0.824,0.135,1.643,0.283,2.435,0.502
				c0.396,0.1,0.789,0.199,1.178,0.298c0.381,0.126,0.757,0.251,1.126,0.373c0.368,0.126,0.733,0.235,1.081,0.369
				c0.344,0.147,0.68,0.291,1.007,0.432c0.655,0.271,1.266,0.542,1.8,0.857c0.541,0.299,1.041,0.558,1.47,0.812
				c0.413,0.28,0.772,0.525,1.069,0.727c0.588,0.401,0.924,0.631,0.924,0.631c0.08,0.055,0.101,0.164,0.047,0.244
				c-0.051,0.072-0.146,0.096-0.225,0.057l-0.016-0.008c0,0-0.358-0.181-0.986-0.497c-0.311-0.157-0.689-0.349-1.123-0.567
				c-0.447-0.189-0.965-0.377-1.519-0.594c-0.546-0.234-1.166-0.416-1.823-0.592c-0.326-0.092-0.661-0.187-1.004-0.283
				c-0.346-0.083-0.707-0.141-1.068-0.213c-0.361-0.07-0.729-0.141-1.102-0.213c-0.377-0.043-0.758-0.088-1.143-0.133
				c-0.764-0.107-1.548-0.145-2.33-0.168c-0.778-0.058-1.565,0.001-2.33,0.005c-0.768,0.034-1.521,0.101-2.246,0.169
				c-0.725,0.1-1.424,0.165-2.08,0.296c-0.659,0.106-1.275,0.232-1.841,0.362c-1.131,0.252-2.055,0.521-2.682,0.725
				c-0.321,0.103-0.553,0.184-0.697,0.238c-0.166,0.062-0.254,0.095-0.254,0.095l-0.032,0.013c-0.97,0.359-2.047-0.135-2.406-1.104
				s0.135-2.047,1.104-2.406C445.126,119.539,445.211,119.515,445.285,119.497z"/>
		</g>
		<path fill="#5B4A40" d="M417.78,131.573c0,1.814-1.475,3.281-3.281,3.281c-1.815,0-3.287-1.467-3.287-3.281
			c0-1.812,1.472-3.277,3.287-3.277C416.305,128.296,417.78,129.761,417.78,131.573z"/>
		<path fill="#5B4A40" d="M453.642,131.573c0,1.814,1.471,3.281,3.282,3.281c1.81,0,3.281-1.467,3.281-3.281
			c0-1.812-1.472-3.277-3.281-3.277C455.112,128.296,453.642,129.761,453.642,131.573z"/>
		<g opacity="0.2">
			<g>
				<path fill="#231F20" d="M446.437,149.23c0,0,0.396,0.546,0.976,1.555c0.286,0.508,0.624,1.131,0.957,1.888
					c0.325,0.762,0.69,1.633,0.818,2.765c0.048,0.562,0.075,1.229-0.279,1.955c-0.162,0.363-0.465,0.689-0.8,0.938
					c-0.344,0.23-0.718,0.377-1.076,0.455c-0.737,0.146-1.352,0.143-2.065,0.009c-0.431-0.105-0.719-0.214-1.011-0.329
					c-0.281-0.114-0.564-0.23-0.851-0.346c-0.553-0.228-1.1-0.447-1.621-0.593c-0.512-0.158-1.032-0.163-1.158-0.089
					c-0.02,0.035-0.048,0.016-0.063,0.06c-0.008,0.018-0.02,0.03-0.037,0.042c-0.026,0.033-0.075,0.129-0.112,0.19
					c-0.168,0.292-0.449,0.735-0.895,1.052c-0.908,0.576-1.72,0.568-2.436,0.605l-0.124-0.002l-0.061-0.004l-0.121-0.008
					l-0.242-0.015c-0.183-0.018-0.44-0.067-0.654-0.11c-0.416-0.113-0.826-0.269-1.199-0.525c-0.38-0.239-0.698-0.576-0.951-0.934
					l-0.09-0.137l-0.044-0.069l-0.022-0.034c-0.021-0.033,0.146,0.213,0.071,0.104l-0.009-0.012l-0.147-0.189
					c-0.021-0.023-0.058-0.082-0.064-0.076c-0.001,0.016,0,0.028,0.006,0.039c0.002,0.021,0.049,0.028,0.034,0.023
					c-0.126-0.074-0.646-0.069-1.157,0.089c-0.521,0.145-1.068,0.364-1.621,0.592c-0.563,0.224-1.099,0.481-1.802,0.663
					c-0.188,0.039-0.413,0.089-0.61,0.092l-0.43,0.02c-0.361-0.004-0.737-0.027-1.085-0.107c-0.358-0.078-0.732-0.225-1.076-0.455
					c-0.335-0.247-0.638-0.573-0.8-0.936c-0.355-0.727-0.329-1.394-0.281-1.955c0.127-1.133,0.492-2.004,0.817-2.767
					c0.333-0.757,0.671-1.38,0.958-1.888c0.286-0.508,0.536-0.89,0.706-1.152c0.177-0.264,0.272-0.404,0.272-0.404
					c0.203-0.302,0.613-0.382,0.915-0.179c0.286,0.192,0.373,0.569,0.209,0.866l-0.017,0.029c0,0-0.075,0.134-0.215,0.386
					c-0.141,0.258-0.338,0.644-0.582,1.136c-0.239,0.493-0.52,1.099-0.778,1.803c-0.251,0.695-0.511,1.516-0.571,2.318
					c-0.027,0.394,0.015,0.786,0.149,0.996c0.122,0.206,0.285,0.332,0.673,0.402c0.196,0.035,0.383,0.034,0.592,0.038l0.429-0.036
					c0.091-0.004,0.15-0.031,0.247-0.05c0.421-0.132,0.975-0.37,1.53-0.608c0.565-0.238,1.159-0.492,1.836-0.691
					c0.67-0.166,1.478-0.42,2.546,0.008c0.131,0.056,0.297,0.177,0.434,0.283c0.07,0.056,0.138,0.114,0.202,0.174
					c0.057,0.056,0.059,0.069,0.091,0.105l0.149,0.188l0.173,0.248c0.121,0.159,0.25,0.304,0.421,0.4
					c0.157,0.111,0.361,0.18,0.565,0.238c0.104,0.01,0.163,0.036,0.301,0.051l0.419,0.021c0.562,0.003,1.103-0.089,1.293-0.219
					c0.082-0.063,0.172-0.16,0.325-0.419c0.046-0.076,0.068-0.125,0.135-0.221c0.081-0.115,0.169-0.227,0.26-0.335
					c0.168-0.218,0.446-0.382,0.687-0.516c1.068-0.427,1.875-0.171,2.545-0.006c0.678,0.198,1.271,0.452,1.836,0.691
					c0.273,0.116,0.545,0.229,0.813,0.343c0.222,0.085,0.441,0.169,0.658,0.252c0.422,0.113,0.977,0.125,1.327,0.061
					c0.389-0.07,0.551-0.195,0.672-0.402c0.135-0.209,0.177-0.603,0.149-0.996c-0.061-0.803-0.321-1.623-0.572-2.319
					c-0.259-0.703-0.539-1.309-0.778-1.802c-0.482-0.988-0.799-1.523-0.799-1.523c-0.185-0.314-0.08-0.719,0.234-0.904
					c0.294-0.174,0.668-0.092,0.866,0.178L446.437,149.23z"/>
			</g>
		</g>
		<path fill="#170D0E" d="M383.874,135.89c0,0,3.557,19.523,5.487,18.853c0,0-1.351-13.558-1.351-21.528
			c0,0-1.646-13.359,0.232-15.705c0,0,6.095-8.204,7.031-12.895c0,0,2.577-12.654-1.167-15.466c0,0-11.486,0.468-14.067,17.58
			C380.038,106.729,382.785,133.17,383.874,135.89z"/>
		<path fill="#170D0E" d="M466.301,83.994c0,0,5.626,8.668,6.089,12.422c0,0,3.987,11.953,9.381,17.812
			c0,0-0.131,10.274,1.873,18.285c0.232,0.937-0.703,16.876-1.168,19.221c0,0,2.578-4.454,4.449-17.814
			c0,0,4.455-26.723-3.281-39.148C483.644,94.771,482.003,83.521,466.301,83.994z"/>
		<path fill="#170D0E" d="M394.337,93.366c0,0,15.703-2.93,34.929-9.142c0.667-0.215,16.169,3.046,21.33,0.236
			c0,0,18.05,5.623,21.331,3.045l-14.062-10.78l-45.947,1.169C411.917,77.895,394.569,79.534,394.337,93.366z"/>
		<path fill="#414042" d="M393.781,94.655c0,0-3.34,1.315-3.957,2.286c0,0,2.727-0.883,4.396,0.086c0,0-2.46,0.527-4.657,2.11
			c0,0,3.601-1.229,5.535,0c0,0-4.309,0.879-5.626,2.109c0,0,2.814-1.145,4.57-0.174c0,0-10.81,5.713-13.006,10.457
			c0,0,1.844-6.858,4.127-7.384c0,0-4.127,0.525-5.535,3.519c0,0,2.021-5.627,5.274-5.714c0,0-3.691-0.353-6.327,1.404
			C378.575,103.355,386.485,93.774,393.781,94.655z"/>
		<path fill="#414042" d="M474.913,97.467c0,0,7.645-0.266,10.198-3.431c0,0,0,1.935-1.762,3.345c0,0,1.935-0.265,2.55-1.67
			c0,0-1.145,2.9-2.637,3.778c0,0,2.375-0.178,3.428-2.2c0,0-0.967,4.397-4.654,4.483c-1.727,0.045-4.4,0-6.687-1.756
			c0,0,3.696,0.617,4.482-0.089C479.832,99.928,476.409,99.489,474.913,97.467z"/>
		<path fill="#414042" d="M420.325,81.909c0,0-17.05-8.702-13.01-20.306c0,0,0.53-2.023,2.377-3.519c0,0-2.638,8.791,0.701,11.518
			c0,0-2.283-9.144,2.639-13.275c0,0-1.894,9.633,0.613,14.156C415.286,73.436,418.48,80.152,420.325,81.909z"/>
		
			<path opacity="0.2" fill="none" stroke="#231F20" stroke-width="1.5209" stroke-linecap="round" stroke-linejoin="round" stroke-miterlimit="10" d="
			M448.823,172.944c0,0-11.486-2.323-24.496,0.266C424.327,173.21,441.809,174.084,448.823,172.944z"/>
		
			<path fill="none" stroke="#F7D4BC" stroke-width="29.5108" stroke-linecap="round" stroke-linejoin="round" stroke-miterlimit="10" d="
			M370.037,257.843c-14.467,15.625-29.292,36.459-31.685,58.003c-5.034,45.332,24.094,43.066,70.952,41.114"/>
		<path fill="none" stroke="#191C1C" stroke-width="30.2206" stroke-linejoin="round" stroke-miterlimit="10" d="M399.633,231.059
			c0,0-35.888,26.036-52.886,58.835"/>
		
			<path fill="none" stroke="#F7D4BC" stroke-width="29.5108" stroke-linecap="round" stroke-linejoin="round" stroke-miterlimit="10" d="
			M503.964,257.843c14.467,15.625,29.291,36.459,31.684,58.003c5.035,45.332-24.094,43.066-70.951,41.114"/>
		<path fill="none" stroke="#191C1C" stroke-width="30.2206" stroke-linejoin="round" stroke-miterlimit="10" d="M474.366,231.059
			c0,0,35.889,26.036,52.887,58.835"/>
		<g>
			<path fill="#161A1C" d="M430.125,225.368c-0.071-0.176-0.24-0.294-0.429-0.298c-0.105-0.003-10.698-0.326-27.263-5.236
				c-10.559-3.127-17.142-6.953-17.207-6.991c-0.149-0.087-0.331-0.089-0.48-0.002c-0.149,0.085-0.24,0.242-0.24,0.413v10.807
				c0,0.166,0.084,0.318,0.224,0.405l13.324,8.327c0.438,0.288,10.803,7.062,16.046,7.062c0.682,0,1.266-0.116,1.738-0.343
				c3.055-1.467,5.677-4.883,5.75-4.983l8.438-8.646C430.158,225.744,430.197,225.543,430.125,225.368z"/>
			<g>
				<g>
					<path fill="#FFFFFF" d="M420.577,235.728c0.549-0.686,1.011-1.199,1.011-1.199c-25.806-6.751-37.116-14.481-37.116-14.481
						l0.042,0.905C388.32,223.337,401.901,231.396,420.577,235.728z"/>
				</g>
				<g>
					<path fill="#FFFFFF" d="M384.503,222.153l0.027,0.6c16.107,11.836,34.307,14.683,34.307,14.683
						c0.361-0.31,0.728-0.646,0.992-0.944C402.091,232.304,388.996,224.905,384.503,222.153z"/>
				</g>
			</g>
		</g>
		<g>
			<path fill="#161A1C" d="M440.15,225.692c0.071-0.175,0.241-0.293,0.431-0.299c0.104-0.003,10.697-0.326,27.263-5.234
				c10.56-3.128,17.142-6.953,17.206-6.992c0.148-0.087,0.332-0.088,0.48-0.003c0.148,0.086,0.24,0.244,0.24,0.415v10.808
				c0,0.166-0.086,0.316-0.225,0.405l-13.323,8.326c-0.438,0.29-10.804,7.061-16.046,7.061c-0.682,0-1.267-0.114-1.738-0.341
				c-3.055-1.468-5.678-4.884-5.75-4.985l-8.438-8.646C440.118,226.07,440.079,225.868,440.15,225.692z"/>
			<g>
				<g>
					<path fill="#FFFFFF" d="M449.7,236.054c-0.549-0.688-1.012-1.201-1.012-1.201c25.806-6.749,37.116-14.48,37.116-14.48
						l-0.042,0.904C481.957,223.663,468.376,231.72,449.7,236.054z"/>
				</g>
				<g>
					<path fill="#FFFFFF" d="M485.774,222.477l-0.029,0.601c-16.105,11.838-34.307,14.684-34.307,14.684
						c-0.361-0.311-0.727-0.647-0.99-0.945C468.185,232.629,481.281,225.23,485.774,222.477z"/>
				</g>
			</g>
		</g>
	</g>
	<rect y="372.039" fill="#FFFFFF" width="873.999" height="104"/>
	<rect x="112.683" y="30.493" fill="#B7E5F3" width="207.027" height="52.002"/>
	<rect x="553.683" y="30.493" fill="#B7E5F3" width="207.027" height="52.002"/>
	<path fill="#FFFFFF" d="M169.632,210.012c0,0-53.87-19.518-67.358-70.245C88.79,89.04,118.877,11.708,243.176,19.282
		c124.303,7.574,121.479,139.218,48.238,179.017c0,0,9.016,21.664,25.921,25.643C317.336,223.941,243.561,246.17,169.632,210.012z"
		/>
	<rect x="135.6" y="72.231" fill="none" width="178" height="90"/>
	<text transform="matrix(1 0 0 1 135.6001 88.3311)" display="none"><tspan x="0" y="0" display="inline" fill="#464747" font-family="'BebasNeueRegular'" font-size="23">tenemos grandes </tspan><tspan x="0" y="23" display="inline" fill="#464747" font-family="'BebasNeueRegular'" font-size="23">delanteros para poder </tspan><tspan x="0" y="46" display="inline" fill="#464747" font-family="'BebasNeueRegular'" font-size="23">ser una amenaza para </tspan><tspan x="0" y="69" display="inline" fill="#464747" font-family="'BebasNeueRegular'" font-size="23">el portero mexicano</tspan></text>
	<g>
		<path fill="#161414" d="M297.706,361.098c0,0.803-0.651,1.454-1.455,1.454h-13.093c-0.803,0-1.455-0.651-1.455-1.454v-42.916
			c0-0.803,0.652-1.454,1.455-1.454h13.093c0.804,0,1.455,0.651,1.455,1.454V361.098z"/>
		<path fill="#161414" d="M289.705,360.369c-15.242,0-27.932,5.01-30.707,11.639h61.413
			C317.636,365.379,304.947,360.369,289.705,360.369z"/>
		<path fill="none" stroke="#161414" stroke-width="2.9095" stroke-miterlimit="10" d="M290.068,320.364
			c0,0-8.729-34.551,51.28-70.556c0,0,48.734-30.186,57.826-38.187"/>
		
			<ellipse transform="matrix(0.8129 -0.5824 0.5824 0.8129 -47.2357 273.0705)" fill="#161414" cx="401.385" cy="210.052" rx="11.457" ry="7.273"/>
	</g>
</g>
<g>
	<path fill="#464747" d="M144.901,83.07c1.227,0,2.131,0.364,2.714,1.092c0.583,0.729,0.874,1.706,0.874,2.933v0.438h-1.702v-0.529
		c0-0.736-0.146-1.303-0.437-1.702c-0.292-0.398-0.759-0.598-1.403-0.598s-1.112,0.199-1.403,0.598
		c-0.292,0.399-0.437,0.959-0.437,1.68c0,0.598,0.134,1.119,0.403,1.563c0.268,0.445,0.602,0.855,1,1.23
		c0.398,0.376,0.832,0.744,1.299,1.104s0.9,0.755,1.299,1.185c0.399,0.429,0.732,0.916,1,1.46c0.269,0.545,0.403,1.192,0.403,1.943
		c0,1.228-0.295,2.205-0.886,2.933c-0.59,0.729-1.506,1.093-2.749,1.093c-1.242,0-2.154-0.364-2.737-1.093
		c-0.583-0.728-0.874-1.705-0.874-2.933v-0.92h1.679v1.012c0,0.736,0.153,1.304,0.46,1.702c0.306,0.399,0.782,0.599,1.426,0.599
		s1.119-0.199,1.426-0.599c0.306-0.398,0.46-0.966,0.46-1.702c0-0.598-0.135-1.115-0.403-1.552c-0.268-0.438-0.602-0.844-1-1.22
		c-0.399-0.375-0.828-0.743-1.288-1.104c-0.46-0.36-0.889-0.755-1.288-1.185c-0.399-0.429-0.732-0.916-1-1.461
		c-0.269-0.544-0.403-1.191-0.403-1.943c0-1.241,0.291-2.223,0.874-2.943C142.792,83.431,143.689,83.07,144.901,83.07z"/>
	<path fill="#464747" d="M151.87,83.231v16.1h-1.794v-16.1H151.87z"/>
	<path fill="#464747" d="M159.091,96.088l-0.621,3.243h-1.656l3.082-16.1h2.599l3.082,16.1h-1.794l-0.621-3.243H159.091z
		 M159.321,94.547h3.588l-1.817-9.292L159.321,94.547z"/>
	<path fill="#464747" d="M172.362,96.088l-0.621,3.243h-1.656l3.082-16.1h2.599l3.082,16.1h-1.794l-0.621-3.243H172.362z
		 M172.592,94.547h3.588l-1.817-9.292L172.592,94.547z"/>
	<path fill="#464747" d="M180.251,99.331v-16.1h1.794v14.467h4.6v1.633H180.251z"/>
	<path fill="#464747" d="M191.476,83.07c1.242,0,2.158,0.368,2.749,1.104c0.59,0.736,0.885,1.718,0.885,2.944v1.38h-1.702v-1.472
		c0-0.736-0.15-1.308-0.449-1.714s-0.778-0.609-1.438-0.609c-0.644,0-1.12,0.203-1.426,0.609c-0.307,0.406-0.46,0.978-0.46,1.714
		v8.51c0,0.736,0.153,1.308,0.46,1.714c0.306,0.406,0.782,0.609,1.426,0.609c0.659,0,1.139-0.203,1.438-0.609
		s0.449-0.978,0.449-1.714v-3.22h-1.656v-1.61h3.358v4.738c0,1.227-0.295,2.208-0.885,2.943c-0.59,0.736-1.507,1.104-2.749,1.104
		c-1.227,0-2.135-0.368-2.726-1.104c-0.59-0.735-0.885-1.717-0.885-2.943v-8.326c0-0.613,0.072-1.169,0.218-1.668
		c0.146-0.498,0.368-0.923,0.667-1.276c0.299-0.353,0.675-0.624,1.127-0.816C190.329,83.166,190.862,83.07,191.476,83.07z"/>
	<path fill="#464747" d="M198.514,95.536c0,0.736,0.149,1.308,0.448,1.714c0.299,0.406,0.778,0.609,1.438,0.609
		c0.644,0,1.116-0.203,1.415-0.609c0.299-0.406,0.449-0.978,0.449-1.714V83.231h1.679v12.213c0,1.227-0.291,2.212-0.874,2.955
		c-0.583,0.744-1.495,1.115-2.737,1.115c-1.227,0-2.131-0.371-2.714-1.115c-0.583-0.743-0.874-1.729-0.874-2.955V83.231h1.771
		V95.536z"/>
	<path fill="#464747" d="M207.506,83.231v16.1h-1.794v-16.1H207.506z"/>
	<path fill="#464747" d="M215.073,90.361v1.609h-3.933v5.728h4.83v1.633h-6.624v-16.1h6.624v1.633h-4.83v5.497H215.073z"/>
	<path fill="#464747" d="M219.213,99.331h-1.61v-16.1h2.277l3.726,11.638V83.231h1.587v16.1h-1.863l-4.117-13.018V99.331z"/>
	<path fill="#464747" d="M230.598,99.331v-16.1h1.794v14.467h4.6v1.633H230.598z"/>
	<path fill="#464747" d="M244.076,90.361v1.609h-3.933v5.728h4.83v1.633h-6.624v-16.1h6.624v1.633h-4.83v5.497H244.076z"/>
	<path fill="#464747" d="M251.55,83.231l2.622,14.007l2.599-14.007h1.656l-3.013,16.1h-2.645l-3.036-16.1H251.55z"/>
	<path fill="#464747" d="M261.049,96.088l-0.621,3.243h-1.656l3.082-16.1h2.599l3.082,16.1h-1.794l-0.621-3.243H261.049z
		 M261.279,94.547h3.588l-1.817-9.292L261.279,94.547z"/>
	<path fill="#464747" d="M270.525,99.331h-1.61v-16.1h2.277l3.726,11.638V83.231h1.587v16.1h-1.863l-4.117-13.018V99.331z"/>
	<path fill="#464747" d="M283.727,96.088l-0.621,3.243h-1.656l3.082-16.1h2.599l3.082,16.1h-1.794l-0.621-3.243H283.727z
		 M283.957,94.547h3.588l-1.817-9.292L283.957,94.547z"/>
	<path fill="#464747" d="M143.843,122.331v-14.467h-2.967v-1.633h7.705v1.633h-2.967v14.467H143.843z"/>
	<path fill="#464747" d="M155.527,113.361v1.609h-3.933v5.728h4.83v1.633H149.8v-16.1h6.624v1.633h-4.83v5.497H155.527z"/>
	<path fill="#464747" d="M164.014,122.308h-1.725l-2.668-12.811v12.834h-1.564v-16.1h2.507l2.645,12.856l2.553-12.856h2.507v16.1
		h-1.702v-12.949L164.014,122.308z"/>
	<path fill="#464747" d="M173.719,106.231c1.257,0,2.154,0.295,2.691,0.885c0.537,0.591,0.805,1.483,0.805,2.68v0.759
		c0,0.859-0.138,1.553-0.414,2.082c-0.276,0.529-0.767,0.9-1.472,1.115c0.782,0.215,1.337,0.621,1.667,1.219
		c0.33,0.599,0.495,1.342,0.495,2.231v1.356c0,1.212-0.299,2.144-0.897,2.795c-0.598,0.652-1.526,0.978-2.783,0.978h-3.703v-16.1
		H173.719z M173.283,113.062c0.72,0,1.261-0.146,1.621-0.438c0.36-0.291,0.541-0.858,0.541-1.702v-0.942
		c0-0.721-0.134-1.254-0.402-1.599c-0.269-0.346-0.725-0.518-1.369-0.518h-1.771v5.198H173.283z M173.812,120.698
		c1.272,0,1.909-0.729,1.909-2.186v-1.426c0-0.904-0.181-1.529-0.541-1.874c-0.361-0.346-0.932-0.518-1.714-0.518h-1.564v6.003
		H173.812z"/>
	<path fill="#464747" d="M179.125,122.331v-16.1h1.794v14.467h4.6v1.633H179.125z"/>
	<path fill="#464747" d="M188.692,119.088l-0.621,3.243h-1.656l3.082-16.1h2.599l3.082,16.1h-1.794l-0.621-3.243H188.692z
		 M188.922,117.547h3.588l-1.817-9.292L188.922,117.547z"/>
	<path fill="#464747" d="M200.169,106.231c1.273,0,2.189,0.314,2.749,0.942c0.56,0.629,0.84,1.541,0.84,2.737v1.311
		c0,0.89-0.161,1.61-0.483,2.162c-0.322,0.553-0.828,0.936-1.518,1.15c0.736,0.215,1.257,0.609,1.564,1.185
		c0.306,0.575,0.46,1.299,0.46,2.173v2.508c0,0.353,0.015,0.693,0.046,1.023c0.03,0.33,0.123,0.632,0.276,0.908h-1.817
		c-0.107-0.23-0.184-0.479-0.23-0.747c-0.046-0.269-0.069-0.671-0.069-1.208v-2.53c0-0.904-0.204-1.529-0.61-1.874
		s-0.985-0.518-1.736-0.518h-1.265v6.877h-1.794v-16.1H200.169z M199.709,113.821c0.721,0,1.28-0.149,1.679-0.449
		c0.398-0.299,0.598-0.885,0.598-1.759v-1.541c0-0.736-0.142-1.288-0.426-1.656s-0.763-0.552-1.438-0.552h-1.748v5.957H199.709z"/>
	<path fill="#464747" d="M209.208,122.331v-16.1h1.794v14.467h4.6v1.633H209.208z"/>
	<path fill="#464747" d="M218.776,119.088l-0.621,3.243H216.5l3.082-16.1h2.599l3.082,16.1h-1.794l-0.621-3.243H218.776z
		 M219.006,117.547h3.588l-1.817-9.292L219.006,117.547z"/>
	<path fill="#464747" d="M230.046,106.07c1.227,0,2.131,0.364,2.714,1.092c0.583,0.729,0.874,1.706,0.874,2.933v0.438h-1.702v-0.529
		c0-0.736-0.146-1.303-0.437-1.702c-0.292-0.398-0.759-0.598-1.403-0.598s-1.112,0.199-1.403,0.598
		c-0.292,0.399-0.437,0.959-0.437,1.68c0,0.598,0.134,1.119,0.403,1.563c0.268,0.445,0.602,0.855,1,1.23
		c0.398,0.376,0.832,0.744,1.299,1.104s0.9,0.755,1.299,1.185c0.399,0.429,0.732,0.916,1,1.46c0.269,0.545,0.403,1.192,0.403,1.943
		c0,1.228-0.295,2.205-0.886,2.933c-0.59,0.729-1.506,1.093-2.749,1.093c-1.242,0-2.154-0.364-2.737-1.093
		c-0.583-0.728-0.874-1.705-0.874-2.933v-0.92h1.679v1.012c0,0.736,0.153,1.304,0.46,1.702c0.306,0.399,0.782,0.599,1.426,0.599
		s1.119-0.199,1.426-0.599c0.306-0.398,0.46-0.966,0.46-1.702c0-0.598-0.135-1.115-0.403-1.552c-0.268-0.438-0.602-0.844-1-1.22
		c-0.399-0.375-0.828-0.743-1.288-1.104c-0.46-0.36-0.889-0.755-1.288-1.185c-0.399-0.429-0.732-0.916-1-1.461
		c-0.269-0.544-0.403-1.191-0.403-1.943c0-1.241,0.291-2.223,0.874-2.943C227.938,106.431,228.835,106.07,230.046,106.07z"/>
	<path fill="#464747" d="M242.374,106.231c1.273,0,2.189,0.314,2.749,0.942c0.56,0.629,0.84,1.541,0.84,2.737v1.311
		c0,0.89-0.161,1.61-0.483,2.162c-0.322,0.553-0.828,0.936-1.518,1.15c0.736,0.215,1.257,0.609,1.564,1.185
		c0.306,0.575,0.46,1.299,0.46,2.173v2.508c0,0.353,0.015,0.693,0.046,1.023c0.03,0.33,0.123,0.632,0.276,0.908h-1.817
		c-0.107-0.23-0.184-0.479-0.23-0.747c-0.046-0.269-0.069-0.671-0.069-1.208v-2.53c0-0.904-0.204-1.529-0.61-1.874
		s-0.985-0.518-1.736-0.518h-1.265v6.877h-1.794v-16.1H242.374z M241.914,113.821c0.721,0,1.28-0.149,1.679-0.449
		c0.398-0.299,0.598-0.885,0.598-1.759v-1.541c0-0.736-0.142-1.288-0.426-1.656s-0.763-0.552-1.438-0.552h-1.748v5.957H241.914z"/>
	<path fill="#464747" d="M247.71,110.118c0-1.242,0.302-2.228,0.908-2.956c0.605-0.728,1.53-1.092,2.771-1.092
		c1.242,0,2.169,0.364,2.783,1.092c0.613,0.729,0.92,1.714,0.92,2.956v8.326c0,1.227-0.307,2.208-0.92,2.943
		c-0.614,0.736-1.541,1.104-2.783,1.104c-1.242,0-2.166-0.368-2.771-1.104c-0.606-0.735-0.908-1.717-0.908-2.943V110.118z
		 M249.481,118.536c0,0.736,0.157,1.308,0.471,1.714c0.314,0.406,0.793,0.609,1.438,0.609c0.659,0,1.142-0.203,1.449-0.609
		c0.307-0.406,0.46-0.978,0.46-1.714v-8.51c0-0.736-0.153-1.308-0.46-1.714c-0.307-0.406-0.79-0.609-1.449-0.609
		c-0.644,0-1.124,0.203-1.438,0.609c-0.314,0.406-0.471,0.978-0.471,1.714V118.536z"/>
	<path fill="#464747" d="M260.567,106.231c1.257,0,2.181,0.356,2.771,1.069s0.886,1.69,0.886,2.933v8.119
		c0,1.241-0.295,2.216-0.886,2.921s-1.514,1.058-2.771,1.058h-3.772v-16.1H260.567z M260.544,120.698
		c0.644,0,1.123-0.195,1.438-0.587c0.314-0.391,0.472-0.954,0.472-1.69v-8.28c0-0.735-0.158-1.299-0.472-1.69
		c-0.314-0.391-0.801-0.586-1.46-0.586h-1.932v12.834H260.544z"/>
	<path fill="#464747" d="M267.697,106.231v16.1h-1.794v-16.1H267.697z"/>
	<path fill="#464747" d="M269.537,122.331v-16.1h1.794v14.467h4.6v1.633H269.537z"/>
	<path fill="#464747" d="M277.288,122.331v-16.1h1.794v14.467h4.6v1.633H277.288z"/>
	<path fill="#464747" d="M286.855,119.088l-0.621,3.243h-1.656l3.082-16.1h2.599l3.082,16.1h-1.794l-0.621-3.243H286.855z
		 M287.085,117.547h3.588l-1.817-9.292L287.085,117.547z"/>
	<path fill="#464747" d="M298.125,106.07c1.227,0,2.131,0.364,2.714,1.092c0.583,0.729,0.874,1.706,0.874,2.933v0.438h-1.702v-0.529
		c0-0.736-0.146-1.303-0.437-1.702c-0.292-0.398-0.759-0.598-1.403-0.598s-1.112,0.199-1.403,0.598
		c-0.292,0.399-0.437,0.959-0.437,1.68c0,0.598,0.134,1.119,0.403,1.563c0.268,0.445,0.602,0.855,1,1.23
		c0.398,0.376,0.832,0.744,1.299,1.104s0.9,0.755,1.299,1.185c0.399,0.429,0.732,0.916,1,1.46c0.269,0.545,0.403,1.192,0.403,1.943
		c0,1.228-0.295,2.205-0.886,2.933c-0.59,0.729-1.506,1.093-2.749,1.093c-1.242,0-2.154-0.364-2.737-1.093
		c-0.583-0.728-0.874-1.705-0.874-2.933v-0.92h1.679v1.012c0,0.736,0.153,1.304,0.46,1.702c0.306,0.399,0.782,0.599,1.426,0.599
		s1.119-0.199,1.426-0.599c0.306-0.398,0.46-0.966,0.46-1.702c0-0.598-0.135-1.115-0.403-1.552c-0.268-0.438-0.602-0.844-1-1.22
		c-0.399-0.375-0.828-0.743-1.288-1.104c-0.46-0.36-0.889-0.755-1.288-1.185c-0.399-0.429-0.732-0.916-1-1.461
		c-0.269-0.544-0.403-1.191-0.403-1.943c0-1.241,0.291-2.223,0.874-2.943C296.017,106.431,296.914,106.07,298.125,106.07z"/>
	<path fill="#464747" d="M303.968,122.331h-0.667V120.1h1.725v2.07l-0.897,2.186h-0.736L303.968,122.331z"/>
	<path fill="#464747" d="M144.901,129.07c1.227,0,2.131,0.364,2.714,1.092c0.583,0.729,0.874,1.706,0.874,2.933v0.438h-1.702v-0.529
		c0-0.736-0.146-1.303-0.437-1.702c-0.292-0.398-0.759-0.598-1.403-0.598s-1.112,0.199-1.403,0.598
		c-0.292,0.399-0.437,0.959-0.437,1.68c0,0.598,0.134,1.119,0.403,1.563c0.268,0.445,0.602,0.855,1,1.23
		c0.398,0.376,0.832,0.744,1.299,1.104s0.9,0.755,1.299,1.185c0.399,0.429,0.732,0.916,1,1.46c0.269,0.545,0.403,1.192,0.403,1.943
		c0,1.228-0.295,2.205-0.886,2.933c-0.59,0.729-1.506,1.093-2.749,1.093c-1.242,0-2.154-0.364-2.737-1.093
		c-0.583-0.728-0.874-1.705-0.874-2.933v-0.92h1.679v1.012c0,0.736,0.153,1.304,0.46,1.702c0.306,0.399,0.782,0.599,1.426,0.599
		s1.119-0.199,1.426-0.599c0.306-0.398,0.46-0.966,0.46-1.702c0-0.598-0.135-1.115-0.403-1.552c-0.268-0.438-0.602-0.844-1-1.22
		c-0.399-0.375-0.828-0.743-1.288-1.104c-0.46-0.36-0.889-0.755-1.288-1.185c-0.399-0.429-0.732-0.916-1-1.461
		c-0.269-0.544-0.403-1.191-0.403-1.943c0-1.241,0.291-2.223,0.874-2.943C142.792,129.431,143.689,129.07,144.901,129.07z"/>
	<path fill="#464747" d="M155.803,136.361v1.609h-3.933v5.728h4.83v1.633h-6.624v-16.1h6.624v1.633h-4.83v5.497H155.803z"/>
	<path fill="#464747" d="M161.943,129.231c1.273,0,2.189,0.314,2.749,0.942c0.56,0.629,0.84,1.541,0.84,2.737v1.311
		c0,0.89-0.161,1.61-0.483,2.162c-0.322,0.553-0.828,0.936-1.518,1.15c0.736,0.215,1.257,0.609,1.564,1.185
		c0.306,0.575,0.46,1.299,0.46,2.173v2.508c0,0.353,0.015,0.693,0.046,1.023c0.03,0.33,0.123,0.632,0.276,0.908h-1.817
		c-0.107-0.23-0.184-0.479-0.23-0.747c-0.046-0.269-0.069-0.671-0.069-1.208v-2.53c0-0.904-0.204-1.529-0.61-1.874
		s-0.985-0.518-1.736-0.518h-1.265v6.877h-1.794v-16.1H161.943z M161.483,136.821c0.721,0,1.28-0.149,1.679-0.449
		c0.398-0.299,0.598-0.885,0.598-1.759v-1.541c0-0.736-0.142-1.288-0.426-1.656s-0.763-0.552-1.438-0.552h-1.748v5.957H161.483z"/>
	<path fill="#464747" d="M169.234,142.088l-0.621,3.243h-1.656l3.082-16.1h2.599l3.082,16.1h-1.794l-0.621-3.243H169.234z
		 M169.464,140.547h3.588l-1.817-9.292L169.464,140.547z M173.513,126.011l-2.116,2.369h-1.265l1.61-2.369H173.513z"/>
	<path fill="#464747" d="M182.505,142.088l-0.621,3.243h-1.656l3.082-16.1h2.599l3.082,16.1h-1.794l-0.621-3.243H182.505z
		 M182.735,140.547h3.588l-1.817-9.292L182.735,140.547z"/>
	<path fill="#464747" d="M199.687,136.361v1.609h-3.933v5.728h4.83v1.633h-6.624v-16.1h6.624v1.633h-4.83v5.497H199.687z"/>
	<path fill="#464747" d="M202.239,145.331v-16.1h1.794v14.467h4.6v1.633H202.239z"/>
	<path fill="#464747" d="M209.99,145.331v-16.1h1.794v14.467h4.6v1.633H209.99z"/>
	<path fill="#464747" d="M217.604,133.118c0-1.242,0.302-2.228,0.908-2.956c0.605-0.728,1.53-1.092,2.771-1.092
		c1.242,0,2.169,0.364,2.783,1.092c0.613,0.729,0.92,1.714,0.92,2.956v8.326c0,1.227-0.307,2.208-0.92,2.943
		c-0.614,0.736-1.541,1.104-2.783,1.104c-1.242,0-2.166-0.368-2.771-1.104c-0.606-0.735-0.908-1.717-0.908-2.943V133.118z
		 M219.375,141.536c0,0.736,0.157,1.308,0.471,1.714c0.314,0.406,0.793,0.609,1.438,0.609c0.659,0,1.142-0.203,1.449-0.609
		c0.307-0.406,0.46-0.978,0.46-1.714v-8.51c0-0.736-0.153-1.308-0.46-1.714c-0.307-0.406-0.79-0.609-1.449-0.609
		c-0.644,0-1.124,0.203-1.438,0.609c-0.314,0.406-0.471,0.978-0.471,1.714V141.536z"/>
	<path fill="#464747" d="M230.069,129.07c1.227,0,2.131,0.364,2.714,1.092c0.583,0.729,0.874,1.706,0.874,2.933v0.438h-1.702v-0.529
		c0-0.736-0.146-1.303-0.437-1.702c-0.292-0.398-0.759-0.598-1.403-0.598s-1.112,0.199-1.403,0.598
		c-0.292,0.399-0.437,0.959-0.437,1.68c0,0.598,0.134,1.119,0.403,1.563c0.268,0.445,0.602,0.855,1,1.23
		c0.398,0.376,0.832,0.744,1.299,1.104s0.9,0.755,1.299,1.185c0.399,0.429,0.732,0.916,1,1.46c0.269,0.545,0.403,1.192,0.403,1.943
		c0,1.228-0.295,2.205-0.886,2.933c-0.59,0.729-1.506,1.093-2.749,1.093c-1.242,0-2.154-0.364-2.737-1.093
		c-0.583-0.728-0.874-1.705-0.874-2.933v-0.92h1.679v1.012c0,0.736,0.153,1.304,0.46,1.702c0.306,0.399,0.782,0.599,1.426,0.599
		s1.119-0.199,1.426-0.599c0.306-0.398,0.46-0.966,0.46-1.702c0-0.598-0.135-1.115-0.403-1.552c-0.268-0.438-0.602-0.844-1-1.22
		c-0.399-0.375-0.828-0.743-1.288-1.104c-0.46-0.36-0.889-0.755-1.288-1.185c-0.399-0.429-0.732-0.916-1-1.461
		c-0.269-0.544-0.403-1.191-0.403-1.943c0-1.241,0.291-2.223,0.874-2.943C227.96,129.431,228.857,129.07,230.069,129.07z"/>
</g>
</svg>
