<?xml version="1.0" encoding="utf-8"?>
<!-- Generator: Adobe Illustrator 16.0.0, SVG Export Plug-In . SVG Version: 6.00 Build 0)  -->
<!DOCTYPE svg PUBLIC "-//W3C//DTD SVG 1.1//EN" "http://www.w3.org/Graphics/SVG/1.1/DTD/svg11.dtd">
<svg version="1.1" id="Layer_1" xmlns="http://www.w3.org/2000/svg" xmlns:xlink="http://www.w3.org/1999/xlink" x="0px" y="0px"
	 width="876px" height="476px" viewBox="0 0 876 476" enable-background="new 0 0 876 476" xml:space="preserve">
<g>
	<defs>
		<rect id="SVGID_1_" x="0.5" y="0.5" width="875" height="475"/>
	</defs>
	<clipPath id="SVGID_2_">
		<use xlink:href="#SVGID_1_"  overflow="visible"/>
	</clipPath>
	<g clip-path="url(#SVGID_2_)">
		<rect x="-39.763" y="-65.553" fill="#94D7F2" width="1227.999" height="698.001"/>
		<g>
			<rect x="-39.763" y="-65.553" fill="#94D7F2" width="937.128" height="569.898"/>
			<g>
				<g>
					<g>
						<path fill="#8C8C8C" d="M-4.8,205.413c0-53.441,33.71-96.758,75.314-96.758c41.581,0,75.285,43.316,75.285,96.758
							c0,7.71-0.724,15.212-2.048,22.392H-2.742C-4.076,220.625-4.8,213.123-4.8,205.413z"/>
						<path fill="#8C8C8C" d="M27.281,72.12c0,23.875,19.355,43.219,43.233,43.219c23.854,0,43.194-19.344,43.194-43.219
							c0-23.867-19.341-43.213-43.194-43.213C46.637,28.907,27.281,48.253,27.281,72.12z"/>
					</g>
				</g>
				<g>
					<path fill="#8C8C8C" d="M141.2,205.413c0-53.441,33.709-96.758,75.314-96.758c41.581,0,75.285,43.316,75.285,96.758
						c0,7.71-0.724,15.212-2.048,22.392H143.258C141.924,220.625,141.2,213.123,141.2,205.413z"/>
					<path fill="#8C8C8C" d="M173.281,72.119c0,23.876,19.355,43.219,43.233,43.219c23.854,0,43.194-19.343,43.194-43.219
						c0-23.867-19.34-43.213-43.194-43.213C192.636,28.906,173.281,48.252,173.281,72.119z"/>
				</g>
				<g>
					<path fill="#8C8C8C" d="M287.201,205.413c0-53.441,33.709-96.758,75.312-96.758c41.582,0,75.286,43.316,75.286,96.758
						c0,7.71-0.724,15.212-2.048,22.392H289.258C287.924,220.625,287.201,213.123,287.201,205.413z"/>
					<path fill="#8C8C8C" d="M319.281,72.12c0,23.875,19.355,43.219,43.232,43.219c23.854,0,43.195-19.344,43.195-43.219
						c0-23.867-19.341-43.213-43.195-43.213C338.636,28.907,319.281,48.253,319.281,72.12z"/>
				</g>
				<g>
					<path fill="#8C8C8C" d="M433.201,205.413c0-53.441,33.708-96.758,75.312-96.758c41.582,0,75.286,43.316,75.286,96.758
						c0,7.71-0.725,15.212-2.049,22.392H435.258C433.924,220.625,433.201,213.123,433.201,205.413z"/>
					<path fill="#8C8C8C" d="M465.281,72.12c0,23.875,19.354,43.219,43.232,43.219c23.854,0,43.194-19.344,43.194-43.219
						c0-23.867-19.34-43.213-43.194-43.213C484.636,28.907,465.281,48.253,465.281,72.12z"/>
				</g>
				<g>
					<path fill="#8C8C8C" d="M579.201,205.413c0-53.44,33.708-96.758,75.312-96.758c41.582,0,75.287,43.317,75.287,96.758
						c0,7.71-0.725,15.212-2.049,22.392H581.258C579.924,220.625,579.201,213.123,579.201,205.413z"/>
					<path fill="#8C8C8C" d="M611.281,72.12c0,23.876,19.354,43.219,43.231,43.219c23.855,0,43.195-19.343,43.195-43.219
						c0-23.867-19.34-43.213-43.195-43.213C630.635,28.907,611.281,48.253,611.281,72.12z"/>
				</g>
				<g>
					<g>
						<path fill="#8C8C8C" d="M725.201,205.413c0-53.441,33.707-96.758,75.311-96.758c41.582,0,75.287,43.316,75.287,96.758
							c0,7.71-0.725,15.212-2.049,22.392H727.258C725.924,220.625,725.201,213.123,725.201,205.413z"/>
						<path fill="#8C8C8C" d="M757.281,72.12c0,23.875,19.354,43.219,43.23,43.219c23.855,0,43.195-19.344,43.195-43.219
							c0-23.867-19.34-43.213-43.195-43.213C776.635,28.907,757.281,48.253,757.281,72.12z"/>
					</g>
				</g>
			</g>
			<rect x="-21.5" y="203.5" fill="#8C8C8C" width="915.134" height="94"/>
			<g>
				<g>
					<g>
						<path fill="#D1D1D1" d="M-4.8,309.413c0-53.441,33.71-96.758,75.314-96.758c41.581,0,75.285,43.316,75.285,96.758
							c0,7.71-0.724,15.212-2.048,22.392H-2.742C-4.076,324.625-4.8,317.123-4.8,309.413z"/>
						<path fill="#D1D1D1" d="M27.281,176.12c0,23.875,19.355,43.219,43.233,43.219c23.854,0,43.194-19.344,43.194-43.219
							c0-23.867-19.341-43.213-43.194-43.213C46.637,132.907,27.281,152.253,27.281,176.12z"/>
					</g>
				</g>
				<g>
					<path fill="#D1D1D1" d="M141.2,309.413c0-53.441,33.709-96.758,75.314-96.758c41.581,0,75.285,43.316,75.285,96.758
						c0,7.71-0.724,15.212-2.048,22.392H143.258C141.924,324.625,141.2,317.123,141.2,309.413z"/>
					<path fill="#D1D1D1" d="M173.281,176.119c0,23.876,19.355,43.22,43.233,43.22c23.854,0,43.194-19.344,43.194-43.22
						c0-23.867-19.34-43.213-43.194-43.213C192.636,132.906,173.281,152.252,173.281,176.119z"/>
				</g>
				<g>
					<path fill="#D1D1D1" d="M287.201,309.413c0-53.441,33.709-96.758,75.312-96.758c41.582,0,75.286,43.316,75.286,96.758
						c0,7.71-0.724,15.212-2.048,22.392H289.258C287.924,324.625,287.201,317.123,287.201,309.413z"/>
					<path fill="#D1D1D1" d="M319.281,176.12c0,23.875,19.355,43.219,43.232,43.219c23.854,0,43.195-19.344,43.195-43.219
						c0-23.867-19.341-43.213-43.195-43.213C338.636,132.907,319.281,152.253,319.281,176.12z"/>
				</g>
				<g>
					<path fill="#D1D1D1" d="M433.201,309.413c0-53.441,33.708-96.758,75.312-96.758c41.582,0,75.286,43.316,75.286,96.758
						c0,7.71-0.725,15.212-2.049,22.392H435.258C433.924,324.625,433.201,317.123,433.201,309.413z"/>
					<path fill="#D1D1D1" d="M465.281,176.12c0,23.875,19.354,43.219,43.232,43.219c23.854,0,43.194-19.344,43.194-43.219
						c0-23.867-19.34-43.213-43.194-43.213C484.636,132.907,465.281,152.253,465.281,176.12z"/>
				</g>
				<g>
					<path fill="#D1D1D1" d="M579.201,309.414c0-53.442,33.708-96.758,75.312-96.758c41.582,0,75.287,43.315,75.287,96.758
						c0,7.709-0.725,15.211-2.049,22.391H581.258C579.924,324.625,579.201,317.123,579.201,309.414z"/>
					<path fill="#D1D1D1" d="M611.281,176.12c0,23.875,19.354,43.219,43.231,43.219c23.855,0,43.195-19.344,43.195-43.219
						c0-23.867-19.34-43.213-43.195-43.213C630.635,132.907,611.281,152.253,611.281,176.12z"/>
				</g>
				<g>
					<g>
						<path fill="#D1D1D1" d="M725.201,309.413c0-53.441,33.707-96.758,75.311-96.758c41.582,0,75.287,43.316,75.287,96.758
							c0,7.71-0.725,15.212-2.049,22.392H727.258C725.924,324.625,725.201,317.123,725.201,309.413z"/>
						<path fill="#D1D1D1" d="M757.281,176.12c0,23.875,19.354,43.219,43.23,43.219c23.855,0,43.195-19.344,43.195-43.219
							c0-23.867-19.34-43.213-43.195-43.213C776.635,132.907,757.281,152.253,757.281,176.12z"/>
					</g>
				</g>
			</g>
			<rect x="-0.625" y="328.178" fill="#485E5A" width="876.125" height="176.826"/>
		</g>
		<g display="none">
			<g display="inline">
				<g>
					<g>
						<path fill="#939598" d="M162.581,76.13c-0.068-15.489-12.103-28.052-27.439-28.659v-0.313h-25.499l-0.009-0.062l-4.818-0.436
							c0.316-1.497,0.488-3.03,0.488-4.622c0-0.926-0.391-1.504-0.503-2.4c-0.029,0.274-0.071,0.541-0.117,0.805V21.585
							c5.167-5.299,9.349-13.387,10.071-25.697c0.078,0.015,0.148,0.031,0.225,0.039c0,0.084,0,0.155,0,0.21
							c0,0,0.429-0.063,0.939-0.188c3.944-0.193,7.103-4.681,7.103-10.191c0-3.973-1.645-7.409-4.032-9.1
							c2.277-8.759,6.993-32.563-5.07-44.398c-2.247-2.399-4.586-4.402-4.586-4.402c-3.934-4.716-3.41-9.96-3.41-9.96
							c-5.5,1.574-9.169,6.289-9.169,6.289c0.528-9.693,5.502-12.311,5.502-12.311c-1.045-1.045-4.714-0.53-4.714-0.53
							c-14.416,0.788-18.603,13.894-18.603,13.894c-2.103-2.361,0.26-10.479,0.26-10.479c-16.424,3.786-27.97,17.32-28.768,18.279
							c-11.059,12.005-6.581,34.814-4.34,43.479c-2.494,1.644-4.222,5.158-4.222,9.24c0,5.487,3.116,9.952,7.021,10.191
							c0.157,0.033,0.296,0.062,0.43,0.096c0.8,13.013,5.494,21.272,11.088,26.531v18.009l-0.105-0.469l-0.079,0.373
							c-0.073-0.39-0.139-0.779-0.187-1.186c-0.057,0.452,0.035,0.906,0.145,1.374l-1.387,6.48H31.278v0.289
							C16.516,47.479,3.966,59.392,3.036,74.463c-0.121,0.232-0.184,0.513-0.184,0.825v37.945c0,1.263,1.005,2.792,2.513,2.792
							h3.102c-1.241,13.634-1.041,30.793,0.905,49.307c4.507,42.926,16.686,76.845,27.195,75.739
							c7.493-0.795,12.117-19.177,12.516-45.232h66.319c0.404,26.056,5.022,44.438,12.516,45.232
							c10.509,1.105,22.684-32.813,27.195-75.739c1.947-18.514,2.146-35.673,0.902-49.307h4.174c1.511,0,2.283-1.529,2.283-2.792
							V76.13H162.581z M115.097-24.418l0.035-2.361c0.023,0.833,0.055,1.629,0.094,2.346
							C115.183-24.434,115.136-24.434,115.097-24.418z"/>
					</g>
					<g>
						<path fill="#939598" d="M330.14,76.13c-0.069-15.489-12.104-28.052-27.438-28.659v-0.313H277.2l-0.006-0.062l-4.819-0.436
							c0.314-1.497,0.486-3.03,0.486-4.622c0-0.926-0.39-1.504-0.501-2.4c-0.029,0.274-0.073,0.541-0.117,0.805V21.585
							c5.165-5.299,9.35-13.387,10.07-25.697c0.077,0.015,0.148,0.031,0.226,0.039c0,0.084,0,0.155,0,0.21
							c0,0,0.43-0.063,0.938-0.188c3.943-0.193,7.104-4.681,7.104-10.191c0-3.973-1.644-7.409-4.033-9.1
							c2.276-8.759,6.995-32.563-5.066-44.398c-2.249-2.399-4.591-4.402-4.591-4.402c-3.933-4.716-3.409-9.96-3.409-9.96
							c-5.498,1.574-9.17,6.289-9.17,6.289c0.528-9.693,5.504-12.311,5.504-12.311c-1.045-1.045-4.716-0.53-4.716-0.53
							c-14.413,0.788-18.603,13.894-18.603,13.894c-2.1-2.361,0.262-10.479,0.262-10.479c-16.426,3.786-27.972,17.32-28.768,18.279
							c-11.058,12.005-6.58,34.814-4.34,43.479c-2.496,1.644-4.226,5.158-4.226,9.24c0,5.487,3.118,9.952,7.026,10.191
							c0.155,0.033,0.295,0.062,0.43,0.096c0.798,13.013,5.493,21.272,11.085,26.531v18.009l-0.103-0.469l-0.08,0.373
							c-0.073-0.39-0.14-0.779-0.186-1.186c-0.059,0.452,0.033,0.906,0.145,1.374l-1.389,6.48h-27.518v0.289
							c-14.762,0.033-27.311,11.945-28.24,27.017c-0.122,0.232-0.185,0.513-0.185,0.825v37.945c0,1.263,1.005,2.792,2.513,2.792h3.1
							c-1.239,13.634-1.038,30.793,0.905,49.307c4.507,42.926,16.688,76.845,27.195,75.739c7.495-0.795,12.12-19.177,12.518-45.232
							h66.317c0.406,26.056,5.022,44.438,12.518,45.232c10.508,1.105,22.685-32.813,27.195-75.739
							c1.948-18.514,2.145-35.673,0.902-49.307h4.172c1.513,0,2.283-1.529,2.283-2.792V76.13H330.14z M282.656-24.418l0.034-2.361
							c0.024,0.833,0.056,1.629,0.094,2.346C282.742-24.434,282.696-24.434,282.656-24.418z"/>
					</g>
					<g>
						<path fill="#939598" d="M505.678,76.13c-0.068-15.489-12.105-28.052-27.439-28.659v-0.313H452.74l-0.01-0.062l-4.818-0.436
							c0.316-1.497,0.488-3.03,0.488-4.622c0-0.926-0.393-1.504-0.504-2.4c-0.029,0.274-0.07,0.541-0.117,0.805V21.585
							c5.168-5.299,9.35-13.387,10.072-25.697c0.076,0.015,0.146,0.031,0.225,0.039c0,0.084,0,0.155,0,0.21
							c0,0,0.43-0.063,0.939-0.188c3.941-0.193,7.104-4.681,7.104-10.191c0-3.973-1.646-7.409-4.033-9.1
							c2.275-8.759,6.994-32.563-5.07-44.398c-2.246-2.399-4.588-4.402-4.588-4.402c-3.932-4.716-3.408-9.96-3.408-9.96
							c-5.498,1.574-9.168,6.289-9.168,6.289c0.525-9.693,5.502-12.311,5.502-12.311c-1.043-1.045-4.715-0.53-4.715-0.53
							c-14.415,0.788-18.604,13.894-18.604,13.894c-2.101-2.361,0.262-10.479,0.262-10.479c-16.424,3.786-27.97,17.32-28.769,18.279
							c-11.058,12.005-6.58,34.814-4.341,43.479c-2.492,1.644-4.223,5.158-4.223,9.24c0,5.487,3.116,9.952,7.024,10.191
							c0.157,0.033,0.296,0.062,0.43,0.096c0.798,13.013,5.491,21.272,11.088,26.531v18.009l-0.105-0.469l-0.079,0.373
							c-0.073-0.39-0.141-0.779-0.187-1.186c-0.059,0.452,0.035,0.906,0.145,1.374l-1.389,6.48h-27.516v0.289
							c-14.763,0.033-27.311,11.945-28.242,27.017c-0.121,0.232-0.185,0.513-0.185,0.825v37.945c0,1.263,1.008,2.792,2.516,2.792
							h3.1c-1.242,13.634-1.041,30.793,0.902,49.307c4.51,42.926,16.688,76.845,27.195,75.739
							c7.496-0.795,12.12-19.177,12.519-45.232h66.315c0.406,26.056,5.023,44.438,12.52,45.232
							c10.508,1.105,22.682-32.813,27.193-75.739c1.949-18.514,2.148-35.673,0.906-49.307h4.17c1.514,0,2.283-1.529,2.283-2.792
							V76.13H505.678z M458.193-24.418l0.035-2.361c0.023,0.833,0.055,1.629,0.092,2.346
							C458.279-24.434,458.232-24.434,458.193-24.418z"/>
					</g>
					<g>
						<path fill="#939598" d="M673.236,76.13c-0.068-15.489-12.104-28.052-27.438-28.659v-0.313h-25.5l-0.008-0.062l-4.818-0.436
							c0.314-1.497,0.484-3.03,0.484-4.622c0-0.926-0.389-1.504-0.502-2.4c-0.027,0.274-0.068,0.541-0.117,0.805V21.585
							c5.166-5.299,9.352-13.387,10.072-25.697c0.08,0.015,0.148,0.031,0.227,0.039c0,0.084,0,0.155,0,0.21
							c0,0,0.426-0.063,0.938-0.188c3.943-0.193,7.102-4.681,7.102-10.191c0-3.973-1.643-7.409-4.031-9.1
							c2.275-8.759,6.992-32.563-5.068-44.398c-2.25-2.399-4.59-4.402-4.59-4.402c-3.93-4.716-3.408-9.96-3.408-9.96
							c-5.498,1.574-9.168,6.289-9.168,6.289c0.523-9.693,5.5-12.311,5.5-12.311c-1.043-1.045-4.711-0.53-4.711-0.53
							c-14.416,0.788-18.605,13.894-18.605,13.894c-2.1-2.361,0.262-10.479,0.262-10.479c-16.426,3.786-27.969,17.32-28.77,18.279
							c-11.057,12.005-6.578,34.814-4.34,43.479c-2.494,1.644-4.221,5.158-4.221,9.24c0,5.487,3.113,9.952,7.021,10.191
							c0.156,0.033,0.297,0.062,0.43,0.096c0.799,13.013,5.492,21.272,11.088,26.531v18.009l-0.105-0.469l-0.078,0.373
							c-0.072-0.39-0.141-0.779-0.186-1.186c-0.059,0.452,0.033,0.906,0.143,1.374l-1.385,6.48h-27.52v0.289
							c-14.762,0.033-27.311,11.945-28.24,27.017c-0.123,0.232-0.184,0.513-0.184,0.825v37.945c0,1.263,1.004,2.792,2.512,2.792
							h3.102c-1.244,13.634-1.039,30.793,0.904,49.307c4.506,42.926,16.688,76.845,27.193,75.739
							c7.496-0.795,12.121-19.177,12.52-45.232h66.316c0.404,26.056,5.023,44.438,12.518,45.232
							c10.508,1.105,22.682-32.813,27.193-75.739c1.949-18.514,2.146-35.673,0.904-49.307h4.172c1.514,0,2.283-1.529,2.283-2.792
							V76.13H673.236z M625.754-24.418l0.033-2.361c0.023,0.833,0.055,1.629,0.094,2.346
							C625.838-24.434,625.791-24.434,625.754-24.418z"/>
					</g>
					<g>
						<path fill="#939598" d="M840.797,76.13c-0.072-15.489-12.105-28.052-27.441-28.659v-0.313h-25.498l-0.008-0.062l-4.82-0.436
							c0.316-1.497,0.486-3.03,0.486-4.622c0-0.926-0.387-1.504-0.5-2.4c-0.027,0.274-0.072,0.541-0.117,0.805V21.585
							c5.166-5.299,9.35-13.387,10.072-25.697c0.076,0.015,0.146,0.031,0.225,0.039c0,0.084,0,0.155,0,0.21
							c0,0,0.428-0.063,0.939-0.188c3.941-0.193,7.102-4.681,7.102-10.191c0-3.973-1.645-7.409-4.031-9.1
							c2.273-8.759,6.992-32.563-5.068-44.398c-2.25-2.399-4.592-4.402-4.592-4.402c-3.93-4.716-3.408-9.96-3.408-9.96
							c-5.498,1.574-9.168,6.289-9.168,6.289c0.527-9.693,5.502-12.311,5.502-12.311c-1.045-1.045-4.715-0.53-4.715-0.53
							c-14.414,0.788-18.602,13.894-18.602,13.894c-2.1-2.361,0.26-10.479,0.26-10.479c-16.426,3.786-27.971,17.32-28.768,18.279
							c-11.059,12.005-6.58,34.814-4.34,43.479c-2.494,1.644-4.225,5.158-4.225,9.24c0,5.487,3.117,9.952,7.025,10.191
							c0.154,0.033,0.297,0.062,0.43,0.096c0.797,13.013,5.492,21.272,11.086,26.531v18.009l-0.104-0.469l-0.078,0.373
							c-0.076-0.39-0.141-0.779-0.188-1.186c-0.059,0.452,0.035,0.906,0.145,1.374l-1.387,6.48h-27.518v0.289
							c-14.762,0.033-27.312,11.945-28.242,27.017c-0.119,0.232-0.186,0.513-0.186,0.825v37.945c0,1.263,1.006,2.792,2.514,2.792
							h3.102c-1.244,13.634-1.039,30.793,0.904,49.307c4.508,42.926,16.686,76.845,27.193,75.739
							c7.496-0.795,12.123-19.177,12.518-45.232h66.32c0.402,26.056,5.02,44.438,12.518,45.232
							c10.506,1.105,22.682-32.813,27.193-75.739c1.947-18.514,2.146-35.673,0.902-49.307h4.174c1.512,0,2.283-1.529,2.283-2.792
							V76.13H840.797z M793.312-24.418l0.035-2.361c0.023,0.833,0.053,1.629,0.094,2.346
							C793.396-24.434,793.352-24.434,793.312-24.418z"/>
					</g>
					<g>
						<path fill="#939598" d="M1008.354,76.13c-0.068-15.489-12.104-28.052-27.438-28.659v-0.313h-25.5l-0.01-0.062l-4.818-0.436
							c0.316-1.497,0.488-3.03,0.488-4.622c0-0.926-0.391-1.504-0.502-2.4c-0.027,0.274-0.07,0.541-0.119,0.805V21.585
							c5.168-5.299,9.352-13.387,10.072-25.697c0.078,0.015,0.148,0.031,0.227,0.039c0,0.084,0,0.155,0,0.21
							c0,0,0.43-0.063,0.938-0.188c3.945-0.193,7.105-4.681,7.105-10.191c0-3.973-1.646-7.409-4.035-9.1
							c2.277-8.759,6.996-32.563-5.068-44.398c-2.246-2.399-4.588-4.402-4.588-4.402c-3.932-4.716-3.41-9.96-3.41-9.96
							c-5.496,1.574-9.166,6.289-9.166,6.289c0.525-9.693,5.5-12.311,5.5-12.311c-1.043-1.045-4.715-0.53-4.715-0.53
							c-14.414,0.788-18.602,13.894-18.602,13.894c-2.102-2.361,0.26-10.479,0.26-10.479c-16.424,3.786-27.969,17.32-28.766,18.279
							c-11.059,12.005-6.584,34.814-4.342,43.479c-2.494,1.644-4.223,5.158-4.223,9.24c0,5.487,3.117,9.952,7.023,10.191
							c0.156,0.033,0.297,0.062,0.428,0.096c0.801,13.013,5.494,21.272,11.09,26.531v18.009l-0.107-0.469L906,40.488
							c-0.076-0.39-0.141-0.779-0.188-1.186c-0.059,0.452,0.035,0.906,0.145,1.374l-1.389,6.48h-27.518v0.289
							c-14.76,0.033-27.307,11.945-28.242,27.017c-0.119,0.232-0.182,0.513-0.182,0.825v37.945c0,1.263,1.006,2.792,2.514,2.792h3.1
							c-1.24,13.634-1.039,30.793,0.904,49.307c4.51,42.926,16.686,76.845,27.195,75.739c7.496-0.795,12.119-19.177,12.518-45.232
							h66.318c0.406,26.056,5.02,44.438,12.518,45.232c10.506,1.105,22.682-32.813,27.195-75.739
							c1.945-18.514,2.145-35.673,0.902-49.307h4.172c1.512,0,2.283-1.529,2.283-2.792V76.13H1008.354z M960.871-24.418l0.033-2.361
							c0.025,0.833,0.057,1.629,0.094,2.346C960.955-24.434,960.91-24.434,960.871-24.418z"/>
					</g>
				</g>
			</g>
			<g display="inline">
				<g>
					<g>
						<path fill="#6D6E71" d="M83.924,153.457c-0.069-15.489-12.101-28.052-27.439-28.65v-0.32H30.987l-0.004-0.062l-4.823-0.437
							c0.32-1.495,0.485-3.038,0.485-4.612c0-0.936-0.385-1.513-0.498-2.401c-0.031,0.267-0.073,0.532-0.115,0.796V98.921
							c5.16-5.308,9.345-13.396,10.069-25.706c0.078,0.017,0.151,0.031,0.227,0.048c0,0.077,0,0.148,0,0.201
							c0,0,0.427-0.061,0.938-0.187c3.939-0.188,7.096-4.675,7.096-10.191c0-3.975-1.643-7.418-4.029-9.102
							c2.278-8.759,6.994-32.562-5.068-44.398c-2.25-2.401-4.594-4.401-4.594-4.401c-3.922-4.715-3.4-9.951-3.4-9.951
							c-5.502,1.573-9.172,6.279-9.172,6.279c0.521-9.692,5.504-12.311,5.504-12.311c-1.051-1.045-4.716-0.521-4.716-0.521
							C4.474-10.531,0.284,2.564,0.284,2.564C-1.814,0.204,0.548-7.914,0.548-7.914C-15.88-4.127-27.428,9.412-28.228,10.365
							c-11.046,12.007-6.576,34.814-4.342,43.485c-2.49,1.646-4.216,5.152-4.216,9.235c0,5.485,3.114,9.942,7.024,10.191
							c0.156,0.031,0.297,0.069,0.423,0.095c0.804,13.004,5.504,21.271,11.096,26.531v18.007l-0.104-0.451l-0.084,0.356
							c-0.073-0.39-0.136-0.785-0.187-1.183c-0.054,0.451,0.036,0.911,0.149,1.371l-1.391,6.482h-27.516v0.28
							c-14.766,0.047-27.319,11.953-28.245,27.03c-0.117,0.234-0.184,0.507-0.184,0.828v37.938c0,1.261,1.009,2.79,2.517,2.79h3.098
							c-1.239,13.634-1.041,30.795,0.903,49.307c4.511,42.936,16.688,76.844,27.199,75.738c7.487-0.787,12.115-19.168,12.514-45.225
							h66.317c0.404,26.057,5.021,44.438,12.514,45.225c10.516,1.105,22.686-32.803,27.197-75.738
							c1.947-18.512,2.148-35.673,0.908-49.307h4.172c1.513,0,2.279-1.529,2.279-2.79v-37.105H83.924z M36.441,52.91l0.033-2.354
							c0.025,0.834,0.055,1.621,0.095,2.338C36.521,52.894,36.479,52.901,36.441,52.91z"/>
					</g>
					<g>
						<path fill="#6D6E71" d="M253.479,153.457c-0.07-15.489-12.101-28.052-27.439-28.65v-0.32h-25.499l-0.004-0.062l-4.823-0.437
							c0.318-1.495,0.486-3.038,0.486-4.612c0-0.936-0.386-1.513-0.497-2.401c-0.033,0.267-0.075,0.532-0.117,0.796V98.921
							c5.161-5.308,9.345-13.396,10.069-25.706c0.08,0.017,0.151,0.031,0.227,0.048c0,0.077,0,0.148,0,0.201
							c0,0,0.428-0.061,0.938-0.187c3.939-0.188,7.096-4.675,7.096-10.191c0-3.975-1.642-7.418-4.03-9.102
							c2.281-8.759,6.996-32.562-5.067-44.398c-2.25-2.401-4.593-4.401-4.593-4.401c-3.923-4.715-3.404-9.951-3.404-9.951
							c-5.499,1.573-9.168,6.279-9.168,6.279c0.521-9.692,5.504-12.311,5.504-12.311c-1.052-1.045-4.717-0.521-4.717-0.521
							c-14.414,0.788-18.6,13.884-18.6,13.884c-2.102-2.36,0.262-10.479,0.262-10.479c-16.429,3.787-27.975,17.326-28.776,18.279
							c-11.046,12.007-6.576,34.814-4.34,43.485c-2.49,1.646-4.218,5.152-4.218,9.235c0,5.485,3.112,9.942,7.024,10.191
							c0.157,0.031,0.298,0.069,0.423,0.095c0.805,13.004,5.504,21.271,11.094,26.531v18.007l-0.104-0.451l-0.082,0.356
							c-0.073-0.39-0.136-0.785-0.187-1.183c-0.055,0.451,0.036,0.911,0.148,1.371l-1.391,6.482H122.18v0.28
							c-14.766,0.047-27.319,11.953-28.245,27.03c-0.117,0.234-0.184,0.507-0.184,0.828v37.938c0,1.261,1.01,2.79,2.518,2.79h3.098
							c-1.24,13.634-1.041,30.795,0.902,49.307c4.511,42.936,16.688,76.844,27.197,75.738c7.489-0.787,12.117-19.168,12.516-45.225
							h66.317c0.404,26.057,5.022,44.438,12.514,45.225c10.516,1.105,22.686-32.803,27.197-75.738
							c1.95-18.512,2.148-35.673,0.909-49.307h4.172c1.512,0,2.28-1.529,2.28-2.79v-37.105H253.479z M205.995,52.91l0.033-2.354
							c0.025,0.834,0.055,1.621,0.095,2.338C206.075,52.894,206.032,52.901,205.995,52.91z"/>
					</g>
					<g>
						<path fill="#6D6E71" d="M421.038,153.457c-0.069-15.489-12.102-28.052-27.44-28.65v-0.32H368.1l-0.005-0.062l-4.823-0.437
							c0.321-1.495,0.488-3.038,0.488-4.612c0-0.936-0.388-1.513-0.498-2.401c-0.032,0.267-0.075,0.532-0.118,0.796V98.921
							c5.163-5.308,9.348-13.396,10.07-25.706c0.079,0.017,0.152,0.031,0.227,0.048c0,0.077,0,0.148,0,0.201
							c0,0,0.429-0.061,0.939-0.187c3.938-0.188,7.094-4.675,7.094-10.191c0-3.975-1.64-7.418-4.027-9.102
							c2.279-8.759,6.993-32.562-5.07-44.398c-2.247-2.401-4.593-4.401-4.593-4.401c-3.923-4.715-3.401-9.951-3.401-9.951
							c-5.5,1.573-9.171,6.279-9.171,6.279c0.523-9.692,5.506-12.311,5.506-12.311c-1.054-1.045-4.719-0.521-4.719-0.521
							C341.587-10.531,337.4,2.564,337.4,2.564c-2.101-2.36,0.26-10.479,0.26-10.479c-16.426,3.787-27.974,17.326-28.776,18.279
							c-11.045,12.007-6.576,34.814-4.34,43.485c-2.49,1.646-4.216,5.152-4.216,9.235c0,5.485,3.112,9.942,7.024,10.191
							c0.155,0.031,0.298,0.069,0.422,0.095c0.806,13.004,5.504,21.271,11.096,26.531v18.007l-0.105-0.451l-0.084,0.356
							c-0.072-0.39-0.134-0.785-0.184-1.183c-0.057,0.451,0.033,0.911,0.146,1.371l-1.391,6.482h-27.514v0.28
							c-14.768,0.047-27.318,11.953-28.246,27.03c-0.117,0.234-0.185,0.507-0.185,0.828v37.938c0,1.261,1.01,2.79,2.518,2.79h3.098
							c-1.24,13.634-1.039,30.795,0.902,49.307c4.514,42.936,16.688,76.844,27.199,75.738c7.487-0.787,12.116-19.168,12.516-45.225
							h66.315c0.406,26.057,5.022,44.438,12.516,45.225c10.514,1.105,22.685-32.803,27.197-75.738
							c1.948-18.512,2.146-35.673,0.907-49.307h4.174c1.51,0,2.278-1.529,2.278-2.79v-37.105H421.038z M373.556,52.91l0.033-2.354
							c0.022,0.834,0.055,1.621,0.092,2.338C373.637,52.894,373.593,52.901,373.556,52.91z"/>
					</g>
					<g>
						<path fill="#6D6E71" d="M590.592,153.457c-0.072-15.489-12.102-28.052-27.439-28.65v-0.32h-25.5l-0.004-0.062l-4.824-0.437
							c0.322-1.495,0.486-3.038,0.486-4.612c0-0.936-0.385-1.513-0.496-2.401c-0.031,0.267-0.076,0.532-0.117,0.796V98.921
							c5.16-5.308,9.346-13.396,10.07-25.706c0.076,0.017,0.152,0.031,0.225,0.048c0,0.077,0,0.148,0,0.201
							c0,0,0.43-0.061,0.939-0.187c3.941-0.188,7.096-4.675,7.096-10.191c0-3.975-1.641-7.418-4.027-9.102
							c2.277-8.759,6.992-32.562-5.068-44.398c-2.25-2.401-4.596-4.401-4.596-4.401c-3.922-4.715-3.398-9.951-3.398-9.951
							c-5.504,1.573-9.174,6.279-9.174,6.279c0.521-9.692,5.506-12.311,5.506-12.311c-1.051-1.045-4.719-0.521-4.719-0.521
							c-14.41,0.788-18.6,13.884-18.6,13.884c-2.1-2.36,0.262-10.479,0.262-10.479c-16.426,3.787-27.975,17.326-28.775,18.279
							c-11.047,12.007-6.576,34.814-4.342,43.485c-2.488,1.646-4.215,5.152-4.215,9.235c0,5.485,3.115,9.942,7.025,10.191
							c0.156,0.031,0.295,0.069,0.42,0.095c0.807,13.004,5.504,21.271,11.098,26.531v18.007l-0.105-0.451l-0.082,0.356
							c-0.074-0.39-0.137-0.785-0.188-1.183c-0.055,0.451,0.035,0.911,0.148,1.371l-1.391,6.482h-27.514v0.28
							c-14.766,0.047-27.319,11.953-28.247,27.03c-0.117,0.234-0.182,0.507-0.182,0.828v37.938c0,1.261,1.01,2.79,2.516,2.79h3.097
							c-1.238,13.634-1.039,30.795,0.904,49.307c4.512,42.936,16.686,76.844,27.197,75.738c7.49-0.787,12.119-19.168,12.514-45.225
							h66.32c0.404,26.057,5.02,44.438,12.512,45.225c10.518,1.105,22.688-32.803,27.199-75.738
							c1.947-18.512,2.146-35.673,0.908-49.307h4.17c1.512,0,2.281-1.529,2.281-2.79v-37.105H590.592z M543.105,52.91l0.037-2.354
							c0.021,0.834,0.055,1.621,0.094,2.338C543.188,52.894,543.146,52.901,543.105,52.91z"/>
					</g>
					<g>
						<path fill="#6D6E71" d="M762.141,153.457c-0.07-15.489-12.102-28.052-27.439-28.65v-0.32h-25.498l-0.008-0.062l-4.822-0.437
							c0.32-1.495,0.488-3.038,0.488-4.612c0-0.936-0.387-1.513-0.498-2.401c-0.033,0.267-0.074,0.532-0.115,0.796V98.921
							c5.16-5.308,9.344-13.396,10.068-25.706c0.078,0.017,0.15,0.031,0.227,0.048c0,0.077,0,0.148,0,0.201
							c0,0,0.428-0.061,0.938-0.187c3.939-0.188,7.094-4.675,7.094-10.191c0-3.975-1.639-7.418-4.027-9.102
							c2.279-8.759,6.994-32.562-5.068-44.398c-2.248-2.401-4.592-4.401-4.592-4.401c-3.926-4.715-3.402-9.951-3.402-9.951
							c-5.502,1.573-9.17,6.279-9.17,6.279c0.521-9.692,5.506-12.311,5.506-12.311c-1.055-1.045-4.719-0.521-4.719-0.521
							C682.689-10.531,678.5,2.564,678.5,2.564c-2.102-2.36,0.262-10.479,0.262-10.479c-16.424,3.787-27.973,17.326-28.777,18.279
							c-11.043,12.007-6.576,34.814-4.34,43.485c-2.488,1.646-4.213,5.152-4.213,9.235c0,5.485,3.111,9.942,7.021,10.191
							c0.158,0.031,0.297,0.069,0.422,0.095c0.809,13.004,5.506,21.271,11.096,26.531v18.007l-0.105-0.451l-0.08,0.356
							c-0.074-0.39-0.137-0.785-0.188-1.183c-0.055,0.451,0.035,0.911,0.146,1.371l-1.391,6.482H630.84v0.28
							c-14.764,0.047-27.318,11.953-28.246,27.03c-0.115,0.234-0.182,0.507-0.182,0.828v37.938c0,1.261,1.01,2.79,2.518,2.79h3.098
							c-1.24,13.634-1.041,30.795,0.902,49.307c4.512,42.936,16.688,76.844,27.197,75.738c7.488-0.787,12.117-19.168,12.514-45.225
							h66.318c0.404,26.057,5.023,44.438,12.514,45.225c10.516,1.105,22.688-32.803,27.197-75.738
							c1.949-18.512,2.148-35.673,0.91-49.307h4.172c1.512,0,2.279-1.529,2.279-2.79v-37.105H762.141z M714.656,52.91l0.035-2.354
							c0.023,0.834,0.053,1.621,0.092,2.338C714.738,52.894,714.693,52.901,714.656,52.91z"/>
					</g>
					<g>
						<path fill="#6D6E71" d="M931.693,153.457c-0.07-15.489-12.102-28.052-27.439-28.65v-0.32h-25.5l-0.004-0.062l-4.82-0.437
							c0.318-1.495,0.484-3.038,0.484-4.612c0-0.936-0.385-1.513-0.498-2.401c-0.031,0.267-0.076,0.532-0.117,0.796V98.921
							c5.162-5.308,9.348-13.396,10.072-25.706c0.076,0.017,0.15,0.031,0.227,0.048c0,0.077,0,0.148,0,0.201
							c0,0,0.426-0.061,0.938-0.187c3.939-0.188,7.096-4.675,7.096-10.191c0-3.975-1.641-7.418-4.029-9.102
							c2.281-8.759,6.992-32.562-5.068-44.398c-2.25-2.401-4.594-4.401-4.594-4.401c-3.924-4.715-3.402-9.951-3.402-9.951
							c-5.5,1.573-9.172,6.279-9.172,6.279c0.523-9.692,5.506-12.311,5.506-12.311c-1.051-1.045-4.719-0.521-4.719-0.521
							c-14.41,0.788-18.598,13.884-18.598,13.884c-2.1-2.36,0.26-10.479,0.26-10.479c-16.426,3.787-27.971,17.326-28.773,18.279
							c-11.045,12.007-6.576,34.814-4.342,43.485c-2.488,1.646-4.217,5.152-4.217,9.235c0,5.485,3.113,9.942,7.027,10.191
							c0.152,0.031,0.295,0.069,0.418,0.095c0.807,13.004,5.508,21.271,11.098,26.531v18.007l-0.105-0.451l-0.082,0.356
							c-0.072-0.39-0.137-0.785-0.186-1.183c-0.055,0.451,0.033,0.911,0.146,1.371l-1.389,6.482h-27.516v0.28
							c-14.766,0.047-27.318,11.953-28.244,27.03c-0.117,0.234-0.186,0.507-0.186,0.828v37.938c0,1.261,1.008,2.79,2.518,2.79h3.098
							c-1.24,13.634-1.041,30.795,0.902,49.307c4.514,42.936,16.689,76.844,27.199,75.738c7.488-0.787,12.117-19.168,12.514-45.225
							h66.318c0.404,26.057,5.021,44.438,12.514,45.225c10.516,1.105,22.686-32.803,27.197-75.738
							c1.949-18.512,2.146-35.673,0.906-49.307h4.174c1.514,0,2.279-1.529,2.279-2.79v-37.105H931.693z M884.207,52.91l0.039-2.354
							c0.02,0.834,0.051,1.621,0.092,2.338C884.291,52.894,884.248,52.901,884.207,52.91z"/>
					</g>
				</g>
			</g>
			<g display="inline">
				<g>
					<path fill="#58595B" d="M162.581,235.709c-0.068-15.49-12.103-28.052-27.439-28.657v-0.312h-25.499l-0.009-0.062l-4.818-0.436
						c0.316-1.498,0.488-3.032,0.488-4.62c0-0.928-0.391-1.506-0.503-2.402c-0.029,0.274-0.071,0.538-0.117,0.804v-18.857
						c5.167-5.298,9.349-13.387,10.071-25.697c0.078,0.017,0.148,0.032,0.225,0.04c0,0.084,0,0.155,0,0.209
						c0,0,0.429-0.062,0.939-0.188c3.944-0.194,7.103-4.681,7.103-10.19c0-3.974-1.645-7.41-4.032-9.101
						c2.277-8.758,6.993-32.562-5.07-44.399c-2.247-2.4-4.586-4.402-4.586-4.402c-3.934-4.715-3.41-9.957-3.41-9.957
						c-5.5,1.571-9.169,6.287-9.169,6.287c0.528-9.692,5.502-12.311,5.502-12.311c-1.045-1.045-4.714-0.531-4.714-0.531
						c-14.416,0.787-18.603,13.894-18.603,13.894c-2.103-2.362,0.26-10.48,0.26-10.48c-16.424,3.788-27.97,17.322-28.768,18.279
						c-11.059,12.01-6.581,34.816-4.34,43.481c-2.494,1.644-4.222,5.158-4.222,9.24c0,5.484,3.116,9.95,7.021,10.19
						c0.157,0.031,0.296,0.063,0.43,0.095c0.8,13.012,5.494,21.272,11.088,26.533v18.007l-0.105-0.469l-0.079,0.375
						c-0.073-0.39-0.139-0.779-0.187-1.186c-0.057,0.452,0.035,0.904,0.145,1.372l-1.387,6.483H31.278v0.287
						c-14.763,0.031-27.312,11.946-28.242,27.015c-0.121,0.235-0.184,0.516-0.184,0.827v37.945c0,1.264,1.005,2.793,2.513,2.793
						h3.102c-1.241,13.635-1.041,30.791,0.905,49.307c4.507,42.926,16.686,76.844,27.195,75.738
						c7.493-0.797,12.117-19.178,12.516-45.234h66.319c0.404,26.057,5.022,44.438,12.516,45.234
						c10.509,1.105,22.684-32.812,27.195-75.738c1.947-18.516,2.146-35.672,0.902-49.307h4.174c1.511,0,2.283-1.529,2.283-2.793
						v-37.104H162.581z M115.097,135.161l0.035-2.36c0.023,0.834,0.055,1.627,0.094,2.346
						C115.183,135.146,115.136,135.146,115.097,135.161z"/>
				</g>
				<g>
					<path fill="#58595B" d="M330.14,235.709c-0.069-15.49-12.104-28.052-27.438-28.657v-0.312H277.2l-0.006-0.062l-4.819-0.436
						c0.314-1.498,0.486-3.032,0.486-4.62c0-0.928-0.39-1.506-0.501-2.402c-0.029,0.274-0.073,0.538-0.117,0.804v-18.857
						c5.165-5.298,9.35-13.387,10.07-25.697c0.077,0.017,0.148,0.032,0.226,0.04c0,0.084,0,0.155,0,0.209
						c0,0,0.43-0.062,0.938-0.188c3.943-0.194,7.104-4.681,7.104-10.19c0-3.974-1.644-7.41-4.033-9.101
						c2.276-8.758,6.995-32.562-5.066-44.399c-2.249-2.4-4.591-4.402-4.591-4.402c-3.933-4.715-3.409-9.957-3.409-9.957
						c-5.498,1.571-9.17,6.287-9.17,6.287c0.528-9.692,5.504-12.311,5.504-12.311c-1.045-1.045-4.716-0.531-4.716-0.531
						c-14.413,0.787-18.603,13.894-18.603,13.894c-2.1-2.362,0.262-10.48,0.262-10.48c-16.426,3.788-27.972,17.322-28.768,18.279
						c-11.058,12.01-6.58,34.816-4.34,43.481c-2.496,1.644-4.226,5.158-4.226,9.24c0,5.484,3.118,9.95,7.026,10.19
						c0.155,0.031,0.295,0.063,0.43,0.095c0.798,13.012,5.493,21.272,11.085,26.533v18.007l-0.103-0.469l-0.08,0.375
						c-0.073-0.39-0.14-0.779-0.186-1.186c-0.059,0.452,0.033,0.904,0.145,1.372l-1.389,6.483h-27.518v0.287
						c-14.762,0.031-27.311,11.946-28.24,27.015c-0.122,0.235-0.185,0.516-0.185,0.827v37.945c0,1.264,1.005,2.793,2.513,2.793h3.1
						c-1.239,13.635-1.038,30.791,0.905,49.307c4.507,42.926,16.688,76.844,27.195,75.738c7.495-0.797,12.12-19.178,12.518-45.234
						h66.317c0.406,26.057,5.022,44.438,12.518,45.234c10.508,1.105,22.685-32.812,27.195-75.738
						c1.948-18.516,2.145-35.672,0.902-49.307h4.172c1.513,0,2.283-1.529,2.283-2.793v-37.104H330.14z M282.656,135.161l0.034-2.36
						c0.024,0.834,0.056,1.627,0.094,2.346C282.742,135.146,282.696,135.146,282.656,135.161z"/>
				</g>
				<g>
					<path fill="#58595B" d="M505.678,235.709c-0.068-15.49-12.105-28.052-27.439-28.657v-0.312H452.74l-0.01-0.062l-4.818-0.436
						c0.316-1.498,0.488-3.032,0.488-4.62c0-0.928-0.393-1.506-0.504-2.402c-0.029,0.274-0.07,0.538-0.117,0.804v-18.857
						c5.168-5.298,9.35-13.387,10.072-25.697c0.076,0.017,0.146,0.032,0.225,0.04c0,0.084,0,0.155,0,0.209
						c0,0,0.43-0.062,0.939-0.188c3.941-0.194,7.104-4.681,7.104-10.19c0-3.974-1.646-7.41-4.033-9.101
						c2.275-8.758,6.994-32.562-5.07-44.399c-2.246-2.4-4.588-4.402-4.588-4.402c-3.932-4.715-3.408-9.957-3.408-9.957
						c-5.498,1.571-9.168,6.287-9.168,6.287c0.525-9.692,5.502-12.311,5.502-12.311c-1.043-1.045-4.715-0.531-4.715-0.531
						c-14.415,0.787-18.604,13.894-18.604,13.894c-2.101-2.362,0.262-10.48,0.262-10.48c-16.424,3.788-27.97,17.322-28.769,18.279
						c-11.058,12.01-6.58,34.816-4.341,43.481c-2.492,1.644-4.223,5.158-4.223,9.24c0,5.484,3.116,9.95,7.024,10.19
						c0.157,0.031,0.296,0.063,0.43,0.095c0.798,13.012,5.491,21.272,11.088,26.533v18.007l-0.105-0.469l-0.079,0.375
						c-0.073-0.39-0.141-0.779-0.187-1.186c-0.059,0.452,0.035,0.904,0.145,1.372l-1.389,6.483h-27.516v0.287
						c-14.763,0.031-27.311,11.946-28.242,27.015c-0.121,0.235-0.185,0.516-0.185,0.827v37.945c0,1.264,1.008,2.793,2.516,2.793h3.1
						c-1.242,13.635-1.041,30.791,0.902,49.307c4.51,42.926,16.688,76.844,27.195,75.738c7.496-0.797,12.12-19.178,12.519-45.234
						h66.315c0.406,26.057,5.023,44.438,12.52,45.234c10.508,1.105,22.682-32.812,27.193-75.738
						c1.949-18.516,2.148-35.672,0.906-49.307h4.17c1.514,0,2.283-1.529,2.283-2.793v-37.104H505.678z M458.193,135.161l0.035-2.36
						c0.023,0.834,0.055,1.627,0.092,2.346C458.279,135.146,458.232,135.146,458.193,135.161z"/>
				</g>
				<g>
					<path fill="#58595B" d="M673.236,235.709c-0.068-15.49-12.104-28.052-27.438-28.657v-0.312h-25.5l-0.008-0.062l-4.818-0.436
						c0.314-1.498,0.484-3.032,0.484-4.62c0-0.928-0.389-1.506-0.502-2.402c-0.027,0.274-0.068,0.538-0.117,0.804v-18.857
						c5.166-5.298,9.352-13.387,10.072-25.697c0.08,0.017,0.148,0.032,0.227,0.04c0,0.084,0,0.155,0,0.209
						c0,0,0.426-0.062,0.938-0.188c3.943-0.194,7.102-4.681,7.102-10.19c0-3.974-1.643-7.41-4.031-9.101
						c2.275-8.758,6.992-32.562-5.068-44.399c-2.25-2.4-4.59-4.402-4.59-4.402c-3.93-4.715-3.408-9.957-3.408-9.957
						c-5.498,1.571-9.168,6.287-9.168,6.287c0.523-9.692,5.5-12.311,5.5-12.311c-1.043-1.045-4.711-0.531-4.711-0.531
						c-14.416,0.787-18.605,13.894-18.605,13.894c-2.1-2.362,0.262-10.48,0.262-10.48c-16.426,3.788-27.969,17.322-28.77,18.279
						c-11.057,12.01-6.578,34.816-4.34,43.481c-2.494,1.644-4.221,5.158-4.221,9.24c0,5.484,3.113,9.95,7.021,10.19
						c0.156,0.031,0.297,0.063,0.43,0.095c0.799,13.012,5.492,21.272,11.088,26.533v18.007l-0.105-0.469l-0.078,0.375
						c-0.072-0.39-0.141-0.779-0.186-1.186c-0.059,0.452,0.033,0.904,0.143,1.372l-1.385,6.483h-27.52v0.287
						c-14.762,0.031-27.311,11.946-28.24,27.015c-0.123,0.235-0.184,0.516-0.184,0.827v37.945c0,1.264,1.004,2.793,2.512,2.793
						h3.102c-1.244,13.635-1.039,30.791,0.904,49.307c4.506,42.926,16.688,76.844,27.193,75.738
						c7.496-0.797,12.121-19.178,12.52-45.234h66.316c0.404,26.057,5.023,44.438,12.518,45.234
						c10.508,1.105,22.682-32.812,27.193-75.738c1.949-18.516,2.146-35.672,0.904-49.307h4.172c1.514,0,2.283-1.529,2.283-2.793
						v-37.104H673.236z M625.754,135.161l0.033-2.36c0.023,0.834,0.055,1.627,0.094,2.346
						C625.838,135.146,625.791,135.146,625.754,135.161z"/>
				</g>
				<g>
					<path fill="#58595B" d="M840.797,235.709c-0.072-15.49-12.105-28.052-27.441-28.657v-0.312h-25.498l-0.008-0.062l-4.82-0.436
						c0.316-1.498,0.486-3.032,0.486-4.62c0-0.928-0.387-1.506-0.5-2.402c-0.027,0.274-0.072,0.538-0.117,0.804v-18.857
						c5.166-5.298,9.35-13.387,10.072-25.697c0.076,0.017,0.146,0.032,0.225,0.04c0,0.084,0,0.155,0,0.209
						c0,0,0.428-0.062,0.939-0.188c3.941-0.194,7.102-4.681,7.102-10.19c0-3.974-1.645-7.41-4.031-9.101
						c2.273-8.758,6.992-32.562-5.068-44.399c-2.25-2.4-4.592-4.402-4.592-4.402c-3.93-4.715-3.408-9.957-3.408-9.957
						c-5.498,1.571-9.168,6.287-9.168,6.287c0.527-9.692,5.502-12.311,5.502-12.311c-1.045-1.045-4.715-0.531-4.715-0.531
						c-14.414,0.787-18.602,13.894-18.602,13.894c-2.1-2.362,0.26-10.48,0.26-10.48c-16.426,3.788-27.971,17.322-28.768,18.279
						c-11.059,12.01-6.58,34.816-4.34,43.481c-2.494,1.644-4.225,5.158-4.225,9.24c0,5.484,3.117,9.95,7.025,10.19
						c0.154,0.031,0.297,0.063,0.43,0.095c0.797,13.012,5.492,21.272,11.086,26.533v18.007l-0.104-0.469l-0.078,0.375
						c-0.076-0.39-0.141-0.779-0.188-1.186c-0.059,0.452,0.035,0.904,0.145,1.372l-1.387,6.483h-27.518v0.287
						c-14.762,0.031-27.312,11.946-28.242,27.015c-0.119,0.235-0.186,0.516-0.186,0.827v37.945c0,1.264,1.006,2.793,2.514,2.793
						h3.102c-1.244,13.635-1.039,30.791,0.904,49.307c4.508,42.926,16.686,76.844,27.193,75.738
						c7.496-0.797,12.123-19.178,12.518-45.234h66.32c0.402,26.057,5.02,44.438,12.518,45.234
						c10.506,1.105,22.682-32.812,27.193-75.738c1.947-18.516,2.146-35.672,0.902-49.307h4.174c1.512,0,2.283-1.529,2.283-2.793
						v-37.104H840.797z M793.312,135.161l0.035-2.36c0.023,0.834,0.053,1.627,0.094,2.346
						C793.396,135.146,793.352,135.146,793.312,135.161z"/>
				</g>
				<g>
					<path fill="#58595B" d="M1008.354,235.709c-0.068-15.49-12.104-28.052-27.438-28.657v-0.312h-25.5l-0.01-0.062l-4.818-0.436
						c0.316-1.498,0.488-3.032,0.488-4.62c0-0.928-0.391-1.506-0.502-2.402c-0.027,0.274-0.07,0.538-0.119,0.804v-18.857
						c5.168-5.298,9.352-13.387,10.072-25.697c0.078,0.017,0.148,0.032,0.227,0.04c0,0.084,0,0.155,0,0.209
						c0,0,0.43-0.062,0.938-0.188c3.945-0.194,7.105-4.681,7.105-10.19c0-3.974-1.646-7.41-4.035-9.101
						c2.277-8.758,6.996-32.562-5.068-44.399c-2.246-2.4-4.588-4.402-4.588-4.402c-3.932-4.715-3.41-9.957-3.41-9.957
						c-5.496,1.571-9.166,6.287-9.166,6.287c0.525-9.692,5.5-12.311,5.5-12.311c-1.043-1.045-4.715-0.531-4.715-0.531
						c-14.414,0.787-18.602,13.894-18.602,13.894c-2.102-2.362,0.26-10.48,0.26-10.48c-16.424,3.788-27.969,17.322-28.766,18.279
						c-11.059,12.01-6.584,34.816-4.342,43.481c-2.494,1.644-4.223,5.158-4.223,9.24c0,5.484,3.117,9.95,7.023,10.19
						c0.156,0.031,0.297,0.063,0.428,0.095c0.801,13.012,5.494,21.272,11.09,26.533v18.007l-0.107-0.469L906,200.069
						c-0.076-0.39-0.141-0.779-0.188-1.186c-0.059,0.452,0.035,0.904,0.145,1.372l-1.389,6.483h-27.518v0.287
						c-14.76,0.031-27.307,11.946-28.242,27.015c-0.119,0.235-0.182,0.516-0.182,0.827v37.945c0,1.264,1.006,2.793,2.514,2.793h3.1
						c-1.24,13.635-1.039,30.791,0.904,49.307c4.51,42.926,16.686,76.844,27.195,75.738c7.496-0.797,12.119-19.178,12.518-45.234
						h66.318c0.406,26.057,5.02,44.438,12.518,45.234c10.506,1.105,22.682-32.812,27.195-75.738
						c1.945-18.516,2.145-35.672,0.902-49.307h4.172c1.512,0,2.283-1.529,2.283-2.793v-37.104H1008.354z M960.871,135.161
						l0.033-2.36c0.025,0.834,0.057,1.627,0.094,2.346C960.955,135.146,960.91,135.146,960.871,135.161z"/>
				</g>
			</g>
			<g display="inline">
				<g>
					<path fill="#414042" d="M83.924,317.026c-0.069-15.49-12.101-28.053-27.439-28.65v-0.318H30.987l-0.004-0.062l-4.823-0.438
						c0.32-1.496,0.485-3.037,0.485-4.613c0-0.934-0.385-1.512-0.498-2.4c-0.031,0.268-0.073,0.531-0.115,0.797v-18.85
						c5.16-5.307,9.345-13.395,10.069-25.705c0.078,0.016,0.151,0.031,0.227,0.045c0,0.078,0,0.148,0,0.203
						c0,0,0.427-0.062,0.938-0.188c3.939-0.188,7.096-4.674,7.096-10.192c0-3.973-1.643-7.418-4.029-9.1
						c2.278-8.761,6.994-32.562-5.068-44.4c-2.25-2.399-4.594-4.402-4.594-4.402c-3.922-4.714-3.4-9.95-3.4-9.95
						c-5.502,1.575-9.172,6.282-9.172,6.282c0.521-9.693,5.504-12.312,5.504-12.312c-1.051-1.045-4.716-0.522-4.716-0.522
						c-14.413,0.786-18.603,13.885-18.603,13.885c-2.099-2.36,0.264-10.48,0.264-10.48c-16.428,3.786-27.976,17.328-28.775,18.281
						c-11.046,12.005-6.576,34.814-4.342,43.485c-2.49,1.646-4.216,5.152-4.216,9.233c0,5.487,3.114,9.944,7.024,10.192
						c0.156,0.033,0.297,0.072,0.423,0.094c0.804,13.006,5.504,21.271,11.096,26.533v18.008l-0.104-0.453l-0.084,0.357
						c-0.073-0.389-0.136-0.787-0.187-1.186c-0.054,0.453,0.036,0.914,0.149,1.375l-1.391,6.482h-27.516v0.279
						c-14.766,0.047-27.319,11.954-28.245,27.031c-0.117,0.234-0.184,0.507-0.184,0.826v37.938c0,1.262,1.009,2.791,2.517,2.791
						h3.098c-1.239,13.635-1.041,30.791,0.903,49.307c4.511,42.937,16.688,76.844,27.199,75.738
						c7.487-0.785,12.115-19.17,12.514-45.223h66.317c0.404,26.053,5.021,44.438,12.514,45.223
						c10.516,1.105,22.686-32.802,27.197-75.738c1.947-18.516,2.148-35.672,0.908-49.307h4.172c1.513,0,2.279-1.529,2.279-2.791
						v-37.105H83.924z M36.441,216.479l0.033-2.354c0.025,0.835,0.055,1.62,0.095,2.339
						C36.521,216.464,36.479,216.472,36.441,216.479z"/>
				</g>
				<g>
					<path fill="#414042" d="M253.479,317.026c-0.07-15.49-12.101-28.053-27.439-28.65v-0.318h-25.499l-0.004-0.062l-4.823-0.438
						c0.318-1.496,0.486-3.037,0.486-4.613c0-0.934-0.386-1.512-0.497-2.4c-0.033,0.268-0.075,0.531-0.117,0.797v-18.85
						c5.161-5.307,9.345-13.395,10.069-25.705c0.08,0.016,0.151,0.031,0.227,0.045c0,0.078,0,0.148,0,0.203
						c0,0,0.428-0.062,0.938-0.188c3.939-0.188,7.096-4.674,7.096-10.192c0-3.973-1.642-7.418-4.03-9.1
						c2.281-8.761,6.996-32.562-5.067-44.4c-2.25-2.399-4.593-4.402-4.593-4.402c-3.923-4.714-3.404-9.95-3.404-9.95
						c-5.499,1.575-9.168,6.282-9.168,6.282c0.521-9.693,5.504-12.312,5.504-12.312c-1.052-1.045-4.717-0.522-4.717-0.522
						c-14.414,0.786-18.6,13.885-18.6,13.885c-2.102-2.36,0.262-10.48,0.262-10.48c-16.429,3.786-27.975,17.328-28.776,18.281
						c-11.046,12.005-6.576,34.814-4.34,43.485c-2.49,1.646-4.218,5.152-4.218,9.233c0,5.487,3.112,9.944,7.024,10.192
						c0.157,0.033,0.298,0.072,0.423,0.094c0.805,13.006,5.504,21.271,11.094,26.533v18.008l-0.104-0.453l-0.082,0.357
						c-0.073-0.389-0.136-0.787-0.187-1.186c-0.055,0.453,0.036,0.914,0.148,1.375l-1.391,6.482H122.18v0.279
						c-14.766,0.047-27.319,11.954-28.245,27.031c-0.117,0.234-0.184,0.507-0.184,0.826v37.938c0,1.262,1.01,2.791,2.518,2.791
						h3.098c-1.24,13.635-1.041,30.791,0.902,49.307c4.511,42.937,16.688,76.844,27.197,75.738
						c7.489-0.785,12.117-19.17,12.516-45.223h66.317c0.404,26.053,5.022,44.438,12.514,45.223
						c10.516,1.105,22.686-32.802,27.197-75.738c1.95-18.516,2.148-35.672,0.909-49.307h4.172c1.512,0,2.28-1.529,2.28-2.791
						v-37.105H253.479z M205.995,216.479l0.033-2.354c0.025,0.835,0.055,1.62,0.095,2.339
						C206.075,216.464,206.032,216.472,205.995,216.479z"/>
				</g>
				<g>
					<path fill="#414042" d="M421.038,317.026c-0.069-15.49-12.102-28.053-27.44-28.65v-0.318H368.1l-0.005-0.062l-4.823-0.438
						c0.321-1.496,0.488-3.037,0.488-4.613c0-0.934-0.388-1.512-0.498-2.4c-0.032,0.268-0.075,0.531-0.118,0.797v-18.85
						c5.163-5.307,9.348-13.395,10.07-25.705c0.079,0.016,0.152,0.031,0.227,0.045c0,0.078,0,0.148,0,0.203
						c0,0,0.429-0.062,0.939-0.188c3.938-0.188,7.094-4.674,7.094-10.192c0-3.973-1.64-7.418-4.027-9.1
						c2.279-8.761,6.993-32.562-5.07-44.4c-2.247-2.399-4.593-4.402-4.593-4.402c-3.923-4.714-3.401-9.95-3.401-9.95
						c-5.5,1.575-9.171,6.282-9.171,6.282c0.523-9.693,5.506-12.312,5.506-12.312c-1.054-1.045-4.719-0.522-4.719-0.522
						c-14.411,0.786-18.598,13.885-18.598,13.885c-2.101-2.36,0.26-10.48,0.26-10.48c-16.426,3.786-27.974,17.328-28.776,18.281
						c-11.045,12.005-6.576,34.814-4.34,43.485c-2.49,1.646-4.216,5.152-4.216,9.233c0,5.487,3.112,9.944,7.024,10.192
						c0.155,0.033,0.298,0.072,0.422,0.094c0.806,13.006,5.504,21.271,11.096,26.533v18.008l-0.105-0.453l-0.084,0.357
						c-0.072-0.389-0.134-0.787-0.184-1.186c-0.057,0.453,0.033,0.914,0.146,1.375l-1.391,6.482h-27.514v0.279
						c-14.768,0.047-27.318,11.954-28.246,27.031c-0.117,0.234-0.185,0.507-0.185,0.826v37.938c0,1.262,1.01,2.791,2.518,2.791
						h3.098c-1.24,13.635-1.039,30.791,0.902,49.307c4.514,42.937,16.688,76.844,27.199,75.738
						c7.487-0.785,12.116-19.17,12.516-45.223h66.315c0.406,26.053,5.022,44.438,12.516,45.223
						c10.514,1.105,22.685-32.802,27.197-75.738c1.948-18.516,2.146-35.672,0.907-49.307h4.174c1.51,0,2.278-1.529,2.278-2.791
						v-37.105H421.038z M373.556,216.479l0.033-2.354c0.022,0.835,0.055,1.62,0.092,2.339
						C373.637,216.464,373.593,216.472,373.556,216.479z"/>
				</g>
				<g>
					<path fill="#414042" d="M590.592,317.026c-0.072-15.49-12.102-28.053-27.439-28.65v-0.318h-25.5l-0.004-0.062l-4.824-0.438
						c0.322-1.496,0.486-3.037,0.486-4.613c0-0.934-0.385-1.512-0.496-2.4c-0.031,0.268-0.076,0.531-0.117,0.797v-18.85
						c5.16-5.307,9.346-13.395,10.07-25.705c0.076,0.016,0.152,0.031,0.225,0.045c0,0.078,0,0.148,0,0.203
						c0,0,0.43-0.062,0.939-0.188c3.941-0.188,7.096-4.674,7.096-10.192c0-3.973-1.641-7.418-4.027-9.1
						c2.277-8.761,6.992-32.562-5.068-44.4c-2.25-2.399-4.596-4.402-4.596-4.402c-3.922-4.714-3.398-9.95-3.398-9.95
						c-5.504,1.575-9.174,6.282-9.174,6.282c0.521-9.693,5.506-12.312,5.506-12.312c-1.051-1.045-4.719-0.522-4.719-0.522
						c-14.41,0.786-18.6,13.885-18.6,13.885c-2.1-2.36,0.262-10.48,0.262-10.48c-16.426,3.786-27.975,17.328-28.775,18.281
						c-11.047,12.005-6.576,34.814-4.342,43.485c-2.488,1.646-4.215,5.152-4.215,9.233c0,5.487,3.115,9.944,7.025,10.192
						c0.156,0.033,0.295,0.072,0.42,0.094c0.807,13.006,5.504,21.271,11.098,26.533v18.008l-0.105-0.453l-0.082,0.357
						c-0.074-0.389-0.137-0.787-0.188-1.186c-0.055,0.453,0.035,0.914,0.148,1.375l-1.391,6.482h-27.514v0.279
						c-14.766,0.047-27.319,11.954-28.247,27.031c-0.117,0.234-0.182,0.507-0.182,0.826v37.938c0,1.262,1.01,2.791,2.516,2.791
						h3.097c-1.238,13.635-1.039,30.791,0.904,49.307c4.512,42.937,16.686,76.844,27.197,75.738
						c7.49-0.785,12.119-19.17,12.514-45.223h66.32c0.404,26.053,5.02,44.438,12.512,45.223
						c10.518,1.105,22.688-32.802,27.199-75.738c1.947-18.516,2.146-35.672,0.908-49.307h4.17c1.512,0,2.281-1.529,2.281-2.791
						v-37.105H590.592z M543.105,216.479l0.037-2.354c0.021,0.835,0.055,1.62,0.094,2.339
						C543.188,216.464,543.146,216.472,543.105,216.479z"/>
				</g>
				<g>
					<path fill="#414042" d="M762.141,317.026c-0.07-15.49-12.102-28.053-27.439-28.65v-0.318h-25.498l-0.008-0.062l-4.822-0.438
						c0.32-1.496,0.488-3.037,0.488-4.613c0-0.934-0.387-1.512-0.498-2.4c-0.033,0.268-0.074,0.531-0.115,0.797v-18.85
						c5.16-5.307,9.344-13.395,10.068-25.705c0.078,0.016,0.15,0.031,0.227,0.045c0,0.078,0,0.148,0,0.203
						c0,0,0.428-0.062,0.938-0.188c3.939-0.188,7.094-4.674,7.094-10.192c0-3.973-1.639-7.418-4.027-9.1
						c2.279-8.761,6.994-32.562-5.068-44.4c-2.248-2.399-4.592-4.402-4.592-4.402c-3.926-4.714-3.402-9.95-3.402-9.95
						c-5.502,1.575-9.17,6.282-9.17,6.282c0.521-9.693,5.506-12.312,5.506-12.312c-1.055-1.045-4.719-0.522-4.719-0.522
						c-14.412,0.786-18.602,13.885-18.602,13.885c-2.102-2.36,0.262-10.48,0.262-10.48c-16.424,3.786-27.973,17.328-28.777,18.281
						c-11.043,12.005-6.576,34.814-4.34,43.485c-2.488,1.646-4.213,5.152-4.213,9.233c0,5.487,3.111,9.944,7.021,10.192
						c0.158,0.033,0.297,0.072,0.422,0.094c0.809,13.006,5.506,21.271,11.096,26.533v18.008l-0.105-0.453l-0.08,0.357
						c-0.074-0.389-0.137-0.787-0.188-1.186c-0.055,0.453,0.035,0.914,0.146,1.375l-1.391,6.482H630.84v0.279
						c-14.764,0.047-27.318,11.954-28.246,27.031c-0.115,0.234-0.182,0.507-0.182,0.826v37.938c0,1.262,1.01,2.791,2.518,2.791
						h3.098c-1.24,13.635-1.041,30.791,0.902,49.307c4.512,42.937,16.688,76.844,27.197,75.738
						c7.488-0.785,12.117-19.17,12.514-45.223h66.318c0.404,26.053,5.023,44.438,12.514,45.223
						c10.516,1.105,22.688-32.802,27.197-75.738c1.949-18.516,2.148-35.672,0.91-49.307h4.172c1.512,0,2.279-1.529,2.279-2.791
						v-37.105H762.141z M714.656,216.479l0.035-2.354c0.023,0.835,0.053,1.62,0.092,2.339
						C714.738,216.464,714.693,216.472,714.656,216.479z"/>
				</g>
				<g>
					<path fill="#414042" d="M931.693,317.026c-0.07-15.49-12.102-28.053-27.439-28.65v-0.318h-25.5l-0.004-0.062l-4.82-0.438
						c0.318-1.496,0.484-3.037,0.484-4.613c0-0.934-0.385-1.512-0.498-2.4c-0.031,0.268-0.076,0.531-0.117,0.797v-18.85
						c5.162-5.307,9.348-13.395,10.072-25.705c0.076,0.016,0.15,0.031,0.227,0.045c0,0.078,0,0.148,0,0.203
						c0,0,0.426-0.062,0.938-0.188c3.939-0.188,7.096-4.674,7.096-10.192c0-3.973-1.641-7.418-4.029-9.1
						c2.281-8.761,6.992-32.562-5.068-44.4c-2.25-2.399-4.594-4.402-4.594-4.402c-3.924-4.714-3.402-9.95-3.402-9.95
						c-5.5,1.575-9.172,6.282-9.172,6.282c0.523-9.693,5.506-12.312,5.506-12.312c-1.051-1.045-4.719-0.522-4.719-0.522
						c-14.41,0.786-18.598,13.885-18.598,13.885c-2.1-2.36,0.26-10.48,0.26-10.48c-16.426,3.786-27.971,17.328-28.773,18.281
						c-11.045,12.005-6.576,34.814-4.342,43.485c-2.488,1.646-4.217,5.152-4.217,9.233c0,5.487,3.113,9.944,7.027,10.192
						c0.152,0.033,0.295,0.072,0.418,0.094c0.807,13.006,5.508,21.271,11.098,26.533v18.008l-0.105-0.453l-0.082,0.357
						c-0.072-0.389-0.137-0.787-0.186-1.186c-0.055,0.453,0.033,0.914,0.146,1.375l-1.389,6.482h-27.516v0.279
						c-14.766,0.047-27.318,11.954-28.244,27.031c-0.117,0.234-0.186,0.507-0.186,0.826v37.938c0,1.262,1.008,2.791,2.518,2.791
						h3.098c-1.24,13.635-1.041,30.791,0.902,49.307c4.514,42.937,16.689,76.844,27.199,75.738
						c7.488-0.785,12.117-19.17,12.514-45.223h66.318c0.404,26.053,5.021,44.438,12.514,45.223
						c10.516,1.105,22.686-32.802,27.197-75.738c1.949-18.516,2.146-35.672,0.906-49.307h4.174c1.514,0,2.279-1.529,2.279-2.791
						v-37.105H931.693z M884.207,216.479l0.039-2.354c0.02,0.835,0.051,1.62,0.092,2.339
						C884.291,216.464,884.248,216.472,884.207,216.479z"/>
				</g>
			</g>
		</g>
		<rect x="-433.774" y="337.37" display="none" fill="#485E5A" width="3252.246" height="260.598"/>
	</g>
	<g clip-path="url(#SVGID_2_)">
		<path fill="#776537" d="M370.099,156.584c0,0-6.069,2.213-6.005,12.462c0.021,3.433,1.845,12.464-4.619,12.937
			c0,0,7.848,0.919,10.156-4.16c0,0-0.458,9.239-4.156,11.541c0,0,21.703,9.234,25.4-11.541l-1.848-30.479
			C389.027,147.344,375.632,141.803,370.099,156.584z"/>
		<path fill="#776537" d="M362.43,128.835c0,0-6.416,0.753-10.968-8.429c-1.528-3.072-3.962-11.96-9.948-9.474
			c0,0,6.598-4.353,10.942-0.854c0,0-4.566-8.046-8.904-8.438c0,0,15.229-18.013,27.878-1.121l12.061,28.05
			C383.491,128.57,374.021,139.546,362.43,128.835z"/>
		<path fill="#776537" d="M354.562,93.32c0,0-6.255-1.617-7.178-11.824c-0.312-3.419,0.631-12.586-5.848-12.432
			c0,0,7.725-1.671,10.511,3.162c0,0-1.349-9.152-5.251-11.087c0,0,20.712-11.286,26.397,9.038l1.099,30.514
			C374.292,100.691,361.493,107.5,354.562,93.32z"/>
		<path fill="#776537" d="M371.884,70.987c0,0-5.287-1.368-6.069-9.996c-0.263-2.892,0.535-10.64-4.942-10.511
			c0,0,6.528-1.412,8.885,2.675c0,0-1.14-7.738-4.439-9.373c0,0,17.511-9.542,22.316,7.641l0.93,25.796
			C388.564,77.219,377.744,82.974,371.884,70.987z"/>
		<path fill="#776537" d="M384.651,54.652c0,0-3.308-3.699,0.45-10.616c1.258-2.318,5.767-7.772,1.561-10.437
			c0,0,5.647,2.225,5.369,6.501c0,0,3.037-6.425,1.368-9.323c0,0,18.047,1.609,13.019,17.022l-12.295,19.97
			C394.123,67.77,383.042,66.666,384.651,54.652z"/>
		<path fill="#776537" d="M510.452,128.835c0,0,6.416,0.753,10.969-8.429c1.527-3.072,3.962-11.96,9.947-9.474
			c0,0-6.598-4.353-10.942-0.854c0,0,4.566-8.046,8.904-8.438c0,0-15.229-18.013-27.878-1.121l-12.061,28.05
			C489.392,128.57,498.861,139.546,510.452,128.835z"/>
		<path fill="#776537" d="M518.32,93.32c0,0,6.256-1.617,7.179-11.824c0.312-3.419-0.632-12.586,5.848-12.432
			c0,0-7.726-1.671-10.511,3.162c0,0,1.349-9.152,5.251-11.087c0,0-20.713-11.286-26.396,9.038l-1.101,30.514
			C498.59,100.691,511.389,107.5,518.32,93.32z"/>
		<path fill="#776537" d="M500.999,70.987c0,0,5.286-1.368,6.068-9.996c0.264-2.892-0.535-10.64,4.942-10.511
			c0,0-6.528-1.412-8.885,2.675c0,0,1.14-7.738,4.438-9.373c0,0-17.511-9.542-22.315,7.641l-0.93,25.796
			C484.318,77.219,495.139,82.974,500.999,70.987z"/>
		<path fill="#776537" d="M488.231,54.652c0,0,3.307-3.699-0.451-10.616c-1.256-2.318-5.766-7.772-1.56-10.437
			c0,0-5.647,2.225-5.37,6.501c0,0-3.036-6.425-1.367-9.323c0,0-18.047,1.609-13.02,17.022l12.296,19.97
			C478.76,67.77,489.841,66.666,488.231,54.652z"/>
		<path fill="#776537" d="M500.751,156.584c0,0,6.063,2.213,5.999,12.462c-0.018,3.433-1.843,12.464,4.625,12.937
			c0,0-7.854,0.919-10.16-4.16c0,0,0.458,9.239,4.155,11.541c0,0-21.703,9.234-25.4-11.541l1.854-30.479
			C481.823,147.344,495.214,141.803,500.751,156.584z"/>
		<g>
			<polygon fill="#B7B7B7" points="362.551,207.604 377.332,205.762 379.634,222.386 			"/>
			<polygon fill="#B7B7B7" points="508.246,207.604 493.469,205.762 491.157,222.386 			"/>
			<path fill="#F4B07D" d="M522.946,307.636h-174.25c0,0,28.527-105.34,28.527-155.825c0-29.168,116.684-29.168,116.684,0
				C493.907,224.772,522.946,307.636,522.946,307.636z"/>
			<g>
				<path fill="#776537" d="M436.776,52.451c0,0-22.66-31.746-64.662,0.487c-16.98,13.025-24.473,67.151,4.093,95.727l62.027-69.358
					L436.776,52.451z"/>
				<path fill="#776537" d="M436.999,52.451c0,0,22.654-31.746,64.653,0.487c16.971,13.025,24.469,67.151-4.103,95.727
					l-62.016-69.358L436.999,52.451z"/>
				<path fill="#F4B07D" d="M490.452,88.535c0,0-19.619-25.09-56.926-24.552c-37.168-0.538-52.777,24.552-52.777,24.552
					c-13.046,21.344-9.146,87.286-9.146,87.286c0,32.628,45.254,58.63,64.265,58.63c19.008,0,64.419-24.307,64.419-58.63
					C500.287,175.821,503.492,109.879,490.452,88.535z"/>
				<g>
					<path opacity="0.1" fill="#232222" d="M465.071,198.352c0,0-4.764,17.537-30.302,17.537c-25.224,0-30.302-17.537-30.302-17.537
						s9.229,12.918,31.381,12.918C435.849,211.27,450.605,212.818,465.071,198.352z"/>
				</g>
				<path fill="#F4B07D" d="M376.928,136.447c0,0-12.209-20.016-16.606-1.458c-1.36,5.713-1.469,36.626,16.112,17.098"/>
				
					<path fill="none" stroke="#C18963" stroke-width="1.9536" stroke-linecap="round" stroke-linejoin="round" stroke-miterlimit="10" d="
					M369.112,136.939c0,0-6.35,4.883,0,12.209"/>
				<path fill="#F4B07D" d="M492.867,136.447c0,0,12.217-20.016,16.605-1.458c1.361,5.713,1.464,36.626-16.112,17.098"/>
				
					<path fill="none" stroke="#C18963" stroke-width="1.9536" stroke-linecap="round" stroke-linejoin="round" stroke-miterlimit="10" d="
					M500.691,136.939c0,0,6.341,4.883,0,12.209"/>
				<path fill="#776537" d="M369.67,67.098c0,0-7.169,42.825-6.192,43.15c0.977,0.325,34.521-17.423,34.521-17.423l38.916-13.519
					l57.782,17.748l11.728-4.882l-6.192-30.605L443.9,55.709l-44.275,4.881L369.67,67.098z"/>
				<path opacity="0.3" fill="#231F20" d="M436.574,79.307c0,0,23.447,54.375,75.546,26.543c0,0-14.983-8.104-17.423-18.354"/>
				<path opacity="0.3" fill="#231F20" d="M436.245,78.896c0,0-14.098,41.069-65.441,27.324c0,0,11.767-5.66,16.116-15.373"/>
				<path fill="#776537" d="M436.915,79.307c0,0,21.973,47.054,71.459,25.893c0,0-11.237-8.307-13.677-18.562"/>
				<path fill="#776537" d="M436.245,78.896c0,0-17.953,33.274-60.284,26.165c0,0,9.249-7.771,10.802-16.752"/>
				<g>
					<g opacity="0.2">
						<path fill="#231F20" d="M451.953,144.449c0.19,0.184,0.393,0.407,0.564,0.603c0.173,0.208,0.351,0.412,0.51,0.634
							c0.325,0.437,0.627,0.896,0.875,1.4c0.132,0.248,0.254,0.501,0.347,0.778c0.107,0.266,0.202,0.54,0.257,0.838
							c0.073,0.289,0.132,0.584,0.132,0.9c0.023,0.311,0.032,0.621-0.037,0.941c-0.047,0.318-0.094,0.637-0.238,0.93
							c-0.13,0.293-0.224,0.619-0.428,0.857c-0.187,0.25-0.365,0.521-0.573,0.744l-0.674,0.596
							c-0.222,0.217-0.474,0.334-0.716,0.488l-0.736,0.438l-1.52,0.635l-0.042,0.019l-0.141,0.024
							c-0.604,0.112-1.293,0.295-1.917,0.506c-0.634,0.215-1.247,0.473-1.815,0.777c-0.565,0.303-1.106,0.64-1.533,1.047
							c-0.445,0.412-0.706,0.793-1.121,1.473c-0.424,0.629-0.903,1.382-1.646,1.919c-0.337,0.312-0.729,0.501-1.116,0.706
							c-0.387,0.234-0.782,0.331-1.178,0.461l-0.595,0.186c-0.196,0.049-0.389,0.07-0.584,0.105l-1.169,0.188
							c-0.785,0.043-1.47,0.091-2.335,0.105c-0.731-0.047-1.413-0.044-2.186-0.133c-0.801-0.127-1.606-0.21-2.386-0.496
							l-0.587-0.185c-0.194-0.081-0.386-0.187-0.579-0.28l-0.573-0.295c-0.185-0.113-0.356-0.26-0.533-0.39
							c-0.73-0.513-1.25-1.235-1.698-1.876l-0.297-0.465l-0.074-0.115l-0.037-0.059c-0.011-0.015,0.074,0.107,0.036,0.053
							l-0.005-0.007l-0.01-0.015l-0.02-0.026l-0.16-0.218c-0.242-0.348-0.354-0.411-0.569-0.635
							c-0.427-0.407-0.969-0.742-1.533-1.049c-0.568-0.305-1.181-0.562-1.814-0.777c-0.624-0.211-1.312-0.395-1.917-0.507
							l-0.141-0.026l-0.042-0.018l-1.519-0.633l-0.737-0.438c-0.242-0.154-0.495-0.271-0.716-0.488l-0.674-0.596
							c-0.208-0.222-0.387-0.493-0.574-0.741c-0.204-0.239-0.298-0.565-0.429-0.858c-0.144-0.293-0.192-0.611-0.239-0.93
							c-0.07-0.319-0.062-0.631-0.039-0.941c0-0.316,0.058-0.61,0.131-0.899c0.054-0.298,0.149-0.573,0.256-0.839
							c0.093-0.277,0.215-0.531,0.346-0.779c0.249-0.506,0.55-0.965,0.875-1.4c0.335-0.439,0.661-0.835,1.082-1.246
							c0.316-0.309,0.823-0.302,1.132,0.014c0.296,0.304,0.303,0.781,0.024,1.093l-0.023,0.026
							c-0.281,0.312-0.577,0.713-0.826,1.093c-0.247,0.39-0.489,0.785-0.661,1.194c-0.096,0.203-0.182,0.406-0.237,0.613
							c-0.072,0.205-0.132,0.408-0.154,0.61c-0.042,0.202-0.074,0.403-0.056,0.593c-0.007,0.194-0.008,0.387,0.051,0.56
							c0.037,0.179,0.06,0.36,0.163,0.516c0.091,0.157,0.121,0.338,0.27,0.474c0.126,0.143,0.221,0.301,0.359,0.44l0.474,0.386
							c0.138,0.145,0.355,0.23,0.54,0.341l0.57,0.32l1.285,0.491l-0.182-0.044c0.816,0.126,1.528,0.3,2.277,0.524
							c0.738,0.227,1.467,0.506,2.18,0.86c0.71,0.358,1.408,0.789,2.038,1.364c0.302,0.273,0.716,0.713,0.88,0.962l0.162,0.216
							l0.117,0.168l0.072,0.111l0.29,0.443c0.382,0.524,0.724,1,1.191,1.305c0.115,0.08,0.215,0.176,0.338,0.248l0.393,0.188
							c0.132,0.062,0.255,0.135,0.393,0.192l0.447,0.129c0.581,0.217,1.22,0.264,1.839,0.369c0.657,0.075,1.422,0.07,2.128,0.108
							l1.983-0.077c0.626-0.126,1.331-0.137,1.884-0.361c0.289-0.093,0.603-0.158,0.832-0.312c0.25-0.132,0.519-0.241,0.709-0.435
							c0.448-0.296,0.769-0.79,1.152-1.341c0.332-0.55,0.891-1.372,1.526-1.92c0.63-0.576,1.328-1.005,2.038-1.364
							c0.713-0.354,1.443-0.633,2.181-0.857c0.749-0.224,1.462-0.398,2.278-0.523l-0.183,0.043l1.284-0.49l0.57-0.32
							c0.185-0.109,0.401-0.197,0.539-0.341l0.474-0.386c0.137-0.14,0.232-0.298,0.358-0.441c0.147-0.135,0.177-0.315,0.269-0.473
							c0.103-0.154,0.125-0.337,0.161-0.516c0.06-0.174,0.058-0.365,0.052-0.559c0.018-0.19-0.015-0.391-0.057-0.593
							c-0.021-0.202-0.082-0.406-0.154-0.61c-0.055-0.207-0.142-0.41-0.237-0.613c-0.172-0.409-0.414-0.805-0.661-1.194
							c-0.121-0.196-0.264-0.382-0.399-0.571c-0.149-0.191-0.272-0.354-0.434-0.53c-0.297-0.328-0.272-0.835,0.056-1.132
							C451.174,144.149,451.652,144.161,451.953,144.449z"/>
					</g>
					<path fill="#593B2E" d="M387.766,119.514c0,0,15.408-7.215,30.425,2.681c0,0,5.656-1.188,2.161-4.304
						C420.352,117.891,401.916,107.917,387.766,119.514z"/>
					
						<path fill="#C18963" stroke="#C18963" stroke-width="2.4723" stroke-linecap="round" stroke-linejoin="round" stroke-miterlimit="10" d="
						M419.07,169.393c6.98-2.502,31.666-7.333,34.429,0.335c1.844,5.117-7.623,45.092-20.763,36.332
						C428.223,203.051,412.203,171.857,419.07,169.393z"/>
					<path fill="#2E230E" d="M414.077,122.943c0,0,5.29,11.715-3.998,15.82C410.079,138.764,423.033,135.6,414.077,122.943z"/>
					<path fill="#2E230E" d="M393.987,132.006c0,0,15.86-3.387,22.283,0.488C416.271,132.494,420.989,123.713,393.987,132.006z"/>
					<path fill="#593B2E" d="M481.093,121.928c0,0-14.237-9.313-30.498-1.632c0,0-5.428-1.973-1.536-4.564
						C449.059,115.731,468.715,108.454,481.093,121.928z"/>
					<path fill="#2E230E" d="M455.033,122.943c0,0-5.297,11.715,3.992,15.82C459.025,138.764,446.074,135.6,455.033,122.943z"/>
					<path fill="#2E230E" d="M475.114,132.006c0,0-15.852-3.387-22.287,0.488C452.827,132.494,448.121,123.713,475.114,132.006z"/>
				</g>
			</g>
		</g>
		
			<path fill="none" stroke="#F4B07D" stroke-width="35.686" stroke-linecap="round" stroke-linejoin="round" stroke-miterlimit="10" d="
			M373.215,257.101c0,0-68.216-49.489-74.113-102.534c-6.083-54.818-3.041-68.017-3.041-97.053"/>
		<path fill="none" stroke="#282828" stroke-width="36.5445" stroke-linejoin="round" stroke-miterlimit="10" d="M373.215,257.101
			c0,0-68.216-49.489-74.113-102.534c-6.083-54.818-3.041-68.017-3.041-97.053"/>
		
			<path fill="none" stroke="#F4B07D" stroke-width="35.686" stroke-linecap="round" stroke-linejoin="round" stroke-miterlimit="10" d="
			M499.337,256.214c0,0,68.213-49.494,74.111-102.535c6.083-54.813,3.047-68.008,3.047-97.046"/>
		<path fill="none" stroke="#282828" stroke-width="36.5445" stroke-linejoin="round" stroke-miterlimit="10" d="M499.337,256.214
			c0,0,68.213-49.494,74.111-102.535c6.083-54.813,3.047-68.008,3.047-97.046"/>
		
			<line fill="none" stroke="#2D2D2D" stroke-width="40.6377" stroke-linecap="round" stroke-linejoin="round" stroke-miterlimit="10" x1="395.844" y1="433.445" x2="395.844" y2="632.491"/>
		
			<line fill="none" stroke="#2D2D2D" stroke-width="40.6377" stroke-linecap="round" stroke-linejoin="round" stroke-miterlimit="10" x1="471.523" y1="433.445" x2="471.523" y2="632.491"/>
		<path fill="#F4B07D" d="M368.557,231.719c-10.39,44.345-30.46,40.774-30.46,115.733c0,92.266,0,75.685,0,78.026
			c0,0.169,10.151,0.247,10.151,0.247h87.621V231.719H368.557z"/>
		<path fill="#F4B07D" d="M499.819,231.719c10.388,44.345,30.454,40.774,30.454,115.733c0,92.266,0,75.685,0,78.026
			c0,0.169-10.151,0.247-10.151,0.247h-87.614V231.719H499.819z"/>
		<path fill="#2D2D2D" d="M434.178,506.325c53.508,0,96.89-33.234,96.89-86.748H337.284
			C337.284,473.091,380.659,506.325,434.178,506.325z"/>
		<rect x="338.058" y="419.711" fill="#161516" width="192.63" height="14.483"/>
		<rect x="421.498" y="419.711" fill="#D6D6D6" width="27.51" height="14.483"/>
		<rect x="367.729" y="229.541" fill="#FFFFFF" width="131.61" height="190.494"/>
		<path fill="#282828" d="M326.072,375.181c0,0-0.775,46.02-3.965,67.096c0,0,6.148,2.78,21.639,2.78c0,0,31.445,3.707,34.848-0.315
			l-0.926-46.151L326.072,375.181z"/>
		<path fill="#282828" d="M377.898,223.673v198.138h-49.781c0,0-15.234-144.536,34.76-198.138H377.898z"/>
		<path fill="#282828" d="M546.805,380.712c0,0,0,47.104,4.852,62.802c0,0-11.479,3.083-26.974,3.083c0,0-28.966,2.167-32.377-1.855
			l0.932-46.151L546.805,380.712z"/>
		<path fill="#282828" d="M493.006,223.673v198.138h53.473c0,0,8.999-164.236-38.45-198.138H493.006z"/>
		<polygon fill="#2D2D2D" points="376.997,223.581 350.21,258.59 375.404,260.453 350.21,292.272 376.997,390.041 		"/>
		<polygon fill="#2D2D2D" points="492.829,223.581 519.619,258.59 494.425,260.453 519.619,292.272 492.829,390.041 		"/>
		<g>
			<g>
				<polygon fill="#30AB64" points="415.088,230.369 434.745,250.021 455.102,230.369 435.208,225.213 				"/>
				<path fill="#30AB64" d="M441.593,241.619l-6.157-6.256v-0.685l-0.34,0.334l-0.341-0.334l-0.035,0.729l-6.128,6.211
					l-14.372,136.85c0,0,15.787,35.586,21.216,35.586c6.887,0,20.533-35.586,20.533-35.586L441.593,241.619z"/>
			</g>
			<polygon fill="#D6D6D6" points="368.092,209.454 435.868,225.213 414.887,247.63 362.551,223.614 362.551,207.604 			"/>
			<polygon fill="#D6D6D6" points="502.974,209.454 435.208,225.213 456.177,247.63 508.516,223.614 508.516,207.604 			"/>
		</g>
		<g>
			<path fill="#F4B07D" d="M481.739,203.695c0,0-7.39,24.858-46.97,24.858c-39.102,0-46.966-24.858-46.966-24.858
				s14.299,18.312,48.632,18.312C436.436,222.007,459.317,224.196,481.739,203.695z"/>
		</g>
	</g>
</g>
</svg>
