<?xml version="1.0" encoding="utf-8"?>
<!-- Generator: Adobe Illustrator 16.0.0, SVG Export Plug-In . SVG Version: 6.00 Build 0)  -->
<!DOCTYPE svg PUBLIC "-//W3C//DTD SVG 1.1//EN" "http://www.w3.org/Graphics/SVG/1.1/DTD/svg11.dtd">
<svg version="1.1" id="Layer_1" xmlns="http://www.w3.org/2000/svg" xmlns:xlink="http://www.w3.org/1999/xlink" x="0px" y="0px"
	 width="875px" height="476px" viewBox="0 0 875 476" enable-background="new 0 0 875 476" xml:space="preserve">
<g>
	<defs>
		<rect id="SVGID_1_" x="0.5" y="0.5" width="874" height="475"/>
	</defs>
	<clipPath id="SVGID_2_">
		<use xlink:href="#SVGID_1_"  overflow="visible"/>
	</clipPath>
	<g clip-path="url(#SVGID_2_)">
		<rect x="-1.499" y="-18.5" fill="#231F20" width="874.999" height="523.814"/>
		<circle fill="#FFFFFF" cx="437.001" cy="192.702" r="157"/>
		<polygon fill="#FFFFFF" points="793.629,505.728 79.629,505.728 279.629,301.728 593.629,301.728 		"/>
		<rect x="279.879" y="192.728" fill="#FFFFFF" width="314" height="183"/>
		<g>
			<g>
				<path fill="#2D2D2D" d="M470.215,143.698c0,0,2.654,1.04,2.526,5.569c-0.044,1.518-0.941,5.49,1.91,5.759
					c0,0-3.477,0.329-4.446-1.938c0,0,0.111,4.085,1.721,5.142c0,0-9.683,3.863-11.105-5.354l1.121-13.447
					C461.941,139.429,467.913,137.113,470.215,143.698z"/>
			</g>
			<g>
				<path fill="#2D2D2D" d="M412.486,142.391c0,0-2.7,0.919-2.777,5.449c-0.024,1.518,0.691,5.527-2.17,5.666
					c0,0,3.46,0.487,4.53-1.733c0,0-0.296,4.075-1.952,5.06c0,0,9.498,4.297,11.337-4.848l-0.512-13.484
					C420.943,138.5,415.083,135.918,412.486,142.391z"/>
			</g>
			<g>
				<g>
					<polygon fill="#2D2D2D" points="473.035,166.319 466.525,165.355 465.34,172.677 					"/>
				</g>
				<g>
					<polygon fill="#2D2D2D" points="408.665,164.861 415.212,164.193 416.066,171.561 					"/>
				</g>
				<g>
					<path fill="#2D2D2D" d="M401.169,208.908l76.986,1.744c0,0-11.549-46.826-11.044-69.131
						c0.292-12.889-51.264-14.055-51.556-1.168C414.826,172.589,401.169,208.908,401.169,208.908z"/>
				</g>
				<g>
					<g>
						<path fill="#2D2D2D" d="M441.795,97.025c0,0,10.328-13.8,28.563,0.861c7.368,5.925,10.14,29.914-2.769,42.253l-26.71-31.263
							L441.795,97.025z"/>
					</g>
					<g>
						<path fill="#2D2D2D" d="M441.696,97.023c0,0-9.692-14.254-28.572-0.434c-7.628,5.588-11.483,29.426,0.854,42.336
							l28.098-30.021L441.696,97.023z"/>
					</g>
					<g>
						<path fill="#2D2D2D" d="M417.72,112.429c0,0,8.916-10.887,25.396-10.276c16.426,0.135,23.072,11.374,23.072,11.374
							c5.55,9.562,3.168,38.659,3.168,38.659c-0.326,14.416-20.581,25.449-28.979,25.26c-8.398-0.19-28.223-11.382-27.879-26.547
							C412.498,150.898,411.742,121.73,417.72,112.429z"/>
					</g>
					<g>
						<g opacity="0.1">
							<path fill="#2D2D2D" d="M427.833,161.203c0,0,1.93,7.798,13.213,8.053c11.145,0.253,13.562-7.446,13.562-7.446
								s-4.206,5.617-13.993,5.396C440.615,167.205,434.08,167.74,427.833,161.203z"/>
						</g>
					</g>
					<g opacity="0.2">
						<g>
							<path fill="#2D2D2D" d="M434.306,136.852c-0.085,0.078-0.174,0.174-0.251,0.258c-0.077,0.09-0.155,0.178-0.227,0.272
								c-0.145,0.188-0.282,0.384-0.396,0.603c-0.061,0.105-0.116,0.215-0.159,0.334c-0.051,0.115-0.095,0.234-0.122,0.363
								c-0.034,0.126-0.063,0.253-0.067,0.391c-0.013,0.135-0.021,0.271,0.007,0.411c0.018,0.14,0.034,0.278,0.094,0.408
								c0.054,0.129,0.092,0.272,0.178,0.378c0.079,0.11,0.154,0.23,0.242,0.33l0.289,0.268c0.094,0.096,0.203,0.15,0.307,0.221
								l0.316,0.197l0.657,0.292l0.019,0.009l0.061,0.013c0.264,0.054,0.562,0.141,0.832,0.238c0.274,0.1,0.539,0.218,0.784,0.356
								c0.244,0.139,0.476,0.289,0.659,0.471c0.191,0.186,0.299,0.352,0.472,0.652c0.179,0.281,0.38,0.614,0.698,0.856
								c0.143,0.14,0.312,0.226,0.479,0.319c0.166,0.105,0.338,0.152,0.51,0.213c0.345,0.141,0.679,0.157,1.019,0.232
								c0.342,0.025,0.641,0.055,1.018,0.068c0.319-0.014,0.616-0.005,0.955-0.036c0.351-0.048,0.703-0.077,1.045-0.194l0.259-0.074
								c0.085-0.035,0.17-0.078,0.254-0.117c0.172-0.076,0.338-0.164,0.489-0.289c0.323-0.217,0.558-0.527,0.758-0.803l0.135-0.2
								l0.033-0.05l0.017-0.024c-0.033,0.044,0.002-0.001-0.002,0.003l0.073-0.094c0.108-0.149,0.158-0.176,0.254-0.271
								c0.19-0.174,0.43-0.313,0.68-0.441s0.521-0.233,0.799-0.32c0.275-0.085,0.577-0.159,0.842-0.2l0.062-0.011l0.019-0.007
								l0.669-0.263l0.325-0.184c0.107-0.065,0.219-0.114,0.316-0.206l0.3-0.254c0.093-0.095,0.174-0.211,0.257-0.318
								c0.092-0.102,0.136-0.243,0.195-0.369c0.065-0.127,0.089-0.266,0.112-0.404c0.032-0.138,0.033-0.273,0.025-0.409
								c0.003-0.138-0.02-0.267-0.049-0.394c-0.021-0.131-0.06-0.25-0.105-0.367c-0.037-0.122-0.088-0.234-0.144-0.343
								c-0.103-0.223-0.23-0.425-0.367-0.619c-0.14-0.195-0.277-0.372-0.456-0.556c-0.134-0.139-0.355-0.143-0.494-0.008
								c-0.133,0.129-0.141,0.34-0.02,0.479l0.009,0.011c0.121,0.139,0.247,0.314,0.354,0.482c0.105,0.172,0.205,0.348,0.276,0.528
								c0.04,0.09,0.075,0.179,0.097,0.271c0.029,0.09,0.054,0.18,0.061,0.268c0.017,0.09,0.028,0.178,0.018,0.26
								c0.001,0.085-0.001,0.169-0.028,0.244c-0.018,0.078-0.03,0.156-0.076,0.224c-0.041,0.067-0.057,0.146-0.123,0.204
								c-0.057,0.061-0.099,0.129-0.161,0.188l-0.21,0.164c-0.062,0.061-0.156,0.097-0.238,0.144l-0.252,0.134l-0.565,0.202
								l0.081-0.018c-0.358,0.047-0.671,0.115-0.999,0.205c-0.324,0.092-0.646,0.205-0.96,0.352c-0.313,0.15-0.622,0.33-0.903,0.575
								c-0.134,0.116-0.319,0.304-0.393,0.41l-0.073,0.093l-0.054,0.074l-0.033,0.047l-0.131,0.191
								c-0.171,0.225-0.325,0.429-0.531,0.557c-0.05,0.035-0.096,0.075-0.148,0.105l-0.174,0.079l-0.173,0.081l-0.195,0.051
								c-0.256,0.09-0.535,0.104-0.807,0.145c-0.286,0.027-0.62,0.016-0.93,0.026l-0.863-0.054
								c-0.271-0.061-0.579-0.072-0.818-0.176c-0.125-0.043-0.26-0.074-0.359-0.145c-0.106-0.06-0.223-0.11-0.304-0.196
								c-0.193-0.134-0.327-0.353-0.487-0.597c-0.138-0.244-0.376-0.611-0.647-0.854c-0.27-0.258-0.569-0.452-0.876-0.614
								c-0.308-0.162-0.623-0.291-0.943-0.396c-0.324-0.104-0.634-0.188-0.988-0.25l0.079,0.021l-0.556-0.227l-0.244-0.146
								c-0.079-0.049-0.174-0.09-0.232-0.153L434.253,140c-0.058-0.062-0.098-0.133-0.151-0.196c-0.063-0.062-0.074-0.14-0.114-0.21
								c-0.043-0.068-0.051-0.147-0.065-0.227c-0.023-0.075-0.022-0.159-0.018-0.244c-0.006-0.083,0.009-0.17,0.029-0.258
								c0.012-0.089,0.041-0.178,0.074-0.266c0.026-0.09,0.064-0.178,0.108-0.266c0.167-0.35,0.409-0.697,0.679-0.984l0.004-0.004
								c0.131-0.141,0.124-0.361-0.017-0.494C434.647,136.727,434.438,136.729,434.306,136.852z"/>
						</g>
					</g>
					<g>
						<circle fill="#2D2D2D" cx="455.75" cy="129.542" r="1.572"/>
					</g>
					<g>
						<path fill="#2D2D2D" d="M463.953,129.169c0,0-5.244-5.249-12.872-3.425c0,0-2.143-1.327-0.245-2.088
							C450.836,123.656,459.883,122.31,463.953,129.169z"/>
					</g>
					<g>
						<circle fill="#2D2D2D" cx="428.271" cy="128.92" r="1.573"/>
					</g>
					<g>
						<path fill="#2D2D2D" d="M419.898,127.508c0,0,5.911-4.475,13.221-1.618c0,0,2.303-1.021,0.528-2.036
							C433.647,123.854,424.875,121.276,419.898,127.508z"/>
					</g>
					<g>
						<path fill="#2D2D2D" d="M467.396,134.737c0,0,5.595-8.725,7.35-0.481c0.542,2.539,0.283,16.199-7.289,7.393"/>
					</g>
					<g>
						<path fill="#2D2D2D" d="M470.712,140.855c0.12,0.003,0.242-0.045,0.329-0.141c1.027-1.133,1.503-2.289,1.413-3.438
							c-0.123-1.585-1.29-2.543-1.34-2.583c-0.185-0.149-0.458-0.119-0.606,0.065c-0.149,0.186-0.121,0.457,0.063,0.605
							c0.011,0.009,0.934,0.779,1.023,1.989c0.065,0.899-0.335,1.835-1.192,2.779c-0.161,0.177-0.147,0.449,0.028,0.61
							C470.512,140.816,470.611,140.854,470.712,140.855z"/>
					</g>
					<g>
						<path fill="#2D2D2D" d="M416.17,133.577c0,0-5.195-8.968-7.322-0.813c-0.656,2.512-1.014,16.17,6.947,7.715"/>
					</g>
					<g>
						<path fill="#2D2D2D" d="M412.58,139.539c0.1,0.002,0.201-0.03,0.285-0.099c0.183-0.153,0.208-0.425,0.057-0.608
							c-0.817-0.986-1.176-1.941-1.064-2.841c0.149-1.212,1.1-1.923,1.108-1.929c0.192-0.141,0.234-0.412,0.094-0.604
							s-0.411-0.234-0.604-0.093c-0.052,0.038-1.26,0.942-1.455,2.521c-0.142,1.143,0.281,2.319,1.256,3.496
							C412.34,139.484,412.459,139.537,412.58,139.539z"/>
					</g>
					<g>
						<path fill="#2D2D2D" d="M441.437,151.59c4.764,0.107,8.542-1.807,8.601-1.838c0.264-0.137,0.367-0.463,0.23-0.727
							s-0.461-0.368-0.728-0.23c-0.089,0.046-9.032,4.562-16.403-1.21c-0.234-0.185-0.573-0.144-0.757,0.092
							c-0.185,0.235-0.143,0.573,0.092,0.757C435.425,150.747,438.606,151.525,441.437,151.59z"/>
					</g>
					<g>
						<path fill="#2D2D2D" d="M471.295,104.168c0,0,2.74,18.993,2.306,19.127c-0.434,0.133-15.077-8.045-15.077-8.045l-17.058-6.359
							l-25.71,7.262l-5.131-2.273l3.04-13.461l24.949-2.025l19.513,2.6L471.295,104.168z"/>
					</g>
					<g opacity="0.3">
						<path fill="#2D2D2D" d="M441.613,108.894c0,0-10.903,23.79-33.641,10.97c0,0,6.697-3.43,7.879-7.935"/>
					</g>
					<g opacity="0.3">
						<path fill="#2D2D2D" d="M441.764,108.715c0,0,5.818,18.287,28.642,12.728c0,0-5.146-2.618-6.97-6.954"/>
					</g>
					<g>
						<path fill="#2D2D2D" d="M441.466,108.891c0,0-10.181,20.568-31.832,10.723c0,0,5.045-3.557,6.227-8.064"/>
					</g>
					<g>
						<path fill="#2D2D2D" d="M441.764,108.715c0,0,7.599,14.879,26.373,12.163c0,0-4.009-3.524-4.607-7.508"/>
					</g>
					<g>
						<path fill="#2D2D2D" d="M450.853,91.761c0,0-3.454-1.312-2.159-6.383c0,0-3.971,3.651-4.055,7.394
							c0,0-1.406-7.805-4.688-9.031c0,0,0.974,10.235-9.023,7.015l1.717,4.192l6.995,8.936l13.289-2.146L450.853,91.761z"/>
					</g>
				</g>
			</g>
			<g>
				<path fill="#2D2D2D" d="M489.559,264.177c2.038,0.046,4.092-0.693,5.67-2.226c12.346-11.982,18.728-21.268,17.104-35.993
					c-1.278-11.578-8.524-23.915-21.536-36.67c-9.214-9.031-18.028-14.987-18.399-15.235c-3.615-2.428-8.514-1.467-10.943,2.147
					c-2.428,3.614-1.467,8.515,2.147,10.942c8.594,5.796,31.27,24.365,33.056,40.546c0.936,8.477-2.894,13.708-12.411,22.946
					c-3.126,3.033-3.2,8.025-0.167,11.15C485.58,263.332,487.562,264.131,489.559,264.177z"/>
			</g>
			<g>
				<path fill="#2D2D2D" d="M495.361,262.088c7.036-6.83,11.168-11.931,13.812-17.055c3.066-5.939,4.129-12.006,3.348-19.096
					c-1.283-11.623-8.547-23.999-21.592-36.785c-9.226-9.043-18.055-15.008-18.427-15.258l-9.007,13.406l4.504-6.703l-4.51,6.699
					c8.57,5.778,31.2,24.302,32.978,40.412c0.759,6.878-0.79,11.564-12.354,22.789L495.361,262.088z"/>
			</g>
			<g>
				<path fill="#2D2D2D" d="M387.869,261.874c1.997,0.045,4.012-0.664,5.582-2.141c3.172-2.984,3.324-7.976,0.339-11.146
					c-11.099-11.796-12.439-16.584-11.359-23.485c2.516-16.086,26.017-33.613,34.86-39.01c3.717-2.268,4.896-7.119,2.631-10.836
					s-7.109-4.898-10.83-2.637c-0.381,0.232-9.457,5.782-19.069,14.387c-13.577,12.152-21.373,24.15-23.173,35.658
					c-2.29,14.637,3.666,24.201,15.456,36.73C383.812,260.996,385.831,261.828,387.869,261.874z"/>
			</g>
			<g>
				<path fill="#2D2D2D" d="M382.167,259.525l11.761-11.069c-11.045-11.736-12.38-16.488-11.311-23.325
					c1.199-7.666,7.44-16.736,18.05-26.232c8.528-7.635,16.636-12.593,16.717-12.642l-8.391-13.8
					c-0.382,0.232-9.472,5.792-19.098,14.408c-13.609,12.182-21.427,24.217-23.234,35.77
					C364.371,237.273,370.612,247.246,382.167,259.525z"/>
			</g>
			<g>
				<path fill="#2D2D2D" d="M453.871,362.686c4.959,0.112,9.068-3.816,9.181-8.774l1.991-87.94c0.112-4.958-3.815-9.068-8.773-9.18
					c-4.958-0.113-9.068,3.814-9.181,8.773l-1.991,87.94C444.985,358.463,448.914,362.573,453.871,362.686z"/>
			</g>
			<g>
				<path fill="#2D2D2D" d="M420.435,361.928c4.958,0.112,9.068-3.815,9.181-8.773l1.991-87.94c0.112-4.959-3.816-9.068-8.774-9.181
					s-9.067,3.815-9.18,8.774l-1.992,87.94C411.549,357.705,415.476,361.815,420.435,361.928z"/>
			</g>
			<g>
				<path fill="#2D2D2D" d="M470.143,176.913c4.145,19.696,13.049,18.318,12.299,51.437c-0.923,40.765-0.758,33.44-0.781,34.476
					c-0.001,0.073-4.487,0.007-4.487,0.007l-38.712-0.877l1.941-85.715L470.143,176.913z"/>
			</g>
			<g>
				<path fill="#2D2D2D" d="M412.146,175.6c-5.033,19.488-13.863,17.709-14.613,50.827c-0.923,40.765-0.757,33.44-0.781,34.476
					c-0.001,0.073,4.483,0.21,4.483,0.21l38.71,0.876l1.94-85.715L412.146,175.6z"/>
			</g>
			<g>
				<g opacity="0.2">
					<circle fill="#2D2D2D" cx="460.076" cy="205.779" r="3.887"/>
				</g>
				<g opacity="0.2">
					<circle fill="#2D2D2D" cx="460.077" cy="205.78" r="1.945"/>
				</g>
			</g>
			<g>
				<g opacity="0.2">
					<circle fill="#2D2D2D" cx="420.906" cy="204.893" r="3.887"/>
				</g>
				<g opacity="0.2">
					<circle fill="#2D2D2D" cx="420.906" cy="204.893" r="1.945"/>
				</g>
			</g>
			<g opacity="0.2">
				
					<ellipse transform="matrix(-0.9997 -0.0225 0.0225 -0.9997 872.4651 497.2362)" fill="#2D2D2D" cx="439.024" cy="243.72" rx="1.196" ry="1.942"/>
			</g>
			<g>
				<path fill="#2D2D2D" d="M438.402,297.581c-23.643-0.535-42.477-15.652-41.941-39.296l85.619,1.939
					C481.545,283.867,462.046,298.116,438.402,297.581z"/>
			</g>
			<g>
				<path fill="#2D2D2D" d="M445.143,356.161c24.007,0.543,43.357,6.147,43.213,12.521l-43.474-0.984L445.143,356.161z"/>
			</g>
			<g>
				<path fill="#2D2D2D" d="M429.58,355.809c-24.008-0.544-43.588,4.179-43.732,10.553l43.472,0.984L429.58,355.809z"/>
			</g>
			<g>
				
					<rect x="444.455" y="350.621" transform="matrix(-0.9997 -0.0226 0.0226 -0.9997 900.5336 718.2161)" fill="#2D2D2D" width="19.755" height="6.778"/>
			</g>
			<g>
				
					<rect x="410.767" y="349.859" transform="matrix(-0.9997 -0.0226 0.0226 -0.9997 833.1804 715.9296)" fill="#2D2D2D" width="19.752" height="6.778"/>
			</g>
			<g>
				
					<rect x="396.546" y="259.31" transform="matrix(-0.9997 -0.0226 0.0226 -0.9997 872.1662 534.8938)" fill="#2D2D2D" width="85.129" height="6.402"/>
			</g>
			<g>
				
					<rect x="432.642" y="259.301" transform="matrix(-0.9997 -0.0226 0.0226 -0.9997 871.3856 534.8729)" fill="#2D2D2D" width="12.159" height="6.402"/>
			</g>
			<g>
				
					<rect x="411.418" y="175.29" transform="matrix(-0.9997 -0.0226 0.0226 -0.9997 875.9656 444.6865)" fill="#2D2D2D" width="58.166" height="84.187"/>
			</g>
			<g>
				<path fill="#2D2D2D" d="M487.478,240.719c0,0-0.118,20.343,1.079,29.684c0,0-2.744,1.17-9.588,1.015
					c0,0-13.929,1.324-15.395-0.486l0.871-20.384L487.478,240.719z"/>
			</g>
			<g>
				<path fill="#2D2D2D" d="M466.093,173.266l-1.981,87.54l21.993,0.498c0,0,8.181-63.706-13.374-87.888L466.093,173.266z"/>
			</g>
			<g>
				<path fill="#2D2D2D" d="M389.896,240.957c0,0-0.471,20.812-2.771,27.7c0,0,5.04,1.477,11.884,1.632
					c0,0,12.776,1.246,14.325-0.495l0.05-20.403L389.896,240.957z"/>
			</g>
			<g>
				<path fill="#2D2D2D" d="M415.237,172.114l-1.982,87.54l-23.626-0.535c0,0-2.331-72.654,18.971-87.155L415.237,172.114z"/>
			</g>
			<g>
				<polygon fill="#2D2D2D" points="466.493,173.232 477.979,188.967 466.829,189.539 477.642,203.85 464.828,246.777 				"/>
			</g>
			<g>
				<polygon fill="#2D2D2D" points="415.318,172.074 403.13,187.272 414.241,188.348 402.793,202.154 413.652,245.619 				"/>
			</g>
			<g>
				<g>
					<g>
						<polygon fill="#2D2D2D" points="449.597,175.849 440.717,184.336 431.916,175.448 440.759,173.371 						"/>
					</g>
					<g>
						<path fill="#2D2D2D" d="M437.772,180.556l2.782-2.701l0.007-0.304l0.149,0.154l0.152-0.147l0.009,0.321l2.644,2.807
							l4.982,60.606c0,0-7.331,15.567-9.73,15.513c-3.043-0.069-8.715-15.93-8.715-15.93L437.772,180.556z"/>
					</g>
				</g>
				<g>
					<polygon fill="#2D2D2D" points="470.569,167.08 440.469,173.364 449.512,183.479 472.875,173.395 473.035,166.319 					"/>
				</g>
				<g>
					<polygon fill="#2D2D2D" points="410.976,165.73 440.759,173.371 431.268,183.066 408.385,171.934 408.545,164.859 					"/>
				</g>
			</g>
			<g>
				<g>
					<path fill="#2D2D2D" d="M420.415,163.399c0,0,3.015,11.056,20.504,11.452c17.275,0.391,21-10.513,21-10.513
						s-6.502,7.947-21.673,7.604C440.246,171.942,430.117,172.682,420.415,163.399z"/>
				</g>
			</g>
		</g>
		<g opacity="0.4">
			<g>
				<path fill="#2D2D2D" d="M385.974,470.979c-2.039-0.019-4.082,0.749-5.64,2.303c-12.181,12.149-18.436,21.521-16.611,36.223
					c1.437,11.561,8.851,23.798,22.035,36.373c9.336,8.905,18.23,14.739,18.605,14.984c3.647,2.378,8.532,1.35,10.912-2.297
					c2.379-3.649,1.351-8.534-2.296-10.914c-8.672-5.677-31.599-23.937-33.605-40.091c-1.051-8.463,2.706-13.745,12.097-23.114
					c3.085-3.073,3.091-8.067,0.016-11.15C389.963,471.769,387.971,470.997,385.974,470.979z"/>
			</g>
			<g>
				<path fill="#2D2D2D" d="M380.199,473.146c-6.942,6.926-11.004,12.081-13.577,17.24c-2.985,5.981-3.965,12.062-3.087,19.14
					c1.441,11.604,8.873,23.881,22.091,36.488c9.349,8.915,18.258,14.76,18.634,15.004l8.823-13.526l-4.412,6.763l4.418-6.76
					c-8.648-5.66-31.529-23.873-33.525-39.957c-0.853-6.868,0.632-11.576,12.041-22.956L380.199,473.146z"/>
			</g>
			<g>
				<path fill="#2D2D2D" d="M487.686,471.895c-1.998-0.018-4.003,0.719-5.553,2.216c-3.131,3.027-3.214,8.021-0.187,11.15
					c11.259,11.643,12.664,16.413,11.679,23.327c-2.297,16.119-25.557,33.966-34.325,39.483c-3.686,2.317-4.798,7.184-2.482,10.869
					c2.314,3.688,7.175,4.802,10.864,2.491c0.378-0.238,9.377-5.912,18.871-14.647c13.41-12.337,21.042-24.438,22.686-35.969
					c2.09-14.667-3.996-24.15-15.955-36.517C491.754,472.717,489.724,471.912,487.686,471.895z"/>
			</g>
			<g>
				<path fill="#2D2D2D" d="M493.419,474.166l-11.609,11.228c11.204,11.585,12.604,16.318,11.628,23.169
					c-1.095,7.681-7.212,16.836-17.691,26.476c-8.423,7.75-16.462,12.819-16.542,12.869l8.577,13.684
					c0.38-0.237,9.393-5.92,18.9-14.666c13.442-12.367,21.095-24.508,22.744-36.084
					C511.516,496.172,505.141,486.286,493.419,474.166z"/>
			</g>
			<g>
				<path fill="#2D2D2D" d="M420.314,371.992c-4.96-0.045-9.016,3.939-9.061,8.898l-0.792,87.96
					c-0.044,4.959,3.939,9.015,8.898,9.06c4.959,0.044,9.015-3.938,9.06-8.898l0.792-87.959
					C429.257,376.093,425.272,372.037,420.314,371.992z"/>
			</g>
			<g>
				<path fill="#2D2D2D" d="M453.758,372.294c-4.959-0.045-9.016,3.938-9.06,8.897l-0.792,87.96c-0.045,4.96,3.939,9.016,8.898,9.06
					c4.959,0.045,9.015-3.938,9.06-8.898l0.793-87.959C462.7,376.396,458.718,372.339,453.758,372.294z"/>
			</g>
			<g>
				<path fill="#2D2D2D" d="M406.577,557.97c-4.412-19.638-13.297-18.14-12.999-51.264c0.367-40.774,0.302-33.448,0.312-34.484
					c0-0.072,4.486-0.067,4.486-0.067l38.721,0.349l-0.772,85.734L406.577,557.97z"/>
			</g>
			<g>
				<path fill="#2D2D2D" d="M464.586,558.491c4.768-19.555,13.621-17.896,13.919-51.021c0.367-40.773,0.302-33.447,0.311-34.482
					c0.001-0.073-4.485-0.149-4.485-0.149l-38.719-0.348l-0.771,85.733L464.586,558.491z"/>
			</g>
			<g>
				<path fill="#2D2D2D" d="M436.669,436.88c23.648,0.213,42.687,15.071,42.474,38.719l-85.638-0.771
					C393.718,451.181,413.021,436.667,436.669,436.88z"/>
			</g>
			<g>
				<path fill="#2D2D2D" d="M429.131,378.396c-24.012-0.215-43.438-5.556-43.38-11.931l43.483,0.392L429.131,378.396z"/>
			</g>
			<g>
				<path fill="#2D2D2D" d="M444.697,378.537c24.014,0.217,43.526-4.772,43.584-11.148l-43.481-0.391L444.697,378.537z"/>
			</g>
			<g>
				
					<rect x="410.094" y="377.284" transform="matrix(1 0.009 -0.009 1 3.4419 -3.7631)" fill="#2D2D2D" width="19.755" height="6.778"/>
			</g>
			<g>
				
					<rect x="443.792" y="377.587" transform="matrix(1 0.009 -0.009 1 3.4465 -4.0669)" fill="#2D2D2D" width="19.752" height="6.779"/>
			</g>
			<g>
				
					<rect x="393.875" y="468.755" transform="matrix(1 0.009 -0.009 1 4.2623 -3.9061)" fill="#2D2D2D" width="85.128" height="6.402"/>
			</g>
			<g>
				
					<rect x="430.749" y="468.759" transform="matrix(1 0.0091 -0.0091 1 4.3011 -3.9449)" fill="#2D2D2D" width="12.16" height="6.402"/>
			</g>
			<g>
				
					<rect x="406.581" y="475.005" transform="matrix(1 0.009 -0.009 1 4.671 -3.8996)" fill="#2D2D2D" width="58.166" height="84.187"/>
			</g>
			<g>
				<path fill="#2D2D2D" d="M388.374,494.405c0,0-0.159-20.341-1.483-29.666c0,0,2.728-1.207,9.573-1.145
					c0,0,13.909-1.515,15.399,0.276l-0.593,20.395L388.374,494.405z"/>
			</g>
			<g>
				<path fill="#2D2D2D" d="M410.677,561.562l0.787-87.56l-21.997-0.198c0,0-7.312,63.812,14.57,87.697L410.677,561.562z"/>
			</g>
			<g>
				<path fill="#2D2D2D" d="M485.943,492.836c0,0,0.188-20.815,2.393-27.734c0,0-5.06-1.407-11.906-1.47
					c0,0-12.791-1.071-14.316,0.69l0.229,20.403L485.943,492.836z"/>
			</g>
			<g>
				<path fill="#2D2D2D" d="M461.543,562.019l0.789-87.559l23.631,0.212c0,0,3.32,72.616-17.781,87.407L461.543,562.019z"/>
			</g>
		</g>
	</g>
</g>
</svg>
