<?xml version="1.0" encoding="utf-8"?>
<!-- Generator: Adobe Illustrator 16.0.0, SVG Export Plug-In . SVG Version: 6.00 Build 0)  -->
<!DOCTYPE svg PUBLIC "-//W3C//DTD SVG 1.1//EN" "http://www.w3.org/Graphics/SVG/1.1/DTD/svg11.dtd">
<svg version="1.1" id="Layer_1" xmlns="http://www.w3.org/2000/svg" xmlns:xlink="http://www.w3.org/1999/xlink" x="0px" y="0px"
	 width="745.3px" height="657.9px" viewBox="0 0 745.3 657.9" enable-background="new 0 0 745.3 657.9" xml:space="preserve">
<g>
	<rect x="492.1" y="575.1" fill="#839093" width="88" height="48.5"/>
	<rect x="168.3" y="575.1" fill="#839093" width="88" height="48.5"/>
	<path fill="#8C7A55" d="M381,92.5h-19.5c-5.2,0-9.4,4.2-9.4,9.4c0,5.2,4.2,9.4,9.4,9.4H381c5.2,0,9.4-4.2,9.4-9.4
		C390.4,96.7,386.2,92.5,381,92.5z"/>
	<g>
		<path fill="#9AAEB5" d="M178.1,573.4h0.2v1.7h12.9h1.4h12.9v-1.7h0.2c0-4-3.2-5.8-4.6-6.4v-5.9h0.4c1.3,0,2.4-1.1,2.4-2.4
			c0-1.3-1.1-2.4-2.4-2.4h-2c2.9-2.6,1.7-5.6,1-6.8c0.5-0.4,3.8-3,4.3-4.3c0.7-1.6,0-4.1-5.7-4.1h1.6l-1.6-2.8l-4.1-42.8
			c-0.3-2.4-2.4-2.6-3.2-2.5c-0.9-0.1-3,0.1-3.2,2.5l-4.1,42.8l-1.6,2.8h1.6c-5.7,0-6.3,2.5-5.7,4.1c0.6,1.3,3.9,4,4.3,4.3
			c-0.7,1.2-1.9,4.2,1,6.8h-2c-1.3,0-2.4,1.1-2.4,2.4c0,1.3,1.1,2.4,2.4,2.4h0.4v5.9C181.3,567.6,178.1,569.4,178.1,573.4z"/>
		<path fill="#9AAEB5" d="M532.7,573.4h0.2v1.7h12.9h1.4h12.9v-1.7h0.2c0-4-3.2-5.8-4.6-6.4v-5.9h0.4c1.3,0,2.4-1.1,2.4-2.4
			c0-1.3-1.1-2.4-2.4-2.4h-2c2.9-2.6,1.7-5.6,1-6.8c0.5-0.4,3.8-3,4.3-4.3c0.7-1.6,0-4.1-5.7-4.1h1.6l-1.6-2.8l-4.1-42.8
			c-0.2-2.4-2.4-2.6-3.2-2.5c-0.9-0.1-3,0.1-3.2,2.5l-4.1,42.8l-1.6,2.8h1.6c-5.7,0-6.3,2.5-5.7,4.1c0.6,1.3,3.9,4,4.3,4.3
			c-0.7,1.2-1.9,4.2,1,6.8h-2c-1.3,0-2.4,1.1-2.4,2.4c0,1.3,1.1,2.4,2.4,2.4h0.4v5.9C536,567.6,532.7,569.4,532.7,573.4z"/>
		<path fill="#9AAEB5" d="M745.3,657.8c0-0.2,0-0.3,0-0.5c-0.7-32.9-72-40-72-40l-7-0.5v-1.5h-6v-1.7h-6.5v-2.3h-7.4v-2.6h-5.7v-2.3
			h-6.5v-2.8h-6.5v-2h-6v-2.8h-6.3v-2h-11.3v-2.7h-2.8v-3.2l-1,0.2v-15.9c0-4.7-2.7-7-2.7-7V566h0.2c0-4.8-3.9-7-5.5-7.7v-7.1h0.5
			c1.6,0,2.9-1.3,2.9-2.9c0-1.6-1.3-2.9-2.9-2.9h-2.4c3.5-3.2,2.1-6.7,1.2-8.2c0.6-0.5,4.6-3.6,5.2-5.2c0.8-1.9,0-4.9-6.8-4.9h1.9
			l-1.9-3.4l-4.9-51.6c-0.3-2.9-2.9-3.1-3.9-3c-1-0.1-3.6,0.1-3.9,3l-4.9,51.6l-1.9,3.4h1.9c-6.8,0-7.6,3-6.8,4.9
			c0.7,1.6,4.6,4.8,5.2,5.2c-0.9,1.5-2.3,5,1.2,8.2h-2.4c-1.6,0-2.9,1.3-2.9,2.9c0,1.6,1.3,2.9,2.9,2.9h0.5v7.1
			c-1.6,0.7-5.5,2.9-5.5,7.7h0.2v2.1c0,0-2.7,2.3-2.7,7V591l-0.9-0.2v3.2h-2.8v11.6h-23.5l-2.3-2.3h-5.1v-3.4h-6.8v-2.8h-6.2v-4.5
			h-14.8v-13.6h-4.5l-6.1-27.3h-6.8v-8.3h-51.9v-70.5l5.7-15.2h-7.8v-7.4h-5.3v-7h3.6v-5.7h-8.9c1.7-3.4,2.9-10.1,2.9-17.8
			c0-9-1.6-16.6-3.7-19.2c1.2-0.6,2-1.8,2-3.2c0-2-1.6-3.6-3.6-3.6c-2,0-3.6,1.6-3.6,3.6c0,1.4,0.8,2.6,2,3.2
			c-2.1,2.6-3.7,10.2-3.7,19.2c0,7.8,1.2,14.5,2.9,17.8h-8.2v-5.3h-3.8v-16.9h-0.3l-6.5-6.1c2.2-0.7,3.7-2.8,3.7-5.2
			c0-3-2.4-5.4-5.3-5.5V202.3c2.2-0.9,3.8-3.1,3.8-5.6c0-3-2.2-5.5-5.1-6c0.6-0.7,0.9-1.6,0.9-2.5c0-2.2-1.8-4-3.9-4
			c0.5-5.7,6.6-3,6.6-3c5.7-3-0.8-6.1-0.8-6.1c-0.4-4.9,8.3-10.6,8.3-10.6c7.2-7.2,1.9-13.6,1.9-13.6c2.3-4.5-2.7-6.1-2.7-6.1
			l4.5-4.5h-3.2v-17.8h-1h-1.1v0.6h-60.8v-0.6h-0.9h-1.1v17.8h-1.5l4.6,4.5c0,0-4.9,1.5-2.7,6.1c0,0-5.3,6.4,1.9,13.6
			c0,0,8.7,5.7,8.3,10.6c0,0-6.4,3-0.8,6.1c0,0,6.1-2.7,6.6,3c-2.2,0-3.9,1.8-3.9,4c0,0.9,0.3,1.8,0.9,2.5c-3.1,0.3-5.5,2.9-5.5,6
			c0,2.1,1.1,3.9,2.7,5v196.8h-1.7c-3,0-5.5,2.5-5.5,5.5c0,2.3,1.5,4.3,3.5,5.1h-0.5l-8,6.4h0.4v16.7H334v5.3h-4.5
			c1.7-3.4,2.9-10.1,2.9-17.8c0-9-1.6-16.6-3.7-19.2c1.2-0.6,2-1.8,2-3.2c0-2-1.6-3.6-3.6-3.6c-2,0-3.6,1.6-3.6,3.6
			c0,1.4,0.8,2.6,2,3.2c-2.1,2.6-3.7,10.2-3.7,19.2c0,7.8,1.2,14.5,2.9,17.8h-10v5.7h2.1v7h-5.3v7.4h-8.9l6.8,18.2h0.4v68.5
			l-0.4-1.1h-53.8v8.3h-6.8l-6.1,27.3v13.6h-18.8v4.5h-6.3v2.8h-6.8v3.4h-5.1l-2.3,2.3h-23.5v-11.6H177v-3.2l-0.9,0.2v-15.9
			c0-4.7-2.7-7-2.7-7V566h0.2c0-4.8-3.9-7-5.5-7.7v-7.1h0.5c1.6,0,2.9-1.3,2.9-2.9c0-1.6-1.3-2.9-2.9-2.9h-2.4
			c3.5-3.2,2.1-6.7,1.2-8.2c0.6-0.5,4.6-3.6,5.2-5.2c0.8-1.9,0-4.9-6.8-4.9h1.9l-1.9-3.4l-4.9-51.6c-0.3-2.9-2.9-3.1-3.9-3
			c-1-0.1-3.6,0.1-3.9,3l-4.9,51.6l-1.9,3.4h1.9c-6.8,0-7.6,3-6.8,4.9c0.7,1.6,4.6,4.8,5.2,5.2c-0.9,1.5-2.3,5,1.2,8.2h-2.4
			c-1.6,0-2.9,1.3-2.9,2.9c0,1.6,1.3,2.9,2.9,2.9h0.5v7.1c-1.6,0.7-5.5,2.9-5.5,7.7h0.2v2.1c0,0-2.7,2.3-2.7,7V591l-0.9-0.2v3.2
			h-2.8v2.7h-11.3v2h-6.3v2.8h-6v2h-6.5v2.8h-6.5v2.3h-5.7v2.6h-7.4v2.3H78v1.7h-6v2c0,0-71.3,7-72,40c0,0.2,0,0.3,0,0.5h28.8v0.2
			h334.4h11.9h334.4v-0.2H745.3z M343.8,137.7v-13.6h2.8v13.6H343.8z M347.8,124.1h2.7v13.6h-2.7V124.1z M351.6,124.1h2.8v13.6h-2.8
			V124.1z M355.6,124.1h2.8v13.6h-2.8V124.1z M359.6,124.1h2.8v13.6h-2.8V124.1z M363.5,124.1h2.7v13.6h-2.7V124.1z M367.3,124.1
			h2.8v13.6h-2.8V124.1z M371.3,124.1h3.2v13.6h-3.2V124.1z M375.7,124.1h2.8v13.6h-2.8V124.1z M379.7,124.1h2.7v13.6h-2.7V124.1z
			 M383.5,124.1h2.8v13.6h-2.8V124.1z M387.4,124.1h2.7v13.6h-2.7V124.1z M391.2,124.1h2.7v13.6h-2.7V124.1z M395,124.1h2.8v13.6
			H395V124.1z M399,124.1h1.5v13.6H399V124.1z M342.7,124.1v13.6h-2.8v-13.6H342.7z M339.9,140.2v-1.3h60.8v1.3h-30.3h-0.8H339.9z"
			/>
		<circle fill="#9AAEB5" cx="338.9" cy="120.9" r="1.5"/>
		<path fill="#9AAEB5" d="M403.4,120.9c0-0.8-0.7-1.5-1.5-1.5c-0.8,0-1.5,0.7-1.5,1.5s0.7,1.5,1.5,1.5
			C402.7,122.4,403.4,121.7,403.4,120.9z"/>
	</g>
	<rect x="352.4" y="100.9" fill="#8A9A9E" width="38.1" height="39.8"/>
	<g display="none">
		<path display="inline" fill="#77601F" d="M368.4,32.8c-0.9-0.2-3.3-4-3.3-4c-2.6-6.2-12.2-12.8-12.2-12.8
			c-2.7-3.1-17-11.6-17-11.6c-2.6-3.3-6.1-4.6-6.1-4.6c-2.9,2.6,1.1,6.9,1.1,6.9c-4.9,1.4,0,5.6,0,5.6c-1.9,5.7,5.9,7.3,5.9,7.3
			c-3.4,6.2,8.8,8.2,8.8,8.2c-2.1,1.1,1.1,3.6,1.1,3.6c-0.6,4.5,5.6,3.7,5.6,3.7c-1,4.1,5.7,5.1,5.7,5.1c-2.4,3.5,0.8,5.3,0.8,5.3
			c-0.7,3.8,3.6,2,3.6,2c-0.8,4.6,3.4,2.5,3.4,2.5c0.8,4.7,4.5,1.8,4.5,1.8c2.2,1.3,3.1,0.3,3.1,0.3c5.2-2.5,2.4-13.9,2.4-13.9
			C374.2,34.6,368.4,32.8,368.4,32.8z"/>
		<path display="inline" fill="#77601F" d="M406.3,24.7c-1.1-0.6-7.8,0.7-7.8,0.7c-1.1,0.7-8.5,0.4-8.5,0.4
			c-0.8-0.6-2.3-0.3-2.3-0.3c-6.3,2.4-7.9,12.1-7.9,12.1c-1.9,7.3,6.9,8.3,6.9,8.3c2.8-0.4,2.8-2.5,2.8-2.5c2.9,0,2.3-2.2,2.3-2.2
			c0.7-0.4,1.1-1.5,1.1-1.5c0.3,0,1.4,0.2,1.4,0.2c1.9,1.2,3.2-0.2,3.2-0.2c1-1.1,0-1.5,0-1.5c-1-0.9-0.6-1.1-0.6-1.1
			c1.5-0.3,1.8-0.8,1.8-0.8c2-0.5,1.6-2.5,1.6-2.5l1.5-0.4c4-1,3.2-1.7,3.2-1.7c0.4-2-3.9-2-3.9-2c5.9-1.2,5.8-3,5.8-3
			C408.4,25.5,406.3,24.7,406.3,24.7z"/>
		<path display="inline" fill="#776316" d="M362.4,19.9c0,0-0.9,0.3-0.9,1.9c0,0.5,0.3,1.9-0.7,1.9c0,0,1.2,0.1,1.5-0.6
			c0,0-0.1,1.4-0.6,1.7c0,0,3.2,1.4,3.8-1.7l-0.2-4.6C365.3,18.5,363.3,17.7,362.4,19.9z"/>
		<path display="inline" fill="#776316" d="M382.9,21.9c0-1.5-0.9-1.9-0.9-1.9c-0.8-2.2-2.8-1.4-2.8-1.4l-0.3,4.6
			c0.5,3.1,3.8,1.8,3.8,1.8c-0.6-0.3-0.6-1.7-0.6-1.7c0.3,0.8,1.5,0.6,1.5,0.6C382.6,23.7,382.8,22.4,382.9,21.9z"/>
		<g display="inline">
			<polygon fill="#B7A475" points="361.2,27.5 363.8,29.7 363.5,27.2 			"/>
			<polygon fill="#B7A475" points="380.5,29.8 383,27.6 380.8,27.4 			"/>
			<path fill="#F3C027" d="M363.5,19.2c0,7.6-4.4,23.3-4.4,23.3l26.1,0.2c0,0-4.3-12.4-4.2-23.3C381,14.9,363.5,14.8,363.5,19.2z"/>
			<g>
				<path fill="#776316" d="M362.8,4.4c-2.6,1.9-3.7,10,0.5,14.3l9.3-10.3l-0.2-4C372.5,4.4,369.1-0.4,362.8,4.4z"/>
				<path fill="#776316" d="M382.2,4.5c-6.3-4.9-9.7-0.1-9.7-0.1l-0.2,4l9.2,10.4C385.8,14.6,384.7,6.5,382.2,4.5z"/>
				<path fill="#F3C027" d="M372,6.1c-5.6-0.1-7.9,3.6-7.9,3.6c-2,3.2-1.4,13.1-1.4,13.1c0,4.9,6.7,8.8,9.6,8.8
					c2.8,0,9.7-3.6,9.7-8.7c0,0,0.5-9.9-1.4-13.1C380.5,9.8,377.6,6,372,6.1z"/>
				<g>
					<path opacity="0.1" fill="#232015" d="M372.2,28.1c-3.3,0-4.7-2-4.7-2s0.7,2.6,4.5,2.7c3.8,0,4.6-2.6,4.6-2.6
						C374.4,28.4,372.2,28.1,372.2,28.1z"/>
				</g>
				<path fill="#F3C027" d="M361,16.6c-0.2,0.9-0.3,5.5,2.4,2.6l0.1-2.3C363.5,16.9,361.7,13.9,361,16.6z"/>
				
					<path fill="none" stroke="#C1A53B" stroke-width="0.2923" stroke-linecap="round" stroke-linejoin="round" stroke-miterlimit="10" d="
					M362.3,16.9c0,0-1,0.7,0,1.8"/>
				<path fill="#F3C027" d="M380.8,17l0.1,2.3c2.6,2.9,2.6-1.7,2.4-2.5C382.7,14,380.8,17,380.8,17z"/>
				
					<path fill="none" stroke="#C1A53B" stroke-width="0.2923" stroke-linecap="round" stroke-linejoin="round" stroke-miterlimit="10" d="
					M382,17.1c0,0,0.9,0.7,0,1.8"/>
				<path fill="#776316" d="M373.6,4.9l-6.6,0.7l-4.5,0.9c0,0-1.1,6.4-1,6.5c0.1,0,5.2-2.6,5.2-2.6l5.8-2l8.6,2.7l1.8-0.7L382,5.8
					L373.6,4.9z"/>
				<path opacity="0.3" fill="#231F20" d="M381.1,9.7l-8.7-1.3c0,0,3.5,8.2,11.3,4C383.7,12.4,381.5,11.2,381.1,9.7z"/>
				<path opacity="0.3" fill="#231F20" d="M362.6,12.3c7.7,2.1,9.8-4,9.8-4l-7.4,1.7C364.3,11.5,362.6,12.3,362.6,12.3z"/>
				<path fill="#776316" d="M381.1,9.5l-8.6-1.1c0,0,3.2,7.1,10.7,3.9C383.2,12.3,381.5,11.1,381.1,9.5z"/>
				<path fill="#776316" d="M363.3,12.2c6.3,1.1,9-3.9,9-3.9L365,9.7C364.7,11,363.3,12.2,363.3,12.2z"/>
				<path fill="#776316" d="M373.2-0.1c-1.1,0.4-1.7,3-1.7,3c0-1.3-1.3-2.5-1.3-2.5c0.4,1.7-0.8,2.1-0.8,2.1l-0.8,3.4l4.5,0.9l2.5-3
					l0.6-1.4C372.8,3.3,373.2-0.1,373.2-0.1z"/>
				<g>
					<g opacity="0.2">
						<path fill="#231F20" d="M374.7,18.1c0.1,0.1,0.2,0.2,0.3,0.4c0,0.1,0.1,0.1,0.1,0.2c0,0.1,0,0.2,0,0.3c0,0.1,0,0.2-0.1,0.3
							l-0.2,0.2c-0.1,0.1-0.1,0.1-0.2,0.1l-0.2,0.1l0,0l0,0c-0.2,0-0.4,0.1-0.6,0.2c-0.2,0.1-0.3,0.2-0.4,0.4c0,0.1-0.1,0.2-0.2,0.3
							c-0.1,0.1-0.2,0.1-0.3,0.2c-0.1,0.1-0.2,0-0.3,0.1c-0.1,0-0.2,0-0.4,0c-0.2,0-0.4,0-0.7-0.1c-0.1-0.1-0.3-0.1-0.3-0.2
							c-0.1-0.1-0.2-0.2-0.2-0.3c0-0.1,0-0.1-0.1-0.1c0,0-0.1-0.1-0.1-0.1c-0.1,0-0.1-0.1-0.2-0.1c-0.2-0.1-0.4-0.2-0.6-0.2l0,0l0,0
							l-0.2-0.1c-0.1,0-0.2-0.1-0.2-0.1l-0.2-0.2c-0.1-0.1-0.1-0.2-0.1-0.3c0-0.1,0-0.2,0-0.3c0-0.1,0.1-0.2,0.1-0.2
							c0.1-0.1,0.2-0.3,0.3-0.4c0,0,0.1,0,0.2,0c0,0,0,0.1,0,0.2l0,0c-0.1,0.1-0.2,0.2-0.2,0.3c0,0.1-0.1,0.1-0.1,0.2
							c0,0.1,0,0.1,0,0.2c0,0,0,0.1,0.1,0.1l0.1,0.1c0,0,0.1,0.1,0.2,0.1l0.2,0.1l0,0c0.2,0,0.4,0.1,0.7,0.2
							c0.1,0.1,0.2,0.1,0.3,0.2c0,0,0.1,0.1,0.1,0.1c0,0,0.1,0.1,0.1,0.1c0.1,0.1,0.1,0.1,0.2,0.2c0.1,0.1,0.2,0.1,0.2,0.1
							c0.2,0.1,0.4,0.1,0.6,0.1l0.3,0c0.1,0,0.2,0,0.3,0c0.1,0,0.2,0,0.2-0.1c0.1-0.1,0.1-0.1,0.2-0.2c0.1-0.1,0.1-0.2,0.2-0.3
							c0.1-0.1,0.2-0.1,0.3-0.2c0.2-0.1,0.4-0.2,0.7-0.2l0,0l0.2-0.1c0.1,0,0.1,0,0.2-0.1l0.1-0.1c0,0,0-0.1,0.1-0.1
							c0,0,0-0.1,0-0.2c0-0.1,0-0.1-0.1-0.2c-0.1-0.1-0.1-0.2-0.2-0.3c0,0,0-0.1,0-0.2C374.6,18.1,374.6,18.1,374.7,18.1z"/>
					</g>
					<path fill="#594D2B" d="M369.9,13.8c0,0-2.9-1.1-4.8,0.9c0,0,2.1-1.4,4.6-0.2C369.7,14.5,370.5,14.2,369.9,13.8z"/>
					
						<path fill="#C1A53B" stroke="#C1A53B" stroke-width="0.3699" stroke-linecap="round" stroke-linejoin="round" stroke-miterlimit="10" d="
						M370.4,22c-1,0.5,0.4,1.2,0.6,1.4c0.4,0.4,0.6,0.6,0.9,0.9c1.6,1.7,3.1-1.6,2.9-2.3C374.7,21.2,370.4,22,370.4,22z"/>
					<path fill="#2E2710" d="M368.4,17.3c0,0,1.9-0.5,0.6-2.4C369,14.9,369.8,16.6,368.4,17.3z"/>
					<path fill="#2E2710" d="M366,16.2c0,0,2.4-0.5,3.3,0.1C369.3,16.3,370.1,15,366,16.2z"/>
					<path fill="#594D2B" d="M374.3,13.8c-0.6,0.4,0.2,0.7,0.2,0.7c2.4-1.1,4.6,0.3,4.6,0.3C377.2,12.8,374.3,13.8,374.3,13.8z"/>
					<path fill="#2E2710" d="M375.2,14.9c-1.4,1.9,0.6,2.4,0.6,2.4C374.4,16.7,375.2,14.9,375.2,14.9z"/>
					<path fill="#2E2710" d="M374.8,16.4c1-0.6,3.3-0.1,3.3-0.1C374.1,15,374.8,16.4,374.8,16.4z"/>
				</g>
			</g>
		</g>
		
			<path display="inline" fill="none" stroke="#F3C027" stroke-width="5.3392" stroke-linecap="round" stroke-linejoin="round" stroke-miterlimit="10" d="
			M362.8,34.9c0,0-10.2-7.5-11-15.4c-0.9-8.2-0.4-10.2-0.4-14.5"/>
		<path display="inline" fill="none" stroke="#594A19" stroke-width="5.4676" stroke-linejoin="round" stroke-miterlimit="10" d="
			M362.8,34.9c0,0-10.2-7.5-11-15.4c-0.9-8.2-0.4-10.2-0.4-14.5"/>
		
			<path display="inline" fill="none" stroke="#F3C027" stroke-width="5.3392" stroke-linecap="round" stroke-linejoin="round" stroke-miterlimit="10" d="
			M381.7,32.5c0,0,10.2,7.5,11,15.4c0.9,8.2,0.4,10.2,0.4,14.5"/>
		<path display="inline" fill="none" stroke="#594A19" stroke-width="5.4676" stroke-linejoin="round" stroke-miterlimit="10" d="
			M381.7,32.5c0,0,10.2,7.5,11,15.4c0.9,8.2,0.4,10.2,0.4,14.5"/>
		
			<line display="inline" fill="none" stroke="#594A19" stroke-width="6.08" stroke-linecap="round" stroke-linejoin="round" stroke-miterlimit="10" x1="366" y1="61.3" x2="365.8" y2="91.1"/>
		
			<line display="inline" fill="none" stroke="#594A19" stroke-width="6.08" stroke-linecap="round" stroke-linejoin="round" stroke-miterlimit="10" x1="377.3" y1="61.4" x2="377.2" y2="91.2"/>
		<path display="inline" fill="#F3C027" d="M357.4,60L357.4,60L357.4,60z"/>
		<path display="inline" fill="#F3C027" d="M357.5,48.4c-0.1,10.4-0.1,11.6-0.1,11.6v0v0v0v0v0c0,0,0,0,0,0v0v0c0,0,0,0,0,0
			c0,0,1.5,0,1.5,0l13.1,0.1l0.2-29l-10.1-0.1C360.5,37.7,357.5,37.2,357.5,48.4z"/>
		<path display="inline" fill="#F3C027" d="M386.2,48.6c0.1-11.2-2.9-10.7-4.5-17.3l-10.1-0.1l-0.2,29l13.1,0.1c0,0,1.5,0,1.5,0
			c0,0,0,0,0,0v0C386.1,60.1,386.2,59,386.2,48.6z"/>
		<path display="inline" fill="#F3C027" d="M386.1,60.2L386.1,60.2L386.1,60.2z"/>
		<polygon display="inline" fill="#F3C027" points="386.1,60.2 386.1,60.2 386.1,60.2 		"/>
		<path display="inline" fill="#715F19" d="M371.7,72.3c8,0,14.5-4.9,14.6-12.9l-29-0.2C357.2,67.2,363.7,72.2,371.7,72.3z"/>
		<path display="inline" fill="#594A19" d="M354.1,95.8l14.7,0.1l0-3.9C360.7,92,354.1,93.7,354.1,95.8z"/>
		<path display="inline" fill="#594A19" d="M374.1,92.1l0,3.9l14.7,0.1C388.8,93.9,382.2,92.1,374.1,92.1z"/>
		
			<rect x="362.4" y="90.1" transform="matrix(-1 -5.840658e-03 5.840658e-03 -1 730.9659 184.5497)" display="inline" fill="#715F19" width="6.7" height="2.3"/>
		
			<rect x="373.8" y="90.1" transform="matrix(-1 -6.134861e-03 6.134861e-03 -1 753.7542 184.8639)" display="inline" fill="#715F19" width="6.7" height="2.3"/>
		
			<rect x="357.4" y="59.3" transform="matrix(-1 -6.031389e-03 6.031389e-03 -1 743.212 123.0226)" display="inline" fill="#443715" width="28.8" height="2.2"/>
		
			<rect x="369.9" y="59.3" transform="matrix(-1 -5.931732e-03 5.931732e-03 -1 743.4829 122.9883)" display="inline" fill="#D6C07E" width="4.1" height="2.2"/>
		
			<rect x="361.9" y="30.9" transform="matrix(-1 -6.050224e-03 6.050224e-03 -1 743.2379 92.4584)" display="inline" fill="#FFE6A9" width="19.7" height="28.5"/>
		<path display="inline" fill="#594A19" d="M355.6,52.5c0,0-0.2,6.9-0.7,10c0,0,0.9,0.4,3.2,0.4c0,0,4.7,0.6,5.2,0l-0.1-6.9
			L355.6,52.5z"/>
		<path display="inline" fill="#594A19" d="M355.9,59.5l7.4,0l0.2-29.6l-2.2,0C353.8,37.9,355.9,59.5,355.9,59.5z"/>
		<path display="inline" fill="#594A19" d="M388.7,53.6l-8,2.6l-0.2,6.9c0.5,0.6,4.8,0.3,4.8,0.3c2.3,0,4-0.4,4-0.4
			C388.6,60.6,388.7,53.6,388.7,53.6z"/>
		<path display="inline" fill="#594A19" d="M383,30l-2.2,0l-0.2,29.6l8,0C388.6,59.7,390.1,35.2,383,30z"/>
		<polygon display="inline" fill="#715F19" points="363.1,35.4 359.3,40.2 363.2,54.8 363.4,29.9 359.4,35.1 		"/>
		<polygon display="inline" fill="#715F19" points="380.7,30 380.6,54.9 384.7,40.3 380.9,35.5 384.7,35.3 		"/>
		<g display="inline">
			<g>
				<polygon fill="#EAC97F" points="369.1,31 372,33.9 375.1,31 372.1,30.2 				"/>
				<path fill="#EAC97F" d="M372.1,31.7l0-0.1L372.1,31.7l-0.1-0.1l0,0.1l-0.9,0.9l-2.3,20.5c0,0,2.3,5.3,3.1,5.3
					c1,0,3.1-5.3,3.1-5.3l-2-20.5L372.1,31.7z"/>
			</g>
			<polygon fill="#D6C07E" points="361.2,27.5 361.2,29.9 369,33.5 372.2,30.2 362.1,27.8 			"/>
			<polygon fill="#D6C07E" points="372.1,30.2 375.2,33.6 383.1,30 383.1,27.6 382.3,27.9 			"/>
		</g>
		<g display="inline">
			<path fill="#F3C027" d="M372.3,29.7c-5.1,0-7.3-2.8-7.3-2.8s1.2,3.7,7,3.8c5.9,0,7-3.7,7-3.7C375.7,30.1,372.3,29.7,372.3,29.7z"
				/>
		</g>
	</g>
	<g>
		<path fill="#77601F" d="M372.9,52.5c0,0-0.9,1-3.1-0.3c0,0-3.6,3-4.5-1.8c0,0-4.2,2.1-3.4-2.5c0,0-4.3,1.9-3.6-2
			c0,0-3.3-1.8-0.9-5.3c0,0-6.7-1-5.7-5c0,0-6.1,0.9-5.6-3.6c0,0-3.2-2.5-1.1-3.6c0,0-12.3-1.9-8.9-8.1c0,0-7.8-1.5-5.9-7.2
			c0,0-4.9-4.2,0-5.6c0,0-3.9-4.3-1.1-6.9c0,0,3.5,1.3,6.1,4.6c0,0,14.3,8.4,17.1,11.5c0,0,9.6,6.6,12.3,12.7c0,0,2.4,3.7,3.3,3.9
			c0,0,5.8,1.8,7.2,5.3C375.2,38.6,378.1,49.9,372.9,52.5z"/>
		<path fill="#77601F" d="M379.4,38c0,0,1.5-9.7,7.8-12.2c0,0,1.5-0.2,2.3,0.3c0,0,7.4,0.3,8.5-0.4c0,0,6.7-1.4,7.8-0.8
			c0,0,2.1,0.7,0.7,2c0,0,0.2,1.8-5.8,3c0,0,4.3-0.1,3.9,2c0,0,0.7,0.7-3.2,1.7l-1.5,0.4c0,0,0.5,2-1.5,2.5c0,0-0.2,0.5-1.8,0.8
			c0,0-0.4,0.2,0.6,1.1c0,0,1,0.4,0,1.5c0,0-1.4,1.4-3.2,0.2c0,0-1.1-0.2-1.4-0.2c0,0-0.4,1.1-1.1,1.5c0,0,0.7,2.2-2.2,2.2
			c0,0,0.1,2.1-2.7,2.5C386.4,46.2,377.6,45.3,379.4,38z"/>
		<path fill="#776316" d="M362,20c0,0-0.9,0.3-0.9,1.9c0,0.5,0.3,1.9-0.7,1.9c0,0,1.2,0.1,1.5-0.6c0,0-0.1,1.4-0.6,1.7
			c0,0,3.3,1.4,3.8-1.7l-0.3-4.6C364.9,18.7,362.9,17.8,362,20z"/>
		<path fill="#776316" d="M381.8,20c0,0,0.9,0.3,0.9,1.9c0,0.5-0.3,1.9,0.7,1.9c0,0-1.2,0.1-1.5-0.6c0,0,0.1,1.4,0.6,1.7
			c0,0-3.3,1.4-3.8-1.7l0.3-4.6C378.9,18.7,380.9,17.8,381.8,20z"/>
		<g>
			<polygon fill="#594A19" points="360.9,28.4 363.1,28.1 363.5,30.6 			"/>
			<polygon fill="#594A19" points="382.6,28.3 380.4,28 380,30.5 			"/>
			<path fill="#F3C027" d="M385.1,42.6h-26.3c0,0,4.3-15.7,4.3-23.3c0-4.4,17.6-4.4,17.6,0C380.7,30.2,385.1,42.6,385.1,42.6z"/>
			<g>
				<path fill="#776316" d="M372.1,4.5c0,0-3.4-4.7-9.8,0.1c-2.6,1.9-3.7,10,0.6,14.3l9.4-10.4L372.1,4.5z"/>
				<path fill="#776316" d="M372.1,4.5c0,0,3.4-4.7,9.8,0.1c2.6,1.9,3.7,10-0.6,14.3l-9.4-10.4L372.1,4.5z"/>
				<path fill="#F3C027" d="M380.2,9.9c0,0-3-3.7-8.6-3.7c-5.6-0.1-8,3.7-8,3.7c-2,3.2-1.4,13-1.4,13c0,4.9,6.8,8.8,9.7,8.8
					c2.9,0,9.7-3.6,9.7-8.8C381.7,22.9,382.2,13.1,380.2,9.9z"/>
				<g>
					<path opacity="0.1" fill="#232222" d="M376.4,26.3c0,0-0.7,2.6-4.6,2.6c-3.8,0-4.6-2.6-4.6-2.6s1.4,1.9,4.7,1.9
						C372,28.2,374.2,28.4,376.4,26.3z"/>
				</g>
				<path fill="#F3C027" d="M363.1,17c0,0-1.8-3-2.5-0.2c-0.2,0.9-0.2,5.5,2.4,2.6"/>
				
					<path fill="none" stroke="#C1A53B" stroke-width="0.2919" stroke-linecap="round" stroke-linejoin="round" stroke-miterlimit="10" d="
					M361.9,17.1c0,0-1,0.7,0,1.8"/>
				<path fill="#F3C027" d="M380.6,17c0,0,1.8-3,2.5-0.2c0.2,0.9,0.2,5.5-2.4,2.6"/>
				
					<path fill="none" stroke="#C1A53B" stroke-width="0.2919" stroke-linecap="round" stroke-linejoin="round" stroke-miterlimit="10" d="
					M381.8,17.1c0,0,1,0.7,0,1.8"/>
				<g display="none">
					<g display="inline" opacity="0.2">
						<path fill="#231F20" d="M374.4,18c0.1,0.1,0.2,0.2,0.3,0.4c0,0.1,0.1,0.1,0.1,0.2c0,0.1,0,0.2,0,0.3c0,0.1,0,0.2-0.1,0.3
							l-0.2,0.2c-0.1,0.1-0.1,0.1-0.2,0.1l-0.2,0.1l0,0l0,0c-0.2,0-0.4,0.1-0.6,0.2c-0.2,0.1-0.3,0.2-0.4,0.4c0,0.1-0.1,0.2-0.2,0.3
							c-0.1,0.1-0.2,0.1-0.3,0.2c-0.1,0.1-0.2,0-0.3,0.1c-0.1,0-0.2,0-0.4,0c-0.2,0-0.4,0-0.7-0.1c-0.1-0.1-0.3-0.1-0.3-0.2
							c-0.1-0.1-0.2-0.2-0.3-0.3c0-0.1,0-0.1-0.1-0.1c0,0-0.1-0.1-0.1-0.1c-0.1,0-0.1-0.1-0.2-0.1c-0.2-0.1-0.4-0.1-0.6-0.2l0,0l0,0
							l-0.2-0.1c-0.1,0-0.2-0.1-0.2-0.1l-0.2-0.2c-0.1-0.1-0.1-0.2-0.1-0.3c0-0.1,0-0.2,0-0.3c0-0.1,0.1-0.2,0.1-0.2
							c0.1-0.1,0.2-0.3,0.3-0.4c0,0,0.1,0,0.2,0c0,0,0,0.1,0,0.2l0,0c-0.1,0.1-0.2,0.2-0.2,0.3c0,0.1-0.1,0.1-0.1,0.2
							c0,0.1,0,0.1,0,0.2c0,0,0,0.1,0.1,0.1l0.1,0.1c0,0,0.1,0.1,0.2,0.1l0.2,0.1l0,0c0.2,0,0.4,0.1,0.7,0.2c0.1,0,0.2,0.1,0.3,0.2
							c0,0,0.1,0.1,0.1,0.1c0,0,0.1,0.1,0.1,0.1c0.1,0.1,0.1,0.1,0.2,0.2c0.1,0.1,0.2,0.1,0.2,0.1c0.2,0.1,0.4,0,0.6,0.1l0.3,0
							c0.1,0,0.2,0,0.3,0c0.1,0,0.2,0,0.2-0.1c0.1-0.1,0.1-0.1,0.2-0.2c0.1-0.1,0.1-0.2,0.2-0.3c0.1-0.1,0.2-0.1,0.3-0.2
							c0.2-0.1,0.4-0.2,0.7-0.2l0,0l0.2-0.1c0.1,0,0.1,0,0.2-0.1l0.1-0.1c0,0,0-0.1,0.1-0.1c0,0,0-0.1,0-0.2c0-0.1,0-0.1-0.1-0.2
							c-0.1-0.1-0.1-0.2-0.2-0.3c0,0,0-0.1,0-0.2C374.2,17.9,374.3,18,374.4,18z"/>
					</g>
					<ellipse display="inline" fill="#2E230E" cx="367.1" cy="15.4" rx="0.5" ry="0.5"/>
					<path display="inline" fill="#593B2E" d="M364.3,15.2c0,0,1.8-1.7,4.4-1.1c0,0,0.7-0.4,0.1-0.7
						C368.8,13.4,365.7,12.9,364.3,15.2z"/>
					<ellipse display="inline" fill="#2E230E" cx="376.5" cy="15.4" rx="0.5" ry="0.5"/>
					<path display="inline" fill="#593B2E" d="M379.4,14.9c0,0-2-1.6-4.5-0.6c0,0-0.8-0.4-0.2-0.7C374.7,13.6,377.7,12.8,379.4,14.9
						z"/>
					
						<path display="inline" fill="none" stroke="#C18963" stroke-width="0.3667" stroke-linecap="round" stroke-linejoin="round" stroke-miterlimit="10" d="
						M369,22.1c0,0,3.1,1.7,5.8-0.3"/>
				</g>
				<g>
					<g opacity="0.2">
						<path fill="#231F20" d="M374.4,18.2c0.1,0.1,0.2,0.2,0.3,0.4c0,0.1,0.1,0.1,0.1,0.2c0,0.1,0,0.2,0,0.3c0,0.1,0,0.2-0.1,0.3
							l-0.2,0.2c-0.1,0.1-0.1,0.1-0.2,0.1l-0.2,0.1l0,0l0,0c-0.2,0-0.4,0.1-0.6,0.2c-0.2,0.1-0.3,0.2-0.4,0.4c0,0.1-0.1,0.2-0.2,0.3
							c-0.1,0.1-0.2,0.1-0.3,0.2c-0.1,0.1-0.2,0-0.3,0.1c-0.1,0-0.2,0-0.4,0c-0.2,0-0.4,0-0.7-0.1c-0.1-0.1-0.3-0.1-0.4-0.2
							c-0.1-0.1-0.2-0.2-0.3-0.3c0-0.1,0-0.1-0.1-0.1c0,0-0.1-0.1-0.1-0.1c-0.1,0-0.1-0.1-0.2-0.1c-0.2-0.1-0.4-0.2-0.6-0.2l0,0l0,0
							l-0.2-0.1c-0.1,0-0.2-0.1-0.2-0.1l-0.2-0.2c-0.1-0.1-0.1-0.2-0.1-0.3c0-0.1,0-0.2,0-0.3c0-0.1,0.1-0.2,0.1-0.2
							c0.1-0.2,0.2-0.3,0.3-0.4c0,0,0.1,0,0.2,0c0,0,0,0.1,0,0.2l0,0c-0.1,0.1-0.2,0.2-0.2,0.3c0,0.1-0.1,0.1-0.1,0.2
							c0,0.1,0,0.1,0,0.2c0,0,0,0.1,0.1,0.1l0.1,0.1c0,0,0.1,0.1,0.2,0.1l0.2,0.1l0,0c0.2,0,0.5,0.1,0.7,0.2c0.1,0,0.2,0.1,0.3,0.2
							c0,0,0.1,0.1,0.1,0.1c0,0,0.1,0.1,0.1,0.1c0.1,0.1,0.1,0.1,0.2,0.2c0.1,0.1,0.2,0.1,0.2,0.1c0.2,0.1,0.4,0.1,0.6,0.1l0.3,0
							c0.1,0,0.2,0,0.3,0c0.1,0,0.2,0,0.2-0.1c0.1-0.1,0.1-0.1,0.2-0.2c0.1-0.1,0.1-0.2,0.2-0.3c0.1-0.1,0.2-0.1,0.3-0.2
							c0.2-0.1,0.4-0.2,0.7-0.2l0,0l0.2-0.1c0.1,0,0.1,0,0.2-0.1l0.1-0.1c0,0,0-0.1,0.1-0.1c0,0,0-0.1,0-0.2c0-0.1,0-0.1-0.1-0.2
							c-0.1-0.1-0.1-0.2-0.2-0.3c0,0,0-0.1,0-0.2C374.3,18.2,374.3,18.2,374.4,18.2z"/>
					</g>
					<path fill="#594D2B" d="M369.6,13.9c0,0-3-1.1-4.8,0.9c0,0,2.2-1.4,4.6-0.2C369.3,14.6,370.2,14.3,369.6,13.9z"/>
					
						<path fill="#C1A53B" stroke="#C1A53B" stroke-width="0.3694" stroke-linecap="round" stroke-linejoin="round" stroke-miterlimit="10" d="
						M370.1,22.1c-1,0.5,0.5,1.2,0.6,1.4c0.4,0.4,0.6,0.6,0.9,0.9c1.7,1.7,3.1-1.6,2.9-2.4C374.4,21.2,370.1,22.1,370.1,22.1z"/>
					<path fill="#2E2710" d="M368.1,17.4c0,0,2-0.5,0.6-2.4C368.7,15,369.5,16.8,368.1,17.4z"/>
					<path fill="#2E2710" d="M365.6,16.4c0,0,2.4-0.5,3.4,0.1C369,16.4,369.7,15.1,365.6,16.4z"/>
					<path fill="#594D2B" d="M374,13.9c-0.6,0.4,0.2,0.7,0.2,0.7c2.5-1.1,4.6,0.2,4.6,0.2C376.9,12.8,374,13.9,374,13.9z"/>
					<path fill="#2E2710" d="M374.9,15c-1.4,1.9,0.6,2.4,0.6,2.4C374.1,16.8,374.9,15,374.9,15z"/>
					<path fill="#2E2710" d="M374.5,16.4c1-0.6,3.4-0.1,3.4-0.1C373.8,15.1,374.5,16.4,374.5,16.4z"/>
				</g>
				<path fill="#776316" d="M362,6.7c0,0-1.1,6.4-0.9,6.4c0.1,0,5.2-2.6,5.2-2.6l5.9-2l8.7,2.7l1.8-0.7l-0.9-4.6L373.2,5l-6.7,0.7
					L362,6.7z"/>
				<path opacity="0.3" fill="#231F20" d="M372.1,8.5c0,0,3.5,8.1,11.4,4c0,0-2.3-1.2-2.6-2.7"/>
				<path opacity="0.3" fill="#231F20" d="M372,8.4c0,0-2.1,6.1-9.9,4.1c0,0,1.8-0.8,2.4-2.3"/>
				<path fill="#776316" d="M372.5,8.5c0,0,3.3,7,10.8,3.9c0,0-1.7-1.2-2.1-2.8"/>
				<path fill="#776316" d="M372,8.4c0,0-2.7,5-9.1,3.9c0,0,1.4-1.2,1.6-2.5"/>
				<path fill="#776316" d="M369,2.6c0,0,1.2-0.4,0.8-2.1c0,0,1.3,1.3,1.3,2.5c0,0,0.5-2.6,1.7-3c0,0-0.4,3.5,3,2.4l-0.6,1.4l-2.5,3
					L368.3,6L369,2.6z"/>
			</g>
		</g>
		
			<path fill="none" stroke="#F3C027" stroke-width="5.3628" stroke-linecap="round" stroke-linejoin="round" stroke-miterlimit="10" d="
			M362.5,35.3c0,0-10.3-7.4-11.2-15.3c-0.9-8.2-0.5-10.2-0.5-14.5"/>
		<path fill="none" stroke="#594A19" stroke-width="5.4607" stroke-linejoin="round" stroke-miterlimit="10" d="M362.5,35.3
			c0,0-10.3-7.4-11.2-15.3c-0.9-8.2-0.5-10.2-0.5-14.5"/>
		
			<path fill="none" stroke="#F3C027" stroke-width="5.3628" stroke-linecap="round" stroke-linejoin="round" stroke-miterlimit="10" d="
			M381.6,32.5c0,0,10.3,7.4,11.2,15.3c0.9,8.2,0.5,10.2,0.5,14.5"/>
		<path fill="none" stroke="#594A19" stroke-width="5.4607" stroke-linejoin="round" stroke-miterlimit="10" d="M381.6,32.5
			c0,0,10.3,7.4,11.2,15.3c0.9,8.2,0.5,10.2,0.5,14.5"/>
		
			<line fill="none" stroke="#594A19" stroke-width="6.0723" stroke-linecap="round" stroke-linejoin="round" stroke-miterlimit="10" x1="365.9" y1="61.4" x2="365.9" y2="91.1"/>
		
			<line fill="none" stroke="#594A19" stroke-width="6.0723" stroke-linecap="round" stroke-linejoin="round" stroke-miterlimit="10" x1="377.4" y1="61.4" x2="377.4" y2="91.1"/>
		<path fill="#F4B07D" d="M361.8,31.3c-1.6,6.6-4.6,6.1-4.6,17.3c0,13.8,0,11.3,0,11.7c0,0,1.5,0,1.5,0H372v-29H361.8z"/>
		<path fill="#F4B07D" d="M381.6,31.3c1.6,6.6,4.6,6.1,4.6,17.3c0,13.8,0,11.3,0,11.7c0,0-1.5,0-1.5,0h-13.2v-29H381.6z"/>
		<ellipse opacity="0.2" fill="#232222" cx="371.9" cy="54.1" rx="0.4" ry="0.7"/>
		<path fill="#715F19" d="M371.7,72.3c8.1,0,14.6-5,14.6-13h-29.3C357.1,67.3,363.6,72.3,371.7,72.3z"/>
		<path fill="#594A19" d="M368.9,92c-8.2,0-14.9,1.7-14.9,3.9h14.9V92z"/>
		<path fill="#594A19" d="M374.3,92c8.2,0,14.9,1.7,14.9,3.9h-14.9V92z"/>
		<rect x="362.4" y="90.1" fill="#715F19" width="6.8" height="2.3"/>
		<rect x="374" y="90.1" fill="#715F19" width="6.8" height="2.3"/>
		<rect x="357.2" y="59.4" fill="#443715" width="29.1" height="2.2"/>
		<rect x="369.8" y="59.4" fill="#D6C07E" width="4.2" height="2.2"/>
		<rect x="361.7" y="30.9" fill="#FFFFFF" width="19.9" height="28.5"/>
		<g>
			<ellipse opacity="0.2" fill="#232222" cx="371.8" cy="54.2" rx="0.4" ry="0.7"/>
			<path fill="#9B7E2F" d="M366.5,45.5l-1.7-3.2l2.9,1.4l3.1,1.1l2.9-0.2l5.6-2.4l-2,3.2l9.9-3.1c-0.8-5.3-2.2-10.3-5-12.3
				l-10.8,2.2h-0.5l-10-2.2c-2.7,2.9-4.1,7.6-4.8,12.4L366.5,45.5z"/>
			<path fill="#E5CF07" d="M387.4,42.6L377,45.8l1.9-3.1l-5.2,2.2l-2.9,0.2l-3.1-1.1l-2.5-1.2l1.6,3l-10.6-3c-1.2,8.4-0.3,17-0.3,17
				h15.4h0.8h15.9C388.1,59.8,388.6,50.8,387.4,42.6z"/>
		</g>
		<g>
			<path fill="#906F21" d="M371.3,44.3c0,0.1-13.1-6.1-13.1-6.1l3.5,4l-4.7-2.4l-0.2,1.1l7.5,3l-2.7-3.4l9.6,4L371.3,44.3z"/>
			<polygon fill="#D6C07E" points="371.5,45.2 362.6,41.3 365.4,44.7 356.5,42.1 356,43.2 368.4,46.6 365.6,43.4 371.2,45.6 			"/>
			<g>
				<polygon fill="none" points="365.6,43.4 365.8,43.6 365.8,43.5 				"/>
				<polygon fill="none" points="367.2,44 367.2,45.2 367.5,45.6 367.5,44.1 				"/>
				<polygon fill="none" points="366.9,43.9 366.9,44.9 367.1,45.2 367.1,44 				"/>
				<polygon fill="none" points="365.9,43.5 365.9,43.7 366.1,44 366.1,43.6 				"/>
				<polygon fill="none" points="365.4,44.7 365.2,44.4 365.2,44.6 				"/>
				<polygon fill="none" points="361.9,43.7 361.9,44.8 362.2,44.9 362.2,43.7 				"/>
				<polygon fill="none" points="356.9,42.3 356.9,43.5 357.2,43.5 357.2,42.3 				"/>
				<polygon fill="none" points="370.8,44.9 370.8,45.5 371.1,45.6 371.1,45 				"/>
				<polygon fill="none" points="356.6,42.2 356.6,43.4 356.9,43.5 356.9,42.2 				"/>
				<polygon fill="none" points="356.5,42.1 356.3,42.7 356.3,43.3 356.6,43.4 356.6,42.2 				"/>
				<polygon fill="none" points="371.2,45.1 371.2,45.6 371.2,45.6 371.4,45.3 371.4,45.2 				"/>
				<polygon fill="none" points="359.9,43.1 359.9,44.3 360.2,44.4 360.2,43.2 				"/>
				<polygon fill="none" points="356,43.2 356.2,43.3 356.2,42.8 				"/>
				<polygon fill="none" points="359.6,43 359.6,44.2 359.9,44.3 359.9,43.1 				"/>
				<polygon fill="none" points="359.3,42.9 359.3,44.1 359.5,44.2 359.5,43 				"/>
				<polygon fill="none" points="360.6,43.3 360.6,44.5 360.9,44.6 360.9,43.4 				"/>
				<polygon fill="none" points="358.9,42.8 358.9,44 359.2,44.1 359.2,42.9 				"/>
				<polygon fill="none" points="362.2,43.8 362.2,44.9 362.5,45 362.5,43.8 				"/>
				<polygon fill="none" points="358.6,42.7 358.6,43.9 358.9,44 358.9,42.8 				"/>
				<polygon fill="none" points="360.9,43.4 360.9,44.6 361.2,44.6 361.2,43.5 				"/>
				<polygon fill="none" points="368.4,46.6 368.2,46.4 368.2,46.6 				"/>
				<polygon fill="none" points="360.3,43.2 360.3,44.4 360.5,44.5 360.5,43.3 				"/>
				<polygon fill="none" points="357.3,42.4 357.3,43.6 357.5,43.6 357.5,42.4 				"/>
				<polygon fill="none" points="361.2,43.5 361.2,44.7 361.5,44.7 361.5,43.6 				"/>
				<polygon fill="none" points="361.6,43.6 361.6,44.8 361.8,44.8 361.8,43.6 				"/>
				<polygon fill="none" points="357.9,42.5 357.9,43.7 358.2,43.8 358.2,42.6 				"/>
				<polygon fill="none" points="357.6,42.5 357.6,43.7 357.9,43.7 357.9,42.5 				"/>
				<polygon fill="none" points="358.3,42.6 358.3,43.8 358.5,43.9 358.5,42.7 				"/>
				<polygon fill="none" points="369.5,44.4 369.5,44.9 369.8,45 369.8,44.5 				"/>
				<polygon fill="none" points="365.2,42.5 365.2,44.4 365.4,44.7 365.2,44.6 365.2,45.8 365.5,45.8 365.5,42.6 				"/>
				<polygon fill="none" points="369.2,44.2 369.2,44.8 369.5,44.9 369.5,44.3 				"/>
				<polygon fill="none" points="367.5,44.1 367.5,43.5 367.2,43.4 367.2,44 				"/>
				<polygon fill="none" points="364.9,44.5 364.9,45.7 365.2,45.8 365.2,44.6 				"/>
				<polygon fill="none" points="368.1,44.4 368.1,43.8 367.9,43.6 367.9,44.3 				"/>
				<polygon fill="none" points="368.8,44.1 368.8,44.7 369.1,44.8 369.1,44.2 				"/>
				<polygon fill="none" points="367.8,44.3 367.8,43.6 367.5,43.5 367.5,44.2 				"/>
				<polygon fill="none" points="363.2,44 363.2,45.2 363.5,45.3 363.5,44.1 				"/>
				<polygon fill="none" points="362.9,43.9 362.9,45.1 363.2,45.2 363.2,44 				"/>
				<polygon fill="none" points="362.6,43.9 362.6,45 362.8,45.1 362.8,43.9 				"/>
				<polygon fill="none" points="364.6,44.4 364.6,45.6 364.8,45.7 364.8,44.5 				"/>
				<polygon fill="none" points="364.2,44.3 364.2,45.5 364.5,45.6 364.5,44.4 				"/>
				<polygon fill="none" points="363.6,44.1 363.6,45.3 363.8,45.4 363.8,44.2 				"/>
				<polygon fill="none" points="363.9,44.2 363.9,45.4 364.2,45.5 364.2,44.3 				"/>
				<polygon fill="none" points="366.5,44.5 366.5,46.1 366.8,46.2 366.8,44.8 				"/>
				<polygon fill="none" points="362.8,41.7 362.8,41.5 362.6,41.4 362.6,41.4 				"/>
				<polygon fill="none" points="366.9,44.9 366.9,46.2 367.1,46.3 367.1,45.2 				"/>
				<polygon fill="none" points="367.5,45.6 367.5,46.4 367.8,46.5 367.8,46 				"/>
				<polygon fill="none" points="367.2,45.2 367.2,46.3 367.5,46.4 367.5,45.6 				"/>
				<polygon fill="none" points="367.9,46 367.9,46.5 368.1,46.6 368.1,46.4 				"/>
				<polygon fill="none" points="368.5,43.9 368.5,44.5 368.8,44.7 368.8,44 				"/>
				<polygon fill="none" points="368.2,43.8 368.2,44.4 368.5,44.5 368.5,43.9 				"/>
				<polygon fill="none" points="366.2,44.1 366.2,46 366.5,46.1 366.5,44.4 				"/>
				<polygon fill="none" points="366.5,43.7 366.5,43 366.2,42.9 366.2,43.6 				"/>
				<polygon fill="none" points="366.1,43.6 366.1,42.9 365.9,42.8 365.9,43.5 				"/>
				<polygon fill="none" points="366.8,43.9 366.8,43.2 366.5,43.1 366.5,43.8 				"/>
				<polygon fill="none" points="367.1,44 367.1,43.3 366.9,43.2 366.9,43.9 				"/>
				<polygon fill="none" points="365.9,43.7 365.9,46 366.1,46 366.1,44 				"/>
				<polygon fill="none" points="365.6,43.4 365.8,43.5 365.8,42.8 365.5,42.6 365.5,45.9 365.8,45.9 365.8,43.6 				"/>
				<polygon fill="none" points="363.5,42.4 363.5,41.8 363.2,41.6 363.2,42.1 				"/>
				<polygon fill="none" points="363.2,42.1 363.2,41.6 362.9,41.5 362.9,41.7 				"/>
				<polygon fill="none" points="370.2,44.6 370.2,45.2 370.4,45.3 370.4,44.8 				"/>
				<polygon fill="none" points="364.5,43.6 364.5,42.2 364.2,42.1 364.2,43.3 				"/>
				<polygon fill="none" points="369.8,44.5 369.8,45.1 370.1,45.2 370.1,44.6 				"/>
				<polygon fill="none" points="364.2,43.2 364.2,42 363.9,41.9 363.9,42.9 				"/>
				<polygon fill="none" points="370.5,44.8 370.5,45.3 370.8,45.4 370.8,44.9 				"/>
				<polygon fill="none" points="363.8,42.8 363.8,41.9 363.6,41.8 363.6,42.5 				"/>
				<polygon fill="none" points="364.8,43.9 364.8,42.3 364.6,42.2 364.6,43.6 				"/>
				<polygon fill="none" points="365.2,44.3 365.2,42.5 364.9,42.4 364.9,44 				"/>
				<polygon fill="#736529" points="356.2,42.8 356.2,43.3 356.3,43.3 356.3,42.7 				"/>
				<polygon fill="#736529" points="356.6,42.2 356.6,43.4 356.6,43.4 356.6,42.2 				"/>
				<polygon fill="#736529" points="356.9,42.2 356.9,43.5 356.9,43.5 356.9,42.3 				"/>
				<polygon fill="#736529" points="357.2,42.3 357.2,43.5 357.3,43.6 357.3,42.4 				"/>
				<polygon fill="#736529" points="357.5,42.4 357.5,43.6 357.6,43.7 357.6,42.5 				"/>
				<polygon fill="#736529" points="357.9,42.5 357.9,43.7 357.9,43.7 357.9,42.5 				"/>
				<polygon fill="#736529" points="358.2,42.6 358.2,43.8 358.3,43.8 358.3,42.6 				"/>
				<polygon fill="#736529" points="358.5,42.7 358.5,43.9 358.6,43.9 358.6,42.7 				"/>
				<polygon fill="#736529" points="358.9,42.8 358.9,44 358.9,44 358.9,42.8 				"/>
				<polygon fill="#736529" points="359.2,42.9 359.2,44.1 359.3,44.1 359.3,42.9 				"/>
				<polygon fill="#736529" points="359.5,43 359.5,44.2 359.6,44.2 359.6,43 				"/>
				<polygon fill="#736529" points="359.9,43.1 359.9,44.3 359.9,44.3 359.9,43.1 				"/>
				<polygon fill="#736529" points="360.2,43.2 360.2,44.4 360.3,44.4 360.3,43.2 				"/>
				<polygon fill="#736529" points="360.5,43.3 360.5,44.5 360.6,44.5 360.6,43.3 				"/>
				<polygon fill="#736529" points="360.9,43.4 360.9,44.6 360.9,44.6 360.9,43.4 				"/>
				<polygon fill="#736529" points="361.2,43.5 361.2,44.6 361.2,44.7 361.2,43.5 				"/>
				<polygon fill="#736529" points="361.5,43.6 361.5,44.7 361.6,44.8 361.6,43.6 				"/>
				<polygon fill="#736529" points="361.8,43.6 361.8,44.8 361.9,44.8 361.9,43.7 				"/>
				<polygon fill="#736529" points="362.2,43.7 362.2,44.9 362.2,44.9 362.2,43.8 				"/>
				<polygon fill="#736529" points="362.5,43.8 362.5,45 362.6,45 362.6,43.9 				"/>
				<polygon fill="#736529" points="362.6,41.4 362.6,41.4 362.6,41.3 				"/>
				<polygon fill="#736529" points="362.9,41.7 362.9,41.5 362.8,41.5 362.8,41.7 				"/>
				<polygon fill="#736529" points="362.8,43.9 362.8,45.1 362.9,45.1 362.9,43.9 				"/>
				<polygon fill="#736529" points="363.2,42.1 363.2,41.6 363.2,41.6 363.2,42.1 				"/>
				<polygon fill="#736529" points="363.2,44 363.2,45.2 363.2,45.2 363.2,44 				"/>
				<polygon fill="#736529" points="363.6,42.5 363.6,41.8 363.5,41.8 363.5,42.4 				"/>
				<polygon fill="#736529" points="363.5,44.1 363.5,45.3 363.6,45.3 363.6,44.1 				"/>
				<polygon fill="#736529" points="363.9,42.9 363.9,41.9 363.8,41.9 363.8,42.8 				"/>
				<polygon fill="#736529" points="363.8,44.2 363.8,45.4 363.9,45.4 363.9,44.2 				"/>
				<polygon fill="#736529" points="364.2,43.3 364.2,42.1 364.2,42 364.2,43.2 				"/>
				<polygon fill="#736529" points="364.2,44.3 364.2,45.5 364.2,45.5 364.2,44.3 				"/>
				<polygon fill="#736529" points="364.6,43.6 364.6,42.2 364.5,42.2 364.5,43.6 				"/>
				<polygon fill="#736529" points="364.5,44.4 364.5,45.6 364.6,45.6 364.6,44.4 				"/>
				<polygon fill="#736529" points="364.9,44 364.9,42.4 364.8,42.3 364.8,43.9 				"/>
				<polygon fill="#736529" points="364.8,44.5 364.8,45.7 364.9,45.7 364.9,44.5 				"/>
				<polygon fill="#736529" points="365.2,44.6 365.2,45.8 365.2,45.8 365.2,44.6 				"/>
				<polygon fill="#736529" points="365.2,44.4 365.2,42.5 365.2,42.5 365.2,44.3 				"/>
				<polygon fill="#736529" points="365.5,42.6 365.5,45.8 365.5,45.9 365.5,42.6 				"/>
				<polygon fill="#736529" points="365.9,43.5 365.9,42.8 365.8,42.8 365.8,43.5 				"/>
				<polygon fill="#736529" points="365.8,43.6 365.8,45.9 365.9,46 365.9,43.7 				"/>
				<polygon fill="#736529" points="366.1,44 366.1,46 366.2,46 366.2,44.1 				"/>
				<polygon fill="#736529" points="366.2,43.6 366.2,42.9 366.1,42.9 366.1,43.6 				"/>
				<polygon fill="#736529" points="366.5,44.4 366.5,46.1 366.5,46.1 366.5,44.5 				"/>
				<polygon fill="#736529" points="366.5,43.8 366.5,43.1 366.5,43 366.5,43.7 				"/>
				<polygon fill="#736529" points="366.9,43.9 366.9,43.2 366.8,43.2 366.8,43.9 				"/>
				<polygon fill="#736529" points="366.8,44.8 366.8,46.2 366.9,46.2 366.9,44.9 				"/>
				<polygon fill="#736529" points="367.1,45.2 367.1,46.3 367.2,46.3 367.2,45.2 				"/>
				<polygon fill="#736529" points="367.2,44 367.2,43.4 367.1,43.3 367.1,44 				"/>
				<polygon fill="#736529" points="367.5,45.6 367.5,46.4 367.5,46.4 367.5,45.6 				"/>
				<polygon fill="#736529" points="367.5,44.2 367.5,43.5 367.5,43.5 367.5,44.1 				"/>
				<polygon fill="#736529" points="367.8,46 367.8,46.5 367.9,46.5 367.9,46 				"/>
				<polygon fill="#736529" points="367.9,44.3 367.9,43.6 367.8,43.6 367.8,44.3 				"/>
				<polygon fill="#736529" points="368.1,46.6 368.2,46.6 368.2,46.4 368.1,46.4 				"/>
				<polygon fill="#736529" points="368.1,43.8 368.1,44.4 368.2,44.4 368.2,43.8 				"/>
				<polygon fill="#736529" points="368.5,43.9 368.5,44.5 368.5,44.5 368.5,43.9 				"/>
				<polygon fill="#736529" points="368.8,44 368.8,44.7 368.8,44.7 368.8,44.1 				"/>
				<polygon fill="#736529" points="369.1,44.2 369.1,44.8 369.2,44.8 369.2,44.2 				"/>
				<polygon fill="#736529" points="369.5,44.3 369.5,44.9 369.5,44.9 369.5,44.4 				"/>
				<polygon fill="#736529" points="369.8,44.5 369.8,45 369.8,45.1 369.8,44.5 				"/>
				<polygon fill="#736529" points="370.1,44.6 370.1,45.2 370.2,45.2 370.2,44.6 				"/>
				<polygon fill="#736529" points="370.4,44.8 370.4,45.3 370.5,45.3 370.5,44.8 				"/>
				<polygon fill="#736529" points="370.8,44.9 370.8,45.4 370.8,45.5 370.8,44.9 				"/>
				<polygon fill="#736529" points="371.1,45 371.1,45.6 371.2,45.6 371.2,45.1 				"/>
				<polygon fill="#736529" points="371.4,45.2 371.4,45.3 371.5,45.2 				"/>
			</g>
			<path fill="#906F21" d="M372.3,44.3c0,0.1,13.1-6.1,13.1-6.1l-3.5,4l4.7-2.4l0.2,1.1l-7.5,3l2.7-3.4l-9.6,4L372.3,44.3z"/>
			<polygon fill="#D6C07E" points="372.2,45.2 381.1,41.3 378.2,44.7 387.1,42.1 387.6,43.2 375.2,46.6 378,43.4 372.4,45.6 			"/>
			<g>
				<polygon fill="none" points="378,43.4 377.8,43.6 377.8,43.5 				"/>
				<polygon fill="none" points="376.4,44 376.4,45.2 376.2,45.6 376.2,44.1 				"/>
				<polygon fill="none" points="376.8,43.9 376.8,44.9 376.5,45.2 376.5,44 				"/>
				<polygon fill="none" points="377.7,43.5 377.7,43.7 377.5,44 377.5,43.6 				"/>
				<polygon fill="none" points="378.2,44.7 378.4,44.4 378.4,44.6 				"/>
				<polygon fill="none" points="381.7,43.7 381.7,44.8 381.4,44.9 381.4,43.7 				"/>
				<polygon fill="none" points="386.7,42.3 386.7,43.5 386.4,43.5 386.4,42.3 				"/>
				<polygon fill="none" points="372.8,44.9 372.8,45.5 372.5,45.6 372.5,45 				"/>
				<polygon fill="none" points="387,42.2 387,43.4 386.7,43.5 386.7,42.2 				"/>
				<polygon fill="none" points="387.1,42.1 387.3,42.7 387.3,43.3 387.1,43.4 387.1,42.2 				"/>
				<polygon fill="none" points="372.5,45.1 372.5,45.6 372.4,45.6 372.2,45.3 372.2,45.2 				"/>
				<polygon fill="none" points="383.7,43.1 383.7,44.3 383.4,44.4 383.4,43.2 				"/>
				<polygon fill="none" points="387.6,43.2 387.4,43.3 387.4,42.8 				"/>
				<polygon fill="none" points="384,43 384,44.2 383.8,44.3 383.8,43.1 				"/>
				<polygon fill="none" points="384.4,42.9 384.4,44.1 384.1,44.2 384.1,43 				"/>
				<polygon fill="none" points="383,43.3 383,44.5 382.8,44.6 382.8,43.4 				"/>
				<polygon fill="none" points="384.7,42.8 384.7,44 384.4,44.1 384.4,42.9 				"/>
				<polygon fill="none" points="381.4,43.8 381.4,44.9 381.1,45 381.1,43.8 				"/>
				<polygon fill="none" points="385,42.7 385,43.9 384.8,44 384.8,42.8 				"/>
				<polygon fill="none" points="382.7,43.4 382.7,44.6 382.4,44.6 382.4,43.5 				"/>
				<polygon fill="none" points="375.2,46.6 375.4,46.4 375.4,46.6 				"/>
				<polygon fill="none" points="383.4,43.2 383.4,44.4 383.1,44.5 383.1,43.3 				"/>
				<polygon fill="none" points="386.3,42.4 386.3,43.6 386.1,43.6 386.1,42.4 				"/>
				<polygon fill="none" points="382.4,43.5 382.4,44.7 382.1,44.7 382.1,43.6 				"/>
				<polygon fill="none" points="382,43.6 382,44.8 381.8,44.8 381.8,43.6 				"/>
				<polygon fill="none" points="385.7,42.5 385.7,43.7 385.4,43.8 385.4,42.6 				"/>
				<polygon fill="none" points="386,42.5 386,43.7 385.7,43.7 385.7,42.5 				"/>
				<polygon fill="none" points="385.4,42.6 385.4,43.8 385.1,43.9 385.1,42.7 				"/>
				<polygon fill="none" points="374.1,44.4 374.1,44.9 373.8,45 373.8,44.5 				"/>
				<polygon fill="none" points="378.4,42.5 378.4,44.4 378.2,44.7 378.4,44.6 378.4,45.8 378.1,45.8 378.1,42.6 				"/>
				<polygon fill="none" points="374.4,44.2 374.4,44.8 374.2,44.9 374.2,44.3 				"/>
				<polygon fill="none" points="376.2,44.1 376.2,43.5 376.4,43.4 376.4,44 				"/>
				<polygon fill="none" points="378.7,44.5 378.7,45.7 378.5,45.8 378.5,44.6 				"/>
				<polygon fill="none" points="375.5,44.4 375.5,43.8 375.8,43.6 375.8,44.3 				"/>
				<polygon fill="none" points="374.8,44.1 374.8,44.7 374.5,44.8 374.5,44.2 				"/>
				<polygon fill="none" points="375.8,44.3 375.8,43.6 376.1,43.5 376.1,44.2 				"/>
				<polygon fill="none" points="380.4,44 380.4,45.2 380.1,45.3 380.1,44.1 				"/>
				<polygon fill="none" points="380.7,43.9 380.7,45.1 380.5,45.2 380.5,44 				"/>
				<polygon fill="none" points="381.1,43.9 381.1,45 380.8,45.1 380.8,43.9 				"/>
				<polygon fill="none" points="379.1,44.4 379.1,45.6 378.8,45.7 378.8,44.5 				"/>
				<polygon fill="none" points="379.4,44.3 379.4,45.5 379.1,45.6 379.1,44.4 				"/>
				<polygon fill="none" points="380.1,44.1 380.1,45.3 379.8,45.4 379.8,44.2 				"/>
				<polygon fill="none" points="379.7,44.2 379.7,45.4 379.5,45.5 379.5,44.3 				"/>
				<polygon fill="none" points="377.1,44.5 377.1,46.1 376.8,46.2 376.8,44.8 				"/>
				<polygon fill="none" points="380.8,41.7 380.8,41.5 381.1,41.4 381.1,41.4 				"/>
				<polygon fill="none" points="376.8,44.9 376.8,46.2 376.5,46.3 376.5,45.2 				"/>
				<polygon fill="none" points="376.1,45.6 376.1,46.4 375.8,46.5 375.8,46 				"/>
				<polygon fill="none" points="376.4,45.2 376.4,46.3 376.2,46.4 376.2,45.6 				"/>
				<polygon fill="none" points="375.8,46 375.8,46.5 375.5,46.6 375.5,46.4 				"/>
				<polygon fill="none" points="375.1,43.9 375.1,44.5 374.8,44.7 374.8,44 				"/>
				<polygon fill="none" points="375.4,43.8 375.4,44.4 375.2,44.5 375.2,43.9 				"/>
				<polygon fill="none" points="377.4,44.1 377.4,46 377.1,46.1 377.1,44.4 				"/>
				<polygon fill="none" points="377.1,43.7 377.1,43 377.4,42.9 377.4,43.6 				"/>
				<polygon fill="none" points="377.5,43.6 377.5,42.9 377.7,42.8 377.7,43.5 				"/>
				<polygon fill="none" points="376.8,43.9 376.8,43.2 377.1,43.1 377.1,43.8 				"/>
				<polygon fill="none" points="376.5,44 376.5,43.3 376.8,43.2 376.8,43.9 				"/>
				<polygon fill="none" points="377.7,43.7 377.7,46 377.5,46 377.5,44 				"/>
				<polygon fill="none" points="378,43.4 377.8,43.5 377.8,42.8 378.1,42.6 378.1,45.9 377.8,45.9 377.8,43.6 				"/>
				<polygon fill="none" points="380.1,42.4 380.1,41.8 380.4,41.6 380.4,42.1 				"/>
				<polygon fill="none" points="380.5,42.1 380.5,41.6 380.7,41.5 380.7,41.7 				"/>
				<polygon fill="none" points="373.5,44.6 373.5,45.2 373.2,45.3 373.2,44.8 				"/>
				<polygon fill="none" points="379.1,43.6 379.1,42.2 379.4,42.1 379.4,43.3 				"/>
				<polygon fill="none" points="373.8,44.5 373.8,45.1 373.5,45.2 373.5,44.6 				"/>
				<polygon fill="none" points="379.5,43.2 379.5,42 379.7,41.9 379.7,42.9 				"/>
				<polygon fill="none" points="373.1,44.8 373.1,45.3 372.8,45.4 372.8,44.9 				"/>
				<polygon fill="none" points="379.8,42.8 379.8,41.9 380.1,41.8 380.1,42.5 				"/>
				<polygon fill="none" points="378.8,43.9 378.8,42.3 379.1,42.2 379.1,43.6 				"/>
				<polygon fill="none" points="378.5,44.3 378.5,42.5 378.7,42.4 378.7,44 				"/>
				<polygon fill="#736529" points="387.4,42.8 387.4,43.3 387.3,43.3 387.3,42.7 				"/>
				<polygon fill="#736529" points="387.1,42.2 387.1,43.4 387,43.4 387,42.2 				"/>
				<polygon fill="#736529" points="386.7,42.2 386.7,43.5 386.7,43.5 386.7,42.3 				"/>
				<polygon fill="#736529" points="386.4,42.3 386.4,43.5 386.3,43.6 386.3,42.4 				"/>
				<polygon fill="#736529" points="386.1,42.4 386.1,43.6 386,43.7 386,42.5 				"/>
				<polygon fill="#736529" points="385.7,42.5 385.7,43.7 385.7,43.7 385.7,42.5 				"/>
				<polygon fill="#736529" points="385.4,42.6 385.4,43.8 385.4,43.8 385.4,42.6 				"/>
				<polygon fill="#736529" points="385.1,42.7 385.1,43.9 385,43.9 385,42.7 				"/>
				<polygon fill="#736529" points="384.8,42.8 384.8,44 384.7,44 384.7,42.8 				"/>
				<polygon fill="#736529" points="384.4,42.9 384.4,44.1 384.4,44.1 384.4,42.9 				"/>
				<polygon fill="#736529" points="384.1,43 384.1,44.2 384,44.2 384,43 				"/>
				<polygon fill="#736529" points="383.8,43.1 383.8,44.3 383.7,44.3 383.7,43.1 				"/>
				<polygon fill="#736529" points="383.4,43.2 383.4,44.4 383.4,44.4 383.4,43.2 				"/>
				<polygon fill="#736529" points="383.1,43.3 383.1,44.5 383,44.5 383,43.3 				"/>
				<polygon fill="#736529" points="382.8,43.4 382.8,44.6 382.7,44.6 382.7,43.4 				"/>
				<polygon fill="#736529" points="382.4,43.5 382.4,44.6 382.4,44.7 382.4,43.5 				"/>
				<polygon fill="#736529" points="382.1,43.6 382.1,44.7 382,44.8 382,43.6 				"/>
				<polygon fill="#736529" points="381.8,43.6 381.8,44.8 381.7,44.8 381.7,43.7 				"/>
				<polygon fill="#736529" points="381.4,43.7 381.4,44.9 381.4,44.9 381.4,43.8 				"/>
				<polygon fill="#736529" points="381.1,43.8 381.1,45 381.1,45 381.1,43.9 				"/>
				<polygon fill="#736529" points="381.1,41.4 381.1,41.4 381.1,41.3 				"/>
				<polygon fill="#736529" points="380.7,41.7 380.7,41.5 380.8,41.5 380.8,41.7 				"/>
				<polygon fill="#736529" points="380.8,43.9 380.8,45.1 380.7,45.1 380.7,43.9 				"/>
				<polygon fill="#736529" points="380.4,42.1 380.4,41.6 380.5,41.6 380.5,42.1 				"/>
				<polygon fill="#736529" points="380.5,44 380.5,45.2 380.4,45.2 380.4,44 				"/>
				<polygon fill="#736529" points="380.1,42.5 380.1,41.8 380.1,41.8 380.1,42.4 				"/>
				<polygon fill="#736529" points="380.1,44.1 380.1,45.3 380.1,45.3 380.1,44.1 				"/>
				<polygon fill="#736529" points="379.7,42.9 379.7,41.9 379.8,41.9 379.8,42.8 				"/>
				<polygon fill="#736529" points="379.8,44.2 379.8,45.4 379.7,45.4 379.7,44.2 				"/>
				<polygon fill="#736529" points="379.4,43.3 379.4,42.1 379.5,42 379.5,43.2 				"/>
				<polygon fill="#736529" points="379.5,44.3 379.5,45.5 379.4,45.5 379.4,44.3 				"/>
				<polygon fill="#736529" points="379.1,43.6 379.1,42.2 379.1,42.2 379.1,43.6 				"/>
				<polygon fill="#736529" points="379.1,44.4 379.1,45.6 379.1,45.6 379.1,44.4 				"/>
				<polygon fill="#736529" points="378.7,44 378.7,42.4 378.8,42.3 378.8,43.9 				"/>
				<polygon fill="#736529" points="378.8,44.5 378.8,45.7 378.7,45.7 378.7,44.5 				"/>
				<polygon fill="#736529" points="378.5,44.6 378.5,45.8 378.4,45.8 378.4,44.6 				"/>
				<polygon fill="#736529" points="378.4,44.4 378.4,42.5 378.5,42.5 378.5,44.3 				"/>
				<polygon fill="#736529" points="378.1,42.6 378.1,45.8 378.1,45.9 378.1,42.6 				"/>
				<polygon fill="#736529" points="377.7,43.5 377.7,42.8 377.8,42.8 377.8,43.5 				"/>
				<polygon fill="#736529" points="377.8,43.6 377.8,45.9 377.7,46 377.7,43.7 				"/>
				<polygon fill="#736529" points="377.5,44 377.5,46 377.4,46 377.4,44.1 				"/>
				<polygon fill="#736529" points="377.4,43.6 377.4,42.9 377.5,42.9 377.5,43.6 				"/>
				<polygon fill="#736529" points="377.1,44.4 377.1,46.1 377.1,46.1 377.1,44.5 				"/>
				<polygon fill="#736529" points="377.1,43.8 377.1,43.1 377.1,43 377.1,43.7 				"/>
				<polygon fill="#736529" points="376.8,43.9 376.8,43.2 376.8,43.2 376.8,43.9 				"/>
				<polygon fill="#736529" points="376.8,44.8 376.8,46.2 376.8,46.2 376.8,44.9 				"/>
				<polygon fill="#736529" points="376.5,45.2 376.5,46.3 376.4,46.3 376.4,45.2 				"/>
				<polygon fill="#736529" points="376.4,44 376.4,43.4 376.5,43.3 376.5,44 				"/>
				<polygon fill="#736529" points="376.2,45.6 376.2,46.4 376.1,46.4 376.1,45.6 				"/>
				<polygon fill="#736529" points="376.1,44.2 376.1,43.5 376.2,43.5 376.2,44.1 				"/>
				<polygon fill="#736529" points="375.8,46 375.8,46.5 375.8,46.5 375.8,46 				"/>
				<polygon fill="#736529" points="375.8,44.3 375.8,43.6 375.8,43.6 375.8,44.3 				"/>
				<polygon fill="#736529" points="375.5,46.6 375.4,46.6 375.4,46.4 375.5,46.4 				"/>
				<polygon fill="#736529" points="375.5,43.8 375.5,44.4 375.4,44.4 375.4,43.8 				"/>
				<polygon fill="#736529" points="375.2,43.9 375.2,44.5 375.1,44.5 375.1,43.9 				"/>
				<polygon fill="#736529" points="374.8,44 374.8,44.7 374.8,44.7 374.8,44.1 				"/>
				<polygon fill="#736529" points="374.5,44.2 374.5,44.8 374.4,44.8 374.4,44.2 				"/>
				<polygon fill="#736529" points="374.2,44.3 374.2,44.9 374.1,44.9 374.1,44.4 				"/>
				<polygon fill="#736529" points="373.8,44.5 373.8,45 373.8,45.1 373.8,44.5 				"/>
				<polygon fill="#736529" points="373.5,44.6 373.5,45.2 373.5,45.2 373.5,44.6 				"/>
				<polygon fill="#736529" points="373.2,44.8 373.2,45.3 373.1,45.3 373.1,44.8 				"/>
				<polygon fill="#736529" points="372.8,44.9 372.8,45.4 372.8,45.5 372.8,44.9 				"/>
				<polygon fill="#736529" points="372.5,45 372.5,45.6 372.5,45.6 372.5,45.1 				"/>
				<polygon fill="#736529" points="372.2,45.2 372.2,45.3 372.2,45.2 				"/>
			</g>
			<g>
				<ellipse fill="#926608" cx="371.5" cy="45" rx="2.9" ry="2.8"/>
				<ellipse fill="#FAECC9" cx="371.5" cy="45" rx="2.5" ry="2.5"/>
				<ellipse fill="#D3B23F" cx="371.5" cy="45" rx="2.1" ry="2"/>
				<g>
					<path fill="#FFF100" d="M371.5,43c1.2,0,2.1,0.9,2.1,2.1s-0.9,2.1-2.1,2.1s-2.1-0.9-2.1-2.1S370.3,43,371.5,43L371.5,43z"/>
					<path fill="#91742E" d="M371.5,43.1c-1.1,0-2,0.9-2,2s0.9,2,2,2s2-0.9,2-2S372.6,43.1,371.5,43.1z"/>
					<path fill="#FFF100" d="M373.4,45.1h-0.4c0,0,0-0.1,0-0.1c-0.1-0.2-0.2-0.4-0.4-0.5l0,0l0,0c0,0,0,0,0,0c0-0.1-0.1-0.2-0.1-0.2
						l0.4-0.4C373.2,44.1,373.4,44.6,373.4,45.1z"/>
					<path fill="#FFF100" d="M371.5,43.2c0.5,0,1,0.2,1.4,0.5l-0.4,0.4c-0.1,0-0.1-0.1-0.2-0.1l0-0.1l0,0c0,0-0.1,0-0.1,0
						c0,0,0,0,0,0l0,0h0l0,0v0c0,0-0.1,0-0.1,0c0,0,0,0,0,0l0,0h0l0,0c0,0,0,0,0,0c0,0,0,0,0,0l0,0c0,0,0,0,0.1,0l0,0c0,0,0,0,0,0
						l0,0l0,0l0,0l0,0c0,0,0,0.1,0,0.1l0,0c0,0-0.1,0-0.1,0c0,0,0,0.1,0,0c0,0,0,0,0,0l0,0c0,0,0.1,0.1,0.1,0.1c0,0,0,0,0-0.1l0,0
						c0-0.1,0-0.1,0,0l0,0l0,0l0-0.1c0,0,0.1,0,0.1,0.1c0,0.1,0.1,0.2,0.1,0.3c-0.1,0.1-0.2,0.3-0.3,0.4c-0.1,0.2-0.1,0.5-0.2,0.8
						l0,0l0,0c0,0,0,0,0,0c0,0,0,0,0,0l0,0l0,0c0,0,0,0,0,0c0,0,0,0,0,0l0,0l0,0c0,0,0,0,0-0.1c0,0-0.1-0.1-0.1-0.1c0,0,0,0,0,0
						c0,0,0,0,0,0c0,0,0,0,0,0l0,0c0,0,0,0-0.1,0l-0.1,0l-0.1,0l0-0.1c0,0,0,0,0,0l0,0l0,0c0,0,0,0,0,0l0,0l0,0l0,0l0,0l0,0l0,0
						c0,0,0,0,0,0c0,0,0-0.1,0-0.1c0,0,0.1,0,0.1,0c0,0,0,0,0.1,0l0,0.1l0,0c0,0,0,0,0,0l0-0.1c0,0,0,0,0,0c0,0,0,0,0,0l0,0
						c0,0,0,0,0,0c0,0,0,0,0,0c0,0,0,0,0,0l0,0l0,0l0,0l0,0c0,0,0,0,0,0l0.1,0c0,0,0.1-0.1,0-0.1c0,0,0,0,0-0.1l0,0l0,0l0.1,0
						c0,0,0,0,0,0.1c0,0,0,0,0,0v0c0,0,0,0,0.1,0c0,0,0,0,0,0c0,0,0,0,0,0c0,0,0-0.1,0-0.1c0,0,0,0,0-0.1c0,0,0,0,0-0.1
						c0,0,0-0.1,0-0.1c0,0,0,0,0-0.1l0,0l0,0l0,0c0,0,0-0.1,0-0.1c0,0,0,0,0,0c0,0-0.1,0-0.1,0l0,0l0,0l0,0c0,0,0,0.1-0.1,0.1l0,0
						l0,0.1l0,0c0,0,0-0.1,0-0.1c0,0,0,0,0,0l0,0l0,0c0,0,0-0.1,0-0.1c0,0,0,0,0,0l0,0l0,0l0,0c0,0,0.1-0.1,0.1-0.1c0,0,0.1,0,0.1,0
						c0,0,0,0,0,0l0-0.1l-0.1,0c0,0,0,0,0,0c0,0,0,0,0-0.1c0,0,0,0,0-0.1l0,0c0,0,0,0,0,0.1c0,0,0,0,0,0l0,0h0c0,0,0,0-0.1,0l-0.1,0
						c0,0,0,0-0.1,0l-0.1,0l0,0c0,0,0,0,0,0l0,0c0,0,0,0,0,0c0,0,0,0,0-0.1c-0.1,0-0.2,0-0.3-0.1l0,0c0,0-0.1-0.1-0.1-0.1l0,0
						c0,0-0.1,0-0.1,0c0,0-0.1,0.1-0.1,0.1c0,0,0,0,0,0.1l0,0c0,0,0,0,0,0.1l0,0c0,0,0,0,0,0l0,0h0l0,0h0l0,0.1c0,0-0.1,0-0.1,0.1
						c0,0,0,0,0,0.1c0,0,0,0,0,0l0.1,0.1c0,0,0,0,0,0c0,0,0,0,0,0c0,0,0,0,0,0c0,0,0,0,0,0c0,0,0,0,0,0c0,0-0.1,0-0.1,0v0
						c0,0,0,0,0,0l-0.4-0.4C370.5,43.4,370.9,43.2,371.5,43.2z"/>
					<path fill="#FFF100" d="M371.4,45.7L371.4,45.7c0,0.1,0,0.1,0.1,0.1c0,0,0,0,0,0l0,0l0,0c0,0-0.1,0.1-0.1,0.1c0,0,0,0.1,0,0.1
						l0,0c0,0,0,0,0,0.1c-0.2,0-0.5-0.1-0.8-0.2c0-0.1-0.1-0.1-0.1-0.2c0.1,0,0.2,0,0.3-0.1c0.1,0,0.2-0.1,0.2-0.2l0,0l0,0l-0.2-0.2
						l0,0c0,0-0.1,0.1-0.1,0.1c0,0-0.1,0-0.1,0c0,0-0.1,0-0.1,0c0-0.2,0-0.4,0-0.6c0,0,0.1,0,0.1,0c0,0,0.1,0,0.1,0
						c0,0,0.1,0,0.1,0.1l0,0l0.3-0.2l0,0c-0.1-0.1-0.1-0.1-0.2-0.2c-0.1,0-0.2-0.1-0.3-0.1c0-0.1,0-0.1,0.1-0.2c0.1,0,0.1,0,0.2-0.1
						c0.1,0,0.1,0,0.1,0c0.1,0,0.1,0,0.2,0c0,0,0,0,0,0c0,0,0,0.1,0,0.2c0.1,0.1,0.1,0.1,0.1,0.2c0,0,0,0.2,0,0.2l0,0
						c0,0,0,0.1,0,0.1c0,0.1,0,0.1,0,0.1c0,0,0,0,0,0.1c0,0.1,0,0,0,0c0-0.1,0-0.1,0-0.1l0,0l0,0l0,0c0,0,0,0,0,0c0,0,0,0,0,0
						c0,0,0,0.1,0,0.1v0l0,0.1c0,0.1,0.1,0.1,0.2,0.1l0,0c0,0,0,0.1,0,0.1l0,0c0,0,0,0,0,0c0,0,0,0,0,0l0,0l0,0l0,0c0,0,0,0-0.1,0
						c0,0.1,0,0.1-0.1,0.1C371.3,45.6,371.4,45.7,371.4,45.7z"/>
					<path fill="#FFF100" d="M370.1,43.8l0.4,0.4c0,0.1-0.1,0.2-0.1,0.2c-0.2,0-0.3,0.1-0.4,0.2c-0.1,0.1-0.2,0.3-0.2,0.4h-0.3
						C369.5,44.6,369.7,44.1,370.1,43.8z"/>
					<path fill="#FFF100" d="M370.3,45.1h-0.2c0-0.1,0-0.1,0.1-0.2c0,0,0.1,0,0.1-0.1C370.3,44.9,370.3,45,370.3,45.1z"/>
					<path fill="#FFF100" d="M370.3,45.4C370.3,45.4,370.2,45.3,370.3,45.4c-0.1-0.1-0.2-0.2-0.2-0.2h0.2
						C370.3,45.2,370.3,45.3,370.3,45.4z"/>
					<path fill="#FFF100" d="M369.5,45.1h0.3c0,0.2,0.1,0.3,0.2,0.4c0.1,0.1,0.3,0.2,0.4,0.2c0,0.1,0.1,0.2,0.1,0.2l-0.4,0.4
						C369.7,46.1,369.5,45.6,369.5,45.1z"/>
					<path fill="#FFF100" d="M371.5,47c-0.5,0-1-0.2-1.4-0.5l0.4-0.4c0.2,0.1,0.5,0.2,0.7,0.2c0,0,0,0,0,0l0,0c0,0,0,0.1,0,0.1l0,0
						l0,0l0,0l0,0c0,0,0,0,0,0c0,0,0,0,0,0l0,0h0l0,0c0,0,0-0.1,0.1-0.1h0l0,0c0,0,0,0,0,0c0,0,0,0,0,0c0.3,0,0.6-0.1,1-0.2l0.4,0.4
						C372.5,46.8,372,47,371.5,47z"/>
					<path fill="#FFF100" d="M372.9,46.4l-0.4-0.4c0.1-0.1,0.1-0.3,0.1-0.4l0.2,0c0,0,0,0,0,0c0,0,0,0.1,0,0.1v0.1h0.3l0-0.1
						c0-0.2,0-0.4-0.1-0.6h0.3C373.4,45.6,373.2,46.1,372.9,46.4z"/>
					<path fill="#ECA814" d="M370.5,44.5c0.2,0,0.3,0.1,0.5,0.2l-0.2,0.2c-0.1-0.1-0.2-0.1-0.3-0.1c-0.2,0-0.4,0.2-0.4,0.4
						c0,0.2,0.2,0.4,0.4,0.4c0.1,0,0.2,0,0.3-0.1l0.2,0.2c-0.1,0.1-0.3,0.2-0.5,0.2c-0.3,0-0.6-0.3-0.6-0.6S370.1,44.5,370.5,44.5
						L370.5,44.5z"/>
					<path fill="#ECA814" d="M372.6,44.5c-0.3,0.2-0.5,0.7-0.5,1.2h0.2c0-0.1,0-0.1,0-0.2l0.5,0c0,0.1,0,0.1,0,0.2h0.2
						C373.1,45.2,372.9,44.6,372.6,44.5L372.6,44.5z"/>
					<path fill="#FFF100" d="M372.1,45.8L372.1,45.8C372.1,45.8,372.1,45.8,372.1,45.8l0.3,0l0-0.1c0,0,0-0.1,0-0.1c0,0,0,0,0,0h0.1
						c0,0.1-0.1,0.3-0.1,0.4c-0.3,0.1-0.5,0.2-0.8,0.2c0,0,0,0,0,0c0,0,0,0,0,0c0,0,0,0,0,0l0,0c0,0,0.1-0.1,0.1-0.1
						c0,0,0.1,0,0.1,0c0,0,0,0,0.1,0c0,0,0,0,0,0c0,0,0,0,0,0l0,0L372.1,45.8C372,45.9,372.1,45.9,372.1,45.8L372.1,45.8
						C372.1,45.9,372.1,45.8,372.1,45.8z"/>
					<path fill="#91742E" d="M371.5,43.7L371.5,43.7c0,0.1,0,0.1,0,0.1c0,0,0,0,0.1,0.1c0.1,0,0.1,0,0.1,0l0-0.1c0,0,0,0,0-0.1
						c0,0,0-0.1-0.1-0.1C371.6,43.6,371.6,43.6,371.5,43.7z"/>
					<path fill="#91742E" d="M371.4,43.7L371.4,43.7l0.1-0.2c0,0,0,0-0.1,0C371.4,43.6,371.4,43.6,371.4,43.7L371.4,43.7
						C371.4,43.7,371.4,43.7,371.4,43.7z"/>
					<path fill="#91742E" d="M372.6,44.9c-0.1,0.1-0.1,0.2-0.2,0.3h0.3C372.7,45.1,372.7,45,372.6,44.9L372.6,44.9z"/>
					<path fill="#FFF100" d="M372.7,45.2L372.7,45.2C372.6,45.2,372.6,45.2,372.7,45.2L372.7,45.2C372.7,45.2,372.7,45.2,372.7,45.2
						z"/>
					<path fill="#FFF100" d="M372.6,45.1C372.6,45.1,372.6,45.2,372.6,45.1L372.6,45.1C372.5,45.2,372.5,45.1,372.6,45.1z"/>
				</g>
			</g>
		</g>
		<path fill="#594A19" d="M355.4,52.7c0,0-0.1,6.9-0.6,10c0,0,0.9,0.4,3.3,0.4c0,0,4.8,0.6,5.3,0l-0.1-6.9L355.4,52.7z"/>
		<path fill="#594A19" d="M363.2,30.1v29.6h-7.5c0,0-2.3-21.6,5.3-29.6H363.2z"/>
		<path fill="#594A19" d="M388.7,53.5c0,0,0,7,0.7,9.4c0,0-1.7,0.5-4.1,0.5c0,0-4.4,0.3-4.9-0.3l0.1-6.9L388.7,53.5z"/>
		<path fill="#594A19" d="M380.6,30.1v29.6h8.1c0,0,1.4-24.5-5.8-29.6H380.6z"/>
		<polygon fill="#715F19" points="363.2,30 359.2,35.3 363,35.6 359.2,40.3 363.2,54.9 		"/>
		<polygon fill="#715F19" points="380.6,30 384.6,35.3 380.8,35.6 384.6,40.3 380.6,54.9 		"/>
		<path fill="#9B7E2F" d="M371.9,30.7c-0.1,0-0.3,0-0.4,0l0,0c-0.1,0-0.1,0-0.2,0l0,0c-0.2,0-0.4,0-0.5,0c0,0,0,0,0,0
			c-5.7-0.3-9.9-2.3-9.9-2.3l-0.1,1.7c3.9,2.7,7.8,3.3,9.7,3.4c0.4,0,0.8,0,1.1,0c0.2,0,0.3,0,0.3,0c5.7,0,10.8-3.4,10.8-3.4l0-1.9
			C378.5,30.1,375.2,30.7,371.9,30.7z"/>
		<g>
			<path fill="#F3C027" d="M379.2,27.4c0,0-1.1,3.7-7.1,3.7c-5.9,0-7.1-3.7-7.1-3.7s2.2,2.7,7.4,2.7
				C372.4,30.2,375.8,30.5,379.2,27.4z"/>
		</g>
	</g>
</g>
</svg>
