<?xml version="1.0" encoding="utf-8"?>
<!-- Generator: Adobe Illustrator 16.0.0, SVG Export Plug-In . SVG Version: 6.00 Build 0)  -->
<!DOCTYPE svg PUBLIC "-//W3C//DTD SVG 1.1//EN" "http://www.w3.org/Graphics/SVG/1.1/DTD/svg11.dtd">
<svg version="1.1" id="Layer_1" xmlns="http://www.w3.org/2000/svg" xmlns:xlink="http://www.w3.org/1999/xlink" x="0px" y="0px"
	 width="745.3px" height="657.9px" viewBox="0 0 745.3 657.9" enable-background="new 0 0 745.3 657.9" xml:space="preserve">
<g>
	<rect x="492.1" y="575.1" fill="#839093" width="88" height="48.5"/>
	<rect x="168.3" y="575.1" fill="#839093" width="88" height="48.5"/>
	<path fill="#8C7A55" d="M381,92.5h-19.5c-5.2,0-9.4,4.2-9.4,9.4c0,5.2,4.2,9.4,9.4,9.4H381c5.2,0,9.4-4.2,9.4-9.4
		C390.4,96.7,386.2,92.5,381,92.5z"/>
	<g>
		<path fill="#9AAEB5" d="M178.1,573.4h0.2v1.7h12.9h1.4h12.9v-1.7h0.2c0-4-3.2-5.8-4.6-6.4v-5.9h0.4c1.3,0,2.4-1.1,2.4-2.4
			c0-1.3-1.1-2.4-2.4-2.4h-2c2.9-2.6,1.7-5.6,1-6.8c0.5-0.4,3.8-3,4.3-4.3c0.7-1.6,0-4.1-5.7-4.1h1.6l-1.6-2.8l-4.1-42.8
			c-0.3-2.4-2.4-2.6-3.2-2.5c-0.9-0.1-3,0.1-3.2,2.5l-4.1,42.8l-1.6,2.8h1.6c-5.7,0-6.3,2.5-5.7,4.1c0.6,1.3,3.9,4,4.3,4.3
			c-0.7,1.2-1.9,4.2,1,6.8h-2c-1.3,0-2.4,1.1-2.4,2.4c0,1.3,1.1,2.4,2.4,2.4h0.4v5.9C181.3,567.6,178.1,569.4,178.1,573.4z"/>
		<path fill="#9AAEB5" d="M532.7,573.4h0.2v1.7h12.9h1.4h12.9v-1.7h0.2c0-4-3.2-5.8-4.6-6.4v-5.9h0.4c1.3,0,2.4-1.1,2.4-2.4
			c0-1.3-1.1-2.4-2.4-2.4h-2c2.9-2.6,1.7-5.6,1-6.8c0.5-0.4,3.8-3,4.3-4.3c0.7-1.6,0-4.1-5.7-4.1h1.6l-1.6-2.8l-4.1-42.8
			c-0.2-2.4-2.4-2.6-3.2-2.5c-0.8-0.1-3,0.1-3.2,2.5l-4.1,42.8l-1.6,2.8h1.6c-5.7,0-6.3,2.5-5.7,4.1c0.6,1.3,3.9,4,4.3,4.3
			c-0.7,1.2-1.9,4.2,1,6.8h-2c-1.3,0-2.4,1.1-2.4,2.4c0,1.3,1.1,2.4,2.4,2.4h0.4v5.9C536,567.6,532.7,569.4,532.7,573.4z"/>
		<path fill="#9AAEB5" d="M745.3,657.8c0-0.2,0-0.3,0-0.5c-0.7-32.9-72-40-72-40l-7-0.5v-1.5h-6v-1.7h-6.5v-2.3h-7.4v-2.6h-5.7v-2.3
			h-6.5v-2.8h-6.5v-2h-6v-2.8h-6.3v-2h-11.3v-2.7h-2.8v-3.2l-1,0.2v-15.9c0-4.7-2.7-7-2.7-7V566h0.2c0-4.8-3.9-7-5.5-7.7v-7.1h0.5
			c1.6,0,2.9-1.3,2.9-2.9c0-1.6-1.3-2.9-2.9-2.9h-2.4c3.5-3.2,2.1-6.7,1.2-8.2c0.6-0.5,4.6-3.6,5.2-5.2c0.8-1.9,0-4.9-6.8-4.9h1.9
			l-1.9-3.4l-4.9-51.6c-0.3-2.9-2.9-3.1-3.9-3c-1-0.1-3.6,0.1-3.9,3l-4.9,51.6l-1.9,3.4h1.9c-6.8,0-7.6,3-6.8,4.9
			c0.7,1.6,4.6,4.8,5.2,5.2c-0.9,1.5-2.3,5,1.2,8.2h-2.4c-1.6,0-2.9,1.3-2.9,2.9c0,1.6,1.3,2.9,2.9,2.9h0.5v7.1
			c-1.6,0.7-5.5,2.9-5.5,7.7h0.2v2.1c0,0-2.7,2.3-2.7,7V591l-0.9-0.2v3.2h-2.8v11.6h-23.5l-2.3-2.3h-5.1v-3.4h-6.8v-2.8h-6.2v-4.5
			h-14.8v-13.6h-4.5l-6.1-27.3h-6.8v-8.3h-51.9v-70.5l5.7-15.2h-7.8v-7.4h-5.3v-7h3.6v-5.7h-8.9c1.7-3.4,2.9-10.1,2.9-17.8
			c0-9-1.6-16.6-3.7-19.2c1.2-0.6,2-1.8,2-3.2c0-2-1.6-3.6-3.6-3.6c-2,0-3.6,1.6-3.6,3.6c0,1.4,0.8,2.6,2,3.2
			c-2.1,2.6-3.7,10.2-3.7,19.2c0,7.8,1.2,14.5,2.9,17.8h-8.2v-5.3h-3.8v-16.9h-0.3l-6.5-6.1c2.2-0.7,3.7-2.8,3.7-5.2
			c0-3-2.4-5.4-5.3-5.5V202.3c2.2-0.9,3.8-3.1,3.8-5.6c0-3-2.2-5.5-5.1-6c0.6-0.7,0.9-1.6,0.9-2.5c0-2.2-1.8-4-3.9-4
			c0.5-5.7,6.6-3,6.6-3c5.7-3-0.8-6.1-0.8-6.1c-0.4-4.9,8.3-10.6,8.3-10.6c7.2-7.2,1.9-13.6,1.9-13.6c2.3-4.5-2.7-6.1-2.7-6.1
			l4.5-4.5h-3.2v-17.8h-1h-1.1v0.6h-60.8v-0.6h-0.9h-1.1v17.8h-1.5l4.6,4.5c0,0-4.9,1.5-2.7,6.1c0,0-5.3,6.4,1.9,13.6
			c0,0,8.7,5.7,8.3,10.6c0,0-6.4,3-0.8,6.1c0,0,6.1-2.7,6.6,3c-2.2,0-3.9,1.8-3.9,4c0,0.9,0.3,1.8,0.9,2.5c-3.1,0.3-5.5,2.9-5.5,6
			c0,2.1,1.1,3.9,2.7,5v196.8h-1.7c-3,0-5.5,2.5-5.5,5.5c0,2.3,1.5,4.3,3.5,5.1h-0.5l-8,6.4h0.4v16.7H334v5.3h-4.5
			c1.7-3.4,2.9-10.1,2.9-17.8c0-9-1.6-16.6-3.7-19.2c1.2-0.6,2-1.8,2-3.2c0-2-1.6-3.6-3.6-3.6c-2,0-3.6,1.6-3.6,3.6
			c0,1.4,0.8,2.6,2,3.2c-2.1,2.6-3.7,10.2-3.7,19.2c0,7.8,1.2,14.5,2.9,17.8h-10v5.7h2.1v7h-5.3v7.4h-8.9l6.8,18.2h0.4v68.5
			l-0.4-1.1h-53.8v8.3h-6.8l-6.1,27.3v13.6h-18.8v4.5h-6.3v2.8h-6.8v3.4h-5.1l-2.3,2.3h-23.5v-11.6H177v-3.2l-0.9,0.2v-15.9
			c0-4.7-2.7-7-2.7-7V566h0.2c0-4.8-3.9-7-5.5-7.7v-7.1h0.5c1.6,0,2.9-1.3,2.9-2.9c0-1.6-1.3-2.9-2.9-2.9h-2.4
			c3.5-3.2,2.1-6.7,1.2-8.2c0.6-0.5,4.6-3.6,5.2-5.2c0.8-1.9,0-4.9-6.8-4.9h1.9l-1.9-3.4l-4.9-51.6c-0.3-2.9-2.9-3.1-3.9-3
			c-1-0.1-3.6,0.1-3.9,3l-4.9,51.6l-1.9,3.4h1.9c-6.8,0-7.6,3-6.8,4.9c0.7,1.6,4.6,4.8,5.2,5.2c-0.9,1.5-2.3,5,1.2,8.2h-2.4
			c-1.6,0-2.9,1.3-2.9,2.9c0,1.6,1.3,2.9,2.9,2.9h0.5v7.1c-1.6,0.7-5.5,2.9-5.5,7.7h0.2v2.1c0,0-2.7,2.3-2.7,7V591l-0.9-0.2v3.2
			h-2.8v2.7h-11.3v2h-6.3v2.8h-6v2h-6.5v2.8h-6.5v2.3h-5.7v2.6h-7.4v2.3H78v1.7h-6v2c0,0-71.3,7-72,40c0,0.2,0,0.3,0,0.5h28.8v0.2
			h334.4h11.9h334.4v-0.2H745.3z M343.8,137.7v-13.6h2.8v13.6H343.8z M347.8,124.1h2.7v13.6h-2.7V124.1z M351.6,124.1h2.8v13.6h-2.8
			V124.1z M355.6,124.1h2.8v13.6h-2.8V124.1z M359.6,124.1h2.8v13.6h-2.8V124.1z M363.5,124.1h2.7v13.6h-2.7V124.1z M367.3,124.1
			h2.8v13.6h-2.8V124.1z M371.3,124.1h3.2v13.6h-3.2V124.1z M375.7,124.1h2.8v13.6h-2.8V124.1z M379.7,124.1h2.7v13.6h-2.7V124.1z
			 M383.5,124.1h2.8v13.6h-2.8V124.1z M387.4,124.1h2.7v13.6h-2.7V124.1z M391.2,124.1h2.7v13.6h-2.7V124.1z M395,124.1h2.8v13.6
			H395V124.1z M399,124.1h1.5v13.6H399V124.1z M342.7,124.1v13.6h-2.8v-13.6H342.7z M339.9,140.2v-1.3h60.8v1.3h-30.3h-0.8H339.9z"
			/>
		<circle fill="#9AAEB5" cx="338.9" cy="120.9" r="1.5"/>
		<path fill="#9AAEB5" d="M403.4,120.9c0-0.8-0.7-1.5-1.5-1.5c-0.8,0-1.5,0.7-1.5,1.5s0.7,1.5,1.5,1.5
			C402.7,122.4,403.4,121.7,403.4,120.9z"/>
	</g>
	<rect x="352.4" y="100.9" fill="#8A9A9E" width="38.1" height="39.8"/>
	<g display="none">
		<path display="inline" fill="#77601F" d="M368.4,32.8c-0.9-0.2-3.3-4-3.3-4c-2.6-6.2-12.2-12.8-12.2-12.8
			c-2.7-3.1-17-11.6-17-11.6c-2.6-3.3-6.1-4.6-6.1-4.6c-2.9,2.6,1.1,6.9,1.1,6.9c-4.9,1.4,0,5.6,0,5.6c-1.9,5.7,5.9,7.3,5.9,7.3
			c-3.4,6.2,8.8,8.2,8.8,8.2c-2.1,1.1,1.1,3.6,1.1,3.6c-0.6,4.5,5.6,3.7,5.6,3.7c-1,4.1,5.7,5.1,5.7,5.1c-2.4,3.5,0.8,5.3,0.8,5.3
			c-0.7,3.8,3.6,2,3.6,2c-0.8,4.6,3.4,2.5,3.4,2.5c0.8,4.7,4.5,1.8,4.5,1.8c2.2,1.3,3.1,0.3,3.1,0.3c5.2-2.5,2.4-13.9,2.4-13.9
			C374.2,34.6,368.4,32.8,368.4,32.8z"/>
		<path display="inline" fill="#77601F" d="M406.3,24.7c-1.1-0.6-7.8,0.7-7.8,0.7c-1.1,0.7-8.5,0.4-8.5,0.4
			c-0.8-0.6-2.3-0.3-2.3-0.3c-6.3,2.4-7.9,12.1-7.9,12.1c-1.9,7.3,6.9,8.3,6.9,8.3c2.8-0.4,2.8-2.5,2.8-2.5c2.9,0,2.3-2.2,2.3-2.2
			c0.7-0.4,1.1-1.5,1.1-1.5c0.3,0,1.4,0.2,1.4,0.2c1.9,1.2,3.2-0.2,3.2-0.2c1-1.1,0-1.5,0-1.5c-1-0.9-0.6-1.1-0.6-1.1
			c1.5-0.3,1.8-0.8,1.8-0.8c2-0.5,1.6-2.5,1.6-2.5l1.5-0.4c4-1,3.2-1.7,3.2-1.7c0.4-2-3.9-2-3.9-2c5.9-1.2,5.8-3,5.8-3
			C408.4,25.5,406.3,24.7,406.3,24.7z"/>
		<path display="inline" fill="#776316" d="M362.4,19.9c0,0-0.9,0.3-0.9,1.9c0,0.5,0.3,1.9-0.7,1.9c0,0,1.2,0.1,1.5-0.6
			c0,0-0.1,1.4-0.6,1.7c0,0,3.2,1.4,3.8-1.7l-0.2-4.6C365.3,18.5,363.3,17.7,362.4,19.9z"/>
		<path display="inline" fill="#776316" d="M382.9,21.9c0-1.5-0.9-1.9-0.9-1.9c-0.8-2.2-2.8-1.4-2.8-1.4l-0.3,4.6
			c0.5,3.1,3.8,1.8,3.8,1.8c-0.6-0.3-0.6-1.7-0.6-1.7c0.3,0.8,1.5,0.6,1.5,0.6C382.6,23.7,382.8,22.4,382.9,21.9z"/>
		<g display="inline">
			<polygon fill="#B7A475" points="361.2,27.5 363.8,29.7 363.5,27.2 			"/>
			<polygon fill="#B7A475" points="380.5,29.8 383,27.6 380.8,27.4 			"/>
			<path fill="#F3C027" d="M363.5,19.2c0,7.6-4.4,23.3-4.4,23.3l26.1,0.2c0,0-4.3-12.4-4.2-23.3C381,14.9,363.5,14.8,363.5,19.2z"/>
			<g>
				<path fill="#776316" d="M362.8,4.4c-2.6,1.9-3.7,10,0.5,14.3l9.3-10.3l-0.2-4C372.5,4.4,369.1-0.4,362.8,4.4z"/>
				<path fill="#776316" d="M382.2,4.5c-6.3-4.9-9.7-0.1-9.7-0.1l-0.2,4l9.2,10.4C385.8,14.6,384.7,6.5,382.2,4.5z"/>
				<path fill="#F3C027" d="M372,6.1c-5.6-0.1-7.9,3.6-7.9,3.6c-2,3.2-1.4,13.1-1.4,13.1c0,4.9,6.7,8.8,9.6,8.8
					c2.8,0,9.7-3.6,9.7-8.7c0,0,0.5-9.9-1.4-13.1C380.5,9.8,377.6,6,372,6.1z"/>
				<g>
					<path opacity="0.1" fill="#232015" d="M372.2,28.1c-3.3,0-4.7-2-4.7-2s0.7,2.6,4.5,2.7c3.8,0,4.6-2.6,4.6-2.6
						C374.4,28.4,372.2,28.1,372.2,28.1z"/>
				</g>
				<path fill="#F3C027" d="M361,16.6c-0.2,0.9-0.3,5.5,2.4,2.6l0.1-2.3C363.5,16.9,361.7,13.9,361,16.6z"/>
				
					<path fill="none" stroke="#C1A53B" stroke-width="0.2923" stroke-linecap="round" stroke-linejoin="round" stroke-miterlimit="10" d="
					M362.3,16.9c0,0-1,0.7,0,1.8"/>
				<path fill="#F3C027" d="M380.8,17l0.1,2.3c2.6,2.9,2.6-1.7,2.4-2.5C382.7,14,380.8,17,380.8,17z"/>
				
					<path fill="none" stroke="#C1A53B" stroke-width="0.2923" stroke-linecap="round" stroke-linejoin="round" stroke-miterlimit="10" d="
					M382,17.1c0,0,0.9,0.7,0,1.8"/>
				<path fill="#776316" d="M373.6,4.9l-6.6,0.7l-4.5,0.9c0,0-1.1,6.4-1,6.5c0.1,0,5.2-2.6,5.2-2.6l5.8-2l8.6,2.7l1.8-0.7L382,5.8
					L373.6,4.9z"/>
				<path opacity="0.3" fill="#231F20" d="M381.1,9.7l-8.7-1.3c0,0,3.5,8.2,11.3,4C383.7,12.4,381.5,11.2,381.1,9.7z"/>
				<path opacity="0.3" fill="#231F20" d="M362.6,12.3c7.7,2.1,9.8-4,9.8-4l-7.4,1.7C364.3,11.5,362.6,12.3,362.6,12.3z"/>
				<path fill="#776316" d="M381.1,9.5l-8.6-1.1c0,0,3.2,7.1,10.7,3.9C383.2,12.3,381.5,11.1,381.1,9.5z"/>
				<path fill="#776316" d="M363.3,12.2c6.3,1.1,9-3.9,9-3.9L365,9.7C364.7,11,363.3,12.2,363.3,12.2z"/>
				<path fill="#776316" d="M373.2-0.1c-1.1,0.4-1.7,3-1.7,3c0-1.3-1.3-2.5-1.3-2.5c0.4,1.7-0.8,2.1-0.8,2.1l-0.8,3.4l4.5,0.9l2.5-3
					l0.6-1.4C372.8,3.3,373.2-0.1,373.2-0.1z"/>
				<g>
					<g opacity="0.2">
						<path fill="#231F20" d="M374.7,18.1c0.1,0.1,0.2,0.2,0.3,0.4c0,0.1,0.1,0.1,0.1,0.2c0,0.1,0,0.2,0,0.3c0,0.1,0,0.2-0.1,0.3
							l-0.2,0.2c-0.1,0.1-0.1,0.1-0.2,0.1l-0.2,0.1l0,0l0,0c-0.2,0-0.4,0.1-0.6,0.2c-0.2,0.1-0.3,0.2-0.4,0.4c0,0.1-0.1,0.2-0.2,0.3
							c-0.1,0.1-0.2,0.1-0.3,0.2c-0.1,0.1-0.2,0-0.3,0.1c-0.1,0-0.2,0-0.4,0c-0.2,0-0.4,0-0.7-0.1c-0.1-0.1-0.3-0.1-0.3-0.2
							c-0.1-0.1-0.2-0.2-0.2-0.3c0-0.1,0-0.1-0.1-0.1c0,0-0.1-0.1-0.1-0.1c-0.1,0-0.1-0.1-0.2-0.1c-0.2-0.1-0.4-0.2-0.6-0.2l0,0l0,0
							l-0.2-0.1c-0.1,0-0.2-0.1-0.2-0.1l-0.2-0.2c-0.1-0.1-0.1-0.2-0.1-0.3c0-0.1,0-0.2,0-0.3c0-0.1,0.1-0.2,0.1-0.2
							c0.1-0.1,0.2-0.3,0.3-0.4c0,0,0.1,0,0.2,0c0,0,0,0.1,0,0.2l0,0c-0.1,0.1-0.2,0.2-0.2,0.3c0,0.1-0.1,0.1-0.1,0.2
							c0,0.1,0,0.1,0,0.2c0,0,0,0.1,0.1,0.1l0.1,0.1c0,0,0.1,0.1,0.2,0.1l0.2,0.1l0,0c0.2,0,0.4,0.1,0.7,0.2
							c0.1,0.1,0.2,0.1,0.3,0.2c0,0,0.1,0.1,0.1,0.1c0,0,0.1,0.1,0.1,0.1c0.1,0.1,0.1,0.1,0.2,0.2c0.1,0.1,0.2,0.1,0.2,0.1
							c0.2,0.1,0.4,0.1,0.6,0.1l0.3,0c0.1,0,0.2,0,0.3,0c0.1,0,0.2,0,0.2-0.1c0.1-0.1,0.1-0.1,0.2-0.2c0.1-0.1,0.1-0.2,0.2-0.3
							c0.1-0.1,0.2-0.1,0.3-0.2c0.2-0.1,0.4-0.2,0.7-0.2l0,0l0.2-0.1c0.1,0,0.1,0,0.2-0.1l0.1-0.1c0,0,0-0.1,0.1-0.1
							c0,0,0-0.1,0-0.2c0-0.1,0-0.1-0.1-0.2c-0.1-0.1-0.1-0.2-0.2-0.3c0,0,0-0.1,0-0.2C374.6,18.1,374.6,18.1,374.7,18.1z"/>
					</g>
					<path fill="#594D2B" d="M369.9,13.8c0,0-2.9-1.1-4.8,0.9c0,0,2.1-1.4,4.6-0.2C369.7,14.5,370.5,14.2,369.9,13.8z"/>
					
						<path fill="#C1A53B" stroke="#C1A53B" stroke-width="0.3699" stroke-linecap="round" stroke-linejoin="round" stroke-miterlimit="10" d="
						M370.4,22c-1,0.5,0.4,1.2,0.6,1.4c0.4,0.4,0.6,0.6,0.9,0.9c1.6,1.7,3.1-1.6,2.9-2.3C374.7,21.2,370.4,22,370.4,22z"/>
					<path fill="#2E2710" d="M368.4,17.3c0,0,1.9-0.5,0.6-2.4C369,14.9,369.8,16.6,368.4,17.3z"/>
					<path fill="#2E2710" d="M366,16.2c0,0,2.4-0.5,3.3,0.1C369.3,16.3,370.1,15,366,16.2z"/>
					<path fill="#594D2B" d="M374.3,13.8c-0.6,0.4,0.2,0.7,0.2,0.7c2.4-1.1,4.6,0.3,4.6,0.3C377.2,12.8,374.3,13.8,374.3,13.8z"/>
					<path fill="#2E2710" d="M375.2,14.9c-1.4,1.9,0.6,2.4,0.6,2.4C374.4,16.7,375.2,14.9,375.2,14.9z"/>
					<path fill="#2E2710" d="M374.8,16.4c1-0.6,3.3-0.1,3.3-0.1C374.1,15,374.8,16.4,374.8,16.4z"/>
				</g>
			</g>
		</g>
		
			<path display="inline" fill="none" stroke="#F3C027" stroke-width="5.3392" stroke-linecap="round" stroke-linejoin="round" stroke-miterlimit="10" d="
			M362.8,34.9c0,0-10.2-7.5-11-15.4c-0.9-8.2-0.4-10.2-0.4-14.5"/>
		<path display="inline" fill="none" stroke="#594A19" stroke-width="5.4676" stroke-linejoin="round" stroke-miterlimit="10" d="
			M362.8,34.9c0,0-10.2-7.5-11-15.4c-0.9-8.2-0.4-10.2-0.4-14.5"/>
		
			<path display="inline" fill="none" stroke="#F3C027" stroke-width="5.3392" stroke-linecap="round" stroke-linejoin="round" stroke-miterlimit="10" d="
			M381.7,32.5c0,0,10.2,7.5,11,15.4c0.9,8.2,0.4,10.2,0.4,14.5"/>
		<path display="inline" fill="none" stroke="#594A19" stroke-width="5.4676" stroke-linejoin="round" stroke-miterlimit="10" d="
			M381.7,32.5c0,0,10.2,7.5,11,15.4c0.9,8.2,0.4,10.2,0.4,14.5"/>
		
			<line display="inline" fill="none" stroke="#594A19" stroke-width="6.08" stroke-linecap="round" stroke-linejoin="round" stroke-miterlimit="10" x1="366" y1="61.3" x2="365.8" y2="91.1"/>
		
			<line display="inline" fill="none" stroke="#594A19" stroke-width="6.08" stroke-linecap="round" stroke-linejoin="round" stroke-miterlimit="10" x1="377.3" y1="61.4" x2="377.2" y2="91.2"/>
		<path display="inline" fill="#F3C027" d="M357.4,60L357.4,60L357.4,60z"/>
		<path display="inline" fill="#F3C027" d="M357.5,48.4c-0.1,10.4-0.1,11.6-0.1,11.6v0v0v0v0v0c0,0,0,0,0,0v0v0c0,0,0,0,0,0
			c0,0,1.5,0,1.5,0l13.1,0.1l0.2-29l-10.1-0.1C360.5,37.7,357.5,37.2,357.5,48.4z"/>
		<path display="inline" fill="#F3C027" d="M386.2,48.6c0.1-11.2-2.9-10.7-4.5-17.3l-10.1-0.1l-0.2,29l13.1,0.1c0,0,1.5,0,1.5,0
			c0,0,0,0,0,0v0C386.1,60.1,386.2,59,386.2,48.6z"/>
		<path display="inline" fill="#F3C027" d="M386.1,60.2L386.1,60.2L386.1,60.2z"/>
		<polygon display="inline" fill="#F3C027" points="386.1,60.2 386.1,60.2 386.1,60.2 		"/>
		<path display="inline" fill="#715F19" d="M371.7,72.3c8,0,14.5-4.9,14.6-12.9l-29-0.2C357.2,67.2,363.7,72.2,371.7,72.3z"/>
		<path display="inline" fill="#594A19" d="M354.1,95.8l14.7,0.1l0-3.9C360.7,92,354.1,93.7,354.1,95.8z"/>
		<path display="inline" fill="#594A19" d="M374.1,92.1l0,3.9l14.7,0.1C388.8,93.9,382.2,92.1,374.1,92.1z"/>
		
			<rect x="362.4" y="90.1" transform="matrix(-1 -5.840658e-03 5.840658e-03 -1 730.9659 184.5497)" display="inline" fill="#715F19" width="6.7" height="2.3"/>
		
			<rect x="373.8" y="90.1" transform="matrix(-1 -6.134623e-03 6.134623e-03 -1 753.7543 184.8638)" display="inline" fill="#715F19" width="6.7" height="2.3"/>
		
			<rect x="357.4" y="59.3" transform="matrix(-1 -6.031389e-03 6.031389e-03 -1 743.212 123.0226)" display="inline" fill="#443715" width="28.8" height="2.2"/>
		
			<rect x="369.9" y="59.3" transform="matrix(-1 -5.931732e-03 5.931732e-03 -1 743.4824 122.9883)" display="inline" fill="#D6C07E" width="4.1" height="2.2"/>
		
			<rect x="361.9" y="30.9" transform="matrix(-1 -6.050462e-03 6.050462e-03 -1 743.2379 92.4585)" display="inline" fill="#FFE6A9" width="19.7" height="28.5"/>
		<path display="inline" fill="#594A19" d="M355.6,52.5c0,0-0.2,6.9-0.7,10c0,0,0.9,0.4,3.2,0.4c0,0,4.7,0.6,5.2,0l-0.1-6.9
			L355.6,52.5z"/>
		<path display="inline" fill="#594A19" d="M355.9,59.5l7.4,0l0.2-29.6l-2.2,0C353.8,37.9,355.9,59.5,355.9,59.5z"/>
		<path display="inline" fill="#594A19" d="M388.7,53.6l-8,2.6l-0.2,6.9c0.5,0.6,4.8,0.3,4.8,0.3c2.3,0,4-0.4,4-0.4
			C388.6,60.6,388.7,53.6,388.7,53.6z"/>
		<path display="inline" fill="#594A19" d="M383,30l-2.2,0l-0.2,29.6l8,0C388.6,59.7,390.1,35.2,383,30z"/>
		<polygon display="inline" fill="#715F19" points="363.1,35.4 359.3,40.2 363.2,54.8 363.4,29.9 359.4,35.1 		"/>
		<polygon display="inline" fill="#715F19" points="380.7,30 380.6,54.9 384.7,40.3 380.9,35.5 384.7,35.3 		"/>
		<g display="inline">
			<g>
				<polygon fill="#EAC97F" points="369.1,31 372,33.9 375.1,31 372.1,30.2 				"/>
				<path fill="#EAC97F" d="M372.1,31.7l0-0.1L372.1,31.7l-0.1-0.1l0,0.1l-0.9,0.9l-2.3,20.5c0,0,2.3,5.3,3.1,5.3
					c1,0,3.1-5.3,3.1-5.3l-2-20.5L372.1,31.7z"/>
			</g>
			<polygon fill="#D6C07E" points="361.2,27.5 361.2,29.9 369,33.5 372.2,30.2 362.1,27.8 			"/>
			<polygon fill="#D6C07E" points="372.1,30.2 375.2,33.6 383.1,30 383.1,27.6 382.3,27.9 			"/>
		</g>
		<g display="inline">
			<path fill="#F3C027" d="M372.3,29.7c-5.1,0-7.3-2.8-7.3-2.8s1.2,3.7,7,3.8c5.9,0,7-3.7,7-3.7C375.7,30.1,372.3,29.7,372.3,29.7z"
				/>
		</g>
	</g>
</g>
</svg>
