<?xml version="1.0" encoding="utf-8"?>
<!-- Generator: Adobe Illustrator 16.0.0, SVG Export Plug-In . SVG Version: 6.00 Build 0)  -->
<!DOCTYPE svg PUBLIC "-//W3C//DTD SVG 1.1//EN" "http://www.w3.org/Graphics/SVG/1.1/DTD/svg11.dtd">
<svg version="1.1" id="Layer_1" xmlns="http://www.w3.org/2000/svg" xmlns:xlink="http://www.w3.org/1999/xlink" x="0px" y="0px"
	 width="152.307px" height="179.82px" viewBox="0 0 152.307 179.82" enable-background="new 0 0 152.307 179.82"
	 xml:space="preserve">
<g>
	<g>
		
			<rect x="62.519" y="0.138" transform="matrix(-0.9996 -0.0276 0.0276 -0.9996 134.8403 181.5942)" fill="#5B5B5B" width="12.309" height="179.457"/>
	</g>
	<g>
		
			<rect x="65.757" y="0.226" transform="matrix(-0.9996 -0.0277 0.0277 -0.9996 141.3056 181.8667)" fill="#686868" width="12.31" height="179.458"/>
	</g>
	<g>
		<g>
			
				<rect x="1.001" y="16.526" transform="matrix(-0.9996 -0.0277 0.0277 -0.9996 150.7906 109.6424)" fill="#FFFFFF" width="150.305" height="74.504"/>
		</g>
		<g>
			<path fill="#686868" d="M17.538,50.497l0.439-15.868l10.522,11.635l0.286-10.324l2.242,0.062l-0.436,15.763L20.068,40.156
				L19.78,50.559L17.538,50.497z"/>
			<path fill="#686868" d="M33.777,43.444c0.058-2.092,0.874-3.867,2.449-5.326c1.568-1.458,3.424-2.158,5.567-2.099
				c2.117,0.059,3.912,0.865,5.383,2.421c1.479,1.557,2.188,3.396,2.13,5.521c-0.059,2.136-0.873,3.928-2.441,5.373
				c-1.575,1.451-3.446,2.148-5.614,2.088c-1.918-0.053-3.622-0.765-5.112-2.135C34.499,47.771,33.711,45.824,33.777,43.444z
				 M36.038,43.53c-0.045,1.641,0.469,3.006,1.543,4.095c1.067,1.087,2.32,1.651,3.757,1.69c1.559,0.043,2.889-0.458,3.991-1.506
				c1.101-1.061,1.673-2.372,1.716-3.936c0.044-1.583-0.448-2.925-1.477-4.024c-1.022-1.106-2.31-1.681-3.863-1.724
				c-1.546-0.043-2.866,0.459-3.961,1.507C36.65,40.667,36.081,41.967,36.038,43.53z"/>
			<path fill="#686868" d="M60.672,39.025l-1.849,1.028c-0.324-0.6-0.637-0.994-0.94-1.183c-0.315-0.214-0.726-0.327-1.233-0.342
				c-0.622-0.017-1.144,0.146-1.564,0.486c-0.42,0.337-0.638,0.768-0.652,1.294c-0.02,0.725,0.502,1.324,1.568,1.797l1.465,0.648
				c1.192,0.521,2.059,1.141,2.597,1.859c0.539,0.718,0.794,1.587,0.766,2.607c-0.038,1.367-0.525,2.485-1.46,3.354
				c-0.943,0.873-2.094,1.29-3.454,1.253c-1.29-0.036-2.344-0.449-3.163-1.238c-0.806-0.789-1.293-1.881-1.46-3.271l2.285-0.438
				c0.079,0.876,0.242,1.483,0.489,1.823c0.445,0.655,1.109,0.994,1.994,1.019c0.699,0.02,1.287-0.198,1.761-0.653
				c0.475-0.455,0.722-1.042,0.742-1.76c0.008-0.289-0.025-0.555-0.098-0.797c-0.074-0.242-0.193-0.468-0.357-0.675
				c-0.164-0.206-0.378-0.4-0.643-0.584s-0.581-0.361-0.949-0.532L55.1,44.086c-2.009-0.916-2.991-2.2-2.946-3.854
				c0.031-1.116,0.483-2.037,1.357-2.763c0.874-0.733,1.946-1.082,3.216-1.047C58.441,36.47,59.756,37.338,60.672,39.025z"/>
			<path fill="#686868" d="M70.428,38.234l3.53,9.609l4.109-9.398l2.266,0.062l-6.564,14.576l-5.605-14.912L70.428,38.234z"/>
			<path fill="#686868" d="M88.662,49.131l-5.871-0.163l-1.62,3.289l-2.23-0.062l7.19-14.389l6.143,14.757l-2.265-0.062
				L88.662,49.131z M87.872,47.162l-1.905-4.72l-2.261,4.604L87.872,47.162z"/>
			<path fill="#686868" d="M93.509,52.598l3.295-14.665l4.413,10.79l5.171-10.524l2.186,14.816l-2.123-0.059l-1.095-8.315
				l-4.306,8.798l-3.697-9.028l-1.704,8.247L93.509,52.598z"/>
			<path fill="#686868" d="M110.986,46.156c0.054-1.93,0.807-3.569,2.261-4.915c1.448-1.348,3.161-1.993,5.139-1.938
				c1.955,0.054,3.61,0.799,4.97,2.236c1.365,1.436,2.021,3.135,1.966,5.094c-0.055,1.972-0.806,3.625-2.254,4.961
				c-1.454,1.34-3.181,1.983-5.183,1.928c-1.77-0.049-3.343-0.706-4.719-1.971C111.652,50.151,110.926,48.354,110.986,46.156z
				 M113.073,46.236c-0.042,1.515,0.434,2.775,1.424,3.778c0.986,1.005,2.142,1.525,3.468,1.562c1.439,0.04,2.667-0.424,3.684-1.391
				c1.017-0.979,1.545-2.189,1.585-3.633c0.041-1.462-0.414-2.7-1.364-3.716c-0.944-1.021-2.132-1.551-3.565-1.591
				c-1.427-0.039-2.646,0.425-3.657,1.392C113.638,43.594,113.113,44.792,113.073,46.236z"/>
			<path fill="#686868" d="M135.812,42.078l-1.706,0.948c-0.299-0.553-0.588-0.916-0.868-1.09c-0.291-0.198-0.67-0.304-1.138-0.316
				c-0.574-0.016-1.056,0.134-1.444,0.45c-0.387,0.31-0.588,0.706-0.602,1.191c-0.019,0.67,0.464,1.225,1.448,1.661l1.353,0.596
				c1.101,0.482,1.9,1.055,2.397,1.719c0.497,0.661,0.732,1.465,0.707,2.408c-0.035,1.262-0.484,2.293-1.348,3.094
				c-0.87,0.806-1.932,1.191-3.188,1.157c-1.19-0.033-2.164-0.415-2.92-1.144c-0.745-0.729-1.193-1.735-1.348-3.02l2.109-0.404
				c0.073,0.809,0.223,1.369,0.452,1.684c0.41,0.604,1.023,0.918,1.84,0.94c0.646,0.018,1.188-0.184,1.625-0.604
				c0.438-0.42,0.667-0.962,0.686-1.624c0.007-0.267-0.023-0.512-0.091-0.735c-0.068-0.224-0.178-0.432-0.33-0.623
				c-0.151-0.189-0.35-0.37-0.593-0.54c-0.245-0.169-0.537-0.332-0.876-0.489l-1.308-0.587c-1.855-0.846-2.762-2.031-2.719-3.559
				c0.028-1.028,0.446-1.879,1.253-2.551c0.806-0.675,1.796-0.998,2.969-0.965C133.753,39.719,134.967,40.52,135.812,42.078z"/>
			<path fill="#686868" d="M25.085,67.464l-5.871-0.162l-1.62,3.288l-2.229-0.062l7.189-14.389l6.143,14.757l-2.265-0.062
				L25.085,67.464z M24.295,65.495l-1.905-4.72l-2.261,4.604L24.295,65.495z"/>
			<path fill="#686868" d="M32.86,57.287l-0.326,11.77l4.033,0.111l-0.054,1.945l-6.103-0.169l0.379-13.715L32.86,57.287z"/>
			<path fill="#686868" d="M43.708,71.312l3.569-15.888l4.781,11.688l5.602-11.401l2.368,16.052l-2.3-0.063l-1.186-9.008
				l-4.665,9.53l-4.006-9.779l-1.845,8.933L43.708,71.312z"/>
			<path fill="#686868" d="M65.829,57.055l-0.248,8.943c-0.035,1.274,0.147,2.214,0.548,2.815c0.599,0.869,1.462,1.32,2.592,1.352
				c1.135,0.031,2.026-0.371,2.672-1.206c0.433-0.559,0.667-1.486,0.703-2.78l0.248-8.943l2.242,0.062l-0.265,9.564
				c-0.043,1.566-0.567,2.842-1.569,3.828c-1.128,1.099-2.491,1.626-4.089,1.582c-1.598-0.045-2.926-0.646-3.985-1.806
				c-0.947-1.04-1.399-2.343-1.356-3.909l0.265-9.564L65.829,57.055z"/>
			<path fill="#686868" d="M77.735,72.253l0.439-15.867l10.522,11.635l0.286-10.325l2.242,0.062l-0.436,15.763L80.265,61.913
				l-0.288,10.402L77.735,72.253z"/>
			<path fill="#686868" d="M94.374,72.714l0.411-14.857l3.118,0.086c1.495,0.041,2.671,0.222,3.529,0.54
				c0.921,0.315,1.751,0.83,2.49,1.542c1.495,1.441,2.21,3.301,2.147,5.578c-0.063,2.283-0.913,4.109-2.549,5.477
				c-0.822,0.685-1.676,1.152-2.562,1.403c-0.828,0.253-1.997,0.358-3.504,0.316L94.374,72.714z M96.674,70.668l1.01,0.028
				c1.008,0.027,1.848-0.055,2.521-0.248c0.673-0.206,1.286-0.545,1.839-1.018c1.131-0.978,1.719-2.273,1.764-3.891
				c0.045-1.629-0.464-2.966-1.527-4.01c-0.956-0.932-2.391-1.425-4.303-1.478l-1.01-0.028L96.674,70.668z"/>
			<path fill="#686868" d="M111.336,58.313l-0.411,14.857l-2.242-0.062l0.411-14.857L111.336,58.313z"/>
			<path fill="#686868" d="M123.323,69.903l-6.361-0.176l-1.755,3.562l-2.415-0.067l7.788-15.587l6.656,15.986l-2.454-0.067
				L123.323,69.903z M122.467,67.771l-2.063-5.113l-2.449,4.988L122.467,67.771z"/>
			<path fill="#686868" d="M131.747,58.879l-0.353,12.75l4.369,0.12l-0.058,2.107l-6.611-0.183l0.411-14.857L131.747,58.879z"/>
		</g>
	</g>
</g>
</svg>
