<?xml version="1.0" encoding="utf-8"?>
<!-- Generator: Adobe Illustrator 16.0.0, SVG Export Plug-In . SVG Version: 6.00 Build 0)  -->
<!DOCTYPE svg PUBLIC "-//W3C//DTD SVG 1.1//EN" "http://www.w3.org/Graphics/SVG/1.1/DTD/svg11.dtd">
<svg version="1.1" id="Layer_1" xmlns="http://www.w3.org/2000/svg" xmlns:xlink="http://www.w3.org/1999/xlink" x="0px" y="0px"
	 width="161.338px" height="179.297px" viewBox="0 0 161.338 179.297" enable-background="new 0 0 161.338 179.297"
	 xml:space="preserve">
<g>
	<g>
		
			<rect x="-8.842" y="83.787" transform="matrix(-0.1816 -0.9834 0.9834 -0.1816 7.1343 185.821)" fill="#5B5B5B" width="179.459" height="12.309"/>
	</g>
	<g>
		
			<rect x="-5.656" y="83.2" transform="matrix(-0.1816 -0.9834 0.9834 -0.1816 11.4762 188.2595)" fill="#686868" width="179.457" height="12.309"/>
	</g>
	<g>
		<g>
			
				<rect x="43.417" y="-22.064" transform="matrix(-0.1816 -0.9834 0.9834 -0.1816 43.1151 142.0586)" fill="#FFFFFF" width="74.504" height="150.305"/>
		</g>
		<g>
			<path fill="#686868" d="M41.238,39.755l2.6,14.072l-2.475,0.457l-2.6-14.072l-3.771,0.697l-0.43-2.326l10.006-1.848l0.43,2.326
				L41.238,39.755z"/>
			<path fill="#686868" d="M56.255,36.981l-6.574,1.215l0.728,3.939l6.383-1.179l0.43,2.325l-6.383,1.18l1.013,5.48l6.574-1.215
				l0.43,2.326l-9.05,1.672l-3.029-16.398l9.05-1.672L56.255,36.981z"/>
			<path fill="#686868" d="M77.713,43.452l-7.02,1.297l-1.091,4.319l-2.666,0.493l4.895-18.928l11.048,15.982l-2.708,0.5
				L77.713,43.452z M76.276,41.312l-3.462-5.127l-1.52,6.047L76.276,41.312z"/>
			<path fill="#686868" d="M84.356,46.343l0.194-18.268l7.984,11.706l3.477-13.822l6.357,17.058l-2.538,0.469l-3.411-9.606
				l-2.886,11.549l-6.687-9.792l0.068,10.234L84.356,46.343z"/>
			<path fill="#686868" d="M103.496,34.251c-0.427-2.307,0.054-4.445,1.44-6.416c1.378-1.967,3.251-3.17,5.616-3.606
				c2.337-0.432,4.495,0.033,6.475,1.396c1.986,1.361,3.196,3.214,3.629,5.558c0.436,2.357-0.038,4.513-1.419,6.468
				c-1.389,1.962-3.278,3.164-5.672,3.606c-2.116,0.392-4.153,0.01-6.109-1.146C105.3,38.832,103.981,36.88,103.496,34.251z
				 M105.997,33.817c0.334,1.812,1.219,3.188,2.652,4.131c1.427,0.943,2.933,1.269,4.519,0.976c1.721-0.317,3.062-1.18,4.025-2.587
				c0.96-1.422,1.281-2.995,0.963-4.722c-0.323-1.746-1.178-3.103-2.564-4.069c-1.381-0.974-2.928-1.303-4.641-0.986
				c-1.707,0.314-3.039,1.176-3.995,2.582C105.998,30.533,105.677,32.093,105.997,33.817z"/>
			<path fill="#686868" d="M49.079,72.928l1.502,8.128l-3.021,0.559l-3.697-20.018l3.423-0.632c1.676-0.31,2.964-0.427,3.862-0.353
				c0.907,0.075,1.749,0.374,2.526,0.902c1.356,0.912,2.193,2.223,2.509,3.934c0.339,1.833-0.006,3.398-1.035,4.696
				c-1.03,1.298-2.586,2.14-4.669,2.524L49.079,72.928z M48.562,70.128l1.129-0.209c2.773-0.512,3.964-1.836,3.569-3.971
				c-0.382-2.066-2.004-2.835-4.864-2.307l-0.998,0.185L48.562,70.128z"/>
			<path fill="#686868" d="M61.222,58.391l3.697,20.017l-3.021,0.558l-3.697-20.017L61.222,58.391z"/>
			<path fill="#686868" d="M66.865,67.604c-0.52-2.817,0.065-5.428,1.757-7.832c1.685-2.402,3.969-3.871,6.855-4.404
				c2.852-0.526,5.487,0.043,7.904,1.705c2.424,1.661,3.9,3.922,4.429,6.783c0.532,2.877-0.045,5.51-1.731,7.894
				c-1.693,2.397-4.002,3.864-6.924,4.403c-2.584,0.477-5.069,0.012-7.456-1.396C69.068,73.195,67.458,70.812,66.865,67.604z
				 M69.917,67.074c0.408,2.21,1.486,3.892,3.236,5.041c1.743,1.153,3.58,1.55,5.517,1.192c2.1-0.389,3.738-1.441,4.914-3.159
				c1.172-1.734,1.562-3.655,1.173-5.763c-0.394-2.133-1.436-3.787-3.129-4.967c-1.685-1.189-3.574-1.591-5.666-1.205
				c-2.082,0.385-3.707,1.436-4.873,3.152C69.918,63.064,69.528,64.967,69.917,67.074z"/>
			<path fill="#686868" d="M95.849,51.995l2.392,12.951c0.286,1.547,0.392,2.721,0.316,3.521c-0.056,0.904-0.288,1.701-0.697,2.394
				c-0.794,1.372-2.023,2.21-3.692,2.519c-1.262,0.233-2.501,0.121-3.721-0.336l1-2.861c0.825,0.357,1.558,0.477,2.196,0.359
				c0.899-0.166,1.459-0.623,1.679-1.369c0.237-0.75,0.199-1.976-0.115-3.676l-2.39-12.942L95.849,51.995z"/>
			<path fill="#686868" d="M101.48,61.21c-0.521-2.816,0.065-5.428,1.757-7.832c1.684-2.402,3.968-3.87,6.854-4.403
				c2.853-0.526,5.488,0.042,7.904,1.704c2.425,1.662,3.901,3.923,4.43,6.783c0.532,2.878-0.045,5.51-1.732,7.895
				c-1.693,2.396-4.002,3.863-6.923,4.402c-2.584,0.479-5.069,0.012-7.456-1.396C103.683,66.802,102.072,64.417,101.48,61.21z
				 M104.533,60.681c0.408,2.209,1.486,3.891,3.236,5.041c1.742,1.152,3.58,1.549,5.516,1.191c2.101-0.388,3.738-1.441,4.914-3.158
				c1.172-1.734,1.563-3.656,1.174-5.762c-0.394-2.133-1.437-3.789-3.129-4.968c-1.686-1.189-3.574-1.591-5.666-1.204
				c-2.082,0.385-3.707,1.435-4.874,3.15C104.533,56.671,104.143,58.573,104.533,60.681z"/>
		</g>
	</g>
</g>
</svg>
