<?xml version="1.0" encoding="utf-8"?>
<!-- Generator: Adobe Illustrator 16.0.0, SVG Export Plug-In . SVG Version: 6.00 Build 0)  -->
<!DOCTYPE svg PUBLIC "-//W3C//DTD SVG 1.1//EN" "http://www.w3.org/Graphics/SVG/1.1/DTD/svg11.dtd">
<svg version="1.1" id="Layer_1" xmlns="http://www.w3.org/2000/svg" xmlns:xlink="http://www.w3.org/1999/xlink" x="0px" y="0px"
	 width="152.308px" height="179.82px" viewBox="0 0 152.308 179.82" enable-background="new 0 0 152.308 179.82"
	 xml:space="preserve">
<g>
	<g>
		
			<rect x="62.52" y="0.138" transform="matrix(-0.9996 -0.0276 0.0276 -0.9996 134.8414 181.5942)" fill="#5B5B5B" width="12.309" height="179.457"/>
	</g>
	<g>
		
			<rect x="65.758" y="0.226" transform="matrix(-0.9996 -0.0277 0.0277 -0.9996 141.307 181.8668)" fill="#686868" width="12.309" height="179.458"/>
	</g>
	<g>
		<g>
			
				<rect x="1.001" y="16.526" transform="matrix(-0.9996 -0.0277 0.0277 -0.9996 150.7911 109.6424)" fill="#FFFFFF" width="150.306" height="74.504"/>
		</g>
		<g>
			<path fill="#686868" d="M26.208,50.321L26.7,32.518l11.806,13.055l0.32-11.585l2.516,0.069l-0.489,17.685L29.047,38.719
				l-0.323,11.672L26.208,50.321z"/>
			<path fill="#686868" d="M47.852,34.237l-0.277,10.033c-0.04,1.432,0.165,2.483,0.615,3.158c0.672,0.977,1.64,1.481,2.907,1.517
				c1.273,0.035,2.273-0.415,2.999-1.353c0.484-0.628,0.747-1.667,0.787-3.12l0.277-10.033l2.516,0.069L57.379,45.24
				c-0.049,1.756-0.635,3.188-1.761,4.294c-1.266,1.233-2.795,1.826-4.587,1.776c-1.793-0.05-3.282-0.726-4.471-2.026
				c-1.063-1.167-1.57-2.63-1.521-4.386l0.297-10.731L47.852,34.237z"/>
			<path fill="#686868" d="M70.804,37.237l-6.683-0.185l-0.11,4.006l6.488,0.18l-0.065,2.364l-6.488-0.18l-0.154,5.571l6.683,0.185
				l-0.065,2.364l-9.198-0.254l0.461-16.67l9.198,0.254L70.804,37.237z"/>
			<path fill="#686868" d="M83.529,37.697l-2.073,1.153c-0.363-0.673-0.715-1.115-1.054-1.326c-0.354-0.24-0.815-0.368-1.385-0.384
				c-0.698-0.02-1.282,0.163-1.753,0.547c-0.472,0.376-0.716,0.859-0.732,1.45c-0.022,0.813,0.563,1.485,1.759,2.016l1.645,0.729
				c1.337,0.583,2.309,1.279,2.912,2.086c0.605,0.805,0.892,1.78,0.86,2.926c-0.042,1.534-0.589,2.789-1.639,3.761
				c-1.057,0.98-2.349,1.449-3.875,1.407c-1.446-0.04-2.629-0.504-3.548-1.39c-0.905-0.887-1.451-2.109-1.639-3.671l2.563-0.49
				c0.088,0.981,0.271,1.664,0.549,2.047c0.499,0.733,1.244,1.114,2.236,1.142c0.785,0.021,1.444-0.222,1.977-0.733
				c0.533-0.511,0.811-1.169,0.833-1.975c0.009-0.323-0.028-0.621-0.111-0.894c-0.082-0.272-0.216-0.524-0.399-0.756
				c-0.185-0.232-0.426-0.452-0.722-0.657c-0.297-0.207-0.652-0.404-1.064-0.596l-1.589-0.714c-2.256-1.027-3.357-2.468-3.307-4.323
				c0.035-1.252,0.542-2.286,1.522-3.101c0.98-0.822,2.184-1.214,3.608-1.175C81.026,34.83,82.502,35.804,83.529,37.697z"/>
			<path fill="#686868" d="M91.911,37.821l-0.396,14.306L89,52.058l0.396-14.306l-3.833-0.106l0.065-2.363l10.171,0.281
				l-0.065,2.364L91.911,37.821z"/>
			<path fill="#686868" d="M103.425,45.347l4.965,7.247l-3.076-0.085l-4.573-6.956l-0.453-0.013l-0.188,6.824l-2.516-0.069
				l0.461-16.67l2.947,0.082c2.203,0.061,3.781,0.519,4.738,1.374c1.054,0.949,1.56,2.182,1.519,3.693
				c-0.033,1.181-0.4,2.186-1.101,3.017C105.448,44.622,104.541,45.14,103.425,45.347z M100.348,43.349l0.798,0.022
				c2.383,0.066,3.6-0.812,3.65-2.633c0.047-1.705-1.089-2.591-3.406-2.654l-0.896-0.025L100.348,43.349z"/>
			<path fill="#686868" d="M109.918,44.219c0.065-2.346,0.981-4.338,2.748-5.975c1.759-1.636,3.841-2.422,6.246-2.355
				c2.375,0.065,4.389,0.972,6.04,2.717c1.659,1.746,2.455,3.812,2.389,6.193c-0.065,2.396-0.979,4.405-2.737,6.029
				c-1.768,1.629-3.867,2.41-6.3,2.343c-2.152-0.06-4.063-0.857-5.735-2.396C110.728,49.075,109.845,46.89,109.918,44.219z
				 M112.454,44.316c-0.051,1.841,0.527,3.372,1.732,4.592c1.198,1.222,2.603,1.854,4.215,1.898
				c1.749,0.049,3.241-0.514,4.478-1.689c1.234-1.188,1.878-2.661,1.926-4.416c0.05-1.775-0.503-3.281-1.657-4.515
				c-1.147-1.241-2.592-1.887-4.333-1.935c-1.735-0.048-3.217,0.516-4.445,1.692C113.142,41.104,112.503,42.562,112.454,44.316z"/>
			<path fill="#686868" d="M33.347,59.81l-1.889,1.049c-0.33-0.611-0.649-1.015-0.959-1.206c-0.322-0.219-0.741-0.335-1.259-0.35
				c-0.636-0.018-1.167,0.147-1.596,0.497c-0.43,0.343-0.652,0.783-0.667,1.319c-0.021,0.741,0.514,1.353,1.601,1.836l1.497,0.66
				c1.217,0.532,2.101,1.166,2.651,1.899c0.55,0.733,0.81,1.62,0.78,2.663c-0.038,1.396-0.534,2.537-1.49,3.422
				c-0.963,0.892-2.137,1.318-3.526,1.28c-1.315-0.036-2.393-0.458-3.228-1.266c-0.823-0.805-1.32-1.918-1.491-3.338l2.332-0.448
				c0.08,0.894,0.247,1.515,0.5,1.862c0.454,0.668,1.132,1.016,2.035,1.04c0.714,0.021,1.313-0.203,1.799-0.667
				c0.484-0.466,0.736-1.064,0.757-1.797c0.008-0.294-0.025-0.565-0.101-0.813s-0.197-0.478-0.363-0.688
				c-0.168-0.212-0.388-0.41-0.657-0.598c-0.27-0.187-0.594-0.368-0.969-0.543l-1.446-0.648c-2.052-0.936-3.055-2.246-3.009-3.935
				c0.032-1.139,0.494-2.079,1.386-2.82c0.893-0.748,1.987-1.104,3.284-1.068C31.067,57.2,32.41,58.086,33.347,59.81z"/>
			<path fill="#686868" d="M44.997,69.373l-6.494-0.18l-1.791,3.638l-2.466-0.067l7.951-15.915l6.794,16.322l-2.505-0.069
				L44.997,69.373z M44.123,67.196l-2.107-5.22l-2.5,5.092L44.123,67.196z"/>
			<path fill="#686868" d="M53.598,58.118l-0.36,13.018l4.46,0.123l-0.06,2.151l-6.749-0.187l0.42-15.169L53.598,58.118z"/>
			<path fill="#686868" d="M59.728,58.287l3.904,10.629l4.545-10.395l2.505,0.069l-7.259,16.12l-6.2-16.492L59.728,58.287z"/>
			<path fill="#686868" d="M79.893,70.339l-6.493-0.18l-1.791,3.638l-2.466-0.068l7.951-15.914l6.794,16.322l-2.505-0.069
				L79.893,70.339z M79.02,68.161l-2.107-5.22l-2.5,5.093L79.02,68.161z"/>
			<path fill="#686868" d="M85.784,74.188l0.42-15.169l3.183,0.089c1.526,0.042,2.727,0.227,3.603,0.552
				c0.942,0.321,1.789,0.846,2.542,1.574c1.526,1.472,2.257,3.37,2.192,5.695c-0.064,2.331-0.932,4.195-2.603,5.59
				c-0.839,0.698-1.71,1.176-2.616,1.432c-0.845,0.26-2.038,0.367-3.577,0.324L85.784,74.188z M88.133,72.101l1.031,0.028
				c1.028,0.029,1.886-0.056,2.573-0.253c0.688-0.211,1.312-0.557,1.877-1.04c1.155-0.996,1.755-2.321,1.801-3.971
				c0.046-1.663-0.473-3.028-1.558-4.094c-0.977-0.951-2.44-1.454-4.393-1.509l-1.031-0.028L88.133,72.101z"/>
			<path fill="#686868" d="M99.849,66.919c0.059-2.135,0.892-3.947,2.5-5.437c1.601-1.489,3.495-2.204,5.684-2.144
				c2.161,0.061,3.992,0.884,5.495,2.473c1.51,1.589,2.234,3.467,2.174,5.635c-0.06,2.181-0.891,4.009-2.491,5.486
				c-1.607,1.481-3.518,2.193-5.731,2.132c-1.959-0.054-3.699-0.781-5.219-2.179C100.584,71.337,99.781,69.35,99.849,66.919z
				 M102.156,67.007c-0.046,1.676,0.479,3.069,1.575,4.18c1.091,1.111,2.368,1.687,3.836,1.728c1.591,0.044,2.949-0.469,4.073-1.539
				c1.125-1.081,1.709-2.422,1.753-4.018c0.045-1.616-0.458-2.986-1.509-4.107c-1.044-1.13-2.357-1.717-3.942-1.76
				c-1.579-0.044-2.927,0.469-4.045,1.538C102.781,64.085,102.2,65.411,102.156,67.007z"/>
			<path fill="#686868" d="M123.688,68.769l4.519,6.594l-2.8-0.077l-4.162-6.329l-0.412-0.012l-0.172,6.209l-2.289-0.063
				l0.42-15.169l2.682,0.074c2.005,0.056,3.441,0.473,4.312,1.25c0.959,0.866,1.42,1.986,1.382,3.361
				c-0.03,1.075-0.363,1.989-1.001,2.745C125.528,68.107,124.702,68.58,123.688,68.769z M120.887,66.95l0.727,0.021
				c2.168,0.06,3.276-0.738,3.322-2.396c0.043-1.553-0.991-2.358-3.1-2.417l-0.815-0.022L120.887,66.95z"/>
		</g>
	</g>
</g>
</svg>
