<?xml version="1.0" encoding="utf-8"?>
<!-- Generator: Adobe Illustrator 16.0.0, SVG Export Plug-In . SVG Version: 6.00 Build 0)  -->
<!DOCTYPE svg PUBLIC "-//W3C//DTD SVG 1.1//EN" "http://www.w3.org/Graphics/SVG/1.1/DTD/svg11.dtd">
<svg version="1.1" id="Layer_1" xmlns="http://www.w3.org/2000/svg" xmlns:xlink="http://www.w3.org/1999/xlink" x="0px" y="0px"
	 width="1440px" height="700px" viewBox="0 0 1440 700" enable-background="new 0 0 1440 700" xml:space="preserve">
<g>
	<rect fill="#BDF4EE" width="1440" height="700"/>
	<path fill="#FFFFFF" d="M623.9,227.4c0-27.5-33.9-51-82.2-60.9c0.8-3.1,1.2-6.3,1.2-9.6c0-27.3-27.5-49.5-61.5-49.5
		c-13,0-25,3.2-34.9,8.8C426,77.3,382.2,50.4,331.4,50.4c-14.2,0-27.8,2.1-40.6,6c-34.8-29.2-89-48-149.9-48
		C85,8.4,34.8,24.2,0,49.4v167.2c29.6,21.4,70.4,36.1,116.4,39.9c-1.6,4.7-2.5,9.5-2.5,14.5c0,34,40.3,61.5,90,61.5
		c47.1,0,85.7-24.7,89.7-56.2c12,3.4,24.7,5.2,37.8,5.2c18.9,0,36.8-3.7,52.9-10.4c-0.3,1.9-0.4,3.9-0.4,5.9
		c0,30.7,31.6,55.5,70.5,55.5c32.5,0,59.9-17.3,68-40.9C580.7,284.4,623.9,258.4,623.9,227.4z"/>
	<path fill="#FFFFFF" d="M1440,92.2c-33.9-4.8-73.3-7.8-115.7-8.5c-15.3-26.1-66.5-45.2-127.3-45.2c-61.6,0-113.3,19.6-127.9,46.2
		c-12.6,1-24.9,2.5-36.7,4.5c-7.1-22.5-28.1-38.7-52.9-38.7c-30.7,0-55.5,24.9-55.5,55.5c0,8,1.7,15.6,4.7,22.4
		c-7,5-13.2,10.4-18.4,16c-4.8-0.6-9.8-0.9-14.9-0.9c-48.9,0-88.5,28.9-88.5,64.5c0,35.6,39.6,64.5,88.5,64.5
		c19.5,0,37.4-4.6,52-12.3c38.3,20.5,92.9,33.3,153.5,33.3c36.7,0,71.1-4.7,101.1-13c17.1,33.9,59.4,58,108.9,58
		c64.6,0,117-41,117-91.5c0-21.5-9.5-41.3-25.4-56.9c13.1-1.2,25.6-2.7,37.4-4.3V92.2z"/>
	<g>
		<path fill="#647F5B" d="M367.4,404.9c8.9-11.9,14.2-26.8,14.2-42.8c0-39.5-32-71.5-71.5-71.5c-19.2,0-36.5,7.5-49.4,19.8
			c-10.6-9.2-24.5-14.8-39.6-14.8c-22.5,0-42.1,12.3-52.6,30.5c-6.4-2.3-13.3-3.5-20.4-3.5c-33.4,0-60.5,27.1-60.5,60.5
			c0,13.7,4.5,26.3,12.2,36.4c-3.3,7.5-5.2,15.8-5.2,24.6c0,1.5,0.1,2.9,0.2,4.4c-4.6,8.5-7.2,18.2-7.2,28.6
			c0,13.7,4.5,26.3,12.2,36.4c-3.3,7.5-5.2,15.8-5.2,24.6c0,13.5,4.4,25.9,11.8,36c2.8,9.8,7.5,18.8,13.7,26.5
			c-10.4,12.9-16.6,29.2-16.6,47c0,20.4,8.2,38.9,21.4,52.4h101h6.2h57c15.3-10.2,25.4-27.6,25.4-47.4c0-4.3-0.5-8.5-1.4-12.6
			c28.8-6.4,50.4-32.2,50.4-62.9c0-4-0.4-7.9-1.1-11.7c14-5.1,24.1-18.5,24.1-34.3c0-13.9-7.8-26-19.2-32.2
			c8.9-11.9,14.2-26.8,14.2-42.8c0-0.2,0-0.4,0-0.5c3.2-5.4,5-11.7,5-18.5C386.6,423.2,378.8,411.1,367.4,404.9z"/>
		<path fill="#647F5B" d="M1370.6,447.1c0-13.9-7.8-26-19.2-32.2c8.9-11.9,14.2-26.8,14.2-42.8c0-39.5-32-71.5-71.5-71.5
			c-19.2,0-36.5,7.5-49.4,19.8c-10.6-9.2-24.5-14.8-39.6-14.8c-22.5,0-42.1,12.3-52.6,30.5c-6.4-2.3-13.3-3.5-20.4-3.5
			c-33.4,0-60.5,27.1-60.5,60.5c0,13.7,4.5,26.3,12.2,36.4c-3.3,7.5-5.2,15.8-5.2,24.6c0,23.7,13.6,44.2,33.4,54.1
			c-15,13.7-24.4,33.5-24.4,55.4c0,41.4,33.6,75,75,75c19.8,0,37.8-7.7,51.2-20.2c8.2,4.6,17.7,7.2,27.8,7.2c31.5,0,57-25.5,57-57
			c0-4.3-0.5-8.5-1.4-12.6c28.8-6.4,50.4-32.2,50.4-62.9c0-4-0.4-7.9-1.1-11.7C1360.6,476.3,1370.6,462.9,1370.6,447.1z"/>
	</g>
	<path fill="#719367" d="M235.2,486c10-13.3,15.9-29.8,15.9-47.7c0-0.8,0-1.6-0.1-2.4c3.6-6,5.6-13.1,5.6-20.6
		c0-15.5-8.7-29-21.4-35.8c10-13.3,15.9-29.8,15.9-47.7c0-44-35.7-79.6-79.6-79.6c-21.3,0-40.7,8.4-55,22.1
		c-11.8-10.3-27.2-16.5-44.1-16.5c-25.1,0-46.9,13.7-58.5,34c-4.4-1.6-9-2.7-13.7-3.4v67.4v39.2v27v7.2v33.2v3v25.1v14.6v23.4v7.2
		v36.2V597v14.6v13.2V700h66.1H93h66.8c10.3-11.3,16.7-26.3,16.7-42.9c0-4.8-0.6-9.5-1.6-14C207,636,231,607.3,231,573.1
		c0-4.4-0.4-8.8-1.2-13c15.6-5.7,26.8-20.6,26.8-38.2C256.6,506.3,247.9,492.9,235.2,486z"/>
	<path fill="#ACD39F" d="M243.8,209.7c-2.8-1.5-5.6-2.7-8.5-3.5c6-20.6-2.9-43.3-22.5-54.1c-2.5-1.4-5.2-2.5-7.8-3.4
		c1.7-10.7-3.4-21.8-13.5-27.3c-8.9-4.8-19.3-4.1-27.2,1.1c-4.5-9.9-12.1-18.4-22.3-24c-25.2-13.8-56.7-4.5-70.5,20.6
		c-6.7,12.2-7.9,25.9-4.6,38.4c-9.6,3.6-18,10.4-23.2,20.1c-7.8,14.3-6.8,31.1,1.2,44.1c-3.7,3.3-6.9,7.2-9.4,11.8
		c-11.6,21.3-3.8,48,17.5,59.6c8.7,4.8,18.3,6.3,27.5,4.9c3.6,4.7,8.3,8.8,13.8,11.9c15.1,8.3,32.9,6.7,46.1-2.5
		c3.5,14.3,12.8,27.2,26.8,34.9c26.4,14.4,59.5,4.7,73.9-21.7c6.9-12.6,8.3-26.8,5-39.7c5.8-3.6,10.8-8.8,14.3-15.2
		C271.3,245.9,263.9,220.7,243.8,209.7z"/>
	<path fill="#ACD39F" d="M1398.7,239.9c-16.5-2.6-32.5,2.1-44.6,11.8c-5.1-16.1-18.9-28.8-36.7-31.6c-6.6-1-13.1-0.6-19.1,1
		c-6.7-7-15.7-11.9-26-13.5c-25.1-4-48.7,13.2-52.7,38.3c-0.9,5.4-0.7,10.7,0.2,15.8c-15,5.7-26.6,19-29.2,35.9
		c-1.8,11.4,0.8,22.5,6.4,31.6c-10.8,8.2-18.5,20.4-20.8,34.8c-4.7,29.7,15.6,57.6,45.3,62.3c12.1,1.9,23.9-0.3,33.9-5.6
		c3.3,9.4,11.4,16.7,21.9,18.3c11.9,1.9,23.2-4.1,28.7-14c2.8,1,5.7,1.7,8.7,2.2c23.2,3.7,45.1-9.5,53.4-30.4c2.9,1.2,6,2,9.3,2.6
		c23.7,3.7,45.9-12.4,49.7-36.1c1.2-7.6,0.3-15-2.1-21.8c6.1-4.8,11.3-10.8,15.1-17.8V269C1431.8,254,1417,242.7,1398.7,239.9z"/>
	<path fill="#719367" d="M1429.7,323.9c-10.6-9.2-24.5-14.8-39.6-14.8c-22.5,0-42.1,12.3-52.6,30.5c-6.4-2.3-13.3-3.5-20.4-3.5
		c-33.4,0-60.5,27.1-60.5,60.5c0,13.7,4.5,26.3,12.2,36.4c-3.3,7.5-5.2,15.8-5.2,24.6c0,13.8,4.6,26.5,12.4,36.6
		c-4.1,4-7.6,8.5-10.4,13.4c-6.4-2.3-13.3-3.5-20.4-3.5c-33.4,0-60.5,27.1-60.5,60.5c0,13.7,4.5,26.3,12.2,36.4
		c-3.3,7.5-5.2,15.8-5.2,24.6c0,23.7,13.6,44.2,33.5,54.1c-6.3,5.8-11.7,12.7-15.7,20.3h44.3h60.4h27.8h0.3h37.4h15.6h44.9v-45.6
		v-26.9v-10.2v-10.3v-24.3v-28.1v-7.1v-30.8v-36.6v-25.6v-7.8v-8.1v-3.1v-31.6v-67.1v-1.3v-19.6
		C1436.3,318.1,1432.9,320.9,1429.7,323.9z"/>
</g>
</svg>
