<?xml version="1.0" encoding="utf-8"?>
<!-- Generator: Adobe Illustrator 16.0.0, SVG Export Plug-In . SVG Version: 6.00 Build 0)  -->
<!DOCTYPE svg PUBLIC "-//W3C//DTD SVG 1.1//EN" "http://www.w3.org/Graphics/SVG/1.1/DTD/svg11.dtd">
<svg version="1.1" id="Layer_1" xmlns="http://www.w3.org/2000/svg" xmlns:xlink="http://www.w3.org/1999/xlink" x="0px" y="0px"
	 width="1048px" height="139.3px" viewBox="0 0 1048 139.3" enable-background="new 0 0 1048 139.3" xml:space="preserve">
<g>
	<g>
		<g>
			<g>
				<path fill="#B7B7B7" d="M779,139.3h89.3c0,0,0,0,0-0.1L779,139.3C779,139.3,779,139.3,779,139.3z"/>
				<path fill="#B7B7B7" d="M823.7,66.7c-25.4,0-45.9,26.4-45.9,59c0,4.7,0.4,9.2,1.2,13.6h89.3c0.8-4.4,1.2-8.9,1.2-13.6
					C869.6,93.1,849,66.7,823.7,66.7z"/>
				<path fill="#B7B7B7" d="M823.7,18.1c-14.6,0-26.4,11.8-26.4,26.3c0,14.6,11.8,26.4,26.4,26.4c14.5,0,26.3-11.8,26.3-26.4
					C850,29.9,838.2,18.1,823.7,18.1z"/>
			</g>
		</g>
		<g>
			<g>
				<path fill="#B7B7B7" d="M868,139.3h89.3c0,0,0,0,0-0.1L868,139.3C868,139.3,868,139.3,868,139.3z"/>
				<path fill="#B7B7B7" d="M912.7,66.7c-25.4,0-45.9,26.4-45.9,59c0,4.7,0.4,9.2,1.2,13.6h89.3c0.8-4.4,1.2-8.9,1.2-13.6
					C958.6,93.1,938,66.7,912.7,66.7z"/>
				<path fill="#B7B7B7" d="M912.7,18.1c-14.6,0-26.4,11.8-26.4,26.3c0,14.6,11.8,26.4,26.4,26.4c14.5,0,26.3-11.8,26.3-26.4
					C939,29.9,927.2,18.1,912.7,18.1z"/>
			</g>
		</g>
		<g>
			<g>
				<path fill="#B7B7B7" d="M952.6,139.3h89.3c0,0,0,0,0-0.1L952.6,139.3C952.6,139.3,952.6,139.3,952.6,139.3z"/>
				<path fill="#B7B7B7" d="M997.3,66.7c-25.4,0-45.9,26.4-45.9,59c0,4.7,0.4,9.2,1.2,13.6h89.3c0.8-4.4,1.2-8.9,1.2-13.6
					C1043.2,93.1,1022.6,66.7,997.3,66.7z"/>
				<path fill="#B7B7B7" d="M997.3,18.1c-14.6,0-26.4,11.8-26.4,26.3c0,14.6,11.8,26.4,26.4,26.4c14.5,0,26.3-11.8,26.3-26.4
					C1023.6,29.9,1011.8,18.1,997.3,18.1z"/>
			</g>
		</g>
	</g>
	<g>
		<path fill="#686868" d="M1017.5,43.8c7.9-3.6,13.4-11.6,13.4-20.9c0-12.7-10.3-23-22.9-23c-12.7,0-23,10.3-23,23
			c0,9.3,5.5,17.3,13.4,20.9C985.2,48,974.6,60.6,970.2,77c-4.4-16.4-15-29-28.3-33.2c7.9-3.6,13.4-11.6,13.4-20.9
			c0-12.7-10.3-23-22.9-23c-12.7,0-23,10.3-23,23c0,9.3,5.5,17.3,13.4,20.9c-12.4,3.9-22.5,15.1-27.3,29.9
			c-4.9-14.8-15-26-27.3-29.9c7.9-3.6,13.4-11.6,13.4-20.9c0-12.7-10.3-23-22.9-23c-12.7,0-23,10.3-23,23c0,9.3,5.5,17.3,13.4,20.9
			c-14.3,4.5-25.6,18.9-29.2,37.2c-3.6-18.3-14.9-32.7-29.2-37.2c7.9-3.6,13.4-11.6,13.4-20.9c0-12.7-10.3-23-22.9-23
			c-12.7,0-23,10.3-23,23c0,9.3,5.5,17.3,13.4,20.9c-17.5,5.5-30.5,25.8-30.5,49.9c0,3.9,0.4,38.9,1,45.2c0,0.2,0,0.1,0.1,0h0h5.3
			H820c0.5-2.6,0.8-20.5,1-33.1l76.6,17.4c0.4-2.2,0.7-10.4,0.9-17.7h70.6h2.2h75.6c0.7-3.8,1.1-7.8,1.1-11.9
			C1048,69.6,1035,49.3,1017.5,43.8z"/>
		<path fill="#686868" d="M278.1,45.2c7.9-3.6,13.4-11.6,13.4-20.9c0-12.7-10.3-23-22.9-23c-12.7,0-23,10.3-23,23
			c0,9.3,5.5,17.3,13.4,20.9c-7.5,2.4-14.2,7.4-19.3,14.3c-5.3-7.6-12.3-13.2-20.3-15.7c7.9-3.6,13.4-11.6,13.4-20.9
			c0-12.7-10.3-23-22.9-23c-12.7,0-23,10.3-23,23c0,9.3,5.5,17.3,13.4,20.9c-10.5,3.3-19.4,11.9-24.8,23.5
			c-5.4-11.6-14.3-20.2-24.8-23.5c7.9-3.6,13.4-11.6,13.4-20.9c0-12.7-10.3-23-22.9-23c-12.7,0-23,10.3-23,23
			c0,9.3,5.5,17.3,13.4,20.9C118.5,48,107.8,60.6,103.4,77c-4.4-16.4-15-29-28.3-33.2C83,40.2,88.6,32.2,88.6,23
			c0-12.7-10.3-23-22.9-23c-12.7,0-23,10.3-23,23c0,9.3,5.5,17.3,13.4,20.9c-17.5,5.5-30.5,25.8-30.5,49.9c0,4.1,0.4,8.1,1.1,11.9
			h75.6h2.2H171h9.2h48.5c0.2,12.3,0.5,31,1,33.7h77.8c0.7-3.8,1.1-40.1,1.1-44.2C308.6,70.9,295.6,50.7,278.1,45.2z"/>
	</g>
	<g>
		<g>
			<g>
				<path fill="#B7B7B7" d="M1.3,139.3h89.3c0,0,0,0,0-0.1L1.3,139.3C1.2,139.3,1.3,139.3,1.3,139.3z"/>
				<path fill="#B7B7B7" d="M45.9,66.7C20.6,66.7,0,93.1,0,125.7c0,4.7,0.4,9.2,1.2,13.6h89.3c0.8-4.4,1.2-8.9,1.2-13.6
					C91.8,93.1,71.3,66.7,45.9,66.7z"/>
				<path fill="#B7B7B7" d="M45.9,18.1c-14.6,0-26.4,11.8-26.4,26.3c0,14.6,11.8,26.4,26.4,26.4c14.5,0,26.3-11.8,26.3-26.4
					C72.3,29.9,60.5,18.1,45.9,18.1z"/>
			</g>
		</g>
		<g>
			<g>
				<path fill="#B7B7B7" d="M85.9,139.3h89.3c0,0,0,0,0-0.1L85.9,139.3C85.9,139.3,85.9,139.3,85.9,139.3z"/>
				<path fill="#B7B7B7" d="M130.5,66.7c-25.4,0-45.9,26.4-45.9,59c0,4.7,0.4,9.2,1.2,13.6h89.3c0.8-4.4,1.2-8.9,1.2-13.6
					C176.4,93.1,155.9,66.7,130.5,66.7z"/>
				<path fill="#B7B7B7" d="M130.5,18.1c-14.6,0-26.4,11.8-26.4,26.3c0,14.6,11.8,26.4,26.4,26.4c14.5,0,26.3-11.8,26.3-26.4
					C156.9,29.9,145.1,18.1,130.5,18.1z"/>
			</g>
		</g>
		<g>
			<g>
				<path fill="#B7B7B7" d="M172.7,139.3H262c0,0,0,0,0,0H172.7C172.7,139.3,172.7,139.3,172.7,139.3z"/>
				<path fill="#B7B7B7" d="M217.3,66.7c-25.4,0-45.9,26.4-45.9,59c0,4.7,0.4,9.2,1.2,13.6l89.3,0.1c0.8-4.4,1.2-9,1.2-13.7
					C263.2,93.1,242.7,66.7,217.3,66.7z"/>
				<path fill="#B7B7B7" d="M217.3,18.1c-14.6,0-26.4,11.8-26.4,26.3c0,14.6,11.8,26.4,26.4,26.4c14.5,0,26.3-11.8,26.3-26.4
					C243.7,29.9,231.9,18.1,217.3,18.1z"/>
			</g>
		</g>
	</g>
	<g>
		<path fill="#B7B7B7" d="M1008.2,68.4c9.1-4.2,15.4-13.3,15.4-24c0-14.6-11.8-26.3-26.3-26.3c-14.6,0-26.4,11.8-26.4,26.3
			c0,10.7,6.3,19.8,15.4,24c-14.2,4.5-25.8,17.4-31.4,34.3c-5.6-17-17.2-29.9-31.4-34.3c9.1-4.2,15.4-13.3,15.4-24
			c0-14.6-11.8-26.3-26.3-26.3c-14.6,0-26.4,11.8-26.4,26.3c0,10.7,6.3,19.8,15.4,24c-16.4,5.2-29.4,21.7-33.6,42.7
			c-4.2-21-17.1-37.6-33.6-42.7c9.1-4.2,15.4-13.3,15.4-24c0-14.6-11.8-26.3-26.3-26.3c-14.6,0-26.4,11.8-26.4,26.3
			c0,10.7,6.3,19.8,15.4,24c-20.1,6.3-35,29.6-35,57.3c0,4.7,0.4,9.2,1.2,13.6c0,0,0,0,0,0.1h89h0.3h84.3h4.7h84.6c0,0,0,0,0-0.1
			c0.8-4.4,1.2-8.9,1.2-13.6C1043.2,97.9,1028.3,74.7,1008.2,68.4z"/>
		<path fill="#B7B7B7" d="M228.3,68.4c9.1-4.2,15.4-13.3,15.4-24c0-14.6-11.8-26.3-26.3-26.3c-14.6,0-26.4,11.8-26.4,26.3
			c0,10.7,6.3,19.8,15.4,24c-15.2,4.8-27.4,19.3-32.5,38.1c-5-18.8-17.3-33.3-32.5-38.1c9.1-4.2,15.4-13.3,15.4-24
			c0-14.6-11.8-26.3-26.3-26.3c-14.6,0-26.4,11.8-26.4,26.3c0,10.7,6.3,19.8,15.4,24c-14.2,4.5-25.8,17.4-31.4,34.3
			c-5.6-17-17.2-29.9-31.4-34.3c9.1-4.2,15.4-13.3,15.4-24c0-14.6-11.8-26.3-26.3-26.3c-14.6,0-26.4,11.8-26.4,26.3
			c0,10.7,6.3,19.8,15.4,24C14.9,74.7,0,97.9,0,125.7c0,4.7,0.4,9.2,1.2,13.6c0,0,0,0,0,0.1h84.6h4.7h82.1h2.5H262c0,0,0,0,0,0
			c0.8-4.4,1.2-9,1.2-13.7C263.2,97.9,248.3,74.7,228.3,68.4z"/>
	</g>
</g>
</svg>
