<?xml version="1.0" encoding="utf-8"?>
<!-- Generator: Adobe Illustrator 16.0.0, SVG Export Plug-In . SVG Version: 6.00 Build 0)  -->
<!DOCTYPE svg PUBLIC "-//W3C//DTD SVG 1.1//EN" "http://www.w3.org/Graphics/SVG/1.1/DTD/svg11.dtd">
<svg version="1.1" id="Layer_1" xmlns="http://www.w3.org/2000/svg" xmlns:xlink="http://www.w3.org/1999/xlink" x="0px" y="0px"
	 width="494px" height="309px" viewBox="0 0 494 309" enable-background="new 0 0 494 309" xml:space="preserve">
<g>
	<rect y="0" fill="#E2E0E0" width="494.6" height="309"/>
	<g>
		<g opacity="0.4">
			<rect x="24.5" y="24.7" fill="#1781E2" width="96" height="23.3"/>
			<rect x="24.5" y="68.7" fill="#231F20" width="96" height="23.3"/>
			<rect x="24.5" y="112.7" fill="#E0192D" width="96" height="23.3"/>
			<rect x="24.5" y="156.7" fill="#EDEEEF" width="96" height="23.3"/>
			<rect x="24.5" y="200.7" fill="#30EAEF" width="96" height="23.3"/>
			<rect x="24.5" y="244.7" fill="#1781E2" width="96" height="23.3"/>
			<rect x="141.1" y="24.7" fill="#E0192D" width="96" height="23.3"/>
			<rect x="141.1" y="68.7" fill="#EDEEEF" width="96" height="23.3"/>
			<rect x="141.1" y="112.7" fill="#1781E2" width="96" height="23.3"/>
			<rect x="141.1" y="156.7" fill="#231F20" width="96" height="23.3"/>
			<rect x="258.5" y="24.7" fill="#30EAEF" width="96" height="23.3"/>
			<rect x="258.5" y="68.7" fill="#1781E2" width="96" height="23.3"/>
			<rect x="258.5" y="112.7" fill="#231F20" width="96" height="23.3"/>
			<rect x="258.5" y="156.7" fill="#E0192D" width="96" height="23.3"/>
			<rect x="373.1" y="24.7" fill="#E0192D" width="96" height="23.3"/>
			<rect x="373.1" y="68.7" fill="#30EAEF" width="96" height="23.3"/>
			<rect x="373.1" y="112.7" fill="#EDEEEF" width="96" height="23.3"/>
			<rect x="373.1" y="156.7" fill="#1781E2" width="96" height="23.3"/>
			<rect x="373.1" y="200.7" fill="#1781E2" width="96" height="23.3"/>
			<rect x="373.1" y="244.7" fill="#1781E2" width="96" height="23.3"/>
		</g>
		<g>
			<g>
				<g>
					<polygon fill="#B7B7B7" points="217.9,110.4 226.8,109.6 224.7,116.2 					"/>
					<polygon fill="#B7B7B7" points="275.9,110.4 267.1,109.6 269.1,116.2 					"/>
					<path fill="#F4B07D" d="M275.5,150.2h-56.8c0,0,9.3-41.9,9.3-62c0-11.6,38-11.6,38,0C266,117.2,275.5,150.2,275.5,150.2z"/>
					<g>
						<path fill="#F4B07D" d="M268.2,51.1c0,0-8.6-1.5-22-1.3c-13.3-0.2-21.4,2.9-21.4,2.9c-4.7,8.5-0.8,41.6-0.8,41.6
							c0,13,16.2,20.4,23.1,20.4c6.8,0,23.1-6.8,23.1-20.4C270.2,94.4,272.9,59.6,268.2,51.1z"/>
						<circle fill="#2E230E" cx="234.2" cy="74.3" r="1.4"/>
						<path fill="#593B2E" d="M227.9,67.3c0,0,6.6-1,11.2,4.3c0,0,2.3,0.2,1.3-1.4C240.4,70.3,234.5,64.5,227.9,67.3z"/>
						<circle fill="#2E230E" cx="259" cy="74.3" r="1.4"/>
						<path fill="#593B2E" d="M266.5,68.2c0,0-6.5-1.3-11.4,3.9c0,0-2.3,0.1-1.2-1.4C253.9,70.6,260,65.1,266.5,68.2z"/>
						<path fill="#F4B07D" d="M223.6,78.7c0,0-4.9-8-6.6-0.6c-0.5,2.3-0.6,14.6,6.4,6.8"/>
						
							<path fill="none" stroke="#C18963" stroke-width="0.7778" stroke-linecap="round" stroke-linejoin="round" stroke-miterlimit="10" d="
							M220.5,78.9c0,0-2.5,1.9,0,4.9"/>
						<path fill="#F4B07D" d="M269.8,78.7c0,0,4.9-8,6.6-0.6c0.5,2.3,0.6,14.6-6.4,6.8"/>
						
							<path fill="none" stroke="#C18963" stroke-width="0.7778" stroke-linecap="round" stroke-linejoin="round" stroke-miterlimit="10" d="
							M272.9,78.9c0,0,2.5,1.9,0,4.9"/>
						<path fill="#1D1613" d="M276.5,63.3c-0.1-0.2,0-0.7,0-0.7s3.3-14.4-1.3-17.2c0,0-0.8-4.3-7.5-5.2c0,0-2.7-4.3-9-3.8
							c0,0-2.7-2.3-8.5-1.3l-3.3,0.1V35h-3.5c-5.8-1-8.5,1.3-8.5,1.3c-6.3-0.5-9,3.8-9,3.8c-6.6,1-7.5,5.2-7.5,5.2
							c-4.6,2.8-1.3,17.2-1.3,17.2s0.1,0.4,0,0.7c-1.8,3.5,2.2,8.9,2.2,8.9c-0.5,4.6,3.6,12.7,3.6,12.7l-0.2-7.8
							c0-3.6,3.2-7.2,3.2-7.2c0.3-1.6-2.2-7.8-2.7-10.5c-1-5.8,6.8-1.8,6.8-1.8c4.6,3.8,11,0.8,11,0.8c1.5,3.2,4.4,2.5,5.5,2.1
							c1,0.3,4.6,1.2,6.2-2.1c0,0,6.3,3,11-0.8c0,0,7.8-4,6.8,1.8c-0.4,2.7-3,8.9-2.7,10.5c0,0,3.2,3.6,3.2,7.2l-0.2,7.8
							c0,0,4.1-8.1,3.6-12.7C274.4,72.1,278.3,66.7,276.5,63.3z"/>
						<g>
							<path fill="none" stroke="#B2887B" stroke-width="0.6244" stroke-linecap="round" stroke-miterlimit="10" d="M252,79.9
								c0,0,1,2.2-2,2.5c0,0-0.7,2-3.1,2c-2.4,0-3.1-2-3.1-2c-3.1-0.2-2-2.5-2-2.5"/>
						</g>
						<path opacity="0.1" fill="#1D1613" d="M258,97.7c0-5.9-4.9-10.8-10.9-10.8c-6,0-10.9,4.8-10.9,10.8c0,0.3,0,0.5,0,0.8
							c0,0.3,0,0.5,0,0.8c0,6,4.9,10.8,10.9,10.8c6,0,10.9-4.8,10.9-10.8c0-0.3,0-0.5,0-0.8C257.9,98.3,258,98,258,97.7z
							 M247.2,102.2c-4.5,0-8.1-2.2-8.1-4.8c0-2.7,3.6-4.8,8.1-4.8c4.5,0,8.1,2.2,8.1,4.8C255.3,100,251.7,102.2,247.2,102.2z"/>
						<ellipse fill="#B2887B" cx="247.2" cy="97.4" rx="4.2" ry="1.7"/>
					</g>
				</g>
				
					<path fill="none" stroke="#F4B07D" stroke-width="14.4017" stroke-linecap="round" stroke-linejoin="round" stroke-miterlimit="10" d="
					M222.1,123.3c0,0-27.2,19.7-29.5,40.8c-2.4,21.8-1.2,34.4-1.2,46"/>
				<path fill="none" stroke="#0A1223" stroke-width="14.5491" stroke-linejoin="round" stroke-miterlimit="10" d="M222.1,123.3
					c0,0-27.2,19.7-29.5,40.8c-2.4,21.8-1.2,34.4-1.2,46"/>
				<g>
					
						<path fill="none" stroke="#F4B07D" stroke-width="14.4017" stroke-linecap="round" stroke-linejoin="round" stroke-miterlimit="10" d="
						M271.5,141.8c0,0,28-20.6,30.3-41.7c2.4-21.8,1.2-34.4,1.2-46"/>
					<path fill="none" stroke="#0A1223" stroke-width="14.5491" stroke-linejoin="round" stroke-miterlimit="10" d="M271.5,141.8
						c0,0,28-20.6,30.3-41.7c2.4-21.8,1.2-34.4,1.2-46"/>
				</g>
				<ellipse opacity="0.2" fill="#232222" cx="246.9" cy="188.1" rx="1.1" ry="1.8"/>
				<rect x="219.9" y="119.1" fill="#CEE7ED" width="52.4" height="83.2"/>
				<path fill="#0A1223" d="M205,190.5c0,0-0.2,14.5-1.8,20.6c0,0-0.5,1.1,5.7,1.1c0,0,12.5,1.5,13.9-0.1l-0.4-18.4L205,190.5z"/>
				<path fill="#0A1223" d="M224,116.8V203h-18.3c0,0-7-67.1,12.4-86.2H224z"/>
				<path fill="#0A1223" d="M288.7,191.6c0,0-0.5,11.4,1.3,20.4c0,0-0.4,0.2-6.6,0.2c0,0-12.5,1.5-13.9-0.1l0.4-18.4L288.7,191.6z"
					/>
				<path fill="#0A1223" d="M269.8,116.8V203h18.3c0,0,5.8-68.3-12.4-86.2H269.8z"/>
				<polygon fill="#0A1C33" points="223.6,116.7 213,130.7 223,131.4 213,144.1 223.6,183 				"/>
				<polygon fill="#0A1C33" points="269.8,116.7 280.4,130.7 270.4,131.4 280.4,144.1 269.8,183 				"/>
				<g>
					<g>
						<polygon fill="#101726" points="238.8,119.4 246.6,127.2 254.7,119.4 246.8,117.4 						"/>
						<path fill="#101726" d="M249.4,123.9l-2.5-2.5v-0.3l-0.1,0.1l-0.1-0.1l0,0.3l-2.4,2.5l-5.7,61.8c0,0,6.3,14.2,8.4,14.2
							c2.7,0,8.2-14.2,8.2-14.2L249.4,123.9z"/>
					</g>
					<polygon fill="#C5E4EA" points="220.1,111.1 247.1,117.4 238.7,126.3 217.9,116.7 217.9,110.4 					"/>
					<polygon fill="#C5E4EA" points="273.8,111.1 246.8,117.4 255.2,126.3 276,116.7 276,110.4 					"/>
				</g>
			</g>
			<rect x="69.3" y="191.6" fill="#54504E" width="355.3" height="117.4"/>
		</g>
	</g>
</g>
</svg>
