<?xml version="1.0" encoding="utf-8"?>
<!-- Generator: Adobe Illustrator 16.0.0, SVG Export Plug-In . SVG Version: 6.00 Build 0)  -->
<!DOCTYPE svg PUBLIC "-//W3C//DTD SVG 1.1//EN" "http://www.w3.org/Graphics/SVG/1.1/DTD/svg11.dtd">
<svg version="1.1" id="Layer_1" xmlns="http://www.w3.org/2000/svg" xmlns:xlink="http://www.w3.org/1999/xlink" x="0px" y="0px"
	 width="921.496px" height="266.01px" viewBox="0 0 921.496 266.01" enable-background="new 0 0 921.496 266.01"
	 xml:space="preserve">
<g>
	<g>
		<polygon fill="#FFFFFF" points="534.565,157.813 902.894,157.813 905.375,125.567 916.537,125.567 921.496,170.213 511,233.461 		
			"/>
		<g>
			<polygon fill="#3F8E6E" points="601.248,157.404 567.725,215.465 534.204,157.404 			"/>
			<polygon fill="#3F8E6E" points="628.643,157.404 597.499,211.344 566.357,157.403 			"/>
			<polygon fill="#3F8E6E" points="656.036,157.404 627.271,207.223 598.51,157.403 			"/>
			<polygon fill="#3F8E6E" points="683.43,157.404 657.045,203.101 630.662,157.404 			"/>
			<polygon fill="#3F8E6E" points="710.824,157.404 686.818,198.98 662.815,157.404 			"/>
			<polygon fill="#3F8E6E" points="738.218,157.404 716.592,194.86 694.969,157.403 			"/>
			<polygon fill="#3F8E6E" points="765.611,157.404 746.365,190.738 727.121,157.404 			"/>
			<polygon fill="#3F8E6E" points="793.006,157.404 776.139,186.617 759.273,157.404 			"/>
			<polygon fill="#3F8E6E" points="820.399,157.405 805.912,182.494 791.426,157.404 			"/>
			<polygon fill="#3F8E6E" points="844.46,157.405 832.353,178.374 820.246,157.405 			"/>
			<polygon fill="#3F8E6E" points="863.854,157.405 854.126,174.252 844.398,157.404 			"/>
			<polygon fill="#3F8E6E" points="878.854,157.405 870.793,171.365 862.732,157.404 			"/>
			<polygon fill="#3F8E6E" points="893.247,157.405 885.898,170.131 878.552,157.404 			"/>
			<polygon fill="#3F8E6E" points="903.247,157.405 898.398,165.801 893.552,157.404 			"/>
		</g>
		<polygon fill="#FFFFFF" points="386.931,157.813 18.603,157.813 16.121,125.567 4.959,125.567 0,170.213 410.496,233.461 		"/>
		<g>
			<polygon fill="#3F8E6E" points="320.248,157.404 353.771,215.465 387.292,157.404 			"/>
			<polygon fill="#3F8E6E" points="292.854,157.404 323.997,211.344 355.139,157.403 			"/>
			<polygon fill="#3F8E6E" points="265.46,157.404 294.225,207.223 322.986,157.403 			"/>
			<polygon fill="#3F8E6E" points="238.066,157.404 264.451,203.101 290.834,157.404 			"/>
			<polygon fill="#3F8E6E" points="210.672,157.404 234.678,198.98 258.681,157.404 			"/>
			<polygon fill="#3F8E6E" points="183.278,157.404 204.904,194.86 226.527,157.403 			"/>
			<polygon fill="#3F8E6E" points="155.885,157.404 175.131,190.738 194.375,157.404 			"/>
			<polygon fill="#3F8E6E" points="128.49,157.404 145.357,186.617 162.223,157.404 			"/>
			<polygon fill="#3F8E6E" points="101.097,157.405 115.584,182.494 130.07,157.404 			"/>
			<polygon fill="#3F8E6E" points="77.036,157.405 89.144,178.374 101.25,157.405 			"/>
			<polygon fill="#3F8E6E" points="57.642,157.405 67.37,174.252 77.098,157.404 			"/>
			<polygon fill="#3F8E6E" points="42.642,157.405 50.703,171.365 58.764,157.404 			"/>
			<polygon fill="#3F8E6E" points="28.249,157.405 35.598,170.131 42.944,157.404 			"/>
			<polygon fill="#3F8E6E" points="18.249,157.405 23.098,165.801 27.944,157.404 			"/>
		</g>
		<polygon fill="#EAEAEA" points="472.882,100.448 449.629,100.448 457.07,39.989 465.441,39.989 		"/>
		<polygon fill="#EAEAEA" points="383.589,130.677 251.511,115.796 250.581,119.982 380.799,142.304 		"/>
		<path fill="#FFFFFF" d="M533.651,246.012c0,10.273-8.33,18.604-18.603,18.604H405.913c-10.274,0-18.603-8.33-18.603-18.604
			v-66.348c0-10.273,8.329-18.602,18.603-18.602h109.136c10.272,0,18.603,8.328,18.603,18.602V246.012z"/>
		<circle fill="#EAEAEA" cx="246.86" cy="230.667" r="35.345"/>
		<circle fill="#EAEAEA" cx="246.86" cy="230.667" r="35.345"/>
		<circle fill="#3F3B3C" cx="246.86" cy="230.667" r="26.182"/>
		<circle fill="#757475" cx="246.86" cy="230.667" r="10.036"/>
		<polygon fill="none" stroke="#FFFFFF" stroke-width="0.7097" stroke-miterlimit="10" points="538.456,130.677 670.535,115.796 
			671.465,119.982 541.246,142.304 		"/>
		<path opacity="0.1" fill="#231F20" d="M374.288,172.378c0,0-14.263,81.105,86.968,87.988v-92.33L374.288,172.378z"/>
		<polygon fill="#EAEAEA" points="542.181,130.677 674.259,115.796 675.189,119.982 544.971,142.304 		"/>
		<circle fill="#EAEAEA" cx="675.189" cy="230.667" r="35.345"/>
		<circle fill="#EAEAEA" cx="675.189" cy="230.667" r="35.345"/>
		<circle fill="#3F3B3C" cx="675.189" cy="230.667" r="26.182"/>
		<circle fill="#757475" cx="675.189" cy="230.667" r="10.035"/>
		<path opacity="0.1" fill="#231F20" d="M547.761,172.378c0,0,14.263,81.105-86.967,87.988v-92.33L547.761,172.378z"/>
		<path fill="#FFFFFF" d="M546.827,153.465c-3.239-28.536-17.293-75.181-81.856-80.601l0.005-0.321c-1.259,0-2.496,0.033-3.72,0.084
			c-1.225-0.051-2.462-0.084-3.721-0.084l0.004,0.321c-64.562,5.42-78.616,52.064-81.855,80.601
			c-2.154,18.969-0.476,34.584,3.671,47.436h163.801C547.304,188.049,548.98,172.434,546.827,153.465z"/>
		<path fill="#FFFFFF" d="M379.355,200.901c16.328,50.608,70.964,58.381,80.968,59.381l0.002,0.148c0,0,0.327-0.014,0.931-0.064
			c0.603,0.051,0.93,0.064,0.93,0.064l0.002-0.148c10.004-1,64.641-8.771,80.969-59.381H379.355z"/>
		<polygon fill="#9EDDDD" points="456.14,143.233 456.14,119.052 433.352,119.052 423.12,143.233 		"/>
		<polygon fill="#9EDDDD" points="402.348,143.233 415.757,143.233 426.918,119.052 413.509,119.052 		"/>
		<polygon fill="#9EDDDD" points="467.457,143.233 467.457,119.052 490.246,119.052 500.477,143.233 		"/>
		<polygon fill="#9EDDDD" points="521.249,143.233 507.84,143.233 496.679,119.052 510.087,119.052 		"/>
		<path d="M459.77,202.248c1.5-12.62,8.053-33.49,39.937-31.45c8.979,0.574,18.625,2.393,32.948,14.478
			c11.174,9.427,50.418,20.467,58.407-2.996c0.918-2.699,1.995-10.483-4.494-10.483c0,0-7.487,0.499-7.487,5.99
			c0,0-3.994-13.478,11.981-11.98c0,0,21.688,4.786,6.987,34.445c-9.866,19.904-18.47,32.448-79.873,38.938
			C518.176,239.188,454.815,243.89,459.77,202.248z"/>
		<path d="M464.883,202.248c-1.5-12.62-8.053-33.49-39.937-31.45c-8.979,0.574-18.625,2.393-32.948,14.478
			c-11.174,9.427-50.418,20.467-58.407-2.996c-0.918-2.699-1.995-10.483,4.494-10.483c0,0,7.487,0.499,7.487,5.99
			c0,0,3.994-13.478-11.981-11.98c0,0-21.688,4.786-6.987,34.445c9.866,19.904,18.47,32.448,79.873,38.938
			C406.477,239.188,469.837,243.89,464.883,202.248z"/>
	</g>
	<g>
		<path opacity="0.1" fill="#231F20" d="M411.73,86.135c0,0,65.668,17.666,96.168-1.834
			C507.898,84.301,434.062,59.969,411.73,86.135z"/>
		<g>
			<path fill="#E5BFA3" d="M437.679,57.748c0,0,10.553-58.045,24.717-56.656c0,0,14.469-4.956,24.719,58.044
				C487.115,59.135,465.174,75.799,437.679,57.748z"/>
			<path fill="#E32000" d="M440.767,42.469c-1.979,8.187-3.087,14.278-3.087,14.278c27.495,18.052,49.436,1.388,49.436,1.388
				c-0.941-5.781-1.918-10.974-2.915-15.666H440.767z"/>
			<path fill="#3F8E6E" d="M462.16,0.091c-7.616-0.746-14.187,15.688-18.635,31.045h37.743C472.05-3.293,462.16,0.091,462.16,0.091z
				"/>
		</g>
		<g>
			<path fill="#E5BFA3" d="M396.73,55.802v15.333c0,8.284,6.716,15,15,15h101.334c8.283,0,15-6.716,15-15V55.802H396.73z"/>
			<g>
				<polygon fill="#EAA400" points="415.064,57.841 406.064,73.43 397.063,57.841 				"/>
				<polygon fill="#EAA400" points="433.842,57.842 424.842,73.43 415.842,57.842 				"/>
				<polygon fill="#EAA400" points="452.62,57.841 443.619,73.43 434.619,57.841 				"/>
				<polygon fill="#EAA400" points="471.397,57.841 462.397,73.43 453.396,57.841 				"/>
				<polygon fill="#EAA400" points="490.175,57.841 481.175,73.43 472.175,57.841 				"/>
				<polygon fill="#EAA400" points="508.953,57.841 499.953,73.43 490.953,57.841 				"/>
				<polygon fill="#EAA400" points="527.73,57.841 518.73,73.43 509.73,57.841 				"/>
			</g>
			<g>
				<polygon fill="#EAA400" points="415.064,57.841 406.064,73.43 397.063,57.841 				"/>
				<polygon fill="#EAA400" points="433.842,57.842 424.842,73.43 415.842,57.842 				"/>
				<polygon fill="#EAA400" points="452.62,57.841 443.619,73.43 434.619,57.841 				"/>
				<polygon fill="#EAA400" points="471.397,57.841 462.397,73.43 453.396,57.841 				"/>
				<polygon fill="#EAA400" points="490.175,57.841 481.175,73.43 472.175,57.841 				"/>
				<polygon fill="#EAA400" points="508.953,57.841 499.953,73.43 490.953,57.841 				"/>
				<polygon fill="#EAA400" points="527.73,57.841 518.73,73.43 509.73,57.841 				"/>
			</g>
			<g>
				<path fill="#D87200" d="M417.398,75.801c0,1.104-0.896,2.001-2,2.001s-2-0.897-2-2.001s2-4.401,2-4.401
					S417.398,74.697,417.398,75.801z"/>
				<path fill="#D87200" d="M436.064,75.801c0,1.104-0.896,2.001-2,2.001s-2-0.897-2-2.001s2-4.401,2-4.401
					S436.064,74.697,436.064,75.801z"/>
			</g>
			<g>
				<path fill="#D87200" d="M455.731,75.801c0,1.104-0.896,2.001-2,2.001s-2-0.897-2-2.001s2-4.401,2-4.401
					S455.731,74.697,455.731,75.801z"/>
				<path fill="#D87200" d="M474.398,75.801c0,1.104-0.896,2.001-2.001,2.001s-2.001-0.897-2.001-2.001s2.001-4.401,2.001-4.401
					S474.398,74.697,474.398,75.801z"/>
			</g>
			<g>
				<path fill="#D87200" d="M493.398,75.801c0,1.104-0.896,2.001-2.001,2.001s-2.001-0.897-2.001-2.001s2.001-4.401,2.001-4.401
					S493.398,74.697,493.398,75.801z"/>
				<path fill="#D87200" d="M512.064,75.801c0,1.104-0.896,2.001-2,2.001c-1.105,0-2.001-0.897-2.001-2.001s2.001-4.401,2.001-4.401
					S512.064,74.697,512.064,75.801z"/>
			</g>
		</g>
	</g>
</g>
</svg>
