<?xml version="1.0" encoding="utf-8"?>
<!-- Generator: Adobe Illustrator 16.0.0, SVG Export Plug-In . SVG Version: 6.00 Build 0)  -->
<!DOCTYPE svg PUBLIC "-//W3C//DTD SVG 1.1//EN" "http://www.w3.org/Graphics/SVG/1.1/DTD/svg11.dtd">
<svg version="1.1" id="Layer_1" xmlns="http://www.w3.org/2000/svg" xmlns:xlink="http://www.w3.org/1999/xlink" x="0px" y="0px"
	 width="653.4px" height="656.6px" viewBox="0 0 653.4 656.6" enable-background="new 0 0 653.4 656.6" xml:space="preserve">
<g>
	<path fill="#3E4924" d="M606.7,285c-2-0.2-3.7-1.5-5-3.9c-0.1-0.3-0.3-0.7-0.6-1.2c-2.7-5.6-3.4-7.5-2.7-8.5
		c0.8-1.3,2.5-0.8,3.7-0.5c0.4,0.1,1.1,0.3,1.4,0.3c0.5-0.1,0.6-0.2,0.6-1.5c0-0.6,0-1.2,0.2-1.9c0-0.5,0.2-1.1,0.3-1.8
		c0.4-2.1,0.8-5.1,0.1-6.5c-0.2-0.4-0.5-0.5-1.3-0.7c-0.7-0.2-1.6-0.4-2.3-1.2c-0.9-1.1-0.8-2.6-0.7-3.8c0.1-0.6,0.1-1.5-0.1-1.7
		c0,0-0.2-0.2-0.9-0.1c-0.4,0.1-0.7-0.1-0.9-0.4c-0.2-0.3-0.2-0.7-0.1-1c0.2-0.4,0.2-0.8,0.1-1.3c-0.1-0.2-0.2-0.4-0.2-0.7
		c0-0.1,0-0.1,0-0.2c-0.3-0.9-0.8-1.9-1.4-2.7c-1.1-1.6-2-2.2-3.5-3.2l-1.1-0.7c-2.5-1.7-5.6-3.7-8.3-4.5c-1.9-0.6-6.2-0.9-8-0.2
		c-1.2,0.6-3.5,2-4.6,3.1c-0.3,0.3-0.5,0.8-0.8,1.4c-0.4,0.9-0.9,1.8-1.7,2.4c-1.1,0.7-1.8,0.5-2.5,0.1c-0.2-0.1-0.4-0.2-0.7-0.2
		c-1.3-0.1-2.1,0.2-2.5,2.1c-0.1,0.6-0.2,1-0.2,1.2c-0.1,1.3-0.6,1.6-2,2.1c-1.6,0.6-4.2,0.3-5.5-0.1c-0.3-0.1-0.5-0.3-0.6-0.6
		c-0.1-0.3-0.1-0.6,0.1-0.9c0.2-0.3,0.4-0.6,0.5-0.9c0.6-0.9,0.7-1.2,0.5-1.7c0,0-0.2-0.1-0.3-0.1c-0.4-0.2-1-0.5-1.3-1.3
		c-0.2-0.3-0.1-0.9,0-1.3c0-0.6,0-1.1,0.1-1.5c0.1-1,0.1-1.4-0.5-1.9c-0.9-0.7-4.3-1-5.6-1.1c-0.4,0-0.7-0.1-0.9-0.1
		c-0.2,0-0.3-0.1-0.5-0.2c-0.1,0.3-0.1,0.6-0.3,0.9c-0.3,0.9-2.2,3.2-4.1,4.3c0.3,0.9,0.2,1.6,0,2.2c-1.2,2.7-6.7,3.6-8.7,3.4
		l-0.8-0.1c-1.2-0.1-1.8-0.2-2.9,0.4c-0.4,0.2-0.8,0.4-1.1,0.6c-0.8,0.5-1.7,1.1-2.9,1.3l-0.6,0.1c-1.2,0.3-2.8,0.7-4,0.4
		c-1-0.3-1.6-0.9-2.1-1.5c-0.4-0.4-0.7-0.7-1-0.9c-0.8-0.3-1.6-0.1-2.6,0.1c-0.8,0.2-1.7,0.4-2.7,0.2c-1.4-0.2-2-1.1-2.4-1.7
		c0,0-0.1-0.1-0.1-0.1c0,0,0,0.1,0,0.1c-0.3,0.6-0.7,1.4-1.4,2c-0.4,0.5-1.2,0.9-2.1,1.2c-0.5,0.2-1.3,0.6-1.5,0.8
		c-0.2,0.6,0.5,1.3,1.4,2.3c0.7,0.7,1.4,1.3,1.6,2.1c0.3,1.1-0.4,2.7-1.4,4.7c-0.3,0.5-0.5,1-0.6,1.3c-0.7,2.1-1.5,3.6-3.3,5
		c-1.3,1-3.3,2.3-5,2.3c-0.7,0-1.2-0.2-1.7-0.3c-0.5-0.1-0.9-0.2-1.4-0.2c-0.5,0-0.6,0.2-0.9,0.5c-0.2,0.2-0.4,0.5-0.8,0.7
		c-1.2,1-2.7,2.1-4.4,2.8c-1.1,0.4-2,0.6-2.9,0.6c-1.7,0-3.1-0.6-4.6-1.2c-0.5-0.2-1-0.4-1.6-0.6c-2.8-1-2.6-2.8-2.4-4
		c0.1-1,0.2-1.5-0.4-2.2c-1.1-1.2-5-1.2-6.6-0.4c0,0,0,0,0,0c0,0.1,0,0.2,0.1,0.3c0.3,1.4,0.4,2.6-1.5,4.3c-0.8,0.8-1.8,1-2.6,1.3
		c-0.7,0.2-1.2,0.3-1.7,0.7c-0.2,0.2-0.4,0.7-0.6,1.3c-0.2,0.5-0.3,0.9-0.5,1.3c-0.3,0.5-0.8,0.7-1.1,0.8c-0.2,0.5-0.2,0.9-0.3,1.4
		c-0.1,0.8-0.2,1.7-0.9,2.7c-0.3,0.4-0.8,0.8-1.3,1.2c-0.7,0.6-1.9,1.6-1.7,2.1c0.2,0.3,1.6,0.1,2.3,0.1c0.4,0,0.8-0.1,1.1-0.1
		c2,0,3.7,0.7,5.3,1.4c0.3,0.1,0.5,0.4,0.6,0.8c0.1,0.3-0.1,0.7-0.3,0.9l-0.5,0.4c-1,0.8-1.3,1.2-1.3,2c0,0.1,0.1,0.3,0.3,0.5
		c0.8,0.9,1,1.8-0.1,3.5c-0.5,0.7-1,1.3-1.4,1.8c-1,1.1-1.5,1.7-1,3.4c0.1,0.2,0.2,0.5,0.4,0.7c0.4,0.5,0.8,1.1,0.9,2
		c0.1,0.4,0,0.9-0.1,1.3c-0.1,0.2-0.1,0.5-0.1,0.6c0,1.1,0.2,1.6,0.5,2.4c0.2,0.4,0.3,0.8,0.5,1.4c0.1,0.4,0.3,0.9,0.3,1.3
		c0.3,0.3,0.6,0.6,0.7,1c0.4,1.3-0.4,2.7-1,3.8c-0.1,0.1-0.1,0.2-0.2,0.3c0.7,0.4,1.2,1,1.3,1.7c0.2,1-0.3,2.1-1.2,2.6
		c-0.4,0.2-0.8,0.3-1.1,0.2c0,0.6,0,1.2,0.1,1.8c0,0.5,0.1,1,0.1,1.4c0,0.7-0.1,1.3-0.2,1.9c-0.2,1.3-0.3,2.7-0.1,3.8
		c0.3,1.2,0.8,1.6,1.8,2.3c0.3,0.2,0.5,0.4,0.8,0.6c1.4,1.1,1.7,1.7,2,2.8c0.1,0.3,0.2,0.6,0.3,0.9l0.2,0.8c0.5,1.7,1.5,4.8-0.8,6.3
		c0,0.9-0.2,2.5-0.7,3.5c0.2,0.6,0.2,1.3,0.2,2.1c1.2-0.8,2.7-1.2,4.1-1.7c1.7-0.5,3.5-1,4.8-2.1c1.7-1.5,3.5-3,5.9-4.1
		c0.5-0.2,0.9-0.4,1.2-0.5c1.7-0.7,2.5-1.1,3.6-2.8c0.2-0.3,0.3-0.5,0.4-0.6c0.2-0.5,0.5-0.7,1.2-1.2c0.7-0.4,1.5-0.6,2.3-0.7
		c0.6-0.1,1.3-0.2,1.7-0.5l0.8-0.4c1.2-0.7,1.7-0.8,3.9-0.6c0.6,0.1,1.4,0.1,2.2,0c1.8,0,3.6-0.1,4.9,0.6c1.8,0.8,1.5,2.2,1.2,3.3
		c-0.1,0.2-0.1,0.5-0.2,0.8c-0.1,0.3-0.3,0.5-0.5,0.7c-0.3,0.1-0.6,0.1-0.9,0c-0.1-0.1-0.4-0.1-0.6-0.1c0,0.3,0.1,0.6,0.2,1
		c0.1,0.4,0.2,0.9,0.3,1.4c1.4-0.2,2.6-0.1,4,0.9c0.4,0.2,0.7,0.4,0.9,0.7c0.1,0.1,0.2,0.2,0.6,0.3c0,0,0,0,0.2-0.1
		c0.1,0,0.2-0.1,0.3-0.1c-0.1-0.9,0-2.1,1.2-2.8c1.5-0.9,4.6,0.1,5.8,0.6c1,0.4,1.4,1,1.7,1.4c0.2,0.3,0.3,0.4,0.4,0.4
		c0.8,0.4,1.2,0.5,1.6,0.6c0.9,0.2,1.7,0.4,2.8,1.9c1.5,1.8,2.9,1.9,5.1,2c0.7,0,1.3,0.1,2.1,0.2c2,0.2,3.2,0.7,4.2,1.1
		c1,0.4,1.8,0.7,3.2,0.8c2.7,0.3,3.7,2,4.7,3.7c0.2,0.3,0.3,0.6,0.5,0.9c0.4,0.4,1.3,1.6,2.1,2.8c0,0.1,0.1,0.2,0.1,0.3
		c0.1,0.3,0.1,0.6,0.2,0.9c0.1,0.5,0.4,1.6,0.6,1.9c0.2,0.1,1.6,0.1,2.2,0c0.2-0.1,0.5-0.5,0.8-0.9c0.3-0.5,0.6-1,1.2-1.2
		c2.1-0.8,7.9,1.2,9.3,2c4.3,1.8,9.5,4.6,9.8,7.6c0.1,0.6-0.1,1.5-0.9,2.3c0.1,0.2,0.1,0.4,0.1,0.6c-0.1,1-0.9,1.7-1.6,2.3
		c-0.3,0.2-0.6,0.5-0.7,0.7c-0.1,0.2-0.2,0.4-0.3,0.6c-0.1,0.4-0.3,0.9-0.8,1.4c-0.4,0.4-0.9,0.6-1.3,0.7c-0.2,0.1-0.5,0.2-0.6,0.3
		c0,0,0,0.3,0,0.7c0,0.5,0,1-0.3,1.6c-0.4,0.6-0.9,0.8-1.2,0.9c-0.2,0.1-0.4,0.1-0.5,0.3c-1.8,1.1-2.3,1.7-2.5,2.7
		c0,0.1-0.1,0.2-0.1,0.4c0.2,1.7,0.2,3.6,0,5.1c0.1,0,0.2,0.1,0.3,0.2c0.7,0.5,0.9,1.4,1,2.2c0.1,0.4,0.2,1,0.3,1.2
		c0.2,0.2,0.6,0.3,1,0.4c1,0.3,2.5,0.7,2.8,2.8c0,0.4,0,0.8-0.1,1.1c1.6,0.4,2.7,1.7,3.8,2.8c0.5,0.6,1,1.1,1.4,1.5
		c0.4,0.3,0.9,0.6,1.4,0.8c0.1,0,0.2,0.1,0.3,0.1c0.4-2.3,1.9-4.3,3.6-6c0.4-0.4,0.8-0.9,1.3-1.5c0.7-0.9,1.5-1.9,2.3-2.5
		c0.5-0.3,0.9-0.4,1.4-0.5c0.3,0,0.7-0.1,0.9-0.2c0-0.1-0.4-0.8-0.6-1.2c-0.3-0.6-0.6-1.1-0.7-1.6c-0.3-1.7,0-3.6,0.3-5.5
		c0.1-0.7,0.2-1.4,0.3-2.1c0-1.4,0.4-2.1,0.8-3c0.2-0.3,0.3-0.6,0.5-1c0.6-1.4,0.6-3,0.6-4.6c0-1,0-2,0.2-3.1c0.4-1.7,1-2.8,1.6-4.2
		l0.3-0.5c0.8-1.6,0.6-2.8,0.4-4.6l-0.1-0.8c-0.6-3.1-0.5-6.3-0.5-9.4l0-1.6c0-0.6-0.1-1.2-0.3-1.9c-0.1-0.5-0.2-1-0.3-1.5
		c-0.2-1.8,0.1-3.5,0.4-5.2c0.2-1.2,0.5-2.4,0.5-3.6c0-2.4-0.2-4-1.3-6c-0.2-0.4-0.4-0.5-0.5-0.6c-0.6-0.6-0.5-1.1-0.4-1.8l0.1-0.4
		c0.2-0.7,0.5-1.2,0.8-1.6c0.3-0.5,0.6-1,0.6-1.5c0.2-0.7,0.2-1.3,0.2-1.8c0-0.3,0-0.5,0-0.8c-0.1-0.3-0.2-0.6,0-0.9
		c0.3-0.5,0.5-1.3,0.8-2.1c0.6-1.8,1.2-3.9,2.6-4.9c1.4-1.1,2.7-0.7,3.6-0.4c0.6,0.2,1.1,0.3,1.6,0.2c0.8-0.1,1.7-0.6,2.5-1.1
		c0.6-0.4,1.2-0.7,1.7-0.9c1.5-0.7,1.6-0.9,2-2.5c0.1-0.4,0.2-0.8,0.3-1.2c1.2-4.1,3.9-7.7,6.5-11.2c1.5-2,3.1-4.2,4.3-6.3
		c-1,0.5-2,0.8-3,0.8C607,285,606.8,285,606.7,285z"/>
	<path fill="#3E4924" d="M3.6,210.8c1.6,0.5,3,1.3,4.4,2c1.6,0.9,3.1,1.7,4.8,2c2.6,0.5,5.1,1.3,7.5,2.1c2.6,0.9,5.4,1.8,8.2,2.2
		c3,0.5,6,1.1,8.9,1.8c3.4,0.7,6.8,1.5,10.2,2c5,0.7,8.9,2.8,13.1,5c1.5,0.8,3,1.6,4.6,2.4c5.9,3,12,5.7,17.9,8.4
		c5.3,2.4,10.9,4.8,16.2,7.5c1.3,0.7,2.8,1.2,4.2,1.7c2,0.7,4.1,1.4,5.9,2.7c0.7,0.4,1.4,1.1,2.1,1.8c0.7,0.7,1.5,1.4,2.3,1.8
		c0.2-0.2,0.4-0.4,0.5-0.6c0.2-0.2,0.4-0.5,0.5-0.6c0.1-0.1,0.2-0.1,0.3-0.2c1-0.5,1.9-0.5,2.6-0.4c0.4,0,0.8,0,1.2,0
		c0.3,0,0.5-0.1,0.7-0.1c0.1-0.2,0.2-0.4,0.3-0.6c0-0.4,0-0.9,0.3-1.3c0.3-0.4,0.6-0.5,0.9-0.6c0.1,0,0.3-0.1,0.4-0.2
		c2.4-1.8,4.6-2.4,7.3-2.2c1.6,0.2,2.4,0.9,3.1,1.6c0.4,0.3,0.7,0.6,1.1,0.8c1-1,2.1-1,3-0.9c0.5,0,1,0,1.5-0.1
		c0.7-0.3,1-0.7,1.5-1.2c0.6-0.7,1.4-1.5,3-1.8c0.3-0.1,0.6,0,0.9,0.2c0.2,0.2,0.4,0.5,0.3,0.8c0,0.6,0.1,0.8,0.1,0.8s0,0,0,0
		c0.2,0,1.3-0.5,2-1.2c0.4-0.4,0.7-1.1,1.1-1.7c0.4-0.8,0.9-1.8,1.7-2.5c1.4-1.4,3.8-1.8,6-2.2c1.3-0.2,2.6-0.4,3.5-0.8l0.4-0.1
		c0.6-0.2,1.3-0.4,1.5-0.7c0.4-0.4,0.5-0.8,0.6-1.5c0.1-0.6,0.3-1.3,0.7-2c0.4-0.6,1-1.2,1.5-1.7c0.3-0.3,0.7-0.7,0.9-1
		c0.7-0.8,1.2-1.1,1.7-1.3c0.3-0.1,0.5-0.3,0.9-0.5c0.3-0.3,0.5-0.6,0.7-1c0.2-0.4,0.4-0.8,0.8-1.3c0.4-0.7,1.4-1.3,2.2-1.8
		c0.3-0.2,0.6-0.4,0.9-0.6c0-0.4,0.1-1,0.7-1.5c0.8-0.5,1.7-0.4,2.7-0.3c0.4,0,0.9,0.1,1.1,0c0.5,0,1-0.1,1.5-0.2
		c1-0.2,2.1-0.4,3.1,0c0.9,0.2,1.3,0.7,1.7,1.1c0.2,0.2,0.3,0.3,0.5,0.5c0.4,0.3,0.7,0.5,1,0.6c0.4,0.2,0.9,0.5,1.4,0.9
		c0.6,0.7,0.8,1.4,1,1.9c0.2,0.6,0.3,0.8,0.6,1c0.1,0,0.5,0,0.8,0c0.7,0,1.4,0,2.1,0.4c0.9,0.5,1.2,0.9,1.3,1.6c0,0.1,0,0.2,0.1,0.3
		c0.8,1.1,1.7,1.6,3,2.2c0.7,0.3,1.4,0.7,2.2,1.2c0.9,0.7,1.5,1.5,2.2,2.3c0.3,0.3,0.5,0.7,0.8,0.9c0-0.1,0-0.1,0.1-0.2
		c0.3-1.3,1-1.8,3-1.7c1.1,0,2.4,0.4,3.3,1c1.6,0.2,5.9,0,7.8-0.1c1.2-0.1,2.1-0.1,2.6-0.1c5.5,0.4,10.6,0,16-0.4l0.3,0
		c3.5-0.2,7.2-0.2,10.7-0.2c2.9,0,5.9,0,8.8-0.1c0.6,0,1.2,0,1.9,0.1c1.8,0.1,4.1,0.2,5.5-0.3c-0.1-1.2,0.3-2.1,0.6-2.8
		c0.2-0.5,0.4-0.9,0.5-1.4c0.5-1.7,0.3-3.9,0.1-5.9c-0.1-0.6-0.1-1.3-0.1-1.8c-0.1-3.4,1.4-6.4,2.9-9.3c0-0.1,0.1-0.2,0.1-0.3
		c-0.4-1,0.1-2.1,0.4-2.9c0.2-0.4,0.3-0.7,0.4-1c0.2-0.8,0-1.7-0.6-3c-0.3-0.8-1-1.3-1.8-1.8c-1.1-0.8-2.4-1.8-2.2-3.9
		c-0.4-0.4-0.4-0.9-0.1-1.3c0.7-0.9,1.1-2.2,1.5-3.5c0.2-0.5,0.3-1.1,0.5-1.6c1-2.6,2.3-4.9,3.5-7.2c0.9-1.6,1.9-3,2.9-4.4
		c1.4-2,2.7-3.9,3.7-6.2c0.5-1.2,0.9-2.5,1.3-3.8c0.4-1.3,0.8-2.6,1.3-3.9c0.4-1,0.9-2,1.4-3c0.4-0.7,0.8-1.4,1.1-2.2
		c1.2-2.4,2-4.7,2.9-7.2c0.5-1.4,1-2.8,1.6-4.2c1.3-3.1,2.9-6.1,4.5-9.1c1.2-2.2,2.4-4.4,3.5-6.7c2-4.2,4.5-8.8,7.8-12
		c0-0.2,0-0.5,0.2-0.7c0.3-0.5,0.9-0.9,1.5-1.3c0.5-0.3,1.4-1.1,1.5-1.4c-0.2-0.1-1,0.5-1.4,0.8l-0.4,0.3c-2.5,1.9-6.4,3.1-9.4,3
		c-0.5,0-0.9-0.5-0.9-1c0-0.8-0.1-1.1-0.1-1.2c-0.6-0.8-0.8-0.8-1.6-0.9c-0.4,0-0.8-0.1-1.3-0.2c-1.5-0.3-2.2-0.6-2.4-1.8
		c0-0.2-0.1-0.5-0.3-0.8c-1.4-2.3-2.4-2.6-4.7-3.3l-0.9-0.3c-1.2-0.3-2.7-0.3-4.2-0.4c-1.9,0-3.8-0.1-5.5-0.7
		c-1.5-0.7-4.5-2.9-5.4-4.6c-0.3-0.6-0.4-1-0.4-1.3c-0.1-0.4-0.1-0.6-0.5-0.9c-0.3-0.3-0.5-0.6-0.6-0.7c-0.7-0.7-0.8-1-1.1-2.4
		c-0.1-0.2-0.1-0.5-0.2-0.8c-0.1-0.5-0.3-1.4-0.6-1.6c-0.2-0.1-0.3-0.1-1,0c-0.6,0.1-1.3,0.2-2.1-0.2c-1.5-0.6-1.7-2.2-1.9-3.5
		c0-0.4-0.1-0.8-0.2-1.2c-0.2-0.8-0.2-1.4-0.2-2.1c0-0.4,0-0.7-0.1-1.2c-0.1-1-0.6-2.2-1.1-3.4c-0.8-2-1.6-4.1-1.3-6.2
		c-0.9,0.1-1.9,0-2.8-0.1c-0.9-0.1-1.9-0.2-2.5-0.1c-1,0.2-2,0.5-3,0.8c-0.9,0.3-1.9,0.6-2.8,0.8c-0.8,0.2-1.8,0.2-2.8,0.1
		c-1,0-2.1-0.1-2.7,0.2c-1.4,0.5-2.4,3.3-2.9,4.7c-0.1,0.3-0.2,0.6-0.2,1c-0.2,0.8-0.3,1.5-0.7,2c-0.4,0.8-1.2,1.2-1.9,1.6
		c-0.4,0.3-0.9,0.5-1.2,0.9c-0.6,0.8-0.7,1.7-0.8,2.8c-0.1,1.1-0.3,2.3-1,3.3c-0.9,1.3-2.3,1.4-3.3,1.5c-0.3,0-0.9,0.1-1,0.2
		c-0.1,0.3-0.3,0.5-0.6,0.5c-0.3,0.1-0.6,0-0.8-0.1c-1.2-0.7-2.1-1.7-3.1-2.7c-0.5-0.5-1-1-1.5-1.5c0,0-0.2-0.2-0.2-0.2
		c-1.1-1.1-1.9-1.8-3.1-1.5c-0.6,0.2-1.5,0.7-2.3,1.3c-0.6,0.4-1.2,0.8-1.8,1.1c-1.8,1-1.8,1.5-1.8,4.1c0,2.9-0.2,5.5-0.5,7.9
		c0,0.3-0.2,0.5-0.4,0.7c-0.2,0.1-0.3,0.2-0.5,0.2c-0.1,0-0.1,0-0.2,0c-4.4-0.9-8-3-11.2-6.5c-0.4-0.4-0.9-0.9-1.5-1.5
		c-1.1-1.1-2.3-2.2-2.9-3.2c-0.4-0.8-0.9-1.7-0.4-2.4c0.5-0.7,1.3-0.6,1.8-0.6c0.3,0,0.8,0.1,0.9,0c0.1-0.2,0.1-1-1.1-4.2l-0.1-0.3
		c-0.8-1.8-0.8-3.6-0.8-5.3c0-0.9,0-1.9-0.1-2.9c-0.2-1.2-0.4-2.4-0.7-3.5c-0.3-1.6-0.7-3.2-0.8-5c0-0.5,0-1.3,0.1-2.3
		c0.1-0.8,0.2-2.5,0.1-3.6c-1.9-1.1-2.2-2.4-2.5-3.8c-0.1-0.4-0.2-0.8-0.3-1.3c-0.3-1-0.9-1.8-1.6-2.6c-0.8-1-1.6-2.1-1.9-3.6
		c-0.3-1-0.6-1.6-1.1-2.5l-0.3-0.6c-0.4-0.7-0.5-1.5-0.6-2.1c-0.1-0.4-0.1-0.9-0.2-1.2c-0.3-0.6-1.2-1.3-3.8-1.7
		c-0.4,0.2-1,0.2-1.3-0.2c-0.3,0-0.6-0.1-1-0.1c-0.3,0-0.6-0.2-0.7-0.4c-0.3,0-0.6,0-0.7,0c0,0,0,0.1,0,0.2
		c-0.1,0.4-0.3,0.9-0.8,1.3c-0.9,0.5-1.5,0.6-2.1,0.6l-0.4,0.1c-0.5,0.1-1.1,0.1-1.9,0.1c-0.6,0-1.6,0-1.9,0.2
		c-0.3,0.2-0.3,0.5-0.1,1.6c0.1,0.5,0.2,0.9,0.2,1.4c-0.1,3.3-1.9,3.9-3.4,4.4c-0.7,0.2-1.4,0.5-2,1l-0.9,0.6
		c-1.1,0.8-1.3,0.9-3.2,1.3c-1.1,0.2-1.4,0.5-2,1.1c-0.4,0.5-0.9,1-1.9,1.5c-0.7,0.4-1.6,0.4-2.3,0.5c-0.6,0-1.3,0-1.6,0.3
		c-0.1,0.1-0.2,0.4-0.2,0.8c-0.1,0.8-0.3,2-1.7,2.6c-0.8,0.4-1.5,0.3-2,0.2c-0.6-0.1-0.7-0.1-0.9,0.3c-0.2,0.3-0.2,0.7-0.2,1.1
		c0,0.8-0.1,2.3-2.4,2.4c-0.8,0.1-1.5-0.1-2-0.5c-0.7-0.7-0.6-1.8-0.5-2.8c0.1-0.4,0.2-1.3,0-1.5c-0.5-0.1-3.3,0.4-3.9,0.6
		c-0.6,0.3-0.9,0.6-1.3,1.1c-0.5,0.6-1,1.3-2.2,1.7c-1.6,0.6-5.6,0.7-7.3-0.7c-0.8-0.6-1.2-1.5-1.6-2.3c-0.3-0.7-0.6-1.3-1.1-1.7
		c-0.5-0.5-1.7-0.8-2.9-1.2c-2.5-0.8-5.4-1.7-5.7-4.2c-0.1-1.4,0.9-2.2,1.5-2.7c0.2-0.2,0.6-0.5,0.6-0.6c-0.1-0.2-0.6-1-1.7-2.3
		l-0.3-0.3c-0.4-0.4-0.8-0.8-1.2-1.2c-0.6-0.6-1.2-1.1-1.7-1.9c-0.4-0.4-0.7-0.9-1.1-1.5c-0.3-0.4-0.6-0.9-0.9-1.2
		c-0.8,0.6-1.5,1.4-2.2,2.3c-0.7,0.9-1.5,1.8-2.4,2.5c-1.1,0.8-3.7,1.6-5.2,0.7c-1-0.7-1-1.6-0.9-2c0-0.3,0-0.4,0-0.5c0,0,0,0,0,0
		c0,0.2-0.1,0.4-0.1,0.6c-0.2,1.2-0.3,2.3-1,2.8c-0.9,0.8-2.9,0.7-5.5,0.4c-0.6-0.1-1.2-0.1-1.5-0.1c-1.1,0-2.3,0.1-3.5,0.1
		c-1.2,0.1-2.4,0.1-3.6,0.1c-0.2,0-0.6,0.1-1,0.1c-1.6,0.2-3.6,0.4-5-0.2c-0.3-0.1-0.6-0.4-0.9-0.7c-0.1-0.1-0.2-0.2-0.3-0.2
		c-1.2-0.4-1.4-0.4-2.8,0.2c-3.1,1.3-3.7,2-3.4,4.8c0.1,0.9,0.1,1.9,0.2,2.7c0,1.4,0,2.6,0.6,3.1c0.4,0.4,1.1,0.6,2.1,0.5
		c0.5,0,1-0.1,1.5-0.2c2.1-0.3,4.6-0.6,6.2,2.2c1,1.6,1.7,4.9,0.4,6.6c-0.4,0.6-1.4,1.4-3.3,0.9c-0.5-0.1-1-0.4-1.4-0.7
		c-0.4-0.3-0.8-0.5-1.3-0.6c-0.8-0.2-1.6,0.1-2.4,0.3c-0.3,0.1-0.6,0.2-0.9,0.2c-0.5,0.1-0.9,0.2-1.4,0.3c-2.3,0.5-3.6,0.8-4,2.4
		c-0.4,2.2-0.3,5.7-0.1,8.3l0,0.6c0.1,1.5,0.2,2,1.2,2.5c0,0,0.1,0.1,0.1,0.1c3.2,1.3,7.1,5.1,6.4,8.5c-0.1,0.5-0.4,0.9-0.7,1.2
		c-0.3,0.3-0.4,0.4-0.3,0.6c0,0.2,0.3,0.8,1.9,2.4c2.2,2.2,2.5,3,2.5,6.2c-0.1,6.9-1.9,14-3.8,21.2c-0.6,2.1-0.9,4.2-1.2,6.4
		c-0.3,1.8-0.6,3.7-1,5.5c-0.7,3.3-1.3,6.9-1.5,10.5c0,0.3-0.2,0.5-0.4,0.7c-0.2,2-0.6,3.9-2.1,5.1c-1.1,0.9-2.6,1.1-4.4,0.8
		c-0.5-0.1-0.8-0.5-0.8-0.9c0-0.1,0-0.4-0.6-0.8c-1.4-1.1-4.8-1.4-6.2-1.1c-0.7,0.2-0.9,0.6-1.4,1.4c-0.3,0.6-0.7,1.3-1.3,1.9
		c-1.6,1.2-3.3,1.1-4.9,0.9c-0.4,0-0.9-0.1-1.3-0.1c-4.9,0.1-12.3,2.8-16.1,5.1c-0.8,0.5-1.5,1.2-2.2,1.8c-0.7,0.6-1.4,1.3-2.2,1.9
		c-1.1,0.9-2.2,1-3,1.1c-0.2,0-0.4,0-0.7,0.1c0,0.2,0,0.4,0,0.7c-0.1,1-1,1.7-1.8,2.3c-0.4,0.3-0.9,0.7-1.1,0.9
		c-0.6,1.2-0.9,3-1,4.7l-0.1,1.2c-0.4,1.9-1.1,2.7-1.8,3.4c-0.5,0.5-0.9,0.9-1.2,1.7c-0.3,0.8-0.4,3.1-0.1,3.5
		c0.3,0.1,0.4,0.2,0.6,0.4c0.2,0.2,0.1,0.5,0.1,0.7c-0.1,0.5,0,1.1,0.2,1.8c0.2,0.9,0.4,1.9,0.1,3c-0.5,1.6-1.7,2-2.6,2.3
		c-0.4,0.1-0.7,0.2-1.1,0.4c-2.4,1.2-5,4-6.5,6.5C2.5,209.3,3.1,210,3.6,210.8z"/>
	<path fill="#3E4924" d="M156.4,20c0.8,0.2,1.3,0.3,1.7,0.4c1.8,0.3,2,0.9,2.4,2.9l0.1,0.9c0.2,0.9,0.5,1.5,0.9,2.1
		c0.7,1.1,1.5,2.4,0.6,4.6c-0.5,1.2-1.2,1.8-1.8,2.3c-0.5,0.4-0.8,0.7-1,1.3c-0.2,0.6-0.2,1.1-0.1,1.2c0,0.1,0.2,0.1,0.3,0.1
		c0.5,0,0.9,0.4,0.9,0.9c0.1,0.6,0.1,1.3,0.2,2c0.1,1.1,0.3,2.2,0.3,3.2c0,0.4,0,1.1,0,1.7c-0.1,0.9-0.1,2.1,0.3,2.5
		c0.3,0.2,1.6,0,2.7,0.3c1.3,0.4,2,0.8,2.9,1.3c0.7-0.2,1.3-0.1,1.7,0c0.3,0.1,0.6,0.2,0.9,0.1c0.1,0,0.5-0.2,0.8-0.5
		c0.8-0.5,1.8-1.2,3.1-0.7c0.5,0.2,1.2,0.6,1.5,1.8c0.4,1.2,0.4,3,0,4.3c2,0.4,3.9,1.2,4.6,2.8c0.2,0.5,0.3,1.1,0.4,1.7
		c0.1,0.6,0.1,1.1,0.4,1.5l0.3,0.5c0.5,1,0.9,1.7,1.2,3c0.2,1.1,0.9,2,1.6,2.9c0.7,0.9,1.5,1.9,1.9,3.2c0.2,0.6,0.3,1.1,0.4,1.5
		c0.1,0.7,0.2,1.2,0.5,1.6c0.3-0.1,0.7-0.1,0.9,0.1c1.5,1,1.2,3.8,1,6.2c-0.1,0.8-0.1,1.6-0.1,2c0.1,1.6,0.4,3.1,0.7,4.7
		c0.3,1.2,0.5,2.4,0.7,3.6c0.2,1.1,0.2,2.1,0.2,3.1c0,1.6,0,3.1,0.7,4.6l0.1,0.3c1.1,3,1.7,5.1,0.7,6.1c-0.6,0.7-1.4,0.8-2.1,0.8
		c0,0,0,0,0,0c0.4,0.8,1.5,1.8,2.5,2.7c0.6,0.6,1.2,1.1,1.6,1.6c2.7,2.9,5.5,4.7,9.1,5.6c0.2-2,0.4-4.1,0.4-6.5c0-2.8,0-4.3,2.8-5.9
		c0.5-0.3,1.1-0.6,1.6-1c0.9-0.6,1.9-1.3,2.8-1.5c2.4-0.7,3.9,0.8,5.1,2c0.7,0.7,1.2,1.2,1.7,1.7c0.7,0.8,1.4,1.4,2.1,2
		c0.6-0.3,1.3-0.4,1.8-0.4c0.9-0.1,1.5-0.2,1.9-0.6c0.5-0.7,0.6-1.5,0.7-2.4c0.1-1.2,0.3-2.6,1.3-3.8c0.5-0.6,1.1-1,1.7-1.3
		c0.5-0.3,1-0.6,1.2-1c0.2-0.3,0.3-0.9,0.4-1.3c0.1-0.4,0.2-0.8,0.3-1.1c0.8-2.1,1.9-5.2,4.1-6c1-0.4,2.3-0.4,3.5-0.3
		c0.9,0,1.7,0.1,2.3-0.1c0.9-0.2,1.8-0.5,2.6-0.7c1-0.3,2-0.6,3.2-0.8c0.9-0.2,1.9-0.1,3,0c1.2,0.1,3.1,0.3,3.4-0.3
		c0.2-0.5,0.2-3.3,0-4.4c-0.1-0.5-0.2-0.8-0.3-1.1c-0.2-0.4-0.3-0.8-0.4-1.3c-0.2-0.8-0.4-3-0.1-4.1c0.1-0.5,0.3-0.9,0.6-1.2
		c0.2-0.3,0.3-0.4,0.3-0.6c0-0.4,0.2-0.7,0.5-0.8c0-1.4-0.3-2.2-1.4-2.6c-0.8-0.3-2,0.1-3.2-0.4c-0.8-0.3-1.4-0.9-1.9-1.5
		c-0.3-0.3-0.5-0.6-0.8-0.8c-0.4-0.2-0.8-0.4-1.1-0.6c-0.9-0.5-1.7-0.8-2.5-2.3c-0.9-1.6-1.4-2.2-2.7-3.4c-1.4-1.2-1.7-3.1-2-4.7
		c-0.1-0.5-0.2-1-0.3-1.5c-0.1-0.3-0.2-0.7-0.2-1c-0.2-0.8-0.4-1.7-0.6-2.3c-0.1-0.1-0.2-0.2-0.4-0.3c-0.2-0.2-0.6-0.5-0.8-1
		c-1.1-1.7-1.2-4.9-1.1-7.7c-0.3-0.3-0.4-0.6-0.2-1c0.4-1.1,0.4-2,0.4-3c0.1-1.3,0.1-2.6,0.9-4c0.4-0.8,0.7-1.6,1.1-2.4
		c0.6-1.6,1.3-3.3,2.7-4.6c0.3-0.3,0.7-0.6,1.1-0.9c0.8-0.6,1.6-1.2,1.7-1.9c0-0.3-0.1-0.4-0.1-0.4c0,0-0.1-0.1-0.2-0.2
		c-0.2-0.2-0.5-0.4-0.8-0.7c-1.6-2-2.1-3.3-2.8-5.5c-0.7-2-1.5-2.1-3.5-2.5l-0.7-0.1c-0.3-0.1-0.5-0.1-0.6-0.2
		c-1.5-0.3-2.2-0.9-1.9-3c0.2-1.3,0.7-1.8,1.5-2c0.2-0.1,0.3-0.1,0.4-0.2c0.4-0.5,0.7-1.8,0.5-2.8c-0.1-0.3-0.2-0.4-0.2-0.4
		c-0.4-0.1-0.8-0.3-1.3-1.1c-0.4-0.6-0.4-1.2-0.4-1.7c0-0.5-0.1-0.6-0.4-0.8C228.3,0,227.9,0,227.9,0c0,0.6-0.4,1.1-0.9,1.1
		c-0.4,0-0.9,0.1-1.5,0.2c-1.4,0.2-3.1,0.4-4.4,0.2c0,0,0,0,0.1,0.1c0.7,0.7,1,1,1.1,1.3c0.6,2.2-1,3.3-2.1,4
		c-0.7,0.5-1.1,0.8-1.3,1.1c0,0.2,0,0.4-0.1,0.6c0,0.5-0.3,1-0.8,1.1c-0.1,0-0.2,0-0.3,0c-0.1,0.2-0.2,0.4-0.3,0.6
		c-0.3,0.6-0.6,1.5-2,2c-0.8,0.3-1.7,0.3-2.5,0.3c-0.6,0-1.1,0-1.4,0.1c-0.4,0-0.7,0.2-0.9,0.2c-0.3,0.1-0.5,0.2-0.8,0.3
		c-0.5,0.2-0.9,0.2-1.3,0.2c-0.5,0.1-0.7,0.1-1.1,0.4c-0.1,0.1-0.2,0.3-0.3,0.5c-0.2,0.5-0.4,1.2-1.3,1.7c-1,0.5-1.7,0.6-2.2,0.7
		c-0.6,0.1-0.6,0.1-0.9,0.6c0,0,0,0.1,0.1,0.3c0.1,0.6,0.1,1.4-0.9,2c-0.9,0.6-2.6,0.5-4.6,0.3c-0.5-0.1-1-0.1-1.3-0.1
		c-1.9,0-6.9,0-8.3,1.1c-0.5,0.4-0.5,0.7-0.3,1.8c0.1,0.7,0.3,1.5,0.1,2.4c-0.2,1-0.9,1.8-2,2.3c-1.5,0.7-3.6,0.7-5-0.1
		c-0.9-0.5-1.3-1.3-1.7-2c-0.3-0.6-0.5-0.9-0.8-1.2c-0.9-0.5-2.6-0.5-3.9-0.4c-0.4,0-0.8,0-1.2,0c-1.8-0.1-3-0.7-4.1-1.3
		c-1.1-0.5-2.1-1-3.6-1.1c-2.6-0.1-3.2-1.2-3.7-2.4c-0.2-0.6-0.4-1-1.1-1.4c-0.8-0.4-5.5-0.6-6.3-0.1c-0.2,0.3-0.2,0.5-0.2,0.7
		C154.2,18.8,155.5,19.8,156.4,20z"/>
	<path fill="#3E4924" d="M322.5,58.9l1,0c2.5,0.1,5.2,1.7,6.9,3.8c0.6,0.2,1.1,0.3,1.7,0.5c1,0.2,2,0.4,3,1.1
		c0.5,0.4,0.9,0.9,1.3,1.3c0.4,0.6,0.8,1,1.3,1.2c0.2,0,0.5,0,0.8,0c0.6,0,1.3,0,2,0.5c1.2,0.8,1.3,1.6,1.2,2.4c0,0.3,0,0.4,0.1,0.6
		c0.5,1.2,1.1,2.2,1.8,3.3l0.4,0.6c0.9,1.4,1.3,1.8,2.5,1.7c0.5-0.1,0.9,0.2,1,0.6c0,0,0.1,0,0.1,0.1c0.2,0.2,0.3,0.6,0.3,0.9
		c0,0.3,0.1,1.2,0.2,2.1c0.1,1.2,0.2,2.5,0.2,3c0,0.4,0,0.8-0.1,1.2c0,0.5-0.1,1.1,0,1.5c0.5,0.3,0.9,0.6,1.1,1.1
		c0.1,0.3,0.2,0.7,0.3,1.1c0.1,0.3,0.2,0.6,0.3,0.9c0.6,1.6,1.9,4.9,3.1,5.7c0.5,0.3,0.9,0.4,1.3,0.6c0.7,0.2,1.7,0.4,2.5,1.6
		c1,1.4,1.1,3.1,1.2,4.7c0.1,0.7,0.1,1.3,0.2,1.9c0.5,2.1,1.9,3.5,4.8,4.8c1.4,0.7,4.2,1.6,4.8,1.5c1.1-0.4,2.4-4.9,3-7
		c0.7-2.4,1-3.4,1.8-3.6c1.2-1.7,2.8-3,4.6-4.3c0.7-0.6,1.7-1.1,2.7-1.5c0.8-0.3,1.6-0.6,1.9-1c0.6-0.5,0.8-1.5,1-2.4
		c0.2-0.7,0.4-1.5,0.7-2.2c1.6-2.7,2.8-4.2,3.8-4.9c0.1-0.1,0.2-0.1,0.3-0.1c0.8-3.3,6.3-7.2,6.4-7.2c0.8-0.6,1.9-1.1,2.8-1.5
		c1.7-0.8,3.4-1.6,4-2.9c0.8-1.5,0.6-5.3-0.8-7.7c-0.5-0.8-1.3-1.7-2.4-1.7c-0.5,0-0.8,0.1-1.2,0.2c-0.7,0.2-1.6,0.5-2.9-0.4
		c-0.6-0.5-0.9-1.2-1.1-1.8c-0.1-0.3-0.2-0.7-0.4-0.8c-0.3-0.5-0.6-0.7-1-0.9c-0.3-0.2-0.7-0.4-1-0.7c-0.3-0.3-0.5-0.6-0.7-0.9
		c-0.2-0.2-0.3-0.4-0.5-0.6c-0.3-0.3-0.6-0.4-0.8-0.5c-0.6-0.3-1-0.6-1.4-1.7c-0.2-0.9-0.1-1.7,0.1-2.4c0.1-0.7,0.2-1.4,0.1-1.8
		c-0.2-0.7-0.6-0.9-1.2-1.3c-0.6-0.4-1.2-0.8-1.6-1.6c-0.7-1-0.7-2.3-0.7-3.3c0-1.4,0-2.3-1.6-3c-0.1-0.1-0.2-0.1-0.3-0.2
		c-0.4-0.1-0.7-0.5-0.7-0.9c-0.2-2.1,0.1-4.1,0.3-6c0.1-1.2,0.3-2.4,0.3-3.6c0-0.2,0-0.3,0-0.5c-0.4,0-0.9-0.2-1.4-0.8
		c-0.9-1.2-0.8-2.6-0.8-3.9c0-0.5,0-0.9,0-1.3c-1.3-0.1-1.7-0.8-2-1.6c-0.1-0.3-0.2-0.5-0.5-0.8c-0.3-0.3-0.7-0.5-1.1-0.7
		c-0.3-0.1-0.7-0.3-1-0.5c-0.6,0.9-1.3,1.8-1.9,2.7c-0.7,0.9-1.4,1.9-1.9,2.8c-0.6,0.7-0.9,1.4-1.3,2.1c-0.3,0.6-0.6,1.2-1.1,1.8
		c-0.6,0.8-1.3,1.4-2.1,2c-0.6,0.5-1.2,1-1.7,1.6c-2.2,3-3.7,6-5.3,9.3c-0.5,0.9-0.9,1.8-1.4,2.8c-0.3,0.6-0.7,1.2-1.1,1.8
		c-0.6,0.9-1.1,1.9-1.5,2.7c-0.3,0.6-0.4,1.2-0.5,1.7c-0.2,1-0.3,2-1.9,2.9c-0.1,0.1-4.7,2.1-7.3,2.1c-0.5,0-0.9-0.1-1.2-0.2
		c-0.9-0.6-1-1.4-1.1-1.8c0-0.1,0-0.2,0-0.3c-0.2,0-0.7,0-1.1,0.1c-0.7,0.1-1.5,0.2-2,0.1c-0.9-0.1-1.8-0.4-2.5-0.8
		c-0.8-0.4-1.4-0.6-1.9-0.4c-0.5,0.1-0.9,0.5-1.4,1c-0.7,0.6-1.4,1.2-2.4,1.6c-1.5,0.5-3.2,0.6-4.7,0.3c-1.1-0.3-1.8-0.8-2.4-1.2
		c-0.4-0.3-0.7-0.5-1.1-0.7c-0.4-0.2-0.8-0.3-1.2-0.4c-0.2,0-0.3-0.1-0.5-0.1c-0.1,0.7-0.1,1.3-0.2,1.9c-0.1,1.2-0.3,2.3-0.3,3.4
		c0,1,0,1.3,0,1.4C321.5,58.9,322.1,58.9,322.5,58.9z"/>
	<path fill="#3E4924" d="M503.5,332.1c0.3,0.1,0.6,0.1,0.9,0.1c0.1-0.3,0.2-0.6,0.2-0.7h0c0,0-0.1-0.1-0.3-0.2
		c-0.8-0.5-2.5-0.4-3.9-0.4c-1,0-1.8,0.1-2.5-0.1c-1.7-0.2-1.8-0.1-2.7,0.4c-0.2,0.1-0.5,0.3-0.8,0.4c-0.7,0.4-1.5,0.5-2.3,0.7
		c-0.6,0.1-1.3,0.2-1.6,0.4c-0.3,0.2-0.4,0.3-0.5,0.4c0,0.1-0.1,0.4-0.5,0.9c-1.4,2.3-2.7,2.8-4.5,3.6c-0.4,0.1-0.7,0.3-1.2,0.5
		c-2.1,1-3.8,2.4-5.4,3.8c-1.7,1.3-3.6,1.9-5.5,2.5c-1.9,0.6-3.8,1.1-4.8,2.4c-0.2,0.2-0.5,0.4-0.8,0.4c-0.1,0.1-0.3,0.1-0.5,0.1
		c-0.1,0-0.2,0-0.3,0c-0.5-0.1-0.8-0.7-0.7-1.2c0.3-1,0.4-2.3,0.3-3c-0.2-0.1-0.4-0.3-0.4-0.6c-0.2,0-0.4,0.1-0.7,0.2
		c-0.3,0.1-0.7,0.2-1.1,0.3c-0.6,0.1-1-0.2-1.1-0.7c-0.1-0.3-0.1-0.7-0.1-1.1c0-0.2,0-0.4,0-0.6c-0.3,0-0.6,0-0.8,0
		c-0.5,0-1.1-0.1-1.6-0.6c-0.6-0.4-0.5-1.2-0.5-1.7c0,0,0-0.1,0-0.1c-0.2-0.2-0.4-0.1-1-0.1c0,0,0,0-0.1,0c0,0.1,0.1,0.3,0.3,0.7
		c0.3,0.6,0.8,1.7,0.1,2.9c-0.9,1.6-2.1,1.3-2.6,1.1c-0.2-0.1-0.4-0.1-0.5-0.1c-0.7,0.1-1,0.2-1.1,0.2c0.1,0,0.1,0.2,0.1,0.3
		c0.1,0.5,0.2,1.2,0,2.2c-0.3,1-1,2.6-1.7,3.8c1.5,1.2,2.4,3.9,2.6,5c0.6,3.5-2.1,4.1-3.8,4.4l-0.8,0.2c-1.7,0.3-4,1.4-4.3,2.2
		c-0.1,0.2,0,0.4,0,0.7c0.1,0.6,0.3,1.5-0.2,2.4c-0.6,1-1.6,1.5-2.5,2c0,0,0,0,0,0c0.9,1.3,1.5,2.7,2.1,4.1c0.5,1.3,1,2.5,1.7,3.5
		c0.2,0.3,0.4,0.5,0.5,0.6c1.2,1.4,1.5,2.2,0.2,4.4c-0.9,1.3-2.1,2.1-3.2,3c-0.5,0.4-1.1,0.8-1.5,1.2c0.3,0.3,0.7,0.4,1.1,0.6
		c1.2,0.5,2.7,1.2,2.1,4.2c-0.1,0.5-0.2,0.9-0.4,1.2c-0.1,0.3-0.2,0.5-0.3,0.9c0,0.1,0.1,0.5,0.2,0.8c0.1,0.5,0.3,1.2,0.2,1.9
		c-0.3,2.8-2,3.6-3.7,4.4l-0.5,0.2c-1,0.5-1.1,0.6-1.2,0.9c-0.2,0.3-0.4,0.7-0.9,1.4c-0.5,0.8-3,2.7-4.6,2.7c-0.1,0-0.2,0-0.2,0
		c-1-0.1-1.6-0.7-2.1-1.2c-0.3-0.3-0.6-0.6-0.9-0.6c-2.1-0.5-5-0.3-7.6-0.2l-1.5,0.1c-0.9,0-1.6,0.2-2.4,0.3
		c-1.1,0.2-2.2,0.4-3.5,0.3l-0.8-0.1c-1-0.1-1.3-0.1-2.4,0.5c-0.5,0.3-0.9,0.6-1.3,0.9c-0.9,0.7-1.8,1.4-3.1,1.4
		c-0.6,0-1-0.4-1.4-0.8c-0.1-0.1-0.2-0.2-0.2-0.2c-0.2,0.1-0.5,0.2-0.7,0.2c-0.3,0.1-0.6,0.2-0.8,0.3c-1.2,0.3-2.5,0.5-3.7,0.7
		c-2,0.3-4,0.6-5.6,1.3c-1.9,0.8-3.2,2.6-4.6,4.5c-0.9,1.3-1.9,2.6-3.1,3.7c-0.7,0.5-1.2,0.5-1.5,0.5c-0.1,0-0.1,0-0.2,0.2
		c-0.1,0.1,0.1,0.6,0.1,0.9c0.2,0.6,0.4,1.4,0,2.1c-0.7,1.3-1.9,1.5-2.9,1.5c-0.1,0.9-0.6,1.5-1,2.1c-0.3,0.5-0.6,0.8-0.7,1.3
		c-0.1,0.8,0,1.6,0.1,2.5c0,0,0,0.1,0,0.1c0.5-0.3,1-0.5,1.6-0.7c0.4-0.1,0.8-0.3,1.3-0.5c0.5-0.2,0.9-0.5,1.3-0.8
		c0.5-0.4,1.1-0.7,1.7-0.9c1.3-0.4,1.7-0.5,2.3,0c0.5,0.1,1,0.4,1.4,0.7c0.3,0.2,0.5,0.4,0.8,0.4c0.8,0.2,1.6,0.1,2.5,0
		c0.4,0,0.9-0.1,1.2-0.1c0.6,0,1.2-0.1,2-0.1c4-0.3,9.6-0.7,12.3,2c1.2,1.1,1.1,2.4,1.1,3.3c0,0.6-0.1,1,0.2,1.5
		c0.2,0.5,0.4,0.7,0.6,0.7c0,0,0.4-0.2,0.5-0.7c0.1-0.3,0.3-0.5,0.5-0.6c0.2-0.1,0.5-0.1,0.8,0c1.1,0.4,1.5,1.7,1.9,2.8
		c0.1,0.4,0.3,1,0.5,1.3c0-0.2,0.4-1.1,0.4-3.9c0-0.4,0.2-0.8,0.6-0.9c1.3-0.5,2.8-0.4,4.3-0.2c1.1,0.1,2.1,0.2,3,0
		c0.9-0.1,1.6-0.3,2.3-0.4c1-0.2,2-0.4,3-0.5c0.3,0.1,0.7,0,1,0.1c0.4,0.1,0.8,0.1,1,0.1c0.2-0.1,0.4-0.2,0.6-0.5
		c0.2-0.3,0.5-0.6,1-0.8c0.6-0.3,1.4-0.2,2.4-0.1c0.6,0.1,1.7,0.1,1.9,0c0.1-0.4,0.3-0.6,0.7-0.7c0.4-0.1,0.8,0.1,1,0.5
		c0.4,0.5,1.1,1.1,1.8,1.7c0.9,0.8,1.9,1.6,2.4,2.5c0.5,0.8,0.5,1.7,0.6,2.4c0,0.2,0,0.5,0.1,0.8c0,0.3,0.1,1.8,0.1,2.5
		c0.2,0.2,0.4,0.2,0.8,0.3c0.4,0.1,1.1,0.1,1.5,0.8c0.4,0.6,0.3,1.5-0.1,2.5c-0.3,0.8-0.8,1.5-1.2,2c0,0.1-0.1,0.1-0.1,0.2
		c0.2,0.1,0.4,0.2,0.6,0.4c0.7,0.7,0.7,1.6,0.7,2.4c0,0.3,0,0.7,0.1,0.9c0.3,1.7,1.3,2.4,2.7,3.3c0.7,0.4,1.6,0.8,2.5,1.1
		c1.1,0.4,2.2,0.8,3,1.4c2.4,1.6,1.8,3,0.8,4.3l-0.3,0.5c-1,1.4-1.4,2.5-1.3,4c0,0.3,0.1,0.7,0.2,1c0.2,0.8,0.4,1.8,0.1,2.9
		c-0.2,0.6-0.5,1.1-0.8,1.4c-0.2,0.2-0.3,0.4-0.3,0.5c0.1,0.2,0.6,1.9,0.9,2.2c0,0,0,0,0,0c0.4-0.1,0.8-0.1,1.4,0.1
		c1.5,0.6,2.6,2,2.8,3.5c0.1,0.8-0.1,1.5-0.5,2.1c0.6,0.6,1,1.4,1.1,2.3c1.5,0.1,2.8-0.3,4.1-0.7c0.7-0.2,1.3-0.4,2-0.5
		c0.5-0.2,1-0.1,1.4,0c0.4,0.1,0.4,0,0.5,0c0.1-0.1,0.1-0.4,0.2-0.7c0.1-0.7,0.2-1.9,1.6-2.3c0.8-0.3,1.6,0.1,2,0.4
		c0.1,0.1,0.3,0.2,0.4,0.2c0.5,0,0.8-0.2,1.4-0.6c0.3-0.2,0.6-0.4,1-0.6c1.4-0.9,3.1-1.5,4.8-2c0.9-0.3,1.9-0.6,2.7-1l0.3-0.1
		c1.2-0.5,1.4-0.6,2.8-0.1l0,0c2.2-2.1,4.8-2.4,7.5-2.8c1-0.1,2-0.2,3-0.5c1.3-0.4,2.1-0.8,3.2-1.5l0.7-0.4c1.4-0.7,2.7-0.8,4-0.9
		c0.8-0.1,1.5-0.1,2.2-0.3c0.5-0.1,1-0.3,1.5-0.4c0.9-0.3,1.9-0.6,3-0.6c0.8,0,1.6,0.3,2.2,0.6c0.5,0.2,1,0.4,1.4,0.4
		c2,0.3,3.7-0.9,5.6-2.1c1.2-0.8,2.5-1.6,3.9-2c0.8-0.2,1.6-0.4,2.2-0.4c1.3-0.2,1.3-0.2,1.3-2.2l0-0.6c0-1.3,0-2.9,0.8-4.2
		c0.3-0.6,0.8-1,1.2-1.4c0.4-0.4,0.7-0.7,0.9-1.2c0.2-0.4,0.2-0.9,0.1-1.4c0-0.8-0.1-1.8,0.7-2.7c0.5-0.8,1.4-1.2,2-1.5
		c0.3-0.1,0.6-0.3,0.9-0.5c0.5-0.4,0.8-0.8,1.2-1.3c0.4-0.6,0.9-1.2,1.6-1.6c0,0-0.1-0.1-0.1-0.1c-0.4-0.4-0.8-0.8-1-1.4
		c-0.5-1.5,0.3-4.6,1-5.7c0.8-1.4,4-2.6,5.8-2.2c0.5,0.1,0.9,0.3,1.2,0.6c0.5-0.8,0.8-1.8,1-2.9c0.3-1.3,0.7-2.6,1.4-3.7
		c0.4-0.6,1-1,1.5-1.5c0.5-0.4,1.2-0.9,1.3-1.3c0-0.1-0.2-0.4-0.3-0.6c-0.2-0.4-0.5-0.9-0.6-1.5c-0.1-1.1,0.1-2.1,0.4-3.1l0.2-1.1
		c0.3-1.3,0.5-2,0.1-2.6c-0.1,0.2-0.2,0.4-0.4,0.6c-0.2,0.1-0.4,0.1-0.6,0.1c-0.3,0-0.7-0.2-0.8-0.5c-0.5-0.8-1.1-1.9-0.7-3
		c0.4-1.1,1.5-1.4,2.5-1.7c0.3-0.1,0.6-0.2,0.8-0.3c0,0,0,0,0-0.1l0-0.5c-0.2-3.5-0.7-4.3-0.9-4.5c-0.2,0.1-0.5,0.1-0.8,0
		c-0.2-0.1-0.4-0.3-0.5-0.5c-1.7-4.2,2.6-6,5.1-7.1c0.1,0,0.2-0.1,0.4-0.2c-0.1-0.4,0-0.8,0.4-1c1.8-1.3,3.6-1.3,5.3-1.4
		c0.4,0,0.9,0,1.4,0.1c0.8,0.1,2,0.1,2.3-0.1c0.1-0.1,0.1-0.3,0.1-0.6c-0.1-0.7-0.5-0.9-1.4-1.2c-0.6-0.2-1.3-0.4-1.9-0.9
		c-0.7-0.7-0.8-1.6-0.9-2.3c0-0.3-0.1-0.8-0.2-0.9c-0.3,0.1-0.7,0-0.9-0.2c-0.2-0.2-0.4-0.5-0.3-0.8c0.2-1.4,0.4-4.2,0-6.4
		c-0.1-0.4,0.1-0.8,0.5-1c0.5-1.5,1.7-2.4,3.1-3.2c0.3-0.3,0.7-0.4,1-0.5c0.2-0.1,0.3-0.1,0.3-0.1c0,0,0-0.3,0-0.5
		c0-0.5,0-1.2,0.5-1.9c0.5-0.6,1-0.7,1.4-0.9c0.2-0.1,0.5-0.2,0.6-0.3c0.2-0.2,0.2-0.3,0.4-0.7c0.1-0.3,0.3-0.7,0.6-1.2
		c0.3-0.4,0.6-0.7,1-1c0.3-0.2,0.8-0.7,0.9-0.9c0,0,0-0.1-0.2-0.3c-0.4-0.4-0.4-1,0-1.4c0.2-0.2,0.6-0.3,0.9-0.3
		c0.3-0.3,0.3-0.5,0.2-0.6c-0.2-1.4-3.6-3.9-8.6-6c-1.8-0.9-6.7-2.2-7.8-1.9c0,0-0.1,0.3-0.2,0.4c-0.4,0.6-1,1.4-2,1.8
		c-0.6,0.1-3,0.3-4-0.4c-0.7-0.6-0.9-1.6-1.2-2.9c-0.1-0.2-0.1-0.5-0.2-0.7c-0.5-0.8-1.2-1.8-1.9-2.6c-0.3-0.4-0.5-0.7-0.6-1
		c-1-1.7-1.6-2.6-3.2-2.7c-1.7-0.1-2.7-0.6-3.8-1c-1-0.4-2-0.8-3.7-1c-0.7-0.1-1.4-0.1-2-0.1c-2.4-0.1-4.5-0.2-6.5-2.8
		c-0.8-1.1-1.1-1.1-1.6-1.2c-0.5-0.1-1.1-0.2-2.1-0.7c-0.6-0.2-0.9-0.7-1.2-1.1c-0.2-0.3-0.4-0.5-0.8-0.7c-1.8-0.7-3.6-1-4.2-0.7
		c-0.3,0.1-0.3,0.2-0.2,1.3c0,0.3,0.1,0.7,0.1,1.1c0,0.4-0.3,0.8-0.7,0.9c-0.3,0.1-0.7,0-1-0.3c-0.4,0.2-0.9,0.3-1.5,0.1
		c-0.9-0.3-1.2-0.6-1.5-0.8c-0.1-0.1-0.2-0.2-0.5-0.4c-1.1-0.8-1.9-0.7-3.7-0.5l-0.3,0c-0.4,0.1-0.7-0.1-0.9-0.4
		c-0.2-0.3-0.3-0.7-0.1-1c0.2-0.4,0-1-0.2-1.6c-0.3-0.9-0.6-2.1,0.1-3.2C502.7,332.2,503.1,332.1,503.5,332.1z"/>
	<path fill="#3E4924" d="M251.5,77.3c0.2,0.4,0.4,0.9,0.5,1.7c0.1,0.6,0.3,4.3-0.2,5.5c0,0,0,0-0.1,0.1c0,0,0,0,0,0v0.6
		c0,0.4-0.2,0.7-0.5,0.9c-0.4,1.6,0.3,3.5,1.1,5.4c0.5,1.3,1,2.7,1.2,3.9c0.1,0.5,0.1,0.9,0.1,1.3c0,0.6,0,1,0.2,1.7
		c0.1,0.4,0.2,0.9,0.2,1.4c0.2,1.2,0.3,1.7,0.7,1.9c0.3,0.1,0.6,0.1,1,0c0.7-0.1,1.7-0.3,2.6,0.5c0.7,0.7,1,1.8,1.1,2.7
		c0.1,0.3,0.1,0.5,0.2,0.7c0.3,1.1,0.3,1.1,0.7,1.6c0.2,0.2,0.4,0.4,0.7,0.8c0.6,0.7,0.8,1.2,0.9,1.7c0.1,0.2,0.1,0.5,0.3,1
		c0.6,1,3.1,3,4.4,3.6c1.3,0.5,3,0.5,4.7,0.5c1.6,0,3.2,0.1,4.7,0.4l0.9,0.3c2.4,0.7,4,1.2,5.9,4.2c0.4,0.7,0.5,1.2,0.5,1.5
		c0.1,0,0.4,0.1,0.9,0.2c0.4,0.1,0.8,0.1,1.1,0.2c1.2,0.1,2.1,0.3,3.1,1.8c0.2,0.3,0.3,0.8,0.4,1.2c2.4-0.1,5.3-1.2,7.2-2.6l0.3-0.3
		c0.8-0.6,1.9-1.5,3.1-1.2c0.4,0.1,1,0.4,1.3,1.3c0.6,1.5-1,2.7-2.1,3.6c-0.2,0.1-0.4,0.3-0.5,0.4c0,0.3-0.1,0.6-0.3,0.9
		c-3.4,2.9-5.9,7.7-8,12c-1.1,2.3-2.3,4.6-3.5,6.8c-1.6,2.9-3.2,5.8-4.4,8.9c-0.5,1.4-1,2.8-1.6,4.1c-0.9,2.4-1.8,5-3,7.4
		c-0.3,0.8-0.8,1.6-1.2,2.4c-0.5,0.9-1,1.8-1.3,2.7c-0.5,1.2-0.9,2.5-1.2,3.7c-0.4,1.3-0.8,2.7-1.4,4c-1,2.4-2.5,4.5-3.9,6.5
		c-0.9,1.4-1.9,2.8-2.7,4.3c-1.2,2.2-2.5,4.5-3.4,6.9c-0.2,0.5-0.3,1-0.5,1.5c-0.4,1.2-0.7,2.4-1.4,3.4c0.1,0.2,0.1,0.4,0.1,0.6
		c-0.3,1.2,0.1,1.6,1.3,2.5c0.8,0.6,1.8,1.3,2.4,2.6c0.5,1.1,1.1,2.7,0.7,4.2c-0.1,0.5-0.3,1-0.5,1.4c-0.1,0.1-0.1,0.2-0.1,0.3
		c2.7,0.7,2.9,3.2,3,5.1c0.1,0.8,0.1,1.5,0.3,2.1c0.3,1,1,1.8,1.7,2.8c0.6,0.9,1.3,1.7,1.8,2.8l0.4,1.1c0.6,1.6,1.2,3.2,1.2,5
		c0.1,0.9,0.1,1.9,0.1,2.8c0,0.7,0.1,1.4,0.1,2.1c1.4,0.1,2.5,1.2,3.3,2c0.3,0.3,0.6,0.6,0.8,0.8c1,0.6,1.7,1.3,2.5,2.1
		c0.5,0.7,0.9,1.4,1.2,2c0.4,0.7,0.7,1.3,1.1,1.7c0.4,0.4,0.6,0.5,1.4,0.4c0.5,0,1,0,1.6,0.1c1.4,0.3,2,1.1,2.4,1.7
		c0.2,0.3,0.4,0.6,0.7,0.8c0.7,0.4,2,0.2,3.1,0c0.6-0.1,1.2-0.2,1.8-0.3c1.5-0.1,2.9,0,4.4,0c1.4,0,2.9,0.1,4.2,0h0
		c1.5,0,2.7,0.3,3.9,0.5c0.7,0.2,1.5,0.3,2.3,0.4c3,0.1,5.6,0.3,8.3,0.5c1.1,0,2.3,0.1,3.4,0.1c1.7,0,3.5,0,5.3,0.2l1.9,0.2
		c2.1,0.2,4.3,0.4,6.4,0.4c5.4,0.1,10.7,0.4,15.9,0.7c5.7,0.3,11.7,0.7,17.5,0.7c7,0,14.7,0.8,22.7,2.3l0.8,0.2
		c1.7,0.3,5.4,1.1,6.9,0.2c0-0.2,0-0.5,0.1-0.7c0.1-1.4,0.1-2.8,0.5-4.1c0.3-1.1,0.8-1.7,1.1-2.2c0.2-0.3,0.4-0.5,0.6-0.9
		c0.5-0.8,0.8-1.6,1.1-2.3c0.7-1.7,1.4-3.5,4.2-4.7c2-0.8,2.1-1.1,2.4-2.6c0.1-0.6,0.3-1.3,0.6-2.2c0.6-1.7,1.6-3,2.6-4.2
		c0.8-1.1,1.6-2.1,2.1-3.3c1.1-2.5-0.1-5-0.7-5.9c-1.2-2-2.6-4.4-1-7.2c0.4-0.7,1-1.2,1.5-1.6c0.5-0.3,0.8-0.6,1-1
		c0.3-0.7,0.1-1.5-0.1-2.4c-0.2-0.7-0.3-1.4-0.3-2.1c0.2-1.7,2-3,2.8-3.5c1.3-0.8,3-1.5,4.5-1.3c0.2-0.4,0.5-0.7,0.9-0.6
		c0.4,0,0.7,0.2,0.8,0.5c1-0.5,1.2-1.5,1.6-3c0.4-1.4,0.8-2.9,1.9-4.1c0.4-0.4,0.7-0.7,1-1c0.8-0.7,1.2-1.1,1.6-2.3
		c0-0.1,0.1-0.3,0.1-0.5c0.1-0.4,0.2-0.8,0.2-1.2c0-0.1-0.1-0.7-0.2-1c-0.1-0.1-0.1-0.3-0.1-0.4c0-0.1,0-0.2,0-0.2
		c0.2-1,0.7-1.7,1.2-2.3c0.2-0.3,0.5-0.7,0.5-0.8c0,0-0.1-0.3-1.3-0.9c-0.7-0.3-1.7-0.5-2.7-0.7c-1.9-0.4-4-0.9-5.2-2.3
		c-0.3-0.3-0.3-0.8-0.1-1.1c0.7-1.3,1.8-1.8,2.7-2.2c0.5-0.3,1-0.5,1.4-0.8c0.3-0.3,0.7-0.8,0.9-1.3c0.3-0.6,0.7-1.2,1.1-1.6
		c1.1-1.2,2.4-2,3.6-2.8c1.3-0.8,2.5-1.6,3.3-2.8c0.2-0.3,0.4-0.6,0.6-0.9c0.5-0.8,1.1-1.7,2.2-2.2c0.6-0.2,1.1-0.2,1.7-0.2
		c0.5,0,0.9,0,1.2-0.1c1.8-0.6,2.6-2.1,3.5-3.8c0.4-0.7,0.8-1.4,1.2-2.1c0.5-0.8,1.1-1.5,1.7-2.2c0.9-1.2,1.8-2.3,2.4-3.5
		c0.2-0.5,0.4-1.1,0.5-1.8c0.2-0.9,0.4-1.8,0.9-2.6c0.3-0.5,0.8-0.8,1.3-1.2c0.3-0.2,0.6-0.4,0.7-0.6c0.4-0.6,0.6-1.3,0.9-2
		c0.2-0.8,0.5-1.6,1-2.3c0.5-0.6,1-1,1.5-1.4c0.5-0.3,0.8-0.6,1-1c0.2-0.4,0.8-2.2,0.8-2.5c0.1-0.4,0-0.7-0.1-1.1
		c-0.1-0.5-0.2-1-0.1-1.7c0.1-1.1,0.8-1.8,1.4-2.3c0.3-0.3,0.5-0.5,0.7-0.8c0.3-0.5,0.4-1.1,0.5-1.7c0.1-0.7,0.3-1.5,0.7-2.3
		c0.2-0.6,0.6-1.2,1-1.8c0.3-0.5,0.7-1.1,0.9-1.6c0-0.2,0.1-0.4,0.1-0.7c0.1-0.6,0.2-1.2,0.6-1.9c0,0,0-0.1,0.1-0.1
		c0-0.2-0.1-0.3-1-0.7c-0.7-0.3-1.5-0.7-1.8-1.6c-0.2-0.9,0.4-1.6,0.6-1.8c0.4-0.5,1.1-0.7,1.8-0.9c0.2-0.1,0.6-0.2,0.7-0.3
		c0.5-0.4,0.5-0.6,0.8-1.2l0.3-1.3c0.2-1.1,0.5-2.4,0.4-3.4c-0.2-0.1-0.3-0.2-0.4-0.4c-0.2-0.4-0.1-0.9,0.3-1.2
		c-0.2-0.4-0.5-0.6-1.2-0.9l-0.6-0.3c-0.6-0.3-1.2-0.8-1.7-1.2c-0.6-0.5-1.2-1-1.9-1.2c-0.2,0-0.6,0-1,0c-0.6,0-1.4,0.1-2-0.3
		c-0.9-0.3-1.4-0.8-1.8-1.2c-0.2-0.3-0.4-0.5-0.7-0.6c-1-0.6-2.2-0.6-3.4-0.6c-0.7,0-1.5,0-2.3-0.1c-0.7-0.1-1.4-0.2-2.1-0.2
		c-1-0.1-2-0.1-3.1-0.3c-0.5-0.1-0.9-0.3-1.3-0.4c-1.3-0.4-2.2-0.7-3.3-0.2c-1.2,0.5-2.7,1.8-3.4,2.7c-1.2,1.7-1.8,2.1-3.2,3
		l-0.6,0.4c-0.9,0.6-1.4,1.3-2,2.2c-0.3,0.5-0.7,0.9-1.1,1.4c-1.1,1.1-2.4,1.7-3.7,2.3c-0.6,0.3-1.3,0.6-1.8,1l-0.8,0.5
		c-1.5,1.1-3.3,2.3-4.4,3.6c-0.3,0.3-0.5,0.8-0.8,1.2c-0.7,1.3-1.8,3.2-4.2,2.7c-0.5-0.1-0.9-0.7-0.8-1.2l0.1-0.5
		c0.1-0.3,0.2-0.6,0.2-0.9c-0.3,0.3-0.5,0.5-0.9,0.7c-0.8,0.6-1.6,0.7-2.1,0.7c-0.3,0-0.5,0-0.7,0.1c-0.8,0.3-1,0.8-1.3,1.5
		c-0.3,0.7-0.6,1.6-1.6,2.3c-0.2,0.2-0.4,0.2-0.6,0.2c-0.3,0-0.5-0.1-0.7-0.3c-0.8-0.9-1.4-1.9-2-2.9c-0.1-0.2-0.2-0.4-0.3-0.6
		c-0.4,0.3-0.8,0.4-1.3,0.4c-0.2,0-0.5,0.1-0.7,0.1c-0.7,0.2-1.3,0.6-1.9,1c-0.7,0.5-1.5,0.9-2.3,1.1c-2.2,0.4-5.6-2.3-6.6-3.6
		c-0.7-1-1-2.1-1.2-3.2c-0.2-0.9-0.4-1.8-0.9-2.5c-0.1-0.1-0.2-0.2-0.4-0.4c-0.4-0.5-0.9-1-1.2-1.7c-0.2-0.7,0-1.4,0.1-1.8
		c0.1-0.2,0.2-0.5,0.1-0.6c-0.2-0.9-0.4-1.2-1.6-1.4c-1.1-0.2-3,0-3.5,0.3c-0.6,0.5-0.9,0.8-1.1,1.1c-0.6,0.9-1.2,1.2-3,1.3l-0.3,0
		c-1.3,0.1-1.3,0.1-2.2,1.6c-1.2,2.1-2.2,3.6-4.9,4.4c-1.9,0.5-5.5,0-6.1-1.7c-0.2-0.6-0.4-1.8,1.6-2.9c0.6-0.4,1.3-0.4,1.8-0.5
		c0.7-0.1,1.2-0.1,1.7-0.6c0.5-0.5,0.9-1.2,1-1.9c-2.1-0.1-5.3-1.6-5.3-1.6c-2.3-1-5.1-2.7-5.9-6.2c-0.1-0.7-0.2-1.4-0.3-2.1
		c-0.1-1.4-0.2-2.8-0.9-3.7c-0.4-0.6-0.8-0.7-1.4-0.8c-0.5-0.1-1.2-0.3-2-0.9c-1.6-1-2.8-3.9-3.7-6.4c-0.2-0.5-0.3-0.9-0.4-1.3
		c-0.1-0.3-0.2-0.6-0.3-0.9c0.1,0.1-0.1,0-0.2-0.1c-0.3-0.2-0.6-0.4-0.8-0.7c-0.3-1-0.2-1.8-0.2-2.7c0-0.3,0.1-0.7,0.1-1
		c0-0.5-0.1-1.7-0.2-2.8c-0.1-0.8-0.1-1.4-0.2-1.8c-1.9-0.1-2.8-1.3-3.6-2.6l-0.4-0.6c-0.8-1.1-1.5-2.3-2-3.7
		c-0.2-0.6-0.2-1-0.2-1.4c0-0.4,0-0.4-0.4-0.6c-0.2-0.1-0.3-0.1-0.8-0.1c-0.4,0-0.8,0-1.4-0.1c-1.1-0.4-1.8-1.2-2.3-1.9
		c-0.3-0.4-0.6-0.7-0.9-1c-0.6-0.4-1.3-0.6-2.2-0.8c0,0-0.1,0-0.1,0c-0.1,0.3-0.2,0.6-0.5,0.7c-0.5,0.2-1.1,0-1.3-0.5
		c-0.2-0.4-0.4-0.7-0.6-1c0,0,0,0-0.1,0c-0.3-0.1-0.5-0.4-0.5-0.7c-1.4-1.5-3.3-2.6-5.1-2.7l-0.9,0c-1.1,0-1.9-0.1-2.5-0.7
		c-0.6-0.6-0.6-1.6-0.5-2.8c0-1.1,0.1-2.4,0.3-3.6c0.1-1,0.2-1.9,0.2-2.7c-0.2-0.2-0.3-0.4-0.5-0.6c-0.3-0.5-0.2-1.1,0.3-1.4
		c-0.2-0.4-0.4-0.7-0.8-0.9c-1.8-1.2-5.6-0.9-8.5-0.1c-0.7,0.2-1.5,0.6-2.5,1.1c-1.7,0.9-3.5,1.9-5.2,1.6c-1-0.2-1.6-0.8-2.3-1.4
		c0,0,0,0-0.1,0c-0.1,0.4-0.4,0.7-0.7,1.1l-0.2,0.3c-0.4,0.6-0.8,0.9-1.1,1.1c0,0-0.1,0.1-0.1,0.1c0.1,0.1,0.2,0.4,0.5,0.7
		c0.3,0.5,0.5,0.8,0.7,1c0.3,0.4,0.6,0.8,0.9,1.3c0.7,1.8,0.6,3.1-0.2,4c-1.4,1.5-4.5,1.1-6.8,0.5c-2.7-0.6-4.8-0.6-7.9-0.5
		c-1.2,0.1-2.3,0-3.4-0.1c-1.4-0.1-2.7-0.2-4.1,0c-1.6,0.3-2,0.5-3,1.5c-0.2,0.2-0.3,0.4-0.4,0.7c-0.4,0.7-0.8,1.3-2.2,1.8
		c-0.9,0.3-2,0.2-3,0.1c-1-0.1-2-0.2-2.7,0.1c-0.1,0.1-0.2,0.2-0.3,0.5c-0.3,0.5-0.7,1.2-1.8,1.7c-1,0.4-2.1,0.4-3.1,0.4
		c-1.5,0-2.4,0.1-3.1,1c-0.2,0.2-0.2,0.4-0.2,0.7c-0.1,0.5-0.2,1.2-1,1.8c-0.7,0.6-1.7,0.8-2.7,1.1c-0.8,0.2-1.5,0.4-2,0.7
		c0,0.2,0,0.4,0,0.5c0,0.4,0,0.8,0,1.2c0,0.5-0.4,1-1,1c-0.1,0-0.3,0-0.4-0.1c-0.1,0.9,0,2.2,0.2,2.8
		C251.3,76.8,251.4,77,251.5,77.3z"/>
	<path fill="#3E4924" d="M398.3,95.5c-0.6-0.3-1-0.5-1.5-0.4c-1,0.2-1.2,0.7-1.2,2.5c0,1.1,0,2.4-1,3.2c-0.9,0.7-2.2,0.6-3.3,0.5
		c-0.4,0-0.9-0.1-1.2,0c-0.1,0.1-0.2,0.1-0.3,0.2c0,0-0.1,0.1-0.1,0.1c1.5,0.6,2.8,1.3,3.6,2.2c0.5,0.6,0.7,1.2,0.6,1.8
		c-0.1,0.8-0.8,1.3-1.3,1.6c-0.1,0.1-0.2,0.2-0.3,0.2c0,0,0.1,0.1,0.1,0.1h0c0,0,0.3,0.1,0.5,0.2c0.7,0.3,1.7,0.6,2,1.5
		c0.2,0.6,0,1.2-0.6,1.8c-0.6,0.7-1.7,0.8-2.5,0.8c-0.2,0-0.6,0-0.7,0c-0.1,0-0.2,0.1-0.3,0.1c-0.9,0.1-1.5,0.4-1.7,0.6
		c0,0-0.1,0.1,0,0.3c0.1,0.1,0.7,0.2,1,0.3c0.4,0.1,1.3,0.3,1.7,0.8c0.4,0.2,0.6,0.6,0.8,0.9c0,0.1,0.1,0.3,0.2,0.4
		c0.9,1.9,0.9,1.9,3,2.5c0.4,0.1,0.7,0.3,1.1,0.5c0.5,0.2,0.9,0.5,1.3,0.4c-0.1,0-0.1,0,0-0.2c0.2-0.2,0.4-0.6,0.8-0.9
		c0.4-0.2,0.6-0.3,0.7-0.4c0.6-0.4,0.8-0.4,1.8-0.3l0.3,0c0.6,0.1,1.2,0.3,1.7,0.5c0.8,0.3,1.5,0.4,2,0.4c0.2,0,0.3,0,0.4,0
		c0-0.6,0.2-1.3,1.3-2c1-0.8,2.1-0.4,2.9-0.2c0.8,0.2,1.1,0.3,1.5,0c0.1-0.1,0.3-0.7,0.4-1.1c0.2-0.9,0.5-1.9,1.3-2.3
		c0.3-0.2,0.8-0.3,1.5-0.1c0.7,0.1,1.1,0.8,1.3,1.3c0.1,0.1,0.2,0.3,0.2,0.4c0.1-0.1,0.2-0.7,0.2-1c0-0.2,0-0.4,0.1-0.6
		c0,0,0-0.1-0.1-0.2c-0.2-0.4-0.4-0.9-0.3-1.5c0.5-1.3,1.7-2.1,2.7-2.7l0.4-0.3c2.6-1.6,3.8-3.5,5.2-6.1l0.8-1.3
		c0.2-0.4,0.5-0.7,0.6-1c0.3-0.5,0.7-1.1,0.7-1.2c0,0-0.1-0.2-0.7-0.8c-0.5-0.5-1.1-0.7-1.8-1.1c-0.5-0.2-0.9-0.5-1.5-0.8
		c-0.3-0.2-0.7-0.4-1.1-0.6c-0.9-0.5-1.7-1-2.5-1.1c-0.5,0-1,0.1-1.6,0.2c-0.7,0.2-1.5,0.3-2.5,0.2c-0.6-0.2-1.1-0.4-1.5-0.6
		c-0.4-0.2-0.7-0.4-1.2-0.4c-0.2,0-0.6,0.2-1,0.3c-0.4,0.1-0.8,0.3-1.1,0.3c-0.8,0.1-1.6,0.1-2.3,0.1c-0.7,0-1.3-0.1-1.9,0
		c-0.6,0.1-1.2,0.6-1.8,1c-0.9,0.6-1.8,1.3-3,1.3C400,96.3,399,95.8,398.3,95.5z"/>
	<path fill="#3E4924" d="M546.2,151.6c0,0,0.2,0.1,0.3,0.2c0.2,0.2,0.4,0.4,0.8,0.7c1.2,1.2,1.4,1.8,1.5,2.9c0,0.3,0.1,0.6,0.2,1.1
		c0.2,1.2,0.8,1.9,1.5,2.8c0.2,0.3,0.5,0.6,0.7,0.9c1.3,1.6,1.2,2.5,1,3.9c0,0.2-0.1,0.5-0.1,0.8c-0.1,0.9,0,1.2,0.2,2
		c0.1,0.3,0.2,0.6,0.3,1c0.4,1.1,0.1,2.1,0,3c-0.1,0.6-0.2,1.2-0.2,1.8c0.1,0.8,0.5,1.6,0.9,2.5c0.5,1,1,2.2,1.2,3.5
		c0.1,1.9,0.1,4,0,5.8c0,0.6-0.1,1.3-0.2,2c-0.2,2.4-0.5,5.3,0.6,6.8c0.1,0.2,0.2,0.2,0.4,0.3c0.5,0.3,1.1,0.6,1.5,1.7
		c0.2,0.8,0.1,1.5,0.1,2.2c0,0.2,0,0.3,0,0.4c0.3,0.9,0.5,1.7,0.5,2.4c0.1,1.3,0.2,1.9,1.1,2.3c0.3,0.1,0.7,0.2,1.1,0.2
		c1,0.1,2.7,0.3,2.8,2.8c0.1,1.4-0.8,3.2-1.5,4.7c-0.3,0.6-0.6,1.2-0.8,1.6c-0.2,0.4-0.3,0.8-0.5,1.1c0.5,0.1,1,0.3,1.5,0.5
		c0.6,0.3,1.2,0.6,2.1,0.6c0.6,0,1.6-0.3,2.5-0.6c0.8-0.2,1.5-0.5,2.2-0.6c2.2-0.3,3.7-0.2,5.6,0.1c3.7,0.5,4.5,1.4,6.1,3.8
		c0.2,0.3,0.5,0.7,0.8,1.1c0.4,0.5,0.7,0.6,1.2,0.7c0.5,0.1,1.2,0.1,1.9,0.7c0.7,0.5,1.2,1.3,1.5,2.2c0,0,0-0.1,0-0.1
		c0.3-0.8,0.6-1.7,1.5-2.4c0.8-0.6,1.6-0.8,2.4-0.9c0-0.1,0-0.1,0.1-0.2c0.6-0.8,1.3-1.4,1.8-1.8c1-0.8,1.2-1,0.9-1.9
		c-0.2-0.6-1.1-1.4-1.8-2.1c-1.3-1.2-3-2.7-2.6-4.4c-0.4-0.2-0.7-0.5-0.8-1c-0.3-1.2,1.1-2.1,2.6-3.2c0.5-0.4,1.3-0.9,1.5-1.1
		c0-0.1,0-0.9-0.1-1.4c-0.1-1-0.2-2.4,0.2-3.5c-0.2-0.4-0.1-1,0.3-1.2c0.6-0.4,1.1-0.6,1.5-0.9c0.9-0.5,1.5-0.8,2.1-1.7
		c0.5-0.7,1-1.3,1.5-2c0.5-0.6,1-1.2,1.4-1.8c0.6-0.7,0.7-1.2,0.9-1.9c0.1-0.4,0.3-0.9,0.5-1.5c0.4-1,1.2-1.7,1.8-2.3
		c0.5-0.4,0.9-0.9,1.2-1.4c0.4-0.5,0.4-0.8,0.4-1.5c0-0.4,0-0.9,0.1-1.4c0.3-1.5,1.3-2.8,2-3.7c0.4-0.5,0.7-1.1,1-1.6
		c1.2-1.8,2-3.2,5.4-3.7c0.2,0,0.4-0.1,0.6-0.1c-0.4-0.3-0.9-0.6-1.3-1c-0.9-0.9-2.1-1.3-3.4-1.8c-1.8-0.6-3.8-1.4-4.8-3.4l-0.3-0.7
		c-0.8-1.7-1.3-2.7-2.8-3.9l-0.6-0.5c-1.6-1.2-3.2-2.3-4.7-3.9c-3.8-3.9-7.2-5.9-12.3-8.2c-1.7-0.8-3.3-1.9-4.8-2.9
		c-1.9-1.3-3.9-2.7-6.1-3.5c-0.7-0.2-1.5-0.5-2.3-0.8c-1.2-0.4-2.5-0.9-3.7-1.2c-1.2-0.4-1.8-0.3-2.7,0c-0.5,0.2-0.9,0.3-1.5,0.4
		c-0.6,0.1-1.3,0-2,0c-0.6-0.1-1.4-0.2-1.6,0c-0.3,0.2-0.2,0.6-0.1,1.7c0.1,0.5,0.2,1.1,0.1,1.6c0,0.3-0.2,0.6-0.5,0.8
		c-0.3,0.2-0.6,0.2-0.9,0c-0.7-0.4-1.3-1-1.6-1.8c-0.7,0-1.3-0.3-1.8-0.5c-0.2-0.1-0.4-0.2-0.6-0.3c-1.9-0.7-1.9-0.7-3.6,0.6
		l-0.3,0.3c0,0,0,0,0,0c0.6,1.5,0,3.2-0.6,4.8c-0.5,1.3-1,2.7-0.8,3.7C546.1,151.2,546.1,151.5,546.2,151.6z"/>
	<path fill="#3E4924" d="M534.7,145.3c-0.4,0.3-0.8,0.6-1.3,0.9c-0.6,0.5-1.2,1.1-1.8,1.7c-0.9,0.9-1.8,1.9-2.9,2.6
		c-0.7,0.4-1.3,0.7-2,0.9c-0.5,0.2-1.1,0.4-1.6,0.7c-1.6,1.2-2.6,3.6-3.6,5.9c-0.4,1-0.8,1.9-1.3,2.8c-0.2,0.4-0.4,0.8-0.7,1.2
		c-0.7,1.2-1.1,1.8-0.8,3.2c0.2,0.7,0.4,1.3,0.7,1.9c0.5,1.3,1,2.5,0.9,4.5c0,0.6,0,1.3,0,2c0,2.3,0.1,4.8-1.1,6.9
		c-0.2,0.5-0.6,1-0.9,1.4c-0.5,0.8-1,1.4-1,2.4l-0.1,1.3c-0.2,3-0.4,5.4,1,8.2c0,0.1,0,0.1,0.1,0.2c0,0,0,0,0.1,0
		c0.7,0.3,1.4,0.5,2,1c1,0.8,1.3,1.2,1.2,2.2c0,0.2,0,0.4,0,0.7c0.3,3.7,0,4.8-3.3,6.2l-0.4,0.1c-3.3,1.3-6.2,2.5-10.2,0.9
		c-2.1-0.8-4.7-1.7-6.5-0.5c-1.3,1.1-3.7,3.5-5.1,5.1c-1.8,2.1-4.4,4.1-7,5.6c-1.7,1-3.8,1.5-5.9,2c-1.2,0.3-2.4,0.5-3.4,0.9
		c-3.1,1.1-3.5,4.5-3.9,8.1c-0.2,1.2-0.3,2.5-0.6,3.6c-0.6,2-1.3,3.4-2.4,4.9c-1.4,1.7-1.5,2.7-1.8,4.5c-0.1,0.4-0.1,0.9-0.2,1.4
		c-0.2,0.7-0.4,1.2-0.7,1.7c-0.3,0.7-0.6,1.2-0.6,1.8c-0.1,0.4,0,0.6,0.2,1c0.1,0.3,0.2,0.7,0.3,1c0.1,0.6,0,1.1,0,1.6
		c0,0.4-0.1,0.8,0,1.2c0.1,0.7,0.4,1.5,0.7,2.3c0.3,0.7,0.6,1.5,0.7,2.3c0.1,1.3-0.2,2.3-0.5,3.2c-0.2,0.7-0.4,1.4-0.4,2.1
		c0,0.5,0.1,1.1,0.2,1.7c0.1,0.6,0.2,1.2,0.3,1.9c2.5-0.6,6.1-0.4,7.6,1.3c1.2,1.4,1,2.8,0.9,3.8c-0.2,1.1-0.2,1.4,1.1,1.9
		c0.6,0.2,1.2,0.5,1.7,0.7c2.2,0.9,3.7,1.5,6,0.6c1.5-0.6,2.8-1.6,4-2.5c0.2-0.2,0.4-0.3,0.5-0.5c0.4-0.4,1-1,2.2-1.2
		c0.8-0.1,1.5,0.1,2.1,0.3c0.4,0.1,0.8,0.2,1.2,0.2c0.9,0,2.3-0.7,3.8-1.8c1.5-1.1,2-2.2,2.6-4c0.1-0.4,0.4-0.9,0.7-1.6
		c0.4-0.8,1.4-2.8,1.2-3.4c-0.1-0.3-0.6-0.8-1-1.2c-1.1-1-2.5-2.4-2-4.3c0.2-1,1.4-1.5,2.5-2c0.5-0.2,1.2-0.6,1.4-0.8
		c0.5-0.5,0.8-1,1.1-1.6c0.2-0.5,0.5-1,0.8-1.4c0.3-0.4,0.9-0.5,1.3-0.2c0.7,0.4,1.1,1,1.4,1.5c0.4,0.6,0.5,0.8,1,0.8
		c0.6,0.1,1.3-0.1,2-0.2c1.1-0.2,2.4-0.5,3.8,0c0.8,0.3,1.3,0.9,1.7,1.3c0.4,0.4,0.8,0.8,1.2,0.9c0.7,0.2,2.1-0.2,3.1-0.4l0.6-0.1
		c0.9-0.2,1.6-0.7,2.3-1.1c0.4-0.3,0.8-0.5,1.3-0.7c1.7-0.8,2.6-0.7,4-0.6l0.8,0.1c1.8,0.2,6.1-0.8,6.7-2.3c0.1-0.2,0.1-0.5-0.1-0.7
		c-0.8,0-1.5-0.4-1.9-1.2c-0.3-0.5-0.1-1.1,0.4-1.3c0.3-0.1,0.6-0.1,0.8,0c0.4-0.2,0.9-0.2,1.2,0.1c0.1,0.1,0.2,0.2,0.3,0.3
		c1.3-0.7,3.1-2.7,3.4-3.5c0.2-0.3,0.2-0.4,0.2-0.7c0.1-0.4,0.1-0.9,0.5-1.5c0.6-0.9,1.7-1.3,2.7-1.6c0.4-0.1,0.7-0.3,1-0.4
		c0.8-0.5,1.5-1.1,2.3-1.8c0.5-0.5,1.1-0.9,1.7-1.4c3.5-2.8,5.3-5,4.3-8.4c-0.2-0.7-0.3-1.5-0.3-2.3c-0.1-1.1-0.2-2.4-0.7-2.7
		c-0.3-0.1-0.4-0.4-0.5-0.6c0-0.1,0-0.3,0-0.4c0-0.3,0.1-0.6,0.3-0.8c0.1-0.1,0.2-0.2,0.3-0.3c0.6-1,1.1-2,1.7-3.3
		c0.2-0.5,0.5-1.1,0.8-1.8c0.6-1.2,1.4-2.8,1.3-3.7c0-0.9-0.1-0.9-1-1c-0.5,0-1.1-0.1-1.7-0.4c-1.9-0.9-2.1-2.5-2.3-3.9
		c-0.1-0.6-0.1-1.2-0.3-1.7c-0.1-0.1-0.2-0.3-0.2-0.4c0,0,0-0.1,0-0.1c-0.2-0.3-0.1-0.7,0-0.9c0,0,0,0,0,0c0-0.6,0.1-1.1,0-1.6
		c-0.1-0.3-0.2-0.3-0.5-0.4c-0.3-0.1-0.8-0.4-1.2-0.9c-1.6-2.1-1.3-5.5-1-8.2c0.1-0.7,0.1-1.3,0.2-1.9c0.1-1.8,0.1-3.8,0-5.5
		c-0.1-1-0.5-1.9-1-2.9c-0.5-1-0.9-2-1.1-3.1c-0.1-1,0.1-1.7,0.2-2.4c0.2-0.8,0.3-1.4,0.1-2.1c-0.1-0.4-0.2-0.7-0.3-0.9
		c-0.2-0.9-0.4-1.4-0.3-2.8c0.1-0.4,0.1-0.7,0.2-0.9c0.2-1.1,0.2-1.3-0.6-2.4c-0.2-0.3-0.5-0.6-0.7-0.9c-0.8-1-1.6-2-1.9-3.6
		c-0.1-0.5-0.2-0.9-0.2-1.2c-0.1-0.8-0.1-0.9-0.9-1.8c-0.3-0.2-0.5-0.4-0.7-0.6c-0.9-0.7-0.9-0.9-1.2-2.3c-0.3-1.7,0.3-3.3,0.8-4.9
		c0.5-1.4,1-2.8,0.6-3.5c-0.6-1.2-4.4-2.3-7-2.6C538.1,142.8,536.4,144.1,534.7,145.3z"/>
	<path fill="#3E4924" d="M607.3,175.9c-0.3,0.5-0.7,1.1-1.2,1.7c-0.9,1-1.5,2-1.6,2.8c-0.1,0.4-0.1,0.7-0.1,1.1c0,0.8,0,1.6-0.7,2.6
		c-0.3,0.7-1,1.2-1.5,1.8c-0.6,0.5-1.1,1-1.3,1.6c-0.2,0.5-0.3,0.9-0.4,1.3c-0.2,0.8-0.5,1.6-1.2,2.5c-0.4,0.6-1,1.2-1.5,1.9
		c-0.5,0.6-1,1.2-1.4,1.8c-0.5,0.7-1,1.2-1.5,1.6c0.3,0.2,0.6,0.5,0.8,0.7c0.2,0.2,0.4,0.3,0.5,0.4c0.4,0.2,0.5,0.6,0.5,1
		c0.2,0,0.4,0,0.6,0c0.2,0,0.4,0,0.6,0.1c1.3,0.2,2.3,0.4,3.1,0c0.5-0.3,1.1-1.1,1.6-1.9c0.5-0.7,1-1.5,1.6-2
		c1.4-1.2,6.8-3.6,9.3-1.9c0.9,0.5,1.8,3,1.6,4.1c-0.3,1.3-1.4,2-2.3,2.7c-0.6,0.4-1.1,0.8-1.4,1.3c0,0.1-0.1,0.3-0.2,0.4
		c-0.1,0.3-0.2,0.6-0.3,0.8c0,0,0,0,0,0.1c0,0,0.1,0,0.1,0c0.4,0.1,0.9,0.2,1.6,0.5c0.9,0.3,2.1,0.9,2.9,1.9
		c1.7-1.2,4.1-2.2,6.2-1.4c1.8,0.8,2.1,2.2,2.1,3.4c0.2-0.4,0.3-0.9,0.4-1.4c0.1-0.7,0.3-1.5,0.8-2.2c-0.1-0.1-0.1-0.2-0.1-0.3
		c-0.1-0.3,0-0.7,0.2-0.9c0.3-0.3,0.6-0.5,1-0.7c-0.3-0.6-0.5-1.2-0.5-1.8c0-0.8,0.2-1.5,0.8-2c1-0.8,2.3-0.2,3.6,0.4
		c0.3,0.1,0.6,0.3,0.9,0.3l0.5,0.1c1.3,0.3,3.9,1,4.9,0.6c0.3-0.1,0.7-0.1,0.9,0.1c0,0,0.1,0.1,0.1,0.1c0.6-0.1,1.2-0.3,1.7-0.5
		c0.3-0.1,0.6-0.2,0.9-0.3c1.4-0.5,2-0.3,2.9,0.1c0.3,0.2,0.6,0.3,1.2,0.5c0.8,0.3,1.7,0.2,2.6,0.2c0.6,0,1.2,0,1.8,0
		c0.5,0.1,0.9,0.2,1.2,0.3c0.6,0.2,0.6,0.2,0.9,0c0.1-0.1,0.3-0.2,0.5-0.2c0-0.2-0.1-0.4-0.3-0.5c-0.3-0.3-0.6-0.4-1-0.6
		c-0.6-0.2-1.5-0.6-2-1.6c0-0.1-0.1-0.3-0.1-0.4v-3c-0.1-0.4,0-1,0.1-1.6c0.1-0.5,0.1-1.2,0-1.5c-0.2-0.3-0.5-0.6-0.8-1
		c-0.6-0.6-1.3-1.3-1.6-2.5c-0.4-1.1-0.3-2.3-0.2-3.3c0.1-1.4,0.1-2.2-0.6-2.9c-0.2-0.2-0.6-0.3-1-0.6c-0.5-0.2-1-0.5-1.5-0.9
		c-0.2-0.2-0.5-0.5-0.8-0.8c-0.3-0.4-0.8-0.9-1.1-1c-0.6-0.3-1.7-0.1-2.6,0l-0.5,0.1c-1.7,0.2-3.1,0-4.6-0.1
		c-1.4-0.1-2.8-0.2-4.2-0.1c-1.6,0.1-3,0.1-4.7-0.3c-0.2,0-0.6,0-1.1,0c-1.1,0-2.2-0.1-2.9-0.4c-0.8-0.3-1.5-1-2.1-1.6
		c-1.3-1.2-1.9-1.7-2.9-1.1c-0.4,0.2-0.9,0.1-1.2-0.2c-0.5,0.1-1.1,0.2-1.8,0.3C608.8,173.5,608.4,174.2,607.3,175.9z"/>
	<path fill="#3E4924" d="M440.4,350.8c-0.3,0.1-0.7,0.1-1,0.1c0.1,0.4,0,0.8-0.3,1c-0.4,0.3-1.1,0.3-1.4-0.2c-0.3-0.4-2.2-0.7-6-0.1
		c-1.8,0.2-1.7,0.4-1.7,1.9c0,0.6,0.1,1.4-0.1,2.2l-0.1,0.7c-0.1,0.3-0.1,0.5-0.1,0.6s0,0.2-0.1,0.4c-0.1,0.3-0.3,0.5-0.6,0.7
		c1,0.3,3,0.4,6.1,0.2c0.6,0,1.1-0.1,1.4-0.1c0.5,0,1.1,0.1,1.7,0.1c1.3,0.1,3.1,0.3,3.9-0.1c1.1-0.5,1.1-1.5,0.8-3.5
		c-0.1-0.8-0.2-1.7-0.2-2.5c0.1-0.7,0.3-1.2,0.4-1.6c0-0.1,0-0.1,0.1-0.2c-0.2,0-0.3,0-0.6,0C441.8,350.5,441.1,350.6,440.4,350.8z"
		/>
	<path fill="#3E4924" d="M462.2,119.6c-0.3,0.1-0.7,0.2-0.8,0.3c0,0,0,0,0,0c0.2,0.1,0.3,0.2,0.5,0.2c0.3,0.1,0.8,0.3,1.2,0.6
		c0.1-0.2,0.2-0.4,0.4-0.6c0.5-0.2,1,0,1.3,0.4c0.8,1.5-0.1,2.3-0.6,2.6c-0.2,0.2-0.4,0.3-0.4,0.5c-0.3,0.4-0.3,0.7-0.4,1.2
		c-0.1,0.3-0.1,0.7-0.2,1.1c-0.3,0.8-0.7,1.4-1.1,2c-0.3,0.5-0.6,1.1-0.9,1.6c-0.3,0.6-0.4,1.2-0.5,1.8c-0.1,0.8-0.3,1.5-0.7,2.3
		c-0.3,0.5-0.7,0.9-1.1,1.3c-0.5,0.4-0.7,0.7-0.7,1c0,0.4,0,0.7,0.1,1c0.1,0.4,0.2,1,0.2,1.7c0,0.5-0.7,2.8-1.1,3.4
		c-0.3,0.7-1,1.1-1.5,1.6c-0.4,0.3-0.8,0.6-1.1,0.9c-0.3,0.5-0.5,1.1-0.7,1.8c-0.3,0.8-0.6,1.7-1.2,2.6c-0.4,0.5-0.8,0.8-1.2,1
		c-0.3,0.2-0.6,0.4-0.7,0.6c-0.3,0.5-0.5,1.2-0.7,2c-0.2,0.7-0.3,1.5-0.7,2.2c-0.7,1.5-1.7,2.7-2.7,3.9c-0.6,0.7-1.1,1.4-1.6,2.1
		c-0.4,0.6-0.8,1.2-1.1,1.9c-1,1.8-2,3.8-4.5,4.7c-0.6,0.3-1.4,0.2-2,0.2c-0.4,0-0.7,0-0.9,0c-0.4,0.2-0.7,0.7-1.2,1.4
		c-0.2,0.3-0.4,0.7-0.7,1c-1.1,1.5-2.5,2.4-3.9,3.3c-1.1,0.7-2.2,1.4-3.1,2.4c-0.3,0.3-0.6,0.8-0.9,1.3c-0.2,0.2-0.3,0.5-0.4,0.7
		c0.3,0,0.5,0.1,0.8,0.2c0.6,0.1,1.3,0.3,1.6,0.3c0.1,0,0.5-0.1,0.8-0.1c0.6-0.1,1.2-0.2,1.8-0.1c1.2,0.2,1.6,0.6,2.1,1
		c0.2,0.2,0.4,0.4,0.8,0.5c0.6,0.3,1.2,0.3,1.9,0.3c0.5,0,1.1,0,1.8,0.1c2.3,0.3,3.7,1.5,4.6,3.7c1.6,3.7,1.2,8.5,0.9,12.8
		c-0.1,1.6-0.2,3.2-0.2,4.7v0.8c0,3.7,0,7-2.8,9.7c0.9,0.7,1.9,1.4,2.5,2.3c0.4,0.6,0.6,1.1,0.8,1.7c0.1,0.3,0.2,0.6,0.3,0.9
		c0.4,0.7,0.7,1,1.2,1.3c0.3,0.2,0.6,0.5,1,0.9c0.9,0.8,1.5,2.1,2.1,3.4c1.3,2.7,1.8,3.2,2.8,2.7c0.5-0.2,1-0.5,1.5-0.7
		c1.7-0.8,3.3-1.6,4.7-0.9c1.1,0.5,1.8,1.5,2.3,3.4c0.1,0.2,0.2,0.5,0.4,0.9c1.6,3.9,2.2,6.1,1.2,7.2c-0.5,0.6-1.1,0.8-1.7,0.8
		c-0.9-0.1-1.4-0.8-1.7-1.3c-0.1-0.1-0.2-0.2-0.2-0.3c-0.3-0.2-0.5-0.4-0.6-0.6c-0.1,0-0.2,0-0.3,0c-0.5,0.1-2.6,1-3,1.3
		c0,0.1,0,0.5,0,0.8c0,0.3,0,0.7,0,1.1c-0.1,1.5-0.6,3-1.3,4.1c-0.3,0.5-0.7,0.7-1,1c-0.1,0.1-0.3,0.2-0.4,0.3
		c0.1,0,0.6,0.2,0.9,0.3c0.9,0.3,2,0.7,2.7,1.7c0.7,1.1,0.9,2.2,1,3c0.2,1.4,0.2,1.7,2,1.7c0.5,0,1,0.4,1,1c0,0.6,0.2,1.2,0.4,1.8
		c0.2,0.6,0.4,1.3,0.4,2.1c1.2,1,1.6,2.4,2,3.7c0.3,1.1,0.6,2,1.3,2.5c0.4,0.3,0.8,0.3,1.5,0.3c0.5,0,1-0.1,1.6,0.1
		c0.6,0.3,1,0.5,1.5,0.8c0.4,0.3,0.8,0.5,1.2,0.7c0-0.2-0.1-0.4-0.1-0.6c-0.1-0.7-0.2-1.3-0.2-2.1c0-1,0.2-1.8,0.5-2.6
		c0.2-0.8,0.5-1.6,0.4-2.4c-0.1-0.5-0.3-1.2-0.6-1.8c-0.3-0.9-0.7-1.8-0.8-2.8c-0.1-0.5,0-1,0-1.5c0-0.4,0.1-0.8,0-1.1
		c0-0.2-0.1-0.4-0.2-0.6c-0.2-0.5-0.4-1.1-0.3-1.9c0-0.9,0.4-1.7,0.8-2.5c0.2-0.4,0.4-0.8,0.5-1.2c0.1-0.4,0.1-0.8,0.2-1.2
		c0.3-2,0.5-3.3,2.2-5.4c0.9-1.2,1.5-2.5,2-4.2c0.2-1,0.4-2.1,0.5-3.3c0.5-3.9,1-8.2,5.3-9.7c1.2-0.4,2.4-0.7,3.6-1
		c2-0.5,3.9-0.9,5.3-1.8c2.4-1.4,4.8-3.3,6.5-5.2c1.4-1.7,3.9-4.2,5.4-5.4c3-2,6.8-0.4,8.5,0.2c3.2,1.3,5.4,0.5,8.7-0.9l0.4-0.1
		c2.3-0.9,2.3-1.1,2.1-4.3c0-0.5,0-0.8,0.1-1.1c0,0,0,0,0,0c-0.1-0.1-0.3-0.2-0.5-0.4c-0.4-0.3-0.9-0.5-1.4-0.7
		c-0.6-0.2-1.3-0.5-1.9-1c-0.4-0.3-0.5-1-0.2-1.4c0.1-0.1,0.2-0.2,0.3-0.3c-1-2.7-0.8-5.1-0.6-7.8l0.1-1.3c0.1-1.6,0.8-2.5,1.4-3.4
		c0.3-0.4,0.5-0.8,0.8-1.2c1-1.7,0.9-3.8,0.9-5.9c0-0.7,0-1.5,0-2.2c0.1-1.5-0.3-2.4-0.8-3.6c-0.2-0.6-0.5-1.3-0.7-2.1
		c-0.5-2.2,0.2-3.4,1-4.7c0.2-0.3,0.4-0.7,0.6-1.1c0.4-0.8,0.8-1.7,1.2-2.6c1.1-2.5,2.2-5.2,4.4-6.8c0.7-0.4,1.3-0.6,1.9-0.9
		c0.6-0.2,1.2-0.4,1.6-0.7c0.9-0.6,1.7-1.5,2.6-2.3c0.6-0.7,1.3-1.3,1.9-1.9c0.5-0.4,0.9-0.7,1.4-1c1.5-1.1,2.7-1.9,3.1-3.6
		c-0.4-0.1-0.6-0.4-0.7-0.9c0-0.4,0.2-0.8,0.6-1c-0.1-0.2-0.2-0.4-0.3-0.5c-0.9-0.9-3.3-0.8-5.4-0.7c-1.5,0.1-2.8,0.2-4,0
		c-2.7-0.4-6.4-0.9-8.8-3.1c-2-1.6-2.6-1.8-5.2-1.2c-1,0.2-1.9,0.4-2.8,0.7c-1.1,0.3-2.2,0.6-3.4,0.8c-0.2,0-0.5,0.1-0.8,0.1
		c-0.6,0.1-1.2,0.1-1.6,0.3c-0.2,0.1-0.4,0.6-0.6,1.1c-0.3,0.6-0.7,1.4-1.4,1.8c-1.3,0.8-2.4,0.2-3.2-0.1c-0.7-0.4-1.1-0.5-1.7-0.2
		c-0.4,0.2-0.9,0.9-1.4,1.6c-0.5,0.7-1,1.3-1.5,1.8c-0.8,0.6-1.6,1.1-2.4,1.5c-0.4,0.3-0.9,0.5-1.3,0.8c-0.4,0.2-0.8,0.2-1.2,0
		c-0.3-0.3-0.5-0.7-0.3-1.1c0.3-0.9,0.1-1.8-0.1-2.7c-0.2-0.9-0.4-1.9-0.2-3c0.3-1.8,1.7-2.6,2.8-3.2c0.8-0.4,1.5-0.9,1.9-1.5
		c0.7-1.4-0.1-2.6-1.5-4.4c-0.2-0.2-0.4-0.5-0.6-0.7c-0.8-0.9-0.9-1.7-1-2.3c-0.1-0.4-0.2-0.8-0.4-1.2c-0.3-0.6-0.5-0.7-0.9-1
		c-0.3-0.2-0.8-0.5-1.2-0.9c-0.6-0.6-1-1.1-1.4-1.6c-0.7-0.9-1.1-1.4-2.6-1.8c-0.4-0.1-0.8-0.1-1.2-0.2c-0.8-0.1-1.6-0.2-2.2-0.5
		c-1-0.4-1.4-1.2-1.8-1.8c-0.1-0.2-0.2-0.5-0.4-0.5c-1.3-1.1-4.1-1.6-6.2-2c-0.7-0.1-1.3-0.3-1.9-0.4c-1.4-0.3-3.1-0.7-4.4-0.6
		c0.1,1.2-0.2,2.7-0.5,4l-0.4,1.5c-0.3,0.8-0.5,1.4-1.4,2.1C463.1,119.3,462.7,119.4,462.2,119.6z"/>
	<path fill="#3E4924" d="M458.8,278.4c0.4-0.3,0.8-0.7,0.9-0.9c0.4-0.5,0.4-1.1,0.5-1.7c0.1-0.7,0.1-1.4,0.6-2.3
		c0.2-0.5,0.8-0.7,1.1-0.8c0.1-0.2,0.2-0.5,0.4-0.8c0.3-0.7,0.5-1.6,1.2-2.1c0.8-0.6,1.6-0.9,2.4-1.1c0.7-0.2,1.3-0.4,1.8-0.8
		c1.2-1.1,1.1-1.4,0.9-2.4c-0.1-0.5-0.3-1.2-0.2-2.1c-0.7-0.2-1.2-0.6-1.7-0.9c-0.3-0.2-0.7-0.4-1-0.6c-0.1,0-0.4,0-0.8,0
		c-0.8,0-1.8,0.1-2.9-0.7c-1.1-0.8-1.6-2.2-2-3.5c-0.4-1.2-0.7-2.4-1.7-3c-0.3-0.2-0.5-0.5-0.4-0.9c0.1-0.6-0.1-1.2-0.3-1.9
		c-0.1-0.4-0.3-0.9-0.3-1.4c-2.6-0.3-2.9-2.1-3.1-3.3c-0.1-0.7-0.2-1.5-0.7-2.2c-0.3-0.4-1.1-0.7-1.7-0.9c-0.8-0.3-1.5-0.5-1.9-1.1
		c-0.9-1.7,0.2-2.6,0.8-3c0.2-0.2,0.4-0.3,0.5-0.5c0.5-0.8,0.8-2,1-3.3c0-0.2,0-0.5,0-0.7c-0.1-0.6-0.1-1.5,0.5-2.2
		c0.4-0.7,3.6-2,4.4-2c0.9-0.1,1.7-0.1,2,0.8c0,0,0,0.1,0.3,0.3c0.3,0.3,0.4,0.5,0.6,0.7c0.1,0.1,0.2,0.2,0.2,0.3c0,0,0,0,0,0
		c0.1-0.4-0.4-2.2-1.6-5.1c-0.2-0.5-0.3-0.8-0.4-1.1c-0.4-1.2-0.8-2-1.2-2.1c-0.7-0.3-1.8,0.3-3.1,0.9c-0.5,0.2-1,0.5-1.6,0.7
		c-3,1.4-4.4-1.6-5.4-3.7c-0.5-1.1-1-2.2-1.7-2.8c-0.4-0.4-0.6-0.6-0.8-0.8c-0.5-0.4-1.1-0.8-1.7-2c-0.2-0.4-0.3-0.8-0.5-1.2
		c-0.1-0.4-0.3-0.9-0.5-1.2c-0.5-0.7-1.5-1.4-2.3-2c-0.3-0.2-0.6-0.4-0.8-0.6c-0.2-0.2-0.4-0.5-0.4-0.8c0-0.3,0.2-0.6,0.4-0.8
		c3.1-2.2,3.1-4.9,3.1-8.9V201c0-1.5,0.1-3.1,0.2-4.8c0.3-4.2,0.6-8.6-0.8-11.9c-0.6-1.6-1.5-2.3-3.1-2.5c-0.6-0.1-1-0.1-1.4-0.1
		c-0.8,0-1.8,0-2.9-0.6c-0.5-0.3-0.8-0.5-1.1-0.8c-0.4-0.3-0.5-0.4-1.2-0.6c-0.3,0-0.7,0-1.1,0.1c-0.4,0.1-0.9,0.2-1.3,0.2
		c-0.5-0.1-1.2-0.2-1.9-0.3c-0.6-0.1-1.5-0.3-1.9-0.4c-0.1,0-0.3,0-0.4,0c-0.3,0.2-0.6,0.3-0.8,0.4c-0.5,0.2-0.9,0.5-1.3,0.8
		c0.9,0.6,2.2,0.9,3.5,1.2c1.1,0.2,2.2,0.5,3.1,0.9c1.5,0.8,2.2,1.4,2.5,2.3c0.2,1-0.3,1.7-0.8,2.4c-0.3,0.4-0.6,0.8-0.7,1.3
		c0.1,0.5,0.2,1,0.2,1.5c0,0.7-0.2,1.2-0.3,1.7c-0.1,0.2-0.1,0.3-0.1,0.5c-0.6,1.8-1.3,2.5-2.1,3.3c-0.3,0.3-0.6,0.6-0.9,0.9
		c-0.8,0.9-1.1,2-1.5,3.3c-0.5,1.9-1.1,4.2-4,4.7c-0.1,0.1-0.3,0.2-0.5,0.2c-0.2,0-0.3,0-0.4-0.1c-0.5,0-0.9,0-1.2-0.1
		c0,0-0.1-0.1-0.1-0.1c-0.7,0.1-1.7,0.4-2.5,1c-1.2,0.8-1.8,1.6-1.8,2.1c0,0.3,0.1,0.9,0.2,1.4c0.2,1,0.6,2.3-0.1,3.7
		c-0.4,0.8-1,1.3-1.6,1.8c-0.4,0.3-0.8,0.6-1,1c-1,1.7-0.2,3.1,1,5.2c1.6,2.6,1.8,5.4,0.8,7.7c-0.6,1.4-1.5,2.5-2.3,3.7
		c-0.9,1.2-1.8,2.4-2.3,3.7c-0.3,0.8-0.4,1.5-0.5,2c-0.4,1.8-0.8,2.8-3.6,4c-2,0.8-2.4,1.9-3.1,3.6c-0.3,0.8-0.6,1.7-1.2,2.6
		c-0.2,0.5-0.5,0.8-0.8,1.1c-0.4,0.5-0.6,0.8-0.8,1.4c-0.2,1-0.3,2.4-0.4,3.7c0,0,0,0,0,0c0.3,0.3,0.4,0.8,0.1,1.2
		c-0.1,0.1-0.2,0.2-0.3,0.3c-0.1,0.3-0.2,0.5-0.5,0.6c0,0.1,0,0.1,0,0.2c-0.5,2.8-1.7,4.9-2.8,7c-0.8,1.5-1.6,2.9-2.2,4.6
		c-0.6,1.7-0.8,3.6-0.9,5.6c-0.1,1.7-0.3,3.5-0.7,5.1c-0.2,0.6-0.3,1-0.5,1.4c-0.5,1.3-0.7,2.1-0.5,3.8c0.3,3.7,0.3,7.2,0,10.7
		c-0.2,3.6-0.1,6.4,0.4,9.1c0.2-0.3,0.5-0.7,0.7-1.1c0.3-0.4,0.5-0.9,0.8-1.3c0-0.1,0-0.2,0-0.3c0.1-0.3,0.4-0.5,0.6-0.6
		c0.2-0.2,0.4-0.4,0.6-0.6c1-0.8,1.8-1.4,2.7-2.1l1.1-0.9c0.2-0.2,0.6-0.3,0.9-0.2c0.3,0.1,0.6,0.3,0.7,0.6c0.5,1.6-0.4,3.7-1.4,5.7
		c-0.7,1.5-1.7,3.6-1.1,4c0.4,0.3,1.6,0.2,2.6,0.2c1.2-0.1,2.4-0.2,3.3,0.2c1.4,0.4,3.3,1.3,4.7,2.3c0.5,0.3,0.9,0.7,1.4,1
		c0.4,0.3,0.9,0.8,1.2,0.8c0-0.1,0.2-0.4,0.4-1.4c0.4-1.8,0.5-2.1,1.7-2.8c0.2-0.1,0.6-0.3,1-0.6c0.2-0.1,0.4-0.2,0.6-0.3
		c0.1-0.1,0.3-0.1,0.4-0.2c0,0-0.1-0.1-0.1-0.2c-0.2-0.3-0.2-0.6,0-1c0.1-0.3,0.4-0.5,0.8-0.5c1.5-0.1,2.5,0.9,3,2.2
		c0.3-0.2,0.5-0.4,0.8-0.7c1.3-1.3,2.4-1.6,4.7,0.4c1.2,1.1,3.2,3.2,3.3,5.1c0,0.2,0,0.4,0,0.5c1.1,0.2,2.3,0.3,3.3,0.3
		c2.6,0.2,5.3,0.4,8.1,1.7c0.3,0.1,0.6,0.3,1,0.5c1.5,0.8,2.1,1,2.7,0.4c0.4-0.3,0.4-0.7,0.3-1.6c-0.1-0.8-0.1-1.8,0.6-2.5
		c1-1.1,3-0.9,5-0.7c0.8,0.1,1.6,0.2,2,0.1c1.5-0.3,3.3-1.3,4.9-2.2c0.7-0.4,1.3-0.7,1.9-1l0.3-0.2c1.6-0.9,2.4-1.4,4.3-1.1
		c0.5,0.1,1,0.3,1.3,0.5c0.3,0.1,0.6,0.3,0.8,0.3c0.3,0,0.5,0,0.6,0c0-0.1,0-0.2,0.1-0.3c0-0.1,0.1-0.1,0.1-0.2
		c0-0.1-0.1-0.3-0.1-0.5c-0.2-0.5-0.3-0.9-0.5-1.3c-0.3-0.8-0.6-1.6-0.6-2.9c-0.1-0.3,0-0.8,0.1-1.2c0-0.2,0.1-0.5,0.1-0.6
		c-0.1-0.5-0.3-0.8-0.5-1.2c-0.3-0.4-0.6-0.8-0.7-1.3c-0.8-2.8,0.4-4.1,1.4-5.3c0.4-0.5,0.9-0.9,1.2-1.5c0.5-0.7,0.5-0.9,0.5-0.9
		c0,0-0.1-0.1-0.2-0.2c-0.3-0.3-0.6-0.8-0.8-1.5c-0.1-1.4,0.5-2.3,1.2-3.1c-1-0.4-2-0.6-3-0.6c-0.2,0-0.5,0-0.9,0.1
		c-1.4,0.1-3.5,0.3-4.3-1.3C455.8,280.9,457.6,279.5,458.8,278.4z"/>
	<path fill="#3E4924" d="M571.3,407.3c-0.7-1.9-0.1-3.3,0.4-4.6c0.3-0.7,0.6-1.4,0.6-2.2c0-0.4,0-0.8,0-1.1
		c-0.3-0.1-0.6-0.4-0.6-0.8c0-0.1,0-0.2,0-0.3c-0.3-0.2-0.7-0.4-1.1-0.7c-0.5-0.3-1.1-0.6-1.7-1c-0.6-0.5-1.2-1.1-1.7-1.7
		c-1-1.2-2.1-2.4-3.4-2.4c-0.2,0-0.3,0-0.4-0.1c-0.9,0.3-1.9,0.2-3,0.2c-0.5,0-1.1-0.1-1.5-0.1c-1.3,0-2.3,0.1-3.2,0.6
		c0,0.1,0,0.2,0,0.4c0,0.4-0.2,0.7-0.6,0.9c-0.4,0.2-0.8,0.4-1.2,0.5c-3,1.2-4.5,2.2-4.3,3.8c0.2,0,0.5,0.1,0.7,0.2
		c1.4,0.8,1.7,3.3,1.8,5.8c0.3,0.1,0.5,0.3,0.7,0.5c0.2,0.3,0.2,0.8,0,1.1c-0.7,1-1.9,1.3-2.9,1.6c-0.1,0-0.2,0.1-0.3,0.1
		c2.5,1.5,2.1,3.5,1.6,5.4l-0.3,1.1c-0.2,0.9-0.4,1.7-0.3,2.4c0,0.2,0.2,0.4,0.3,0.7c0.3,0.5,0.7,1.1,0.6,2
		c-0.2,1.2-1.2,1.9-2.1,2.5c-0.4,0.3-0.9,0.7-1.1,0.9c-0.6,0.9-0.9,2-1.2,3.1c-0.5,1.8-1,3.7-2.5,4.8c-0.3,0.2-0.7,0.3-1,0.1
		c-0.3-0.1-0.6-0.5-0.6-0.8c0-0.2-0.1-0.4-0.5-0.5c-1.2-0.3-3.4,0.7-3.7,1.3c-0.5,0.8-1.1,3.2-0.8,4c0.1,0.2,0.3,0.4,0.5,0.6
		c0.4,0.4,0.9,0.9,1.1,1.6c0.2,0.5-0.1,1.1-0.6,1.2c-0.1,0-0.1,0.1-0.2,0.1c0,0,0,0,0,0c0,0.4,0,0.8-0.1,1.4c-0.1,1-0.3,3,0.2,3.4
		c0,0,0.3,0,0.6,0c0.6,0,1.2,0.1,1.7,0.4c0.4,0.2,0.7,0.6,0.9,1c0.1,0.1,0.2,0.3,0.2,0.3c1.2,0.8,2.7,0.5,4.3,0.3
		c1.6-0.3,3.5-0.6,5.1,0.3c0.7-0.5,1.5-1.3,1-2.4c-0.2-0.5-0.1-1,0.4-1.3c1.2-0.7,2-1.1,2.9-1.9c1.3-1.1,1.8-1.9,2.6-3.1
		c0.2-0.4,0.5-0.8,0.8-1.2c0.5-0.7,1.1-1,1.6-1.3c0.3-0.2,0.5-0.3,0.6-0.4c0.7-0.7,0.8-1.8,0.9-2.9c0.1-0.7,0.2-1.4,0.4-2.1
		c1.1-3.1,3-5.6,4.9-8c1.7-2.2,3.4-4.2,4.4-6.8c0.9-2.3,0.4-3.6-0.3-5.6C571.7,408.4,571.5,407.9,571.3,407.3z"/>
	<path fill="#3E4924" d="M496.1,471.1c-0.1-0.7-1.8-0.6-3.8-0.3c-1.4,0.2-2.6,0.3-3.5,0c-0.6-0.2-1.1-0.6-1.6-0.9
		c-0.2-0.2-0.4-0.3-0.6-0.4c-0.2,0.1-0.4,0.2-0.6,0.2c-0.2,0-0.4-0.1-0.6-0.2c-0.2-0.2-0.3-0.4-0.3-0.6c-0.1,0-0.2-0.1-0.3-0.1
		c-0.1,0-0.3,0.1-0.6,0.3l-0.3,0.2c-0.9,0.4-1.9,0.7-2.9,1c-1.6,0.5-3.2,1-4.4,1.9c-0.4,0.2-0.6,0.4-0.8,0.5
		c-0.6,0.4-1.3,0.9-2.5,0.9c-0.5,0-1-0.3-1.3-0.5c-0.1-0.1-0.4-0.2-0.5-0.2c-0.1,0.1-0.1,0.4-0.2,0.6c-0.1,0.6-0.2,1.4-0.9,2
		c-0.8,0.7-1.6,0.6-2.1,0.5c-0.3,0-0.5,0-0.6,0c-0.7,0.2-1.4,0.3-2,0.5c-1.7,0.5-3.5,1-5.8,0.7c-0.5-0.1-0.9-0.5-0.9-1.1
		c0.1-0.9-0.3-1.7-1.1-2.1c-0.3-0.2-0.4-0.5-0.5-0.8c0-0.3,0.1-0.6,0.4-0.8c0.4-0.3,0.6-0.7,0.5-1.2c-0.1-0.7-0.8-1.5-1.6-1.9
		c-0.2-0.1-0.2,0-0.4,0c-0.5,0.1-1.2,0.1-1.8-0.6c-0.8-0.8-1.4-3.4-1.4-3.7c0.1-0.8,0.5-1.3,0.8-1.6c0.2-0.3,0.4-0.5,0.4-0.7
		c0.2-0.6,0.1-1.2-0.1-2c-0.1-0.4-0.2-0.8-0.2-1.3c-0.1-2,0.3-3.6,1.6-5.3l0.3-0.5c0.2-0.3,0.5-0.7,0.5-0.8c0,0-0.1-0.2-0.8-0.8
		c-0.6-0.5-1.6-0.8-2.5-1.1c-1-0.4-2.1-0.7-3-1.3c-1.3-0.8-3-1.9-3.5-4.5c-0.1-0.4-0.1-0.9-0.1-1.3c0-0.2,0-0.5,0-0.8
		c-0.2,0.1-0.7,0.3-1.1,0.1c0,0-0.1,0-0.1,0c-0.5-0.1-0.9-0.6-0.8-1.2c0.2-0.9,0.7-1.6,1.2-2.3c0.4-0.5,0.7-1,0.9-1.5
		c0.1-0.3,0.1-0.5,0.2-0.6c-0.5-0.1-1.4-0.2-2.1-1c-0.5-0.4-0.5-1.4-0.5-3.5c0-0.2,0-0.5-0.1-0.8c0-0.6-0.1-1.1-0.3-1.5
		c-0.3-0.6-1.1-1.3-1.9-2c-0.5-0.4-0.9-0.8-1.3-1.2c-0.9,0.4-2.1,0.3-3,0.2c-0.5-0.1-1.3-0.1-1.5,0c-0.1,0.1-0.2,0.2-0.3,0.3
		c-0.3,0.3-0.8,0.8-1.6,1.1c-0.6,0.1-1.2,0-1.7,0c-0.2,0-0.5-0.1-0.7-0.1c-0.9,0.1-1.8,0.3-2.7,0.5c-0.8,0.2-1.6,0.3-2.4,0.4
		c-1.1,0.2-2.3,0.1-3.4,0c-1-0.1-2-0.2-2.8,0c-0.1,3.5-0.8,4.4-1.4,4.8c-0.5,0.3-1,0.4-1.6,0.2c-1-0.2-1.4-1.4-1.8-2.6
		c-0.1-0.2-0.2-0.5-0.3-0.8c-0.4,0.4-0.9,0.6-1.4,0.6c0,0-0.1,0-0.1,0c-1,0-1.9-0.7-2.4-1.8c-0.4-0.9-0.4-1.8-0.3-2.5
		c0.1-0.9,0.1-1.2-0.5-1.7c-2.1-2.1-7.3-1.7-10.7-1.4c-0.8,0.1-1.5,0.1-2.1,0.1c-0.4,0-0.8,0-1.2,0.1c-0.9,0.1-1.9,0.1-2.9-0.1
		c-0.6-0.1-1.2-0.4-1.6-0.7c-0.2-0.2-0.5-0.3-0.6-0.3c-0.3-0.1-0.6-0.2-0.7-0.3c-0.1,0-0.3,0.1-0.6,0.2c-0.4,0.1-0.8,0.4-1.2,0.7
		c-0.5,0.3-1.1,0.7-1.7,0.9c-0.5,0.2-1,0.4-1.4,0.5c-1.2,0.4-1.5,0.5-1.7,1.6c-0.1,0.5,0.1,1.1,0.2,1.6l0.1,0.4
		c0.1,0.3,0,0.6-0.2,0.8c-0.1,0.1-0.2,0.2-0.3,0.3c-0.6,0.6-1.7,1-3.2,1.7c-0.7,0.3-1.4,0.5-1.7,0.7c-0.7,0.5-1.1,1.1-1.6,1.8
		c-0.3,0.5-0.7,1-1.2,1.6c-0.5,0.7-1.3,1.2-2,1.6c-0.6,0.3-1.1,0.7-1.4,1.1c-0.3,0.4-0.4,0.9-0.5,1.4c-0.1,0.5-0.2,0.9-0.3,1.4
		c-0.7,1.6-1.8,2.2-2.7,2.7c-0.7,0.3-1.1,0.6-1.3,1c-0.3,0.5-0.1,1.5,0,2.4c0.2,1.4,0.5,3-0.4,4.2c-0.6,0.7-1.1,0.8-1.4,0.9
		c-0.2,0-0.2,0.1-0.3,0.3c0,0.1,0,0.2,0.1,0.4c0.2,0.5,0.5,1.3-0.1,2.3c-0.3,0.7-1.1,1.2-1.8,1.7c-0.3,0.2-0.6,0.5-0.8,0.7
		c-0.2,0.2-0.4,0.6-0.6,1c-0.4,0.6-0.8,1.2-1.3,1.7c-1.3,1.2-2.8,2.2-4.4,3.1c-1.1,0.7-2.2,1.4-3.2,2.1c-1,0.7-1.9,1.5-2.8,2.4
		c0.8,0.1,1.6,0.2,2.4,0.3c1.4,0.2,2.9,0.5,4.3,0.4c1.2-0.1,2.4-0.2,3.5-0.3c3.4-0.3,6.6-0.6,10.4,0.4l1.8,0.5
		c2.8,0.7,5.5,1.4,8.3,2.7c3.3,1.5,6,1.4,9.8,1.2l1,0c0.5,0,0.9,0,1.4,0c2.5-0.1,5.2-0.1,7.5,1.5c1.7,1,2.5,2.8,3.1,4.2
		c0.4,0.8,0.7,1.5,1.1,2.2c1.5,2.3,2.3,3.7,2.6,6.7c0,0.8,0,1.6,0,2.3c-0.1,1.6-0.1,3,0.5,4.2c0.3,0.6,0.8,1.1,1.2,1.7
		c0.8,1,1.7,2,2.1,3.6c0.1,0.7,0.1,1.4,0.1,2c0,1.2,0,1.7,0.7,2c0.5,0.3,2.1,0.2,3.2,0.2c0.8,0,1.5-0.1,2.1,0l1.2,0
		c1.3,0,2.7,0,4,0.2c1,0.2,2.4,0.6,2.8,1.7c0.4,1.2-0.4,2.3-1.4,3.4c-0.2,0.2-0.4,0.4-0.5,0.7c0.5,0,0.9,0,1.4-0.1
		c1.1-0.1,2.3-0.2,3.3,0.3c0.8,0.3,1.2,1,1.5,1.5c0.2,0.3,0.3,0.5,0.5,0.6c-0.1,0,0.3,0,0.5,0c0.4,0,1,0,1.4,0.4c0,0,0,0,0,0
		c0.3-0.1,0.3-0.1,0.4-0.3c0-0.1,0-0.4,0-0.6c-0.1-0.5-0.2-1.2,0.2-1.9c0.7-1.6,2.5-2.3,4-2.8c1.1-0.4,2.2-0.8,2.8-1.5
		c0,0-0.1,0-0.1-0.1c0-0.4,0-1,0.4-1.5c0.7-0.9,1.8-1.4,2.6-1.8l0.3-0.1c0.5-0.3,1.1-0.5,1.6-0.7c0.5-0.2,1-0.4,1.5-0.7
		c1.2-0.6,2.1-1.4,3.2-2.4l0.8-0.8c1-1,2.2-1.9,3.3-2.7c0.6-0.4,1.2-0.9,1.9-1.4c1.4-1.2,2.8-1.2,4.2-1.3c0.7,0,1.5-0.1,2.2-0.3
		c0.6-0.2,0.9-0.7,1.3-1.3c0.5-0.7,1-1.4,2.1-1.8c0.9-0.3,2.5-0.3,4.7-0.1c0.8,0.1,1.5,0.1,1.9,0.1c1.9,0,2.7,1,3.3,1.8
		c0.5,0.6,0.7,0.9,1.5,0.9c0.7,0,1.1-0.7,1.2-0.9c0.2-0.5,0.2-0.8,0.1-1c0,0-0.2-0.1-0.4,0c-0.4,0-0.7-0.1-0.9-0.4
		c-0.2-0.3-0.3-0.7-0.1-1c1.8-4.3,5.7-5.6,9-6.3c1.8-0.2,4.3-0.9,5.2-1.5c-1,0.1-2.7,0.6-3.4,0.8c-0.5,0.1-0.9,0.2-1,0.3
		c-0.3,0-0.6,0-0.8-0.2c-0.2-0.2-0.4-0.5-0.4-0.8c0-0.3,0-0.6,0-0.8c-0.1-1.1-0.2-2.3,1-3.5c0.2-0.3,0.8-0.6,1.5-0.9
		c0.3-0.1,0.7-0.3,0.8-0.4c0.3-0.2,0.5-0.4,0.7-0.5c0.5-0.4,1.1-0.8,1.8-1.1c0.4-0.2,1-0.3,1.6-0.5
		C495.2,472.4,496.2,472,496.1,471.1z"/>
	<path fill="#3E4924" d="M549.4,451.8c-0.3-0.5-0.5-0.9-0.6-1.5c-0.1-1.4,0.6-2.2,1.1-2.7c0.1-0.1,0.1-0.1,0.2-0.2
		c-0.9-0.2-2,0-3.1,0.2c-1.8,0.3-3.9,0.7-5.7-0.5c-0.4-0.2-0.7-0.6-0.9-0.9c-0.1-0.1-0.2-0.3-0.2-0.3c-0.2-0.1-0.6-0.1-0.9-0.1
		c-0.6,0-1.3-0.1-1.8-0.6c-1-0.9-1-2.5-0.9-4c-0.3,0.3-0.6,0.6-0.9,0.9c-0.4,0.3-0.8,0.5-1.2,0.7c-0.6,0.3-1,0.5-1.2,0.9
		c-0.3,0.4-0.3,0.8-0.3,1.5c0,0.6,0.1,1.3-0.3,2.1c-0.3,0.9-0.9,1.5-1.4,2c-0.3,0.3-0.6,0.6-0.8,1c-0.5,0.9-0.5,2-0.5,3.2l0,0.6
		c0.1,3.4-0.9,3.9-3,4.2c-0.5,0.1-1.1,0.2-1.8,0.4c-1.2,0.3-2.3,1.1-3.5,1.8c-2.1,1.3-4.2,2.6-6.8,2.3c-0.8-0.1-1.4-0.3-2-0.6
		c-0.6-0.3-1.2-0.4-1.6-0.4c-0.7,0-1.4,0.2-2.1,0.5c-0.6,0.2-1.1,0.4-1.7,0.5c-0.8,0.2-1.7,0.3-2.5,0.3c-1.2,0.1-2.2,0.2-3.2,0.7
		L501,464c-1.2,0.7-2.1,1.3-3.8,1.7c-1.2,0.2-2.2,0.4-3.3,0.5c-2.3,0.3-4.1,0.5-5.8,1.8c0.1,0.1,0.2,0.1,0.3,0.2
		c0.4,0.3,0.7,0.5,1,0.6c0.5,0.2,1.7,0,2.6-0.1c2.2-0.3,5.6-0.7,6,2.1c0.3,2.6-2.3,3.5-4.2,3.9c0.5,0,1,0,1.5-0.1c1,0,2-0.1,2.9-0.2
		c0.3-0.1,0.7,0.1,0.9,0.3c0.2,0.3,0.3,0.6,0.2,0.9c-0.1,0.3-0.2,0.5-0.3,0.7c0.4-0.2,0.7-0.5,1.1-0.8c1.3-1,2.7-2.1,5-2.1
		c0.5,0,0.9,0.4,1,0.9c0.1,0.6-0.1,1.2-0.4,1.6c1.1,0,2.6-0.2,3.7-0.5c0.4-0.1,0.7-0.4,1.1-0.7c0.5-0.4,1.1-0.9,2-1.1
		c0.7-0.1,1.3,0.1,2,0.4c0.3,0.1,0.8,0.3,1,0.3c0.9,0.1,1.8,0,2.6-0.1c0.3,0,0.6-0.1,0.9-0.1c2.4-0.2,4.7,0,6.9,0.1l0.6,0
		c2.2,0.1,6.5,0.4,8.1-1.1c0.6-0.5,0.6-0.7,0.6-1.4c0-0.4,0-0.9,0.1-1.4c0.2-1.7,1.2-2.8,2.1-3.9l0.4-0.5c0.3-0.4,0.6-1,0.9-1.5
		c0.3-0.6,0.5-1.2,1-1.7c1.4-1.3,2.5-0.7,3.3-0.9c1-0.3,1.8-1,2.7-1.8c0.9-0.8,1.8-1.5,2.9-2c0.7-0.2,1.2-0.3,1.5-0.4
		c0,0.1,0.1,0,0.2-0.5c0.2-0.6-0.1-3.3-0.4-4.3C549.9,452.6,549.6,452.2,549.4,451.8z"/>
	<path fill="#3E4924" d="M620.9,262c-1-0.6-1.8-1.1-2.3-1.5c-0.8-0.6-1.5-1.4-2.1-2.3c-0.8-1-1.5-2-2.4-2.2c-0.5-0.2-0.9-0.1-1.5,0
		c-0.7,0.1-1.4,0.2-2.1-0.1c-0.9-0.3-1.8-1-2.7-1.6c-0.7-0.5-1.4-1-2-1.2c-0.9-0.4-1.9-1-2.8-1.7c-0.5-0.3-0.9-0.6-1.4-0.9
		c0,0,0,0,0,0.1c0.9,0.9,0.8,2.1,0.6,3.3c-0.1,0.9-0.2,1.9,0.2,2.3c0.3,0.3,0.7,0.4,1.3,0.6c0.8,0.2,1.9,0.5,2.5,1.8
		c1.1,2,0.5,5.2,0.1,7.7c-0.1,0.6-0.2,1.2-0.3,1.7c-0.1,0.6-0.1,1.2-0.1,1.7c0,1.3-0.1,2.9-2.1,3.4c-0.8,0.2-1.6-0.1-2.4-0.3
		c-0.4-0.1-1-0.3-1.4-0.3c0.2,1.3,2.1,5.2,2.7,6.5c0.3,0.5,0.5,1,0.6,1.2c0.9,1.8,2.1,2.7,3.4,2.8c0.1,0,0.2,0,0.3,0
		c2.3,0,5.4-2.4,9.2-7.2c0.4-0.4,0.7-0.8,1-1.2c0.7-0.9,1.5-1.9,2.4-2.5c0.4-0.3,0.7-0.5,1-0.6c0.7-0.4,1.2-0.7,1.7-1.4
		c0.2-0.4,0.3-0.7,0.4-0.9c0.3-0.8,0.5-1.3,1.6-2.1c0.2-0.2,0.4-0.3,0.6-0.5c0.2-0.2,0.4-0.3,0.5-0.4c0-0.2,0.1-0.4,0.2-0.6
		C625.2,264.5,622.4,262.9,620.9,262z"/>
	<path fill="#3E4924" d="M652.3,208.9c0.2-0.8,0.5-1.3,0.8-1.7c0.3-0.5,0.5-0.7,0.2-1.5c-0.2-1.1-0.5-1.2-1.9-1.6l-0.4-0.1
		c-0.4-0.1-0.6-0.4-0.7-0.8c-0.1-0.4,0.1-0.8,0.4-1c0.3-0.2,0.3-0.4,0.3-0.5c0,0,0,0,0-0.1c-0.1-0.2-0.2-0.4-0.2-0.6
		c-0.8,0.4-1.5,0.1-2.1-0.1c-0.2-0.1-0.5-0.2-0.7-0.2c-0.5,0-1,0-1.6,0c-1,0-2.1,0.1-3.3-0.3c-0.7-0.2-1.2-0.5-1.5-0.7
		c-0.5-0.3-0.5-0.3-1.3,0c-0.3,0.1-0.6,0.2-0.9,0.3c-0.6,0.2-1.3,0.5-2.1,0.6c-0.1,0.4-0.5,0.8-1,0.8h-1c-0.5,0-0.9-0.4-1-0.8
		c-1.2-0.1-2.5-0.4-3.8-0.7l-0.5-0.1c-0.3-0.1-0.7-0.3-1.1-0.4c-0.4-0.2-1.3-0.5-1.6-0.6c0,0,0,0.2,0,0.3c0,0.6,0.5,1.4,0.8,1.6
		c0.3,0.2,0.5,0.6,0.4,1c-0.1,0.4-0.4,0.7-0.8,0.8c-0.2,0-0.4,0.1-0.6,0.2c0,0.1,0,0.1,0,0.2c0,0.4-0.1,0.7-0.4,0.9
		c-0.5,0.3-0.7,0.9-0.8,1.8c-0.2,1.3-0.6,3-2.8,3.9c-0.3,0.1-0.6,0.1-0.8,0c-0.3-0.1-0.4-0.4-0.5-0.7c-0.1-0.6-0.2-1.1-0.2-1.7
		c-0.1-1.2-0.1-1.6-0.9-2c-1.4-0.5-3.6,0.5-5,1.8c-0.2,0.2-0.6,0.3-0.9,0.2c-0.3-0.1-0.6-0.3-0.7-0.6c-0.4-0.8-1.5-1.6-2.5-1.9
		c-0.6-0.2-0.9-0.3-1.2-0.4c-1-0.2-1.6-0.6-1.8-2.2c0,0,0-0.1,0-0.1c0-0.2,0.1-0.4,0.2-0.6c0.1-0.2,0.2-0.4,0.2-0.7
		c0.1-0.3,0.2-0.6,0.3-0.8v0c0.5-0.8,1.3-1.3,2-1.8c0.7-0.5,1.4-1,1.5-1.5c0-0.3-0.5-1.7-0.8-2c-1.3-0.9-5.6,0.7-6.9,1.8
		c-0.4,0.3-0.8,1-1.2,1.6c-0.7,1-1.4,2.1-2.4,2.5c-1.4,0.8-2.9,0.5-4.4,0.2c-0.3,0-0.5,0-0.6,0c-0.4,0-0.9,0.1-1.5-0.2
		c-0.7-0.3-0.8-1-0.8-1.4c-0.1-0.1-0.2-0.2-0.3-0.3c-0.3-0.2-0.8-0.7-1.1-0.9c-0.8,0.2-0.9,1-0.7,3.1c0.1,0.9,0.2,1.8-0.1,2.4
		c-0.3,0.7-1,1.2-2.2,1.9c-0.4,0.2-1,0.6-1.3,1c0,0,0,0,0,0c0.3,0.1,0.6,0.3,0.8,0.6c0.1,0.3,0.1,0.7-0.2,1c-0.5,0.6-0.1,1.2,1.8,3
		c1,1,2,1.9,2.4,2.9c0.7,2.3-0.5,3.3-1.5,4.1c-0.1,0.1-0.3,0.2-0.4,0.3c0.2,0.1,0.4,0.4,0.5,0.7c0,0.1,0,0.3,0,0.4
		c0.6,0.3,1.3,0.5,2.4,0.6c0,0,0.2,0,0.2,0c1,0.2,3.1,0.6,3.9,0.1c0,0,0-0.1,0.1-0.4c0.1-0.4,0.2-0.9,0.6-1.3
		c1.5-1.5,3.3-1.8,5.1-2.2c1.3-0.2,2.4-0.5,3.4-1.1c0.4-0.3,0.8-0.5,1.2-0.8c1.6-1.1,3.1-2.1,6.1-1.4c0.4,0.1,0.6,0.4,0.7,0.7
		c0.1,0.1,0.5,0.4,0.8,0.5c0.7,0.4,1.9,1.1,1.6,2.4c-0.2,1-1.3,1.1-2.3,1.2c-0.4,0-1,0.1-1.2,0.2c0,0,0.1,0.2,0.5,0.9
		c0.4,0.7,0.9,1.5,0.7,2.5c-0.1,0.7-0.6,1.3-1.1,1.7c1.4,0.5,3.1,1.4,2.8,3.7c0,0.6-0.2,1.1-0.4,1.5c-0.1,0.2-0.2,0.4-0.2,0.5
		c0,0,0.1,0,0.2,0.1c0.7,0.4,1.9-1,2.6-1.8c0.5-0.5,0.9-0.9,1.3-1.2c0.9-0.6,1.6-0.7,2.3-0.8c0.3,0,0.6-0.1,1-0.2
		c0.7-0.2,0.8-0.3,0.9-0.3c-0.1-0.4,0-1,0.5-1.9c1.2-2.2,5-2.9,7.9-3.1c0,0,0,0,0,0c0.6,0,0.9,0.1,1.2,0.2c0.1,0,0.3,0,0.8-0.2
		c0.3-0.2,0.6-0.4,0.9-0.7c0.6-0.5,1.3-1,2.2-1.2c0.6-0.2,1.3-0.2,1.9-0.1c0.6,0,1,0.1,1.3-0.1c0.5-0.2,0.5-0.3,0.5-0.4
		c-0.1-0.4-0.1-1,0.3-1.7c1-1.8,3.7-2.4,5.7-2c1.1,0.2,2,0.9,2.7,1.5c0.1,0.1,0.3,0.3,0.4,0.4c0.1-0.1,0.3-0.1,0.5,0
		c0.1-0.6,0.3-1.2,0.5-1.6c0.2-0.4,0.3-0.8,0.3-1c0-0.3-0.2-0.6-0.4-1.1C652.5,211,652,210.2,652.3,208.9z"/>
	<path fill="#3E4924" d="M650.2,216.6c-0.6-0.5-1.1-1-1.7-1.1c-1.5-0.2-3.2,0.3-3.6,1.1c-0.1,0.2-0.1,0.3-0.1,0.5
		c0.1,0.9-0.2,1.6-1.5,2.3c-0.8,0.5-1.7,0.4-2.4,0.4c-0.4,0-0.9-0.1-1.2,0.1c-0.6,0.1-1,0.5-1.5,0.9c-0.4,0.3-0.8,0.6-1.3,0.9
		c-1.1,0.5-1.6,0.5-2.2,0.3c-0.2,0-0.3-0.1-0.6-0.1c-3.2,0.2-5.6,1-6.2,2c-0.3,0.6-0.3,0.9-0.4,1.2c-0.1,1.2-0.8,1.6-2.2,2
		c-0.5,0.2-0.9,0.2-1.3,0.3c-0.5,0.1-1,0.1-1.5,0.5c-0.2,0.1-0.6,0.5-0.9,0.9c-1,1-2.3,2.5-3.8,2.5c-0.4,0-0.7-0.1-1.1-0.3
		c-1.9-0.9-1.3-2.4-1-3.1c0.1-0.3,0.3-0.6,0.3-1c0.1-0.8-0.3-1.2-1.6-1.6c-0.1,0.2-0.4,0.4-0.6,0.5c-0.1,0-0.2,0-0.3,0
		c-0.4,0-0.8-0.3-1-0.8c0-0.1,0-0.3-0.1-0.4c-0.2-0.1-0.3-0.2-0.4-0.4c-0.1-0.3-0.1-0.7,0-0.9c0.2-0.4,0.6-0.6,1-0.6
		c0.2-0.3,0.4-0.5,0.6-0.7c0.2-0.2,0.5-0.5,0.5-0.6c0.1-0.4-0.2-0.8-0.4-1.2c-0.4-0.7-1.1-1.8-0.3-3.1c0.5-0.8,1.5-0.9,2.4-1
		c-0.5-0.3-1-0.6-1.3-1.1c-1.9-0.4-2.7,0.2-4.1,1.2c-0.4,0.3-0.8,0.5-1.3,0.8c-1.3,0.8-2.7,1-4.1,1.3c-1.6,0.3-3.1,0.6-4.1,1.6
		c0,0-0.1,0.2-0.1,0.4c-0.1,0.4-0.3,1-0.9,1.5c-1.5,1-3.9,0.5-5.4,0.2c-2.1-0.2-3.2-0.7-4.3-1.7c0,0-0.1,0-0.1,0
		c-0.9,0.1-1.6,0.1-2.3,0.6c-0.4,0.3-0.6,0.9-0.8,1.5c-0.3,0.8-0.6,1.7-1.4,2.3c-0.2,0.1-0.3,0.1-0.5,0.1c-0.3,0-0.6-0.1-0.8-0.3
		c-0.4-0.5-0.7-1.1-1-1.7c-0.3-0.6-0.5-1.2-0.9-1.5c-0.4-0.3-0.6-0.3-1-0.4c-0.7-0.1-1.7-0.2-2.6-1.4c-0.3-0.4-0.6-0.8-0.8-1.2
		c-1.4-2-1.8-2.6-4.8-3c-1.8-0.4-3.1-0.4-5-0.1c-0.6,0.1-1.2,0.3-1.9,0.5c-1,0.3-2.1,0.7-3.1,0.7c-1.4-0.1-2.3-0.5-2.9-0.8
		c-0.8-0.4-1.1-0.5-1.9,0.2c0.7,0.9,0.8,2.3,0.9,3.6c0,0.7,0.1,1.4,0.2,1.9c1.5,4.9-1.8,8-5,10.6c-0.6,0.4-1.1,0.9-1.6,1.3
		c-0.8,0.7-1.6,1.4-2.7,2c-0.4,0.2-0.9,0.4-1.3,0.5c-0.1,0-0.3,0.1-0.4,0.1c0,0,0,0,0,0c2.5,0.2,5.4,0.5,6.6,1.6
		c1.4,1.2,1.3,2.4,1.3,3.5c0,0.3,0,0.7,0,1.2c0,0.3,0,0.5-0.1,0.7c0,0.1,0,0.1-0.1,0.2c0.1,0.1,0.2,0.1,0.3,0.2
		c0.3,0.2,0.8,0.4,1.2,0.9c0.8,1.4,0.3,2.5-0.3,3.3c1.1,0.1,2.2,0.1,2.9-0.1c0.2-0.1,0.5-0.2,0.7-0.3c0-0.5,0.1-1,0.2-1.6
		c0.6-2.5,2.2-3.8,4.6-3.6c0.7,0.1,1.2,0.3,1.5,0.5c0.1,0,0.2,0.1,0.2,0.1c0,0,0.1,0,0.2-0.1c0.3-0.2,0.7-0.9,1-1.5
		c0.3-0.7,0.7-1.4,1.2-2c1.3-1.3,3.7-2.9,5.2-3.5c2.3-1,7.1-0.6,9.3,0.1c3,0.9,6.3,3,8.9,4.8l1.1,0.7c1.4,0.9,2.5,1.7,3.6,3.1
		c0.5-0.3,1.1-0.5,1.6-0.7c0.9-0.3,1.8-0.6,2.2-1.1c0.3-0.3,0.5-0.7,0.7-1c0.4-0.8,0.8-1.8,2.5-2.2c3.6-0.8,5.5,1.3,7,3.1
		c0.7,0.8,1.4,1.6,2.2,2.1c1,0.7,3,0.6,4.6,0.6c0.7,0,1.4,0,2,0c0.4-0.1,1,0,1.6,0c1.5,0.1,3.3,0.1,4.4-0.2c0.9-0.2,5.1-2.9,5.7-4.7
		c0.1-0.4,0-0.5-0.1-0.6c-0.3-0.2-0.3-0.6-0.2-1c0.1-0.3,0.4-0.6,0.7-0.7c0.3-0.1,0.8-0.2,1.2-0.4c1.2-0.5,2.5-1,3.7-0.7
		c0.5,0.1,0.9,0.3,1.3,0.6c0.4,0.2,0.7,0.4,1.1,0.5c0.8,0.1,1.7,0.1,2.7,0c1.1-0.1,2.2-0.1,3.2,0c0.3,0,0.5,0.1,0.7,0.1
		c0.6-2.4,1.7-4.5,2.8-6.7l0.8-1.5c0.7-1.6,1.6-9.1,1.3-11.5C651.2,217.5,650.7,217,650.2,216.6z"/>
	<path fill="#3E4924" d="M643.2,239.3c-1,0.1-2.1,0.1-3.1,0c-0.8-0.1-1.3-0.4-1.8-0.7c-0.3-0.2-0.5-0.3-0.7-0.3
		c-0.6-0.1-1.8,0.3-2.6,0.6c-0.1,0-0.3,0.1-0.4,0.2c0.1,0.4,0,0.8-0.1,1.3c-0.9,2.7-5.9,5.8-7.2,6.1c-0.8,0.2-1.8,0.2-2.8,0.2
		c-0.7,0-1.4,0-2.1,0c-0.6,0-1.1,0-1.6,0c-0.6,0-1.2,0-1.9,0c-2,0-4.2,0.1-5.7-0.9c-1-0.7-1.8-1.6-2.6-2.5c-1.4-1.7-2.6-3-5-2.4
		c-0.8,0.2-0.9,0.5-1.2,1.1c-0.2,0.5-0.5,1-1,1.6c-0.7,0.8-1.9,1.2-3,1.6c-0.4,0.1-0.8,0.3-1.1,0.5c0.3,0.6,0.7,1.3,1,2.2
		c1.4,0.3,2.7,1.2,3.9,2.1c0.8,0.6,1.6,1.2,2.4,1.5c0.8,0.4,1.6,0.9,2.4,1.5c0.7,0.5,1.5,1.1,2.2,1.3c0.3,0.1,0.8,0.1,1.2,0
		c0.7-0.1,1.4-0.2,2.2,0.1c1.6,0.4,2.6,1.7,3.5,2.9c0.6,0.7,1.1,1.4,1.7,1.9c0.5,0.4,1.3,0.8,2.2,1.4c2.7,1.6,4.9,3,5.6,4.5
		c0.1,0,0.2,0,0.3,0c0.6-0.1,1.3-0.2,1.6-0.4c0.7-0.4,0.7-0.7,0.7-1.5c0-0.7,0-1.8,0.8-2.7c0.5-0.6,1.2-0.9,1.8-1.2
		c0.6-0.2,1.1-0.5,1.4-0.9c0.4-0.6,0.7-1.2,1-1.9c0.5-1,1-2.1,2-3.1c0.6-0.7,1.5-1.4,2.3-2.1c1.5-1.3,3-2.6,3.7-3.9
		c0.3-0.7,0.6-1.6,0.8-2.6c0.5-1.8,1.1-3.8,2.3-5.1c-0.1,0-0.1,0-0.2,0C645.2,239.2,644.2,239.3,643.2,239.3z"/>
	<path fill="#3E4924" d="M430.1,514.3c-0.6-0.3-0.9-0.9-1.2-1.3c-0.2-0.4-0.3-0.6-0.6-0.6c-0.6-0.3-1.5-0.2-2.4-0.2
		c-1.1,0.1-2.5,0.2-3.6-0.4c-0.2-0.1-0.4-0.3-0.5-0.6c-0.1-0.2-0.1-0.5,0.1-0.8c0.4-0.8,0.9-1.5,1.4-2.1c0.4-0.5,1-1.2,1.1-1.5
		c-0.1,0-0.4-0.2-1.3-0.4c-1.2-0.2-2.4-0.1-3.7-0.1c-0.4,0-0.9,0-1.3,0c-0.6,0-1.3,0-2,0c-1.6,0.1-3.2,0.1-4.3-0.4
		c-1.8-1-1.8-2.6-1.7-3.8c0-0.5,0-1-0.1-1.5c-0.3-1.1-0.9-1.9-1.7-2.8c-0.5-0.6-1-1.2-1.4-2c-0.9-1.7-0.9-3.5-0.8-5.3
		c0-0.7,0.1-1.4,0-2.1c-0.2-2.4-0.9-3.6-2.3-5.7c-0.5-0.8-0.9-1.6-1.3-2.5c-0.6-1.4-1.2-2.6-2.4-3.4c-1.8-1.3-4-1.2-6.4-1.2
		c-0.5,0-0.9,0-1.4,0l-0.9,0c-3.8,0.1-6.9,0.2-10.7-1.4c-2.6-1.2-5.2-1.9-7.9-2.6l-1.8-0.5c-3.5-0.9-6.4-0.7-9.8-0.4
		c-1.1,0.1-2.3,0.2-3.6,0.3c-1.6,0.1-3.2-0.2-4.7-0.4c-1.5-0.3-3-0.5-4.4-0.4c-0.1,0.1-0.3,0.1-0.5,0.1c-0.1,0-0.1,0-0.2,0
		c-0.6,0.1-1.2,0.3-1.8,0.7c-0.8,0.5-1.5,1.2-2.3,2c-0.4,0.4-0.8,0.8-1.2,1.1c-0.8,0.7-1.7,1-2.5,1.2c-0.5,0.2-1,0.3-1.4,0.6
		c-1.1,0.6-1.4,1.8-1.7,3.2c-0.3,1.1-0.5,2.2-1.2,3.2c-0.3,0.6-0.9,1.2-1.4,1.7c-0.5,0.5-1,1-1.2,1.5c-0.3,0.6-0.4,1.3-0.5,2.1
		c-0.1,0.9-0.3,1.8-0.7,2.6c-1,2.3-2.4,4.1-3.7,6c1.8,4.6,0.3,9.8-0.9,14.1c0,0.2,0,0.5,0,0.8c0,0.5,0,1.1-0.2,1.7
		c-0.3,1.1-0.9,1.7-1.5,2.4c-0.2,0.2-0.4,0.5-0.6,0.8c-1,1.1-1.2,1.8-0.8,2.5c0.4,0.6,2.2,0.5,3.5,0.5c0.6,0,1.3,0,1.8,0
		c2.6,0.1,3.5,0.6,4.7,3.3c0.1,0.4,0.2,0.7,0.3,1.1c0.1,0.4,0.2,1,0.4,1.2c0.3,0.5,0.5,0.7,0.9,1c0.5,0.4,1,0.8,1.4,1.5
		c0.2,0.6,0.3,1.3,0.3,2.1c0,0.4,0,0.8,0.1,1.1c0,0.1,0.1,0.2,0.2,0.4c0.2-0.1,0.5-0.2,0.9-0.2c0.2,0,0.4,0,0.8-0.1
		c2.4-0.2,4.2-0.1,5.8,0.3c1.1,0.2,1.5,0.4,2.1,0.7c0.2,0.1,0.5,0.2,0.8,0.4c1.6,0.7,3.2,0.8,4.8,0.9l2.3,0.2
		c3.9,0.4,8,0.8,11.8,2.3c0.7,0.2,1.5,0.3,2.4,0.4c1.2,0.1,2.5,0.2,3.6,0.8c0.7,0.4,1.1,0.8,1.4,1.1c0.3,0.3,0.3,0.4,1.1,0.3
		c2-0.2,2.3-1.3,2.7-3.6c0.1-0.6,0.2-1.1,0.3-1.7c0.1-0.3,0.1-0.5,0.1-0.7c0.2-1.5,1-1.5,2.2-1.7l0.7-0.1c1-0.1,1.8-0.2,2.7-0.3
		l0.9-0.1c1-0.2,1.7-0.7,2.4-1.2c1-0.8,2.2-1.7,4.5-1.5c0.7,0.1,1.3,0.3,2,0.4c0.6,0.2,1.3,0.4,1.8,0.4c0.1-0.3,0.3-0.7,0.8-0.9
		c1.4-0.4,2.5-0.4,3.5-0.3c1.4,0.2,2.6,0.7,3.7,1.2c1.4,0.7,2.8,1.3,4.4,1.1c1.3-0.2,2.5-0.9,3.8-1.6c1.6-0.9,3.2-1.8,5.3-2l0.7,0
		c1.1,0,2.2-0.1,3.1,0.1c0.5-0.9,1.4-1.6,2-2.3c0.6-0.6,1.8-1.6,1.7-2.1c0-0.1-0.2-0.4-0.9-0.7c-0.5-0.2-0.7-0.8-0.5-1.3
		c0.4-1.1,1.7-1.3,2.9-1.5c0.5-0.1,1.1-0.2,1.3-0.3c1-0.5,2.8-1.8,3.5-2.7C431,514.6,430.5,514.6,430.1,514.3z"/>
	<path fill="#3E4924" d="M264.2,382c0.4,0.2,0.8,0.2,1.3,0.3c0.7,0.1,1.7,0.1,2.4,0.9c0.3-0.4,0.7-0.9,1.5-1.1c0,0,0,0,0,0
		c1.4,0,2.4,1.3,3.3,2.4l0.4,0.5c0.2,0.3,0.5,0.6,0.7,0.9c0.6,0.8,1,1.4,2,1.6c0.8,0.2,1.5-0.2,2.6-0.7c0.4-0.2,0.8-0.5,1.3-0.6
		c1.3-0.5,2-1.4,2.8-2.5c0.7-0.9,1.4-1.8,2.6-2.7c2-1.4,3.2-1,5.4-1.1c2.2-0.2,4.2-0.9,4.4-1.4c0.1-0.3,0.2-0.6,0.5-0.7
		c1.7-0.9,4.6,0.4,8,2c0.6,0.3,1.2,0.5,1.6,0.7c2.1,0.7,3.2,1.5,4.8,2.7l0.7,0.5c1.6,1.2,2.3,1.1,4.6,0.8c0.9-0.1,1.8-0.2,2.6-0.2
		c1.3-0.1,2.6-0.1,3.8-0.4c0.1,0,0.3-0.1,0.4-0.2c0.4-0.2,0.8-0.5,1.8-0.5c0.6,0,1.2,0.2,1.8,0.3c0.5,0.1,0.9,0.2,1.3,0.2
		c2.5-0.1,5.6-1.2,9.1-3.5c0.2-0.1,0.5-0.2,0.8-0.1c0.3,0.1,0.5,0.2,0.6,0.5c1.5,2.8,1.8,5.7,0.9,8.7c-0.1,0.4-0.3,0.7-0.4,0.9
		c-0.1,0.3-0.2,0.6-0.3,0.8h0c0,0,0.2,0.1,0.7,0.3c0.6,0.2,1.3,0.2,2.1,0.2c0.8,0,1.7,0,2.5,0.2l1,0.4c1.1,0.4,1.9,0.7,2.3,1
		c1-2.1,1.7-4.7,1.1-6.1c0-0.1-0.1-0.2-0.3-0.3c-0.3-0.3-0.7-0.7-0.8-1.4c-0.2-0.6,0-1.3,0.1-1.8c0.1-0.2,0.1-0.4,0.1-0.6l0-1
		c0-2,0-3.3,0.7-5.6c0.7-2.6,2.4-4,4-5.5c1.2-1,2.3-2,3.1-3.5c1-1.9,2.2-3.3,3.5-4.6c0.6-0.7,1.3-1.4,1.9-2.2
		c0.3-0.4,0.6-0.9,0.8-1.4c0.5-0.9,0.9-1.9,1.8-2.5c1-0.7,2.1-0.8,3-0.9c0.8-0.1,1.6-0.1,2.2-0.6c1-0.8,1.2-1.8,1.4-3
		c0.1-0.7,0.2-1.5,0.5-2.3c1.1-2.7,3.4-7.4,7-9c0.8-0.4,1.6-0.5,2.3-0.6c0.5-0.1,1.1-0.2,1.5-0.4c1.5-0.7,1.7-1.2,1.9-2.6
		c0.1-0.4,0.2-0.9,0.3-1.4c0.3-1.1,0.7-2.1,1.1-3.1c0.6-1.6,1.2-3.1,1.3-4.8l0.1-0.8c0.2-1.8,0.4-3.4,1.1-5.3
		c0.5-1.5,1.1-2.9,1.7-4.3c0.2-0.6,0.5-1.3,0.9-2c0.5-1.1,1-2.1,1.2-3.3c0.2-0.7,0.3-1.4,0.4-2.2c0.2-1,0.4-2.1,0.6-3.1
		c-0.2,0.1-0.5,0.1-0.7,0c-0.3-0.1-0.5-0.4-0.6-0.7c-0.9-3.5-1.1-6.9-0.8-11.5c0.3-3.5,0.3-6.9,0-10.4c-0.2-2.1,0.2-3.2,0.6-4.6
		c0.1-0.4,0.3-0.8,0.4-1.3c0.4-1.5,0.5-3.1,0.7-4.8c0.2-2,0.4-4.2,1-6.1c0.6-1.8,1.5-3.4,2.3-4.9c1-1.8,2-3.5,2.4-5.5
		c-0.5,0.1-1,0.1-1.5,0.1c-1.8,0-3.7-0.4-5.1-0.7l-0.8-0.2c-7.9-1.5-15.4-2.3-22.3-2.3c-5.9,0-11.9-0.4-17.7-0.7
		c-5.2-0.3-10.5-0.6-15.8-0.7c-2.2,0-4.4-0.2-6.6-0.5l-1.9-0.2c-1.7-0.1-3.4-0.2-5.2-0.2c-1.2,0-2.3,0-3.5-0.1
		c-2.8-0.2-5.3-0.4-8.4-0.5c-1-0.1-1.8-0.3-2.6-0.4c-1.1-0.2-2.2-0.5-3.4-0.5c-1.4,0.1-2.9,0-4.3,0c-1.4,0-2.8-0.1-4.2,0
		c-0.5,0-1,0.1-1.5,0.2c-1.5,0.3-3.1,0.6-4.5-0.2c-0.7-0.4-1-0.9-1.3-1.3c-0.3-0.5-0.5-0.7-1.1-0.9c-0.4-0.1-0.8,0-1.1,0
		c-0.9,0-1.9,0.1-2.9-1.1c-0.6-0.6-1-1.4-1.4-2.1c-0.3-0.6-0.6-1.2-1-1.6c-0.7-0.7-1.3-1.2-2.2-1.8c-0.4-0.3-0.8-0.7-1.1-1.1
		c-0.9-1-1.6-1.6-2.3-1.4c-0.4,0.1-0.9-0.1-1.1-0.4c-0.2-0.2-0.4-0.4-0.4-0.7c-0.1-0.9-0.1-1.9-0.1-2.9c0-0.9-0.1-1.9-0.1-2.8
		c0-1.5-0.6-2.9-1.1-4.4l-0.4-1c-0.3-0.8-0.9-1.5-1.5-2.3c-0.8-1-1.6-2.1-2-3.4c-0.3-0.8-0.3-1.7-0.4-2.5c-0.1-1.6-0.3-2.5-0.9-3
		c0,0.1-0.1,0.3-0.2,0.4c-0.1,0.1-0.2,0.2-0.4,0.2c0,0,0,0,0,0.1c-1.4,2.8-2.8,5.4-2.7,8.3c0,0.5,0.1,1.1,0.1,1.7
		c0.2,2.2,0.4,4.6-0.2,6.5c-0.2,0.7-0.4,1.3-0.7,1.8c-0.4,0.8-0.6,1.4-0.4,2.3c0.1,0.4-0.1,0.8-0.4,1.1c-1.9,1.2-4.9,1-7.2,0.9
		c-0.7,0-1.3-0.1-1.8-0.1c-2.9,0.1-5.9,0.1-8.8,0.1c-3.5,0-7.1,0-10.5,0.2l-0.3,0c-5.5,0.4-10.7,0.8-16.2,0.4
		c-0.4,0-1.4,0.1-2.5,0.1c-2.4,0.1-4.3,0.2-5.7,0.2c-0.1,0-0.3,0-0.4,0c0.2,1-0.3,2.2-0.7,3.2c-0.2,0.6-0.5,1.1-0.5,1.5
		c-0.1,0.8,0.1,1.4,0.3,2.2c0.2,0.5,0.3,1.1,0.4,1.7c0.4,2,0.2,3.9-0.1,5.8c-0.5,3.6-0.5,6,0,9.3l0.2,1.3c0.5,3.1,1,6.4,1.2,9.6
		c3.1,0.3,6,0,9.2-0.4c1.2-0.1,2.4-0.3,3.6-0.4c2.2-0.1,3.3,0.8,4.3,1.5c0.6,0.5,1.2,0.9,1.9,1.1c0.3,0.1,0.7,0,1.1-0.1
		c0.4-0.1,0.9-0.2,1.3-0.2c1.9,0,2.3,0.2,3.1,1.5l0.6,1c0.7,1,1.6,2.3,1,4c-0.2,0.6-0.6,0.9-1.1,1.3c-0.3,0.2-0.6,0.5-0.7,0.7
		c-0.5,1.4-0.1,4.9,0.7,6.2c0.2,0.3,0.4,0.6,0.6,0.8c0.5,0.5,1,1,1.2,2.4c0.2,1.4,0.2,2.9,0.2,4.2l0,1.3c-0.1,2.8-1.3,5.6-3.3,8.1
		c-0.4,0.5-0.8,0.9-1.3,1.4c-0.7,0.7-1.4,1.4-1.8,2.3c-0.2,0.4-0.4,0.8-0.5,1.2c-0.3,0.7-0.6,1.5-1.3,2.3c-1.3,1.9-2.7,2.8-4.3,3.7
		c-0.3,0.2-0.6,0.4-0.8,0.5c0.1,0,0.1,0,0.1,0c0.7,0.1,1.6,0.2,2.3,0.7c1,0.7,2.8,3.7,2.6,5.3c-0.1,0.8-0.6,1.3-0.9,1.8
		c-0.3,0.4-0.5,0.7-0.6,1c-0.1,0.7,0,2.5,0.3,3.4c0.2,0.6,0.4,0.8,0.8,1.2c0.3,0.3,0.6,0.6,0.9,1c0.7,1.1,0.8,1.7,1,2.6l0.1,0.6
		c0.1,0.4,0.3,0.9,0.5,1.4c0.7,1.9,1.5,4.3,0.1,5.6c-0.9,0.8-2.1,0.8-3.1,0.7c0,0,0,0,0,0c0.4,0.7,0.7,1.1,1.1,1.6
		c0.5,0.6,1,1.2,1.4,2.1c0.2,0.4,0.3,0.7,0.4,1c0.5,1.1,1,2.1,1.1,3.6c0.1,1,0.2,2.1,0.2,3.1c0,2.4,0.1,4.3,1.8,6.1
		c2.2,2.2,4.6,1.6,7.5,0.8c1-0.3,2-0.6,3.1-0.7c1.9-0.3,3.5,0.1,5,0.5c0.9,0.2,1.7,0.4,2.6,0.5c1.9,0.2,3.9,0,5.8-0.2
		c0.5-0.1,1-0.1,1.6-0.2c1.8-0.1,3.7-0.1,4.5,1.2c0.5,0.8,0.4,1.8-0.3,3c-0.5,0.7-1.1,1-1.7,1.2c-0.2,0.1-0.5,0.2-0.5,0.3
		c-0.4,0.6-0.2,1.7-0.1,2.6l0,0.3c0,0.4,0.1,0.9,0.1,1.4c0.2,1.8,0.4,4.6,1.4,5.6c0.2,0.2,0.5,0.4,0.9,0.5c0.5,0.2,1,0.5,1.5,0.9
		c0.5,0.4,0.8,1,1.1,1.6C263.6,381.4,263.9,381.9,264.2,382z"/>
	<path fill="#3E4924" d="M274.9,464.1c0.9,0.4,2.3,0,3.7-0.4c1.4-0.4,2.8-0.8,4-0.7l0.5,0.1c4.9,0.6,5.7,0,5.8-0.1
		c0,0,0-0.1-0.1-0.2c-0.1-0.2-0.1-0.5,0-0.8c0.1-0.3,0.3-0.4,0.5-0.5c1.7-0.7,3.1,0.4,4.2,1.3c0.5,0.4,1.1,0.8,1.4,0.9
		c0.5,0.1,1.2,0.1,1.9,0.1c1.8,0,3.7,0,5.1,1.6c0.5,0.5,0.7,1.2,1,1.8c0.2,0.5,0.4,1,0.6,1.3l0.5,0.7c1.3,1.9,2.5,3.6,2.4,6.2l0,0.9
		c-0.1,2.1-0.2,3.4,0.6,5.3c0.2,0.5,0.4,0.9,0.7,1.4c0.7,1.4,1.4,2.7,1.4,4.7c0,0.4-0.1,0.9-0.1,1.4c-0.1,1.3-0.3,2.7,0.5,3.4
		c0.5,0.3,1.9,0.3,2.8,0.2c0.3,0,0.6,0,0.8,0c0.1,0,0.1,0,0.1-0.1c0.6-0.3,1.4-0.6,1.9-1.1c2.2-1.8,3-1.8,6-1.3
		c2.5,0.6,5.1,1.5,6.6,3.8c1.1-1.4,2-2.9,2.7-4.5c0.3-0.6,0.4-1.3,0.5-2.1c0.1-0.9,0.3-1.8,0.7-2.6c0.3-0.7,1-1.4,1.6-2
		c0.5-0.5,0.9-0.9,1.2-1.4c0.5-0.7,0.7-1.6,0.9-2.6c0.4-1.6,0.8-3.5,2.7-4.5c0.6-0.4,1.3-0.6,1.8-0.7c0.7-0.2,1.2-0.4,1.7-0.8
		c0.4-0.3,0.7-0.7,1.1-1c0.8-0.8,1.6-1.6,2.7-2.3c0.9-0.5,1.8-0.8,2.7-1c0.4-0.4,0.9-0.8,1.3-1.2c1.1-1,2.3-2,3.4-2.8
		c1-0.8,2.2-1.5,3.4-2.2c1.5-0.9,2.9-1.8,4-2.8c0.3-0.4,0.7-0.9,1-1.4c0.3-0.5,0.6-0.9,0.9-1.2c0.3-0.3,0.7-0.6,1.1-0.9
		c0.4-0.3,1.1-0.8,1.2-1.1c0.1-0.3,0.1-0.3,0-0.6c-0.2-0.4-0.4-1-0.2-1.7c0.4-1.2,1-1.5,1.5-1.7c0.2-0.1,0.3-0.1,0.5-0.3
		c0.4-0.5,0.2-1.6,0-2.7c-0.2-1.3-0.4-2.6,0.3-3.8c0.5-0.9,1.4-1.3,2.1-1.7c0.8-0.4,1.4-0.7,1.8-1.6c0.1-0.3,0.2-0.7,0.2-1
		c0.1-0.7,0.3-1.4,0.8-2.1c0.5-0.8,1.3-1.3,2-1.7c0.6-0.3,1.1-0.7,1.4-1.1c0.5-0.6,0.8-1,1.1-1.4c0.5-0.8,1-1.6,2.1-2.4
		c0.5-0.3,1.2-0.6,2.1-0.9c0.7-0.3,2-0.8,2.5-1.1c-0.1-0.3-0.1-0.5-0.1-0.8c-0.3-0.2-0.5-0.6-0.4-0.9c0.1-0.8,0-1.7-0.1-2.6
		c-0.1-1-0.3-2-0.1-3c0.1-0.9,0.6-1.7,1.1-2.2c0.2-0.3,0.4-0.5,0.5-0.8c-0.4-0.1-0.7-0.3-0.8-0.7c-0.1-0.3,0-0.6,0.2-0.9
		c-0.3-0.5-0.6-1-0.7-1.1c-0.6-0.6-2.5-1-3.9-1.3c-1.1-0.2-2.2-0.5-2.9-0.8c-0.9-0.4-1.7-0.9-2.5-1.3c-1.1-0.6-2.1-1.3-3.3-1.6
		l-1.3-0.4c-2.1-0.6-3.7-1.1-5.8-2.7l-0.6-0.5c-1.4-1.1-2.8-2.1-4.3-2.8c-0.7-0.3-1.4-0.4-2.2-0.6c-1.3-0.3-2.7-0.6-3.9-1.5
		c-0.3-0.3-0.5-0.7-0.3-1.1c0.2-0.6,0.5-1.1,0.8-1.4c0.1-0.2,0.2-0.3,0.3-0.4c0,0-0.1-0.2-0.1-0.3c-0.2-0.6-2.1-1.2-2.8-1.5
		l-0.6-0.2c-1.5-0.5-2-1.1-2.4-1.7c-0.1-0.1-0.2-0.2-0.3-0.3c0,0-0.1-0.1-0.1-0.1c-0.1-0.1-0.3-0.3-0.5-0.4
		c-0.2-0.2-1.5-0.7-2.1-0.9l-0.9-0.4c-0.4-0.1-1.1-0.1-1.9-0.1c-0.9,0-1.9,0-2.9-0.3c-0.7-0.3-1.5-0.7-1.8-1.4
		c-0.3-0.8,0-1.5,0.3-2.3c0.1-0.2,0.2-0.5,0.3-0.8c0.6-2.1,0.5-4.2-0.3-6.2c-3.5,2-6.5,3.1-9.2,3.2c-0.7,0-1.2-0.1-1.8-0.3
		c-0.5-0.1-0.9-0.2-1.3-0.2c-0.4,0-0.5,0.1-0.8,0.2c-0.2,0.1-0.5,0.3-0.8,0.4c-1.4,0.4-2.9,0.4-4.2,0.5c-0.8,0-1.6,0.1-2.4,0.2
		c-2.5,0.3-3.9,0.4-6.1-1.2l-0.7-0.5c-1.5-1.1-2.4-1.8-4.3-2.4c-0.5-0.2-1.1-0.5-1.7-0.8c-1.4-0.7-4.4-2.1-5.8-2.1
		c-0.1,0-0.1,0-0.2,0c-1,1.8-4.7,2.3-5.9,2.4c-2.3,0.2-3.1-0.2-4.4,0.7c-0.9,0.7-1.5,1.5-2.2,2.3c-0.9,1.1-1.8,2.3-3.6,3.1
		c-0.4,0.2-0.8,0.4-1.1,0.6c-1.1,0.6-2.4,1.3-4,0.9c-1.7-0.4-2.5-1.5-3.2-2.4c-0.2-0.2-0.4-0.5-0.6-0.7l-0.5-0.6
		c-0.3-0.4-1.1-1.3-1.5-1.6c-0.1,0.1-0.1,0.2-0.2,0.4c-0.2,0.3-0.4,0.7-0.8,1c0.2,0.5,0.3,1,0.3,1.5l0.1,0.4
		c0.2,1.4,0.3,1.6,1.1,2.9c0.5,0.7,0.9,1.8,1.2,3.1c0.3,1.1,0.8,2.8,1.4,3c0.3,0.1,0.5,0.4,0.6,0.7c0.1,0.3,0,0.6-0.2,0.9
		c-0.4,0.5-0.9,0.8-1.3,1.1c-0.5,0.3-0.7,0.5-0.9,0.8c-0.2,0.4-0.3,1-0.4,1.6c-0.1,0.7-0.3,1.4-0.6,2.1c-0.9,1.9-0.8,2.5-0.4,4.6
		l0.1,0.3c0.3,1.6,0.6,3.5-1,5c-0.6,0.5-1.2,0.7-1.8,0.9c-0.4,0.1-0.8,0.3-1.1,0.5c-0.5,0.5-0.6,1.5-0.8,2.5
		c-0.1,0.6-0.2,1.2-0.4,1.8c-0.1,0.3-0.2,0.7-0.4,1.1c-0.6,1.5-0.9,2.5-0.3,3.4c0.1,0.1,0.3,0.2,0.6,0.2c0.7,0.3,1.8,0.7,2,2.2
		c0.1,1.6-1,2.5-1.8,3.2c-0.2,0.2-0.5,0.4-0.7,0.6c-0.8,1-0.6,1.7,0.2,3.2c0.4,0.8,0.9,1.8,1.1,3c0.1,0.3,0.1,0.7,0.2,1.1
		c0.1,1.1,0.3,2.5,0.9,3.1c0.2,0.2,0.4,0.3,0.7,0.4c0.5,0.2,1.2,0.6,1.6,1.5c0.2,0.4,0.4,1.2,0.4,3.5c0,1.5,0,2-0.9,2.7
		c-0.2,0.2-0.5,0.4-0.9,0.8c-0.9,1.1-0.7,2.3-0.4,4.3c0.2,0.8,0.3,1.7,0.4,2.6c0,0.4-0.1,0.9-0.1,1.4c-0.1,0.9-0.2,2.2,0.1,2.6
		c0.2,0.1,1.7,0.5,2.3,0.7c0.5,0.1,0.9,0.2,1.1,0.3c0.5,0.2,0.8,0.4,1.2,0.5c0.7,0.3,1.4,0.6,2,1c0.4,0.3,0.6,0.6,0.8,0.9
		C274.6,463.7,274.8,464.1,274.9,464.1z"/>
	<path fill="#3E4924" d="M117.1,256.5c-0.5-0.1-1.6-0.3-2.3-0.3c-0.1,0-0.3,0-0.4-0.1c-0.1,0-0.2,0.1-0.4,0.1c0,0,0,0-0.1,0
		c0,0,0,0-0.1,0c-0.1,0-0.2,0-0.3,0c-1.3-0.4-2.4-1.4-3.4-2.4c-0.6-0.6-1.2-1.2-1.8-1.6c-1.6-1.1-3.5-1.8-5.4-2.4
		c-1.5-0.5-3-1-4.4-1.8c-5.3-2.6-10.8-5.1-16.1-7.4c-6-2.7-12.1-5.4-18-8.4c-1.6-0.8-3.2-1.6-4.7-2.4c-4-2.2-7.7-4.2-12.4-4.8
		c-3.5-0.5-7-1.3-10.4-2c-2.9-0.6-5.9-1.3-8.8-1.8c-2.9-0.5-5.7-1.4-8.5-2.3c-2.5-0.8-4.8-1.6-7.3-2.1c-2-0.4-3.7-1.3-5.3-2.2
		c-1.1-0.6-2.3-1.2-3.4-1.7c0.1,0.4,0.1,0.8,0,1.2c0,0.4-0.4,0.8-0.8,0.8c-0.4,0.1-0.9,0.2-1.3,0.2c-0.6,0.1-1.4,0.2-1.5,0.4
		c0,0-0.2,0.3,0.2,1.3c0.3,0.8,1,1.6,1.7,2.4c0.8,0.9,1.7,2,2.2,3.3c0.1,0.3,0.1,0.7-0.1,0.9c-0.1,0.2-0.4,0.4-0.6,0.4
		c0,0.1-0.1,0.1-0.1,0.2c-0.1,0.2-0.3,0.6-0.3,0.9c0.1,0,0.2,0,0.3,0c0.5,0,1.1,0,1.6,0.3c0.9,0.4,1.2,1.2,1.5,1.8l0.2,0.4
		c0.4,0.8,0.6,1.7,0.8,2.4c0.2,0.8,0.4,1.6,0.9,2.2c1.2,1.7,2.6,3.4,4,5c0.8,1,1.7,1.9,2.4,2.9c2.1,2.5,0.3,4.3-0.8,5.4
		c-0.5,0.5-1,1-1,1.3c0,0.1,0,0.2,0.3,0.5c3-1.5,8,0.1,10.3,2.2c1.3,1.1,2.5,2.3,3.3,3.7c0.5,0.9,0.7,1.7,0.8,2.4
		c0.3,1.1,0.4,1.6,1.1,2c0.3,0.2,1,0.2,1.6,0.1c0.8,0,1.5,0,2.2,0.2c0.5,0.1,1.1,0.3,1.6,0.6c0.2,0.1,0.5,0.2,0.7,0.3
		c1.8,0.4,5.4-0.6,7.6-1.2l0.3-0.1c1.6-0.4,2.7-1.6,4-2.9c0.6-0.6,1.1-1.2,1.7-1.7l0.9-0.8c1.7-1.5,3.6-3.2,5.6-4.2
		c0.4-0.2,0.8-0.2,1.1,0.1c0.3,0.3,0.4,0.7,0.3,1c-1.3,4.5-2.1,9.3-2.5,14.9l0,0.6c-0.3,2.9-0.6,7.3,0.4,9.9c0,0.1,0.1,0.2,0.1,0.4
		c0.2,0.2,0.4,0.3,0.5,0.5c0.4,0.4,0.7,0.7,1,0.7c0.4,0,1.2-0.4,1.9-0.8c0.7-0.4,1.3-0.7,1.9-0.9c0.8-0.2,1.5-0.3,2.3-0.3
		c0.7-0.1,1.4-0.1,2.1-0.3c1.8-0.4,2.9-0.3,4.2-0.2c0.5,0,1,0.1,1.6,0.1c2.6,0.3,4.4-0.1,6.9,0.6c0.7,0.2,1.4,0.5,2.1,0.8
		c1.8,0.7,3.6,1.4,5.4,1.5c1.8,0,4.9-2.4,5.9-3.1c0.6-0.4,1.1-1.3,1.5-2.1c0.9-1.6,2.2-3.8,4.9-3.2c0.8,0.1,1.4,0.5,2,0.8
		c1.2,0.7,1.5,0.8,2.4-0.4c0.4-0.5,0.5-0.9,0.6-1.3c0.2-0.7,0.5-1.6,1.5-2.4c1-0.7,2.2-1.1,3.4-1.4c1-0.3,2-0.6,2.9-1.1
		c0.8-0.4,1.5-1.1,2.2-1.7c0.8-0.8,1.7-1.5,2.8-2.1c0.6-0.3,1.2-0.5,1.7-0.6c0.5-0.1,0.9-0.3,1.2-0.4c-0.1-0.2-0.1-0.5-0.1-0.7
		C117.1,256.7,117.1,256.6,117.1,256.5z"/>
	<path fill="#3E4924" d="M224.3,313.4c0.5-0.7,0.8-1.2,1-1.9c0.2-0.4,0.3-0.8,0.6-1.3c0.6-1.1,1.4-2,2.2-2.8
		c0.4-0.4,0.8-0.8,1.1-1.2c1.8-2.2,2.8-4.5,2.9-6.9l0-1.3c0-1.3,0-2.6-0.1-3.9c-0.1-0.7-0.3-1-0.7-1.3c-0.3-0.3-0.6-0.6-0.9-1.1
		c-1.1-1.9-1.6-5.9-0.8-8c0.3-0.7,0.8-1.1,1.2-1.4c0.2-0.2,0.5-0.4,0.5-0.5c0.2-0.7-0.1-1.3-0.8-2.2l-0.7-1
		c-0.1-0.2-0.2-0.4-0.3-0.5c-0.1,0-0.8,0-1.1,0c-0.3,0-0.6,0.1-0.9,0.1c-0.6,0.1-1.4,0.3-2.1,0.1c-1.1-0.3-1.8-0.9-2.5-1.4
		c-0.9-0.7-1.7-1.2-3-1.1c-1.1,0.1-2.3,0.2-3.5,0.4c-3.1,0.4-6.2,0.8-9.5,0.4c-0.1,0.4-0.5,0.6-0.9,0.6c-0.6,0-1-0.4-1-1
		c0-3.6-0.6-7.3-1.2-10.9l-0.2-1.3c-0.5-3.5-0.5-6,0-9.7c0.3-2,0.5-3.6,0.1-5.3c-0.1-0.5-0.2-1-0.4-1.5c-0.3-0.9-0.6-1.9-0.4-3
		c0-0.5,0.3-1.3,0.6-2c0.3-0.7,0.8-1.8,0.6-2.1c-0.1-0.1-0.3-0.2-0.6-0.3c-0.3-0.1-0.5-0.2-0.6-0.4c-0.2-0.1-0.4-0.2-0.6-0.4
		c0,0,0,0,0,0c-0.5-0.2-1-0.3-1.4-0.3c-0.6,0-0.9,0-1,0c0,0,0,0.1,0,0.1c-0.1,0.5-0.3,1.1-1,1.9c-0.3,0.4-0.9,0.5-1.3,0.2
		c-0.8-0.6-1.4-1.4-2-2.1c-0.5-0.7-1.1-1.4-1.7-1.9c-0.6-0.4-1.3-0.8-1.9-1.1c-1.3-0.6-2.6-1.3-3.7-2.9c-0.3-0.5-0.4-0.8-0.5-1.1
		c0,0-0.1-0.1-0.4-0.2c-0.2-0.1-0.7-0.1-1-0.1c-0.6,0-1.2,0-1.8-0.3c-1.1-0.7-1.4-1.5-1.6-2.2c-0.1-0.4-0.2-0.8-0.5-1.1
		c-0.2-0.2-0.5-0.3-0.8-0.5c-0.4-0.2-0.8-0.4-1.2-0.8c-0.3-0.2-0.5-0.5-0.8-0.7c-0.3-0.3-0.4-0.4-0.8-0.5c-0.6-0.2-1.5,0-2.2,0.1
		c-0.6,0.1-1.2,0.2-1.6,0.2c-0.3,0-0.8,0-1.3,0c-0.4,0-1,0-1.3,0c0,0.4-0.1,0.8-0.5,1.2c-0.4,0.4-0.9,0.7-1.3,0.9
		c-0.7,0.4-1.3,0.8-1.6,1.3c-0.3,0.4-0.5,0.7-0.7,1.1c-0.3,0.5-0.5,1.1-1.2,1.6c-0.5,0.4-0.9,0.6-1.2,0.8c-0.4,0.2-0.7,0.3-1.1,0.8
		c-0.3,0.3-0.6,0.7-1,1.1c-0.5,0.5-1,1-1.3,1.4c-0.2,0.4-0.3,0.8-0.4,1.3c-0.2,0.8-0.3,1.6-1.1,2.4c-0.6,0.7-1.6,1-2.4,1.3l-0.3,0.1
		c-1.1,0.5-2.4,0.7-3.9,0.9c-1.9,0.3-4,0.6-5,1.7c-0.6,0.5-0.9,1.2-1.3,2c-0.4,0.8-0.8,1.6-1.4,2.3c-0.7,0.7-2.7,2.3-4.3,1.6
		c-0.4-0.2-0.8-0.5-1-1.2c-0.3,0.2-0.6,0.5-0.9,0.8c-0.5,0.6-1.2,1.2-2.2,1.6c-0.8,0.3-1.6,0.3-2.3,0.2c-1-0.1-1.3,0-1.7,0.6
		c-0.2,0.4-0.6,0.6-1.1,0.5c-1.2-0.3-1.9-0.9-2.5-1.5c-0.6-0.6-1.1-1-2-1.1c-2.2-0.2-3.9,0.3-5.9,1.7c-0.2,0.2-0.5,0.3-0.9,0.4
		c0,0.3,0.1,0.8-0.3,1.1c-0.2,0.2-0.2,0.3-0.3,0.4c-0.4,0.9-1,1-2.1,1.1c-0.6,0.1-1.1,0.1-1.6,0.1c-0.5,0-0.9,0-1.4,0.1
		c0.8,0.1,1.6,0.2,2.1,0.6c0.4,0.3,0.6,0.6,0.7,1c0.1,0,0.2,0,0.3,0c0.1,0,0.2,0.1,0.3,0.2c0.3,0,0.6-0.1,0.9-0.1
		c0.3-0.1,0.8,0,1.3,0.1c0.2,0,0.5,0,0.6,0.1c0,0,0.1-0.2,0.3-0.5c0.2-0.3,0.3-0.6,0.7-0.8c1.2-0.7,2.7-0.7,4.1-0.8
		c0.9,0,1.8-0.1,2.5-0.2c0.3-0.1,0.6-0.2,0.9-0.2c0.9-0.3,1.9-0.5,3-0.4c0.6,0.1,1,0.3,1.3,0.5c0.3,0.2,0.5,0.3,0.6,0.3
		c-0.1,0,0.1-0.1,0.3-0.2c0.3-0.2,0.7-0.4,1.3-0.4c-0.1,0,0,0,0.2-0.1c0.8-0.3,2.3-0.7,3.3,1.7c0.3,0.8,0.3,1.7,0.3,2.4
		c0,0.7-0.1,1.3,0.1,1.9c0.2,0.5-0.1,0.9-0.5,1.2c0.1,0.6,0.1,1.2,0,1.9c-0.1,0.7-0.4,1.3-0.6,1.7c-0.1,0.3-0.3,0.5-0.3,0.7
		c-0.3,1.6,0.1,4.8,0.7,6.4l0.3,0.9c0.4,1.2,0.9,2.5,0.8,4c-0.1,0.6-0.2,1.1-0.4,1.4c-0.2,0.4-0.3,0.7-0.3,1.1
		c0,1.3,0.3,3.1,0.8,4.3c1.2,2.9,2.8,4.2,5.3,6c1,0.8,1.5,1.5,1.9,2.3c0.2,0.2,0.3,0.5,0.5,0.8c0.5,0.7,1,0.9,1.7,1.2
		c0.6,0.3,1.3,0.6,2,1.3c1.2,1,1.6,2.1,1.9,2.9c0.4,1.1,0.6,1.6,2.6,1.9c1.1,0.1,2.5-0.1,3.9-0.3c2.3-0.3,4.6-0.7,6.6,0.3
		c1,0.5,1.7,1.2,2.3,1.9c0.5,0.6,1,1.2,1.6,1.4c0.5,0.2,1.3,0.1,2.1,0.1c0.6,0,1.3-0.1,1.9,0c2.6,0.3,3.5,1.6,4.3,2.7
		c0.4,0.6,0.8,1.1,1.5,1.7c1.1,0.9,2.6,1.2,4.1,1.6c1.1,0.2,2.3,0.5,3.4,1c0.3,0.1,0.7,0.2,1.1,0.3c0.6,0.2,1.3,0.4,2,0.7
		c0.9,0.3,1.5,1.2,2.1,2c0.3,0.4,0.6,0.8,1,1.1c0.6,0.5,2,1.6,2.5,1.8c0.7,0.2,0.9,0.1,1.3,0c0.4-0.1,1-0.3,2-0.3
		c0.8,0,1.6,0.2,2.2,0.5c0.4,0.1,0.8,0.3,1.1,0.3c0.5,0,1-0.2,1.7-0.4c0.7-0.2,1.4-0.4,2.2-0.4c2.8,0.1,6.1,1.1,8.1,2
		c0.4,0.2,0.8,0.3,1.2,0.4c0.1,0,0.2,0.1,0.4,0.1c0.1-0.1,0.3-0.2,0.6-0.2c0.5-0.3,1-0.6,1.4-0.9C222,315.7,223.2,314.9,224.3,313.4
		z"/>
	<path fill="#3E4924" d="M422.4,547.2c-0.2-0.4-0.5-0.9-0.6-1.5c-0.4-1.4-0.5-3-0.5-4.5c0-1.3,0-2.5-0.3-3.6
		c-0.4-1.8-0.8-3.6-0.4-5.4c0.1-0.5,0.3-1.1,0.6-1.7c0.2-0.5,0.4-0.9,0.4-1.3c0-0.3,0.1-0.5,0.1-0.7c0,0-0.1,0-0.1-0.1
		c-0.4-0.4-0.6-0.9-0.7-1.3c-0.6-0.1-1.6-0.1-2.5-0.1l-0.6,0c-1.7,0.1-3,0.9-4.4,1.7c-1.4,0.8-2.7,1.6-4.5,1.9
		c-2.2,0.2-3.9-0.5-5.5-1.2c-1.1-0.5-2.1-0.9-3.2-1.1c-0.7-0.1-1.5-0.1-2.3,0.1c-0.1,0.4-0.4,0.8-1,1c-1.1,0.2-2.1-0.1-3.1-0.4
		c-0.6-0.2-1.1-0.3-1.6-0.4c-1.6-0.2-2.2,0.4-3.2,1.1c-0.8,0.6-1.7,1.3-3.3,1.6l-1,0.1c-0.9,0.1-1.8,0.2-2.7,0.3l-0.7,0.1
		c-0.2,0-0.3,0-0.5,0c-0.1,0.3-0.1,0.5-0.2,0.8c-0.1,0.5-0.2,1-0.3,1.5c-0.4,2.2-0.8,4.9-4.4,5.3c-1.7,0.2-2.2-0.2-2.8-0.9
		c-0.2-0.2-0.4-0.4-0.8-0.7c-0.8-0.4-1.8-0.5-2.9-0.6c-1-0.1-2-0.2-2.9-0.5c-3.6-1.4-7.5-1.8-11.3-2.2l-2.2-0.2
		c-1.7-0.1-3.6-0.2-5.5-1.1c-0.4-0.2-0.6-0.3-0.8-0.4c-0.5-0.2-0.8-0.4-1.6-0.5c-1.4-0.3-3.1-0.4-5.2-0.2c-0.3,0-0.6,0.1-0.8,0.1
		c-0.1,0.2-0.2,0.4-0.3,0.6c-0.9,1.6-0.6,3.7-0.3,5.7c0.1,0.5,0.2,1.1,0.2,1.6c0.2,1.5-0.2,2.6-0.5,3.6c-0.1,0.4-0.2,0.8-0.3,1.2
		c0.2,0,0.4,0.1,0.7,0.1l1.1,0.2c2.4,0.2,4.8,0.3,7.4,0.4c6.7,0.2,13.6,0.5,19.5,3.7c0.4,0.2,0.8,0.4,1.2,0.6c1,0.5,2,1.1,3.1,1.3
		c0.7,0.2,1.4,0.2,2.2,0.3c1.4,0.1,2.8,0.2,4.3,1.1c3,1.7,6.5,5.1,8.3,8.1c1.9,3.1,4.6,4.2,7.6,5.4c0.6,0.2,1.2,0.5,1.8,0.8
		c1.9,0.8,6.4,1.9,8.2,1.4c0.5-0.1,1.1,0.2,1.2,0.7c0,0.1,0,0.1,0,0.2c0,0,0.1,0.1,0.1,0.1c0.1,0.1,0.1,0.3,0.2,0.4
		c0,0.1,0.1,0.2,0.2,0.4c0.1,0.1,0.1,0.3,0.2,0.4c0.3,1.9-1.1,2.6-1.9,3c-0.3,0.1-0.5,0.3-0.7,0.4c-0.8,0.7-1,1.3-1.4,2.2
		c-0.1,0.4-0.2,0.7-0.4,1.2c-0.2,0.5-0.7,1.3-1.2,2.3c-0.2,0.4-0.5,0.8-0.8,1.3c0.2-0.1,0.3-0.2,0.5-0.3c0.6-0.4,1.3-0.9,2.1-1
		c0.9-0.1,1.8,0.4,2.6,1.5c0.1,0.1,0.1,0.1,0.1,0.2c0.1-0.3,0.3-0.6,0.5-0.9c0.6-0.8,1.4-1.4,2.1-2c0.5-0.4,0.9-0.7,1.3-1.1
		c1.7-1.7,3.6-3.1,5.4-4.5c1.1-0.8,2.1-1.6,3.1-2.4c0.9-0.7,1.5-1.4,2.2-2.2c0.5-0.5,1-1,1.5-1.4c0.7-0.6,1.4-1.1,1.7-1.8
		c0.7-1.2,0.5-3.1,0.4-5c-0.1-1-0.1-1.9-0.1-2.7l0.1-0.6c0.1-1.5,0.2-3.1,0.5-4.7c0.3-1.2,0.5-2.5,0.4-3.6
		C422.8,548,422.6,547.7,422.4,547.2z"/>
	<path fill="#3E4924" d="M402,582.4c-0.2-0.3-0.5-0.7-0.8-0.7c0,0,0,0,0,0c-0.3,0-0.7,0.3-1.1,0.6c-0.3,0.2-0.6,0.4-0.9,0.6
		c-0.7,0.3-2,1-2.8,0.1c-0.9-0.9,0-2.4,1.2-4.4c0.4-0.7,0.9-1.5,1.1-1.9c0.2-0.5,0.3-0.8,0.4-1.1c0.4-1.1,0.7-2.1,2-3.1
		c0.3-0.3,0.7-0.5,1.1-0.7c0.7-0.4,0.9-0.5,0.9-0.8c-0.1-0.2-0.2-0.4-0.2-0.5c-2.7,0.2-6.9-0.9-8.6-1.6c-0.6-0.3-1.2-0.5-1.8-0.7
		c-3.3-1.3-6.4-2.6-8.6-6.2c-1.7-2.7-5-5.9-7.6-7.4c-1.1-0.6-2.2-0.7-3.5-0.8c-0.8-0.1-1.6-0.1-2.5-0.3c-1.4-0.3-2.5-0.9-3.6-1.5
		c-0.4-0.2-0.8-0.4-1.2-0.6c-5.5-3-12.2-3.2-18.6-3.5c-2.5-0.1-5.1-0.2-7.5-0.4l-1.2-0.2c-0.3,0-0.7-0.1-1-0.1
		c-0.2,0.1-0.4,0.2-0.6,0.2c-0.3,0-0.5-0.1-0.7-0.3c-2-0.2-3.8,0-5.9,1.2l-2.4,1.6c-2.6,1.7-5.1,3.3-7.9,4.8
		c-2.9,1.5-5.6,3.4-8.2,5.2l-1.6,1.1c-0.5,0.3-1.1,0.6-1.8,1c-1.2,0.6-2.6,1.3-3.1,2c-0.4,0.5-0.4,1.2-0.5,1.9
		c0,0.5-0.1,0.9-0.2,1.4c-0.1,0.3-0.3,0.5-0.5,0.7c-0.3,0.1-0.6,0.1-0.9,0c-1.2-0.6-2.5,1-3.9,2.8c-0.4,0.4-0.7,0.9-1,1.2
		c-0.9,0.9-1.6,1.8-2.3,2.8c-0.4,0.6-0.9,1.2-1.4,1.8c-0.9,1-2,1.7-3,2.4c-0.8,0.5-1.5,1-2.1,1.6c-0.9,0.8-1.5,1.8-2.2,2.8
		c-0.4,0.6-0.8,1.3-1.3,2c-1,1.4-2.5,2.5-3.8,3.5c-0.8,0.6-1.6,1.2-2.3,1.9c-1.2,1.1-2.3,2.3-3.3,3.5c-0.8,0.9-1.6,1.8-2.4,2.7
		c0.2,0.2,0.3,0.4,0.3,0.6c1,0.4,2,0.5,3.4,0.5h0.3c0.5,0,1.4,0,1.8-0.1c0-0.1-0.1-0.3-0.3-0.5c-0.2-0.2-0.2-0.6-0.1-0.8
		c0.1-0.3,0.3-0.5,0.6-0.7c1.4-0.6,6-1.8,8-0.4c0.7,0.5,1.1,1.3,1.6,2.1c0.3,0.6,0.7,1.3,1.1,1.7c0.8,0.8,1.9,1.3,3,1.9
		c1.6,0.8,3.3,1.7,4.3,3.4c0.8,1.1,1.2,2.5,1.6,3.8c0.2,0.7,0.4,1.4,0.7,2.1c0.2,0.5,0.3,0.9,0.3,1.1c0,0,0.1,0,0.1,0.1
		c0.3,0.2,0.9,0.1,2.7-0.7c0.6-0.3,0.8-0.7,1.1-1.2c0.5-0.7,1.1-1.8,2.9-1.4c1.7,0.5,3.2,3,3.9,4.5c0.3,0.1,0.6,0.2,0.7,0.6l0.1,0.3
		c0.7,1.5,0.7,1.5,2.7,1.8c0.5,0.1,1,0.2,1.5,0.3c1,0.2,2,0.3,2.6,0.6c0.6,0.3,0.9,0.8,1.1,1.1c0.1,0.1,0.2,0.3,0.2,0.3
		c0.6,0.4,1.2,0.5,1.8,0.7c1.1,0.3,2.4,0.6,3.5,2.3c0.3,0.5,0.5,1,0.6,1.5c0.2,0.6,0.3,1,0.7,1.2c0.2,0.1,0.5,0.2,0.8,0.3
		c0.5,0.1,1.2,0.3,1.8,0.7c0.7,0.7,0.8,1.1,0.9,1.4c0,0.1,0.1,0.2,0.3,0.3c0.1,0.1,0.5,0,0.9,0c0.7-0.1,1.5-0.2,2.4,0.2
		c3.1,1.4,3.8,4.1,4.4,6.7l0.1,0.3c0.6,2.7,4.6,4.7,7.8,4.7c0.2,0,0.3,0,0.4,0.1c0.9,0.1,1.8,0.4,2,1.2c0.2,0.7-0.2,1.3-0.7,1.6
		c-7.5,4.7-7.2,7.9-7.2,8l0,0c0,0.6,0.1,1.2,0,1.8c0,1.3,0,2.6,0.4,3.5c0.2,0.5,0.5,0.8,0.7,1.2c0.3,0.4,0.7,0.9,0.9,1.5
		c4.7-2.1,8.9-5.9,12.9-11.7c0.6-0.9,0.7-2,0.7-3.2c0.1-1.4,0.1-3,1.1-4.3c0.3-0.5,0.8-1,1.2-1.4c0.3-0.3,0.7-0.6,0.8-0.9
		c0-0.1,0-0.4,0-0.8c0-0.7,0.1-1.6,0.8-2.5c0.4-0.5,1-0.8,1.5-1c0.5-0.2,0.7-0.4,0.7-0.5c0-0.2,0-0.2-0.4-0.5c-0.3-0.2-0.8-0.5-1-1
		c-0.7-1.2-0.8-4.6-0.3-5.8c0.5-1.2,1.4-1.6,2.2-2c0.3-0.1,0.5-0.2,0.8-0.4c0.9-0.6,0.9-0.8,1.3-1.6l0.3-0.7c1-2.1,2.4-2.6,3.6-3.1
		c0.7-0.3,1.4-0.5,2.1-1.1c1.9-1.6,2.6-4.8,3.1-7.3l0.2-1.2c0.8-3.4,3-4.8,5.1-6c0.2-0.1,0.4-0.2,0.5-0.3c0.5-0.3,1-0.6,1.5-0.7
		c0.6-0.1,1.1,0.1,1.4,0.3c0.3-0.1,0.8-0.4,1.3-0.7c0.4-0.2,0.8-0.5,1.4-0.8c0,0,4-1.8,5.5-0.5c0.1,0.1,0.6,0.5,0.8,2.2
		c0.1,0.7,0.2,2.5-0.4,3.3c-0.9,1.1-2,0.8-2.5,0.7c-0.1,0-0.4-0.1-0.3-0.1c-0.2,0.2-0.1,1.3-0.1,2c0,1.1,0.1,2.2-0.4,3.1
		c-0.5,0.9-1.3,1.3-1.9,1.6c-0.2,0.1-0.4,0.2-0.6,0.3c-0.8,0.6-1.3,1.1-1.8,1.8c-0.2,0.3-0.5,0.6-0.8,1c-0.4,0.4-0.7,0.6-1.1,0.9
		c-0.6,0.5-1.2,1-1.5,1.6c-0.1,0.3-0.2,0.7-0.3,1.2c-0.1,0.5-0.2,1-0.4,1.5c0.4-0.4,0.8-0.9,1.1-1.3c1-1.3,2.4-2.2,3.7-3.1
		c1.5-1.1,3-2.1,3.7-3.4c0.2-0.4,0.3-0.9,0.4-1.4c0.1-0.5,0.2-1,0.4-1.6c0.5-1.4,1.5-2.8,2.4-4.1l0.5-0.7c0.5-0.8,1.1-1.5,1.7-2.1
		c1.1-1.2,2-2.2,2.2-3.7c0-0.4,0-0.7,0-1.1c0-0.9,0-1.9,0.6-3c0.6-1.1,1.5-2,2.4-2.8c0.5-0.5,1-1,1.5-1.5c0.8-0.9,1.6-2.3,1.9-3.6
		c0-0.1-0.1-0.1-0.1-0.2c-0.2-0.4-0.1-0.8,0.2-1.1C402.2,582.9,402.2,582.6,402,582.4z"/>
	<path fill="#3E4924" d="M381.6,611.4c0.2-0.3,0.5-0.6,0.7-0.8c0.6-0.8,1.2-1.5,2.3-2.2c0.3-0.2,0.6-0.3,0.9-0.5
		c0.5-0.3,0.8-0.4,1-0.7c0.2-0.4,0.2-1.2,0.1-2c-0.1-1.3-0.1-2.8,0.9-3.6c0.7-0.7,1.6-0.5,2.1-0.4c0.1,0,0.3,0,0.4,0.1
		c0.3-0.5,0.1-2.5-0.1-2.9c0,0,0,0,0,0c-0.4,0-2.3,0.5-3.1,0.9c-0.5,0.2-0.8,0.5-1.2,0.7c-0.7,0.4-1.4,0.9-2.3,1.1
		c-0.4,0-0.7-0.1-0.9-0.2c-0.1-0.1-0.2-0.1-0.2-0.1c-0.2,0.1-0.6,0.3-0.8,0.4c-0.2,0.1-0.4,0.2-0.6,0.3c-2.2,1.3-3.6,2.4-4.1,4.8
		l-0.3,1.1c-0.6,2.7-1.4,6.4-3.8,8.4c-0.9,0.8-1.9,1.1-2.7,1.4c-1.1,0.4-1.9,0.7-2.5,2l-0.3,0.7c-0.4,1.1-0.6,1.6-2,2.6
		c-0.4,0.2-0.7,0.4-1,0.6c-0.7,0.3-1,0.5-1.2,1c-0.3,0.7-0.2,3.5,0.2,4.1c0.1,0.1,0.3,0.2,0.4,0.3c0.1,0,0.1,0.1,0.2,0.1
		c-0.5-0.9-0.7-1.8-0.3-2.5c0.5-1,1.7-1.4,3.4-1.6c2.8-0.4,4.5-0.6,6.2-2.5c0.2-0.2,0.3-0.4,0.5-0.6c0.4-0.6,0.9-1.2,2-1.8
		c0.3-0.2,0.6-0.4,1-0.6c0.5-0.2,0.9-0.4,1.2-0.8c0.4-0.5,0.6-1.1,0.7-1.8c0.1-0.5,0.2-1.1,0.4-1.6c0.6-1.1,1.4-1.7,2-2.3
		C381,612,381.3,611.7,381.6,611.4z"/>
	<path fill="#3E4924" d="M463.7,310.2c0.3-0.5,0.7-1.3,0.8-1.8c-0.6,0.2-1.3,0.2-1.9,0.2c-0.6-0.1-1.1-0.3-1.4-0.5
		c-0.3-0.1-0.6-0.3-0.8-0.3c-1.2-0.2-1.5,0-3,0.8l-0.4,0.2c-0.6,0.3-1.2,0.7-1.9,1c-1.7,1-3.7,2-5.5,2.4c-0.7,0.1-1.5,0-2.5,0
		c-0.9-0.1-3-0.3-3.4,0.1c-0.1,0.1-0.1,0.7-0.1,1c0.1,0.9,0.2,2.2-0.9,3.2c-0.6,0.7-1.3,0.9-2,0.9c-1.1,0-2.1-0.5-2.9-0.9
		c-0.3-0.2-0.6-0.3-0.9-0.4c-2.5-1.2-4.9-1.3-7.5-1.5c-1.5-0.1-3.1-0.2-4.8-0.6c-0.4-0.1-0.6-0.3-0.7-0.7c-0.1-0.4,0-0.7,0.2-1
		c0.2-0.2,0.2-0.3,0.2-0.5c0-0.9-1.1-2.3-2.6-3.7c-1.2-1-1.5-1-1.5-0.9c-0.1,0-0.3,0.3-0.5,0.4c-0.5,0.5-1.3,1.3-2.6,1.6
		c-0.3,0.1-0.6,0-0.8-0.1c-0.2-0.2-0.4-0.4-0.4-0.7c0-0.3-0.1-0.6-0.2-0.9c-0.3,0.4-0.7,0.6-1.1,0.8c-0.1,0.1-0.3,0.2-0.5,0.3
		c-0.5,0.3-0.8,0.5-1.1,0.7c-0.5,0.3-0.5,0.3-0.8,1.6c-0.3,1.2-0.7,2.5-1.8,2.8c-1.1,0.4-2-0.4-3-1.2c-0.4-0.3-0.8-0.6-1.2-0.9
		c-1.3-0.9-3-1.7-4.2-2.1c-0.6-0.2-1.6-0.2-2.6-0.1c-1.5,0.1-3,0.2-4-0.6c-1.8-1.5-0.6-4,0.6-6.4c0.3-0.7,0.7-1.5,1-2.2
		c-0.6,0.5-1.2,0.9-1.9,1.4c0,0,0,0-0.1,0.1c0.1,0.1,0.1,0.2,0.1,0.3c0.2,1-0.5,1.9-1.1,2.6c-0.2,0.2-0.4,0.4-0.5,0.6
		c-0.7,1.2-1,3.3-1.4,5.1c-0.2,0.8-0.3,1.5-0.5,2.2c-0.2,1.5-0.8,2.6-1.4,3.8c-0.3,0.6-0.6,1.2-0.8,1.9c-0.6,1.4-1.1,2.8-1.7,4.3
		c-0.6,1.7-0.8,3.2-1,4.9l-0.1,0.8c-0.2,2-0.8,3.7-1.5,5.3c-0.4,0.9-0.7,1.9-1,2.9c-0.1,0.5-0.2,0.9-0.3,1.3c-0.3,1.5-0.6,2.9-3.1,4
		c-0.7,0.3-1.3,0.4-2,0.5c-0.7,0.1-1.3,0.2-1.8,0.5c-3.1,1.3-5.2,5.9-5.9,7.8c-0.2,0.6-0.3,1.2-0.4,1.9c-0.2,1.4-0.4,2.9-2.1,4.3
		c-1.1,0.9-2.3,1-3.3,1c-0.8,0.1-1.5,0.1-2.1,0.5c-0.5,0.3-0.8,1-1.2,1.7c-0.3,0.6-0.6,1.3-1.1,1.8c-0.6,0.8-1.3,1.5-1.9,2.3
		c-1.2,1.3-2.3,2.6-3.2,4.2c-0.9,1.7-2.2,2.9-3.5,4c-1.5,1.4-2.8,2.5-3.4,4.5c-0.6,2.1-0.6,3.1-0.6,5.1l0,1c0,0.5-0.1,0.9-0.2,1.2
		c-0.1,0.3-0.2,0.5-0.1,0.7c0.1,0.2,0.1,0.3,0.3,0.5c0.2,0.2,0.5,0.5,0.7,1c1,2.4-0.3,6.1-1.5,8.3c0.3,0.5,0.6,0.7,1.5,1l0.6,0.2
		c1.4,0.5,3.4,1.2,4,2.5c0.7,1.2,0.1,2.1-0.3,2.6c-0.1,0.1-0.1,0.2-0.2,0.3c0.7,0.3,1.5,0.5,2.4,0.7c0.8,0.2,1.7,0.4,2.5,0.7
		c1.8,0.7,3.3,1.9,4.8,3l0.6,0.5c1.9,1.4,3.2,1.8,5.2,2.4l1.3,0.4c1.4,0.4,2.6,1.1,3.7,1.8c0.7,0.4,1.5,0.9,2.3,1.2
		c0.6,0.2,1.6,0.5,2.6,0.7c1.9,0.4,3.8,0.8,4.9,1.8c0.2,0.2,0.9,1.2,1.4,2.1c0,0,0.1,0,0.1,0c1,0,1.3-0.1,1.6-0.5
		c0,0-0.1-0.4-0.2-0.6c-0.2-0.7-0.4-1.5,0.1-2.4c0.6-1.1,1.2-1.2,1.8-1.2c0.2,0,0.3,0,0.4-0.1c1-0.8,1.8-2,2.7-3.3
		c1.5-2,3-4.1,5.4-5.2c1.9-0.8,4-1.2,6.1-1.5c1.2-0.2,2.4-0.4,3.5-0.6c0.2,0,0.4-0.1,0.6-0.2c0.5-0.2,1.1-0.4,1.6-0.4
		c0.8,0.2,1.2,0.5,1.5,0.9c0,0,0.1,0.1,0.2,0.2c0.5-0.1,0.9-0.4,1.6-1c0.5-0.4,0.9-0.7,1.5-1.1c1.6-0.9,2.3-0.9,3.6-0.7l0.7,0.1
		c1,0.1,2-0.1,3-0.3c0.8-0.2,1.7-0.3,2.6-0.4l1.5-0.1c2.7-0.2,5.8-0.3,8.2,0.2c0.8,0.2,1.3,0.7,1.8,1.1c0.4,0.4,0.7,0.6,1,0.7
		c0.6,0,2.6-1.4,2.9-1.9c0.4-0.6,0.6-0.9,0.7-1.1c0.4-0.8,0.7-1.1,2.1-1.8l0.5-0.3c1.5-0.7,2.4-1.1,2.6-2.8c0-0.3-0.1-0.7-0.2-1.1
		c-0.1-0.4-0.2-0.9-0.2-1.5c0.1-0.7,0.3-1.1,0.4-1.5c0.1-0.3,0.2-0.5,0.2-0.9c0.3-1.4,0.1-1.6-0.9-2c-0.8-0.3-1.8-0.8-2.5-2
		c-0.2-0.4-0.2-0.9,0.1-1.2c0.7-0.8,1.6-1.4,2.5-2.1c1-0.8,2-1.5,2.7-2.5c0.7-1.1,0.7-1.1-0.1-2c-0.2-0.2-0.4-0.4-0.6-0.7
		c-0.9-1.1-1.4-2.6-2-4c-0.6-1.6-1.3-3.3-2.4-4.4c-0.2-0.2-0.3-0.5-0.3-0.8c0-0.3,0.2-0.5,0.4-0.7c0.3-0.2,0.8-0.5,1.2-0.7
		c0.7-0.4,1.5-0.8,1.7-1.2c0.1-0.3,0.1-0.5,0-1c-0.1-0.5-0.2-1.1,0.1-1.8c0.8-2.1,4.8-3.3,5.8-3.4c0.2-0.1,0.5-0.1,0.8-0.2
		c2.1-0.4,2.5-0.7,2.3-2.2c-0.3-1.6-1.5-3.8-2.2-4c-0.3-0.1-0.6-0.3-0.7-0.6c-0.1-0.3-0.1-0.6,0.1-0.9c0.6-1,1.6-3.1,2-4.2
		c0.1-0.5,0-0.9,0-1.4c-0.1-0.5-0.2-1.2,0.3-1.8c0.5-0.6,1.4-0.8,2.6-1c0,0,0,0,0,0c0.6,0,0.9,0.1,1.2,0.2c0,0,0.1,0,0.2,0.1
		c0,0,0.1-0.1,0.1-0.3c0.1-0.2,0.1-0.3-0.2-1c-0.2-0.5-0.6-1.2-0.5-2c-0.1-0.2-0.2-0.4-0.2-0.6c0-0.5,0.6-0.9,1.1-0.9
		c0.4,0,0.7,0,0.9,0c0.8,0,1.7-0.1,2.6,0.8c0.5,0.5,0.5,1.1,0.4,1.5c0,0,0,0.1,0,0.1c0.2,0,0.4,0,0.5,0c0.6,0,1.5-0.1,2.1,0.6
		c0.3,0.5,0.4,1,0.4,1.5c0.5-0.1,1.1-0.3,1.7-0.1c0.2-0.8,0.4-1.9,0.3-2.5c0-0.4,0.2-0.9,0.6-1c1.2-0.5,1-1.7,0.3-4.1l-0.2-0.7
		c-0.1-0.3-0.2-0.7-0.3-1c-0.3-0.8-0.4-1.1-1.4-1.9c-0.3-0.2-0.5-0.4-0.8-0.6c-1-0.8-2-1.5-2.5-3.4c-0.3-1.5-0.1-3.1,0.1-4.6
		c0.1-0.6,0.1-1.1,0.2-1.7c0-0.3,0-0.7-0.1-1.2c-0.1-1.2-0.2-2.5,0.3-3.7c0.1-0.3,0.4-0.6,0.7-0.6c0.3-0.1,0.7,0,0.9,0.3
		c0.1,0.1,0.2,0.2,0.3,0.2c0,0,0.2-0.2,0.1-0.4c-0.1-0.4-0.5-0.5-0.8-0.5c-0.3,0-0.5-0.2-0.7-0.4c-0.2-0.2-0.2-0.5-0.1-0.8
		C463.1,311.3,463.4,310.8,463.7,310.2z M444.8,354.4c0.3,1.8,0.7,4.4-1.9,5.6c-0.7,0.4-1.6,0.5-2.5,0.5c-0.8,0-1.6-0.1-2.4-0.2
		c-1-0.1-1.5-0.1-2.8,0c-4.5,0.2-7.1,0.1-8.2-1c-0.3-0.4-0.7-1-0.5-1.7c0.2-0.7,0.9-0.9,1.2-1c0,0,0,0,0,0c0-0.2,0.1-0.3,0.1-0.5
		l0.1-0.5c0.1-0.6,0.1-1.2,0-1.8c-0.1-2,0.1-3.5,3.4-4c0.6-0.1,1.3-0.2,1.8-0.2c0-0.1,0-0.2,0.1-0.3c0.2-0.5,0.8-0.8,1.3-0.6
		c2.1,0.8,3.7,0.5,5.6,0.2c0.7-0.1,1.5-0.2,2.3-0.3c0.9-0.1,2-0.1,2.6,0.6c0.5,0.7,0.3,1.4,0,2.2c-0.1,0.3-0.3,0.8-0.3,1.2
		C444.6,353,444.7,353.7,444.8,354.4z"/>
</g>
</svg>
