<?xml version="1.0" encoding="utf-8"?>
<!-- Generator: Adobe Illustrator 16.0.0, SVG Export Plug-In . SVG Version: 6.00 Build 0)  -->
<!DOCTYPE svg PUBLIC "-//W3C//DTD SVG 1.1//EN" "http://www.w3.org/Graphics/SVG/1.1/DTD/svg11.dtd">
<svg version="1.1" id="Layer_1" xmlns="http://www.w3.org/2000/svg" xmlns:xlink="http://www.w3.org/1999/xlink" x="0px" y="0px"
	 width="38px" height="38px" viewBox="0 0 38 38" enable-background="new 0 0 38 38" xml:space="preserve">
<g>
	<defs>
		<circle id="SVGID_1_" cx="19" cy="19" r="18.5"/>
	</defs>
	<clipPath id="SVGID_2_">
		<use xlink:href="#SVGID_1_"  overflow="visible"/>
	</clipPath>
	<g clip-path="url(#SVGID_2_)">
		<defs>
			<circle id="SVGID_3_" cx="19" cy="19" r="18.5"/>
		</defs>
		<use xlink:href="#SVGID_3_"  overflow="visible" fill="#FFFFFF"/>
		<clipPath id="SVGID_4_">
			<use xlink:href="#SVGID_3_"  overflow="visible"/>
		</clipPath>
		<g clip-path="url(#SVGID_4_)">
			<rect x="-8.166" y="0.434" fill="#FFFFFF" stroke="#231F20" stroke-miterlimit="10" width="18.361" height="37.146"/>
			<rect x="10.217" y="0.434" fill="#FFFFFF" stroke="#231F20" stroke-miterlimit="10" width="18.361" height="37.146"/>
			<rect x="28.578" y="0.434" fill="#FFFFFF" stroke="#231F20" stroke-miterlimit="10" width="18.422" height="37.146"/>
			<polygon fill="#FFFFFF" stroke="#231F20" stroke-miterlimit="10" points="19.152,13.891 20.266,17.318 23.87,17.318 
				20.955,19.438 22.068,22.865 19.152,20.747 16.235,22.865 17.351,19.438 14.434,17.318 18.038,17.318 			"/>
		</g>
		<use xlink:href="#SVGID_3_"  overflow="visible" fill="none" stroke="#231F20" stroke-miterlimit="10"/>
	</g>
	<g clip-path="url(#SVGID_2_)">
		<rect x="-8.166" y="0.434" fill="#357964" width="18.361" height="37.146"/>
		<rect x="10.217" y="0.434" fill="#CA484B" width="18.361" height="37.146"/>
		<rect x="28.578" y="0.434" fill="#FCDB39" width="18.422" height="37.146"/>
		<polygon fill="#FCDB39" points="19.152,13.891 20.266,17.318 23.87,17.318 20.955,19.438 22.068,22.865 19.152,20.747 
			16.235,22.865 17.351,19.438 14.434,17.318 18.038,17.318 		"/>
	</g>
</g>
</svg>
