<?xml version="1.0" encoding="utf-8"?>
<!-- Generator: Adobe Illustrator 16.0.0, SVG Export Plug-In . SVG Version: 6.00 Build 0)  -->
<!DOCTYPE svg PUBLIC "-//W3C//DTD SVG 1.1//EN" "http://www.w3.org/Graphics/SVG/1.1/DTD/svg11.dtd">
<svg version="1.1" id="Layer_1" xmlns="http://www.w3.org/2000/svg" xmlns:xlink="http://www.w3.org/1999/xlink" x="0px" y="0px"
	 width="876px" height="476px" viewBox="0 0 876 476" enable-background="new 0 0 876 476" xml:space="preserve">
<g>
	<defs>
		<rect id="SVGID_1_" x="0.5" y="0.5" width="875" height="475"/>
	</defs>
	<clipPath id="SVGID_2_">
		<use xlink:href="#SVGID_1_"  overflow="visible"/>
	</clipPath>
	<g clip-path="url(#SVGID_2_)">
		<rect x="-39.763" y="-65.552" fill="#D1D3D4" width="1228" height="698.001"/>
		<g display="none">
			<g display="inline">
				<g>
					<g>
						<path fill="#939598" d="M162.581,76.131c-0.068-15.489-12.103-28.052-27.439-28.659v-0.313h-25.499l-0.009-0.062l-4.818-0.436
							c0.316-1.497,0.488-3.03,0.488-4.622c0-0.926-0.391-1.504-0.503-2.4c-0.029,0.274-0.071,0.541-0.117,0.805V21.586
							c5.167-5.299,9.349-13.387,10.071-25.697c0.078,0.015,0.148,0.031,0.225,0.039c0,0.084,0,0.155,0,0.21
							c0,0,0.429-0.063,0.939-0.188c3.944-0.193,7.103-4.681,7.103-10.191c0-3.973-1.645-7.409-4.032-9.1
							c2.277-8.759,6.993-32.563-5.07-44.398c-2.247-2.399-4.586-4.402-4.586-4.402c-3.934-4.716-3.41-9.96-3.41-9.96
							c-5.5,1.574-9.169,6.289-9.169,6.289c0.528-9.693,5.502-12.311,5.502-12.311c-1.045-1.045-4.714-0.53-4.714-0.53
							c-14.416,0.788-18.603,13.894-18.603,13.894c-2.103-2.361,0.26-10.479,0.26-10.479c-16.424,3.786-27.97,17.32-28.768,18.279
							c-11.059,12.005-6.581,34.814-4.34,43.479c-2.494,1.644-4.222,5.158-4.222,9.24c0,5.487,3.116,9.952,7.021,10.191
							c0.157,0.033,0.296,0.062,0.43,0.096c0.8,13.013,5.494,21.272,11.088,26.531v18.008l-0.105-0.468l-0.079,0.373
							c-0.073-0.39-0.139-0.779-0.187-1.186c-0.057,0.452,0.035,0.905,0.145,1.374l-1.387,6.48H31.278v0.289
							C16.516,47.48,3.966,59.393,3.036,74.464c-0.121,0.232-0.184,0.513-0.184,0.825v37.945c0,1.263,1.005,2.792,2.513,2.792h3.102
							c-1.241,13.634-1.041,30.793,0.905,49.307c4.507,42.926,16.686,76.844,27.195,75.738c7.493-0.794,12.117-19.176,12.516-45.231
							h66.319c0.404,26.056,5.022,44.438,12.516,45.231c10.509,1.105,22.684-32.812,27.195-75.738
							c1.947-18.514,2.146-35.673,0.902-49.307h4.174c1.511,0,2.283-1.529,2.283-2.792V76.131H162.581z M115.097-24.417l0.035-2.361
							c0.023,0.833,0.055,1.629,0.094,2.346C115.183-24.433,115.136-24.433,115.097-24.417z"/>
					</g>
					<g>
						<path fill="#939598" d="M330.14,76.131c-0.069-15.489-12.104-28.052-27.438-28.659v-0.313H277.2l-0.006-0.062l-4.819-0.436
							c0.314-1.497,0.486-3.03,0.486-4.622c0-0.926-0.39-1.504-0.501-2.4c-0.029,0.274-0.073,0.541-0.117,0.805V21.586
							c5.165-5.299,9.35-13.387,10.07-25.697c0.077,0.015,0.148,0.031,0.226,0.039c0,0.084,0,0.155,0,0.21
							c0,0,0.43-0.063,0.938-0.188c3.943-0.193,7.104-4.681,7.104-10.191c0-3.973-1.644-7.409-4.033-9.1
							c2.276-8.759,6.995-32.563-5.066-44.398c-2.249-2.399-4.591-4.402-4.591-4.402c-3.933-4.716-3.409-9.96-3.409-9.96
							c-5.498,1.574-9.17,6.289-9.17,6.289c0.528-9.693,5.504-12.311,5.504-12.311c-1.045-1.045-4.716-0.53-4.716-0.53
							c-14.413,0.788-18.603,13.894-18.603,13.894c-2.1-2.361,0.262-10.479,0.262-10.479c-16.426,3.786-27.972,17.32-28.768,18.279
							c-11.058,12.005-6.58,34.814-4.34,43.479c-2.496,1.644-4.226,5.158-4.226,9.24c0,5.487,3.118,9.952,7.026,10.191
							c0.155,0.033,0.295,0.062,0.43,0.096c0.798,13.013,5.493,21.272,11.085,26.531v18.008l-0.103-0.468l-0.08,0.373
							c-0.073-0.39-0.14-0.779-0.186-1.186c-0.059,0.452,0.033,0.905,0.145,1.374l-1.389,6.48h-27.518v0.289
							c-14.762,0.033-27.311,11.945-28.24,27.017c-0.122,0.232-0.185,0.513-0.185,0.825v37.945c0,1.263,1.005,2.792,2.513,2.792h3.1
							c-1.239,13.634-1.038,30.793,0.905,49.307c4.507,42.926,16.688,76.844,27.195,75.738c7.495-0.794,12.12-19.176,12.518-45.231
							h66.317c0.406,26.056,5.022,44.438,12.518,45.231c10.508,1.105,22.685-32.812,27.195-75.738
							c1.948-18.514,2.145-35.673,0.902-49.307h4.172c1.513,0,2.283-1.529,2.283-2.792V76.131H330.14z M282.656-24.417l0.034-2.361
							c0.024,0.833,0.056,1.629,0.094,2.346C282.742-24.433,282.696-24.433,282.656-24.417z"/>
					</g>
					<g>
						<path fill="#939598" d="M505.678,76.131c-0.068-15.489-12.105-28.052-27.439-28.659v-0.313h-25.498l-0.01-0.062l-4.818-0.436
							c0.316-1.497,0.488-3.03,0.488-4.622c0-0.926-0.393-1.504-0.504-2.4c-0.029,0.274-0.07,0.541-0.117,0.805V21.586
							c5.168-5.299,9.35-13.387,10.072-25.697c0.076,0.015,0.146,0.031,0.225,0.039c0,0.084,0,0.155,0,0.21
							c0,0,0.43-0.063,0.939-0.188c3.941-0.193,7.104-4.681,7.104-10.191c0-3.973-1.646-7.409-4.033-9.1
							c2.275-8.759,6.994-32.563-5.07-44.398c-2.246-2.399-4.588-4.402-4.588-4.402c-3.932-4.716-3.408-9.96-3.408-9.96
							c-5.498,1.574-9.168,6.289-9.168,6.289c0.525-9.693,5.502-12.311,5.502-12.311c-1.043-1.045-4.715-0.53-4.715-0.53
							c-14.416,0.788-18.604,13.894-18.604,13.894c-2.101-2.361,0.262-10.479,0.262-10.479c-16.424,3.786-27.97,17.32-28.769,18.279
							c-11.058,12.005-6.58,34.814-4.341,43.479c-2.492,1.644-4.223,5.158-4.223,9.24c0,5.487,3.116,9.952,7.024,10.191
							c0.157,0.033,0.296,0.062,0.43,0.096c0.798,13.013,5.491,21.272,11.088,26.531v18.008l-0.105-0.468l-0.079,0.373
							c-0.073-0.39-0.141-0.779-0.187-1.186c-0.059,0.452,0.035,0.905,0.145,1.374l-1.389,6.48h-27.516v0.289
							c-14.763,0.033-27.311,11.945-28.242,27.017c-0.121,0.232-0.185,0.513-0.185,0.825v37.945c0,1.263,1.008,2.792,2.516,2.792
							h3.1c-1.242,13.634-1.041,30.793,0.902,49.307c4.51,42.926,16.688,76.844,27.195,75.738
							c7.496-0.794,12.12-19.176,12.519-45.231h66.316c0.406,26.056,5.023,44.438,12.52,45.231
							c10.508,1.105,22.682-32.812,27.193-75.738c1.949-18.514,2.148-35.673,0.906-49.307h4.17c1.514,0,2.283-1.529,2.283-2.792
							V76.131H505.678z M458.194-24.417l0.035-2.361c0.023,0.833,0.055,1.629,0.092,2.346
							C458.28-24.433,458.233-24.433,458.194-24.417z"/>
					</g>
					<g>
						<path fill="#939598" d="M673.237,76.131c-0.068-15.489-12.104-28.052-27.438-28.659v-0.313h-25.5l-0.008-0.062l-4.818-0.436
							c0.314-1.497,0.484-3.03,0.484-4.622c0-0.926-0.389-1.504-0.502-2.4c-0.027,0.274-0.068,0.541-0.117,0.805V21.586
							c5.166-5.299,9.352-13.387,10.072-25.697c0.08,0.015,0.148,0.031,0.227,0.039c0,0.084,0,0.155,0,0.21
							c0,0,0.426-0.063,0.938-0.188c3.943-0.193,7.102-4.681,7.102-10.191c0-3.973-1.643-7.409-4.031-9.1
							c2.275-8.759,6.992-32.563-5.068-44.398c-2.25-2.399-4.59-4.402-4.59-4.402c-3.93-4.716-3.408-9.96-3.408-9.96
							c-5.498,1.574-9.168,6.289-9.168,6.289c0.523-9.693,5.5-12.311,5.5-12.311c-1.043-1.045-4.711-0.53-4.711-0.53
							c-14.416,0.788-18.605,13.894-18.605,13.894c-2.1-2.361,0.262-10.479,0.262-10.479c-16.426,3.786-27.969,17.32-28.77,18.279
							c-11.057,12.005-6.578,34.814-4.34,43.479c-2.494,1.644-4.221,5.158-4.221,9.24c0,5.487,3.113,9.952,7.021,10.191
							c0.156,0.033,0.297,0.062,0.43,0.096c0.799,13.013,5.492,21.272,11.088,26.531v18.008l-0.105-0.468l-0.078,0.373
							c-0.072-0.39-0.141-0.779-0.186-1.186c-0.059,0.452,0.033,0.905,0.143,1.374l-1.385,6.48h-27.52v0.289
							c-14.762,0.033-27.311,11.945-28.24,27.017c-0.123,0.232-0.184,0.513-0.184,0.825v37.945c0,1.263,1.004,2.792,2.512,2.792
							h3.102c-1.244,13.634-1.039,30.793,0.904,49.307c4.506,42.926,16.688,76.844,27.193,75.738
							c7.496-0.794,12.121-19.176,12.52-45.231h66.316c0.404,26.056,5.023,44.438,12.518,45.231
							c10.508,1.105,22.682-32.812,27.193-75.738c1.949-18.514,2.146-35.673,0.904-49.307h4.172c1.514,0,2.283-1.529,2.283-2.792
							V76.131H673.237z M625.754-24.417l0.033-2.361c0.023,0.833,0.055,1.629,0.094,2.346
							C625.838-24.433,625.792-24.433,625.754-24.417z"/>
					</g>
					<g>
						<path fill="#939598" d="M840.797,76.131c-0.072-15.489-12.105-28.052-27.441-28.659v-0.313h-25.498l-0.008-0.062l-4.82-0.436
							c0.316-1.497,0.486-3.03,0.486-4.622c0-0.926-0.387-1.504-0.5-2.4c-0.027,0.274-0.072,0.541-0.117,0.805V21.586
							c5.166-5.299,9.35-13.387,10.072-25.697c0.076,0.015,0.146,0.031,0.225,0.039c0,0.084,0,0.155,0,0.21
							c0,0,0.428-0.063,0.939-0.188c3.941-0.193,7.102-4.681,7.102-10.191c0-3.973-1.645-7.409-4.031-9.1
							c2.273-8.759,6.992-32.563-5.068-44.398c-2.25-2.399-4.592-4.402-4.592-4.402c-3.93-4.716-3.408-9.96-3.408-9.96
							c-5.498,1.574-9.168,6.289-9.168,6.289c0.527-9.693,5.502-12.311,5.502-12.311c-1.045-1.045-4.715-0.53-4.715-0.53
							c-14.414,0.788-18.602,13.894-18.602,13.894c-2.1-2.361,0.26-10.479,0.26-10.479c-16.426,3.786-27.971,17.32-28.768,18.279
							c-11.059,12.005-6.58,34.814-4.34,43.479c-2.494,1.644-4.225,5.158-4.225,9.24c0,5.487,3.117,9.952,7.025,10.191
							c0.154,0.033,0.297,0.062,0.43,0.096c0.797,13.013,5.492,21.272,11.086,26.531v18.008l-0.104-0.468l-0.078,0.373
							c-0.076-0.39-0.141-0.779-0.188-1.186c-0.059,0.452,0.035,0.905,0.145,1.374l-1.387,6.48h-27.518v0.289
							c-14.762,0.033-27.312,11.945-28.242,27.017c-0.119,0.232-0.186,0.513-0.186,0.825v37.945c0,1.263,1.006,2.792,2.514,2.792
							h3.102c-1.244,13.634-1.039,30.793,0.904,49.307c4.508,42.926,16.686,76.844,27.193,75.738
							c7.496-0.794,12.123-19.176,12.518-45.231h66.32c0.402,26.056,5.02,44.438,12.518,45.231
							c10.506,1.105,22.682-32.812,27.193-75.738c1.947-18.514,2.146-35.673,0.902-49.307h4.174c1.512,0,2.283-1.529,2.283-2.792
							V76.131H840.797z M793.313-24.417l0.035-2.361c0.023,0.833,0.053,1.629,0.094,2.346
							C793.397-24.433,793.352-24.433,793.313-24.417z"/>
					</g>
					<g>
						<path fill="#939598" d="M1008.354,76.131c-0.068-15.489-12.104-28.052-27.438-28.659v-0.313h-25.5l-0.01-0.062l-4.818-0.436
							c0.316-1.497,0.488-3.03,0.488-4.622c0-0.926-0.391-1.504-0.502-2.4c-0.027,0.274-0.07,0.541-0.119,0.805V21.586
							c5.168-5.299,9.352-13.387,10.072-25.697c0.078,0.015,0.148,0.031,0.227,0.039c0,0.084,0,0.155,0,0.21
							c0,0,0.43-0.063,0.938-0.188c3.945-0.193,7.105-4.681,7.105-10.191c0-3.973-1.646-7.409-4.035-9.1
							c2.277-8.759,6.996-32.563-5.068-44.398c-2.246-2.399-4.588-4.402-4.588-4.402c-3.932-4.716-3.41-9.96-3.41-9.96
							c-5.496,1.574-9.166,6.289-9.166,6.289c0.525-9.693,5.5-12.311,5.5-12.311c-1.043-1.045-4.715-0.53-4.715-0.53
							c-14.414,0.788-18.602,13.894-18.602,13.894c-2.102-2.361,0.26-10.479,0.26-10.479c-16.424,3.786-27.969,17.32-28.766,18.279
							c-11.059,12.005-6.584,34.814-4.342,43.479c-2.494,1.644-4.223,5.158-4.223,9.24c0,5.487,3.117,9.952,7.023,10.191
							c0.156,0.033,0.297,0.062,0.428,0.096c0.801,13.013,5.494,21.272,11.09,26.531v18.008l-0.107-0.468L906,40.489
							c-0.076-0.39-0.141-0.779-0.188-1.186c-0.059,0.452,0.035,0.905,0.145,1.374l-1.389,6.48h-27.518v0.289
							c-14.76,0.033-27.307,11.945-28.242,27.017c-0.119,0.232-0.182,0.513-0.182,0.825v37.945c0,1.263,1.006,2.792,2.514,2.792h3.1
							c-1.24,13.634-1.039,30.793,0.904,49.307c4.51,42.926,16.686,76.844,27.195,75.738c7.496-0.794,12.119-19.176,12.518-45.231
							h66.318c0.406,26.056,5.02,44.438,12.518,45.231c10.506,1.105,22.682-32.812,27.195-75.738
							c1.945-18.514,2.145-35.673,0.902-49.307h4.172c1.512,0,2.283-1.529,2.283-2.792V76.131H1008.354z M960.872-24.417
							l0.033-2.361c0.025,0.833,0.057,1.629,0.094,2.346C960.956-24.433,960.911-24.433,960.872-24.417z"/>
					</g>
				</g>
			</g>
			<g display="inline">
				<g>
					<g>
						<path fill="#6D6E71" d="M83.924,153.458c-0.069-15.489-12.101-28.052-27.439-28.65v-0.32H30.987l-0.004-0.062l-4.823-0.437
							c0.32-1.495,0.485-3.038,0.485-4.613c0-0.935-0.385-1.512-0.498-2.4c-0.031,0.267-0.073,0.532-0.115,0.796V98.922
							c5.16-5.308,9.345-13.396,10.069-25.706c0.078,0.017,0.151,0.031,0.227,0.048c0,0.077,0,0.148,0,0.201
							c0,0,0.427-0.061,0.938-0.187c3.939-0.188,7.096-4.675,7.096-10.191c0-3.975-1.643-7.418-4.029-9.102
							c2.278-8.759,6.994-32.562-5.068-44.398c-2.25-2.401-4.594-4.401-4.594-4.401c-3.922-4.715-3.4-9.951-3.4-9.951
							c-5.502,1.573-9.172,6.279-9.172,6.279c0.521-9.692,5.504-12.311,5.504-12.311c-1.051-1.045-4.716-0.521-4.716-0.521
							C4.474-10.53,0.284,2.565,0.284,2.565C-1.814,0.205,0.548-7.913,0.548-7.913C-15.88-4.126-27.428,9.413-28.228,10.366
							c-11.046,12.007-6.576,34.814-4.342,43.485c-2.49,1.646-4.216,5.152-4.216,9.235c0,5.485,3.114,9.942,7.024,10.191
							c0.156,0.031,0.297,0.069,0.423,0.095c0.804,13.004,5.504,21.271,11.096,26.531v18.007l-0.104-0.452l-0.084,0.357
							c-0.073-0.39-0.136-0.785-0.187-1.183c-0.054,0.45,0.036,0.911,0.149,1.371l-1.391,6.482h-27.516v0.28
							c-14.766,0.047-27.319,11.953-28.245,27.03c-0.117,0.234-0.184,0.507-0.184,0.827v37.938c0,1.261,1.009,2.79,2.517,2.79h3.098
							c-1.239,13.634-1.041,30.795,0.903,49.307c4.511,42.936,16.688,76.844,27.199,75.738c7.487-0.787,12.115-19.168,12.514-45.225
							h66.317c0.404,26.057,5.021,44.438,12.514,45.225c10.516,1.105,22.686-32.803,27.197-75.738
							c1.947-18.512,2.148-35.673,0.908-49.307h4.172c1.513,0,2.279-1.529,2.279-2.79v-37.105H83.924z M36.441,52.911l0.033-2.354
							c0.025,0.834,0.055,1.621,0.095,2.338C36.521,52.895,36.479,52.902,36.441,52.911z"/>
					</g>
					<g>
						<path fill="#6D6E71" d="M253.479,153.458c-0.07-15.489-12.101-28.052-27.439-28.65v-0.32h-25.499l-0.004-0.062l-4.823-0.437
							c0.318-1.495,0.486-3.038,0.486-4.613c0-0.935-0.386-1.512-0.497-2.4c-0.033,0.267-0.075,0.532-0.117,0.796V98.922
							c5.161-5.308,9.345-13.396,10.069-25.706c0.08,0.017,0.151,0.031,0.227,0.048c0,0.077,0,0.148,0,0.201
							c0,0,0.428-0.061,0.938-0.187c3.939-0.188,7.096-4.675,7.096-10.191c0-3.975-1.642-7.418-4.03-9.102
							c2.281-8.759,6.996-32.562-5.067-44.398c-2.25-2.401-4.593-4.401-4.593-4.401c-3.923-4.715-3.404-9.951-3.404-9.951
							c-5.499,1.573-9.168,6.279-9.168,6.279c0.521-9.692,5.504-12.311,5.504-12.311c-1.052-1.045-4.717-0.521-4.717-0.521
							c-14.414,0.788-18.6,13.884-18.6,13.884c-2.102-2.36,0.262-10.479,0.262-10.479c-16.429,3.787-27.975,17.326-28.776,18.279
							c-11.046,12.007-6.576,34.814-4.34,43.485c-2.49,1.646-4.218,5.152-4.218,9.235c0,5.485,3.112,9.942,7.024,10.191
							c0.157,0.031,0.298,0.069,0.423,0.095c0.805,13.004,5.504,21.271,11.094,26.531v18.007l-0.104-0.452l-0.082,0.357
							c-0.073-0.39-0.136-0.785-0.187-1.183c-0.055,0.45,0.036,0.911,0.148,1.371l-1.391,6.482H122.18v0.28
							c-14.766,0.047-27.319,11.953-28.245,27.03c-0.117,0.234-0.184,0.507-0.184,0.827v37.938c0,1.261,1.01,2.79,2.518,2.79h3.098
							c-1.24,13.634-1.041,30.795,0.902,49.307c4.511,42.936,16.688,76.844,27.197,75.738c7.489-0.787,12.117-19.168,12.516-45.225
							h66.317c0.404,26.057,5.022,44.438,12.514,45.225c10.516,1.105,22.686-32.803,27.197-75.738
							c1.95-18.512,2.148-35.673,0.909-49.307h4.172c1.512,0,2.28-1.529,2.28-2.79v-37.105H253.479z M205.995,52.911l0.033-2.354
							c0.025,0.834,0.055,1.621,0.095,2.338C206.075,52.895,206.032,52.902,205.995,52.911z"/>
					</g>
					<g>
						<path fill="#6D6E71" d="M421.038,153.458c-0.069-15.489-12.102-28.052-27.44-28.65v-0.32H368.1l-0.005-0.062l-4.823-0.437
							c0.321-1.495,0.488-3.038,0.488-4.613c0-0.935-0.388-1.512-0.498-2.4c-0.032,0.267-0.075,0.532-0.118,0.796V98.922
							c5.163-5.308,9.348-13.396,10.07-25.706c0.079,0.017,0.152,0.031,0.227,0.048c0,0.077,0,0.148,0,0.201
							c0,0,0.429-0.061,0.939-0.187c3.938-0.188,7.094-4.675,7.094-10.191c0-3.975-1.64-7.418-4.027-9.102
							c2.279-8.759,6.993-32.562-5.07-44.398c-2.247-2.401-4.593-4.401-4.593-4.401c-3.923-4.715-3.401-9.951-3.401-9.951
							c-5.5,1.573-9.171,6.279-9.171,6.279c0.523-9.692,5.506-12.311,5.506-12.311c-1.054-1.045-4.719-0.521-4.719-0.521
							C341.587-10.53,337.4,2.565,337.4,2.565c-2.101-2.36,0.26-10.479,0.26-10.479c-16.426,3.787-27.974,17.326-28.776,18.279
							c-11.045,12.007-6.576,34.814-4.34,43.485c-2.49,1.646-4.216,5.152-4.216,9.235c0,5.485,3.112,9.942,7.024,10.191
							c0.155,0.031,0.298,0.069,0.422,0.095c0.806,13.004,5.504,21.271,11.096,26.531v18.007l-0.105-0.452l-0.084,0.357
							c-0.072-0.39-0.134-0.785-0.184-1.183c-0.057,0.45,0.033,0.911,0.146,1.371l-1.391,6.482h-27.514v0.28
							c-14.768,0.047-27.318,11.953-28.246,27.03c-0.117,0.234-0.185,0.507-0.185,0.827v37.938c0,1.261,1.01,2.79,2.518,2.79h3.098
							c-1.24,13.634-1.039,30.795,0.902,49.307c4.514,42.936,16.688,76.844,27.199,75.738c7.487-0.787,12.116-19.168,12.516-45.225
							h66.315c0.406,26.057,5.022,44.438,12.516,45.225c10.514,1.105,22.685-32.803,27.197-75.738
							c1.948-18.512,2.146-35.673,0.907-49.307h4.174c1.51,0,2.278-1.529,2.278-2.79v-37.105H421.038z M373.556,52.911l0.033-2.354
							c0.022,0.834,0.055,1.621,0.092,2.338C373.637,52.895,373.593,52.902,373.556,52.911z"/>
					</g>
					<g>
						<path fill="#6D6E71" d="M590.592,153.458c-0.072-15.489-12.102-28.052-27.439-28.65v-0.32h-25.5l-0.004-0.062l-4.824-0.437
							c0.322-1.495,0.486-3.038,0.486-4.613c0-0.935-0.385-1.512-0.496-2.4c-0.031,0.267-0.076,0.532-0.117,0.796V98.922
							c5.16-5.308,9.346-13.396,10.07-25.706c0.076,0.017,0.152,0.031,0.225,0.048c0,0.077,0,0.148,0,0.201
							c0,0,0.43-0.061,0.939-0.187c3.941-0.188,7.096-4.675,7.096-10.191c0-3.975-1.641-7.418-4.027-9.102
							c2.277-8.759,6.992-32.562-5.068-44.398c-2.25-2.401-4.596-4.401-4.596-4.401c-3.922-4.715-3.398-9.951-3.398-9.951
							c-5.504,1.573-9.174,6.279-9.174,6.279c0.521-9.692,5.506-12.311,5.506-12.311c-1.051-1.045-4.719-0.521-4.719-0.521
							c-14.41,0.788-18.6,13.884-18.6,13.884c-2.1-2.36,0.262-10.479,0.262-10.479c-16.426,3.787-27.975,17.326-28.775,18.279
							c-11.047,12.007-6.576,34.814-4.342,43.485c-2.488,1.646-4.215,5.152-4.215,9.235c0,5.485,3.115,9.942,7.025,10.191
							c0.156,0.031,0.295,0.069,0.42,0.095c0.807,13.004,5.504,21.271,11.098,26.531v18.007l-0.105-0.452l-0.082,0.357
							c-0.074-0.39-0.137-0.785-0.188-1.183c-0.055,0.45,0.035,0.911,0.148,1.371l-1.391,6.482h-27.514v0.28
							c-14.766,0.047-27.319,11.953-28.247,27.03c-0.117,0.234-0.183,0.507-0.183,0.827v37.938c0,1.261,1.01,2.79,2.516,2.79h3.097
							c-1.238,13.634-1.039,30.795,0.904,49.307c4.512,42.936,16.686,76.844,27.197,75.738c7.49-0.787,12.119-19.168,12.514-45.225
							h66.32c0.404,26.057,5.02,44.438,12.512,45.225c10.518,1.105,22.688-32.803,27.199-75.738
							c1.947-18.512,2.146-35.673,0.908-49.307h4.17c1.512,0,2.281-1.529,2.281-2.79v-37.105H590.592z M543.106,52.911l0.037-2.354
							c0.021,0.834,0.055,1.621,0.094,2.338C543.188,52.895,543.147,52.902,543.106,52.911z"/>
					</g>
					<g>
						<path fill="#6D6E71" d="M762.141,153.458c-0.07-15.489-12.102-28.052-27.439-28.65v-0.32h-25.498l-0.008-0.062l-4.822-0.437
							c0.32-1.495,0.488-3.038,0.488-4.613c0-0.935-0.387-1.512-0.498-2.4c-0.033,0.267-0.074,0.532-0.115,0.796V98.922
							c5.16-5.308,9.344-13.396,10.068-25.706c0.078,0.017,0.15,0.031,0.227,0.048c0,0.077,0,0.148,0,0.201
							c0,0,0.428-0.061,0.938-0.187c3.939-0.188,7.094-4.675,7.094-10.191c0-3.975-1.639-7.418-4.027-9.102
							c2.279-8.759,6.994-32.562-5.068-44.398c-2.248-2.401-4.592-4.401-4.592-4.401c-3.926-4.715-3.402-9.951-3.402-9.951
							c-5.502,1.573-9.17,6.279-9.17,6.279c0.521-9.692,5.506-12.311,5.506-12.311c-1.055-1.045-4.719-0.521-4.719-0.521
							C682.69-10.53,678.5,2.565,678.5,2.565c-2.102-2.36,0.262-10.479,0.262-10.479c-16.424,3.787-27.973,17.326-28.777,18.279
							c-11.043,12.007-6.576,34.814-4.34,43.485c-2.488,1.646-4.213,5.152-4.213,9.235c0,5.485,3.111,9.942,7.021,10.191
							c0.158,0.031,0.297,0.069,0.422,0.095c0.809,13.004,5.506,21.271,11.096,26.531v18.007l-0.105-0.452l-0.08,0.357
							c-0.074-0.39-0.137-0.785-0.188-1.183c-0.055,0.45,0.035,0.911,0.146,1.371l-1.391,6.482H630.84v0.28
							c-14.764,0.047-27.318,11.953-28.246,27.03c-0.115,0.234-0.182,0.507-0.182,0.827v37.938c0,1.261,1.01,2.79,2.518,2.79h3.098
							c-1.24,13.634-1.041,30.795,0.902,49.307c4.512,42.936,16.688,76.844,27.197,75.738c7.488-0.787,12.117-19.168,12.514-45.225
							h66.318c0.404,26.057,5.023,44.438,12.514,45.225c10.516,1.105,22.688-32.803,27.197-75.738
							c1.949-18.512,2.148-35.673,0.91-49.307h4.172c1.512,0,2.279-1.529,2.279-2.79v-37.105H762.141z M714.657,52.911l0.035-2.354
							c0.023,0.834,0.053,1.621,0.092,2.338C714.739,52.895,714.694,52.902,714.657,52.911z"/>
					</g>
					<g>
						<path fill="#6D6E71" d="M931.694,153.458c-0.07-15.489-12.102-28.052-27.439-28.65v-0.32h-25.5l-0.004-0.062l-4.82-0.437
							c0.318-1.495,0.484-3.038,0.484-4.613c0-0.935-0.385-1.512-0.498-2.4c-0.031,0.267-0.076,0.532-0.117,0.796V98.922
							c5.162-5.308,9.348-13.396,10.072-25.706c0.076,0.017,0.15,0.031,0.227,0.048c0,0.077,0,0.148,0,0.201
							c0,0,0.426-0.061,0.938-0.187c3.939-0.188,7.096-4.675,7.096-10.191c0-3.975-1.641-7.418-4.029-9.102
							c2.281-8.759,6.992-32.562-5.068-44.398c-2.25-2.401-4.594-4.401-4.594-4.401c-3.924-4.715-3.402-9.951-3.402-9.951
							c-5.5,1.573-9.172,6.279-9.172,6.279c0.523-9.692,5.506-12.311,5.506-12.311c-1.051-1.045-4.719-0.521-4.719-0.521
							c-14.41,0.788-18.598,13.884-18.598,13.884c-2.1-2.36,0.26-10.479,0.26-10.479c-16.426,3.787-27.971,17.326-28.773,18.279
							c-11.045,12.007-6.576,34.814-4.342,43.485c-2.488,1.646-4.217,5.152-4.217,9.235c0,5.485,3.113,9.942,7.027,10.191
							c0.152,0.031,0.295,0.069,0.418,0.095c0.807,13.004,5.508,21.271,11.098,26.531v18.007l-0.105-0.452l-0.082,0.357
							c-0.072-0.39-0.137-0.785-0.186-1.183c-0.055,0.45,0.033,0.911,0.146,1.371l-1.389,6.482h-27.516v0.28
							c-14.766,0.047-27.318,11.953-28.244,27.03c-0.117,0.234-0.186,0.507-0.186,0.827v37.938c0,1.261,1.008,2.79,2.518,2.79h3.098
							c-1.24,13.634-1.041,30.795,0.902,49.307c4.514,42.936,16.689,76.844,27.199,75.738c7.488-0.787,12.117-19.168,12.514-45.225
							h66.318c0.404,26.057,5.021,44.438,12.514,45.225c10.516,1.105,22.686-32.803,27.197-75.738
							c1.949-18.512,2.146-35.673,0.906-49.307h4.174c1.514,0,2.279-1.529,2.279-2.79v-37.105H931.694z M884.208,52.911l0.039-2.354
							c0.02,0.834,0.051,1.621,0.092,2.338C884.292,52.895,884.249,52.902,884.208,52.911z"/>
					</g>
				</g>
			</g>
			<g>
				<g display="inline">
					<path fill="#58595B" d="M162.581,235.709c-0.068-15.489-12.103-28.051-27.439-28.656v-0.312h-25.499l-0.009-0.062l-4.818-0.436
						c0.316-1.498,0.488-3.033,0.488-4.62c0-0.928-0.391-1.506-0.503-2.402c-0.029,0.274-0.071,0.538-0.117,0.804v-18.857
						c5.167-5.298,9.349-13.387,10.071-25.697c0.078,0.017,0.148,0.031,0.225,0.04c0,0.084,0,0.155,0,0.209
						c0,0,0.429-0.062,0.939-0.188c3.944-0.194,7.103-4.681,7.103-10.19c0-3.974-1.645-7.41-4.032-9.101
						c2.277-8.758,6.993-32.562-5.07-44.399c-2.247-2.4-4.586-4.402-4.586-4.402c-3.934-4.715-3.41-9.957-3.41-9.957
						c-5.5,1.571-9.169,6.287-9.169,6.287c0.528-9.692,5.502-12.311,5.502-12.311c-1.045-1.045-4.714-0.531-4.714-0.531
						c-14.416,0.787-18.603,13.894-18.603,13.894c-2.103-2.362,0.26-10.48,0.26-10.48c-16.424,3.787-27.97,17.322-28.768,18.279
						c-11.059,12.01-6.581,34.816-4.34,43.481c-2.494,1.644-4.222,5.158-4.222,9.24c0,5.484,3.116,9.95,7.021,10.19
						c0.157,0.031,0.296,0.063,0.43,0.095c0.8,13.012,5.494,21.272,11.088,26.533v18.007l-0.105-0.469l-0.079,0.375
						c-0.073-0.39-0.139-0.779-0.187-1.186c-0.057,0.452,0.035,0.904,0.145,1.372l-1.387,6.483H31.278v0.287
						c-14.763,0.031-27.312,11.946-28.242,27.015c-0.121,0.235-0.184,0.516-0.184,0.827v37.945c0,1.264,1.005,2.793,2.513,2.793
						h3.102c-1.241,13.635-1.041,30.791,0.905,49.307c4.507,42.926,16.686,76.844,27.195,75.738
						c7.493-0.797,12.117-19.178,12.516-45.234h66.319c0.404,26.057,5.022,44.438,12.516,45.234
						c10.509,1.105,22.684-32.812,27.195-75.738c1.947-18.516,2.146-35.672,0.902-49.307h4.174c1.511,0,2.283-1.529,2.283-2.793
						v-37.105H162.581z M115.097,135.162l0.035-2.36c0.023,0.834,0.055,1.627,0.094,2.346
						C115.183,135.147,115.136,135.147,115.097,135.162z"/>
				</g>
				<g display="inline">
					<path fill="#58595B" d="M330.14,235.709c-0.069-15.489-12.104-28.051-27.438-28.656v-0.312H277.2l-0.006-0.062l-4.819-0.436
						c0.314-1.498,0.486-3.033,0.486-4.62c0-0.928-0.39-1.506-0.501-2.402c-0.029,0.274-0.073,0.538-0.117,0.804v-18.857
						c5.165-5.298,9.35-13.387,10.07-25.697c0.077,0.017,0.148,0.031,0.226,0.04c0,0.084,0,0.155,0,0.209
						c0,0,0.43-0.062,0.938-0.188c3.943-0.194,7.104-4.681,7.104-10.19c0-3.974-1.644-7.41-4.033-9.101
						c2.276-8.758,6.995-32.562-5.066-44.399c-2.249-2.4-4.591-4.402-4.591-4.402c-3.933-4.715-3.409-9.957-3.409-9.957
						c-5.498,1.571-9.17,6.287-9.17,6.287c0.528-9.692,5.504-12.311,5.504-12.311c-1.045-1.045-4.716-0.531-4.716-0.531
						c-14.413,0.787-18.603,13.894-18.603,13.894c-2.1-2.362,0.262-10.48,0.262-10.48c-16.426,3.787-27.972,17.322-28.768,18.279
						c-11.058,12.01-6.58,34.816-4.34,43.481c-2.496,1.644-4.226,5.158-4.226,9.24c0,5.484,3.118,9.95,7.026,10.19
						c0.155,0.031,0.295,0.063,0.43,0.095c0.798,13.012,5.493,21.272,11.085,26.533v18.007l-0.103-0.469l-0.08,0.375
						c-0.073-0.39-0.14-0.779-0.186-1.186c-0.059,0.452,0.033,0.904,0.145,1.372l-1.389,6.483h-27.518v0.287
						c-14.762,0.031-27.311,11.946-28.24,27.015c-0.122,0.235-0.185,0.516-0.185,0.827v37.945c0,1.264,1.005,2.793,2.513,2.793h3.1
						c-1.239,13.635-1.038,30.791,0.905,49.307c4.507,42.926,16.688,76.844,27.195,75.738c7.495-0.797,12.12-19.178,12.518-45.234
						h66.317c0.406,26.057,5.022,44.438,12.518,45.234c10.508,1.105,22.685-32.812,27.195-75.738
						c1.948-18.516,2.145-35.672,0.902-49.307h4.172c1.513,0,2.283-1.529,2.283-2.793v-37.105H330.14z M282.656,135.162l0.034-2.36
						c0.024,0.834,0.056,1.627,0.094,2.346C282.742,135.147,282.696,135.147,282.656,135.162z"/>
				</g>
				<g display="inline">
					<path fill="#58595B" d="M505.678,235.709c-0.068-15.489-12.105-28.051-27.439-28.656v-0.312h-25.498l-0.01-0.062l-4.818-0.436
						c0.316-1.498,0.488-3.033,0.488-4.62c0-0.928-0.393-1.506-0.504-2.402c-0.029,0.274-0.07,0.538-0.117,0.804v-18.857
						c5.168-5.298,9.35-13.387,10.072-25.697c0.076,0.017,0.146,0.031,0.225,0.04c0,0.084,0,0.155,0,0.209
						c0,0,0.43-0.062,0.939-0.188c3.941-0.194,7.104-4.681,7.104-10.19c0-3.974-1.646-7.41-4.033-9.101
						c2.275-8.758,6.994-32.562-5.07-44.399c-2.246-2.4-4.588-4.402-4.588-4.402c-3.932-4.715-3.408-9.957-3.408-9.957
						c-5.498,1.571-9.168,6.287-9.168,6.287c0.525-9.692,5.502-12.311,5.502-12.311c-1.043-1.045-4.715-0.531-4.715-0.531
						c-14.416,0.787-18.604,13.894-18.604,13.894c-2.101-2.362,0.262-10.48,0.262-10.48c-16.424,3.787-27.97,17.322-28.769,18.279
						c-11.058,12.01-6.58,34.816-4.341,43.481c-2.492,1.644-4.223,5.158-4.223,9.24c0,5.484,3.116,9.95,7.024,10.19
						c0.157,0.031,0.296,0.063,0.43,0.095c0.798,13.012,5.491,21.272,11.088,26.533v18.007l-0.105-0.469l-0.079,0.375
						c-0.073-0.39-0.141-0.779-0.187-1.186c-0.059,0.452,0.035,0.904,0.145,1.372l-1.389,6.483h-27.516v0.287
						c-14.763,0.031-27.311,11.946-28.242,27.015c-0.121,0.235-0.185,0.516-0.185,0.827v37.945c0,1.264,1.008,2.793,2.516,2.793h3.1
						c-1.242,13.635-1.041,30.791,0.902,49.307c4.51,42.926,16.688,76.844,27.195,75.738c7.496-0.797,12.12-19.178,12.519-45.234
						h66.316c0.406,26.057,5.023,44.438,12.52,45.234c10.508,1.105,22.682-32.812,27.193-75.738
						c1.949-18.516,2.148-35.672,0.906-49.307h4.17c1.514,0,2.283-1.529,2.283-2.793v-37.105H505.678z M458.194,135.162l0.035-2.36
						c0.023,0.834,0.055,1.627,0.092,2.346C458.28,135.147,458.233,135.147,458.194,135.162z"/>
				</g>
				<g display="inline">
					<path fill="#58595B" d="M673.237,235.709c-0.068-15.489-12.104-28.051-27.438-28.656v-0.312h-25.5l-0.008-0.062l-4.818-0.436
						c0.314-1.498,0.484-3.033,0.484-4.62c0-0.928-0.389-1.506-0.502-2.402c-0.027,0.274-0.068,0.538-0.117,0.804v-18.857
						c5.166-5.298,9.352-13.387,10.072-25.697c0.08,0.017,0.148,0.031,0.227,0.04c0,0.084,0,0.155,0,0.209
						c0,0,0.426-0.062,0.938-0.188c3.943-0.194,7.102-4.681,7.102-10.19c0-3.974-1.643-7.41-4.031-9.101
						c2.275-8.758,6.992-32.562-5.068-44.399c-2.25-2.4-4.59-4.402-4.59-4.402c-3.93-4.715-3.408-9.957-3.408-9.957
						c-5.498,1.571-9.168,6.287-9.168,6.287c0.523-9.692,5.5-12.311,5.5-12.311c-1.043-1.045-4.711-0.531-4.711-0.531
						c-14.416,0.787-18.605,13.894-18.605,13.894c-2.1-2.362,0.262-10.48,0.262-10.48c-16.426,3.787-27.969,17.322-28.77,18.279
						c-11.057,12.01-6.578,34.816-4.34,43.481c-2.494,1.644-4.221,5.158-4.221,9.24c0,5.484,3.113,9.95,7.021,10.19
						c0.156,0.031,0.297,0.063,0.43,0.095c0.799,13.012,5.492,21.272,11.088,26.533v18.007l-0.105-0.469l-0.078,0.375
						c-0.072-0.39-0.141-0.779-0.186-1.186c-0.059,0.452,0.033,0.904,0.143,1.372l-1.385,6.483h-27.52v0.287
						c-14.762,0.031-27.311,11.946-28.24,27.015c-0.123,0.235-0.184,0.516-0.184,0.827v37.945c0,1.264,1.004,2.793,2.512,2.793
						h3.102c-1.244,13.635-1.039,30.791,0.904,49.307c4.506,42.926,16.688,76.844,27.193,75.738
						c7.496-0.797,12.121-19.178,12.52-45.234h66.316c0.404,26.057,5.023,44.438,12.518,45.234
						c10.508,1.105,22.682-32.812,27.193-75.738c1.949-18.516,2.146-35.672,0.904-49.307h4.172c1.514,0,2.283-1.529,2.283-2.793
						v-37.105H673.237z M625.754,135.162l0.033-2.36c0.023,0.834,0.055,1.627,0.094,2.346
						C625.838,135.147,625.792,135.147,625.754,135.162z"/>
				</g>
				<g display="inline">
					<path fill="#58595B" d="M840.797,235.709c-0.072-15.489-12.105-28.051-27.441-28.656v-0.312h-25.498l-0.008-0.062l-4.82-0.436
						c0.316-1.498,0.486-3.033,0.486-4.62c0-0.928-0.387-1.506-0.5-2.402c-0.027,0.274-0.072,0.538-0.117,0.804v-18.857
						c5.166-5.298,9.35-13.387,10.072-25.697c0.076,0.017,0.146,0.031,0.225,0.04c0,0.084,0,0.155,0,0.209
						c0,0,0.428-0.062,0.939-0.188c3.941-0.194,7.102-4.681,7.102-10.19c0-3.974-1.645-7.41-4.031-9.101
						c2.273-8.758,6.992-32.562-5.068-44.399c-2.25-2.4-4.592-4.402-4.592-4.402c-3.93-4.715-3.408-9.957-3.408-9.957
						c-5.498,1.571-9.168,6.287-9.168,6.287c0.527-9.692,5.502-12.311,5.502-12.311c-1.045-1.045-4.715-0.531-4.715-0.531
						c-14.414,0.787-18.602,13.894-18.602,13.894c-2.1-2.362,0.26-10.48,0.26-10.48c-16.426,3.787-27.971,17.322-28.768,18.279
						c-11.059,12.01-6.58,34.816-4.34,43.481c-2.494,1.644-4.225,5.158-4.225,9.24c0,5.484,3.117,9.95,7.025,10.19
						c0.154,0.031,0.297,0.063,0.43,0.095c0.797,13.012,5.492,21.272,11.086,26.533v18.007l-0.104-0.469l-0.078,0.375
						c-0.076-0.39-0.141-0.779-0.188-1.186c-0.059,0.452,0.035,0.904,0.145,1.372l-1.387,6.483h-27.518v0.287
						c-14.762,0.031-27.312,11.946-28.242,27.015c-0.119,0.235-0.186,0.516-0.186,0.827v37.945c0,1.264,1.006,2.793,2.514,2.793
						h3.102c-1.244,13.635-1.039,30.791,0.904,49.307c4.508,42.926,16.686,76.844,27.193,75.738
						c7.496-0.797,12.123-19.178,12.518-45.234h66.32c0.402,26.057,5.02,44.438,12.518,45.234
						c10.506,1.105,22.682-32.812,27.193-75.738c1.947-18.516,2.146-35.672,0.902-49.307h4.174c1.512,0,2.283-1.529,2.283-2.793
						v-37.105H840.797z M793.313,135.162l0.035-2.36c0.023,0.834,0.053,1.627,0.094,2.346
						C793.397,135.147,793.352,135.147,793.313,135.162z"/>
				</g>
				<g display="inline">
					<path fill="#58595B" d="M1008.354,235.709c-0.068-15.489-12.104-28.051-27.438-28.656v-0.312h-25.5l-0.01-0.062l-4.818-0.436
						c0.316-1.498,0.488-3.033,0.488-4.62c0-0.928-0.391-1.506-0.502-2.402c-0.027,0.274-0.07,0.538-0.119,0.804v-18.857
						c5.168-5.298,9.352-13.387,10.072-25.697c0.078,0.017,0.148,0.031,0.227,0.04c0,0.084,0,0.155,0,0.209
						c0,0,0.43-0.062,0.938-0.188c3.945-0.194,7.105-4.681,7.105-10.19c0-3.974-1.646-7.41-4.035-9.101
						c2.277-8.758,6.996-32.562-5.068-44.399c-2.246-2.4-4.588-4.402-4.588-4.402c-3.932-4.715-3.41-9.957-3.41-9.957
						c-5.496,1.571-9.166,6.287-9.166,6.287c0.525-9.692,5.5-12.311,5.5-12.311c-1.043-1.045-4.715-0.531-4.715-0.531
						c-14.414,0.787-18.602,13.894-18.602,13.894c-2.102-2.362,0.26-10.48,0.26-10.48c-16.424,3.787-27.969,17.322-28.766,18.279
						c-11.059,12.01-6.584,34.816-4.342,43.481c-2.494,1.644-4.223,5.158-4.223,9.24c0,5.484,3.117,9.95,7.023,10.19
						c0.156,0.031,0.297,0.063,0.428,0.095c0.801,13.012,5.494,21.272,11.09,26.533v18.007l-0.107-0.469L906,200.07
						c-0.076-0.39-0.141-0.779-0.188-1.186c-0.059,0.452,0.035,0.904,0.145,1.372l-1.389,6.483h-27.518v0.287
						c-14.76,0.031-27.307,11.946-28.242,27.015c-0.119,0.235-0.182,0.516-0.182,0.827v37.945c0,1.264,1.006,2.793,2.514,2.793h3.1
						c-1.24,13.635-1.039,30.791,0.904,49.307c4.51,42.926,16.686,76.844,27.195,75.738c7.496-0.797,12.119-19.178,12.518-45.234
						h66.318c0.406,26.057,5.02,44.438,12.518,45.234c10.506,1.105,22.682-32.812,27.195-75.738
						c1.945-18.516,2.145-35.672,0.902-49.307h4.172c1.512,0,2.283-1.529,2.283-2.793v-37.105H1008.354z M960.872,135.162
						l0.033-2.36c0.025,0.834,0.057,1.627,0.094,2.346C960.956,135.147,960.911,135.147,960.872,135.162z"/>
				</g>
			</g>
		</g>
		<rect x="-433.774" y="337.371" fill="#485E5A" width="3252.246" height="260.598"/>
	</g>
	<g clip-path="url(#SVGID_2_)">
		<rect x="-39.762" y="-65.552" display="none" fill="#94D7F2" width="937.128" height="569.898"/>
		<g>
			<g>
				<g>
					<path fill="#8C8C8C" d="M-4.799,205.414c0-53.441,33.71-96.758,75.314-96.758c41.581,0,75.285,43.316,75.285,96.758
						c0,7.71-0.724,15.211-2.048,22.392H-2.742C-4.076,220.625-4.799,213.124-4.799,205.414z"/>
					<path fill="#8C8C8C" d="M27.282,72.121c0,23.875,19.355,43.219,43.233,43.219c23.854,0,43.194-19.344,43.194-43.219
						c0-23.867-19.341-43.213-43.194-43.213C46.637,28.908,27.282,48.254,27.282,72.121z"/>
				</g>
			</g>
			<g>
				<path fill="#8C8C8C" d="M141.201,205.414c0-53.441,33.709-96.758,75.314-96.758c41.581,0,75.286,43.317,75.286,96.758
					c0,7.71-0.724,15.211-2.048,22.392H143.258C141.924,220.625,141.201,213.124,141.201,205.414z"/>
				<path fill="#8C8C8C" d="M173.282,72.121c0,23.875,19.355,43.219,43.233,43.219c23.854,0,43.194-19.344,43.194-43.219
					c0-23.867-19.341-43.213-43.194-43.213C192.637,28.908,173.282,48.254,173.282,72.121z"/>
			</g>
			<g>
				<path fill="#8C8C8C" d="M287.201,205.414c0-53.44,33.709-96.758,75.312-96.758c41.582,0,75.286,43.317,75.286,96.758
					c0,7.71-0.724,15.212-2.048,22.392H289.258C287.925,220.625,287.201,213.124,287.201,205.414z"/>
				<path fill="#8C8C8C" d="M319.282,72.121c0,23.875,19.354,43.219,43.231,43.219c23.854,0,43.195-19.343,43.195-43.219
					c0-23.867-19.341-43.213-43.195-43.213C338.637,28.908,319.282,48.254,319.282,72.121z"/>
			</g>
			<g>
				<path fill="#8C8C8C" d="M433.201,205.414c0-53.44,33.708-96.758,75.312-96.758c41.581,0,75.286,43.317,75.286,96.758
					c0,7.71-0.725,15.212-2.048,22.392H435.258C433.924,220.625,433.201,213.124,433.201,205.414z"/>
				<path fill="#8C8C8C" d="M465.282,72.121c0,23.875,19.354,43.219,43.232,43.219c23.854,0,43.194-19.343,43.194-43.219
					c0-23.867-19.34-43.213-43.194-43.213C484.636,28.908,465.282,48.254,465.282,72.121z"/>
			</g>
			<g>
				<path fill="#8C8C8C" d="M579.202,205.414c0-53.441,33.708-96.758,75.312-96.758c41.582,0,75.287,43.316,75.287,96.758
					c0,7.71-0.725,15.211-2.049,22.392H581.258C579.924,220.625,579.202,213.124,579.202,205.414z"/>
				<path fill="#8C8C8C" d="M611.282,72.121c0,23.875,19.354,43.219,43.231,43.219c23.854,0,43.195-19.344,43.195-43.219
					c0-23.867-19.34-43.213-43.195-43.213C630.636,28.908,611.282,48.254,611.282,72.121z"/>
			</g>
			<g>
				<g>
					<path fill="#8C8C8C" d="M725.202,205.414c0-53.441,33.707-96.758,75.311-96.758c41.582,0,75.287,43.316,75.287,96.758
						c0,7.71-0.725,15.211-2.049,22.392H727.258C725.924,220.625,725.202,213.124,725.202,205.414z"/>
					<path fill="#8C8C8C" d="M757.282,72.121c0,23.875,19.354,43.219,43.23,43.219c23.855,0,43.195-19.344,43.195-43.219
						c0-23.867-19.34-43.213-43.195-43.213C776.635,28.908,757.282,48.254,757.282,72.121z"/>
				</g>
			</g>
		</g>
		<rect x="-21.5" y="203.5" fill="#8C8C8C" width="915.134" height="94"/>
		<g>
			<g>
				<g>
					<path fill="#414042" d="M-4.799,309.414c0-53.441,33.71-96.758,75.314-96.758c41.581,0,75.285,43.316,75.285,96.758
						c0,7.71-0.724,15.211-2.048,22.392H-2.742C-4.076,324.625-4.799,317.124-4.799,309.414z"/>
					<path fill="#414042" d="M27.282,176.121c0,23.875,19.355,43.219,43.233,43.219c23.854,0,43.194-19.344,43.194-43.219
						c0-23.867-19.341-43.213-43.194-43.213C46.637,132.908,27.282,152.254,27.282,176.121z"/>
				</g>
			</g>
			<g>
				<path fill="#414042" d="M141.201,309.414c0-53.442,33.709-96.758,75.314-96.758c41.581,0,75.286,43.316,75.286,96.758
					c0,7.71-0.724,15.21-2.048,22.391H143.258C141.924,324.625,141.201,317.124,141.201,309.414z"/>
				<path fill="#414042" d="M173.282,176.121c0,23.875,19.355,43.218,43.233,43.218c23.854,0,43.194-19.344,43.194-43.218
					c0-23.867-19.341-43.213-43.194-43.213C192.637,132.908,173.282,152.254,173.282,176.121z"/>
			</g>
			<g>
				<path fill="#414042" d="M287.201,309.415c0-53.442,33.709-96.758,75.312-96.758c41.582,0,75.286,43.316,75.286,96.758
					c0,7.71-0.724,15.21-2.048,22.391H289.258C287.925,324.625,287.201,317.125,287.201,309.415z"/>
				<path fill="#414042" d="M319.282,176.121c0,23.875,19.354,43.218,43.231,43.218c23.854,0,43.195-19.343,43.195-43.218
					c0-23.867-19.341-43.213-43.195-43.213C338.637,132.908,319.282,152.254,319.282,176.121z"/>
			</g>
			<g>
				<path fill="#414042" d="M433.201,309.415c0-53.442,33.708-96.758,75.312-96.758c41.581,0,75.286,43.316,75.286,96.758
					c0,7.71-0.725,15.21-2.048,22.391H435.258C433.924,324.625,433.201,317.125,433.201,309.415z"/>
				<path fill="#414042" d="M465.282,176.121c0,23.875,19.354,43.218,43.232,43.218c23.854,0,43.194-19.343,43.194-43.218
					c0-23.867-19.34-43.213-43.194-43.213C484.636,132.908,465.282,152.254,465.282,176.121z"/>
			</g>
			<g>
				<path fill="#414042" d="M579.202,309.414c0-53.442,33.708-96.758,75.312-96.758c41.582,0,75.287,43.316,75.287,96.758
					c0,7.71-0.725,15.21-2.049,22.392H581.258C579.924,324.625,579.202,317.124,579.202,309.414z"/>
				<path fill="#414042" d="M611.282,176.122c0,23.874,19.354,43.218,43.231,43.218c23.854,0,43.195-19.344,43.195-43.218
					c0-23.867-19.34-43.213-43.195-43.213C630.636,132.909,611.282,152.254,611.282,176.122z"/>
			</g>
			<g>
				<g>
					<path fill="#414042" d="M725.202,309.414c0-53.441,33.707-96.758,75.311-96.758c41.582,0,75.287,43.316,75.287,96.758
						c0,7.71-0.725,15.211-2.049,22.392H727.258C725.924,324.625,725.202,317.124,725.202,309.414z"/>
					<path fill="#414042" d="M757.282,176.121c0,23.875,19.354,43.219,43.23,43.219c23.855,0,43.195-19.344,43.195-43.219
						c0-23.867-19.34-43.213-43.195-43.213C776.635,132.908,757.282,152.254,757.282,176.121z"/>
				</g>
			</g>
		</g>
		<rect x="-0.625" y="328.179" fill="#485E5A" width="876.125" height="176.826"/>
	</g>
	<g clip-path="url(#SVGID_2_)">
		<path fill="#776537" d="M329.084,207.029c0,0-8.651,3.156-8.562,17.767c0.029,4.893,2.63,17.769-6.585,18.442
			c0,0,11.188,1.31,14.479-5.931c0,0-0.653,13.171-5.925,16.453c0,0,30.939,13.165,36.211-16.453l-2.635-43.449
			C356.067,193.858,336.972,185.958,329.084,207.029z"/>
		<path fill="#776537" d="M318.151,167.472c0,0-9.146,1.074-15.637-12.016c-2.178-4.381-5.648-17.05-14.181-13.506
			c0,0,9.405-6.204,15.599-1.217c0,0-6.509-11.469-12.693-12.028c0,0,21.71-25.679,39.742-1.598l17.194,39.987
			C348.176,167.095,334.676,182.741,318.151,167.472z"/>
		<path fill="#776537" d="M306.935,116.843c0,0-8.918-2.306-10.233-16.857c-0.444-4.873,0.9-17.94-8.336-17.722
			c0,0,11.013-2.382,14.983,4.509c0,0-1.923-13.048-7.485-15.806c0,0,29.526-16.089,37.631,12.884l1.567,43.5
			C335.062,127.351,316.815,137.056,306.935,116.843z"/>
		<path fill="#776537" d="M331.628,85.005c0,0-7.537-1.95-8.651-14.25c-0.375-4.122,0.763-15.167-7.045-14.983
			c0,0,9.307-2.013,12.666,3.812c0,0-1.625-11.031-6.329-13.362c0,0,24.963-13.603,31.813,10.893l1.325,36.774
			C355.407,93.889,339.982,102.093,331.628,85.005z"/>
		<path fill="#776537" d="M349.83,61.718c0,0-4.716-5.273,0.642-15.134c1.792-3.305,8.22-11.081,2.224-14.878
			c0,0,8.051,3.171,7.655,9.268c0,0,4.328-9.159,1.949-13.291c0,0,25.728,2.295,18.561,24.267l-17.529,28.469
			C363.331,80.418,347.535,78.846,349.83,61.718z"/>
		<path fill="#776537" d="M529.168,167.472c0,0,9.146,1.074,15.637-12.016c2.178-4.381,5.648-17.05,14.182-13.506
			c0,0-9.406-6.204-15.6-1.217c0,0,6.51-11.469,12.693-12.028c0,0-21.709-25.679-39.742-1.598l-17.193,39.987
			C499.145,167.095,512.645,182.741,529.168,167.472z"/>
		<path fill="#776537" d="M540.385,116.843c0,0,8.918-2.306,10.234-16.857c0.443-4.873-0.9-17.94,8.336-17.722
			c0,0-11.014-2.382-14.984,4.509c0,0,1.924-13.048,7.486-15.806c0,0-29.527-16.089-37.631,12.884l-1.568,43.5
			C512.258,127.351,530.504,137.056,540.385,116.843z"/>
		<path fill="#776537" d="M515.692,85.005c0,0,7.537-1.95,8.652-14.25c0.375-4.122-0.764-15.167,7.045-14.983
			c0,0-9.307-2.013-12.666,3.812c0,0,1.625-11.031,6.328-13.362c0,0-24.963-13.603-31.812,10.893l-1.326,36.774
			C491.913,93.889,507.338,102.093,515.692,85.005z"/>
		<path fill="#776537" d="M497.491,61.718c0,0,4.715-5.273-0.643-15.134c-1.791-3.305-8.219-11.081-2.223-14.878
			c0,0-8.051,3.171-7.656,9.268c0,0-4.328-9.159-1.949-13.291c0,0-25.727,2.295-18.561,24.267l17.529,28.469
			C483.989,80.418,499.786,78.846,497.491,61.718z"/>
		<path fill="#776537" d="M515.338,207.029c0,0,8.645,3.156,8.553,17.767c-0.025,4.893-2.627,17.769,6.594,18.442
			c0,0-11.197,1.31-14.484-5.931c0,0,0.652,13.171,5.924,16.453c0,0-30.939,13.165-36.211-16.453l2.643-43.449
			C488.356,193.858,507.446,185.958,515.338,207.029z"/>
		<g>
			<polygon fill="#B7B7B7" points="318.323,279.766 339.395,277.139 342.676,300.838 			"/>
			<polygon fill="#B7B7B7" points="526.024,279.766 504.958,277.139 501.663,300.838 			"/>
			<path fill="#F4B07D" d="M546.981,422.369H298.573c0,0,40.668-150.172,40.668-222.145c0-41.581,166.341-41.581,166.341,0
				C505.583,304.24,546.981,422.369,546.981,422.369z"/>
			<g>
				<path fill="#776537" d="M424.138,58.58c0,0-32.303-45.257-92.181,0.695c-24.206,18.568-34.888,95.729,5.835,136.466
					l88.426-98.876L424.138,58.58z"/>
				<path fill="#776537" d="M424.454,58.58c0,0,32.296-45.257,92.169,0.695c24.193,18.568,34.883,95.729-5.848,136.466
					l-88.41-98.876L424.454,58.58z"/>
				<path fill="#F4B07D" d="M500.657,110.021c0,0-27.969-35.768-81.152-35.001c-52.986-0.767-75.239,35.001-75.239,35.001
					c-18.598,30.427-13.037,124.434-13.037,124.434c0,46.514,64.514,83.582,91.614,83.582c27.097,0,91.835-34.65,91.835-83.582
					C514.678,234.455,519.247,140.448,500.657,110.021z"/>
				<g>
					<path opacity="0.1" fill="#232222" d="M464.475,266.574c0,0-6.791,25-43.199,25c-35.957,0-43.197-25-43.197-25
						s13.156,18.416,44.737,18.416C422.816,284.99,443.852,287.197,464.475,266.574z"/>
				</g>
				<path fill="#F4B07D" d="M338.818,178.324c0,0-17.404-28.535-23.673-2.079c-1.939,8.145-2.094,52.214,22.969,24.374"/>
				
					<path fill="none" stroke="#C18963" stroke-width="2.785" stroke-linecap="round" stroke-linejoin="round" stroke-miterlimit="10" d="
					M327.677,179.026c0,0-9.052,6.959,0,17.403"/>
				<path fill="#F4B07D" d="M504.1,178.324c0,0,17.416-28.535,23.672-2.079c1.941,8.145,2.088,52.214-22.969,24.374"/>
				
					<path fill="none" stroke="#C18963" stroke-width="2.785" stroke-linecap="round" stroke-linejoin="round" stroke-miterlimit="10" d="
					M515.254,179.026c0,0,9.039,6.959,0,17.403"/>
				<path fill="#776537" d="M328.472,79.461c0,0-10.22,61.05-8.827,61.515c1.393,0.463,49.213-24.839,49.213-24.839l55.478-19.271
					l82.375,25.302l16.719-6.96L514.6,71.576l-80.307-8.351l-63.118,6.957L328.472,79.461z"/>
				<path opacity="0.3" fill="#231F20" d="M423.849,96.865c0,0,33.427,77.516,107.699,37.84c0,0-21.361-11.554-24.838-26.166"/>
				<path opacity="0.3" fill="#231F20" d="M423.38,96.28c0,0-20.098,58.548-93.291,38.953c0,0,16.775-8.069,22.975-21.915"/>
				<path fill="#776537" d="M424.335,96.865c0,0,31.324,67.079,101.871,36.912c0,0-16.02-11.843-19.496-26.462"/>
				<path fill="#776537" d="M423.38,96.28c0,0-25.594,47.436-85.939,37.301c0,0,13.186-11.077,15.399-23.882"/>
				<g>
					<g opacity="0.2">
						<path fill="#231F20" d="M445.768,189.726c0.587,0.576,1.067,1.143,1.541,1.767c0.469,0.619,0.888,1.282,1.255,1.993
							c0.364,0.711,0.673,1.476,0.868,2.305c0.194,0.826,0.271,1.726,0.141,2.634c-0.067,0.453-0.177,0.903-0.343,1.336
							c-0.166,0.428-0.366,0.851-0.62,1.223c-0.237,0.392-0.535,0.721-0.828,1.049c-0.307,0.308-0.619,0.61-0.955,0.859
							c-0.66,0.533-1.367,0.931-2.077,1.305l-1.077,0.489l-1.089,0.416l-0.069,0.027l-0.19,0.035
							c-0.862,0.16-1.843,0.421-2.733,0.721c-0.903,0.306-1.776,0.674-2.587,1.108c-0.807,0.433-1.578,0.912-2.187,1.492
							c-0.636,0.589-1.007,1.131-1.597,2.101l-0.471,0.702c-0.149,0.234-0.32,0.47-0.535,0.708l-0.61,0.706
							c-0.228,0.217-0.485,0.415-0.73,0.62c-0.479,0.444-1.039,0.715-1.592,1.007c-0.55,0.333-1.115,0.472-1.678,0.657l-0.847,0.265
							c-0.28,0.069-0.555,0.099-0.833,0.149l-1.666,0.268l-1.628,0.089l-0.813,0.039l-0.407,0.02l-0.204,0.009l-0.051,0.002
							l-0.13-0.004l-0.096-0.005c-1.042-0.067-2.014-0.062-3.115-0.189c-1.142-0.182-2.291-0.3-3.401-0.708l-0.837-0.263
							c-0.276-0.116-0.55-0.266-0.824-0.4l-0.818-0.42c-0.264-0.16-0.508-0.369-0.76-0.555c-1.041-0.731-1.781-1.762-2.421-2.675
							l-0.423-0.661l-0.106-0.165l-0.053-0.083c-0.015-0.021,0.105,0.152,0.051,0.074l-0.007-0.009l-0.014-0.02l-0.029-0.039
							l-0.228-0.311l-0.228-0.311c-0.074-0.096-0.13-0.132-0.193-0.202c-0.138-0.126-0.209-0.25-0.391-0.392
							c-0.608-0.581-1.381-1.059-2.185-1.495c-0.81-0.435-1.683-0.803-2.586-1.11c-0.89-0.301-1.871-0.562-2.732-0.722l-0.189-0.035
							l-0.07-0.026l-1.088-0.415l-1.078-0.489c-0.709-0.374-1.417-0.771-2.077-1.304c-0.336-0.249-0.649-0.55-0.957-0.858
							c-0.292-0.328-0.591-0.656-0.829-1.048c-0.253-0.373-0.455-0.795-0.621-1.223c-0.166-0.432-0.275-0.883-0.344-1.335
							c-0.131-0.908-0.055-1.808,0.139-2.635c0.195-0.829,0.502-1.594,0.867-2.306c0.367-0.711,0.786-1.375,1.255-1.994
							c0.231-0.312,0.477-0.61,0.729-0.903c0.259-0.298,0.503-0.563,0.817-0.871c0.45-0.44,1.172-0.432,1.613,0.019
							c0.421,0.43,0.432,1.109,0.039,1.553l-0.038,0.042c-0.186,0.209-0.414,0.485-0.608,0.745
							c-0.199,0.266-0.394,0.536-0.572,0.813c-0.359,0.555-0.69,1.122-0.951,1.704c-0.528,1.157-0.786,2.373-0.577,3.396
							c0.055,0.255,0.127,0.501,0.232,0.735c0.108,0.233,0.225,0.462,0.391,0.673c0.137,0.223,0.339,0.42,0.525,0.623
							c0.209,0.192,0.416,0.387,0.665,0.557c0.468,0.36,1.03,0.652,1.597,0.933l0.897,0.374l0.936,0.325l-0.259-0.062
							c1.164,0.179,2.179,0.427,3.247,0.748c1.052,0.322,2.092,0.721,3.108,1.227c1.013,0.511,2.007,1.124,2.905,1.945
							c0.43,0.39,1.02,1.017,1.254,1.371l0.231,0.309l0.115,0.161l0.052,0.079l0.104,0.158l0.414,0.632
							c0.545,0.748,1.032,1.424,1.697,1.858c0.164,0.114,0.306,0.251,0.481,0.354l0.56,0.27c0.188,0.088,0.364,0.192,0.56,0.274
							l0.638,0.184c0.828,0.309,1.739,0.375,2.622,0.527c0.938,0.107,2.028,0.099,3.035,0.154l2.826-0.109l1.378-0.211
							c0.227-0.039,0.466-0.059,0.684-0.11l0.624-0.195c0.412-0.131,0.859-0.224,1.187-0.443c0.356-0.187,0.739-0.345,1.01-0.619
							c0.148-0.125,0.308-0.232,0.454-0.364l0.397-0.46c0.137-0.138,0.27-0.315,0.398-0.515l0.393-0.573
							c0.473-0.785,1.271-1.956,2.176-2.737c0.899-0.821,1.894-1.432,2.906-1.944c1.017-0.505,2.058-0.903,3.109-1.224
							c1.067-0.32,2.083-0.567,3.247-0.746l-0.26,0.062l0.935-0.325l0.896-0.374c0.567-0.281,1.129-0.573,1.596-0.934
							c0.25-0.169,0.456-0.365,0.665-0.557c0.186-0.203,0.388-0.4,0.524-0.623c0.163-0.211,0.281-0.44,0.389-0.673
							c0.104-0.234,0.177-0.48,0.231-0.735c0.208-1.022-0.05-2.238-0.577-3.395c-0.261-0.582-0.592-1.148-0.951-1.703
							c-0.356-0.546-0.776-1.104-1.186-1.564l-0.025-0.028c-0.42-0.47-0.379-1.191,0.092-1.611
							C444.66,189.286,445.343,189.31,445.768,189.726z"/>
					</g>
					<path fill="#593B2E" d="M354.618,157.626c0,0,20.299-13.278,43.479-2.327c0,0,7.745-2.812,2.187-6.507
						C400.283,148.792,372.261,138.417,354.618,157.626z"/>
					
						<path fill="#C18963" stroke="#C18963" stroke-width="3.5245" stroke-linecap="round" stroke-linejoin="round" stroke-miterlimit="10" d="
						M405.701,226.469c9.95-3.568,40.456-7.969,42.276-0.701c1.898,7.519-10.502,55.297-29.234,42.809
						C412.309,264.287,395.91,229.981,405.701,226.469z"/>
					<path fill="#2E230E" d="M391.778,159.073c0,0,7.541,16.7-5.699,22.554C386.079,181.627,404.547,177.116,391.778,159.073z"/>
					<path fill="#2E230E" d="M363.138,171.993c0,0,22.61-4.829,31.768,0.695C394.905,172.688,401.632,160.169,363.138,171.993z"/>
					<path fill="#593B2E" d="M487.315,157.626c0,0-20.297-13.278-43.479-2.327c0,0-7.736-2.812-2.189-6.507
						C441.647,148.792,469.668,138.417,487.315,157.626z"/>
					<path fill="#2E230E" d="M450.165,159.073c0,0-7.551,16.7,5.691,22.554C455.856,181.627,437.393,177.116,450.165,159.073z"/>
					<path fill="#2E230E" d="M478.792,171.993c0,0-22.598-4.829-31.771,0.695C447.02,172.688,440.311,160.169,478.792,171.993z"/>
				</g>
			</g>
		</g>
		
			<path fill="none" stroke="#F4B07D" stroke-width="50.8733" stroke-linecap="round" stroke-linejoin="round" stroke-miterlimit="10" d="
			M333.526,350.326c0,0-97.247-70.551-105.654-146.172c-8.672-78.148-4.335-96.964-4.335-138.356"/>
		<path fill="none" stroke="#282828" stroke-width="52.0972" stroke-linejoin="round" stroke-miterlimit="10" d="M333.526,350.326
			c0,0-97.247-70.551-105.654-146.172c-8.672-78.148-4.335-96.964-4.335-138.356"/>
		
			<path fill="none" stroke="#F4B07D" stroke-width="50.8733" stroke-linecap="round" stroke-linejoin="round" stroke-miterlimit="10" d="
			M513.323,349.062c0,0,97.244-70.559,105.652-146.174c8.672-78.142,4.344-96.951,4.344-138.348"/>
		<path fill="none" stroke="#282828" stroke-width="52.0972" stroke-linejoin="round" stroke-miterlimit="10" d="M513.323,349.062
			c0,0,97.244-70.559,105.652-146.174c8.672-78.142,4.344-96.951,4.344-138.348"/>
		<path fill="#F4B07D" d="M326.885,314.143c-14.812,63.217-43.424,58.127-43.424,164.988c0,131.532,0,107.895,0,111.232
			c0,0.24,14.472,0.352,14.472,0.352h124.91V314.143H326.885z"/>
		<path fill="#F4B07D" d="M514.01,314.143c14.809,63.217,43.416,58.127,43.416,164.988c0,131.532,0,107.895,0,111.232
			c0,0.24-14.473,0.352-14.473,0.352H418.052V314.143H514.01z"/>
		<rect x="325.704" y="311.037" fill="#FFFFFF" width="187.623" height="271.566"/>
		<path fill="#282828" d="M340.202,302.672v282.463h-70.967c0,0-21.718-206.049,49.553-282.463H340.202z"/>
		<path fill="#282828" d="M504.297,302.672v282.463h76.23c0,0,12.828-234.133-54.814-282.463H504.297z"/>
		<polygon fill="#2D2D2D" points="338.917,302.541 300.73,352.449 336.646,355.105 300.73,400.467 338.917,539.844 		"/>
		<polygon fill="#2D2D2D" points="504.045,302.541 542.237,352.449 506.321,355.105 542.237,400.467 504.045,539.844 		"/>
		<g>
			<g>
				<polygon fill="#EA94C7" points="393.219,312.219 421.241,340.234 450.262,312.219 421.901,304.867 				"/>
				<path fill="#EA94C7" d="M431.003,328.256l-8.777-8.918v-0.977l-0.484,0.477l-0.485-0.477l-0.05,1.041l-8.736,8.854
					l-20.488,195.092c0,0,22.506,50.73,30.244,50.73c9.818,0,29.273-50.73,29.273-50.73L431.003,328.256z"/>
			</g>
			<polygon fill="#D6D6D6" points="326.223,282.402 422.843,304.867 392.932,336.824 318.323,302.588 318.323,279.766 			"/>
			<polygon fill="#D6D6D6" points="518.508,282.402 421.901,304.867 451.795,336.824 526.409,302.588 526.409,279.766 			"/>
		</g>
		<g>
			<path fill="#F4B07D" d="M488.237,274.193c0,0-10.535,35.438-66.96,35.438c-55.742,0-66.953-35.438-66.953-35.438
				s20.384,26.104,69.328,26.104C423.651,300.297,456.272,303.418,488.237,274.193z"/>
		</g>
		<g opacity="0.5">
			<g>
				<path fill="#5AD8E5" d="M209.729-0.072c0,4.89-3.962,8.85-8.847,8.85c-4.888,0-8.847-3.96-8.847-8.85
					c0-4.883,8.847-31.781,8.847-31.781S209.729-4.956,209.729-0.072z"/>
				<path fill="#5AD8E5" d="M511.199-0.072c0,4.89-3.961,8.85-8.846,8.85c-4.887,0-8.847-3.96-8.847-8.85
					c0-4.883,8.847-31.781,8.847-31.781S511.199-4.956,511.199-0.072z"/>
				<path fill="#5AD8E5" d="M812.669-0.072c0,4.89-3.961,8.85-8.846,8.85c-4.887,0-8.847-3.96-8.847-8.85
					c0-4.883,8.847-31.781,8.847-31.781S812.669-4.956,812.669-0.072z"/>
			</g>
			<g>
				<path fill="#5AD8E5" d="M180.172,130.75c0,2.754-2.232,4.988-4.986,4.988c-2.755,0-4.987-2.234-4.987-4.988
					s4.987-17.913,4.987-17.913S180.172,127.997,180.172,130.75z"/>
				<path fill="#5AD8E5" d="M549.211,131.029c0,2.872-2.328,5.202-5.2,5.202c-2.874,0-5.201-2.33-5.201-5.202
					s5.201-18.685,5.201-18.685S549.211,128.157,549.211,131.029z"/>
			</g>
			<g>
				<path fill="#5AD8E5" d="M209.729,252.993c0,4.889-3.962,8.848-8.847,8.848c-4.888,0-8.847-3.959-8.847-8.848
					c0-4.882,8.847-31.783,8.847-31.783S209.729,248.111,209.729,252.993z"/>
				<path fill="#5AD8E5" d="M511.199,252.993c0,4.889-3.961,8.848-8.846,8.848c-4.887,0-8.847-3.959-8.847-8.848
					c0-4.882,8.847-31.783,8.847-31.783S511.199,248.111,511.199,252.993z"/>
				<path fill="#5AD8E5" d="M812.669,252.992c0,4.89-3.961,8.848-8.846,8.848c-4.887,0-8.847-3.958-8.847-8.848
					c0-4.881,8.847-31.783,8.847-31.783S812.669,248.111,812.669,252.992z"/>
			</g>
			<g>
				<path fill="#5AD8E5" d="M180.172,383.814c0,2.754-2.232,4.989-4.986,4.989c-2.755,0-4.987-2.235-4.987-4.989
					c0-2.753,4.987-17.913,4.987-17.913S180.172,381.061,180.172,383.814z"/>
				<path fill="#5AD8E5" d="M549.211,384.092c0,2.872-2.328,5.203-5.2,5.203c-2.874,0-5.201-2.331-5.201-5.203
					c0-2.872,5.201-18.685,5.201-18.685S549.211,381.221,549.211,384.092z"/>
			</g>
			<g>
				<path fill="#5AD8E5" d="M8.749,488.898c0,4.89-3.962,8.85-8.847,8.85c-4.887,0-8.846-3.96-8.846-8.85
					c0-4.881,8.846-31.781,8.846-31.781S8.749,484.018,8.749,488.898z"/>
				<path fill="#5AD8E5" d="M243.226,488.898c0,4.89-3.961,8.85-8.846,8.85c-4.888,0-8.847-3.959-8.847-8.85
					c0-4.88,8.847-31.781,8.847-31.781S243.226,484.018,243.226,488.898z"/>
				<path fill="#5AD8E5" d="M477.703,488.898c0,4.89-3.961,8.85-8.846,8.85c-4.887,0-8.847-3.959-8.847-8.85
					c0-4.88,8.847-31.781,8.847-31.781S477.703,484.018,477.703,488.898z"/>
				<path fill="#5AD8E5" d="M712.18,488.898c0,4.89-3.961,8.85-8.847,8.85c-4.887,0-8.847-3.96-8.847-8.85
					c0-4.881,8.847-31.781,8.847-31.781S712.18,484.018,712.18,488.898z"/>
			</g>
		</g>
	</g>
</g>
</svg>
