<?xml version="1.0" encoding="utf-8"?>
<!-- Generator: Adobe Illustrator 16.0.0, SVG Export Plug-In . SVG Version: 6.00 Build 0)  -->
<!DOCTYPE svg PUBLIC "-//W3C//DTD SVG 1.1//EN" "http://www.w3.org/Graphics/SVG/1.1/DTD/svg11.dtd">
<svg version="1.1" id="Layer_1" xmlns="http://www.w3.org/2000/svg" xmlns:xlink="http://www.w3.org/1999/xlink" x="0px" y="0px"
	 width="37px" height="37px" viewBox="0 0 37 37" enable-background="new 0 0 37 37" xml:space="preserve">
<g>
	<path fill="#1E924F" d="M18.5,37C8.282,37,0,28.717,0,18.499C0,8.282,8.282,0,18.5,0C28.717,0,37,8.282,37,18.499
		C37,28.717,28.717,37,18.5,37z"/>
	<circle fill="#1E924F" cx="18.5" cy="18.5" r="18.5"/>
	<path fill="#F8CC34" d="M36.741,21.464C36.897,20.496,37,19.511,37,18.499s-0.103-1.998-0.259-2.965L18.5,3.886L0.259,15.534
		C0.103,16.503,0,17.487,0,18.499s0.103,1.996,0.259,2.965L18.5,33.111L36.741,21.464z"/>
	<path fill="#3A2D6F" d="M18.5,8.698c-5.417,0-9.802,4.389-9.802,9.801c0,5.414,4.385,9.803,9.802,9.803
		c5.411,0,9.799-4.389,9.799-9.803C28.299,13.087,23.911,8.698,18.5,8.698z"/>
	<path fill="#FFFFFF" d="M9.497,14.618c-0.212,0.486-0.381,0.992-0.508,1.515c1.176-0.235,2.391-0.386,3.637-0.43
		c5.833-0.206,11.224,1.839,15.337,5.35c0.137-0.505,0.234-1.032,0.287-1.567c-4.286-3.421-9.763-5.391-15.672-5.18
		C11.53,14.339,10.501,14.451,9.497,14.618z"/>
	<path fill="#1E924F" d="M10.165,14.708l-0.2,0.068l-0.111,0.103l-0.067,0.142l-0.01,0.25l0.178,0.339l0.353,0.081l0.315-0.178
		l0.075-0.379l-0.18-0.343L10.165,14.708z M10.461,15.417l-0.177,0.107l-0.2-0.055l-0.111-0.232l0.036-0.256l0.18-0.108l0.199,0.052
		l0.107,0.233L10.461,15.417z"/>
	<path fill="#1E924F" d="M11.73,15.169L11.617,15.1l0.186-0.105l0.044-0.183l-0.055-0.147l-0.117-0.081l-0.23-0.006l-0.401,0.037
		l0.083,0.953l0.194-0.018l-0.037-0.397l0.041-0.003l0.099,0.002l0.062,0.035l0.111,0.131l0.159,0.195l0.228-0.021l-0.133-0.176
		L11.73,15.169z M11.585,14.96l-0.171,0.025L11.272,15l-0.022-0.242l0.149-0.013l0.143-0.01l0.075,0.029l0.034,0.077l-0.014,0.072
		L11.585,14.96z"/>
	<path fill="#1E924F" d="M12.97,14.603l-0.146-0.087l-0.18-0.011l-0.357,0.008l0.026,0.957l0.363-0.008l0.172-0.026l0.135-0.081
		l0.095-0.171l0.024-0.202l-0.036-0.229L12.97,14.603z M12.889,15.151l-0.048,0.094l-0.075,0.043L12.649,15.3l-0.145,0.005
		l-0.016-0.634l0.085-0.003l0.159,0.005l0.089,0.041l0.061,0.092l0.026,0.17L12.889,15.151z"/>
	<polygon fill="#1E924F" points="13.69,15.025 14.17,15.033 14.172,14.871 13.692,14.864 13.696,14.649 14.215,14.659 
		14.217,14.497 13.504,14.485 13.495,15.444 14.219,15.455 14.223,15.292 13.684,15.288 	"/>
	<polygon fill="#1E924F" points="15.088,15.196 14.961,14.532 14.673,14.513 14.606,15.47 14.782,15.479 14.838,14.729 
		14.975,15.496 15.157,15.509 15.401,14.769 15.351,15.522 15.526,15.534 15.595,14.577 15.304,14.558 	"/>
	<polygon fill="#1E924F" points="16.519,15.647 17.239,15.758 17.265,15.597 16.735,15.519 16.773,15.261 17.247,15.332 
		17.275,15.171 16.795,15.1 16.832,14.892 17.34,14.969 17.364,14.808 16.662,14.699 	"/>
	<path fill="#1E924F" d="M18.924,15.14l-0.222-0.064l-0.3-0.071l-0.218,0.935l0.188,0.044l0.081-0.353l0.123,0.027l0.2,0.033
		l0.109-0.021l0.101-0.072l0.064-0.141l-0.012-0.193L18.924,15.14z M18.815,15.482l-0.067,0.034l-0.155-0.021l-0.105-0.026
		l0.064-0.263l0.091,0.019l0.131,0.039l0.067,0.059l0.012,0.092L18.815,15.482z"/>
	<path fill="#1E924F" d="M19.924,15.392l-0.387-0.114L19.273,16.2l0.186,0.053l0.109-0.385l0.039,0.012l0.088,0.035l0.046,0.056
		l0.059,0.163l0.079,0.24l0.224,0.064l-0.066-0.213l-0.059-0.181l-0.079-0.106l0.206-0.031l0.111-0.154v-0.156l-0.083-0.121
		L19.924,15.392z M19.981,15.774l-0.064,0.022l-0.169-0.033l-0.135-0.042l0.068-0.233l0.14,0.04l0.137,0.045l0.061,0.055
		l0.004,0.081L19.981,15.774z"/>
	<path fill="#1E924F" d="M20.909,15.718l-0.147,0.042l-0.123,0.094l-0.121,0.219v0.383l0.281,0.233l0.361-0.014l0.236-0.301v-0.389
		l-0.276-0.234L20.909,15.718z M21.208,16.306l-0.153,0.208l-0.204,0.021l-0.155-0.145l0.014-0.257l0.151-0.212l0.204-0.014
		l0.157,0.139L21.208,16.306z"/>
	<polygon fill="#1E924F" points="22.089,16.374 22.307,16.378 22.418,16.468 22.446,16.603 22.636,16.641 22.598,16.401 
		22.368,16.226 22.138,16.182 21.902,16.275 21.74,16.499 21.698,16.758 21.781,16.989 22.002,17.146 22.232,17.193 22.438,17.163 
		22.582,16.81 22.196,16.653 22.132,16.802 22.341,16.886 22.293,17.001 22.176,17.011 22.053,16.989 21.902,16.833 21.928,16.567 	
		"/>
	<path fill="#1E924F" d="M23.53,16.76l-0.365-0.173l-0.412,0.863l0.176,0.084l0.169-0.361l0.036,0.016l0.083,0.051l0.036,0.062
		l0.032,0.172l0.034,0.248l0.21,0.1l-0.024-0.221l-0.036-0.188l-0.055-0.117l0.21,0.004l0.129-0.135l0.032-0.155l-0.067-0.13
		L23.53,16.76z M23.572,17.09l-0.05,0.056l-0.067,0.014l-0.159-0.063l-0.131-0.062l0.103-0.217l0.141,0.063l0.121,0.062l0.051,0.065
		L23.572,17.09z"/>
	<polygon fill="#1E924F" points="23.81,17.966 24.452,18.314 24.529,18.171 24.061,17.918 24.184,17.688 24.603,17.918 
		24.682,17.774 24.258,17.548 24.357,17.358 24.815,17.604 24.892,17.463 24.27,17.125 	"/>
	<polygon fill="#1E924F" points="25.392,17.774 25.241,17.794 25.136,17.892 25.11,18.103 25.247,18.296 25.358,18.412 25.4,18.481 
		25.384,18.544 25.293,18.598 25.152,18.56 25.055,18.448 25.069,18.292 24.902,18.212 24.874,18.481 25.067,18.696 25.265,18.775 
		25.428,18.753 25.547,18.644 25.594,18.493 25.555,18.353 25.414,18.187 25.293,18.04 25.299,17.978 25.354,17.94 25.489,17.979 
		25.578,18.071 25.563,18.189 25.737,18.283 25.761,18.052 25.57,17.843 	"/>
	<polygon fill="#1E924F" points="26.376,18.392 26.221,18.404 26.11,18.497 26.074,18.704 26.203,18.904 26.308,19.026 
		26.34,19.101 26.324,19.157 26.235,19.208 26.096,19.161 26.003,19.046 26.023,18.896 25.858,18.804 25.82,19.071 26.003,19.296 
		26.197,19.387 26.36,19.368 26.488,19.266 26.54,19.119 26.508,18.978 26.373,18.805 26.264,18.653 26.27,18.587 26.333,18.557 
		26.459,18.601 26.54,18.696 26.526,18.815 26.691,18.917 26.73,18.688 26.548,18.469 	"/>
	<path fill="#1E924F" d="M27.375,19.101l-0.149-0.006l-0.149,0.052l-0.184,0.169l-0.117,0.363l0.192,0.311l0.349,0.097l0.319-0.212
		l0.121-0.369l-0.191-0.309L27.375,19.101z M27.482,19.75l-0.211,0.154l-0.202-0.048l-0.101-0.182l0.086-0.244l0.21-0.152
		l0.202,0.052l0.104,0.18L27.482,19.75z"/>
	<polygon fill="#FFFFFF" points="21.704,15.056 21.611,14.779 21.522,15.056 21.234,15.056 21.47,15.226 21.375,15.503 
		21.611,15.333 21.849,15.503 21.76,15.226 21.993,15.056 	"/>
	<polygon fill="#FFFFFF" points="18.629,22.972 18.541,22.696 18.45,22.972 18.161,22.972 18.395,23.144 18.306,23.423 
		18.541,23.25 18.774,23.423 18.686,23.144 18.922,22.972 	"/>
	<polygon fill="#FFFFFF" points="25.588,22.006 25.495,21.723 25.402,22.006 25.11,22.006 25.348,22.18 25.259,22.461 
		25.495,22.288 25.737,22.461 25.644,22.18 25.882,22.006 	"/>
	<polygon fill="#FFFFFF" points="26.925,22.136 26.867,21.958 26.812,22.136 26.623,22.136 26.772,22.247 26.715,22.428 
		26.867,22.319 27.02,22.428 26.961,22.247 27.115,22.136 	"/>
	<polygon fill="#FFFFFF" points="25.973,22.901 25.895,22.657 25.814,22.901 25.555,22.901 25.767,23.054 25.685,23.298 
		25.895,23.146 26.102,23.298 26.021,23.054 26.231,22.901 	"/>
	<polygon fill="#FFFFFF" points="25.178,23.571 25.104,23.337 25.029,23.571 24.781,23.571 24.984,23.716 24.906,23.95 
		25.104,23.805 25.305,23.95 25.229,23.716 25.424,23.571 	"/>
	<polygon fill="#FFFFFF" points="24.399,24.088 24.339,23.909 24.28,24.088 24.091,24.088 24.244,24.201 24.186,24.381 
		24.339,24.268 24.494,24.381 24.434,24.201 24.585,24.088 	"/>
	<polygon fill="#FFFFFF" points="23.395,23.894 23.332,23.716 23.28,23.894 23.09,23.894 23.241,24.003 23.185,24.182 
		23.332,24.071 23.485,24.182 23.429,24.003 23.578,23.894 	"/>
	<polygon fill="#FFFFFF" points="22.315,24.236 22.252,24.044 22.19,24.236 21.991,24.236 22.152,24.355 22.089,24.547 
		22.252,24.427 22.416,24.547 22.355,24.355 22.517,24.236 	"/>
	<polygon fill="#FFFFFF" points="23.411,25.802 23.352,25.618 23.294,25.802 23.104,25.802 23.257,25.913 23.199,26.095 
		23.352,25.981 23.508,26.095 23.447,25.913 23.601,25.802 	"/>
	<polygon fill="#FFFFFF" points="21.484,25.033 21.405,24.788 21.325,25.033 21.066,25.033 21.276,25.187 21.193,25.432 
		21.405,25.278 21.613,25.432 21.533,25.187 21.742,25.033 	"/>
	<polygon fill="#FFFFFF" points="20.717,23.981 20.655,23.792 20.594,23.981 20.401,23.981 20.558,24.095 20.498,24.284 
		20.655,24.169 20.82,24.284 20.756,24.095 20.917,23.981 	"/>
	<polygon fill="#FFFFFF" points="23.461,24.812 23.382,24.574 23.308,24.812 23.056,24.812 23.257,24.96 23.183,25.198 
		23.382,25.05 23.584,25.198 23.508,24.96 23.711,24.812 	"/>
	<polygon fill="#FFFFFF" points="18.555,26.196 18.528,26.108 18.5,26.196 18.411,26.196 18.48,26.249 18.454,26.333 18.528,26.28 
		18.597,26.333 18.571,26.249 18.645,26.196 	"/>
	<polygon fill="#FFFFFF" points="21.193,17.964 21.129,17.761 21.064,17.964 20.854,17.964 21.024,18.085 20.959,18.287 
		21.129,18.163 21.3,18.287 21.234,18.085 21.403,17.964 	"/>
	<polygon fill="#FFFFFF" points="18.605,20.134 18.534,19.921 18.468,20.134 18.244,20.134 18.425,20.263 18.357,20.476 
		18.534,20.343 18.716,20.476 18.645,20.263 18.825,20.134 	"/>
	<polygon fill="#FFFFFF" points="19.757,21.04 19.687,20.812 19.614,21.04 19.372,21.04 19.567,21.179 19.493,21.405 19.687,21.266 
		19.882,21.405 19.805,21.179 19.999,21.04 	"/>
	<polygon fill="#FFFFFF" points="17.594,21.022 17.54,20.844 17.477,21.022 17.292,21.022 17.445,21.13 17.386,21.313 17.54,21.202 
		17.691,21.313 17.63,21.13 17.786,21.022 	"/>
	<polygon fill="#FFFFFF" points="18.052,21.772 18.014,21.649 17.974,21.772 17.853,21.772 17.951,21.844 17.915,21.962 
		18.014,21.89 18.115,21.962 18.074,21.844 18.179,21.772 	"/>
	<polygon fill="#FFFFFF" points="10.489,16.765 10.4,16.486 10.312,16.765 10.021,16.765 10.255,16.935 10.165,17.212 10.4,17.039 
		10.637,17.212 10.548,16.935 10.78,16.765 	"/>
	<polygon fill="#FFFFFF" points="14.761,18.94 14.689,18.711 14.616,18.94 14.376,18.94 14.57,19.079 14.495,19.31 14.689,19.169 
		14.887,19.31 14.81,19.079 15.001,18.94 	"/>
	<polygon fill="#FFFFFF" points="11.379,20.928 11.291,20.648 11.198,20.928 10.907,20.928 11.143,21.101 11.052,21.378 
		11.291,21.204 11.524,21.378 11.436,21.101 11.669,20.928 	"/>
	<polygon fill="#FFFFFF" points="12.296,20.376 12.251,20.235 12.208,20.376 12.061,20.376 12.181,20.461 12.135,20.599 
		12.251,20.514 12.369,20.599 12.324,20.461 12.443,20.376 	"/>
	<polygon fill="#FFFFFF" points="13.444,21.929 13.37,21.693 13.292,21.929 13.044,21.929 13.244,22.075 13.166,22.311 
		13.37,22.164 13.569,22.311 13.495,22.075 13.692,21.929 	"/>
	<polygon fill="#FFFFFF" points="14.725,23.653 14.636,23.385 14.55,23.653 14.267,23.653 14.497,23.821 14.409,24.088 
		14.636,23.924 14.869,24.088 14.78,23.821 15.008,23.653 	"/>
	<polygon fill="#FFFFFF" points="13.125,22.917 13.046,22.683 12.97,22.917 12.722,22.917 12.923,23.063 12.847,23.3 13.046,23.153 
		13.247,23.3 13.171,23.063 13.37,22.917 	"/>
	<polygon fill="#FFFFFF" points="10.118,21.841 10.06,21.655 9.997,21.841 9.805,21.841 9.963,21.954 9.902,22.136 10.06,22.024 
		10.217,22.136 10.157,21.954 10.312,21.841 	"/>
</g>
</svg>
