<?xml version="1.0" encoding="utf-8"?>
<!-- Generator: Adobe Illustrator 16.0.0, SVG Export Plug-In . SVG Version: 6.00 Build 0)  -->
<!DOCTYPE svg PUBLIC "-//W3C//DTD SVG 1.1//EN" "http://www.w3.org/Graphics/SVG/1.1/DTD/svg11.dtd">
<svg version="1.1" id="Layer_1" xmlns="http://www.w3.org/2000/svg" xmlns:xlink="http://www.w3.org/1999/xlink" x="0px" y="0px"
	 width="875px" height="475px" viewBox="0 0 875 475" enable-background="new 0 0 875 475" xml:space="preserve">
<g>
	<defs>
		<rect id="SVGID_1_" width="875" height="475"/>
	</defs>
	<clipPath id="SVGID_2_">
		<use xlink:href="#SVGID_1_"  overflow="visible"/>
	</clipPath>
	<g clip-path="url(#SVGID_2_)">
		<rect x="-40.263" y="-66.052" fill="#94D7F2" width="937.128" height="569.898"/>
		<g>
			<g>
				<g>
					<path fill="#8C8C8C" d="M-5.3,204.914c0-53.441,33.71-96.758,75.314-96.758c41.581,0,75.285,43.316,75.285,96.758
						c0,7.71-0.724,15.211-2.048,22.392H-3.242C-4.576,220.125-5.3,212.624-5.3,204.914z"/>
					<path fill="#8C8C8C" d="M26.781,71.621c0,23.875,19.355,43.219,43.233,43.219c23.854,0,43.194-19.344,43.194-43.219
						c0-23.867-19.341-43.213-43.194-43.213C46.137,28.408,26.781,47.754,26.781,71.621z"/>
				</g>
			</g>
			<g>
				<path fill="#8C8C8C" d="M140.701,204.914c0-53.441,33.709-96.758,75.313-96.758c41.581,0,75.286,43.316,75.286,96.758
					c0,7.71-0.724,15.211-2.048,22.392H142.758C141.424,220.125,140.701,212.624,140.701,204.914z"/>
				<path fill="#8C8C8C" d="M172.781,71.621c0,23.875,19.355,43.219,43.233,43.219c23.854,0,43.194-19.344,43.194-43.219
					c0-23.867-19.341-43.213-43.194-43.213C192.136,28.408,172.781,47.754,172.781,71.621z"/>
			</g>
			<g>
				<path fill="#8C8C8C" d="M286.701,204.914c0-53.441,33.708-96.758,75.313-96.758c41.581,0,75.286,43.316,75.286,96.758
					c0,7.71-0.725,15.211-2.049,22.392H288.758C287.424,220.125,286.701,212.624,286.701,204.914z"/>
				<path fill="#8C8C8C" d="M318.781,71.621c0,23.875,19.354,43.219,43.232,43.219c23.854,0,43.194-19.344,43.194-43.219
					c0-23.867-19.34-43.213-43.194-43.213C338.136,28.408,318.781,47.754,318.781,71.621z"/>
			</g>
			<g>
				<path fill="#8C8C8C" d="M432.701,204.914c0-53.441,33.708-96.758,75.312-96.758c41.582,0,75.287,43.316,75.287,96.758
					c0,7.71-0.724,15.211-2.048,22.392H434.758C433.424,220.125,432.701,212.624,432.701,204.914z"/>
				<path fill="#8C8C8C" d="M464.781,71.621c0,23.875,19.354,43.219,43.231,43.219c23.854,0,43.195-19.344,43.195-43.219
					c0-23.867-19.341-43.213-43.195-43.213C484.136,28.408,464.781,47.754,464.781,71.621z"/>
			</g>
			<g>
				<path fill="#8C8C8C" d="M578.701,204.914c0-53.441,33.708-96.758,75.312-96.758c41.582,0,75.286,43.316,75.286,96.758
					c0,7.71-0.724,15.211-2.049,22.392H580.758C579.424,220.125,578.701,212.624,578.701,204.914z"/>
				<path fill="#8C8C8C" d="M610.781,71.621c0,23.875,19.354,43.219,43.231,43.219c23.855,0,43.195-19.344,43.195-43.219
					c0-23.867-19.34-43.213-43.195-43.213C630.135,28.408,610.781,47.754,610.781,71.621z"/>
			</g>
			<g>
				<g>
					<path fill="#8C8C8C" d="M724.701,204.914c0-53.441,33.707-96.758,75.311-96.758c41.582,0,75.287,43.316,75.287,96.758
						c0,7.71-0.725,15.211-2.049,22.392H726.758C725.424,220.125,724.701,212.624,724.701,204.914z"/>
					<path fill="#8C8C8C" d="M756.781,71.621c0,23.875,19.354,43.219,43.23,43.219c23.855,0,43.195-19.344,43.195-43.219
						c0-23.867-19.34-43.213-43.195-43.213C776.135,28.408,756.781,47.754,756.781,71.621z"/>
				</g>
			</g>
		</g>
		<rect x="-22" y="203" fill="#8C8C8C" width="915.134" height="94"/>
		<g>
			<g>
				<g>
					<path fill="#D1D1D1" d="M-5.3,308.914c0-53.441,33.71-96.758,75.314-96.758c41.581,0,75.285,43.316,75.285,96.758
						c0,7.71-0.724,15.211-2.048,22.392H-3.242C-4.576,324.125-5.3,316.624-5.3,308.914z"/>
					<path fill="#D1D1D1" d="M26.781,175.621c0,23.875,19.355,43.219,43.233,43.219c23.854,0,43.194-19.344,43.194-43.219
						c0-23.867-19.341-43.213-43.194-43.213C46.137,132.408,26.781,151.754,26.781,175.621z"/>
				</g>
			</g>
			<g>
				<path fill="#D1D1D1" d="M140.701,308.914c0-53.441,33.709-96.758,75.313-96.758c41.581,0,75.286,43.316,75.286,96.758
					c0,7.71-0.724,15.211-2.048,22.392H142.758C141.424,324.125,140.701,316.624,140.701,308.914z"/>
				<path fill="#D1D1D1" d="M172.781,175.621c0,23.875,19.355,43.219,43.233,43.219c23.854,0,43.194-19.344,43.194-43.219
					c0-23.867-19.341-43.213-43.194-43.213C192.136,132.408,172.781,151.754,172.781,175.621z"/>
			</g>
			<g>
				<path fill="#D1D1D1" d="M286.701,308.914c0-53.441,33.708-96.758,75.313-96.758c41.581,0,75.286,43.316,75.286,96.758
					c0,7.71-0.725,15.211-2.049,22.392H288.758C287.424,324.125,286.701,316.624,286.701,308.914z"/>
				<path fill="#D1D1D1" d="M318.781,175.621c0,23.875,19.354,43.219,43.232,43.219c23.854,0,43.194-19.344,43.194-43.219
					c0-23.867-19.34-43.213-43.194-43.213C338.136,132.408,318.781,151.754,318.781,175.621z"/>
			</g>
			<g>
				<path fill="#D1D1D1" d="M432.701,308.914c0-53.441,33.708-96.758,75.312-96.758c41.582,0,75.287,43.316,75.287,96.758
					c0,7.71-0.724,15.211-2.048,22.392H434.758C433.424,324.125,432.701,316.624,432.701,308.914z"/>
				<path fill="#D1D1D1" d="M464.781,175.621c0,23.875,19.354,43.219,43.231,43.219c23.854,0,43.195-19.344,43.195-43.219
					c0-23.867-19.341-43.213-43.195-43.213C484.136,132.408,464.781,151.754,464.781,175.621z"/>
			</g>
			<g>
				<path fill="#D1D1D1" d="M578.701,308.914c0-53.441,33.708-96.758,75.312-96.758c41.582,0,75.286,43.316,75.286,96.758
					c0,7.71-0.724,15.211-2.049,22.392H580.758C579.424,324.125,578.701,316.624,578.701,308.914z"/>
				<path fill="#D1D1D1" d="M610.781,175.621c0,23.875,19.354,43.219,43.231,43.219c23.855,0,43.195-19.344,43.195-43.219
					c0-23.867-19.34-43.213-43.195-43.213C630.135,132.408,610.781,151.754,610.781,175.621z"/>
			</g>
			<g>
				<g>
					<path fill="#D1D1D1" d="M724.701,308.914c0-53.441,33.707-96.758,75.311-96.758c41.582,0,75.287,43.316,75.287,96.758
						c0,7.71-0.725,15.211-2.049,22.392H726.758C725.424,324.125,724.701,316.624,724.701,308.914z"/>
					<path fill="#D1D1D1" d="M756.781,175.621c0,23.875,19.354,43.219,43.23,43.219c23.855,0,43.195-19.344,43.195-43.219
						c0-23.867-19.34-43.213-43.195-43.213C776.135,132.408,756.781,151.754,756.781,175.621z"/>
				</g>
			</g>
		</g>
		<rect x="-1.125" y="327.679" fill="#485E5A" width="876.125" height="176.826"/>
	</g>
	<g clip-path="url(#SVGID_2_)">
		<path fill="#776537" d="M344.584,206.529c0,0-8.651,3.156-8.562,17.767c0.029,4.893,2.63,17.769-6.585,18.442
			c0,0,11.188,1.311,14.479-5.93c0,0-0.653,13.17-5.925,16.453c0,0,30.939,13.164,36.211-16.453l-2.635-43.45
			C371.567,193.358,352.472,185.458,344.584,206.529z"/>
		<path fill="#776537" d="M530.838,206.529c0,0,8.645,3.156,8.553,17.767c-0.025,4.893-2.627,17.769,6.594,18.442
			c0,0-11.197,1.311-14.484-5.93c0,0,0.652,13.17,5.924,16.453c0,0-30.939,13.164-36.211-16.453l2.643-43.45
			C503.855,193.358,522.945,185.458,530.838,206.529z"/>
		<g>
			<polygon fill="#B7B7B7" points="333.823,279.266 354.895,276.639 358.176,300.338 			"/>
			<polygon fill="#B7B7B7" points="541.523,279.266 520.457,276.639 517.162,300.338 			"/>
			<path fill="#F4B07D" d="M562.48,421.869H314.073c0,0,40.668-150.172,40.668-222.145c0-41.581,166.341-41.581,166.341,0
				C521.082,303.74,562.48,421.869,562.48,421.869z"/>
			<path fill="#776537" d="M344.612,207.109c0,0-8.628,3.152-8.545,17.745c0.032,4.89,2.63,17.748-6.573,18.408
				c0,0,11.175,1.314,14.46-5.916c0,0-0.656,13.149-5.915,16.434c0,0,30.894,13.144,36.153-16.434l-2.63-43.385
				C371.562,193.962,352.499,186.076,344.612,207.109z"/>
			<path fill="#776537" d="M530.587,207.109c0,0,8.631,3.152,8.547,17.745c-0.03,4.89-2.627,17.748,6.576,18.408
				c0,0-11.178,1.314-14.465-5.916c0,0,0.658,13.149,5.921,16.434c0,0-30.898,13.144-36.156-16.434l2.631-43.385
				C503.641,193.962,522.7,186.076,530.587,207.109z"/>
			<g>
				<polygon fill="#B7B7B7" points="333.875,279.742 354.909,277.109 358.194,300.774 				"/>
				<polygon fill="#B7B7B7" points="541.257,279.742 520.222,277.109 516.935,300.774 				"/>
				<path fill="#F4B07D" d="M562.18,422.123H314.159c0,0,40.601-149.94,40.601-221.799c0-41.52,166.092-41.518,166.092,0
					C520.852,304.175,562.18,422.123,562.18,422.123z"/>
				<g>
					<path fill="#776537" d="M439.521,58.896c0,0-32.249-45.19-92.035,0.688c-24.158,18.543-34.831,95.584,5.835,136.258
						l88.282-98.719L439.521,58.896z"/>
					<path fill="#776537" d="M439.839,58.896c0,0,32.25-45.19,92.035,0.688c24.154,18.549,34.831,95.584-5.836,136.258
						l-88.284-98.719L439.839,58.896z"/>
					<path fill="#F4B07D" d="M515.921,110.25c0,0-27.911-35.707-81.023-34.941c-52.901-0.766-75.12,34.941-75.12,34.941
						c-18.567,30.386-13.02,124.25-13.02,124.25c0,46.446,64.415,83.448,91.472,83.448c27.055,0,91.703-34.592,91.703-83.448
						C529.933,234.5,534.491,140.636,515.921,110.25z"/>
					<g>
						<path opacity="0.1" fill="#232222" d="M479.802,266.564c0,0-6.783,24.967-43.131,24.967c-35.903,0-43.13-24.967-43.13-24.967
							s13.137,18.396,44.666,18.396C438.207,284.96,459.21,287.156,479.802,266.564z"/>
					</g>
					<g opacity="0.2">
						<path fill="#231F20" d="M460.73,187.671c0.578,0.568,1.053,1.127,1.52,1.742c0.462,0.61,0.876,1.265,1.238,1.965
							c0.359,0.702,0.663,1.456,0.856,2.273c0.192,0.814,0.267,1.701,0.139,2.598c-0.067,0.445-0.175,0.891-0.338,1.316
							c-0.164,0.422-0.361,0.839-0.612,1.206c-0.234,0.387-0.528,0.71-0.816,1.034c-0.302,0.304-0.61,0.602-0.942,0.848
							c-0.651,0.525-1.348,0.918-2.047,1.287c-0.705,0.343-1.417,0.633-2.135,0.893l-0.078,0.028l-0.18,0.033
							c-0.85,0.157-1.817,0.413-2.695,0.709c-0.891,0.301-1.752,0.663-2.551,1.09c-0.795,0.426-1.556,0.897-2.156,1.469
							c-0.629,0.586-0.989,1.106-1.566,2.065c-0.327,0.462-0.564,0.926-0.989,1.396l-0.6,0.697c-0.224,0.215-0.478,0.41-0.719,0.613
							c-0.472,0.438-1.023,0.707-1.568,0.995c-0.542,0.33-1.099,0.467-1.655,0.65l-0.835,0.262
							c-0.276,0.066-0.547,0.098-0.822,0.147l-1.643,0.265l-1.605,0.087l-0.802,0.039l-0.401,0.019l-0.201,0.01l-0.025,0.002
							l-0.105-0.002l-0.047-0.002l-0.095-0.005c-1.028-0.067-1.984-0.061-3.072-0.188c-1.126-0.178-2.258-0.298-3.353-0.701
							l-0.825-0.259c-0.272-0.119-0.542-0.264-0.812-0.397l-0.805-0.415c-0.259-0.161-0.5-0.365-0.748-0.55
							c-1.024-0.724-1.752-1.739-2.38-2.641l-0.417-0.652l-0.104-0.163l-0.052-0.082c-0.055-0.08,0.068,0.099,0.053,0.076
							l-0.007-0.01l-0.014-0.019l-0.028-0.039l-0.225-0.306l-0.225-0.306c-0.073-0.096-0.128-0.13-0.191-0.199
							c-0.136-0.125-0.206-0.246-0.385-0.386c-0.6-0.572-1.362-1.042-2.155-1.472c-0.799-0.427-1.66-0.789-2.551-1.09
							c-0.877-0.296-1.845-0.553-2.695-0.71l-0.18-0.033l-0.078-0.028c-0.717-0.259-1.431-0.55-2.135-0.893
							c-0.699-0.369-1.396-0.762-2.046-1.287c-0.332-0.246-0.64-0.543-0.942-0.847c-0.288-0.323-0.582-0.647-0.815-1.033
							c-0.25-0.368-0.448-0.784-0.611-1.206c-0.163-0.426-0.271-0.87-0.339-1.315c-0.128-0.896-0.054-1.782,0.137-2.597
							c0.192-0.817,0.495-1.571,0.854-2.273c0.361-0.7,0.774-1.355,1.236-1.965c0.228-0.308,0.47-0.602,0.719-0.891
							c0.255-0.294,0.496-0.556,0.805-0.858c0.444-0.434,1.155-0.426,1.589,0.019c0.415,0.424,0.426,1.093,0.039,1.529l-0.037,0.042
							c-0.183,0.206-0.408,0.479-0.6,0.734c-0.196,0.261-0.388,0.527-0.564,0.802c-0.354,0.547-0.68,1.105-0.937,1.68
							c-0.52,1.141-0.774,2.339-0.568,3.348c0.054,0.251,0.125,0.494,0.229,0.725c0.106,0.23,0.222,0.457,0.384,0.664
							c0.135,0.221,0.334,0.415,0.518,0.615c0.206,0.189,0.409,0.383,0.655,0.55c0.461,0.355,1.015,0.644,1.574,0.921
							c0.579,0.26,1.184,0.485,1.805,0.691l-0.258-0.062c1.147,0.175,2.148,0.419,3.201,0.733c1.037,0.316,2.062,0.708,3.064,1.206
							c0.999,0.503,1.979,1.105,2.866,1.914c0.425,0.385,1.007,1.002,1.237,1.352l0.228,0.304l0.116,0.162l0.051,0.078l0.102,0.155
							l0.407,0.624c0.536,0.738,1.016,1.406,1.67,1.836c0.161,0.113,0.303,0.247,0.473,0.351l0.552,0.266
							c0.185,0.089,0.36,0.188,0.55,0.272l0.628,0.181c0.816,0.305,1.712,0.373,2.583,0.521c0.921,0.107,1.999,0.099,2.99,0.153
							l2.786-0.107l1.357-0.208c0.224-0.038,0.459-0.059,0.674-0.108l0.614-0.193c0.406-0.13,0.846-0.222,1.168-0.438
							c0.351-0.185,0.727-0.34,0.993-0.61c0.146-0.123,0.303-0.229,0.446-0.359l0.391-0.454c0.272-0.269,0.511-0.714,0.775-1.073
							c0.46-0.775,1.257-1.941,2.146-2.707c0.887-0.809,1.869-1.41,2.866-1.914c1.003-0.497,2.028-0.888,3.066-1.204
							c1.053-0.314,2.053-0.558,3.201-0.732l-0.258,0.062c0.622-0.205,1.227-0.432,1.806-0.69c0.559-0.277,1.113-0.565,1.574-0.921
							c0.246-0.168,0.449-0.36,0.655-0.55c0.184-0.2,0.382-0.395,0.517-0.614c0.162-0.209,0.278-0.435,0.384-0.664
							c0.104-0.23,0.175-0.474,0.229-0.725c0.206-1.009-0.049-2.207-0.57-3.348c-0.257-0.574-0.584-1.133-0.938-1.68
							c-0.352-0.539-0.766-1.089-1.17-1.541l-0.025-0.028c-0.414-0.463-0.373-1.174,0.09-1.587
							C459.638,187.239,460.311,187.262,460.73,187.671z"/>
					</g>
					<path fill="#2E230E" d="M397.277,171.307c0,2.797-2.269,5.057-5.062,5.057c-2.793,0-5.062-2.26-5.062-5.057
						c0-2.8,2.27-5.067,5.062-5.067C395.009,166.239,397.277,168.507,397.277,171.307z"/>
					<path fill="#593B2E" d="M365.83,169.504c0,0,17.268-16.514,41.698-10.088c0,0,6.997-4.117,0.939-6.705
						C408.468,152.711,379.438,147.713,365.83,169.504z"/>
					<path fill="#2E230E" d="M475.677,171.307c0,2.796,2.268,5.057,5.06,5.057c2.807,0,5.071-2.261,5.071-5.057
						c0-2.801-2.265-5.068-5.071-5.068C477.944,166.238,475.677,168.506,475.677,171.307z"/>
					<path fill="#593B2E" d="M507.807,159.162c0,0-18.707-14.838-42.451-6.174c0,0-7.343-3.451-1.553-6.592
						C463.803,146.396,492.237,138.735,507.807,159.162z"/>
					<path fill="#F4B07D" d="M354.337,178.457c0,0-17.377-28.498-23.631-2.084c-1.934,8.135-2.091,52.139,22.933,24.338"/>
					
						<path fill="none" stroke="#C18963" stroke-width="2.7807" stroke-linecap="round" stroke-linejoin="round" stroke-miterlimit="10" d="
						M343.217,179.152c0,0-9.04,6.953,0,17.377"/>
					<path fill="#F4B07D" d="M519.366,178.457c0,0,17.386-28.498,23.642-2.084c1.93,8.135,2.08,52.139-22.936,24.338"/>
					
						<path fill="none" stroke="#C18963" stroke-width="2.7807" stroke-linecap="round" stroke-linejoin="round" stroke-miterlimit="10" d="
						M530.498,179.152c0,0,9.032,6.953,0,17.377"/>
					
						<path fill="none" stroke="#C18963" stroke-width="2.1097" stroke-linecap="round" stroke-linejoin="round" stroke-miterlimit="10" d="
						M453.116,232.979c0,0-17.119,11.046-33.314,0.654"/>
					<path fill="#776537" d="M344.011,79.746c0,0-10.207,60.954-8.815,61.415c1.385,0.464,49.133-24.802,49.133-24.802
						l55.389-19.236l82.257,25.26l16.69-6.946l-8.811-43.567l-80.186-8.34l-63.02,6.945L344.011,79.746z"/>
					<path opacity="0.3" fill="#231F20" d="M439.241,97.123c0,0,33.375,77.396,107.522,37.773c0,0-21.317-11.528-24.79-26.123"/>
					<path opacity="0.3" fill="#231F20" d="M438.77,96.539c0,0-20.067,58.457-93.15,38.893c0,0,16.76-8.059,22.948-21.885"/>
					<path fill="#776537" d="M439.717,97.123c0,0,31.283,66.975,101.721,36.851c0,0-15.991-11.821-19.464-26.419"/>
					<path fill="#776537" d="M438.77,96.539c0,0-25.553,47.355-85.809,37.238c0,0,13.167-11.057,15.386-23.839"/>
					<path fill="#776537" d="M410.742,41.284c0,0,11.215-3.975,7.416-20.397c0,0,12.52,12.045,12.52,24.102
						c0,0,5.096-25.026,15.755-28.736c0,0-3.883,32.887,28.542,23.244l-5.834,13.373l-23.175,28.263l-42.634-7.878L410.742,41.284z"
						/>
				</g>
			</g>
		</g>
		
			<path fill="none" stroke="#F4B07D" stroke-width="50.8733" stroke-linecap="round" stroke-linejoin="round" stroke-miterlimit="10" d="
			M349.026,324.041c0,0-97.247,70.551-105.654,146.172c-8.672,78.148-4.335,96.963-4.335,138.355"/>
		<path fill="none" stroke="#282828" stroke-width="52.0972" stroke-linejoin="round" stroke-miterlimit="10" d="M349.026,324.041
			c0,0-97.247,70.551-105.654,146.172c-8.672,78.148-4.335,96.963-4.335,138.355"/>
		
			<path fill="none" stroke="#F4B07D" stroke-width="50.8733" stroke-linecap="round" stroke-linejoin="round" stroke-miterlimit="10" d="
			M528.822,325.305c0,0,97.244,70.559,105.652,146.174c8.672,78.141,4.344,96.951,4.344,138.348"/>
		<path fill="none" stroke="#282828" stroke-width="52.0972" stroke-linejoin="round" stroke-miterlimit="10" d="M528.822,325.305
			c0,0,97.244,70.559,105.652,146.174c8.672,78.141,4.344,96.951,4.344,138.348"/>
		<path fill="#F4B07D" d="M342.385,313.643c-14.812,63.217-43.424,58.127-43.424,164.988c0,131.531,0,107.895,0,111.232
			c0,0.24,14.472,0.352,14.472,0.352h124.91V313.643H342.385z"/>
		<path fill="#F4B07D" d="M529.51,313.643c14.809,63.217,43.416,58.127,43.416,164.988c0,131.531,0,107.895,0,111.232
			c0,0.24-14.473,0.352-14.473,0.352H433.552V313.643H529.51z"/>
		<rect x="341.204" y="310.537" fill="#FFFFFF" width="187.622" height="271.566"/>
		<path fill="#282828" d="M355.702,302.172v282.463h-70.967c0,0-21.718-206.049,49.553-282.463H355.702z"/>
		<path fill="#282828" d="M519.797,302.172v282.463h76.23c0,0,12.828-234.133-54.814-282.463H519.797z"/>
		<polygon fill="#2D2D2D" points="354.417,302.041 316.23,351.949 352.146,354.605 316.23,399.967 354.417,539.344 		"/>
		<polygon fill="#2D2D2D" points="519.545,302.041 557.736,351.949 521.82,354.605 557.736,399.967 519.545,539.344 		"/>
		<g>
			<g>
				<polygon fill="#EA94C7" points="408.719,311.719 436.741,339.734 465.762,311.719 437.401,304.367 				"/>
				<path fill="#EA94C7" d="M446.503,327.756l-8.777-8.918v-0.977l-0.484,0.477l-0.485-0.477l-0.05,1.041l-8.736,8.854
					l-20.488,195.092c0,0,22.506,50.73,30.244,50.73c9.818,0,29.272-50.73,29.272-50.73L446.503,327.756z"/>
			</g>
			<polygon fill="#D6D6D6" points="341.723,281.902 438.343,304.367 408.432,336.324 333.823,302.088 333.823,279.266 			"/>
			<polygon fill="#D6D6D6" points="534.008,281.902 437.401,304.367 467.295,336.324 541.908,302.088 541.908,279.266 			"/>
		</g>
		<g>
			<path fill="#F4B07D" d="M503.736,273.693c0,0-10.535,35.438-66.96,35.438c-55.742,0-66.953-35.438-66.953-35.438
				s20.384,26.104,69.328,26.104C439.151,299.797,471.771,302.918,503.736,273.693z"/>
		</g>
	</g>
</g>
</svg>
