<?xml version="1.0" encoding="utf-8"?>
<!-- Generator: Adobe Illustrator 16.0.0, SVG Export Plug-In . SVG Version: 6.00 Build 0)  -->
<!DOCTYPE svg PUBLIC "-//W3C//DTD SVG 1.1//EN" "http://www.w3.org/Graphics/SVG/1.1/DTD/svg11.dtd">
<svg version="1.1" id="Layer_1" xmlns="http://www.w3.org/2000/svg" xmlns:xlink="http://www.w3.org/1999/xlink" x="0px" y="0px"
	 width="40px" height="55.07px" viewBox="0 0 40 55.07" enable-background="new 0 0 40 55.07" xml:space="preserve">
<g id="_x31__2_">
	<path fill="#4EAFAA" d="M1.878,11.139c-4.422,8.681-0.261,17.215,4.484,24.601c4.153,6.468,8.586,12.77,13.062,19.015
		c0.302,0.422,0.838,0.422,1.141,0c3.287-4.582,6.508-9.214,9.666-13.884c4.464-6.596,9.313-13.018,9.769-21.243
		C39.232-1.295,11.425-7.603,1.878,11.139z"/>
	<path fill="#FFFFFF" d="M19.999,6.184c-7.425,0-13.446,6.018-13.446,13.443c0,7.424,6.021,13.442,13.446,13.442
		c7.423,0,13.439-6.019,13.439-13.442C33.438,12.201,27.421,6.184,19.999,6.184z"/>
</g>
</svg>
