<?xml version="1.0" encoding="utf-8"?>
<!-- Generator: Adobe Illustrator 16.0.0, SVG Export Plug-In . SVG Version: 6.00 Build 0)  -->
<!DOCTYPE svg PUBLIC "-//W3C//DTD SVG 1.1//EN" "http://www.w3.org/Graphics/SVG/1.1/DTD/svg11.dtd">
<svg version="1.1" id="Layer_1" xmlns="http://www.w3.org/2000/svg" xmlns:xlink="http://www.w3.org/1999/xlink" x="0px" y="0px"
	 width="1440px" height="700px" viewBox="0 0 1440 700" enable-background="new 0 0 1440 700" xml:space="preserve">
<rect fill="#657A38" width="1440" height="700"/>
<g>
	<path fill="#3E4924" d="M914.092,694.383c-0.344,0-0.698-0.018-1.041-0.033c-4.563-0.39-8.349-3.389-11.26-8.902
		c-0.332-0.698-0.772-1.6-1.328-2.735c-6.196-12.636-7.574-16.949-6.141-19.237c1.702-3.029,5.566-1.902,8.42-1.092
		c0.982,0.29,2.467,0.695,3.183,0.664c1.195-0.325,1.339-0.462,1.407-3.461c0.026-1.299,0.048-2.727,0.35-4.307
		c0.104-1.066,0.354-2.453,0.577-4.004c0.808-4.82,1.913-11.406,0.229-14.578c-0.451-0.953-1.116-1.193-2.876-1.669
		c-1.613-0.432-3.576-0.995-5.219-2.813c-2.045-2.549-1.755-5.889-1.495-8.558c0.114-1.306,0.313-3.455-0.153-3.88
		c0-0.022-0.396-0.393-1.979-0.194c-0.957,0.117-1.594-0.272-2.029-0.916c-0.47-0.647-0.531-1.493-0.265-2.211
		c0.368-0.845,0.421-1.864,0.277-2.978c-0.311-0.413-0.458-0.911-0.458-1.466c0.031-0.132,0.031-0.235,0.072-0.361
		c-0.632-2.081-1.838-4.287-3.111-6.052c-2.4-3.604-4.527-4.998-7.993-7.293l-2.493-1.656c-5.612-3.745-12.608-8.424-18.818-10.241
		c-4.332-1.332-13.897-2.138-17.927-0.368c-2.799,1.284-7.847,4.59-10.335,7.078c-0.627,0.634-1.232,1.906-1.818,3.136
		c-0.982,2.052-1.967,4.144-3.803,5.302c-2.482,1.623-4.116,1.049-5.559,0.298c-0.562-0.263-0.997-0.482-1.671-0.558
		c-3.013-0.25-4.808,0.489-5.717,4.651c-0.326,1.343-0.374,2.188-0.388,2.788c-0.134,2.915-1.358,3.58-4.569,4.654
		c-3.561,1.445-9.534,0.591-12.393-0.268c-0.624-0.194-1.142-0.672-1.428-1.312c-0.26-0.626-0.213-1.348,0.14-1.932
		c0.363-0.665,0.801-1.311,1.229-1.947c1.4-1.983,1.682-2.604,1.081-3.728c-0.04,0-0.403-0.172-0.658-0.286
		c-0.89-0.405-2.346-1.112-2.976-2.978c-0.43-0.784-0.146-1.995,0.058-2.96c0.016-1.365,0.09-2.424,0.146-3.404
		c0.134-2.312,0.134-3.106-1.225-4.21c-2.072-1.673-9.634-2.29-12.519-2.519c-0.937-0.066-1.678-0.15-2.06-0.199
		c-0.411-0.053-0.757-0.248-1.063-0.492c-0.114,0.607-0.314,1.285-0.766,2.034c-0.691,2.021-4.918,7.188-9.186,9.669
		c0.754,1.969,0.482,3.645-0.057,4.871c-2.698,6.038-15.188,8.135-19.658,7.74l-1.858-0.156c-2.699-0.235-3.99-0.361-6.554,0.824
		c-0.874,0.429-1.713,0.944-2.565,1.464c-1.913,1.174-3.915,2.364-6.549,3.023l-1.288,0.302c-2.788,0.658-6.302,1.506-9.032,0.874
		c-2.279-0.698-3.643-2.134-4.841-3.411c-0.792-0.854-1.495-1.604-2.283-1.939c-1.781-0.723-3.697-0.298-5.864,0.187
		c-1.896,0.409-3.924,0.898-6.01,0.562c-3.188-0.49-4.496-2.429-5.443-3.847c-0.07-0.11-0.167-0.233-0.23-0.339
		c-0.035,0.079-0.068,0.143-0.102,0.215c-0.758,1.454-1.683,3.088-3.052,4.486c-1,1.125-2.767,1.936-4.643,2.785
		c-1.112,0.5-2.941,1.321-3.274,1.821c-0.423,1.419,1.084,2.997,3.259,5.101c1.621,1.541,3.151,2.992,3.506,4.811
		c0.735,2.449-0.872,6.113-3.092,10.632c-0.567,1.198-1.101,2.277-1.327,2.991c-1.616,4.826-3.295,8.037-7.461,11.232
		c-2.979,2.318-7.375,5.108-11.23,5.108c-1.506,0-2.803-0.372-3.938-0.698c-1.136-0.309-2.074-0.516-3.083-0.484
		c-1.103,0.112-1.402,0.432-2.138,1.207c-0.449,0.478-0.984,1.094-1.793,1.614c-2.697,2.149-6.112,4.696-9.975,6.291
		c-2.379,0.96-4.543,1.332-6.562,1.332c-3.799,0-7.007-1.345-10.337-2.753c-1.111-0.46-2.313-0.944-3.573-1.424
		c-6.391-2.209-5.843-6.352-5.503-9.082c0.29-2.148,0.392-3.431-0.901-4.884c-2.441-2.655-11.248-2.748-14.979-0.806
		c-0.023,0.021-0.057,0.037-0.081,0.062c0.056,0.242,0.11,0.484,0.167,0.729c0.754,3.253,0.943,5.831-3.362,9.744
		c-1.907,1.722-4.054,2.317-5.917,2.839c-1.479,0.405-2.739,0.766-3.785,1.592c-0.562,0.48-0.984,1.63-1.407,2.858
		c-0.361,1.024-0.742,2.001-1.227,2.878c-0.762,1.188-1.856,1.549-2.448,1.742c-0.458,1.097-0.544,2.004-0.632,3.064
		c-0.179,1.744-0.354,3.918-2.007,6.164c-0.662,0.9-1.69,1.751-2.862,2.732c-1.597,1.33-4.243,3.563-3.818,4.704
		c0.348,0.696,3.68,0.339,5.133,0.181c0.886-0.09,1.737-0.163,2.369-0.163c4.513,0,8.267,1.563,11.896,3.089
		c0.707,0.303,1.218,0.924,1.344,1.703c0.141,0.753-0.141,1.532-0.727,2.043l-1.03,0.877c-2.165,1.871-3.009,2.682-2.846,4.5
		c0.008,0.051,0.029,0.102,0.047,0.152h321.346c1.687-2.426,3.284-4.885,4.69-7.37C918.698,693.727,916.397,694.383,914.092,694.383
		z"/>
	<path fill="#3E4924" d="M23.449,587.187c2.605-0.126,4.751-0.255,5.95-0.255c12.298,0.863,23.827,0.03,36.065-0.824l0.665-0.039
		c7.996-0.463,16.18-0.463,24.077-0.389c6.546,0.01,13.293,0.049,19.829-0.202c1.439-0.088,2.807,0.071,4.363,0.161
		c3.957,0.227,9.152,0.486,12.391-0.668c-0.242-2.738,0.658-4.656,1.445-6.396c0.461-1.046,0.918-2.01,1.175-3.215
		c1.046-3.772,0.632-8.835,0.259-13.305c-0.128-1.434-0.234-2.821-0.315-4.111c-0.26-7.752,3.243-14.428,6.597-20.876
		c0.098-0.187,0.191-0.378,0.29-0.567c-0.917-2.363,0.182-4.777,0.992-6.506c0.377-0.823,0.742-1.594,0.89-2.239
		c0.368-1.729-0.075-3.929-1.315-6.78c-0.788-1.764-2.331-2.915-3.945-4.113c-2.367-1.757-5.485-4.127-4.874-8.861
		c-0.799-0.806-0.908-2.087-0.174-2.98c1.622-1.986,2.546-5.013,3.431-7.957c0.376-1.215,0.738-2.424,1.126-3.561
		c2.141-5.765,5.117-11.133,7.992-16.3c1.95-3.55,4.225-6.823,6.431-9.976c3.159-4.535,6.136-8.82,8.252-13.875
		c1.151-2.75,2.007-5.626,2.911-8.669c0.835-2.87,1.72-5.831,2.883-8.718c0.853-2.35,2.081-4.561,3.266-6.699
		c0.892-1.613,1.832-3.219,2.57-4.961c2.603-5.387,4.516-10.685,6.585-16.322c1.147-3.145,2.305-6.307,3.543-9.459
		c2.847-7.069,6.61-13.862,10.211-20.447c2.684-4.916,5.491-10.012,7.835-15.072c4.597-9.447,10.074-19.92,17.534-27.081
		c-0.044-0.529,0.081-1.073,0.43-1.524c0.77-1.057,2.018-1.995,3.348-3c1.034-0.775,3.154-2.404,3.325-3.107
		c-0.435-0.124-2.315,1.147-3.059,1.707l-0.797,0.59c-5.604,4.29-14.351,6.958-21.155,6.804c-1.2-0.062-2.14-1.039-2.14-2.244
		c0-1.808-0.159-2.407-0.237-2.601c-1.255-1.814-1.734-1.847-3.667-2.034c-0.855-0.068-1.854-0.172-3.021-0.425
		c-3.34-0.738-4.956-1.387-5.442-4.107c-0.097-0.498-0.178-1.039-0.68-1.902c-3.171-5.204-5.354-5.835-10.625-7.377l-2.026-0.608
		c-2.722-0.713-6.002-0.769-9.505-0.819c-4.217-0.075-8.604-0.146-12.375-1.533c-3.351-1.643-10.153-6.525-12.238-10.326
		c-0.583-1.456-0.81-2.297-0.988-2.997c-0.237-0.951-0.316-1.259-1.071-2.138c-0.599-0.753-1.078-1.257-1.435-1.645
		c-1.49-1.66-1.812-2.208-2.539-5.401c-0.139-0.366-0.292-1.112-0.478-1.907c-0.272-1.156-0.698-3.113-1.257-3.692
		c-0.341-0.287-0.747-0.273-2.158-0.049c-1.297,0.194-2.968,0.44-4.712-0.348c-3.461-1.253-3.92-4.875-4.302-7.8
		c-0.101-0.914-0.238-1.854-0.449-2.707c-0.405-1.847-0.459-3.268-0.491-4.657c-0.021-0.801-0.038-1.643-0.135-2.609
		c-0.274-2.319-1.31-4.97-2.399-7.762c-1.722-4.4-3.609-9.271-2.847-14.047c-2,0.2-4.205,0.02-6.289-0.161
		c-2.063-0.181-4.188-0.396-5.567-0.136c-2.315,0.436-4.535,1.11-6.708,1.779c-2.116,0.645-4.173,1.273-6.333,1.713
		c-1.906,0.422-4.104,0.37-6.229,0.277c-2.298-0.075-4.633-0.141-6.131,0.449c-3.114,1.118-5.319,7.359-6.536,10.706
		c-0.228,0.718-0.377,1.423-0.544,2.141c-0.381,1.709-0.742,3.301-1.564,4.433c-0.934,1.715-2.649,2.777-4.173,3.715
		c-0.998,0.612-1.935,1.181-2.6,1.951c-1.371,1.704-1.622,3.796-1.906,6.229c-0.292,2.4-0.625,5.146-2.311,7.529
		c-1.967,2.841-5.142,3.105-7.448,3.325c-0.768,0.068-1.954,0.167-2.244,0.375c-0.254,0.607-0.713,1.03-1.346,1.233
		c-0.624,0.201-1.273,0.088-1.85-0.273c-2.722-1.683-4.846-3.852-7.088-6.166c-1.078-1.112-2.189-2.237-3.422-3.389
		c-0.016-0.02-0.414-0.43-0.446-0.445c-2.547-2.581-4.234-4.111-7.031-3.396c-1.374,0.416-3.305,1.689-5.154,2.913
		c-1.398,0.945-2.777,1.836-3.998,2.449c-3.995,2.229-3.995,3.306-3.995,9.306c0,6.63-0.384,12.437-1.184,17.757
		c-0.1,0.617-0.429,1.149-0.94,1.506c-0.341,0.238-0.787,0.378-1.233,0.378c-0.162,0-0.333-0.018-0.467-0.048
		c-0.855-0.182-1.692-0.389-2.52-0.608v274.094c2.044,0.281,4.147,1.055,5.764,2.106C9.345,587.889,19.011,587.429,23.449,587.187z"
		/>
	<path fill="#3E4924" d="M1.871,292.239c0-6.276,0-9.737,6.387-13.272c1.172-0.59,2.388-1.403,3.63-2.229
		c2.124-1.418,4.338-2.86,6.401-3.477c5.409-1.488,8.75,1.865,11.417,4.534c1.615,1.504,2.782,2.711,3.922,3.878
		c1.643,1.708,3.113,3.213,4.757,4.475c1.265-0.749,2.838-0.888,4.136-1.009c2.107-0.189,3.443-0.379,4.175-1.436
		c1.068-1.489,1.266-3.338,1.521-5.492c0.337-2.708,0.692-5.791,2.907-8.575c1.192-1.365,2.54-2.185,3.723-2.905
		c1.201-0.733,2.243-1.363,2.758-2.316c0.429-0.623,0.75-2.076,0.957-2.955c0.183-0.9,0.397-1.755,0.617-2.478
		c1.722-4.822,4.212-11.807,9.205-13.582c2.269-0.951,5.125-0.859,7.899-0.753c1.933,0.075,3.738,0.123,5.149-0.179
		c2.059-0.412,4.002-1.024,5.952-1.612c2.278-0.703,4.622-1.416,7.185-1.896c1.947-0.365,4.315-0.147,6.812,0.066
		c2.783,0.255,6.958,0.627,7.556-0.612c0.491-1.147,0.442-7.492,0.077-10.015c-0.122-1.127-0.403-1.768-0.787-2.574
		c-0.373-0.797-0.774-1.689-0.957-2.94c-0.544-1.889-0.981-6.725-0.231-9.358c0.165-1.018,0.782-1.938,1.301-2.643
		c0.47-0.7,0.659-0.993,0.659-1.385c0-0.814,0.45-1.493,1.094-1.887c-0.007-3.226-0.643-4.95-3.107-5.879
		c-1.728-0.636-4.468,0.183-7.243-0.863c-1.881-0.713-3.118-2.131-4.204-3.369c-0.621-0.718-1.201-1.383-1.817-1.832
		c-0.888-0.542-1.732-0.971-2.449-1.332c-2.072-1.057-3.724-1.883-5.722-5.151c-1.947-3.613-3.244-4.895-6.054-7.705
		c-3.062-2.801-3.833-6.982-4.505-10.658c-0.224-1.165-0.447-2.33-0.722-3.411c-0.188-0.733-0.354-1.517-0.535-2.347
		c-0.397-1.846-0.876-3.931-1.378-5.184c-0.121-0.124-0.406-0.379-0.86-0.755c-0.561-0.48-1.293-1.112-1.909-2.151
		c-2.429-3.887-2.712-11.138-2.568-17.304c-0.587-0.581-0.849-1.453-0.563-2.286c0.799-2.44,0.884-4.488,0.973-6.654
		c0.118-2.832,0.243-5.774,2.109-9.104c0.973-1.727,1.682-3.583,2.44-5.514c1.439-3.684,2.941-7.465,6.112-10.42
		c0.681-0.687,1.574-1.409,2.546-2.123c1.769-1.356,3.592-2.779,3.724-4.265c0-0.735-0.131-0.958-0.131-0.976
		c-0.042-0.053-0.299-0.222-0.45-0.375c-0.466-0.356-1.099-0.836-1.792-1.667c-3.573-4.516-4.82-7.478-6.26-12.426
		c-1.61-4.453-3.296-4.772-7.786-5.677l-1.557-0.315c-0.617-0.169-1.067-0.253-1.456-0.341c-3.325-0.718-5.012-2.013-4.383-6.787
		c0.466-3.03,1.629-3.979,3.357-4.541c0.454-0.137,0.572-0.172,0.857-0.562c0.916-1.121,1.548-4.116,1.065-6.302
		c-0.24-0.753-0.409-0.996-0.434-0.996c-0.849-0.24-1.866-0.729-2.839-2.446c-0.827-1.334-0.909-2.708-0.981-3.73
		c-0.093-1.235-0.125-1.418-0.802-1.836c-0.933-0.581-1.678-0.696-1.756-0.625c0,1.244-0.798,2.405-2.039,2.405
		c-0.791,0-1.974,0.161-3.366,0.344c-3.202,0.392-6.958,0.876-9.959,0.356c0.057,0.053,0.105,0.108,0.163,0.159
		c1.533,1.594,2.188,2.281,2.473,3.034c1.428,4.928-2.335,7.425-4.808,9.055c-1.648,1.092-2.569,1.797-2.968,2.481
		c0.076,0.471-0.017,0.927-0.23,1.343c0.071,1.147-0.718,2.191-1.878,2.37c-0.222,0.031-0.426-0.007-0.633-0.033
		c-0.269,0.392-0.464,0.824-0.682,1.334c-0.609,1.418-1.427,3.358-4.412,4.413c-1.808,0.617-3.843,0.652-5.661,0.689
		c-1.256,0.016-2.465,0.046-3.248,0.251c-0.823,0.073-1.556,0.377-2.031,0.551c-0.609,0.255-1.201,0.465-1.732,0.61
		c-1.123,0.344-2.08,0.454-2.976,0.538c-1.221,0.127-1.629,0.169-2.372,0.92c-0.325,0.264-0.446,0.585-0.632,1.079
		c-0.396,1.048-1.006,2.656-2.982,3.872c-2.166,1.24-3.782,1.453-4.975,1.577c-1.304,0.158-1.442,0.183-2.066,1.352
		c0,0.066,0.016,0.225,0.128,0.661c0.302,1.414,0.302,3.069-2.068,4.536C0.041,95.61,0.018,95.617,0,95.628v210.979
		c0.354,0.103,0.708,0.206,1.068,0.301C1.599,302.46,1.871,297.638,1.871,292.239z"/>
	<path fill="#3E4924" d="M441.894,189.358c-1.06,0-1.809,0.253-2.609,0.509c-1.612,0.513-3.63,1.183-6.552-0.932
		c-1.365-1.103-1.962-2.678-2.488-4.078c-0.277-0.689-0.562-1.489-0.841-1.841c-0.767-1.207-1.286-1.522-2.284-2.101
		c-0.727-0.429-1.499-0.907-2.367-1.662c-0.643-0.634-1.111-1.262-1.622-1.932c-0.379-0.498-0.751-1.013-1.119-1.392
		c-0.7-0.63-1.246-0.903-1.792-1.149c-1.335-0.647-2.367-1.348-3.127-3.865c-0.41-1.931-0.121-3.728,0.143-5.445
		c0.251-1.568,0.465-3.057,0.154-4.109c-0.405-1.471-1.248-2.079-2.678-3.03c-1.24-0.833-2.646-1.779-3.552-3.576
		c-1.605-2.356-1.643-5.096-1.651-7.476c-0.021-3.23-0.033-5.182-3.688-6.864c-0.289-0.137-0.528-0.331-0.727-0.557
		c-0.866-0.216-1.602-1.042-1.685-2.011c-0.381-4.69,0.167-9.244,0.687-13.635c0.326-2.691,0.652-5.382,0.749-8.135
		c0-0.445,0-0.784,0-1.048c-0.942-0.097-2.081-0.476-3.222-1.727c-2.141-2.616-1.907-5.899-1.742-8.802
		c0.073-1.063,0.112-2.07,0.079-2.979c-2.855-0.326-3.794-1.872-4.556-3.576c-0.293-0.639-0.511-1.198-1.033-1.788
		c-0.594-0.705-1.515-1.083-2.592-1.515c-0.724-0.304-1.51-0.63-2.283-1.09c-1.358,2.085-2.836,4.158-4.294,6.172
		c-1.518,2.092-3.059,4.202-4.394,6.318c-1.281,1.61-2.063,3.083-2.875,4.644c-0.735,1.385-1.418,2.757-2.411,4.123
		c-1.37,1.867-3.021,3.232-4.642,4.521c-1.458,1.161-2.814,2.275-3.82,3.643c-4.849,6.657-8.337,13.613-12.015,21.005
		c-1.042,2.079-2.087,4.157-3.171,6.28c-0.727,1.303-1.539,2.631-2.38,3.999c-1.257,2.081-2.577,4.21-3.389,6.064
		c-0.632,1.436-0.812,2.62-1.037,3.75c-0.359,2.239-0.764,4.547-4.259,6.538c-0.187,0.258-10.662,4.779-16.546,4.779
		c-1.116,0-2.085-0.163-2.744-0.533c-2.096-1.299-2.292-3.087-2.389-4.058c-0.004-0.201-0.055-0.482-0.09-0.579
		c-0.452-0.066-1.61,0.097-2.383,0.22c-1.649,0.244-3.356,0.478-4.583,0.321c-2.067-0.127-4.021-0.967-5.692-1.722
		c-1.914-0.841-3.134-1.365-4.259-0.978c-1.022,0.295-2.101,1.233-3.239,2.237c-1.513,1.304-3.248,2.814-5.455,3.545
		c-3.453,1.062-7.307,1.259-10.695,0.669c-2.442-0.669-3.966-1.749-5.316-2.687c-0.798-0.604-1.578-1.143-2.444-1.528
		c-0.876-0.436-1.792-0.612-2.79-0.811c-0.382-0.075-0.784-0.158-1.191-0.251c-0.117,1.467-0.275,2.942-0.434,4.391
		c-0.313,2.601-0.598,5.272-0.598,7.666c-0.105,2.292,0,3.017,0.09,3.241c0.098-0.108,1.305-0.073,2.311-0.048l2.157,0.073
		c5.61,0.251,11.652,3.73,15.563,8.57c1.269,0.484,2.57,0.757,3.909,1.035c2.239,0.476,4.561,0.947,6.696,2.479
		c1.203,0.903,2.079,1.993,2.889,3.034c1.013,1.242,1.843,2.308,3.012,2.783c0.368,0.071,1.077,0.09,1.81,0.051
		c1.366,0.04,2.826-0.015,4.413,1.02c2.656,1.876,2.834,3.66,2.742,5.313c-0.009,0.57-0.009,0.896,0.13,1.293
		c1.123,2.748,2.521,4.963,4.129,7.373l0.9,1.385c2.11,3.151,2.918,4.067,5.651,3.732c1.028-0.154,1.968,0.485,2.327,1.405
		c0.058,0.048,0.124,0.079,0.176,0.132c0.507,0.54,0.72,1.291,0.601,1.989c0.014,0.769,0.189,2.64,0.368,4.644
		c0.277,2.73,0.52,5.677,0.52,6.826c0,0.806-0.064,1.691-0.139,2.599c-0.104,1.233-0.169,2.508-0.07,3.457
		c1.109,0.727,2.032,1.387,2.422,2.533c0.275,0.691,0.529,1.574,0.767,2.455c0.196,0.716,0.394,1.432,0.636,2.087
		c1.394,3.631,4.23,11.057,7.002,12.887c1.092,0.775,1.967,1.015,2.971,1.279c1.685,0.432,3.724,0.949,5.703,3.598
		c2.158,3.131,2.504,7.088,2.779,10.596c0.146,1.484,0.264,2.933,0.515,4.241c1.062,4.649,4.329,7.915,10.914,10.87
		c3.123,1.583,9.385,3.666,10.764,3.36c2.545-0.982,5.309-10.94,6.657-15.716c1.536-5.499,2.155-7.701,3.968-8.083
		c2.806-3.863,6.226-6.761,10.36-9.799c1.57-1.438,3.878-2.38,6.122-3.319c1.753-0.722,3.525-1.451,4.38-2.276
		c1.323-1.205,1.788-3.288,2.31-5.468c0.401-1.676,0.807-3.392,1.577-4.973c3.601-5.98,6.395-9.542,8.627-11.032
		c0.207-0.134,0.437-0.207,0.668-0.269c1.812-7.452,14.229-16.159,14.353-16.256c1.85-1.308,4.182-2.385,6.417-3.409
		c3.792-1.755,7.749-3.565,9.097-6.438c1.841-3.477,1.311-11.949-1.916-17.344C446.158,191.446,444.375,189.358,441.894,189.358z"/>
	<path fill="#3E4924" d="M590.006,302.174c-0.434-0.923-0.16-1.975,0.577-2.629c-0.401-0.859-1.165-1.304-2.607-2.099l-1.37-0.773
		c-1.358-0.665-2.622-1.695-3.88-2.653c-1.409-1.112-2.734-2.156-4.173-2.68c-0.453-0.104-1.299-0.088-2.19-0.053
		c-1.442,0.018-3.05,0.114-4.62-0.573c-1.946-0.573-3.09-1.779-4.01-2.744c-0.524-0.59-0.984-1.057-1.621-1.378
		c-2.171-1.333-4.931-1.44-7.751-1.317c-1.614,0.057-3.422,0-5.159-0.209c-1.646-0.253-3.225-0.341-4.818-0.403
		c-2.239-0.141-4.541-0.26-7.005-0.777c-1.116-0.293-2.063-0.614-2.975-0.9c-2.944-0.991-4.942-1.634-7.527-0.414
		c-2.634,1.077-6.084,4.005-7.56,5.989c-2.781,3.889-4.008,4.708-7.298,6.851l-1.367,0.918c-1.99,1.308-3.197,2.977-4.622,4.88
		c-0.775,1.063-1.576,2.136-2.532,3.171c-2.394,2.427-5.378,3.86-8.267,5.232c-1.44,0.694-2.86,1.374-4.136,2.158l-1.715,1.215
		c-3.462,2.451-7.386,5.206-9.937,8.205c-0.645,0.7-1.199,1.722-1.794,2.786c-1.651,2.882-4.096,7.225-9.395,6.075
		c-1.213-0.273-1.957-1.471-1.715-2.673l0.317-1.216c0.134-0.572,0.348-1.334,0.451-2.083c-0.6,0.581-1.24,1.11-1.969,1.577
		c-1.816,1.361-3.515,1.506-4.785,1.636c-0.674,0.055-1.185,0.105-1.651,0.319c-1.894,0.769-2.316,1.794-2.955,3.483
		c-0.624,1.597-1.39,3.563-3.567,5.236c-0.438,0.344-0.914,0.484-1.395,0.484c-0.625,0-1.227-0.257-1.676-0.735
		c-1.83-1.988-3.184-4.336-4.498-6.624c-0.267-0.427-0.507-0.876-0.765-1.304c-0.839,0.63-1.89,0.841-2.979,0.978
		c-0.458,0.084-1.041,0.13-1.651,0.326c-1.523,0.378-2.979,1.334-4.376,2.224c-1.613,1.039-3.273,2.101-5.117,2.484
		c-4.854,0.907-12.738-5.241-14.994-8.095c-1.604-2.348-2.211-4.825-2.734-7.209c-0.479-2.075-0.942-4.039-2.015-5.724
		c-0.159-0.2-0.474-0.557-0.807-0.9c-0.955-1.062-2.043-2.264-2.599-3.933c-0.543-1.614-0.109-3.074,0.196-4.153
		c0.163-0.56,0.359-1.11,0.284-1.42c-0.383-2.01-0.874-2.614-3.673-3.076c-2.579-0.348-6.802-0.035-7.928,0.766
		c-1.462,1.031-2.032,1.771-2.513,2.44c-1.446,1.973-2.697,2.708-6.797,2.902l-0.775,0.04c-3.015,0.154-3.015,0.154-4.876,3.687
		c-2.776,4.629-4.906,8.147-10.961,9.819c-4.362,1.11-12.296,0-13.84-3.871c-0.551-1.368-0.839-4.023,3.712-6.626
		c1.464-0.819,2.911-0.96,4.16-1.097c1.52-0.154,2.603-0.269,3.794-1.449c1.22-1.229,2.017-2.698,2.345-4.294
		c-4.653-0.291-11.872-3.668-11.962-3.704c-5.223-2.345-11.578-6.117-13.36-14.001c-0.306-1.506-0.464-3.136-0.59-4.798
		c-0.269-3.087-0.522-6.278-1.956-8.344c-1-1.324-1.768-1.506-3.208-1.885c-1.191-0.324-2.715-0.7-4.397-1.938
		c-3.567-2.363-6.254-8.711-8.452-14.499c-0.48-1.216-0.747-2.105-0.984-2.988c-0.191-0.725-0.385-1.442-0.627-2.079
		c0.13,0.231-0.302-0.095-0.496-0.205c-0.616-0.392-1.339-0.837-1.75-1.625c-0.665-2.175-0.48-4.126-0.372-6.025
		c0.073-0.771,0.121-1.541,0.121-2.259c0-1.079-0.277-3.847-0.48-6.412c-0.176-1.792-0.297-3.105-0.361-4.091
		c-4.278-0.198-6.206-3.004-8.024-5.752l-0.885-1.326c-1.704-2.563-3.31-5.096-4.6-8.275c-0.502-1.33-0.449-2.332-0.427-3.083
		c0.033-0.823,0.033-0.841-0.815-1.438c-0.376-0.249-0.731-0.279-1.858-0.249c-0.859,0-1.912,0.022-3.213-0.291
		c-2.572-1.002-3.951-2.722-5.151-4.246c-0.676-0.867-1.339-1.687-2.041-2.226c-1.308-0.954-2.971-1.292-4.919-1.689
		c-0.084-0.018-0.176-0.04-0.262-0.057c-0.119,0.7-0.524,1.343-1.207,1.673c-1.083,0.538-2.449,0.06-2.995-1.052
		c-0.394-0.819-0.894-1.604-1.44-2.365c-0.051-0.022-0.099-0.04-0.152-0.064c-0.654-0.321-1.037-0.922-1.167-1.579
		c-3.105-3.417-7.542-5.86-11.566-6.042l-2.051-0.07c-2.473-0.053-4.266-0.113-5.556-1.493c-1.338-1.427-1.354-3.519-1.216-6.298
		c0-2.542,0.333-5.347,0.641-8.053c0.242-2.145,0.462-4.19,0.542-6.117c-0.386-0.385-0.761-0.812-1.098-1.343
		c-0.663-1.033-0.354-2.389,0.664-3.063c-0.353-0.841-0.9-1.552-1.722-2.123c-3.974-2.739-12.675-2.039-19.083-0.247
		c-1.568,0.379-3.487,1.429-5.546,2.555c-3.886,2.087-7.932,4.276-11.72,3.594c-2.165-0.427-3.721-1.859-5.238-3.233
		c-0.028-0.033-0.073-0.066-0.125-0.104c-0.338,0.811-0.881,1.559-1.535,2.407l-0.507,0.661c-0.94,1.242-1.825,1.995-2.473,2.532
		c-0.074,0.048-0.163,0.127-0.244,0.181c0.15,0.297,0.439,0.791,1.035,1.631c0.59,1.02,1.137,1.694,1.681,2.363
		c0.683,0.85,1.399,1.727,1.956,2.839c1.524,4.054,1.288,7.031-0.556,9.057c-3.207,3.484-10.128,2.479-15.373,1.077
		c-6.029-1.304-10.786-1.42-17.915-1.095c-2.607,0.124-5.146-0.068-7.623-0.273c-3.167-0.242-6.188-0.489-9.253-0.035
		c-3.528,0.753-4.607,1.163-6.857,3.424c-0.426,0.473-0.673,0.976-0.957,1.526c-0.851,1.661-1.746,2.993-4.903,3.968
		c-2.092,0.683-4.427,0.394-6.691,0.136c-2.331-0.26-4.504-0.524-5.975,0.278c-0.236,0.143-0.391,0.392-0.768,1.09
		c-0.587,1.116-1.504,2.759-3.993,3.922c-2.367,0.973-4.793,0.973-6.917,0.995c-3.406,0.018-5.435,0.146-7.012,2.328
		c-0.34,0.476-0.39,0.866-0.49,1.491c-0.183,1.123-0.437,2.625-2.198,4.116c-1.662,1.249-3.815,1.819-6.116,2.418
		c-1.704,0.436-3.446,0.894-4.573,1.535c-0.021,0.41-0.045,0.815-0.069,1.205c-0.044,0.954-0.094,1.883-0.094,2.781
		c0,1.171-1.005,2.176-2.25,2.176c-0.316,0-0.615-0.07-0.89-0.192c-0.218,1.984,0.013,4.931,0.414,6.355
		c0.143,0.909,0.378,1.372,0.654,2.01c0.44,0.934,0.972,2.101,1.163,3.88c0.191,1.396,0.752,9.618-0.45,12.446
		c-0.033,0.066-0.085,0.11-0.119,0.176c0,0.022,0.01,0.044,0.01,0.066v1.286c0,0.824-0.446,1.537-1.114,1.942
		c-0.856,3.707,0.741,7.884,2.473,12.283c1.152,2.955,2.34,5.99,2.672,8.901c0.13,1.105,0.163,2.065,0.178,2.991
		c0.04,1.277,0.065,2.365,0.389,3.734c0.243,0.974,0.377,2.079,0.527,3.158c0.349,2.621,0.588,3.872,1.529,4.208
		c0.668,0.31,1.35,0.218,2.359,0.055c1.614-0.269,3.824-0.59,5.9,1.222c1.581,1.601,2.149,4.032,2.579,5.992
		c0.129,0.625,0.26,1.229,0.406,1.674c0.599,2.519,0.599,2.519,1.556,3.622c0.382,0.427,0.893,0.982,1.525,1.769
		c1.407,1.636,1.694,2.75,1.983,3.919c0.141,0.551,0.312,1.22,0.693,2.18c1.249,2.237,7.022,6.659,9.955,8.13
		c2.859,1.024,6.664,1.092,10.693,1.149c3.581,0.058,7.298,0.126,10.651,1l2.073,0.612c5.482,1.616,9.123,2.678,13.209,9.385
		c0.921,1.562,1.12,2.704,1.237,3.396c0.297,0.097,0.873,0.287,1.983,0.511c0.965,0.216,1.784,0.291,2.498,0.361
		c2.709,0.269,4.655,0.679,6.966,4.034c0.496,0.771,0.755,1.744,0.881,2.792c5.454-0.313,11.981-2.629,16.236-5.893l0.774-0.581
		c1.859-1.414,4.396-3.338,6.975-2.599c0.937,0.273,2.222,1.009,2.984,2.982c1.379,3.461-2.189,6.192-4.808,8.161
		c-0.407,0.304-0.827,0.63-1.217,0.942c0.069,0.705-0.152,1.423-0.734,1.92c-7.652,6.553-13.308,17.445-18.024,27.151
		c-2.38,5.162-5.219,10.337-7.939,15.312c-3.56,6.468-7.231,13.15-9.979,19.97c-1.237,3.105-2.364,6.224-3.499,9.333
		c-1.979,5.483-4.071,11.175-6.699,16.644c-0.774,1.792-1.767,3.549-2.733,5.303c-1.148,2.071-2.243,4.012-2.996,6.09
		c-1.112,2.795-1.958,5.648-2.786,8.41c-0.888,3.032-1.836,6.177-3.057,9.132c-2.312,5.505-5.584,10.185-8.718,14.71
		c-2.137,3.065-4.339,6.245-6.196,9.597c-2.794,5.022-5.692,10.224-7.692,15.659c-0.384,1.057-0.713,2.188-1.058,3.344
		c-0.793,2.672-1.658,5.394-3.067,7.745c0.185,0.442,0.263,0.937,0.13,1.432c-0.785,2.75,0.14,3.591,2.929,5.652
		c1.818,1.346,4.079,3.026,5.353,5.88c1.087,2.4,2.392,5.994,1.598,9.543c-0.228,1.121-0.721,2.191-1.185,3.216
		c-0.123,0.265-0.228,0.497-0.325,0.718c6.164,1.645,6.582,7.249,6.877,11.408c0.122,1.733,0.223,3.363,0.666,4.685
		c0.697,2.188,2.172,4.15,3.739,6.261c1.465,1.933,2.987,3.939,4.022,6.317l0.899,2.415c1.363,3.592,2.75,7.298,2.75,11.264
		c0.149,2.021,0.231,4.184,0.3,6.32c0.053,1.59,0.127,3.127,0.208,4.664c3.216,0.154,5.636,2.66,7.502,4.602
		c0.665,0.688,1.298,1.348,1.881,1.835c2.353,1.46,3.93,3.008,5.735,4.829c1.206,1.559,2.013,3.061,2.765,4.529
		c0.811,1.551,1.58,3.002,2.448,3.878c0.884,1.005,1.363,1.044,3.066,0.972c1.046-0.047,2.182-0.091,3.545,0.139
		c3.25,0.757,4.483,2.529,5.388,3.831c0.499,0.733,0.895,1.286,1.594,1.753c1.629,0.969,4.403,0.432,7.08-0.07
		c1.371-0.242,2.729-0.502,4.01-0.595c3.298-0.147,6.605-0.093,9.935,0c3.24,0.093,6.443,0.159,9.565,0h0.017
		c3.325,0,6.059,0.57,8.727,1.118c1.67,0.354,3.374,0.691,5.234,0.926c6.789,0.304,12.576,0.599,18.811,1.145
		c2.521,0.107,5.11,0.123,7.672,0.154c3.917,0.031,7.947,0.074,12.055,0.423l4.332,0.419c4.715,0.478,9.592,0.992,14.373,0.992
		c12.078,0.156,24.194,0.893,35.929,1.605c12.959,0.789,26.35,1.595,39.56,1.595c15.868,0,33.101,1.779,51.229,5.254l1.889,0.386
		c3.803,0.781,12.109,2.55,15.568,0.473c0.036-0.546,0.077-1.078,0.121-1.643c0.137-3.148,0.319-6.373,1.02-9.145
		c0.666-2.46,1.707-3.746,2.588-4.891c0.425-0.568,0.953-1.163,1.409-2.02c1.125-1.835,1.812-3.572,2.488-5.239
		c1.537-3.933,3.109-7.993,9.365-10.548c4.519-1.898,4.662-2.51,5.459-5.871c0.298-1.325,0.688-2.938,1.388-4.982
		c1.378-3.73,3.615-6.705,5.787-9.577c1.856-2.466,3.609-4.778,4.726-7.412c2.448-5.545-0.312-11.178-1.616-13.366
		c-2.722-4.594-5.875-9.812-2.348-16.163c0.94-1.669,2.288-2.709,3.466-3.643c1.03-0.769,1.883-1.453,2.253-2.276
		c0.733-1.63,0.326-3.352-0.176-5.34c-0.381-1.509-0.749-3.09-0.593-4.699c0.469-3.918,4.475-6.869,6.201-7.972
		c2.836-1.811,6.872-3.423,10.246-2.854c0.346-0.846,1.068-1.537,2.083-1.371c0.802,0.015,1.491,0.422,1.852,1.055
		c2.154-1.082,2.771-3.434,3.685-6.759c0.846-3.078,1.771-6.566,4.375-9.332c0.844-0.916,1.647-1.656,2.341-2.321
		c1.691-1.52,2.669-2.436,3.557-5.221c0.033-0.244,0.132-0.729,0.271-1.195c0.275-0.947,0.5-1.832,0.5-2.762
		c-0.037-0.238-0.264-1.612-0.392-2.295c-0.139-0.269-0.212-0.576-0.212-0.902c0-0.168,0.04-0.357,0.073-0.518
		c0.493-2.223,1.665-3.873,2.609-5.208c0.407-0.591,1.063-1.467,1.063-1.767c0,0-0.309-0.739-3.041-2.098
		c-1.614-0.721-3.778-1.191-6.058-1.674c-4.383-0.945-8.912-1.922-11.774-5.234c-0.614-0.703-0.74-1.727-0.286-2.537
		c1.548-2.86,3.998-4.045,5.996-4.998c1.232-0.595,2.308-1.115,3.087-1.898c0.698-0.566,1.476-1.867,2.097-2.946
		c0.766-1.265,1.579-2.603,2.448-3.604c2.528-2.812,5.336-4.596,8.018-6.313c2.863-1.811,5.594-3.536,7.507-6.298
		c0.507-0.676,0.921-1.309,1.273-1.916c1.105-1.797,2.385-3.825,4.889-4.941c1.365-0.445,2.521-0.428,3.756-0.375
		c1.018,0.051,1.998,0.051,2.639-0.191c4.117-1.451,5.857-4.705,7.874-8.49c0.895-1.61,1.744-3.229,2.764-4.671
		c1.214-1.767,2.562-3.423,3.89-5.062c2.122-2.623,4.144-5.116,5.512-7.965c0.546-1.137,0.902-2.52,1.217-3.981
		c0.472-2.037,0.965-4.129,2.135-5.891c0.669-1.112,1.829-1.902,2.822-2.623c0.647-0.444,1.312-0.911,1.66-1.323
		c0.91-1.271,1.405-2.847,1.949-4.494c0.533-1.762,1.102-3.581,2.292-5.243c1.056-1.4,2.282-2.279,3.365-3.07
		c1.03-0.757,1.898-1.396,2.306-2.168c0.53-0.965,1.722-4.939,1.788-5.743c0.116-0.947-0.028-1.595-0.24-2.434
		c-0.251-1.028-0.513-2.279-0.314-3.866c0.251-2.488,1.854-3.997,3.052-5.107c0.639-0.614,1.204-1.107,1.504-1.704
		c0.59-1.097,0.837-2.436,1.095-3.871c0.299-1.61,0.651-3.427,1.511-5.135c0.546-1.286,1.38-2.656,2.236-4.039
		c0.758-1.238,1.533-2.471,2.062-3.713c0.07-0.343,0.156-0.927,0.247-1.511c0.167-1.316,0.385-2.808,1.416-4.349
		c0.032-0.075,0.083-0.137,0.123-0.209c0.044-0.348-0.216-0.647-2.23-1.519c-1.553-0.679-3.49-1.518-3.978-3.528
		c-0.423-1.96,0.969-3.537,1.403-4.056c0.843-1.114,2.436-1.595,3.973-2.065c0.555-0.157,1.354-0.405,1.616-0.568
		c1.103-0.96,1.206-1.348,1.735-2.783l0.73-2.885c0.463-2.466,1.039-5.433,0.984-7.65
		C590.576,302.941,590.215,302.624,590.006,302.174z"/>
	<path fill="#3E4924" d="M505.227,270.967c-1.227-1.081-2.52-1.691-3.999-2.409c-1.035-0.502-2.109-1.017-3.276-1.713
		c-0.716-0.343-1.581-0.845-2.449-1.367c-1.939-1.145-3.803-2.244-5.584-2.389c-1.158-0.104-2.242,0.145-3.541,0.434
		c-1.621,0.376-3.488,0.786-5.67,0.412c-1.407-0.361-2.438-0.858-3.372-1.334c-0.939-0.478-1.676-0.857-2.604-0.965
		c-0.524,0.016-1.392,0.342-2.308,0.689c-0.87,0.324-1.746,0.619-2.583,0.764c-1.821,0.33-3.53,0.253-5.254,0.161
		c-1.518-0.055-2.947-0.121-4.257,0.104c-1.412,0.311-2.751,1.246-4.155,2.246c-1.932,1.326-4.076,2.821-6.855,3.021
		c-2.323,0.207-4.435-0.817-6.003-1.621c-1.422-0.722-2.224-1.202-3.369-1c-2.308,0.449-2.655,1.592-2.722,5.586
		c-0.062,2.548-0.097,5.441-2.279,7.269c-2.067,1.592-4.943,1.418-7.469,1.238c-0.877-0.049-2.07-0.159-2.691-0.071
		c-0.22,0.183-0.465,0.306-0.709,0.392c-0.104,0.093-0.214,0.185-0.312,0.255c3.471,1.273,6.382,2.832,8.018,4.99
		c1.16,1.414,1.667,2.797,1.449,4.118c-0.317,1.872-1.828,2.825-2.946,3.523c-0.214,0.145-0.514,0.343-0.731,0.484
		c0.066,0.051,0.13,0.172,0.218,0.304h0.018c0.073,0,0.689,0.209,1.095,0.379c1.641,0.568,3.885,1.358,4.455,3.488
		c0.361,1.352-0.084,2.729-1.269,4.171c-1.337,1.669-3.748,1.705-5.642,1.722c-0.562,0-1.372,0-1.649,0.088
		c-0.137,0.033-0.423,0.132-0.566,0.132c-2.103,0.225-3.431,0.872-3.813,1.425c-0.07,0.1-0.191,0.256-0.07,0.751
		c0.211,0.154,1.52,0.467,2.227,0.65c0.999,0.165,2.834,0.617,3.854,1.816c0.995,0.43,1.387,1.401,1.737,2.136
		c0.099,0.264,0.26,0.586,0.411,0.942c1.967,4.197,1.967,4.197,6.734,5.527c0.828,0.26,1.687,0.634,2.52,1.043
		c1.105,0.518,2.133,1.079,2.985,0.929c-0.132,0-0.185,0,0.104-0.396c0.342-0.494,0.874-1.269,1.914-1.916
		c0.878-0.442,1.274-0.7,1.517-0.881c1.317-0.876,1.883-0.819,3.999-0.658l0.76,0.05c1.396,0.176,2.614,0.647,3.753,1.112
		c1.702,0.685,3.408,0.936,4.482,0.954c0.373,0,0.666,0,0.884-0.018c0.065-1.295,0.518-3.019,2.829-4.565
		c2.323-1.715,4.825-0.98,6.62-0.423c1.781,0.537,2.529,0.685,3.349,0c0.214-0.211,0.582-1.614,0.844-2.574
		c0.542-2.052,1.101-4.193,2.975-5.197c0.658-0.361,1.811-0.656,3.277-0.192c1.645,0.192,2.488,1.9,2.981,2.911
		c0.139,0.289,0.36,0.745,0.464,0.872c0.278-0.328,0.373-1.614,0.445-2.169c0.035-0.467,0.07-0.914,0.139-1.308
		c0,0.013-0.104-0.136-0.211-0.378c-0.379-0.802-0.965-1.995-0.624-3.484c1.077-2.959,3.925-4.717,6.023-5.994l1.006-0.641
		c5.815-3.497,8.454-7.982,11.748-13.675l1.802-3.028c0.539-0.839,1.032-1.555,1.416-2.189c0.753-1.11,1.59-2.38,1.59-2.757
		C506.881,272.689,506.7,272.235,505.227,270.967z"/>
	<path fill="#3E4924" d="M913.771,431.208c-3.964-1.429-8.458-3.063-10.801-7.595l-0.738-1.469c-1.874-3.787-3.015-6.08-6.282-8.888
		l-1.365-1.026c-3.715-2.688-7.228-5.234-10.693-8.695c-8.511-8.795-16.324-13.264-27.779-18.418
		c-3.818-1.844-7.388-4.277-10.812-6.629c-4.345-2.992-8.844-6.086-13.708-7.804c-1.656-0.56-3.415-1.167-5.188-1.792
		c-2.755-0.975-5.568-1.938-8.374-2.817c-2.768-0.986-4.115-0.574-6.071,0.068c-1.026,0.342-2.094,0.679-3.382,0.868
		c-1.291,0.288-2.843,0.088-4.406-0.07c-1.365-0.182-3.046-0.375-3.718,0.048c-0.597,0.409-0.518,1.458-0.121,3.753
		c0.196,1.18,0.421,2.418,0.275,3.608c-0.079,0.733-0.493,1.358-1.151,1.716c-0.632,0.356-1.43,0.372-2.063,0.035
		c-1.605-0.826-2.957-2.33-3.717-4.162c-1.679,0.053-3.009-0.572-3.99-1.149c-0.405-0.233-0.853-0.479-1.381-0.679
		c-4.263-1.506-4.263-1.541-8.095,1.432l-0.756,0.582c-0.015,0.008-0.03,0.008-0.046,0.021c1.277,3.325-0.06,7.179-1.411,10.9
		c-1.105,2.962-2.189,6.029-1.771,8.297c0.207,1.277,0.314,2.031,0.388,2.233c0.048,0.051,0.379,0.321,0.685,0.563
		c0.43,0.37,0.991,0.837,1.72,1.488c2.766,2.771,3.125,3.955,3.486,6.606c0.083,0.649,0.18,1.437,0.374,2.462
		c0.555,2.604,1.865,4.213,3.485,6.298c0.549,0.656,1.114,1.363,1.641,2.114c2.832,3.69,2.691,5.54,2.149,8.744
		c-0.09,0.549-0.191,1.16-0.284,1.883c-0.185,2.123,0,2.771,0.507,4.532c0.174,0.607,0.37,1.29,0.577,2.173
		c0.795,2.563,0.33,4.785-0.058,6.756c-0.306,1.346-0.546,2.619-0.442,4.076c0.229,1.771,1.114,3.603,1.995,5.566
		c1.094,2.291,2.312,4.916,2.629,7.992c0.315,4.252,0.315,9.021,0,13.184c-0.066,1.297-0.207,2.862-0.383,4.508
		c-0.526,5.353-1.233,12.027,1.378,15.43c0.326,0.449,0.529,0.551,0.998,0.772c1.227,0.586,2.488,1.372,3.404,3.887
		c0.353,1.811,0.277,3.427,0.198,4.862c-0.021,0.348-0.024,0.656-0.038,0.978c0.784,1.916,1.037,3.801,1.214,5.492
		c0.323,2.933,0.518,4.263,2.457,5.113c0.729,0.312,1.597,0.398,2.539,0.489c2.244,0.253,6.034,0.646,6.349,6.363
		c0.242,3.195-1.729,7.146-3.404,10.609c-0.625,1.326-1.257,2.599-1.697,3.669c-0.375,0.903-0.749,1.735-1.128,2.536
		c1.121,0.15,2.204,0.588,3.352,1.158c1.332,0.648,2.711,1.317,4.734,1.401c1.429,0,3.569-0.665,5.622-1.282
		c1.695-0.525,3.378-1.043,4.91-1.303c4.944-0.65,8.386-0.553,12.724,0.316c8.235,1.053,10.065,3.229,13.792,8.48
		c0.537,0.756,1.145,1.609,1.832,2.548c0.92,1.233,1.557,1.304,2.79,1.471c1.138,0.144,2.72,0.335,4.31,1.563
		c1.682,1.031,2.615,3.027,3.415,4.871c0.035-0.066,0.035-0.141,0.075-0.218c0.583-1.751,1.323-3.927,3.312-5.499
		c1.843-1.295,3.68-1.764,5.413-1.995c0.062-0.158,0.107-0.321,0.207-0.467c1.297-1.876,2.836-3.148,4.084-4.14
		c2.225-1.832,2.678-2.303,2.028-4.362c-0.436-1.253-2.439-3.081-4.142-4.692c-2.876-2.704-6.668-6.175-5.857-9.998
		c-0.898-0.462-1.685-1.197-1.914-2.355c-0.592-2.783,2.4-4.787,5.88-7.108c1.162-0.8,2.931-1.986,3.29-2.486
		c0.086-0.3-0.095-1.986-0.194-3.122c-0.209-2.162-0.513-5.396,0.502-7.987c-0.476-0.999-0.193-2.216,0.782-2.818
		c1.274-0.837,2.38-1.44,3.367-1.969c2.094-1.128,3.362-1.797,4.677-3.778c1.112-1.564,2.281-2.995,3.488-4.436
		c1.109-1.321,2.25-2.634,3.204-4.021c1.33-1.664,1.645-2.726,2.103-4.315c0.279-0.991,0.604-2.083,1.163-3.389
		c0.957-2.312,2.603-3.852,4.056-5.224c1.09-1.006,2.086-1.953,2.702-3.098c0.863-1.168,0.918-1.898,0.944-3.44
		c0.026-0.979,0.053-2.017,0.286-3.182c0.738-3.283,2.894-6.313,4.587-8.269c0.872-1.231,1.652-2.462,2.35-3.576
		c2.614-4.155,4.511-7.168,12.107-8.231c0.535-0.053,0.993-0.128,1.378-0.194c-0.913-0.669-1.955-1.436-2.891-2.32
		C919.438,433.254,916.686,432.263,913.771,431.208z"/>
	<path fill="#3E4924" d="M806.325,513.973c-1.088-0.098-2.455-0.26-3.82-0.824c-4.387-1.951-4.816-5.694-5.136-8.732
		c-0.141-1.363-0.283-2.667-0.711-3.898c-0.218-0.281-0.356-0.605-0.421-0.967c-0.028-0.059-0.044-0.119-0.074-0.176
		c-0.359-0.7-0.293-1.482,0.065-2.125c0-0.004,0-0.009,0-0.018c0.073-1.251,0.144-2.55-0.03-3.494
		c-0.263-0.624-0.465-0.714-1.053-1.007c-0.667-0.311-1.716-0.819-2.623-2.128c-3.69-4.74-2.871-12.403-2.246-18.567
		c0.177-1.557,0.313-3.027,0.39-4.322c0.287-4.015,0.287-8.563,0-12.501c-0.253-2.26-1.217-4.33-2.224-6.516
		c-1.042-2.183-2.085-4.451-2.409-7.012c-0.17-2.189,0.198-3.913,0.489-5.42c0.376-1.713,0.63-3.069,0.176-4.639
		c-0.251-0.924-0.421-1.558-0.59-2.125c-0.542-1.932-0.909-3.211-0.674-6.276c0.132-0.876,0.233-1.542,0.354-2.132
		c0.402-2.562,0.476-2.959-1.33-5.315c-0.54-0.753-1.068-1.379-1.539-2.007c-1.784-2.226-3.609-4.516-4.387-8.182
		c-0.244-1.166-0.361-2.039-0.451-2.777c-0.242-1.85-0.275-2.083-2.128-3.951c-0.57-0.532-1.094-0.939-1.481-1.268
		c-1.929-1.595-2.104-2.137-2.597-5.096c-0.7-3.82,0.635-7.484,1.895-10.988c1.129-3.045,2.246-6.201,1.422-7.932
		c-1.304-2.788-9.841-5.157-15.712-5.813c-1.004,5.945-4.945,8.772-8.788,11.479c-0.958,0.658-1.898,1.358-2.876,2.113
		c-1.369,1.112-2.682,2.478-4.067,3.834c-2.032,2.07-4.131,4.188-6.516,5.831c-1.471,0.938-3.015,1.515-4.49,2.088
		c-1.167,0.423-2.404,0.876-3.529,1.52c-3.614,2.78-5.926,8.183-8.135,13.403c-0.938,2.209-1.874,4.358-2.876,6.289
		c-0.497,0.972-1.013,1.83-1.506,2.632c-1.609,2.669-2.486,4.14-1.781,7.13c0.418,1.549,0.993,2.902,1.513,4.202
		c1.151,2.922,2.272,5.681,2.017,10.063c-0.07,1.451-0.046,2.999-0.03,4.594c0.072,5.113,0.141,10.882-2.59,15.566
		c-0.558,1.15-1.304,2.226-2.018,3.228c-1.209,1.744-2.164,3.107-2.329,5.368l-0.249,3.011c-0.52,6.782-0.942,12.142,2.321,18.44
		c0.074,0.151,0.092,0.312,0.132,0.471c0.055,0.022,0.104,0.044,0.158,0.064c1.533,0.574,3.114,1.174,4.45,2.34
		c2.24,1.797,3.035,2.63,2.645,5.039c-0.032,0.365-0.097,0.863-0.097,1.588c0.612,8.42-0.037,10.915-7.5,13.98l-0.812,0.328
		c-7.491,3.041-13.948,5.692-22.977,2.002c-4.701-1.896-10.699-3.771-14.721-1.102c-2.924,2.414-8.332,7.849-11.42,11.486
		c-4.091,4.668-9.808,9.297-15.696,12.705c-3.891,2.326-8.672,3.423-13.276,4.502c-2.736,0.629-5.335,1.215-7.744,2.062
		c-6.989,2.388-7.881,10.066-8.863,18.17c-0.353,2.734-0.665,5.547-1.262,8.095c-1.383,4.45-2.986,7.769-5.308,10.96
		c-3.061,3.912-3.38,6.004-4.056,10.206c-0.154,0.932-0.309,1.953-0.511,3.097c-0.43,1.475-0.993,2.629-1.516,3.738
		c-0.73,1.478-1.343,2.727-1.343,3.994c-0.126,0.807,0.11,1.366,0.442,2.221c0.277,0.753,0.533,1.539,0.693,2.343
		c0.172,1.304,0.098,2.506,0,3.545c-0.028,0.938-0.116,1.819,0,2.607c0.144,1.681,0.809,3.367,1.505,5.126
		c0.665,1.688,1.365,3.449,1.685,5.281c0.207,2.938-0.477,5.245-1.084,7.297c-0.462,1.6-0.934,3.107-0.934,4.68
		c0,1.17,0.262,2.458,0.511,3.803c0.256,1.337,0.52,2.766,0.57,4.242c5.545-1.34,13.708-0.833,17.183,2.897
		c2.742,3.089,2.323,6.208,2.021,8.491c-0.367,2.555-0.438,3.25,2.577,4.259c1.371,0.524,2.604,1.026,3.785,1.506
		c4.98,2.11,8.279,3.453,13.56,1.418c3.29-1.352,6.378-3.682,8.97-5.747c0.52-0.361,0.839-0.691,1.149-1.063
		c0.96-0.989,2.193-2.337,4.963-2.62c1.837-0.194,3.376,0.235,4.748,0.634c1.013,0.258,1.858,0.518,2.73,0.518
		c1.969,0,5.145-1.563,8.482-4.164c3.323-2.55,4.58-4.95,5.957-9.097c0.283-0.826,0.865-2.097,1.58-3.532
		c0.94-1.898,3.114-6.373,2.725-7.584c-0.209-0.691-1.412-1.867-2.239-2.651c-2.423-2.33-5.706-5.516-4.415-9.691
		c0.539-2.239,3.15-3.41,5.668-4.549c1.143-0.535,2.743-1.251,3.201-1.769c1.04-1.063,1.742-2.33,2.392-3.571
		c0.562-1.068,1.137-2.176,1.914-3.079c0.697-0.853,1.931-1.048,2.869-0.489c1.669,0.982,2.521,2.281,3.23,3.321
		c0.834,1.272,1.183,1.718,2.35,1.902c1.372,0.194,2.847-0.128,4.406-0.511c2.592-0.563,5.428-1.193,8.579,0.066
		c1.729,0.748,2.83,1.969,3.827,3.031c0.907,0.974,1.711,1.811,2.676,2.125c1.565,0.375,4.64-0.381,6.879-0.911l1.264-0.304
		c1.934-0.486,3.555-1.476,5.255-2.495c0.99-0.579,1.889-1.151,2.957-1.676c3.768-1.741,5.906-1.515,8.92-1.246l1.821,0.163
		c4.006,0.369,13.704-1.834,15.182-5.104c0.216-0.484,0.149-1.053-0.146-1.687c-1.874-0.014-3.46-0.996-4.385-2.735
		c-0.572-1.097-0.165-2.458,0.932-3.021c0.597-0.33,1.258-0.325,1.839-0.101c0.839-0.56,1.973-0.547,2.735,0.158
		c0.242,0.221,0.42,0.436,0.639,0.651c2.952-1.603,7.013-6.114,7.663-7.9c0.348-0.674,0.398-0.925,0.493-1.489
		c0.123-0.841,0.299-1.988,1.193-3.355c1.411-2.004,3.885-2.863,6.058-3.615c0.844-0.291,1.681-0.575,2.352-0.917
		c1.804-1.062,3.446-2.488,5.222-3.999c1.197-1.053,2.438-2.101,3.741-3.074c7.833-6.246,11.952-11.385,9.641-19.012
		c-0.46-1.595-0.604-3.392-0.729-5.129c-0.218-2.53-0.414-5.402-1.613-5.994c-0.568-0.284-1.005-0.795-1.147-1.42
		c-0.097-0.312-0.11-0.635-0.058-0.949c-0.057-0.63,0.123-1.279,0.604-1.769c0.251-0.265,0.476-0.449,0.716-0.683
		c1.39-2.274,2.569-4.475,3.77-7.359c0.438-1.127,1.128-2.515,1.832-3.981c1.388-2.813,3.107-6.319,2.944-8.341
		C808.576,514.229,808.532,514.229,806.325,513.973z"/>
	<path fill="#3E4924" d="M1009.492,497.29c-1.43-0.55-3.39-1.32-4.413-3.584c-0.106-0.291-0.179-0.591-0.179-0.916v-6.664
		c-0.154-0.96,0-2.287,0.147-3.561c0.156-1.218,0.315-2.737,0.031-3.389c-0.375-0.754-1.051-1.438-1.832-2.225
		c-1.282-1.264-2.863-2.889-3.521-5.717c-0.808-2.531-0.628-5.086-0.52-7.342c0.181-3.047,0.211-4.863-1.255-6.442
		c-0.44-0.361-1.314-0.78-2.264-1.26c-1.049-0.528-2.253-1.118-3.328-2.02c-0.539-0.434-1.197-1.128-1.869-1.904
		c-0.771-0.868-1.874-2.101-2.537-2.295c-1.444-0.595-3.857-0.302-5.76-0.065l-1.214,0.136c-3.722,0.344-7.095,0.081-10.402-0.136
		c-3.241-0.221-6.238-0.399-9.386-0.15c-3.64,0.319-6.824,0.304-10.589-0.639c-0.468-0.035-1.447-0.066-2.458-0.097
		c-2.406-0.073-4.882-0.137-6.619-0.883c-1.858-0.729-3.36-2.198-4.818-3.625c-2.924-2.808-4.219-3.82-6.606-2.548
		c-0.929,0.484-1.981,0.238-2.642-0.48c-1.121,0.336-2.476,0.547-3.979,0.731c-5.517,0.756-6.498,2.353-8.896,6.182
		c-0.771,1.165-1.574,2.485-2.618,3.939c-2.004,2.369-3.31,4.593-3.706,6.421c-0.174,0.85-0.174,1.643-0.196,2.379
		c-0.048,1.713-0.09,3.677-1.678,5.756c-0.773,1.502-2.167,2.816-3.383,3.968c-1.274,1.191-2.396,2.237-3.001,3.69
		c-0.456,1.137-0.725,2.062-1.004,2.927c-0.518,1.802-1.028,3.513-2.784,5.736c-0.964,1.372-2.157,2.797-3.389,4.232
		c-1.104,1.328-2.239,2.651-3.219,4.065c-1.091,1.651-2.231,2.699-3.44,3.545c0.614,0.502,1.242,1.074,1.886,1.667
		c0.434,0.388,0.836,0.769,1.094,0.984c0.912,0.409,1.107,1.458,1.123,2.145c0.489-0.03,0.907-0.048,1.35-0.048
		c0.443,0,0.908,0.03,1.384,0.162c2.948,0.502,5.15,0.947,7.072-0.088c1.233-0.607,2.53-2.545,3.651-4.25
		c1.088-1.616,2.176-3.289,3.508-4.47c3.182-2.632,15.303-8.112,21.012-4.25c2.095,1.044,3.993,6.813,3.586,9.198
		c-0.752,2.943-3.088,4.598-5.197,6.075c-1.297,0.938-2.555,1.814-3.224,2.823c-0.097,0.238-0.238,0.581-0.384,0.969
		c-0.24,0.702-0.446,1.309-0.697,1.818c0,0.051,0,0.089,0.013,0.137c0.095,0.018,0.181,0.018,0.271,0.042
		c0.798,0.156,2.03,0.372,3.59,1.086c1.981,0.656,4.671,2.125,6.514,4.27c3.902-2.794,9.26-4.899,13.926-3.151
		c4.083,1.898,4.627,4.929,4.824,7.564c0.435-0.856,0.666-1.918,0.926-3.227c0.316-1.596,0.664-3.461,1.783-5.058
		c-0.141-0.253-0.26-0.516-0.3-0.786c-0.114-0.723,0.058-1.526,0.564-2.028c0.579-0.588,1.308-1.12,2.164-1.526
		c-0.709-1.312-1.162-2.781-1.237-4.146c-0.093-1.86,0.544-3.477,1.786-4.578c2.178-1.776,5.291-0.392,8.011,0.793
		c0.729,0.322,1.411,0.635,1.942,0.771l1.053,0.272c2.869,0.733,8.896,2.272,11.027,1.286c0.694-0.302,1.491-0.26,2.134,0.168
		c0.091,0.057,0.17,0.136,0.251,0.207c1.419-0.278,2.595-0.731,3.894-1.234c0.665-0.26,1.346-0.513,2.083-0.762
		c3.204-1.153,4.574-0.781,6.554,0.26c0.63,0.344,1.409,0.76,2.676,1.17c1.816,0.627,3.785,0.53,5.854,0.463
		c1.323-0.051,2.695-0.086,4.103,0.02c1.112,0.13,1.951,0.414,2.671,0.646c1.337,0.447,1.39,0.447,2.021-0.088
		c0.313-0.281,0.679-0.427,1.056-0.497c-0.077-0.438-0.256-0.809-0.63-1.212C1011.267,497.977,1010.465,497.656,1009.492,497.29z"/>
	<path fill="#3E4924" d="M753.507,365.484c-0.051-0.989,0.551-1.828,1.407-2.181c-0.174-0.432-0.388-0.818-0.693-1.121
		c-2.031-2.059-7.472-1.759-12.255-1.49c-3.318,0.203-6.417,0.375-9.009-0.088c-6.058-0.865-14.47-2.083-19.939-6.906
		c-4.481-3.682-5.81-3.977-11.667-2.69c-2.195,0.409-4.307,0.956-6.395,1.488c-2.466,0.628-4.966,1.251-7.646,1.727
		c-0.53,0.084-1.149,0.159-1.814,0.229c-1.311,0.125-2.779,0.286-3.673,0.73c-0.434,0.309-0.956,1.353-1.456,2.374
		c-0.658,1.427-1.475,3.048-3.083,3.964c-2.948,1.704-5.463,0.555-7.293-0.326c-1.649-0.793-2.527-1.132-3.812-0.484
		c-0.934,0.5-2.101,2.139-3.138,3.598c-1.062,1.482-2.189,3.041-3.479,4.023c-1.725,1.332-3.555,2.425-5.305,3.469
		c-1.004,0.604-1.986,1.197-2.936,1.832c-0.804,0.516-1.832,0.48-2.611-0.084c-0.744-0.563-1.07-1.555-0.784-2.464
		c0.59-1.953,0.188-4.027-0.237-6.194c-0.449-2.137-0.926-4.365-0.393-6.677c0.617-4.008,3.832-5.845,6.401-7.313
		c1.762-1.002,3.404-1.953,4.243-3.455c1.683-3.188-0.279-5.963-3.433-9.856c-0.434-0.555-0.907-1.114-1.288-1.627
		c-1.691-2.121-2.046-3.772-2.341-5.238c-0.189-0.886-0.361-1.709-0.841-2.766c-0.582-1.334-1.026-1.585-1.976-2.171
		c-0.756-0.449-1.696-1.026-2.772-2.114c-1.398-1.299-2.314-2.51-3.125-3.576c-1.565-2.021-2.418-3.136-5.945-3.944
		c-0.874-0.218-1.856-0.337-2.795-0.469c-1.772-0.229-3.582-0.462-4.954-1.165c-2.183-0.947-3.208-2.687-3.95-3.979
		c-0.284-0.506-0.562-1.024-0.8-1.198c-2.955-2.462-9.304-3.591-13.915-4.4c-1.646-0.286-2.964-0.607-4.371-0.936
		c-3.169-0.764-6.965-1.663-9.96-1.385c0.179,2.636-0.5,6.047-1.107,9.068l-0.883,3.475c-0.634,1.85-1.128,3.048-3.18,4.788
		c-0.925,0.704-1.976,1.03-3.099,1.376c-0.602,0.174-1.605,0.491-1.883,0.713c-0.009,0.016-0.039,0.051-0.066,0.068
		c0.344,0.159,0.742,0.339,1.042,0.469c0.711,0.311,1.718,0.751,2.636,1.409c0.146-0.524,0.476-0.984,1.011-1.257
		c1.163-0.515,2.308-0.083,2.832,1.013c1.755,3.44-0.317,5.096-1.297,5.886c-0.498,0.394-0.804,0.646-0.998,1.053
		c-0.594,0.896-0.706,1.565-0.85,2.706c-0.112,0.78-0.214,1.563-0.472,2.422c-0.73,1.707-1.569,3.127-2.45,4.519
		c-0.731,1.211-1.465,2.405-1.986,3.627c-0.632,1.249-0.9,2.601-1.165,4.039c-0.304,1.729-0.621,3.494-1.539,5.15
		c-0.617,1.216-1.57,2.111-2.451,2.896c-1.018,0.957-1.546,1.49-1.651,2.322c-0.104,0.822,0.066,1.491,0.253,2.33
		c0.24,1.009,0.518,2.26,0.357,3.803c0.008,1.026-1.558,6.362-2.427,7.644c-0.729,1.507-2.196,2.576-3.486,3.532
		c-0.916,0.66-1.774,1.29-2.387,2.101c-0.735,1.058-1.161,2.453-1.658,3.962c-0.577,1.852-1.242,3.935-2.658,5.881
		c-0.812,1.031-1.799,1.696-2.638,2.286c-0.668,0.44-1.395,0.967-1.619,1.33c-0.757,1.163-1.141,2.771-1.525,4.483
		c-0.381,1.641-0.773,3.369-1.579,4.933c-1.546,3.299-3.836,6.108-6.047,8.823c-1.249,1.542-2.548,3.104-3.68,4.785
		c-0.958,1.348-1.739,2.806-2.508,4.26c-2.176,4.012-4.618,8.578-10.229,10.525c-1.445,0.616-3.13,0.535-4.418,0.502
		c-0.819,0-1.565-0.039-1.988,0.064c-0.979,0.464-1.645,1.486-2.669,3.133c-0.456,0.727-0.92,1.488-1.469,2.2
		c-2.402,3.429-5.6,5.472-8.725,7.449c-2.572,1.612-4.97,3.147-7.077,5.466c-0.665,0.786-1.317,1.902-1.932,2.959
		c-0.343,0.564-0.676,1.102-1.011,1.619c0.566,0.109,1.193,0.235,1.896,0.377c1.464,0.279,2.902,0.576,3.715,0.678
		c0.339-0.021,1.046-0.158,1.748-0.312c1.3-0.242,2.766-0.486,4.164-0.277c2.607,0.488,3.674,1.355,4.741,2.206
		c0.449,0.381,0.974,0.79,1.777,1.237c1.438,0.775,2.631,0.749,4.301,0.719c1.129-0.018,2.431-0.071,3.996,0.188
		c5.14,0.696,8.377,3.274,10.416,8.351c3.517,8.39,2.788,19.264,2.123,28.864c-0.275,3.69-0.518,7.28-0.518,10.558v1.832
		c0.037,8.422,0.075,15.788-6.371,21.848c2.07,1.472,4.308,3.149,5.706,5.287c0.85,1.267,1.306,2.592,1.725,3.772
		c0.227,0.689,0.418,1.351,0.75,1.978c0.896,1.625,1.531,2.158,2.607,2.978c0.632,0.52,1.328,1.099,2.204,1.955
		c2.02,1.774,3.425,4.734,4.771,7.606c2.91,6.1,4.152,7.209,6.361,6.17c1.2-0.511,2.33-1.062,3.378-1.559
		c3.776-1.814,7.353-3.52,10.68-2.049c2.392,1.058,4.063,3.462,5.296,7.611c0.126,0.389,0.421,1.162,0.819,2.125
		c3.546,8.843,4.938,13.777,2.777,16.239c-1.203,1.312-2.474,1.903-3.751,1.833c-2.019-0.146-3.175-1.861-3.901-3
		c-0.227-0.277-0.396-0.557-0.549-0.751c-0.658-0.478-1.074-0.986-1.38-1.431c-0.181,0-0.386,0.016-0.644,0.033
		c-1.107,0.178-5.813,2.334-6.661,3.027c-0.075,0.149-0.007,1.147,0.044,1.83c0.046,0.769,0.104,1.669-0.051,2.555
		c-0.337,3.422-1.413,6.848-2.931,9.252c-0.729,1.04-1.533,1.661-2.197,2.176c-0.284,0.207-0.707,0.551-0.812,0.691
		c0.286,0.113,1.371,0.489,2.083,0.749c2.013,0.698,4.536,1.59,6.1,3.796c1.662,2.434,2.015,4.869,2.327,6.85
		c0.434,3.069,0.54,3.798,4.559,3.798c1.229,0,2.239,1.011,2.239,2.249c0,1.303,0.361,2.617,0.811,4.016
		c0.403,1.44,0.872,3.015,0.964,4.774c2.612,2.276,3.625,5.501,4.552,8.376c0.754,2.385,1.458,4.623,2.925,5.699
		c0.991,0.758,1.839,0.74,3.473,0.647c1.046-0.085,2.239-0.163,3.521,0.142c1.418,0.586,2.357,1.162,3.274,1.781
		c0.907,0.597,1.771,1.129,2.664,1.486c-0.095-0.445-0.183-0.89-0.279-1.37c-0.282-1.501-0.56-3.041-0.56-4.64
		c0-2.224,0.56-4.111,1.112-5.961c0.523-1.838,1.072-3.582,0.913-5.5c-0.169-1.148-0.769-2.604-1.369-4.145
		c-0.786-1.991-1.605-4.076-1.816-6.281c-0.159-1.127-0.073-2.345,0-3.422c0.072-0.918,0.134-1.77,0.032-2.545
		c-0.072-0.453-0.292-0.936-0.453-1.423c-0.423-1.109-0.982-2.515-0.696-4.184c-0.035-1.956,0.921-3.885,1.781-5.604
		c0.412-0.9,0.868-1.812,1.168-2.801c0.149-0.861,0.308-1.846,0.44-2.76c0.704-4.487,1.183-7.43,4.864-12.208
		c1.969-2.717,3.373-5.646,4.58-9.446c0.471-2.158,0.799-4.736,1.145-7.461c1.033-8.707,2.209-18.563,11.879-21.873
		c2.598-0.909,5.421-1.557,8.162-2.191c4.479-1.03,8.686-2.001,12.011-3.987c5.522-3.2,10.825-7.485,14.57-11.762
		c3.262-3.849,8.815-9.429,12.149-12.155c6.694-4.483,15.363-0.953,19.087,0.52c7.241,2.99,12.178,1.021,19.605-1.986l0.795-0.325
		c5.11-2.105,5.221-2.376,4.703-9.654c0-1.204,0.11-1.907,0.186-2.427c0,0,0,0,0-0.016c-0.216-0.195-0.591-0.497-1.108-0.911
		c-0.812-0.698-1.939-1.136-3.164-1.583c-1.387-0.518-2.955-1.11-4.331-2.154c-0.982-0.748-1.17-2.146-0.437-3.131
		c0.198-0.26,0.438-0.458,0.703-0.607c-2.272-6.069-1.861-11.5-1.368-17.617l0.223-2.979c0.262-3.518,1.804-5.706,3.16-7.652
		c0.59-0.853,1.204-1.736,1.748-2.775c2.149-3.734,2.079-8.649,2.028-13.403c-0.014-1.683-0.033-3.319,0.051-4.858
		c0.174-3.406-0.665-5.522-1.753-8.183c-0.563-1.436-1.156-2.96-1.678-4.745c-1.121-4.875,0.521-7.628,2.303-10.574
		c0.43-0.736,0.898-1.516,1.374-2.4c0.945-1.823,1.824-3.88,2.698-5.968c2.455-5.743,4.977-11.695,9.812-15.377
		c1.603-0.916,3.01-1.458,4.368-1.976c1.337-0.502,2.597-0.986,3.629-1.629c1.951-1.367,3.938-3.338,5.82-5.236
		c1.451-1.476,2.896-2.934,4.396-4.18c1.104-0.844,2.138-1.581,3.14-2.277c3.479-2.466,6.098-4.324,6.882-8.127
		C754.141,367.141,753.564,366.442,753.507,365.484z"/>
	<path fill="#3E4924" d="M593.062,693.524c-2.215-0.81-4.42-1.4-6.829-1.4c-0.528,0-1.193,0.078-1.936,0.144
		c-3.08,0.304-7.867,0.786-9.636-2.852c-1.72-4.338,2.182-7.586,5.012-9.953c0.874-0.74,1.788-1.493,2.141-1.956
		c0.874-1.232,0.979-2.408,1.125-3.917c0.137-1.521,0.317-3.235,1.302-5.111c0.35-1.188,1.739-1.599,2.404-1.804
		c0.311-0.341,0.562-1.099,0.839-1.852c0.566-1.656,1.231-3.519,2.804-4.824c1.799-1.436,3.684-1.98,5.395-2.442
		c1.614-0.444,2.999-0.844,4.104-1.865c2.718-2.438,2.546-3.226,2.042-5.375c-0.315-1.229-0.635-2.718-0.544-4.634
		c-1.498-0.541-2.742-1.32-3.876-2.029c-0.749-0.482-1.476-0.947-2.268-1.307c-0.142-0.037-0.94,0.037-1.87,0.095
		c-1.83,0.106-4.138,0.251-6.445-1.55c-2.585-1.898-3.541-4.964-4.492-7.924c-0.872-2.77-1.689-5.383-3.781-6.771
		c-0.68-0.447-1.048-1.233-1.006-2.046c0.119-1.434-0.293-2.801-0.769-4.396c-0.288-0.956-0.586-2.026-0.779-3.145
		c-5.959-0.731-6.521-4.624-6.931-7.54c-0.266-1.674-0.537-3.369-1.601-4.959c-0.683-0.993-2.385-1.594-3.878-2.092
		c-1.709-0.612-3.355-1.167-4.271-2.561c-1.932-3.86,0.541-5.768,1.753-6.68c0.486-0.374,0.946-0.717,1.227-1.107
		c1.05-1.711,1.894-4.485,2.202-7.34c0.079-0.51,0.048-1.098,0-1.668c-0.117-1.437-0.234-3.404,1.057-5.013
		c0.976-1.517,8.205-4.624,9.874-4.624c2.037-0.172,3.772-0.324,4.505,1.828c0.033,0.079,0.086,0.264,0.659,0.687
		c0.623,0.616,0.958,1.118,1.29,1.63c0.137,0.22,0.353,0.504,0.509,0.748c0.018-0.011,0.053-0.026,0.086-0.065
		c0.209-0.925-0.927-4.906-3.603-11.59c-0.412-1.055-0.744-1.909-0.947-2.46c-0.814-2.739-1.777-4.408-2.808-4.849
		c-1.478-0.667-4.12,0.644-6.935,1.986c-1.12,0.528-2.29,1.097-3.51,1.612c-6.795,3.127-9.911-3.502-12.219-8.359
		c-1.167-2.464-2.354-4.994-3.799-6.263c-0.793-0.8-1.4-1.272-1.909-1.7c-1.231-0.988-2.429-1.906-3.764-4.41
		c-0.449-0.875-0.766-1.744-1.065-2.621c-0.326-1.004-0.641-1.938-1.172-2.732c-1.101-1.66-3.31-3.206-5.223-4.554
		c-0.623-0.445-1.249-0.872-1.809-1.286c-0.53-0.414-0.89-1.102-0.89-1.816c0-0.721,0.359-1.386,0.935-1.791
		c6.947-5.068,6.947-11.059,6.918-20.145v-1.857c0-3.405,0.249-7.043,0.5-10.867c0.65-9.547,1.332-19.425-1.799-26.868
		c-1.442-3.634-3.323-5.135-6.937-5.604c-1.257-0.187-2.316-0.169-3.226-0.137c-1.888,0.073-4.063,0.104-6.552-1.274
		c-1.12-0.623-1.843-1.185-2.473-1.691c-0.837-0.695-1.207-0.999-2.678-1.259c-0.593-0.082-1.63,0.081-2.569,0.26
		c-1.007,0.185-1.989,0.365-2.839,0.365c-1.147-0.128-2.718-0.432-4.331-0.758c-1.403-0.291-3.414-0.688-4.314-0.793
		c-0.291,0.082-0.588,0.091-0.879,0.058c-0.629,0.353-1.272,0.669-1.885,0.964c-1.121,0.545-2.116,1.022-2.911,1.719
		c2.072,1.365,5.05,2.021,7.989,2.646c2.398,0.52,4.875,1.053,7.012,2.006c3.439,1.697,5.047,3.23,5.533,5.138
		c0.529,2.157-0.704,3.884-1.81,5.413c-0.644,0.9-1.309,1.845-1.681,2.893c0.333,1.02,0.438,2.251,0.438,3.4
		c0,1.506-0.339,2.779-0.621,3.913c-0.116,0.39-0.233,0.782-0.319,1.187c-1.266,4.127-2.977,5.719-4.796,7.386
		c-0.649,0.591-1.358,1.242-2.114,2.083c-1.88,1.951-2.578,4.607-3.347,7.426c-1.146,4.303-2.565,9.484-8.98,10.561
		c-0.332,0.238-0.764,0.379-1.224,0.379c-0.405-0.084-0.595-0.048-0.87-0.158c-1.035,0.074-1.967,0.074-2.744-0.324
		c-0.09-0.043-0.149-0.116-0.233-0.169c-1.674,0.189-3.792,0.978-5.728,2.224c-2.646,1.727-4.019,3.618-4.131,4.693
		c-0.063,0.785,0.225,1.934,0.5,3.135c0.56,2.339,1.281,5.239-0.126,8.268c-0.799,1.834-2.27,2.959-3.554,3.97
		c-0.984,0.749-1.856,1.414-2.31,2.274c-2.176,3.887-0.526,6.983,2.278,11.678c3.497,5.871,4.162,12.237,1.858,17.458
		c-1.33,3.097-3.334,5.731-5.254,8.304c-2.055,2.746-4.041,5.322-5.161,8.396c-0.608,1.832-0.978,3.301-1.24,4.525
		c-0.999,4.155-1.735,6.27-8.102,8.961c-4.498,1.85-5.454,4.307-6.934,8.037c-0.686,1.774-1.46,3.783-2.767,5.889
		c-0.543,1.021-1.176,1.792-1.752,2.525c-0.802,1.025-1.342,1.699-1.767,3.252c-0.563,2.299-0.737,5.325-0.911,8.256
		c0,0.011-0.005,0.02-0.005,0.029c0.716,0.722,0.888,1.832,0.319,2.732c-0.174,0.279-0.379,0.521-0.586,0.768
		c-0.151,0.628-0.555,1.144-1.107,1.449c-0.02,0.135-0.031,0.287-0.044,0.41c-1.028,6.263-3.761,11.143-6.386,15.854
		c-1.912,3.404-3.697,6.603-4.968,10.353c-1.309,3.873-1.696,8.18-2.079,12.721c-0.332,3.814-0.667,7.784-1.643,11.517
		c-0.393,1.255-0.725,2.277-1.039,3.235c-1.033,2.957-1.63,4.728-1.221,8.458c0.184,2.613,0.29,5.175,0.359,7.718h163.868
		C590.263,697,591.519,695.076,593.062,693.524z"/>
	<path fill="#3E4924" d="M945.104,642.441c-2.143-1.272-4.019-2.378-5.228-3.312c-1.865-1.324-3.316-3.242-4.699-5.096
		c-1.725-2.275-3.347-4.448-5.496-4.95c-1.053-0.356-2.13-0.235-3.286-0.086c-1.504,0.161-3.157,0.346-4.836-0.271
		c-2.103-0.696-4.098-2.174-6.068-3.611c-1.605-1.133-3.081-2.242-4.468-2.814c-2.134-0.865-4.192-2.341-6.21-3.752
		c-1.023-0.728-2.008-1.445-3.052-2.093c0.03,0.044,0.063,0.079,0.105,0.114c1.923,1.916,1.7,4.73,1.436,7.457
		c-0.174,2.067-0.368,4.21,0.454,5.258c0.646,0.727,1.557,0.986,3.01,1.379c1.832,0.511,4.281,1.162,5.644,3.95
		c2.4,4.483,1.191,11.641,0.243,17.379c-0.243,1.456-0.443,2.801-0.591,3.915c-0.244,1.463-0.269,2.669-0.284,3.744
		c-0.068,2.893-0.143,6.474-4.829,7.733c-1.79,0.378-3.583-0.163-5.496-0.712c-0.826-0.237-2.341-0.667-3.138-0.707
		c0.356,2.879,4.688,11.713,6.179,14.759c0.593,1.185,1.055,2.158,1.33,2.748c2.136,4.003,4.648,6.131,7.604,6.408
		c0.245,0.018,0.458,0.018,0.665,0.018c5.292,0,12.268-5.435,20.702-16.181c0.865-0.932,1.601-1.867,2.349-2.797
		c1.652-2.061,3.365-4.178,5.312-5.703c0.907-0.617,1.647-1.028,2.361-1.442c1.646-0.909,2.813-1.572,3.771-3.167
		c0.47-0.865,0.747-1.548,0.956-2.138c0.632-1.693,1.2-2.854,3.611-4.845c0.428-0.374,0.914-0.735,1.328-1.074
		c0.52-0.391,0.843-0.656,1.094-0.886c-0.013-0.489,0.142-0.946,0.414-1.343C954.876,648.158,948.587,644.473,945.104,642.441z"/>
	<path fill="#3E4924" d="M1017.729,518.888c0.74-1.112,1.055-1.572,0.558-3.497c-0.526-2.528-1.17-2.704-4.27-3.655l-0.868-0.278
		c-0.853-0.242-1.453-0.944-1.55-1.783c-0.159-0.844,0.207-1.702,0.916-2.188c0.665-0.472,0.727-0.921,0.727-1.207
		c0-0.04-0.022-0.081-0.026-0.121c-0.249-0.432-0.419-0.865-0.535-1.295c-1.858,0.809-3.479,0.247-4.69-0.128
		c-0.564-0.193-1.102-0.371-1.678-0.429c-1.133-0.066-2.335-0.033-3.508,0c-2.342,0.093-4.839,0.198-7.424-0.672
		c-1.574-0.526-2.604-1.063-3.385-1.474c-1.072-0.578-1.141-0.669-2.99,0c-0.707,0.223-1.33,0.463-1.931,0.714
		c-1.437,0.551-2.92,1.114-4.79,1.46c-0.22,1.011-1.086,1.781-2.145,1.781h-2.336c-1.1,0-2.058-0.806-2.189-1.876
		c-2.662-0.225-5.642-0.916-8.563-1.669l-1.11-0.291c-0.735-0.211-1.616-0.572-2.565-0.986c-0.967-0.414-2.843-1.237-3.615-1.271
		c0.097,0.051,0.06,0.358,0.09,0.716c0.068,1.36,1.053,3.064,1.814,3.646c0.744,0.513,1.114,1.414,0.909,2.292
		c-0.204,0.874-0.867,1.544-1.748,1.716c-0.438,0.092-0.872,0.202-1.26,0.344c0.06,0.149,0.073,0.306,0.095,0.467
		c0.035,0.803-0.29,1.676-1.006,2.096c-1.149,0.74-1.467,1.969-1.854,4.092c-0.563,2.863-1.297,6.765-6.307,8.848
		c-0.592,0.26-1.29,0.229-1.894-0.097c-0.588-0.315-1.011-0.868-1.116-1.515c-0.3-1.33-0.375-2.595-0.414-3.762
		c-0.168-2.81-0.287-3.678-2.116-4.51c-3.251-1.207-8.128,1.174-11.198,3.986c-0.532,0.475-1.268,0.678-1.964,0.513
		c-0.714-0.147-1.284-0.632-1.576-1.288c-0.849-1.867-3.455-3.57-5.613-4.299c-1.29-0.563-2.067-0.73-2.779-0.836
		c-2.367-0.445-3.704-1.361-3.997-4.858c0-0.056,0-0.119,0-0.174c0-0.522,0.17-1.011,0.47-1.381c0.158-0.396,0.37-0.999,0.553-1.526
		c0.258-0.658,0.484-1.281,0.784-1.783v-0.018c1.105-1.777,2.902-3.01,4.477-4.129c1.585-1.102,3.089-2.172,3.367-3.316
		c0.074-0.753-1.049-3.902-1.723-4.589c-2.969-1.946-12.543,1.493-15.582,3.957c-0.848,0.742-1.797,2.157-2.678,3.538
		c-1.532,2.277-3.092,4.648-5.3,5.739c-3.183,1.766-6.531,1.128-9.848,0.542c-0.572-0.106-1.026-0.062-1.311-0.062
		c-0.89,0.045-2.138,0.121-3.318-0.495c-1.62-0.786-1.878-2.246-1.902-3.099c-0.258-0.229-0.487-0.449-0.769-0.704
		c-0.584-0.544-1.753-1.59-2.385-1.986c-1.711,0.528-1.993,2.241-1.537,7.086c0.207,2.123,0.385,3.978-0.209,5.396
		c-0.626,1.471-2.279,2.603-4.855,4.361c-0.835,0.553-2.143,1.438-3.039,2.174c0.018,0,0.057,0,0.097,0.012
		c0.786,0.129,1.458,0.685,1.735,1.438c0.3,0.748,0.139,1.594-0.365,2.22c-1.07,1.281-0.198,2.713,4.078,6.654
		c2.312,2.153,4.49,4.185,5.324,6.575c1.621,5.087-1.187,7.382-3.431,9.24c-0.284,0.233-0.566,0.506-0.853,0.753
		c0.555,0.323,1.004,0.872,1.132,1.558c0.064,0.314,0.051,0.623-0.015,0.913c1.404,0.769,2.924,1.149,5.373,1.434
		c0.072,0,0.497,0.091,0.563,0.108c2.237,0.436,6.965,1.413,8.691,0.246c0,0,0.062-0.181,0.22-0.854
		c0.236-0.83,0.494-1.944,1.458-2.929c3.288-3.281,7.521-4.1,11.601-4.912c2.836-0.56,5.522-1.075,7.703-2.388
		c0.973-0.593,1.855-1.183,2.664-1.759c3.613-2.453,6.996-4.757,13.822-3.16c0.811,0.205,1.44,0.818,1.643,1.613
		c0.166,0.261,1.156,0.851,1.74,1.207c1.572,0.951,4.217,2.541,3.506,5.4c-0.456,2.206-2.925,2.492-5.08,2.721
		c-0.811,0.102-2.286,0.256-2.66,0.512c0.028,0.065,0.187,0.515,1.039,2.043c0.888,1.482,1.931,3.348,1.511,5.629
		c-0.174,1.687-1.396,2.931-2.374,3.935c3.067,1.035,7.051,3.178,6.359,8.3c-0.097,1.286-0.548,2.453-0.938,3.373
		c-0.154,0.357-0.351,0.807-0.399,1.075c0.066,0.018,0.212,0.101,0.443,0.233c1.569,0.793,4.27-2.229,5.947-3.964
		c1.079-1.114,1.979-2.065,2.874-2.616c1.992-1.346,3.68-1.581,5.17-1.79c0.705-0.093,1.447-0.2,2.272-0.47
		c1.491-0.449,1.872-0.664,1.938-0.722c-0.126-0.86,0.063-2.276,1.127-4.325c2.722-5.064,11.185-6.602,17.802-6.988
		c0.021,0,0.03,0,0.058,0c1.365,0,2.113,0.211,2.609,0.365c0.323,0.063,0.625,0.063,1.806-0.463c0.72-0.356,1.404-0.93,2.134-1.493
		c1.356-1.046,2.904-2.255,4.947-2.722c1.381-0.46,2.881-0.372,4.209-0.286c1.406,0.073,2.305,0.128,2.931-0.284
		c1.037-0.539,1.165-0.781,1.204-0.809c-0.167-0.966-0.272-2.281,0.641-3.895c2.332-3.967,8.373-5.305,12.744-4.618
		c2.578,0.377,4.452,1.964,6.097,3.4c0.34,0.295,0.679,0.567,1.009,0.814c0.337-0.114,0.693-0.177,1.07-0.108
		c0.262-1.389,0.788-2.596,1.229-3.594c0.398-0.896,0.784-1.759,0.784-2.31c0-0.774-0.341-1.423-0.936-2.427
		c-0.846-1.457-2.004-3.428-1.306-6.263C1016.385,520.936,1017.146,519.755,1017.729,518.888z"/>
	<path fill="#3E4924" d="M1011.203,540.026c-1.3-1.112-2.548-2.193-3.83-2.372c-3.274-0.482-7.146,0.63-8.207,2.425
		c-0.209,0.356-0.209,0.57-0.141,1.111c0.161,2.053-0.379,3.629-3.352,5.236c-1.762,1.098-3.805,0.992-5.45,0.877
		c-1.009-0.049-1.953-0.121-2.75,0.133c-1.282,0.306-2.272,1.061-3.407,1.953c-0.957,0.732-1.897,1.459-2.941,1.988
		c-2.495,1.109-3.52,1.109-4.941,0.718c-0.388-0.104-0.676-0.189-1.302-0.189c-7.284,0.427-12.675,2.197-13.979,4.624
		c-0.665,1.284-0.777,2.039-0.841,2.68c-0.324,2.742-1.72,3.581-4.876,4.492c-1.048,0.355-2.032,0.514-2.968,0.628
		c-1.231,0.177-2.165,0.304-3.363,1.114c-0.471,0.304-1.336,1.178-2.111,1.947c-2.171,2.316-5.263,5.535-8.649,5.535
		c-0.819,0-1.665-0.181-2.515-0.611c-4.195-2.093-2.823-5.413-2.183-7.017c0.302-0.753,0.599-1.448,0.634-2.149
		c0.258-1.752-0.616-2.699-3.508-3.631c-0.288,0.562-0.793,1.014-1.464,1.174c-0.286-0.053-0.432-0.053-0.612-0.053
		c-1.004,0-1.914-0.7-2.162-1.746c-0.077-0.319-0.104-0.615-0.133-0.912c-0.341-0.248-0.641-0.539-0.85-0.953
		c-0.273-0.572-0.314-1.493-0.079-2.074c0.356-0.921,1.327-1.423,2.261-1.365c0.449-0.591,0.932-1.102,1.354-1.531
		c0.496-0.478,1.128-1.143,1.167-1.444c0.126-0.827-0.39-1.788-0.971-2.766c-0.958-1.658-2.402-4.159-0.76-6.877
		c1.156-1.727,3.332-2.077,5.355-2.308c-1.042-0.625-2.176-1.342-2.913-2.404c-4.185-0.811-6.047,0.504-9.262,2.708
		c-0.881,0.612-1.823,1.233-2.858,1.881c-2.881,1.722-6.085,2.347-9.188,2.966c-3.562,0.703-6.987,1.367-9.304,3.68
		c-0.081,0.079-0.172,0.476-0.251,0.816c-0.227,0.926-0.579,2.311-1.946,3.407c-3.438,2.299-8.683,1.239-12.224,0.526
		c-4.808-0.553-7.188-1.649-9.786-3.729c-0.055,0.005-0.114,0.009-0.172,0.014c-1.973,0.139-3.715,0.264-5.212,1.312
		c-0.848,0.674-1.249,1.916-1.762,3.352c-0.597,1.792-1.295,3.801-3.222,5.098c-0.348,0.189-0.786,0.319-1.229,0.319
		c-0.628,0-1.26-0.269-1.691-0.777c-0.954-1.104-1.557-2.486-2.162-3.816c-0.595-1.378-1.186-2.799-1.96-3.276
		c-0.804-0.598-1.309-0.683-2.314-0.802c-1.574-0.188-3.779-0.458-5.849-3.232c-0.696-0.978-1.321-1.837-1.872-2.62
		c-3.22-4.559-4.12-5.787-10.852-6.664c-4.036-0.806-6.965-0.872-11.321-0.286c-1.279,0.22-2.792,0.687-4.268,1.136
		c-2.364,0.729-4.835,1.484-7.044,1.484c-3.096-0.123-5.106-1.109-6.608-1.85c-1.784-0.867-2.504-1.176-4.325,0.41
		c1.639,2.083,1.867,5.189,2.114,8.023c0.102,1.577,0.247,3.083,0.562,4.213c3.358,11.074-4.047,18.121-11.22,23.84
		c-1.292,0.949-2.424,1.922-3.58,2.911c-1.817,1.579-3.7,3.204-5.985,4.534c-0.96,0.479-1.94,0.843-3.008,1.204
		c-0.3,0.104-0.619,0.218-0.938,0.333c0.011,0,0.018,0.004,0.031,0.004c5.721,0.471,12.094,1.154,14.987,3.52
		c3.195,2.62,3.023,5.447,2.873,7.971c-0.051,0.789-0.102,1.662-0.023,2.604c0,0.636-0.11,1.083-0.221,1.555
		c-0.035,0.156-0.11,0.318-0.141,0.481c0.218,0.179,0.414,0.293,0.592,0.361c0.747,0.354,1.883,0.874,2.627,2.12
		c1.702,3.149,0.641,5.59-0.567,7.492c2.431,0.309,5.044,0.309,6.505-0.291c0.383-0.119,1.145-0.374,1.638-0.572
		c0.056-1.11,0.146-2.174,0.524-3.699c1.269-5.736,4.877-8.477,10.438-8.068c1.595,0.158,2.627,0.687,3.303,1.03
		c0.205,0.083,0.456,0.207,0.56,0.249c0.018-0.022,0.189-0.073,0.562-0.333c0.769-0.484,1.498-2.052,2.167-3.439
		c0.727-1.577,1.513-3.202,2.691-4.396c2.917-2.941,8.411-6.512,11.69-8.002c5.199-2.269,15.916-1.414,21.029,0.205
		c6.822,1.966,14.15,6.863,20.013,10.792l2.478,1.651c3.208,2.118,5.642,3.732,8.109,6.93c1.135-0.574,2.372-1.032,3.568-1.469
		c1.953-0.725,4.038-1.453,4.979-2.532c0.777-0.771,1.109-1.511,1.478-2.36c0.79-1.783,1.774-3.99,5.747-4.994
		c8.053-1.898,12.362,2.975,15.725,6.893c1.575,1.822,3.086,3.559,4.874,4.712c2.202,1.509,6.694,1.418,10.367,1.36
		c1.653-0.013,3.222-0.057,4.561,0.033c0.872-0.178,2.243,0.024,3.569,0.073c3.424,0.128,7.344,0.26,10.02-0.339
		c2.059-0.375,11.58-6.576,12.928-10.693c0.275-0.807,0.018-1.066-0.141-1.26c-0.568-0.564-0.753-1.414-0.511-2.185
		c0.229-0.771,0.853-1.353,1.662-1.524c0.769-0.178,1.76-0.55,2.786-0.964c2.69-1.021,5.698-2.19,8.286-1.676
		c1.125,0.207,2.109,0.777,2.983,1.282c0.835,0.481,1.558,0.913,2.381,1.017c1.816,0.258,3.88,0.13,6.093,0
		c2.411-0.151,4.894-0.314,7.276,0c0.695,0.104,1.155,0.223,1.536,0.328c1.421-5.517,3.843-10.178,6.362-15.089l1.757-3.422
		c1.63-3.519,3.618-20.466,2.89-25.992C1013.52,542.128,1012.359,541.026,1011.203,540.026z"/>
	<path fill="#3E4924" d="M995.484,591.367c-2.318,0.147-4.771,0.282-6.979-0.022c-1.706-0.207-3.012-0.978-4.078-1.594
		c-0.579-0.357-1.141-0.683-1.53-0.754c-1.434-0.235-3.983,0.738-5.845,1.451c-0.299,0.104-0.596,0.236-0.869,0.342
		c0.114,0.895,0.024,1.856-0.282,2.83c-2.046,6.163-13.327,13.131-16.302,13.689c-1.852,0.432-4.096,0.551-6.375,0.551
		c-1.572,0-3.148-0.049-4.652-0.102c-1.262-0.035-2.484-0.086-3.548-0.086c-1.361-0.072-2.788-0.033-4.345-0.016
		c-4.51,0.102-9.557,0.172-12.924-2.125c-2.288-1.473-4.072-3.536-5.776-5.547c-3.245-3.748-5.767-6.733-11.283-5.449
		c-1.841,0.455-2.099,1.046-2.724,2.457c-0.445,1.046-1.024,2.336-2.279,3.609c-1.656,1.832-4.234,2.757-6.738,3.682
		c-0.923,0.335-1.799,0.663-2.583,1.016c0.758,1.301,1.63,3.01,2.224,4.904c3.229,0.73,6.106,2.761,8.857,4.731
		c1.871,1.328,3.666,2.601,5.342,3.278c1.89,0.798,3.664,2.086,5.395,3.344c1.686,1.217,3.4,2.488,4.927,2.994
		c0.72,0.265,1.774,0.137,2.812,0.035c1.549-0.178,3.269-0.361,4.988,0.256c3.531,0.826,5.849,3.867,7.856,6.556
		c1.242,1.649,2.4,3.217,3.768,4.177c1.123,0.873,2.894,1.877,4.878,3.046c6.177,3.627,11.078,6.736,12.688,10.167
		c0.193-0.026,0.388-0.064,0.581-0.093c1.388-0.198,2.86-0.416,3.638-0.951c1.616-0.934,1.616-1.542,1.583-3.35
		c0-1.667-0.05-3.966,1.786-6.135c1.144-1.367,2.709-2.015,4.059-2.603c1.299-0.562,2.425-1.042,3.162-1.967
		c0.881-1.299,1.577-2.755,2.343-4.281c1.139-2.362,2.356-4.807,4.499-6.963c1.46-1.541,3.294-3.113,5.212-4.782
		c3.363-2.887,6.798-5.853,8.311-8.848c0.694-1.491,1.289-3.607,1.914-5.847c1.16-4.078,2.457-8.641,5.104-11.527
		c-0.135-0.035-0.26-0.066-0.437-0.098C999.857,591.084,997.611,591.219,995.484,591.367z"/>
	<path fill="#3E4924" d="M423.099,682.386c0.312-0.907,0.639-1.872,0.978-2.979c0.837-3.313,1.163-6.912,1.478-10.711
		c0.398-4.61,0.839-9.381,2.343-13.773c1.37-4.129,3.365-7.681,5.266-11.111c2.257-4.021,4.408-7.857,5.498-12.457
		c-1.076,0.178-2.206,0.262-3.355,0.262c-4.083,0-8.398-0.89-11.442-1.543l-1.823-0.373c-17.86-3.448-34.799-5.184-50.392-5.184
		c-13.329,0-26.826-0.828-39.833-1.611c-11.688-0.719-23.763-1.453-35.685-1.586c-5.016,0-10.008-0.516-14.831-1.02l-4.219-0.436
		c-3.924-0.333-7.691-0.366-11.703-0.416c-2.606-0.014-5.246-0.031-7.922-0.154c-6.237-0.555-11.979-0.837-18.879-1.141
		c-2.158-0.26-3.994-0.644-5.763-1.012c-2.587-0.53-5.011-1.045-7.764-1.045c-3.148,0.149-6.447,0.076-9.781,0
		c-3.211-0.073-6.42-0.142-9.561,0c-1.046,0.076-2.255,0.303-3.446,0.53c-3.306,0.623-7.088,1.321-10.25-0.544
		c-1.518-0.998-2.287-2.118-2.921-2.999c-0.745-1.11-1.134-1.656-2.562-1.986c-0.872-0.124-1.72-0.093-2.505-0.053
		c-1.922,0.067-4.258,0.156-6.5-2.374c-1.25-1.246-2.222-3.085-3.131-4.85c-0.676-1.303-1.383-2.646-2.173-3.664
		c-1.487-1.475-2.821-2.81-4.926-4.108c-0.961-0.737-1.753-1.528-2.58-2.39c-2.128-2.222-3.629-3.587-5.201-3.168
		c-0.935,0.303-1.919-0.137-2.459-0.935c-0.553-0.37-0.955-0.951-1.004-1.673c-0.141-2.102-0.231-4.246-0.3-6.453
		c-0.068-2.087-0.141-4.21-0.288-6.311c0-3.294-1.265-6.605-2.494-9.844l-0.875-2.345c-0.765-1.735-2.064-3.462-3.418-5.27
		c-1.752-2.316-3.536-4.712-4.436-7.593c-0.617-1.799-0.762-3.799-0.883-5.742c-0.261-3.607-0.602-5.662-2.093-6.724
		c-0.106,0.323-0.266,0.637-0.527,0.898c-0.236,0.235-0.508,0.396-0.797,0.505c-0.021,0.039-0.041,0.079-0.063,0.119
		c-3.238,6.223-6.316,12.091-6.073,18.62c0.041,1.211,0.169,2.55,0.283,3.929c0.394,4.851,0.853,10.332-0.378,14.744
		c-0.342,1.539-0.931,2.881-1.475,4.018c-0.839,1.845-1.391,3.054-0.839,5.275c0.231,0.958-0.171,1.916-0.981,2.439
		c-4.192,2.607-10.935,2.233-16.317,1.956c-1.493-0.07-2.871-0.169-4.046-0.169c-6.544,0.274-13.349,0.227-19.918,0.209
		c-7.858-0.053-15.952-0.093-23.785,0.369l-0.617,0.035c-12.408,0.863-24.131,1.714-36.534,0.83c-0.99,0-3.07,0.133-5.576,0.25
		c-5.499,0.325-9.67,0.471-12.811,0.471c-0.31,0-0.569-0.009-0.859-0.009c0.484,2.337-0.596,4.924-1.573,7.251
		c-0.524,1.284-1.071,2.579-1.117,3.334c-0.307,1.725,0.15,3.121,0.71,4.922c0.374,1.202,0.775,2.449,1.006,3.82
		c0.917,4.534,0.353,8.691-0.231,13.096c-1.159,8.214-1.159,13.592-0.056,20.876l0.466,2.911c1.159,7.082,2.297,14.384,2.615,21.65
		c6.91,0.781,13.63-0.009,20.767-0.859c2.651-0.33,5.324-0.656,8.037-0.881c4.861-0.199,7.477,1.719,9.796,3.445
		c1.42,1.057,2.637,1.95,4.351,2.422c0.6,0.207,1.585-0.02,2.482-0.238c0.908-0.205,1.958-0.423,3.024-0.423
		c4.295,0,5.252,0.467,6.987,3.35l1.368,2.193c1.494,2.243,3.553,5.282,2.179,9.093c-0.499,1.268-1.447,2.117-2.372,2.959
		c-0.608,0.546-1.246,1.127-1.501,1.634c-0.578,1.646-0.632,4.524-0.283,7.353h355.412c-0.068-2.417-0.172-4.849-0.35-7.324
		C421.186,688.033,422.039,685.54,423.099,682.386z"/>
	<path fill="#3E4924" d="M62.728,690.864c0.733-1.508,1.73-2.393,2.606-3.203c0.434-0.381,1.083-0.979,1.196-1.227
		c0.528-1.484-0.295-2.881-1.714-5.008l-1.505-2.36c-0.263-0.449-0.55-0.951-0.677-1.058c-0.299-0.109-1.84-0.109-2.445-0.109
		c-0.576,0-1.301,0.162-2.063,0.321c-1.459,0.335-3.102,0.683-4.749,0.146c-2.417-0.665-4.164-1.978-5.706-3.118
		c-2.042-1.528-3.729-2.806-6.836-2.565c-2.546,0.227-5.166,0.535-7.785,0.854c-6.907,0.841-14.033,1.704-21.314,0.918
		c-0.33,0.844-1.133,1.436-2.078,1.436c-1.25,0-2.243-1.006-2.243-2.253c0-8.097-1.372-16.478-2.684-24.581l-0.479-2.927
		c-1.191-7.784-1.191-13.505,0-21.864c0.6-4.51,1.075-8.154,0.308-12.019c-0.222-1.221-0.535-2.264-0.859-3.285
		c-0.656-2.097-1.348-4.268-0.884-6.854c0.097-1.23,0.77-2.82,1.435-4.483c0.633-1.488,1.691-4.005,1.282-4.792
		c-0.121-0.227-0.617-0.446-1.265-0.611c-0.612-0.135-1.104-0.507-1.41-1c-0.558-0.24-0.979-0.528-1.276-0.879
		c-0.024-0.028-0.03-0.066-0.054-0.097c-0.492-0.174-1.009-0.314-1.528-0.417V700h62.053
		C61.71,696.621,61.89,693.193,62.728,690.864z"/>
</g>
<rect opacity="0.8" fill="#231F20" width="1440" height="700"/>
</svg>
