<?xml version="1.0" encoding="utf-8"?>
<!-- Generator: Adobe Illustrator 16.0.0, SVG Export Plug-In . SVG Version: 6.00 Build 0)  -->
<!DOCTYPE svg PUBLIC "-//W3C//DTD SVG 1.1//EN" "http://www.w3.org/Graphics/SVG/1.1/DTD/svg11.dtd">
<svg version="1.1" id="Layer_1" xmlns="http://www.w3.org/2000/svg" xmlns:xlink="http://www.w3.org/1999/xlink" x="0px" y="0px"
	 width="726.6px" height="587.2px" viewBox="0 0 726.6 587.2" enable-background="new 0 0 726.6 587.2" xml:space="preserve">
<g>
	<polygon fill="#212121" points="535.1,412.8 535.1,400.8 406.5,400.8 406.5,339.7 316.5,339.7 316.5,400.8 186.9,400.8 
		186.9,412.8 180.9,412.8 180.9,425.8 186.9,425.8 535.1,425.8 541.1,425.8 541.1,412.8 	"/>
	<rect x="62.5" y="434.8" fill="#725130" width="62.7" height="152.4"/>
	<rect x="597.7" y="434.8" fill="#725130" width="62.7" height="152.4"/>
	<path fill="#544A41" d="M726.6,434.4c0,5-4.1,9.1-9.1,9.1H9.1c-5,0-9.1-4.1-9.1-9.1l0,0c0-5,4.1-9.1,9.1-9.1h708.4
		C722.5,425.3,726.6,429.4,726.6,434.4L726.6,434.4z"/>
	<polygon opacity="0.1" fill="#231F20" points="598.1,443.5 660.4,587.2 660.8,443.5 	"/>
	<polygon opacity="0.1" fill="#231F20" points="63.3,443.5 125.6,587.2 126,443.5 	"/>
	<path fill="#1C1C1C" d="M632.2,25.8v-7.8c0-1.2-0.6-2.3-1.5-2.9V0H92.6v345.6h538.1V97.8c0.9-0.6,1.5-1.7,1.5-2.9v-7.8
		c0-1.2-0.6-2.3-1.5-2.9v-2.9c0.9-0.6,1.5-1.7,1.5-2.9v-7.8c0-1.2-0.6-2.3-1.5-2.9v-2.9c0.9-0.6,1.5-1.7,1.5-2.9v-7.8
		c0-1.2-0.6-2.3-1.5-2.9v-4.4c0.9-0.6,1.5-1.7,1.5-2.9v-7.8c0-1.2-0.6-2.3-1.5-2.9v-4.4C631.6,28.1,632.2,27,632.2,25.8z
		 M608.1,325.6h-494v-309h494V325.6z"/>
	<path fill="#383838" d="M377,336.3c0,1.9-1.6,3.5-3.5,3.5h-24c-1.9,0-3.5-1.6-3.5-3.5l0,0c0-1.9,1.6-3.5,3.5-3.5h24
		C375.5,332.8,377,334.3,377,336.3L377,336.3z"/>
</g>
</svg>
