<?xml version="1.0" encoding="utf-8"?>
<!-- Generator: Adobe Illustrator 16.0.0, SVG Export Plug-In . SVG Version: 6.00 Build 0)  -->
<!DOCTYPE svg PUBLIC "-//W3C//DTD SVG 1.1//EN" "http://www.w3.org/Graphics/SVG/1.1/DTD/svg11.dtd">
<svg version="1.1" id="Layer_1" xmlns="http://www.w3.org/2000/svg" xmlns:xlink="http://www.w3.org/1999/xlink" x="0px" y="0px"
	 width="1399.7px" height="501.4px" viewBox="0 0 1399.7 501.4" enable-background="new 0 0 1399.7 501.4" xml:space="preserve">
<g>
	<g>
		<rect x="696.1" y="178.9" fill="#5D5D5D" width="345.6" height="88.8"/>
		<g>
			<g>
				<g>
					
						<path fill="none" stroke="#DAA28B" stroke-width="6.751" stroke-linecap="round" stroke-linejoin="round" stroke-miterlimit="10" d="
						M744,237.9c0,0,7.4,13.7,17,16.1c9.9,2.5,19.1,3.1,24.5,3.8"/>
					<path fill="none" stroke="#203F39" stroke-width="6.7508" stroke-linejoin="round" stroke-miterlimit="10" d="M744,237.9
						c0,0,5.9,10.9,13.9,14.9"/>
					<path fill="none" stroke="#238557" stroke-width="6.7508" stroke-linejoin="round" stroke-miterlimit="10" d="M752,248.6
						c1.7,1.7,3.7,3.2,5.8,4.3"/>
					<path fill="none" stroke="#FFFFFF" stroke-width="0.6824" stroke-miterlimit="10" d="M745.5,238.1c0,0,2.5,6,9.1,10.7"/>
					<path fill="none" stroke="#FFFFFF" stroke-width="0.6824" stroke-miterlimit="10" d="M745.7,236.9c0,0,2.7,6.1,9.4,11.1"/>
				</g>
				<path fill="#FFFFFF" d="M754.3,246c0,0-4.6,2.6-5.4,4.2c0,0,2.8,2.7,4,3.4c0,0,1-3.9,3.2-6C756.1,247.7,754.8,246.5,754.3,246z"
					/>
			</g>
			<path fill="#161616" d="M728.2,239.1c0.9,7.9,17.1,4.4,17.1,4.4l3.1-4.4C741,236.2,728.2,239.1,728.2,239.1z"/>
			<path fill="#EFB597" d="M746.6,227c0-5.4-16.1-5.4-16.1,0c0,18.9-5.3,28.8-5.3,28.8H752C752,255.8,746.6,252.3,746.6,227z"/>
			<g>
				<path fill="#EFB597" d="M752.3,211.3c0.5-2.1,0.9-7.9-5.2-6.6l-11.6,0.1l-2.1,6.5l-3.3,9l0.6,9l7.7,2.8l6.1,2.2
					c0,0,3.4-1.1,5.9-1.9c0,0,1.9,0.1,1.2-4.1c0,0,0.2-5.1,0.4-6.3c0,0,2.8-1,0.6-3.7C751.5,216.9,751.3,216,752.3,211.3z"/>
				<path fill="#231F20" d="M750.5,202.8c0,0-16.1-6.1-18.5,0.3l20.2,4.6C752.2,207.7,757.1,206.3,750.5,202.8z"/>
				<path fill="#231F20" d="M751.9,205.4c1.1-0.9-12.7-4-12.7-4c-7-1.6-9.8,3.2-9.8,3.2c-7.6,6.9-1.5,17.1-1.5,17.1
					c2.2,3,2.6,8.2,2.6,8.2c0.9-1.4,1.5-6.6,1.5-6.6c-2.2-7.3,0.5-8.2,0.5-8.2c3.9-0.3,4.4,4.5,4.4,4.5l1.6-0.2
					c-0.9-2-0.3-9.5-0.3-9.5c0.3-2.8,1.8-3.4,1.8-3.4c3.3-0.8,8.7,2.9,11.3,1.9C755.9,206.5,751.9,205.4,751.9,205.4z"/>
				<circle fill="#492925" cx="747.7" cy="215.7" r="0.7"/>
				<g>
					<path fill="#231F20" d="M749.3,214.4c0,0-0.1,0-0.2-0.1c-0.1,0-0.3-0.1-0.6-0.2c-0.3-0.1-0.6-0.1-0.9-0.2
						c-0.3-0.1-0.7-0.1-1-0.1c-0.3,0-0.7,0-1,0c-0.3,0-0.6,0.1-0.8,0.1c-0.5,0.1-0.8,0.3-0.8,0.3l-0.1,0c-0.2,0.1-0.4,0-0.5-0.2
						c-0.1-0.2,0-0.4,0.2-0.4c0,0,0.4-0.2,0.9-0.4c0.3-0.1,0.6-0.2,1-0.2c0.4,0,0.7-0.1,1.1-0.1c0.4,0,0.8,0,1.1,0
						c0.4,0,0.7,0,1,0.1c0.3,0,0.5,0.1,0.7,0.1c0.2,0,0.3,0,0.3,0c0.4,0.1,0.7,0.4,0.6,0.8c-0.1,0.4-0.4,0.7-0.8,0.6
						C749.4,214.5,749.3,214.4,749.3,214.4L749.3,214.4z"/>
				</g>
				
					<path fill="#C18963" stroke="#C18963" stroke-width="0.3427" stroke-linecap="round" stroke-linejoin="round" stroke-miterlimit="10" d="
					M750,224.7c-0.5-0.1-2.2-1.1-2-0.2c0.2,1,1,1.1,2.3,1c0.5,0,0.7,0,0.8-0.6C751.2,224.7,751.2,224.9,750,224.7z"/>
				<g opacity="0.1">
					<path fill="#231F20" d="M738.5,219.4l-1.2-0.9l-0.3,1.1c0,0-1.2,8.7,1.1,9.9c0,0,2.6,2.5,11.5,3.1c0.3-0.1,0.7-0.2,1-0.3
						c0,0,1.9,0.1,1.2-4.1c0,0,0.2-4.4,0.3-6C749.3,222.1,740.8,221.4,738.5,219.4z"/>
				</g>
				<path fill="#EFB597" d="M729.2,216c-0.4,1.8-0.5,11.8,5.2,5.5l0.2-5C734.5,216.5,730.6,210.1,729.2,216z"/>
				
					<path fill="none" stroke="#C18963" stroke-width="0.5295" stroke-linecap="round" stroke-linejoin="round" stroke-miterlimit="10" d="
					M731.6,216.9c0,0-1.3,1.7,0.8,3.2"/>
			</g>
			<ellipse opacity="0.2" fill="#232222" cx="738.6" cy="276.8" rx="0.5" ry="0.8"/>
			<path fill="#203F39" d="M738.6,241.7H738l-11.1,0c-3.1,4.5-3.6,7.5-3.6,21.3c0,17,0,20.8,0,21.2c0,0,1.9,0,1.9,0H738h0.6h12.8
				c0,0,1.9,0,1.9,0c0-0.4,0-4.2,0-21.2c0-13.8-1-13.2-2.9-21.4H738.6z"/>
			<path fill="#203F39" d="M738,241.8v4.1l11.7-4.1c0,0-0.3-1.1-1.3-2.7C748.4,239.1,743.8,241.8,738,241.8z"/>
			<path fill="#203F39" d="M726.9,241.8l11.7,4.1v-4.1c-5.7,0-10.4-2.7-10.4-2.7C727.2,240.7,726.9,241.8,726.9,241.8z"/>
			<g>
				<path fill="#238557" d="M746.3,266.4l-23-6.8c0,1,0,2.2,0,3.5c0,17,0,20.8,0,21.2c0,0,1.9,0,1.9,0H738h0.6h12.8c0,0,1.9,0,1.9,0
					c0-0.4,0-4,0-19.6l-12.6-5.1L746.3,266.4z"/>
				<path fill="#FFFFFF" d="M723.3,259.6c0-0.9,0-1.7,0.1-2.5L723.3,259.6L723.3,259.6z"/>
				<path fill="#FFFFFF" d="M753.3,264.8L753.3,264.8v-0.6C753.3,264.3,753.3,264.6,753.3,264.8z"/>
				<path fill="#FFFFFF" d="M735,255.5l5.2,6.4l-16.9-4.8l0,0.1c0,0.8,0,1.6-0.1,2.5l23,6.8l-5.6-6.8l12.6,5.1c0-0.2,0-0.4,0-0.6
					l-0.1-0.6L735,255.5z"/>
				<path fill="#D3340E" d="M753.3,262.5L753.3,262.5l0-0.6c0,0,0,0,0,0C753.3,262.1,753.3,262.3,753.3,262.5z"/>
				<path fill="#D3340E" d="M723.6,254L723.6,254l0.1-1.2c0-0.2,0-0.4,0.1-0.5l-0.1-0.1L723.6,254z"/>
				<path fill="#D3340E" d="M753.3,261.9c-0.1,0.1-27.4-12.9-27.4-12.9l6.9,8l-9.1-4.7c0,0.2,0,0.3-0.1,0.5l-0.1,1.2l0,0l0,0.8
					l14.4,5.7l-5.3-6.7l20.7,8.8C753.3,262.3,753.3,262.1,753.3,261.9z"/>
			</g>
			<g>
				<g>
					
						<path fill="none" stroke="#DAA28B" stroke-width="6.751" stroke-linecap="round" stroke-linejoin="round" stroke-miterlimit="10" d="
						M732.8,251.4c1.7,4.4,4.4,9.2,8.4,11.8c8.6,5.5,17.1,9.1,22,11.4"/>
					<path fill="none" stroke="#203F39" stroke-width="6.7508" stroke-linejoin="round" stroke-miterlimit="10" d="M730.2,242.5
						c0,0,2.1,12.2,8.4,18.6"/>
					<path fill="none" stroke="#238557" stroke-width="6.7508" stroke-linejoin="round" stroke-miterlimit="10" d="M734.5,255.2
						c1.1,2.2,2.5,4.2,4.2,5.9"/>
					<path fill="none" stroke="#FFFFFF" stroke-width="0.6824" stroke-miterlimit="10" d="M732.4,244.2c0,0-0.6,4.5,4.1,11.1"/>
					<path fill="none" stroke="#FFFFFF" stroke-width="0.6824" stroke-miterlimit="10" d="M733.2,244.1c0,0-0.2,4.5,4.5,11.4"/>
				</g>
				<path fill="#FFFFFF" d="M738.4,255.2c0,0-0.9-1.5-1.2-2.2c0,0-5.2,1-6.4,2.3c0,0,1.7,3.5,2.7,4.5
					C733.4,259.8,735.6,256.4,738.4,255.2z"/>
			</g>
		</g>
		<g>
			<g>
				<g>
					
						<path fill="none" stroke="#F7C5B5" stroke-width="6.751" stroke-linecap="round" stroke-linejoin="round" stroke-miterlimit="10" d="
						M808.7,245.1c0,0,12.6-9.1,13.7-18.9c1.1-10.1,0.6-19.4,0.6-24.8"/>
					<path fill="none" stroke="#203F39" stroke-width="6.7508" stroke-linejoin="round" stroke-miterlimit="10" d="M808.7,245.1
						c0,0,10-7.3,13-15.8"/>
					<path fill="none" stroke="#238557" stroke-width="6.7508" stroke-linejoin="round" stroke-miterlimit="10" d="M818.2,235.7
						c1.4-2,2.7-4.1,3.5-6.3"/>
					<path fill="none" stroke="#FFFFFF" stroke-width="0.6824" stroke-miterlimit="10" d="M808.7,243.8c0,0,5.9-3.2,9.6-10.3"/>
					<path fill="none" stroke="#FFFFFF" stroke-width="0.6824" stroke-miterlimit="10" d="M807.5,243.7c0,0,5.9-3.7,10-11"/>
				</g>
				<path fill="#FFFFFF" d="M815.4,233.8c0,0,3.2,4.3,4.9,4.8c0,0,2.3-3.1,2.9-4.4c0,0-4.1-0.5-6.4-2.4
					C816.8,231.7,815.8,233.2,815.4,233.8z"/>
			</g>
			<polygon fill="#161616" points="792.7,235.4 795.6,237.9 795.2,235.1 			"/>
			<polygon fill="#161616" points="810,237.9 812.9,235.4 810.4,235 			"/>
			<g>
				<path fill="#FFCCB8" d="M811.1,223.3c0-5.4-16.1-5.4-16.1,0c0,18.9-5.3,28.8-5.3,28.8h26.7C816.4,252.1,811.1,248.6,811.1,223.3
					z"/>
			</g>
			<g>
				<path fill="#FFCCB8" d="M817.3,219.8c0,0-3.3-2.6-3.3-5.3c0,0-0.2-9.1-4.3-11c0,0-15.3-5-15.8,3.4c0,0-11.1,20.4,4.5,22.6
					c0,0,18.8,9,18-0.7c0,0,0.4-4.1-0.5-6C815.9,222.8,818.5,220.5,817.3,219.8z"/>
				<path fill="#231F20" d="M803.8,200.5c-4.7-0.6-15.3-0.5-16.6,9.5c0,0-2.4,11.7,5.8,17.7c0,0-1.9-11,2.4-10.2
					c1.3,0.2,2.4,1.8,2.9,4.4c0,0,0.5,0.8,0.5-0.1c-0.1-1.5-0.6-5.2,0.1-5.9c0,0,5.2-3.6,4-5.7c-0.6-1-2.1-5.2,1.8-4.4
					c1.8,0.4,5.3,2.7,7.4,0.4C812.8,205.4,812.7,201.6,803.8,200.5z"/>
				
					<path fill="#C18963" stroke="#C18963" stroke-width="0.5004" stroke-linecap="round" stroke-linejoin="round" stroke-miterlimit="10" d="
					M815.3,224.1c0,0-4.6-0.2-4.3,1.2c0.2,1.4,3.3,6.6,4,3.2c0.1-0.6,0.2-1,0.4-1.9C815.5,226.2,816.5,224.7,815.3,224.1z"/>
				<g>
					<circle fill="#431200" cx="809.9" cy="214.9" r="1"/>
					<g>
						<path fill="#231F20" d="M812.2,212.6c0,0-0.1,0-0.3-0.1c-0.2,0-0.4-0.1-0.7-0.2c-0.3-0.1-0.7-0.1-1.1-0.1c-0.4,0-0.8,0-1.2,0
							c-0.4,0-0.8,0-1.2,0.1c-0.4,0.1-0.8,0.1-1,0.3c-0.6,0.2-1,0.4-1,0.4l0,0c0,0-0.1,0-0.1,0c0,0,0-0.1,0-0.1c0,0,0.4-0.2,1-0.4
							c0.3-0.2,0.7-0.2,1.1-0.3c0.4-0.1,0.8-0.2,1.3-0.2c0.4-0.1,0.9,0,1.3-0.1c0.4,0,0.8,0,1.1,0.1c0.3,0,0.6,0.1,0.8,0.1
							c0.2,0,0.3,0.1,0.3,0.1l0,0c0.2,0,0.2,0.2,0.2,0.3C812.5,212.6,812.4,212.7,812.2,212.6C812.2,212.6,812.2,212.6,812.2,212.6z
							"/>
					</g>
				</g>
				<path fill="#FFCCB8" d="M791.7,218.4c-0.4,1.6-0.4,10.5,4.6,4.9l0.1-4.5C796.5,218.8,793,213.1,791.7,218.4z"/>
				
					<path fill="none" stroke="#C18963" stroke-width="0.4743" stroke-linecap="round" stroke-linejoin="round" stroke-miterlimit="10" d="
					M793.8,219.2c0,0-1.2,1.5,0.8,2.9"/>
			</g>
			<ellipse opacity="0.2" fill="#232222" cx="803" cy="273.1" rx="0.5" ry="0.8"/>
			<path fill="#203F39" d="M803.4,239.1l-1.6-0.3l-10.5-0.8c-3.1,4.5-3.6,7.5-3.6,21.3c0,17,0,20.8,0,21.2c0,0,1.9,0,1.9,0h12.8h0.6
				h12.8c0,0,1.9,0,1.9,0c0-0.4,0-4.2,0-21.2c0-13.8-2-18.2-4.8-23.8L803.4,239.1z"/>
			<path fill="#203F39" d="M802.5,238.1v4.1l11.7-4.1c0,0-0.3-1.1-1.3-2.7C812.9,235.4,808.2,238.1,802.5,238.1z"/>
			<path fill="#203F39" d="M791.4,238.1l11.7,4.1v-4.1c-5.7,0-10.4-2.7-10.4-2.7C791.6,237,791.4,238.1,791.4,238.1z"/>
			<g>
				<path fill="#238557" d="M810.8,262.7l-23-6.8c0,1,0,2.2,0,3.5c0,17,0,20.8,0,21.2c0,0,1.9,0,1.9,0h12.8h0.6h12.8
					c0,0,1.9,0,1.9,0c0-0.4,0-4,0-19.6l-12.6-5.1L810.8,262.7z"/>
				<path fill="#FFFFFF" d="M787.8,256c0-0.9,0-1.7,0.1-2.5L787.8,256L787.8,256z"/>
				<path fill="#FFFFFF" d="M817.8,261.1L817.8,261.1v-0.6C817.8,260.7,817.8,260.9,817.8,261.1z"/>
				<path fill="#FFFFFF" d="M799.5,251.9l5.2,6.4l-16.9-4.8l0,0.1c0,0.8,0,1.6-0.1,2.5l23,6.8l-5.6-6.8l12.6,5.1c0-0.2,0-0.4,0-0.6
					l-0.1-0.6L799.5,251.9z"/>
				<path fill="#D3340E" d="M817.8,258.8L817.8,258.8l0-0.6c0,0,0,0,0,0C817.8,258.4,817.8,258.6,817.8,258.8z"/>
				<path fill="#D3340E" d="M788,250.4L788,250.4l0.1-1.2c0-0.2,0-0.4,0.1-0.5l-0.1-0.1L788,250.4z"/>
				<path fill="#D3340E" d="M817.8,258.2c-0.1,0.1-27.4-12.9-27.4-12.9l6.9,8l-9.1-4.7c0,0.2,0,0.3-0.1,0.5l-0.1,1.2l0,0l0,0.8
					l14.4,5.7l-5.3-6.7l20.7,8.8C817.8,258.6,817.8,258.4,817.8,258.2z"/>
			</g>
			<g>
				<g>
					
						<path fill="none" stroke="#F7C5B5" stroke-width="6.751" stroke-linecap="round" stroke-linejoin="round" stroke-miterlimit="10" d="
						M796.7,248.4c1.6,4.4,4.2,9.3,8.1,12c8.5,5.7,16.9,9.4,21.7,11.9"/>
					<path fill="none" stroke="#203F39" stroke-width="6.7508" stroke-linejoin="round" stroke-miterlimit="10" d="M794.4,239.5
						c0,0,1.8,12.2,8,18.8"/>
					<path fill="none" stroke="#238557" stroke-width="6.7508" stroke-linejoin="round" stroke-miterlimit="10" d="M798.4,252.2
						c1.1,2.2,2.4,4.3,4,6"/>
					<path fill="none" stroke="#FFFFFF" stroke-width="0.6824" stroke-miterlimit="10" d="M796.6,241.2c0,0-0.6,4.9,4,11.6"/>
					<path fill="none" stroke="#FFFFFF" stroke-width="0.6824" stroke-miterlimit="10" d="M797.4,241.2c0,0-0.7,4.2,3.8,11.2"/>
				</g>
				<path fill="#FFFFFF" d="M802.2,252.4c0,0-0.9-1.6-1.2-2.2c0,0-5.3,0.9-6.5,2.1c0,0,1.9,4,2.7,5
					C797.3,257.3,799.5,253.5,802.2,252.4z"/>
			</g>
		</g>
		<g>
			<g>
				<g>
					
						<path fill="none" stroke="#EDBFB2" stroke-width="6.751" stroke-linecap="round" stroke-linejoin="round" stroke-miterlimit="10" d="
						M875.9,234.4c0,0,1.8,15.5,9.8,21.2c8.3,5.9,16.6,10,21.3,12.6"/>
					<path fill="none" stroke="#203F39" stroke-width="6.7508" stroke-linejoin="round" stroke-miterlimit="10" d="M875.9,234.4
						c0,0,1.4,12.3,7.4,19"/>
					<path fill="none" stroke="#238557" stroke-width="6.7508" stroke-linejoin="round" stroke-miterlimit="10" d="M879.5,247.2
						c1,2.2,2.3,4.4,3.8,6.1"/>
					<path fill="none" stroke="#FFFFFF" stroke-width="0.6824" stroke-miterlimit="10" d="M877,235c0,0-0.1,6.7,4.3,13.5"/>
					<path fill="none" stroke="#FFFFFF" stroke-width="0.6824" stroke-miterlimit="10" d="M877.7,234c0,0,0.3,6.9,4.7,14.1"/>
				</g>
				<path fill="#FFFFFF" d="M882.5,245.7c0,0-5.3,0.7-6.5,1.9c0,0,1.6,3.6,2.4,4.7c0,0,2.4-3.3,5.2-4.4
					C883.6,248,882.8,246.4,882.5,245.7z"/>
			</g>
			<polygon fill="#161616" points="860.1,235.4 863,237.9 862.6,235.1 			"/>
			<polygon fill="#161616" points="877.4,237.9 880.3,235.4 877.8,235 			"/>
			<g>
				<path fill="#FFC5B3" d="M878.5,223.3c0-5.4-16.1-5.4-16.1,0c0,18.9-5.3,28.8-5.3,28.8h26.7C883.8,252.1,878.5,248.6,878.5,223.3
					z"/>
			</g>
			<g>
				<path fill="#FFC5B3" d="M863.8,214.2l-2-1.2l-3.4,11.8c3,6.7,19.3,8.4,19.3,8.4l-9.7-8.3L863.8,214.2z"/>
				<path fill="#FFC5B3" d="M882.6,214.5c0,0,0-8.4-5-10.1c-4-1.3-15.6-2.9-13.7,9.9c0,0,0.2,8.8,4.3,12.6c0,0,10.7,11.6,13.8,4.3
					c0.8-1.9,0.6-4.4,0.5-8.4c0,0,3-0.9,1.3-3.4C883,218.2,882.5,216.8,882.6,214.5z"/>
				<path fill="#5E5423" d="M875.8,201c0,0-0.6-1.8-1.4-2.1c0,0-0.2,1.7-1.1,1.6c0,0-6.3-1.1-10.3,0.7c0,0-4.7,2-5.6,5
					c0,0-1.1,0-1.1-1c0,0-0.7,1.4-0.3,2.3c0,0-1.1-0.1-1.8,0.4c0,0,1.7,1,1.5,1.8c0,0-2.5,17.7,6.6,19.2c0,0-1.2-13,2.1-11.9
					c1.2,0.4,1.3,1.7,1.7,4.9l1.6-0.7c0,0-1.4-9.9-0.6-11.9c0.7-1.9,3.9-4,8.6-3.1c0.8,0.2,2.4,1.2,3.4-0.3c0.9-1.4,1.3-3.4-1.3-6.5
					C877.7,199.3,876.4,201.1,875.8,201z"/>
				<path fill="#FFC5B3" d="M860.5,217.3c-0.4,1.5-0.4,9.9,4.4,4.6l0.1-4.2C865,217.7,861.7,212.3,860.5,217.3z"/>
				
					<path fill="none" stroke="#C18963" stroke-width="0.5295" stroke-linecap="round" stroke-linejoin="round" stroke-miterlimit="10" d="
					M862.5,217.8c0,0-1.3,1.7,0.8,3.2"/>
				<circle fill="#473920" cx="876.7" cy="215.1" r="1"/>
				<g>
					<path fill="#49401D" d="M878.7,213c0,0-0.1,0-0.2-0.1c-0.1,0-0.3-0.1-0.6-0.1c-0.3,0-0.6-0.1-0.9-0.1c-0.3,0-0.7,0-1,0
						c-0.4,0-0.7,0.1-1,0.2c-0.3,0.1-0.6,0.1-0.9,0.3c-0.5,0.2-0.8,0.3-0.8,0.3l0,0c-0.1,0-0.2,0-0.2-0.1c0-0.1,0-0.2,0.1-0.2
						c0,0,0.3-0.2,0.8-0.4c0.2-0.1,0.6-0.3,0.9-0.4c0.3-0.1,0.7-0.2,1.1-0.3c0.4-0.1,0.8-0.1,1.1-0.2c0.4,0,0.7,0,1,0
						c0.3,0,0.5,0.1,0.7,0.1c0.2,0,0.3,0.1,0.3,0.1l0,0c0.2,0.1,0.4,0.4,0.3,0.6S879,213.1,878.7,213C878.7,213,878.7,213,878.7,213
						z"/>
				</g>
				
					<path fill="#C18963" stroke="#C18963" stroke-width="0.4943" stroke-linecap="round" stroke-linejoin="round" stroke-miterlimit="10" d="
					M880.9,224.6c0,0-4.5-0.2-4.3,1.2c0.2,1.4,3.3,6.5,4,3.2c0.1-0.6,0.2-1,0.4-1.9C881,226.7,882.1,225.2,880.9,224.6z"/>
			</g>
			<ellipse opacity="0.2" fill="#232222" cx="870.4" cy="273.1" rx="0.5" ry="0.8"/>
			<path fill="#203F39" d="M870.5,238.1h-0.6l-11.1,0c-3.1,4.5-3.6,7.5-3.6,21.3c0,17,0,20.8,0,21.2c0,0,1.9,0,1.9,0h12.8h0.6h12.8
				c0,0,1.9,0,1.9,0c0-0.4,0-4.2,0-21.2c0-13.8-1.1-15.8-4.1-22.6L870.5,238.1z"/>
			<path fill="#203F39" d="M869.9,238.1v4.1l11.7-4.1c0,0-0.3-1.1-1.3-2.7C880.2,235.4,875.6,238.1,869.9,238.1z"/>
			<path fill="#203F39" d="M858.8,238.1l11.7,4.1v-4.1c-5.7,0-10.4-2.7-10.4-2.7C859,237,858.8,238.1,858.8,238.1z"/>
			<g>
				<path fill="#238557" d="M878.2,262.7l-23-6.8c0,1,0,2.2,0,3.5c0,17,0,20.8,0,21.2c0,0,1.9,0,1.9,0h12.8h0.6h12.8
					c0,0,1.9,0,1.9,0c0-0.4,0-4,0-19.6l-12.6-5.1L878.2,262.7z"/>
				<path fill="#FFFFFF" d="M855.2,256c0-0.9,0-1.7,0.1-2.5L855.2,256L855.2,256z"/>
				<path fill="#FFFFFF" d="M885.2,261.1L885.2,261.1v-0.6C885.2,260.7,885.2,260.9,885.2,261.1z"/>
				<path fill="#FFFFFF" d="M866.9,251.9l5.2,6.4l-16.9-4.8l0,0.1c0,0.8,0,1.6-0.1,2.5l23,6.8l-5.6-6.8l12.6,5.1c0-0.2,0-0.4,0-0.6
					l-0.1-0.6L866.9,251.9z"/>
				<path fill="#D3340E" d="M885.2,258.8L885.2,258.8l0-0.6c0,0,0,0,0,0C885.2,258.4,885.2,258.6,885.2,258.8z"/>
				<path fill="#D3340E" d="M855.4,250.4L855.4,250.4l0.1-1.2c0-0.2,0-0.4,0.1-0.5l-0.1-0.1L855.4,250.4z"/>
				<path fill="#D3340E" d="M885.2,258.2c-0.1,0.1-27.4-12.9-27.4-12.9l6.9,8l-9.1-4.7c0,0.2,0,0.3-0.1,0.5l-0.1,1.2l0,0l0,0.8
					l14.4,5.7l-5.3-6.7l20.7,8.8C885.2,258.6,885.2,258.4,885.2,258.2z"/>
			</g>
			<g>
				<g>
					
						<path fill="none" stroke="#EDBFB2" stroke-width="6.751" stroke-linecap="round" stroke-linejoin="round" stroke-miterlimit="10" d="
						M864.7,247.5c1.1,4.6,3.2,9.7,6.8,12.8c7.8,6.5,15.8,11.2,20.3,14.1"/>
					<path fill="none" stroke="#203F39" stroke-width="6.7508" stroke-linejoin="round" stroke-miterlimit="10" d="M863.3,238.4
						c0,0,0.5,12.3,6,19.5"/>
					<path fill="none" stroke="#238557" stroke-width="6.7508" stroke-linejoin="round" stroke-miterlimit="10" d="M866,251.5
						c0.8,2.3,1.9,4.5,3.4,6.4"/>
					<path fill="none" stroke="#FFFFFF" stroke-width="0.6824" stroke-miterlimit="10" d="M865.3,240.3c0,0-1.1,4.8,2.7,12"/>
					<path fill="none" stroke="#FFFFFF" stroke-width="0.6824" stroke-miterlimit="10" d="M866.2,240.4c0,0-1.2,4.1,2.6,11.5"/>
				</g>
				<path fill="#FFFFFF" d="M869.8,252c0,0-0.7-1.6-0.9-2.3c0,0-5.3,0.3-6.7,1.4c0,0,1.4,4.1,2.2,5.3
					C864.4,256.4,866.9,252.9,869.8,252z"/>
			</g>
		</g>
		<g>
			
				<path fill="none" stroke="#F4B07D" stroke-width="6.8896" stroke-linecap="round" stroke-linejoin="round" stroke-miterlimit="10" d="
				M955,203.6c0,0,5,15.2,0,24c-2.7,4.7-5.1,8.3-7.4,11.5"/>
			<path fill="none" stroke="#232222" stroke-width="6.9336" stroke-linejoin="round" stroke-miterlimit="10" d="M955,203.6
				c0,0,5,15.2,0,24c-5.2,9.1-11.2,16.5-14.5,20.9"/>
			<path fill="none" stroke="#D3340E" stroke-width="0.7009" stroke-miterlimit="10" d="M954.8,206.9c0,0,2.2,7.8,0.8,16.1
				c-0.7,4.4-4.3,9.5-16.6,27.1"/>
			<path fill="none" stroke="#D3340E" stroke-width="0.7009" stroke-miterlimit="10" d="M953.7,206.9c0,0,2,7.3,0.6,15.6
				c-0.7,4.4-4.1,9.3-16.4,26.8"/>
			<path fill="#232222" d="M944.7,237.2l-4.5,5.8l5.7,4.1l5.4-7.4C950.2,240.2,944.7,237.2,944.7,237.2z"/>
		</g>
		<polygon fill="#161616" points="925.1,238.9 928,241.4 927.6,238.5 		"/>
		<polygon fill="#161616" points="942.3,241.3 945.2,238.8 942.7,238.5 		"/>
		<path fill="#ECC19C" d="M928.7,225.9l-4.3,2.5c3.4,2.8,2.6,6.4,2.6,6.4l7.8,6.9l-0.2-9.5L928.7,225.9z"/>
		<g>
			<path fill="#ECC19C" d="M943.4,226.8c0-5.4-16.1-5.4-16.1,0c0,18.9-5.3,28.8-5.3,28.8h26.7C948.8,255.6,943.4,252.1,943.4,226.8z
				"/>
			<path opacity="0.1" fill="#231F20" d="M931.2,230.4c0,0,2.9,6.6,12.5,6.1l-0.2-1.2C943.5,235.3,936,235.9,931.2,230.4z"/>
		</g>
		<path fill="#49270C" d="M946.1,207.2c0.2-0.9-1.2-0.8-1.2-0.8c-0.6-0.2-0.2-1-0.2-1c0.2-1.1-1.9-1.2-1.9-1.2
			c-3.3-3.2-3.4,1.2-3.4,1.2c-0.1,2.6,3.5,3,3.5,3c2.5,1.3,3.8,2,3.8,2c-0.2-0.7,0.4-1.5,0.4-1.5
			C948.2,207.9,946.1,207.2,946.1,207.2z"/>
		<path fill="#ECC19C" d="M947.9,217.3c0.2-2-0.1-4-0.1-4c0.1-2.8-1.5-4.1-1.7-4.1c0,0-10.4-6.4-10.6-6.4c-0.2,0-9.5,4-9.5,4
			l-3.2,8.4l4.1,12.4c3,7.2,13.5,8,13.5,8c8.9,0.1,7.2-3.9,7.2-3.9c-0.3-3.3,1.1-7.8,1.1-7.8c2.9-0.1,1.4-2.4,1.4-2.4
			C947.5,218.2,947.9,217.3,947.9,217.3z"/>
		<path fill="#49270C" d="M945.7,202.6c-0.6-0.9-0.8-0.2-0.8-0.2c-0.1,0.4-1.1,0-1.1,0c-0.2-0.9-1.8-0.1-1.8-0.1
			c-0.1-0.5-0.8-0.4-0.9-0.7c-0.4-1.8-3.5-0.4-3.5-0.4c-0.2-1.2-2-0.6-2-0.6c-0.5-3-3.4,0.9-3.8,1c-1.2,0.4-2,1.5-2,1.5
			c-0.7-1.1-2,0.1-2,0.1c-1.7-1-3.1,2.1-3.1,2.1c-1.2-0.3-1.9,2.1-1.9,2.1c-1.3-0.7-2.3,1-2.3,1c-1.9,0.1-2.1,3.2-2.1,3.2
			c-2,0.6-0.2,4-0.2,4c-2,1-0.6,5.1-0.6,5.1c-1.2,0.9,0.2,4.3,0.2,4.3c-0.9,0.9,0.7,2.9,0.7,2.9c-0.7,1.1,1.3,2,1.3,2
			c-0.4,2.3,1.9,2.2,1.9,2.2c4.8,0.8,5.9-4.6,5.9-4.6c1-0.5,0.8-1.7,0.8-1.7c0-0.9-1-2.8-1-2.8c-0.9-0.6-0.1-2.9-0.1-2.9
			c-0.8-0.9,1.5-1.3,1.5-1.3c1.3-0.2,0.4-1.5,0.4-1.5c0.8-0.2-0.2-1.7-0.2-1.7c1.8,0.7,1.4-1.8,1.4-1.8c1.6,0.3,2-1.6,2-1.6
			c1-0.1,0.6-2,0.6-2c1.2-0.5,0.4-3,0.4-3c1.3,0.9,3.5-0.4,3.5-0.4c1.3,0.2,1.9-1.6,1.9-1.6c1.7,0.4,1.6-1.7,1.6-1.7
			c1,0.9,2.6,0.3,2.6,0.3c1.5,0.5,2.7-0.5,2.7-0.5C946.9,203.2,945.7,202.6,945.7,202.6z"/>
		<path fill="#49270C" d="M930.8,217.4c-0.1,0.3,2.8,2.4,2.6,4.3l0.9,0.1c0,0-0.6-5.9,1.9-8.1C936.1,213.6,931.2,216.3,930.8,217.4z
			"/>
		<path fill="#231F20" d="M940.8,204.3c0,0-7.3-0.9-10.8,5.4c0,0-2.6,4.1-2.7,8.7l1.3,0.8c0,0,10.7-8.4,14.8-9c0.8-0.1,2.3-1,3.8,0
			C947.2,210.3,946.3,207.9,940.8,204.3z"/>
		<path fill="#ECC19C" d="M926.9,223c0.9,3.7,4.5,1.3,4.5,1.3l-2.6-4.8C925.3,216.6,926.9,223,926.9,223z"/>
		<g>
			<path fill="#381C0A" d="M944.8,216.2c0,0-0.1,0-0.2-0.1c-0.1,0-0.3-0.1-0.5-0.1c-0.2,0-0.5-0.1-0.8-0.1c-0.3,0-0.6,0-0.9,0.1
				c-0.2,0-0.3,0.1-0.5,0.1c-0.2,0-0.3,0.1-0.5,0.1c-0.3,0.1-0.6,0.2-0.8,0.3c-0.4,0.2-0.7,0.4-0.7,0.4l0,0c-0.1,0-0.2,0-0.2-0.1
				c0-0.1,0-0.2,0-0.2c0,0,0.3-0.2,0.7-0.5c0.2-0.2,0.5-0.3,0.8-0.5c0.2-0.1,0.3-0.2,0.5-0.2c0.2-0.1,0.3-0.1,0.5-0.2
				c0.3-0.1,0.7-0.1,1.1-0.2c0.3,0,0.7,0,0.9,0c0.3,0,0.5,0,0.7,0.1c0.2,0,0.2,0,0.3,0l0,0c0.3,0.1,0.4,0.4,0.4,0.7
				C945.5,216.2,945.2,216.3,944.8,216.2C944.9,216.2,944.9,216.2,944.8,216.2z"/>
		</g>
		<circle fill="#2E230E" cx="942.8" cy="217.9" r="0.7"/>
		
			<path fill="#C18963" stroke="#C18963" stroke-width="0.3278" stroke-linecap="round" stroke-linejoin="round" stroke-miterlimit="10" d="
			M946,226.5c0,0-3-0.1-2.8,0.8c0.2,0.9,2.2,4.3,2.6,2.1c0.1-0.4,0.1-0.7,0.3-1.2C946.1,227.9,946.7,226.9,946,226.5z"/>
		<path fill="#ECC19C" d="M926,220c-0.3,1.2-0.3,7.8,3.4,3.6l0.1-3.3C929.6,220.4,927,216.1,926,220z"/>
		
			<path fill="none" stroke="#C18963" stroke-width="0.3512" stroke-linecap="round" stroke-linejoin="round" stroke-miterlimit="10" d="
			M927.6,220.6c0,0-0.9,1.1,0.6,2.1"/>
		<ellipse opacity="0.2" fill="#232222" cx="935.3" cy="276.6" rx="0.5" ry="0.8"/>
		<path fill="#232222" d="M935.4,241.5h-0.6l-11.1,0c-3.1,4.5-3.6,7.5-3.6,21.3c0,17,0,20.8,0,21.2c0,0,1.9,0,1.9,0h12.8h0.6h12.8
			c0,0,1.9,0,1.9,0c0-0.4,0-4.2,0-21.2c0-13.8-1.1-15.8-4.1-22.6L935.4,241.5z"/>
		<path fill="#232222" d="M934.8,241.6v4.1l11.7-4.1c0,0-0.3-1.1-1.3-2.7C945.2,238.9,940.5,241.6,934.8,241.6z"/>
		<path fill="#232222" d="M923.7,241.6l11.7,4.1v-4.1c-5.7,0-10.4-2.7-10.4-2.7C924,240.5,923.7,241.6,923.7,241.6z"/>
		<g>
			<path fill="#D3340E" d="M950.1,262.3L950.1,262.3l0-0.6h0C950.1,261.9,950.1,262.1,950.1,262.3z"/>
			<path fill="#D3340E" d="M920.3,253.8L920.3,253.8l0.1-1.2c0-0.2,0-0.3,0.1-0.5l-0.1-0.1L920.3,253.8z"/>
			<path fill="#D3340E" d="M950.1,261.7c-0.1,0.1-27.4-12.9-27.4-12.9l6.9,8l-9.1-4.7c0,0.2,0,0.3-0.1,0.5l-0.1,1.2l0,0l0,0.8
				l14.4,5.7l-5.3-6.7l20.7,8.8C950.1,262.1,950.1,261.9,950.1,261.7z"/>
		</g>
		<g>
			<polygon fill="none" points="938.8,260.3 938.8,260 938.4,259.9 			"/>
			<polygon fill="none" points="941.7,263.8 942.2,264.5 942.2,261.4 941.7,261.2 			"/>
			<polygon fill="none" points="941,263 941.5,263.7 941.5,261.2 941,260.9 			"/>
			<polygon fill="none" points="938.9,260.5 939.5,261.2 939.5,260.3 938.9,260.1 			"/>
			<polygon fill="none" points="937.5,262.4 938,262.6 937.5,262 			"/>
			<polygon fill="none" points="930.6,263 931.2,263.1 931.2,260.6 930.6,260.4 			"/>
			<polygon fill="none" points="920.3,260 920.8,260.2 920.8,257.6 920.3,257.5 			"/>
			<polygon fill="none" points="949.2,264.3 949.8,264.5 949.8,263.4 949.2,263.1 			"/>
			<polygon fill="none" points="949.9,264.6 950.1,264.6 950.5,263.8 950.5,263.7 949.9,263.5 			"/>
			<polygon fill="none" points="926.5,261.8 927,262 927,259.4 926.5,259.2 			"/>
			<polygon fill="none" points="925.8,261.6 926.4,261.8 926.4,259.2 925.8,259 			"/>
			<polygon fill="none" points="925.1,261.4 925.7,261.6 925.7,259 925.1,258.8 			"/>
			<polygon fill="none" points="927.9,262.2 928.4,262.4 928.4,259.8 927.9,259.6 			"/>
			<polygon fill="none" points="924.4,261.2 925,261.4 925,258.8 924.4,258.6 			"/>
			<polygon fill="none" points="931.3,263.2 931.9,263.3 931.9,260.8 931.3,260.6 			"/>
			<polygon fill="none" points="923.7,261 924.3,261.2 924.3,258.6 923.7,258.5 			"/>
			<polygon fill="none" points="928.5,262.4 929.1,262.6 929.1,260 928.5,259.8 			"/>
			<polygon fill="none" points="943.7,266.7 944.1,266.8 943.7,266.3 			"/>
			<polygon fill="none" points="927.2,262 927.7,262.2 927.7,259.6 927.2,259.4 			"/>
			<polygon fill="none" points="921,260.2 921.5,260.4 921.5,257.8 921,257.7 			"/>
			<polygon fill="none" points="929.2,262.6 929.8,262.7 929.8,260.2 929.2,260 			"/>
			<polygon fill="none" points="929.9,262.8 930.5,262.9 930.5,260.4 929.9,260.2 			"/>
			<polygon fill="none" points="922.3,260.6 922.9,260.8 922.9,258.2 922.3,258.1 			"/>
			<polygon fill="none" points="921.7,260.4 922.2,260.6 922.2,258 921.7,257.9 			"/>
			<polygon fill="none" points="923,260.8 923.6,261 923.6,258.4 923,258.3 			"/>
			<polygon fill="none" points="946.5,263.2 947.1,263.4 947.1,262.2 946.5,261.9 			"/>
			<polygon fill="none" points="937.5,262 938,262.6 937.5,262.4 937.5,264.9 938.1,265.1 938.1,258.2 937.5,257.9 			"/>
			<polygon fill="none" points="945.8,262.9 946.4,263.1 946.4,261.9 945.8,261.6 			"/>
			<polygon fill="none" points="941.7,261.2 942.2,261.4 942.2,260 941.7,259.8 			"/>
			<polygon fill="none" points="936.8,264.7 937.4,264.9 937.4,262.4 936.8,262.2 			"/>
			<polygon fill="none" points="943,261.8 943.6,262 943.6,260.6 943,260.4 			"/>
			<polygon fill="none" points="945.1,262.6 945.7,262.8 945.7,261.6 945.1,261.3 			"/>
			<polygon fill="none" points="942.3,261.5 942.9,261.7 942.9,260.3 942.3,260.1 			"/>
			<polygon fill="none" points="933.4,263.8 933.9,263.9 933.9,261.4 933.4,261.2 			"/>
			<polygon fill="none" points="932.7,263.6 933.3,263.7 933.3,261.2 932.7,261 			"/>
			<polygon fill="none" points="932,263.4 932.6,263.5 932.6,261 932,260.8 			"/>
			<polygon fill="none" points="936.1,264.5 936.7,264.7 936.7,262.2 936.1,262 			"/>
			<polygon fill="none" points="935.4,264.4 936,264.5 936,262 935.4,261.8 			"/>
			<polygon fill="none" points="934.1,264 934.6,264.1 934.6,261.6 934.1,261.4 			"/>
			<polygon fill="none" points="934.8,264.2 935.3,264.3 935.3,261.8 934.8,261.6 			"/>
			<polygon fill="none" points="940.3,265.7 940.8,265.9 940.8,262.8 940.3,262.2 			"/>
			<polygon fill="none" points="932,255.5 932.6,256.2 932.6,255.8 932,255.5 			"/>
			<polygon fill="none" points="941,265.9 941.5,266.1 941.5,263.7 941,263 			"/>
			<polygon fill="none" points="942.3,266.3 942.9,266.5 942.9,265.4 942.3,264.7 			"/>
			<polygon fill="none" points="941.7,266.1 942.2,266.3 942.2,264.5 941.7,263.8 			"/>
			<polygon fill="none" points="943,266.5 943.6,266.7 943.6,266.2 943,265.5 			"/>
			<polygon fill="none" points="944.4,262.3 945,262.6 945,261.3 944.4,261 			"/>
			<polygon fill="none" points="943.7,262 944.3,262.3 944.3,261 943.7,260.7 			"/>
			<polygon fill="none" points="939.6,265.5 940.2,265.7 940.2,262 939.6,261.3 			"/>
			<polygon fill="none" points="939.6,260.4 940.2,260.6 940.2,259.1 939.6,258.9 			"/>
			<polygon fill="none" points="938.9,260.1 939.5,260.3 939.5,258.8 938.9,258.6 			"/>
			<polygon fill="none" points="940.3,260.7 940.8,260.9 940.8,259.4 940.3,259.2 			"/>
			<polygon fill="none" points="941,260.9 941.5,261.2 941.5,259.7 941,259.5 			"/>
			<polygon fill="none" points="938.9,265.3 939.5,265.5 939.5,261.2 938.9,260.5 			"/>
			<polygon fill="none" points="938.2,265.1 938.8,265.3 938.8,260.3 938.4,259.9 938.8,260 938.8,258.5 938.2,258.3 			"/>
			<polygon fill="none" points="933.4,257.1 933.9,257.8 933.9,256.4 933.4,256.1 			"/>
			<polygon fill="none" points="932.7,256.3 933.3,257 933.3,256.1 932.7,255.8 			"/>
			<polygon fill="none" points="947.9,263.7 948.4,264 948.4,262.8 947.9,262.5 			"/>
			<polygon fill="none" points="935.4,259.6 936,260.2 936,257.3 935.4,257 			"/>
			<polygon fill="none" points="947.2,263.4 947.7,263.7 947.7,262.5 947.2,262.2 			"/>
			<polygon fill="none" points="934.8,258.8 935.3,259.4 935.3,257 934.8,256.7 			"/>
			<polygon fill="none" points="948.6,264 949.1,264.2 949.1,263.1 948.6,262.8 			"/>
			<polygon fill="none" points="934.1,258 934.6,258.6 934.6,256.7 934.1,256.4 			"/>
			<polygon fill="none" points="936.1,260.4 936.7,261.1 936.7,257.6 936.1,257.3 			"/>
			<polygon fill="none" points="936.8,261.2 937.4,261.9 937.4,257.9 936.8,257.6 			"/>
			<polygon fill="#D3340E" points="920.1,260 920.3,260 920.3,257.5 920.1,257.4 			"/>
			<polygon fill="#D3340E" points="920.8,260.2 921,260.2 921,257.7 920.8,257.6 			"/>
			<polygon fill="#D3340E" points="921.5,260.4 921.7,260.4 921.7,257.9 921.5,257.8 			"/>
			<polygon fill="#D3340E" points="922.2,260.6 922.3,260.6 922.3,258.1 922.2,258 			"/>
			<polygon fill="#D3340E" points="922.9,260.8 923,260.8 923,258.3 922.9,258.2 			"/>
			<polygon fill="#D3340E" points="923.6,261 923.7,261 923.7,258.5 923.6,258.4 			"/>
			<polygon fill="#D3340E" points="924.3,261.2 924.4,261.2 924.4,258.6 924.3,258.6 			"/>
			<polygon fill="#D3340E" points="925,261.4 925.1,261.4 925.1,258.8 925,258.8 			"/>
			<polygon fill="#D3340E" points="925.7,261.6 925.8,261.6 925.8,259 925.7,259 			"/>
			<polygon fill="#D3340E" points="926.4,261.8 926.5,261.8 926.5,259.2 926.4,259.2 			"/>
			<polygon fill="#D3340E" points="927,262 927.2,262 927.2,259.4 927,259.4 			"/>
			<polygon fill="#D3340E" points="927.7,262.2 927.9,262.2 927.9,259.6 927.7,259.6 			"/>
			<polygon fill="#D3340E" points="928.4,262.4 928.5,262.4 928.5,259.8 928.4,259.8 			"/>
			<polygon fill="#D3340E" points="929.1,262.6 929.2,262.6 929.2,260 929.1,260 			"/>
			<polygon fill="#D3340E" points="929.8,262.7 929.9,262.8 929.9,260.2 929.8,260.2 			"/>
			<polygon fill="#D3340E" points="930.5,262.9 930.6,263 930.6,260.4 930.5,260.4 			"/>
			<polygon fill="#D3340E" points="931.2,263.1 931.3,263.2 931.3,260.6 931.2,260.6 			"/>
			<polygon fill="#D3340E" points="931.9,263.3 932,263.4 932,260.8 931.9,260.8 			"/>
			<polygon fill="#D3340E" points="932,255.5 932,255.5 932,255.5 			"/>
			<polygon fill="#D3340E" points="932.6,256.2 932.7,256.3 932.7,255.8 932.6,255.8 			"/>
			<polygon fill="#D3340E" points="932.6,263.5 932.7,263.6 932.7,261 932.6,261 			"/>
			<polygon fill="#D3340E" points="933.3,257 933.4,257.1 933.4,256.1 933.3,256.1 			"/>
			<polygon fill="#D3340E" points="933.3,263.7 933.4,263.8 933.4,261.2 933.3,261.2 			"/>
			<polygon fill="#D3340E" points="933.9,257.8 934.1,258 934.1,256.4 933.9,256.4 			"/>
			<polygon fill="#D3340E" points="933.9,263.9 934.1,264 934.1,261.4 933.9,261.4 			"/>
			<polygon fill="#D3340E" points="934.6,258.6 934.8,258.8 934.8,256.7 934.6,256.7 			"/>
			<polygon fill="#D3340E" points="934.6,264.1 934.8,264.2 934.8,261.6 934.6,261.6 			"/>
			<polygon fill="#D3340E" points="935.3,259.4 935.4,259.6 935.4,257 935.3,257 			"/>
			<polygon fill="#D3340E" points="935.3,264.3 935.4,264.4 935.4,261.8 935.3,261.8 			"/>
			<polygon fill="#D3340E" points="936,260.2 936.1,260.4 936.1,257.3 936,257.3 			"/>
			<polygon fill="#D3340E" points="936,264.5 936.1,264.5 936.1,262 936,262 			"/>
			<polygon fill="#D3340E" points="936.7,261.1 936.8,261.2 936.8,257.6 936.7,257.6 			"/>
			<polygon fill="#D3340E" points="936.7,264.7 936.8,264.7 936.8,262.2 936.7,262.2 			"/>
			<polygon fill="#D3340E" points="937.4,264.9 937.5,264.9 937.5,262.4 937.4,262.4 			"/>
			<polygon fill="#D3340E" points="937.4,261.9 937.5,262 937.5,257.9 937.4,257.9 			"/>
			<polygon fill="#D3340E" points="938.1,265.1 938.2,265.1 938.2,258.3 938.1,258.2 			"/>
			<polygon fill="#D3340E" points="938.8,260 938.9,260.1 938.9,258.6 938.8,258.5 			"/>
			<polygon fill="#D3340E" points="938.8,265.3 938.9,265.3 938.9,260.5 938.8,260.3 			"/>
			<polygon fill="#D3340E" points="939.5,265.5 939.6,265.5 939.6,261.3 939.5,261.2 			"/>
			<polygon fill="#D3340E" points="939.5,260.3 939.6,260.4 939.6,258.9 939.5,258.8 			"/>
			<polygon fill="#D3340E" points="940.2,265.7 940.3,265.7 940.3,262.2 940.2,262 			"/>
			<polygon fill="#D3340E" points="940.2,260.6 940.3,260.7 940.3,259.2 940.2,259.1 			"/>
			<polygon fill="#D3340E" points="940.8,260.9 941,260.9 941,259.5 940.8,259.4 			"/>
			<polygon fill="#D3340E" points="940.8,265.9 941,265.9 941,263 940.8,262.8 			"/>
			<polygon fill="#D3340E" points="941.5,266.1 941.7,266.1 941.7,263.8 941.5,263.7 			"/>
			<polygon fill="#D3340E" points="941.5,261.2 941.7,261.2 941.7,259.8 941.5,259.7 			"/>
			<polygon fill="#D3340E" points="942.2,266.3 942.3,266.3 942.3,264.7 942.2,264.5 			"/>
			<polygon fill="#D3340E" points="942.2,261.4 942.3,261.5 942.3,260.1 942.2,260 			"/>
			<polygon fill="#D3340E" points="942.9,266.5 943,266.5 943,265.5 942.9,265.4 			"/>
			<polygon fill="#D3340E" points="942.9,261.7 943,261.8 943,260.4 942.9,260.3 			"/>
			<polygon fill="#D3340E" points="943.6,266.7 943.7,266.7 943.7,266.3 943.6,266.2 			"/>
			<polygon fill="#D3340E" points="943.6,262 943.7,262 943.7,260.7 943.6,260.6 			"/>
			<polygon fill="#D3340E" points="944.3,262.3 944.4,262.3 944.4,261 944.3,261 			"/>
			<polygon fill="#D3340E" points="945,262.6 945.1,262.6 945.1,261.3 945,261.3 			"/>
			<polygon fill="#D3340E" points="945.7,262.8 945.8,262.9 945.8,261.6 945.7,261.6 			"/>
			<polygon fill="#D3340E" points="946.4,263.1 946.5,263.2 946.5,261.9 946.4,261.9 			"/>
			<polygon fill="#D3340E" points="947.1,263.4 947.2,263.4 947.2,262.2 947.1,262.2 			"/>
			<polygon fill="#D3340E" points="947.7,263.7 947.9,263.7 947.9,262.5 947.7,262.5 			"/>
			<polygon fill="#D3340E" points="948.4,264 948.6,264 948.6,262.8 948.4,262.8 			"/>
			<polygon fill="#D3340E" points="949.1,264.2 949.2,264.3 949.2,263.1 949.1,263.1 			"/>
			<polygon fill="#D3340E" points="949.8,264.5 949.9,264.6 949.9,263.5 949.8,263.4 			"/>
			<polygon fill="#D3340E" points="950.5,263.8 950.6,263.7 950.5,263.7 			"/>
		</g>
		<g>
			
				<path fill="none" stroke="#F4B07D" stroke-width="6.8896" stroke-linecap="round" stroke-linejoin="round" stroke-miterlimit="10" d="
				M925.3,200.6c0,0,9.7,12.7,8,22.6c-1,5.4-2,9.5-3.2,13.3"/>
			<path fill="none" stroke="#232222" stroke-width="6.9336" stroke-linejoin="round" stroke-miterlimit="10" d="M925.3,200.6
				c0,0,9.7,12.7,8,22.6c-1.8,10.3-5.1,19.3-6.7,24.5"/>
			<path fill="none" stroke="#D3340E" stroke-width="0.7009" stroke-miterlimit="10" d="M926,202.6c0,0,4.7,6.6,6.1,14.9
				c0.8,4.4-0.9,10.4-6.6,31"/>
			<path fill="none" stroke="#D3340E" stroke-width="0.7009" stroke-miterlimit="10" d="M925,203c0,0,4.3,6.3,5.8,14.5
				c0.8,4.4-0.8,10.1-6.5,30.8"/>
			<path fill="#232222" d="M926.8,235.8l-2.3,6.9l6.8,2l2.6-8.8C932.9,236.8,926.8,235.8,926.8,235.8z"/>
		</g>
		<g>
			<g>
				
					<path fill="none" stroke="#F4B07D" stroke-width="7.0637" stroke-linecap="round" stroke-linejoin="round" stroke-miterlimit="10" d="
					M1009.6,235.3c3.3-2.7,6.4-6.1,7.7-10c3.5-10.4,3.4-13,4.6-18.7"/>
				<path fill="none" stroke="#282828" stroke-width="7.2337" stroke-linejoin="round" stroke-miterlimit="10" d="M998.7,242.1
					c0,0,15.3-6.7,18.6-16.7c3.5-10.4,3.4-13,4.6-18.7"/>
			</g>
			<path fill="#FFFFFF" d="M991.7,229.8c0,0-4.9,17.1-4.9,43.1h28.3c0,0,1.9-16.4-7.3-27.4C1004.2,241.3,991.7,229.8,991.7,229.8z"
				/>
			<path fill="#282828" d="M1003.4,242.2l-2.1,1.9c2.5,1.9,2.7,1.1,2.7,1.1c1.7-1.5-0.1-3.8-0.1-3.8L1003.4,242.2z"/>
			<path fill="#F4B07D" d="M1011.1,207.5c-8.6-3.5-23.7,17.7-23.7,17.7c13.9,13,23.2,13.1,23.2,13.1c3.8,0.3,3.4-2.9,3-4.1
				c-0.3-1,0.5-2.6,0.5-3.5c0.1-1.5,0-3.2,0-3.2c2.9,1.2,3.1-0.4,3.1-0.4c-0.4-2.3-1.4-4.6-1.5-6.2
				C1015.5,216.3,1011.1,207.5,1011.1,207.5z"/>
			<path fill="#F4B07D" d="M984.8,229.8l16.2,14.3c3.5-4,11-7.1,11-7.1l-18-16.1L984.8,229.8z"/>
			<path fill="#776537" d="M993.9,203.6c0,0-3.2,0.4-3.6,0.8c0,0,0.7-3,1.8-3.9c0,0-2.9,2.5-2.9,4c0,0-0.6-0.2-0.9-0.1
				c0,0-2.1,0.3-3.2,2.5c0,0,2.7-1.7,3.2,0.1c0,0-7.3,14.8-3.8,23c0,0,3.1-3,4.6-3.2c0,0,2-0.5,3.1-1.8c0,0,3.9-4.6,6-3.9
				c0,0,2.2,0.5,1.6,2.5c0,0,2-2.1,4.5-5c0,0,2.3-2.9,1.6-5.9c0,0,3.4-2.8,4.9-1.9c0,0,1,3.5-1.4,6.2c0,0,2.8-0.2,3.7-1.8
				c0,0,0.5,1.1-0.1,1.6c0,0,1.2-0.2,1.7-0.9c0,0,1.2,2.7,0.9,3.9c0,0,4.9-7,1.4-12.2C1017.1,207.6,1017,199.9,993.9,203.6z"/>
			
				<path fill="#C18963" stroke="#C18963" stroke-width="0.3019" stroke-linecap="round" stroke-linejoin="round" stroke-miterlimit="10" d="
				M1013.6,230.5c0,0-2.7-0.4-2.7,0.5c0.1,0.9,1.6,4.2,2.2,2.2c0.1-0.4,0.2-0.6,0.4-1.1C1013.6,231.8,1014.3,230.9,1013.6,230.5z"/>
			<g>
				<path fill="#593B2E" d="M1012.3,218.9c0,0-4-1.5-6.5,1.3c0,0,2.9-1.9,6.2-0.3C1012,219.8,1013.1,219.4,1012.3,218.9z"/>
				<path fill="#2E230E" d="M1010.2,223.6c0,0,2.6-0.6,0.8-3.2C1011.1,220.3,1012.1,222.7,1010.2,223.6z"/>
				<path fill="#2E230E" d="M1007,222.2c0,0,3.2-0.7,4.5,0.1C1011.5,222.3,1012.5,220.5,1007,222.2z"/>
			</g>
			<g>
				<path fill="#F4B07D" d="M995.7,219.7c-1,1.2-4.6,8.7,1.9,6l1.9-3.7C999.6,222,998.9,215.7,995.7,219.7z"/>
				
					<path fill="none" stroke="#C18963" stroke-width="0.5253" stroke-linecap="round" stroke-linejoin="round" stroke-miterlimit="10" d="
					M997.6,221.2c0,0-2.1,0.5-1.4,3"/>
			</g>
			<path fill="#D6D6D6" d="M1000.9,245.6c0,0,2.3-1.3,3-3.8c0,0-12.8-7.4-19.2-11.9C984.8,229.8,994.4,241.9,1000.9,245.6z"/>
			<path fill="#282828" d="M984.8,229.8c0,0-4.9,17.1-4.9,43.1h28.3c0,0,0.8-15.6-7.3-27.4L984.8,229.8z"/>
			<path fill="#2D2D2D" d="M996,240.3c0,0-4-3.7-4.9-4.3l1.9,6l1.6-1.2l0.4,1.2l7.5,5.8C1002.4,247.9,1001.2,244.7,996,240.3z"/>
			
				<path fill="none" stroke="#F4B07D" stroke-width="7.0637" stroke-linecap="round" stroke-linejoin="round" stroke-miterlimit="10" d="
				M991.5,228.9c1.1-4.1,1.7-8.7,0.5-12.6c-3.2-10.5-4.7-12.6-7-17.9"/>
			<path fill="none" stroke="#282828" stroke-width="7.2337" stroke-linejoin="round" stroke-miterlimit="10" d="M986.5,240.8
				c0,0,8.6-14.3,5.5-24.4c-3.2-10.5-4.7-12.6-7-17.9"/>
			<path fill="#282828" d="M1004.5,243.6c-0.5,0.2-0.5,1.6-0.5,1.6c2.1,0.9,5,9.9,5,9.9c1.7,4,1.7,12.1,1.7,12.1
				c0,1.5,1.5,4.1,1.5,4.1c0.7-0.6,1.2-2.1,1.2-2.1c0.4-2.8-0.6-8.6-0.6-8.6C1012,252,1004.5,243.6,1004.5,243.6z"/>
		</g>
		<g>
			<g>
				<path fill="#DEDFE0" d="M820,118.3l-187.6,18.9c-53.2,1.9-358.1,43.1-378.5,45.8c42.7,86.5,108.5,189.7,195.1,237.2
					c285.3,40.8,558.6,23.1,747.7-6.7c141.4-22.3,159.3-109.9,159.2-153.3c-23.9-17.9-49.6-26-49.6-26
					C1226.2,87,820,118.3,820,118.3z M766.5,248c0,6.7-5.4,12.1-12.1,12.1h-27.7c-6.7,0-12.1-5.4-12.1-12.1v-45.2
					c0-6.7,5.4-12.1,12.1-12.1h27.7c6.7,0,12.1,5.4,12.1,12.1V248z M832.9,248c0,6.7-5.4,12.1-12.1,12.1h-27.7
					c-6.7,0-12.1-5.4-12.1-12.1v-45.2c0-6.7,5.4-12.1,12.1-12.1h27.7c6.7,0,12.1,5.4,12.1,12.1V248z M899.6,248
					c0,6.7-5.4,12.1-12.1,12.1h-27.7c-6.7,0-12.1-5.4-12.1-12.1v-45.2c0-6.7,5.4-12.1,12.1-12.1h27.7c6.7,0,12.1,5.4,12.1,12.1V248z
					 M965.5,248c0,6.7-5.4,12.1-12.1,12.1h-27.7c-6.7,0-12.1-5.4-12.1-12.1v-45.2c0-6.7,5.4-12.1,12.1-12.1h27.7
					c6.7,0,12.1,5.4,12.1,12.1V248z M1032.1,248c0,6.7-5.4,12.1-12.1,12.1h-27.7c-6.7,0-12.1-5.4-12.1-12.1v-45.2
					c0-6.7,5.4-12.1,12.1-12.1h27.7c6.7,0,12.1,5.4,12.1,12.1V248z"/>
				<path fill="#0A2375" d="M253.9,183c-0.7,0.1-1.1,0.1-1.1,0.1C225.8,146.6,135.5,44.3,135.5,44.3C116.2-1.2,72.3-2.6,45.6,1.5
					C58.4,53.6,136.5,328.4,373.5,408c25.2,4.5,67.8,17.2,92.9,20.8C379.8,381.3,296.6,269.5,253.9,183z"/>
				<path fill="#E2A305" d="M45.6,1.5c-13,2-21.9,5.2-21.9,5.2l70.9,233.7c0,0-45.9,4.2-55.4,7.4C25.9,252,9.4,266.9,2,278.8
					c-8.1,13,9.8,31.8,20.3,41.2c45.9,21.1,264,70.5,264,70.5c29.1,6.5,58.2,12.4,87.2,17.6C136.5,328.4,58.4,53.6,45.6,1.5z"/>
				
					<path fill="#0A2375" stroke="#0E2991" stroke-width="2.1966" stroke-linecap="round" stroke-linejoin="round" stroke-miterlimit="10" d="
					M1355.9,260.2c0.1,43.4-17.8,131-159.2,153.3c-189.1,29.8-462.4,47.5-747.7,6.7c5.7,3.1,11.5,6,17.4,8.7
					c-5.9-2.6-11.7-5.5-17.4-8.7c-25.1-3.6-50.3-7.6-75.5-12.2c21.3,7.1,43.8,12.7,67.6,16.4c-23.9-3.7-46.4-9.3-67.6-16.4
					c-29-5.2-58.1-11.1-87.2-17.6c0,0-218-49.4-264-70.5c4,3.6,6.9,5.8,6.9,5.8l5.8,18.5c14.3,26.6,372.7,95.5,372.7,95.5
					c174.7,23.3,89.7,23.5,317.7,28.7c174.2,3.9,448.1-23.3,448.1-23.3c171.2-21.1,196.1-46,221.1-103.7
					C1409.6,306.8,1379.2,277.6,1355.9,260.2z"/>
			</g>
			<path fill="#A5A5A5" d="M790.3,401v79.2c108,46.8,228.6,1.5,228.6,1.5V401C867.5,359.3,790.3,401,790.3,401z"/>
			<path fill="#BFC0C1" d="M907.8,329.1c0,0-493.8-80.1-511.4-83.3c0,0-57.1-65.3-74.7-77.2l-17.4,2.1c0,0,27.6,76.3,59.2,89.7
				c0,0,96.9,45.4,124.8,44.9l111.1,59.1c0,0,174.5-3.2,218-12.7C817.4,351.7,935.9,342.6,907.8,329.1z"/>
			<path fill="#9D9D9E" d="M512,311.9c-71.8,1.3-130,7-129.8,12.8c0.1,5.8,58.4,9.4,130.2,8.1c71.8-1.3,130-7,129.8-12.8
				C642.1,314.2,583.8,310.6,512,311.9z"/>
			<ellipse fill="#A5A5A5" cx="792.1" cy="440.6" rx="13.3" ry="39.9"/>
			<ellipse fill="#A5A5A5" cx="1017.4" cy="441.3" rx="12.9" ry="40.6"/>
		</g>
	</g>
	<path fill="#869FAD" d="M1235.4,198.2v37.6h61.5c0,0-8.5-15.6-30-37.6H1235.4z"/>
	<path fill="none" stroke="#AFB1B2" stroke-width="0.7322" stroke-miterlimit="10" d="M1235.4,198.2v37.6h61.5c0,0-8.5-15.6-30-37.6
		H1235.4z"/>
	<path fill="#AFB1B2" d="M1019.9,190.7h-27.7c-6.7,0-12.1,5.4-12.1,12.1V248c0,6.7,5.4,12.1,12.1,12.1h27.7
		c6.7,0,12.1-5.4,12.1-12.1v-45.2C1032.1,196.1,1026.7,190.7,1019.9,190.7z M1027.7,248c0,4.3-3.5,7.8-7.8,7.8h-27.7
		c-4.3,0-7.8-3.5-7.8-7.8v-45.2c0-4.3,3.5-7.8,7.8-7.8h27.7c4.3,0,7.8,3.5,7.8,7.8V248z"/>
	<path fill="#AFB1B2" d="M953.3,190.7h-27.7c-6.7,0-12.1,5.4-12.1,12.1V248c0,6.7,5.4,12.1,12.1,12.1h27.7c6.7,0,12.1-5.4,12.1-12.1
		v-45.2C965.5,196.1,960,190.7,953.3,190.7z M961.1,248c0,4.3-3.5,7.8-7.8,7.8h-27.7c-4.3,0-7.8-3.5-7.8-7.8v-45.2
		c0-4.3,3.5-7.8,7.8-7.8h27.7c4.3,0,7.8,3.5,7.8,7.8V248z"/>
	<path fill="#AFB1B2" d="M887.4,190.7h-27.7c-6.7,0-12.1,5.4-12.1,12.1V248c0,6.7,5.4,12.1,12.1,12.1h27.7c6.7,0,12.1-5.4,12.1-12.1
		v-45.2C899.6,196.1,894.1,190.7,887.4,190.7z M895.2,248c0,4.3-3.5,7.8-7.8,7.8h-27.7c-4.3,0-7.8-3.5-7.8-7.8v-45.2
		c0-4.3,3.5-7.8,7.8-7.8h27.7c4.3,0,7.8,3.5,7.8,7.8V248z"/>
	<path fill="#AFB1B2" d="M820.8,190.7h-27.7c-6.7,0-12.1,5.4-12.1,12.1V248c0,6.7,5.4,12.1,12.1,12.1h27.7c6.7,0,12.1-5.4,12.1-12.1
		v-45.2C832.9,196.1,827.5,190.7,820.8,190.7z M828.6,248c0,4.3-3.5,7.8-7.8,7.8h-27.7c-4.3,0-7.8-3.5-7.8-7.8v-45.2
		c0-4.3,3.5-7.8,7.8-7.8h27.7c4.3,0,7.8,3.5,7.8,7.8V248z"/>
	<path fill="#AFB1B2" d="M754.3,190.7h-27.7c-6.7,0-12.1,5.4-12.1,12.1V248c0,6.7,5.4,12.1,12.1,12.1h27.7c6.7,0,12.1-5.4,12.1-12.1
		v-45.2C766.5,196.1,761,190.7,754.3,190.7z M762.1,248c0,4.3-3.5,7.8-7.8,7.8h-27.7c-4.3,0-7.8-3.5-7.8-7.8v-45.2
		c0-4.3,3.5-7.8,7.8-7.8h27.7c4.3,0,7.8,3.5,7.8,7.8V248z"/>
</g>
</svg>
