<?xml version="1.0" encoding="utf-8"?>
<!-- Generator: Adobe Illustrator 16.0.0, SVG Export Plug-In . SVG Version: 6.00 Build 0)  -->
<!DOCTYPE svg PUBLIC "-//W3C//DTD SVG 1.1//EN" "http://www.w3.org/Graphics/SVG/1.1/DTD/svg11.dtd">
<svg version="1.1" id="Layer_1" xmlns="http://www.w3.org/2000/svg" xmlns:xlink="http://www.w3.org/1999/xlink" x="0px" y="0px"
	 width="1589.6px" height="337.8px" viewBox="0 0 1589.6 337.8" enable-background="new 0 0 1589.6 337.8" xml:space="preserve">
<path opacity="0.4" fill="#FFFFFF" d="M1485.4,148.9c0.5-2.7,0.7-5.5,0.7-8.2c0-46.9-65.9-84.9-147.3-84.9
	c-11.5,0-22.6,0.8-33.4,2.2C1277.6,23.3,1225.3,0,1165.4,0c-77.3,0-141.9,38.8-157.7,90.6c-9.8-2-20.2-3-31.1-3
	c-57.2,0-103.5,29.7-103.5,66.3c0,2.3,0.2,4.5,0.5,6.7c-7.8-1.6-16.1-2.5-24.8-2.5c-8.4,0-16.5,0.8-24.2,2.4
	c-12.4-40.3-62.6-70.6-122.8-70.6c-46.6,0-87.3,18.1-109.1,45.1c-8.3-1.1-17-1.7-26-1.7c-3.5,0-6.9,0.1-10.3,0.3
	c-14.4-7.2-32.6-11.5-52.3-11.5c-8.9,0-17.5,0.9-25.5,2.5C465.6,81.9,412.5,50,348.9,50c-49.3,0-92.3,19.2-115.2,47.6
	c-8.8-1.2-18-1.8-27.4-1.8c-66.9,0-121.1,31.3-121.1,69.8c0,2.3,0.2,4.5,0.6,6.8C33.9,183.5,0,201.8,0,222.4
	c0,33.8,90.4,61.1,201.9,61.1c29.2,0,56.9-1.9,82-5.2c14.5,20.1,41.7,33.6,73,33.6c24.1,0,45.9-8.1,61.2-21
	c35,12.3,86.8,20,144.6,20c27.6,0,53.9-1.8,77.6-5c13.7,19,39.5,31.8,69.1,31.8c27.5,0,51.7-11.1,66-27.9
	c19.3,7.1,43.7,11.3,70.3,11.3c42.1,0,78.8-10.6,98.1-26.3c11.7,1.4,24.1,2.2,36.8,2.2c34.2,0,65.6-5.4,90.4-14.5
	c18.4,21.6,49.5,35.8,84.8,35.8c38,0,71.2-16.5,88.8-40.9c30.4,4.1,64.2,6.4,99.6,6.4c135.6,0,245.5-33.3,245.5-74.3
	C1589.6,184.5,1548.5,162.3,1485.4,148.9z"/>
</svg>
