<?xml version="1.0" encoding="utf-8"?>
<!-- Generator: Adobe Illustrator 16.0.0, SVG Export Plug-In . SVG Version: 6.00 Build 0)  -->
<!DOCTYPE svg PUBLIC "-//W3C//DTD SVG 1.1//EN" "http://www.w3.org/Graphics/SVG/1.1/DTD/svg11.dtd">
<svg version="1.1" id="Layer_1" xmlns="http://www.w3.org/2000/svg" xmlns:xlink="http://www.w3.org/1999/xlink" x="0px" y="0px"
	 width="250.6px" height="335px" viewBox="0 0 250.6 335" enable-background="new 0 0 250.6 335" xml:space="preserve">
<g>
	<g>
		<rect x="15.1" y="9.8" fill="#8A8570" width="217.3" height="303.3"/>
		<polygon fill="#CEA806" points="250.5,335 250.5,0 248.2,0 226.3,29.8 226.4,29.8 226.4,303.8 249.5,335 		"/>
		<polygon fill="#C29F10" points="1.6,335 249.5,335 226.4,303.8 226.4,305.2 24.1,305.2 24.1,304.4 		"/>
		<polygon fill="#D5AE0B" points="24.1,29.8 226.3,29.8 248.2,0 1,0 24.1,31.3 		"/>
		<polygon fill="#B8970D" points="1,0 0,0 0,335 1.6,335 24.1,304.4 24.1,31.3 		"/>
		<polygon opacity="0.2" fill="#FFFFFF" points="24.1,29.8 226.4,305.2 226.3,29.8 		"/>
		<polygon opacity="0.1" fill="#FFFFFF" points="205.7,304.8 178.5,304.8 24.1,83.2 24.1,56.2 		"/>
		<polygon opacity="0.1" fill="#FFFFFF" points="164,305.1 154.3,305.1 23.9,125.5 23.9,114.9 		"/>
	</g>
</g>
</svg>
