<?xml version="1.0" encoding="utf-8"?>
<!-- Generator: Adobe Illustrator 16.0.0, SVG Export Plug-In . SVG Version: 6.00 Build 0)  -->
<!DOCTYPE svg PUBLIC "-//W3C//DTD SVG 1.1//EN" "http://www.w3.org/Graphics/SVG/1.1/DTD/svg11.dtd">
<svg version="1.1" id="Layer_1" xmlns="http://www.w3.org/2000/svg" xmlns:xlink="http://www.w3.org/1999/xlink" x="0px" y="0px"
	 width="345.7px" height="584.6px" viewBox="0 0 345.7 584.6" enable-background="new 0 0 345.7 584.6" xml:space="preserve">
<g>
	<g>
		<path fill="#776537" d="M101,145.5c0,0-6.6,2.4-6.5,13.5c0,3.7,2,13.5-5,14c0,0,8.5,1,11-4.5c0,0-0.5,10-4.5,12.5
			c0,0,23.6,10,27.6-12.5l-2-33.1C121.6,135.5,107,129.5,101,145.5z"/>
	</g>
	<g>
		<path fill="#776537" d="M242.8,145.5c0,0,6.6,2.4,6.5,13.5c0,3.7-2,13.5,5,14c0,0-8.5,1-11-4.5c0,0,0.5,10,4.5,12.5
			c0,0-23.6,10-27.6-12.5l2-33.1C222.3,135.5,236.8,129.5,242.8,145.5z"/>
	</g>
	<g>
		<g>
			<polygon fill="#0B4349" points="92.8,204.9 108.9,202.9 111.4,221 			"/>
		</g>
		<g>
			<polygon fill="#0B4349" points="251,204.9 234.9,202.9 232.4,221 			"/>
		</g>
		<g>
			<path fill="#F4B07D" d="M266.9,309.5H77.8c0,0,31-114.3,31-169.1c0-31.7,126.7-31.7,126.7,0C235.4,219.6,266.9,309.5,266.9,309.5
				z"/>
		</g>
		<g>
			<path fill="#776537" d="M243.8,33c-21.6-16.5-38.4-17.6-50.2-14c-17.3,1.1-15-19-15-19c-8.1,2.8-12,21.9-12,21.9
				c0-9.2-9.5-18.4-9.5-18.4c2.3,10.1-2.7,14-4.8,15.2c-11.7-3.1-28.2-1.7-49.1,14.4c-18.4,14.1-26.6,72.9,4.4,103.9l65.9-73.6
				l65.9,73.6C270.4,105.9,262.2,47.2,243.8,33z"/>
			<g>
				<path fill="#F4B07D" d="M231.7,71.7c0,0-21.3-27.2-61.8-26.6c-40.3-0.6-57.3,26.6-57.3,26.6c-14.2,23.2-9.9,94.7-9.9,94.7
					c0,35.4,49.1,63.6,69.8,63.6c20.6,0,69.9-26.4,69.9-63.6C242.3,166.4,245.8,94.8,231.7,71.7z"/>
			</g>
			<g opacity="0.2">
				<g>
					<path fill="#231F20" d="M189.6,130.7c0.2,0.2,0.4,0.4,0.6,0.6c0.2,0.2,0.4,0.4,0.5,0.7c0.3,0.5,0.7,1,0.9,1.5
						c0.1,0.3,0.3,0.5,0.4,0.8c0.1,0.3,0.2,0.6,0.3,0.9c0.1,0.3,0.1,0.6,0.1,1c0,0.3,0,0.7,0,1c0,0.3-0.1,0.7-0.3,1
						c-0.1,0.3-0.2,0.7-0.5,0.9c-0.2,0.3-0.4,0.6-0.6,0.8l-0.7,0.6c-0.2,0.2-0.5,0.4-0.8,0.5l-0.8,0.5l-1.6,0.7l0,0l-0.2,0
						c-0.6,0.1-1.4,0.3-2.1,0.5c-0.7,0.2-1.3,0.5-1.9,0.8c-0.6,0.3-1.2,0.7-1.6,1.1c-0.5,0.4-0.8,0.8-1.2,1.6
						c-0.2,0.4-0.4,0.7-0.8,1.1l-0.5,0.5c-0.2,0.2-0.4,0.3-0.5,0.5c-0.4,0.3-0.8,0.5-1.2,0.8c-0.4,0.3-0.8,0.4-1.3,0.5l-0.6,0.2
						c-0.2,0.1-0.4,0.1-0.6,0.1l-1.3,0.2c-0.8,0-1.6,0.1-2.5,0.1c-0.8-0.1-1.5,0-2.3-0.1c-0.9-0.1-1.7-0.2-2.6-0.5l-0.6-0.2
						c-0.2-0.1-0.4-0.2-0.6-0.3l-0.6-0.3c-0.2-0.1-0.4-0.3-0.6-0.4c-0.8-0.6-1.3-1.3-1.8-2l-0.3-0.5l-0.1-0.1l0-0.1
						c0-0.1,0,0.1,0,0.1l0,0l0,0l0,0l-0.2-0.2c-0.3-0.4-0.4-0.4-0.6-0.7c-0.5-0.4-1-0.8-1.6-1.1c-0.6-0.3-1.3-0.6-1.9-0.8
						c-0.7-0.2-1.4-0.4-2.1-0.5l-0.2,0l0,0l-1.6-0.7l-0.8-0.5c-0.3-0.2-0.5-0.3-0.8-0.5l-0.7-0.6c-0.2-0.2-0.4-0.5-0.6-0.8
						c-0.2-0.3-0.3-0.6-0.5-0.9c-0.2-0.3-0.2-0.7-0.3-1c-0.1-0.3-0.1-0.7,0-1c0-0.3,0.1-0.7,0.1-1c0.1-0.3,0.2-0.6,0.3-0.9
						c0.1-0.3,0.2-0.6,0.4-0.8c0.3-0.5,0.6-1,0.9-1.5c0.4-0.5,0.7-0.9,1.2-1.3c0.3-0.3,0.9-0.3,1.2,0c0.3,0.3,0.3,0.8,0,1.2l0,0
						c-0.1,0.2-0.3,0.4-0.5,0.6c-0.1,0.2-0.3,0.4-0.4,0.6c-0.3,0.4-0.5,0.8-0.7,1.3c-0.1,0.2-0.2,0.4-0.3,0.7
						c-0.1,0.2-0.1,0.4-0.2,0.7c0,0.2-0.1,0.4-0.1,0.6c0,0.2,0,0.4,0.1,0.6c0,0.2,0.1,0.4,0.2,0.6c0.1,0.2,0.1,0.4,0.3,0.5
						c0.1,0.2,0.2,0.3,0.4,0.5l0.5,0.4c0.1,0.2,0.4,0.2,0.6,0.4l0.6,0.3l1.4,0.5l-0.2,0c0.9,0.1,1.6,0.3,2.4,0.6
						c0.8,0.2,1.6,0.5,2.3,0.9c0.8,0.4,1.5,0.8,2.2,1.5c0.3,0.3,0.8,0.8,0.9,1l0.2,0.2l0.1,0.2l0.1,0.1l0.3,0.5
						c0.4,0.6,0.8,1.1,1.3,1.4c0.1,0.1,0.2,0.2,0.4,0.3l0.4,0.2c0.1,0.1,0.3,0.1,0.4,0.2l0.5,0.1c0.6,0.2,1.3,0.3,2,0.4
						c0.7,0.1,1.5,0.1,2.3,0.1l2.1-0.1l1-0.2c0.2,0,0.3,0,0.5-0.1l0.5-0.1c0.3-0.1,0.6-0.2,0.9-0.3c0.3-0.1,0.6-0.3,0.8-0.5
						c0.5-0.3,0.8-0.8,1.2-1.4c0.4-0.6,1-1.5,1.6-2.1c0.7-0.6,1.4-1.1,2.2-1.5c0.8-0.4,1.5-0.7,2.3-0.9c0.8-0.2,1.6-0.4,2.4-0.6
						l-0.2,0l1.4-0.5l0.6-0.3c0.2-0.1,0.4-0.2,0.6-0.4l0.5-0.4c0.1-0.1,0.2-0.3,0.4-0.5c0.2-0.1,0.2-0.3,0.3-0.5
						c0.1-0.2,0.1-0.4,0.2-0.6c0.1-0.2,0.1-0.4,0.1-0.6c0-0.2,0-0.4-0.1-0.6c0-0.2-0.1-0.4-0.2-0.7c-0.1-0.2-0.2-0.4-0.3-0.7
						c-0.2-0.4-0.4-0.9-0.7-1.3c-0.1-0.2-0.3-0.4-0.4-0.6c-0.2-0.2-0.3-0.4-0.5-0.6c-0.3-0.4-0.3-0.9,0.1-1.2
						C188.7,130.4,189.3,130.4,189.6,130.7z"/>
				</g>
			</g>
			<g>
				<path fill="#2E230E" d="M141.2,111.6c0,2.1-1.7,3.9-3.9,3.9c-2.1,0-3.9-1.7-3.9-3.9s1.7-3.9,3.9-3.9
					C139.5,107.7,141.2,109.5,141.2,111.6z"/>
			</g>
			<g>
				<path fill="#593B2E" d="M117.2,110.2c0,0,13.2-12.6,31.8-7.7c0,0,5.3-3.1,0.7-5.1C149.7,97.4,127.6,93.6,117.2,110.2z"/>
			</g>
			<g>
				<path fill="#2E230E" d="M201,111.6c0,2.1,1.7,3.9,3.9,3.9c2.1,0,3.9-1.7,3.9-3.9s-1.7-3.9-3.9-3.9
					C202.7,107.7,201,109.5,201,111.6z"/>
			</g>
			<g>
				<path fill="#593B2E" d="M225.5,108.6c0,0-14.3-11.3-32.4-4.7c0,0-5.6-2.6-1.2-5C191.9,98.8,213.6,93,225.5,108.6z"/>
			</g>
			<g>
				<path fill="#F4B07D" d="M108.4,123.7c0,0-13.3-21.7-18-1.6c-1.5,6.2-1.6,39.8,17.5,18.6"/>
			</g>
			<g>
				<path fill="#C18963" d="M99.9,138.5c-0.3,0-0.6-0.1-0.8-0.4c-2.5-2.8-3.6-5.7-3.3-8.5c0.4-3.9,3.3-6.2,3.4-6.3
					c0.5-0.4,1.1-0.3,1.5,0.2c0.4,0.5,0.3,1.1-0.2,1.5c-0.1,0-2.3,1.9-2.6,4.8c-0.2,2.2,0.7,4.5,2.8,6.9c0.4,0.4,0.3,1.1-0.1,1.5
					C100.4,138.5,100.2,138.5,99.9,138.5z"/>
			</g>
			<g>
				<path fill="#F4B07D" d="M234.3,123.7c0,0,13.3-21.7,18-1.6c1.5,6.2,1.6,39.8-17.5,18.6"/>
			</g>
			<g>
				<path fill="#C18963" d="M242.8,138.5c-0.2,0-0.5-0.1-0.7-0.3c-0.4-0.4-0.5-1.1-0.1-1.5c2.1-2.4,3-4.7,2.8-6.9
					c-0.3-3-2.6-4.8-2.6-4.8c-0.5-0.4-0.5-1-0.2-1.5c0.4-0.5,1-0.5,1.5-0.2c0.1,0.1,3,2.4,3.4,6.3c0.3,2.8-0.8,5.7-3.3,8.5
					C243.4,138.4,243.1,138.5,242.8,138.5z"/>
			</g>
			<g>
				<path fill="#C18963" d="M172.4,165.3c-9.4,0-18-1.4-18.6-1.5c-0.7-0.1-1.2-0.8-1.1-1.5c0.1-0.7,0.8-1.2,1.5-1.1
					c0.2,0,21.4,3.4,33.4-0.4c0.7-0.2,1.4,0.2,1.7,0.9c0.2,0.7-0.2,1.4-0.9,1.7C183.8,164.8,178,165.3,172.4,165.3z"/>
			</g>
			<g>
				<path fill="#776537" d="M100.6,48.4c0,0-7.8,46.5-6.7,46.8c1.1,0.4,37.5-18.9,37.5-18.9l42.2-14.7l62.7,19.3l12.7-5.3l-6.7-33.2
					l-61.2-6.4l-48.1,5.3L100.6,48.4z"/>
			</g>
			<g opacity="0.3">
				<path fill="#231F20" d="M173.2,61.7c0,0,25.4,59,82,28.8c0,0-16.2-8.8-18.9-19.9"/>
			</g>
			<g opacity="0.3">
				<path fill="#231F20" d="M172.8,61.2c0,0-15.3,44.6-71,29.7c0,0,12.8-6.1,17.5-16.7"/>
			</g>
			<g>
				<path fill="#776537" d="M173.5,61.7c0,0,23.9,51.1,77.6,28.1c0,0-12.2-9-14.9-20.2"/>
			</g>
			<g>
				<path fill="#776537" d="M172.8,61.2c0,0-19.5,36.1-65.4,28.4c0,0,10-8.4,11.7-18.2"/>
			</g>
		</g>
		<g opacity="0.1">
			<path fill="#232222" d="M105.8,181.1c0,0,20.5,53.3,70.3,47.3c0,0,44.5-0.7,60.7-48.4c0,0-35.3,37.8-69.9,34.2
				C166.9,214.3,136.9,212.5,105.8,181.1z"/>
		</g>
	</g>
	<g>
		<path fill="#F4B07D" d="M20.7,472.8c-11,0-19.8-8.9-19.8-19.8c0-7.7-0.2-14.5-0.4-21c-0.6-20-1.2-40.7,3.8-86.5
			c3.1-28.2,19.2-58,47.9-88.6c20.4-21.8,39.8-36,40.7-36.6c8.9-6.4,21.3-4.5,27.7,4.4c6.4,8.9,4.5,21.3-4.4,27.7l0,0
			c-18.6,13.6-68,57.5-72.4,97.4c-4.8,43.1-4.2,61.5-3.6,80.9c0.2,6.9,0.4,14,0.4,22.2C40.5,463.9,31.6,472.8,20.7,472.8z"/>
	</g>
	<g>
		<path fill="#101423" d="M40.5,452.9H0.8c0-7.7-0.2-14.5-0.4-21c-0.6-20-1.2-40.7,3.8-86.5c3.1-28.2,19.2-58,47.9-88.6
			c20.4-21.8,39.8-36,40.7-36.6l23.3,32.1l-11.6-16.1l11.7,16c-18.6,13.6-68,57.5-72.4,97.4c-4.8,43.1-4.2,61.5-3.6,80.9
			C40.3,437.6,40.5,444.6,40.5,452.9z"/>
	</g>
	<g>
		<path fill="#F4B07D" d="M20.7,472.8c-11,0-19.8-8.9-19.8-19.8c0-7.7-0.2-14.5-0.4-21c-0.6-20-1.2-40.7,3.8-86.5
			c3.1-28.2,19.2-58,47.9-88.6c20.4-21.8,39.8-36,40.7-36.6c8.9-6.4,21.3-4.5,27.7,4.4c6.4,8.9,4.5,21.3-4.4,27.7l0,0
			c-18.6,13.6-68,57.5-72.4,97.4c-4.8,43.1-4.2,61.5-3.6,80.9c0.2,6.9,0.4,14,0.4,22.2C40.5,463.9,31.6,472.8,20.7,472.8z"/>
	</g>
	<g>
		<path fill="#F4B07D" d="M325.1,472.8c-11,0-19.8-8.9-19.8-19.8c0-8.3,0.2-15.4,0.4-22.3c0.6-19.5,1.2-37.9-3.6-80.9
			c-4.4-39.9-53.8-83.9-72.4-97.4c-8.8-6.4-10.8-18.8-4.4-27.7c6.4-8.9,18.8-10.8,27.7-4.4c0.8,0.6,20.3,14.8,40.7,36.6
			c28.6,30.6,44.7,60.4,47.9,88.6c5.1,45.8,4.5,66.5,3.8,86.5c-0.2,6.6-0.4,13.4-0.4,21C344.9,463.9,336,472.8,325.1,472.8z"/>
	</g>
	<path fill="#263451" d="M275.8,431H65.4c0,36.1,18.2,63.7,45.9,79.4v74.1h35.3V523c7.7,1.4,15.7,2.1,24,2.1c7.9,0,15.5-0.7,22.9-2
		v61.3h35.3V511C257.1,495.4,275.8,467.6,275.8,431z"/>
	<g>
		<rect x="66.2" y="431.2" fill="#161516" width="209.1" height="15.7"/>
	</g>
	<g>
		<rect x="156.8" y="431.2" fill="#D6D6D6" width="29.9" height="15.7"/>
	</g>
	<path fill="#083B47" d="M341.5,345.4c-3.1-28.2-19.2-58-47.9-88.6c-17.6-18.8-34.4-31.9-39.3-35.5c-1.2-1-2.4-2-3.6-2.9L171,234h-4
		l-73.8-15.6c-1.3,1.4-2.6,2.9-3.8,4.4c-6.6,5.1-21.6,17.3-37.2,34c-28.6,30.6-44.7,60.4-47.9,88.6c-5.1,45.8-4.5,66.5-3.8,86.5
		c0.2,6.6,0.4,13.4,0.4,21h39.7c0-8.3-0.2-15.4-0.4-22.2c-0.6-19.5-1.2-37.9,3.6-80.9C45,338.2,50,326.3,57,314.9
		c-7.8,59.2-1.5,118.6-1.5,118.6H169h6h117.5c0,0,3.4-61.2-4.2-119.3c7.2,11.6,12.5,23.8,13.8,35.6c4.8,43,4.2,61.4,3.6,80.9
		c-0.2,6.9-0.4,14-0.4,22.3h39.7c0-7.7,0.2-14.5,0.4-21C345.9,411.9,346.6,391.2,341.5,345.4z"/>
	<g>
		<path fill="#0D5B68" d="M93.6,205.3c0,0,34.2,16.1,79.3,16.7c23.8,0.3,47.3-4,77.3-17.3v15.7c0,0-36.9,22.7-77.8,22.7
			c0,0-39,2.7-79.5-25L93.6,205.3z"/>
	</g>
	<g>
		<g>
			<path fill="#F4B07D" d="M225.8,187.5c0,0-11.6,36.2-54.6,36.2c-42.4,0-60.8-45-60.8-45s22.7,11.3,60,11.3
				C170.4,189.9,189.9,183.9,225.8,187.5z"/>
		</g>
	</g>
	<g>
		<g opacity="0.1">
			<path fill="#232222" d="M204.1,190.9c0,0-5.2,19-32.9,19c-27.4,0-32.9-19-32.9-19s10,14,34.1,14
				C172.4,204.9,188.4,206.6,204.1,190.9z"/>
		</g>
	</g>
	<g>
		<path fill="#0D5B68" d="M252.1,262h-56.6c-0.9,0-1.6,0.7-1.6,1.6v45c0,0.5,0.3,1,0.7,1.3l28.3,19.4c0.3,0.2,0.6,0.3,0.9,0.3
			c0.3,0,0.6-0.1,0.9-0.3L253,309c0.4-0.3,0.7-0.8,0.7-1.3v-44.2C253.6,262.7,253,262,252.1,262z"/>
	</g>
</g>
</svg>
