<?xml version="1.0" encoding="utf-8"?>
<!-- Generator: Adobe Illustrator 16.0.0, SVG Export Plug-In . SVG Version: 6.00 Build 0)  -->
<!DOCTYPE svg PUBLIC "-//W3C//DTD SVG 1.1//EN" "http://www.w3.org/Graphics/SVG/1.1/DTD/svg11.dtd">
<svg version="1.1" id="Layer_1" xmlns="http://www.w3.org/2000/svg" xmlns:xlink="http://www.w3.org/1999/xlink" x="0px" y="0px"
	 width="447px" height="402px" viewBox="0 0 447 402" enable-background="new 0 0 447 402" xml:space="preserve">
<g>
	<rect x="21.5" y="276" fill="#725130" width="398" height="126"/>
	<path fill="#544A41" d="M447,273c0,9.4-7.6,17-17,17H17c-9.4,0-17-7.6-17-17l0,0c0-9.4,7.6-17,17-17h413
		C439.4,256,447,263.7,447,273L447,273z"/>
	<g>
		<path fill="#242527" d="M211.2,246.3c0,6.6-5.3,11.9-11.9,11.9l0,0c-6.6,0-11.9-5.3-11.9-11.9v-8c0-6.6,5.3-11.9,11.9-11.9l0,0
			c6.6,0,11.9,5.3,11.9,11.9V246.3z"/>
		<path fill="#242527" d="M297.6,246.3c0,6.6-5.3,11.9-11.9,11.9l0,0c-6.6,0-11.9-5.3-11.9-11.9v-8c0-6.6,5.3-11.9,11.9-11.9l0,0
			c6.6,0,11.9,5.3,11.9,11.9V246.3z"/>
		<path fill="#B0171C" d="M319.5,200.7c2.6-53.4-16.1-59.3-16.1-59.3c0-17.2-9.1-26.7-9.1-26.7c-20-6.6-46.2-3.1-51.4-2.3
			c-5.1-0.8-31.4-4.2-51.4,2.3c0,0-9.1,9.5-9.1,26.7c0,0-18.7,5.9-16.1,59.3c0,0-6.6,38.8,34.7,46.5c0,0,27.9,2,41,2.2v0
			c0.3,0,0.6,0,0.9,0c0.3,0,0.6,0,0.9,0v0c13.1-0.2,41-2.2,41-2.2C326.1,239.5,319.5,200.7,319.5,200.7z"/>
		<path fill="#C90E1C" d="M288.8,97.5c0,0,0.9-4.1-4.4-4.1h-8.5c0,0-2.8-0.6-2.8,7.2v9.4h-29.4h-0.5h-29.4v-9.4
			c0-7.9-2.8-7.2-2.8-7.2h-8.5c-5.3,0-4.4,4.1-4.4,4.1l-6.9,108.7c0,20.8,38.4,19.8,38.4,19.8c5.1,4,12.6,2.8,13.9,2.6
			c1.4,0.3,8.8,1.4,13.9-2.6c0,0,38.4,0.9,38.4-19.8L288.8,97.5z"/>
		<polygon fill="#C90E1C" points="209,110.8 276.3,110.8 282.2,123.2 212,129.4 		"/>
		<rect x="225.7" y="165.5" fill="#77131B" width="38.9" height="6.1"/>
		<g>
			<ellipse fill="#B0171C" cx="245.1" cy="174.9" rx="19.4" ry="15.6"/>
			<ellipse fill="#77131B" cx="245.1" cy="171" rx="19.4" ry="15.6"/>
			<ellipse fill="#FF1717" cx="245.1" cy="165.5" rx="19.4" ry="15.6"/>
			<ellipse fill="#FFFFFF" cx="245.1" cy="165.5" rx="19.4" ry="15.6"/>
		</g>
		<path fill="#B0171C" d="M340.6,97.6c-16.3-16.3-98.2-17.5-98.2-17.5s-81.9,1.1-98.2,17.5c0,0-7.5,9.8-7.4,23.9
			c-1.9,1-3.8,1.7-5.8,1.4c-0.3-4-2.4-8.1-5.6-9.5c-1.6-0.7-4.2-0.4-5.2,1.3c-1.3,2.1,0.5,4.4,1.8,6c1.6,1.9,3.8,3.5,6.1,4.4
			c-0.3,1.4-1,2.6-2.6,3.2c-1.2,0.4-2.6,0.2-4-0.3c-1.3-4.1-4.3-7-9-4.9c-0.8,0.3-0.9,1.6-0.3,2.2c1.5,1.3,4.2,3.2,7,4.6
			c0.3,1,0.5,2,0.6,2.8c0.4,3.6-1.3,6.9-3.6,9.5c-0.6,0.7-1.4,1.4-2.2,2c-2-0.7-4.3-1-6.3-1.1c-2.2-0.1-7.6,0.6-7.9,3.6
			c-0.3,3.4,4.7,3.8,7,3.4c2.7-0.4,5.2-1.4,7.4-2.8c1,0.5,1.8,1.1,2.6,1.9c2.8,2.7,1,5.6-1.5,7.6c-3.5-1.4-8.4-1.2-11.1-0.2
			c-1.7,0.6-3.8,2.2-3.1,4.2c1.1,2.8,6.4,2,8.6,1.7c2-0.3,4-1.1,5.8-2.3c2.8,2.3-0.2,6.7-2.4,9.1c-4.1-1.2-8.8-1.1-11.6,0.2
			c-1.7,0.8-5.3,2.8-3.8,5.2c1.6,2.7,6.1,2.2,8.6,1.7c2.7-0.5,5.4-2,7.6-3.9c2.9,1.3,5,3.4,4.7,6.4c-2.1,0-4.1,0.2-5.9,0.6
			c-5.6,1.3-9.2,5.8-7.5,11.5c0.2,0.7,0.9,1.1,1.7,1c5-1.1,11.4-5,13.7-10.1c0.9,0.1,1.7,0.2,2.4,0.4c1,0.2,1.9,0.6,2.8,1
			c-1.2,1.2-2.3,2.6-3.1,4.1c-2.9,5.2,0.1,13.3,6.7,9.1c4.8-3,4.4-9.8,0.8-13.5c3.4-2.2,7.9-2.3,10.9-0.1c-2.3,2.3-3.8,5.8-4.1,8.8
			c-0.4,4.4,3.5,10.6,8.2,6.7c3.3-2.7,2.6-11.4,0.2-15.2c1.4-0.4,2.8,0,4,1.1c0.9,0.8,1.7,1.9,2.3,3c-2.8,3.9-3.9,9.3,0.9,11.9
			c0.6,0.3,1.5,0.2,1.9-0.5c1.3-2.6,1.5-7,0.4-10.8c1.7-1.7,3.7-3,5.2-3.2c4.1-0.5,11,2.2,14.4,4.2c1.5,0.9,2.9-1.5,1.4-2.4
			c-5.6-3.2-14.9-6.6-20.8-2.7c-0.5,0.3-0.9,0.7-1.4,1.1c-1.4-2.7-3.6-4.7-6.7-4.7c-1.3,0-2.5,0.3-3.6,0.9c-4.7-3.9-10.7-3-15.4,0.2
			c-2-1.2-4.3-2-6.7-2.3c0.1-0.8,0.1-1.5,0-2.3c-0.4-2.9-2.5-5.1-5.3-6.4c1.8-2.1,3-4.6,3.3-7.2c0.3-2.1-0.4-3.7-1.6-4.8
			c3.2-3.3,4.3-7.9,0.2-11.8c-0.4-0.4-0.9-0.7-1.3-1c1.6-1.4,2.9-3,4-4.8c1.4-2.2,1.9-6.1,1.4-9.6c3,0.8,5.9,0.5,7.6-2.3
			c0.5-0.8,0.8-1.7,1-2.7c0.1,0,0.2,0,0.3,0.1c2,0.3,4-0.3,5.8-1.3c0.2,2.8,0.8,5.7,1.8,8.8l4.1,8.3c0,0,0,6.9,21.6-0.5l25.3-9.2
			c0,0,7.3,0.5,1.8-14.7c0,0-8.3-11.9,8.3-14.7c0,0,28-1.4,42.7-1.4c14.7,0,42.7,1.4,42.7,1.4c16.5,2.8,8.3,14.7,8.3,14.7
			c-5.5,15.2,1.8,14.7,1.8,14.7l25.3,9.2c21.6,7.4,21.6,0.5,21.6,0.5l4.1-8.3C352.6,113.2,340.6,97.6,340.6,97.6z M153,190.4
			c0.3,1.8,0.3,3.6-0.2,5.2C151.6,194.2,151.9,192.3,153,190.4z M144.4,193.7c-0.4,3.2-3.6,3.6-4.5,0.4c-0.8-3.1,1.1-6.9,3.2-9.2
			c0.4,0.7,0.8,1.5,1,2.5C144.6,189.4,144.7,191.6,144.4,193.7z M127.4,194.4c-2.1,1.3-3-1-3.1-2.6c0-2.8,1.9-5.2,3.8-7.1
			c1,0.9,1.7,2,2.1,3.4C130.8,190.4,129.4,193.1,127.4,194.4z M107.7,188.8c-0.7-5.4,4.9-7.2,10.1-7.3
			C115.8,185,111.3,187.7,107.7,188.8z M106.6,173.3c-1.2,0.4-8.3,1.1-4.7-1.2c2-1.2,5.5-1.5,8.7-0.9
			C109.4,172.1,108.1,172.8,106.6,173.3z M107.4,159.9c-1,0.1-4.6,0.1-1.4-1.1c2-0.8,4.4-0.7,6.5-0.2c-0.3,0.2-0.7,0.3-1,0.4
			C110.2,159.6,108.8,159.8,107.4,159.9z M107.5,147.1c-0.2,0-6.5,0.2-2.8-1c1.4-0.4,2.8-0.4,4.2-0.4c0.6,0,1.3,0.1,1.9,0.2
			C109.7,146.4,108.6,146.8,107.5,147.1z M123.9,118.8c-2.9-3,0.9-3.2,2.6-0.7c0.6,1,1.2,2.4,1.5,3.9c-0.1-0.1-0.3-0.1-0.4-0.2
			C126.2,121,125,119.9,123.9,118.8z"/>
	</g>
	<g>
		<path fill="#FFFFFF" d="M340.5,24.8c45.6,3.3,79.9,42.9,76.7,88.5l24.8,1.7C446.2,55.7,401.4,4.1,342,0l-1.7,24.8
			C340.3,24.8,340.4,24.8,340.5,24.8z"/>
		<path fill="#FFFFFF" d="M366.6,109.8l25.8,1.8c2.2-32-21.9-59.8-54-62.1l-1.8,25.8C354.5,76.6,367.9,92.1,366.6,109.8z"/>
	</g>
</g>
</svg>
