<?xml version="1.0" encoding="utf-8"?>
<!-- Generator: Adobe Illustrator 16.0.0, SVG Export Plug-In . SVG Version: 6.00 Build 0)  -->
<!DOCTYPE svg PUBLIC "-//W3C//DTD SVG 1.1//EN" "http://www.w3.org/Graphics/SVG/1.1/DTD/svg11.dtd">
<svg version="1.1" id="Layer_1" xmlns="http://www.w3.org/2000/svg" xmlns:xlink="http://www.w3.org/1999/xlink" x="0px" y="0px"
	 width="1440px" height="700px" viewBox="0 0 1440 700" enable-background="new 0 0 1440 700" xml:space="preserve">
<rect fill="#BEE8ED" width="1440" height="700"/>
<path fill="#493B32" d="M1371.2,211.3c-7.5-18-90-45-90-45c-19.5-1.5-66-63-66-63c-6-12-115.5-12-115.5-12
	c-19.5,3-65.4,19.8-85.5,12c-21.8-8.5-81,52.5-81,52.5c-6-19.5-76.2-38.1-100.5-28.5c-16.8,6.6-85.5,16.5-85.5,16.5
	c-16.5-12-80.3,31.4-80.3,31.4c-14.3-3.1-96.7,64.6-96.7,64.6c-21,12-94.7,3.9-112.5-9c-21.6-15.7-82.5-25.5-82.5-25.5
	c-28.5-12-93-57-93-57c-16.5-19.5-73.5,9-73.5,9c-13.5-7.5-64.5,27-64.5,27c-12,9-60,31.5-60,31.5c-30.9-3.2-66.3,19.3-84.2,32.6
	v57.5l84.2,49.3l1304.9-24l50.8-62v-26.6C1425.9,206,1371.2,211.3,1371.2,211.3z"/>
<rect y="225.4" fill="#747575" width="1440" height="166.5"/>
<path fill="#B7B7B7" d="M1438.3,359.4c0.3-2.5,0.4-5.1,0.4-7.7c0.1-25.3-13.5-46.4-31.8-52.2c8.3-3.8,14.1-12.1,14.1-21.8
	c0-13.2-10.7-24-24-24c-13.2,0-24,10.7-24,24c0,9.7,5.7,18,14.1,21.8c-12.2,3.8-22.3,14.5-27.7,28.8c-5.4-14.2-15.4-24.9-27.6-28.8
	c8.3-3.8,14.1-12.1,14.1-21.8c-0.1-13.2-10.8-24-24-24s-24,10.7-24,24c0,9.7,5.7,18,14.1,21.8c-12.3,3.8-22.4,14.6-27.7,28.9
	c-5.3-14.3-15.5-25.1-27.7-28.9c8.3-3.8,14.1-12.1,14.1-21.8c-0.1-13.2-10.8-24-24-24s-24,10.7-24,24c0,9.7,5.7,18,14.1,21.8
	c-12.2,3.8-22.4,14.6-27.7,28.9c-5.3-14.3-15.5-25-27.7-28.8c8.3-3.8,14.1-12.1,14.1-21.8c-0.1-13.2-10.8-24-24-24s-24,10.7-24,24
	c0,9.7,5.7,18,14.1,21.8c-12.2,3.8-22.4,14.6-27.7,28.8c-5.3-14.3-15.4-25-27.7-28.8c8.3-3.8,14.1-12.1,14.1-21.8
	c0-13.2-10.8-24-24-24c-13.2,0-24,10.7-24,24c0,9.7,5.7,18,14,21.8c-12.2,3.8-22.4,14.6-27.7,28.8c-5.3-14.3-15.4-25-27.7-28.8
	c8.3-3.8,14.1-12.1,14.1-21.8c0-13.2-10.8-24-24-24c-13.2,0-24,10.7-24,24c0,9.7,5.7,18,14.1,21.8c-12.2,3.8-22.4,14.6-27.7,28.8
	c-5.3-14.3-15.4-25-27.7-28.8c8.3-3.8,14.1-12.1,14.1-21.8c0-13.2-10.8-24-24-24s-24,10.7-24,24c0,9.7,5.7,18,14.1,21.8
	c-12.2,3.8-22.4,14.6-27.7,28.8c-5.3-14.3-15.4-25-27.7-28.8c8.3-3.8,14.1-12.1,14.1-21.8c0-13.2-10.8-24-24-24s-24,10.7-24,24
	c0,9.7,5.7,18,14.1,21.8c-12.2,3.8-22.4,14.6-27.7,28.8c-5.3-14.3-15.4-25-27.7-28.8c8.3-3.8,14.1-12.1,14.1-21.8
	c0-13.2-10.8-24-24-24s-24,10.7-24,24c0,9.7,5.7,18,14.1,21.8c-12.2,3.8-22.4,14.6-27.7,28.8c-5.3-14.3-15.4-25-27.7-28.8
	c8.3-3.8,14.1-12.1,14.1-21.8c0-13.2-10.7-24-24-24c-13.2,0-24,10.7-24,24c0,9.7,5.7,18,14,21.8c-12.2,3.8-22.4,14.6-27.7,28.8
	c-5.3-14.3-15.4-25-27.7-28.8c8.3-3.8,14.1-12.1,14.1-21.8c0-13.2-10.7-24-24-24c-13.2,0-24,10.7-24,24c0,9.7,5.7,18,14.1,21.8
	c-12.2,3.8-22.4,14.6-27.7,28.8c-5.3-14.3-15.4-25-27.7-28.8c8.3-3.8,14.1-12.1,14.1-21.8c0-13.2-10.7-24-24-24
	c-13.2,0-24,10.7-24,24c0,9.7,5.7,18,14.1,21.8c-12.2,3.8-22.4,14.6-27.7,28.8c-5.3-14.3-15.4-25-27.7-28.8
	c8.3-3.8,14.1-12.1,14.1-21.8c0-13.2-10.7-24-24-24c-13.2,0-24,10.7-24,24c0,9.7,5.7,18,14.1,21.8c-12.2,3.8-22.3,14.5-27.7,28.8
	c-5.4-14.2-15.4-24.9-27.6-28.8c8.3-3.8,14.1-12.1,14.1-21.8c-0.1-13.2-10.8-24-24-24s-24,10.7-24,24c0,9.7,5.7,18,14.1,21.8
	c-12.3,3.8-22.4,14.6-27.7,28.9c-5.3-14.3-15.5-25.1-27.7-28.9c8.3-3.8,14.1-12.1,14.1-21.8c-0.1-13.2-10.8-24-24-24s-24,10.7-24,24
	c0,9.7,5.7,18,14.1,21.8c-12.3,3.8-22.4,14.6-27.7,28.9c-5.3-14.3-15.5-25.1-27.7-28.9c8.3-3.8,14.1-12.1,14.1-21.8
	c-0.1-13.2-10.8-24-24-24c-13.2,0-24,10.7-24,24c0,9.7,5.7,18,14.1,21.8c-12.2,3.8-22.4,14.6-27.7,28.8c-5.3-14.3-15.4-25-27.7-28.8
	c8.3-3.8,14.1-12.1,14.1-21.8c-0.1-13.2-10.8-24-24-24c-13.2,0-24,10.7-24,24c0,9.7,5.7,18,14.1,21.8c-12.2,3.8-22.4,14.6-27.7,28.8
	c-5.3-14.3-15.4-25-27.7-28.8c8.3-3.8,14.1-12.1,14.1-21.8c0-13.2-10.8-24-24-24c-13.3,0-24,10.7-24,24c0,9.7,5.7,18,14.1,21.8
	c-12.3,3.8-22.4,14.6-27.8,28.9c-5.3-14.3-15.5-25-27.7-28.9c8.3-3.8,14.1-12.1,14.1-21.9c0-13.2-10.8-24-24-24
	c-13.3,0-24,10.7-24,24c0,9.7,5.7,18,14,21.8C13.6,305.2,0,326.4,0,351.7c0,4.3,0.4,8.4,1.1,12.4h0.3L0,377.9v48.8h1440v-67.3
	L1438.3,359.4z"/>
<path fill="#D1D1D1" d="M1438.3,434.5c0.3-2.5,0.4-5.1,0.4-7.7c0.1-25.3-13.5-46.4-31.8-52.2c8.3-3.8,14.1-12.1,14.1-21.8
	c0-13.3-10.7-24-24-24c-13.2,0-24,10.7-24,24c0,9.7,5.7,18,14.1,21.8c-12.2,3.8-22.3,14.5-27.7,28.8c-5.4-14.2-15.4-24.9-27.6-28.8
	c8.3-3.8,14.1-12.1,14.1-21.8c-0.1-13.3-10.8-24-24-24s-24,10.7-24,24c0,9.7,5.7,18,14.1,21.8c-12.3,3.8-22.4,14.6-27.7,28.9
	c-5.3-14.3-15.5-25.1-27.7-28.9c8.3-3.8,14.1-12.1,14.1-21.8c-0.1-13.3-10.8-24-24-24s-24,10.7-24,24c0,9.7,5.7,18,14.1,21.8
	c-12.2,3.8-22.4,14.6-27.7,28.9c-5.3-14.3-15.5-25-27.7-28.8c8.3-3.8,14.1-12.1,14.1-21.8c-0.1-13.3-10.8-24-24-24s-24,10.7-24,24
	c0,9.7,5.7,18,14,21.8c-12.2,3.8-22.4,14.6-27.7,28.8c-5.3-14.3-15.4-25-27.7-28.8c8.3-3.8,14.1-12.1,14.1-21.8
	c0-13.3-10.8-24-24-24c-13.2,0-24,10.7-24,24c0,9.7,5.7,18,14,21.8c-12.2,3.8-22.4,14.6-27.7,28.8c-5.3-14.3-15.4-25-27.7-28.8
	c8.3-3.8,14.1-12.1,14.1-21.8c0-13.3-10.8-24-24-24c-13.2,0-24,10.7-24,24c0,9.7,5.7,18,14.1,21.8c-12.2,3.8-22.4,14.6-27.7,28.8
	c-5.3-14.3-15.4-25-27.7-28.8c8.3-3.8,14.1-12.1,14.1-21.8c0-13.3-10.8-24-24-24s-24,10.7-24,24c0,9.7,5.7,18,14.1,21.8
	c-12.2,3.8-22.4,14.6-27.7,28.8c-5.3-14.3-15.4-25-27.7-28.8c8.3-3.8,14.1-12.1,14.1-21.8c0-13.3-10.8-24-24-24s-24,10.7-24,24
	c0,9.7,5.7,18,14.1,21.8c-12.2,3.8-22.4,14.6-27.7,28.8c-5.3-14.3-15.4-25-27.7-28.8c8.3-3.8,14.1-12.1,14.1-21.8
	c0-13.3-10.8-24-24-24s-24,10.7-24,24c0,9.7,5.7,18,14,21.8c-12.2,3.8-22.4,14.6-27.7,28.8c-5.3-14.3-15.4-25-27.7-28.8
	c8.3-3.8,14.1-12.1,14.1-21.8c0-13.3-10.7-24-24-24c-13.2,0-24,10.7-24,24c0,9.7,5.7,18,14,21.8c-12.2,3.8-22.4,14.6-27.7,28.8
	c-5.3-14.3-15.4-25-27.7-28.8c8.3-3.8,14.1-12.1,14.1-21.8c0-13.3-10.7-24-24-24c-13.2,0-24,10.7-24,24c0,9.7,5.7,18,14.1,21.8
	c-12.2,3.8-22.4,14.6-27.7,28.8c-5.3-14.3-15.4-25-27.7-28.8c8.3-3.8,14.1-12.1,14.1-21.8c0-13.3-10.7-24-24-24
	c-13.2,0-24,10.7-24,24c0,9.7,5.7,18,14.1,21.8c-12.2,3.8-22.4,14.6-27.7,28.8c-5.3-14.3-15.4-25-27.7-28.8
	c8.3-3.8,14.1-12.1,14.1-21.8c0-13.3-10.7-24-24-24c-13.2,0-24,10.7-24,24c0,9.7,5.7,18,14.1,21.8c-12.2,3.8-22.3,14.5-27.7,28.8
	c-5.4-14.2-15.4-24.9-27.6-28.8c8.3-3.8,14.1-12.1,14.1-21.8c-0.1-13.3-10.8-24-24-24s-24,10.7-24,24c0,9.7,5.7,18,14.1,21.8
	c-12.3,3.8-22.4,14.6-27.7,28.9c-5.3-14.3-15.5-25.1-27.7-28.9c8.3-3.8,14.1-12.1,14.1-21.8c-0.1-13.3-10.8-24-24-24s-24,10.7-24,24
	c0,9.7,5.7,18,14.1,21.8c-12.3,3.8-22.4,14.6-27.7,28.9c-5.3-14.3-15.5-25.1-27.7-28.9c8.3-3.8,14.1-12.1,14.1-21.8
	c-0.1-13.3-10.8-24-24-24c-13.2,0-24,10.7-24,24c0,9.7,5.7,18,14.1,21.8c-12.2,3.8-22.4,14.6-27.7,28.8c-5.3-14.3-15.4-25-27.7-28.8
	c8.3-3.8,14.1-12.1,14.1-21.8c-0.1-13.3-10.8-24-24-24c-13.2,0-24,10.7-24,24c0,9.7,5.7,18,14.1,21.8c-12.2,3.8-22.4,14.6-27.7,28.8
	c-5.3-14.3-15.4-25-27.7-28.8c8.3-3.8,14.1-12.1,14.1-21.8c0-13.3-10.8-24-24-24c-13.3,0-24,10.7-24,24c0,9.7,5.7,18,14.1,21.8
	c-12.3,3.8-22.4,14.6-27.8,28.9c-5.3-14.3-15.5-25-27.7-28.9c8.3-3.8,14.1-12.1,14.1-21.9c0-13.3-10.8-24-24-24
	c-13.3,0-24,10.7-24,24c0,9.7,5.7,18,14,21.8c-18.3,5.7-31.9,26.9-31.9,52.2c0,4.3,0.4,8.4,1.1,12.4h0.4L0,452.9v48.8h1440v-67.2
	L1438.3,434.5z"/>
<path fill="#E6E8E8" d="M1438.3,522.5c0.3-2.5,0.4-5.1,0.4-7.7c0.1-25.3-13.5-46.4-31.8-52.2c8.3-3.8,14.1-12.1,14.1-21.8
	c0-13.3-10.7-24-24-24c-13.2,0-24,10.7-24,24c0,9.7,5.7,18,14.1,21.8c-12.2,3.8-22.3,14.5-27.7,28.8c-5.4-14.2-15.4-24.9-27.6-28.8
	c8.3-3.8,14.1-12.1,14.1-21.8c-0.1-13.3-10.8-24-24-24s-24,10.7-24,24c0,9.7,5.7,18,14.1,21.8c-12.3,3.8-22.4,14.6-27.7,28.9
	c-5.3-14.3-15.5-25.1-27.7-28.9c8.3-3.8,14.1-12.1,14.1-21.8c-0.1-13.3-10.8-24-24-24s-24,10.7-24,24c0,9.7,5.7,18,14.1,21.8
	c-12.2,3.8-22.4,14.6-27.7,28.9c-5.3-14.3-15.5-25-27.7-28.8c8.3-3.8,14.1-12.1,14.1-21.8c-0.1-13.3-10.8-24-24-24s-24,10.7-24,24
	c0,9.7,5.7,18,14,21.8c-12.2,3.8-22.4,14.6-27.7,28.8c-5.3-14.3-15.4-25-27.7-28.8c8.3-3.8,14.1-12.1,14.1-21.8
	c0-13.3-10.8-24-24-24c-13.2,0-24,10.7-24,24c0,9.7,5.7,18,14,21.8c-12.2,3.8-22.4,14.6-27.7,28.8c-5.3-14.3-15.4-25-27.7-28.8
	c8.3-3.8,14.1-12.1,14.1-21.8c0-13.3-10.8-24-24-24c-13.2,0-24,10.7-24,24c0,9.7,5.7,18,14.1,21.8c-12.2,3.8-22.4,14.6-27.7,28.8
	c-5.3-14.3-15.4-25-27.7-28.8c8.3-3.8,14.1-12.1,14.1-21.8c0-13.3-10.8-24-24-24s-24,10.7-24,24c0,9.7,5.7,18,14.1,21.8
	c-12.2,3.8-22.4,14.6-27.7,28.8c-5.3-14.3-15.4-25-27.7-28.8c8.3-3.8,14.1-12.1,14.1-21.8c0-13.3-10.8-24-24-24s-24,10.7-24,24
	c0,9.7,5.7,18,14.1,21.8c-12.2,3.8-22.4,14.6-27.7,28.8c-5.3-14.3-15.4-25-27.7-28.8c8.3-3.8,14.1-12.1,14.1-21.8
	c0-13.3-10.8-24-24-24s-24,10.7-24,24c0,9.7,5.7,18,14,21.8c-12.2,3.8-22.4,14.6-27.7,28.8c-5.3-14.3-15.4-25-27.7-28.8
	c8.3-3.8,14.1-12.1,14.1-21.8c0-13.3-10.7-24-24-24c-13.2,0-24,10.7-24,24c0,9.7,5.7,18,14,21.8c-12.2,3.8-22.4,14.6-27.7,28.8
	c-5.3-14.3-15.4-25-27.7-28.8c8.3-3.8,14.1-12.1,14.1-21.8c0-13.3-10.7-24-24-24c-13.2,0-24,10.7-24,24c0,9.7,5.7,18,14.1,21.8
	c-12.2,3.8-22.4,14.6-27.7,28.8c-5.3-14.3-15.4-25-27.7-28.8c8.3-3.8,14.1-12.1,14.1-21.8c0-13.3-10.7-24-24-24
	c-13.2,0-24,10.7-24,24c0,9.7,5.7,18,14.1,21.8c-12.2,3.8-22.4,14.6-27.7,28.8c-5.3-14.3-15.4-25-27.7-28.8
	c8.3-3.8,14.1-12.1,14.1-21.8c0-13.3-10.7-24-24-24c-13.2,0-24,10.7-24,24c0,9.7,5.7,18,14.1,21.8c-12.2,3.8-22.3,14.5-27.7,28.8
	c-5.4-14.2-15.4-24.9-27.6-28.8c8.3-3.8,14.1-12.1,14.1-21.8c-0.1-13.3-10.8-24-24-24s-24,10.7-24,24c0,9.7,5.7,18,14.1,21.8
	c-12.3,3.8-22.4,14.6-27.7,28.9c-5.3-14.3-15.5-25.1-27.7-28.9c8.3-3.8,14.1-12.1,14.1-21.8c-0.1-13.3-10.8-24-24-24s-24,10.7-24,24
	c0,9.7,5.7,18,14.1,21.8c-12.3,3.8-22.4,14.6-27.7,28.9c-5.3-14.3-15.5-25.1-27.7-28.9c8.3-3.8,14.1-12.1,14.1-21.8
	c-0.1-13.3-10.8-24-24-24c-13.2,0-24,10.7-24,24c0,9.7,5.7,18,14.1,21.8c-12.2,3.8-22.4,14.6-27.7,28.8c-5.3-14.3-15.4-25-27.7-28.8
	c8.3-3.8,14.1-12.1,14.1-21.8c-0.1-13.3-10.8-24-24-24c-13.2,0-24,10.7-24,24c0,9.7,5.7,18,14.1,21.8c-12.2,3.8-22.4,14.6-27.7,28.8
	c-5.3-14.3-15.4-25-27.7-28.8c8.3-3.8,14.1-12.1,14.1-21.8c0-13.3-10.8-24-24-24c-13.3,0-24,10.7-24,24c0,9.7,5.7,18,14.1,21.8
	c-12.3,3.8-22.4,14.6-27.8,28.9c-5.3-14.3-15.5-25-27.7-28.9c8.3-3.8,14.1-12.1,14.1-21.9c0-13.3-10.8-24-24-24
	c-13.3,0-24,10.7-24,24c0,9.7,5.7,18,14,21.8c-18.3,5.7-31.9,26.9-31.9,52.2c0,4.3,0.4,8.4,1.1,12.4h0.4L0,540.9v48.8h1440v-67.2
	L1438.3,522.5z"/>
<rect y="609.7" fill="#609161" width="1440" height="90.3"/>
<rect y="521.7" fill="#404240" width="1440" height="88"/>
<polygon fill="#99623D" points="276.1,597.1 273.2,596.5 273.2,619 267.6,624.6 271.7,624.6 272.9,627 275.5,625.4 278.8,626.7 
	276.1,620.2 "/>
<polygon fill="#99623D" points="297,596.5 294.1,597.1 294.1,620.2 291.5,626.7 294.7,625.4 297.3,627 298.5,624.6 302.6,624.6 
	297,619 "/>
<path fill="#60381A" d="M309.6,575.6c4.2-2.3,7-6.8,7-11.9c0-7.5-6.1-13.6-13.6-13.6c-7.5,0-13.6,6.1-13.6,13.6
	c0,1.3,0.2,2.6,0.6,3.8c-1-0.1-2-0.1-3.1-0.1c-15.5,0-28.1,8.9-28.1,19.8c0,10.9,12.6,19.8,28.1,19.8s28.1-8.9,28.1-19.8
	C315,582.9,313,578.8,309.6,575.6z"/>
<path fill="#99623D" d="M315.2,559.9c-4.2,2.8-0.7,5.6-0.7,5.6c11.9-2.8,21,7,21,7C330.6,564.1,315.2,559.9,315.2,559.9z"/>
<circle fill="#FFFFFF" cx="303.7" cy="559.2" r="1.4"/>
</svg>
