<?xml version="1.0" encoding="utf-8"?>
<!-- Generator: Adobe Illustrator 16.0.0, SVG Export Plug-In . SVG Version: 6.00 Build 0)  -->
<!DOCTYPE svg PUBLIC "-//W3C//DTD SVG 1.1//EN" "http://www.w3.org/Graphics/SVG/1.1/DTD/svg11.dtd">
<svg version="1.1" id="Layer_1" xmlns="http://www.w3.org/2000/svg" xmlns:xlink="http://www.w3.org/1999/xlink" x="0px" y="0px"
	 width="281.9px" height="142.9px" viewBox="0 0 281.9 142.9" enable-background="new 0 0 281.9 142.9" xml:space="preserve">
<path fill="#FFFFFF" d="M281.7,90.3c-1.9-9.7-12.3-16.8-27.6-20.4c1.6-4.7,2.1-9.5,1.2-14.2c-1.3-6.7-5.1-12.5-10.8-17.1
	c1.9-4.4,2.5-8.9,1.7-13.4C242.3,5.9,211.8-4.6,178,1.9c-13.1,2.5-24.8,7.2-34,13.1c-16.5-2-36-1.3-56.4,2.6
	C34.8,27.7-4.3,55.6,0.4,79.8c2.5,13.1,17.4,22.5,38.9,26.7c-1.8,4.1-2.4,8.3-1.7,12.4c3.6,18.9,35.8,28.7,71.9,21.7
	c11.7-2.2,22.3-5.9,31.2-10.6c13.2,10.8,41.8,14.7,73.4,8.7C255,130.9,285.3,109.2,281.7,90.3z"/>
</svg>
