<?xml version="1.0" encoding="utf-8"?>
<!-- Generator: Adobe Illustrator 16.0.0, SVG Export Plug-In . SVG Version: 6.00 Build 0)  -->
<!DOCTYPE svg PUBLIC "-//W3C//DTD SVG 1.1//EN" "http://www.w3.org/Graphics/SVG/1.1/DTD/svg11.dtd">
<svg version="1.1" id="Layer_1" xmlns="http://www.w3.org/2000/svg" xmlns:xlink="http://www.w3.org/1999/xlink" x="0px" y="0px"
	 width="259.8px" height="523.8px" viewBox="0 0 259.8 523.8" enable-background="new 0 0 259.8 523.8" xml:space="preserve">
<g>
	<path fill="#776537" d="M75.9,109.4c0,0-4.9,1.8-4.9,10.2c0,2.8,1.5,10.2-3.8,10.5c0,0,6.4,0.8,8.3-3.4c0,0-0.4,7.5-3.4,9.4
		c0,0,17.7,7.5,20.7-9.4l-1.5-24.9C91.4,101.8,80.4,97.3,75.9,109.4z"/>
	<path fill="#776537" d="M182.5,109.4c0,0,4.9,1.8,4.9,10.2c0,2.8-1.5,10.2,3.8,10.5c0,0-6.4,0.8-8.3-3.4c0,0,0.4,7.5,3.4,9.4
		c0,0-17.7,7.5-20.7-9.4l1.5-24.9C167.1,101.8,178,97.3,182.5,109.4z"/>
	<g>
		<polygon fill="#154C41" points="69.8,155 81.8,153.5 83.7,167.1 		"/>
		<polygon fill="#154C41" points="187.1,154.3 175.1,152.8 173.2,166.4 		"/>
		<path fill="#F4B07D" d="M200.6,232.6H58.5c0,0,23.3-85.9,23.3-127.1c0-23.8,95.2-23.8,95.2,0C176.9,165,200.6,232.6,200.6,232.6z"
			/>
		<g>
			<path fill="#776537" d="M183.2,24.8c-16.2-12.4-28.9-13.2-37.7-10.5C132.5,15.1,134.3,0,134.3,0c-6.1,2.1-9,16.5-9,16.5
				c0-6.9-7.2-13.8-7.2-13.8c1.8,7.6-2.1,10.5-3.6,11.4c-8.8-2.3-21.2-1.3-36.9,10.8c-13.8,10.6-20,54.8,3.3,78.1l49.5-55.3
				l49.5,55.3C203.2,79.6,197.1,35.5,183.2,24.8z"/>
			<path fill="#F4B07D" d="M174.1,53.9c0,0-16-20.5-46.4-20c-30.3-0.4-43.1,20-43.1,20c-10.6,17.4-7.5,71.2-7.5,71.2
				c0,26.6,36.9,47.8,52.4,47.8c15.5,0,52.6-19.8,52.6-47.8C182.1,125.1,184.7,71.3,174.1,53.9z"/>
			<g>
				<path opacity="0.1" fill="#232222" d="M153.4,143.5c0,0-3.9,14.3-24.7,14.3c-20.6,0-24.7-14.3-24.7-14.3s7.5,10.5,25.6,10.5
					C129.6,154,141.6,155.3,153.4,143.5z"/>
			</g>
			<path fill="#F4B07D" d="M81.5,93c0,0-10-16.3-13.5-1.2c-1.1,4.7-1.2,29.9,13.1,13.9"/>
			
				<path fill="none" stroke="#C18963" stroke-width="1.5936" stroke-linecap="round" stroke-linejoin="round" stroke-miterlimit="10" d="
				M75.1,93.4c0,0-5.2,4,0,10"/>
			<path fill="#F4B07D" d="M176.1,93c0,0,10-16.3,13.5-1.2c1.1,4.7,1.2,29.9-13.1,13.9"/>
			
				<path fill="none" stroke="#C18963" stroke-width="1.5936" stroke-linecap="round" stroke-linejoin="round" stroke-miterlimit="10" d="
				M182.4,93.4c0,0,5.2,4,0,10"/>
			<g display="none">
				<g display="inline" opacity="0.2">
					<path fill="#231F20" d="M142.5,98.2c0.2,0.1,0.3,0.3,0.5,0.5c0.1,0.2,0.3,0.3,0.4,0.5c0.3,0.4,0.5,0.7,0.7,1.1
						c0.1,0.2,0.2,0.4,0.3,0.6c0.1,0.2,0.2,0.4,0.2,0.7c0.1,0.2,0.1,0.5,0.1,0.7c0,0.2,0,0.5,0,0.8c0,0.3-0.1,0.5-0.2,0.7
						c-0.1,0.2-0.2,0.5-0.3,0.7c-0.2,0.2-0.3,0.4-0.5,0.6l-0.5,0.5c-0.2,0.2-0.4,0.3-0.6,0.4l-0.6,0.4l-1.2,0.5l0,0l-0.1,0
						c-0.5,0.1-1,0.2-1.5,0.4c-0.5,0.2-1,0.4-1.5,0.6c-0.5,0.2-0.9,0.5-1.2,0.8c-0.4,0.3-0.6,0.6-0.9,1.2c-0.3,0.5-0.7,1.1-1.3,1.5
						c-0.3,0.3-0.6,0.4-0.9,0.6c-0.3,0.2-0.6,0.3-0.9,0.4c-0.6,0.2-1.3,0.3-1.9,0.4c-0.6,0-1.2,0.1-1.9,0.1c-0.6,0-1.1,0-1.8-0.1
						c-0.6-0.1-1.3-0.2-1.9-0.4l-0.5-0.1c-0.2-0.1-0.3-0.2-0.5-0.2c-0.3-0.1-0.6-0.3-0.9-0.6c-0.6-0.4-1-1-1.4-1.5l-0.2-0.4
						l-0.1-0.1l0,0c0.1,0.1,0,0,0,0l-0.1-0.2c-0.2-0.3-0.3-0.3-0.5-0.5c-0.3-0.3-0.8-0.6-1.2-0.8c-0.5-0.2-1-0.5-1.5-0.6
						c-0.5-0.2-1.1-0.3-1.5-0.4l-0.1,0l0,0l-1.2-0.5l-0.6-0.4c-0.2-0.1-0.4-0.2-0.6-0.4l-0.5-0.5c-0.2-0.2-0.3-0.4-0.5-0.6
						c-0.2-0.2-0.2-0.5-0.3-0.7c-0.1-0.2-0.2-0.5-0.2-0.7c-0.1-0.3,0-0.5,0-0.8c0-0.3,0-0.5,0.1-0.7c0-0.2,0.1-0.5,0.2-0.7
						c0.1-0.2,0.2-0.4,0.3-0.6c0.2-0.4,0.4-0.8,0.7-1.1c0.3-0.4,0.5-0.7,0.9-1c0.3-0.2,0.7-0.2,0.9,0c0.2,0.2,0.2,0.6,0,0.9l0,0
						c-0.2,0.2-0.5,0.6-0.7,0.9c-0.2,0.3-0.4,0.6-0.5,1c-0.1,0.2-0.1,0.3-0.2,0.5c-0.1,0.2-0.1,0.3-0.1,0.5c0,0.2-0.1,0.3,0,0.5
						c0,0.2,0,0.3,0,0.5c0,0.1,0,0.3,0.1,0.4c0.1,0.1,0.1,0.3,0.2,0.4c0.1,0.1,0.2,0.2,0.3,0.4l0.4,0.3c0.1,0.1,0.3,0.2,0.4,0.3
						l0.5,0.3l1,0.4l-0.1,0c0.7,0.1,1.2,0.2,1.8,0.4c0.6,0.2,1.2,0.4,1.8,0.7c0.6,0.3,1.1,0.6,1.6,1.1c0.2,0.2,0.6,0.6,0.7,0.8
						l0.1,0.2l0.1,0.1l0.1,0.1l0.2,0.4c0.3,0.4,0.6,0.8,1,1.1c0.1,0.1,0.2,0.1,0.3,0.2l0.3,0.2l0.3,0.2l0.4,0.1
						c0.5,0.2,1,0.2,1.5,0.3c0.5,0.1,1.1,0.1,1.7,0.1l1.6-0.1c0.5-0.1,1.1-0.1,1.5-0.3c0.2-0.1,0.5-0.1,0.7-0.3
						c0.2-0.1,0.4-0.2,0.6-0.3c0.4-0.2,0.6-0.6,0.9-1.1c0.3-0.4,0.7-1.1,1.2-1.6c0.5-0.5,1.1-0.8,1.6-1.1c0.6-0.3,1.2-0.5,1.8-0.7
						c0.6-0.2,1.2-0.3,1.8-0.4l-0.1,0l1-0.4l0.5-0.3c0.1-0.1,0.3-0.2,0.4-0.3l0.4-0.3c0.1-0.1,0.2-0.2,0.3-0.4
						c0.1-0.1,0.1-0.3,0.2-0.4c0.1-0.1,0.1-0.3,0.1-0.4c0-0.1,0-0.3,0-0.5c0-0.2,0-0.3,0-0.5c0-0.2-0.1-0.3-0.1-0.5
						c0-0.2-0.1-0.3-0.2-0.5c-0.3-0.7-0.7-1.3-1.2-1.8l0,0c-0.2-0.3-0.2-0.7,0.1-0.9C141.8,98,142.2,98,142.5,98.2z"/>
				</g>
				<path display="inline" fill="#2E230E" d="M106.1,83.9c0,1.6-1.3,2.9-2.9,2.9c-1.6,0-2.9-1.3-2.9-2.9c0-1.6,1.3-2.9,2.9-2.9
					C104.8,81,106.1,82.3,106.1,83.9z"/>
				<path display="inline" fill="#593B2E" d="M88.1,82.8c0,0,9.9-9.5,23.9-5.8c0,0,4-2.4,0.5-3.8C112.5,73.2,95.9,70.3,88.1,82.8z"
					/>
				<path display="inline" fill="#2E230E" d="M151,83.9c0,1.6,1.3,2.9,2.9,2.9c1.6,0,2.9-1.3,2.9-2.9c0-1.6-1.3-2.9-2.9-2.9
					C152.3,81,151,82.3,151,83.9z"/>
				<path display="inline" fill="#593B2E" d="M169.4,81.6c0,0-10.7-8.5-24.3-3.5c0,0-4.2-2-0.9-3.8
					C144.2,74.3,160.5,69.9,169.4,81.6z"/>
				
					<path display="inline" fill="none" stroke="#C18963" stroke-width="1.9905" stroke-linecap="round" stroke-linejoin="round" stroke-miterlimit="10" d="
					M113.4,120.5c0,0,16.9,9.2,31.4-1.6"/>
			</g>
			<g>
				<g opacity="0.2">
					<path fill="#231F20" d="M142.7,99.5c0.2,0.1,0.3,0.3,0.5,0.5c0.1,0.2,0.3,0.3,0.4,0.5c0.3,0.4,0.5,0.7,0.7,1.1
						c0.1,0.2,0.2,0.4,0.3,0.6c0.1,0.2,0.2,0.4,0.2,0.7c0.1,0.2,0.1,0.5,0.1,0.7c0,0.3,0,0.5,0,0.8c0,0.3-0.1,0.5-0.2,0.8
						c-0.1,0.2-0.2,0.5-0.3,0.7c-0.2,0.2-0.3,0.4-0.5,0.6l-0.5,0.5c-0.2,0.2-0.4,0.3-0.6,0.4l-0.6,0.4l-1.2,0.5l0,0l-0.1,0
						c-0.5,0.1-1.1,0.2-1.6,0.4c-0.5,0.2-1,0.4-1.5,0.6c-0.5,0.2-0.9,0.5-1.3,0.9c-0.4,0.3-0.6,0.6-0.9,1.2
						c-0.3,0.5-0.7,1.1-1.3,1.6c-0.3,0.3-0.6,0.4-0.9,0.6c-0.3,0.2-0.6,0.3-1,0.4c-0.7,0.2-1.3,0.3-1.9,0.4c-0.6,0-1.2,0.1-1.9,0.1
						c-0.6,0-1.2,0-1.8-0.1c-0.7-0.1-1.3-0.2-1.9-0.4l-0.5-0.2c-0.2-0.1-0.3-0.2-0.5-0.2c-0.3-0.1-0.6-0.3-0.9-0.6
						c-0.6-0.4-1-1-1.4-1.5l-0.2-0.4l-0.1-0.1l0,0c0.1,0.1,0,0,0,0l-0.1-0.2c-0.2-0.3-0.3-0.3-0.5-0.5c-0.3-0.3-0.8-0.6-1.3-0.9
						c-0.5-0.2-1-0.5-1.5-0.6c-0.5-0.2-1.1-0.3-1.6-0.4l-0.1,0l0,0l-1.2-0.5l-0.6-0.4c-0.2-0.1-0.4-0.2-0.6-0.4l-0.5-0.5
						c-0.2-0.2-0.3-0.4-0.5-0.6c-0.2-0.2-0.2-0.5-0.3-0.7c-0.1-0.2-0.2-0.5-0.2-0.8c-0.1-0.3,0-0.5,0-0.8c0-0.3,0-0.5,0.1-0.7
						c0-0.2,0.1-0.5,0.2-0.7c0.1-0.2,0.2-0.4,0.3-0.6c0.2-0.4,0.5-0.8,0.7-1.1c0.3-0.4,0.5-0.7,0.9-1c0.3-0.3,0.7-0.2,0.9,0
						c0.2,0.2,0.3,0.6,0,0.9l0,0c-0.2,0.3-0.5,0.6-0.7,0.9c-0.2,0.3-0.4,0.6-0.5,1c-0.1,0.2-0.1,0.3-0.2,0.5
						c-0.1,0.2-0.1,0.3-0.1,0.5c0,0.2-0.1,0.3,0,0.5c0,0.2,0,0.3,0,0.5c0,0.1,0.1,0.3,0.1,0.4c0.1,0.1,0.1,0.3,0.2,0.4
						c0.1,0.1,0.2,0.2,0.3,0.4l0.4,0.3c0.1,0.1,0.3,0.2,0.4,0.3l0.5,0.3l1,0.4l-0.1,0c0.7,0.1,1.2,0.2,1.9,0.4
						c0.6,0.2,1.2,0.4,1.8,0.7c0.6,0.3,1.1,0.6,1.7,1.1c0.2,0.2,0.6,0.6,0.7,0.8l0.1,0.2l0.1,0.1l0.1,0.1l0.2,0.4
						c0.3,0.4,0.6,0.8,1,1.1c0.2,0.2,0.4,0.3,0.6,0.4c0.1,0.1,0.2,0.1,0.3,0.2l0.4,0.1c0.5,0.2,1,0.2,1.5,0.3
						c0.5,0.1,1.2,0.1,1.7,0.1l1.6-0.1c0.5-0.1,1.1-0.1,1.5-0.3c0.2-0.1,0.5-0.1,0.7-0.3c0.2-0.1,0.4-0.2,0.6-0.4
						c0.4-0.2,0.6-0.6,0.9-1.1c0.3-0.4,0.7-1.1,1.2-1.6c0.5-0.5,1.1-0.8,1.7-1.1c0.6-0.3,1.2-0.5,1.8-0.7c0.6-0.2,1.2-0.3,1.9-0.4
						l-0.1,0l1-0.4l0.5-0.3c0.2-0.1,0.3-0.2,0.4-0.3l0.4-0.3c0.1-0.1,0.2-0.2,0.3-0.4c0.1-0.1,0.1-0.3,0.2-0.4
						c0.1-0.1,0.1-0.3,0.1-0.4c0-0.1,0-0.3,0-0.5c0-0.2,0-0.3,0-0.5c0-0.2-0.1-0.3-0.1-0.5c0-0.2-0.1-0.3-0.2-0.5
						c-0.3-0.7-0.7-1.3-1.2-1.9l0,0c-0.2-0.3-0.2-0.7,0.1-0.9C142.1,99.2,142.4,99.2,142.7,99.5z"/>
				</g>
				<path fill="#593B2E" d="M116.7,76.1c0,0-16-5.9-26.1,5.1c0,0,11.6-7.6,24.9-1.3C115.4,79.8,119.8,78.2,116.7,76.1z"/>
				
					<path fill="#C18963" stroke="#C18963" stroke-width="2.0168" stroke-linecap="round" stroke-linejoin="round" stroke-miterlimit="10" d="
					M119.8,120.5c-5.2,2.8,2.4,6.3,3.5,7.4c2.4,2.4,3.5,3.5,5.1,5.1c9,9.2,16.7-8.6,15.6-12.9C142.9,115.9,119.8,120.5,119.8,120.5z
					"/>
				<path fill="#2E230E" d="M108.5,94.8c0,0,10.6-2.6,3.3-12.9C111.8,81.9,116.1,91.5,108.5,94.8z"/>
				<path fill="#2E230E" d="M95.4,89.3c0,0,12.9-2.8,18.2,0.4C113.6,89.7,117.4,82.6,95.4,89.3z"/>
				<path fill="#593B2E" d="M140.3,76.1c-3.2,2.1,1.3,3.7,1.3,3.7c13.3-6.3,24.9,1.3,24.9,1.3C156.4,70.1,140.3,76.1,140.3,76.1z"/>
				<path fill="#2E230E" d="M145.2,81.9c-7.3,10.3,3.3,12.9,3.3,12.9C140.9,91.5,145.2,81.9,145.2,81.9z"/>
				<path fill="#2E230E" d="M143.4,89.7c5.2-3.2,18.2-0.4,18.2-0.4C139.6,82.6,143.4,89.7,143.4,89.7z"/>
			</g>
			<path fill="#776537" d="M75.6,36.4c0,0-5.8,34.9-5.1,35.2c0.8,0.3,28.2-14.2,28.2-14.2l31.7-11l47.1,14.5l9.6-4l-5-25l-46-4.8
				l-36.1,4L75.6,36.4z"/>
			<path opacity="0.3" fill="#231F20" d="M130.2,46.3c0,0,19.1,44.4,61.6,21.6c0,0-12.2-6.6-14.2-15"/>
			<path opacity="0.3" fill="#231F20" d="M129.9,46c0,0-11.5,33.5-53.4,22.3c0,0,9.6-4.6,13.2-12.5"/>
			<path fill="#776537" d="M130.4,46.3c0,0,17.9,38.4,58.3,21.1c0,0-9.2-6.8-11.2-15.1"/>
			<path fill="#776537" d="M129.9,46c0,0-14.6,27.1-49.2,21.3c0,0,7.5-6.3,8.8-13.7"/>
		</g>
	</g>
	
		<path fill="none" stroke="#F4B07D" stroke-width="29.1108" stroke-linecap="round" stroke-linejoin="round" stroke-miterlimit="10" d="
		M78.5,192.8c0,0-55.6-40.4-60.5-83.6c-5-44.7-2.5-55.5-2.5-79.2"/>
	<path fill="none" stroke="#282828" stroke-width="29.8111" stroke-linejoin="round" stroke-miterlimit="10" d="M78.5,192.8
		c0,0-55.6-40.4-60.5-83.6c-5-44.7-2.5-55.5-2.5-79.2"/>
	
		<path fill="none" stroke="#F4B07D" stroke-width="29.1108" stroke-linecap="round" stroke-linejoin="round" stroke-miterlimit="10" d="
		M181.3,177.6c0,0,55.6,40.4,60.5,83.6c5,44.7,2.5,55.5,2.5,79.2"/>
	<path fill="none" stroke="#282828" stroke-width="29.8111" stroke-linejoin="round" stroke-miterlimit="10" d="M181.3,177.6
		c0,0,55.6,40.4,60.5,83.6c5,44.7,2.5,55.5,2.5,79.2"/>
	<path fill="#F4B07D" d="M74.7,170.7c-8.5,36.2-24.8,33.3-24.8,94.4c0,75.3,0,61.7,0,63.7c0,0.1,8.3,0.2,8.3,0.2h71.5V170.7H74.7z"
		/>
	<path opacity="0.2" fill="#232222" d="M131.5,295.3c0,2-1,3.6-2.2,3.6c-1.2,0-2.2-1.6-2.2-3.6c0-2,1-3.6,2.2-3.6
		C130.5,291.7,131.5,293.3,131.5,295.3z"/>
	<path fill="#2D2D2D" d="M207.2,323.9h-36.5c-3-3.2-7.3-5.3-12.1-5.3s-9.1,2-12.1,5.3H109c-3-3.2-7.3-5.3-12.1-5.3s-9.1,2-12.1,5.3
		H49.2c0,25.7,12.2,45.6,31.2,57.7v116c0,9.2,7.4,16.6,16.6,16.6s16.6-7.4,16.6-16.6v-104c4.8,0.7,9.7,1.1,14.7,1.1
		c4.7,0,9.4-0.3,13.9-1v103.9c0,9.2,7.4,16.6,16.6,16.6s16.6-7.4,16.6-16.6V382.1C194.6,370.1,207.2,349.9,207.2,323.9z"/>
	<path fill="#1C1C1C" d="M113.3,502.5C69,502.5,33,512,33,523.8h80.3V502.5z"/>
	<path fill="#1C1C1C" d="M142,502.5c44.3,0,80.3,9.5,80.3,21.3H142V502.5z"/>
	<rect x="78.2" y="491.9" fill="#2D2D2D" width="36.5" height="12.5"/>
	<rect x="140.4" y="491.9" fill="#2D2D2D" width="36.5" height="12.5"/>
	<rect x="49.8" y="324" fill="#161516" width="157.1" height="11.8"/>
	<rect x="117.8" y="324" fill="#D6D6D6" width="22.4" height="11.8"/>
	<g>
		<path opacity="0.2" fill="#232222" d="M130.8,295.8c0,2-1,3.6-2.1,3.6c-1.2,0-2.1-1.6-2.1-3.6c0-2,1-3.6,2.1-3.6
			C129.9,292.2,130.8,293.8,130.8,295.8z"/>
		<path fill="#1C7363" d="M100.3,248.2l-9-17.2l15.9,7.8l16.5,6l15.5-0.9l30.5-12.9l-10.6,17.6l53.6-16.8c-4.1-29-12-56.2-26.7-67
			l-58.3,11.7h-2.9l-53.9-11.7c-14.4,15.9-22,41.5-25.8,67.7L100.3,248.2z"/>
		<path fill="#F4E206" d="M212.9,232.7l-56,17.6l10.3-17.2l-27.9,11.8l-15.8,0.9l-16.7-6.1l-13.2-6.5l8.7,16.6L45,233.4
			c-6.5,45.7-1.6,92.9-1.6,92.9h82.9h4.4h85.9C216.5,326.3,219.1,277.4,212.9,232.7z"/>
	</g>
	<g>
		<path fill="#902123" d="M126.1,241.9c0.2,0.6-70.9-33.2-70.9-33.2l18.9,21.6l-25.2-12.9l-0.8,6l40.3,16.2l-14.6-18.3l51.7,22.1
			L126.1,241.9z"/>
		<polygon fill="#FFFFFF" points="126.9,246.8 78.8,225.7 94.4,243.8 46.3,230.1 43.6,235.9 110.2,254.7 95.5,237 125.6,249 		"/>
		<g>
			<polygon fill="none" points="95.5,237 96.4,238.1 96.4,237.3 			"/>
			<polygon fill="none" points="103.8,240.3 103.8,247 105.3,248.8 105.3,240.9 			"/>
			<polygon fill="none" points="102.1,239.6 102.1,244.9 103.5,246.6 103.5,240.2 			"/>
			<polygon fill="none" points="96.7,237.5 96.7,238.5 98.2,240.2 98.2,238.1 			"/>
			<polygon fill="none" points="94.4,243.8 93.1,242.4 93.1,243.5 			"/>
			<polygon fill="none" points="75.3,238.4 75.3,244.8 76.8,245.3 76.8,238.8 			"/>
			<polygon fill="none" points="48.5,230.7 48.5,237.3 50,237.7 50,231.2 			"/>
			<polygon fill="none" points="123.5,245.3 123.5,248.2 124.9,248.8 124.9,245.9 			"/>
			<polygon fill="none" points="46.7,230.2 46.7,236.8 48.2,237.2 48.2,230.6 			"/>
			<polygon fill="none" points="46.3,230.1 45,233 45,236.3 46.4,236.7 46.4,230.1 			"/>
			<polygon fill="none" points="125.3,246 125.3,248.9 125.6,249 126.7,247 126.7,246.7 			"/>
			<polygon fill="none" points="64.6,235.3 64.6,241.8 66.1,242.2 66.1,235.7 			"/>
			<polygon fill="none" points="43.6,235.9 44.6,236.2 44.6,233.7 			"/>
			<polygon fill="none" points="62.8,234.8 62.8,241.3 64.3,241.7 64.3,235.2 			"/>
			<polygon fill="none" points="61,234.3 61,240.8 62.5,241.2 62.5,234.7 			"/>
			<polygon fill="none" points="68.2,236.3 68.2,242.8 69.6,243.3 69.6,236.8 			"/>
			<polygon fill="none" points="59.2,233.8 59.2,240.3 60.7,240.7 60.7,234.2 			"/>
			<polygon fill="none" points="77.1,238.9 77.1,245.3 78.5,245.8 78.5,239.3 			"/>
			<polygon fill="none" points="57.4,233.3 57.4,239.8 58.9,240.2 58.9,233.7 			"/>
			<polygon fill="none" points="69.9,236.9 69.9,243.3 71.4,243.8 71.4,237.3 			"/>
			<polygon fill="none" points="110.2,254.7 109.2,253.4 109.2,254.4 			"/>
			<polygon fill="none" points="66.4,235.8 66.4,242.3 67.8,242.8 67.8,236.3 			"/>
			<polygon fill="none" points="50.3,231.2 50.3,237.8 51.8,238.2 51.8,231.7 			"/>
			<polygon fill="none" points="71.7,237.4 71.7,243.8 73.2,244.3 73.2,237.8 			"/>
			<polygon fill="none" points="73.5,237.9 73.5,244.3 75,244.8 75,238.3 			"/>
			<polygon fill="none" points="53.9,232.3 53.9,238.8 55.3,239.2 55.3,232.7 			"/>
			<polygon fill="none" points="52.1,231.8 52.1,238.3 53.6,238.7 53.6,232.2 			"/>
			<polygon fill="none" points="55.7,232.8 55.7,239.3 57.1,239.7 57.1,233.2 			"/>
			<polygon fill="none" points="116.3,242.1 116.3,245.3 117.8,245.9 117.8,242.8 			"/>
			<polygon fill="none" points="93.1,232 93.1,242.4 94.4,243.8 93.1,243.5 93.1,249.9 94.6,250.3 94.6,232.6 			"/>
			<polygon fill="none" points="114.5,241.4 114.5,244.6 116,245.2 116,242 			"/>
			<polygon fill="none" points="105.3,240.9 105.3,237.3 103.8,236.7 103.8,240.3 			"/>
			<polygon fill="none" points="91.3,243 91.3,249.4 92.8,249.8 92.8,243.4 			"/>
			<polygon fill="none" points="108.9,242.3 108.9,238.9 107.4,238.2 107.4,241.8 			"/>
			<polygon fill="none" points="112.8,240.6 112.8,243.9 114.2,244.5 114.2,241.2 			"/>
			<polygon fill="none" points="107.1,241.6 107.1,238.1 105.6,237.5 105.6,241 			"/>
			<polygon fill="none" points="82.4,240.4 82.4,246.9 83.9,247.3 83.9,240.8 			"/>
			<polygon fill="none" points="80.6,239.9 80.6,246.4 82.1,246.8 82.1,240.3 			"/>
			<polygon fill="none" points="78.9,239.4 78.9,245.9 80.3,246.3 80.3,239.8 			"/>
			<polygon fill="none" points="89.6,242.5 89.6,248.9 91,249.3 91,242.9 			"/>
			<polygon fill="none" points="87.8,242 87.8,248.4 89.2,248.8 89.2,242.4 			"/>
			<polygon fill="none" points="84.2,240.9 84.2,247.4 85.7,247.8 85.7,241.4 			"/>
			<polygon fill="none" points="86,241.4 86,247.9 87.5,248.3 87.5,241.9 			"/>
			<polygon fill="none" points="100.3,242.7 100.3,251.9 101.7,252.3 101.7,244.5 			"/>
			<polygon fill="none" points="80.3,227.5 80.3,226.4 78.9,225.8 78.9,225.8 			"/>
			<polygon fill="none" points="102.1,244.9 102.1,252.4 103.5,252.8 103.5,246.6 			"/>
			<polygon fill="none" points="105.6,249.2 105.6,253.4 107.1,253.8 107.1,250.9 			"/>
			<polygon fill="none" points="103.8,247 103.8,252.9 105.3,253.3 105.3,248.8 			"/>
			<polygon fill="none" points="107.4,251.3 107.4,253.9 108.9,254.3 108.9,253.1 			"/>
			<polygon fill="none" points="111,239.8 111,243.2 112.4,243.8 112.4,240.4 			"/>
			<polygon fill="none" points="109.2,239 109.2,242.5 110.7,243.1 110.7,239.7 			"/>
			<polygon fill="none" points="98.5,240.6 98.5,251.4 100,251.8 100,242.4 			"/>
			<polygon fill="none" points="100,238.8 100,235 98.5,234.3 98.5,238.2 			"/>
			<polygon fill="none" points="98.2,238.1 98.2,234.2 96.7,233.6 96.7,237.5 			"/>
			<polygon fill="none" points="101.7,239.5 101.7,235.8 100.3,235.1 100.3,238.9 			"/>
			<polygon fill="none" points="103.5,240.2 103.5,236.5 102.1,235.9 102.1,239.6 			"/>
			<polygon fill="none" points="96.7,238.5 96.7,250.9 98.2,251.3 98.2,240.2 			"/>
			<polygon fill="none" points="95.5,237 96.4,237.3 96.4,233.4 94.9,232.8 94.9,250.4 96.4,250.8 96.4,238.1 			"/>
			<polygon fill="none" points="83.9,231.6 83.9,228 82.4,227.3 82.4,229.9 			"/>
			<polygon fill="none" points="82.1,229.6 82.1,227.2 80.6,226.5 80.6,227.9 			"/>
			<polygon fill="none" points="119.9,243.7 119.9,246.8 121.4,247.3 121.4,244.3 			"/>
			<polygon fill="none" points="89.2,237.9 89.2,230.3 87.8,229.7 87.8,236.2 			"/>
			<polygon fill="none" points="118.1,242.9 118.1,246 119.6,246.6 119.6,243.6 			"/>
			<polygon fill="none" points="87.5,235.8 87.5,229.5 86,228.9 86,234.1 			"/>
			<polygon fill="none" points="121.7,244.5 121.7,247.5 123.2,248.1 123.2,245.1 			"/>
			<polygon fill="none" points="85.7,233.7 85.7,228.7 84.2,228.1 84.2,232 			"/>
			<polygon fill="none" points="91,239.9 91,231.1 89.6,230.4 89.6,238.2 			"/>
			<polygon fill="none" points="92.8,242 92.8,231.9 91.3,231.2 91.3,240.3 			"/>
			<polygon fill="#1C7363" points="44.6,233.7 44.6,236.2 45,236.3 45,233 			"/>
			<polygon fill="#1C7363" points="46.4,230.1 46.4,236.7 46.7,236.8 46.7,230.2 			"/>
			<polygon fill="#1C7363" points="48.2,230.6 48.2,237.2 48.5,237.3 48.5,230.7 			"/>
			<polygon fill="#1C7363" points="50,231.2 50,237.7 50.3,237.8 50.3,231.2 			"/>
			<polygon fill="#1C7363" points="51.8,231.7 51.8,238.2 52.1,238.3 52.1,231.8 			"/>
			<polygon fill="#1C7363" points="53.6,232.2 53.6,238.7 53.9,238.8 53.9,232.3 			"/>
			<polygon fill="#1C7363" points="55.3,232.7 55.3,239.2 55.7,239.3 55.7,232.8 			"/>
			<polygon fill="#1C7363" points="57.1,233.2 57.1,239.7 57.4,239.8 57.4,233.3 			"/>
			<polygon fill="#1C7363" points="58.9,233.7 58.9,240.2 59.2,240.3 59.2,233.8 			"/>
			<polygon fill="#1C7363" points="60.7,234.2 60.7,240.7 61,240.8 61,234.3 			"/>
			<polygon fill="#1C7363" points="62.5,234.7 62.5,241.2 62.8,241.3 62.8,234.8 			"/>
			<polygon fill="#1C7363" points="64.3,235.2 64.3,241.7 64.6,241.8 64.6,235.3 			"/>
			<polygon fill="#1C7363" points="66.1,235.7 66.1,242.2 66.4,242.3 66.4,235.8 			"/>
			<polygon fill="#1C7363" points="67.8,236.3 67.8,242.8 68.2,242.8 68.2,236.3 			"/>
			<polygon fill="#1C7363" points="69.6,236.8 69.6,243.3 69.9,243.3 69.9,236.9 			"/>
			<polygon fill="#1C7363" points="71.4,237.3 71.4,243.8 71.7,243.8 71.7,237.4 			"/>
			<polygon fill="#1C7363" points="73.2,237.8 73.2,244.3 73.5,244.3 73.5,237.9 			"/>
			<polygon fill="#1C7363" points="75,238.3 75,244.8 75.3,244.8 75.3,238.4 			"/>
			<polygon fill="#1C7363" points="76.8,238.8 76.8,245.3 77.1,245.3 77.1,238.9 			"/>
			<polygon fill="#1C7363" points="78.5,239.3 78.5,245.8 78.9,245.9 78.9,239.4 			"/>
			<polygon fill="#1C7363" points="78.9,225.8 78.9,225.8 78.8,225.7 			"/>
			<polygon fill="#1C7363" points="80.6,227.9 80.6,226.5 80.3,226.4 80.3,227.5 			"/>
			<polygon fill="#1C7363" points="80.3,239.8 80.3,246.3 80.6,246.4 80.6,239.9 			"/>
			<polygon fill="#1C7363" points="82.4,229.9 82.4,227.3 82.1,227.2 82.1,229.6 			"/>
			<polygon fill="#1C7363" points="82.1,240.3 82.1,246.8 82.4,246.9 82.4,240.4 			"/>
			<polygon fill="#1C7363" points="84.2,232 84.2,228.1 83.9,228 83.9,231.6 			"/>
			<polygon fill="#1C7363" points="83.9,240.8 83.9,247.3 84.2,247.4 84.2,240.9 			"/>
			<polygon fill="#1C7363" points="86,234.1 86,228.9 85.7,228.7 85.7,233.7 			"/>
			<polygon fill="#1C7363" points="85.7,241.4 85.7,247.8 86,247.9 86,241.4 			"/>
			<polygon fill="#1C7363" points="87.8,236.2 87.8,229.7 87.5,229.5 87.5,235.8 			"/>
			<polygon fill="#1C7363" points="87.5,241.9 87.5,248.3 87.8,248.4 87.8,242 			"/>
			<polygon fill="#1C7363" points="89.6,238.2 89.6,230.4 89.2,230.3 89.2,237.9 			"/>
			<polygon fill="#1C7363" points="89.2,242.4 89.2,248.8 89.6,248.9 89.6,242.5 			"/>
			<polygon fill="#1C7363" points="91.3,240.3 91.3,231.2 91,231.1 91,239.9 			"/>
			<polygon fill="#1C7363" points="91,242.9 91,249.3 91.3,249.4 91.3,243 			"/>
			<polygon fill="#1C7363" points="92.8,243.4 92.8,249.8 93.1,249.9 93.1,243.5 			"/>
			<polygon fill="#1C7363" points="93.1,242.4 93.1,232 92.8,231.9 92.8,242 			"/>
			<polygon fill="#1C7363" points="94.6,232.6 94.6,250.3 94.9,250.4 94.9,232.8 			"/>
			<polygon fill="#1C7363" points="96.7,237.5 96.7,233.6 96.4,233.4 96.4,237.3 			"/>
			<polygon fill="#1C7363" points="96.4,238.1 96.4,250.8 96.7,250.9 96.7,238.5 			"/>
			<polygon fill="#1C7363" points="98.2,240.2 98.2,251.3 98.5,251.4 98.5,240.6 			"/>
			<polygon fill="#1C7363" points="98.5,238.2 98.5,234.3 98.2,234.2 98.2,238.1 			"/>
			<polygon fill="#1C7363" points="100,242.4 100,251.8 100.3,251.9 100.3,242.7 			"/>
			<polygon fill="#1C7363" points="100.3,238.9 100.3,235.1 100,235 100,238.8 			"/>
			<polygon fill="#1C7363" points="102.1,239.6 102.1,235.9 101.7,235.8 101.7,239.5 			"/>
			<polygon fill="#1C7363" points="101.7,244.5 101.7,252.3 102.1,252.4 102.1,244.9 			"/>
			<polygon fill="#1C7363" points="103.5,246.6 103.5,252.8 103.8,252.9 103.8,247 			"/>
			<polygon fill="#1C7363" points="103.8,240.3 103.8,236.7 103.5,236.5 103.5,240.2 			"/>
			<polygon fill="#1C7363" points="105.3,248.8 105.3,253.3 105.6,253.4 105.6,249.2 			"/>
			<polygon fill="#1C7363" points="105.6,241 105.6,237.5 105.3,237.3 105.3,240.9 			"/>
			<polygon fill="#1C7363" points="107.1,250.9 107.1,253.8 107.4,253.9 107.4,251.3 			"/>
			<polygon fill="#1C7363" points="107.4,241.8 107.4,238.2 107.1,238.1 107.1,241.6 			"/>
			<polygon fill="#1C7363" points="108.9,254.3 109.2,254.4 109.2,253.4 108.9,253.1 			"/>
			<polygon fill="#1C7363" points="108.9,238.9 108.9,242.3 109.2,242.5 109.2,239 			"/>
			<polygon fill="#1C7363" points="110.7,239.7 110.7,243.1 111,243.2 111,239.8 			"/>
			<polygon fill="#1C7363" points="112.4,240.4 112.4,243.8 112.8,243.9 112.8,240.6 			"/>
			<polygon fill="#1C7363" points="114.2,241.2 114.2,244.5 114.5,244.6 114.5,241.4 			"/>
			<polygon fill="#1C7363" points="116,242 116,245.2 116.3,245.3 116.3,242.1 			"/>
			<polygon fill="#1C7363" points="117.8,242.8 117.8,245.9 118.1,246 118.1,242.9 			"/>
			<polygon fill="#1C7363" points="119.6,243.6 119.6,246.6 119.9,246.8 119.9,243.7 			"/>
			<polygon fill="#1C7363" points="121.4,244.3 121.4,247.3 121.7,247.5 121.7,244.5 			"/>
			<polygon fill="#1C7363" points="123.2,245.1 123.2,248.1 123.5,248.2 123.5,245.3 			"/>
			<polygon fill="#1C7363" points="124.9,245.9 124.9,248.8 125.3,248.9 125.3,246 			"/>
			<polygon fill="#1C7363" points="126.7,246.7 126.7,247 126.9,246.8 			"/>
		</g>
		<path fill="#902123" d="M131.4,241.9c-0.2,0.6,70.9-33.2,70.9-33.2l-18.9,21.6l25.2-12.9l0.8,6l-40.3,16.2l14.5-18.3l-51.7,22.1
			L131.4,241.9z"/>
		<polygon fill="#FFFFFF" points="130.6,246.8 178.7,225.7 163.1,243.8 211.2,230.1 213.9,235.9 147.3,254.7 162,237 131.9,249 		
			"/>
		<g>
			<polygon fill="none" points="162,237 161.1,238.1 161.1,237.3 			"/>
			<polygon fill="none" points="153.7,240.3 153.7,247 152.2,248.8 152.2,240.9 			"/>
			<polygon fill="none" points="155.5,239.6 155.5,244.9 154,246.6 154,240.2 			"/>
			<polygon fill="none" points="160.8,237.5 160.8,238.5 159.3,240.2 159.3,238.1 			"/>
			<polygon fill="none" points="163.1,243.8 164.4,242.4 164.4,243.5 			"/>
			<polygon fill="none" points="182.2,238.4 182.2,244.8 180.8,245.3 180.8,238.8 			"/>
			<polygon fill="none" points="209,230.7 209,237.3 207.5,237.7 207.5,231.2 			"/>
			<polygon fill="none" points="134,245.3 134,248.2 132.6,248.8 132.6,245.9 			"/>
			<polygon fill="none" points="210.8,230.2 210.8,236.8 209.3,237.2 209.3,230.6 			"/>
			<polygon fill="none" points="211.2,230.1 212.6,233 212.6,236.3 211.1,236.7 211.1,230.1 			"/>
			<polygon fill="none" points="132.3,246 132.3,248.9 131.9,249 130.8,247 130.8,246.7 			"/>
			<polygon fill="none" points="192.9,235.3 192.9,241.8 191.5,242.2 191.5,235.7 			"/>
			<polygon fill="none" points="213.9,235.9 212.9,236.2 212.9,233.7 			"/>
			<polygon fill="none" points="194.7,234.8 194.7,241.3 193.2,241.7 193.2,235.2 			"/>
			<polygon fill="none" points="196.5,234.3 196.5,240.8 195,241.2 195,234.7 			"/>
			<polygon fill="none" points="189.4,236.3 189.4,242.8 187.9,243.3 187.9,236.8 			"/>
			<polygon fill="none" points="198.3,233.8 198.3,240.3 196.8,240.7 196.8,234.2 			"/>
			<polygon fill="none" points="180.4,238.9 180.4,245.3 179,245.8 179,239.3 			"/>
			<polygon fill="none" points="200.1,233.3 200.1,239.8 198.6,240.2 198.6,233.7 			"/>
			<polygon fill="none" points="187.6,236.9 187.6,243.3 186.1,243.8 186.1,237.3 			"/>
			<polygon fill="none" points="147.3,254.7 148.3,253.4 148.3,254.4 			"/>
			<polygon fill="none" points="191.1,235.8 191.1,242.3 189.7,242.8 189.7,236.3 			"/>
			<polygon fill="none" points="207.2,231.2 207.2,237.8 205.7,238.2 205.7,231.7 			"/>
			<polygon fill="none" points="185.8,237.4 185.8,243.8 184.3,244.3 184.3,237.8 			"/>
			<polygon fill="none" points="184,237.9 184,244.3 182.5,244.8 182.5,238.3 			"/>
			<polygon fill="none" points="203.6,232.3 203.6,238.8 202.2,239.2 202.2,232.7 			"/>
			<polygon fill="none" points="205.4,231.8 205.4,238.3 203.9,238.7 203.9,232.2 			"/>
			<polygon fill="none" points="201.8,232.8 201.8,239.3 200.4,239.7 200.4,233.2 			"/>
			<polygon fill="none" points="141.2,242.1 141.2,245.3 139.7,245.9 139.7,242.8 			"/>
			<polygon fill="none" points="164.4,232 164.4,242.4 163.1,243.8 164.4,243.5 164.4,249.9 162.9,250.3 162.9,232.6 			"/>
			<polygon fill="none" points="143,241.4 143,244.6 141.5,245.2 141.5,242 			"/>
			<polygon fill="none" points="152.2,240.9 152.2,237.3 153.7,236.7 153.7,240.3 			"/>
			<polygon fill="none" points="166.2,243 166.2,249.4 164.7,249.8 164.7,243.4 			"/>
			<polygon fill="none" points="148.6,242.3 148.6,238.9 150.1,238.2 150.1,241.8 			"/>
			<polygon fill="none" points="144.7,240.6 144.7,243.9 143.3,244.5 143.3,241.2 			"/>
			<polygon fill="none" points="150.4,241.6 150.4,238.1 151.9,237.5 151.9,241 			"/>
			<polygon fill="none" points="175.1,240.4 175.1,246.9 173.6,247.3 173.6,240.8 			"/>
			<polygon fill="none" points="176.9,239.9 176.9,246.4 175.4,246.8 175.4,240.3 			"/>
			<polygon fill="none" points="178.6,239.4 178.6,245.9 177.2,246.3 177.2,239.8 			"/>
			<polygon fill="none" points="167.9,242.5 167.9,248.9 166.5,249.3 166.5,242.9 			"/>
			<polygon fill="none" points="169.7,242 169.7,248.4 168.3,248.8 168.3,242.4 			"/>
			<polygon fill="none" points="173.3,240.9 173.3,247.4 171.8,247.8 171.8,241.4 			"/>
			<polygon fill="none" points="171.5,241.4 171.5,247.9 170,248.3 170,241.9 			"/>
			<polygon fill="none" points="157.2,242.7 157.2,251.9 155.8,252.3 155.8,244.5 			"/>
			<polygon fill="none" points="177.2,227.5 177.2,226.4 178.6,225.8 178.6,225.8 			"/>
			<polygon fill="none" points="155.5,244.9 155.5,252.4 154,252.8 154,246.6 			"/>
			<polygon fill="none" points="151.9,249.2 151.9,253.4 150.4,253.8 150.4,250.9 			"/>
			<polygon fill="none" points="153.7,247 153.7,252.9 152.2,253.3 152.2,248.8 			"/>
			<polygon fill="none" points="150.1,251.3 150.1,253.9 148.6,254.3 148.6,253.1 			"/>
			<polygon fill="none" points="146.5,239.8 146.5,243.2 145.1,243.8 145.1,240.4 			"/>
			<polygon fill="none" points="148.3,239 148.3,242.5 146.8,243.1 146.8,239.7 			"/>
			<polygon fill="none" points="159,240.6 159,251.4 157.6,251.8 157.6,242.4 			"/>
			<polygon fill="none" points="157.6,238.8 157.6,235 159,234.3 159,238.2 			"/>
			<polygon fill="none" points="159.3,238.1 159.3,234.2 160.8,233.6 160.8,237.5 			"/>
			<polygon fill="none" points="155.8,239.5 155.8,235.8 157.2,235.1 157.2,238.9 			"/>
			<polygon fill="none" points="154,240.2 154,236.5 155.5,235.9 155.5,239.6 			"/>
			<polygon fill="none" points="160.8,238.5 160.8,250.9 159.3,251.3 159.3,240.2 			"/>
			<polygon fill="none" points="162,237 161.1,237.3 161.1,233.4 162.6,232.8 162.6,250.4 161.1,250.8 161.1,238.1 			"/>
			<polygon fill="none" points="173.6,231.6 173.6,228 175.1,227.3 175.1,229.9 			"/>
			<polygon fill="none" points="175.4,229.6 175.4,227.2 176.9,226.5 176.9,227.9 			"/>
			<polygon fill="none" points="137.6,243.7 137.6,246.8 136.1,247.3 136.1,244.3 			"/>
			<polygon fill="none" points="168.3,237.9 168.3,230.3 169.7,229.7 169.7,236.2 			"/>
			<polygon fill="none" points="139.4,242.9 139.4,246 137.9,246.6 137.9,243.6 			"/>
			<polygon fill="none" points="170,235.8 170,229.5 171.5,228.9 171.5,234.1 			"/>
			<polygon fill="none" points="135.8,244.5 135.8,247.5 134.4,248.1 134.4,245.1 			"/>
			<polygon fill="none" points="171.8,233.7 171.8,228.7 173.3,228.1 173.3,232 			"/>
			<polygon fill="none" points="166.5,239.9 166.5,231.1 167.9,230.4 167.9,238.2 			"/>
			<polygon fill="none" points="164.7,242 164.7,231.9 166.2,231.2 166.2,240.3 			"/>
			<polygon fill="#1C7363" points="212.9,233.7 212.9,236.2 212.6,236.3 212.6,233 			"/>
			<polygon fill="#1C7363" points="211.1,230.1 211.1,236.7 210.8,236.8 210.8,230.2 			"/>
			<polygon fill="#1C7363" points="209.3,230.6 209.3,237.2 209,237.3 209,230.7 			"/>
			<polygon fill="#1C7363" points="207.5,231.2 207.5,237.7 207.2,237.8 207.2,231.2 			"/>
			<polygon fill="#1C7363" points="205.7,231.7 205.7,238.2 205.4,238.3 205.4,231.8 			"/>
			<polygon fill="#1C7363" points="203.9,232.2 203.9,238.7 203.6,238.8 203.6,232.3 			"/>
			<polygon fill="#1C7363" points="202.2,232.7 202.2,239.2 201.8,239.3 201.8,232.8 			"/>
			<polygon fill="#1C7363" points="200.4,233.2 200.4,239.7 200.1,239.8 200.1,233.3 			"/>
			<polygon fill="#1C7363" points="198.6,233.7 198.6,240.2 198.3,240.3 198.3,233.8 			"/>
			<polygon fill="#1C7363" points="196.8,234.2 196.8,240.7 196.5,240.8 196.5,234.3 			"/>
			<polygon fill="#1C7363" points="195,234.7 195,241.2 194.7,241.3 194.7,234.8 			"/>
			<polygon fill="#1C7363" points="193.2,235.2 193.2,241.7 192.9,241.8 192.9,235.3 			"/>
			<polygon fill="#1C7363" points="191.5,235.7 191.5,242.2 191.1,242.3 191.1,235.8 			"/>
			<polygon fill="#1C7363" points="189.7,236.3 189.7,242.8 189.4,242.8 189.4,236.3 			"/>
			<polygon fill="#1C7363" points="187.9,236.8 187.9,243.3 187.6,243.3 187.6,236.9 			"/>
			<polygon fill="#1C7363" points="186.1,237.3 186.1,243.8 185.8,243.8 185.8,237.4 			"/>
			<polygon fill="#1C7363" points="184.3,237.8 184.3,244.3 184,244.3 184,237.9 			"/>
			<polygon fill="#1C7363" points="182.5,238.3 182.5,244.8 182.2,244.8 182.2,238.4 			"/>
			<polygon fill="#1C7363" points="180.8,238.8 180.8,245.3 180.4,245.3 180.4,238.9 			"/>
			<polygon fill="#1C7363" points="179,239.3 179,245.8 178.6,245.9 178.6,239.4 			"/>
			<polygon fill="#1C7363" points="178.6,225.8 178.6,225.8 178.7,225.7 			"/>
			<polygon fill="#1C7363" points="176.9,227.9 176.9,226.5 177.2,226.4 177.2,227.5 			"/>
			<polygon fill="#1C7363" points="177.2,239.8 177.2,246.3 176.9,246.4 176.9,239.9 			"/>
			<polygon fill="#1C7363" points="175.1,229.9 175.1,227.3 175.4,227.2 175.4,229.6 			"/>
			<polygon fill="#1C7363" points="175.4,240.3 175.4,246.8 175.1,246.9 175.1,240.4 			"/>
			<polygon fill="#1C7363" points="173.3,232 173.3,228.1 173.6,228 173.6,231.6 			"/>
			<polygon fill="#1C7363" points="173.6,240.8 173.6,247.3 173.3,247.4 173.3,240.9 			"/>
			<polygon fill="#1C7363" points="171.5,234.1 171.5,228.9 171.8,228.7 171.8,233.7 			"/>
			<polygon fill="#1C7363" points="171.8,241.4 171.8,247.8 171.5,247.9 171.5,241.4 			"/>
			<polygon fill="#1C7363" points="169.7,236.2 169.7,229.7 170,229.5 170,235.8 			"/>
			<polygon fill="#1C7363" points="170,241.9 170,248.3 169.7,248.4 169.7,242 			"/>
			<polygon fill="#1C7363" points="167.9,238.2 167.9,230.4 168.3,230.3 168.3,237.9 			"/>
			<polygon fill="#1C7363" points="168.3,242.4 168.3,248.8 167.9,248.9 167.9,242.5 			"/>
			<polygon fill="#1C7363" points="166.2,240.3 166.2,231.2 166.5,231.1 166.5,239.9 			"/>
			<polygon fill="#1C7363" points="166.5,242.9 166.5,249.3 166.2,249.4 166.2,243 			"/>
			<polygon fill="#1C7363" points="164.7,243.4 164.7,249.8 164.4,249.9 164.4,243.5 			"/>
			<polygon fill="#1C7363" points="164.4,242.4 164.4,232 164.7,231.9 164.7,242 			"/>
			<polygon fill="#1C7363" points="162.9,232.6 162.9,250.3 162.6,250.4 162.6,232.8 			"/>
			<polygon fill="#1C7363" points="160.8,237.5 160.8,233.6 161.1,233.4 161.1,237.3 			"/>
			<polygon fill="#1C7363" points="161.1,238.1 161.1,250.8 160.8,250.9 160.8,238.5 			"/>
			<polygon fill="#1C7363" points="159.3,240.2 159.3,251.3 159,251.4 159,240.6 			"/>
			<polygon fill="#1C7363" points="159,238.2 159,234.3 159.3,234.2 159.3,238.1 			"/>
			<polygon fill="#1C7363" points="157.6,242.4 157.6,251.8 157.2,251.9 157.2,242.7 			"/>
			<polygon fill="#1C7363" points="157.2,238.9 157.2,235.1 157.6,235 157.6,238.8 			"/>
			<polygon fill="#1C7363" points="155.5,239.6 155.5,235.9 155.8,235.8 155.8,239.5 			"/>
			<polygon fill="#1C7363" points="155.8,244.5 155.8,252.3 155.5,252.4 155.5,244.9 			"/>
			<polygon fill="#1C7363" points="154,246.6 154,252.8 153.7,252.9 153.7,247 			"/>
			<polygon fill="#1C7363" points="153.7,240.3 153.7,236.7 154,236.5 154,240.2 			"/>
			<polygon fill="#1C7363" points="152.2,248.8 152.2,253.3 151.9,253.4 151.9,249.2 			"/>
			<polygon fill="#1C7363" points="151.9,241 151.9,237.5 152.2,237.3 152.2,240.9 			"/>
			<polygon fill="#1C7363" points="150.4,250.9 150.4,253.8 150.1,253.9 150.1,251.3 			"/>
			<polygon fill="#1C7363" points="150.1,241.8 150.1,238.2 150.4,238.1 150.4,241.6 			"/>
			<polygon fill="#1C7363" points="148.6,254.3 148.3,254.4 148.3,253.4 148.6,253.1 			"/>
			<polygon fill="#1C7363" points="148.6,238.9 148.6,242.3 148.3,242.5 148.3,239 			"/>
			<polygon fill="#1C7363" points="146.8,239.7 146.8,243.1 146.5,243.2 146.5,239.8 			"/>
			<polygon fill="#1C7363" points="145.1,240.4 145.1,243.8 144.7,243.9 144.7,240.6 			"/>
			<polygon fill="#1C7363" points="143.3,241.2 143.3,244.5 143,244.6 143,241.4 			"/>
			<polygon fill="#1C7363" points="141.5,242 141.5,245.2 141.2,245.3 141.2,242.1 			"/>
			<polygon fill="#1C7363" points="139.7,242.8 139.7,245.9 139.4,246 139.4,242.9 			"/>
			<polygon fill="#1C7363" points="137.9,243.6 137.9,246.6 137.6,246.8 137.6,243.7 			"/>
			<polygon fill="#1C7363" points="136.1,244.3 136.1,247.3 135.8,247.5 135.8,244.5 			"/>
			<polygon fill="#1C7363" points="134.4,245.1 134.4,248.1 134,248.2 134,245.3 			"/>
			<polygon fill="#1C7363" points="132.6,245.9 132.6,248.8 132.3,248.9 132.3,246 			"/>
			<polygon fill="#1C7363" points="130.8,246.7 130.8,247 130.6,246.8 			"/>
		</g>
		<g>
			<ellipse fill="#92190F" cx="126.8" cy="245.8" rx="15.4" ry="15.2"/>
			<ellipse fill="#FAEBEC" cx="126.8" cy="245.8" rx="13.7" ry="13.6"/>
			<ellipse fill="#D3B23F" cx="126.8" cy="245.8" rx="11.1" ry="10.9"/>
			<g>
				<path fill="#FFF100" d="M126.9,235c6.3,0,11.4,5,11.4,11.2c0,6.2-5.1,11.2-11.4,11.2c-6.3,0-11.4-5-11.4-11.2
					C115.5,240,120.6,235,126.9,235L126.9,235z"/>
				<path fill="#2E3191" d="M126.9,235.4c-6,0-11,4.9-11,10.8c0,6,4.9,10.8,11,10.8c6,0,11-4.9,11-10.8
					C137.8,240.3,132.9,235.4,126.9,235.4z"/>
				<path fill="#FFF100" d="M137.4,246h-2c-0.1-0.3-0.2-0.5-0.3-0.7c-0.5-1.3-1.2-2.3-2-2.8l-0.2-0.1l-0.2,0.1
					c-0.1,0-0.1,0.1-0.2,0.1c-0.1-0.5-0.3-0.9-0.5-1.4l2.3-2.3C136.2,240.8,137.4,243.3,137.4,246z"/>
				<path fill="#FFF100" d="M126.9,235.8c2.8,0,5.4,1.1,7.3,2.9l-2.3,2.3c-0.4-0.2-0.7-0.3-1.1-0.4l0.1-0.7l-0.1-0.1
					c0,0.1-0.3,0-0.3-0.3c-0.1,0,0.1-0.2-0.1-0.2l-0.1-0.2l-0.1,0l-0.2-0.3l0-0.1c-0.1-0.1-0.3,0-0.3,0c-0.1,0-0.3,0.1-0.3,0.1
					l-0.1,0l-0.1,0l-0.1,0.2c0,0.1,0,0.1,0,0.2c0.1,0,0.1,0.2,0.1,0.2l0,0.1c0,0.1,0.2,0,0.3,0.2l0.1,0.1c0,0.1,0,0.1,0.1,0.2
					l0.1,0.2l0.1,0l0.1,0.1l0.1,0c0.1,0.1,0,0.5,0,0.6l-0.1,0.1c-0.1,0-0.3,0.1-0.4,0.2c0.1,0,0,0.4,0.2,0.2c0,0.1,0.2,0.2,0.2,0.2
					l0,0.2c0.1,0.2,0.3,0.4,0.5,0.4c0.1,0,0.1,0.1,0.1-0.3l0-0.1c-0.1-0.3-0.1-0.5,0.2-0.2l0.1-0.1l0.1-0.1l0-0.3
					c0.3,0.1,0.5,0.2,0.8,0.3c0.2,0.5,0.4,1,0.5,1.5c-0.6,0.6-1.1,1.4-1.5,2.4c-0.5,1.2-0.8,2.7-0.8,4.3l0,0.1l-0.1-0.1
					c-0.1,0-0.1-0.2-0.2-0.2c0-0.1-0.1,0-0.1-0.1l-0.2-0.1l-0.1-0.1c-0.1,0-0.1-0.1-0.1-0.2c0.1,0,0.1-0.1,0.2-0.1l0-0.1l-0.1,0
					c0-0.1-0.1-0.2-0.1-0.3c-0.1,0-0.4-0.3-0.4-0.5c0-0.1-0.1-0.2-0.2-0.2c0-0.1-0.2-0.1-0.2-0.2c-0.1,0-0.1-0.1-0.1-0.1l-0.2-0.2
					c-0.1,0-0.2,0-0.4,0.1l-0.3,0.3l-0.3-0.3l0-0.3c-0.1,0-0.1,0-0.1-0.1l-0.1-0.1l-0.2-0.1c0-0.1,0.1-0.3,0.2-0.3l0.1-0.1l-0.1-0.1
					l-0.2,0.1l-0.1,0.1l-0.2,0.1l-0.1-0.1c0-0.1-0.1-0.2-0.1-0.2c0-0.2,0-0.5,0.3-0.6c0.2-0.1,0.3-0.1,0.4,0c0.3,0-0.1-0.1,0.5-0.1
					l-0.1,0.4l0.1,0.1c0.1,0,0.1,0,0.2,0l0.1-0.3c0-0.1,0-0.1,0-0.2c0-0.1,0.2,0,0.2-0.1l0.1-0.1c0.1,0,0.2,0,0.2-0.1
					c0,0,0-0.1,0.1-0.1c0-0.1,0.1-0.1,0.1-0.2l0.2-0.1l0-0.1l0.2-0.1l0.1-0.1c0-0.1,0.1-0.2,0.2-0.2l0.5,0.2
					c0.1-0.1,0.4-0.3,0.2-0.4c0-0.1-0.2,0-0.1-0.4l0.1-0.1l0.1,0l0.4,0.1c0,0.1-0.1,0.1-0.2,0.3c0.1,0,0,0.3,0,0.3l0,0.1
					c0.1,0,0.2,0.1,0.3,0.1c0,0,0.1,0,0.1,0c0,0,0.2-0.1,0.2-0.1c0-0.2,0-0.4-0.1-0.4c0-0.1,0.2-0.2,0.2-0.3c0-0.1-0.2-0.3-0.2-0.4
					c0-0.2-0.2-0.3-0.2-0.5c0-0.2,0.1-0.2,0.1-0.4l-0.1-0.2l-0.2,0l-0.1-0.1c-0.1-0.1-0.1-0.3-0.3-0.4c0-0.1-0.2,0-0.2-0.1
					c-0.2-0.1-0.3-0.1-0.4,0l-0.1,0.1l0,0.1L129,242c-0.1,0.3-0.2,0.5-0.3,0.7l-0.1,0l0,0.4l-0.1,0.1c-0.1,0-0.1-0.5-0.2-0.5
					c0-0.1,0.1-0.2,0-0.2l-0.2-0.1l-0.1-0.1c-0.1,0,0-0.6-0.2-0.6c0-0.1,0.1-0.2,0.1-0.3l0.2-0.2l0-0.1l0-0.1c0.1,0,0.3-0.4,0.5-0.4
					c0-0.1,0.4-0.1,0.5-0.1c0.1-0.1,0.1-0.2,0.1-0.2l0-0.6l-0.3,0.2c-0.1-0.1-0.1-0.1-0.1-0.1c-0.1-0.1-0.2-0.2-0.2-0.5
					c0-0.1,0.2-0.3,0.1-0.3l-0.2,0.1c-0.1,0.1-0.3,0.2-0.1,0.5c0.1,0.1-0.1,0.2-0.2,0.2l-0.1,0l-0.1,0c0,0.1-0.2,0-0.3,0.1l-0.3-0.1
					c0,0-0.2-0.1-0.3-0.1l-0.3,0l-0.2-0.3c-0.1,0-0.2,0-0.2-0.1l0-0.2c0,0-0.2-0.1-0.2-0.2c-0.2,0-0.1-0.2-0.2-0.3
					c-0.5,0-1.2-0.1-1.5-0.5l0-0.1c-0.1,0-0.4-0.3-0.4-0.3l-0.1-0.1c-0.2,0-0.4,0.1-0.5,0.1c-0.1,0.1-0.3,0.3-0.5,0.3
					c-0.1,0-0.1,0.1-0.1,0.3l0.1,0c0,0.1,0.1,0.2,0.1,0.3l-0.1,0.1c-0.1,0-0.1,0-0.2,0l-0.1,0.2l-0.1,0l0,0.2l0.1,0l0.1,0.3
					c-0.1,0.2-0.4,0.2-0.6,0.3c-0.1,0-0.2,0.2-0.1,0.3c0.1,0.1,0.2,0.2,0.2,0.2l0.3,0.3c0,0,0,0.1,0,0.1c-0.1,0-0.1,0-0.2,0.1
					c0,0,0,0-0.1,0c0,0,0,0,0,0.1c-0.1,0-0.2,0.1-0.2,0.1c-0.1,0-0.3,0-0.3,0.1l0,0.1c-0.1,0-0.2,0.1-0.2,0.1l-2.3-2.2
					C121.5,236.9,124,235.8,126.9,235.8z"/>
				<path fill="#FFF100" d="M126.4,249.5l0.2,0.4c0,0.1,0,0.3,0.2,0.3c0,0.1,0,0.2,0.1,0.2l-0.1,0.1l-0.1,0.2c0,0.1-0.3,0.5-0.3,0.6
					c-0.1,0.1,0,0.3-0.1,0.4l-0.1,0.1c-0.1,0.1-0.1,0.2-0.2,0.3c-1.3-0.1-2.7-0.5-4.1-1c-0.2-0.4-0.3-0.8-0.5-1.2
					c0.5,0,1-0.1,1.5-0.3c0.5-0.2,0.9-0.5,1.3-0.9l0.2-0.2l-0.2-0.2l-1.2-1.1l-0.2,0.3c-0.2,0.2-0.4,0.3-0.6,0.4
					c-0.2,0.1-0.5,0.2-0.7,0.2c-0.2,0-0.3,0-0.5-0.1c-0.2-1.1-0.2-2.3,0-3.4c0.1,0,0.3-0.1,0.5-0.1c0.3,0,0.5,0.1,0.7,0.2
					c0.2,0.1,0.4,0.3,0.6,0.4l0.2,0.3l1.4-1.3l-0.2-0.2c-0.3-0.4-0.8-0.7-1.3-0.9c-0.5-0.2-0.9-0.3-1.5-0.3c0.1-0.4,0.3-0.7,0.4-1.1
					c0.3-0.1,0.6-0.2,0.9-0.4c0.3,0,0.5-0.1,0.6-0.2c0.3-0.1,0.6-0.2,1-0.2c0,0.1,0.1,0.1,0.1,0.1c0,0.3,0,0.7,0,0.9
					c0.3,0.3,0.3,0.6,0.3,1.1c-0.1,0.2-0.2,1-0.1,1.1l0.1,0c0,0.1-0.1,0.5,0.1,0.5c0.3,0.3,0.2,0.6,0.2,0.7c0,0.1,0,0.2,0.2,0.4
					c0.1,0.6,0.1,0.2,0.2,0.2c-0.1-0.3,0-0.6-0.1-0.7l-0.1-0.1l0-0.2l0.1,0c0,0,0.1,0.1,0.1,0.1c0.1,0.1,0.1,0.2,0.1,0.3
					c0.1,0.1-0.1,0.4,0.1,0.4l0,0.2l0,0.3c0.2,0.3,0.5,0.7,0.9,0.6l0.2,0.2c0,0.2,0.1,0.4,0.2,0.5l0.1,0.1c0,0,0,0.2,0.3,0.2
					c0.1,0,0.1,0.1,0.1,0.1l0.1,0.2l-0.1,0.1l-0.2,0.1c-0.1-0.1-0.3,0.1-0.4,0.1c-0.1,0.5-0.1,0.4-0.3,0.5
					C126.3,249.1,126.4,249.3,126.4,249.5z"/>
				<path fill="#FFF100" d="M119.3,239l2.2,2.2c-0.2,0.4-0.3,0.9-0.5,1.3c-0.9,0.1-1.7,0.5-2.3,1.1c-0.6,0.6-1,1.5-1.1,2.4h-1.4
					C116.4,243.3,117.5,240.8,119.3,239z"/>
				<path fill="#FFF100" d="M120.5,246h-0.8c0-0.4,0.2-0.8,0.5-1.1c0.1-0.1,0.3-0.2,0.4-0.3C120.6,245.1,120.5,245.5,120.5,246z"/>
				<path fill="#FFF100" d="M120.6,247.7c-0.1-0.1-0.3-0.2-0.4-0.3c-0.3-0.3-0.4-0.6-0.5-1h0.8C120.5,246.9,120.5,247.3,120.6,247.7
					z"/>
				<path fill="#FFF100" d="M116.3,246.5h1.4c0.1,0.9,0.5,1.7,1.1,2.4c0.6,0.6,1.4,1,2.3,1.1c0.1,0.4,0.3,0.9,0.5,1.3l-2.3,2.2
					C117.5,251.6,116.4,249.2,116.3,246.5z"/>
				<path fill="#FFF100" d="M126.9,256.6c-2.9,0-5.4-1.1-7.3-3l2.3-2.2c1.3,0.5,2.6,0.8,3.9,1c0,0.1,0,0.1,0,0.2l-0.1,0.1
					c0,0.2-0.1,0.4-0.1,0.7l0,0.1l0.1,0l0,0.1l0.1,0.1c0,0,0.2,0,0.2-0.1c0.1-0.1,0.1-0.2,0.2-0.2l0-0.2l0.1,0l0-0.1
					c0.1,0,0.2-0.3,0.3-0.4l0.1,0l0-0.1c0.1,0,0-0.2,0.1-0.2c0,0,0-0.1,0.1-0.1c1.7,0,3.5-0.3,5.2-1.1l2.3,2.3
					C132.3,255.5,129.7,256.6,126.9,256.6z"/>
				<path fill="#FFF100" d="M134.5,253.4l-2.3-2.3c0.3-0.7,0.5-1.4,0.7-2.2l1.3,0c0,0,0,0.1,0,0.2c0,0.2,0,0.3,0,0.5v0.3h1.8l0-0.4
					c0-1.1-0.2-2.1-0.4-3.1h1.8C137.4,249.1,136.2,251.6,134.5,253.4z"/>
				<path fill="#EC1C24" d="M121.4,242.8c1,0,1.9,0.4,2.5,1.1l-0.9,0.9c-0.4-0.4-1-0.7-1.6-0.7c-1.2,0-2.2,1-2.2,2.1
					c0,1.2,1,2.1,2.2,2.1c0.6,0,1.2-0.3,1.6-0.7l0.9,0.9c-0.6,0.7-1.5,1.1-2.5,1.1c-1.9,0-3.4-1.5-3.4-3.4
					C118,244.3,119.6,242.8,121.4,242.8L121.4,242.8z"/>
				<path fill="#EC1C24" d="M133,242.8c-1.5,0.9-2.6,3.7-2.7,6.8h1.1c0-0.3,0-0.6,0.1-1l2.9,0c0.1,0.3,0.1,0.6,0.1,0.9h1.1
					C135.6,246.5,134.5,243.7,133,242.8L133,242.8z"/>
				<path fill="#FFF100" d="M130.2,250.1L130.2,250.1c-0.1-0.1-0.1-0.1-0.2-0.2h1.7l0-0.3c0-0.1,0-0.3,0-0.4c0-0.1,0-0.1,0-0.2
					l0.6,0c-0.2,0.7-0.4,1.4-0.7,2.1c-1.4,0.6-2.8,1-4.2,1c0.1-0.1,0.2-0.2,0.2-0.2c0.1,0,0.2,0,0.2-0.1c0.1,0,0.1-0.1,0.1-0.1
					l0.1-0.2c0-0.1,0.5-0.4,0.5-0.3c0.2,0,0.4,0,0.6,0c0,0,0.2-0.2,0.3-0.2c0-0.1,0.1,0,0.1-0.1c0.1,0,0.1-0.1,0.1-0.1l0.1-0.1
					l0.1-0.1c0.1,0,0.3-0.2,0.3-0.1l0.1-0.1C130.2,250.4,130.2,250.2,130.2,250.1z"/>
				<path fill="#2E3191" d="M127.1,238.5l-0.1,0.4c0.3,0.1,0.3,0.2,0.2,0.3c-0.1,0.1,0,0.2,0.3,0.3c0.4,0.2,0.7,0.3,0.7,0.1
					l-0.1-0.4c-0.1-0.1,0-0.3,0-0.4c0.1-0.2,0-0.4-0.4-0.6C127.6,238.1,127.4,238.2,127.1,238.5z"/>
				<path fill="#2E3191" d="M126.7,238.7l0.5-0.4l0.1-0.5c-0.1-0.1-0.2-0.1-0.4-0.1c-0.1,0.2-0.2,0.3-0.3,0.5l-0.1,0.2
					C126.5,238.7,126.6,238.8,126.7,238.7z"/>
				<path fill="#2E3191" d="M133,245.1c-0.3,0.4-0.6,1-0.8,1.9h1.7C133.6,246.2,133.3,245.5,133,245.1L133,245.1z"/>
				<path fill="#FFF100" d="M133.4,246.7h-0.2c0-0.1,0-0.1,0-0.2h0.2C133.3,246.5,133.3,246.6,133.4,246.7z"/>
				<path fill="#FFF100" d="M132.8,246.3c0,0.1,0,0.2,0,0.3h-0.1C132.7,246.5,132.7,246.4,132.8,246.3z"/>
			</g>
		</g>
	</g>
	<path fill="#282828" d="M40,287.7c0,0-0.6,37.5-3.2,54.7c0,0,5,2.3,17.6,2.3c0,0,25.6,3,28.4-0.3l-0.8-37.7L40,287.7z"/>
	<path fill="#282828" d="M82.3,164.1v161.6H41.7c0,0-12.4-117.9,28.4-161.6H82.3z"/>
	<path fill="#282828" d="M220.1,292.2c0,0,0,38.4,4,51.2c0,0-9.4,2.5-22,2.5c0,0-23.6,1.8-26.4-1.5l0.8-37.7L220.1,292.2z"/>
	<path fill="#282828" d="M176.2,164.1v161.6h43.6c0,0,7.3-134-31.4-161.6H176.2z"/>
	<polygon fill="#2D2D2D" points="81.6,164 59.7,192.6 80.2,194.1 59.7,220.1 81.6,299.8 	"/>
	<polygon fill="#2D2D2D" points="176,164 197.9,192.6 177.3,194.1 197.9,220.1 176,299.8 	"/>
	<g>
		<path fill="#F4B07D" d="M167,147.8c0,0-6,20.3-38.3,20.3c-31.9,0-38.3-20.3-38.3-20.3s11.7,14.9,39.7,14.9
			C130,162.8,148.7,164.5,167,147.8z"/>
	</g>
	<path fill="#1C7363" d="M129.2,167.4c-0.8,0-1.5,0-2.3-0.1l0,0c-0.3,0-0.7,0-1,0l0,0c-1,0-2-0.1-2.9-0.1c0,0-0.1,0-0.1,0
		c-30.7-1.7-53.3-12.3-53.3-12.3l-0.5,9.5c21.2,14.5,41.8,17.9,52.4,18.6c2,0.2,4.1,0.2,5.7,0.2c1.1,0,1.6,0,1.6,0
		c30.7,0,58.4-18.6,58.4-18.6l0.1-10.2C164.8,164.4,147.1,167.6,129.2,167.4z"/>
</g>
</svg>
