<?xml version="1.0" encoding="utf-8"?>
<!-- Generator: Adobe Illustrator 16.0.0, SVG Export Plug-In . SVG Version: 6.00 Build 0)  -->
<!DOCTYPE svg PUBLIC "-//W3C//DTD SVG 1.1//EN" "http://www.w3.org/Graphics/SVG/1.1/DTD/svg11.dtd">
<svg version="1.1" id="Layer_1" xmlns="http://www.w3.org/2000/svg" xmlns:xlink="http://www.w3.org/1999/xlink" x="0px" y="0px"
	 width="875px" height="495.8px" viewBox="0 0 875 495.8" enable-background="new 0 0 875 495.8" xml:space="preserve">
<g>
	<line fill="none" stroke="#FFFFFF" stroke-width="3" stroke-miterlimit="10" x1="0.1" y1="183.1" x2="874.6" y2="183.1"/>
	<rect fill="#898989" width="874.6" height="129.1"/>
	<g>
		<g>
			<defs>
				<rect id="SVGID_1_" width="875" height="475"/>
			</defs>
			<clipPath id="SVGID_2_">
				<use xlink:href="#SVGID_1_"  overflow="visible"/>
			</clipPath>
			<rect clip-path="url(#SVGID_2_)" fill="#62A362" width="875" height="495.8"/>
		</g>
		<g>
			<defs>
				<rect id="SVGID_3_" width="875" height="475"/>
			</defs>
			<clipPath id="SVGID_4_">
				<use xlink:href="#SVGID_3_"  overflow="visible"/>
			</clipPath>
			<rect x="-1" y="-4" clip-path="url(#SVGID_4_)" fill="#6D6D6C" width="876" height="171"/>
		</g>
		<g>
			<defs>
				<rect id="SVGID_5_" width="875" height="475"/>
			</defs>
			<clipPath id="SVGID_6_">
				<use xlink:href="#SVGID_5_"  overflow="visible"/>
			</clipPath>
			<path clip-path="url(#SVGID_6_)" fill="#8C8C8C" d="M843.8,48.9c8.4-3.9,14.3-12.4,14.3-22.3c0-13.5-11-24.5-24.5-24.5
				c-13.5,0-24.5,11-24.5,24.5c0,9.9,5.9,18.4,14.3,22.3c-13.4,4.2-24.3,16.5-29.4,32.7c-5.1-16.2-16-28.5-29.4-32.7
				c8.4-3.9,14.3-12.4,14.3-22.3c0-13.5-11-24.5-24.5-24.5c-13.5,0-24.5,11-24.5,24.5c0,9.9,5.9,18.4,14.3,22.3
				C731,53.2,720.1,65.5,715,81.6c-5.1-16.2-16-28.5-29.4-32.7c8.4-3.9,14.3-12.4,14.3-22.3c0-13.5-11-24.5-24.5-24.5
				c-13.5,0-24.5,11-24.5,24.5c0,9.9,5.9,18.4,14.3,22.3c-13.4,4.2-24.3,16.5-29.4,32.7c-5.1-16.2-16-28.5-29.4-32.7
				c8.4-3.9,14.3-12.4,14.3-22.3c0-13.5-11-24.5-24.5-24.5c-13.5,0-24.5,11-24.5,24.5c0,9.9,5.9,18.4,14.3,22.3
				c-13.4,4.2-24.3,16.5-29.4,32.7c-5.1-16.2-16-28.5-29.4-32.7c8.4-3.9,14.3-12.4,14.3-22.3c0-13.5-11-24.5-24.5-24.5
				c-13.5,0-24.5,11-24.5,24.5c0,9.9,5.9,18.4,14.3,22.3c-13.4,4.2-24.3,16.5-29.4,32.7c-5.1-16.2-16-28.5-29.4-32.7
				c8.4-3.9,14.3-12.4,14.3-22.3c0-13.5-11-24.5-24.5-24.5c-13.5,0-24.5,11-24.5,24.5c0,9.9,5.9,18.4,14.3,22.3
				c-13.4,4.2-24.3,16.5-29.4,32.7c-5.1-16.2-16-28.5-29.4-32.7c8.4-3.9,14.3-12.4,14.3-22.3c0-13.5-11-24.5-24.5-24.5
				c-13.5,0-24.5,11-24.5,24.5c0,9.9,5.9,18.4,14.3,22.3c-13.4,4.2-24.3,16.5-29.4,32.7c-5.1-16.2-16-28.5-29.4-32.7
				c8.4-3.9,14.3-12.4,14.3-22.3c0-13.5-11-24.5-24.5-24.5c-13.5,0-24.5,11-24.5,24.5c0,9.9,5.9,18.4,14.3,22.3
				c-13.4,4.2-24.3,16.5-29.4,32.7c-5.1-16.2-16-28.5-29.4-32.7c8.4-3.9,14.3-12.4,14.3-22.3c0-13.5-11-24.5-24.5-24.5
				c-13.5,0-24.5,11-24.5,24.5c0,9.9,5.9,18.4,14.3,22.3c-13.4,4.2-24.3,16.5-29.4,32.7c-5.1-16.2-16-28.5-29.4-32.7
				c8.4-3.9,14.3-12.4,14.3-22.3c0-13.5-11-24.5-24.5-24.5c-13.5,0-24.5,11-24.5,24.5c0,9.9,5.9,18.4,14.3,22.3
				c-13.4,4.2-24.3,16.5-29.4,32.7c-5.1-16.2-16-28.5-29.4-32.7c8.4-3.9,14.3-12.4,14.3-22.3c0-13.5-11-24.5-24.5-24.5
				c-13.5,0-24.5,11-24.5,24.5c0,9.9,5.9,18.4,14.3,22.3C13.8,54.8,0,76.4,0,102.2c0,4.4,0.4,8.6,1.2,12.7h79.1c0,0,0,0,0,0h79.1
				h3.9h79.1c0,0,0,0,0,0h75.2h3.9h75.2c0,0,0,0,0,0h83c0,0,0,0,0,0h75.2h3.9h75.2h3.9H713h3.9h75.2h3.9h79.1
				c0.8-4.1,1.2-8.3,1.2-12.7C876.3,76.4,862.4,54.8,843.8,48.9z"/>
		</g>
		<g>
			<defs>
				<rect id="SVGID_7_" width="875" height="475"/>
			</defs>
			<clipPath id="SVGID_8_">
				<use xlink:href="#SVGID_7_"  overflow="visible"/>
			</clipPath>
			<rect x="-1" y="89" clip-path="url(#SVGID_8_)" fill="#8C8C8C" width="876" height="78"/>
		</g>
		<g>
			<defs>
				<rect id="SVGID_9_" width="875" height="475"/>
			</defs>
			<clipPath id="SVGID_10_">
				<use xlink:href="#SVGID_9_"  overflow="visible"/>
			</clipPath>
			<path clip-path="url(#SVGID_10_)" fill="#D1D1D1" d="M843.8,107.9c8.4-3.9,14.3-12.4,14.3-22.3c0-13.5-11-24.5-24.5-24.5
				c-13.5,0-24.5,11-24.5,24.5c0,9.9,5.9,18.4,14.3,22.3c-13.4,4.2-24.3,16.5-29.4,32.7c-5.1-16.2-16-28.5-29.4-32.7
				c8.4-3.9,14.3-12.4,14.3-22.3c0-13.5-11-24.5-24.5-24.5c-13.5,0-24.5,11-24.5,24.5c0,9.9,5.9,18.4,14.3,22.3
				c-13.4,4.2-24.3,16.5-29.4,32.7c-5.1-16.2-16-28.5-29.4-32.7c8.4-3.9,14.3-12.4,14.3-22.3c0-13.5-11-24.5-24.5-24.5
				c-13.5,0-24.5,11-24.5,24.5c0,9.9,5.9,18.4,14.3,22.3c-13.4,4.2-24.3,16.5-29.4,32.7c-5.1-16.2-16-28.5-29.4-32.7
				c8.4-3.9,14.3-12.4,14.3-22.3c0-13.5-11-24.5-24.5-24.5c-13.5,0-24.5,11-24.5,24.5c0,9.9,5.9,18.4,14.3,22.3
				c-13.4,4.2-24.3,16.5-29.4,32.7c-5.1-16.2-16-28.5-29.4-32.7c8.4-3.9,14.3-12.4,14.3-22.3c0-13.5-11-24.5-24.5-24.5
				c-13.5,0-24.5,11-24.5,24.5c0,9.9,5.9,18.4,14.3,22.3c-13.4,4.2-24.3,16.5-29.4,32.7c-5.1-16.2-16-28.5-29.4-32.7
				c8.4-3.9,14.3-12.4,14.3-22.3c0-13.5-11-24.5-24.5-24.5c-13.5,0-24.5,11-24.5,24.5c0,9.9,5.9,18.4,14.3,22.3
				c-13.4,4.2-24.3,16.5-29.4,32.7c-5.1-16.2-16-28.5-29.4-32.7c8.4-3.9,14.3-12.4,14.3-22.3c0-13.5-11-24.5-24.5-24.5
				c-13.5,0-24.5,11-24.5,24.5c0,9.9,5.9,18.4,14.3,22.3c-13.4,4.2-24.3,16.5-29.4,32.7c-5.1-16.2-16-28.5-29.4-32.7
				c8.4-3.9,14.3-12.4,14.3-22.3c0-13.5-11-24.5-24.5-24.5c-13.5,0-24.5,11-24.5,24.5c0,9.9,5.9,18.4,14.3,22.3
				c-13.4,4.2-24.3,16.5-29.4,32.7c-5.1-16.2-16-28.5-29.4-32.7c8.4-3.9,14.3-12.4,14.3-22.3c0-13.5-11-24.5-24.5-24.5
				c-13.5,0-24.5,11-24.5,24.5c0,9.9,5.9,18.4,14.3,22.3c-13.4,4.2-24.3,16.5-29.4,32.7c-5.1-16.2-16-28.5-29.4-32.7
				c8.4-3.9,14.3-12.4,14.3-22.3c0-13.5-11-24.5-24.5-24.5c-13.5,0-24.5,11-24.5,24.5c0,9.9,5.9,18.4,14.3,22.3
				c-13.4,4.2-24.3,16.5-29.4,32.7c-5.1-16.2-16-28.5-29.4-32.7c8.4-3.9,14.3-12.4,14.3-22.3c0-13.5-11-24.5-24.5-24.5
				c-13.5,0-24.5,11-24.5,24.5c0,9.9,5.9,18.4,14.3,22.3C13.8,113.8,0,135.4,0,161.2c0,4.4,0.4,8.6,1.2,12.7h79.1h3.9h75.2h3.9h75.2
				h3.9h75.2h3.9h75.2c0,0,0,0,0,0h83c0,0,0,0,0,0h75.2h3.9h75.2h3.9H713h3.9h75.2h3.9h79.1c0.8-4.1,1.2-8.3,1.2-12.7
				C876.3,135.4,862.4,113.8,843.8,107.9z"/>
		</g>
		<g>
			<defs>
				<rect id="SVGID_11_" width="875" height="475"/>
			</defs>
			<clipPath id="SVGID_12_">
				<use xlink:href="#SVGID_11_"  overflow="visible"/>
			</clipPath>
			<rect x="0.6" y="171.1" clip-path="url(#SVGID_12_)" fill="#231F20" width="875.5" height="135"/>
		</g>
		<g>
			<defs>
				<rect id="SVGID_13_" width="875" height="475"/>
			</defs>
			<clipPath id="SVGID_14_">
				<use xlink:href="#SVGID_13_"  overflow="visible"/>
			</clipPath>
			<rect x="-66.7" y="485.5" clip-path="url(#SVGID_14_)" fill="#231F20" width="875" height="29.4"/>
		</g>
		<g>
			<defs>
				<rect id="SVGID_15_" width="875" height="475"/>
			</defs>
			<clipPath id="SVGID_16_">
				<use xlink:href="#SVGID_15_"  overflow="visible"/>
			</clipPath>
			<g clip-path="url(#SVGID_16_)">
				<path fill="#776537" d="M576.1,232.5c0,0-5.7,2.1-5.6,11.7c0,3.2,1.7,11.7-4.3,12.2c0,0,7.4,0.9,9.6-3.9c0,0-0.4,8.7-3.9,10.9
					c0,0,20.4,8.7,23.9-10.9l-1.7-28.7C593.9,223.8,581.3,218.6,576.1,232.5z"/>
				<path fill="#776537" d="M699,232.5c0,0,5.7,2.1,5.6,11.7c0,3.2-1.7,11.7,4.4,12.2c0,0-7.4,0.9-9.6-3.9c0,0,0.4,8.7,3.9,10.9
					c0,0-20.4,8.7-23.9-10.9l1.7-28.7C681.2,223.8,693.8,218.6,699,232.5z"/>
				<g>
					<polygon fill="#B7B7B7" points="569,280.5 582.9,278.8 585,294.4 					"/>
					<polygon fill="#B7B7B7" points="706,280.5 692.1,278.8 689.9,294.4 					"/>
					<path fill="#F4B07D" d="M719.8,374.6H555.9c0,0,26.8-99.1,26.8-146.6c0-27.4,109.7-27.4,109.7,0
						C692.5,296.7,719.8,374.6,719.8,374.6z"/>
					<path fill="#776537" d="M576.1,232.9c0,0-5.7,2.1-5.6,11.7c0,3.2,1.7,11.7-4.3,12.1c0,0,7.4,0.9,9.5-3.9c0,0-0.4,8.7-3.9,10.8
						c0,0,20.4,8.7,23.9-10.8l-1.7-28.6C593.9,224.2,581.3,219,576.1,232.9z"/>
					<path fill="#776537" d="M698.8,232.9c0,0,5.7,2.1,5.6,11.7c0,3.2-1.7,11.7,4.3,12.1c0,0-7.4,0.9-9.5-3.9c0,0,0.4,8.7,3.9,10.8
						c0,0-20.4,8.7-23.9-10.8l1.7-28.6C681,224.2,693.6,219,698.8,232.9z"/>
					<g>
						<polygon fill="#B7B7B7" points="569,280.8 582.9,279.1 585,294.7 						"/>
						<polygon fill="#B7B7B7" points="705.8,280.8 692,279.1 689.8,294.7 						"/>
						<path fill="#F4B07D" d="M719.6,374.8H556c0,0,26.8-98.9,26.8-146.3c0-27.4,109.6-27.4,109.6,0
							C692.4,296.9,719.6,374.8,719.6,374.8z"/>
						<g>
							<path fill="#776537" d="M638.7,135.1c0,0-21.3-29.8-60.7,0.5c-15.9,12.2-23,63.1,3.8,89.9l58.2-65.1L638.7,135.1z"/>
							<path fill="#776537" d="M638.9,135.1c0,0,21.3-29.8,60.7,0.5c15.9,12.2,23,63.1-3.9,89.9l-58.2-65.1L638.9,135.1z"/>
							<path fill="#F4B07D" d="M689.1,169c0,0-18.4-23.6-53.5-23.1c-34.9-0.5-49.6,23.1-49.6,23.1c-12.2,20-8.6,82-8.6,82
								c0,30.6,42.5,55.1,60.4,55.1s60.5-22.8,60.5-55.1C698.4,251,701.4,189,689.1,169z"/>
							<g>
								<path opacity="0.1" fill="#232222" enable-background="new    " d="M665.3,272.1c0,0-4.5,16.5-28.5,16.5
									c-23.7,0-28.5-16.5-28.5-16.5s8.7,12.1,29.5,12.1C637.8,284.3,651.7,285.7,665.3,272.1z"/>
							</g>
							<g opacity="0.2">
								<path fill="#231F20" d="M652.7,220.1c0.2,0.2,0.4,0.4,0.5,0.6c0.2,0.2,0.3,0.4,0.5,0.6c0.3,0.4,0.6,0.8,0.8,1.3
									c0.1,0.2,0.2,0.5,0.3,0.7c0.1,0.2,0.2,0.5,0.2,0.8c0.1,0.3,0.1,0.5,0.1,0.8c0,0.3,0,0.6,0,0.9c0,0.3-0.1,0.6-0.2,0.9
									c-0.1,0.3-0.2,0.6-0.4,0.8c-0.2,0.2-0.3,0.5-0.5,0.7l-0.6,0.6c-0.2,0.2-0.4,0.3-0.7,0.5l-0.7,0.4l-1.4,0.6l0,0l-0.1,0
									c-0.6,0.1-1.2,0.3-1.8,0.5c-0.6,0.2-1.2,0.4-1.7,0.7c-0.5,0.3-1,0.6-1.4,1c-0.4,0.4-0.7,0.7-1,1.4c-0.4,0.6-0.8,1.3-1.5,1.8
									c-0.3,0.3-0.7,0.5-1,0.7c-0.4,0.2-0.7,0.3-1.1,0.4c-0.7,0.3-1.5,0.3-2.2,0.4c-0.7,0-1.4,0.1-2.2,0.1c-0.7,0-1.3,0-2-0.1
									c-0.7-0.1-1.5-0.2-2.2-0.5l-0.5-0.2c-0.2-0.1-0.4-0.2-0.5-0.3l-0.5-0.3c-0.2-0.1-0.3-0.2-0.5-0.4c-0.7-0.5-1.2-1.1-1.6-1.7
									l-0.3-0.4l-0.1-0.1l0-0.1c0-0.1,0,0.1,0,0.1l0,0l0,0l0,0l-0.1-0.2c-0.2-0.3-0.3-0.4-0.5-0.6c-0.4-0.4-0.9-0.7-1.4-1
									c-0.5-0.3-1.1-0.5-1.7-0.7c-0.6-0.2-1.2-0.4-1.8-0.5l-0.1,0l0,0l-1.4-0.6l-0.7-0.4c-0.2-0.1-0.5-0.3-0.7-0.5l-0.6-0.6
									c-0.2-0.2-0.4-0.5-0.5-0.7c-0.2-0.2-0.3-0.5-0.4-0.8c-0.1-0.3-0.2-0.6-0.2-0.9c-0.1-0.3-0.1-0.6,0-0.9
									c0-0.3,0.1-0.6,0.1-0.8c0.1-0.3,0.1-0.5,0.2-0.8c0.1-0.3,0.2-0.5,0.3-0.7c0.2-0.5,0.5-0.9,0.8-1.3c0.3-0.4,0.6-0.8,1-1.2
									c0.3-0.3,0.8-0.3,1,0c0.3,0.3,0.3,0.7,0,1l0,0c-0.3,0.3-0.5,0.7-0.8,1c-0.2,0.4-0.5,0.7-0.6,1.1c-0.1,0.2-0.2,0.4-0.2,0.6
									c-0.1,0.2-0.1,0.4-0.1,0.6c0,0.2-0.1,0.4-0.1,0.6c0,0.2,0,0.4,0,0.5c0,0.2,0.1,0.3,0.1,0.5c0.1,0.1,0.1,0.3,0.2,0.4
									c0.1,0.1,0.2,0.3,0.3,0.4l0.4,0.4c0.1,0.1,0.3,0.2,0.5,0.3l0.5,0.3l1.2,0.5l-0.2,0c0.8,0.1,1.4,0.3,2.1,0.5
									c0.7,0.2,1.4,0.5,2,0.8c0.7,0.3,1.3,0.7,1.9,1.3c0.3,0.3,0.7,0.7,0.8,0.9l0.2,0.2l0.1,0.2l0.1,0.1l0.3,0.4
									c0.4,0.5,0.7,0.9,1.1,1.2c0.1,0.1,0.2,0.2,0.3,0.2l0.4,0.2l0.4,0.2l0.4,0.1c0.5,0.2,1.1,0.2,1.7,0.3c0.6,0.1,1.3,0.1,2,0.1
									l1.8-0.1c0.6-0.1,1.2-0.1,1.7-0.3c0.3-0.1,0.6-0.1,0.8-0.3c0.2-0.1,0.5-0.2,0.7-0.4c0.4-0.3,0.7-0.7,1.1-1.2
									c0.3-0.5,0.8-1.3,1.4-1.8c0.6-0.5,1.2-0.9,1.9-1.3c0.7-0.3,1.3-0.6,2-0.8c0.7-0.2,1.4-0.4,2.1-0.5l-0.2,0l1.2-0.5l0.5-0.3
									c0.2-0.1,0.4-0.2,0.5-0.3l0.4-0.4c0.1-0.1,0.2-0.3,0.3-0.4c0.1-0.1,0.2-0.3,0.2-0.4c0.1-0.1,0.1-0.3,0.2-0.5
									c0.1-0.2,0.1-0.3,0-0.5c0-0.2,0-0.4-0.1-0.6c0-0.2-0.1-0.4-0.1-0.6c-0.1-0.2-0.1-0.4-0.2-0.6c-0.2-0.4-0.4-0.7-0.6-1.1
									c-0.1-0.2-0.2-0.4-0.4-0.5c-0.1-0.2-0.3-0.3-0.4-0.5c-0.3-0.3-0.3-0.8,0.1-1C652,219.8,652.4,219.8,652.7,220.1z"/>
							</g>
							<path fill="#2E230E" d="M610.8,209.3c0,1.8-1.5,3.3-3.3,3.3c-1.8,0-3.3-1.5-3.3-3.3c0-1.8,1.5-3.3,3.3-3.3
								C609.3,205.9,610.8,207.4,610.8,209.3z"/>
							<path fill="#593B2E" d="M590.1,208.1c0,0,11.4-10.9,27.5-6.7c0,0,4.6-2.7,0.6-4.4C618.2,197,599.1,193.7,590.1,208.1z"/>
							<path fill="#2E230E" d="M662.6,209.3c0,1.8,1.5,3.3,3.3,3.3c1.9,0,3.3-1.5,3.3-3.3c0-1.8-1.5-3.3-3.3-3.3
								C664.1,205.9,662.6,207.4,662.6,209.3z"/>
							<path fill="#593B2E" d="M683.8,201.3c0,0-12.3-9.8-28-4.1c0,0-4.8-2.3-1-4.4C654.7,192.8,673.5,187.8,683.8,201.3z"/>
							<path fill="#F4B07D" d="M582.5,214c0,0-11.5-18.8-15.6-1.4c-1.3,5.4-1.4,34.4,15.1,16.1"/>
							
								<path fill="none" stroke="#C18963" stroke-width="1.8347" stroke-linecap="round" stroke-linejoin="round" stroke-miterlimit="10" d="
								M575.2,214.5c0,0-6,4.6,0,11.5"/>
							<path fill="#F4B07D" d="M691.4,214c0,0,11.5-18.8,15.6-1.4c1.3,5.4,1.4,34.4-15.1,16.1"/>
							
								<path fill="none" stroke="#C18963" stroke-width="1.8347" stroke-linecap="round" stroke-linejoin="round" stroke-miterlimit="10" d="
								M698.7,214.5c0,0,6,4.6,0,11.5"/>
							
								<path fill="none" stroke="#C18963" stroke-width="1.392" stroke-linecap="round" stroke-linejoin="round" stroke-miterlimit="10" d="
								M647.7,250c0,0-11.3,7.3-22,0.4"/>
							<path fill="#776537" d="M575.7,148.9c0,0-6.7,40.2-5.8,40.5c0.9,0.3,32.4-16.4,32.4-16.4l36.5-12.7l54.3,16.7l11-4.6
								l-5.8-28.7l-52.9-5.5l-41.6,4.6L575.7,148.9z"/>
							<path opacity="0.3" fill="#231F20" enable-background="new    " d="M638.5,160.3c0,0,22,51.1,70.9,24.9
								c0,0-14.1-7.6-16.4-17.2"/>
							<path opacity="0.3" fill="#231F20" enable-background="new    " d="M638.2,160c0,0-13.2,38.6-61.5,25.7
								c0,0,11.1-5.3,15.1-14.4"/>
							<path fill="#776537" d="M638.8,160.3c0,0,20.6,44.2,67.1,24.3c0,0-10.6-7.8-12.8-17.4"/>
							<path fill="#776537" d="M638.2,160c0,0-16.9,31.2-56.6,24.6c0,0,8.7-7.3,10.2-15.7"/>
							<path fill="#776537" d="M619.7,123.5c0,0,7.4-2.6,4.9-13.5c0,0,8.3,7.9,8.3,15.9c0,0,3.4-16.5,10.4-19
								c0,0-2.6,21.7,18.8,15.3l-3.8,8.8L643,149.8l-28.1-5.2L619.7,123.5z"/>
						</g>
					</g>
				</g>
				
					<path fill="none" stroke="#F4B07D" stroke-width="33.5656" stroke-linecap="round" stroke-linejoin="round" stroke-miterlimit="10" d="
					M579,310.1c0,0-64.2,46.5-69.7,96.4c-5.7,51.6-2.9,64-2.9,91.3"/>
				<path fill="none" stroke="#282828" stroke-width="34.3731" stroke-linejoin="round" stroke-miterlimit="10" d="M579,310.1
					c0,0-64.2,46.5-69.7,96.4c-5.7,51.6-2.9,64-2.9,91.3"/>
				
					<path fill="none" stroke="#F4B07D" stroke-width="33.5656" stroke-linecap="round" stroke-linejoin="round" stroke-miterlimit="10" d="
					M697.6,310.9c0,0,64.2,46.6,69.7,96.4c5.7,51.6,2.9,64,2.9,91.3"/>
				<path fill="none" stroke="#282828" stroke-width="34.3731" stroke-linejoin="round" stroke-miterlimit="10" d="M697.6,310.9
					c0,0,64.2,46.6,69.7,96.4c5.7,51.6,2.9,64,2.9,91.3"/>
				
					<line fill="none" stroke="#2D2D2D" stroke-width="38.2231" stroke-linecap="round" stroke-linejoin="round" stroke-miterlimit="10" x1="600.3" y1="492.9" x2="600.3" y2="680.2"/>
				
					<line fill="none" stroke="#2D2D2D" stroke-width="38.2231" stroke-linecap="round" stroke-linejoin="round" stroke-miterlimit="10" x1="671.5" y1="492.9" x2="671.5" y2="680.2"/>
				<path fill="#F4B07D" d="M574.6,303.2c-9.8,41.7-28.7,38.4-28.7,108.9c0,86.8,0,71.2,0,73.4c0,0.2,9.5,0.2,9.5,0.2h82.4V303.2
					H574.6z"/>
				<path fill="#F4B07D" d="M698.1,303.2c9.8,41.7,28.6,38.4,28.6,108.9c0,86.8,0,71.2,0,73.4c0,0.2-9.5,0.2-9.5,0.2h-82.4V303.2
					H698.1z"/>
				<path fill="#2D2D2D" d="M636.3,561.5c50.3,0,91.1-31.3,91.1-81.6H545.2C545.2,530.2,586,561.5,636.3,561.5z"/>
				<rect x="545.9" y="480" fill="#161516" width="181.2" height="13.6"/>
				<rect x="624.4" y="480" fill="#D6D6D6" width="25.9" height="13.6"/>
				<rect x="573.8" y="301.1" fill="#FFFFFF" width="123.8" height="179.2"/>
				<path fill="#282828" d="M534.7,438.1c0,0-0.7,43.3-3.7,63.1c0,0,5.8,2.6,20.4,2.6c0,0,29.6,3.5,32.8-0.3l-0.9-43.4L534.7,438.1z
					"/>
				<path fill="#282828" d="M583.4,295.6V482h-46.8c0,0-14.3-136,32.7-186.4H583.4z"/>
				<path fill="#282828" d="M742.3,443.3c0,0,0,44.3,4.6,59.1c0,0-10.8,2.9-25.4,2.9c0,0-27.2,2-30.5-1.7l0.9-43.4L742.3,443.3z"/>
				<path fill="#282828" d="M691.7,295.6V482H742c0,0,8.5-154.5-36.2-186.4H691.7z"/>
				<polygon fill="#2D2D2D" points="582.6,295.5 557.4,328.5 581.1,330.2 557.4,360.2 582.6,452.1 				"/>
				<polygon fill="#2D2D2D" points="691.5,295.5 716.7,328.5 693,330.2 716.7,360.2 691.5,452.1 				"/>
				<g>
					<g>
						<polygon fill="#30AB64" points="618.4,301.9 636.9,320.4 656,301.9 637.3,297.1 						"/>
						<path fill="#30AB64" d="M643.3,312.5l-5.8-5.9V306l-0.3,0.3l-0.3-0.3l0,0.7l-5.8,5.8l-13.5,128.7c0,0,14.8,33.5,20,33.5
							c6.5,0,19.3-33.5,19.3-33.5L643.3,312.5z"/>
					</g>
					<polygon fill="#D6D6D6" points="574.2,282.3 637.9,297.1 618.2,318.2 569,295.6 569,280.5 					"/>
					<polygon fill="#D6D6D6" points="701,282.3 637.3,297.1 657,318.2 706.3,295.6 706.3,280.5 					"/>
				</g>
				<g>
					<path fill="#F4B07D" d="M681.1,276.8c0,0-7,23.4-44.2,23.4c-36.8,0-44.2-23.4-44.2-23.4s13.4,17.2,45.7,17.2
						C638.5,294.1,660,296.1,681.1,276.8z"/>
				</g>
				<g>
					
						<polyline fill="none" stroke="#FFCCB8" stroke-width="17.0228" stroke-linecap="square" stroke-linejoin="round" stroke-miterlimit="10" points="
						266.4,276.5 234.1,337.2 172.3,385.2 					"/>
					
						<polyline fill="none" stroke="#FFCCB8" stroke-width="17.0228" stroke-linecap="square" stroke-linejoin="round" stroke-miterlimit="10" points="
						266.4,276.5 234.1,337.2 172.3,385.2 					"/>
					
						<line fill="none" stroke="#D3340E" stroke-width="17.0367" stroke-linecap="square" stroke-linejoin="round" stroke-miterlimit="10" x1="211.2" y1="355" x2="172.3" y2="385.2"/>
					
						<line fill="none" stroke="#FFFFFF" stroke-width="18.5855" stroke-linecap="square" stroke-linejoin="round" stroke-miterlimit="10" x1="266.4" y1="276.5" x2="239.1" y2="327.7"/>
					<path fill="#1C1C1C" d="M169.4,377.1c4.8,22.3,3.8,41.4-2.1,42.6l-8.6-40.3L169.4,377.1z"/>
					<g>
						
							<line fill="none" stroke="#DB7E49" stroke-width="15.4128" stroke-linecap="round" stroke-linejoin="round" stroke-miterlimit="10" x1="295.6" y1="173.8" x2="397.9" y2="163"/>
						
							<line fill="none" stroke="#FFFFFF" stroke-width="15.4129" stroke-linejoin="round" stroke-miterlimit="10" x1="375.9" y1="165.3" x2="391.1" y2="163.7"/>
						
							<line fill="none" stroke="#238557" stroke-width="15.7291" stroke-linejoin="round" stroke-miterlimit="10" x1="295.6" y1="173.8" x2="336.6" y2="169.5"/>
						
							<line fill="none" stroke="#203F39" stroke-width="15.7291" stroke-linejoin="round" stroke-miterlimit="10" x1="295.6" y1="173.8" x2="317.2" y2="171.5"/>
						
							<line fill="none" stroke="#FFFFFF" stroke-width="15.965" stroke-linejoin="round" stroke-miterlimit="10" x1="308" y1="172.4" x2="321.1" y2="171.1"/>
					</g>
					<g>
						
							<line fill="none" stroke="#DB7E49" stroke-width="15.4128" stroke-linecap="round" stroke-linejoin="round" stroke-miterlimit="10" x1="244.8" y1="173.8" x2="142.5" y2="163"/>
						
							<line fill="none" stroke="#238557" stroke-width="15.7291" stroke-linejoin="round" stroke-miterlimit="10" x1="244.8" y1="173.8" x2="203.8" y2="169.5"/>
						
							<line fill="none" stroke="#203F39" stroke-width="15.7291" stroke-linejoin="round" stroke-miterlimit="10" x1="244.8" y1="173.8" x2="223.2" y2="171.5"/>
						
							<line fill="none" stroke="#FFFFFF" stroke-width="15.965" stroke-linejoin="round" stroke-miterlimit="10" x1="232.4" y1="172.4" x2="219.2" y2="171.1"/>
					</g>
					<polygon fill="#161616" points="247.3,162.1 253.2,161.3 254.1,167.9 					"/>
					<polygon fill="#161616" points="293.4,162.1 287.5,161.3 286.6,167.9 					"/>
					<path fill="#DB7E49" d="M301.5,200.1h-61c0,0,12-22.5,12-65.7c0-12.3,36.7-12.3,36.7,0C289.3,192.2,301.5,200.1,301.5,200.1z"
						/>
					<path opacity="0.1" fill="#231F20" enable-background="new    " d="M251.8,150.8c0,0,4.1,14.3,19.3,14.4c0,0,15.2,0,18.5-14
						L251.8,150.8z"/>
					<g>
						<path opacity="0.2" fill="#232222" enable-background="new    " d="M255.3,195.9c0,2.1-1.7,3.7-3.7,3.7c-2,0-3.7-1.7-3.7-3.7
							c0-2,1.7-3.7,3.7-3.7C253.7,192.2,255.3,193.8,255.3,195.9z"/>
						<path opacity="0.2" fill="#232222" enable-background="new    " d="M253.5,195.9c0,1-0.8,1.9-1.9,1.9c-1,0-1.9-0.8-1.9-1.9
							c0-1,0.8-1.9,1.9-1.9C252.7,194,253.5,194.9,253.5,195.9z"/>
					</g>
					<g>
						<circle opacity="0.2" fill="#232222" enable-background="new    " cx="289" cy="195.9" r="3.7"/>
						<path opacity="0.2" fill="#232222" enable-background="new    " d="M290.9,195.9c0,1-0.8,1.9-1.9,1.9s-1.9-0.8-1.9-1.9
							c0-1,0.8-1.9,1.9-1.9S290.9,194.9,290.9,195.9z"/>
					</g>
					<path fill="#203F39" d="M298,168.1h-27h-1.4h-27c-4.4,18.7-6.6,17.2-6.6,48.8c0,38.9,0,47.5,0,48.5c0,0.1,4.3,0.1,4.3,0.1h29.3
						h1.4h29.3c0,0,4.3,0,4.3-0.1c0-1,0-9.6,0-48.5C304.6,185.3,302.4,186.8,298,168.1z"/>
					<g>
						<path fill="#203F39" d="M247.2,198.9l-7.9-9.2c0,0,26.1,13.1,30.6,14.9c1.9-0.7,30.9-14.9,30.9-14.9l-7.9,9.2l10.8-5.3
							c-1-9.3-2.9-13.4-5.7-25.4h-27h-1.4h-27c-2.8,12.1-4.8,15.7-5.8,25.3L247.2,198.9z"/>
						<path fill="#238557" d="M287,202.8l6.1-7.8l-21.6,9.3l-24.4-9.3l6.1,7.8l-16.6-6.6c-0.4,4.9-0.6,11.4-0.6,20.7
							c0,38.9,0,47.5,0,48.5c0,0.1,4.3,0.1,4.3,0.1h29.3h1.4h29.3c0,0,4.3,0,4.3-0.1c0-1,0-9.6,0-48.5c0-9.6-0.2-16.2-0.6-21.1
							L287,202.8z"/>
					</g>
					<path fill="#203F39" d="M296.3,168.2c0,0-0.6-2.5-3-6.1c0,0-10.6,6.1-23.7,6.1v9.5L296.3,168.2z"/>
					<g>
						<polygon fill="#FFFFFF" points="270.1,206.2 249.8,197.2 255.8,204.5 236.4,199 236.3,201.8 262.9,209.7 256.5,201.9 
							269.5,207.2 						"/>
					</g>
					<g>
						<polygon fill="#FFFFFF" points="270.4,206.1 290.7,197.1 284.6,204.4 304.2,198.7 304.4,201.6 277.6,209.6 284,201.8 
							270.9,207.1 						"/>
					</g>
					<path fill="#203F39" d="M244.3,168.2c0,0,0.6-2.5,3-6.1c0,0,10.6,6.1,23.7,6.1v9.5L244.3,168.2z"/>
					<path fill="#203F39" d="M244,172.7l-0.8-2.7l-0.5-1.9l0-0.6l1.8-1l2.9,2.1l0.8,5l41.9-7.2l4.5,0.5c0,0,0.9-0.7,1.1-0.7
						c0.2,0.1-0.2,0.1,0.2,0.1c0.4,0,1.8,1,1.8,1l0.4,0.7l-0.5,2.9l-34.5,7.5L244,172.7z"/>
					<path fill="#203F39" d="M243.7,180l-0.8-2.7l-0.5-1.9l0-0.6l1.8-1l2.9,2.1l0.8,5l41.9-7.2l4.5,0.5c0,0,0.9-0.7,1.1-0.6
						c0.2,0.1-0.2,0.1,0.2,0.1c0.4,0,1.8,1,1.8,1l0.4,0.7l-0.5,2.9l-34.5,7.5L243.7,180z"/>
					<path fill="#D3340E" d="M269,203.7c0.1,0.3-29.6-14.1-29.6-14.1l7.9,9.2l-10.5-5.5l-0.1,2.9l16.6,6.5l-6.1-7.8l21.6,9.3
						L269,203.7z"/>
					<path fill="#D3340E" d="M271.2,203.7c-0.1,0.3,29.6-14.1,29.6-14.1l-7.9,9.2l10.8-5.6l0.2,2.8l-17,6.8l6.1-7.8l-21.6,9.3
						L271.2,203.7z"/>
					<g>
						<g>
							<g>
								<path fill="#D3340E" d="M274.7,208.5l-0.2-0.1c-0.1-0.1-0.1-0.2-0.1-0.2c0.8-1.5,0.5-3,0.5-3c-0.3-1.8-1.7-2.9-1.7-2.9
									c-0.2-0.1,0-0.3,0-0.3l0.2-0.2c0,0,0.2-0.2,0-0.3l-0.9-0.5c0,0,0,0,0,0c0,0,0-0.4-0.2-0.7c0,0-0.4-0.5-0.8-0.8
									c0,0-0.6-0.4-0.9-0.5c0,0-0.7-0.2-1.2-0.2c0,0-0.2,0-0.3,0.1c0,0,0,0.1,0,0.1c-0.1,0-0.2,0.1-0.2,0.1c0,0,0,0,0,0
									c0,0.1,0,0.1,0.2,0.2c0,0,0.3,0.1,0.3,0.3c0,0,0,0,0,0.1c0,0,0,0,0,0c0,0,0,0,0,0h0l0,0c0,0,0,0,0,0
									c-0.1-0.1-0.1-0.2-0.2-0.2c0,0-0.1-0.1-0.1-0.1c0,0-0.1,0-0.1-0.1c-0.1-0.1-0.1-0.1-0.1-0.2c0,0-0.1-0.1-0.1-0.1
									c0,0-0.1,0.1-0.2,0.1c-0.1,0-0.1,0.1-0.3,0.1c-0.1,0-0.3,0.1-0.3,0.1c0,0-0.2,0-0.2,0.2c-0.1,0.1,0,0.2,0.1,0.3
									c0.1,0.1,0.1,0.1,0.2,0.1c0,0,0-0.1,0.1-0.1c0,0,0.1,0,0.2,0.1c0.1,0,0.2,0,0.3,0c0.1,0,0.1,0.2,0,0.3
									c0,0.1-0.1,0.3-0.1,0.4c0,0,0,0.1,0,0.2c-0.1,0-0.1,0-0.2,0.1c-0.1,0.1-0.3,0.1-0.6,0.3c-0.3,0.2-0.8,0.6-0.8,0.6
									c-0.2,0.2,0,0.3,0,0.3l0.2,0.2c0,0,0.2,0.1,0,0.3c0,0-1.2,1-1.5,2.8c0,0-0.3,1.6,0.6,3.1c0,0,0.2,0.2,0,0.2l-0.2,0.2
									c0,0-0.2,0.2,0,0.4c0,0,1.1,1.3,2.1,1.6c0,0-0.4-0.4-0.6-0.9c0,0-0.1-0.1,0.1-0.2l0.5-0.1c0,0,0,0,0-0.1c0,0,0,0,0,0
									c0.1,0.2,0.2,0.4,0.3,0.6l0,0c0,0,0,0,0,0c0.5,0.6,1.2,1,2,1c1.1,0,2.1-0.7,2.4-1.7l0.2,0c0.2,0,0.4,0,0.4,0
									c-0.2,0.5-0.7,1.2-0.7,1.2c0.9-0.3,1.8-1.3,1.8-1.3C274.9,208.6,274.7,208.5,274.7,208.5z"/>
							</g>
							<path fill="#FFFFFF" d="M276.3,208.1c0.5-1.5,0.3-2.9,0.3-3.2c-0.2-1.4-0.9-2.4-1.5-3.1c0-0.1,0-0.3,0-0.4
								c-0.1-0.5-0.4-1-0.8-1.2l-0.3-0.2c-0.1-0.2-0.2-0.4-0.3-0.7c-0.1-0.2-0.6-0.8-1.3-1.2c-0.4-0.2-0.9-0.5-1.2-0.6
								c0,0-0.8-0.3-1.6-0.3c-0.1,0-0.2,0-0.2,0l0,0c-0.2,0-0.6,0.1-0.9,0.3c-0.1,0-0.3,0.1-0.4,0.1c0,0-0.1,0-0.1,0.1l0,0
								c-0.1,0-0.1,0-0.2,0.1c-0.5,0.1-1,0.4-1.3,0.9c-0.1,0.2-0.4,0.8-0.1,1.6c-0.1,0.1-0.2,0.2-0.3,0.2c-0.4,0.3-0.7,0.8-0.8,1.3
								c0,0.1,0,0.2,0,0.3c-0.5,0.6-1.1,1.6-1.2,3c-0.1,0.3-0.2,1.8,0.5,3.4c-0.1,0.5-0.1,1.2,0.4,1.7c0.3,0.3,1.5,1.7,2.9,2.1
								l1.3,0.3c0,0,1,0,1.3,0c0.4,0,1.5-0.1,1.5-0.1l1.3-0.4c1.3-0.4,2.4-1.6,2.6-1.8c0.4-0.5,0.8-1.1,0.7-2
								C276.3,208.2,276.3,208.1,276.3,208.1z"/>
							<path fill="none" stroke="#D3340E" stroke-width="0.735" stroke-miterlimit="10" d="M276.3,208.1c0.5-1.5,0.3-2.9,0.3-3.2
								c-0.2-1.4-0.9-2.4-1.5-3.1c0-0.1,0-0.3,0-0.4c-0.1-0.5-0.4-1-0.8-1.2l-0.3-0.2c-0.1-0.2-0.2-0.4-0.3-0.7
								c-0.1-0.2-0.6-0.8-1.3-1.2c-0.4-0.2-0.9-0.5-1.2-0.6c0,0-0.8-0.3-1.6-0.3c-0.1,0-0.2,0-0.2,0l0,0c-0.2,0-0.6,0.1-0.9,0.3
								c-0.1,0-0.3,0.1-0.4,0.1c0,0-0.1,0-0.1,0.1l0,0c-0.1,0-0.1,0-0.2,0.1c-0.5,0.1-1,0.4-1.3,0.9c-0.1,0.2-0.4,0.8-0.1,1.6
								c-0.1,0.1-0.2,0.2-0.3,0.2c-0.4,0.3-0.7,0.8-0.8,1.3c0,0.1,0,0.2,0,0.3c-0.5,0.6-1.1,1.6-1.2,3c-0.1,0.3-0.2,1.8,0.5,3.4
								c-0.1,0.5-0.1,1.2,0.4,1.7c0.3,0.3,1.5,1.7,2.9,2.1l1.3,0.3c0,0,1,0,1.3,0c0.4,0,1.5-0.1,1.5-0.1l1.3-0.4
								c1.3-0.4,2.4-1.6,2.6-1.8c0.4-0.5,0.8-1.1,0.7-2C276.3,208.2,276.3,208.1,276.3,208.1z"/>
						</g>
						<g>
							<g>
								<path fill="#231F20" d="M269,199.8c-0.1,0-0.2,0-0.2,0.1c0,0,0.1,0.3,0.2,0.3c0.2,0.3,0.8,0.5,1.2,0.4
									c0.3-0.1,0.6-0.8,0.4-1.1c-0.1-0.1-0.2-0.2-0.4-0.2c-0.3-0.1-0.5-0.3-0.8-0.3c0,0-0.5-0.1-0.5,0.1c0,0,0,0,0,0
									c0,0,0,0.1,0.2,0.2c0,0,0.3,0.1,0.3,0.3c0,0,0,0,0,0.1c0,0,0,0,0,0c0,0,0,0,0,0h0l0,0c0,0-0.1,0-0.1,0
									C269.1,199.7,269,199.8,269,199.8z"/>
								<g>
									<path fill="#FFFFFF" d="M269.5,199.7C269.5,199.7,269.5,199.7,269.5,199.7c0,0.1-0.1,0.1-0.2,0.1c0,0-0.1,0,0-0.1
										c0,0,0,0,0.1,0C269.4,199.7,269.5,199.7,269.5,199.7c-0.1-0.1-0.1-0.1-0.1-0.2c-0.1-0.1-0.2-0.1-0.3-0.2
										c0,0-0.3-0.1-0.2-0.3c0,0,0-0.1,0.6,0c0,0,0.7,0.3,0.9,0.4c0,0,0.1,0.1,0,0.1c0,0,0,0-0.3-0.1c0,0-0.6-0.3-0.8-0.2
										c0,0-0.1,0,0,0.1c0.1,0,0.1,0.1,0.2,0.2c0,0.1,0.1,0.1,0.1,0.2C269.5,199.6,269.5,199.7,269.5,199.7z"/>
									<path fill="#FFFFFF" d="M269.4,199.4c0,0.1,0.1,0.1,0.1,0.2c0,0.1,0.1,0.2,0.1,0.2c0,0,0,0,0,0c0,0,0,0,0,0c0,0,0,0,0,0
										c0,0,0,0.1,0,0.1c0,0,0,0.1,0.1,0.1c0,0,0,0.1,0.1,0.1c0,0,0,0,0,0c0,0,0-0.1,0-0.1c0,0,0,0,0-0.1c0,0,0,0,0,0c0,0,0,0,0,0
										c0.1,0,0,0.1,0.1,0.1c0,0,0.1,0,0.1,0c0,0,0-0.1,0-0.1c0,0-0.1-0.1-0.1-0.1c0,0,0,0,0,0c0,0,0,0,0,0c0,0,0,0,0,0
										c0,0,0.1,0,0.1,0c0.1,0,0.1,0,0.2,0.1c0,0,0.2,0.2,0.4,0.2c0,0,0.1,0,0-0.1c0,0-0.5-0.2-0.5-0.2c0,0-0.1,0,0,0
										c0,0,0,0,0.4,0.1c0,0,0.2,0.1,0.3,0.1c0,0,0,0,0,0c0,0,0.1-0.1-0.5-0.2c0,0-0.1,0-0.1-0.1c0,0,0,0,0.2,0
										c0,0,0.2,0.1,0.4,0.1c0,0,0.1,0,0.1,0c0,0,0-0.1-0.3-0.1c0,0-0.2-0.1-0.3-0.1C269.9,199.5,269.3,199.2,269.4,199.4z"/>
								</g>
							</g>
							<ellipse fill="#FFFFFF" cx="270.1" cy="205.8" rx="4.3" ry="4.4"/>
							<path fill="#231F20" stroke="#231F20" stroke-width="1.970000e-02" d="M272,206c0,1-0.9,1.8-1.9,1.8c-1,0-1.8-0.7-1.9-1.7v0
								c0-0.1,0.1,0,0.1,0c0.1,0.1,0.1,0,0.1,0v-0.2c0-0.1-0.1,0-0.1,0c-0.1,0.1-0.1,0-0.1,0c0-1,0.9-1.8,1.9-1.8
								c1,0,1.8,0.8,1.9,1.8c0,0,0,0-0.1,0c0,0-0.1-0.1-0.1,0c0,0,0,0.1,0,0.2C271.9,205.9,271.9,206.1,272,206
								C272,206,272,205.9,272,206L272,206z"/>
							<circle fill="#FFFFFF" stroke="#231F20" stroke-width="1.970000e-02" cx="270.2" cy="205.9" r="1.4"/>
							<path fill="#231F20" stroke="#231F20" stroke-width="0.1181" d="M268.1,203.4c0,0,0.2,0.3-0.2,0.7c0,0-0.7,0.6-0.7,1.8
								c0,0,0,1,0.4,1.4c0,0,0.3,0.4,0.1,0.7c0,0-0.1,0.2-0.4,0.2c0,0-0.2,0-0.4-0.4c0,0-0.7-1.3-0.4-2.7c0,0,0.3-1.3,0.9-1.8
								C267.5,203.3,267.8,203.1,268.1,203.4z"/>
							<path fill="#231F20" stroke="#231F20" stroke-width="0.1181" d="M272.1,203.3c0,0-0.2,0.3,0.2,0.7c0,0,0.7,0.6,0.8,1.8
								c0,0,0,1-0.3,1.5c0,0-0.3,0.4-0.1,0.7c0,0,0.1,0.2,0.4,0.2c0,0,0.2,0,0.4-0.4c0,0,0.6-1.3,0.2-2.7c0,0-0.4-1.3-1-1.7
								C272.7,203.2,272.4,202.9,272.1,203.3z"/>
							<path fill="#008240" d="M268.1,203.4c0,0,0.2,0.3-0.2,0.7c0,0-0.7,0.6-0.7,1.8c0,0,0,1,0.4,1.4c0,0,0.3,0.4,0.1,0.7
								c0,0-0.1,0.2-0.4,0.2c0,0-0.2,0-0.4-0.4c0,0-0.7-1.2-0.4-2.7c0,0,0.3-1.3,0.9-1.8C267.4,203.4,267.8,203.1,268.1,203.4z"/>
							<path fill="#FD1813" d="M272.1,203.3c0,0-0.2,0.3,0.2,0.7c0,0,0.7,0.6,0.8,1.8c0,0,0,1-0.3,1.5c0,0-0.3,0.4-0.1,0.7
								c0,0,0.1,0.2,0.4,0.2c0,0,0.2,0,0.4-0.4c0,0,0.6-1.3,0.2-2.7c0,0-0.4-1.2-1-1.7C272.8,203.2,272.4,203,272.1,203.3z"/>
							<g>
								<g>
									<path fill="none" stroke="#231F20" stroke-width="4.720000e-02" d="M268.4,203.6c0,0,0,0.2,0.3,0.3"/>
									<path fill="none" stroke="#231F20" stroke-width="4.720000e-02" d="M268.2,203.7c0,0,0.2,0.3,0.3,0.3"/>
								</g>
								<g>
									<path fill="none" stroke="#231F20" stroke-width="4.720000e-02" d="M268,204L268,204c0.1,0.1,0.2,0.1,0.1,0.2l-0.1,0.1"/>
									<path fill="none" stroke="#231F20" stroke-width="4.720000e-02" d="M268.1,204l0.1,0.1c0,0,0.1,0.1,0,0.2l-0.1,0.1"/>
								</g>
								<g>
									<path fill="none" stroke="#231F20" stroke-width="4.720000e-02" d="M267.7,204.5L267.7,204.5c0.1,0,0.2,0.1,0.2,0.2
										l-0.1,0.1"/>
									<path fill="none" stroke="#231F20" stroke-width="4.720000e-02" d="M267.8,204.4l0.1,0.1c0,0,0.2,0,0.1,0.2l-0.1,0.2"/>
								</g>
								<g>
									<path fill="none" stroke="#231F20" stroke-width="4.720000e-02" d="M267.5,204.9l0.1,0c0,0,0.1,0,0.1,0.1l0,0.1"/>
									<path fill="none" stroke="#231F20" stroke-width="4.720000e-02" d="M267.5,204.8l0.1,0c0,0,0.2,0,0.1,0.2l0,0.2"/>
								</g>
								<g>
									<path fill="none" stroke="#231F20" stroke-width="4.720000e-02" d="M267.4,205.4l0.1,0c0,0,0.1,0,0.1,0.1l0,0.1"/>
									<path fill="none" stroke="#231F20" stroke-width="4.720000e-02" d="M267.4,205.3l0.1,0c0,0,0.2,0,0.1,0.1l0,0.2"/>
								</g>
								<g>
									<path fill="none" stroke="#231F20" stroke-width="4.720000e-02" d="M267.3,205.9l0.1,0c0,0,0.1,0,0.1,0.1l0,0.1"/>
									<path fill="none" stroke="#231F20" stroke-width="4.720000e-02" d="M267.4,205.8l0.1,0c0,0,0.2,0,0.2,0.1l0,0.2"/>
								</g>
								<g>
									<path fill="none" stroke="#231F20" stroke-width="4.720000e-02" d="M267.4,206.4l0.1,0c0,0,0.1,0,0.1,0.1l0,0.1"/>
									<path fill="none" stroke="#231F20" stroke-width="4.720000e-02" d="M267.4,206.3l0.1,0c0,0,0.2,0,0.2,0.1l0,0.2"/>
								</g>
								<g>
									<path fill="none" stroke="#231F20" stroke-width="4.720000e-02" d="M267.5,206.9L267.5,206.9c0.1,0,0.2-0.1,0.2,0l0.1,0.1"
										/>
									<path fill="none" stroke="#231F20" stroke-width="4.720000e-02" d="M267.5,206.8l0.1-0.1c0,0,0.1-0.1,0.2,0l0.1,0.2"/>
								</g>
								<g>
									<path fill="none" stroke="#231F20" stroke-width="4.720000e-02" d="M267.8,207.4L267.8,207.4c0.1-0.1,0.2-0.1,0.2,0
										l0.1,0.1"/>
									<path fill="none" stroke="#231F20" stroke-width="4.720000e-02" d="M267.7,207.3l0.1-0.1c0,0,0.1-0.1,0.2,0l0.1,0.2"/>
								</g>
								<path fill="none" stroke="#231F20" stroke-width="4.720000e-02" d="M271.8,203.4c0,0,0,0.2-0.3,0.3"/>
								<path fill="none" stroke="#231F20" stroke-width="4.720000e-02" d="M272,203.6c0,0-0.2,0.3-0.3,0.3"/>
								<path fill="none" stroke="#231F20" stroke-width="4.720000e-02" d="M272.2,203.9L272.2,203.9c-0.1,0.1-0.2,0.1-0.1,0.2
									l0.1,0.1"/>
								<path fill="none" stroke="#231F20" stroke-width="4.720000e-02" d="M272.1,203.9l-0.1,0.1c0,0-0.1,0.1,0,0.2l0.1,0.1"/>
								<path fill="none" stroke="#231F20" stroke-width="4.720000e-02" d="M271.2,203.3l0,0.1c0,0,0,0.1,0.1,0.1l0.1,0"/>
								<path fill="none" stroke="#231F20" stroke-width="4.720000e-02" d="M271.1,203.3l0,0.1c0,0-0.1,0.1,0.1,0.2l0.2,0.1"/>
								<path fill="none" stroke="#231F20" stroke-width="4.720000e-02" d="M272.5,204.3L272.5,204.3c-0.1,0-0.2,0.1-0.2,0.2
									l0.1,0.1"/>
								<path fill="none" stroke="#231F20" stroke-width="4.720000e-02" d="M272.5,204.3l-0.1,0.1c0,0-0.2,0-0.1,0.2l0.1,0.2"/>
								<path fill="none" stroke="#231F20" stroke-width="4.720000e-02" d="M272.7,204.8L272.7,204.8c-0.1,0-0.2,0.1-0.2,0.2l0,0.1"
									/>
								<path fill="none" stroke="#231F20" stroke-width="4.720000e-02" d="M272.7,204.7l-0.1,0.1c0,0-0.2,0-0.1,0.2l0.1,0.2"/>
								<path fill="none" stroke="#231F20" stroke-width="4.720000e-02" d="M272.9,205.3L272.9,205.3c-0.1,0-0.2,0-0.2,0.1l0,0.1"/>
								<path fill="none" stroke="#231F20" stroke-width="4.720000e-02" d="M272.9,205.2l-0.1,0c0,0-0.2,0-0.1,0.1l0,0.2"/>
								<path fill="none" stroke="#231F20" stroke-width="4.720000e-02" d="M273,205.8h-0.1c0,0-0.1,0-0.1,0.1l0,0.1"/>
								<path fill="none" stroke="#231F20" stroke-width="4.720000e-02" d="M273,205.7l-0.1,0c0,0-0.2,0-0.2,0.1v0.2"/>
								<path fill="none" stroke="#231F20" stroke-width="4.720000e-02" d="M273,206.3l-0.1,0c0,0-0.1,0-0.1,0.1l0,0.1"/>
								<path fill="none" stroke="#231F20" stroke-width="4.720000e-02" d="M273,206.2l-0.1,0c0,0-0.2,0-0.2,0.1l0,0.2"/>
								<path fill="none" stroke="#231F20" stroke-width="4.720000e-02" d="M272.8,206.8l-0.1,0c0,0-0.1,0-0.1,0.1l0,0.1"/>
								<path fill="none" stroke="#231F20" stroke-width="4.720000e-02" d="M272.8,206.7l-0.1,0c0,0-0.2-0.1-0.2,0.1l0,0.2"/>
								<path fill="none" stroke="#231F20" stroke-width="4.720000e-02" d="M272.7,207.3L272.7,207.3c-0.1,0-0.2-0.1-0.2,0l-0.1,0.1
									"/>
								<path fill="none" stroke="#231F20" stroke-width="4.720000e-02" d="M272.7,207.2l-0.1-0.1c0,0-0.1-0.1-0.2,0l-0.1,0.2"/>
								<path fill="none" stroke="#231F20" stroke-width="4.720000e-02" d="M268.9,203.4L268.9,203.4c0,0.1,0.1,0.2,0,0.2l-0.1,0.1"
									/>
							</g>
							<g>
								
									<ellipse transform="matrix(-0.2905 -0.9569 0.9569 -0.2905 152.4146 520.6679)" fill="#231F20" cx="269.2" cy="203.8" rx="0.1" ry="0"/>
								<g>
									<circle fill="#231F20" cx="271" cy="203.7" r="0"/>
									<g>
										<path fill="#231F20" d="M268.2,205.1C268.2,205.1,268.1,205.2,268.2,205.1C268.1,205.2,268.1,205.1,268.2,205.1
											C268.1,205.1,268.1,205.1,268.2,205.1C268.2,205.1,268.2,205.1,268.2,205.1z"/>
										<g>
											<path fill="#231F20" d="M268.7,204.1C268.7,204.1,268.7,204.1,268.7,204.1C268.7,204.2,268.7,204.2,268.7,204.1
												C268.6,204.2,268.6,204.2,268.7,204.1C268.6,204.1,268.6,204.1,268.7,204.1C268.7,204.1,268.7,204.1,268.7,204.1z"/>
											<path fill="#231F20" d="M268.1,204.8C268.1,204.8,268.1,204.8,268.1,204.8C268.1,204.8,268.1,204.9,268.1,204.8
												C268.1,204.9,268.1,204.9,268.1,204.8C268,204.8,268.1,204.8,268.1,204.8C268.1,204.8,268.1,204.8,268.1,204.8z"/>
											<path fill="#231F20" d="M267.9,205.7C267.9,205.6,267.9,205.7,267.9,205.7C267.9,205.7,267.9,205.7,267.9,205.7
												C267.9,205.7,267.9,205.7,267.9,205.7C267.8,205.7,267.8,205.7,267.9,205.7C267.8,205.7,267.9,205.7,267.9,205.7z"/>
											<path fill="#231F20" d="M267.9,206.6C267.9,206.6,267.9,206.6,267.9,206.6C268,206.6,268,206.6,267.9,206.6
												C268,206.7,268,206.7,267.9,206.6C267.9,206.7,267.9,206.6,267.9,206.6C267.9,206.6,267.9,206.6,267.9,206.6z"/>
											<path fill="#231F20" d="M271.5,204C271.5,204,271.5,204,271.5,204C271.5,204.1,271.5,204.1,271.5,204
												C271.6,204.1,271.6,204.1,271.5,204C271.6,204,271.6,204,271.5,204C271.5,204,271.5,204,271.5,204z"/>
											<path fill="#231F20" d="M272.2,204.7C272.1,204.7,272.1,204.7,272.2,204.7C272.1,204.7,272.1,204.8,272.2,204.7
												C272.2,204.8,272.2,204.8,272.2,204.7C272.2,204.7,272.2,204.7,272.2,204.7C272.2,204.7,272.2,204.7,272.2,204.7z"/>
											<path fill="#231F20" d="M272.5,205.5C272.5,205.5,272.4,205.5,272.5,205.5C272.4,205.6,272.4,205.6,272.5,205.5
												C272.5,205.6,272.5,205.6,272.5,205.5C272.5,205.6,272.5,205.6,272.5,205.5C272.5,205.5,272.5,205.5,272.5,205.5z"/>
											<path fill="#231F20" d="M272.5,206.5C272.5,206.5,272.4,206.5,272.5,206.5C272.4,206.5,272.4,206.5,272.5,206.5
												C272.4,206.6,272.5,206.6,272.5,206.5C272.5,206.5,272.5,206.5,272.5,206.5C272.5,206.5,272.5,206.5,272.5,206.5z"/>
											<g>
												
													<ellipse transform="matrix(-0.4116 -0.9114 0.9114 -0.4116 194.2429 533.1763)" fill="#231F20" cx="269.2" cy="203.9" rx="0" ry="0.1"/>
												<circle fill="#231F20" cx="269.2" cy="203.8" r="0"/>
												<path fill="#231F20" d="M269.2,204.1c0,0-0.1-0.1,0-0.1c0,0,0.1-0.1,0.2,0c0,0,0,0.1,0,0.1c0,0,0,0,0,0c0,0,0-0.1-0.1,0
													C269.3,204,269.2,204,269.2,204.1C269.3,204.1,269.3,204.2,269.2,204.1z"/>
												<path fill="#231F20" d="M268.7,204.1l0.1-0.1c0,0,0-0.1,0.2-0.1c0,0,0,0,0,0l-0.1,0c0,0,0,0,0,0.1c0,0,0,0,0,0.1
													c0,0-0.1,0-0.1,0.1C268.9,204.2,268.8,204.2,268.7,204.1C268.8,204.1,268.8,204.1,268.7,204.1
													C268.7,204.1,268.7,204.1,268.7,204.1z"/>
												<path fill="#231F20" d="M268.1,204.8l0-0.2c0,0,0-0.1,0.1-0.1c0,0,0,0,0,0l-0.1,0c0,0,0,0,0,0.1c0,0,0,0,0,0.1
													c0,0,0,0.1,0,0.1C268.3,204.8,268.3,204.8,268.1,204.8C268.2,204.8,268.2,204.7,268.1,204.8
													C268.1,204.8,268.1,204.8,268.1,204.8z"/>
												<path fill="#231F20" d="M267.9,205.6l0-0.2c0,0,0-0.1,0.1-0.2c0,0,0,0,0,0l0,0.1c0,0,0,0,0.1,0c0,0,0,0,0,0.1
													c0,0,0,0.1,0,0.1C268,205.6,268,205.6,267.9,205.6C268,205.6,267.9,205.6,267.9,205.6
													C267.9,205.7,267.9,205.7,267.9,205.6z"/>
												<path fill="#231F20" d="M267.9,206.5l-0.1-0.1c0,0-0.1,0,0-0.2c0,0,0,0,0,0l0,0.1c0,0,0,0,0.1,0c0,0,0,0,0,0.1
													c0,0,0,0.1,0,0.1C268,206.4,268.1,206.5,267.9,206.5C268,206.5,268,206.5,267.9,206.5
													C268,206.6,267.9,206.6,267.9,206.5z"/>
												<path fill="#231F20" d="M268.3,204.1c0,0,0.1,0.1,0.1,0.1c0,0,0,0,0,0c0,0,0.2,0,0.2,0.1c0,0-0.1,0.2-0.1,0.1
													c0,0-0.1-0.1-0.1-0.2L268.3,204.1z"/>
												<path fill="#231F20" d="M267.7,206c0,0,0.1,0,0.2,0c0,0,0,0,0,0c0,0,0.1-0.1,0.2-0.1c0,0,0.1,0.2,0,0.1
													c0,0-0.1,0-0.1-0.1L267.7,206z"/>
												<path fill="#231F20" d="M268.6,204.6C268.6,204.6,268.6,204.7,268.6,204.6l0.1-0.1l0.1,0c0,0,0-0.1,0-0.1l-0.1,0
													c0,0,0,0.1-0.1,0.1L268.6,204.6z"/>
												<g>
													<path fill="#231F20" d="M268.1,205c0,0,0,0.1,0,0.1c0,0.1-0.1,0.1-0.1,0.1c0,0,0-0.1,0-0.1
														C268.1,205,268.1,204.9,268.1,205z"/>
													<path fill="#231F20" d="M268,205C268.1,205.1,268.1,205.1,268,205C268.1,205.1,268.1,205.1,268,205
														C268,205.1,268,205.1,268,205C268,205,268,205,268,205z"/>
													<circle fill="#231F20" cx="268" cy="205" r="0"/>
													<path fill="#231F20" d="M268.2,205.3C268.2,205.3,268.1,205.3,268.2,205.3c-0.1-0.1-0.1-0.3,0-0.3c0,0,0.1,0,0.1,0
														c0,0,0,0,0,0c0,0-0.1,0-0.1,0.1C268.2,205.1,268.2,205.2,268.2,205.3C268.2,205.2,268.3,205.3,268.2,205.3z"/>
												</g>
												<g>
													<path fill="#231F20" d="M268.1,206.7c0,0,0,0.1,0.1,0.1c0,0.1,0,0.1,0,0.1c0,0,0,0-0.1-0.1
														C268.1,206.7,268.1,206.7,268.1,206.7z"/>
													
														<ellipse transform="matrix(-0.9699 0.2434 -0.2434 -0.9699 578.4552 342.1977)" fill="#231F20" cx="268.1" cy="206.8" rx="0.1" ry="0"/>
													<circle fill="#231F20" cx="268" cy="206.8" r="0"/>
													<path fill="#231F20" d="M268.4,206.9c0,0-0.1,0.1-0.1,0c0,0-0.1-0.1,0-0.2c0,0,0.1,0,0.1,0c0,0,0,0,0,0
														c0,0-0.1,0,0,0.1C268.3,206.7,268.3,206.8,268.4,206.9C268.3,206.8,268.4,206.8,268.4,206.9z"/>
												</g>
												<path fill="#231F20" d="M268.2,206.8C268.2,206.8,268.2,206.8,268.2,206.8C268.2,206.8,268.2,206.8,268.2,206.8
													C268.2,206.8,268.2,206.7,268.2,206.8C268.2,206.7,268.2,206.7,268.2,206.8z"/>
												<path fill="#231F20" d="M268.2,205.8C268.2,205.8,268.2,205.9,268.2,205.8L268.2,205.8c-0.1,0.1-0.1,0.1-0.1,0.1l0,0
													c0,0,0,0,0,0L268.2,205.8C268.2,205.8,268.2,205.8,268.2,205.8L268.2,205.8z"/>
												<path fill="#231F20" d="M268.1,206C268.1,206.1,268.1,206.1,268.1,206L268.1,206c0.1,0.1,0.1,0.1,0.1,0.1l0,0
													c0,0,0,0,0-0.1L268.1,206C268.1,206,268.1,206,268.1,206L268.1,206z"/>
												
													<ellipse transform="matrix(-0.4042 0.9147 -0.9147 -0.4042 566.8761 38.3845)" fill="#231F20" cx="270.9" cy="203.8" rx="0" ry="0.1"/>
												
													<ellipse transform="matrix(-0.3173 0.9483 -0.9483 -0.3173 550.1555 11.4661)" fill="#231F20" cx="271" cy="203.8" rx="0.1" ry="0"/>
												<path fill="#231F20" d="M271,204c0,0,0.1-0.1,0-0.1c0,0-0.1-0.1-0.2,0c0,0,0,0.1,0,0.1c0,0,0,0,0,0c0,0,0-0.1,0.1,0
													C270.9,203.9,271,204,271,204C270.9,204,270.9,204.1,271,204z"/>
												<path fill="#231F20" d="M271.5,204l-0.1-0.1c0,0,0-0.1-0.2-0.1c0,0,0,0,0,0l0.1,0c0,0,0,0,0,0.1c0,0,0,0,0,0.1
													c0,0,0.1,0,0.1,0.1C271.3,204.1,271.4,204.1,271.5,204C271.4,204.1,271.4,204,271.5,204
													C271.5,204.1,271.5,204,271.5,204z"/>
												<path fill="#231F20" d="M272.1,204.7l-0.1-0.1c0,0,0-0.1-0.2-0.1c0,0,0,0,0,0l0.1,0c0,0,0,0,0,0.1c0,0,0,0,0,0.1
													c0,0,0,0,0,0.1C272,204.7,272,204.7,272.1,204.7C272,204.7,272.1,204.6,272.1,204.7
													C272.1,204.7,272.2,204.7,272.1,204.7z"/>
												<path fill="#231F20" d="M272.4,205.5l0-0.2c0,0,0-0.1-0.1-0.2c0,0,0,0,0,0l0,0.1c0,0,0,0-0.1,0c0,0,0,0,0,0.1
													c0,0,0,0.1,0,0.1C272.3,205.5,272.3,205.6,272.4,205.5C272.3,205.5,272.4,205.5,272.4,205.5
													C272.4,205.6,272.5,205.6,272.4,205.5z"/>
												<path fill="#231F20" d="M272.4,206.4l0-0.2c0,0,0.1-0.1-0.1-0.2c0,0,0,0,0,0l0,0.1c0,0,0,0-0.1,0c0,0,0,0,0,0.1
													c0,0,0,0.1,0,0.1C272.3,206.4,272.3,206.4,272.4,206.4C272.4,206.4,272.4,206.4,272.4,206.4
													C272.4,206.5,272.5,206.5,272.4,206.4z"/>
												<path fill="#231F20" d="M271.9,204.1c0,0-0.1,0.1-0.2,0.1c0,0,0,0,0,0c0,0-0.2,0-0.2,0.1c0,0,0.1,0.2,0.1,0.1
													c0,0,0.1-0.1,0.1-0.2L271.9,204.1z"/>
												<path fill="#231F20" d="M272.7,205.9c0,0-0.1,0-0.2,0c0,0,0,0,0,0c0,0-0.2-0.1-0.2-0.1c0,0-0.1,0.2,0,0.1
													c0,0,0.1,0,0.1-0.1L272.7,205.9z"/>
												<path fill="#231F20" d="M271.6,204.6C271.6,204.6,271.6,204.6,271.6,204.6l-0.1-0.1l-0.1,0c0,0,0-0.1,0-0.1l0.1,0
													c0,0,0,0.1,0.1,0.1L271.6,204.6z"/>
												<g>
													
														<ellipse transform="matrix(-0.9534 0.3016 -0.3016 -0.9534 593.4528 318.3882)" fill="#231F20" cx="272.1" cy="205" rx="0" ry="0.1"/>
													<path fill="#231F20" d="M272.2,204.9C272.2,205,272.1,205,272.2,204.9C272.2,205,272.2,205,272.2,204.9
														C272.2,205,272.3,205,272.2,204.9C272.3,204.9,272.2,204.9,272.2,204.9z"/>
													<path fill="#231F20" d="M272.2,204.9C272.2,204.9,272.2,205,272.2,204.9C272.3,205,272.3,205,272.2,204.9
														C272.3,205,272.3,204.9,272.2,204.9C272.3,204.9,272.3,204.9,272.2,204.9z"/>
													<path fill="#231F20" d="M272,205.2C272,205.2,272.1,205.2,272,205.2c0.1-0.1,0.1-0.3,0-0.3c0,0-0.1,0-0.1,0
														c0,0,0,0,0,0c0,0,0.1,0,0.1,0.1C272,205,272,205.1,272,205.2C272,205.1,271.9,205.2,272,205.2z"/>
												</g>
												
													<ellipse transform="matrix(0.264 0.9645 -0.9645 0.264 397.9968 -111.5509)" fill="#231F20" cx="272.1" cy="205" rx="0" ry="0"/>
												<g>
													
														<ellipse transform="matrix(-0.9328 -0.3604 0.3604 -0.9328 451.6481 497.6707)" fill="#231F20" cx="272.2" cy="206.7" rx="0" ry="0.1"/>
													
														<ellipse transform="matrix(-0.9669 -0.2551 0.2551 -0.9669 482.8313 476.1239)" fill="#231F20" cx="272.3" cy="206.8" rx="0.1" ry="0"/>
													<path fill="#231F20" d="M272.4,206.7C272.3,206.7,272.3,206.8,272.4,206.7C272.3,206.8,272.3,206.8,272.4,206.7
														C272.4,206.8,272.4,206.8,272.4,206.7C272.4,206.8,272.4,206.7,272.4,206.7z"/>
													<path fill="#231F20" d="M272,206.8c0,0,0.1,0.1,0.1,0c0,0,0.1-0.1,0-0.2c0,0-0.1,0-0.1,0c0,0,0,0,0,0c0,0,0.1,0,0,0.1
														C272.1,206.7,272.1,206.8,272,206.8C272,206.8,271.9,206.7,272,206.8z"/>
												</g>
												<path fill="#231F20" d="M272.2,206.7C272.1,206.7,272.1,206.8,272.2,206.7C272.2,206.8,272.2,206.8,272.2,206.7
													C272.2,206.7,272.2,206.7,272.2,206.7C272.2,206.7,272.2,206.7,272.2,206.7z"/>
												<path fill="#231F20" d="M272.1,205.7C272.1,205.7,272.1,205.8,272.1,205.7L272.1,205.7c0.1,0.1,0.1,0.1,0.1,0.1l0,0
													c0,0,0,0,0-0.1L272.1,205.7C272.2,205.7,272.1,205.7,272.1,205.7L272.1,205.7z"/>
												<path fill="#231F20" d="M272.2,205.9C272.3,205.9,272.2,206,272.2,205.9L272.2,205.9c-0.1,0.1-0.1,0.1-0.1,0.1l0,0
													c0,0,0,0,0,0L272.2,205.9C272.2,205.9,272.2,205.9,272.2,205.9L272.2,205.9z"/>
												<path fill="#231F20" d="M268.2,207.2l0-0.2c0,0,0,0,0,0l0.1,0"/>
											</g>
										</g>
									</g>
								</g>
							</g>
							<g>
								<path fill="#FFFFFF" d="M268.7,206.2C268.7,206.2,268.7,206.3,268.7,206.2L268.7,206.2c-0.1,0.1-0.2,0-0.2,0V206
									c0,0,0-0.1,0.1-0.1l0,0c0,0,0.1,0,0.1,0.1V206.2z"/>
								<path fill="#FFFFFF" d="M268.7,205.7C268.7,205.8,268.7,205.8,268.7,205.7L268.7,205.7c-0.1,0.1-0.2,0-0.2,0l0-0.2
									c0,0,0-0.1,0.1-0.1l0,0c0,0,0.1,0,0.1,0.1L268.7,205.7z"/>
								<path fill="#FFFFFF" d="M268.9,205.3c0,0-0.1,0.1-0.1,0l0,0c0,0-0.1-0.1,0-0.1l0.1-0.1c0,0,0.1-0.1,0.1,0l0,0
									c0,0,0.1,0.1,0,0.1L268.9,205.3z"/>
								<path fill="#FFFFFF" d="M269.1,205c0,0-0.1,0-0.1,0l0,0c0,0,0-0.1,0-0.1l0.1-0.1c0,0,0.1,0,0.1,0l0,0c0,0,0,0.1,0,0.1
									L269.1,205z"/>
								<path fill="#FFFFFF" d="M271.6,206.1C271.6,206.2,271.6,206.2,271.6,206.1L271.6,206.1c0.1,0.1,0.2,0,0.2,0V206
									c0-0.1,0-0.1-0.1-0.1l0,0c0,0-0.1,0-0.1,0.1V206.1z"/>
								<path fill="#FFFFFF" d="M271.6,205.7c0,0,0.1,0.1,0.1,0.1l0,0c0,0,0.1-0.1,0.1-0.1l0-0.2c0,0-0.1-0.1-0.1-0.1l0,0
									c0,0-0.1,0.1-0.1,0.1L271.6,205.7z"/>
								<path fill="#FFFFFF" d="M271.4,205.3c0,0,0.1,0.1,0.1,0l0,0c0,0,0.1-0.1,0-0.1l-0.1-0.1c0,0-0.1-0.1-0.1,0l0,0
									c0,0-0.1,0.1,0,0.1L271.4,205.3z"/>
								<path fill="#FFFFFF" d="M271.2,204.9c0,0,0.1,0,0.1,0l0,0c0,0,0-0.1,0-0.1l-0.1-0.1c0,0-0.1,0-0.1,0l0,0c0,0,0,0.1,0,0.1
									L271.2,204.9z"/>
								<path fill="#FFFFFF" d="M269.4,204.7c0,0-0.1,0-0.1,0l0,0c0,0,0-0.1,0-0.1l0.1-0.1c0,0,0.1,0,0.1,0l0,0c0,0,0,0.1,0,0.1
									L269.4,204.7z"/>
								<path fill="#FFFFFF" d="M270.8,204.7c0,0,0.1,0,0.1,0l0,0c0,0,0-0.1,0-0.1l-0.1-0.1c0,0-0.1,0-0.1,0l0,0c0,0,0,0.1,0,0.1
									L270.8,204.7z"/>
								<path fill="#FFFFFF" d="M269.8,204.5c0,0-0.1,0-0.1-0.1l0,0c0,0,0-0.1,0.1-0.1l0.2,0c0,0,0.1,0,0.1,0.1l0,0
									c0,0,0,0.1-0.1,0.1L269.8,204.5z"/>
								<path fill="#FFFFFF" d="M270.4,204.5C270.5,204.5,270.5,204.5,270.4,204.5L270.4,204.5c0.1-0.1,0.1-0.2,0-0.2l-0.2,0
									c0,0-0.1,0-0.1,0.1l0,0c0,0,0,0.1,0.1,0.1L270.4,204.5z"/>
								<path fill="#FFFFFF" d="M268.8,206.4C268.8,206.5,268.8,206.5,268.8,206.4l-0.1,0.1c0,0-0.1,0-0.1,0l0,0c0,0,0-0.1,0-0.1
									L268.8,206.4C268.8,206.4,268.8,206.4,268.8,206.4L268.8,206.4z"/>
								<path fill="#FFFFFF" d="M271.5,206.3C271.5,206.4,271.5,206.4,271.5,206.3l0.1,0.1c0,0,0.1,0,0.1,0l0,0c0,0,0-0.1,0-0.1
									L271.5,206.3C271.6,206.3,271.6,206.3,271.5,206.3L271.5,206.3z"/>
								<path fill="#FFFFFF" d="M268.6,206.5C268.6,206.5,268.5,206.5,268.6,206.5L268.6,206.5c-0.1,0.1-0.1,0.1-0.1,0l0-0.1
									c0,0,0-0.1,0.1-0.1l0,0c0,0,0.1,0,0.1,0.1L268.6,206.5z"/>
								<path fill="#FFFFFF" d="M268.5,205.6C268.5,205.6,268.5,205.7,268.5,205.6L268.5,205.6c-0.1,0.1-0.1,0-0.1,0l0-0.1
									c0,0,0-0.1,0.1-0.1l0,0c0,0,0.1,0,0.1,0.1L268.5,205.6z"/>
								<path fill="#FFFFFF" d="M268.6,206.6C268.6,206.7,268.6,206.7,268.6,206.6L268.6,206.6c-0.1,0.1-0.1,0-0.1,0l0,0
									C268.5,206.6,268.5,206.6,268.6,206.6L268.6,206.6C268.6,206.6,268.6,206.6,268.6,206.6L268.6,206.6z"/>
								<path fill="#FFFFFF" d="M268.6,205.3C268.6,205.3,268.6,205.3,268.6,205.3L268.6,205.3c-0.1,0.1-0.1,0-0.1,0v0
									C268.4,205.2,268.5,205.2,268.6,205.3L268.6,205.3C268.6,205.2,268.6,205.2,268.6,205.3L268.6,205.3z"/>
								<path fill="#FFFFFF" d="M269.2,204.5c0,0-0.1,0-0.1,0l0,0c0,0,0-0.1,0-0.1l0,0c0,0,0.1,0,0.1,0l0,0
									C269.2,204.5,269.2,204.5,269.2,204.5L269.2,204.5z"/>
								<path fill="#FFFFFF" d="M268.7,205.1C268.7,205.1,268.6,205.2,268.7,205.1L268.7,205.1c-0.1,0.1-0.1,0-0.1,0v0
									C268.5,205,268.6,205,268.7,205.1L268.7,205.1C268.6,205,268.7,205,268.7,205.1L268.7,205.1z"/>
								<path fill="#FFFFFF" d="M269,204.6C269,204.7,269,204.7,269,204.6L269,204.6c-0.1,0.1-0.1,0-0.1,0v0
									C268.9,204.6,268.9,204.5,269,204.6L269,204.6C269,204.5,269,204.6,269,204.6L269,204.6z"/>
								<path fill="#FFFFFF" d="M268.8,204.9C268.7,205,268.7,205,268.8,204.9L268.8,204.9c-0.1,0-0.2,0-0.1-0.1l0,0
									c0,0,0.1-0.1,0.1,0l0,0C268.8,204.9,268.8,204.9,268.8,204.9L268.8,204.9z"/>
								<path fill="#FFFFFF" d="M269.3,204.4c0,0-0.1,0-0.1,0l0,0c0,0,0-0.1,0-0.1l0,0c0,0,0.1,0,0.1,0l0,0
									C269.4,204.3,269.4,204.4,269.3,204.4L269.3,204.4z"/>
								<path fill="#FFFFFF" d="M269.5,204.3c0,0,0,0.1,0,0.1l0,0c0,0-0.1,0-0.1,0l0,0c0,0,0-0.1,0-0.1l0,0
									C269.5,204.2,269.5,204.2,269.5,204.3L269.5,204.3z"/>
								<path fill="#FFFFFF" d="M268.9,204.8c0,0-0.1,0.1-0.1,0l0,0c0,0-0.1-0.1,0-0.1l0,0c0,0,0.1-0.1,0.1,0l0,0
									C268.9,204.7,268.9,204.7,268.9,204.8L268.9,204.8L268.9,204.8z"/>
								<path fill="#FFFFFF" d="M269.8,204.2C269.8,204.2,269.8,204.3,269.8,204.2l-0.1,0.1c0,0-0.1,0-0.1-0.1l0,0
									c0,0,0-0.1,0.1-0.1L269.8,204.2C269.7,204.1,269.8,204.2,269.8,204.2L269.8,204.2z"/>
								<path fill="#FFFFFF" d="M271.8,206.3C271.8,206.4,271.8,206.4,271.8,206.3L271.8,206.3c0.1,0.1,0.1,0.1,0.1,0l0-0.1
									c0,0,0-0.1-0.1-0.1l0,0c0,0-0.1,0-0.1,0.1L271.8,206.3z"/>
								<path fill="#FFFFFF" d="M271.8,205.5C271.8,205.6,271.9,205.6,271.8,205.5L271.8,205.5c0.1,0.1,0.1,0,0.1,0l0-0.1
									c0,0,0-0.1-0.1-0.1l0,0c0,0-0.1,0.1,0,0.1L271.8,205.5z"/>
								<path fill="#FFFFFF" d="M271.8,206.5C271.7,206.5,271.8,206.6,271.8,206.5L271.8,206.5c0.1,0.1,0.1,0.1,0.1,0l0,0
									C271.9,206.5,271.9,206.5,271.8,206.5L271.8,206.5C271.8,206.5,271.8,206.5,271.8,206.5L271.8,206.5z"/>
								<path fill="#FFFFFF" d="M271.7,205.2C271.7,205.2,271.7,205.3,271.7,205.2L271.7,205.2c0.1,0.1,0.1,0,0.1,0v0
									C271.8,205.1,271.8,205.1,271.7,205.2L271.7,205.2C271.7,205.1,271.7,205.1,271.7,205.2L271.7,205.2z"/>
								<path fill="#FFFFFF" d="M271.1,204.5c0,0,0.1,0,0.1,0l0,0c0,0,0-0.1,0-0.1l0,0c0,0-0.1,0-0.1,0l0,0
									C271,204.4,271,204.5,271.1,204.5L271.1,204.5z"/>
								<path fill="#FFFFFF" d="M271.6,205C271.6,205,271.6,205.1,271.6,205L271.6,205c0.1,0.1,0.1,0,0.1,0v0
									C271.7,205,271.7,204.9,271.6,205L271.6,205C271.6,204.9,271.6,205,271.6,205L271.6,205z"/>
								<path fill="#FFFFFF" d="M271.2,204.6C271.2,204.6,271.2,204.6,271.2,204.6L271.2,204.6c0.1,0.1,0.1,0,0.1,0v0
									C271.3,204.5,271.3,204.5,271.2,204.6L271.2,204.6C271.2,204.5,271.2,204.5,271.2,204.6L271.2,204.6z"/>
								<path fill="#FFFFFF" d="M271.5,204.9C271.5,204.9,271.6,204.9,271.5,204.9L271.5,204.9c0.1,0,0.2,0,0.1-0.1l0,0
									c0,0-0.1-0.1-0.1,0l0,0C271.5,204.8,271.5,204.8,271.5,204.9L271.5,204.9z"/>
								<path fill="#FFFFFF" d="M270.9,204.4c0,0,0.1,0,0.1,0l0,0c0,0,0-0.1,0-0.1l0,0c0,0-0.1,0-0.1,0l0,0
									C270.8,204.3,270.8,204.4,270.9,204.4L270.9,204.4z"/>
								<path fill="#FFFFFF" d="M270.7,204.2c0,0,0,0.1,0,0.1l0,0c0,0,0.1,0,0.1,0l0,0c0,0,0-0.1,0-0.1l0,0
									C270.8,204.2,270.7,204.2,270.7,204.2L270.7,204.2z"/>
								<path fill="#FFFFFF" d="M271.4,204.7c0,0,0.1,0.1,0.1,0l0,0c0,0,0.1-0.1,0-0.1l0,0c0,0-0.1-0.1-0.1,0l0,0
									C271.4,204.6,271.3,204.7,271.4,204.7L271.4,204.7z"/>
								<path fill="#FFFFFF" d="M270.4,204.2C270.4,204.2,270.5,204.3,270.4,204.2l0.1,0.1c0,0,0.1,0,0.1-0.1l0,0c0,0,0-0.1-0.1-0.1
									L270.4,204.2C270.5,204.1,270.5,204.1,270.4,204.2L270.4,204.2z"/>
							</g>
							<path fill="#231F20" stroke="#231F20" stroke-width="1.970000e-02" d="M269.1,206.4c0-0.1-0.1-0.1-0.1-0.1
								c-0.2,0-0.2-0.4-0.2-0.4c0-0.5,0.3-0.3,0.3-0.3c0.1,0,0.1-0.1,0.1-0.1l-0.2-0.3c-0.1-0.1,0.5-0.3,0.5-0.3
								c0.2-0.1,0.2,0,0.2,0l0.1,0.2c0,0.1,0.1,0,0.1,0l0.2-0.4v-0.1h0.1v0.1l0.2,0.4c0,0,0,0.1,0.1,0l0.1-0.2c0,0,0-0.1,0.1,0
								l0.5,0.2c0,0,0.1,0,0,0.3l-0.1,0.2c0,0-0.1,0.1,0.1,0.1c0,0,0.3-0.1,0.3,0c0,0,0.1,0.3,0,0.4c0,0,0,0.2-0.2,0.2
								c0,0-0.1,0,0,0.1c0,0-0.3-0.2-1-0.2C270.2,206.1,269.8,206.1,269.1,206.4z"/>
							<path fill="#FFFFFF" d="M269.8,205.1l-0.1-0.1c0,0,0-0.1-0.3,0c0,0-0.2,0.1-0.2,0.1c0,0-0.1,0,0,0.2l0.1,0.2
								c0,0,0.1,0.1,0,0.2c0,0-0.2,0-0.2,0c0,0-0.2-0.1-0.2,0.1c0,0-0.1,0.5,0.2,0.4c0,0,0.1-0.1,0.2-0.1c0,0,0,0,0,0
								c0,0,0,0.1,0.2,0c0,0,0.1,0,0-0.1c0,0-0.1-0.5,0.3-0.7C269.8,205.4,269.9,205.3,269.8,205.1z"/>
							<path fill="#FFFFFF" d="M270.5,205.1l0.1-0.2c0,0,0-0.1,0.3,0c0,0,0.2,0.1,0.2,0.1c0,0,0.1,0,0,0.2l-0.1,0.3
								c0,0-0.1,0.1,0,0.1c0,0,0.1,0,0.2,0c0,0,0.2-0.1,0.2,0.1c0,0,0.1,0.5-0.2,0.4c0,0-0.1-0.1-0.2,0c0,0,0,0,0,0c0,0,0,0.1-0.1,0
								c0,0-0.1,0,0-0.1c0,0,0.1-0.5-0.3-0.7C270.5,205.3,270.4,205.3,270.5,205.1z"/>
							<g>
								
									<ellipse transform="matrix(0.3085 -0.9512 0.9512 0.3085 -9.3969 397.9721)" fill="#231F20" cx="269" cy="205.4" rx="0.1" ry="0.1"/>
								
									<ellipse transform="matrix(0.3181 0.9481 -0.9481 0.3181 379.7194 -117.1106)" fill="#231F20" cx="271.3" cy="205.4" rx="0.1" ry="0.1"/>
								<circle fill="#231F20" cx="269.3" cy="205.2" r="0"/>
								<path fill="#231F20" d="M269.7,205.1C269.7,205.1,269.7,205.1,269.7,205.1C269.6,205.1,269.6,205.1,269.7,205.1
									C269.6,205,269.6,205,269.7,205.1C269.7,205,269.7,205,269.7,205.1z"/>
								<circle fill="#231F20" cx="269.1" cy="205.8" r="0"/>
								<circle fill="#231F20" cx="269.3" cy="205.8" r="0"/>
								<path fill="#231F20" d="M269.4,205.9C269.4,206,269.4,206,269.4,205.9C269.4,206,269.3,206,269.4,205.9
									C269.3,205.9,269.4,205.9,269.4,205.9C269.4,205.9,269.4,205.9,269.4,205.9z"/>
								<circle fill="#231F20" cx="269.3" cy="206" r="0"/>
								<circle fill="#231F20" cx="271" cy="205.1" r="0"/>
								<path fill="#231F20" d="M270.6,205C270.6,205,270.6,205,270.6,205C270.7,205,270.7,205,270.6,205
									C270.7,205,270.6,205,270.6,205C270.6,205,270.6,205,270.6,205z"/>
								<path fill="#231F20" d="M271.2,205.7C271.2,205.7,271.2,205.7,271.2,205.7C271.3,205.7,271.3,205.7,271.2,205.7
									C271.3,205.7,271.2,205.7,271.2,205.7C271.2,205.7,271.2,205.7,271.2,205.7z"/>
								<path fill="#231F20" d="M271,205.8C271,205.8,271,205.8,271,205.8C271,205.8,271,205.8,271,205.8
									C271,205.7,271,205.7,271,205.8C271,205.7,271,205.7,271,205.8z"/>
								<circle fill="#231F20" cx="271" cy="205.9" r="0"/>
								<circle fill="#231F20" cx="271" cy="206" r="0"/>
							</g>
							<g>
								<path fill="#FFFFFF" d="M269.9,205.6c0,0,0,0.1,0,0.1c0,0,0,0,0,0c0,0,0,0,0,0c0,0,0.1,0,0.1,0c0,0,0,0.1,0,0.1
									c0,0,0,0,0,0.1c0,0,0,0.1,0,0c0,0-0.1,0-0.1,0c0,0,0,0.1-0.1,0C269.9,206,269.7,205.9,269.9,205.6
									C269.9,205.6,269.9,205.6,269.9,205.6z"/>
								<path fill="#FFFFFF" d="M270.4,205.6c0,0,0,0.1,0,0.1c0,0,0,0,0,0c0,0,0,0,0,0c0,0-0.1,0-0.1,0c0,0,0,0.1,0,0.1
									c0,0,0,0,0,0.1c0,0,0,0.1,0,0c0,0,0.1,0,0.1,0c0,0,0,0.1,0.1,0C270.5,206,270.6,205.9,270.4,205.6
									C270.5,205.6,270.4,205.6,270.4,205.6z"/>
								<path fill="#FFFFFF" d="M269.7,205.6c0,0,0.1,0,0,0.1c0,0,0,0.1,0,0.2c0,0,0,0.2-0.1,0.1c0,0-0.1,0-0.1-0.3
									C269.6,205.8,269.6,205.6,269.7,205.6z"/>
								<path fill="#FFFFFF" d="M270.6,205.6c0,0-0.1,0,0,0.1c0,0,0,0.1,0,0.2c0,0,0,0.2,0.1,0.1c0,0,0.1,0,0.1-0.3
									C270.7,205.8,270.7,205.5,270.6,205.6z"/>
								
									<ellipse transform="matrix(0.5083 -0.8612 0.8612 0.5083 -44.1559 333.5598)" fill="#FFFFFF" cx="270" cy="205.4" rx="0.1" ry="0"/>
								
									<ellipse transform="matrix(0.49 -0.8717 0.8717 0.49 -41.5168 340.0154)" fill="#FFFFFF" cx="269.8" cy="205.5" rx="0.1" ry="0"/>
								<path fill="#FFFFFF" d="M270.3,205.5C270.3,205.5,270.3,205.5,270.3,205.5C270.4,205.5,270.4,205.5,270.3,205.5
									C270.4,205.4,270.3,205.4,270.3,205.5C270.3,205.4,270.3,205.4,270.3,205.5z"/>
								<path fill="#FFFFFF" d="M270.5,205.5C270.5,205.5,270.5,205.5,270.5,205.5C270.5,205.5,270.5,205.5,270.5,205.5
									C270.5,205.4,270.5,205.4,270.5,205.5C270.4,205.4,270.4,205.5,270.5,205.5z"/>
								<ellipse fill="#FFFFFF" cx="270.1" cy="204.9" rx="0" ry="0.1"/>
								<path fill="#FFFFFF" d="M270.2,205.2C270.2,205.2,270.2,205.3,270.2,205.2c-0.1,0.1-0.1,0-0.1,0
									C270.1,205.2,270.1,205.1,270.2,205.2C270.2,205.1,270.2,205.2,270.2,205.2z"/>
							</g>
							<path fill="#231F20" stroke="#231F20" stroke-width="2.760000e-02" d="M268.9,201.8c-0.1,0-0.6,0.2-0.6,0.2
								c-0.3,0.1-0.2,0.2-0.2,0.2l0.2,0.2c0.1,0.2-0.1,0.3-0.1,0.3c-1.2,0.7-1.5,2-1.5,2c-0.4,1.2,0,2.2,0,2.2
								c0.3,1.1,0.9,1.5,0.9,1.5c0.1,0.1,0,0.2,0,0.2l-0.1,0.1c-0.1,0.1-0.1,0.1-0.1,0.2l0.5,0.4c0,0.1,0.1,0.1,0.1,0.1l-0.5,0.1
								c-0.2,0-0.1,0.2-0.1,0.2c0.2,0.5,0.6,0.9,0.6,0.9c-1-0.2-2.1-1.6-2.1-1.6c-0.2-0.2,0-0.4,0-0.4l0.2-0.2c0.2-0.1,0-0.2,0-0.2
								c-0.9-1.5-0.6-3.1-0.6-3.1c0.2-1.8,1.5-2.8,1.5-2.8c0.2-0.1,0-0.3,0-0.3l-0.2-0.2c0,0-0.2-0.2,0-0.3c0,0,0.5-0.4,0.8-0.6
								c0.3-0.2,0.5-0.3,0.6-0.3c0.1-0.1,0.4-0.1,0.4-0.1l-0.1,0.3l0.2,0.5L268.9,201.8"/>
							<path fill="#231F20" stroke="#231F20" stroke-width="2.760000e-02" d="M271.3,201.7c0.1,0,0.6,0.2,0.6,0.2
								c0.3,0.1,0.2,0.2,0.2,0.2l-0.3,0.3c-0.2,0.1,0.1,0.2,0.2,0.3c0.3,0.2,0.6,0.4,0.8,0.5c0.6,0.6,0.8,1.3,0.8,1.3
								c0.5,1.2,0.2,2.2,0.2,2.2c-0.2,1.1-0.9,1.6-0.9,1.6c-0.2,0.2-0.1,0.3-0.1,0.3c0.3,0.2,0.2,0.2,0.2,0.2l-0.4,0.4
								c-0.1,0.1-0.1,0.1-0.1,0.1l0.3,0c0.2,0,0.4,0,0.4,0c-0.2,0.5-0.7,1.2-0.7,1.2c0.9-0.3,1.8-1.3,1.8-1.3
								c0.5-0.6,0.3-0.8,0.3-0.8l-0.2-0.1c-0.1-0.1-0.1-0.2-0.1-0.2c0.8-1.5,0.5-3,0.5-3c-0.3-1.8-1.7-2.9-1.7-2.9
								c-0.2-0.1,0-0.3,0-0.3l0.1-0.2c0,0,0.2-0.2,0-0.3l-1-0.6v0.1l0,0l-0.1,0l-0.1-0.1l-0.1-0.2l-0.2-0.1l-0.2,0l-0.1,0.1
								l-0.1,0.5L271.3,201.7"/>
							<path fill="none" stroke="#231F20" stroke-width="4.720000e-02" d="M269.5,203.5c0,0,0.2,0.2,0.2,0.3"/>
							<path fill="none" stroke="#231F20" stroke-width="4.720000e-02" d="M269.4,203.6c0,0,0.1,0.2,0.1,0.2"/>
							
								<ellipse transform="matrix(0.5001 0.866 -0.866 0.5001 310.9755 -131.9693)" fill="#FFFFFF" cx="269.8" cy="203.4" rx="0.1" ry="0"/>
							<g>
								<path fill="#BA9C67" d="M267.8,210.6c0,0-1.1-0.5-1.9-1.6c0,0,0-0.1,0.1-0.1c0,0,0.1,0,0.4,0.4c0,0,0.3,0.4,0.5,0.2l0.3-0.3
									l0.4,0.4l-0.4,0.1c0,0-0.1,0-0.1,0.1C267.2,209.7,267.5,210.4,267.8,210.6z"/>
								<path fill="#BA9C67" stroke="#A9906F" stroke-width="2.760000e-02" d="M267,209.2l0.4-0.4c0,0,0.1-0.1,0-0.2
									c0,0-0.5-0.5-0.8-1.3c0,0-0.2-0.6-0.2-1.3c0,0,0-0.6,0.3-1.4c0,0,0.2-0.7,0.7-1.1c0,0,0.5-0.5,0.9-0.7c0,0,0.1,0,0-0.1
									c0,0-0.1-0.1-0.3,0.1l-0.3,0.2c0,0-0.1,0.1-0.3,0l-0.2-0.3c0,0,0-0.1-0.1,0c0,0-0.7,0.6-0.9,1.1c0,0-0.3,0.5-0.5,1.3
									c0,0-0.2,0.8,0,1.6c0,0,0.1,1.1,0.7,1.9c0,0,0.4,0.6,0.6,0.7C266.9,209.2,266.9,209.3,267,209.2z"/>
								<path fill="#BA9C67" stroke="#A9906F" stroke-width="2.760000e-02" d="M267.4,202.5c0,0,0.4-0.4,1.3-0.7c0,0,0.1-0.1,0-0.2
									c0,0-0.2-0.4-0.2-0.4c0,0-0.1-0.2-0.1-0.3c0,0-0.1-0.1-0.2,0c0,0-0.5,0.2-0.8,0.4c0,0-0.6,0.4-0.7,0.5c0,0-0.1,0.1,0,0.2
									l0.4,0.5C267.2,202.5,267.3,202.6,267.4,202.5z"/>
								<path fill="#BA9C67" d="M272.5,201.2c0.4,0.2,0.4,0.2,0.6,0.4c0,0,0.3,0.2,0,0.4l-0.1,0.2l-0.3,0.4l-0.3-0.1
									c0,0,0-0.1,0-0.1c0,0-0.1-0.1-0.1-0.1c-0.1-0.1,0.1-0.2,0.1-0.3c0,0,0-0.6,0-0.6L272.5,201.2L272.5,201.2L272.5,201.2z"/>
								<path fill="#BA9C67" d="M271.9,202.5c0,0,0-0.1,0.2-0.1c0,0,0.3,0.2,0.4,0.3c0,0,0.2,0.1,0.3,0c0,0,0.2-0.3,0.3-0.4
									c0,0,0-0.1,0.1,0c0,0,1,0.8,1.4,1.7c0,0,0.4,0.9,0.4,2c0,0,0.1,0.7-0.3,1.6c0,0-0.3,1-0.8,1.4c0,0-0.1,0.1-0.2,0l-0.5-0.4
									c0,0-0.1-0.1,0-0.2c0,0,0.4-0.5,0.4-0.6c0,0,0.4-0.7,0.4-1.4c0,0,0.1-0.5,0-1c0,0,0-0.6-0.5-1.4c0,0-0.3-0.7-1-1.1
									C272.5,202.9,272.1,202.6,271.9,202.5C271.9,202.6,271.8,202.5,271.9,202.5z"/>
								<path fill="#BA9C67" d="M272.9,210.5c0,0,1.1-0.6,1.8-1.8c0,0,0-0.1-0.1-0.1c0,0-0.1,0-0.4,0.4c0,0-0.2,0.4-0.5,0.2
									l-0.4-0.3l-0.4,0.4l0.4,0c0,0,0.1,0,0.1,0.1C273.4,209.5,273.2,210.3,272.9,210.5z"/>
							</g>
							<g>
								<circle fill="#FFFFFF" stroke="#231F20" stroke-width="4.720000e-02" cx="270.3" cy="208.6" r="2.5"/>
								<path fill="none" stroke="#231F20" stroke-width="4.720000e-02" d="M271,206.5c0,0,0.8,0.6,1,0.7"/>
								<path fill="none" stroke="#231F20" stroke-width="4.720000e-02" d="M268.4,207.3c0,0,0.9-0.7,1-0.7"/>
								<line fill="none" stroke="#231F20" stroke-width="4.720000e-02" x1="268.6" y1="208.1" x2="269.4" y2="208.3"/>
								<path fill="none" stroke="#231F20" stroke-width="4.720000e-02" d="M271.1,208.3c0,0,0.8-0.3,0.9-0.3"/>
								<path fill="none" stroke="#231F20" stroke-width="4.720000e-02" d="M270.8,209.2c0,0,0.5,0.7,0.5,0.8"/>
								<path fill="none" stroke="#231F20" stroke-width="4.720000e-02" d="M272.5,208.7c0,0-0.3,1.1-0.4,1.2"/>
								<path fill="none" stroke="#231F20" stroke-width="4.720000e-02" d="M269.2,210c0,0,0.5-0.7,0.5-0.7"/>
								<path fill="none" stroke="#231F20" stroke-width="4.720000e-02" d="M269.7,210.7c0,0,0.6,0.1,1.2,0"/>
								<path fill="none" stroke="#231F20" stroke-width="4.720000e-02" d="M268.4,209.8c0,0-0.3-0.5-0.4-1.1"/>
								<path fill="none" stroke="#231F20" stroke-width="4.720000e-02" d="M270.3,207.8c0,0,0-0.6-0.1-1"/>
							</g>
							<g>
								<path fill="#231F20" d="M269.5,206.2c0,0,0.6-0.2,1.4,0c0,0,0.1,0.3,0.2,0.4c0,0-0.7,0.1-0.9,0.3c0,0-0.1-0.2-0.9-0.3
									C269.3,206.6,269.6,206.3,269.5,206.2z"/>
								<path fill="#231F20" d="M268.1,207.3c0,0,0.2,0,0.3-0.1c0,0-0.1,0.8,0.1,0.9c0,0-0.2-0.1-0.6,0.8c0,0-0.2-0.3-0.3-0.2
									C267.8,208.6,267.8,207.8,268.1,207.3z"/>
								<path fill="#231F20" d="M268.3,210.1c0,0,0.2,0,0.1-0.4c0,0,0.2,0.2,0.9,0.3c0,0,0.3,0.7,0.5,0.8c0,0-0.5,0.1-0.3,0.2
									C269.5,211,268.8,210.8,268.3,210.1z"/>
								<path fill="#231F20" d="M271.3,210c0,0-0.3,0.7-0.5,0.8c0,0,0.4,0.1,0.3,0.2c0,0,0.7-0.2,1.2-0.9c0,0-0.2,0.1-0.1-0.3
									C272.1,209.8,271.6,210.1,271.3,210"/>
								<path fill="#231F20" d="M270.3,207.7c0,0-0.7,0.3-0.9,0.6c0,0,0.1,0.8,0.4,1c0,0,0.5,0.1,1.1,0c0,0,0.2-0.5,0.3-1
									C271.1,208.3,270.9,208,270.3,207.7z"/>
								<path fill="#231F20" d="M272.3,207.1c0,0-0.1,0.1-0.4,0c0,0,0.2,0.8,0,0.9c0,0,0.3,0.2,0.6,0.7c0,0,0.3-0.4,0.3-0.3
									C272.8,208.5,272.8,207.9,272.3,207.1z"/>
							</g>
							<g>
								<path fill="#231F20" d="M266.8,208.8L266.8,208.8l0.2,0.1l0.1-0.1l-0.1-0.1l0.1-0.1l0.1,0.1l0.1-0.1l0.1,0.1L267,209
									L266.8,208.8z"/>
								<path fill="#231F20" d="M266.9,208.3L266.9,208.3l0.2,0.2l-0.4,0.3l-0.2-0.2l0.1,0l0.1,0.1l0.1-0.1l-0.1-0.1L266.9,208.3
									l0,0.2l0.1-0.1L266.9,208.3z"/>
								<path fill="#231F20" d="M266.5,208.4C266.5,208.3,266.5,208.3,266.5,208.4c0-0.1,0-0.2,0.1-0.2c0.1,0,0.1-0.1,0.1,0
									c0,0,0,0,0.1,0l0,0L266.5,208.4z M266.9,208.2l-0.1-0.1c0,0-0.1-0.1-0.1-0.1c0,0-0.1,0-0.1,0c0,0-0.1,0-0.2,0.1
									c-0.1,0-0.1,0.1-0.1,0.1c0,0,0,0.1,0,0.1l0.1,0.1L266.9,208.2z"/>
								<path fill="#231F20" d="M266.5,207.7L266.5,207.7l0.2,0.2l-0.4,0.2l-0.1-0.2l0.1,0l0.1,0.1l0.1-0.1l-0.1-0.1l0.1,0l0.1,0.1
									l0.1-0.1L266.5,207.7z"/>
								<path fill="#231F20" d="M266.2,207.7C266.1,207.6,266.1,207.6,266.2,207.7c0-0.1,0-0.1,0-0.1c0,0,0,0,0.1,0c0,0,0,0,0,0.1
									c0,0,0,0,0,0c0,0,0,0,0,0L266.2,207.7z M266.2,207.4C266.2,207.4,266.2,207.5,266.2,207.4c-0.1,0-0.1,0.1-0.1,0.1
									c0,0,0,0.1,0,0.1l0.1,0.2l0.4-0.2l0-0.1l-0.2,0.1c0,0,0-0.1,0-0.1c0,0,0,0,0.1-0.1c0,0,0.1,0,0.1,0c0,0,0,0,0,0l0-0.1
									c0,0,0,0,0,0c0,0,0,0-0.1,0C266.3,207.4,266.3,207.4,266.2,207.4C266.2,207.4,266.2,207.5,266.2,207.4
									C266.2,207.5,266.2,207.5,266.2,207.4z"/>
								<path fill="#231F20" d="M266,207.3l0.2-0.1l0,0.1L266,207.3z M266,207.3l0.5,0l0-0.1l-0.1,0l0-0.1l0.1-0.1l0-0.1l-0.4,0.3
									L266,207.3z"/>
								<path fill="#231F20" d="M266.1,206.8L266.1,206.8c0-0.1,0.1-0.1,0.1-0.1c0,0,0.1,0,0.1,0.1c0,0.1,0,0.1,0,0.1
									c0,0-0.1,0.1-0.2,0.1c-0.1,0-0.1,0-0.2,0c0,0-0.1,0-0.1-0.1c0,0,0-0.1,0-0.1c0,0,0.1-0.1,0.1-0.1l0,0.1c0,0,0,0,0,0
									c0,0,0,0,0,0.1c0,0,0,0,0.1,0c0,0,0,0,0.1,0c0,0,0,0,0,0C266.1,206.9,266.2,206.9,266.1,206.8c0.1,0.1,0.1,0.1,0.1,0
									C266.2,206.8,266.2,206.8,266.1,206.8C266.2,206.8,266.2,206.8,266.1,206.8z"/>
								<path fill="#231F20" d="M265.8,206.6l0.5-0.1l0,0.1L265.8,206.6L265.8,206.6z"/>
								<path fill="#231F20" d="M265.9,206.4C265.8,206.4,265.8,206.4,265.9,206.4c-0.1-0.1,0-0.1,0-0.1c0,0,0.1,0,0.1,0
									c0.1,0,0.1,0,0.1,0c0,0,0,0,0,0c0,0,0,0.1-0.1,0.1c0,0,0,0-0.1,0C265.9,206.4,265.9,206.4,265.9,206.4z M265.8,206.2
									c0,0,0,0.1,0,0.1c0,0.1,0,0.1,0.1,0.1c0,0,0.1,0,0.2,0c0.1,0,0.1,0,0.2,0c0,0,0.1-0.1,0.1-0.1c0,0,0-0.1,0-0.1
									c0,0-0.1,0-0.1,0c0,0-0.1,0-0.1,0C265.9,206.2,265.8,206.2,265.8,206.2z"/>
								<path fill="#231F20" d="M265.7,205.8l0.5,0l0,0.1l-0.3,0.1l0.3,0l0,0.1l-0.5,0l0-0.1l0.3-0.1L265.7,205.8L265.7,205.8z"/>
								<path fill="#231F20" d="M265.8,205l0.5,0.1l0,0.1L265.8,205l0.4,0.3l0,0.1l-0.4,0l0.4,0.1l0,0.1l-0.5-0.1l0-0.1l0.3,0
									l-0.3-0.1L265.8,205z"/>
								<path fill="#231F20" d="M266.3,204.8L266.3,204.8l0,0.3l-0.5-0.1l0.1-0.2l0.1,0l0,0.2l0.1,0l0-0.1l0.1,0l0,0.2l0.1,0
									L266.3,204.8z"/>
								<path fill="#231F20" d="M266.2,204.5l0.3,0l0,0.1L266.2,204.5l0.2,0.2l0,0.1l-0.2-0.2l-0.3,0l0-0.1L266.2,204.5l-0.2-0.1
									l0-0.1L266.2,204.5z"/>
								<path fill="#231F20" d="M266.1,204.1l0.4,0.2l0,0.1L266.1,204.1L266.1,204.1z"/>
								<path fill="#231F20" d="M266.5,204L266.5,204c0.1-0.1,0.1,0,0.1,0c0,0,0,0.1,0,0.1c0,0.1-0.1,0.1-0.1,0.1c0,0-0.1,0-0.2-0.1
									c-0.1,0-0.1-0.1-0.1-0.1c0,0,0-0.1,0-0.1c0,0,0-0.1,0.1-0.1c0,0,0.1,0,0.1,0l0,0.1c0,0,0,0,0,0c0,0,0,0-0.1,0
									c0,0,0,0.1,0,0.1c0,0,0,0,0.1,0c0,0,0,0,0,0c0.1,0,0.1,0.1,0.1,0.1c0,0,0,0,0.1,0C266.6,204.1,266.6,204.1,266.5,204
									C266.6,204.1,266.5,204,266.5,204z"/>
								<path fill="#231F20" d="M266.5,203.6l0.2,0.1l0,0.1L266.5,203.6z M266.4,203.6l0.3,0.4l0.1-0.1l-0.1-0.1l0.1-0.1l0.1,0
									l0.1-0.1l-0.5-0.2L266.4,203.6z"/>
								<path fill="#231F20" d="M266.7,203.1l0.4,0.3l-0.1,0.1l-0.3-0.1l0.3,0.2l-0.1,0.1l-0.4-0.3l0.1-0.1l0.3,0.1L266.7,203.1
									L266.7,203.1z"/>
								<path fill="#231F20" d="M267,203l0.2,0.1l-0.1,0.1L267,203z M266.8,203l0.3,0.4l0.1-0.1l-0.1-0.1l0.1-0.1l0.1,0.1l0.1-0.1
									L266.8,203L266.8,203z"/>
								<path fill="#231F20" d="M273,203C273,203,273,203,273,203l0.2-0.2c0,0,0,0,0,0.1c0,0,0,0,0,0.1L273,203
									C273,203,273,203,273,203z M273.3,202.8c0,0,0-0.1-0.1-0.1l-0.1-0.1l-0.3,0.3l0.1,0.1c0.1,0.1,0.1,0.1,0.1,0.1
									c0,0,0.1,0,0.2-0.1C273.3,202.9,273.3,202.9,273.3,202.8z"/>
								<path fill="#231F20" d="M273.2,203.4l-0.2-0.2l0.4-0.3l0.2,0.2l-0.1,0.1l-0.1-0.1l-0.1,0.1l0.1,0.1l-0.1,0.1l-0.1-0.1
									l-0.1,0.1L273.2,203.4L273.2,203.4z"/>
								<path fill="#231F20" d="M273.8,203.6l-0.1-0.1l-0.1,0.1L273.8,203.6l-0.2,0.1l-0.1-0.1l-0.2,0.1l-0.1-0.1l0.4-0.3
									L273.8,203.6L273.8,203.6z"/>
								<path fill="#231F20" d="M273.9,204c-0.1,0-0.1,0.1-0.2,0.1c0,0-0.1,0-0.1-0.1c0,0,0-0.1,0-0.1c0,0,0.1-0.1,0.1-0.1l0.2-0.1
									l0.1,0.1l-0.3,0.2c0,0-0.1,0-0.1,0.1c0,0,0,0,0,0c0,0,0,0,0,0C273.7,204,273.8,203.9,273.9,204l0.2-0.2l0.1,0.1L273.9,204z"
									/>
								<path fill="#231F20" d="M274.2,204.2L274.2,204.2l-0.4,0.1l0-0.1l0.3-0.2l0-0.1l0.1,0L274.2,204.2L274.2,204.2z"/>
								<path fill="#231F20" d="M274.2,204.5C274.2,204.5,274.2,204.4,274.2,204.5L274.2,204.5C274.3,204.4,274.3,204.4,274.2,204.5
									C274.3,204.5,274.3,204.5,274.2,204.5C274.2,204.5,274.2,204.5,274.2,204.5z M274.2,204.6
									C274.2,204.6,274.2,204.6,274.2,204.6C274.2,204.6,274.2,204.6,274.2,204.6c0.1,0,0.1,0,0.1-0.1c0,0,0.1,0,0.1-0.1
									c0,0,0-0.1,0-0.1l0-0.1l-0.4,0.2l0.1,0.1c0,0.1,0,0.1,0.1,0.1C274,204.7,274.1,204.7,274.2,204.6
									C274.1,204.7,274.2,204.6,274.2,204.6z M274,204.6C274,204.6,274,204.5,274,204.6l0.1-0.1
									C274.1,204.5,274.1,204.5,274,204.6C274.1,204.5,274.1,204.5,274,204.6C274.1,204.6,274,204.6,274,204.6z"/>
								<path fill="#231F20" d="M274.2,204.9C274.1,204.9,274.1,204.9,274.2,204.9C274.1,204.9,274.1,204.8,274.2,204.9
									c0-0.1,0-0.1,0.1-0.1l0.1,0c0.1,0,0.1,0,0.1,0c0,0,0,0,0,0c0,0,0,0,0,0c0,0,0,0-0.1,0c0,0,0,0,0,0c0,0,0,0,0,0
									C274.2,204.9,274.2,204.9,274.2,204.9z M274.5,204.9c0,0,0-0.1,0-0.1c0,0,0-0.1-0.1-0.1c0,0-0.1,0-0.1,0c0,0-0.1,0-0.1,0
									c-0.1,0-0.2,0.1-0.2,0.1c0,0,0,0.1,0,0.1c0,0,0,0.1,0.1,0.1c0,0,0.1,0,0.1,0c0,0,0.1,0,0.1,0
									C274.4,205,274.5,204.9,274.5,204.9z"/>
								<path fill="#231F20" d="M274.2,205.4l0-0.2l0.5-0.1l0,0.1l-0.4,0.1L274.2,205.4L274.2,205.4z"/>
								<path fill="#231F20" d="M274.4,205.7l0.2,0L274.4,205.7L274.4,205.7z M274.7,205.7l0-0.1l-0.5-0.1l0,0.1l0.1,0l0,0.1l-0.1,0
									l0,0.1L274.7,205.7z"/>
								<path fill="#231F20" d="M274.3,206.2c0,0-0.1,0-0.1,0c0,0,0-0.1,0-0.1c0,0,0-0.1,0-0.1c0,0,0.1,0,0.1,0l0,0.1
									c0,0-0.1,0-0.1,0c0,0,0,0,0,0c0,0,0,0,0,0c0,0,0,0,0,0c0,0,0,0,0.1-0.1c0,0,0-0.1,0-0.1c0,0,0,0,0,0c0,0,0,0,0.1,0
									c0,0,0.1,0,0.1,0c0,0,0,0.1,0,0.1c0,0,0,0.1,0,0.1c0,0-0.1,0-0.1,0l0-0.1c0,0,0,0,0,0c0,0,0,0,0,0c0,0,0,0,0,0c0,0,0,0,0,0
									c0,0,0,0,0,0c0,0,0,0,0,0.1c0,0,0,0.1,0,0.1C274.4,206.2,274.4,206.2,274.3,206.2z"/>
								<path fill="#231F20" d="M274.3,206.4C274.2,206.4,274.2,206.4,274.3,206.4C274.2,206.4,274.3,206.4,274.3,206.4
									c0-0.1,0.1-0.1,0.1-0.1l0.1,0c0.1,0,0.1,0,0.1,0c0,0,0,0,0,0c0,0,0,0,0,0c0,0,0,0-0.1,0c0,0,0,0,0,0c0,0,0,0,0,0
									C274.3,206.5,274.3,206.4,274.3,206.4z M274.6,206.6c0,0,0.1-0.1,0.1-0.1c0,0,0-0.1,0-0.1c0,0,0,0-0.1-0.1c0,0-0.1,0-0.1,0
									c-0.1,0-0.2,0-0.2,0c0,0-0.1,0.1-0.1,0.1c0,0,0,0.1,0,0.1c0,0,0,0,0.1,0.1c0,0,0.1,0,0.1,0
									C274.5,206.6,274.6,206.6,274.6,206.6z"/>
								<path fill="#231F20" d="M274.2,206.9c-0.1,0-0.1,0-0.1-0.1c0,0,0-0.1,0-0.1c0-0.1,0-0.1,0.1-0.1c0,0,0.1,0,0.2,0
									c0.1,0,0.2,0.1,0.2,0.1c0,0,0,0.1,0,0.1c0,0,0,0.1-0.1,0.1c0,0-0.1,0-0.2,0l0-0.1c0.1,0,0.1,0,0.1,0c0,0,0,0,0-0.1
									c0,0,0,0-0.1,0c0,0,0,0,0,0l0,0c0,0-0.1,0-0.1,0c0,0-0.1,0-0.1,0c0,0,0,0,0,0c0,0,0,0,0.1,0L274.2,206.9z"/>
								<path fill="#231F20" d="M274,207l0-0.1l0.1,0l0,0.1L274,207z"/>
								<path fill="#231F20" d="M274,207.2C273.9,207.2,273.9,207.2,274,207.2c-0.1-0.1-0.1-0.1-0.1-0.1l0,0
									C273.9,207.1,273.9,207.1,274,207.2C273.9,207.1,274,207.1,274,207.2L274,207.2l0.1-0.1L274,207.2L274,207.2z"/>
								<path fill="#231F20" d="M274,207.6l0.2,0.1L274,207.6L274,207.6z M274.2,207.8l0.1-0.1l-0.4-0.3l0,0.1l0.1,0.1l0,0.1l-0.1,0
									l-0.1,0.1L274.2,207.8z"/>
								<path fill="#231F20" d="M273.7,207.8L273.7,207.8l0.2,0L273.7,207.8L273.7,207.8z"/>
								<path fill="#231F20" d="M273.6,208.2c-0.1,0-0.1-0.1-0.1-0.1c0,0,0-0.1,0-0.1c0,0,0.1-0.1,0.1-0.1c0,0,0.1,0,0.2,0.1
									c0.1,0,0.1,0.1,0.1,0.1c0,0,0,0.1,0,0.1c0,0-0.1,0.1-0.1,0.1c0,0-0.1,0-0.2,0l0.1-0.1c0.1,0,0.1,0,0.1,0c0,0,0,0,0-0.1
									c0,0,0,0-0.1-0.1c0,0,0,0,0,0l0,0c0,0-0.1,0-0.1,0c0,0-0.1,0-0.1,0c0,0,0,0,0,0C273.6,208.1,273.6,208.1,273.6,208.2
									L273.6,208.2z"/>
								<path fill="#231F20" d="M273.4,208.3L273.4,208.3l0.2,0L273.4,208.3L273.4,208.3z"/>
							</g>
							<path fill="#231F20" d="M268.6,201.2c0,0,0,0.1,0.1,0.2l0.1,0.2l0,0.1c0,0,0.2,0.3,0.4,0.3c0,0,0.1,0,0.1,0c0,0,0,0,0,0v0
								l0,0c0,0,0,0.3,0.1,0.4c0,0,0,0.1,0,0.1c0,0,0,0,0,0c0,0-0.5,0.3-0.5,0.5c0,0.1,0,0.1,0,0.1l0,0c0,0,0,0,0,0c0,0,0,0,0,0
								c0,0,0,0,0,0c0,0,0,0,0,0l0,0c-0.2,0.1-0.4,0.2-0.4,0.3v0c0,0,0,0,0,0c0,0,0,0,0.4-0.2c0,0,0.1,0,0.1,0l0.1,0.2
								c0,0,0,0,0,0.1c0,0,0,0,0,0h0l-0.2,0.1l0,0c0,0,0,0,0,0c0,0,0,0,0,0h0l0.3-0.2c0,0,0,0,0,0c0,0,0,0,0,0c0,0,0-0.1,0-0.1
								l-0.1-0.2c0,0,0,0,0-0.1c0,0,0,0,0,0c0,0,0,0,0,0c0,0,0.1,0,0.1,0c0,0,0,0.1,0.2,0c0,0,0.1,0,0.1,0c0,0,0,0,0,0l0,0v0
								c0,0,0,0,0,0l0,0l-0.2,0.1l0,0.1v0c0,0,0,0,0,0c0,0,0,0,0.1,0h0c0,0,0.2-0.1,0.2-0.2c0,0,0,0,0,0l0,0l0.2,0.4h0.1v-0.1
								l-0.1-0.2c0,0,0,0,0,0c0,0,0,0,0.1,0h0.1c0,0,0,0,0,0c0,0,0,0,0,0.1l-0.1,0.2h0.2l-0.1-0.2c0,0,0-0.1,0-0.1c0,0,0,0,0,0
								c0,0,0.1,0,0.1,0c0,0,0,0,0,0c0,0,0,0,0,0c0,0,0,0,0,0c0,0-0.1,0.1-0.1,0.2c0,0,0,0.1,0,0.1l0,0h0.1l0-0.1v0c0,0,0,0,0,0
								c0,0,0-0.1,0.1-0.2c0,0,0.1-0.1,0.1-0.1c0,0,0,0,0,0h0c0,0,0,0,0,0c0,0,0,0,0.1,0c0,0,0,0,0,0l0,0c0,0,0,0,0,0h0l0,0
								c0,0.1-0.2,0.3-0.2,0.3c0,0,0,0,0,0l0,0h0.1l0,0c0.1-0.2,0.1-0.3,0.2-0.3h0l0,0c0,0,0,0,0,0l0,0l0,0h0c0,0,0,0,0,0
								c0,0,0,0,0,0c0,0,0-0.1,0-0.1c0,0,0,0,0,0c0,0,0,0,0,0c0,0,0,0,0-0.2c0,0,0,0,0-0.1c0,0,0.1,0,0.2,0l0.5,0.2c0,0,0.1,0,0.1,0
								c0,0,0,0,0,0v0c0,0,0,0,0,0v0c0,0-0.1-0.1-0.2-0.1c0,0-0.4-0.2-0.5-0.2c0,0,0,0,0,0c0,0,0,0,0,0c0,0,0-0.2-0.2-0.2l0,0h0
								c0,0-0.2,0-0.2-0.1h0l0,0c0,0-0.1,0-0.1-0.1c0,0,0,0,0,0c0,0,0-0.1,0.1-0.1c0,0,0,0,0,0c0,0,0.1,0.2,0.2,0.2
								c0.1,0,0.2,0,0.2,0l0,0h0c0,0,0.1,0.1,0.2,0c0,0,0.2-0.1,0.2-0.1c0,0,0.1,0,0.2-0.1c0,0,0,0,0.1,0l0,0l0.1-0.1l0,0
								c0,0,0,0,0-0.1c0,0,0.1,0,0.1,0c0,0,0.3,0.2,0.4,0.3c0,0,0.1,0.1,0.3,0h0l0,0c0,0,0.2-0.3,0.3-0.3c0,0,0,0,0.1,0c0,0,0,0,0,0
								l0,0l0-0.1l-0.1-0.1l-0.3,0.3c0,0,0,0-0.1,0c0,0,0,0-0.1-0.1c0,0-0.1,0-0.1-0.1c-0.1,0-0.1-0.1-0.2-0.1
								c-0.1-0.1,0.1-0.2,0.1-0.2c0-0.1,0-0.2,0-0.3c0-0.1-0.1-0.5,0.1-0.5h0l0.1-0.1l0,0c0,0-0.1-0.1-0.2-0.2c0,0,0-0.4-0.2-0.7
								c0,0-0.4-0.5-0.8-0.8c0,0-0.6-0.4-0.9-0.5c0,0-0.7-0.2-1.2-0.2c0,0-0.2,0-0.3,0.1c0,0,0,0.1,0,0.1c0,0,0,0.1,0.2,0.2
								c0.1,0.1,0.2,0.1,0.2,0.2c0.1,0,0.1,0.1,0.1,0.2c0,0.1,0.1,0.2,0.1,0.2c0,0.1,0,0.2,0,0.3c0,0,0,0.1-0.1,0.1c0,0,0,0-0.1-0.1
								c0,0-0.1,0-0.1-0.1c0,0-0.1-0.1-0.1-0.1c0-0.1-0.1-0.1-0.1-0.1c-0.1-0.1-0.2-0.2-0.2-0.2c0,0-0.1-0.1-0.1-0.1
								c0,0-0.1,0-0.1-0.1c-0.1-0.1-0.1-0.1-0.1-0.2c0,0-0.1-0.1-0.1-0.1c0,0-0.1,0.1-0.2,0.1c-0.1,0-0.1,0.1-0.3,0.1
								c-0.1,0-0.3,0.1-0.3,0.1c0,0-0.2,0-0.2,0.2c-0.1,0.1,0,0.2,0.1,0.3c0.1,0.1,0.1,0.1,0.2,0.1c0,0,0-0.1,0.1-0.1
								c0,0,0.1,0,0.2,0.1c0.1,0,0.2,0,0.3,0c0.1,0,0.1,0.2,0.1,0.3c0,0.1-0.1,0.3-0.1,0.4c0,0.1,0,0.3,0,0.4
								C268.5,200.9,268.5,201.1,268.6,201.2z"/>
							<path fill="#FFFFFF" d="M268.9,200.3C268.9,200.3,268.7,200.3,268.9,200.3c-0.1,0.1,0.1,0.1,0.1,0.2c0,0,0,0,0.1,0
								c0,0,0.2-0.1,0.2-0.1c0,0,0,0,0-0.1c0,0,0-0.1-0.1-0.1L268.9,200.3z"/>
							<g>
								<path fill="#FFFFFF" d="M268.6,200.8c0,0,0.1,0,0.1,0c0,0,0,0,0.1,0c0,0,0.1,0.2,0.1,0.2c0,0,0,0.2,0,0.2
									C268.8,201.2,268.6,201.2,268.6,200.8z"/>
								<path fill="#FFFFFF" d="M268.8,200.7L268.8,200.7c0,0,0.1,0,0.1,0.1c0,0,0.1,0.2,0.1,0.3c0,0,0,0-0.1-0.1
									C268.9,201,268.7,200.8,268.8,200.7z"/>
								<path fill="#FFFFFF" d="M268.9,201C268.9,201,268.9,201,268.9,201c0.1,0,0.4,0.3,0.4,0.6c0,0,0,0.1-0.1,0
									c0,0-0.2-0.1-0.2-0.1c0,0,0,0,0-0.1c0,0,0-0.1-0.1-0.1c0,0,0,0,0-0.1L268.9,201z"/>
								<path fill="#FFFFFF" d="M268.7,201.3C268.7,201.3,268.7,201.2,268.7,201.3c0.1,0,0.2,0,0.2,0.3c0,0,0,0.1,0,0.1
									C268.9,201.7,268.8,201.6,268.7,201.3z"/>
								<path fill="#FFFFFF" d="M269.1,200.7C269.1,200.7,269,200.7,269.1,200.7c0-0.1,0-0.1,0.1,0c0,0,0.3,0.1,0.3,0.8
									c0,0,0,0.1,0,0.1c0,0-0.3-0.2-0.3-0.2c0,0,0,0,0,0c0,0,0,0-0.1-0.1c0,0,0-0.1,0-0.1c0,0,0.1-0.1-0.1-0.2
									C269.1,200.8,268.9,200.7,269.1,200.7c0,0,0,0,0.1,0.1c0,0,0.1,0.1,0.1,0C269.2,200.8,269.2,200.7,269.1,200.7z"/>
								<path fill="#FFFFFF" d="M269.1,201.7C269.1,201.7,269,201.6,269.1,201.7c-0.1,0-0.1,0.2,0,0.2c0,0,0.1,0.1,0.2,0
									c0,0,0.1,0,0-0.1L269.1,201.7z"/>
								<path fill="#FFFFFF" d="M269.5,201.6l-0.1-0.1c0,0-0.1,0-0.1,0c0,0,0.1,0.3,0.1,0.4c0,0,0,0.2,0,0.2c0,0,0.1,0,0.1-0.2
									C269.5,202,269.6,201.7,269.5,201.6z"/>
								<path fill="#FFFFFF" d="M269.6,201.8C269.6,201.8,269.6,201.8,269.6,201.8c0.1,0,0.1,0.2,0.1,0.2c0,0,0.1,0.2,0.1,0.2
									c0,0,0,0.1-0.1,0c0,0-0.1-0.1-0.1-0.1c0,0,0,0,0-0.1L269.6,201.8z"/>
								<path fill="#FFFFFF" d="M269.9,202.6C269.9,202.6,269.9,202.6,269.9,202.6c0.1,0.1,0.1,0.1,0.1,0.1c0,0-0.1,0-0.1,0
									C269.8,202.7,269.7,202.5,269.9,202.6C269.8,202.5,269.8,202.5,269.9,202.6z"/>
								<path fill="#FFFFFF" d="M269.6,202.3C269.6,202.3,269.7,202.3,269.6,202.3c0.1,0.1,0.1,0.3,0.1,0.3c0,0,0.2,0.1,0.1,0.2
									c0,0-0.1,0-0.2,0.1c0,0-0.1,0-0.1,0c0,0-0.1,0-0.1,0c0,0,0,0,0.1-0.1c0,0,0-0.1,0,0c0,0-0.1,0.1-0.2,0c0,0-0.1-0.1,0-0.1
									c0,0,0.1-0.1,0.2-0.2C269.5,202.5,269.5,202.3,269.6,202.3z"/>
								<path fill="#FFFFFF" d="M269.1,203c0,0,0.1-0.1,0.1-0.1c0,0,0.1-0.1,0-0.1C269.1,202.8,269,202.9,269.1,203
									C269,203,269,203,269.1,203z"/>
								<path fill="#FFFFFF" d="M269.3,203.2c0,0,0-0.1,0.1-0.1c0,0,0.1,0,0.1,0c0,0,0,0.1-0.1,0.1
									C269.5,203.2,269.3,203.2,269.3,203.2z"/>
								<path fill="#FFFFFF" d="M269.9,203.1c0,0,0.1-0.1,0.1-0.1c0,0,0.1,0,0.1,0C270,203,270,203.2,269.9,203.1
									C269.9,203.2,269.9,203.2,269.9,203.1z"/>
								<path fill="#FFFFFF" d="M269.7,203C269.7,203,269.8,202.9,269.7,203c0.1,0,0,0.1,0,0.1C269.7,203.1,269.6,203.1,269.7,203z"
									/>
								<path fill="#FFFFFF" d="M269.9,202.8C269.8,202.9,270,202.9,269.9,202.8c0.2-0.1,0.2,0,0.2,0c0.1,0,0,0.1,0,0.1
									c-0.1,0-0.1,0.1-0.1,0.1c0.1,0.1,0.2,0,0.2,0c0.1-0.1,0.3-0.1,0.3-0.1c0.1,0.1,0.1,0,0.1,0c0,0-0.1-0.1-0.1-0.1
									c-0.1,0-0.1-0.1-0.1-0.1c-0.1,0-0.2,0-0.2,0S269.9,202.8,269.9,202.8z"/>
								
									<ellipse transform="matrix(-0.7399 0.6727 -0.6727 -0.7399 605.0717 172.1317)" fill="#FFFFFF" cx="269.3" cy="203" rx="0.1" ry="0"/>
								<path fill="#FFFFFF" d="M270,203.4c0,0,0.3,0,0.3-0.1l0-0.2c0,0,0-0.1-0.1,0c0,0-0.1,0-0.1,0.1
									C270,203.2,269.7,203.3,270,203.4z"/>
								<path fill="#FFFFFF" d="M270.4,203.2c0,0,0.3,0,0.4,0c0,0,0.1,0-0.2-0.1C270.6,203,270.3,203,270.4,203.2
									C270.3,203.1,270.3,203.2,270.4,203.2z"/>
								<path fill="#FFFFFF" d="M270.4,203.4c0,0,0.1-0.1,0.1-0.1c0,0-0.1-0.1-0.1,0C270.3,203.2,270.3,203.4,270.4,203.4z"/>
								<path fill="#FFFFFF" d="M269.7,201.6c0,0,0.4,0.6,0.3,0.9c0,0,0,0.1-0.1,0.1c0,0-0.1,0-0.1-0.2c0,0-0.1-0.5-0.2-0.6
									C269.7,201.7,269.5,201.5,269.7,201.6z"/>
								<path fill="#FFFFFF" d="M269.5,201.1l0,0.2c0,0,0,0.1,0.1,0.1c0,0,0.2,0.3,0.2,0.4c0,0,0,0.1,0,0l0-0.4c0,0,0-0.1-0.1-0.1
									C269.8,201.3,269.6,201.1,269.5,201.1z"/>
								<path fill="#FFFFFF" d="M270,201.4c0,0,0,0.7,0,0.7c0,0,0,0.1-0.1,0l-0.1-0.1c0,0-0.1-0.5,0-0.5
									C269.9,201.5,270,201.5,270,201.4C270,201.4,270,201.3,270,201.4z"/>
								<path fill="#FFFFFF" d="M270.2,201.9C270.2,201.9,270.1,201.8,270.2,201.9c0,0-0.1,0.5-0.1,0.6c0,0,0.1,0.2,0.2,0.1
									c0,0,0.1,0,0-0.2C270.3,202.3,270.2,202,270.2,201.9z"/>
								<path fill="#FFFFFF" d="M270.2,201.5c0,0,0.2,0.1,0.2,0.1c0,0,0.2,0.7,0.2,0.8c0,0,0,0.1-0.1,0c0,0-0.3-0.8-0.3-0.8
									C270.1,201.6,270.1,201.4,270.2,201.5z"/>
								<path fill="#FFFFFF" d="M270.5,201.8c0,0,0.4,0.7,0.4,0.7c0,0,0.1,0.2-0.1,0.1c0,0-0.2-0.2-0.2-0.3
									C270.5,202.3,270.4,201.7,270.5,201.8z"/>
								<path fill="#FFFFFF" d="M270.5,201.7c0,0,0.6,0.4,0.7,0.7c0,0,0.1,0.1-0.1,0.2c0,0-0.2,0.1-0.2-0.1c0,0-0.3-0.6-0.4-0.7
									C270.5,201.8,270.4,201.7,270.5,201.7z"/>
								<path fill="#FFFFFF" d="M270.7,201.7c0,0,1.1,0.6,1.1,0.6c0,0,0,0.1-0.1,0.2c0,0-0.2,0.1-0.3,0
									C271.3,202.4,270.9,201.9,270.7,201.7C270.6,201.7,270.6,201.7,270.7,201.7z"/>
								<ellipse fill="#FFFFFF" cx="270.7" cy="203.3" rx="0.1" ry="0"/>
								<path fill="#FFFFFF" d="M269.2,200.5C269.2,200.5,269.3,200.5,269.2,200.5c0.1,0,0.2-0.1,0.2,0.1c0,0,0.1,0.2,0,0.2
									c0,0-0.1,0-0.2-0.1C269.4,200.7,269.3,200.6,269.2,200.5C269.2,200.6,269.1,200.5,269.2,200.5z"/>
								<path fill="#FFFFFF" d="M269.6,200.5C269.6,200.5,269.6,200.6,269.6,200.5c0.1,0,0.1,0,0.2,0.1c0,0,0.2,0.6,0.2,0.6
									c0,0,0,0.1-0.1,0c0,0-0.3-0.3-0.3-0.4c0,0,0-0.1,0-0.1c0,0,0.1,0,0.1-0.2C269.6,200.7,269.5,200.5,269.6,200.5z"/>
								<path fill="#FFFFFF" d="M269.3,200.1c0,0,0.2,0.1,0.3,0.1c0,0,0,0,0.1,0.1c0,0,0.2,0.2,0.1,0.2c0,0,0,0.1,0.1,0.1
									c0,0,0.1,0,0.4,0.5c0,0,0.1,0.1,0.1,0.3c0,0,0,0.1-0.1,0.1c0,0-0.3-0.1-0.3-0.2c0,0-0.2-0.6-0.2-0.6c0,0,0-0.1,0-0.1
									C269.7,200.5,269.4,200.5,269.3,200.1C269.3,200.2,269.3,200.1,269.3,200.1z"/>
								<path fill="#FFFFFF" d="M270.1,200.7c0,0,0.2,0.3,0.2,0.3c0,0,0,0.1,0.1,0.1c0,0,0.2,0,0.3,0.2c0,0,0.2,0.2,0.2,0.2
									c0,0,0.1,0,0-0.1c0,0-0.2-0.4-0.3-0.4C270.7,200.9,270.4,200.7,270.1,200.7C270.1,200.6,270,200.6,270.1,200.7z"/>
								<path fill="#FFFFFF" d="M270.5,201.1c0,0,0.3,0.2,0.4,0.4c0,0,0,0.1-0.1,0.1c0,0-0.3-0.1-0.3-0.1c0,0,0,0,0-0.1
									C270.5,201.4,270.4,201.1,270.5,201.1z"/>
								<path fill="#FFFFFF" d="M271,201.5C271,201.5,271,201.6,271,201.5c0.1,0,0.1-0.1,0.1,0c0,0,0.2,0.2,0.1,0.2
									c0,0-0.1,0-0.2-0.1C271,201.7,270.9,201.6,271,201.5z"/>
								<path fill="#FFFFFF" d="M271.2,201.8c0,0,0.3,0,0.3,0.1c0,0,0.1,0.1,0.1,0.1c0,0,0.2,0,0.2,0.1c0,0,0,0.2-0.1,0.1
									L271.2,201.8C271.1,201.8,271.1,201.8,271.2,201.8z"/>
								<path fill="#FFFFFF" d="M270.7,200.8c0,0,0.2,0,0.2,0.1c0,0,0.4,0.7,0.4,0.8c0,0,0,0.1-0.1,0c0,0-0.4-0.5-0.5-0.7
									C270.8,200.9,270.6,200.8,270.7,200.8z"/>
								<path fill="#FFFFFF" d="M269.3,198.8c0,0-0.2,0-0.2,0.2c0,0,0,0.1,0.2,0.2c0,0,0.4,0.1,0.4,0.7c0,0,0,0.2,0,0.3
									c0,0-0.1,0.1,0,0.2c0,0,0.6,0.4,0.9,0.4c0,0,0.1,0,0-0.1c0,0-0.2-0.3-0.8-0.5c0,0,0-0.1,0,0c0,0,0.4,0.1,0.8,0.1
									c0,0,0.1,0,0-0.1c0,0-0.2-0.1-0.7-0.2c0,0-0.1-0.1,0-0.1c0,0,0.4,0.1,0.7,0.1c0,0,0.1,0,0-0.1c0,0-0.3-0.2-0.7-0.2
									c0,0-0.1-0.1,0-0.1c0,0,0.4,0,0.5,0c0,0,0.1,0,0-0.1c0,0-0.2-0.2-0.6-0.3l-0.2,0c0,0-0.2-0.1,0-0.1c0,0,0.4,0.1,0.7,0
									c0,0,0.1-0.1,0-0.1C270.4,199,269.9,198.8,269.3,198.8z"/>
								<path fill="#FFFFFF" d="M270.4,199.2c0,0,0.2-0.1,0.4,0c0,0,0.4,0.2,0.7,0.4c0,0,0.1,0.1,0,0.1c0,0-0.5,0-0.9-0.3
									C270.6,199.4,270.5,199.3,270.4,199.2C270.4,199.3,270.3,199.2,270.4,199.2z"/>
								<path fill="#FFFFFF" d="M270.5,199.5c0,0,0.2-0.1,0.3,0c0,0,0.2,0.1,0.3,0.1c0,0,0.2,0,0.2,0.1c0,0,0.2,0.3,0,0.2l-0.5-0.2
									C270.9,199.8,270.6,199.6,270.5,199.5C270.5,199.6,270.4,199.5,270.5,199.5z"/>
								<path fill="#FFFFFF" d="M270.7,199.9c0,0,0.1,0,0.1,0c0,0,0.1-0.1,0.2,0c0,0,0.8,0.4,0.7,0.5c0,0-0.1,0.1-0.6-0.2
									c0,0-0.2,0-0.2-0.1C270.8,200.1,270.7,200,270.7,199.9C270.7,200,270.6,200,270.7,199.9z"/>
								<path fill="#FFFFFF" d="M270.4,200.3l0.4,0c0,0,0.1,0,0.6,0.1c0,0,0.2,0,0.1,0.1c0,0-0.3,0-0.3,0.1c0,0-0.4,0.1-0.5,0
									L270.4,200.3C270.4,200.4,270.3,200.3,270.4,200.3z"/>
								<path fill="#FFFFFF" d="M271.1,200.7c0,0,0.4,0.4,0.7,1.2c0,0,0,0.1-0.2-0.1c0,0-0.5-0.9-0.7-1.1
									C270.9,200.7,270.8,200.5,271.1,200.7z"/>
								<path fill="#FFFFFF" d="M271.4,200.6c0,0,0.8,0.7,0.8,1.5c0,0,0,0.1-0.1,0c0,0-0.2-0.1-0.2-0.3c0,0-0.1-0.4-0.6-1.2
									C271.2,200.7,271.1,200.6,271.4,200.6z"/>
								<path fill="#FFFFFF" d="M271.7,200.6c0,0,0.5,0.9,0.6,1.1c0,0,0.1,0.2,0,0.3c0,0-0.1,0.2-0.1-0.1c0,0-0.1-0.5-0.7-1.2
									c0,0-0.1-0.1,0-0.1C271.5,200.5,271.6,200.5,271.7,200.6z"/>
								<path fill="#FFFFFF" d="M272.1,201c0,0,0.3,0.3,0.3,0.4c0,0,0,0.4-0.1,0.1C272.3,201.5,271.9,200.8,272.1,201z"/>
								<path fill="#FFFFFF" d="M271.9,200.5l0.2,0.1c0,0,0.1,0,0.2,0.2c0,0,0.2,0.6-0.1,0.3c0,0-0.3-0.3-0.3-0.4
									c0,0-0.2-0.3-0.1-0.3C271.8,200.4,271.9,200.4,271.9,200.5z"/>
								<path fill="#FFFFFF" d="M271.4,199.7c0,0,0.3-0.1,0.5,0.1c0,0,0.3,0.4,0.3,0.5c0,0,0,0.2-0.1,0.1c0,0-0.4-0.1-0.4-0.3
									C271.7,200.2,271.4,199.8,271.4,199.7z"/>
							</g>
							<path fill="#FFFFFF" d="M268.5,199.3C268.5,199.3,268.6,199.3,268.5,199.3C268.6,199.2,268.6,199.1,268.5,199.3
								c-0.1-0.1-0.3,0-0.3,0c0,0,0,0,0,0L268.5,199.3z"/>
							<path fill="#FFFFFF" d="M268.4,199.4c0,0-0.1,0.1-0.2,0.1c0,0-0.1,0-0.1,0c0,0,0,0.1,0.2,0.1
								C268.3,199.6,268.5,199.5,268.4,199.4C268.5,199.4,268.5,199.3,268.4,199.4z"/>
							<path fill="#FFFFFF" d="M268.4,199.7c0,0-0.2-0.1-0.2-0.1c0,0-0.1,0-0.1-0.1c0,0,0-0.1-0.1-0.1c0,0-0.1,0-0.1,0.1
								c0,0,0,0-0.1,0c0,0-0.2,0-0.2,0.2c0,0,0,0.1,0.1,0.2c0,0,0.1,0.1,0.1-0.1c0,0,0-0.1,0.1,0c0,0,0.2,0.1,0.2,0.1
								c0,0-0.2-0.1-0.2,0c0,0,0,0,0.1,0C268.1,199.7,268.4,199.8,268.4,199.7C268.4,199.8,268.5,199.8,268.4,199.7z"/>
							<path fill="#FFFFFF" d="M268.7,199.3c0,0,0.2,0.1,0.2,0.1c0,0,0.1,0.1,0,0.1c0,0-0.1,0-0.1,0c0,0-0.1,0-0.1,0.1
								c0,0,0,0,0.1,0c0,0,0.1,0,0.1,0.2c0,0,0,0.1-0.1,0c0,0-0.2-0.1-0.1-0.1c0,0,0,0,0.1,0.1c0,0,0.1,0,0.1,0.2c0,0,0,0.1-0.1,0
								c0,0-0.4-0.3-0.3-0.4C268.5,199.6,268.5,199.4,268.7,199.3C268.6,199.3,268.6,199.3,268.7,199.3z"/>
							<path fill="#FFFFFF" d="M268.7,200.4C268.7,200.4,268.7,200.3,268.7,200.4C268.7,200.3,268.8,200.4,268.7,200.4
								c0.1,0.1,0.2,0.1,0.2,0.1c0.1,0,0.2,0.1,0,0.2c0,0-0.1,0-0.1,0c-0.1,0-0.1-0.1-0.1-0.1C268.7,200.5,268.7,200.5,268.7,200.4
								C268.7,200.4,268.7,200.4,268.7,200.4z"/>
							<path fill="#FFFFFF" d="M268.5,200.4c0,0,0,0.1,0,0.2c0,0,0,0,0,0.1c0,0,0,0,0,0.1c0,0,0.1,0,0.1,0c0.1,0,0-0.1,0-0.1
								c0-0.1,0-0.1,0-0.2C268.6,200.4,268.6,200.3,268.5,200.4C268.5,200.4,268.5,200.4,268.5,200.4z"/>
							<path fill="#FFFFFF" d="M268.7,199.9c-0.1-0.1-0.1,0.1-0.1,0.2c0,0,0,0.1,0,0.1c0,0,0,0.1,0.1,0.1c0,0,0-0.1,0-0.1
								c0,0,0-0.1,0.1-0.1C268.7,200,268.7,200,268.7,199.9"/>
							<path fill="#FFFFFF" d="M269.1,200.3C269.1,200.3,269.1,200.3,269.1,200.3c0.1,0,0.1,0.1,0.2,0c0.1-0.1-0.2-0.2-0.3-0.2
								c-0.1,0-0.2-0.1-0.2,0c0,0.1,0,0.1,0.1,0.1c0,0,0.1,0,0.1,0C269,200.3,269,200.3,269.1,200.3z"/>
							<path fill="#FFFFFF" d="M269.2,200.1c0.1,0,0-0.1-0.1-0.1c-0.1,0-0.2-0.1-0.2,0C268.9,200.1,269.1,200.1,269.2,200.1z"/>
							<path fill="#FFFFFF" d="M269,199.9c0,0,0.1,0,0.1,0.1c0,0,0.1,0.1,0.1,0.1c0,0,0.1,0.1,0.1,0.1c0,0,0,0,0.1,0
								c0.1,0,0.1,0,0-0.1c0,0-0.1-0.1-0.1-0.1c0,0-0.1-0.1-0.1-0.1c0-0.1-0.2-0.3-0.3-0.2C268.9,199.6,269,199.8,269,199.9z"/>
						</g>
					</g>
					<path fill="#DB7E49" d="M271.1,163.7V81.5c0,0-32-6.3-28.9,31.7c0,0-1.8,24.4,10.2,39.3C252.5,152.5,258.8,162.1,271.1,163.7z"
						/>
					<circle fill="#280900" cx="257.4" cy="116.7" r="2.2"/>
					<g>
						<path fill="#280900" d="M248.2,111.5c0,0,0,0,0.1-0.1c0.1-0.1,0.2-0.2,0.4-0.4c0.2-0.2,0.4-0.3,0.6-0.4
							c0.2-0.2,0.5-0.3,0.8-0.5c0.3-0.1,0.6-0.3,1-0.5c0.4-0.1,0.7-0.3,1.1-0.4c0.4-0.2,0.8-0.2,1.2-0.3c0.4-0.1,0.9-0.2,1.3-0.3
							c0.4-0.1,0.9-0.1,1.3-0.2c0.4-0.1,0.9-0.1,1.3-0.2c0.4-0.1,0.8-0.1,1.2-0.1c0.4,0,0.7,0,1.1,0c1.3,0,2.2-0.1,2.2-0.1
							c0.7,0,1.4,0.6,1.4,1.3c0,0.7-0.6,1.4-1.3,1.4c-0.1,0-0.1,0-0.2,0l-0.1,0c0,0-0.8-0.1-2.1-0.2c-0.3,0-0.7-0.1-1-0.1
							c-0.4-0.1-0.7-0.1-1.1-0.1c-0.4,0-0.8,0-1.2,0c-0.4,0-0.8,0-1.2,0c-0.4,0-0.8,0.1-1.2,0.1c-0.4,0-0.8,0-1.2,0.1
							c-0.4,0.1-0.7,0.2-1.1,0.2c-0.4,0.1-0.6,0.2-0.9,0.3c-0.3,0.1-0.6,0.2-0.8,0.3c-0.2,0.1-0.4,0.2-0.5,0.3
							c-0.1,0.1-0.2,0.1-0.3,0.2c-0.1,0.1-0.1,0.1-0.1,0.1l0,0c-0.2,0.1-0.4,0.1-0.6,0C248.1,111.9,248.1,111.7,248.2,111.5z"/>
					</g>
					<path fill="#DB7E49" d="M246.7,123.8c0,0-10.7-3-7.5,6.1c0,0,2.8,11.4,9.8,6.8"/>
					<path fill="#020202" d="M243.3,126.7c0,0-1.4-13.9,5.2-22.2c0,0,1.5-2.1-0.2-5.6c0,0-3.4-6.8,10-10.9c0,0,4.2-1.7,7.2,0.7
						c0,0,2.5,1.6,5.6,1.6L271,72.8c0,0-2.7,0-5,2.8c0,0-0.5,1.1-2.6,0c-0.7-0.4-2.1-0.7-2.9,1.7c0,0-15.2,4.6-15.5,12.1
						C245.1,89.3,234.6,114.7,243.3,126.7z"/>
					<path fill="#DB7E49" d="M270.9,163.7V81.5c0,0,32-6.3,28.9,31.7c0,0,1.8,24.4-10.2,39.3C289.6,152.5,283.3,162.1,270.9,163.7z"
						/>
					<g>
						<g opacity="0.3">
							<path d="M279,123.1c0.4,0.4,0.8,0.8,1.1,1.3c0.1,0.2,0.3,0.5,0.4,0.8c0.1,0.3,0.1,0.6,0.1,0.9c0,0.2,0,0.3,0,0.5
								c0,0.1-0.1,0.3-0.1,0.5l-0.2,0.4c-0.1,0.1-0.2,0.2-0.3,0.4c-0.2,0.3-0.4,0.4-0.6,0.6c-0.2,0.2-0.5,0.3-0.7,0.5v0l0.2-0.2
								c-0.2,0.4-0.5,0.7-0.7,0.9c-0.3,0.3-0.6,0.5-0.9,0.7l-1,0.6c-0.3,0.2-0.7,0.3-1,0.4c-0.3,0.1-0.7,0.2-1,0.3l-1.1,0.2
								c-0.4,0-0.7,0.1-1.1,0.1l-1.1,0.1c-0.7,0-1.3-0.1-2-0.1l-1.1-0.2c-0.4-0.1-0.7-0.2-1.1-0.3c-0.3-0.1-0.7-0.2-1-0.4l-1-0.5
								c-0.3-0.2-0.6-0.4-0.9-0.7c-0.3-0.3-0.5-0.5-0.8-0.9l0.2,0.2l0,0c-0.2-0.2-0.5-0.3-0.7-0.5c-0.2-0.2-0.5-0.4-0.6-0.6
								c-0.1-0.1-0.2-0.2-0.3-0.4l-0.2-0.4c-0.1-0.1-0.1-0.3-0.1-0.5c0-0.2,0-0.3-0.1-0.5c0-0.3,0-0.6,0.1-0.9
								c0.1-0.3,0.2-0.6,0.4-0.8c0.1-0.3,0.3-0.5,0.5-0.7c0.2-0.2,0.4-0.4,0.6-0.6c0.2-0.2,0.6-0.2,0.8,0c0.2,0.2,0.2,0.5,0,0.7l0,0
								c-0.1,0.1-0.3,0.3-0.5,0.5c-0.1,0.2-0.3,0.4-0.4,0.6c-0.1,0.2-0.2,0.4-0.2,0.6c-0.1,0.2-0.1,0.4-0.1,0.6c0,0.1,0,0.2,0,0.3
								c0,0.1,0,0.2,0.1,0.3l0.1,0.3l0.2,0.2c0.1,0.2,0.3,0.3,0.5,0.5c0.2,0.1,0.4,0.3,0.6,0.4v0l0.2,0.2c0.2,0.1,0.4,0.3,0.7,0.5
								c0.2,0.2,0.5,0.3,0.8,0.4l0.8,0.3c0.3,0.1,0.6,0.2,0.9,0.2c0.6,0.2,1.2,0.2,1.8,0.3l2,0.1l0.9,0l0.9,0
								c0.6-0.1,1.2-0.1,1.8-0.3c0.3-0.1,0.6-0.1,0.9-0.2l0.9-0.3c0.3-0.1,0.6-0.2,0.8-0.4c0.2-0.2,0.5-0.3,0.7-0.5l0.2-0.2l0,0
								c0.2-0.1,0.4-0.3,0.6-0.4c0.2-0.2,0.4-0.3,0.5-0.5c0.1-0.1,0.1-0.2,0.2-0.3l0.1-0.3c0.1-0.1,0.1-0.2,0.1-0.3
								c0-0.1,0-0.2,0-0.3c0-0.2,0-0.4-0.1-0.6c0-0.2-0.1-0.4-0.3-0.6c-0.2-0.4-0.5-0.8-0.9-1.1l0,0c-0.1-0.1-0.2-0.4,0-0.5
								C278.6,123,278.9,123,279,123.1z"/>
						</g>
					</g>
					<circle fill="#280900" cx="284.7" cy="116.7" r="2.2"/>
					<g>
						<path fill="#280900" d="M293.2,112c0,0,0,0-0.1-0.1c-0.1-0.1-0.2-0.1-0.3-0.2c-0.1-0.1-0.3-0.2-0.5-0.3
							c-0.2-0.1-0.5-0.2-0.8-0.3c-0.3-0.1-0.6-0.2-0.9-0.3c-0.3-0.1-0.7-0.1-1.1-0.2c-0.4-0.1-0.8-0.1-1.2-0.1
							c-0.4,0-0.8-0.1-1.2-0.1c-0.4,0-0.8,0-1.2,0c-0.4,0-0.8,0-1.2,0c-0.4,0-0.8,0-1.1,0.1c-0.4,0-0.7,0.1-1,0.1
							c-1.2,0.1-2.1,0.2-2.1,0.2l-0.1,0c-0.7,0.1-1.4-0.5-1.5-1.2c-0.1-0.7,0.5-1.4,1.2-1.5c0.1,0,0.1,0,0.2,0c0,0,0.9,0,2.2,0.1
							c0.3,0,0.7,0,1.1,0c0.4,0,0.8,0,1.2,0.1c0.4,0.1,0.8,0.1,1.3,0.2c0.4,0.1,0.9,0.1,1.3,0.2c0.4,0.1,0.9,0.2,1.3,0.3
							c0.4,0.1,0.8,0.2,1.2,0.3c0.4,0.1,0.8,0.3,1.1,0.4c0.4,0.1,0.7,0.3,1,0.5c0.3,0.1,0.6,0.3,0.8,0.5c0.2,0.2,0.4,0.3,0.6,0.4
							c0.2,0.2,0.3,0.3,0.4,0.4c0.1,0.1,0.1,0.1,0.1,0.1c0.1,0.2,0.1,0.4-0.1,0.6C293.6,112.2,293.4,112.2,293.2,112L293.2,112z"/>
					</g>
					<path fill="#DB7E49" d="M295.4,123.8c0,0,10.7-3,7.5,6.1c0,0-2.8,11.4-9.8,6.8"/>
					<path fill="#020202" d="M298.7,126.7c0,0,1.4-13.9-5.2-22.2c0,0-1.5-2.1,0.2-5.6c0,0,3.4-6.8-10-10.9c0,0-4.2-1.7-7.2,0.7
						c0,0-2.8,1.6-6,1.6l-0.3-17.4c0,0,2.8-1,5.8,2.7c0,0,0.5,1.1,2.6,0c0.7-0.4,2.1-0.7,2.9,1.7c0,0,15.2,4.6,15.5,12.1
						C297,89.3,307.5,114.7,298.7,126.7z"/>
					<path fill="#935F52" stroke="#935F52" stroke-width="0.7865" stroke-miterlimit="10" d="M267,146.6c-2-4.3-7.2-4.1-4.2-7.8
						c1.6-2,5.6,0.8,16.1-1.7c4.6-1.1,2,4.8-1,8.5C274.8,149.4,269.6,152.2,267,146.6z"/>
					<polygon fill="#FFFFFF" points="264,240.8 267.3,240.8 267.3,218.7 264,218.7 261.3,221.6 264,221.6 					"/>
					<path fill="#FFFFFF" d="M275.3,218.7c-2.6,0-4.6,2.1-4.6,4.6v12.8c0,2.6,2.1,4.6,4.6,4.6c2.6,0,4.6-2.1,4.6-4.6v-12.8
						C279.9,220.8,277.9,218.7,275.3,218.7z M277.3,235.3c0,1.1-0.9,2-2,2c-1.1,0-2-0.9-2-2v-11.1c0-1.1,0.9-2,2-2c1.1,0,2,0.9,2,2
						V235.3z"/>
					<path opacity="0.1" fill="#231F20" enable-background="new    " d="M266.7,151.5c0,0,5.6,2.8,11-0.8
						C277.7,150.7,271.8,160.1,266.7,151.5z"/>
					
						<polyline fill="none" stroke="#FFCCB8" stroke-width="17.0228" stroke-linecap="square" stroke-linejoin="round" stroke-miterlimit="10" points="
						282.7,284.4 310,347.5 309.1,425.7 					"/>
					
						<polyline fill="none" stroke="#FFCCB8" stroke-width="17.0228" stroke-linecap="square" stroke-linejoin="round" stroke-miterlimit="10" points="
						282.7,284.4 310,347.5 309.1,425.7 					"/>
					
						<line fill="none" stroke="#D3340E" stroke-width="17.0367" stroke-linecap="square" stroke-linejoin="round" stroke-miterlimit="10" x1="309.7" y1="376.5" x2="309.1" y2="425.7"/>
					
						<line fill="none" stroke="#FFFFFF" stroke-width="18.5855" stroke-linecap="square" stroke-linejoin="round" stroke-miterlimit="10" x1="282.7" y1="284.4" x2="305.7" y2="337.6"/>
					<path fill="#FFFFFF" d="M270.3,301c22.1,0,33.9-13.8,33.9-36.1h-67.9C236.4,287.2,248.2,301,270.3,301z"/>
					<path fill="#1C1C1C" d="M300.9,422.9c20.4,10.2,34.7,22.8,32,28.2L296,432.7L300.9,422.9z"/>
				</g>
			</g>
		</g>
	</g>
</g>
</svg>
