<?xml version="1.0" encoding="utf-8"?>
<!-- Generator: Adobe Illustrator 16.0.0, SVG Export Plug-In . SVG Version: 6.00 Build 0)  -->
<!DOCTYPE svg PUBLIC "-//W3C//DTD SVG 1.1//EN" "http://www.w3.org/Graphics/SVG/1.1/DTD/svg11.dtd">
<svg version="1.1" id="Layer_1" xmlns="http://www.w3.org/2000/svg" xmlns:xlink="http://www.w3.org/1999/xlink" x="0px" y="0px"
	 width="875px" height="495.816px" viewBox="0 0 875 495.816" enable-background="new 0 0 875 495.816" xml:space="preserve">
<g>
	<defs>
		<rect id="SVGID_1_" width="875" height="475"/>
	</defs>
	<clipPath id="SVGID_2_">
		<use xlink:href="#SVGID_1_"  overflow="visible"/>
	</clipPath>
	<g clip-path="url(#SVGID_2_)">
		<line fill="none" stroke="#FFFFFF" stroke-width="3" stroke-miterlimit="10" x1="0.113" y1="183.094" x2="874.57" y2="183.094"/>
		<rect x="0" fill="#898989" width="874.569" height="129.096"/>
		<rect fill="#62A362" width="875" height="495.816"/>
		<rect x="-1" y="-4" fill="#6D6D6C" width="876" height="171"/>
		<g>
			<g>
				<g>
					<path fill="#8C8C8C" d="M-0.041,102.18c0-30.274,19.096-54.812,42.665-54.812c23.555,0,42.648,24.538,42.648,54.812
						c0,4.367-0.41,8.616-1.16,12.685H1.125C0.37,110.796-0.041,106.547-0.041,102.18z"/>
					<path fill="#8C8C8C" d="M18.133,26.67c0,13.524,10.964,24.483,24.491,24.483c13.513,0,24.469-10.959,24.469-24.483
						c0-13.521-10.957-24.479-24.469-24.479C29.098,2.19,18.133,13.149,18.133,26.67z"/>
				</g>
			</g>
			<g>
				<path fill="#8C8C8C" d="M79.06,102.18c0-30.274,19.097-54.812,42.666-54.812c23.555,0,42.648,24.537,42.648,54.812
					c0,4.368-0.41,8.617-1.16,12.685H80.226C79.47,110.797,79.06,106.548,79.06,102.18z"/>
				<path fill="#8C8C8C" d="M97.233,26.67c0,13.524,10.964,24.483,24.492,24.483c13.512,0,24.469-10.959,24.469-24.483
					c0-13.52-10.957-24.479-24.469-24.479C108.198,2.191,97.233,13.15,97.233,26.67z"/>
			</g>
			<g>
				<path fill="#8C8C8C" d="M158.16,102.18c0-30.274,19.096-54.812,42.665-54.812c23.555,0,42.649,24.538,42.649,54.812
					c0,4.367-0.41,8.617-1.16,12.685h-82.988C158.57,110.797,158.16,106.547,158.16,102.18z"/>
				<path fill="#8C8C8C" d="M176.333,26.67c0,13.524,10.964,24.483,24.491,24.483c13.513,0,24.469-10.959,24.469-24.483
					c0-13.52-10.956-24.479-24.469-24.479C187.297,2.19,176.333,13.15,176.333,26.67z"/>
			</g>
			<g>
				<path fill="#8C8C8C" d="M237.259,102.179c0-30.273,19.096-54.812,42.665-54.812c23.555,0,42.648,24.538,42.648,54.812
					c0,4.368-0.41,8.617-1.16,12.686h-82.987C237.669,110.796,237.259,106.547,237.259,102.179z"/>
				<path fill="#8C8C8C" d="M255.433,26.67c0,13.523,10.964,24.483,24.491,24.483c13.513,0,24.469-10.96,24.469-24.483
					c0-13.521-10.956-24.48-24.469-24.48C266.397,2.189,255.433,13.149,255.433,26.67z"/>
			</g>
			<g>
				<path fill="#8C8C8C" d="M316.359,102.18c0-30.274,19.097-54.812,42.665-54.812c23.555,0,42.648,24.538,42.648,54.812
					c0,4.367-0.41,8.616-1.16,12.685h-82.987C316.77,110.796,316.359,106.547,316.359,102.18z"/>
				<path fill="#8C8C8C" d="M334.533,26.67c0,13.524,10.964,24.483,24.491,24.483c13.512,0,24.469-10.959,24.469-24.483
					c0-13.521-10.957-24.479-24.469-24.479C345.498,2.19,334.533,13.149,334.533,26.67z"/>
			</g>
			<g>
				<path fill="#8C8C8C" d="M395.459,102.18c0-30.273,19.097-54.812,42.665-54.812c23.555,0,42.648,24.539,42.648,54.812
					c0,4.367-0.41,8.617-1.16,12.686h-82.987C395.87,110.797,395.459,106.547,395.459,102.18z"/>
				<path fill="#8C8C8C" d="M413.633,26.67c0,13.525,10.964,24.484,24.491,24.484c13.513,0,24.469-10.959,24.469-24.484
					c0-13.52-10.956-24.479-24.469-24.479C424.597,2.191,413.633,13.15,413.633,26.67z"/>
			</g>
			<g>
				<path fill="#8C8C8C" d="M474.559,102.18c0-30.274,19.097-54.812,42.665-54.812c23.555,0,42.648,24.538,42.648,54.812
					c0,4.367-0.41,8.616-1.16,12.685h-82.988C474.969,110.796,474.559,106.547,474.559,102.18z"/>
				<path fill="#8C8C8C" d="M492.733,26.67c0,13.524,10.965,24.483,24.491,24.483c13.513,0,24.469-10.959,24.469-24.483
					c0-13.521-10.957-24.479-24.469-24.479C503.698,2.19,492.733,13.149,492.733,26.67z"/>
			</g>
			<g>
				<path fill="#8C8C8C" d="M553.659,102.18c0-30.274,19.097-54.812,42.666-54.812c23.555,0,42.648,24.538,42.648,54.812
					c0,4.367-0.41,8.616-1.16,12.685h-82.987C554.069,110.796,553.659,106.547,553.659,102.18z"/>
				<path fill="#8C8C8C" d="M571.833,26.67c0,13.524,10.964,24.483,24.492,24.483c13.513,0,24.469-10.959,24.469-24.483
					c0-13.521-10.956-24.479-24.469-24.479C582.797,2.191,571.833,13.149,571.833,26.67z"/>
			</g>
			<g>
				<path fill="#8C8C8C" d="M632.76,102.18c0-30.274,19.096-54.812,42.665-54.812c23.555,0,42.648,24.538,42.648,54.812
					c0,4.367-0.41,8.616-1.16,12.685h-82.987C633.17,110.796,632.76,106.547,632.76,102.18z"/>
				<path fill="#8C8C8C" d="M650.934,26.67c0,13.524,10.964,24.483,24.491,24.483c13.513,0,24.469-10.959,24.469-24.483
					c0-13.521-10.957-24.479-24.469-24.479C661.897,2.19,650.934,13.149,650.934,26.67z"/>
			</g>
			<g>
				<path fill="#8C8C8C" d="M711.859,102.18c0-30.274,19.097-54.812,42.665-54.812c23.555,0,42.649,24.538,42.649,54.812
					c0,4.367-0.41,8.616-1.16,12.685h-82.988C712.27,110.796,711.859,106.547,711.859,102.18z"/>
				<path fill="#8C8C8C" d="M730.033,26.67c0,13.524,10.964,24.483,24.491,24.483c13.513,0,24.469-10.959,24.469-24.483
					c0-13.521-10.956-24.479-24.469-24.479C740.997,2.19,730.033,13.149,730.033,26.67z"/>
			</g>
			<g>
				<g>
					<path fill="#8C8C8C" d="M790.959,102.18c0-30.274,19.097-54.812,42.665-54.812c23.555,0,42.648,24.538,42.648,54.812
						c0,4.367-0.41,8.616-1.16,12.685h-82.987C791.37,110.796,790.959,106.547,790.959,102.18z"/>
					<path fill="#8C8C8C" d="M809.133,26.67c0,13.524,10.964,24.483,24.491,24.483c13.513,0,24.469-10.959,24.469-24.483
						c0-13.521-10.956-24.479-24.469-24.479C820.097,2.19,809.133,13.149,809.133,26.67z"/>
				</g>
			</g>
		</g>
		<rect x="-1" y="89" fill="#8C8C8C" width="876" height="78"/>
		<g>
			<g>
				<g>
					<path fill="#D1D1D1" d="M-0.041,161.18c0-30.274,19.096-54.812,42.665-54.812c23.555,0,42.648,24.538,42.648,54.812
						c0,4.367-0.41,8.616-1.16,12.685H1.125C0.37,169.796-0.041,165.547-0.041,161.18z"/>
					<path fill="#D1D1D1" d="M18.133,85.67c0,13.524,10.964,24.483,24.491,24.483c13.513,0,24.469-10.959,24.469-24.483
						c0-13.521-10.957-24.479-24.469-24.479C29.098,61.19,18.133,72.149,18.133,85.67z"/>
				</g>
			</g>
			<g>
				<path fill="#D1D1D1" d="M79.06,161.18c0-30.274,19.097-54.812,42.666-54.812c23.555,0,42.648,24.538,42.648,54.812
					c0,4.367-0.41,8.616-1.16,12.685H80.226C79.47,169.796,79.06,165.547,79.06,161.18z"/>
				<path fill="#D1D1D1" d="M97.233,85.67c0,13.525,10.964,24.483,24.492,24.483c13.512,0,24.469-10.958,24.469-24.483
					c0-13.521-10.957-24.479-24.469-24.479C108.198,61.19,97.233,72.149,97.233,85.67z"/>
			</g>
			<g>
				<path fill="#D1D1D1" d="M158.16,161.18c0-30.274,19.096-54.812,42.665-54.812c23.555,0,42.649,24.538,42.649,54.812
					c0,4.367-0.41,8.616-1.16,12.685h-82.988C158.57,169.796,158.16,165.547,158.16,161.18z"/>
				<path fill="#D1D1D1" d="M176.333,85.67c0,13.525,10.964,24.483,24.491,24.483c13.513,0,24.469-10.958,24.469-24.483
					c0-13.521-10.956-24.479-24.469-24.479C187.297,61.19,176.333,72.149,176.333,85.67z"/>
			</g>
			<g>
				<path fill="#D1D1D1" d="M237.259,161.18c0-30.274,19.096-54.812,42.665-54.812c23.555,0,42.648,24.538,42.648,54.812
					c0,4.367-0.41,8.616-1.16,12.685h-82.987C237.669,169.796,237.259,165.547,237.259,161.18z"/>
				<path fill="#D1D1D1" d="M255.433,85.669c0,13.525,10.964,24.484,24.491,24.484c13.513,0,24.469-10.959,24.469-24.484
					c0-13.52-10.956-24.479-24.469-24.479C266.397,61.189,255.433,72.149,255.433,85.669z"/>
			</g>
			<g>
				<path fill="#D1D1D1" d="M316.359,161.18c0-30.274,19.097-54.812,42.665-54.812c23.555,0,42.648,24.538,42.648,54.812
					c0,4.367-0.41,8.616-1.16,12.685h-82.987C316.77,169.796,316.359,165.547,316.359,161.18z"/>
				<path fill="#D1D1D1" d="M334.533,85.67c0,13.524,10.964,24.483,24.491,24.483c13.512,0,24.469-10.959,24.469-24.483
					c0-13.521-10.957-24.479-24.469-24.479C345.498,61.19,334.533,72.149,334.533,85.67z"/>
			</g>
			<g>
				<path fill="#D1D1D1" d="M395.459,161.18c0-30.273,19.097-54.812,42.665-54.812c23.555,0,42.648,24.539,42.648,54.812
					c0,4.367-0.41,8.617-1.16,12.686h-82.987C395.87,169.797,395.459,165.547,395.459,161.18z"/>
				<path fill="#D1D1D1" d="M413.633,85.67c0,13.525,10.964,24.484,24.491,24.484c13.513,0,24.469-10.959,24.469-24.484
					c0-13.52-10.956-24.479-24.469-24.479C424.597,61.191,413.633,72.15,413.633,85.67z"/>
			</g>
			<g>
				<path fill="#D1D1D1" d="M474.559,161.18c0-30.274,19.097-54.812,42.665-54.812c23.555,0,42.648,24.538,42.648,54.812
					c0,4.367-0.41,8.616-1.16,12.685h-82.988C474.969,169.796,474.559,165.547,474.559,161.18z"/>
				<path fill="#D1D1D1" d="M492.733,85.67c0,13.524,10.965,24.483,24.491,24.483c13.513,0,24.469-10.959,24.469-24.483
					c0-13.521-10.957-24.479-24.469-24.479C503.698,61.19,492.733,72.149,492.733,85.67z"/>
			</g>
			<g>
				<path fill="#D1D1D1" d="M553.659,161.18c0-30.274,19.097-54.812,42.666-54.812c23.555,0,42.648,24.538,42.648,54.812
					c0,4.367-0.41,8.616-1.16,12.685h-82.987C554.069,169.796,553.659,165.547,553.659,161.18z"/>
				<path fill="#D1D1D1" d="M571.833,85.67c0,13.524,10.964,24.483,24.492,24.483c13.513,0,24.469-10.959,24.469-24.483
					c0-13.521-10.956-24.479-24.469-24.479C582.797,61.19,571.833,72.149,571.833,85.67z"/>
			</g>
			<g>
				<path fill="#D1D1D1" d="M632.76,161.18c0-30.273,19.096-54.812,42.665-54.812c23.555,0,42.648,24.539,42.648,54.812
					c0,4.367-0.41,8.616-1.16,12.686h-82.987C633.17,169.796,632.76,165.547,632.76,161.18z"/>
				<path fill="#D1D1D1" d="M650.934,85.67c0,13.524,10.964,24.484,24.491,24.484c13.513,0,24.469-10.96,24.469-24.484
					c0-13.521-10.957-24.479-24.469-24.479C661.897,61.19,650.934,72.149,650.934,85.67z"/>
			</g>
			<g>
				<path fill="#D1D1D1" d="M711.859,161.18c0-30.274,19.097-54.812,42.665-54.812c23.555,0,42.649,24.538,42.649,54.812
					c0,4.367-0.41,8.616-1.16,12.685h-82.988C712.27,169.796,711.859,165.547,711.859,161.18z"/>
				<path fill="#D1D1D1" d="M730.033,85.67c0,13.524,10.964,24.483,24.491,24.483c13.513,0,24.469-10.959,24.469-24.483
					c0-13.521-10.956-24.479-24.469-24.479C740.997,61.19,730.033,72.149,730.033,85.67z"/>
			</g>
			<g>
				<g>
					<path fill="#D1D1D1" d="M790.959,161.18c0-30.274,19.097-54.812,42.665-54.812c23.555,0,42.648,24.538,42.648,54.812
						c0,4.367-0.41,8.616-1.16,12.685h-82.987C791.37,169.796,790.959,165.547,790.959,161.18z"/>
					<path fill="#D1D1D1" d="M809.133,85.67c0,13.524,10.964,24.483,24.491,24.483c13.513,0,24.469-10.959,24.469-24.483
						c0-13.521-10.956-24.479-24.469-24.479C820.097,61.19,809.133,72.149,809.133,85.67z"/>
				</g>
			</g>
		</g>
		<rect x="-1.887" y="171.595" fill="#231F20" width="882.956" height="134.993"/>
		<g>
			<path fill="#776537" d="M174.584,77.888c0,0-3.255,1.188-3.221,6.685c0.012,1.84,0.989,6.684-2.477,6.938
				c0,0,4.208,0.492,5.446-2.23c0,0-0.246,4.953-2.229,6.189c0,0,11.639,4.951,13.622-6.189l-0.991-16.346
				C184.735,72.934,177.551,69.962,174.584,77.888z"/>
			<path fill="#776537" d="M244.65,77.888c0,0,3.252,1.188,3.218,6.685c-0.01,1.84-0.989,6.684,2.48,6.938
				c0,0-4.213,0.492-5.449-2.23c0,0,0.245,4.953,2.229,6.189c0,0-11.64,4.951-13.622-6.189l0.994-16.346
				C234.5,72.934,241.68,69.962,244.65,77.888z"/>
			<g>
				<polygon fill="#B7B7B7" points="170.537,105.25 178.463,104.262 179.698,113.177 				"/>
				<polygon fill="#B7B7B7" points="248.669,105.25 240.745,104.262 239.504,113.177 				"/>
				<path fill="#F4B07D" d="M256.553,158.895h-93.446c0,0,15.299-56.491,15.299-83.566c0-15.642,62.574-15.642,62.574,0
					C240.98,114.457,256.553,158.895,256.553,158.895z"/>
				<path fill="#776537" d="M174.595,78.106c0,0-3.246,1.187-3.215,6.676c0.013,1.839,0.989,6.677-2.473,6.925
					c0,0,4.204,0.494,5.44-2.226c0,0-0.248,4.946-2.226,6.182c0,0,11.621,4.944,13.6-6.182l-0.989-16.321
					C184.733,73.16,177.562,70.194,174.595,78.106z"/>
				<path fill="#776537" d="M244.555,78.106c0,0,3.247,1.187,3.215,6.676c-0.011,1.839-0.988,6.677,2.475,6.925
					c0,0-4.205,0.494-5.441-2.226c0,0,0.247,4.946,2.227,6.182c0,0-11.623,4.944-13.601-6.182l0.989-16.321
					C234.418,73.16,241.588,70.194,244.555,78.106z"/>
				<g>
					<polygon fill="#B7B7B7" points="170.556,105.43 178.468,104.439 179.705,113.342 					"/>
					<polygon fill="#B7B7B7" points="248.569,105.43 240.656,104.439 239.419,113.342 					"/>
					<path fill="#F4B07D" d="M256.44,158.99h-93.301c0,0,15.273-56.404,15.273-83.437c0-15.619,62.48-15.618,62.48,0
						C240.893,114.62,256.44,158.99,256.44,158.99z"/>
					<g>
						<path fill="#776537" d="M210.298,22.352c0,0-12.132-17-34.622,0.259c-9.088,6.976-13.104,35.957,2.195,51.258l33.21-37.137
							L210.298,22.352z"/>
						<path fill="#776537" d="M210.417,22.352c0,0,12.132-17,34.622,0.259c9.087,6.978,13.103,35.957-2.195,51.258l-33.211-37.137
							L210.417,22.352z"/>
						<path fill="#F4B07D" d="M239.038,41.669c0,0-10.499-13.432-30.479-13.144c-19.9-0.288-28.26,13.144-28.26,13.144
							c-6.984,11.432-4.897,46.741-4.897,46.741c0,17.473,24.232,31.392,34.41,31.392s34.497-13.013,34.497-31.392
							C244.309,88.41,246.024,53.101,239.038,41.669z"/>
						<g>
							<path opacity="0.1" fill="#232222" d="M225.451,100.473c0,0-2.552,9.392-16.225,9.392c-13.507,0-16.225-9.392-16.225-9.392
								s4.941,6.92,16.802,6.92C209.803,107.393,217.704,108.219,225.451,100.473z"/>
						</g>
						<g opacity="0.2">
							<path fill="#231F20" d="M218.279,70.797c0.412,0.417,0.751,0.869,1.026,1.396c0.137,0.262,0.255,0.544,0.321,0.854
								c0.075,0.301,0.107,0.64,0.051,0.972c-0.024,0.169-0.049,0.337-0.125,0.492c-0.068,0.155-0.118,0.327-0.226,0.453
								c-0.099,0.132-0.193,0.275-0.304,0.394l-0.355,0.314c-0.241,0.205-0.511,0.328-0.769,0.49l-0.803,0.336l-0.019,0.008
								l-0.079,0.016c-0.664,0.129-1.373,0.363-1.969,0.68c-0.144,0.088-0.298,0.162-0.436,0.253l-0.377,0.298
								c-0.209,0.233-0.384,0.412-0.593,0.776c-0.224,0.334-0.477,0.732-0.868,1.018c-0.365,0.299-0.8,0.501-1.212,0.618
								c-0.423,0.161-0.827,0.172-1.241,0.254c-0.415,0.021-0.777,0.048-1.234,0.055c-0.387-0.025-0.746-0.022-1.155-0.07
								c-0.423-0.066-0.849-0.112-1.261-0.264c-0.207-0.055-0.413-0.132-0.615-0.247c-0.206-0.096-0.404-0.208-0.584-0.362
								c-0.386-0.271-0.659-0.652-0.896-0.992l-0.156-0.246l-0.039-0.062l-0.02-0.03c0.018,0.025-0.045-0.062,0.04,0.056
								l-0.003-0.003l-0.005-0.008l-0.012-0.014l-0.092-0.109c-0.12-0.136-0.245-0.316-0.363-0.415
								c-0.116-0.079-0.227-0.163-0.335-0.253c-0.129-0.086-0.289-0.165-0.431-0.252c-0.596-0.316-1.305-0.552-1.97-0.681
								l-0.078-0.016l-0.019-0.008l-0.803-0.336c-0.258-0.161-0.526-0.284-0.768-0.489l-0.356-0.314
								c-0.109-0.118-0.204-0.262-0.303-0.394c-0.107-0.126-0.157-0.298-0.226-0.453c-0.075-0.154-0.101-0.323-0.125-0.491
								c-0.057-0.332-0.024-0.671,0.051-0.973c0.064-0.31,0.184-0.592,0.319-0.854c0.277-0.529,0.608-0.975,1.03-1.4
								c0.164-0.166,0.432-0.168,0.598-0.003c0.16,0.158,0.167,0.414,0.019,0.58l-0.019,0.021c-0.31,0.348-0.6,0.781-0.79,1.207
								c-0.098,0.215-0.175,0.436-0.205,0.648c-0.043,0.214-0.047,0.424-0.001,0.61c0.02,0.095,0.032,0.19,0.087,0.272
								c0.048,0.083,0.064,0.179,0.143,0.25c0.067,0.076,0.117,0.16,0.189,0.233l0.251,0.204c0.166,0.138,0.395,0.23,0.587,0.352
								l0.679,0.259l-0.097-0.023c0.834,0.138,1.593,0.365,2.355,0.734c0.188,0.104,0.371,0.194,0.559,0.317
								c0.192,0.144,0.382,0.295,0.566,0.448c0.166,0.152,0.258,0.292,0.391,0.439l0.093,0.108l0.066,0.087l0.019,0.029l0.039,0.06
								l0.152,0.233c0.201,0.277,0.383,0.528,0.629,0.689c0.108,0.099,0.243,0.17,0.386,0.232c0.129,0.077,0.28,0.131,0.442,0.17
								c0.308,0.114,0.645,0.141,0.972,0.196c0.347,0.04,0.752,0.037,1.125,0.058l1.048-0.04c0.33-0.067,0.703-0.072,0.994-0.192
								c0.318-0.084,0.591-0.215,0.813-0.395c0.237-0.156,0.405-0.418,0.606-0.709c0.168-0.298,0.493-0.702,0.809-1.016l0.523-0.404
								c0.182-0.116,0.369-0.212,0.556-0.314c0.763-0.369,1.521-0.597,2.355-0.733l-0.097,0.023l0.679-0.26
								c0.192-0.12,0.421-0.212,0.587-0.35l0.251-0.204c0.072-0.074,0.122-0.157,0.189-0.233c0.078-0.071,0.095-0.167,0.143-0.25
								c0.055-0.082,0.067-0.178,0.087-0.272c0.046-0.187,0.041-0.396-0.001-0.61c-0.031-0.213-0.108-0.434-0.206-0.647
								c-0.192-0.429-0.477-0.855-0.796-1.212l-0.009-0.01c-0.155-0.174-0.141-0.441,0.033-0.598
								C217.865,70.629,218.121,70.639,218.279,70.797z"/>
						</g>
						<circle fill="#2E230E" cx="192.502" cy="64.639" r="1.904"/>
						<path fill="#593B2E" d="M184.743,57.037c0,0,8.406-3.184,15.923,2.631c0,0,3.027-0.4,1.309-2.186
							C201.975,57.482,192.656,51.488,184.743,57.037z"/>
						<path fill="#2E230E" d="M223.899,64.638c0,1.052,0.854,1.902,1.903,1.902c1.056,0,1.908-0.851,1.908-1.902
							c0-1.054-0.853-1.906-1.908-1.906C224.752,62.731,223.899,63.584,223.899,64.638z"/>
						<path fill="#593B2E" d="M236.296,57.906c0,0-8.167-3.738-16.062,1.561c0,0-2.992-0.602-1.159-2.269
							C219.075,57.198,228.774,51.844,236.296,57.906z"/>
						<path fill="#F4B07D" d="M178.253,67.328c0,0-6.537-10.721-8.89-0.784c-0.728,3.061-0.787,19.613,8.627,9.155"/>
						
							<path fill="none" stroke="#C18963" stroke-width="1.046" stroke-linecap="round" stroke-linejoin="round" stroke-miterlimit="10" d="
							M174.07,67.59c0,0-3.4,2.615,0,6.537"/>
						<path fill="#F4B07D" d="M240.334,67.328c0,0,6.54-10.721,8.894-0.784c0.726,3.061,0.782,19.613-8.628,9.155"/>
						
							<path fill="none" stroke="#C18963" stroke-width="1.046" stroke-linecap="round" stroke-linejoin="round" stroke-miterlimit="10" d="
							M244.522,67.59c0,0,3.397,2.615,0,6.537"/>
						<path fill="#776537" d="M174.369,30.194c0,0-3.84,22.931-3.316,23.104c0.521,0.175,18.483-9.33,18.483-9.33l20.836-7.236
							l30.943,9.503l6.279-2.613l-3.315-16.39l-30.164-3.138l-23.706,2.613L174.369,30.194z"/>
						<path opacity="0.3" fill="#231F20" d="M210.193,36.731c0,0,12.555,29.115,40.447,14.21c0,0-8.019-4.337-9.325-9.827"/>
						<path opacity="0.3" fill="#231F20" d="M210.015,36.512c0,0-7.549,21.99-35.042,14.631c0,0,6.306-3.031,8.634-8.232"/>
						<path fill="#776537" d="M210.372,36.731c0,0,11.768,25.194,38.266,13.862c0,0-6.016-4.446-7.322-9.938"/>
						<path fill="#776537" d="M210.015,36.512c0,0-9.612,17.814-32.279,14.009c0,0,4.953-4.159,5.788-8.968"/>
						<path fill="#776537" d="M199.472,15.726c0,0,4.219-1.495,2.789-7.673c0,0,4.71,4.531,4.71,9.066c0,0,1.917-9.414,5.927-10.81
							c0,0-1.461,12.371,10.737,8.744l-2.195,5.03l-8.718,10.632l-16.038-2.964L199.472,15.726z"/>
						
							<path fill="#C18963" stroke="#C18963" stroke-width="0.7936" stroke-linecap="round" stroke-linejoin="round" stroke-miterlimit="10" d="
							M214,89.75c0,3.59-1.25,5.125-3.625,5.125c-3.59,0-4.375-1.785-4.375-5.375s-2.09-6.25,1.5-6.25S214,86.16,214,89.75z"/>
						<path opacity="0.1" fill="#232222" d="M205.5,60c0,0,6.25-1.75,9.5,0.75C215,60.75,209.25,54.25,205.5,60z"/>
					</g>
				</g>
			</g>
			
				<path fill="none" stroke="#F4B07D" stroke-width="19.1376" stroke-linecap="round" stroke-linejoin="round" stroke-miterlimit="10" d="
				M176.255,142.461c0,0-36.582-26.539-39.745-54.986c-3.262-29.398-1.631-36.477-1.631-52.047"/>
			<path fill="none" stroke="#282828" stroke-width="19.598" stroke-linejoin="round" stroke-miterlimit="10" d="M176.255,142.461
				c0,0-36.582-26.539-39.745-54.986c-3.262-29.398-1.631-36.477-1.631-52.047"/>
			
				<path fill="none" stroke="#F4B07D" stroke-width="19.1376" stroke-linecap="round" stroke-linejoin="round" stroke-miterlimit="10" d="
				M243.891,122.569c0,0,36.582,26.543,39.745,54.988c3.262,29.396,1.634,36.471,1.634,52.043"/>
			<path fill="none" stroke="#282828" stroke-width="21" stroke-linejoin="round" stroke-miterlimit="10" d="M243.891,122.569
				c0,0,36.582,26.543,39.745,54.988c3.262,29.396,1.634,36.471,1.634,52.043"/>
			
				<line fill="none" stroke="#2D2D2D" stroke-width="21.7931" stroke-linecap="round" stroke-linejoin="round" stroke-miterlimit="10" x1="188.391" y1="226.363" x2="188.391" y2="333.107"/>
			
				<line fill="none" stroke="#2D2D2D" stroke-width="21.7931" stroke-linecap="round" stroke-linejoin="round" stroke-miterlimit="10" x1="228.976" y1="226.363" x2="228.976" y2="333.107"/>
			<path fill="#F4B07D" d="M173.757,118.182c-5.572,23.781-16.336,21.867-16.336,62.066c0,49.479,0,40.588,0,41.844
				c0,0.09,5.444,0.132,5.444,0.132h46.989V118.182H173.757z"/>
			<path fill="#F4B07D" d="M244.15,118.182c5.571,23.781,16.333,21.867,16.333,62.066c0,49.479,0,40.588,0,41.844
				c0,0.09-5.445,0.132-5.445,0.132h-46.985V118.182H244.15z"/>
			<path fill="#2D2D2D" d="M208.948,265.447c28.695,0,51.959-17.822,51.959-46.521H156.986
				C156.986,247.625,180.248,265.447,208.948,265.447z"/>
			<path fill="#1C1C1C" d="M199.161,336.328c-29.139,0-52.769,6.268-52.769,14.002h52.769V336.328z"/>
			<path fill="#1C1C1C" d="M218.047,336.328c29.146,0,52.768,6.268,52.768,14.002h-52.768V336.328z"/>
			<rect x="176.083" y="329.353" fill="#2D2D2D" width="23.973" height="8.229"/>
			<rect x="216.975" y="329.353" fill="#2D2D2D" width="23.971" height="8.229"/>
			<rect x="157.402" y="218.998" fill="#161516" width="103.302" height="7.768"/>
			<rect x="202.148" y="218.998" fill="#D6D6D6" width="14.753" height="7.768"/>
			<rect x="173.313" y="117.014" fill="#FFFFFF" width="70.58" height="102.158"/>
			<path fill="#282828" d="M150.973,195.118c0,0-0.415,24.679-2.125,35.981c0,0,3.297,1.491,11.604,1.491
				c0,0,16.863,1.988,18.688-0.169l-0.496-24.75L150.973,195.118z"/>
			<path fill="#282828" d="M178.767,113.867v106.258h-26.696c0,0-8.17-77.513,18.641-106.258H178.767z"/>
			<path fill="#282828" d="M269.348,198.084c0,0,0,25.261,2.601,33.68c0,0-6.155,1.652-14.465,1.652c0,0-15.534,1.163-17.362-0.994
				l0.499-24.75L269.348,198.084z"/>
			<path fill="#282828" d="M240.496,113.867v106.258h28.677c0,0,4.825-88.077-20.62-106.258H240.496z"/>
			<polygon fill="#2D2D2D" points="178.283,113.818 163.918,132.593 177.429,133.592 163.918,150.656 178.283,203.086 			"/>
			<polygon fill="#2D2D2D" points="240.402,113.818 254.768,132.593 241.257,133.592 254.768,150.656 240.402,203.086 			"/>
			<g>
				<g>
					<polygon fill="#30AB64" points="198.71,117.459 209.252,127.997 220.168,117.459 209.5,114.692 					"/>
					<path fill="#30AB64" d="M212.924,123.491l-3.302-3.354v-0.368l-0.183,0.18l-0.182-0.18l-0.02,0.393l-3.286,3.33l-7.707,73.39
						c0,0,8.466,19.084,11.377,19.084c3.693,0,11.012-19.084,11.012-19.084L212.924,123.491z"/>
				</g>
				<polygon fill="#D6D6D6" points="173.508,106.242 209.855,114.692 198.603,126.715 170.537,113.836 170.537,105.25 				"/>
				<polygon fill="#D6D6D6" points="245.842,106.242 209.5,114.692 220.746,126.715 248.814,113.836 248.814,105.25 				"/>
			</g>
			<g>
				<path fill="#F4B07D" d="M234.455,103.154c0,0-3.963,13.331-25.189,13.331c-20.97,0-25.187-13.331-25.187-13.331
					s7.668,9.819,26.08,9.819C210.159,112.974,222.43,114.147,234.455,103.154z"/>
			</g>
		</g>
		<g>
			<path fill="#F04F00" d="M352.409,495.214c0,0-12.405-70.99,45.489-106.828l70.644,70.644c0,0,27.225,9.994,38.252,36.185H352.409
				z"/>
			<path fill="#F04F00" d="M393.762,402.86l25.502-89.601c0,0-2.068-137.844,66.165-137.844c0,0,89.598,11.718,73.057,106.141
				c0,0-63.408,168.168-86.842,190.225C471.644,471.781,363.437,409.752,393.762,402.86z"/>
			<g>
				
					<path fill="none" stroke="#FFD0CA" stroke-width="48.1583" stroke-linecap="round" stroke-linejoin="round" stroke-miterlimit="10" d="
					M368.744,405.953c-5.181-17.647-9.396-36.244-11.555-54.698c-3.043-26.023-1.996-51.752,6.197-74.119
					c15.214-41.537,43.035-59.941,106.53-80.247"/>
				<path opacity="0.2" fill="none" stroke="#000000" stroke-width="48.1583" stroke-linejoin="round" stroke-miterlimit="10" d="
					M368.744,405.953c-5.181-17.647-9.396-36.244-11.555-54.698"/>
				<path opacity="0.1" fill="none" stroke="#000000" stroke-width="48.1583" stroke-linejoin="round" stroke-miterlimit="10" d="
					M356.752,347.223c-2.476-24.642-1.134-48.876,6.634-70.087c15.214-41.537,43.035-59.941,106.53-80.247"/>
				
					<path fill="none" stroke="#F04F00" stroke-width="49.9419" stroke-linecap="round" stroke-linejoin="round" stroke-miterlimit="10" d="
					M388.314,237.602c17.418-16.648,42.874-28.327,81.602-40.713"/>
				<path fill="none" stroke="#F04F00" stroke-width="49.9419" stroke-linejoin="round" stroke-miterlimit="10" d="M363.386,277.136
					c5.935-16.2,13.789-28.884,24.928-39.534"/>
			</g>
			<g>
				
					<path fill="none" stroke="#FFD0CA" stroke-width="48.1583" stroke-linecap="round" stroke-linejoin="round" stroke-miterlimit="10" d="
					M701.783,270.022c-12.68,6.739-26.237,12.892-40.005,17.448c-19.422,6.424-39.26,9.676-57.652,6.934
					c-34.157-5.095-52.612-23.469-78.137-68.82"/>
				<path opacity="0.1" fill="none" stroke="#000000" stroke-width="49.9419" stroke-linejoin="round" stroke-miterlimit="10" d="
					M604.125,294.404c-34.157-5.095-52.612-23.469-78.137-68.82"/>
				
					<path fill="none" stroke="#FFD0CA" stroke-width="48.1583" stroke-linecap="round" stroke-linejoin="round" stroke-miterlimit="10" d="
					M658.761,288.44"/>
				
					<path fill="none" stroke="#F04F00" stroke-width="49.9419" stroke-linecap="round" stroke-linejoin="round" stroke-miterlimit="10" d="
					M569.97,281.569c-15.474-10.698-28.412-28.324-43.981-55.985"/>
				<path fill="none" stroke="#F04F00" stroke-width="49.9419" stroke-linejoin="round" stroke-miterlimit="10" d="M604.125,294.404
					c-13.323-1.988-24.259-5.997-34.155-12.835"/>
			</g>
			<g>
				<polygon fill="#FFFFFF" points="488.142,333.934 503.808,286.371 491.369,292.141 492.477,294.017 499.591,290.921 
					485.691,333.127 				"/>
				<path fill="#FFFFFF" d="M502.755,281.303l-13.632,7.044l1.399,2.365l14.32-6.642c0.299-0.138,0.655-0.078,0.898,0.136
					c0.246,0.218,0.337,0.566,0.236,0.873l-16.262,49.374l2.848,0.938l17.066-51.823L502.755,281.303z"/>
			</g>
			<g>
				<path fill="none" d="M531.743,298.12c-4.127-1.296-8.523,1-9.819,5.126l-6.979,22.219c-1.296,4.127,0.999,8.524,5.127,9.82
					c4.127,1.297,8.524-0.999,9.819-5.124l6.978-22.221C538.165,303.814,535.87,299.418,531.743,298.12z"/>
				<path fill="#FFFFFF" d="M532.682,295.129c-6.07-1.907-12.561,1.481-14.467,7.551l-6.636,21.131
					c-1.906,6.07,1.481,12.561,7.552,14.468c6.07,1.905,12.561-1.482,14.467-7.553l6.636-21.13
					C542.141,303.525,538.752,297.035,532.682,295.129z M529.891,330.161c-1.295,4.125-5.692,6.421-9.819,5.124
					c-4.128-1.296-6.423-5.693-5.127-9.82l6.979-22.219c1.296-4.126,5.692-6.422,9.819-5.126c4.127,1.298,6.422,5.694,5.126,9.82
					L529.891,330.161z"/>
				<path fill="#FFFFFF" d="M534.289,290.016c-7.738-2.43-15.981,1.872-18.412,9.611l-7.963,25.355
					c-2.431,7.737,1.873,15.981,9.611,18.411c7.739,2.431,15.982-1.872,18.413-9.611l7.962-25.355
					C546.331,300.689,542.027,292.445,534.289,290.016z M534.933,331.146c-2.138,6.807-9.413,10.604-16.221,8.465
					c-6.806-2.136-10.605-9.411-8.467-16.218l6.636-21.131c2.138-6.807,9.414-10.605,16.221-8.467
					c6.807,2.138,10.604,9.414,8.467,16.219L534.933,331.146z"/>
			</g>
			<g>
				<path fill="#FFD0CA" d="M465.761,173.777c0,0,12.182-19.025,0.363-55.1c0,0,55.252-76.314,66.819,15.305
					c0,0-0.397,66.039,2.278,75.403C535.222,209.386,454.465,194.462,465.761,173.777z"/>
				<path opacity="0.1" fill="#231F20" d="M533.215,185.084l0.446-17.837c0,0-42.361-25.64-49.051-31.882
					C484.611,135.365,495.313,170.369,533.215,185.084z"/>
				<path fill="#FFD0CA" d="M488.239,145.133c0,0,42.237,50.586,73.452,26.815c0,0,9.204-4.624,12.641-51.11
					c0,0,4.094-0.551-0.322-16.375c0,0,7.104-41.266-13.688-58.647l-66.161-7.009l-27.896,25.767l1.529,36.291L488.239,145.133z"/>
				<path fill="#3A3633" d="M459.935,103.294c0,0-10.931-41.94,16.854-64.385c0,0,25.352-24.661,58.536-10.368
					c0,0,25.224,6.872,24.996,17.274c0,0-14.94,6.075-42.153-3.123c0,0-24.229-2.89-25.014,16.584c0,0,8.069,13.503,3.75,20.69
					c0,0-4.436,18.033-3.11,23.345l-4.095,0.552C489.699,103.863,474.998,76.97,459.935,103.294z"/>
				<g>
					<path fill="#3A3633" d="M546.941,91.071c0,0-0.095-0.044-0.273-0.126c-0.17-0.074-0.337-0.121-0.593-0.225
						c-0.213-0.105-0.643-0.199-1.075-0.32c-0.441-0.122-0.94-0.268-1.529-0.348c-0.582-0.101-1.212-0.21-1.879-0.326
						c-0.688-0.058-1.412-0.119-2.162-0.183c-0.752-0.075-1.534-0.138-2.339-0.114c-0.805-0.004-1.623-0.006-2.44-0.01
						c-0.821-0.027-1.642,0.039-2.451,0.102c-0.812,0.059-1.61,0.117-2.383,0.173c-0.772,0.073-1.53,0.073-2.232,0.199
						c-0.707,0.102-1.375,0.197-1.992,0.286c-2.479,0.354-4.131,0.591-4.131,0.591l-0.029,0.005
						c-0.249,0.035-0.48-0.138-0.516-0.387c-0.033-0.229,0.109-0.441,0.324-0.503c0,0,1.619-0.47,4.049-1.175
						c0.61-0.176,1.271-0.367,1.97-0.57c0.695-0.227,1.457-0.336,2.232-0.52c0.78-0.168,1.586-0.342,2.405-0.518
						c0.82-0.182,1.655-0.367,2.509-0.46c0.853-0.117,1.704-0.233,2.543-0.349c0.838-0.14,1.677-0.192,2.494-0.228
						c0.819-0.044,1.61-0.087,2.361-0.128c0.765,0.023,1.488,0.045,2.155,0.066c0.666,0,1.296,0.082,1.856,0.155
						c0.566,0.077,1.021,0.106,1.505,0.233c0.446,0.103,0.839,0.193,1.039,0.251c0.188,0.056,0.289,0.086,0.289,0.086
						c1.238,0.368,1.943,1.671,1.575,2.91c-0.369,1.238-1.672,1.944-2.91,1.575c-0.102-0.031-0.2-0.067-0.294-0.109L546.941,91.071z
						"/>
				</g>
				<g>
					<path fill="#3A3633" d="M565.679,89.079c0,0,0.177-0.028,0.487-0.077c0.305-0.041,0.733-0.098,1.251-0.135
						c1.032-0.072,2.416-0.124,3.826,0.124c0.354,0.077,0.701,0.124,1.048,0.249c0.171,0.054,0.341,0.107,0.509,0.161
						c0.165,0.076,0.328,0.151,0.488,0.226c0.322,0.127,0.606,0.357,0.874,0.545c0.269,0.188,0.464,0.466,0.662,0.67
						c0.176,0.231,0.281,0.486,0.395,0.689c0.128,0.199,0.13,0.41,0.182,0.564c0.071,0.314,0.112,0.495,0.112,0.495
						c0.056,0.241-0.096,0.481-0.337,0.537c-0.211,0.048-0.421-0.062-0.507-0.25l-0.051-0.11c0,0-0.059-0.127-0.16-0.35
						c-0.062-0.102-0.078-0.258-0.201-0.371c-0.111-0.118-0.201-0.273-0.346-0.4c-0.172-0.104-0.304-0.258-0.517-0.347
						c-0.215-0.085-0.407-0.207-0.672-0.251c-0.123-0.031-0.248-0.062-0.375-0.095l-0.412-0.046
						c-0.268-0.047-0.57-0.026-0.854-0.035c-1.167,0.015-2.369,0.285-3.242,0.519c-0.438,0.116-0.798,0.235-1.044,0.317
						c-0.238,0.087-0.374,0.136-0.374,0.136l-0.027,0.01c-0.747,0.271-1.572-0.116-1.844-0.864
						c-0.271-0.747,0.116-1.572,0.864-1.844C565.5,89.116,565.593,89.094,565.679,89.079z"/>
				</g>
				<circle fill="#3A3633" cx="568.6" cy="98.329" r="1.939"/>
				<circle fill="#3A3633" cx="537.647" cy="97.858" r="1.939"/>
				<path fill="#FFD0CA" d="M487.254,122.341c0,0-19.15,15.59-27.319-19.047c0,0-2.086-29.101,20.475-8.397"/>
			</g>
			<path fill="#C6977F" stroke="#C6977F" stroke-width="3.82" stroke-linecap="round" stroke-miterlimit="10" d="M565.543,142.787
				c0,5.786-4.691,10.479-10.479,10.479s-10.479-4.692-10.479-10.479c0-5.789,9.006,0.923,14.793,0.923
				S565.543,136.998,565.543,142.787z"/>
			<path fill="none" stroke="#C6977F" stroke-width="1.7836" stroke-linecap="round" stroke-miterlimit="10" d="M468.447,95.679
				c0,0-5.128,9.142,1.783,16.053"/>
			<g>
				<path fill="#EAB39B" d="M561.131,96.707l5.381,7.182l2.7,3.573l1.37,1.767c0.449,0.597,0.934,1.156,1.39,1.741
					c0.465,0.571,0.91,1.184,1.397,1.71l1.505,1.725c0.535,0.688,0.939,1.461,1.181,2.311c0.247,0.84,0.325,1.76,0.171,2.631
					c-0.039,0.218-0.063,0.441-0.12,0.652l-0.209,0.621c-0.119,0.428-0.351,0.783-0.545,1.164c-0.184,0.395-0.461,0.699-0.701,1.041
					c-0.235,0.35-0.522,0.639-0.812,0.92c-0.553,0.607-1.189,1.077-1.81,1.572c-0.63,0.477-1.303,0.867-1.953,1.303l-0.05,0.033
					l-0.074,0.029c-0.889,0.352-1.738,0.629-2.623,0.891c-0.879,0.258-1.77,0.48-2.673,0.66c-0.902,0.186-1.822,0.301-2.751,0.367
					s-1.873,0.062-2.82-0.045c-0.473-0.055-0.948-0.125-1.419-0.251c-0.471-0.108-0.938-0.271-1.391-0.468
					c-0.455-0.195-0.892-0.447-1.299-0.742c-0.193-0.163-0.395-0.316-0.577-0.49l-0.512-0.557l-0.43-0.617
					c-0.132-0.211-0.232-0.439-0.347-0.658c-0.125-0.215-0.182-0.455-0.269-0.682c-0.088-0.229-0.158-0.46-0.2-0.695
					c-0.12-0.468-0.182-0.938-0.214-1.406c-0.048-0.469-0.01-0.934-0.018-1.396c-0.005-0.263,0.205-0.479,0.468-0.483
					c0.245-0.004,0.451,0.18,0.479,0.419l0.008,0.068c0.05,0.425,0.054,0.856,0.138,1.27c0.072,0.416,0.147,0.826,0.281,1.215
					c0.049,0.202,0.123,0.392,0.21,0.574c0.087,0.182,0.144,0.379,0.258,0.543c0.106,0.166,0.196,0.346,0.312,0.503l0.367,0.455
					l0.422,0.397c0.149,0.123,0.314,0.227,0.469,0.342c0.328,0.205,0.67,0.393,1.042,0.531c0.369,0.141,0.753,0.258,1.153,0.331
					c0.394,0.089,0.806,0.132,1.218,0.161c1.657,0.122,3.368-0.144,5.046-0.496c0.842-0.18,1.679-0.401,2.505-0.656
					c0.82-0.254,1.66-0.545,2.423-0.859l-0.123,0.062c0.585-0.408,1.208-0.779,1.764-1.213c0.542-0.449,1.108-0.876,1.557-1.391
					c0.246-0.24,0.479-0.49,0.666-0.763c0.191-0.269,0.434-0.517,0.562-0.81c0.146-0.283,0.34-0.555,0.417-0.856l0.159-0.44
					c0.042-0.148,0.054-0.3,0.085-0.449c0.232-1.193-0.166-2.469-0.922-3.479l-1.429-1.674c-0.521-0.581-0.948-1.188-1.421-1.784
					c-0.936-1.191-1.788-2.427-2.669-3.645l-2.579-3.691c-1.68-2.485-3.34-4.983-4.932-7.525c-0.141-0.223-0.073-0.518,0.15-0.658
					C560.707,96.456,560.984,96.512,561.131,96.707z"/>
			</g>
			<path opacity="0.1" fill="#231F20" d="M535.222,209.386c0,0,26.16,48.31,16.351,86.954
				C551.573,296.34,560.49,284.148,535.222,209.386z"/>
		</g>
	</g>
</g>
</svg>
