<?xml version="1.0" encoding="utf-8"?>
<!-- Generator: Adobe Illustrator 16.0.0, SVG Export Plug-In . SVG Version: 6.00 Build 0)  -->
<!DOCTYPE svg PUBLIC "-//W3C//DTD SVG 1.1//EN" "http://www.w3.org/Graphics/SVG/1.1/DTD/svg11.dtd">
<svg version="1.1" id="Layer_1" xmlns="http://www.w3.org/2000/svg" xmlns:xlink="http://www.w3.org/1999/xlink" x="0px" y="0px"
	 width="874.999px" height="471.813px" viewBox="0 0 874.999 471.813" enable-background="new 0 0 874.999 471.813"
	 xml:space="preserve">
<g>
	<g>
		<path fill="none" d="M846.563,0c-1.299-0.045-2.514-0.088-3.621-0.127V0H846.563z"/>
		<rect x="826.076" y="192.939" fill="#609161" width="15.776" height="12.446"/>
		<path fill="#609161" d="M874.999,16.975h-8.41l3.656,4.383c1.562,0.055,3.147,0.108,4.754,0.164V16.975z"/>
		<polygon fill="#609161" points="874.999,3.438 871.146,3.438 874.999,8.06 		"/>
		<path fill="#609161" d="M874.999,10.703V9.76l-5.271-6.322h-9.924v5.399l1.156,1.388C865.463,10.379,870.171,10.54,874.999,10.703
			z"/>
		<rect x="826.076" y="233.547" fill="#609161" width="15.776" height="12.446"/>
		<rect x="826.076" y="220.011" fill="#609161" width="15.776" height="12.446"/>
		<rect x="826.076" y="206.476" fill="#609161" width="15.776" height="12.445"/>
		<rect x="826.076" y="260.619" fill="#609161" width="15.776" height="12.445"/>
		<rect x="826.076" y="57.581" fill="#609161" width="15.776" height="12.446"/>
		<rect x="826.076" y="84.653" fill="#609161" width="15.776" height="12.446"/>
		<rect x="826.076" y="71.117" fill="#609161" width="15.776" height="12.446"/>
		<rect x="826.076" y="98.189" fill="#609161" width="15.776" height="12.445"/>
		<rect x="826.076" y="111.725" fill="#609161" width="15.776" height="12.446"/>
		<rect x="826.076" y="125.261" fill="#609161" width="15.776" height="12.446"/>
		<rect x="826.076" y="16.975" fill="#609161" width="15.776" height="12.445"/>
		<polygon fill="#609161" points="841.853,13.414 833.904,3.438 826.076,3.438 826.076,15.884 841.853,15.884 		"/>
		<rect x="826.076" y="44.045" fill="#609161" width="15.776" height="12.446"/>
		<polygon fill="#609161" points="831.165,0 826.076,0 826.076,2.348 833.036,2.348 		"/>
		<path fill="#609161" d="M871.18,22.479l3.819,4.58v-4.449C873.683,22.564,872.408,22.521,871.18,22.479z"/>
		<rect x="826.076" y="30.51" fill="#609161" width="15.776" height="12.445"/>
		<rect x="826.076" y="138.797" fill="#609161" width="15.776" height="12.445"/>
		<path fill="#609161" d="M860.436,11.295c-0.211-0.008-0.424-0.015-0.632-0.021v4.61h4.459L860.436,11.295z"/>
		<rect x="826.076" y="247.083" fill="#609161" width="15.776" height="12.446"/>
		<rect x="826.076" y="179.403" fill="#609161" width="15.776" height="12.446"/>
		<rect x="826.076" y="165.867" fill="#609161" width="15.776" height="12.446"/>
		<path fill="#609161" d="M865.172,16.975h-5.368v4.021c2.876,0.101,5.879,0.206,8.981,0.313L865.172,16.975z"/>
		<rect x="842.942" y="260.619" fill="#609161" width="15.771" height="12.445"/>
		<path fill="#609161" d="M869.142,33.223l5.857,7.353v-7.149C872.825,33.352,870.858,33.283,869.142,33.223z"/>
		<rect x="859.804" y="260.619" fill="#609161" width="15.195" height="12.445"/>
		<rect x="826.076" y="152.332" fill="#609161" width="15.776" height="12.445"/>
		<path fill="#609161" d="M874.999,28.759l-5.278-6.33c-3.638-0.125-6.827-0.235-9.439-0.327l5.83,7.318h8.888V28.759z"/>
		<path fill="#609161" d="M874.999,30.51h-8.02l1.269,1.592c2.181,0.076,4.435,0.155,6.751,0.234V30.51z"/>
		<rect x="842.942" y="274.154" fill="#609161" width="15.771" height="13.881"/>
		<rect x="842.942" y="165.867" fill="#609161" width="15.771" height="12.446"/>
		<rect x="842.942" y="179.403" fill="#609161" width="15.771" height="12.446"/>
		<rect x="842.942" y="192.939" fill="#609161" width="15.771" height="12.446"/>
		<rect x="816.06" y="247.083" fill="#609161" width="8.927" height="12.446"/>
		<rect x="842.942" y="206.476" fill="#609161" width="15.771" height="12.445"/>
		<rect x="816.06" y="260.619" fill="#609161" width="8.927" height="12.445"/>
		<rect x="816.06" y="274.154" fill="#609161" width="8.927" height="13.881"/>
		<rect x="842.942" y="98.189" fill="#609161" width="15.771" height="12.445"/>
		<rect x="842.942" y="152.332" fill="#609161" width="15.771" height="12.445"/>
		<rect x="842.942" y="111.725" fill="#609161" width="15.771" height="12.446"/>
		<rect x="842.942" y="84.653" fill="#609161" width="15.771" height="12.446"/>
		<rect x="842.942" y="138.797" fill="#609161" width="15.771" height="12.445"/>
		<rect x="842.942" y="125.261" fill="#609161" width="15.771" height="12.446"/>
		<rect x="859.804" y="152.332" fill="#609161" width="15.195" height="12.445"/>
		<rect x="859.804" y="192.939" fill="#609161" width="15.195" height="12.446"/>
		<rect x="859.804" y="220.011" fill="#609161" width="15.195" height="12.446"/>
		<rect x="859.804" y="179.403" fill="#609161" width="15.195" height="12.446"/>
		<rect x="859.804" y="206.476" fill="#609161" width="15.195" height="12.445"/>
		<rect x="842.942" y="220.011" fill="#609161" width="15.771" height="12.446"/>
		<rect x="842.942" y="71.117" fill="#609161" width="15.771" height="12.446"/>
		<rect x="859.804" y="165.867" fill="#609161" width="15.195" height="12.446"/>
		<rect x="826.076" y="274.154" fill="#609161" width="15.776" height="13.881"/>
		<rect x="859.804" y="233.547" fill="#609161" width="15.195" height="12.446"/>
		<rect x="842.942" y="233.547" fill="#609161" width="15.771" height="12.446"/>
		<rect x="842.942" y="247.083" fill="#609161" width="15.771" height="12.446"/>
		<rect x="859.804" y="247.083" fill="#609161" width="15.195" height="12.446"/>
		<rect x="816.06" y="16.975" fill="#609161" width="8.927" height="12.445"/>
		<rect x="816.06" y="44.045" fill="#609161" width="8.927" height="12.446"/>
		<rect x="816.06" y="138.797" fill="#609161" width="8.927" height="12.445"/>
		<rect x="816.06" y="3.438" fill="#609161" width="8.927" height="12.446"/>
		<rect x="859.804" y="138.797" fill="#609161" width="15.195" height="12.445"/>
		<path fill="#609161" d="M874.999,15.884v-4.091c-4.759-0.162-9.175-0.312-13.104-0.447l3.784,4.538H874.999z"/>
		<rect x="816.06" fill="#609161" width="8.927" height="2.348"/>
		<rect x="816.06" y="30.51" fill="#609161" width="8.927" height="12.445"/>
		<rect x="816.06" y="111.725" fill="#609161" width="8.927" height="12.446"/>
		<rect x="816.06" y="98.189" fill="#609161" width="8.927" height="12.445"/>
		<rect x="816.06" y="84.653" fill="#609161" width="8.927" height="12.446"/>
		<rect x="816.06" y="57.581" fill="#609161" width="8.927" height="12.446"/>
		<rect x="816.06" y="71.117" fill="#609161" width="8.927" height="12.446"/>
		<rect x="816.06" y="206.476" fill="#609161" width="8.927" height="12.445"/>
		<polygon fill="#609161" points="858.714,34.578 855.473,30.51 842.942,30.51 842.942,42.955 858.714,42.955 		"/>
		<polygon fill="#609161" points="844.688,16.975 842.942,16.975 842.942,29.42 854.604,29.42 		"/>
		<rect x="816.06" y="220.011" fill="#609161" width="8.927" height="12.446"/>
		<polygon fill="#609161" points="842.942,14.782 842.942,15.884 843.819,15.884 		"/>
		<rect x="842.942" y="44.045" fill="#609161" width="15.771" height="12.446"/>
		<rect x="842.942" y="57.581" fill="#609161" width="15.771" height="12.446"/>
		<rect x="816.06" y="152.332" fill="#609161" width="8.927" height="12.445"/>
		<rect x="816.06" y="165.867" fill="#609161" width="8.927" height="12.446"/>
		<rect x="816.06" y="233.547" fill="#609161" width="8.927" height="12.446"/>
		<rect x="816.06" y="179.403" fill="#609161" width="8.927" height="12.446"/>
		<rect x="816.06" y="125.261" fill="#609161" width="8.927" height="12.446"/>
		<rect x="816.06" y="192.939" fill="#609161" width="8.927" height="12.446"/>
		<path fill="#609161" d="M852.976,2.348L851.15,0.16c-1.632-0.057-3.162-0.11-4.587-0.16h-3.621v0.34l1.601,2.008H852.976z"/>
		<polygon fill="#609161" points="859.804,35.945 859.804,42.955 865.389,42.955 		"/>
		<path fill="#609161" d="M868.819,2.348l-1.359-1.63c-2.661-0.09-5.22-0.177-7.656-0.261v1.891H868.819z"/>
		<rect x="859.804" y="274.154" fill="#609161" width="15.195" height="13.881"/>
		<polygon fill="#609161" points="858.714,3.438 855.302,3.438 858.714,7.53 		"/>
		<rect x="859.804" y="125.261" fill="#609161" width="15.195" height="12.446"/>
		<polygon fill="#609161" points="856.195,16.975 858.714,20.135 858.714,16.975 		"/>
		<path fill="#609161" d="M858.714,0.42c-2.143-0.073-4.186-0.144-6.104-0.21l1.783,2.138h4.321V0.42z"/>
		<path fill="#609161" d="M858.714,9.23l-4.83-5.793h-8.473l5.117,6.422c2.629,0.093,5.361,0.188,8.186,0.286V9.23z"/>
		<path fill="#609161" d="M858.714,11.235c-2.757-0.095-5.211-0.181-7.293-0.254l3.906,4.902h3.387V11.235z"/>
		<path fill="#609161" d="M807.06,290.969V0H0v471.813h874.999v-89.045l-68.169-88.907
			C806.147,292.971,806.268,291.728,807.06,290.969z"/>
		<rect fill="#898989" width="875.069" height="42.1"/>
		<path fill="#609161" d="M870.236,2.348h4.763V0.972c-2.071-0.069-4.103-0.138-6.081-0.204L870.236,2.348z"/>
		<polygon fill="#609161" points="874.999,375.604 874.999,297.035 814.756,297.035 		"/>
		<rect x="859.804" y="111.725" fill="#609161" width="15.195" height="12.446"/>
		<rect x="859.804" y="57.581" fill="#609161" width="15.195" height="12.446"/>
		<rect x="859.804" y="71.117" fill="#609161" width="15.195" height="12.446"/>
		<polygon fill="#609161" points="874.999,55.019 866.257,44.045 859.804,44.045 859.804,56.491 874.999,56.491 		"/>
		<rect x="859.804" y="84.653" fill="#609161" width="15.195" height="12.446"/>
		<rect x="859.804" y="98.189" fill="#609161" width="15.195" height="12.445"/>
		<polygon fill="#FFFFFF" points="855.473,30.51 858.714,34.578 858.714,30.51 		"/>
		<path fill="#FFFFFF" d="M858.714,22.047c-2.231-0.078-3.938-0.139-4.989-0.176c-0.301-0.01-0.535-0.263-0.524-0.562
			c0.01-0.301,0.241-0.534,0.563-0.525c1.599,0.057,3.254,0.114,4.95,0.174v-0.822l-2.519-3.16h-11.507l9.916,12.445h4.109V22.047z"
			/>
		<polygon fill="#FFFFFF" points="833.904,3.438 841.853,13.414 841.853,3.438 		"/>
		<path fill="#FFFFFF" d="M855.327,15.884l-3.906-4.902c-2.98-0.104-5.211-0.184-6.485-0.229c-0.301-0.011-0.535-0.263-0.524-0.563
			c0.01-0.301,0.244-0.51,0.563-0.525c1.787,0.063,3.645,0.129,5.554,0.195l-5.117-6.422h-2.469v11.345l0.877,1.102H855.327z"/>
		<polygon fill="#FFFFFF" points="841.853,0 831.165,0 833.036,2.348 841.853,2.348 		"/>
		<polygon fill="#FFFFFF" points="842.942,0.34 842.942,2.348 844.543,2.348 		"/>
		<path fill="#FFFFFF" d="M859.804,22.085v7.335h6.308l-5.83-7.318C860.117,22.096,859.963,22.091,859.804,22.085z"/>
		<path fill="#FFFFFF" d="M874.999,42.955v-2.38l-5.857-7.353c-3.052-0.105-5.331-0.186-6.628-0.231
			c-0.301-0.011-0.535-0.263-0.524-0.563c0.01-0.301,0.239-0.533,0.563-0.525c1.831,0.064,3.737,0.131,5.695,0.199l-1.269-1.592
			h-7.176v5.436l5.585,7.01H874.999z"/>
		<path fill="#FFFFFF" d="M871.305,44.109c-0.084-0.002-0.16-0.027-0.229-0.064h-4.818l8.742,10.974V44.239
			C873.401,44.184,872.143,44.139,871.305,44.109z"/>
		<path fill="#FFFFFF" d="M870.236,2.348l-1.318-1.58c-0.489-0.017-0.976-0.033-1.458-0.05l1.359,1.63H870.236z"/>
		<polygon fill="#FFFFFF" points="874.999,8.06 871.146,3.438 869.728,3.438 874.999,9.76 		"/>
		<path fill="#FFFFFF" d="M852.609,0.21c-0.496-0.017-0.979-0.034-1.459-0.05l1.825,2.188h1.417L852.609,0.21z"/>
		<path fill="#FFFFFF" d="M859.804,8.837v1.347c0.386,0.014,0.768,0.026,1.156,0.041L859.804,8.837z"/>
		<path fill="#FFFFFF" d="M861.896,11.346c-0.495-0.018-0.98-0.035-1.46-0.051l3.827,4.589h1.417L861.896,11.346z"/>
		<polygon fill="#FFFFFF" points="855.302,3.438 853.884,3.438 858.714,9.23 858.714,7.53 		"/>
		<path fill="#FFFFFF" d="M871.18,22.479c-0.493-0.016-0.981-0.033-1.459-0.05l5.278,6.33v-1.7L871.18,22.479z"/>
		<path fill="#FFFFFF" d="M866.589,16.975h-1.417l3.613,4.334c0.485,0.016,0.971,0.032,1.46,0.049L866.589,16.975z"/>
		<path fill="#FFFFFF" d="M871.075,44.045c0.069,0.037,0.146,0.062,0.229,0.064c0.838,0.029,2.097,0.074,3.694,0.13v-0.194H871.075z
			"/>
		<path fill="#FFFFFF" d="M874.999,32.336c-2.316-0.079-4.57-0.158-6.751-0.234l0.894,1.121c1.717,0.061,3.684,0.129,5.857,0.203
			V32.336z"/>
		<path fill="#FFFFFF" d="M862.553,31.902c-0.324-0.008-0.554,0.225-0.563,0.525c-0.011,0.301,0.224,0.553,0.524,0.563
			c1.297,0.046,3.576,0.126,6.628,0.231l-0.894-1.121C866.29,32.033,864.384,31.967,862.553,31.902z"/>
		<path fill="#FFFFFF" d="M874.999,21.521c-1.606-0.056-3.191-0.109-4.754-0.164l0.935,1.121c1.229,0.043,2.503,0.086,3.819,0.131
			V21.521z"/>
		<path fill="#FFFFFF" d="M869.721,22.429l-0.936-1.12c-3.103-0.107-6.105-0.213-8.981-0.313v0.508l0.478,0.599
			C862.894,22.193,866.083,22.304,869.721,22.429z"/>
		<path fill="#FFFFFF" d="M859.804,21.503v0.582c0.159,0.006,0.313,0.011,0.478,0.017L859.804,21.503z"/>
		<path fill="#FFFFFF" d="M853.764,20.783c-0.322-0.009-0.554,0.225-0.563,0.525c-0.011,0.3,0.224,0.553,0.524,0.562
			c1.051,0.037,2.758,0.098,4.989,0.176v-1.09C857.018,20.897,855.362,20.84,853.764,20.783z"/>
		<path fill="#FFFFFF" d="M870.245,21.357c-0.489-0.017-0.975-0.033-1.46-0.049l0.936,1.12c0.478,0.017,0.966,0.034,1.459,0.05
			L870.245,21.357z"/>
		<path fill="#FFFFFF" d="M859.804,10.537v0.736c0.208,0.007,0.421,0.014,0.632,0.021L859.804,10.537z"/>
		<path fill="#FFFFFF" d="M874.999,10.703c-4.828-0.163-9.536-0.324-14.039-0.479l0.936,1.121c3.929,0.135,8.345,0.285,13.104,0.447
			V10.703z"/>
		<path fill="#FFFFFF" d="M858.714,10.146c-2.824-0.098-5.557-0.193-8.186-0.286l0.893,1.122c2.082,0.073,4.536,0.159,7.293,0.254
			V10.146z"/>
		<path fill="#FFFFFF" d="M844.975,9.664c-0.319,0.016-0.554,0.225-0.563,0.525c-0.011,0.301,0.224,0.553,0.524,0.563
			c1.274,0.045,3.505,0.124,6.485,0.229l-0.893-1.122C848.619,9.793,846.762,9.728,844.975,9.664z"/>
		<path fill="#FFFFFF" d="M861.896,11.346l-0.936-1.121c-0.389-0.015-0.771-0.027-1.156-0.041v0.354l0.632,0.758
			C860.915,11.311,861.4,11.328,861.896,11.346z"/>
		<path fill="#FFFFFF" d="M858.714,0v-0.67c-2.393-0.082-4.744-0.162-7.04-0.242L852.435,0H858.714z"/>
		<path fill="#FFFFFF" d="M859.804,0h7.057l-0.336-0.403c-2.27-0.077-4.513-0.153-6.721-0.229V0z"/>
		<path fill="#FFFFFF" d="M858.714,0h-6.279l0.175,0.21c1.919,0.066,3.962,0.137,6.104,0.21V0z"/>
		<path fill="#FFFFFF" d="M874.999,0.972V0h-6.721l0.64,0.768C870.896,0.834,872.928,0.902,874.999,0.972z"/>
		<path fill="#FFFFFF" d="M846.563,0c1.425,0.05,2.955,0.104,4.587,0.16L851.017,0H846.563z"/>
		<path fill="#FFFFFF" d="M859.804,0.457c2.437,0.084,4.995,0.171,7.656,0.261L866.86,0h-7.057V0.457z"/>
		<path fill="#FFFFFF" d="M866.86,0h1.418l-0.295-0.354c-0.488-0.018-0.974-0.033-1.459-0.05L866.86,0z"/>
		<path fill="#FFFFFF" d="M868.918,0.768L868.278,0h-1.418l0.6,0.718C867.942,0.734,868.429,0.751,868.918,0.768z"/>
		<path fill="#FFFFFF" d="M851.674-0.912c-0.489-0.018-0.976-0.033-1.46-0.051L851.017,0h1.418L851.674-0.912z"/>
		<path fill="#FFFFFF" d="M852.435,0h-1.418l0.134,0.16c0.479,0.016,0.963,0.033,1.459,0.05L852.435,0z"/>
		<path fill="#FFFFFF" d="M859.804,288.035v3.572c0,0.301-0.244,0.545-0.545,0.545s-0.545-0.244-0.545-0.545v-3.572h-15.771v3.572
			c0,0.301-0.244,0.545-0.545,0.545s-0.545-0.244-0.545-0.545v-3.572h-15.776v3.572c0,0.301-0.244,0.545-0.545,0.545
			s-0.545-0.244-0.545-0.545v-3.572h-8.927v-13.881h-5.296c-0.301,0-0.545-0.244-0.545-0.545s0.244-0.545,0.545-0.545h5.296v-12.445
			h-5.428c-0.301,0-0.545-0.244-0.545-0.545s0.244-0.545,0.545-0.545h5.428v-12.446h-5.56c-0.301,0-0.545-0.244-0.545-0.545
			s0.244-0.545,0.545-0.545h5.56v-12.446h-5.691c-0.301,0-0.545-0.244-0.545-0.545s0.244-0.545,0.545-0.545h5.691v-12.446h-5.823
			c-0.301,0-0.545-0.243-0.545-0.545c0-0.301,0.244-0.545,0.545-0.545h5.823v-12.445h-5.955c-0.301,0-0.545-0.244-0.545-0.544
			c0-0.302,0.244-0.546,0.545-0.546h5.955v-12.446h-6.087c-0.301,0-0.545-0.244-0.545-0.545s0.244-0.545,0.545-0.545h6.087v-12.446
			h-6.22c-0.301,0-0.545-0.244-0.545-0.545c0-0.3,0.244-0.545,0.545-0.545h6.22v-12.446h-6.351c-0.301,0-0.545-0.244-0.545-0.545
			s0.244-0.545,0.545-0.545h6.351v-12.445h-6.483c-0.301,0-0.545-0.244-0.545-0.545s0.244-0.545,0.545-0.545h6.483v-12.445h-6.615
			c-0.301,0-0.545-0.244-0.545-0.545s0.244-0.545,0.545-0.545h6.615v-12.446h-6.747c-0.301,0-0.545-0.243-0.545-0.545
			c0-0.301,0.244-0.545,0.545-0.545h6.747v-12.446h-6.879c-0.301,0-0.545-0.244-0.545-0.545s0.244-0.545,0.545-0.545h6.879V98.189
			h-7.011c-0.301,0-0.545-0.244-0.545-0.545s0.244-0.545,0.545-0.545h7.011V84.653h-7.143c-0.301,0-0.545-0.244-0.545-0.545
			c0-0.3,0.244-0.545,0.545-0.545h7.143V71.117h-7.274c-0.301,0-0.545-0.244-0.545-0.545s0.244-0.545,0.545-0.545h7.274V57.581
			h-7.406c-0.301,0-0.545-0.244-0.545-0.545s0.244-0.545,0.545-0.545h7.406V44.045h-7.539c-0.301,0-0.545-0.244-0.545-0.545
			s0.244-0.545,0.545-0.545h7.539V30.51h-7.671c-0.301,0-0.545-0.244-0.545-0.545s0.244-0.545,0.545-0.545h7.671V16.975h-7.803
			c-0.301,0-0.545-0.245-0.545-0.546s0.244-0.545,0.545-0.545h7.803V3.438h-7.935c-0.301,0-0.545-0.244-0.545-0.545
			s0.244-0.545,0.545-0.545h7.935V0h-9v290.969c0.058-0.055,0.109-0.113,0.174-0.163c0.957-0.731,2.323-0.551,3.056,0.403
			l4.467,5.826h60.243v-9H859.804z"/>
		<rect x="824.986" y="125.261" fill="#FFFFFF" width="1.09" height="12.446"/>
		<rect x="824.986" y="233.547" fill="#FFFFFF" width="1.09" height="12.446"/>
		<rect x="824.986" y="192.939" fill="#FFFFFF" width="1.09" height="12.446"/>
		<rect x="824.986" y="179.403" fill="#FFFFFF" width="1.09" height="12.446"/>
		<rect x="824.986" y="206.476" fill="#FFFFFF" width="1.09" height="12.445"/>
		<rect x="824.986" y="165.867" fill="#FFFFFF" width="1.09" height="12.446"/>
		<rect x="824.986" fill="#FFFFFF" width="1.09" height="2.348"/>
		<rect x="824.986" y="220.011" fill="#FFFFFF" width="1.09" height="12.446"/>
		<rect x="824.986" y="84.653" fill="#FFFFFF" width="1.09" height="12.446"/>
		<rect x="824.986" y="274.154" fill="#FFFFFF" width="1.09" height="13.881"/>
		<rect x="824.986" y="260.619" fill="#FFFFFF" width="1.09" height="12.445"/>
		<rect x="824.986" y="3.438" fill="#FFFFFF" width="1.09" height="12.446"/>
		<rect x="824.986" y="247.083" fill="#FFFFFF" width="1.09" height="12.446"/>
		<rect x="824.986" y="111.725" fill="#FFFFFF" width="1.09" height="12.446"/>
		<rect x="824.986" y="30.51" fill="#FFFFFF" width="1.09" height="12.445"/>
		<rect x="824.986" y="138.797" fill="#FFFFFF" width="1.09" height="12.445"/>
		<rect x="824.986" y="57.581" fill="#FFFFFF" width="1.09" height="12.446"/>
		<rect x="824.986" y="152.332" fill="#FFFFFF" width="1.09" height="12.445"/>
		<rect x="824.986" y="44.045" fill="#FFFFFF" width="1.09" height="12.446"/>
		<rect x="824.986" y="98.189" fill="#FFFFFF" width="1.09" height="12.445"/>
		<rect x="824.986" y="16.975" fill="#FFFFFF" width="1.09" height="12.445"/>
		<rect x="824.986" y="71.117" fill="#FFFFFF" width="1.09" height="12.446"/>
		<path fill="#FFFFFF" d="M824.986,291.607c0,0.301,0.244,0.545,0.545,0.545s0.545-0.244,0.545-0.545v-3.572h-1.09V291.607z"/>
		<path fill="#FFFFFF" d="M842.942-0.127c-0.131-0.004-0.254-0.009-0.382-0.014L842.672,0h0.271V-0.127z"/>
		<rect x="841.853" y="220.011" fill="#FFFFFF" width="1.09" height="12.446"/>
		<rect x="841.853" y="57.581" fill="#FFFFFF" width="1.09" height="12.446"/>
		<rect x="841.853" y="44.045" fill="#FFFFFF" width="1.09" height="12.446"/>
		<rect x="841.853" y="71.117" fill="#FFFFFF" width="1.09" height="12.446"/>
		<rect x="841.853" y="84.653" fill="#FFFFFF" width="1.09" height="12.446"/>
		<polygon fill="#FFFFFF" points="842.942,14.782 841.853,13.414 841.853,15.884 842.942,15.884 		"/>
		<rect x="841.853" y="30.51" fill="#FFFFFF" width="1.09" height="12.445"/>
		<rect x="841.853" y="247.083" fill="#FFFFFF" width="1.09" height="12.446"/>
		<rect x="841.853" y="233.547" fill="#FFFFFF" width="1.09" height="12.446"/>
		<rect x="841.853" y="111.725" fill="#FFFFFF" width="1.09" height="12.446"/>
		<rect x="841.853" y="138.797" fill="#FFFFFF" width="1.09" height="12.445"/>
		<rect x="841.853" y="125.261" fill="#FFFFFF" width="1.09" height="12.446"/>
		<rect x="841.853" y="260.619" fill="#FFFFFF" width="1.09" height="12.445"/>
		<rect x="841.853" y="206.476" fill="#FFFFFF" width="1.09" height="12.445"/>
		<rect x="841.853" y="152.332" fill="#FFFFFF" width="1.09" height="12.445"/>
		<rect x="841.853" y="165.867" fill="#FFFFFF" width="1.09" height="12.446"/>
		<rect x="841.853" y="98.189" fill="#FFFFFF" width="1.09" height="12.445"/>
		<rect x="841.853" y="274.154" fill="#FFFFFF" width="1.09" height="13.881"/>
		<rect x="841.853" y="192.939" fill="#FFFFFF" width="1.09" height="12.446"/>
		<rect x="841.853" y="179.403" fill="#FFFFFF" width="1.09" height="12.446"/>
		<rect x="841.853" y="16.975" fill="#FFFFFF" width="1.09" height="12.445"/>
		<polygon fill="#FFFFFF" points="842.672,0 842.942,0.34 842.942,0 		"/>
		<path fill="#FFFFFF" d="M842.561-0.141c-0.241-0.008-0.478-0.016-0.708-0.024V0h0.819L842.561-0.141z"/>
		<polygon fill="#FFFFFF" points="842.942,3.438 841.853,3.438 841.853,13.414 842.942,14.782 		"/>
		<polygon fill="#FFFFFF" points="842.942,2.348 842.942,0.34 842.672,0 841.853,0 841.853,2.348 		"/>
		<path fill="#FFFFFF" d="M841.853,291.607c0,0.301,0.244,0.545,0.545,0.545s0.545-0.244,0.545-0.545v-3.572h-1.09V291.607z"/>
		<rect x="858.714" y="179.403" fill="#FFFFFF" width="1.09" height="12.446"/>
		<rect x="858.714" y="274.154" fill="#FFFFFF" width="1.09" height="13.881"/>
		<rect x="858.714" y="84.653" fill="#FFFFFF" width="1.09" height="12.446"/>
		<polygon fill="#FFFFFF" points="858.714,3.438 858.714,7.53 859.804,8.837 859.804,3.438 		"/>
		<rect x="858.714" y="165.867" fill="#FFFFFF" width="1.09" height="12.446"/>
		<rect x="858.714" y="138.797" fill="#FFFFFF" width="1.09" height="12.445"/>
		<path fill="#FFFFFF" d="M859.804,20.995v-4.021h-1.09v3.16l0.674,0.846C859.526,20.986,859.664,20.99,859.804,20.995z"/>
		<path fill="#FFFFFF" d="M858.714,2.348h1.09V0.457c-0.365-0.012-0.729-0.023-1.09-0.037V2.348z"/>
		<rect x="858.714" y="192.939" fill="#FFFFFF" width="1.09" height="12.446"/>
		<rect x="858.714" y="206.476" fill="#FFFFFF" width="1.09" height="12.445"/>
		<rect x="858.714" y="57.581" fill="#FFFFFF" width="1.09" height="12.446"/>
		<rect x="858.714" y="247.083" fill="#FFFFFF" width="1.09" height="12.446"/>
		<rect x="858.714" y="220.011" fill="#FFFFFF" width="1.09" height="12.446"/>
		<polygon fill="#FFFFFF" points="859.804,35.945 858.714,34.578 858.714,42.955 859.804,42.955 		"/>
		<rect x="858.714" y="98.189" fill="#FFFFFF" width="1.09" height="12.445"/>
		<path fill="#FFFFFF" d="M858.714,9.23v0.915c0.261,0.009,0.524,0.019,0.786,0.027L858.714,9.23z"/>
		<rect x="858.714" y="125.261" fill="#FFFFFF" width="1.09" height="12.446"/>
		<rect x="858.714" y="152.332" fill="#FFFFFF" width="1.09" height="12.445"/>
		<path fill="#FFFFFF" d="M859.804,11.273c-0.37-0.014-0.73-0.025-1.09-0.038v4.648h1.09V11.273z"/>
		<rect x="858.714" y="44.045" fill="#FFFFFF" width="1.09" height="12.446"/>
		<rect x="858.714" y="111.725" fill="#FFFFFF" width="1.09" height="12.446"/>
		<rect x="858.714" y="71.117" fill="#FFFFFF" width="1.09" height="12.446"/>
		<rect x="858.714" y="260.619" fill="#FFFFFF" width="1.09" height="12.445"/>
		<rect x="858.714" y="233.547" fill="#FFFFFF" width="1.09" height="12.446"/>
		<path fill="#FFFFFF" d="M859.804,22.085c-0.376-0.013-0.739-0.026-1.09-0.038v7.373h1.09V22.085z"/>
		<polygon fill="#FFFFFF" points="859.804,30.51 858.714,30.51 858.714,34.578 859.804,35.945 		"/>
		<path fill="#FFFFFF" d="M858.714,20.135v0.822c0.224,0.008,0.449,0.016,0.674,0.023L858.714,20.135z"/>
		<path fill="#FFFFFF" d="M859.804,10.184V8.837l-1.09-1.307v1.7l0.786,0.942C859.602,10.176,859.702,10.18,859.804,10.184z"/>
		<path fill="#FFFFFF" d="M859.388,20.98l0.416,0.522v-0.508C859.664,20.99,859.526,20.986,859.388,20.98z"/>
		<path fill="#FFFFFF" d="M859.804,21.503l-0.416-0.522c-0.225-0.008-0.45-0.016-0.674-0.023v1.09
			c0.351,0.012,0.714,0.025,1.09,0.038V21.503z"/>
		<path fill="#FFFFFF" d="M859.804,10.537l-0.304-0.364c-0.262-0.009-0.525-0.019-0.786-0.027v1.09
			c0.359,0.013,0.72,0.024,1.09,0.038V10.537z"/>
		<path fill="#FFFFFF" d="M859.5,10.173l0.304,0.364v-0.354C859.702,10.18,859.602,10.176,859.5,10.173z"/>
		<path fill="#FFFFFF" d="M859.804-0.632c-0.365-0.013-0.727-0.025-1.09-0.038V0h1.09V-0.632z"/>
		<path fill="#FFFFFF" d="M859.804,0.457V0h-1.09v0.42C859.074,0.434,859.438,0.445,859.804,0.457z"/>
		<path fill="#FFFFFF" d="M858.714,291.607c0,0.301,0.244,0.545,0.545,0.545s0.545-0.244,0.545-0.545v-3.572h-1.09V291.607z"/>
		<rect x="826.076" y="273.064" fill="#FFFFFF" width="15.776" height="1.09"/>
		<rect x="816.06" y="273.064" fill="#FFFFFF" width="8.927" height="1.09"/>
		<rect x="842.942" y="273.064" fill="#FFFFFF" width="15.771" height="1.09"/>
		<rect x="859.804" y="273.064" fill="#FFFFFF" width="15.195" height="1.09"/>
		<path fill="#FFFFFF" d="M810.764,273.064c-0.301,0-0.545,0.244-0.545,0.545s0.244,0.545,0.545,0.545h5.296v-1.09H810.764z"/>
		<rect x="824.986" y="273.064" fill="#FFFFFF" width="1.09" height="1.09"/>
		<rect x="841.853" y="273.064" fill="#FFFFFF" width="1.09" height="1.09"/>
		<rect x="858.714" y="273.064" fill="#FFFFFF" width="1.09" height="1.09"/>
		<rect x="842.942" y="259.529" fill="#FFFFFF" width="15.771" height="1.09"/>
		<rect x="859.804" y="259.529" fill="#FFFFFF" width="15.195" height="1.09"/>
		<rect x="816.06" y="259.529" fill="#FFFFFF" width="8.927" height="1.09"/>
		<rect x="826.076" y="259.529" fill="#FFFFFF" width="15.776" height="1.09"/>
		<path fill="#FFFFFF" d="M810.632,259.529c-0.301,0-0.545,0.244-0.545,0.545s0.244,0.545,0.545,0.545h5.428v-1.09H810.632z"/>
		<rect x="824.986" y="259.529" fill="#FFFFFF" width="1.09" height="1.09"/>
		<rect x="841.853" y="259.529" fill="#FFFFFF" width="1.09" height="1.09"/>
		<rect x="858.714" y="259.529" fill="#FFFFFF" width="1.09" height="1.09"/>
		<rect x="859.804" y="245.993" fill="#FFFFFF" width="15.195" height="1.09"/>
		<rect x="842.942" y="245.993" fill="#FFFFFF" width="15.771" height="1.09"/>
		<rect x="826.076" y="245.993" fill="#FFFFFF" width="15.776" height="1.09"/>
		<rect x="816.06" y="245.993" fill="#FFFFFF" width="8.927" height="1.09"/>
		<path fill="#FFFFFF" d="M810.5,245.993c-0.301,0-0.545,0.244-0.545,0.545s0.244,0.545,0.545,0.545h5.56v-1.09H810.5z"/>
		<rect x="824.986" y="245.993" fill="#FFFFFF" width="1.09" height="1.09"/>
		<rect x="841.853" y="245.993" fill="#FFFFFF" width="1.09" height="1.09"/>
		<rect x="858.714" y="245.993" fill="#FFFFFF" width="1.09" height="1.09"/>
		<rect x="826.076" y="232.457" fill="#FFFFFF" width="15.776" height="1.09"/>
		<rect x="816.06" y="232.457" fill="#FFFFFF" width="8.927" height="1.09"/>
		<rect x="859.804" y="232.457" fill="#FFFFFF" width="15.195" height="1.09"/>
		<rect x="842.942" y="232.457" fill="#FFFFFF" width="15.771" height="1.09"/>
		<path fill="#FFFFFF" d="M810.368,232.457c-0.301,0-0.545,0.244-0.545,0.545s0.244,0.545,0.545,0.545h5.691v-1.09H810.368z"/>
		<rect x="824.986" y="232.457" fill="#FFFFFF" width="1.09" height="1.09"/>
		<rect x="841.853" y="232.457" fill="#FFFFFF" width="1.09" height="1.09"/>
		<rect x="858.714" y="232.457" fill="#FFFFFF" width="1.09" height="1.09"/>
		<rect x="842.942" y="218.921" fill="#FFFFFF" width="15.771" height="1.09"/>
		<rect x="826.076" y="218.921" fill="#FFFFFF" width="15.776" height="1.09"/>
		<rect x="859.804" y="218.921" fill="#FFFFFF" width="15.195" height="1.09"/>
		<rect x="816.06" y="218.921" fill="#FFFFFF" width="8.927" height="1.09"/>
		<path fill="#FFFFFF" d="M810.236,218.921c-0.301,0-0.545,0.244-0.545,0.545c0,0.302,0.244,0.545,0.545,0.545h5.823v-1.09H810.236z
			"/>
		<rect x="824.986" y="218.921" fill="#FFFFFF" width="1.09" height="1.09"/>
		<rect x="841.853" y="218.921" fill="#FFFFFF" width="1.09" height="1.09"/>
		<rect x="858.714" y="218.921" fill="#FFFFFF" width="1.09" height="1.09"/>
		<rect x="842.942" y="205.386" fill="#FFFFFF" width="15.771" height="1.09"/>
		<rect x="859.804" y="205.386" fill="#FFFFFF" width="15.195" height="1.09"/>
		<rect x="826.076" y="205.386" fill="#FFFFFF" width="15.776" height="1.09"/>
		<rect x="816.06" y="205.386" fill="#FFFFFF" width="8.927" height="1.09"/>
		<path fill="#FFFFFF" d="M810.104,205.386c-0.301,0-0.545,0.244-0.545,0.546c0,0.3,0.244,0.544,0.545,0.544h5.955v-1.09H810.104z"
			/>
		<rect x="824.986" y="205.386" fill="#FFFFFF" width="1.09" height="1.09"/>
		<rect x="841.853" y="205.386" fill="#FFFFFF" width="1.09" height="1.09"/>
		<rect x="858.714" y="205.386" fill="#FFFFFF" width="1.09" height="1.09"/>
		<rect x="826.076" y="191.85" fill="#FFFFFF" width="15.776" height="1.09"/>
		<rect x="816.06" y="191.85" fill="#FFFFFF" width="8.927" height="1.09"/>
		<rect x="842.942" y="191.85" fill="#FFFFFF" width="15.771" height="1.09"/>
		<rect x="859.804" y="191.85" fill="#FFFFFF" width="15.195" height="1.09"/>
		<path fill="#FFFFFF" d="M809.973,191.85c-0.301,0-0.545,0.244-0.545,0.545s0.244,0.545,0.545,0.545h6.087v-1.09H809.973z"/>
		<rect x="824.986" y="191.85" fill="#FFFFFF" width="1.09" height="1.09"/>
		<rect x="841.853" y="191.85" fill="#FFFFFF" width="1.09" height="1.09"/>
		<rect x="858.714" y="191.85" fill="#FFFFFF" width="1.09" height="1.09"/>
		<rect x="842.942" y="178.313" fill="#FFFFFF" width="15.771" height="1.09"/>
		<rect x="816.06" y="178.313" fill="#FFFFFF" width="8.927" height="1.09"/>
		<rect x="826.076" y="178.313" fill="#FFFFFF" width="15.776" height="1.09"/>
		<rect x="859.804" y="178.313" fill="#FFFFFF" width="15.195" height="1.09"/>
		<path fill="#FFFFFF" d="M809.84,178.313c-0.301,0-0.545,0.245-0.545,0.545c0,0.301,0.244,0.545,0.545,0.545h6.22v-1.09H809.84z"/>
		<rect x="824.986" y="178.313" fill="#FFFFFF" width="1.09" height="1.09"/>
		<rect x="841.853" y="178.313" fill="#FFFFFF" width="1.09" height="1.09"/>
		<rect x="858.714" y="178.313" fill="#FFFFFF" width="1.09" height="1.09"/>
		<rect x="826.076" y="164.777" fill="#FFFFFF" width="15.776" height="1.09"/>
		<rect x="859.804" y="164.777" fill="#FFFFFF" width="15.195" height="1.09"/>
		<rect x="816.06" y="164.777" fill="#FFFFFF" width="8.927" height="1.09"/>
		<rect x="842.942" y="164.777" fill="#FFFFFF" width="15.771" height="1.09"/>
		<path fill="#FFFFFF" d="M809.709,164.777c-0.301,0-0.545,0.244-0.545,0.545s0.244,0.545,0.545,0.545h6.351v-1.09H809.709z"/>
		<rect x="824.986" y="164.777" fill="#FFFFFF" width="1.09" height="1.09"/>
		<rect x="841.853" y="164.777" fill="#FFFFFF" width="1.09" height="1.09"/>
		<rect x="858.714" y="164.777" fill="#FFFFFF" width="1.09" height="1.09"/>
		<rect x="826.076" y="151.242" fill="#FFFFFF" width="15.776" height="1.09"/>
		<rect x="842.942" y="151.242" fill="#FFFFFF" width="15.771" height="1.09"/>
		<rect x="859.804" y="151.242" fill="#FFFFFF" width="15.195" height="1.09"/>
		<rect x="816.06" y="151.242" fill="#FFFFFF" width="8.927" height="1.09"/>
		<path fill="#FFFFFF" d="M809.576,151.242c-0.301,0-0.545,0.244-0.545,0.545s0.244,0.545,0.545,0.545h6.483v-1.09H809.576z"/>
		<rect x="824.986" y="151.242" fill="#FFFFFF" width="1.09" height="1.09"/>
		<rect x="841.853" y="151.242" fill="#FFFFFF" width="1.09" height="1.09"/>
		<rect x="858.714" y="151.242" fill="#FFFFFF" width="1.09" height="1.09"/>
		<rect x="859.804" y="137.707" fill="#FFFFFF" width="15.195" height="1.09"/>
		<rect x="826.076" y="137.707" fill="#FFFFFF" width="15.776" height="1.09"/>
		<rect x="816.06" y="137.707" fill="#FFFFFF" width="8.927" height="1.09"/>
		<rect x="842.942" y="137.707" fill="#FFFFFF" width="15.771" height="1.09"/>
		<path fill="#FFFFFF" d="M809.444,137.707c-0.301,0-0.545,0.244-0.545,0.545s0.244,0.545,0.545,0.545h6.615v-1.09H809.444z"/>
		<rect x="824.986" y="137.707" fill="#FFFFFF" width="1.09" height="1.09"/>
		<rect x="841.853" y="137.707" fill="#FFFFFF" width="1.09" height="1.09"/>
		<rect x="858.714" y="137.707" fill="#FFFFFF" width="1.09" height="1.09"/>
		<rect x="816.06" y="124.171" fill="#FFFFFF" width="8.927" height="1.09"/>
		<rect x="842.942" y="124.171" fill="#FFFFFF" width="15.771" height="1.09"/>
		<rect x="859.804" y="124.171" fill="#FFFFFF" width="15.195" height="1.09"/>
		<rect x="826.076" y="124.171" fill="#FFFFFF" width="15.776" height="1.09"/>
		<path fill="#FFFFFF" d="M809.312,124.171c-0.301,0-0.545,0.244-0.545,0.545c0,0.302,0.244,0.545,0.545,0.545h6.747v-1.09H809.312z
			"/>
		<rect x="824.986" y="124.171" fill="#FFFFFF" width="1.09" height="1.09"/>
		<rect x="841.853" y="124.171" fill="#FFFFFF" width="1.09" height="1.09"/>
		<rect x="858.714" y="124.171" fill="#FFFFFF" width="1.09" height="1.09"/>
		<rect x="842.942" y="110.635" fill="#FFFFFF" width="15.771" height="1.09"/>
		<rect x="826.076" y="110.635" fill="#FFFFFF" width="15.776" height="1.09"/>
		<rect x="816.06" y="110.635" fill="#FFFFFF" width="8.927" height="1.09"/>
		<rect x="859.804" y="110.635" fill="#FFFFFF" width="15.195" height="1.09"/>
		<path fill="#FFFFFF" d="M809.181,110.635c-0.301,0-0.545,0.244-0.545,0.545s0.244,0.545,0.545,0.545h6.879v-1.09H809.181z"/>
		<rect x="824.986" y="110.635" fill="#FFFFFF" width="1.09" height="1.09"/>
		<rect x="841.853" y="110.635" fill="#FFFFFF" width="1.09" height="1.09"/>
		<rect x="858.714" y="110.635" fill="#FFFFFF" width="1.09" height="1.09"/>
		<rect x="826.076" y="97.1" fill="#FFFFFF" width="15.776" height="1.09"/>
		<rect x="842.942" y="97.1" fill="#FFFFFF" width="15.771" height="1.09"/>
		<rect x="816.06" y="97.1" fill="#FFFFFF" width="8.927" height="1.09"/>
		<rect x="859.804" y="97.1" fill="#FFFFFF" width="15.195" height="1.09"/>
		<path fill="#FFFFFF" d="M809.049,97.1c-0.301,0-0.545,0.244-0.545,0.545s0.244,0.545,0.545,0.545h7.011V97.1H809.049z"/>
		<rect x="824.986" y="97.1" fill="#FFFFFF" width="1.09" height="1.09"/>
		<rect x="841.853" y="97.1" fill="#FFFFFF" width="1.09" height="1.09"/>
		<rect x="858.714" y="97.1" fill="#FFFFFF" width="1.09" height="1.09"/>
		<rect x="826.076" y="83.563" fill="#FFFFFF" width="15.776" height="1.09"/>
		<rect x="816.06" y="83.563" fill="#FFFFFF" width="8.927" height="1.09"/>
		<rect x="859.804" y="83.563" fill="#FFFFFF" width="15.195" height="1.09"/>
		<rect x="842.942" y="83.563" fill="#FFFFFF" width="15.771" height="1.09"/>
		<path fill="#FFFFFF" d="M808.917,83.563c-0.301,0-0.545,0.245-0.545,0.545c0,0.301,0.244,0.545,0.545,0.545h7.143v-1.09H808.917z"
			/>
		<rect x="824.986" y="83.563" fill="#FFFFFF" width="1.09" height="1.09"/>
		<rect x="841.853" y="83.563" fill="#FFFFFF" width="1.09" height="1.09"/>
		<rect x="858.714" y="83.563" fill="#FFFFFF" width="1.09" height="1.09"/>
		<rect x="842.942" y="70.027" fill="#FFFFFF" width="15.771" height="1.09"/>
		<rect x="826.076" y="70.027" fill="#FFFFFF" width="15.776" height="1.09"/>
		<rect x="816.06" y="70.027" fill="#FFFFFF" width="8.927" height="1.09"/>
		<rect x="859.804" y="70.027" fill="#FFFFFF" width="15.195" height="1.09"/>
		<path fill="#FFFFFF" d="M808.785,70.027c-0.301,0-0.545,0.244-0.545,0.545s0.244,0.545,0.545,0.545h7.274v-1.09H808.785z"/>
		<rect x="824.986" y="70.027" fill="#FFFFFF" width="1.09" height="1.09"/>
		<rect x="841.853" y="70.027" fill="#FFFFFF" width="1.09" height="1.09"/>
		<rect x="858.714" y="70.027" fill="#FFFFFF" width="1.09" height="1.09"/>
		<rect x="842.942" y="56.491" fill="#FFFFFF" width="15.771" height="1.09"/>
		<rect x="816.06" y="56.491" fill="#FFFFFF" width="8.927" height="1.09"/>
		<rect x="859.804" y="56.491" fill="#FFFFFF" width="15.195" height="1.09"/>
		<rect x="826.076" y="56.491" fill="#FFFFFF" width="15.776" height="1.09"/>
		<path fill="#FFFFFF" d="M808.653,56.491c-0.301,0-0.545,0.244-0.545,0.545s0.244,0.545,0.545,0.545h7.406v-1.09H808.653z"/>
		<rect x="824.986" y="56.491" fill="#FFFFFF" width="1.09" height="1.09"/>
		<rect x="841.853" y="56.491" fill="#FFFFFF" width="1.09" height="1.09"/>
		<rect x="858.714" y="56.491" fill="#FFFFFF" width="1.09" height="1.09"/>
		<rect x="826.076" y="42.955" fill="#FFFFFF" width="15.776" height="1.09"/>
		<rect x="842.942" y="42.955" fill="#FFFFFF" width="15.771" height="1.09"/>
		<rect x="816.06" y="42.955" fill="#FFFFFF" width="8.927" height="1.09"/>
		<polygon fill="#FFFFFF" points="865.389,42.955 859.804,42.955 859.804,44.045 866.257,44.045 		"/>
		<path fill="#FFFFFF" d="M870.78,43.547c0.011-0.301,0.234-0.533,0.563-0.525c1.188,0.041,2.412,0.084,3.655,0.128v-0.194h-9.61
			l0.868,1.09h4.818C870.895,43.951,870.772,43.764,870.78,43.547z"/>
		<path fill="#FFFFFF" d="M874.999,43.149c-1.243-0.044-2.467-0.087-3.655-0.128c-0.329-0.008-0.553,0.225-0.563,0.525
			c-0.008,0.217,0.114,0.404,0.295,0.498h3.924V43.149z"/>
		<path fill="#FFFFFF" d="M808.521,42.955c-0.301,0-0.545,0.244-0.545,0.545s0.244,0.545,0.545,0.545h7.539v-1.09H808.521z"/>
		<rect x="824.986" y="42.955" fill="#FFFFFF" width="1.09" height="1.09"/>
		<rect x="841.853" y="42.955" fill="#FFFFFF" width="1.09" height="1.09"/>
		<rect x="858.714" y="42.955" fill="#FFFFFF" width="1.09" height="1.09"/>
		<polygon fill="#FFFFFF" points="854.604,29.42 842.942,29.42 842.942,30.51 855.473,30.51 		"/>
		<rect x="816.06" y="29.42" fill="#FFFFFF" width="8.927" height="1.09"/>
		<rect x="826.076" y="29.42" fill="#FFFFFF" width="15.776" height="1.09"/>
		<polygon fill="#FFFFFF" points="874.999,29.42 866.111,29.42 866.979,30.51 874.999,30.51 		"/>
		<polygon fill="#FFFFFF" points="866.111,29.42 859.804,29.42 859.804,30.51 866.979,30.51 		"/>
		<polygon fill="#FFFFFF" points="858.714,29.42 854.604,29.42 855.473,30.51 858.714,30.51 		"/>
		<path fill="#FFFFFF" d="M808.389,29.42c-0.301,0-0.545,0.244-0.545,0.545s0.244,0.545,0.545,0.545h7.671v-1.09H808.389z"/>
		<rect x="824.986" y="29.42" fill="#FFFFFF" width="1.09" height="1.09"/>
		<rect x="841.853" y="29.42" fill="#FFFFFF" width="1.09" height="1.09"/>
		<rect x="858.714" y="29.42" fill="#FFFFFF" width="1.09" height="1.09"/>
		<polygon fill="#FFFFFF" points="858.714,16.975 858.714,15.884 855.327,15.884 856.195,16.975 		"/>
		<polygon fill="#FFFFFF" points="843.819,15.884 842.942,15.884 842.942,16.975 844.688,16.975 		"/>
		<polygon fill="#FFFFFF" points="874.999,15.884 865.68,15.884 866.589,16.975 874.999,16.975 		"/>
		<rect x="816.06" y="15.884" fill="#FFFFFF" width="8.927" height="1.091"/>
		<rect x="826.076" y="15.884" fill="#FFFFFF" width="15.776" height="1.091"/>
		<polygon fill="#FFFFFF" points="864.263,15.884 859.804,15.884 859.804,16.975 865.172,16.975 		"/>
		<polygon fill="#FFFFFF" points="855.327,15.884 843.819,15.884 844.688,16.975 856.195,16.975 		"/>
		<polygon fill="#FFFFFF" points="865.68,15.884 864.263,15.884 865.172,16.975 866.589,16.975 		"/>
		<path fill="#FFFFFF" d="M808.257,15.884c-0.301,0-0.545,0.244-0.545,0.545s0.244,0.546,0.545,0.546h7.803v-1.091H808.257z"/>
		<rect x="824.986" y="15.884" fill="#FFFFFF" width="1.09" height="1.091"/>
		<rect x="841.853" y="15.884" fill="#FFFFFF" width="1.09" height="1.091"/>
		<rect x="858.714" y="15.884" fill="#FFFFFF" width="1.09" height="1.091"/>
		<polygon fill="#FFFFFF" points="858.714,2.348 854.393,2.348 855.302,3.438 858.714,3.438 		"/>
		<polygon fill="#FFFFFF" points="869.728,3.438 868.819,2.348 859.804,2.348 859.804,3.438 		"/>
		<rect x="816.06" y="2.348" fill="#FFFFFF" width="8.927" height="1.09"/>
		<polygon fill="#FFFFFF" points="833.036,2.348 826.076,2.348 826.076,3.438 833.904,3.438 		"/>
		<polygon fill="#FFFFFF" points="852.976,2.348 844.543,2.348 845.411,3.438 853.884,3.438 		"/>
		<polygon fill="#FFFFFF" points="874.999,3.438 874.999,2.348 870.236,2.348 871.146,3.438 		"/>
		<polygon fill="#FFFFFF" points="841.853,2.348 833.036,2.348 833.904,3.438 841.853,3.438 		"/>
		<polygon fill="#FFFFFF" points="844.543,2.348 842.942,2.348 842.942,3.438 845.411,3.438 		"/>
		<polygon fill="#FFFFFF" points="869.728,3.438 871.146,3.438 870.236,2.348 868.819,2.348 		"/>
		<polygon fill="#FFFFFF" points="855.302,3.438 854.393,2.348 852.976,2.348 853.884,3.438 		"/>
		<path fill="#FFFFFF" d="M808.125,2.348c-0.301,0-0.545,0.244-0.545,0.545s0.244,0.545,0.545,0.545h7.935v-1.09H808.125z"/>
		<rect x="824.986" y="2.348" fill="#FFFFFF" width="1.09" height="1.09"/>
		<rect x="841.853" y="2.348" fill="#FFFFFF" width="1.09" height="1.09"/>
		<rect x="858.714" y="2.348" fill="#FFFFFF" width="1.09" height="1.09"/>
		<path fill="#FFFFFF" d="M811.56,297.035c-2.485,0-4.5-2.015-4.5-4.5v-1.566c-0.792,0.759-0.912,2.002-0.229,2.893l68.169,88.907
			v-7.164l-60.243-78.569H811.56z"/>
		<path fill="#FFFFFF" d="M811.56,297.035h3.196l-4.467-5.826c-0.732-0.954-2.099-1.135-3.056-0.403
			c-0.064,0.05-0.116,0.108-0.174,0.163v1.566C807.06,295.021,809.074,297.035,811.56,297.035z"/>
	</g>
	<line fill="none" stroke="#FFFFFF" stroke-width="3" stroke-miterlimit="10" x1="0.113" y1="75.098" x2="874.569" y2="75.098"/>
	<g>
		<ellipse opacity="0.1" fill="#231F20" cx="286.816" cy="412.348" rx="65.24" ry="8.241"/>
		<ellipse opacity="0.1" fill="#231F20" cx="468.115" cy="412.348" rx="35.023" ry="4.425"/>
		<g>
			<g>
				
					<path fill="none" stroke="#FFD0CA" stroke-width="22.0706" stroke-linecap="round" stroke-linejoin="round" stroke-miterlimit="10" d="
					M117.768,148.666c2.417,23.6,9.285,57.754,28.683,74.802c14.545,12.78,29.092,14.03,57.75,8.542"/>
				
					<path fill="none" stroke="#E24203" stroke-width="23.0301" stroke-linecap="round" stroke-linejoin="round" stroke-miterlimit="10" d="
					M164.31,233.443c10.181,2.754,22.412,1.914,39.891-1.434"/>
				<path fill="none" stroke="#EDD707" stroke-width="23.0301" stroke-miterlimit="10" d="M146.451,223.468
					c5.674,4.985,11.348,8.216,17.859,9.976"/>
			</g>
			<path fill="#FFD0CA" d="M202.614,187.992c-6.481-17.912-24.06-11.074-25.108-10.949c-4.163,0.49-7.19-0.973-9.146-2.486
				c-4.463,8.285-5.314,16.59-5.314,16.59c-2.532,3.986-5.1,11.428-5.1,11.428c0.248,2.632,5.931,1.584,5.931,1.584
				c0.875,8.863,6.797,24.557,6.797,24.557c3.071,10.546,21.91-5.164,21.91-5.164c12.233,7.46,17.22-6.32,17.22-6.32
				c2.495-4.564,4.311-8.85,5.634-12.799C207.65,200.773,204.498,193.199,202.614,187.992z"/>
			<path fill="#C4AB9B" d="M191.751,158.25c-12.229,1.192-19.315,8.741-23.391,16.307c1.955,1.514,4.983,2.977,9.146,2.486
				c1.049-0.125,17.78-2.708,24.26,15.205c1.21,3.341,3.799,3.402,6.945,7.033l-0.01,0.006c0.071,0.082,0.154,0.156,0.226,0.238
				c0.273,0.307,0.558,0.606,0.851,0.901c0.146,0.146,0.291,0.292,0.441,0.435c0.339,0.318,0.693,0.629,1.059,0.931
				c0.188,0.155,0.382,0.305,0.577,0.454c0.347,0.265,0.703,0.523,1.075,0.77c0.224,0.148,0.458,0.289,0.692,0.431
				c0.307,0.184,0.621,0.362,0.943,0.533c0.169,0.091,0.323,0.196,0.499,0.28c-0.006-0.01-0.012-0.021-0.018-0.032
				c0.133,0.068,0.256,0.142,0.392,0.204c5.336-15.923,2.523-26.262,2.523-26.262C216.141,153.942,191.751,158.25,191.751,158.25z"
				/>
			<path fill="#FFD0CA" d="M215.064,204.26c-2.614-1.293-4.687-3.037-6.363-4.973l-32.543,20.91c0,0,14.469,18.412,18.644,29.105
				l36.318-33.508C231.12,215.795,223.763,218.83,215.064,204.26z"/>
			<path fill="#E5C4C1" d="M169.038,208.985c-1.541,0.338-4.453,0.276-2.606,6.659c0,0,0.264,1.132,1.467,5.133
				c0,0,10.471-4.883,4.49-10.441C171.727,209.719,170.747,208.611,169.038,208.985z"/>
			<path fill="#FFD0CA" d="M197.235,189.813c0,0,6.542-9.542,8.22-0.286c0.517,2.85-0.24,18.08-8.384,8"/>
			<path fill="#99857A" d="M184.359,186.676c0,0-5.905-5.016-13.686-2.468c0,0-2.34-1.2-0.438-2.152
				C170.235,182.056,179.532,179.885,184.359,186.676z"/>
			<path fill="#2E230E" d="M172.526,185.654c0,0-3.057,4.992,0.908,7.376C173.434,193.03,167.762,190.865,172.526,185.654z"/>
			<path fill="#2E230E" d="M181.086,190.889c0,0-6.969-2.43-10.097-1.044C170.989,189.845,169.36,185.611,181.086,190.889z"/>
			
				<polyline fill="none" stroke="#FFD0CA" stroke-width="23.7109" stroke-linecap="round" stroke-linejoin="round" stroke-miterlimit="10" points="
				278.858,308.505 365.846,345.617 427.97,335.205 			"/>
			
				<line fill="none" stroke="#FF6022" stroke-width="24.6593" stroke-linejoin="round" stroke-miterlimit="10" x1="374.985" y1="343.805" x2="446.794" y2="332.049"/>
			
				<line fill="none" stroke="#F04F00" stroke-width="24.6593" stroke-linejoin="round" stroke-miterlimit="10" x1="278.858" y1="308.505" x2="353.169" y2="340.209"/>
			<path fill="#F04F00" d="M269.822,294.445c0,0,31.428-8.279,33.543,20.799c0,0-3.46,60.226-55.254,22.554
				c0,0-1.602-26.65,0.284-26.898C250.281,310.649,269.822,294.445,269.822,294.445z"/>
			
				<path fill="none" stroke="#FFD0CA" stroke-width="23.7109" stroke-linecap="round" stroke-linejoin="round" stroke-miterlimit="10" d="
				M260.517,331.5c0,0,24.965,72.938,24.134,71.234c-0.83-1.707,32.655-93.259,32.655-93.259"/>
			<path fill="none" stroke="#F04F00" stroke-width="24.6593" stroke-linejoin="round" stroke-miterlimit="10" d="M247.812,296.018
				c0,0,24.256,69.226,31.382,90.274"/>
			
				<path fill="none" stroke="#FFD0CA" stroke-width="23.7109" stroke-linecap="round" stroke-linejoin="round" stroke-miterlimit="10" d="
				M284.651,402.734c-0.83-1.707,32.655-93.259,32.655-93.259"/>
			<path fill="none" stroke="#FF6022" stroke-width="24.6593" stroke-linejoin="round" stroke-miterlimit="10" d="M291.844,380.739
				c9.134-25.689,25.462-71.264,25.462-71.264"/>
			<path fill="#F04F00" d="M241.948,335.971c-4.074-15.95-59.099-52.292-48.848-101.044c2.246-10.685,13.298-27.572,40.055-17.394
				c0,0,18.191,6.783,21.892,42.789c0.986,9.596,3.317,20.536,20.958,30.408c1.113,0.622,5.233,0.427,2.783,4.271
				c-7.43,11.657-27.136,39.232-28.916,47.131C249.872,342.133,244.648,346.546,241.948,335.971z"/>
			<g>
				
					<path fill="none" stroke="#FFD0CA" stroke-width="22.0706" stroke-linecap="round" stroke-linejoin="round" stroke-miterlimit="10" d="
					M303.172,143.925c-2.417,23.597-9.284,57.753-28.683,74.801c-14.545,12.78-29.092,14.03-57.749,8.542"/>
				
					<path fill="none" stroke="#E24203" stroke-width="23.0301" stroke-linecap="round" stroke-linejoin="round" stroke-miterlimit="10" d="
					M256.631,228.702c-10.181,2.753-22.412,1.913-39.89-1.435"/>
				<path fill="none" stroke="#EDD707" stroke-width="23.0301" stroke-miterlimit="10" d="M274.49,218.726
					c-5.674,4.985-11.348,8.216-17.859,9.977"/>
			</g>
			<path fill="#D7DF23" d="M301.708,313.633c35.503,2.008,64.727-3.997,65.26-13.423l-64.294-3.641L301.708,313.633z"/>
			<path fill="#D7DF23" d="M428.611,323.054c22.951,27.163,47.402,44.255,54.613,38.163l-41.557-49.193L428.611,323.054z"/>
			<g>
				<g>
					<polygon fill="#FFFFFF" points="271.422,379.555 265.774,364.502 263.822,368.448 264.477,368.694 265.634,366.488 
						270.645,379.846 					"/>
					<path fill="#FFFFFF" d="M264.491,363.445l-1.995,4.505l0.826,0.311l2.248-4.542c0.047-0.095,0.147-0.152,0.251-0.147
						c0.105,0.005,0.198,0.073,0.235,0.171l5.863,15.626l0.901-0.338l-6.154-16.401L264.491,363.445z"/>
				</g>
				<g>
					<polygon fill="#FFFFFF" points="279.188,376.643 273.541,361.588 271.589,365.534 272.244,365.781 273.4,363.574 
						278.413,376.932 					"/>
					<path fill="#FFFFFF" d="M272.258,360.53l-1.995,4.505l0.827,0.311l2.246-4.541c0.047-0.095,0.146-0.152,0.252-0.147
						c0.105,0.006,0.198,0.072,0.235,0.171l5.863,15.627l0.9-0.339l-6.153-16.401L272.258,360.53z"/>
				</g>
			</g>
		</g>
	</g>
	<g>
		
			<polyline fill="none" stroke="#DAA28B" stroke-width="22.091" stroke-linecap="square" stroke-linejoin="round" stroke-miterlimit="10" points="
			633.908,188.547 622.872,290.686 661.999,365 		"/>
		
			<line fill="none" stroke="#D3340E" stroke-width="22.1092" stroke-linecap="square" stroke-linejoin="round" stroke-miterlimit="10" x1="637.13" y1="317.766" x2="661.999" y2="365"/>
		
			<path fill="none" stroke="#D3340E" stroke-width="22.1092" stroke-linecap="square" stroke-linejoin="round" stroke-miterlimit="10" d="
			M633.908,188.547"/>
		
			<path fill="none" stroke="#FFFFFF" stroke-width="24.1191" stroke-linecap="square" stroke-linejoin="round" stroke-miterlimit="10" d="
			M633.908,375.15"/>
		
			<line fill="none" stroke="#FFFFFF" stroke-width="24.1191" stroke-linecap="square" stroke-linejoin="round" stroke-miterlimit="10" x1="631.548" y1="210.389" x2="625.504" y2="266.332"/>
		<path fill="#FFFFFF" d="M614.616,246.885c20.302,0,31.151-12.676,31.151-33.09H583.47
			C583.47,234.209,594.319,246.885,614.616,246.885z"/>
		<path fill="#1C1C1C" d="M672.104,361.352c-23.837,17.487-39.399,36.795-34.759,43.121l43.163-31.667L672.104,361.352z"/>
		
			<polyline fill="none" stroke="#DAA28B" stroke-width="22.0912" stroke-linecap="round" stroke-linejoin="round" stroke-miterlimit="10" points="
			600.014,197.277 588.978,299.416 600.014,383.881 		"/>
		
			<line fill="none" stroke="#D3340E" stroke-width="22.1092" stroke-linecap="square" stroke-linejoin="round" stroke-miterlimit="10" x1="592.762" y1="328.375" x2="600.014" y2="383.881"/>
		
			<path fill="none" stroke="#D3340E" stroke-width="22.1092" stroke-linecap="square" stroke-linejoin="round" stroke-miterlimit="10" d="
			M600.014,197.277"/>
		
			<path fill="none" stroke="#DAA28B" stroke-width="22.091" stroke-linecap="square" stroke-linejoin="round" stroke-miterlimit="10" d="
			M594.878,383.881"/>
		
			<line fill="none" stroke="#FFFFFF" stroke-width="24.1191" stroke-linecap="square" stroke-linejoin="round" stroke-miterlimit="10" x1="600.014" y1="197.277" x2="593.557" y2="257.045"/>
		<path fill="#1C1C1C" d="M608.5,378.132c-23.739,17.62-39.194,37.014-34.517,43.315l42.985-31.906L608.5,378.132z"/>
		<g>
			<path fill="#161616" d="M635.463,118.328c0,0-26.949-6.051-42.607,0l6.553,9.324
				C599.408,127.652,633.471,134.941,635.463,118.328z"/>
			<g>
				<g>
					
						<path fill="none" stroke="#DAA28B" stroke-width="14.2706" stroke-linecap="round" stroke-linejoin="round" stroke-miterlimit="10" d="
						M601.689,138.797c0,0-26.636-19.326-28.938-40.034c-2.379-21.407-1.189-40.985-1.189-52.326"/>
					<path fill="none" stroke="#203F39" stroke-width="14.2701" stroke-linejoin="round" stroke-miterlimit="10" d="
						M601.689,138.797c0,0-21.131-15.332-27.377-33.321"/>
					<path fill="none" stroke="#238557" stroke-width="14.2701" stroke-linejoin="round" stroke-miterlimit="10" d="M581.68,118.897
						c-3.049-4.134-5.725-8.687-7.367-13.422"/>
					<path fill="none" stroke="#FFFFFF" stroke-width="1.4426" stroke-miterlimit="10" d="M601.809,135.631
						c0,0-11.896-6.842-19.829-21.987"/>
					<path fill="none" stroke="#FFFFFF" stroke-width="1.4426" stroke-miterlimit="10" d="M604.329,135.358
						c0,0-11.998-7.419-20.653-22.807"/>
				</g>
				<path fill="#FFFFFF" d="M587.616,114.893c0,0-6.791,8.986-10.309,10.068c0,0-4.958-6.553-6.101-9.26
					c0,0,8.565-1.08,13.433-5.135C584.64,110.566,586.715,113.72,587.616,114.893z"/>
			</g>
			<path fill="#EFB597" d="M585.273,153.576h56.498c0,0-11.081-20.803-11.137-60.85c-0.017-11.391-34.023-11.391-34.023,0
				C596.611,146.195,585.273,153.576,585.273,153.576z"/>
			<g>
				<path fill="#EFB597" d="M613.905,103.45l-12.929,4.587c0,0-7.091-2.293-12.512-3.961c0,0-3.963,0.208-2.504-8.758
					c0,0-0.415-10.846-0.834-13.347c0,0-5.812-2.114-1.251-7.716c2.309-2.833,2.911-4.631,0.626-14.6
					c-0.995-4.34-1.874-16.667,11.054-13.971l24.606,0.209l4.381,13.762l6.881,18.979l-1.252,18.975L613.905,103.45z"/>
				<path fill="#231F20" d="M584.823,51.979c0,0-10.327-2.941,3.504-10.422c0,0,33.976-12.815,39.137,0.598L584.823,51.979z"/>
				<path fill="#231F20" d="M585.373,47.109c0,0-8.493,2.453,1.424,6.292c5.423,2.1,16.961-5.7,23.913-4.032
					c0,0,3.195,1.39,3.753,7.23c0,0,1.11,15.988-0.696,20.157l3.339,0.417c0,0,0.972-10.01,9.313-9.455c0,0,5.56,1.809,0.973,17.242
					c0,0,1.451,10.854,3.258,13.913c0,0,0.774-10.995,5.501-17.39c0,0,12.79-21.549-3.197-36.146c0,0-5.979-10.012-20.716-6.672
					C612.237,38.666,582.974,45.124,585.373,47.109z"/>
				<path fill="#492925" d="M592.82,68.9c0,0.842,0.684,1.527,1.53,1.527c0.842,0,1.527-0.686,1.527-1.527
					c0-0.848-0.686-1.529-1.527-1.529C593.504,67.371,592.82,68.053,592.82,68.9z"/>
				<g>
					<path fill="#231F20" d="M590.2,63.209c0,0,0.205-0.035,0.564-0.096c0.354-0.059,0.853-0.125,1.452-0.192
						c1.198-0.133,2.803-0.231,4.422-0.161c0.809,0.028,1.623,0.119,2.383,0.238c0.381,0.066,0.749,0.155,1.095,0.227
						c0.346,0.104,0.672,0.201,0.973,0.291c0.596,0.232,1.086,0.428,1.41,0.638c0.326,0.19,0.513,0.298,0.513,0.298
						c0.373,0.218,0.5,0.696,0.283,1.069c-0.199,0.343-0.618,0.478-0.975,0.329l-0.117-0.049c0,0-0.156-0.064-0.43-0.178
						c-0.258-0.131-0.685-0.234-1.182-0.363c-0.259-0.043-0.539-0.089-0.836-0.138c-0.308-0.022-0.624-0.06-0.959-0.075
						c-0.673-0.019-1.394-0.01-2.121,0.056c-1.453,0.12-2.905,0.394-3.978,0.651c-0.535,0.13-0.979,0.247-1.28,0.336
						c-0.295,0.09-0.464,0.141-0.464,0.141l-0.037,0.012c-0.825,0.251-1.697-0.215-1.948-1.04c-0.25-0.825,0.216-1.697,1.041-1.948
						C590.07,63.236,590.14,63.221,590.2,63.209z"/>
				</g>
				<g opacity="0.1">
					<path fill="#231F20" d="M617.105,77.174l-0.696-2.226l-2.643,1.809c-4.888,4.19-22.826,5.603-28.542,5.954
						c0.213,1.889,0.417,5.57,0.556,8.471c0.111,2.318,0.181,4.137,0.181,4.137c-1.459,8.966,2.504,8.758,2.504,8.758
						c0.669,0.206,1.364,0.421,2.066,0.639c18.696-1.267,24.211-6.547,24.211-6.547C619.605,95.664,617.105,77.174,617.105,77.174z"
						/>
				</g>
				<path fill="#EFB597" d="M622.103,70.627c0,0,8.291-13.596,11.273-0.988c0.921,3.877,0.993,24.875-10.942,11.605"/>
				
					<path fill="none" stroke="#C18963" stroke-width="1.1192" stroke-linecap="round" stroke-linejoin="round" stroke-miterlimit="10" d="
					M628.409,71.492c0,0,2.802,3.638-1.79,6.762"/>
				
					<path fill="none" stroke="#C18963" stroke-width="1.1192" stroke-linecap="round" stroke-linejoin="round" stroke-miterlimit="10" d="
					M586.041,90.745c0,0,1.916,0.901,6.079,1.024"/>
			</g>
			<ellipse opacity="0.2" fill="#232222" cx="613.637" cy="197.993" rx="1.057" ry="1.716"/>
			<path fill="#203F39" d="M588.533,123.93h24.972h1.315l23.409,0.08c6.513,9.527,7.685,15.84,7.685,45.107
				c0,36.033,0,43.984,0,44.898c0,0.064-3.965,0.096-3.965,0.096H614.82h-1.315h-27.131c0,0-3.964-0.031-3.964-0.096
				c0-0.914,0-8.865,0-44.898C582.41,139.85,584.478,141.245,588.533,123.93z"/>
			<path fill="#203F39" d="M590.094,124.01c0,0,0.541-2.284,2.762-5.682c0,0,9.78,5.682,21.919,5.682v8.754L590.094,124.01z"/>
			<path fill="#203F39" d="M638.229,124.01c0,0-0.547-2.284-2.767-5.682c0,0-9.778,5.682-21.919,5.682v8.754L638.229,124.01z"/>
			<g>
				<path fill="#238557" d="M608.959,161.771l-11.776,14.304l48.678-14.297c0.035,2.213,0.054,4.646,0.054,7.34
					c0,36.033,0,43.984,0,44.898c0,0.064-3.965,0.096-3.965,0.096H614.82h-1.315h-27.131c0,0-3.964-0.031-3.964-0.096
					c0-0.885,0-8.352,0-41.407L608.959,161.771z"/>
				<path fill="#FFFFFF" d="M646.012,161.733l-0.151,0.044c-0.03-1.879-0.074-3.594-0.127-5.18L646.012,161.733z"/>
				<path fill="#FFFFFF" d="M582.286,172.66l0.124-1.35c0,0.434,0,0.875,0,1.298L582.286,172.66z"/>
				<path fill="#FFFFFF" d="M608.959,161.771l-26.549,10.838c0-0.423,0-0.864,0-1.298l0.12-1.32l38.642-16.875l-11.092,13.479
					l35.646-10.109l0.007,0.113c0.053,1.586,0.097,3.301,0.127,5.18l-48.678,14.297L608.959,161.771z"/>
				<path fill="#D3340E" d="M582.408,167.807v-1.213c0,0,0.007-0.002,0.009,0c-0.002,0.396-0.002,0.805-0.007,1.213H582.408z"/>
				<path fill="#D3340E" d="M645.141,147.393c-0.042-0.375-0.083-0.74-0.128-1.098l0.217-0.111l0.097,3.777l-0.03,0.015
					L645.141,147.393z"/>
				<path fill="#D3340E" d="M614.936,163.516l11.181-14.25l-43.706,18.541c0.005-0.408,0.005-0.817,0.007-1.213
					c0.227,0.295,57.95-27.214,57.95-27.214l-14.495,16.849l19.141-9.934c0.045,0.357,0.086,0.723,0.128,1.098l0.155,2.583
					l0.03-0.015l0.04,1.604L614.936,163.516z"/>
			</g>
			<g>
				<g>
					
						<path fill="none" stroke="#DAA28B" stroke-width="14.2706" stroke-linecap="round" stroke-linejoin="round" stroke-miterlimit="10" d="
						M623.994,117.345c-4.22-8.983-7.793-20.196-5.892-30.042c4.091-21.146,11.041-39.488,14.41-50.314"/>
					<path fill="none" stroke="#203F39" stroke-width="14.2701" stroke-linejoin="round" stroke-miterlimit="10" d="
						M633.843,134.128c0,0-15.625-20.917-16.242-39.948"/>
					<path fill="none" stroke="#238557" stroke-width="14.2701" stroke-linejoin="round" stroke-miterlimit="10" d="
						M620.649,109.184c-1.683-4.855-2.888-9.996-3.049-15.004"/>
					<path fill="none" stroke="#FFFFFF" stroke-width="1.4426" stroke-miterlimit="10" d="M634.439,128.455
						c0,0-7.785-5.553-11.077-22.336"/>
					<path fill="none" stroke="#FFFFFF" stroke-width="1.4426" stroke-miterlimit="10" d="M635.75,127.246
						c0,0-7.237-6.169-10.933-23.434"/>
				</g>
				<path fill="#FFFFFF" d="M627.801,108.227c0,0-9.157,6.562-12.838,6.553c0,0-2.789-7.73-3.076-10.651
					c0,0,8.501,1.511,14.355-0.915C626.242,103.213,627.284,106.842,627.801,108.227z"/>
			</g>
		</g>
	</g>
	<ellipse opacity="0.1" fill="#231F20" cx="630" cy="426.333" rx="68.247" ry="2.25"/>
	<g>
		<g>
			<g>
				<path fill="#507C50" d="M553.522,388.771c1.047-3.708-1.641-6.894-4.583-8.853c-0.249,0.59-0.498,1.182-0.747,1.771
					c2.585,0.85,5.145,1.595,7.071,3.63c0.476,0.503,1.482,0.292,1.621-0.427c0.481-2.508,0.783-4.586,3.175-6.404
					c-0.486-0.279-0.973-0.557-1.459-0.837c-0.097,2.692-0.489,5.342-0.776,8.018c-0.087,0.812,1.145,1.329,1.655,0.686
					c2.48-3.126,5.424-4.683,9.399-5.146c-0.279-0.486-0.558-0.973-0.837-1.459c-1.229,1.86-2.649,3.569-3.879,5.431
					c-0.592,0.896,0.522,1.682,1.327,1.326c2.497-1.101,4.824-1.574,7.527-1.679c-0.279-0.486-0.558-0.973-0.837-1.459
					c-1.422,2.091-3.722,5.505-5.821,7.056c0.442,0.443,0.885,0.885,1.327,1.327c0.044-0.024,0.088-0.05,0.132-0.073
					c1.065-0.652,0.091-2.33-0.979-1.676c-0.371,0.228-0.567,0.428-0.828,0.77c-0.582,0.764,0.562,1.893,1.327,1.328
					c2.451-1.812,4.771-5.188,6.517-7.753c0.411-0.604-0.131-1.485-0.837-1.459c-3.071,0.118-5.697,0.705-8.506,1.944
					c0.442,0.441,0.884,0.885,1.327,1.326c1.229-1.861,2.649-3.569,3.879-5.431c0.377-0.571-0.11-1.544-0.837-1.459
					c-4.409,0.515-7.979,2.194-10.771,5.715c0.552,0.229,1.104,0.457,1.655,0.686c0.287-2.676,0.68-5.325,0.776-8.018
					c0.024-0.677-0.867-1.287-1.459-0.837c-2.666,2.024-3.441,4.305-4.067,7.562c0.54-0.143,1.081-0.285,1.621-0.428
					c-2.149-2.271-5.025-3.175-7.927-4.128c-1.092-0.359-1.626,1.188-0.747,1.771c2.062,1.373,4.51,3.768,3.692,6.663
					C551.311,389.461,553.183,389.973,553.522,388.771L553.522,388.771z"/>
			</g>
		</g>
		<g>
			<g>
				<path fill="#507C50" d="M479.643,113.532c1.047-3.708-1.641-6.894-4.583-8.853c-0.249,0.59-0.498,1.182-0.747,1.771
					c2.585,0.85,5.145,1.595,7.071,3.63c0.476,0.503,1.482,0.292,1.621-0.428c0.481-2.507,0.783-4.585,3.175-6.403
					c-0.486-0.279-0.973-0.558-1.459-0.837c-0.097,2.692-0.489,5.342-0.776,8.019c-0.087,0.811,1.145,1.328,1.655,0.685
					c2.48-3.126,5.424-4.683,9.399-5.146c-0.279-0.486-0.558-0.973-0.837-1.459c-1.229,1.86-2.649,3.569-3.879,5.431
					c-0.592,0.896,0.522,1.682,1.327,1.326c2.497-1.101,4.824-1.575,7.527-1.679c-0.279-0.486-0.558-0.973-0.837-1.459
					c-1.422,2.091-3.722,5.505-5.821,7.056c0.442,0.443,0.885,0.885,1.327,1.327c0.044-0.024,0.088-0.05,0.132-0.073
					c1.065-0.652,0.091-2.33-0.979-1.676c-0.371,0.228-0.567,0.428-0.828,0.77c-0.582,0.764,0.562,1.893,1.327,1.328
					c2.451-1.812,4.771-5.188,6.517-7.753c0.411-0.604-0.131-1.485-0.837-1.459c-3.071,0.118-5.697,0.705-8.506,1.944
					c0.442,0.441,0.884,0.885,1.327,1.326c1.229-1.861,2.649-3.568,3.879-5.431c0.377-0.571-0.11-1.544-0.837-1.459
					c-4.409,0.515-7.979,2.194-10.771,5.715c0.552,0.229,1.104,0.457,1.655,0.687c0.287-2.677,0.68-5.326,0.776-8.019
					c0.024-0.677-0.867-1.287-1.459-0.837c-2.666,2.025-3.441,4.305-4.067,7.562c0.54-0.143,1.081-0.285,1.621-0.428
					c-2.149-2.271-5.025-3.175-7.927-4.128c-1.092-0.359-1.626,1.188-0.747,1.771c2.062,1.373,4.51,3.768,3.692,6.664
					C477.432,114.223,479.304,114.734,479.643,113.532L479.643,113.532z"/>
			</g>
		</g>
		<g>
			<g>
				<path fill="#507C50" d="M195.505,97.913c1.047-3.708-1.641-6.894-4.583-8.853c-0.249,0.59-0.498,1.182-0.747,1.771
					c2.585,0.85,5.145,1.595,7.071,3.63c0.476,0.503,1.482,0.292,1.621-0.428c0.481-2.507,0.783-4.585,3.175-6.403
					c-0.486-0.279-0.973-0.558-1.459-0.837c-0.097,2.692-0.489,5.342-0.776,8.018c-0.087,0.812,1.145,1.329,1.655,0.686
					c2.48-3.126,5.424-4.683,9.399-5.146c-0.279-0.487-0.558-0.974-0.837-1.459c-1.229,1.859-2.649,3.568-3.879,5.43
					c-0.592,0.896,0.522,1.682,1.327,1.326c2.497-1.101,4.824-1.575,7.527-1.679c-0.279-0.486-0.558-0.973-0.837-1.459
					c-1.422,2.091-3.722,5.505-5.821,7.056c0.442,0.443,0.885,0.885,1.327,1.327c0.044-0.024,0.088-0.05,0.132-0.073
					c1.065-0.652,0.091-2.33-0.979-1.676c-0.371,0.228-0.567,0.428-0.828,0.77c-0.582,0.764,0.562,1.893,1.327,1.328
					c2.451-1.812,4.771-5.188,6.517-7.753c0.411-0.604-0.131-1.485-0.837-1.459c-3.071,0.118-5.697,0.705-8.506,1.944
					c0.442,0.441,0.884,0.885,1.327,1.326c1.229-1.861,2.649-3.569,3.879-5.431c0.377-0.571-0.11-1.544-0.837-1.459
					c-4.409,0.515-7.979,2.194-10.771,5.715c0.552,0.229,1.104,0.457,1.655,0.686c0.287-2.676,0.68-5.325,0.776-8.018
					c0.024-0.677-0.867-1.287-1.459-0.837c-2.666,2.024-3.441,4.305-4.067,7.562c0.54-0.143,1.081-0.285,1.621-0.428
					c-2.149-2.271-5.025-3.175-7.927-4.128c-1.092-0.359-1.626,1.188-0.747,1.771c2.062,1.373,4.51,3.768,3.692,6.663
					C193.294,98.604,195.166,99.115,195.505,97.913L195.505,97.913z"/>
			</g>
		</g>
		<g>
			<g>
				<path fill="#507C50" d="M397.072,386.352c-1.683-3.471-3.122-7.012-5.583-10.022c-0.392,0.507-0.783,1.015-1.175,1.522
					c2.81,1.601,6.005,2.384,8.079,5.02c0.453,0.576,1.47,0.23,1.621-0.428c0.595-2.6,1.388-4.725,3.691-6.402
					c-0.475-0.365-0.95-0.729-1.424-1.095c-0.92,2.187-1.289,4.387-1.586,6.723c-0.134,1.056,1.318,1.181,1.807,0.489
					c1.712-2.424,4.064-3.768,6.634-5.082c-0.392-0.508-0.783-1.016-1.175-1.523c-2.418,2.342-3.898,4.82-4.387,8.187
					c-0.144,0.992,1.258,1.829,1.772,0.747c1.551-3.264,4.232-3.848,7.437-4.727c-0.365-0.475-0.73-0.95-1.095-1.425
					c-1.875,2.453-3.659,4.97-5.431,7.499c-0.63,0.898,0.829,2.028,1.523,1.175c0.279-0.409,0.624-0.753,1.034-1.033
					c0.958-0.806-0.421-2.171-1.371-1.371c-0.411,0.28-0.755,0.624-1.034,1.033c0.507,0.392,1.015,0.783,1.523,1.175
					c1.772-2.529,3.555-5.045,5.431-7.499c0.542-0.71-0.348-1.63-1.095-1.425c-3.783,1.039-6.806,1.854-8.596,5.619
					c0.591,0.249,1.182,0.498,1.772,0.747c0.435-2.995,1.705-5.216,3.888-7.331c0.82-0.794-0.219-2.012-1.175-1.523
					c-2.927,1.498-5.417,3.07-7.33,5.779c0.603,0.163,1.205,0.326,1.807,0.489c0.281-2.21,0.654-4.158,1.517-6.207
					c0.325-0.771-0.769-1.571-1.424-1.095c-2.659,1.936-3.855,4.383-4.583,7.561c0.54-0.143,1.081-0.285,1.621-0.428
					c-2.195-2.791-5.484-3.622-8.471-5.322c-1.01-0.576-1.847,0.7-1.175,1.522c2.343,2.868,3.679,6.329,5.279,9.63
					C395.943,388.455,397.615,387.472,397.072,386.352L397.072,386.352z"/>
			</g>
		</g>
		<g>
			<g>
				<path fill="#507C50" d="M388.978,216.369c-0.576-3.592-2.928-6.173-5.01-9.024c-0.442,0.442-0.885,0.884-1.327,1.327
					c2.271,1.1,3.831,2.93,5.751,4.502c0.689,0.564,1.553,0.18,1.655-0.686c0.372-3.148,1.748-5.852,2.809-8.793
					c-0.635-0.086-1.27-0.172-1.905-0.258c-0.312,2.996-0.625,5.807,0.909,8.507c0.394,0.694,1.608,0.61,1.772-0.231
					c0.685-3.506,3.474-4.715,5.957-6.812c-0.54-0.314-1.081-0.629-1.621-0.943c-0.854,2.223-1.664,4.368-2.068,6.723
					c-0.149,0.867,0.919,1.745,1.621,0.943c1.705-1.948,3.521-2.773,6.037-3.113c-0.314-0.541-0.629-1.081-0.943-1.621
					c-2.233,2.111-3.973,5.162-4.411,8.256c-0.129,0.908,0.864,1.682,1.621,0.943c0.286-0.279,0.383-0.648,0.532-1.014
					c0.474-1.158-1.403-1.656-1.87-0.516c-0.011,0.053-0.022,0.105-0.034,0.158c0.541,0.314,1.081,0.629,1.621,0.943
					c0.393-2.775,1.912-5.51,3.912-7.4c0.783-0.74-0.066-1.739-0.943-1.621c-2.894,0.393-4.965,1.41-6.893,3.613
					c0.54,0.314,1.081,0.629,1.621,0.943c0.405-2.354,1.214-4.5,2.068-6.723c0.382-0.993-0.957-1.504-1.621-0.943
					c-2.868,2.423-5.685,3.725-6.456,7.668c0.591-0.077,1.182-0.154,1.772-0.231c-1.343-2.366-0.911-4.961-0.644-7.528
					c0.12-1.155-1.558-1.221-1.905-0.258c-1.127,3.125-2.484,5.977-2.878,9.309c0.552-0.229,1.104-0.457,1.655-0.686
					c-2.059-1.686-3.717-3.63-6.144-4.807c-0.785-0.38-1.954,0.469-1.327,1.327c1.975,2.706,4.265,5.134,4.814,8.562
					C387.306,218.117,389.174,217.592,388.978,216.369L388.978,216.369z"/>
			</g>
		</g>
		<g>
			<g>
				<path fill="#507C50" d="M762.366,267.072c-0.506-2.851-1.803-5.227-3.2-7.731c-0.508,0.392-1.015,0.783-1.523,1.175
					c2.208,1.725,4.26,3.604,6.661,5.064c0.525,0.32,1.277,0.025,1.424-0.579c0.475-1.948,0.809-4.099,2.657-5.368
					c-0.475-0.365-0.949-0.729-1.424-1.095c-0.598,1.679-0.9,3.125-0.81,4.913c0.041,0.809,1.046,1.332,1.655,0.686
					c1.816-1.924,3.785-3.275,6.296-4.148c-0.365-0.475-0.73-0.949-1.095-1.424c-1.08,2.039-2.226,3.979-2.942,6.18
					c-0.364,1.117,1.166,1.582,1.772,0.747c1.57-2.163,3.751-2.454,6.143-2.915c-0.314-0.541-0.629-1.081-0.943-1.621
					c-1.73,1.445-2.823,3.227-4.03,5.109c-0.677,1.057,1.002,2.027,1.675,0.979c1.109-1.731,2.125-3.378,3.726-4.717
					c0.812-0.678-0.081-1.787-0.943-1.621c-3.046,0.589-5.424,1.219-7.302,3.808c0.591,0.249,1.182,0.498,1.772,0.747
					c0.667-2.051,1.746-3.826,2.747-5.717c0.372-0.701-0.244-1.721-1.095-1.424c-2.829,0.982-5.095,2.469-7.151,4.646
					c0.552,0.229,1.104,0.457,1.655,0.686c-0.079-1.559,0.219-2.931,0.741-4.397c0.28-0.785-0.738-1.566-1.424-1.095
					c-2.308,1.584-2.906,3.895-3.548,6.526c0.475-0.193,0.95-0.386,1.424-0.579c-2.256-1.373-4.194-3.141-6.269-4.762
					c-0.83-0.648-2.096,0.148-1.523,1.175c1.306,2.343,2.532,4.604,3.005,7.269C760.714,268.818,762.583,268.295,762.366,267.072
					L762.366,267.072z"/>
			</g>
		</g>
		<g>
			<g>
				<path fill="#507C50" d="M91.733,371.907c4.201-0.249,8.36-0.353,12.412-1.587c0.486-0.147,0.845-0.68,0.677-1.192
					c-1.064-3.245-3.409-5.551-5.012-8.507c-0.442,0.441-0.885,0.885-1.327,1.326c3.794,1.667,6.679,4.691,10.085,6.982
					c0.505,0.34,1.295,0.01,1.424-0.578c0.878-4.012,2.14-7.787,5.181-10.692c-0.552-0.228-1.104-0.457-1.655-0.685
					c-0.449,3.521-1.82,6.791-2.069,10.342c-0.064,0.909,1.071,1.195,1.655,0.686c2.401-2.091,4.381-4.659,7.303-6.055
					c-0.475-0.365-0.95-0.729-1.424-1.095c-0.695,1.765-1.687,3.151-2.747,4.682c-0.618,0.894,0.536,1.669,1.327,1.327
					c3.507-1.518,6.254-4.264,9.854-5.592c-0.365-0.475-0.73-0.949-1.095-1.424c-1.816,2.355-4.25,3.977-5.012,6.955
					c-0.167,0.652,0.473,1.478,1.193,1.193c3.354-1.326,6.66-2.745,10.085-3.879c-0.365-0.475-0.73-0.95-1.095-1.425
					c-0.832,0.918-1.664,1.837-2.496,2.755c-0.67,0.514-0.589,1.902,0.489,1.807c10.85-0.967,21.725-0.088,32.583,0.259
					c1.251,0.04,1.248-1.899,0-1.939c-10.858-0.347-21.732-1.226-32.583-0.259c0.163,0.603,0.326,1.205,0.489,1.807
					c1.353-1.039,2.29-2.002,3.192-3.45c0.439-0.704-0.286-1.692-1.095-1.425c-3.425,1.135-6.732,2.554-10.085,3.879
					c0.397,0.398,0.795,0.796,1.193,1.193c0.68-2.66,3.208-4.405,4.816-6.492c0.516-0.669-0.338-1.703-1.095-1.424
					c-3.764,1.387-6.654,4.201-10.317,5.785c0.442,0.443,0.884,0.885,1.327,1.327c1.163-1.681,2.194-3.245,2.942-5.145
					c0.344-0.874-0.748-1.419-1.424-1.095c-3.09,1.475-5.152,4.143-7.695,6.357c0.552,0.229,1.104,0.457,1.655,0.686
					c0.248-3.534,1.621-6.836,2.069-10.342c0.114-0.895-1.107-1.211-1.655-0.687c-3.277,3.131-4.729,7.198-5.68,11.547
					c0.475-0.192,0.95-0.386,1.424-0.579c-3.428-2.307-6.265-5.305-10.085-6.982c-0.86-0.379-1.823,0.411-1.327,1.326
					c0.33,0.607,4.866,7.043,4.091,7.278c-3.313,1.009-7.058,0.888-10.494,1.09C90.49,370.041,90.483,371.98,91.733,371.907
					L91.733,371.907z"/>
			</g>
		</g>
		<g>
			<g>
				<path fill="#507C50" d="M801.687,91.651c-3.528-0.208-7.027-0.329-10.494-1.09c-0.699-0.153,3.775-6.694,4.091-7.278
					c0.497-0.915-0.466-1.705-1.326-1.326c-3.82,1.678-6.657,4.676-10.086,6.982c0.475,0.193,0.949,0.386,1.424,0.579
					c-0.951-4.349-2.402-8.416-5.679-11.547c-0.549-0.524-1.769-0.208-1.655,0.686c0.447,3.508,1.82,6.809,2.068,10.343
					c0.552-0.229,1.104-0.457,1.655-0.686c-2.543-2.215-4.604-4.883-7.695-6.357c-0.677-0.324-1.768,0.221-1.424,1.095
					c0.748,1.899,1.778,3.464,2.942,5.145c0.442-0.442,0.885-0.884,1.327-1.327c-3.664-1.584-6.553-4.398-10.317-5.785
					c-0.757-0.279-1.611,0.755-1.095,1.424c1.609,2.087,4.136,3.832,4.816,6.492c0.397-0.397,0.795-0.795,1.193-1.193
					c-3.354-1.325-6.661-2.744-10.086-3.879c-0.809-0.268-1.534,0.721-1.095,1.425c0.903,1.448,1.84,2.411,3.193,3.45
					c0.163-0.602,0.326-1.203,0.489-1.807c-10.851-0.967-21.725-0.088-32.583,0.259c-1.248,0.04-1.251,1.979,0,1.939
					c10.858-0.347,21.732-1.226,32.583-0.259c1.078,0.096,1.159-1.293,0.489-1.807c-0.832-0.918-1.665-1.837-2.497-2.755
					c-0.365,0.476-0.73,0.95-1.095,1.425c3.425,1.135,6.732,2.553,10.086,3.879c0.72,0.284,1.359-0.541,1.193-1.193
					c-0.761-2.979-3.195-4.6-5.012-6.955c-0.365,0.475-0.73,0.949-1.095,1.424c3.601,1.328,6.348,4.074,9.854,5.592
					c0.791,0.342,1.945-0.434,1.327-1.327c-1.06-1.53-2.052-2.916-2.747-4.682c-0.475,0.365-0.95,0.729-1.424,1.095
					c2.921,1.396,4.901,3.964,7.303,6.055c0.584,0.51,1.719,0.224,1.655-0.686c-0.249-3.551-1.62-6.821-2.068-10.343
					c-0.552,0.229-1.104,0.457-1.655,0.686c3.041,2.905,4.303,6.681,5.18,10.691c0.129,0.589,0.919,0.919,1.424,0.579
					c3.407-2.291,6.291-5.315,10.086-6.982c-0.442-0.441-0.884-0.885-1.326-1.326c-1.604,2.956-3.948,5.262-5.013,8.507
					c-0.168,0.513,0.191,1.045,0.678,1.192c4.052,1.234,8.211,1.338,12.412,1.587C802.937,93.664,802.93,91.725,801.687,91.651
					L801.687,91.651z"/>
			</g>
		</g>
	</g>
</g>
</svg>
