<?xml version="1.0" encoding="utf-8"?>
<!-- Generator: Adobe Illustrator 16.0.0, SVG Export Plug-In . SVG Version: 6.00 Build 0)  -->
<!DOCTYPE svg PUBLIC "-//W3C//DTD SVG 1.1//EN" "http://www.w3.org/Graphics/SVG/1.1/DTD/svg11.dtd">
<svg version="1.1" id="Layer_1" xmlns="http://www.w3.org/2000/svg" xmlns:xlink="http://www.w3.org/1999/xlink" x="0px" y="0px"
	 width="875px" height="475px" viewBox="0 0 875 475" enable-background="new 0 0 875 475" xml:space="preserve">
<g>
	<g>
		<defs>
			<rect id="SVGID_1_" width="875" height="475"/>
		</defs>
		<clipPath id="SVGID_2_">
			<use xlink:href="#SVGID_1_"  overflow="visible"/>
		</clipPath>
		<g clip-path="url(#SVGID_2_)">
			<rect x="0.002" y="-24" fill="#63D5FF" width="874.998" height="502.813"/>
			<g>
				<path fill="#776537" d="M338.83,196.202c0,0-7.533,2.747-7.455,15.468c0.027,4.26,2.291,15.47-5.732,16.057
					c0,0,9.742,1.14,12.605-5.164c0,0-0.568,11.467-5.158,14.325c0,0,26.938,11.461,31.527-14.325l-2.295-37.828
					C362.322,184.735,345.697,177.857,338.83,196.202z"/>
				<path fill="#776537" d="M500.988,196.202c0,0,7.527,2.747,7.447,15.468c-0.023,4.26-2.287,15.47,5.74,16.057
					c0,0-9.748,1.14-12.611-5.164c0,0,0.568,11.467,5.158,14.325c0,0-26.938,11.461-31.527-14.325l2.301-37.828
					C477.496,184.735,494.117,177.857,500.988,196.202z"/>
				<g>
					<polygon fill="#B7B7B7" points="329.461,259.528 347.807,257.241 350.664,277.874 					"/>
					<polygon fill="#B7B7B7" points="510.291,259.528 491.951,257.241 489.082,277.874 					"/>
					<path fill="#F4B07D" d="M528.537,383.683H312.266c0,0,35.408-130.744,35.408-193.406c0-36.202,144.82-36.202,144.82,0
						C492.494,280.836,528.537,383.683,528.537,383.683z"/>
					<path fill="#776537" d="M338.854,196.706c0,0-7.512,2.745-7.438,15.45c0.027,4.258,2.289,15.452-5.723,16.027
						c0,0,9.729,1.144,12.588-5.152c0,0-0.57,11.448-5.148,14.308c0,0,26.896,11.444,31.475-14.308l-2.289-37.771
						C362.318,185.26,345.721,178.396,338.854,196.706z"/>
					<path fill="#776537" d="M500.77,196.706c0,0,7.516,2.745,7.441,15.45c-0.025,4.258-2.287,15.452,5.727,16.027
						c0,0-9.732,1.144-12.594-5.152c0,0,0.572,11.448,5.154,14.308c0,0-26.9,11.444-31.479-14.308l2.291-37.771
						C477.311,185.26,493.904,178.396,500.77,196.706z"/>
					<g>
						<polygon fill="#B7B7B7" points="329.506,259.943 347.818,257.651 350.68,278.254 						"/>
						<polygon fill="#B7B7B7" points="510.061,259.943 491.746,257.651 488.885,278.254 						"/>
						<path fill="#F4B07D" d="M528.275,383.904H312.342c0,0,35.348-130.543,35.348-193.104c0-36.149,144.605-36.147,144.605,0
							C492.295,281.214,528.275,383.904,528.275,383.904z"/>
						<g>
							<path fill="#776537" d="M421.484,67.668c0,0-28.076-39.345-80.127,0.599c-21.033,16.144-30.326,83.218,5.08,118.63
								l76.861-85.947L421.484,67.668z"/>
							<path fill="#776537" d="M421.762,67.668c0,0,28.078-39.345,80.129,0.599c21.029,16.149,30.324,83.218-5.08,118.63
								l-76.865-85.947L421.762,67.668z"/>
							<path fill="#F4B07D" d="M488.002,112.378c0,0-24.301-31.087-70.543-30.42c-46.057-0.667-65.402,30.42-65.402,30.42
								c-16.164,26.455-11.334,108.176-11.334,108.176c0,40.437,56.082,72.652,79.637,72.652c23.557,0,79.842-30.117,79.842-72.652
								C500.201,220.554,504.17,138.833,488.002,112.378z"/>
							<g>
								<path opacity="0.1" fill="#232222" d="M456.555,248.47c0,0-5.906,21.736-37.551,21.736
									c-31.26,0-37.551-21.736-37.551-21.736s11.438,16.015,38.889,16.015C420.342,264.485,438.627,266.398,456.555,248.47z"/>
							</g>
							<g opacity="0.2">
								<path fill="#231F20" d="M439.956,179.789c0.233,0.224,0.48,0.498,0.69,0.737c0.212,0.255,0.43,0.505,0.625,0.776
									c0.397,0.534,0.767,1.095,1.071,1.714c0.161,0.303,0.31,0.614,0.424,0.952c0.132,0.326,0.248,0.662,0.314,1.027
									c0.09,0.354,0.161,0.714,0.161,1.102c0.029,0.38,0.039,0.76-0.046,1.151c-0.057,0.39-0.115,0.78-0.291,1.139
									c-0.16,0.358-0.274,0.757-0.524,1.048c-0.229,0.306-0.446,0.638-0.701,0.911l-0.824,0.729
									c-0.271,0.265-0.579,0.41-0.875,0.599l-0.901,0.535l-1.858,0.777l-0.052,0.022l-0.173,0.031
									c-0.74,0.136-1.583,0.36-2.347,0.617c-0.776,0.262-1.526,0.577-2.222,0.948c-0.692,0.371-1.354,0.781-1.878,1.278
									c-0.548,0.511-0.861,0.962-1.363,1.798c-0.285,0.402-0.491,0.806-0.861,1.215l-0.522,0.607
									c-0.195,0.188-0.415,0.358-0.625,0.534c-0.411,0.382-0.891,0.616-1.365,0.867c-0.473,0.287-0.957,0.407-1.44,0.566
									l-0.728,0.228c-0.24,0.059-0.477,0.085-0.715,0.129l-1.431,0.23l-1.397,0.076l-0.698,0.034l-0.35,0.016l-0.175,0.008
									l-0.154-0.002l-0.083-0.004c-0.896-0.058-1.728-0.052-2.675-0.164c-0.98-0.155-1.966-0.26-2.919-0.61l-0.718-0.226
									c-0.237-0.103-0.473-0.229-0.707-0.346l-0.702-0.361c-0.225-0.14-0.435-0.318-0.651-0.478
									c-0.891-0.63-1.524-1.515-2.072-2.3l-0.362-0.568l-0.091-0.142l-0.045-0.071c-0.049-0.071,0.06,0.085,0.046,0.066
									l-0.006-0.008l-0.013-0.017l-0.024-0.033l-0.195-0.266l-0.196-0.266c-0.063-0.083-0.111-0.113-0.166-0.174
									c-0.119-0.108-0.18-0.214-0.335-0.335c-0.522-0.498-1.187-0.907-1.877-1.281c-0.695-0.372-1.445-0.687-2.221-0.949
									c-0.765-0.258-1.606-0.481-2.347-0.618l-0.173-0.032l-0.052-0.021l-1.857-0.778l-0.9-0.534
									c-0.297-0.189-0.605-0.333-0.876-0.599l-0.824-0.729c-0.255-0.272-0.473-0.604-0.701-0.91
									c-0.248-0.292-0.364-0.69-0.523-1.048c-0.176-0.358-0.234-0.749-0.292-1.138c-0.085-0.39-0.075-0.771-0.047-1.15
									c0-0.387,0.071-0.747,0.16-1.101c0.067-0.365,0.183-0.701,0.314-1.027c0.113-0.338,0.262-0.65,0.423-0.953
									c0.304-0.618,0.673-1.179,1.07-1.713c0.195-0.271,0.413-0.521,0.624-0.777c0.224-0.253,0.432-0.486,0.7-0.747
									c0.388-0.377,1.007-0.369,1.384,0.019c0.36,0.37,0.369,0.953,0.03,1.333l-0.029,0.032c-0.161,0.18-0.352,0.418-0.521,0.639
									c-0.165,0.23-0.34,0.458-0.488,0.698c-0.303,0.477-0.599,0.96-0.809,1.462c-0.118,0.248-0.223,0.497-0.29,0.75
									c-0.089,0.25-0.162,0.5-0.188,0.747c-0.052,0.248-0.091,0.493-0.069,0.726c-0.008,0.238-0.009,0.472,0.063,0.684
									c0.044,0.219,0.073,0.442,0.198,0.632c0.111,0.192,0.148,0.414,0.329,0.58c0.155,0.175,0.271,0.369,0.439,0.54l0.579,0.473
									c0.169,0.177,0.435,0.283,0.66,0.418l0.697,0.392l1.572,0.601l-0.225-0.053c0.999,0.153,1.87,0.365,2.787,0.639
									c0.902,0.276,1.795,0.616,2.668,1.05c0.869,0.438,1.723,0.962,2.495,1.666c0.37,0.335,0.876,0.872,1.077,1.177l0.198,0.264
									l0.102,0.142l0.044,0.067l0.089,0.136l0.354,0.543c0.466,0.642,0.885,1.224,1.454,1.598c0.14,0.099,0.264,0.215,0.412,0.305
									l0.48,0.232c0.16,0.076,0.313,0.164,0.479,0.236l0.547,0.158c0.711,0.265,1.492,0.324,2.25,0.454
									c0.802,0.093,1.74,0.085,2.604,0.133l2.425-0.093l1.182-0.182c0.195-0.033,0.4-0.05,0.587-0.094l0.535-0.168
									c0.354-0.113,0.736-0.194,1.017-0.382c0.306-0.16,0.633-0.296,0.865-0.532c0.126-0.107,0.264-0.199,0.388-0.312l0.341-0.396
									c0.237-0.235,0.444-0.622,0.674-0.934c0.4-0.676,1.096-1.692,1.87-2.357c0.771-0.704,1.627-1.227,2.495-1.666
									c0.873-0.433,1.767-0.772,2.669-1.048c0.917-0.274,1.788-0.485,2.787-0.638l-0.225,0.053l1.571-0.601l0.697-0.392
									c0.227-0.135,0.492-0.241,0.661-0.417l0.579-0.473c0.168-0.17,0.284-0.365,0.438-0.539c0.181-0.167,0.217-0.387,0.328-0.58
									c0.126-0.189,0.154-0.412,0.199-0.631c0.072-0.212,0.07-0.447,0.062-0.684c0.021-0.233-0.018-0.477-0.069-0.726
									c-0.026-0.247-0.101-0.496-0.188-0.747c-0.068-0.253-0.173-0.502-0.29-0.75c-0.211-0.501-0.507-0.984-0.81-1.462
									c-0.149-0.24-0.323-0.468-0.489-0.698c-0.183-0.235-0.334-0.432-0.531-0.649c-0.364-0.401-0.334-1.021,0.067-1.384
									C439.002,179.422,439.588,179.437,439.956,179.789z"/>
							</g>
							<path fill="#2E230E" d="M384.707,165.536c0,2.435-1.977,4.402-4.408,4.402s-4.408-1.967-4.408-4.402
								c0-2.438,1.977-4.412,4.408-4.412S384.707,163.098,384.707,165.536z"/>
							<path fill="#593B2E" d="M365.432,146.202c0,0,20-5.725,36.219,9.129c0,0,7.061-0.337,3.443-4.787
								C405.094,150.545,384.75,134.928,365.432,146.202z"/>
							<path fill="#2E230E" d="M452.963,164.824c0,2.435,1.975,4.403,4.406,4.403c2.443,0,4.414-1.969,4.414-4.403
								c0-2.438-1.971-4.412-4.414-4.412C454.938,160.412,452.963,162.385,452.963,164.824z"/>
							<path fill="#593B2E" d="M476.762,145.502c0,0-19.928-5.914-36.297,8.793c0,0-7.053-0.405-3.395-4.822
								C437.07,149.473,457.553,134.055,476.762,145.502z"/>
							<path fill="#F4B07D" d="M347.32,171.761c0,0-15.127-24.811-20.572-1.814c-1.684,7.083-1.82,45.393,19.965,21.189"/>
							
								<path fill="none" stroke="#C18963" stroke-width="2.4209" stroke-linecap="round" stroke-linejoin="round" stroke-miterlimit="10" d="
								M337.639,172.367c0,0-7.869,6.053,0,15.128"/>
							<path fill="#F4B07D" d="M491,171.761c0,0,15.137-24.811,20.584-1.814c1.68,7.083,1.811,45.393-19.969,21.189"/>
							
								<path fill="none" stroke="#C18963" stroke-width="2.4209" stroke-linecap="round" stroke-linejoin="round" stroke-miterlimit="10" d="
								M500.693,172.367c0,0,7.863,6.053,0,15.128"/>
							
								<path fill="none" stroke="#C18963" stroke-width="1.8368" stroke-linecap="round" stroke-linejoin="round" stroke-miterlimit="10" d="
								M433.322,223.678c0,0-14.904-9.616-29.006-0.57"/>
							<path fill="#776537" d="M338.33,85.821c0,0-8.885,53.069-7.674,53.47c1.205,0.404,42.777-21.594,42.777-21.594l48.221-16.746
								l71.617,21.992l14.531-6.048l-7.672-37.932l-69.811-7.26l-54.867,6.047L338.33,85.821z"/>
							<path opacity="0.3" fill="#231F20" d="M421.242,100.95c0,0,29.057,67.383,93.611,32.886c0,0-18.559-10.038-21.582-22.744"/>
							<path opacity="0.3" fill="#231F20" d="M420.83,100.441c0,0-17.471,50.895-81.098,33.862c0,0,14.59-7.016,19.979-19.054"/>
							<path fill="#776537" d="M421.654,100.95c0,0,27.238,58.309,88.562,32.083c0,0-13.922-10.292-16.945-23.001"/>
							<path fill="#776537" d="M420.83,100.441c0,0-22.246,41.229-74.707,32.422c0,0,11.465-9.626,13.396-20.756"/>
							<path fill="#776537" d="M396.43,52.334c0,0,9.764-3.46,6.455-17.759c0,0,10.9,10.486,10.9,20.983
								c0,0,4.438-21.788,13.717-25.018c0,0-3.379,28.632,24.85,20.236l-5.078,11.643l-20.178,24.607l-37.117-6.859L396.43,52.334z"
								/>
						</g>
					</g>
				</g>
				
					<path fill="none" stroke="#F4B07D" stroke-width="44.2918" stroke-linecap="round" stroke-linejoin="round" stroke-miterlimit="10" d="
					M342.697,298.51c0,0-84.666,61.424-91.986,127.261c-7.549,68.039-3.773,84.419-3.773,120.457"/>
				<path fill="none" stroke="#282828" stroke-width="45.3574" stroke-linejoin="round" stroke-miterlimit="10" d="M342.697,298.51
					c0,0-84.666,61.424-91.986,127.261c-7.549,68.039-3.773,84.419-3.773,120.457"/>
				
					<path fill="none" stroke="#F4B07D" stroke-width="44.2918" stroke-linecap="round" stroke-linejoin="round" stroke-miterlimit="10" d="
					M499.234,299.611c0,0,84.662,61.431,91.982,127.264c7.551,68.031,3.783,84.408,3.783,120.449"/>
				<path fill="none" stroke="#282828" stroke-width="45.3574" stroke-linejoin="round" stroke-miterlimit="10" d="M499.234,299.611
					c0,0,84.662,61.431,91.982,127.264c7.551,68.031,3.783,84.408,3.783,120.449"/>
				<path fill="#F4B07D" d="M336.916,289.458c-12.896,55.038-37.807,50.607-37.807,143.644c0,114.514,0,93.936,0,96.843
					c0,0.209,12.6,0.306,12.6,0.306h108.75V289.458H336.916z"/>
				<path fill="#F4B07D" d="M499.832,289.458c12.893,55.038,37.799,50.607,37.799,143.644c0,114.514,0,93.936,0,96.843
					c0,0.209-12.6,0.306-12.6,0.306H416.287V289.458H499.832z"/>
				<rect x="335.887" y="286.754" fill="#FFFFFF" width="163.35" height="236.434"/>
				<path fill="#282828" d="M284.186,467.516c0,0-0.963,57.117-4.92,83.276c0,0,7.631,3.45,26.855,3.45
					c0,0,39.029,4.601,43.252-0.391l-1.148-57.281L284.186,467.516z"/>
				<path fill="#282828" d="M348.51,279.471v245.92h-61.785c0,0-18.908-179.392,43.141-245.92H348.51z"/>
				<path fill="#282828" d="M558.148,474.381c0,0,0,58.462,6.021,77.947c0,0-14.246,3.825-33.479,3.825
					c0,0-35.951,2.69-40.184-2.302l1.156-57.281L558.148,474.381z"/>
				<path fill="#282828" d="M491.375,279.471v245.92h66.369c0,0,11.168-203.843-47.723-245.92H491.375z"/>
				<polygon fill="#2D2D2D" points="347.391,279.357 314.145,322.808 345.414,325.12 314.145,364.614 347.391,485.959 				"/>
				<polygon fill="#2D2D2D" points="491.156,279.357 524.406,322.808 493.137,325.12 524.406,364.614 491.156,485.959 				"/>
				<g>
					<g>
						<polygon fill="#EA94C7" points="394.668,287.783 419.064,312.174 444.332,287.783 419.639,281.382 						"/>
						<path fill="#EA94C7" d="M427.562,301.744l-7.641-7.763v-0.851l-0.422,0.415l-0.422-0.415l-0.045,0.906l-7.605,7.708
							L393.59,471.598c0,0,19.594,44.167,26.332,44.167c8.549,0,25.486-44.167,25.486-44.167L427.562,301.744z"/>
					</g>
					<polygon fill="#D6D6D6" points="336.338,261.823 420.459,281.382 394.418,309.204 329.461,279.398 329.461,259.528 					"/>
					<polygon fill="#D6D6D6" points="503.748,261.823 419.639,281.382 445.666,309.204 510.627,279.398 510.627,259.528 					"/>
				</g>
				<g>
					<path fill="#F4B07D" d="M477.393,254.676c0,0-9.172,30.853-58.297,30.853c-48.531,0-58.291-30.853-58.291-30.853
						s17.746,22.726,60.357,22.726C421.162,277.403,449.564,280.12,477.393,254.676z"/>
				</g>
			</g>
		</g>
	</g>
	<g>
		<text transform="matrix(1 0 0 1 109.8359 448.2798)" fill="#BE1E2D" font-family="'BebasNeue'" font-size="145.0143">#noerapenal</text>
		<g>
			<rect x="18.973" y="74" display="none" fill="#E6E7E8" width="281.027" height="197.025"/>
			<g>
				<defs>
					<rect id="SVGID_3_" x="19.971" y="74" width="281.029" height="197.026"/>
				</defs>
				<clipPath id="SVGID_4_">
					<use xlink:href="#SVGID_3_"  overflow="visible"/>
				</clipPath>
				<g clip-path="url(#SVGID_4_)">
					<rect x="19.971" y="74" fill="#42201D" width="281.029" height="197.026"/>
					<rect x="17.832" y="149.776" fill="#4C2520" width="285.322" height="11.489"/>
					<rect x="17.832" y="253.742" fill="#4C2520" width="285.322" height="11.49"/>
					<path fill="#7F3354" d="M39.363,164.677c-10.207,0-10.209,1.823-10.209,1.823v1.916v5.108v2.007v5.107v16.506v23.165v23.347
						v5.107v3.646c0,0-0.545,2.736,10.209,2.736c11.863,0,12.227-2.736,12.227-2.736v-3.646v-5.107v-23.347v-23.165v-16.506v-5.107
						v-2.007v-5.108V166.5C51.59,166.5,51.59,164.677,39.363,164.677z"/>
					<path fill="#A0557D" d="M61.799,164.677c-10.209,0-10.209,1.823-10.209,1.823v1.916v5.108v2.007v5.107v16.506v23.165v23.347
						v5.107v3.646c0,0-0.547,2.736,10.209,2.736c11.863,0,12.227-2.736,12.227-2.736v-3.646v-5.107v-23.347v-23.165v-16.506v-5.107
						v-2.007v-5.108V166.5C74.025,166.5,74.025,164.677,61.799,164.677z"/>
					<path fill="#BE696C" d="M84.232,164.677c-10.207,0-10.207,1.823-10.207,1.823v1.916v5.108v2.007v5.107v16.506v23.165v23.347
						v5.107v3.646c0,0-0.547,2.736,10.207,2.736c11.863,0,12.227-2.736,12.227-2.736v-3.646v-5.107v-23.347v-23.165v-16.506v-5.107
						v-2.007v-5.108V166.5C96.459,166.5,96.461,164.677,84.232,164.677z"/>
					<path fill="#98657E" d="M106.668,191.216c-10.207,0-10.209,1.823-10.209,1.823v1.916v5.108v2.006v5.108v-10.032v23.165v23.347
						v5.107v3.646c0,0-0.545,2.736,10.209,2.736c11.863,0,12.227-2.736,12.227-2.736v-3.646v-5.107v-23.347v-23.165v10.032v-5.108
						v-2.006v-5.108v-1.916C118.895,193.039,118.895,191.216,106.668,191.216z"/>
					<path fill="#471750" d="M129.104,164.677c-10.209,0-10.209,1.823-10.209,1.823v1.916v5.108v2.007v5.107v16.506v23.165v23.347
						v5.107v3.646c0,0-0.547,2.736,10.209,2.736c11.861,0,12.225-2.736,12.225-2.736v-3.646v-5.107v-23.347v-23.165v-16.506v-5.107
						v-2.007v-5.108V166.5C141.328,166.5,141.33,164.677,129.104,164.677z"/>
					<path fill="#3E5D96" d="M151.537,164.677c-10.207,0-10.209,1.823-10.209,1.823v1.916v5.108v2.007v5.107v16.506v23.165v23.347
						v5.107v3.646c0,0-0.545,2.736,10.209,2.736c11.863,0,12.227-2.736,12.227-2.736v-3.646v-5.107v-23.347v-23.165v-16.506v-5.107
						v-2.007v-5.108V166.5C163.764,166.5,163.766,164.677,151.537,164.677z"/>
					<path fill="#191919" d="M167.83,164.677c-4.068,0-4.068,1.823-4.068,1.823v1.916v5.108v2.007v5.107v16.506v23.165v23.347v5.107
						v3.646c0,0-0.219,2.736,4.068,2.736c4.727,0,4.871-2.736,4.871-2.736v-3.646v-5.107v-23.347v-23.165v-16.506v-5.107v-2.007
						v-5.108V166.5C172.701,166.5,172.703,164.677,167.83,164.677z"/>
					<path fill="#632744" d="M196.408,164.677c-10.209,0-10.209,1.823-10.209,1.823v1.916v5.108v2.007v5.107v16.506v23.165v23.347
						v5.107v3.646c0,0-0.547,2.736,10.209,2.736c11.861,0,12.225-2.736,12.225-2.736v-3.646v-5.107v-23.347v-23.165v-16.506v-5.107
						v-2.007v-5.108V166.5C208.633,166.5,208.635,164.677,196.408,164.677z"/>
					<path fill="#B66F3F" d="M178.957,164.677c-5.893,0-5.893,1.823-5.893,1.823v1.916v5.108v2.007v5.107v16.506v23.165v23.347
						v5.107v3.646c0,0-0.316,2.736,5.893,2.736c6.848,0,7.059-2.736,7.059-2.736v-3.646v-5.107v-23.347v-23.165v-16.506v-5.107
						v-2.007v-5.108V166.5C186.016,166.5,186.016,164.677,178.957,164.677z"/>
					<path fill="#2A1E34" d="M218.842,164.677c-10.207,0-10.209,1.823-10.209,1.823v1.916v5.108v2.007v5.107v16.506v23.165v23.347
						v5.107v3.646c0,0-0.545,2.736,10.209,2.736c11.863,0,12.227-2.736,12.227-2.736v-3.646v-5.107v-23.347v-23.165v-16.506v-5.107
						v-2.007v-5.108V166.5C231.068,166.5,231.07,164.677,218.842,164.677z"/>
					<path fill="#98657E" d="M241.277,164.677c-10.207,0-10.209,1.823-10.209,1.823v1.916v5.108v2.007v5.107v16.506v23.165v23.347
						v5.107v3.646c0,0-0.547,2.736,10.209,2.736c11.863,0,12.227-2.736,12.227-2.736v-3.646v-5.107v-23.347v-23.165v-16.506v-5.107
						v-2.007v-5.108V166.5C253.504,166.5,253.504,164.677,241.277,164.677z"/>
					<path fill="#BE696C" d="M263.711,164.677c-10.207,0-10.207,1.823-10.207,1.823v1.916v5.108v2.007v5.107v16.506v23.165v23.347
						v5.107v3.646c0,0-0.547,2.736,10.207,2.736c11.863,0,12.227-2.736,12.227-2.736v-3.646v-5.107v-23.347v-23.165v-16.506v-5.107
						v-2.007v-5.108V166.5C275.938,166.5,275.939,164.677,263.711,164.677z"/>
					<path fill="#701340" d="M286.146,164.677c-10.207,0-10.209,1.823-10.209,1.823v1.916v5.108v2.007v5.107v16.506v23.165v23.347
						v5.107v3.646c0,0-0.545,2.736,10.209,2.736c11.863,0,12.227-2.736,12.227-2.736v-3.646v-5.107v-23.347v-23.165v-16.506v-5.107
						v-2.007v-5.108V166.5C298.373,166.5,298.373,164.677,286.146,164.677z"/>
					<path fill="#293266" d="M32.613,60.845c-10.207,0-10.209,1.823-10.209,1.823v1.916v5.107v2.007v5.107v16.506v23.165v23.346
						v5.108v3.646c0,0-0.545,2.737,10.209,2.737c11.863,0,12.227-2.737,12.227-2.737v-3.646v-5.108v-23.346V93.312V76.806v-5.107
						v-2.007v-5.107v-1.916C44.84,62.668,44.84,60.845,32.613,60.845z"/>
					<path fill="#2F3651" d="M55.049,60.845c-10.209,0-10.209,1.823-10.209,1.823v1.916v5.107v2.007v5.107v16.506v23.165v23.346
						v5.108v3.646c0,0-0.547,2.737,10.209,2.737c11.863,0,12.227-2.737,12.227-2.737v-3.646v-5.108v-23.346V93.312V76.806v-5.107
						v-2.007v-5.107v-1.916C67.275,62.668,67.275,60.845,55.049,60.845z"/>
					<path fill="#566EFC" d="M77.482,60.845c-10.207,0-10.207,1.823-10.207,1.823v1.916v5.107v2.007v5.107v16.506v23.165v23.346
						v5.108v3.646c0,0-0.547,2.737,10.207,2.737c11.863,0,12.227-2.737,12.227-2.737v-3.646v-5.108v-23.346V93.312V76.806v-5.107
						v-2.007v-5.107v-1.916C89.709,62.668,89.711,60.845,77.482,60.845z"/>
					<path fill="#C8FFFE" d="M99.918,87.384c-10.207,0-10.209,1.823-10.209,1.823v1.916v5.107v2.006v5.107V93.312v23.165v23.346
						v5.108v3.646c0,0-0.545,2.737,10.209,2.737c11.863,0,12.227-2.737,12.227-2.737v-3.646v-5.108v-23.346V93.312v10.032v-5.107
						v-2.006v-5.107v-1.916C112.145,89.208,112.145,87.384,99.918,87.384z"/>
					<path fill="#262A50" d="M122.354,60.845c-10.209,0-10.209,1.823-10.209,1.823v1.916v5.107v2.007v5.107v16.506v23.165v23.346
						v5.108v3.646c0,0-0.547,2.737,10.209,2.737c11.861,0,12.225-2.737,12.225-2.737v-3.646v-5.108v-23.346V93.312V76.806v-5.107
						v-2.007v-5.107v-1.916C134.578,62.668,134.58,60.845,122.354,60.845z"/>
					<path fill="#3E5D96" d="M144.787,60.845c-10.207,0-10.209,1.823-10.209,1.823v1.916v5.107v2.007v5.107v16.506v23.165v23.346
						v5.108v3.646c0,0-0.545,2.737,10.209,2.737c11.863,0,12.227-2.737,12.227-2.737v-3.646v-5.108v-23.346V93.312V76.806v-5.107
						v-2.007v-5.107v-1.916C157.014,62.668,157.016,60.845,144.787,60.845z"/>
					<path fill="#4C2520" d="M161.08,60.845c-4.068,0-4.068,1.823-4.068,1.823v1.916v5.107v2.007v5.107v16.506v23.165v23.346v5.108
						v3.646c0,0-0.219,2.737,4.068,2.737c4.727,0,4.871-2.737,4.871-2.737v-3.646v-5.108v-23.346V93.312V76.806v-5.107v-2.007
						v-5.107v-1.916C165.951,62.668,165.953,60.845,161.08,60.845z"/>
					<path fill="#5D627C" d="M194.957,60.845c-5.893,0-5.893,1.823-5.893,1.823v1.916v5.107v2.007v5.107v16.506v23.165v23.346v5.108
						v3.646c0,0-0.316,2.737,5.893,2.737c6.848,0,7.059-2.737,7.059-2.737v-3.646v-5.108v-23.346V93.312V76.806v-5.107v-2.007
						v-5.107v-1.916C202.016,62.668,202.016,60.845,194.957,60.845z"/>
					<path fill="#2F3651" d="M228.58,60.845c-4.068,0-4.068,1.823-4.068,1.823v1.916v5.107v2.007v5.107v16.506v23.165v23.346v5.108
						v3.646c0,0-0.219,2.737,4.068,2.737c4.727,0,4.871-2.737,4.871-2.737v-3.646v-5.108v-23.346V93.312V76.806v-5.107v-2.007
						v-5.107v-1.916C233.451,62.668,233.453,60.845,228.58,60.845z"/>
					<path fill="#262A50" d="M264.33,60.845c-4.068,0-4.068,1.823-4.068,1.823v1.916v5.107v2.007v5.107v16.506v23.165v23.346v5.108
						v3.646c0,0-0.219,2.737,4.068,2.737c4.727,0,4.871-2.737,4.871-2.737v-3.646v-5.108v-23.346V93.312V76.806v-5.107v-2.007
						v-5.107v-1.916C269.201,62.668,269.203,60.845,264.33,60.845z"/>
					<path fill="#262A50" d="M239.707,60.845c-5.893,0-5.893,1.823-5.893,1.823v1.916v5.107v2.007v5.107v16.506v23.165v23.346v5.108
						v3.646c0,0-0.316,2.737,5.893,2.737c6.848,0,7.059-2.737,7.059-2.737v-3.646v-5.108v-23.346V93.312V76.806v-5.107v-2.007
						v-5.107v-1.916C246.766,62.668,246.766,60.845,239.707,60.845z"/>
					<path fill="#293266" d="M252.707,60.845c-5.893,0-5.893,1.823-5.893,1.823v1.916v5.107v2.007v5.107v16.506v23.165v23.346v5.108
						v3.646c0,0-0.316,2.737,5.893,2.737c6.848,0,7.059-2.737,7.059-2.737v-3.646v-5.108v-23.346V93.312V76.806v-5.107v-2.007
						v-5.107v-1.916C259.766,62.668,259.766,60.845,252.707,60.845z"/>
					<path fill="#182470" d="M212.092,60.845c-10.207,0-10.209,1.823-10.209,1.823v1.916v5.107v2.007v5.107v16.506v23.165v23.346
						v5.108v3.646c0,0-0.545,2.737,10.209,2.737c11.863,0,12.227-2.737,12.227-2.737v-3.646v-5.108v-23.346V93.312V76.806v-5.107
						v-2.007v-5.107v-1.916C224.318,62.668,224.32,60.845,212.092,60.845z"/>
					<path fill="#38448C" d="M176.592,60.845c-10.207,0-10.209,1.823-10.209,1.823v1.916v5.107v2.007v5.107v16.506v23.165v23.346
						v5.108v3.646c0,0-0.545,2.737,10.209,2.737c11.863,0,12.227-2.737,12.227-2.737v-3.646v-5.108v-23.346V93.312V76.806v-5.107
						v-2.007v-5.107v-1.916C188.818,62.668,188.82,60.845,176.592,60.845z"/>
					<path fill="#262A50" d="M279.396,60.845c-10.207,0-10.209,1.823-10.209,1.823v1.916v5.107v2.007v5.107v16.506v23.165v23.346
						v5.108v3.646c0,0-0.545,2.737,10.209,2.737c11.863,0,12.227-2.737,12.227-2.737v-3.646v-5.108v-23.346V93.312V76.806v-5.107
						v-2.007v-5.107v-1.916C291.623,62.668,291.623,60.845,279.396,60.845z"/>
					<g>
						
							<path fill="none" stroke="#191919" stroke-width="14.2084" stroke-linecap="round" stroke-linejoin="round" stroke-miterlimit="10" d="
							M185.613,178.276c0,0,36.293,32.006,38.721,72.3"/>
						<path fill="#4F3828" d="M151.752,92.247c-13.422,7.36-21.652,20.011-22.578,53.737c-0.377,13.742-6.311,41.064-15.146,52.867
							l28.137-19.919c0,0,35.156,22.502,17.859-31.63c-17.295-54.131,4.701-43.435,4.701-43.435l-2.445-13.648
							C162.279,90.219,154.602,90.686,151.752,92.247z"/>
						
							<path fill="none" stroke="#191919" stroke-width="14.2084" stroke-linecap="round" stroke-linejoin="round" stroke-miterlimit="10" d="
							M143.463,181.99c0,0-47.582,21.434-41.008,57.439"/>
						<path fill="none" stroke="#203F39" stroke-width="16.4285" stroke-linejoin="round" stroke-miterlimit="10" d="
							M142.172,178.023"/>
						<path fill="none" stroke="#203F39" stroke-width="16.4285" stroke-linejoin="round" stroke-miterlimit="10" d="
							M142.172,178.023"/>
						<polygon fill="#161616" points="143.561,170.164 148.568,169.539 149.35,175.173 						"/>
						<polygon fill="#161616" points="187.82,168.604 181.58,167.825 180.607,174.841 						"/>
						<path fill="#FFCCB8" d="M189.506,205.04h-50.758c0,0,9.955-18.685,10.006-54.663c0.016-10.234,30.566-10.234,30.566,0
							C179.32,198.411,189.506,205.04,189.506,205.04z"/>
						<path opacity="0.1" fill="#232222" d="M159.422,165.398c11.188,0,13.357-13.166,15.832-15.486l-31.971,3.464
							C143.283,153.376,147.684,165.398,159.422,165.398z"/>
						<g>
							<circle opacity="0.2" fill="#232222" cx="143.315" cy="204.644" r="3.954"/>
							<circle opacity="0.2" fill="#232222" cx="143.315" cy="204.644" r="1.978"/>
						</g>
						<g>
							<circle opacity="0.2" fill="#232222" cx="183.173" cy="204.644" r="3.954"/>
							<circle opacity="0.2" fill="#232222" cx="183.172" cy="204.644" r="1.979"/>
						</g>
						<ellipse opacity="0.2" fill="#232222" cx="163.854" cy="260.319" rx="1.217" ry="1.978"/>
						<path fill="#191919" d="M192.754,175.057h-19.57l-10.359,2.003l-8.467-2.003h-13.217c-4.668,19.932-10.16,18.327-10.16,52.022
							c0,41.48,0,42.893,0,43.947c0,0.073,4.564,0,4.564,0h26.949h1.512h31.232c0,0,4.564,0.073,4.564,0c0-1.054,0-2.467,0-43.947
							C199.803,193.384,197.426,194.99,192.754,175.057z"/>
						<path fill="#191919" d="M185.496,175.419c0,0-0.5-2.112-2.555-5.255c0,0-9.039,5.255-20.258,5.255v8.09L185.496,175.419z"/>
						<path fill="#191919" d="M141.004,175.419c0,0,0.502-2.112,2.557-5.255c0,0,9.039,5.255,20.26,5.255v8.09L141.004,175.419z"/>
						<g>
							<path fill="#FFFFFF" d="M164.348,113.735"/>
							<path fill="#FFCCB8" d="M156.451,99.902c0,0-18.328,4.149-18.328,18.536c0,0-1.121,4.892-2.254,8.854
								c-2.027,7.078,1.221,18.073,8.459,28.217c0,0,3.664,3.596,5.074,4.704c1.41,1.106,8.459,4.426,15.227,0
								c0,0,11.562-6.086,14.945-17.706c0,0,11.561-23.792-5.357-38.178C174.217,104.328,164.066,96.582,156.451,99.902z"/>
							<path fill="#4F3828" d="M148.641,97.412c0,0-6.77,6.271,15.979,13.095c0,0,18.045,4.979,16.541,21.579
								c0,0-6.766,21.394-3.57,35.779c0,0,7.496,20.087-3.195,30.616c-4.297,4.231-6.428,9.084,3.947,23.793
								c2.801,3.971,9.277,5.092,14.85,12.541c4.201,5.615,6.203,17.521,20.115,19.55c0,0,2.645-30.209-10.152-49.798
								c-2.25-3.446-3.947-5.349-1.316-16.413c0,0,5.453-34.121-14.285-78.753C189.416,113.681,167.467,72.256,148.641,97.412z"/>
							<path fill="#FFCCB8" d="M176.754,140.569c0.846,0.553,6.205,8.301,8.742-3.32c0,0,5.922-11.896-4.795-8.299"/>
							<ellipse fill="#080000" cx="146.02" cy="127.568" rx="1.598" ry="1.566"/>
							<g>
								<path fill="#4F3828" d="M138.469,122.342c0,0,0.246-0.688,0.896-1.558c0.153-0.226,0.355-0.44,0.558-0.682
									c0.225-0.216,0.443-0.474,0.717-0.685c0.26-0.231,0.547-0.447,0.856-0.645c0.297-0.222,0.64-0.372,0.97-0.559
									c0.339-0.162,0.693-0.294,1.042-0.434c0.36-0.101,0.714-0.2,1.058-0.296c0.352-0.059,0.691-0.116,1.014-0.17
									c0.324-0.043,0.63-0.045,0.916-0.067c0.575-0.053,1.039,0.007,1.373,0.012c0.333,0.016,0.523,0.025,0.523,0.025
									c0.651,0.031,1.154,0.585,1.123,1.237c-0.03,0.652-0.584,1.155-1.236,1.124c-0.07-0.004-0.139-0.013-0.205-0.028l-0.1-0.023
									c0,0-0.154-0.036-0.425-0.099c-0.271-0.053-0.662-0.186-1.133-0.224c-0.235-0.026-0.495-0.076-0.767-0.09
									c-0.273-0.006-0.562-0.012-0.859-0.019c-0.298,0.026-0.605,0.052-0.918,0.079c-0.304,0.064-0.622,0.116-0.934,0.198
									c-0.3,0.106-0.623,0.175-0.908,0.318c-0.298,0.119-0.582,0.259-0.846,0.419c-0.278,0.14-0.509,0.332-0.75,0.487
									c-0.219,0.182-0.442,0.343-0.619,0.522c-0.748,0.689-1.096,1.28-1.096,1.28c-0.039,0.067-0.125,0.089-0.191,0.05
									c-0.059-0.035-0.083-0.106-0.061-0.168L138.469,122.342z"/>
							</g>
							<ellipse fill="#080000" cx="166.229" cy="127.568" rx="1.598" ry="1.566"/>
							<g>
								<path fill="#4F3828" d="M173.529,122.464c0,0-0.348-0.591-1.096-1.281c-0.177-0.179-0.4-0.339-0.619-0.521
									c-0.242-0.156-0.473-0.348-0.75-0.487c-0.264-0.16-0.548-0.3-0.846-0.419c-0.285-0.144-0.609-0.212-0.909-0.319
									c-0.311-0.082-0.629-0.134-0.934-0.198c-0.312-0.027-0.619-0.053-0.917-0.079c-0.298,0.006-0.586,0.012-0.859,0.018
									c-0.271,0.014-0.531,0.064-0.767,0.09c-0.471,0.038-0.862,0.172-1.133,0.224c-0.271,0.063-0.425,0.099-0.425,0.099
									l-0.093,0.022c-0.636,0.148-1.271-0.247-1.419-0.883s0.247-1.271,0.883-1.419c0.068-0.016,0.144-0.026,0.211-0.029
									c0,0,0.19-0.009,0.523-0.025c0.334-0.004,0.798-0.065,1.373-0.012c0.286,0.022,0.592,0.023,0.916,0.067
									c0.322,0.054,0.662,0.111,1.014,0.17c0.344,0.096,0.697,0.195,1.058,0.296c0.349,0.14,0.703,0.271,1.042,0.434
									c0.329,0.187,0.673,0.336,0.97,0.558c0.31,0.198,0.597,0.414,0.856,0.645c0.273,0.211,0.491,0.469,0.717,0.685
									c0.201,0.242,0.404,0.456,0.558,0.682c0.649,0.869,0.896,1.558,0.896,1.558l0.002,0.005
									c0.026,0.073-0.012,0.153-0.084,0.179C173.633,122.548,173.562,122.521,173.529,122.464z"/>
							</g>
							<path fill="#4C413A" d="M151.658,145.088c0,0,5.873-2.927,8.365,2.214c0.969,1.995-0.092,7.102-3.664,7.009
								c-3.395-0.089-5.826-0.738-5.17-5.534C151.316,147.857,150.533,145.735,151.658,145.088z"/>
							<g>
								<path fill="#4F3828" d="M154.577,125.58c0,0,0.317,1.055,0.438,2.692c0.049,0.818,0.04,1.784-0.105,2.816
									c-0.067,0.517-0.178,1.047-0.332,1.579c-0.143,0.533-0.332,1.072-0.59,1.581c-0.228,0.515-0.557,1.018-0.854,1.463
									c-0.328,0.432-0.505,0.736-0.483,0.938c-0.019,0.224,0.181,0.587,0.438,0.89c0.249,0.319,0.545,0.605,0.819,0.871
									c0.566,0.52,1.061,0.965,1.415,1.263c0.358,0.295,0.551,0.486,0.551,0.487c0.063,0.06,0.067,0.16,0.007,0.224
									c-0.043,0.046-0.112,0.06-0.169,0.041c0,0-0.256-0.091-0.683-0.292c-0.43-0.197-1.041-0.491-1.738-0.937
									c-0.345-0.235-0.711-0.503-1.083-0.853c-0.341-0.361-0.78-0.812-0.88-1.596c-0.066-0.823,0.403-1.428,0.665-1.832
									c0.279-0.424,0.539-0.811,0.742-1.267c0.115-0.216,0.208-0.445,0.293-0.677c0.097-0.227,0.185-0.456,0.252-0.694
									c0.16-0.464,0.262-0.942,0.365-1.405c0.191-0.93,0.29-1.825,0.335-2.598c0.057-0.773,0.059-1.425,0.045-1.88
									c-0.005-0.458-0.021-0.713-0.021-0.713c-0.01-0.161,0.112-0.3,0.274-0.31C154.417,125.364,154.539,125.453,154.577,125.58z"
									/>
							</g>
						</g>
						<g>
							<path fill="#260B07" d="M115.656,255.497c0,0,7.41,20.76,28.414,4.364c1.711-1.335,3.43-4.392,8.465-1.927
								c5.832,2.853,24.648-1.823,21.646-15.968l-46.078-4.501L115.656,255.497z"/>
							<path fill="#60231A" d="M112.203,236.677c0,0,2.553-10.02,15.291-12.056c0,0,8.344-1.561,13.578,3.218
								c2.059,1.879,3.67,4.01,11.273-0.054c1.666-0.89,17.455-9.884,21.059,9.157l-19.217,7.005l-30.514-7.939L112.203,236.677z"/>
							<path fill="#260B07" d="M112.223,247.015c0,0-5.098-14.542,11.43-18.576c4.475-1.092,6.631-1.954,17.979,3.827
								c2.465,1.255,4.004,1.835,10.955-2.045c0,0,14.793-7.754,20.818,6.722c0,0,4.543,10.777-2.955,14.018l-54.793,4.537
								C115.656,255.497,114.059,253.857,112.223,247.015z"/>
							
								<rect x="115.906" y="246.389" transform="matrix(-0.1579 -0.9875 0.9875 -0.1579 -101.7626 411.7069)" fill="#191919" width="17.544" height="5.716"/>
							<polygon fill="#301614" points="159.586,238.715 161.404,250.075 229.189,238.003 227.469,229.103 							"/>
							<path fill="#301614" d="M252.596,223.354c-1.541-3.031-4.912-1.836-4.912-1.836s-15.938,4.076-19.098,4.854
								c-3.16,0.78-2.572,1.669-2.572,1.669c-0.615,2.063-4.734,3.815-4.734,3.815l-1.025,2.785l-0.031,0.005l0.02,0.024
								l-0.012,0.028l0.031-0.004l1.844,2.327c0,0,4.459,0.379,5.689,2.149c0,0-0.283,1.028,2.963,0.782
								c3.244-0.247,19.658-1.342,19.658-1.342s3.574,0.085,4.096-3.276c0,0,0.721-4.122,0.348-6.198
								C254.564,227.048,252.596,223.354,252.596,223.354z"/>
							
								<line fill="none" stroke="#FFFFFF" stroke-width="0.2178" stroke-miterlimit="10" x1="120.717" y1="245.365" x2="231.012" y2="230.409"/>
							<polyline fill="none" stroke="#FFFFFF" stroke-width="0.2178" stroke-miterlimit="10" points="243.441,228.421 
								222.391,235.082 121.695,248.704 							"/>
							<polyline fill="none" stroke="#FFFFFF" stroke-width="0.2178" stroke-miterlimit="10" points="243.387,235.038 
								222.105,237.023 122.377,252.966 							"/>
							
								<line fill="none" stroke="#FFFFFF" stroke-width="0.2178" stroke-miterlimit="10" x1="232.107" y1="237.608" x2="123.586" y2="254.956"/>
							<path fill="#B2B2B2" d="M244.449,227.06c0.104,0.646-0.348,1.257-1.008,1.362c-0.656,0.106-1.277-0.334-1.379-0.981
								c-0.105-0.646,0.348-1.256,1.006-1.362C243.727,225.974,244.346,226.412,244.449,227.06z"/>
							
								<ellipse transform="matrix(0.9874 -0.1584 0.1584 0.9874 -34.1652 41.531)" fill="#B2B2B2" cx="243.388" cy="235.04" rx="1.21" ry="1.187"/>
							
								<ellipse transform="matrix(0.9875 -0.1578 0.1578 0.9875 -34.596 39.6168)" fill="#B2B2B2" cx="232.108" cy="237.606" rx="1.209" ry="1.185"/>
							
								<ellipse transform="matrix(0.9874 -0.1584 0.1584 0.9874 -33.3911 39.4483)" fill="#B2B2B2" cx="230.824" cy="229.238" rx="1.209" ry="1.187"/>
						</g>
						
							<path fill="none" stroke="#FFCCB8" stroke-width="13.6143" stroke-linecap="round" stroke-linejoin="round" stroke-miterlimit="10" d="
							M154.322,244.859c0,0-41.438,11.429-51.01-4.287"/>
						<path fill="#191919" d="M97.307,243.861c0,0,3.145-7.858,12.145-7.143l-4-7.287c0,0-7.287-9.717-7.43,2.571
							C98.021,232.002,93.449,239.003,97.307,243.861z"/>
						
							<path fill="none" stroke="#FFCCB8" stroke-width="13.6143" stroke-linecap="round" stroke-linejoin="round" stroke-miterlimit="10" d="
							M207.939,235.107c0,0,1.285,13.18,16.717,18.754"/>
						<path fill="#191919" d="M220.691,259.647c0,0,8.357-2.358,6.857-12.323c0,0,6.324-1.607,3.645,10.395
							C230.611,260.323,226.799,263.075,220.691,259.647z"/>
					</g>
				</g>
			</g>
			<text transform="matrix(1 0 0 1 20.8809 64.6489)" font-family="'BebasNeueRegular'" font-size="35.7032">PINCHES HOLANDESES</text>
			<path opacity="0.1" fill="#FFFFFF" stroke="#231F20" stroke-miterlimit="10" d="M203.816,195.429c0,4.217-3.42,7.637-7.637,7.637
				h-71.781c-4.217,0-7.637-3.42-7.637-7.637v-44.29c0-4.217,3.42-7.637,7.637-7.637h71.781c4.217,0,7.637,3.42,7.637,7.637V195.429
				z"/>
			<polygon fill="#AFAFAF" points="147.871,159.885 175.076,175.594 147.871,191.303 			"/>
		</g>
		<g>
			<rect x="619.861" y="39.558" fill="#EFEFEF" width="202.484" height="286.147"/>
			<text transform="matrix(1 0 0 1 663.9844 92.4067)"><tspan x="0" y="0" fill="#302F2F" font-family="'BebasNeue'" font-size="21.5963">MÉXICO REGRESA </tspan><tspan x="0" y="19.506" fill="#302F2F" font-family="'BebasNeue'" font-size="21.5963">A CASA</tspan></text>
			<g>
				<rect x="666.906" y="151.809" fill="#898989" width="110.33" height="3.761"/>
				<rect x="666.906" y="156.825" fill="#898989" width="110.33" height="3.761"/>
				<rect x="666.906" y="161.682" fill="#898989" width="110.33" height="3.762"/>
				<rect x="666.906" y="166.542" fill="#898989" width="110.33" height="3.761"/>
				<rect x="666.906" y="137.179" fill="#898989" width="110.33" height="3.762"/>
				<rect x="666.906" y="142.194" fill="#898989" width="110.33" height="3.76"/>
				<rect x="666.906" y="147.052" fill="#898989" width="110.33" height="3.762"/>
				<rect x="666.906" y="127.426" fill="#898989" width="110.33" height="3.761"/>
				<rect x="666.906" y="132.442" fill="#898989" width="110.33" height="3.76"/>
				<rect x="666.906" y="137.299" fill="#898989" width="110.33" height="3.761"/>
				<rect x="666.906" y="171.241" fill="#898989" width="40.432" height="3.761"/>
				<rect x="666.906" y="191.909" fill="#898989" width="65.977" height="3.761"/>
				<rect x="666.906" y="182.211" fill="#898989" width="110.33" height="3.761"/>
				<rect x="666.906" y="187.227" fill="#898989" width="110.33" height="3.761"/>
			</g>
			<rect x="626.504" y="46.56" fill="#898989" width="189.504" height="12.772"/>
			<rect x="664.449" y="119.224" fill="#302F2F" width="114.252" height="1.394"/>
			<rect x="664.449" y="231.734" fill="#302F2F" width="114.252" height="1.393"/>
			<text transform="matrix(1 0 0 1 663.9844 224.4233)" fill="#302F2F" font-family="'BebasNeue'" font-size="21.5963">MÉXICO DICE:</text>
			<rect x="626.295" y="61.52" fill="#302F2F" width="190.561" height="1.394"/>
			<rect x="664.609" y="241.487" fill="#ADADAD" width="112.625" height="68.737"/>
			<rect x="626.295" y="165.322" fill="#ADADAD" width="31.582" height="146.297"/>
			<rect x="626.295" y="69.183" fill="#ADADAD" width="31.582" height="89.171"/>
			<rect x="784.436" y="165.322" fill="#ADADAD" width="31.582" height="87.081"/>
			<rect x="784.436" y="259.37" fill="#ADADAD" width="31.582" height="52.249"/>
			<rect x="784.436" y="69.183" fill="#ADADAD" width="31.582" height="89.171"/>
			<text transform="matrix(1 0 0 1 677.084 280.7671)" fill="#BE1E2D" font-family="'BebasNeue'" font-size="20.3844">#noerapenal</text>
		</g>
	</g>
</g>
</svg>
