<?xml version="1.0" encoding="utf-8"?>
<!-- Generator: Adobe Illustrator 16.0.0, SVG Export Plug-In . SVG Version: 6.00 Build 0)  -->
<!DOCTYPE svg PUBLIC "-//W3C//DTD SVG 1.1//EN" "http://www.w3.org/Graphics/SVG/1.1/DTD/svg11.dtd">
<svg version="1.1" id="Layer_1" xmlns="http://www.w3.org/2000/svg" xmlns:xlink="http://www.w3.org/1999/xlink" x="0px" y="0px"
	 width="875px" height="475px" viewBox="0 0 875 475" enable-background="new 0 0 875 475" xml:space="preserve">
<g>
	<defs>
		<rect id="SVGID_1_" width="875" height="475"/>
	</defs>
	<clipPath id="SVGID_2_">
		<use xlink:href="#SVGID_1_"  overflow="visible"/>
	</clipPath>
	<g clip-path="url(#SVGID_2_)">
		<rect x="0.001" y="-24" fill="#63D5FF" width="874.999" height="502.813"/>
		<g>
			<path fill="#776537" d="M338.83,196.202c0,0-7.533,2.748-7.455,15.468c0.026,4.259,2.29,15.47-5.732,16.057
				c0,0,9.741,1.14,12.605-5.164c0,0-0.568,11.467-5.158,14.325c0,0,26.937,11.461,31.526-14.325l-2.294-37.828
				C362.322,184.735,345.697,177.857,338.83,196.202z"/>
			<path fill="#776537" d="M500.988,196.202c0,0,7.526,2.748,7.446,15.468c-0.022,4.259-2.287,15.47,5.74,16.057
				c0,0-9.748,1.14-12.61-5.164c0,0,0.568,11.467,5.157,14.325c0,0-26.937,11.461-31.526-14.325l2.301-37.828
				C477.496,184.735,494.116,177.857,500.988,196.202z"/>
			<g>
				<polygon fill="#B7B7B7" points="329.461,259.528 347.807,257.241 350.663,277.875 				"/>
				<polygon fill="#B7B7B7" points="510.291,259.528 491.95,257.241 489.082,277.875 				"/>
				<path fill="#F4B07D" d="M528.537,383.683H312.266c0,0,35.407-130.744,35.407-193.404c0-36.203,144.821-36.203,144.821,0
					C492.494,280.836,528.537,383.683,528.537,383.683z"/>
				<path fill="#776537" d="M338.854,196.707c0,0-7.512,2.745-7.438,15.45c0.028,4.257,2.29,15.452-5.723,16.026
					c0,0,9.729,1.144,12.589-5.151c0,0-0.57,11.448-5.149,14.308c0,0,26.896,11.444,31.476-14.308l-2.289-37.771
					C362.318,185.261,345.721,178.396,338.854,196.707z"/>
				<path fill="#776537" d="M500.77,196.707c0,0,7.515,2.745,7.441,15.45c-0.026,4.257-2.287,15.452,5.726,16.026
					c0,0-9.732,1.144-12.594-5.151c0,0,0.573,11.448,5.155,14.308c0,0-26.901,11.444-31.479-14.308l2.291-37.771
					C477.31,185.261,493.903,178.396,500.77,196.707z"/>
				<g>
					<polygon fill="#B7B7B7" points="329.506,259.943 347.818,257.651 350.68,278.254 					"/>
					<polygon fill="#B7B7B7" points="510.06,259.943 491.745,257.651 488.884,278.254 					"/>
					<path fill="#F4B07D" d="M528.275,383.904H312.342c0,0,35.348-130.543,35.348-193.104c0-36.149,144.604-36.146,144.604,0
						C492.294,281.214,528.275,383.904,528.275,383.904z"/>
					<g>
						<path fill="#776537" d="M421.484,67.668c0,0-28.076-39.344-80.127,0.598c-21.033,16.145-30.326,83.22,5.079,118.631
							l76.861-85.947L421.484,67.668z"/>
						<path fill="#776537" d="M421.762,67.668c0,0,28.078-39.344,80.129,0.598c21.029,16.149,30.324,83.22-5.081,118.631
							l-76.864-85.947L421.762,67.668z"/>
						<path fill="#F4B07D" d="M488.001,112.378c0,0-24.3-31.087-70.542-30.42c-46.057-0.667-65.402,30.42-65.402,30.42
							c-16.164,26.455-11.334,108.176-11.334,108.176c0,40.437,56.082,72.652,79.637,72.652c23.556,0,79.841-30.117,79.841-72.652
							C500.2,220.554,504.169,138.833,488.001,112.378z"/>
						<g>
							<path opacity="0.1" fill="#232222" d="M456.555,248.47c0,0-5.906,21.736-37.551,21.736c-31.26,0-37.551-21.736-37.551-21.736
								s11.438,16.017,38.888,16.017C420.341,264.487,438.627,266.398,456.555,248.47z"/>
						</g>
						<g opacity="0.2">
							<path fill="#231F20" d="M439.955,179.79c0.233,0.224,0.48,0.498,0.69,0.737c0.212,0.255,0.43,0.505,0.624,0.775
								c0.398,0.534,0.768,1.095,1.072,1.713c0.161,0.303,0.311,0.614,0.424,0.952c0.132,0.326,0.248,0.662,0.315,1.027
								c0.089,0.354,0.161,0.714,0.161,1.102c0.028,0.379,0.039,0.76-0.047,1.151c-0.057,0.391-0.115,0.78-0.291,1.139
								c-0.159,0.358-0.274,0.757-0.523,1.048c-0.229,0.306-0.447,0.638-0.702,0.91l-0.824,0.729
								c-0.271,0.266-0.579,0.41-0.875,0.599l-0.901,0.535l-1.858,0.777l-0.052,0.022l-0.174,0.031
								c-0.739,0.137-1.582,0.36-2.346,0.617c-0.775,0.262-1.525,0.578-2.221,0.949c-0.693,0.37-1.355,0.781-1.878,1.278
								c-0.549,0.51-0.861,0.962-1.364,1.798c-0.284,0.402-0.49,0.806-0.861,1.215l-0.521,0.607
								c-0.195,0.188-0.416,0.357-0.626,0.534c-0.411,0.382-0.891,0.616-1.365,0.867c-0.472,0.287-0.956,0.407-1.44,0.566
								l-0.727,0.228c-0.241,0.059-0.477,0.085-0.716,0.128l-1.431,0.23l-1.396,0.076l-0.699,0.034l-0.349,0.016l-0.175,0.008
								l-0.155-0.002l-0.082-0.004c-0.896-0.058-1.728-0.052-2.675-0.163c-0.98-0.155-1.966-0.26-2.919-0.61l-0.719-0.226
								c-0.237-0.104-0.472-0.23-0.707-0.346l-0.701-0.362c-0.226-0.14-0.436-0.317-0.651-0.478
								c-0.892-0.63-1.525-1.515-2.072-2.299l-0.363-0.569l-0.09-0.142l-0.046-0.071c-0.048-0.07,0.061,0.086,0.047,0.067
								l-0.006-0.008l-0.013-0.016l-0.024-0.034l-0.196-0.266l-0.195-0.267c-0.064-0.083-0.111-0.113-0.166-0.174
								c-0.119-0.108-0.18-0.214-0.335-0.335c-0.522-0.499-1.187-0.907-1.877-1.281c-0.695-0.372-1.445-0.688-2.221-0.95
								c-0.765-0.258-1.606-0.481-2.347-0.618l-0.173-0.032l-0.052-0.022l-1.857-0.777l-0.9-0.535
								c-0.297-0.189-0.605-0.333-0.876-0.599l-0.823-0.729c-0.256-0.272-0.474-0.604-0.702-0.91
								c-0.248-0.292-0.364-0.69-0.523-1.048c-0.176-0.358-0.235-0.748-0.292-1.138c-0.086-0.391-0.075-0.771-0.047-1.151
								c0-0.387,0.07-0.748,0.16-1.102c0.066-0.364,0.182-0.7,0.313-1.026c0.114-0.338,0.263-0.649,0.423-0.953
								c0.304-0.618,0.674-1.18,1.07-1.713c0.195-0.271,0.412-0.521,0.624-0.776c0.224-0.253,0.432-0.486,0.7-0.747
								c0.387-0.377,1.007-0.369,1.384,0.019c0.36,0.37,0.369,0.954,0.03,1.333l-0.029,0.032c-0.161,0.181-0.352,0.418-0.521,0.64
								c-0.165,0.23-0.34,0.458-0.488,0.698c-0.303,0.477-0.599,0.961-0.809,1.461c-0.117,0.248-0.223,0.498-0.29,0.75
								c-0.089,0.25-0.162,0.5-0.188,0.747c-0.052,0.248-0.09,0.493-0.068,0.726c-0.008,0.238-0.01,0.472,0.062,0.684
								c0.045,0.219,0.074,0.442,0.199,0.631c0.111,0.192,0.148,0.414,0.329,0.58c0.155,0.175,0.271,0.369,0.439,0.54l0.579,0.473
								c0.169,0.177,0.435,0.283,0.66,0.417l0.697,0.393l1.572,0.601l-0.225-0.053c0.999,0.153,1.87,0.365,2.787,0.64
								c0.902,0.275,1.795,0.616,2.668,1.049c0.869,0.438,1.723,0.962,2.495,1.667c0.37,0.335,0.876,0.872,1.077,1.176l0.198,0.265
								l0.102,0.142l0.044,0.068l0.089,0.136l0.354,0.542c0.466,0.643,0.884,1.224,1.454,1.599c0.14,0.098,0.264,0.214,0.412,0.305
								l0.48,0.231c0.16,0.077,0.312,0.163,0.479,0.236l0.547,0.158c0.71,0.265,1.491,0.325,2.25,0.455
								c0.801,0.093,1.739,0.084,2.603,0.133l2.425-0.094l1.183-0.181c0.194-0.033,0.399-0.051,0.587-0.094l0.534-0.168
								c0.354-0.113,0.737-0.193,1.018-0.381c0.306-0.161,0.633-0.297,0.864-0.532c0.127-0.106,0.264-0.199,0.389-0.312l0.34-0.396
								c0.237-0.234,0.445-0.622,0.675-0.934c0.4-0.676,1.095-1.692,1.869-2.357c0.772-0.705,1.626-1.228,2.495-1.667
								c0.873-0.432,1.766-0.773,2.669-1.048c0.917-0.274,1.788-0.485,2.787-0.638l-0.225,0.053l1.571-0.601l0.697-0.393
								c0.227-0.135,0.492-0.241,0.661-0.417l0.579-0.473c0.168-0.17,0.285-0.365,0.439-0.54c0.18-0.166,0.217-0.387,0.328-0.579
								c0.125-0.189,0.154-0.412,0.198-0.631c0.072-0.212,0.071-0.447,0.063-0.684c0.021-0.233-0.018-0.478-0.07-0.726
								c-0.025-0.247-0.1-0.497-0.188-0.747c-0.067-0.252-0.173-0.501-0.29-0.75c-0.211-0.501-0.507-0.984-0.81-1.462
								c-0.149-0.24-0.323-0.467-0.489-0.698c-0.183-0.235-0.334-0.433-0.531-0.649c-0.363-0.401-0.334-1.02,0.066-1.384
								C439.001,179.422,439.587,179.437,439.955,179.79z"/>
						</g>
						<path fill="#2E230E" d="M384.707,165.537c0,2.435-1.977,4.402-4.408,4.402s-4.408-1.967-4.408-4.402
							c0-2.437,1.977-4.412,4.408-4.412S384.707,163.1,384.707,165.537z"/>
						<path fill="#593B2E" d="M365.432,146.204c0,0,20-5.727,36.219,9.128c0,0,7.061-0.336,3.442-4.787
							C405.093,150.545,384.75,134.929,365.432,146.204z"/>
						<path fill="#2E230E" d="M452.963,164.825c0,2.434,1.975,4.402,4.405,4.402c2.443,0,4.415-1.968,4.415-4.402
							c0-2.439-1.972-4.413-4.415-4.413C454.938,160.412,452.963,162.386,452.963,164.825z"/>
						<path fill="#593B2E" d="M476.762,145.502c0,0-19.929-5.915-36.298,8.793c0,0-7.053-0.404-3.395-4.823
							C437.069,149.473,457.553,134.055,476.762,145.502z"/>
						<path fill="#F4B07D" d="M347.32,171.762c0,0-15.128-24.812-20.572-1.814c-1.684,7.083-1.821,45.394,19.965,21.19"/>
						
							<path fill="none" stroke="#C18963" stroke-width="2.4209" stroke-linecap="round" stroke-linejoin="round" stroke-miterlimit="10" d="
							M337.639,172.367c0,0-7.869,6.053,0,15.128"/>
						<path fill="#F4B07D" d="M491,171.762c0,0,15.137-24.812,20.584-1.814c1.68,7.083,1.811,45.394-19.969,21.19"/>
						
							<path fill="none" stroke="#C18963" stroke-width="2.4209" stroke-linecap="round" stroke-linejoin="round" stroke-miterlimit="10" d="
							M500.692,172.367c0,0,7.863,6.053,0,15.128"/>
						
							<path fill="none" stroke="#C18963" stroke-width="1.8368" stroke-linecap="round" stroke-linejoin="round" stroke-miterlimit="10" d="
							M433.321,223.678c0,0-14.904-9.616-29.005-0.569"/>
						<path fill="#776537" d="M338.33,85.821c0,0-8.886,53.068-7.675,53.47c1.206,0.404,42.777-21.594,42.777-21.594l48.222-16.747
							l71.616,21.992l14.531-6.048l-7.671-37.932l-69.812-7.26l-54.867,6.047L338.33,85.821z"/>
						<path opacity="0.3" fill="#231F20" d="M421.241,100.95c0,0,29.058,67.383,93.612,32.887c0,0-18.56-10.038-21.583-22.744"/>
						<path opacity="0.3" fill="#231F20" d="M420.83,100.441c0,0-17.471,50.895-81.099,33.861c0,0,14.591-7.015,19.979-19.054"/>
						<path fill="#776537" d="M421.654,100.95c0,0,27.237,58.309,88.562,32.083c0,0-13.923-10.292-16.946-23"/>
						<path fill="#776537" d="M420.83,100.441c0,0-22.246,41.229-74.707,32.421c0,0,11.464-9.626,13.396-20.755"/>
						<path fill="#776537" d="M396.43,52.334c0,0,9.764-3.46,6.455-17.759c0,0,10.9,10.487,10.9,20.984
							c0,0,4.437-21.789,13.717-25.018c0,0-3.38,28.632,24.85,20.237l-5.079,11.642l-20.177,24.606l-37.118-6.859L396.43,52.334z"/>
					</g>
				</g>
			</g>
			
				<path fill="none" stroke="#F4B07D" stroke-width="44.2918" stroke-linecap="round" stroke-linejoin="round" stroke-miterlimit="10" d="
				M342.697,298.51c0,0-84.666,61.424-91.986,127.262c-7.549,68.039-3.773,84.419-3.773,120.457"/>
			<path fill="none" stroke="#282828" stroke-width="45.3574" stroke-linejoin="round" stroke-miterlimit="10" d="M342.697,298.51
				c0,0-84.666,61.424-91.986,127.262c-7.549,68.039-3.773,84.419-3.773,120.457"/>
			
				<path fill="none" stroke="#F4B07D" stroke-width="44.2918" stroke-linecap="round" stroke-linejoin="round" stroke-miterlimit="10" d="
				M499.233,299.611c0,0,84.663,61.431,91.983,127.264c7.551,68.031,3.782,84.409,3.782,120.449"/>
			<path fill="none" stroke="#282828" stroke-width="45.3574" stroke-linejoin="round" stroke-miterlimit="10" d="M499.233,299.611
				c0,0,84.663,61.431,91.983,127.264c7.551,68.031,3.782,84.409,3.782,120.449"/>
			<path fill="#F4B07D" d="M336.915,289.458c-12.896,55.038-37.806,50.607-37.806,143.643c0,114.515,0,93.937,0,96.843
				c0,0.209,12.599,0.306,12.599,0.306h108.751V289.458H336.915z"/>
			<path fill="#F4B07D" d="M499.832,289.458c12.893,55.038,37.799,50.607,37.799,143.643c0,114.515,0,93.937,0,96.843
				c0,0.209-12.6,0.306-12.6,0.306H416.287V289.458H499.832z"/>
			<rect x="335.887" y="286.753" fill="#FFFFFF" width="163.35" height="236.435"/>
			<path fill="#282828" d="M284.186,467.516c0,0-0.963,57.117-4.921,83.276c0,0,7.631,3.451,26.856,3.451
				c0,0,39.028,4.602,43.251-0.391l-1.148-57.281L284.186,467.516z"/>
			<path fill="#282828" d="M348.51,279.471v245.92h-61.786c0,0-18.908-179.392,43.142-245.92H348.51z"/>
			<path fill="#282828" d="M558.148,474.381c0,0,0,58.464,6.021,77.947c0,0-14.246,3.825-33.479,3.825
				c0,0-35.951,2.691-40.185-2.302l1.156-57.281L558.148,474.381z"/>
			<path fill="#282828" d="M491.375,279.471v245.92h66.369c0,0,11.168-203.843-47.724-245.92H491.375z"/>
			<polygon fill="#2D2D2D" points="347.391,279.357 314.145,322.808 345.414,325.121 314.145,364.614 347.391,485.96 			"/>
			<polygon fill="#2D2D2D" points="491.156,279.357 524.406,322.808 493.137,325.121 524.406,364.614 491.156,485.96 			"/>
			<g>
				<g>
					<polygon fill="#EA94C7" points="394.667,287.783 419.064,312.175 444.331,287.783 419.639,281.383 					"/>
					<path fill="#EA94C7" d="M427.562,301.745l-7.641-7.764v-0.851l-0.422,0.415l-0.423-0.415l-0.044,0.906l-7.605,7.708
						L393.59,471.598c0,0,19.594,44.167,26.332,44.167c8.548,0,25.485-44.167,25.485-44.167L427.562,301.745z"/>
				</g>
				<polygon fill="#D6D6D6" points="336.338,261.824 420.459,281.383 394.417,309.205 329.461,279.398 329.461,259.528 				"/>
				<polygon fill="#D6D6D6" points="503.748,261.824 419.639,281.383 445.666,309.205 510.626,279.398 510.626,259.528 				"/>
			</g>
			<g>
				<path fill="#F4B07D" d="M477.393,254.677c0,0-9.172,30.853-58.298,30.853c-48.53,0-58.291-30.853-58.291-30.853
					s17.747,22.726,60.358,22.726C421.162,277.403,449.563,280.121,477.393,254.677z"/>
			</g>
		</g>
	</g>
</g>
</svg>
