<?xml version="1.0" encoding="utf-8"?>
<!-- Generator: Adobe Illustrator 16.0.0, SVG Export Plug-In . SVG Version: 6.00 Build 0)  -->
<!DOCTYPE svg PUBLIC "-//W3C//DTD SVG 1.1//EN" "http://www.w3.org/Graphics/SVG/1.1/DTD/svg11.dtd">
<svg version="1.1" id="Layer_1" xmlns="http://www.w3.org/2000/svg" xmlns:xlink="http://www.w3.org/1999/xlink" x="0px" y="0px"
	 width="875px" height="475px" viewBox="0 0 875 475" enable-background="new 0 0 875 475" xml:space="preserve">
<g>
	<defs>
		<rect id="SVGID_1_" width="875" height="475"/>
	</defs>
	<clipPath id="SVGID_2_">
		<use xlink:href="#SVGID_1_"  overflow="visible"/>
	</clipPath>
	<g clip-path="url(#SVGID_2_)">
		<rect x="-8.999" y="-6.5" fill="#94D7F2" width="926.999" height="471.814"/>
		<g>
			<g>
				<polygon fill="#8C8C8C" points="-472.92,156.105 1349.117,159.139 1346.287,94.028 -468.07,94.568 				"/>
				<g>
					<g>
						<path fill="#8C8C8C" d="M872.254,88.41c0-21.6,13.63-39.106,30.442-39.106c16.804,0,30.433,17.507,30.433,39.106
							c0,3.116-0.297,6.146-0.834,9.05h-59.21C872.551,94.556,872.254,91.526,872.254,88.41z"/>
					</g>
					<g>
						<path fill="#8C8C8C" d="M817.44,88.41c0-21.6,13.629-39.106,30.441-39.106c16.804,0,30.433,17.507,30.433,39.106
							c0,3.116-0.297,6.146-0.833,9.05h-59.21C817.736,94.556,817.44,91.526,817.44,88.41z"/>
						<path fill="#8C8C8C" d="M830.409,34.538c0,9.648,7.824,17.468,17.473,17.468c9.638,0,17.458-7.819,17.458-17.468
							c0-9.646-7.82-17.465-17.458-17.465C838.233,17.073,830.409,24.893,830.409,34.538z"/>
					</g>
					<g>
						<path fill="#8C8C8C" d="M762.627,88.41c0-21.6,13.628-39.106,30.44-39.106c16.804,0,30.433,17.507,30.433,39.106
							c0,3.116-0.296,6.146-0.833,9.05h-59.21C762.922,94.556,762.627,91.526,762.627,88.41z"/>
						<path fill="#8C8C8C" d="M775.596,34.538c0,9.648,7.823,17.468,17.472,17.468c9.638,0,17.458-7.819,17.458-17.468
							c0-9.646-7.82-17.465-17.458-17.465C783.419,17.073,775.596,24.893,775.596,34.538z"/>
					</g>
					<g>
						<path fill="#8C8C8C" d="M707.812,88.41c0-21.6,13.628-39.106,30.44-39.106c16.805,0,30.433,17.507,30.433,39.106
							c0,3.116-0.296,6.146-0.832,9.05h-59.21C708.107,94.556,707.812,91.526,707.812,88.41z"/>
						<path fill="#8C8C8C" d="M720.78,34.538c0,9.648,7.823,17.468,17.472,17.468c9.639,0,17.459-7.819,17.459-17.468
							c0-9.646-7.82-17.466-17.459-17.466C728.604,17.072,720.78,24.893,720.78,34.538z"/>
					</g>
					<g>
						<path fill="#8C8C8C" d="M652.996,88.41c0-21.6,13.629-39.107,30.441-39.107c16.805,0,30.432,17.507,30.432,39.107
							c0,3.115-0.295,6.146-0.832,9.05h-59.209C653.292,94.556,652.996,91.525,652.996,88.41z"/>
						<path fill="#8C8C8C" d="M665.966,34.538c0,9.648,7.823,17.467,17.472,17.467c9.639,0,17.458-7.819,17.458-17.467
							c0-9.646-7.819-17.465-17.458-17.465C673.789,17.072,665.966,24.892,665.966,34.538z"/>
					</g>
					<g>
						<path fill="#8C8C8C" d="M598.183,88.41c0-21.6,13.628-39.107,30.44-39.107c16.805,0,30.432,17.507,30.432,39.107
							c0,3.115-0.295,6.145-0.832,9.05h-59.209C598.478,94.555,598.183,91.525,598.183,88.41z"/>
						<path fill="#8C8C8C" d="M611.151,34.538c0,9.648,7.823,17.467,17.472,17.467c9.639,0,17.459-7.819,17.459-17.467
							c0-9.646-7.82-17.465-17.459-17.465C618.975,17.072,611.151,24.892,611.151,34.538z"/>
					</g>
					<g>
						<path fill="#8C8C8C" d="M543.368,88.41c0-21.6,13.628-39.107,30.441-39.107c16.804,0,30.431,17.507,30.431,39.107
							c0,3.115-0.295,6.145-0.832,9.05h-59.209C543.664,94.555,543.368,91.525,543.368,88.41z"/>
						<path fill="#8C8C8C" d="M556.337,34.538c0,9.648,7.823,17.467,17.473,17.467c9.639,0,17.457-7.819,17.457-17.467
							c0-9.646-7.818-17.465-17.457-17.465C564.16,17.072,556.337,24.892,556.337,34.538z"/>
					</g>
					<g>
						<path fill="#8C8C8C" d="M488.554,88.41c0-21.601,13.628-39.107,30.44-39.107c16.805,0,30.432,17.507,30.432,39.107
							c0,3.114-0.295,6.145-0.832,9.05h-59.209C488.849,94.555,488.554,91.524,488.554,88.41z"/>
						<path fill="#8C8C8C" d="M501.521,34.538c0,9.648,7.824,17.467,17.473,17.467c9.639,0,17.457-7.819,17.457-17.467
							c0-9.646-7.818-17.465-17.457-17.465C509.346,17.072,501.521,24.892,501.521,34.538z"/>
					</g>
					<g>
						<path fill="#8C8C8C" d="M433.738,88.41c0-21.601,13.627-39.107,30.441-39.107c16.805,0,30.431,17.507,30.431,39.107
							c0,3.114-0.295,6.145-0.831,9.05H434.57C434.033,94.555,433.738,91.524,433.738,88.41z"/>
						<path fill="#8C8C8C" d="M446.707,34.538c0,9.648,7.823,17.467,17.473,17.467c9.639,0,17.457-7.819,17.457-17.467
							c0-9.646-7.818-17.465-17.457-17.465C454.53,17.072,446.707,24.891,446.707,34.538z"/>
					</g>
					<g>
						<path fill="#8C8C8C" d="M378.924,88.41c0-21.601,13.628-39.107,30.441-39.107c16.805,0,30.431,17.507,30.431,39.107
							c0,3.114-0.294,6.145-0.831,9.05h-59.209C379.219,94.555,378.924,91.524,378.924,88.41z"/>
						<path fill="#8C8C8C" d="M391.893,34.538c0,9.648,7.823,17.467,17.473,17.467c9.639,0,17.457-7.819,17.457-17.467
							c0-9.646-7.818-17.465-17.457-17.465C399.716,17.072,391.893,24.891,391.893,34.538z"/>
					</g>
					<g>
						<path fill="#8C8C8C" d="M324.109,88.41c0-21.601,13.627-39.107,30.441-39.107c16.805,0,30.43,17.507,30.43,39.107
							c0,3.114-0.293,6.145-0.83,9.05h-59.209C324.404,94.555,324.109,91.524,324.109,88.41z"/>
						<path fill="#8C8C8C" d="M337.078,34.538c0,9.648,7.822,17.467,17.473,17.467c9.639,0,17.457-7.819,17.457-17.467
							c0-9.646-7.818-17.466-17.457-17.466C344.9,17.071,337.078,24.891,337.078,34.538z"/>
					</g>
					<g>
						<path fill="#8C8C8C" d="M269.295,88.41c0-21.601,13.627-39.107,30.441-39.107c16.804,0,30.43,17.507,30.43,39.107
							c0,3.114-0.294,6.145-0.83,9.05h-59.209C269.59,94.555,269.295,91.524,269.295,88.41z"/>
						<path fill="#8C8C8C" d="M282.264,34.538c0,9.648,7.822,17.467,17.473,17.467c9.639,0,17.457-7.819,17.457-17.467
							c0-9.646-7.818-17.466-17.457-17.466C290.086,17.071,282.264,24.891,282.264,34.538z"/>
					</g>
					<g>
						<path fill="#8C8C8C" d="M214.48,88.41c0-21.601,13.627-39.107,30.441-39.107c16.805,0,30.43,17.507,30.43,39.107
							c0,3.114-0.294,6.145-0.83,9.05h-59.209C214.775,94.555,214.48,91.524,214.48,88.41z"/>
						<path fill="#8C8C8C" d="M227.449,34.536c0,9.649,7.822,17.469,17.473,17.469c9.639,0,17.457-7.82,17.457-17.469
							c0-9.645-7.818-17.465-17.457-17.465C235.271,17.071,227.449,24.891,227.449,34.536z"/>
					</g>
					<g>
						<path fill="#8C8C8C" d="M159.666,88.41c0-21.601,13.627-39.107,30.441-39.107c16.804,0,30.43,17.507,30.43,39.107
							c0,3.114-0.294,6.145-0.83,9.05h-59.209C159.961,94.555,159.666,91.524,159.666,88.41z"/>
						<path fill="#8C8C8C" d="M172.634,34.536c0,9.649,7.823,17.469,17.474,17.469c9.639,0,17.457-7.82,17.457-17.469
							c0-9.645-7.818-17.465-17.457-17.465C180.457,17.071,172.634,24.891,172.634,34.536z"/>
					</g>
					<g>
						<path fill="#8C8C8C" d="M104.852,88.41c0-21.602,13.627-39.108,30.44-39.108c16.805,0,30.43,17.506,30.43,39.108
							c0,3.114-0.294,6.146-0.829,9.05h-59.209C105.146,94.555,104.852,91.523,104.852,88.41z"/>
						<path fill="#8C8C8C" d="M117.819,34.536c0,9.648,7.822,17.468,17.473,17.468c9.64,0,17.457-7.82,17.457-17.468
							c0-9.645-7.817-17.465-17.457-17.465C125.642,17.071,117.819,24.891,117.819,34.536z"/>
					</g>
					<g>
						<path fill="#8C8C8C" d="M50.037,88.41c0-21.602,13.627-39.108,30.441-39.108c16.804,0,30.429,17.506,30.429,39.108
							c0,3.114-0.294,6.146-0.83,9.05H50.869C50.332,94.555,50.037,91.523,50.037,88.41z"/>
						<path fill="#8C8C8C" d="M63.005,34.536c0,9.648,7.822,17.468,17.474,17.468c9.639,0,17.456-7.82,17.456-17.468
							c0-9.645-7.817-17.465-17.456-17.465C70.827,17.071,63.005,24.891,63.005,34.536z"/>
					</g>
					<g>
						<path fill="#8C8C8C" d="M-4.777,88.41c0-21.602,13.626-39.108,30.44-39.108c16.805,0,30.429,17.506,30.429,39.108
							c0,3.114-0.293,6.146-0.829,9.05H-3.945C-4.482,94.555-4.777,91.523-4.777,88.41z"/>
						<path fill="#8C8C8C" d="M8.19,34.536c0,9.648,7.821,17.468,17.473,17.468c9.64,0,17.457-7.82,17.457-17.468
							c0-9.645-7.817-17.465-17.457-17.465C16.012,17.071,8.19,24.892,8.19,34.536z"/>
					</g>
					<g>
						<path fill="#8C8C8C" d="M-59.592,88.41c0-21.602,13.626-39.108,30.44-39.108c16.805,0,30.429,17.506,30.429,39.108
							c0,3.114-0.293,6.145-0.829,9.05H-58.76C-59.298,94.555-59.592,91.523-59.592,88.41z"/>
					</g>
				</g>
			</g>
			<g>
				<polygon fill="#B7B7B7" points="-469.885,222.876 1349.117,220.853 1346.287,154.73 -465.035,155.269 				"/>
				<g>
					<g>
						<path fill="#B7B7B7" d="M872.254,149.111c0-21.599,13.63-39.106,30.442-39.106c16.804,0,30.433,17.507,30.433,39.106
							c0,3.116-0.297,6.147-0.834,9.049h-59.21C872.551,155.258,872.254,152.227,872.254,149.111z"/>
					</g>
					<g>
						<path fill="#B7B7B7" d="M817.44,149.111c0-21.6,13.629-39.106,30.441-39.106c16.804,0,30.433,17.506,30.433,39.106
							c0,3.116-0.297,6.147-0.833,9.049h-59.21C817.736,155.258,817.44,152.227,817.44,149.111z"/>
						<path fill="#B7B7B7" d="M830.409,95.239c0,9.648,7.824,17.468,17.473,17.468c9.638,0,17.458-7.82,17.458-17.468
							c0-9.646-7.82-17.465-17.458-17.465C838.233,77.774,830.409,85.593,830.409,95.239z"/>
					</g>
					<g>
						<path fill="#B7B7B7" d="M762.627,149.111c0-21.6,13.628-39.106,30.44-39.106c16.804,0,30.433,17.506,30.433,39.106
							c0,3.116-0.296,6.147-0.833,9.049h-59.21C762.922,155.258,762.627,152.227,762.627,149.111z"/>
						<path fill="#B7B7B7" d="M775.596,95.239c0,9.648,7.823,17.468,17.472,17.468c9.638,0,17.458-7.82,17.458-17.468
							c0-9.646-7.82-17.465-17.458-17.465C783.419,77.774,775.596,85.593,775.596,95.239z"/>
					</g>
					<g>
						<path fill="#B7B7B7" d="M707.812,149.111c0-21.6,13.628-39.106,30.44-39.106c16.805,0,30.433,17.506,30.433,39.106
							c0,3.116-0.296,6.147-0.832,9.049h-59.21C708.107,155.258,707.812,152.227,707.812,149.111z"/>
						<path fill="#B7B7B7" d="M720.78,95.239c0,9.648,7.823,17.468,17.472,17.468c9.639,0,17.459-7.82,17.459-17.468
							c0-9.646-7.82-17.465-17.459-17.465C728.604,77.774,720.78,85.593,720.78,95.239z"/>
					</g>
					<g>
						<path fill="#B7B7B7" d="M652.996,149.111c0-21.6,13.629-39.106,30.441-39.106c16.805,0,30.432,17.506,30.432,39.106
							c0,3.115-0.295,6.147-0.832,9.049h-59.209C653.292,155.258,652.996,152.226,652.996,149.111z"/>
						<path fill="#B7B7B7" d="M665.966,95.239c0,9.647,7.823,17.467,17.472,17.467c9.639,0,17.458-7.82,17.458-17.467
							c0-9.646-7.819-17.466-17.458-17.466C673.789,77.773,665.966,85.592,665.966,95.239z"/>
					</g>
					<g>
						<path fill="#B7B7B7" d="M598.183,149.111c0-21.6,13.628-39.106,30.44-39.106c16.805,0,30.432,17.506,30.432,39.106
							c0,3.115-0.295,6.146-0.832,9.049h-59.209C598.478,155.257,598.183,152.226,598.183,149.111z"/>
						<path fill="#B7B7B7" d="M611.151,95.238c0,9.648,7.823,17.468,17.472,17.468c9.639,0,17.459-7.82,17.459-17.468
							c0-9.646-7.82-17.465-17.459-17.465C618.975,77.773,611.151,85.592,611.151,95.238z"/>
					</g>
					<g>
						<path fill="#B7B7B7" d="M543.368,149.111c0-21.6,13.628-39.106,30.441-39.106c16.804,0,30.431,17.506,30.431,39.106
							c0,3.115-0.295,6.146-0.832,9.049h-59.209C543.664,155.257,543.368,152.226,543.368,149.111z"/>
						<path fill="#B7B7B7" d="M556.337,95.238c0,9.648,7.823,17.468,17.473,17.468c9.639,0,17.457-7.82,17.457-17.468
							c0-9.646-7.818-17.465-17.457-17.465C564.16,77.773,556.337,85.592,556.337,95.238z"/>
					</g>
					<g>
						<path fill="#B7B7B7" d="M488.554,149.111c0-21.6,13.628-39.106,30.44-39.106c16.805,0,30.432,17.506,30.432,39.106
							c0,3.115-0.295,6.146-0.832,9.049h-59.209C488.849,155.257,488.554,152.226,488.554,149.111z"/>
						<path fill="#B7B7B7" d="M501.521,95.238c0,9.648,7.824,17.468,17.473,17.468c9.639,0,17.457-7.82,17.457-17.468
							c0-9.646-7.818-17.465-17.457-17.465C509.346,77.772,501.521,85.592,501.521,95.238z"/>
					</g>
					<g>
						<path fill="#B7B7B7" d="M433.738,149.11c0-21.6,13.627-39.106,30.441-39.106c16.805,0,30.431,17.506,30.431,39.106
							c0,3.115-0.295,6.146-0.831,9.05H434.57C434.033,155.257,433.738,152.226,433.738,149.11z"/>
						<path fill="#B7B7B7" d="M446.707,95.237c0,9.648,7.823,17.469,17.473,17.469c9.639,0,17.457-7.82,17.457-17.469
							c0-9.645-7.818-17.465-17.457-17.465C454.53,77.772,446.707,85.592,446.707,95.237z"/>
					</g>
					<g>
						<path fill="#B7B7B7" d="M378.924,149.11c0-21.6,13.628-39.106,30.441-39.106c16.805,0,30.431,17.506,30.431,39.106
							c0,3.115-0.294,6.146-0.831,9.05h-59.209C379.219,155.257,378.924,152.226,378.924,149.11z"/>
						<path fill="#B7B7B7" d="M391.893,95.237c0,9.648,7.823,17.469,17.473,17.469c9.639,0,17.457-7.82,17.457-17.469
							c0-9.645-7.818-17.465-17.457-17.465C399.716,77.772,391.893,85.592,391.893,95.237z"/>
					</g>
					<g>
						<path fill="#B7B7B7" d="M324.109,149.11c0-21.6,13.627-39.106,30.441-39.106c16.805,0,30.43,17.506,30.43,39.106
							c0,3.115-0.293,6.146-0.83,9.05h-59.209C324.404,155.257,324.109,152.226,324.109,149.11z"/>
						<path fill="#B7B7B7" d="M337.078,95.237c0,9.648,7.822,17.469,17.473,17.469c9.639,0,17.457-7.821,17.457-17.469
							c0-9.645-7.818-17.465-17.457-17.465C344.9,77.772,337.078,85.592,337.078,95.237z"/>
					</g>
					<g>
						<path fill="#B7B7B7" d="M269.295,149.11c0-21.6,13.627-39.106,30.441-39.106c16.804,0,30.43,17.506,30.43,39.106
							c0,3.115-0.294,6.146-0.83,9.05h-59.209C269.59,155.257,269.295,152.226,269.295,149.11z"/>
						<path fill="#B7B7B7" d="M282.264,95.237c0,9.648,7.822,17.469,17.473,17.469c9.639,0,17.457-7.821,17.457-17.469
							c0-9.645-7.818-17.465-17.457-17.465C290.086,77.772,282.264,85.592,282.264,95.237z"/>
					</g>
					<g>
						<path fill="#B7B7B7" d="M214.48,149.11c0-21.6,13.627-39.107,30.441-39.107c16.805,0,30.43,17.507,30.43,39.107
							c0,3.115-0.294,6.146-0.83,9.05h-59.209C214.775,155.257,214.48,152.226,214.48,149.11z"/>
						<path fill="#B7B7B7" d="M227.449,95.237c0,9.648,7.822,17.469,17.473,17.469c9.639,0,17.457-7.821,17.457-17.469
							c0-9.645-7.818-17.465-17.457-17.465C235.271,77.772,227.449,85.592,227.449,95.237z"/>
					</g>
					<g>
						<path fill="#B7B7B7" d="M159.666,149.11c0-21.601,13.627-39.107,30.441-39.107c16.804,0,30.43,17.506,30.43,39.107
							c0,3.115-0.294,6.146-0.83,9.05h-59.209C159.961,155.257,159.666,152.226,159.666,149.11z"/>
						<path fill="#B7B7B7" d="M172.634,95.237c0,9.647,7.823,17.469,17.474,17.469c9.639,0,17.457-7.821,17.457-17.469
							c0-9.645-7.818-17.465-17.457-17.465C180.457,77.772,172.634,85.592,172.634,95.237z"/>
					</g>
					<g>
						<path fill="#B7B7B7" d="M104.852,149.11c0-21.601,13.627-39.107,30.44-39.107c16.805,0,30.43,17.507,30.43,39.107
							c0,3.114-0.294,6.146-0.829,9.049h-59.209C105.146,155.256,104.852,152.224,104.852,149.11z"/>
						<path fill="#B7B7B7" d="M117.819,95.237c0,9.648,7.822,17.469,17.473,17.469c9.64,0,17.457-7.821,17.457-17.469
							c0-9.646-7.817-17.465-17.457-17.465C125.642,77.772,117.819,85.591,117.819,95.237z"/>
					</g>
					<g>
						<path fill="#B7B7B7" d="M50.037,149.11c0-21.601,13.627-39.107,30.441-39.107c16.804,0,30.429,17.507,30.429,39.107
							c0,3.114-0.294,6.146-0.83,9.049H50.869C50.332,155.256,50.037,152.224,50.037,149.11z"/>
						<path fill="#B7B7B7" d="M63.005,95.237c0,9.648,7.822,17.469,17.474,17.469c9.639,0,17.456-7.821,17.456-17.469
							c0-9.646-7.817-17.465-17.456-17.465C70.827,77.772,63.005,85.591,63.005,95.237z"/>
					</g>
					<g>
						<path fill="#B7B7B7" d="M-4.777,149.11c0-21.601,13.626-39.107,30.44-39.107c16.805,0,30.429,17.507,30.429,39.107
							c0,3.114-0.293,6.146-0.829,9.049H-3.945C-4.482,155.256-4.777,152.224-4.777,149.11z"/>
						<path fill="#B7B7B7" d="M8.19,95.237c0,9.648,7.821,17.469,17.473,17.469c9.64,0,17.457-7.821,17.457-17.469
							c0-9.646-7.817-17.465-17.457-17.465C16.012,77.772,8.19,85.591,8.19,95.237z"/>
					</g>
					<g>
						<path fill="#B7B7B7" d="M-59.592,149.11c0-21.601,13.626-39.107,30.44-39.107c16.805,0,30.429,17.507,30.429,39.107
							c0,3.114-0.293,6.146-0.829,9.049H-58.76C-59.298,155.256-59.592,152.224-59.592,149.11z"/>
					</g>
				</g>
			</g>
			<g>
				<polygon fill="#D1D1D1" points="-465.838,264.41 1349.117,264.41 1346.287,215.429 -469.885,215.969 				"/>
				<g>
					<g>
						<path fill="#D1D1D1" d="M872.254,209.812c0-21.6,13.63-39.106,30.442-39.106c16.804,0,30.433,17.507,30.433,39.106
							c0,3.115-0.297,6.147-0.834,9.049h-59.21C872.551,215.959,872.254,212.927,872.254,209.812z"/>
					</g>
					<g>
						<path fill="#D1D1D1" d="M817.44,209.812c0-21.6,13.629-39.106,30.441-39.106c16.804,0,30.433,17.507,30.433,39.106
							c0,3.115-0.297,6.147-0.833,9.049h-59.21C817.736,215.959,817.44,212.927,817.44,209.812z"/>
						<path fill="#D1D1D1" d="M830.409,155.939c0,9.649,7.824,17.468,17.473,17.468c9.638,0,17.458-7.819,17.458-17.468
							c0-9.646-7.82-17.465-17.458-17.465C838.233,138.474,830.409,146.294,830.409,155.939z"/>
					</g>
					<g>
						<path fill="#D1D1D1" d="M762.627,209.812c0-21.6,13.628-39.106,30.44-39.106c16.804,0,30.433,17.507,30.433,39.106
							c0,3.115-0.296,6.147-0.833,9.049h-59.21C762.922,215.959,762.627,212.927,762.627,209.812z"/>
						<path fill="#D1D1D1" d="M775.596,155.939c0,9.649,7.823,17.468,17.472,17.468c9.638,0,17.458-7.819,17.458-17.468
							c0-9.646-7.82-17.465-17.458-17.465C783.419,138.474,775.596,146.294,775.596,155.939z"/>
					</g>
					<g>
						<path fill="#D1D1D1" d="M707.812,209.812c0-21.6,13.628-39.106,30.44-39.106c16.805,0,30.433,17.507,30.433,39.106
							c0,3.115-0.296,6.147-0.832,9.049h-59.21C708.107,215.959,707.812,212.927,707.812,209.812z"/>
						<path fill="#D1D1D1" d="M720.78,155.939c0,9.649,7.823,17.468,17.472,17.468c9.639,0,17.459-7.819,17.459-17.468
							c0-9.646-7.82-17.465-17.459-17.465C728.604,138.474,720.78,146.294,720.78,155.939z"/>
					</g>
					<g>
						<path fill="#D1D1D1" d="M652.996,209.812c0-21.6,13.629-39.107,30.441-39.107c16.805,0,30.432,17.507,30.432,39.107
							c0,3.114-0.295,6.146-0.832,9.049h-59.209C653.292,215.958,652.996,212.927,652.996,209.812z"/>
						<path fill="#D1D1D1" d="M665.966,155.939c0,9.649,7.823,17.468,17.472,17.468c9.639,0,17.458-7.819,17.458-17.468
							c0-9.646-7.819-17.465-17.458-17.465C673.789,138.474,665.966,146.293,665.966,155.939z"/>
					</g>
					<g>
						<path fill="#D1D1D1" d="M598.183,209.812c0-21.6,13.628-39.107,30.44-39.107c16.805,0,30.432,17.507,30.432,39.107
							c0,3.114-0.295,6.146-0.832,9.049h-59.209C598.478,215.958,598.183,212.927,598.183,209.812z"/>
						<path fill="#D1D1D1" d="M611.151,155.939c0,9.648,7.823,17.468,17.472,17.468c9.639,0,17.459-7.82,17.459-17.468
							c0-9.646-7.82-17.466-17.459-17.466C618.975,138.473,611.151,146.293,611.151,155.939z"/>
					</g>
					<g>
						<path fill="#D1D1D1" d="M543.368,209.812c0-21.6,13.628-39.107,30.441-39.107c16.804,0,30.431,17.507,30.431,39.107
							c0,3.114-0.295,6.146-0.832,9.049h-59.209C543.664,215.958,543.368,212.927,543.368,209.812z"/>
						<path fill="#D1D1D1" d="M556.337,155.939c0,9.648,7.823,17.468,17.473,17.468c9.639,0,17.457-7.82,17.457-17.468
							c0-9.646-7.818-17.466-17.457-17.466C564.16,138.473,556.337,146.293,556.337,155.939z"/>
					</g>
					<g>
						<path fill="#D1D1D1" d="M488.554,209.812c0-21.6,13.628-39.106,30.44-39.106c16.805,0,30.432,17.506,30.432,39.106
							c0,3.115-0.295,6.146-0.832,9.049h-59.209C488.849,215.958,488.554,212.927,488.554,209.812z"/>
						<path fill="#D1D1D1" d="M501.521,155.939c0,9.648,7.824,17.468,17.473,17.468c9.639,0,17.457-7.82,17.457-17.468
							c0-9.646-7.818-17.466-17.457-17.466C509.346,138.473,501.521,146.293,501.521,155.939z"/>
					</g>
					<g>
						<path fill="#D1D1D1" d="M433.738,209.812c0-21.6,13.627-39.106,30.441-39.106c16.805,0,30.431,17.506,30.431,39.106
							c0,3.115-0.295,6.146-0.831,9.049H434.57C434.033,215.958,433.738,212.927,433.738,209.812z"/>
						<path fill="#D1D1D1" d="M446.707,155.938c0,9.648,7.823,17.469,17.473,17.469c9.639,0,17.457-7.82,17.457-17.469
							c0-9.646-7.818-17.465-17.457-17.465C454.53,138.473,446.707,146.293,446.707,155.938z"/>
					</g>
					<g>
						<path fill="#D1D1D1" d="M378.924,209.812c0-21.6,13.628-39.106,30.441-39.106c16.805,0,30.431,17.506,30.431,39.106
							c0,3.115-0.294,6.146-0.831,9.049h-59.209C379.219,215.958,378.924,212.927,378.924,209.812z"/>
						<path fill="#D1D1D1" d="M391.893,155.938c0,9.648,7.823,17.469,17.473,17.469c9.639,0,17.457-7.82,17.457-17.469
							c0-9.646-7.818-17.465-17.457-17.465C399.716,138.473,391.893,146.293,391.893,155.938z"/>
					</g>
					<g>
						<path fill="#D1D1D1" d="M324.109,209.812c0-21.6,13.627-39.106,30.441-39.106c16.805,0,30.43,17.506,30.43,39.106
							c0,3.115-0.293,6.146-0.83,9.049h-59.209C324.404,215.958,324.109,212.927,324.109,209.812z"/>
						<path fill="#D1D1D1" d="M337.078,155.938c0,9.648,7.822,17.469,17.473,17.469c9.639,0,17.457-7.82,17.457-17.469
							c0-9.646-7.818-17.465-17.457-17.465C344.9,138.473,337.078,146.293,337.078,155.938z"/>
					</g>
					<g>
						<path fill="#D1D1D1" d="M269.295,209.812c0-21.6,13.627-39.107,30.441-39.107c16.804,0,30.43,17.507,30.43,39.107
							c0,3.115-0.294,6.146-0.83,9.05h-59.209C269.59,215.958,269.295,212.927,269.295,209.812z"/>
						<path fill="#D1D1D1" d="M282.264,155.938c0,9.648,7.822,17.469,17.473,17.469c9.639,0,17.457-7.82,17.457-17.469
							c0-9.646-7.818-17.465-17.457-17.465C290.086,138.473,282.264,146.293,282.264,155.938z"/>
					</g>
					<g>
						<path fill="#D1D1D1" d="M214.48,209.812c0-21.6,13.627-39.107,30.441-39.107c16.805,0,30.43,17.507,30.43,39.107
							c0,3.115-0.294,6.146-0.83,9.05h-59.209C214.775,215.958,214.48,212.927,214.48,209.812z"/>
						<path fill="#D1D1D1" d="M227.449,155.938c0,9.648,7.822,17.469,17.473,17.469c9.639,0,17.457-7.82,17.457-17.469
							c0-9.646-7.818-17.466-17.457-17.466C235.271,138.472,227.449,146.293,227.449,155.938z"/>
					</g>
					<g>
						<path fill="#D1D1D1" d="M159.666,209.812c0-21.6,13.627-39.107,30.441-39.107c16.804,0,30.43,17.507,30.43,39.107
							c0,3.114-0.294,6.146-0.83,9.05h-59.209C159.961,215.958,159.666,212.926,159.666,209.812z"/>
						<path fill="#D1D1D1" d="M172.634,155.938c0,9.648,7.823,17.469,17.474,17.469c9.639,0,17.457-7.82,17.457-17.469
							c0-9.646-7.818-17.466-17.457-17.466C180.457,138.472,172.634,146.293,172.634,155.938z"/>
					</g>
					<g>
						<path fill="#D1D1D1" d="M104.852,209.812c0-21.601,13.627-39.107,30.44-39.107c16.805,0,30.43,17.507,30.43,39.107
							c0,3.114-0.294,6.146-0.829,9.049h-59.209C105.146,215.957,104.852,212.926,104.852,209.812z"/>
						<path fill="#D1D1D1" d="M117.819,155.938c0,9.648,7.822,17.469,17.473,17.469c9.64,0,17.457-7.82,17.457-17.469
							c0-9.645-7.817-17.466-17.457-17.466C125.642,138.472,117.819,146.293,117.819,155.938z"/>
					</g>
					<g>
						<path fill="#D1D1D1" d="M50.037,209.812c0-21.601,13.627-39.107,30.441-39.107c16.804,0,30.429,17.507,30.429,39.107
							c0,3.114-0.294,6.146-0.83,9.049H50.869C50.332,215.957,50.037,212.926,50.037,209.812z"/>
						<path fill="#D1D1D1" d="M63.005,155.938c0,9.648,7.822,17.469,17.474,17.469c9.639,0,17.456-7.82,17.456-17.469
							c0-9.646-7.817-17.466-17.456-17.466C70.827,138.472,63.005,146.292,63.005,155.938z"/>
					</g>
					<g>
						<path fill="#D1D1D1" d="M-4.777,209.812c0-21.601,13.626-39.107,30.44-39.107c16.805,0,30.429,17.507,30.429,39.107
							c0,3.114-0.293,6.146-0.829,9.049H-3.945C-4.482,215.957-4.777,212.926-4.777,209.812z"/>
						<path fill="#D1D1D1" d="M8.19,155.938c0,9.648,7.821,17.469,17.473,17.469c9.64,0,17.457-7.82,17.457-17.469
							c0-9.646-7.817-17.466-17.457-17.466C16.012,138.472,8.19,146.292,8.19,155.938z"/>
					</g>
					<g>
						<path fill="#D1D1D1" d="M-59.592,209.812c0-21.601,13.626-39.107,30.44-39.107c16.805,0,30.429,17.507,30.429,39.107
							c0,3.114-0.293,6.146-0.829,9.049H-58.76C-59.298,215.957-59.592,212.926-59.592,209.812z"/>
					</g>
				</g>
			</g>
		</g>
		<g>
			<g>
				<polygon fill="#8C8C8C" points="-472.92,327.105 1349.117,330.139 1346.287,265.028 -468.07,265.568 				"/>
				<g>
					<g>
						<path fill="#8C8C8C" d="M872.254,259.41c0-21.6,13.63-39.106,30.442-39.106c16.804,0,30.433,17.507,30.433,39.106
							c0,3.116-0.297,6.146-0.834,9.05h-59.21C872.551,265.556,872.254,262.526,872.254,259.41z"/>
					</g>
					<g>
						<path fill="#8C8C8C" d="M817.44,259.41c0-21.6,13.629-39.106,30.441-39.106c16.804,0,30.433,17.507,30.433,39.106
							c0,3.116-0.297,6.146-0.833,9.05h-59.21C817.736,265.556,817.44,262.526,817.44,259.41z"/>
						<path fill="#8C8C8C" d="M830.409,205.538c0,9.648,7.824,17.468,17.473,17.468c9.638,0,17.458-7.819,17.458-17.468
							c0-9.646-7.82-17.465-17.458-17.465C838.233,188.073,830.409,195.893,830.409,205.538z"/>
					</g>
					<g>
						<path fill="#8C8C8C" d="M762.627,259.41c0-21.6,13.628-39.106,30.44-39.106c16.804,0,30.433,17.507,30.433,39.106
							c0,3.116-0.296,6.146-0.833,9.05h-59.21C762.922,265.556,762.627,262.526,762.627,259.41z"/>
						<path fill="#8C8C8C" d="M775.596,205.538c0,9.648,7.823,17.468,17.472,17.468c9.638,0,17.458-7.819,17.458-17.468
							c0-9.646-7.82-17.465-17.458-17.465C783.419,188.073,775.596,195.893,775.596,205.538z"/>
					</g>
					<g>
						<path fill="#8C8C8C" d="M707.812,259.41c0-21.6,13.628-39.106,30.44-39.106c16.805,0,30.433,17.507,30.433,39.106
							c0,3.116-0.296,6.146-0.832,9.05h-59.21C708.107,265.556,707.812,262.526,707.812,259.41z"/>
						<path fill="#8C8C8C" d="M720.78,205.538c0,9.648,7.823,17.468,17.472,17.468c9.639,0,17.459-7.819,17.459-17.468
							c0-9.646-7.82-17.466-17.459-17.466C728.604,188.072,720.78,195.893,720.78,205.538z"/>
					</g>
					<g>
						<path fill="#8C8C8C" d="M652.996,259.41c0-21.6,13.629-39.107,30.441-39.107c16.805,0,30.432,17.507,30.432,39.107
							c0,3.115-0.295,6.146-0.832,9.05h-59.209C653.292,265.556,652.996,262.525,652.996,259.41z"/>
						<path fill="#8C8C8C" d="M665.966,205.538c0,9.648,7.823,17.467,17.472,17.467c9.639,0,17.458-7.819,17.458-17.467
							c0-9.646-7.819-17.465-17.458-17.465C673.789,188.072,665.966,195.892,665.966,205.538z"/>
					</g>
					<g>
						<path fill="#8C8C8C" d="M598.183,259.41c0-21.6,13.628-39.107,30.44-39.107c16.805,0,30.432,17.507,30.432,39.107
							c0,3.115-0.295,6.145-0.832,9.05h-59.209C598.478,265.555,598.183,262.525,598.183,259.41z"/>
						<path fill="#8C8C8C" d="M611.151,205.538c0,9.648,7.823,17.467,17.472,17.467c9.639,0,17.459-7.819,17.459-17.467
							c0-9.646-7.82-17.465-17.459-17.465C618.975,188.072,611.151,195.892,611.151,205.538z"/>
					</g>
					<g>
						<path fill="#8C8C8C" d="M543.368,259.41c0-21.601,13.628-39.107,30.441-39.107c16.804,0,30.431,17.506,30.431,39.107
							c0,3.115-0.295,6.145-0.832,9.05h-59.209C543.664,265.555,543.368,262.525,543.368,259.41z"/>
						<path fill="#8C8C8C" d="M556.337,205.538c0,9.648,7.823,17.467,17.473,17.467c9.639,0,17.457-7.819,17.457-17.467
							c0-9.646-7.818-17.465-17.457-17.465C564.16,188.072,556.337,195.892,556.337,205.538z"/>
					</g>
					<g>
						<path fill="#8C8C8C" d="M488.554,259.41c0-21.601,13.628-39.107,30.44-39.107c16.805,0,30.432,17.507,30.432,39.107
							c0,3.114-0.295,6.145-0.832,9.05h-59.209C488.849,265.555,488.554,262.524,488.554,259.41z"/>
						<path fill="#8C8C8C" d="M501.521,205.538c0,9.648,7.824,17.467,17.473,17.467c9.639,0,17.457-7.819,17.457-17.467
							c0-9.646-7.818-17.465-17.457-17.465C509.346,188.072,501.521,195.892,501.521,205.538z"/>
					</g>
					<g>
						<path fill="#8C8C8C" d="M433.738,259.41c0-21.601,13.627-39.107,30.441-39.107c16.805,0,30.431,17.507,30.431,39.107
							c0,3.114-0.295,6.145-0.831,9.05H434.57C434.033,265.555,433.738,262.524,433.738,259.41z"/>
						<path fill="#8C8C8C" d="M446.707,205.538c0,9.648,7.823,17.467,17.473,17.467c9.639,0,17.457-7.819,17.457-17.467
							c0-9.646-7.818-17.465-17.457-17.465C454.53,188.072,446.707,195.891,446.707,205.538z"/>
					</g>
					<g>
						<path fill="#8C8C8C" d="M378.924,259.41c0-21.601,13.628-39.107,30.441-39.107c16.805,0,30.431,17.507,30.431,39.107
							c0,3.114-0.294,6.145-0.831,9.05h-59.209C379.219,265.555,378.924,262.524,378.924,259.41z"/>
						<path fill="#8C8C8C" d="M391.893,205.538c0,9.648,7.823,17.467,17.473,17.467c9.639,0,17.457-7.819,17.457-17.467
							c0-9.646-7.818-17.465-17.457-17.465C399.716,188.072,391.893,195.891,391.893,205.538z"/>
					</g>
					<g>
						<path fill="#8C8C8C" d="M324.109,259.41c0-21.601,13.627-39.107,30.441-39.107c16.805,0,30.43,17.507,30.43,39.107
							c0,3.114-0.293,6.145-0.83,9.05h-59.209C324.404,265.555,324.109,262.524,324.109,259.41z"/>
						<path fill="#8C8C8C" d="M337.078,205.538c0,9.648,7.822,17.467,17.473,17.467c9.639,0,17.457-7.819,17.457-17.467
							c0-9.646-7.818-17.466-17.457-17.466C344.9,188.071,337.078,195.891,337.078,205.538z"/>
					</g>
					<g>
						<path fill="#8C8C8C" d="M269.295,259.41c0-21.601,13.627-39.107,30.441-39.107c16.804,0,30.43,17.507,30.43,39.107
							c0,3.114-0.294,6.145-0.83,9.05h-59.209C269.59,265.555,269.295,262.524,269.295,259.41z"/>
						<path fill="#8C8C8C" d="M282.264,205.538c0,9.648,7.822,17.467,17.473,17.467c9.639,0,17.457-7.819,17.457-17.467
							c0-9.646-7.818-17.466-17.457-17.466C290.086,188.071,282.264,195.891,282.264,205.538z"/>
					</g>
					<g>
						<path fill="#8C8C8C" d="M214.48,259.41c0-21.601,13.627-39.107,30.441-39.107c16.805,0,30.43,17.507,30.43,39.107
							c0,3.114-0.294,6.145-0.83,9.05h-59.209C214.775,265.555,214.48,262.524,214.48,259.41z"/>
						<path fill="#8C8C8C" d="M227.449,205.536c0,9.649,7.822,17.469,17.473,17.469c9.639,0,17.457-7.82,17.457-17.469
							c0-9.645-7.818-17.465-17.457-17.465C235.271,188.071,227.449,195.891,227.449,205.536z"/>
					</g>
					<g>
						<path fill="#8C8C8C" d="M159.666,259.41c0-21.601,13.627-39.107,30.441-39.107c16.804,0,30.43,17.507,30.43,39.107
							c0,3.114-0.294,6.145-0.83,9.05h-59.209C159.961,265.555,159.666,262.524,159.666,259.41z"/>
						<path fill="#8C8C8C" d="M172.634,205.536c0,9.649,7.823,17.469,17.474,17.469c9.639,0,17.457-7.82,17.457-17.469
							c0-9.645-7.818-17.465-17.457-17.465C180.457,188.071,172.634,195.891,172.634,205.536z"/>
					</g>
					<g>
						<path fill="#8C8C8C" d="M104.852,259.41c0-21.602,13.627-39.108,30.44-39.108c16.805,0,30.43,17.507,30.43,39.108
							c0,3.113-0.294,6.145-0.829,9.05h-59.209C105.146,265.555,104.852,262.523,104.852,259.41z"/>
						<path fill="#8C8C8C" d="M117.819,205.536c0,9.648,7.822,17.468,17.473,17.468c9.64,0,17.457-7.82,17.457-17.468
							c0-9.645-7.817-17.465-17.457-17.465C125.642,188.071,117.819,195.891,117.819,205.536z"/>
					</g>
					<g>
						<path fill="#8C8C8C" d="M50.037,259.41c0-21.601,13.627-39.108,30.441-39.108c16.804,0,30.429,17.507,30.429,39.108
							c0,3.114-0.294,6.146-0.83,9.05H50.869C50.332,265.555,50.037,262.523,50.037,259.41z"/>
						<path fill="#8C8C8C" d="M63.005,205.536c0,9.648,7.822,17.468,17.474,17.468c9.639,0,17.456-7.82,17.456-17.468
							c0-9.645-7.817-17.465-17.456-17.465C70.827,188.071,63.005,195.891,63.005,205.536z"/>
					</g>
					<g>
						<path fill="#8C8C8C" d="M-4.777,259.41c0-21.601,13.626-39.108,30.44-39.108c16.805,0,30.429,17.507,30.429,39.108
							c0,3.114-0.293,6.145-0.829,9.05H-3.945C-4.482,265.555-4.777,262.523-4.777,259.41z"/>
						<path fill="#8C8C8C" d="M8.19,205.536c0,9.648,7.821,17.468,17.473,17.468c9.64,0,17.457-7.82,17.457-17.468
							c0-9.645-7.817-17.465-17.457-17.465C16.012,188.071,8.19,195.891,8.19,205.536z"/>
					</g>
					<g>
						<path fill="#8C8C8C" d="M-59.592,259.41c0-21.601,13.626-39.108,30.44-39.108c16.805,0,30.429,17.507,30.429,39.108
							c0,3.114-0.293,6.145-0.829,9.05H-58.76C-59.298,265.555-59.592,262.523-59.592,259.41z"/>
					</g>
				</g>
			</g>
			<g>
				<polygon fill="#B7B7B7" points="-469.885,393.876 1349.117,391.853 1346.287,325.73 -465.035,326.269 				"/>
				<g>
					<g>
						<path fill="#B7B7B7" d="M872.254,320.111c0-21.599,13.63-39.106,30.442-39.106c16.804,0,30.433,17.507,30.433,39.106
							c0,3.116-0.297,6.147-0.834,9.049h-59.21C872.551,326.258,872.254,323.227,872.254,320.111z"/>
					</g>
					<g>
						<path fill="#B7B7B7" d="M817.44,320.111c0-21.6,13.629-39.106,30.441-39.106c16.804,0,30.433,17.506,30.433,39.106
							c0,3.116-0.297,6.147-0.833,9.049h-59.21C817.736,326.258,817.44,323.227,817.44,320.111z"/>
						<path fill="#B7B7B7" d="M830.409,266.239c0,9.648,7.824,17.468,17.473,17.468c9.638,0,17.458-7.82,17.458-17.468
							c0-9.646-7.82-17.465-17.458-17.465C838.233,248.774,830.409,256.593,830.409,266.239z"/>
					</g>
					<g>
						<path fill="#B7B7B7" d="M762.627,320.111c0-21.6,13.628-39.106,30.44-39.106c16.804,0,30.433,17.506,30.433,39.106
							c0,3.116-0.296,6.147-0.833,9.049h-59.21C762.922,326.258,762.627,323.227,762.627,320.111z"/>
						<path fill="#B7B7B7" d="M775.596,266.239c0,9.648,7.823,17.468,17.472,17.468c9.638,0,17.458-7.82,17.458-17.468
							c0-9.646-7.82-17.465-17.458-17.465C783.419,248.774,775.596,256.593,775.596,266.239z"/>
					</g>
					<g>
						<path fill="#B7B7B7" d="M707.812,320.111c0-21.6,13.628-39.106,30.44-39.106c16.805,0,30.433,17.506,30.433,39.106
							c0,3.116-0.296,6.147-0.832,9.049h-59.21C708.107,326.258,707.812,323.227,707.812,320.111z"/>
						<path fill="#B7B7B7" d="M720.78,266.239c0,9.648,7.823,17.468,17.472,17.468c9.639,0,17.459-7.82,17.459-17.468
							c0-9.646-7.82-17.465-17.459-17.465C728.604,248.774,720.78,256.593,720.78,266.239z"/>
					</g>
					<g>
						<path fill="#B7B7B7" d="M652.996,320.111c0-21.6,13.629-39.106,30.441-39.106c16.805,0,30.432,17.506,30.432,39.106
							c0,3.115-0.295,6.147-0.832,9.049h-59.209C653.292,326.258,652.996,323.226,652.996,320.111z"/>
						<path fill="#B7B7B7" d="M665.966,266.239c0,9.647,7.823,17.467,17.472,17.467c9.639,0,17.458-7.82,17.458-17.467
							c0-9.646-7.819-17.466-17.458-17.466C673.789,248.773,665.966,256.592,665.966,266.239z"/>
					</g>
					<g>
						<path fill="#B7B7B7" d="M598.183,320.111c0-21.6,13.628-39.106,30.44-39.106c16.805,0,30.432,17.506,30.432,39.106
							c0,3.115-0.295,6.146-0.832,9.049h-59.209C598.478,326.257,598.183,323.226,598.183,320.111z"/>
						<path fill="#B7B7B7" d="M611.151,266.238c0,9.648,7.823,17.468,17.472,17.468c9.639,0,17.459-7.82,17.459-17.468
							c0-9.646-7.82-17.465-17.459-17.465C618.975,248.773,611.151,256.592,611.151,266.238z"/>
					</g>
					<g>
						<path fill="#B7B7B7" d="M543.368,320.111c0-21.6,13.628-39.106,30.441-39.106c16.804,0,30.431,17.506,30.431,39.106
							c0,3.115-0.295,6.146-0.832,9.049h-59.209C543.664,326.257,543.368,323.226,543.368,320.111z"/>
						<path fill="#B7B7B7" d="M556.337,266.238c0,9.648,7.823,17.468,17.473,17.468c9.639,0,17.457-7.82,17.457-17.468
							c0-9.646-7.818-17.465-17.457-17.465C564.16,248.773,556.337,256.592,556.337,266.238z"/>
					</g>
					<g>
						<path fill="#B7B7B7" d="M488.554,320.11c0-21.6,13.628-39.106,30.44-39.106c16.805,0,30.432,17.506,30.432,39.106
							c0,3.115-0.295,6.147-0.832,9.05h-59.209C488.849,326.257,488.554,323.226,488.554,320.11z"/>
						<path fill="#B7B7B7" d="M501.521,266.238c0,9.648,7.824,17.468,17.473,17.468c9.639,0,17.457-7.82,17.457-17.468
							c0-9.646-7.818-17.465-17.457-17.465C509.346,248.772,501.521,256.592,501.521,266.238z"/>
					</g>
					<g>
						<path fill="#B7B7B7" d="M433.738,320.11c0-21.6,13.627-39.106,30.441-39.106c16.805,0,30.431,17.506,30.431,39.106
							c0,3.115-0.295,6.146-0.831,9.05H434.57C434.033,326.257,433.738,323.226,433.738,320.11z"/>
						<path fill="#B7B7B7" d="M446.707,266.237c0,9.648,7.823,17.469,17.473,17.469c9.639,0,17.457-7.82,17.457-17.469
							c0-9.645-7.818-17.465-17.457-17.465C454.53,248.772,446.707,256.592,446.707,266.237z"/>
					</g>
					<g>
						<path fill="#B7B7B7" d="M378.924,320.11c0-21.6,13.628-39.106,30.441-39.106c16.805,0,30.431,17.506,30.431,39.106
							c0,3.115-0.294,6.146-0.831,9.05h-59.209C379.219,326.257,378.924,323.226,378.924,320.11z"/>
						<path fill="#B7B7B7" d="M391.893,266.237c0,9.648,7.823,17.469,17.473,17.469c9.639,0,17.457-7.82,17.457-17.469
							c0-9.645-7.818-17.465-17.457-17.465C399.716,248.772,391.893,256.592,391.893,266.237z"/>
					</g>
					<g>
						<path fill="#B7B7B7" d="M324.109,320.11c0-21.6,13.627-39.106,30.441-39.106c16.805,0,30.43,17.506,30.43,39.106
							c0,3.115-0.293,6.146-0.83,9.05h-59.209C324.404,326.257,324.109,323.226,324.109,320.11z"/>
						<path fill="#B7B7B7" d="M337.078,266.237c0,9.648,7.822,17.469,17.473,17.469c9.639,0,17.457-7.821,17.457-17.469
							c0-9.645-7.818-17.465-17.457-17.465C344.9,248.772,337.078,256.592,337.078,266.237z"/>
					</g>
					<g>
						<path fill="#B7B7B7" d="M269.295,320.11c0-21.6,13.627-39.107,30.441-39.107c16.804,0,30.43,17.507,30.43,39.107
							c0,3.115-0.294,6.146-0.83,9.05h-59.209C269.59,326.257,269.295,323.226,269.295,320.11z"/>
						<path fill="#B7B7B7" d="M282.264,266.237c0,9.648,7.822,17.469,17.473,17.469c9.639,0,17.457-7.821,17.457-17.469
							c0-9.645-7.818-17.465-17.457-17.465C290.086,248.772,282.264,256.592,282.264,266.237z"/>
					</g>
					<g>
						<path fill="#B7B7B7" d="M214.48,320.11c0-21.6,13.627-39.107,30.441-39.107c16.805,0,30.43,17.507,30.43,39.107
							c0,3.115-0.294,6.146-0.83,9.05h-59.209C214.775,326.257,214.48,323.226,214.48,320.11z"/>
						<path fill="#B7B7B7" d="M227.449,266.237c0,9.648,7.822,17.469,17.473,17.469c9.639,0,17.457-7.821,17.457-17.469
							c0-9.645-7.818-17.465-17.457-17.465C235.271,248.772,227.449,256.592,227.449,266.237z"/>
					</g>
					<g>
						<path fill="#B7B7B7" d="M159.666,320.11c0-21.601,13.627-39.107,30.441-39.107c16.804,0,30.43,17.506,30.43,39.107
							c0,3.115-0.294,6.146-0.83,9.05h-59.209C159.961,326.257,159.666,323.226,159.666,320.11z"/>
						<path fill="#B7B7B7" d="M172.634,266.237c0,9.647,7.823,17.469,17.474,17.469c9.639,0,17.457-7.821,17.457-17.469
							c0-9.645-7.818-17.465-17.457-17.465C180.457,248.772,172.634,256.592,172.634,266.237z"/>
					</g>
					<g>
						<path fill="#B7B7B7" d="M104.852,320.11c0-21.601,13.627-39.107,30.44-39.107c16.805,0,30.43,17.507,30.43,39.107
							c0,3.114-0.294,6.146-0.829,9.049h-59.209C105.146,326.256,104.852,323.224,104.852,320.11z"/>
						<path fill="#B7B7B7" d="M117.819,266.237c0,9.648,7.822,17.469,17.473,17.469c9.64,0,17.457-7.821,17.457-17.469
							c0-9.646-7.817-17.465-17.457-17.465C125.642,248.772,117.819,256.591,117.819,266.237z"/>
					</g>
					<g>
						<path fill="#B7B7B7" d="M50.037,320.11c0-21.601,13.627-39.107,30.441-39.107c16.804,0,30.429,17.507,30.429,39.107
							c0,3.114-0.294,6.146-0.83,9.049H50.869C50.332,326.256,50.037,323.224,50.037,320.11z"/>
						<path fill="#B7B7B7" d="M63.005,266.237c0,9.648,7.822,17.469,17.474,17.469c9.639,0,17.456-7.821,17.456-17.469
							c0-9.646-7.817-17.465-17.456-17.465C70.827,248.772,63.005,256.591,63.005,266.237z"/>
					</g>
					<g>
						<path fill="#B7B7B7" d="M-4.777,320.11c0-21.601,13.626-39.107,30.44-39.107c16.805,0,30.429,17.507,30.429,39.107
							c0,3.114-0.293,6.146-0.829,9.049H-3.945C-4.482,326.256-4.777,323.224-4.777,320.11z"/>
						<path fill="#B7B7B7" d="M8.19,266.237c0,9.648,7.821,17.469,17.473,17.469c9.64,0,17.457-7.821,17.457-17.469
							c0-9.646-7.817-17.465-17.457-17.465C16.012,248.772,8.19,256.591,8.19,266.237z"/>
					</g>
					<g>
						<path fill="#B7B7B7" d="M-59.592,320.11c0-21.601,13.626-39.107,30.44-39.107c16.805,0,30.429,17.507,30.429,39.107
							c0,3.114-0.293,6.146-0.829,9.049H-58.76C-59.298,326.256-59.592,323.224-59.592,320.11z"/>
					</g>
				</g>
			</g>
			<g>
				<polygon fill="#D1D1D1" points="-465.838,435.41 1349.117,435.41 1346.287,386.429 -469.885,386.969 				"/>
				<g>
					<g>
						<path fill="#D1D1D1" d="M872.254,380.812c0-21.6,13.63-39.106,30.442-39.106c16.804,0,30.433,17.507,30.433,39.106
							c0,3.115-0.297,6.147-0.834,9.049h-59.21C872.551,386.959,872.254,383.928,872.254,380.812z"/>
					</g>
					<g>
						<path fill="#D1D1D1" d="M817.44,380.812c0-21.6,13.629-39.106,30.441-39.106c16.804,0,30.433,17.507,30.433,39.106
							c0,3.115-0.297,6.147-0.833,9.049h-59.21C817.736,386.959,817.44,383.927,817.44,380.812z"/>
						<path fill="#D1D1D1" d="M830.409,326.939c0,9.649,7.824,17.468,17.473,17.468c9.638,0,17.458-7.819,17.458-17.468
							c0-9.646-7.82-17.465-17.458-17.465C838.233,309.474,830.409,317.294,830.409,326.939z"/>
					</g>
					<g>
						<path fill="#D1D1D1" d="M762.627,380.812c0-21.6,13.628-39.106,30.44-39.106c16.804,0,30.433,17.507,30.433,39.106
							c0,3.115-0.296,6.147-0.833,9.049h-59.21C762.922,386.959,762.627,383.927,762.627,380.812z"/>
						<path fill="#D1D1D1" d="M775.596,326.939c0,9.649,7.823,17.468,17.472,17.468c9.638,0,17.458-7.819,17.458-17.468
							c0-9.646-7.82-17.465-17.458-17.465C783.419,309.474,775.596,317.294,775.596,326.939z"/>
					</g>
					<g>
						<path fill="#D1D1D1" d="M707.812,380.812c0-21.6,13.628-39.106,30.44-39.106c16.805,0,30.433,17.507,30.433,39.106
							c0,3.115-0.296,6.147-0.832,9.049h-59.21C708.107,386.959,707.812,383.927,707.812,380.812z"/>
						<path fill="#D1D1D1" d="M720.78,326.939c0,9.649,7.823,17.468,17.472,17.468c9.639,0,17.459-7.819,17.459-17.468
							c0-9.646-7.82-17.465-17.459-17.465C728.604,309.474,720.78,317.294,720.78,326.939z"/>
					</g>
					<g>
						<path fill="#D1D1D1" d="M652.996,380.812c0-21.6,13.629-39.107,30.441-39.107c16.805,0,30.432,17.507,30.432,39.107
							c0,3.114-0.295,6.146-0.832,9.049h-59.209C653.292,386.958,652.996,383.927,652.996,380.812z"/>
						<path fill="#D1D1D1" d="M665.966,326.939c0,9.649,7.823,17.468,17.472,17.468c9.639,0,17.458-7.819,17.458-17.468
							c0-9.646-7.819-17.465-17.458-17.465C673.789,309.474,665.966,317.293,665.966,326.939z"/>
					</g>
					<g>
						<path fill="#D1D1D1" d="M598.183,380.812c0-21.6,13.628-39.107,30.44-39.107c16.805,0,30.432,17.507,30.432,39.107
							c0,3.114-0.295,6.146-0.832,9.049h-59.209C598.478,386.958,598.183,383.927,598.183,380.812z"/>
						<path fill="#D1D1D1" d="M611.151,326.939c0,9.648,7.823,17.468,17.472,17.468c9.639,0,17.459-7.82,17.459-17.468
							c0-9.646-7.82-17.466-17.459-17.466C618.975,309.473,611.151,317.293,611.151,326.939z"/>
					</g>
					<g>
						<path fill="#D1D1D1" d="M543.368,380.812c0-21.6,13.628-39.107,30.441-39.107c16.804,0,30.431,17.507,30.431,39.107
							c0,3.114-0.295,6.146-0.832,9.049h-59.209C543.664,386.958,543.368,383.927,543.368,380.812z"/>
						<path fill="#D1D1D1" d="M556.337,326.939c0,9.648,7.823,17.468,17.473,17.468c9.639,0,17.457-7.82,17.457-17.468
							c0-9.646-7.818-17.466-17.457-17.466C564.16,309.473,556.337,317.293,556.337,326.939z"/>
					</g>
					<g>
						<path fill="#D1D1D1" d="M488.554,380.812c0-21.6,13.628-39.106,30.44-39.106c16.805,0,30.432,17.506,30.432,39.106
							c0,3.115-0.295,6.146-0.832,9.049h-59.209C488.849,386.958,488.554,383.927,488.554,380.812z"/>
						<path fill="#D1D1D1" d="M501.521,326.939c0,9.648,7.824,17.468,17.473,17.468c9.639,0,17.457-7.82,17.457-17.468
							c0-9.646-7.818-17.466-17.457-17.466C509.346,309.473,501.521,317.293,501.521,326.939z"/>
					</g>
					<g>
						<path fill="#D1D1D1" d="M433.738,380.812c0-21.6,13.627-39.106,30.441-39.106c16.805,0,30.431,17.506,30.431,39.106
							c0,3.115-0.295,6.146-0.831,9.049H434.57C434.033,386.958,433.738,383.927,433.738,380.812z"/>
						<path fill="#D1D1D1" d="M446.707,326.938c0,9.648,7.823,17.469,17.473,17.469c9.639,0,17.457-7.82,17.457-17.469
							c0-9.646-7.818-17.465-17.457-17.465C454.53,309.473,446.707,317.293,446.707,326.938z"/>
					</g>
					<g>
						<path fill="#D1D1D1" d="M378.924,380.812c0-21.6,13.628-39.106,30.441-39.106c16.805,0,30.431,17.506,30.431,39.106
							c0,3.115-0.294,6.146-0.831,9.049h-59.209C379.219,386.958,378.924,383.927,378.924,380.812z"/>
						<path fill="#D1D1D1" d="M391.893,326.938c0,9.648,7.823,17.469,17.473,17.469c9.639,0,17.457-7.82,17.457-17.469
							c0-9.646-7.818-17.465-17.457-17.465C399.716,309.473,391.893,317.293,391.893,326.938z"/>
					</g>
					<g>
						<path fill="#D1D1D1" d="M324.109,380.812c0-21.6,13.627-39.106,30.441-39.106c16.805,0,30.43,17.506,30.43,39.106
							c0,3.115-0.293,6.146-0.83,9.049h-59.209C324.404,386.958,324.109,383.927,324.109,380.812z"/>
						<path fill="#D1D1D1" d="M337.078,326.938c0,9.648,7.822,17.469,17.473,17.469c9.639,0,17.457-7.82,17.457-17.469
							c0-9.646-7.818-17.465-17.457-17.465C344.9,309.473,337.078,317.293,337.078,326.938z"/>
					</g>
					<g>
						<path fill="#D1D1D1" d="M269.295,380.812c0-21.6,13.627-39.106,30.441-39.106c16.804,0,30.43,17.506,30.43,39.106
							c0,3.115-0.294,6.146-0.83,9.049h-59.209C269.59,386.958,269.295,383.927,269.295,380.812z"/>
						<path fill="#D1D1D1" d="M282.264,326.938c0,9.648,7.822,17.469,17.473,17.469c9.639,0,17.457-7.82,17.457-17.469
							c0-9.646-7.818-17.465-17.457-17.465C290.086,309.473,282.264,317.293,282.264,326.938z"/>
					</g>
					<g>
						<path fill="#D1D1D1" d="M214.48,380.812c0-21.6,13.627-39.107,30.441-39.107c16.805,0,30.43,17.507,30.43,39.107
							c0,3.114-0.294,6.146-0.83,9.05h-59.209C214.775,386.958,214.48,383.926,214.48,380.812z"/>
						<path fill="#D1D1D1" d="M227.449,326.938c0,9.648,7.822,17.469,17.473,17.469c9.639,0,17.457-7.82,17.457-17.469
							c0-9.646-7.818-17.466-17.457-17.466C235.271,309.472,227.449,317.293,227.449,326.938z"/>
					</g>
					<g>
						<path fill="#D1D1D1" d="M159.666,380.812c0-21.6,13.627-39.107,30.441-39.107c16.804,0,30.43,17.507,30.43,39.107
							c0,3.114-0.294,6.146-0.83,9.05h-59.209C159.961,386.958,159.666,383.926,159.666,380.812z"/>
						<path fill="#D1D1D1" d="M172.634,326.938c0,9.648,7.823,17.469,17.474,17.469c9.639,0,17.457-7.82,17.457-17.469
							c0-9.646-7.818-17.466-17.457-17.466C180.457,309.472,172.634,317.293,172.634,326.938z"/>
					</g>
					<g>
						<path fill="#D1D1D1" d="M104.852,380.812c0-21.601,13.627-39.107,30.44-39.107c16.805,0,30.43,17.507,30.43,39.107
							c0,3.114-0.294,6.146-0.829,9.05h-59.209C105.146,386.957,104.852,383.926,104.852,380.812z"/>
						<path fill="#D1D1D1" d="M117.819,326.938c0,9.648,7.822,17.469,17.473,17.469c9.64,0,17.457-7.82,17.457-17.469
							c0-9.646-7.817-17.466-17.457-17.466C125.642,309.472,117.819,317.292,117.819,326.938z"/>
					</g>
					<g>
						<path fill="#D1D1D1" d="M50.037,380.812c0-21.601,13.627-39.107,30.441-39.107c16.804,0,30.429,17.507,30.429,39.107
							c0,3.114-0.294,6.146-0.83,9.049H50.869C50.332,386.957,50.037,383.926,50.037,380.812z"/>
						<path fill="#D1D1D1" d="M63.005,326.938c0,9.648,7.822,17.469,17.474,17.469c9.639,0,17.456-7.82,17.456-17.469
							c0-9.646-7.817-17.466-17.456-17.466C70.827,309.472,63.005,317.292,63.005,326.938z"/>
					</g>
					<g>
						<path fill="#D1D1D1" d="M-4.777,380.812c0-21.601,13.626-39.107,30.44-39.107c16.805,0,30.429,17.507,30.429,39.107
							c0,3.114-0.293,6.146-0.829,9.049H-3.945C-4.482,386.957-4.777,383.926-4.777,380.812z"/>
						<path fill="#D1D1D1" d="M8.19,326.938c0,9.648,7.821,17.469,17.473,17.469c9.64,0,17.457-7.82,17.457-17.469
							c0-9.646-7.817-17.466-17.457-17.466C16.012,309.472,8.19,317.292,8.19,326.938z"/>
					</g>
					<g>
						<path fill="#D1D1D1" d="M-59.592,380.812c0-21.601,13.626-39.107,30.44-39.107c16.805,0,30.429,17.507,30.429,39.107
							c0,3.114-0.293,6.146-0.829,9.049H-58.76C-59.298,386.957-59.592,383.926-59.592,380.812z"/>
					</g>
				</g>
			</g>
		</g>
		<g>
			<g>
				<polygon fill="#8C8C8C" points="-472.92,498.505 1349.117,501.54 1346.287,436.428 -468.07,436.968 				"/>
				<g>
					<g>
						<path fill="#8C8C8C" d="M872.254,430.812c0-21.601,13.63-39.106,30.442-39.106c16.804,0,30.433,17.505,30.433,39.106
							c0,3.114-0.297,6.146-0.834,9.05h-59.21C872.551,436.957,872.254,433.926,872.254,430.812z"/>
					</g>
					<g>
						<path fill="#8C8C8C" d="M817.44,430.812c0-21.601,13.629-39.106,30.441-39.106c16.804,0,30.433,17.505,30.433,39.106
							c0,3.114-0.297,6.146-0.833,9.05h-59.21C817.736,436.957,817.44,433.926,817.44,430.812z"/>
						<path fill="#8C8C8C" d="M830.409,376.939c0,9.649,7.824,17.467,17.473,17.467c9.638,0,17.458-7.818,17.458-17.467
							c0-9.646-7.82-17.467-17.458-17.467C838.233,359.472,830.409,367.294,830.409,376.939z"/>
					</g>
					<g>
						<path fill="#8C8C8C" d="M762.627,430.812c0-21.601,13.628-39.106,30.44-39.106c16.804,0,30.433,17.505,30.433,39.106
							c0,3.114-0.296,6.146-0.833,9.05h-59.21C762.922,436.957,762.627,433.926,762.627,430.812z"/>
						<path fill="#8C8C8C" d="M775.596,376.939c0,9.649,7.823,17.467,17.472,17.467c9.638,0,17.458-7.818,17.458-17.467
							c0-9.646-7.82-17.467-17.458-17.467C783.419,359.472,775.596,367.294,775.596,376.939z"/>
					</g>
					<g>
						<path fill="#8C8C8C" d="M707.812,430.812c0-21.601,13.628-39.106,30.44-39.106c16.805,0,30.433,17.505,30.433,39.106
							c0,3.114-0.296,6.146-0.832,9.05h-59.21C708.107,436.957,707.812,433.926,707.812,430.812z"/>
						<path fill="#8C8C8C" d="M720.78,376.939c0,9.649,7.823,17.467,17.472,17.467c9.639,0,17.459-7.818,17.459-17.467
							c0-9.646-7.82-17.467-17.459-17.467C728.604,359.472,720.78,367.293,720.78,376.939z"/>
					</g>
					<g>
						<path fill="#8C8C8C" d="M652.996,430.811c0-21.6,13.629-39.105,30.441-39.105c16.805,0,30.432,17.505,30.432,39.105
							c0,3.115-0.295,6.146-0.832,9.051h-59.209C653.292,436.957,652.996,433.926,652.996,430.811z"/>
						<path fill="#8C8C8C" d="M665.966,376.939c0,9.649,7.823,17.467,17.472,17.467c9.639,0,17.458-7.818,17.458-17.467
							c0-9.646-7.819-17.467-17.458-17.467C673.789,359.472,665.966,367.293,665.966,376.939z"/>
					</g>
					<g>
						<path fill="#8C8C8C" d="M598.183,430.811c0-21.6,13.628-39.105,30.44-39.105c16.805,0,30.432,17.505,30.432,39.105
							c0,3.115-0.295,6.146-0.832,9.051h-59.209C598.478,436.957,598.183,433.926,598.183,430.811z"/>
						<path fill="#8C8C8C" d="M611.151,376.939c0,9.648,7.823,17.467,17.472,17.467c9.639,0,17.459-7.819,17.459-17.467
							c0-9.646-7.82-17.468-17.459-17.468C618.975,359.472,611.151,367.293,611.151,376.939z"/>
					</g>
					<g>
						<path fill="#8C8C8C" d="M543.368,430.811c0-21.6,13.628-39.105,30.441-39.105c16.804,0,30.431,17.505,30.431,39.105
							c0,3.115-0.295,6.146-0.832,9.051h-59.209C543.664,436.957,543.368,433.925,543.368,430.811z"/>
						<path fill="#8C8C8C" d="M556.337,376.939c0,9.648,7.823,17.468,17.473,17.468c9.639,0,17.457-7.819,17.457-17.468
							c0-9.646-7.818-17.467-17.457-17.467C564.16,359.472,556.337,367.293,556.337,376.939z"/>
					</g>
					<g>
						<path fill="#8C8C8C" d="M488.554,430.811c0-21.601,13.628-39.105,30.44-39.105c16.805,0,30.432,17.504,30.432,39.105
							c0,3.115-0.295,6.146-0.832,9.051h-59.209C488.849,436.957,488.554,433.925,488.554,430.811z"/>
						<path fill="#8C8C8C" d="M501.521,376.939c0,9.648,7.824,17.468,17.473,17.468c9.639,0,17.457-7.819,17.457-17.468
							c0-9.646-7.818-17.467-17.457-17.467C509.346,359.472,501.521,367.293,501.521,376.939z"/>
					</g>
					<g>
						<path fill="#8C8C8C" d="M433.738,430.811c0-21.601,13.627-39.106,30.441-39.106c16.805,0,30.431,17.505,30.431,39.106
							c0,3.114-0.295,6.146-0.831,9.051H434.57C434.033,436.956,433.738,433.925,433.738,430.811z"/>
						<path fill="#8C8C8C" d="M446.707,376.938c0,9.648,7.823,17.468,17.473,17.468c9.639,0,17.457-7.82,17.457-17.468
							c0-9.646-7.818-17.467-17.457-17.467C454.53,359.472,446.707,367.293,446.707,376.938z"/>
					</g>
					<g>
						<path fill="#8C8C8C" d="M378.924,430.811c0-21.601,13.628-39.106,30.441-39.106c16.805,0,30.431,17.505,30.431,39.106
							c0,3.114-0.294,6.146-0.831,9.051h-59.209C379.219,436.956,378.924,433.925,378.924,430.811z"/>
						<path fill="#8C8C8C" d="M391.893,376.938c0,9.648,7.823,17.468,17.473,17.468c9.639,0,17.457-7.82,17.457-17.468
							c0-9.646-7.818-17.467-17.457-17.467C399.716,359.472,391.893,367.293,391.893,376.938z"/>
					</g>
					<g>
						<path fill="#8C8C8C" d="M324.109,430.811c0-21.601,13.627-39.106,30.441-39.106c16.805,0,30.43,17.506,30.43,39.106
							c0,3.114-0.293,6.146-0.83,9.051h-59.209C324.404,436.956,324.109,433.925,324.109,430.811z"/>
						<path fill="#8C8C8C" d="M337.078,376.938c0,9.648,7.822,17.468,17.473,17.468c9.639,0,17.457-7.82,17.457-17.468
							c0-9.646-7.818-17.467-17.457-17.467C344.9,359.471,337.078,367.293,337.078,376.938z"/>
					</g>
					<g>
						<path fill="#8C8C8C" d="M269.295,430.811c0-21.601,13.627-39.106,30.441-39.106c16.804,0,30.43,17.506,30.43,39.106
							c0,3.114-0.294,6.146-0.83,9.051h-59.209C269.59,436.956,269.295,433.925,269.295,430.811z"/>
						<path fill="#8C8C8C" d="M282.264,376.938c0,9.648,7.822,17.468,17.473,17.468c9.639,0,17.457-7.82,17.457-17.468
							c0-9.646-7.818-17.467-17.457-17.467C290.086,359.471,282.264,367.293,282.264,376.938z"/>
					</g>
					<g>
						<path fill="#8C8C8C" d="M214.48,430.811c0-21.601,13.627-39.106,30.441-39.106c16.805,0,30.43,17.506,30.43,39.106
							c0,3.114-0.294,6.146-0.83,9.051h-59.209C214.775,436.956,214.48,433.925,214.48,430.811z"/>
						<path fill="#8C8C8C" d="M227.449,376.938c0,9.648,7.822,17.468,17.473,17.468c9.639,0,17.457-7.82,17.457-17.468
							c0-9.646-7.818-17.467-17.457-17.467C235.271,359.471,227.449,367.293,227.449,376.938z"/>
					</g>
					<g>
						<path fill="#8C8C8C" d="M159.666,430.811c0-21.601,13.627-39.106,30.441-39.106c16.804,0,30.43,17.506,30.43,39.106
							c0,3.114-0.294,6.146-0.83,9.051h-59.209C159.961,436.956,159.666,433.925,159.666,430.811z"/>
						<path fill="#8C8C8C" d="M172.634,376.938c0,9.648,7.823,17.468,17.474,17.468c9.639,0,17.457-7.82,17.457-17.468
							c0-9.646-7.818-17.467-17.457-17.467C180.457,359.471,172.634,367.293,172.634,376.938z"/>
					</g>
					<g>
						<path fill="#8C8C8C" d="M104.852,430.81c0-21.601,13.627-39.106,30.44-39.106c16.805,0,30.43,17.505,30.43,39.106
							c0,3.114-0.294,6.146-0.829,9.051h-59.209C105.146,436.956,104.852,433.924,104.852,430.81z"/>
						<path fill="#8C8C8C" d="M117.819,376.938c0,9.648,7.822,17.469,17.473,17.469c9.64,0,17.457-7.82,17.457-17.469
							c0-9.646-7.817-17.467-17.457-17.467C125.642,359.471,117.819,367.292,117.819,376.938z"/>
					</g>
					<g>
						<path fill="#8C8C8C" d="M50.037,430.81c0-21.601,13.627-39.107,30.441-39.107c16.804,0,30.429,17.506,30.429,39.107
							c0,3.114-0.294,6.146-0.83,9.051H50.869C50.332,436.956,50.037,433.924,50.037,430.81z"/>
						<path fill="#8C8C8C" d="M63.005,376.938c0,9.648,7.822,17.469,17.474,17.469c9.639,0,17.456-7.82,17.456-17.469
							c0-9.646-7.817-17.467-17.456-17.467C70.827,359.471,63.005,367.292,63.005,376.938z"/>
					</g>
					<g>
						<path fill="#8C8C8C" d="M-4.777,430.81c0-21.601,13.626-39.107,30.44-39.107c16.805,0,30.429,17.506,30.429,39.107
							c0,3.114-0.293,6.146-0.829,9.051H-3.945C-4.482,436.956-4.777,433.924-4.777,430.81z"/>
						<path fill="#8C8C8C" d="M8.19,376.938c0,9.648,7.821,17.469,17.473,17.469c9.64,0,17.457-7.82,17.457-17.469
							c0-9.646-7.817-17.467-17.457-17.467C16.012,359.471,8.19,367.292,8.19,376.938z"/>
					</g>
					<g>
						<path fill="#8C8C8C" d="M-59.592,430.81c0-21.601,13.626-39.107,30.44-39.107c16.805,0,30.429,17.506,30.429,39.107
							c0,3.114-0.293,6.146-0.829,9.051H-58.76C-59.298,436.956-59.592,433.924-59.592,430.81z"/>
					</g>
				</g>
			</g>
			<g>
				<g>
					<g>
						<path fill="#B7B7B7" d="M872.254,491.512c0-21.6,13.63-39.105,30.442-39.105c16.804,0,30.433,17.505,30.433,39.105
							c0,3.115-0.297,6.147-0.834,9.049h-59.21C872.551,497.659,872.254,494.627,872.254,491.512z"/>
					</g>
					<g>
						<path fill="#B7B7B7" d="M817.44,491.512c0-21.6,13.629-39.105,30.441-39.105c16.804,0,30.433,17.505,30.433,39.105
							c0,3.115-0.297,6.147-0.833,9.049h-59.21C817.736,497.659,817.44,494.627,817.44,491.512z"/>
						<path fill="#B7B7B7" d="M830.409,437.639c0,9.648,7.824,17.469,17.473,17.469c9.638,0,17.458-7.821,17.458-17.469
							c0-9.646-7.82-17.465-17.458-17.465C838.233,420.174,830.409,427.993,830.409,437.639z"/>
					</g>
					<g>
						<path fill="#B7B7B7" d="M762.627,491.512c0-21.6,13.628-39.105,30.44-39.105c16.804,0,30.433,17.505,30.433,39.105
							c0,3.115-0.296,6.147-0.833,9.049h-59.21C762.922,497.659,762.627,494.627,762.627,491.512z"/>
						<path fill="#B7B7B7" d="M775.596,437.639c0,9.648,7.823,17.469,17.472,17.469c9.638,0,17.458-7.821,17.458-17.469
							c0-9.646-7.82-17.465-17.458-17.465C783.419,420.174,775.596,427.993,775.596,437.639z"/>
					</g>
					<g>
						<path fill="#B7B7B7" d="M707.812,491.512c0-21.6,13.628-39.105,30.44-39.105c16.805,0,30.433,17.505,30.433,39.105
							c0,3.115-0.296,6.147-0.832,9.049h-59.21C708.107,497.659,707.812,494.627,707.812,491.512z"/>
						<path fill="#B7B7B7" d="M720.78,437.639c0,9.648,7.823,17.469,17.472,17.469c9.639,0,17.459-7.821,17.459-17.469
							c0-9.646-7.82-17.465-17.459-17.465C728.604,420.174,720.78,427.993,720.78,437.639z"/>
					</g>
					<g>
						<path fill="#B7B7B7" d="M652.996,491.512c0-21.601,13.629-39.106,30.441-39.106c16.805,0,30.432,17.505,30.432,39.106
							c0,3.115-0.295,6.146-0.832,9.049h-59.209C653.292,497.658,652.996,494.626,652.996,491.512z"/>
						<path fill="#B7B7B7" d="M665.966,437.639c0,9.647,7.823,17.468,17.472,17.468c9.639,0,17.458-7.821,17.458-17.468
							s-7.819-17.465-17.458-17.465C673.789,420.174,665.966,427.992,665.966,437.639z"/>
					</g>
					<g>
						<path fill="#B7B7B7" d="M598.183,491.512c0-21.601,13.628-39.106,30.44-39.106c16.805,0,30.432,17.505,30.432,39.106
							c0,3.115-0.295,6.146-0.832,9.049h-59.209C598.478,497.658,598.183,494.626,598.183,491.512z"/>
						<path fill="#B7B7B7" d="M611.151,437.639c0,9.647,7.823,17.469,17.472,17.469c9.639,0,17.459-7.821,17.459-17.469
							c0-9.646-7.82-17.465-17.459-17.465C618.975,420.173,611.151,427.992,611.151,437.639z"/>
					</g>
					<g>
						<path fill="#B7B7B7" d="M543.368,491.512c0-21.601,13.628-39.106,30.441-39.106c16.804,0,30.431,17.505,30.431,39.106
							c0,3.115-0.295,6.146-0.832,9.049h-59.209C543.664,497.658,543.368,494.626,543.368,491.512z"/>
						<path fill="#B7B7B7" d="M556.337,437.639c0,9.647,7.823,17.469,17.473,17.469c9.639,0,17.457-7.821,17.457-17.469
							c0-9.646-7.818-17.465-17.457-17.465C564.16,420.173,556.337,427.992,556.337,437.639z"/>
					</g>
					<g>
						<path fill="#B7B7B7" d="M488.554,491.512c0-21.601,13.628-39.106,30.44-39.106c16.805,0,30.432,17.506,30.432,39.106
							c0,3.114-0.295,6.146-0.832,9.049h-59.209C488.849,497.657,488.554,494.626,488.554,491.512z"/>
						<path fill="#B7B7B7" d="M501.521,437.639c0,9.647,7.824,17.469,17.473,17.469c9.639,0,17.457-7.821,17.457-17.469
							c0-9.646-7.818-17.465-17.457-17.465C509.346,420.173,501.521,427.992,501.521,437.639z"/>
					</g>
					<g>
						<path fill="#B7B7B7" d="M433.738,491.512c0-21.601,13.627-39.106,30.441-39.106c16.805,0,30.431,17.506,30.431,39.106
							c0,3.114-0.295,6.146-0.831,9.049H434.57C434.033,497.657,433.738,494.626,433.738,491.512z"/>
						<path fill="#B7B7B7" d="M446.707,437.638c0,9.648,7.823,17.47,17.473,17.47c9.639,0,17.457-7.821,17.457-17.47
							c0-9.646-7.818-17.465-17.457-17.465C454.53,420.173,446.707,427.992,446.707,437.638z"/>
					</g>
					<g>
						<path fill="#B7B7B7" d="M378.924,491.512c0-21.601,13.628-39.106,30.441-39.106c16.805,0,30.431,17.506,30.431,39.106
							c0,3.114-0.294,6.146-0.831,9.049h-59.209C379.219,497.657,378.924,494.626,378.924,491.512z"/>
						<path fill="#B7B7B7" d="M391.893,437.638c0,9.648,7.823,17.47,17.473,17.47c9.639,0,17.457-7.821,17.457-17.47
							c0-9.646-7.818-17.465-17.457-17.465C399.716,420.173,391.893,427.992,391.893,437.638z"/>
					</g>
					<g>
						<path fill="#B7B7B7" d="M324.109,491.512c0-21.601,13.627-39.106,30.441-39.106c16.805,0,30.43,17.506,30.43,39.106
							c0,3.114-0.293,6.146-0.83,9.049h-59.209C324.404,497.657,324.109,494.626,324.109,491.512z"/>
						<path fill="#B7B7B7" d="M337.078,437.638c0,9.648,7.822,17.47,17.473,17.47c9.639,0,17.457-7.821,17.457-17.47
							c0-9.646-7.818-17.465-17.457-17.465C344.9,420.173,337.078,427.992,337.078,437.638z"/>
					</g>
					<g>
						<path fill="#B7B7B7" d="M269.295,491.511c0-21.6,13.627-39.106,30.441-39.106c16.804,0,30.43,17.506,30.43,39.106
							c0,3.115-0.294,6.146-0.83,9.049h-59.209C269.59,497.657,269.295,494.626,269.295,491.511z"/>
						<path fill="#B7B7B7" d="M282.264,437.638c0,9.648,7.822,17.47,17.473,17.47c9.639,0,17.457-7.821,17.457-17.47
							c0-9.646-7.818-17.465-17.457-17.465C290.086,420.173,282.264,427.992,282.264,437.638z"/>
					</g>
					<g>
						<path fill="#B7B7B7" d="M214.48,491.511c0-21.601,13.627-39.106,30.441-39.106c16.805,0,30.43,17.505,30.43,39.106
							c0,3.115-0.294,6.146-0.83,9.049h-59.209C214.775,497.657,214.48,494.626,214.48,491.511z"/>
						<path fill="#B7B7B7" d="M227.449,437.638c0,9.647,7.822,17.47,17.473,17.47c9.639,0,17.457-7.822,17.457-17.47
							c0-9.646-7.818-17.465-17.457-17.465C235.271,420.173,227.449,427.992,227.449,437.638z"/>
					</g>
					<g>
						<path fill="#B7B7B7" d="M159.666,491.511c0-21.601,13.627-39.106,30.441-39.106c16.804,0,30.43,17.505,30.43,39.106
							c0,3.115-0.294,6.146-0.83,9.049h-59.209C159.961,497.657,159.666,494.626,159.666,491.511z"/>
						<path fill="#B7B7B7" d="M172.634,437.638c0,9.647,7.823,17.47,17.474,17.47c9.639,0,17.457-7.822,17.457-17.47
							c0-9.646-7.818-17.465-17.457-17.465C180.457,420.173,172.634,427.992,172.634,437.638z"/>
					</g>
					<g>
						<path fill="#B7B7B7" d="M104.852,491.511c0-21.601,13.627-39.106,30.44-39.106c16.805,0,30.43,17.505,30.43,39.106
							c0,3.114-0.294,6.145-0.829,9.049h-59.209C105.146,497.656,104.852,494.625,104.852,491.511z"/>
						<path fill="#B7B7B7" d="M117.819,437.637c0,9.648,7.822,17.47,17.473,17.47c9.64,0,17.457-7.822,17.457-17.47
							c0-9.646-7.817-17.465-17.457-17.465C125.642,420.172,117.819,427.992,117.819,437.637z"/>
					</g>
					<g>
						<path fill="#B7B7B7" d="M50.037,491.511c0-21.601,13.627-39.106,30.441-39.106c16.804,0,30.429,17.505,30.429,39.106
							c0,3.114-0.294,6.145-0.83,9.049H50.869C50.332,497.656,50.037,494.625,50.037,491.511z"/>
						<path fill="#B7B7B7" d="M63.005,437.637c0,9.648,7.822,17.47,17.474,17.47c9.639,0,17.456-7.822,17.456-17.47
							c0-9.646-7.817-17.465-17.456-17.465C70.827,420.172,63.005,427.992,63.005,437.637z"/>
					</g>
					<g>
						<path fill="#B7B7B7" d="M-4.777,491.511c0-21.601,13.626-39.106,30.44-39.106c16.805,0,30.429,17.505,30.429,39.106
							c0,3.114-0.293,6.145-0.829,9.049H-3.945C-4.482,497.656-4.777,494.625-4.777,491.511z"/>
						<path fill="#B7B7B7" d="M8.19,437.637c0,9.648,7.821,17.47,17.473,17.47c9.64,0,17.457-7.822,17.457-17.47
							c0-9.646-7.817-17.465-17.457-17.465C16.012,420.172,8.19,427.992,8.19,437.637z"/>
					</g>
					<g>
						<path fill="#B7B7B7" d="M-59.592,491.511c0-21.601,13.626-39.106,30.44-39.106c16.805,0,30.429,17.505,30.429,39.106
							c0,3.114-0.293,6.146-0.829,9.049H-58.76C-59.298,497.656-59.592,494.625-59.592,491.511z"/>
					</g>
				</g>
			</g>
		</g>
		<g>
			<g>
				<path fill="#EDD707" d="M490.236,248.546c0,4.447-3.604,8.051-8.052,8.051H374.288c-4.446,0-8.052-3.604-8.052-8.051V56.909
					c0-4.447,3.605-8.051,8.052-8.051h107.896c4.447,0,8.052,3.604,8.052,8.051V248.546z"/>
				
					<line fill="none" stroke="#F4B07D" stroke-width="100" stroke-linecap="round" stroke-linejoin="round" stroke-miterlimit="10" x1="400.236" y1="201.728" x2="400.236" y2="745.728"/>
			</g>
			<path fill="#231F20" d="M461.692,343.684c0,5.087-4.124,9.211-9.21,9.211H349.324c-5.088,0-9.211-4.124-9.211-9.211v-16.578
				c0-5.086,4.123-9.211,9.211-9.211h103.158c5.086,0,9.21,4.125,9.21,9.211V343.684z"/>
			<path fill="#6D6E71" d="M386.903,354.395c0,2.577-2.089,4.667-4.667,4.667l0,0c-2.577,0-4.666-2.09-4.666-4.667v-38.666
				c0-2.577,2.089-4.667,4.666-4.667l0,0c2.578,0,4.667,2.091,4.667,4.667V354.395z"/>
		</g>
	</g>
</g>
</svg>
