<?xml version="1.0" encoding="utf-8"?>
<!-- Generator: Adobe Illustrator 16.0.0, SVG Export Plug-In . SVG Version: 6.00 Build 0)  -->
<!DOCTYPE svg PUBLIC "-//W3C//DTD SVG 1.1//EN" "http://www.w3.org/Graphics/SVG/1.1/DTD/svg11.dtd">
<svg version="1.1" id="Layer_1" xmlns="http://www.w3.org/2000/svg" xmlns:xlink="http://www.w3.org/1999/xlink" x="0px" y="0px"
	 width="742.075px" height="586.062px" viewBox="0 0 742.075 586.062" enable-background="new 0 0 742.075 586.062"
	 xml:space="preserve">
<g>
	<g>
		<path fill="#776537" d="M497.373,145.549c0,0-6.577,2.399-6.511,13.536c0.017,3.723,2.011,13.535-5.014,14.032
			c0,0,8.521,1.001,11.021-4.517c0,0-0.496,10.027-4.501,12.534c0,0,23.554,10.028,27.567-12.534l-2.002-33.086
			C517.934,135.514,503.396,129.507,497.373,145.549z"/>
		<path fill="#776537" d="M639.209,145.549c0,0,6.568,2.399,6.51,13.536c-0.023,3.723-2.002,13.535,5.014,14.032
			c0,0-8.521,1.001-11.027-4.517c0,0,0.496,10.027,4.508,12.534c0,0-23.555,10.028-27.566-12.534l2.002-33.086
			C618.648,135.514,633.193,129.507,639.209,145.549z"/>
		<g>
			<polygon fill="#0B4349" points="489.183,204.933 505.225,202.931 507.732,220.976 			"/>
			<polygon fill="#0B4349" points="647.332,204.933 631.299,202.931 628.791,220.976 			"/>
			<path fill="#F4B07D" d="M663.293,309.516H474.149c0,0,30.968-114.35,30.968-169.146c0-31.664,126.662-31.655,126.662,0
				C631.779,219.574,663.293,309.516,663.293,309.516z"/>
			<g>
				<path fill="#776537" d="M569.76,32.515c0,0-24.598-34.459-70.186,0.53c-18.434,14.14-26.566,72.899,4.443,103.908l67.33-75.282
					L569.76,32.515z"/>
				<path fill="#776537" d="M570,32.515c0,0,24.598-34.459,70.184,0.53c18.418,14.14,26.559,72.899-4.451,103.908l-67.33-75.282
					L570,32.515z"/>
				<path fill="#F4B07D" d="M628.021,71.683c0,0-21.295-27.229-61.787-26.641c-40.35-0.587-57.295,26.641-57.295,26.641
					c-14.155,23.167-9.928,94.75-9.928,94.75c0,35.419,49.129,63.641,69.754,63.641c20.643,0,69.938-26.376,69.938-63.641
					C638.703,166.432,642.178,94.849,628.021,71.683z"/>
				<g opacity="0.2">
					<path fill="#231F20" d="M585.938,130.73c0.204,0.196,0.421,0.436,0.604,0.645c0.186,0.224,0.376,0.443,0.547,0.679
						c0.349,0.468,0.672,0.959,0.938,1.5c0.141,0.265,0.271,0.538,0.372,0.834c0.115,0.286,0.217,0.58,0.275,0.899
						c0.078,0.31,0.141,0.625,0.142,0.965c0.024,0.333,0.034,0.666-0.04,1.008c-0.051,0.342-0.101,0.684-0.255,0.998
						c-0.141,0.313-0.24,0.663-0.459,0.918c-0.2,0.268-0.392,0.558-0.614,0.797l-0.723,0.638c-0.236,0.232-0.507,0.359-0.767,0.524
						l-0.789,0.468l-1.628,0.681l-0.045,0.019l-0.151,0.028c-0.648,0.119-1.386,0.315-2.055,0.541
						c-0.679,0.23-1.335,0.506-1.944,0.832c-0.606,0.325-1.187,0.686-1.645,1.121c-0.479,0.447-0.756,0.845-1.197,1.576
						c-0.454,0.674-0.967,1.482-1.762,2.06c-0.36,0.334-0.78,0.539-1.196,0.758c-0.413,0.25-0.838,0.355-1.262,0.495l-0.637,0.199
						c-0.21,0.051-0.417,0.074-0.626,0.112l-1.252,0.202c-0.842,0.045-1.576,0.097-2.502,0.112
						c-0.784-0.051-1.514-0.046-2.342-0.143c-0.858-0.136-1.722-0.226-2.557-0.532l-0.629-0.197c-0.207-0.089-0.413-0.2-0.619-0.301
						l-0.614-0.316c-0.198-0.121-0.382-0.277-0.571-0.417c-0.782-0.55-1.339-1.324-1.819-2.011l-0.318-0.498l-0.079-0.124
						l-0.04-0.062c-0.041-0.059,0.05,0.072,0.038,0.056l-0.005-0.007l-0.011-0.015l-0.021-0.029l-0.171-0.233
						c-0.259-0.373-0.38-0.441-0.61-0.68c-0.457-0.437-1.038-0.795-1.642-1.124c-0.609-0.326-1.266-0.603-1.944-0.833
						c-0.669-0.226-1.406-0.422-2.054-0.542l-0.151-0.028l-0.045-0.019l-1.627-0.68l-0.789-0.468
						c-0.26-0.166-0.53-0.292-0.768-0.524l-0.722-0.638c-0.224-0.238-0.415-0.529-0.615-0.796c-0.218-0.255-0.319-0.604-0.459-0.917
						c-0.154-0.314-0.206-0.655-0.257-0.997c-0.074-0.342-0.066-0.676-0.041-1.008c0-0.339,0.062-0.655,0.14-0.965
						c0.058-0.32,0.159-0.614,0.274-0.899c0.1-0.296,0.229-0.569,0.37-0.834c0.266-0.542,0.589-1.034,0.938-1.502
						c0.358-0.471,0.708-0.894,1.159-1.334c0.339-0.331,0.881-0.324,1.212,0.014c0.316,0.324,0.324,0.835,0.027,1.169l-0.026,0.029
						c-0.142,0.158-0.308,0.366-0.456,0.56c-0.145,0.202-0.298,0.401-0.428,0.612c-0.265,0.418-0.524,0.841-0.708,1.28
						c-0.103,0.217-0.194,0.436-0.254,0.657c-0.077,0.219-0.142,0.438-0.164,0.654c-0.046,0.217-0.079,0.432-0.061,0.636
						c-0.007,0.208-0.008,0.413,0.056,0.599c0.039,0.191,0.064,0.387,0.175,0.552c0.098,0.169,0.13,0.362,0.288,0.507
						c0.136,0.153,0.237,0.323,0.385,0.473l0.509,0.414c0.147,0.154,0.38,0.248,0.578,0.365l0.611,0.344l1.376,0.526l-0.195-0.047
						c0.875,0.134,1.638,0.32,2.44,0.561c0.791,0.242,1.572,0.541,2.337,0.921c0.761,0.384,1.508,0.844,2.184,1.462
						c0.323,0.293,0.766,0.764,0.942,1.031l0.173,0.231l0.126,0.181l0.078,0.119l0.311,0.475c0.409,0.562,0.775,1.07,1.275,1.397
						c0.123,0.086,0.23,0.188,0.361,0.266l0.421,0.203c0.142,0.066,0.274,0.144,0.421,0.206l0.479,0.138
						c0.622,0.231,1.307,0.283,1.971,0.396c0.703,0.081,1.523,0.074,2.28,0.116l2.124-0.082l1.035-0.159
						c0.171-0.029,0.351-0.044,0.515-0.083l0.468-0.147c0.311-0.099,0.646-0.168,0.892-0.333c0.268-0.14,0.555-0.259,0.758-0.465
						c0.48-0.318,0.822-0.847,1.231-1.438c0.353-0.591,0.96-1.477,1.638-2.06c0.676-0.617,1.424-1.075,2.185-1.46
						c0.764-0.379,1.546-0.678,2.337-0.919c0.803-0.24,1.565-0.425,2.44-0.559l-0.196,0.046l1.376-0.526l0.611-0.343
						c0.198-0.118,0.431-0.211,0.578-0.365l0.508-0.414c0.146-0.149,0.249-0.319,0.384-0.473c0.158-0.145,0.19-0.339,0.287-0.507
						c0.11-0.166,0.135-0.361,0.174-0.552c0.063-0.186,0.062-0.391,0.055-0.599c0.02-0.204-0.015-0.418-0.061-0.635
						c-0.023-0.216-0.088-0.435-0.166-0.654c-0.059-0.221-0.15-0.439-0.254-0.656c-0.185-0.439-0.443-0.862-0.709-1.28
						c-0.13-0.21-0.283-0.41-0.428-0.611c-0.161-0.207-0.293-0.379-0.466-0.569c-0.318-0.351-0.292-0.894,0.059-1.212
						C585.102,130.408,585.615,130.421,585.938,130.73z"/>
				</g>
				<path fill="#2E230E" d="M537.541,111.586c0,2.135-1.729,3.855-3.863,3.855c-2.127,0-3.863-1.721-3.863-3.855
					s1.736-3.855,3.863-3.855C535.812,107.731,537.541,109.452,537.541,111.586z"/>
				<path fill="#593B2E" d="M513.557,110.221c0,0,13.164-12.601,31.805-7.694c0,0,5.328-3.144,0.719-5.122
					C546.08,97.405,523.939,93.599,513.557,110.221z"/>
				<path fill="#2E230E" d="M597.326,111.586c0,2.135,1.73,3.855,3.865,3.855s3.863-1.721,3.863-3.855s-1.729-3.855-3.863-3.855
					S597.326,109.452,597.326,111.586z"/>
				<path fill="#593B2E" d="M621.834,108.583c0,0-14.273-11.318-32.375-4.7c0,0-5.602-2.639-1.184-5.038
					C588.275,98.845,609.961,93.003,621.834,108.583z"/>
				<path fill="#F4B07D" d="M504.795,123.691c0,0-13.254-21.727-18.028-1.581c-1.465,6.206-1.588,39.763,17.499,18.558"/>
				
					<path fill="none" stroke="#C18963" stroke-width="2.1206" stroke-linecap="round" stroke-linejoin="round" stroke-miterlimit="10" d="
					M496.307,124.229c0,0-6.884,5.303,0,13.254"/>
				<path fill="#F4B07D" d="M630.652,123.691c0,0,13.256-21.727,18.021-1.581c1.473,6.206,1.588,39.763-17.49,18.558"/>
				
					<path fill="none" stroke="#C18963" stroke-width="2.1206" stroke-linecap="round" stroke-linejoin="round" stroke-miterlimit="10" d="
					M639.133,124.229c0,0,6.893,5.303,0,13.254"/>
				
					<path fill="none" stroke="#C18963" stroke-width="2.6487" stroke-linecap="round" stroke-linejoin="round" stroke-miterlimit="10" d="
					M550.398,162.494c0,0,17.36,10.5,34.021-0.446"/>
				<path fill="#776537" d="M496.918,48.417c0,0-7.784,46.489-6.727,46.837c1.06,0.355,37.473-18.914,37.473-18.914L569.9,61.671
					l62.73,19.27l12.725-5.304l-6.711-33.227l-61.15-6.354l-48.061,5.287L496.918,48.417z"/>
				<path opacity="0.3" fill="#231F20" d="M569.545,61.671c0,0,25.449,59.024,81.99,28.809c0,0-16.248-8.794-18.904-19.923"/>
				<path opacity="0.3" fill="#231F20" d="M569.18,61.225c0,0-15.307,44.578-71.028,29.661c0,0,12.774-6.147,17.499-16.696"/>
				<path fill="#776537" d="M569.9,61.671c0,0,23.861,51.073,77.582,28.105c0,0-12.195-9.018-14.852-20.154"/>
				<path fill="#776537" d="M569.18,61.225c0,0-19.484,36.114-65.436,28.403c0,0,10.045-8.439,11.732-18.186"/>
				<path fill="#776537" d="M547.809,19.087c0,0,8.547-3.037,5.652-15.555c0,0,9.547,9.184,9.547,18.384
					c0,0,3.889-19.087,12.014-21.917c0,0-2.953,25.078,21.775,17.722l-4.459,10.201l-17.664,21.553l-32.516-6.007L547.809,19.087z"
					/>
			</g>
			<path opacity="0.1" fill="#232222" d="M502.172,181.11c0,0,20.477,53.298,70.252,47.3c0,0,44.486-0.703,60.719-48.359
				c0,0-35.295,37.777-69.895,34.245C563.248,214.295,533.23,212.524,502.172,181.11z"/>
		</g>
		
			<path fill="none" stroke="#F4B07D" stroke-width="39.6697" stroke-linecap="round" stroke-linejoin="round" stroke-miterlimit="10" d="
			M500.766,236.278"/>
		
			<path fill="none" stroke="#F4B07D" stroke-width="39.6697" stroke-linecap="round" stroke-linejoin="round" stroke-miterlimit="10" d="
			M637.66,236.278c0,0,74.049,53.721,80.453,111.297c6.604,59.504,3.301,73.834,3.301,105.349"/>
		<path fill="none" stroke="#173766" stroke-width="39.6683" stroke-linejoin="round" stroke-miterlimit="10" d="M637.66,236.278
			c0,0,74.049,53.721,80.453,111.297c6.604,59.504,3.301,73.834,3.301,105.349"/>
		<path fill="#F4B07D" d="M638.189,227.111h-69.414h-3.648h-69.425c-11.269,48.136-33.053,44.264-33.053,125.618
			c0,73.383,0,83.337,0,84.417c0,0.095,0,0.122,0,0.117c0,0.043,0,0.098,0,0.172c0,0.174,11.012,0.265,11.012,0.265h91.466h3.648
			h91.447c0,0,11.029-0.091,11.029-0.265c0-0.074,0-0.129,0-0.172c0,0.005,0-0.022,0-0.117c0-1.08,0-11.034,0-84.417
			C671.252,271.375,649.467,275.247,638.189,227.111z"/>
		
			<line fill="none" stroke="#263451" stroke-width="35.3879" stroke-linejoin="round" stroke-miterlimit="10" x1="525.33" y1="446.081" x2="525.33" y2="585.129"/>
		
			<line fill="none" stroke="#263451" stroke-width="35.3879" stroke-linejoin="round" stroke-miterlimit="10" x1="607.479" y1="446.081" x2="607.479" y2="585.129"/>
		<path fill="#263451" d="M566.938,525.185c58.09,0,105.174-36.073,105.174-94.162H461.756
			C461.756,489.112,508.841,525.185,566.938,525.185z"/>
		<rect x="462.6" y="431.171" fill="#161516" width="209.09" height="15.72"/>
		<rect x="553.17" y="431.171" fill="#D6D6D6" width="29.869" height="15.72"/>
		<path fill="#173766" d="M647.102,216.874l-79.762,15.617h-4l-73.793-15.617c-54.274,58.188-37.728,215.073-37.728,215.073H565.34
			h6h117.502C688.842,431.947,698.604,253.675,647.102,216.874z"/>
		<path fill="#2056B7" d="M490.008,205.327c0,0,34.193,16.133,79.334,16.667c23.812,0.282,47.334-4,77.334-17.333v15.655
			c0,0-36.916,22.661-77.792,22.661c0,0-39.034,2.672-79.543-24.982L490.008,205.327z"/>
		<g>
			<path fill="#F4B07D" d="M622.197,187.463c0,0-11.648,36.206-54.613,36.206c-42.445,0-60.82-45.033-60.82-45.033
				s22.736,11.302,60.01,11.302C566.773,189.938,586.289,183.889,622.197,187.463z"/>
		</g>
		<g>
			<path opacity="0.1" fill="#232222" d="M600.471,190.889c0,0-5.17,19.037-32.887,19.037c-27.387,0-32.889-19.037-32.889-19.037
				s10.012,14.023,34.055,14.023C568.75,204.913,584.775,206.592,600.471,190.889z"/>
		</g>
		<path fill="#2056B7" d="M648.457,261.995h-56.602c-0.856,0-1.551,0.694-1.551,1.551v44.971c0,0.513,0.253,0.99,0.675,1.281
			l28.301,19.363c0.265,0.18,0.569,0.27,0.876,0.27c0.315,0,0.63-0.095,0.898-0.285l28.301-20.141
			c0.408-0.292,0.652-0.762,0.652-1.264v-44.195C650.008,262.689,649.313,261.995,648.457,261.995z"/>
		<g>
			<path fill="#B0171C" d="M487.856,189.637c0,0,34.396,46.587,50.479,49.24c0,0,13.889,0.43,22.852-11.587l3.046-5.779
				c0,0,3.959-2.838-9.154-12.213l-15.68-10.729c0,0-2.763-4.412-9.2,4.998c0,0-3.456,9.667-11.848,1.303
				c0,0-12.302-15.489-18.354-23.934L487.856,189.637z"/>
			<path fill="#B0171C" d="M487.856,189.637c0,0-33.074-47.534-30.422-63.616c0,0,4.053-13.292,18.312-17.92l6.452-1.03
				c0,0,3.959-2.838,8.625,12.59l5.127,18.295c0,0,3.291,4.032-7.688,7.109c0,0-10.266,0.168-5.039,10.802
				c0,0,10.719,16.623,16.772,25.067L487.856,189.637z"/>
		</g>
		
			<path fill="none" stroke="#F4B07D" stroke-width="39.6697" stroke-linecap="round" stroke-linejoin="round" stroke-miterlimit="10" d="
			M419.565,322.716c-10.749,3.431-21.789,3.225-32.557-2.723c-48.597-26.844,60-144.5,85.5-160.5"/>
		<path fill="none" stroke="#173766" stroke-width="39.6683" stroke-linejoin="round" stroke-miterlimit="10" d="M498.509,241.494
			c0,0-59,107.5-111.5,78.5c-48.597-26.844,60-144.5,85.5-160.5"/>
	</g>
	<rect x="24.5" y="460.993" fill="#725130" width="398" height="125.069"/>
	<path fill="#544A41" d="M447,457.993c0,9.39-7.611,17-17,17H17c-9.389,0-17-7.61-17-17l0,0c0-9.389,7.611-17,17-17h413
		C439.389,440.993,447,448.604,447,457.993L447,457.993z"/>
	<g>
		<path fill="#242527" d="M214.227,431.231c0,6.567-5.322,11.889-11.888,11.889l0,0c-6.565,0-11.889-5.321-11.889-11.889v-8.047
			c0-6.565,5.323-11.888,11.889-11.888l0,0c6.565,0,11.888,5.322,11.888,11.888V431.231z"/>
		<path fill="#242527" d="M300.552,431.231c0,6.567-5.322,11.889-11.889,11.889l0,0c-6.565,0-11.888-5.321-11.888-11.889v-8.047
			c0-6.565,5.322-11.888,11.888-11.888l0,0c6.566,0,11.889,5.322,11.889,11.888V431.231z"/>
		<path fill="#B0171C" d="M194.472,299.731c0,0-9.145,9.511-9.145,26.702c0,0-18.654,5.854-16.094,59.257
			c0,0-6.584,38.773,34.749,46.455c0,0,30.726,2.194,42.796,2.194V297.537C246.778,297.537,216.784,292.416,194.472,299.731z"/>
		<path fill="#B0171C" d="M297.258,299.731c0,0,9.144,9.511,9.144,26.702c0,0,18.656,5.854,16.096,59.257
			c0,0,6.584,38.773-34.75,46.455c0,0-30.726,2.194-42.797,2.194V297.537C244.95,297.537,274.944,292.416,297.258,299.731z"/>
		<g>
			<path fill="#C90E1C" d="M194.106,391.177l6.922-108.706c0,0-0.944-4.091,4.404-4.091h8.496c0,0,2.832-0.629,2.832,7.236v9.439
				h29.891v118.461c0,0-8.496,1.887-14.159-2.518C232.492,411,194.106,411.943,194.106,391.177z"/>
			<path fill="#C90E1C" d="M298.721,391.177l-6.922-108.706c0,0,0.944-4.091-4.405-4.091h-8.495c0,0-2.831-0.629-2.831,7.236v9.439
				h-29.892v118.461c0,0,8.495,1.887,14.159-2.518C260.335,411,298.721,411.943,298.721,391.177z"/>
		</g>
		<polygon fill="#C90E1C" points="212.03,295.708 279.333,295.708 285.187,308.144 214.956,314.363 		"/>
		<rect x="228.679" y="350.481" fill="#77131B" width="38.853" height="6.124"/>
		<g>
			<ellipse fill="#B0171C" cx="248.047" cy="359.814" rx="19.368" ry="15.635"/>
			<ellipse fill="#77131B" cx="248.047" cy="355.964" rx="19.368" ry="15.633"/>
			<ellipse fill="#FF1717" cx="248.047" cy="350.481" rx="19.368" ry="15.634"/>
			<ellipse fill="#FFFFFF" cx="248.047" cy="350.481" rx="19.368" ry="15.634"/>
		</g>
	</g>
</g>
</svg>
