<?xml version="1.0" encoding="utf-8"?>
<!-- Generator: Adobe Illustrator 16.0.0, SVG Export Plug-In . SVG Version: 6.00 Build 0)  -->
<!DOCTYPE svg PUBLIC "-//W3C//DTD SVG 1.1//EN" "http://www.w3.org/Graphics/SVG/1.1/DTD/svg11.dtd">
<svg version="1.1" id="Layer_1" xmlns="http://www.w3.org/2000/svg" xmlns:xlink="http://www.w3.org/1999/xlink" x="0px" y="0px"
	 width="448.555px" height="674.097px" viewBox="0 0 448.555 674.097" enable-background="new 0 0 448.555 674.097"
	 xml:space="preserve">
<g>
	
		<path fill="none" stroke="#F4B07D" stroke-width="65.6563" stroke-linecap="round" stroke-linejoin="round" stroke-miterlimit="10" d="
		M136.217,409.612c28.393,27.741,63.053,52.845,100.391,60.822c99.248,21.157,123.967,17.988,177.119,23.294"/>
	<path fill="none" stroke="#282828" stroke-width="67.2357" stroke-linejoin="round" stroke-miterlimit="10" d="M62.422,316.035
		c0,0,78.156,133.921,174.186,154.399c99.248,21.157,123.967,17.988,177.119,23.294"/>
	<path fill="#282828" d="M233.419,377.252c-44.269-0.606-102.31,34.651-102.31,34.651l103.666,262.193h139.488
		C362.372,474.904,233.419,377.252,233.419,377.252z"/>
	<path fill="#FFFFFF" d="M109.74,273.097c0,0-45.876,158.972-45.876,400.781H327.26c0,0,17.455-152.561-67.74-254.233
		C225.861,379.501,109.74,273.097,109.74,273.097z"/>
	<path fill="#282828" d="M218.646,388.152l-19.628,17.353c23.364,17.374,25.273,10.236,25.273,10.236
		c16.185-14.016-0.647-35.297-0.647-35.297L218.646,388.152z"/>
	<path fill="#F4B07D" d="M290.732,65.495C210.774,32.5,70.854,230.465,70.854,230.465
		c129.383,120.767,215.668,121.968,215.668,121.968c35.428,3.158,31.207-27.008,28.041-38.487
		c-2.605-9.444,4.303-24.358,5.017-32.553c1.21-14.053,0.04-30.165,0.04-30.165c27.355,10.822,29.082-4.146,29.082-4.146
		c-3.305-21.478-12.592-43.034-13.791-57.852C331.523,147.597,290.732,65.495,290.732,65.495z"/>
	<path fill="#F4B07D" d="M45.881,273.097l150.542,132.709c32.767-37.484,102.599-65.53,102.599-65.53L131.92,190.164L45.881,273.097
		z"/>
	<path fill="#776537" d="M130.616,29.402c0,0-29.745,3.744-33.06,7.121c0,0,6.754-27.979,17.109-36.523
		c0,0-27.293,22.953-26.602,37.571c0,0-5.541-1.918-8.342-0.921c0,0-19.389,2.767-29.73,23.291c0,0,25.062-15.391,29.385,1.367
		c0,0-68.022,137.593-34.953,213.931c0,0,28.645-27.471,42.531-29.933c0,0,18.842-4.861,29.257-16.469
		c0,0,35.869-42.753,55.34-36.608c0,0,20.214,4.847,14.841,22.983c0,0,18.482-19.275,41.626-46.464c0,0,21.054-26.634,14.808-55.18
		c0,0,31.29-25.924,45.775-17.379c0,0,9.412,32.191-12.95,58.053c0,0,26.209-2.283,34.752-16.769c0,0,4.802,9.924-0.868,15.011
		c0,0,9.674-2.471,13.756-9.387c0,0,10.039,29.366,7.75,40c0,0,52.25-61.25,14.854-117.02
		C345.896,66.078,345.449-5.149,130.616,29.402z"/>
	<g>
		<path fill="#593B2E" d="M301.246,171.125c0,0-37.31-13.805-60.779,11.754c0,0,27.011-17.669,57.854-3.089
			C298.32,179.791,308.633,176.039,301.246,171.125z"/>
		<path fill="#2E230E" d="M278.453,191.643c-3.848,0-6.971,3.123-6.971,6.972c0,3.85,3.123,6.97,6.971,6.97
			c3.847,0,6.975-3.12,6.975-6.97C285.428,194.766,282.3,191.643,278.453,191.643z"/>
	</g>
	<g>
		<path fill="#F4B07D" d="M147.348,161.38c-9.205,11.438-42.581,81.121,18.045,55.873l17.887-34.776
			C183.279,182.477,177.173,124.188,147.348,161.38z"/>
		
			<path fill="none" stroke="#C18963" stroke-width="4.8827" stroke-linecap="round" stroke-linejoin="round" stroke-miterlimit="10" d="
			M165.1,175.204c0,0-19.57,4.217-13.08,27.562"/>
	</g>
	<path fill="#D6D6D6" d="M195.65,419.645c0,0,21.062-12.145,28.349-35.628c0,0-119.026-68.814-178.118-110.92
		C45.881,273.097,134.938,385.641,195.65,419.645z"/>
	<path fill="#282828" d="M45.881,273.097c0,0-45.881,158.972-45.881,400.781h263.396c0,0,7.026-144.656-67.746-254.233
		L45.881,273.097z"/>
	<path fill="#2D2D2D" d="M149.496,370.529c0,0-37.496-34.81-45.33-39.94l17.547,56.129l14.567-11.061l3.775,11.061l69.366,54.244
		C209.422,440.961,197.813,411.817,149.496,370.529z"/>
	
		<path fill="none" stroke="#F4B07D" stroke-width="65.6563" stroke-linecap="round" stroke-linejoin="round" stroke-miterlimit="10" d="
		M138.217,479.612c28.393,27.741,63.053,52.845,100.391,60.822c99.248,21.157,123.967,17.988,177.119,23.294"/>
	<path fill="none" stroke="#282828" stroke-width="67.2357" stroke-linejoin="round" stroke-miterlimit="10" d="M64.422,386.035
		c0,0,78.156,133.921,174.186,154.399c99.248,21.157,123.967,17.988,177.119,23.294"/>
	<path fill="#282828" d="M229.112,401.153c-4.647,1.551-4.82,14.588-4.82,14.588c19.95,8.778,46.619,91.839,46.619,91.839
		c15.868,37.535,15.874,112.619,15.874,112.619c0,13.555,14.317,38.316,14.317,38.316c6.95-5.805,11.225-19.341,11.225-19.341
		c3.478-25.941-5.809-80.115-5.809-80.115C298.396,479.336,229.112,401.153,229.112,401.153z"/>
</g>
<path fill="none" stroke="#C18963" stroke-width="4.765" stroke-linecap="round" stroke-linejoin="round" stroke-miterlimit="10" d="
	M312.842,291.245c0,0-18.898,4.631-34.196-6.134"/>
<path fill="#1B332E" d="M323.72,514.374c0,0-4.163,0.34-3.663,2.339c0,0,2.83,7.495,2.164,10.659l9.328-4.831
	C331.549,522.541,326.053,513.035,323.72,514.374z"/>
<g>
	<g>
		<path fill="none" stroke="#4E6762" stroke-width="1.9987" stroke-miterlimit="10" d="M314.726,526.207"/>
	</g>
</g>
</svg>
