<?xml version="1.0" encoding="utf-8"?>
<!-- Generator: Adobe Illustrator 16.0.0, SVG Export Plug-In . SVG Version: 6.00 Build 0)  -->
<!DOCTYPE svg PUBLIC "-//W3C//DTD SVG 1.1//EN" "http://www.w3.org/Graphics/SVG/1.1/DTD/svg11.dtd">
<svg version="1.1" xmlns="http://www.w3.org/2000/svg" xmlns:xlink="http://www.w3.org/1999/xlink" x="0px" y="0px"
	 width="582.772px" height="657.163px" viewBox="0 0 582.772 657.163" enable-background="new 0 0 582.772 657.163"
	 xml:space="preserve">
<g id="_x34_6" display="none">
	<g display="inline" opacity="0.2">
		<path fill="#869FAD" d="M295.211,209.148h-29.753c-7.207,0-13.05,5.842-13.05,13.048v48.545c0,7.206,5.843,13.048,13.05,13.048
			h29.753c7.206,0,13.049-5.842,13.049-13.048v-48.545C308.26,214.99,302.417,209.148,295.211,209.148z"/>
		<path fill="#869FAD" d="M223.627,209.148h-29.753c-7.206,0-13.05,5.842-13.05,13.048v48.545c0,7.206,5.844,13.048,13.05,13.048
			h29.753c7.207,0,13.049-5.842,13.049-13.048v-48.545C236.676,214.99,230.834,209.148,223.627,209.148z"/>
		<path fill="#869FAD" d="M152.829,209.148h-29.752c-7.207,0-13.05,5.842-13.05,13.048v48.545c0,7.206,5.843,13.048,13.05,13.048
			h29.752c7.207,0,13.05-5.842,13.05-13.048v-48.545C165.879,214.99,160.036,209.148,152.829,209.148z"/>
		<path fill="#869FAD" d="M81.246,209.148H51.493c-7.207,0-13.049,5.842-13.049,13.048v48.545c0,7.206,5.842,13.048,13.049,13.048
			h29.753c7.207,0,13.049-5.842,13.049-13.048v-48.545C94.295,214.99,88.453,209.148,81.246,209.148z"/>
		<path fill="#869FAD" d="M9.852,209.148h-29.752c-7.207,0-13.049,5.842-13.049,13.048v48.545c0,7.206,5.842,13.048,13.049,13.048
			H9.852c7.207,0,13.049-5.842,13.049-13.048v-48.545C22.901,214.99,17.058,209.148,9.852,209.148z"/>
	</g>
	<rect x="-641.249" y="-42.652" display="inline" fill="#5497B5" width="1440" height="699.999"/>
	<g display="inline">
		<g>
			<rect x="-570.614" y="77.529" fill="#5D5D5D" width="723.111" height="277.335"/>
			<g>
				<g>
					
						<path fill="none" stroke="#F4B07D" stroke-width="12.9122" stroke-linecap="round" stroke-linejoin="round" stroke-miterlimit="10" d="
						M9.348,203.2c3.677,6.885,8.681,13.651,15.21,17.364c17.35,9.856,22.172,10.734,31.824,14.886"/>
					<path fill="none" stroke="#282828" stroke-width="13.2228" stroke-linejoin="round" stroke-miterlimit="10" d="M1.071,181.27
						c0,0,6.698,29.752,23.487,39.294c17.35,9.856,22.172,10.734,31.824,14.886"/>
				</g>
				<path fill="#FFFFFF" d="M-4.703,186.462c0,0-9.022,31.264-9.022,78.819h51.8c0,0,3.433-30.003-13.322-49.998
					C18.134,207.389-4.703,186.462-4.703,186.462z"/>
				<path fill="#282828" d="M16.715,209.09l-3.86,3.413c4.595,3.416,4.971,2.013,4.971,2.013c3.183-2.757-0.127-6.942-0.127-6.942
					L16.715,209.09z"/>
				<path fill="#F4B07D" d="M30.892,145.635c-15.725-6.489-43.243,32.444-43.243,32.444c25.445,23.75,42.414,23.986,42.414,23.986
					c6.968,0.622,6.138-5.312,5.515-7.569c-0.512-1.857,0.846-4.79,0.987-6.402c0.237-2.764,0.007-5.932,0.007-5.932
					c5.38,2.128,5.72-0.816,5.72-0.816c-0.65-4.224-2.477-8.463-2.712-11.377C38.914,161.781,30.892,145.635,30.892,145.635z"/>
				<path fill="#F4B07D" d="M-17.261,186.462l29.606,26.1c6.444-7.372,20.177-12.888,20.177-12.888l-32.863-29.521L-17.261,186.462z
					"/>
				<path fill="#776537" d="M-0.597,138.537c0,0-5.85,0.736-6.501,1.4c0,0,1.328-5.502,3.365-7.183c0,0-5.368,4.514-5.232,7.389
					c0,0-1.089-0.377-1.64-0.181c0,0-3.813,0.544-5.847,4.581c0,0,4.929-3.027,5.779,0.269c0,0-13.378,27.06-6.875,42.072
					c0,0,5.634-5.402,8.365-5.886c0,0,3.706-0.957,5.753-3.239c0,0,7.055-8.408,10.884-7.2c0,0,3.975,0.953,2.918,4.52
					c0,0,3.635-3.791,8.187-9.138c0,0,4.14-5.238,2.912-10.852c0,0,6.153-5.099,9.002-3.418c0,0,1.851,6.331-2.547,11.417
					c0,0,5.155-0.449,6.835-3.298c0,0,0.944,1.952-0.171,2.952c0,0,2.215-0.351,3.018-1.711c0,0,2.112,5.002,1.662,7.093
					c0,0,9.013-12.752,2.471-22.375C41.74,145.75,41.653,131.742-0.597,138.537z"/>
				<g>
					<path fill="#593B2E" d="M32.959,166.408c0,0-7.337-2.715-11.953,2.312c0,0,5.312-3.475,11.378-0.607
						C32.384,168.113,34.413,167.375,32.959,166.408z"/>
					<circle fill="#2E230E" cx="28.477" cy="171.815" r="1.371"/>
				</g>
				<g>
					<path fill="#F4B07D" d="M2.693,168.032c-1.811,2.25-8.374,15.954,3.549,10.988l3.518-6.839
						C9.76,172.181,8.559,160.718,2.693,168.032z"/>
					
						<path fill="none" stroke="#C18963" stroke-width="0.9603" stroke-linecap="round" stroke-linejoin="round" stroke-miterlimit="10" d="
						M6.185,170.75c0,0-3.849,0.83-2.572,5.421"/>
				</g>
				<path fill="#D6D6D6" d="M12.193,215.284c0,0,4.142-2.388,5.575-7.007c0,0-23.408-13.534-35.029-21.814
					C-17.261,186.462,0.253,208.596,12.193,215.284z"/>
				<path fill="#282828" d="M-17.261,186.462c0,0-9.023,31.264-9.023,78.819h51.8c0,0,1.382-28.448-13.323-49.998L-17.261,186.462z"
					/>
				<path fill="#2D2D2D" d="M3.116,205.624c0,0-7.374-6.846-8.915-7.855l3.451,11.039l2.865-2.175l0.742,2.175l13.642,10.668
					C14.901,219.476,12.618,213.744,3.116,205.624z"/>
				<path fill="#282828" d="M18.773,211.647c-0.914,0.305-0.948,2.869-0.948,2.869c3.923,1.726,9.168,18.062,9.168,18.062
					c3.121,7.381,3.122,22.148,3.122,22.148c0,2.665,2.816,7.535,2.816,7.535c1.367-1.142,2.207-3.804,2.207-3.804
					c0.684-5.102-1.142-15.755-1.142-15.755C32.399,227.022,18.773,211.647,18.773,211.647z"/>
			</g>
			<g>
				<g>
					<path fill="#DEDFE0" d="M370.067,522.168C628.52,481.387,661.296,321.257,661.143,241.95
						c-43.606-32.638-90.701-47.581-90.701-47.581C424.078-74.664-318.517-17.416-318.517-17.416l-322.732,32.439V570.02
						C-253.123,592.965,104.049,564.14,370.067,522.168z M-25.856,137.135c0-12.26,9.941-22.2,22.203-22.2h50.622
						c12.263,0,22.203,9.939,22.203,22.2v82.597c0,12.261-9.94,22.2-22.203,22.2H-3.654c-12.261,0-22.203-9.939-22.203-22.2V137.135
						z M-147.653,137.135c0-12.26,9.943-22.2,22.204-22.2h50.624c12.262,0,22.202,9.939,22.202,22.2v82.597
						c0,12.261-9.94,22.2-22.202,22.2h-50.624c-12.261,0-22.204-9.939-22.204-22.2V137.135z M-268.108,137.135
						c0-12.26,9.941-22.2,22.203-22.2h50.623c12.262,0,22.203,9.939,22.203,22.2v82.597c0,12.261-9.941,22.2-22.203,22.2h-50.623
						c-12.262,0-22.203-9.939-22.203-22.2V137.135z M-416.351,219.732c0,12.261-9.939,22.2-22.201,22.2h-50.622
						c-12.263,0-22.204-9.939-22.204-22.2v-82.597c0-12.26,9.941-22.2,22.204-22.2h50.622c12.262,0,22.201,9.939,22.201,22.2
						V219.732z M-389.904,219.732v-82.597c0-12.26,9.939-22.2,22.204-22.2h50.622c12.262,0,22.202,9.939,22.202,22.2v82.597
						c0,12.261-9.94,22.2-22.202,22.2H-367.7C-379.964,241.932-389.904,231.993-389.904,219.732z"/>
					<path fill="#DEDFE0" d="M327.58,580.011c312.973-38.634,358.476-84.138,404.251-189.495
						c27.485-63.257-28.167-116.737-70.688-148.566c0.153,79.307-32.623,239.437-291.075,280.218
						c-266.019,41.972-623.19,70.797-1011.316,47.852v48.884c39.796,1.155,88.576,2.345,149.669,3.729
						C-173.1,629.844,327.58,580.011,327.58,580.011z"/>
				</g>
				<path fill="#A5A5A5" d="M44.97,499.42c-276.618-76.269-417.79,0-417.79,0v144.688c11.46,4.967,22.999,9.358,34.567,13.239
					H11.333c21.354-5.927,33.637-10.542,33.637-10.542V499.42z"/>
				<ellipse fill="#A5A5A5" cx="42.282" cy="573.052" rx="23.644" ry="74.282"/>
			</g>
			
				<path fill="none" stroke="#C18963" stroke-width="0.5518" stroke-linecap="round" stroke-linejoin="round" stroke-miterlimit="10" d="
				M33.973,189.997c0,0-2.188,0.536-3.96-0.71"/>
		</g>
		<path fill="#869FAD" d="M440.902,128.701v68.704H553.33c0,0-15.616-28.552-54.874-68.704H440.902z"/>
		<path fill="none" stroke="#AFB1B2" stroke-width="1.3384" stroke-miterlimit="10" d="M440.902,128.701v68.704H553.33
			c0,0-15.616-28.552-54.874-68.704H440.902z"/>
		<path fill="#AFB1B2" d="M46.968,114.936H-3.654c-12.261,0-22.203,9.939-22.203,22.2v82.597c0,12.261,9.941,22.2,22.203,22.2
			h50.622c12.263,0,22.203-9.939,22.203-22.2v-82.597C69.171,124.875,59.231,114.936,46.968,114.936z M61.181,219.732
			c0,7.833-6.377,14.208-14.212,14.208H-3.654c-7.834,0-14.208-6.375-14.208-14.208v-82.597c0-7.832,6.374-14.208,14.208-14.208
			h50.622c7.835,0,14.212,6.375,14.212,14.208V219.732z"/>
	</g>
	<g display="inline" opacity="0.3">
		<path fill="#FFFFFF" d="M703.936,440.782c-135.553-7.794-247.349,19.152-249.707,60.185
			c-2.359,41.029,105.612,80.61,241.164,88.404c36.774,2.114,71.792,1.667,103.358-0.921V452.042
			C769.704,446.631,737.676,442.721,703.936,440.782z"/>
		<path fill="#FFFFFF" d="M533.004,295.186c-89.172-5.127-164.434,42.366-168.096,106.084
			c-3.663,63.712,65.658,119.521,154.831,124.646c89.174,5.128,164.434-42.368,168.097-106.081
			C691.499,356.119,622.178,300.312,533.004,295.186z"/>
		
			<ellipse transform="matrix(0.0574 -0.9984 0.9984 0.0574 -50.8104 1010.3964)" fill="#FFFFFF" cx="509.673" cy="532.106" rx="81.06" ry="102.323"/>
		<path fill="#FFFFFF" d="M703.206,360.875c-81.33-4.676-149.447,29.549-152.144,76.441c-2.695,46.894,61.05,88.699,142.381,93.375
			c40.542,2.331,77.799-5.007,105.308-18.76V387.334C773.622,372.833,740.239,363.003,703.206,360.875z"/>
		
			<ellipse transform="matrix(0.0574 -0.9984 0.9984 0.0574 -198.8456 820.1987)" fill="#FFFFFF" cx="334.933" cy="515.403" rx="66.444" ry="144.848"/>
		
			<ellipse transform="matrix(0.0574 -0.9984 0.9984 0.0574 -121.3783 747.8994)" fill="#FFFFFF" cx="335.376" cy="438.228" rx="66.444" ry="103.651"/>
	</g>
	<path display="inline" opacity="0.4" fill="#FFFFFF" d="M280.624,520.014c4.845-6.639,7.565-14.042,7.565-21.854
		c0-28.526-36.075-51.652-80.578-51.652c-8.427,0-16.549,0.832-24.184,2.37c-12.351-40.348-62.643-70.553-122.816-70.553
		c-46.639,0-87.346,18.144-109.05,45.093c-8.347-1.115-17.043-1.705-25.978-1.705c-63.33,0-114.669,29.602-114.669,66.117
		c0,2.162,0.186,4.299,0.538,6.408c-49.064,10.472-81.117,27.758-81.117,47.312c0,31.949,85.567,57.852,191.118,57.852
		c27.624,0,53.875-1.776,77.585-4.97c13.697,19.007,39.506,31.829,69.111,31.829c27.494,0,51.729-11.052,66.016-27.853
		c19.274,7.084,43.73,11.323,70.349,11.323c62.189,0,112.604-23.126,112.604-51.653
		C317.116,543.013,303.053,529.457,280.624,520.014z"/>
</g>
<g id="_x34_7">
	<g display="none">
		<rect x="-641.25" y="-42.837" display="inline" fill="#CC3A33" width="1440" height="700"/>
		<g display="inline">
			
				<path fill="none" stroke="#D48D51" stroke-width="62.9844" stroke-linecap="round" stroke-linejoin="round" stroke-miterlimit="10" d="
				M439.131,392.643c0,0-85.294,117.562-176.697,127.724c-94.478,10.493-180.895,5.247-230.941,5.247"/>
			<path fill="none" stroke="#032C6D" stroke-width="65.3753" stroke-linejoin="round" stroke-miterlimit="10" d="M439.131,392.643
				c0,0-67.673,93.271-147.065,120.83"/>
		</g>
		<path display="inline" fill="#D48D51" d="M512.309,91.235c-55-53.906-195.368-17.332-195.368-17.332
			c-8.145,17.358-4.732,76.364-4.732,76.364c-5.965,13.056-25.884,50.554-25.884,50.554c-5.859,17.882,18.794,15.073,18.794,15.073
			c3.759,9.861-2.629,51.966,1.209,68.712c15.502,67.646,121.911,15.665,121.911,15.665
			c94.782-23.508,116.096-88.304,116.096-88.304C585.678,140.91,512.309,91.235,512.309,91.235z"/>
		
			<path display="inline" fill="none" stroke="#B77849" stroke-width="3.8511" stroke-linecap="round" stroke-linejoin="round" stroke-miterlimit="10" d="
			M309.438,255.31c0,0,18.899,4.631,34.196-6.134"/>
		<path display="inline" fill="#181812" d="M533.468,32.406c0,0-13.343-25.844-48.584-39.846c0,0-67.577-24.943-84.466,1.841
			c0,0-43.671-3.315-54.021,10.547c0,0-17.722,14.584-30.409,12.306c-12.687-2.28-37.796,44.848-0.683,66.48
			c0,0,41.466,13.017,70.193,8.128c0,0,20.955,55.787,51.758,68.184c0,0,9.245,33.314,13.171,50.412l9.208-0.912
			c0,0-3.016-21.096,3.885-30.333c0,0,41.782,14.286,39.17,57.519l5.072,43.771c0,0,63.667-37.171,65.649-96.155
			c0,0,18.797-69.573,3.117-98.345C576.529,86.002,573.795,45.159,533.468,32.406z"/>
		<g display="inline">
			<path fill="#161616" d="M355.446,362.803l25.66,36.522c0,0,133.404,28.552,141.206-36.522
				C522.312,362.803,416.767,339.113,355.446,362.803z"/>
			<path fill="#D48D51" d="M370.147,262.545c0,209.409-44.403,238.312-44.403,238.312h221.276c0,0-43.402-81.467-43.621-238.312
				C503.34,217.931,370.147,217.931,370.147,262.545z"/>
			<g>
				<path fill="#022B6D" d="M533.139,385.062l-91.683-0.304h-5.145l-89.313-6.133c-27.092,59.889-32.467,68.48-32.467,183.11
					c0,40.037,0,71.213,0,95.427h248.708c0-24.214,0-55.39,0-95.427C563.239,447.106,558.653,422.382,533.139,385.062z"/>
			</g>
			<path fill="#022B6D" d="M344.621,385.062l96.668,34.286v-34.286c-47.544,0-85.843-22.259-85.843-22.259
				C346.741,376.119,344.621,385.062,344.621,385.062z"/>
			<path fill="#022B6D" d="M436.465,385.062v34.286l96.674-34.286c0,0-2.13-8.943-10.826-22.259
				C522.312,362.803,484.006,385.062,436.465,385.062z"/>
		</g>
		<path display="inline" fill="#D48D51" d="M461.751,186.163l5.691,24.739c39.096,54.225,47.321-23.986,45.443-38.813
			C506.861,123.938,461.751,186.163,461.751,186.163z"/>
		
			<path display="inline" fill="none" stroke="#B77849" stroke-width="3.8511" stroke-linecap="round" stroke-linejoin="round" stroke-miterlimit="10" d="
			M490.121,174.604c0,0,14.716,14.094-3.358,30.874"/>
		<rect x="382.31" y="411.638" display="inline" fill="#022B6D" width="141.917" height="113.232"/>
		<g display="inline">
			<g>
				<path fill="#D48D51" d="M486.93,516.833c14.069-45.189,18.416-83.192,18.594-84.788c1.93-17.286-10.519-32.862-27.804-34.792
					c-17.292-1.933-32.862,10.519-34.792,27.804c-0.037,0.331-3.837,33.551-16.135,73.053
					c-15.414,49.505-36.724,85.213-61.623,103.261c-29.009,21.021-58.319,39.564-85.803,55.792h116.085
					c2.227-1.584,4.453-3.18,6.68-4.793C438.637,625.91,467.166,580.309,486.93,516.833z"/>
			</g>
			<path fill="none" stroke="#032C6D" stroke-width="65.3753" stroke-linejoin="round" stroke-miterlimit="10" d="M474.226,428.551
				c0,0-12.787,114.524-68.214,177.693"/>
		</g>
		<polygon display="inline" fill="#022B6D" points="407.901,405.875 404.121,504.169 515.647,545.755 530.77,439.9 506.196,386.972 
					"/>
		<g display="inline">
			<path fill="#282828" d="M-133.121,360.318c-44.268-0.606-102.31,34.651-102.31,34.651l103.666,262.193H7.723
				C-4.168,457.969-133.121,360.318-133.121,360.318z"/>
			
				<path fill="none" stroke="#F4B07D" stroke-width="65.6563" stroke-linecap="round" stroke-linejoin="round" stroke-miterlimit="10" d="
				M-236.323,451.677c28.392,27.741,63.052,52.845,100.39,60.822c99.248,21.157,123.967,17.988,177.12,23.294"/>
			<path fill="none" stroke="#282828" stroke-width="67.2357" stroke-linejoin="round" stroke-miterlimit="10" d="M-310.119,358.1
				c0,0,78.157,133.921,174.186,154.399c99.248,21.157,123.967,17.988,177.12,23.294"/>
		</g>
		<path display="inline" fill="#2B1609" d="M347.462,141.157c-4.836,0-8.756,3.916-8.756,8.757c0,4.83,3.92,8.75,8.756,8.75
			s8.752-3.92,8.752-8.75C356.214,145.072,352.298,141.157,347.462,141.157z"/>
		<g display="inline">
			<path fill="#0B110F" d="M324.693,125.157c0,0,0.051-0.031,0.148-0.092c0.108-0.065,0.27-0.162,0.48-0.288
				c0.386-0.224,0.929-0.524,1.62-0.872c1.38-0.699,3.352-1.594,5.79-2.432c1.218-0.422,2.551-0.829,3.98-1.183
				c1.423-0.374,2.954-0.654,4.534-0.908c1.593-0.208,3.237-0.4,4.923-0.432c1.68-0.067,3.391,0.005,5.086,0.149
				c1.694,0.181,3.379,0.42,5.001,0.812c0.405,0.095,0.809,0.189,1.21,0.283c0.396,0.116,0.789,0.232,1.18,0.347
				c0.785,0.214,1.541,0.483,2.279,0.758c0.745,0.252,1.455,0.558,2.145,0.864c0.697,0.287,1.36,0.604,1.992,0.939
				c1.288,0.619,2.427,1.341,3.488,1.969c1.014,0.707,1.981,1.289,2.753,1.922c0.783,0.617,1.491,1.114,2.015,1.598
				c1.07,0.932,1.682,1.463,1.682,1.463c0.607,0.529,0.671,1.45,0.143,2.057c-0.486,0.56-1.306,0.658-1.907,0.258l-0.075-0.05
				c0,0-0.633-0.421-1.741-1.158c-0.54-0.387-1.258-0.758-2.045-1.229c-0.778-0.49-1.732-0.899-2.724-1.42
				c-1.033-0.438-2.128-0.954-3.338-1.349c-0.595-0.226-1.214-0.428-1.856-0.597c-0.637-0.189-1.286-0.375-1.961-0.507
				c-0.668-0.156-1.347-0.303-2.044-0.397c-0.347-0.055-0.694-0.111-1.044-0.167l-1.062-0.104c-1.416-0.156-2.865-0.167-4.301-0.136
				c-1.438,0.067-2.868,0.19-4.26,0.431c-1.395,0.205-2.746,0.551-4.039,0.891c-1.287,0.388-2.521,0.778-3.66,1.246
				c-1.144,0.447-2.201,0.927-3.156,1.405c-1.914,0.95-3.417,1.888-4.408,2.567c-0.496,0.338-0.866,0.613-1.096,0.791
				c-0.126,0.096-0.19,0.15-0.218,0.177c-0.059,0.048-0.088,0.072-0.088,0.072c-2.015,1.649-4.983,1.353-6.632-0.661
				c-1.649-2.014-1.354-4.983,0.66-6.632c0.156-0.128,0.318-0.244,0.484-0.349L324.693,125.157z"/>
		</g>
		<path display="inline" opacity="0.1" fill="#231F20" d="M354.827,232.258c-11.928-6.332-14.274-19.772-14.274-19.772
			c-1.096,15.924,6.185,19.838,11.718,23.067c12.085,7.06,10.249,16.475,10.249,16.475
			C365.266,241.039,358.586,234.257,354.827,232.258z"/>
	</g>
	<g>
		<g>
			
				<path fill="none" stroke="#D48D51" stroke-width="62.9844" stroke-linecap="round" stroke-linejoin="round" stroke-miterlimit="10" d="
				M439.131,392.643c0,0-85.294,117.562-176.697,127.724c-94.478,10.493-180.895,5.247-230.941,5.247"/>
			<path fill="none" stroke="#FFFFFF" stroke-width="65.3753" stroke-linejoin="round" stroke-miterlimit="10" d="M439.131,392.643
				c0,0-67.673,93.271-147.065,120.83"/>
		</g>
		<g>
			<path fill="#161616" d="M355.446,362.803l25.66,36.522c0,0,133.404,28.552,141.206-36.522
				C522.312,362.803,416.767,339.113,355.446,362.803z"/>
			<path fill="#D48D51" d="M370.147,262.545c0,25.34-0.65,48.038-1.794,68.36c-8.302,147.62-42.609,169.952-42.609,169.952h221.276
				c0,0-43.402-81.467-43.621-238.312C503.34,217.931,370.147,217.931,370.147,262.545z"/>
			<path fill="#FFFFFF" d="M533.367,385.062l-91.025,10.769l-6.284-2l-87.419-15.205c-26.887,59.889-32.221,68.48-32.221,183.11
				c0,40.037,0,71.213,0,95.427h246.821c0-24.214,0-55.39,0-95.427C563.239,447.106,558.688,422.382,533.367,385.062z"/>
			<path fill="#294BC0" d="M438.792,384.104c-46.01-0.725-82.713-22.033-82.713-22.033c-8.624,13.199-10.738,22.068-10.738,22.068
				s37.434,33.143,93.451,33.143c52.023,0,93.453-33.143,93.453-33.143s-2.104-8.869-10.735-22.068
				C521.51,362.071,484.813,383.379,438.792,384.104z"/>
			<path fill="#294BC0" d="M376.534,384.345l-29.796-5.144c-27.092,59.889-32.467,68.48-32.467,183.11c0,39.716,0,70.72,0,94.851
				h16.22v-69.424C330.491,465.468,359.978,407.345,376.534,384.345z"/>
			<path fill="#294BC0" d="M473.271,392.792l-30.78,3.614l-6.333-2l-15.256-2.634c-16.864,27.044-41.078,85.159-41.078,195.966
				v69.424h53v-69.424C432.824,478.308,456.441,420.267,473.271,392.792z"/>
		</g>
		<path opacity="0.2" fill="#231F20" d="M365.501,331.163c55.25,31.75,128.25-36.75,128.25-36.75
			c-22.25,14.75-127.75,32.75-127.75,32.75L365.501,331.163z"/>
		<g>
			
				<path fill="none" stroke="#D48D51" stroke-width="62.9844" stroke-linecap="round" stroke-linejoin="round" stroke-miterlimit="10" d="
				M517.7,445.346c0,0-73.788,125.104-163.821,143.866c-93.062,19.384-179.587,22.336-229.409,27.07"/>
			<path fill="none" stroke="#FFFFFF" stroke-width="65.3753" stroke-linejoin="round" stroke-miterlimit="10" d="M517.7,445.346
				c0,0-58.547,99.255-134.975,134.2"/>
		</g>
		<polygon fill="#FFFFFF" points="463.751,420.164 440.418,494.83 538.647,545.755 553.77,439.9 530.418,398.163 		"/>
		<path fill="#D48D51" d="M513.353,105.926c-55.91-54.373-197.918-16.781-197.918-16.781c-6.055,13.043-4.351,37.732-10.023,57.727
			c-1.896,6.687,3.565,13.946,1.918,18.648c-10.855,30.988-17.748,35.443-20.77,48.215c-4.387,18.543,17.465,19.251,17.465,19.251
			c3.315,16.966-7.275,35.865,0.979,49.245c4.567,7.404-1.358,12.24-1.362,19.741c-0.039,60.124,125.401,15.975,125.401,15.975
			c95.893-24.181,117.22-89.886,117.22-89.886C587.849,155.938,513.353,105.926,513.353,105.926z"/>
		
			<path fill="none" stroke="#B77849" stroke-width="3.8511" stroke-linecap="round" stroke-linejoin="round" stroke-miterlimit="10" d="
			M302.295,270.413c0,0,18.082,7.189,34.716-1.366"/>
		<path fill="#181812" d="M533.468,50.406c0,0-13.343-25.844-48.584-39.846c0,0-67.577-24.943-84.466,1.841
			c0,0-43.671-3.315-54.021,10.547c0,0-17.722,14.584-30.409,12.306c-12.687-2.28-37.796,44.848-0.683,66.48
			c0,0,41.466,13.017,70.193,8.128c0,0,20.955,55.787,51.758,68.184c0,0,9.245,33.314,13.171,50.412l9.208-0.912
			c0,0-4.218-19.382,6.449-29.382c0,0,39.218,13.335,36.605,56.568l1.062,47.432c0,0,67.678-40.832,69.66-99.815
			c0,0,18.797-69.573,3.117-98.345C576.529,104.002,573.795,63.159,533.468,50.406z"/>
		<path fill="#D48D51" d="M461.751,204.163l5.691,24.739c39.096,54.225,47.321-23.986,45.443-38.813
			C506.861,141.938,461.751,204.163,461.751,204.163z"/>
		
			<path fill="none" stroke="#B77849" stroke-width="3.8511" stroke-linecap="round" stroke-linejoin="round" stroke-miterlimit="10" d="
			M490.121,192.604c0,0,14.716,14.094-3.358,30.874"/>
		<path fill="#2B1609" d="M338.008,159.874c-4.775-0.761-9.263,2.488-10.025,7.269c-0.761,4.77,2.492,9.258,7.269,10.02
			c4.775,0.762,9.26-2.493,10.021-7.262C346.034,165.119,342.783,160.636,338.008,159.874z"/>
		<g>
			<path fill="#0B110F" d="M318.044,140.488c0,0,0.055-0.023,0.161-0.067c0.117-0.047,0.292-0.118,0.52-0.209
				c0.417-0.161,1-0.371,1.737-0.606c1.473-0.473,3.561-1.046,6.101-1.489c1.269-0.225,2.649-0.417,4.117-0.541
				c1.464-0.146,3.02-0.181,4.621-0.183c1.605,0.045,3.26,0.115,4.929,0.349c1.67,0.199,3.348,0.539,4.999,0.949
				c1.646,0.445,3.271,0.947,4.811,1.589c0.386,0.157,0.77,0.314,1.151,0.47c0.372,0.177,0.742,0.354,1.109,0.528
				c0.741,0.335,1.446,0.72,2.131,1.108c0.697,0.367,1.35,0.78,1.982,1.19c0.644,0.393,1.249,0.81,1.819,1.242
				c1.175,0.814,2.185,1.707,3.135,2.494c0.89,0.858,1.754,1.585,2.416,2.332c0.676,0.732,1.298,1.335,1.737,1.896
				c0.91,1.088,1.431,1.71,1.431,1.71c0.517,0.618,0.435,1.537-0.184,2.054c-0.568,0.476-1.393,0.444-1.923-0.046l-0.067-0.062
				c0,0-0.559-0.516-1.537-1.417c-0.473-0.467-1.122-0.946-1.826-1.536c-0.69-0.606-1.569-1.161-2.466-1.832
				c-0.95-0.596-1.95-1.277-3.084-1.858c-0.551-0.316-1.131-0.613-1.738-0.882c-0.599-0.287-1.211-0.573-1.856-0.81
				c-0.636-0.259-1.282-0.511-1.957-0.713c-0.333-0.109-0.667-0.219-1.004-0.329l-1.033-0.27c-1.374-0.377-2.803-0.616-4.226-0.812
				c-1.431-0.16-2.862-0.263-4.274-0.245c-1.409-0.017-2.798,0.111-4.129,0.244c-1.332,0.18-2.612,0.372-3.811,0.654
				c-1.199,0.261-2.319,0.569-3.338,0.89c-2.04,0.637-3.672,1.327-4.758,1.841c-0.544,0.256-0.952,0.468-1.206,0.608
				c-0.14,0.075-0.212,0.119-0.243,0.14c-0.065,0.038-0.099,0.058-0.099,0.058c-2.249,1.311-5.134,0.551-6.445-1.697
				c-1.312-2.249-0.552-5.134,1.697-6.445c0.174-0.102,0.352-0.191,0.533-0.268L318.044,140.488z"/>
		</g>
		<path fill="#FFFFFF" d="M346.998,378.625"/>
	</g>
</g>
<g id="_x34_8" display="none">
	<rect x="-641.249" y="-42.837" display="inline" fill="#CC3A33" width="1440" height="699.999"/>
	<polygon display="inline" opacity="0.3" fill="#FFFFFF" points="-103.341,-42.837 -203.341,657.162 360.715,657.162 
		260.715,-42.837 	"/>
	<ellipse display="inline" opacity="0.3" fill="#231F20" cx="82.867" cy="562.939" rx="148.5" ry="4.556"/>
	<g display="inline">
		<path fill="#776537" d="M28.432,147.199c0,0-4.944,1.807-4.896,10.171c0.018,2.803,1.507,10.171-3.767,10.548
			c0,0,6.404,0.754,8.287-3.39c0,0-0.376,7.534-3.391,9.417c0,0,17.706,7.534,20.719-9.417l-1.507-24.862
			C43.877,139.666,32.953,135.144,28.432,147.199z"/>
		<path fill="#776537" d="M139.914,157.37c0.047-8.364-4.897-10.171-4.897-10.171c-4.521-12.055-15.444-7.533-15.444-7.533
			l-1.507,24.862c3.014,16.951,20.719,9.417,20.719,9.417c-3.014-1.883-3.392-9.417-3.392-9.417c1.885,4.144,8.289,3.39,8.289,3.39
			C138.407,167.541,139.896,160.172,139.914,157.37z"/>
		<g>
			<polygon fill="#B7B7B7" points="22.279,188.825 36.217,200.88 34.333,187.318 			"/>
			<polygon fill="#B7B7B7" points="127.19,200.88 141.13,188.825 129.075,187.318 			"/>
			<path fill="#F4B07D" d="M34.248,143.311c0,41.182-23.268,127.112-23.268,127.112h142.142c0,0-23.686-67.595-23.686-127.112
				C129.437,119.517,34.248,119.515,34.248,143.311z"/>
			<g>
				<path fill="#776537" d="M30.08,62.652c-13.847,10.627-19.962,54.781,3.344,78.09L84.02,84.165l-1.194-21.908
					C82.825,62.257,64.343,36.359,30.08,62.652z"/>
				<path fill="#776537" d="M135.753,62.652c-34.264-26.292-52.745-0.395-52.745-0.395l-1.194,21.908l50.596,56.577
					C155.716,117.433,149.597,73.282,135.753,62.652z"/>
				<path fill="#F4B07D" d="M80.177,71.664c-30.319-0.438-43.053,20.024-43.053,20.024c-10.642,17.414-7.461,71.209-7.461,71.209
					c0,26.616,36.917,47.824,52.421,47.824c15.506,0,52.556-19.824,52.556-47.824c0,0,2.614-53.795-8.028-71.209
					C126.611,91.688,110.613,71.225,80.177,71.664z"/>
				<g>
					<path opacity="0.1" fill="#232222" d="M82.071,191.815c-18.069,0-25.598-10.542-25.598-10.542s4.141,14.31,24.718,14.31
						c20.831,0,24.719-14.31,24.719-14.31C94.108,193.075,82.071,191.815,82.071,191.815z"/>
				</g>
				<g opacity="0.2">
					<path fill="#231F20" d="M94.982,136.063c0.153,0.148,0.314,0.329,0.452,0.487c0.139,0.168,0.28,0.334,0.407,0.512
						c0.259,0.354,0.505,0.72,0.706,1.127c0.105,0.199,0.204,0.403,0.279,0.625c0.087,0.214,0.164,0.435,0.209,0.675
						c0.059,0.232,0.106,0.469,0.107,0.724c0.019,0.25,0.026,0.5-0.029,0.757c-0.037,0.257-0.075,0.514-0.19,0.75
						c-0.104,0.236-0.18,0.499-0.343,0.691c-0.151,0.201-0.295,0.419-0.462,0.599l-0.543,0.48c-0.178,0.175-0.381,0.27-0.576,0.395
						l-0.593,0.352l-1.224,0.512l-0.034,0.015l-0.114,0.021c-0.487,0.089-1.041,0.236-1.544,0.406
						c-0.511,0.172-1.005,0.379-1.462,0.625c-0.456,0.244-0.892,0.514-1.236,0.841c-0.36,0.335-0.566,0.635-0.897,1.185
						c-0.342,0.508-0.727,1.116-1.324,1.55c-0.271,0.251-0.586,0.405-0.898,0.57c-0.311,0.189-0.63,0.267-0.948,0.372
						c-0.644,0.246-1.26,0.262-1.892,0.386c-0.632,0.034-1.184,0.074-1.88,0.084c-0.59-0.039-1.138-0.035-1.761-0.108
						c-0.646-0.102-1.294-0.171-1.921-0.401l-0.473-0.148c-0.156-0.068-0.311-0.151-0.465-0.228
						c-0.314-0.146-0.616-0.317-0.891-0.553c-0.587-0.415-1.004-0.997-1.364-1.513l-0.239-0.375l-0.06-0.093l-0.03-0.047
						c0.058,0.083-0.002-0.002,0.002,0.005l-0.129-0.175c-0.195-0.28-0.285-0.33-0.458-0.51c-0.344-0.328-0.781-0.597-1.235-0.843
						c-0.458-0.245-0.952-0.452-1.462-0.625c-0.503-0.169-1.057-0.316-1.544-0.406l-0.114-0.021l-0.034-0.015l-1.223-0.512
						l-0.593-0.352c-0.195-0.125-0.398-0.22-0.576-0.395l-0.542-0.479c-0.167-0.179-0.311-0.398-0.461-0.599
						c-0.163-0.192-0.239-0.455-0.343-0.69c-0.116-0.236-0.154-0.493-0.191-0.749c-0.056-0.257-0.048-0.507-0.029-0.757
						c0-0.254,0.047-0.492,0.106-0.724c0.044-0.24,0.121-0.46,0.208-0.675c0.076-0.222,0.174-0.427,0.28-0.626
						c0.2-0.406,0.446-0.773,0.704-1.127c0.268-0.355,0.528-0.674,0.865-1.007c0.253-0.25,0.662-0.247,0.911,0.006
						c0.242,0.245,0.247,0.634,0.019,0.885l-0.018,0.02c-0.229,0.25-0.468,0.571-0.671,0.876c-0.203,0.312-0.394,0.633-0.533,0.963
						c-0.077,0.164-0.146,0.328-0.19,0.495c-0.058,0.165-0.106,0.33-0.123,0.493c-0.034,0.164-0.059,0.325-0.044,0.479
						c-0.005,0.157-0.005,0.311,0.043,0.451c0.03,0.145,0.049,0.291,0.132,0.416c0.074,0.126,0.098,0.272,0.218,0.381
						c0.102,0.115,0.178,0.243,0.289,0.355l0.381,0.312c0.111,0.116,0.286,0.186,0.435,0.274l0.459,0.259l1.034,0.396l-0.148-0.036
						c0.658,0.101,1.231,0.24,1.834,0.42c0.594,0.181,1.182,0.405,1.757,0.69c0.572,0.288,1.134,0.633,1.643,1.097
						c0.243,0.22,0.577,0.575,0.709,0.774l0.13,0.174l0.096,0.137l0.058,0.089l0.233,0.357c0.307,0.423,0.583,0.806,0.958,1.052
						c0.092,0.065,0.174,0.141,0.271,0.201l0.316,0.152l0.315,0.156l0.36,0.104c0.468,0.174,0.982,0.214,1.481,0.299
						c0.527,0.062,1.146,0.056,1.714,0.088l1.597-0.062c0.504-0.102,1.071-0.11,1.517-0.292c0.232-0.074,0.484-0.126,0.67-0.251
						c0.2-0.105,0.416-0.195,0.569-0.35c0.361-0.239,0.618-0.637,0.924-1.081c0.265-0.444,0.72-1.112,1.229-1.551
						c0.509-0.464,1.071-0.809,1.643-1.098c0.575-0.285,1.163-0.509,1.758-0.69c0.604-0.18,1.177-0.319,1.835-0.419l-0.148,0.035
						l1.034-0.396l0.459-0.258c0.148-0.089,0.324-0.159,0.435-0.275l0.382-0.311c0.11-0.112,0.187-0.24,0.288-0.355
						c0.119-0.109,0.144-0.254,0.218-0.381c0.083-0.125,0.102-0.271,0.132-0.416c0.048-0.14,0.047-0.294,0.042-0.451
						c0.015-0.154-0.01-0.315-0.044-0.479c-0.018-0.163-0.065-0.328-0.124-0.493c-0.044-0.167-0.112-0.331-0.189-0.495
						c-0.293-0.652-0.727-1.303-1.212-1.846l-0.006-0.006c-0.237-0.265-0.215-0.673,0.051-0.91
						C94.356,135.818,94.742,135.831,94.982,136.063z"/>
				</g>
				<circle fill="#2E230E" cx="55.714" cy="121.677" r="2.902"/>
				<path fill="#593B2E" d="M65.028,111.023c0,0-16.637-2.863-24.436,9.625c0,0,9.895-9.466,23.897-5.781
					C64.49,114.867,68.499,112.506,65.028,111.023z"/>
				<circle fill="#2E230E" cx="106.448" cy="121.677" r="2.902"/>
				<path fill="#593B2E" d="M96.74,112.106c-3.317,1.799,0.891,3.779,0.891,3.779c13.606-4.968,24.33,3.537,24.33,3.537
					C113.038,107.716,96.74,112.106,96.74,112.106z"/>
				<path fill="#F4B07D" d="M20.462,129.585c-1.107,4.662-1.198,29.88,13.144,13.947l0.4-12.752
					C34.006,130.78,24.047,114.446,20.462,129.585z"/>
				
					<path fill="none" stroke="#C18963" stroke-width="1.5936" stroke-linecap="round" stroke-linejoin="round" stroke-miterlimit="10" d="
					M27.632,131.177c0,0-5.18,3.985,0,9.958"/>
				<path fill="#F4B07D" d="M128.586,130.78l0.403,12.752c14.338,15.934,14.25-9.285,13.144-13.947
					C138.549,114.446,128.586,130.78,128.586,130.78z"/>
				
					<path fill="none" stroke="#C18963" stroke-width="1.5936" stroke-linecap="round" stroke-linejoin="round" stroke-miterlimit="10" d="
					M134.964,131.177c0,0,5.177,3.985,0,9.958"/>
				
					<path fill="none" stroke="#C18963" stroke-width="1.9905" stroke-linecap="round" stroke-linejoin="round" stroke-miterlimit="10" d="
					M65.891,158.341c0,0,16.854,9.241,31.396-1.624"/>
				<path fill="#776537" d="M88.641,64.912l-36.117,3.982l-24.436,5.312c0,0-5.85,34.934-5.053,35.198
					c0.795,0.265,28.159-14.215,28.159-14.215l31.744-11.024l47.142,14.477l9.564-3.982l-5.048-24.968L88.641,64.912z"/>
				<path opacity="0.3" fill="#231F20" d="M130.079,90.843l-47.413-6.678c0,0,19.127,44.357,61.621,21.649
					C144.287,105.814,132.07,99.207,130.079,90.843z"/>
				<path opacity="0.3" fill="#231F20" d="M29.01,106.121C70.895,117.333,82.396,83.83,82.396,83.83l-40.234,9.747
					C38.615,101.502,29.01,106.121,29.01,106.121z"/>
				<path fill="#776537" d="M130.079,90.143l-47.142-5.978c0,0,17.929,38.383,58.295,21.12
					C141.232,105.285,132.07,98.51,130.079,90.143z"/>
				<path fill="#776537" d="M33.218,105.173C67.75,110.97,82.396,83.83,82.396,83.83l-40.361,7.681
					C40.763,98.836,33.218,105.173,33.218,105.173z"/>
				<path fill="#776537" d="M86.786,37.819c-6.109,2.125-9.029,16.469-9.029,16.469c0-6.91-7.175-13.814-7.175-13.814
					c2.178,9.412-4.25,11.69-4.25,11.69l-4.247,18.323l24.433,4.515l13.282-16.198l3.344-7.664
					C84.562,56.666,86.786,37.819,86.786,37.819z"/>
			</g>
		</g>
		
			<path fill="none" stroke="#F4B07D" stroke-width="29.1108" stroke-linecap="round" stroke-linejoin="round" stroke-miterlimit="10" d="
			M30.978,215.385c0,0-55.644,40.37-60.453,83.639c-4.967,44.719-2.484,55.484-2.484,79.172"/>
		<path fill="none" stroke="#282828" stroke-width="29.811" stroke-linejoin="round" stroke-miterlimit="10" d="M30.978,215.385
			c0,0-55.644,40.37-60.453,83.639c-4.967,44.719-2.484,55.484-2.484,79.172"/>
		
			<path fill="none" stroke="#F4B07D" stroke-width="29.1108" stroke-linecap="round" stroke-linejoin="round" stroke-miterlimit="10" d="
			M133.859,215.385c0,0,55.647,40.37,60.456,83.639c4.968,44.719,2.484,55.484,2.484,79.172"/>
		<path fill="none" stroke="#282828" stroke-width="29.811" stroke-linejoin="round" stroke-miterlimit="10" d="M133.859,215.385
			c0,0,55.647,40.37,60.456,83.639c4.968,44.719,2.484,55.484,2.484,79.172"/>
		
			<line fill="none" stroke="#2D2D2D" stroke-width="33.1501" stroke-linecap="round" stroke-linejoin="round" stroke-miterlimit="10" x1="49.44" y1="373.054" x2="49.44" y2="535.421"/>
		
			<line fill="none" stroke="#2D2D2D" stroke-width="33.1501" stroke-linecap="round" stroke-linejoin="round" stroke-miterlimit="10" x1="111.176" y1="373.054" x2="111.176" y2="535.421"/>
		<path fill="#F4B07D" d="M2.331,302.902c0,55.126,0,62.621,0,63.437c0,0.071,0,0.093,0,0.089c0,0.031,0,0.072,0,0.127
			c0,0.136,8.281,0.2,8.281,0.2h71.475V208.496H27.175C18.703,244.668,2.331,241.755,2.331,302.902z"/>
		<path fill="#F4B07D" d="M79.347,208.496v158.259h71.471c0,0,8.282-0.064,8.282-0.2c0-0.055,0-0.096,0-0.127
			c0,0.004,0-0.018,0-0.089c0-0.815,0-8.311,0-63.437c0-61.147-16.369-58.233-24.845-94.406H79.347z"/>
		<g>
			<circle opacity="0.2" fill="#232222" cx="44.545" cy="262.186" r="7.178"/>
			<path opacity="0.2" fill="#232222" d="M44.545,258.599c-1.983,0-3.59,1.606-3.59,3.587c0,1.981,1.607,3.594,3.59,3.594
				c1.984,0,3.591-1.613,3.591-3.594C48.136,260.205,46.529,258.599,44.545,258.599z"/>
		</g>
		<g>
			<circle opacity="0.2" fill="#232222" cx="116.867" cy="262.186" r="7.178"/>
			<circle opacity="0.2" fill="#232222" cx="116.867" cy="262.189" r="3.59"/>
		</g>
		<ellipse opacity="0.2" fill="#232222" cx="81.81" cy="333.078" rx="2.207" ry="3.588"/>
		<path fill="#2D2D2D" d="M80.706,432.5c43.653,0,79.04-27.108,79.04-70.762H1.665C1.665,405.392,37.053,432.5,80.706,432.5z"/>
		<path fill="#1C1C1C" d="M-14.448,561.623H65.82v-21.302C21.496,540.321-14.448,549.856-14.448,561.623z"/>
		<path fill="#1C1C1C" d="M94.553,540.321v21.302h80.263C174.815,549.856,138.881,540.321,94.553,540.321z"/>
		<rect x="30.719" y="529.712" fill="#2D2D2D" width="36.464" height="12.513"/>
		<rect x="92.923" y="529.712" fill="#2D2D2D" width="36.458" height="12.513"/>
		<rect x="2.298" y="361.845" fill="#161516" width="157.136" height="11.816"/>
		<rect x="70.361" y="361.845" fill="#D6D6D6" width="22.443" height="11.816"/>
		<rect x="26.502" y="206.718" fill="#FFFFFF" width="107.366" height="155.397"/>
		<path fill="#282828" d="M-7.481,325.519c0,0-0.63,37.544-3.229,54.731c0,0,5.015,2.272,17.649,2.272
			c0,0,25.648,3.025,28.429-0.254l-0.756-37.653L-7.481,325.519z"/>
		<path fill="#282828" d="M-5.807,363.563h40.608V201.934H22.546C-18.241,245.658-5.807,363.563-5.807,363.563z"/>
		<path fill="#282828" d="M128.887,344.616l-0.76,37.653c2.784,3.279,26.414,1.513,26.414,1.513c12.637,0,21.999-2.514,21.999-2.514
			c-3.956-12.808-3.956-51.231-3.956-51.231L128.887,344.616z"/>
		<path fill="#282828" d="M140.953,201.934h-12.256v161.629h43.622C172.319,363.563,179.656,229.585,140.953,201.934z"/>
		<polygon fill="#2D2D2D" points="32.761,231.935 12.21,257.892 34.065,337.644 34.065,201.857 12.21,230.413 		"/>
		<polygon fill="#2D2D2D" points="128.551,201.857 128.551,337.644 150.406,257.892 129.857,231.935 150.406,230.413 		"/>
		<g>
			<g>
				<polygon fill="#EA94C7" points="65.134,207.39 81.168,223.423 97.779,207.39 81.548,203.187 				"/>
				<path fill="#EA94C7" d="M81.736,211.469v-0.56l-0.28,0.276l-0.276-0.276l-0.029,0.592l-4.997,5.07L64.429,328.204
					c0,0,12.878,29.033,17.308,29.033c5.618,0,16.749-29.033,16.749-29.033L86.76,216.571L81.736,211.469z"/>
			</g>
			<polygon fill="#D6D6D6" points="22.279,188.825 22.279,201.887 64.973,221.475 82.084,203.187 26.799,190.332 			"/>
			<polygon fill="#D6D6D6" points="81.548,203.187 98.658,221.475 141.351,201.887 141.351,188.825 136.83,190.332 			"/>
		</g>
		<g>
			<path fill="#F4B07D" d="M82.554,200.573c-28.011,0-39.677-14.938-39.677-14.938s6.416,20.276,38.314,20.276
				c32.291,0,38.315-20.276,38.315-20.276C101.216,202.36,82.554,200.573,82.554,200.573z"/>
		</g>
	</g>
	<g display="inline">
		<path fill="#FFFFFF" d="M160.546,175.188c-0.867-1.253-0.892-2.064-0.892-2.064s-0.361,1.197-1.229,2.064
			c-0.378,0.378-1.871,1.036-1.871,1.036s1.663,0.503,2.016,0.939c0.703,0.869,1.084,4.384,1.084,4.384s0.261-3.512,0.988-4.384
			c0.367-0.44,2.111-0.939,2.111-0.939S161.244,176.196,160.546,175.188z"/>
		<path fill="#FFFFFF" d="M11.727,419.188c-0.867-1.254-0.892-2.064-0.892-2.064s-0.361,1.197-1.229,2.064
			c-0.378,0.377-1.871,1.035-1.871,1.035s1.663,0.503,2.016,0.939c0.703,0.869,1.084,4.384,1.084,4.384s0.261-3.513,0.988-4.384
			c0.367-0.439,2.111-0.939,2.111-0.939S12.425,420.196,11.727,419.188z"/>
		<path fill="#FFFFFF" d="M150.751,430.163c-0.867-1.254-0.892-2.064-0.892-2.064s-0.361,1.197-1.229,2.064
			c-0.378,0.377-1.871,1.035-1.871,1.035s1.663,0.503,2.016,0.939c0.703,0.869,1.084,4.384,1.084,4.384s0.261-3.513,0.988-4.384
			c0.367-0.439,2.111-0.939,2.111-0.939S151.449,431.17,150.751,430.163z"/>
		<path fill="#FFFFFF" d="M219.751,303.958c-0.867-1.253-0.892-2.064-0.892-2.064s-0.361,1.197-1.229,2.064
			c-0.378,0.378-1.871,1.036-1.871,1.036s1.663,0.503,2.016,0.94c0.703,0.868,1.084,4.384,1.084,4.384s0.261-3.513,0.988-4.384
			c0.367-0.44,2.111-0.94,2.111-0.94S220.449,304.966,219.751,303.958z"/>
		<path fill="#FFFFFF" d="M223.643,255.022c-0.867-1.253-0.892-2.064-0.892-2.064s-0.361,1.197-1.229,2.064
			c-0.378,0.378-1.871,1.036-1.871,1.036s1.663,0.502,2.016,0.939c0.703,0.869,1.084,4.384,1.084,4.384s0.261-3.512,0.988-4.384
			c0.367-0.44,2.111-0.939,2.111-0.939S224.341,256.03,223.643,255.022z"/>
		<path fill="#FFFFFF" d="M12.759,463.796c-0.867-1.253-0.892-2.063-0.892-2.063s-0.361,1.197-1.229,2.063
			c-0.378,0.378-1.871,1.036-1.871,1.036s1.663,0.503,2.016,0.939c0.703,0.869,1.084,4.384,1.084,4.384s0.261-3.513,0.988-4.384
			c0.367-0.439,2.111-0.939,2.111-0.939S13.457,464.805,12.759,463.796z"/>
		<path fill="#FFFFFF" d="M161.57,123.163c-0.867-1.253-0.892-2.064-0.892-2.064s-0.361,1.197-1.229,2.064
			c-0.378,0.378-1.871,1.036-1.871,1.036s1.663,0.503,2.016,0.94c0.703,0.868,1.084,4.383,1.084,4.383s0.261-3.512,0.988-4.383
			c0.367-0.44,2.111-0.94,2.111-0.94S162.269,124.171,161.57,123.163z"/>
		<path fill="#FFFFFF" d="M-1.346,162.188c-0.867-1.253-0.892-2.064-0.892-2.064s-0.361,1.197-1.229,2.064
			c-0.378,0.378-1.871,1.036-1.871,1.036s1.663,0.503,2.016,0.939c0.703,0.869,1.084,4.384,1.084,4.384s0.261-3.512,0.988-4.384
			c0.367-0.44,2.111-0.939,2.111-0.939S-0.647,163.196-1.346,162.188z"/>
		<path fill="#FFFFFF" d="M180.346,157.569c-2.017-2.914-2.074-4.802-2.074-4.802s-0.84,2.784-2.857,4.802
			c-0.879,0.879-4.352,2.408-4.352,2.408s3.868,1.17,4.688,2.186c1.635,2.021,2.521,10.195,2.521,10.195s0.606-8.168,2.299-10.195
			c0.854-1.023,4.911-2.186,4.911-2.186S181.97,159.914,180.346,157.569z"/>
		<path fill="#FFFFFF" d="M215.825,209.964c-2.017-2.914-2.074-4.802-2.074-4.802s-0.84,2.784-2.857,4.802
			c-0.879,0.879-4.352,2.408-4.352,2.408s3.868,1.17,4.688,2.186c1.635,2.021,2.521,10.195,2.521,10.195s0.606-8.168,2.299-10.195
			c0.854-1.023,4.911-2.186,4.911-2.186S217.449,212.309,215.825,209.964z"/>
		<path fill="#FFFFFF" d="M233.825,350.963c-2.017-2.913-2.074-4.801-2.074-4.801s-0.84,2.783-2.857,4.801
			c-0.879,0.879-4.352,2.408-4.352,2.408s3.868,1.17,4.688,2.186c1.635,2.021,2.521,10.195,2.521,10.195s0.606-8.168,2.299-10.195
			c0.854-1.022,4.911-2.186,4.911-2.186S235.449,353.309,233.825,350.963z"/>
		<path fill="#FFFFFF" d="M127.346,30.569c-2.017-2.914-2.074-4.802-2.074-4.802s-0.84,2.784-2.857,4.802
			c-0.879,0.878-4.352,2.408-4.352,2.408s3.868,1.17,4.688,2.186c1.635,2.021,2.521,10.195,2.521,10.195s0.606-8.168,2.299-10.195
			c0.854-1.023,4.911-2.186,4.911-2.186S128.97,32.914,127.346,30.569z"/>
		<path fill="#FFFFFF" d="M21.526,19.569c-2.017-2.914-2.074-4.802-2.074-4.802s-0.84,2.784-2.857,4.802
			c-0.879,0.879-4.352,2.408-4.352,2.408s3.868,1.17,4.688,2.186c1.635,2.021,2.521,10.195,2.521,10.195s0.606-8.168,2.299-10.195
			c0.854-1.023,4.911-2.186,4.911-2.186S23.15,21.914,21.526,19.569z"/>
		<path fill="#FFFFFF" d="M185.825,404.168c-2.018-2.913-2.074-4.801-2.074-4.801s-0.84,2.783-2.857,4.801
			c-0.879,0.879-4.352,2.408-4.352,2.408s3.867,1.17,4.688,2.186c1.635,2.021,2.521,10.195,2.521,10.195s0.605-8.168,2.299-10.195
			c0.854-1.022,4.91-2.186,4.91-2.186S187.448,406.514,185.825,404.168z"/>
		<path fill="#FFFFFF" d="M148.751,489.163c-2.018-2.914-2.074-4.802-2.074-4.802s-0.84,2.784-2.857,4.802
			c-0.879,0.879-4.352,2.408-4.352,2.408s3.867,1.17,4.688,2.186c1.635,2.021,2.521,10.195,2.521,10.195s0.605-8.168,2.299-10.195
			c0.854-1.023,4.91-2.186,4.91-2.186S150.374,491.507,148.751,489.163z"/>
		<path fill="#FFFFFF" d="M201.169,444.26c-5.225-7.551-5.374-12.441-5.374-12.441s-2.177,7.214-7.403,12.441
			c-2.277,2.277-11.275,6.24-11.275,6.24s10.022,3.031,12.148,5.662c4.234,5.235,6.53,26.416,6.53,26.416s1.571-21.163,5.956-26.416
			c2.214-2.652,12.725-5.662,12.725-5.662S205.377,450.335,201.169,444.26z"/>
	</g>
</g>
<g id="_x34_9_1_" display="none">
	<rect x="-641.249" y="-42.837" display="inline" fill="#CC3A33" width="1440" height="699.999"/>
	<polygon display="inline" opacity="0.3" fill="#FFFFFF" points="-215.98,-42.837 -315.98,657.162 473.354,657.162 373.354,-42.837 
			"/>
	<g display="inline">
		<g>
			<path fill="#776537" d="M-0.791,190.18c0,0-7.819,2.858-7.744,16.085c0.028,4.433,2.383,16.086-5.958,16.682
				c0,0,10.127,1.192,13.106-5.361c0,0-0.595,11.916-5.362,14.894c0,0,28.002,11.915,32.768-14.894l-2.383-39.32
				C23.636,178.266,6.359,171.115-0.791,190.18z"/>
		</g>
		<g>
			<path fill="#776537" d="M175.518,206.265c0.074-13.227-7.745-16.085-7.745-16.085c-7.149-19.064-24.426-11.914-24.426-11.914
				l-2.383,39.32c4.767,26.809,32.767,14.894,32.767,14.894c-4.766-2.979-5.363-14.894-5.363-14.894
				c2.98,6.553,13.109,5.361,13.109,5.361C173.135,222.351,175.49,210.697,175.518,206.265z"/>
		</g>
		<g>
			<g>
				<polygon fill="#B7B7B7" points="-10.523,256.012 11.52,275.077 8.542,253.629 				"/>
			</g>
			<g>
				<polygon fill="#B7B7B7" points="155.396,275.077 177.44,256.012 158.376,253.629 				"/>
			</g>
			<g>
				<path fill="#F4B07D" d="M8.407,184.031c0,65.129-36.799,201.028-36.799,201.028h224.798c0,0-37.459-106.902-37.459-201.028
					C158.947,146.4,8.407,146.397,8.407,184.031z"/>
			</g>
			<g>
				<g>
					<path fill="#776537" d="M1.815,56.468c-21.898,16.807-31.57,86.637,5.288,123.5L87.12,90.492l-1.889-34.647
						C85.231,55.844,56.002,14.887,1.815,56.468z"/>
				</g>
				<g>
					<path fill="#776537" d="M168.937,56.468c-54.188-41.582-83.416-0.624-83.416-0.624l-1.889,34.647l80.017,89.476
						C200.509,143.105,190.831,73.28,168.937,56.468z"/>
				</g>
				<g>
					<path fill="#F4B07D" d="M81.043,70.721c-47.95-0.694-68.089,31.668-68.089,31.668C-3.876,129.93,1.155,215.007,1.155,215.007
						c0,42.093,58.383,75.634,82.905,75.634c24.522,0,83.117-31.352,83.117-75.634c0,0,4.134-85.078-12.697-112.618
						C154.479,102.389,129.179,70.027,81.043,70.721z"/>
				</g>
				<g>
					<g opacity="0.1">
						<path fill="#232222" d="M84.039,260.74c-28.577,0-40.482-16.672-40.482-16.672s6.548,22.631,39.091,22.631
							c32.944,0,39.093-22.631,39.093-22.631C103.076,262.732,84.039,260.74,84.039,260.74z"/>
					</g>
				</g>
				<g opacity="0.2">
					<g>
						<path fill="#231F20" d="M63.87,183.724c-0.02-0.006-0.037-0.015-0.057-0.021c-0.061-0.01-0.115-0.024-0.177-0.034
							L63.87,183.724z"/>
						<path fill="#231F20" d="M100.986,183.667c-0.062,0.009-0.116,0.024-0.178,0.034c-0.02,0.006-0.037,0.015-0.057,0.021
							L100.986,183.667z"/>
						<path fill="#231F20" d="M105.831,174.143c-0.424-0.558-0.854-1.064-1.378-1.579c-0.38-0.371-0.99-0.392-1.393-0.033
							c-0.42,0.375-0.456,1.02-0.081,1.439l0.022,0.025c0.366,0.41,0.742,0.909,1.061,1.397c0.321,0.496,0.617,1.002,0.851,1.521
							c0.473,1.034,0.703,2.12,0.518,3.034c-0.09,0.458-0.278,0.875-0.555,1.259c-0.122,0.199-0.302,0.375-0.469,0.557
							c-0.187,0.172-0.37,0.346-0.594,0.498c-0.418,0.322-0.919,0.583-1.426,0.835c-0.506,0.227-1.037,0.423-1.579,0.604
							c0.062-0.01,0.115-0.025,0.178-0.034l-0.234,0.056c0.02-0.006,0.037-0.015,0.057-0.021c-0.964,0.156-1.828,0.361-2.725,0.629
							c-0.94,0.287-1.87,0.641-2.778,1.091c-0.904,0.458-1.795,1.002-2.599,1.736c-0.806,0.694-1.526,1.75-1.944,2.453
							c-0.239,0.324-0.455,0.728-0.702,0.971l-0.354,0.412c-0.13,0.118-0.272,0.214-0.405,0.325c-0.241,0.245-0.583,0.386-0.9,0.553
							c-0.292,0.196-0.691,0.279-1.06,0.397l-0.557,0.175c-0.195,0.045-0.408,0.064-0.611,0.098l-1.23,0.188l-2.525,0.097
							c-0.898-0.05-1.875-0.041-2.71-0.139c-0.79-0.134-1.602-0.197-2.342-0.472l-0.57-0.164c-0.172-0.076-0.331-0.167-0.499-0.247
							l-0.5-0.241c-0.154-0.095-0.284-0.215-0.429-0.318c-0.593-0.39-1.029-0.995-1.514-1.664l-0.368-0.565l-0.092-0.142
							l-0.046-0.07l-0.105-0.147l-0.207-0.275c-0.209-0.316-0.738-0.877-1.122-1.225c-0.804-0.733-1.692-1.279-2.598-1.734
							c-0.909-0.451-1.838-0.806-2.778-1.092c-0.897-0.268-1.76-0.474-2.724-0.63c0.02,0.006,0.037,0.015,0.057,0.021l-0.234-0.056
							c0.062,0.01,0.116,0.024,0.177,0.034c-0.542-0.181-1.073-0.378-1.579-0.604c-0.507-0.251-1.008-0.513-1.426-0.835
							c-0.223-0.152-0.407-0.326-0.594-0.498c-0.166-0.182-0.346-0.358-0.468-0.557c-0.148-0.188-0.252-0.394-0.349-0.602
							c-0.094-0.209-0.158-0.43-0.208-0.657c-0.186-0.914,0.044-2,0.516-3.034c0.233-0.52,0.528-1.026,0.849-1.522
							c0.16-0.248,0.333-0.489,0.512-0.727c0.173-0.231,0.377-0.479,0.543-0.665l0.034-0.038c0.351-0.396,0.341-1.002-0.035-1.387
							c-0.393-0.402-1.038-0.41-1.44-0.017c-0.281,0.274-0.499,0.512-0.73,0.778c-0.225,0.262-0.445,0.529-0.651,0.807
							c-0.418,0.553-0.793,1.146-1.121,1.781c-0.642,1.257-1.126,2.77-0.899,4.413c0.112,0.81,0.42,1.607,0.86,2.285
							c0.212,0.35,0.478,0.643,0.739,0.937c0.274,0.275,0.553,0.545,0.853,0.768c0.59,0.476,1.221,0.832,1.854,1.167
							c0.638,0.311,1.284,0.574,1.935,0.81l0.071,0.025l0.164,0.03c0.771,0.142,1.647,0.374,2.442,0.642
							c0.808,0.272,1.588,0.601,2.312,0.988c0.719,0.389,1.41,0.814,1.954,1.333c0.163,0.126,0.226,0.237,0.349,0.35
							c0.057,0.062,0.107,0.095,0.173,0.18l0.204,0.277l0.204,0.277l0.015,0.02l-0.018-0.028c-0.014-0.02,0.098,0.142,0.048,0.069
							l-0.006-0.009l-0.013-0.018l-0.011-0.015l0.029,0.046l0.094,0.148l0.378,0.592c0.57,0.817,1.23,1.737,2.158,2.394
							c0.225,0.167,0.443,0.351,0.678,0.498l0.73,0.376c0.245,0.121,0.489,0.252,0.736,0.359l0.748,0.235
							c0.992,0.365,2.018,0.474,3.039,0.635c0.986,0.116,1.853,0.109,2.785,0.17l0.086,0.004l0.043,0.002l0.096,0.001l0.022-0.001
							l0.182-0.008l0.364-0.017l0.727-0.036l1.455-0.079l1.488-0.24c0.249-0.045,0.494-0.073,0.745-0.133l0.757-0.237
							c0.503-0.167,1.008-0.291,1.5-0.589c0.493-0.261,0.993-0.504,1.421-0.901c0.219-0.183,0.448-0.36,0.651-0.555l0.545-0.631
							c0.386-0.426,0.601-0.846,0.897-1.264c0.524-0.87,0.851-1.343,1.421-1.874c0.544-0.517,1.233-0.945,1.953-1.331
							c0.725-0.387,1.505-0.715,2.312-0.987c0.796-0.268,1.672-0.5,2.442-0.642l0.164-0.03l0.071-0.026
							c0.65-0.235,1.296-0.499,1.935-0.81c0.634-0.335,1.265-0.69,1.854-1.167c0.301-0.223,0.58-0.493,0.854-0.768
							c0.262-0.294,0.527-0.587,0.739-0.938c0.441-0.677,0.749-1.476,0.86-2.287c0.226-1.644-0.261-3.156-0.903-4.414
							C106.625,175.288,106.25,174.695,105.831,174.143z"/>
						<path fill="#231F20" d="M70.919,190.459l0.006,0.009c0.05,0.072-0.062-0.089-0.048-0.069l0.018,0.028l0.011,0.015
							L70.919,190.459z"/>
					</g>
				</g>
				<g>
					<path fill="#2E230E" d="M42.355,145.228c-2.532,0-4.589,2.057-4.589,4.594c0,2.536,2.057,4.584,4.589,4.584
						c2.533,0,4.59-2.048,4.59-4.584C46.945,147.285,44.888,145.228,42.355,145.228z"/>
				</g>
				<g>
					<path fill="#593B2E" d="M57.086,132.967c0,0-26.311-4.528-38.645,15.222c0,0,15.649-14.97,37.794-9.143
						C56.235,139.046,62.574,135.313,57.086,132.967z"/>
				</g>
				<g>
					<path fill="#2E230E" d="M122.59,147.228c-3.952,0-7.151,1.057-7.151,3.594c0,2.536,3.199-0.416,7.151-0.416
						c3.954,0,7.161,2.952,7.161,0.416C129.751,148.285,126.544,147.228,122.59,147.228z"/>
				</g>
				<g>
					<path fill="#593B2E" d="M107.238,134.681c-5.246,2.845,1.408,5.976,1.408,5.976c21.519-7.856,38.479,5.594,38.479,5.594
						C133.014,127.737,107.238,134.681,107.238,134.681z"/>
				</g>
				<g>
					<path fill="#F4B07D" d="M-13.396,162.323c-1.75,7.373-1.894,47.256,20.787,22.057l0.632-20.167
						C8.023,164.213-7.726,138.381-13.396,162.323z"/>
				</g>
				<g>
					<path fill="#F4B07D" d="M157.603,164.213l0.638,20.167c22.675,25.199,22.536-14.685,20.786-22.057
						C173.358,138.381,157.603,164.213,157.603,164.213z"/>
				</g>
				<g>
					<path fill="#C18963" d="M168.458,163.843c-0.551-0.425-1.342-0.322-1.768,0.23c-0.424,0.551-0.321,1.343,0.23,1.767
						c0.027,0.021,2.751,2.156,3.108,5.704c0.265,2.629-0.843,5.396-3.292,8.222c-0.456,0.526-0.399,1.322,0.127,1.777
						c0.238,0.207,0.532,0.308,0.824,0.308c0.354,0,0.704-0.147,0.953-0.435c2.922-3.372,4.232-6.778,3.896-10.125
						C172.072,166.674,168.605,163.956,168.458,163.843z"/>
				</g>
				<g>
					<path fill="#C18963" d="M107.161,203.972c-21.892,16.357-47.697,2.59-47.955,2.448c-0.763-0.417-1.718-0.137-2.136,0.625
						c-0.417,0.762-0.138,1.718,0.624,2.136c0.173,0.095,11.069,5.931,24.979,5.931c8.267,0,17.599-2.062,26.374-8.619
						c0.696-0.52,0.839-1.506,0.318-2.203C108.845,203.593,107.857,203.452,107.161,203.972z"/>
				</g>
				<g>
					<path fill="#776537" d="M94.429,60.043L37.31,66.34l-38.646,8.402c0,0-9.252,55.248-7.991,55.666
						c1.257,0.418,44.533-22.481,44.533-22.481l50.204-17.435l74.555,22.896l15.126-6.297l-7.983-39.488L94.429,60.043z"/>
				</g>
				<g opacity="0.3">
					<path fill="#231F20" d="M159.964,101.052L84.979,90.492c0,0,30.25,70.151,97.454,34.238
						C182.434,124.729,163.113,114.28,159.964,101.052z"/>
				</g>
				<g opacity="0.3">
					<path fill="#231F20" d="M0.122,125.214c66.241,17.733,84.43-35.252,84.43-35.252l-63.63,15.415
						C15.313,117.911,0.122,125.214,0.122,125.214z"/>
				</g>
				<g>
					<path fill="#776537" d="M159.964,99.946l-74.555-9.454c0,0,28.354,60.703,92.193,33.4
						C177.603,123.892,163.113,113.178,159.964,99.946z"/>
				</g>
				<g>
					<path fill="#776537" d="M6.777,123.715c54.613,9.169,77.774-33.753,77.774-33.753l-63.831,12.147
						C18.71,113.694,6.777,123.715,6.777,123.715z"/>
				</g>
				<g>
					<path fill="#776537" d="M91.496,17.195C81.834,20.556,77.217,43.24,77.217,43.24c0-10.928-11.348-21.847-11.348-21.847
						c3.444,14.884-6.722,18.488-6.722,18.488l-6.716,28.978L91.072,76l21.006-25.618l5.288-12.121
						C87.978,47.002,91.496,17.195,91.496,17.195z"/>
				</g>
			</g>
		</g>
		<g>
			<path fill="#F4B07D" d="M-10.283,279.384c-0.971,0.705-24.06,17.551-48.237,43.376c-33.928,36.24-53.015,71.563-56.73,104.99
				c-6.046,54.434-5.29,78.985-4.559,102.729c0.241,7.812,0.489,15.892,0.489,25.023c0,12.713,10.306,23.02,23.02,23.02
				s23.02-10.307,23.02-23.02c0-9.841-0.26-18.279-0.511-26.44c-0.713-23.16-1.387-45.036,4.299-96.228
				c5.292-47.617,64.05-100.013,86.255-116.193c10.282-7.467,12.568-21.855,5.105-32.143
				C14.402,274.208,0.009,271.917-10.283,279.384z"/>
		</g>
		<g>
			<polygon fill="#282828" points="17.079,317.096 3.32,298.132 3.235,298.016 			"/>
			<path fill="#282828" d="M17.079,317.096l-13.843-19.08l0.084,0.116l-13.928-19.196c-0.973,0.706-24.103,17.583-48.316,43.447
				c-34.012,36.329-53.147,71.759-56.876,105.307c-6.05,54.473-5.293,79.045-4.562,102.808c0.24,7.808,0.489,15.883,0.489,25.006
				h47.146c0-9.85-0.26-18.292-0.512-26.458c-0.712-23.14-1.386-44.996,4.296-96.149c5.271-47.418,63.896-99.678,86.04-115.812
				L3.32,298.132L17.079,317.096z"/>
		</g>
		<g>
			<path fill="#F4B07D" d="M227.7,322.76c-24.179-25.825-47.27-42.672-48.24-43.377c-10.289-7.465-24.686-5.176-32.15,5.116
				c-7.465,10.291-5.175,24.684,5.115,32.15c22.188,16.096,80.934,68.346,86.25,116.185c5.688,51.191,5.013,73.067,4.3,96.227
				c-0.252,8.162-0.512,16.601-0.512,26.442c0,12.713,10.307,23.02,23.02,23.02s23.02-10.307,23.02-23.02
				c0-9.133,0.249-17.212,0.489-25.024c0.731-23.743,1.488-48.295-4.559-102.729C280.718,394.324,261.631,359,227.7,322.76z"/>
		</g>
		<g>
			<path fill="#282828" d="M228.104,322.381c-24.215-25.863-47.347-42.74-48.319-43.446L152.1,317.097
				c22.133,16.056,80.731,68.158,86.025,115.797c5.683,51.153,5.009,73.01,4.296,96.149c-0.251,8.165-0.512,16.609-0.512,26.459
				h47.146c0-9.124,0.249-17.198,0.489-25.008c0.732-23.762,1.489-48.334-4.562-102.807
				C281.255,394.141,262.118,358.711,228.104,322.381z"/>
		</g>
		<g>
			<path fill="#2D2D2D" d="M32.433,521.157c-14.478,0-26.213,11.736-26.213,26.214v109.791h52.427V547.371
				C58.646,532.893,46.91,521.157,32.433,521.157z"/>
		</g>
		<g>
			<path fill="#2D2D2D" d="M130.068,521.157c-14.478,0-26.214,11.736-26.214,26.214v109.791h52.428V547.371
				C156.282,532.893,144.546,521.157,130.068,521.157z"/>
		</g>
		<g>
			<path fill="#F4B07D" d="M-42.07,436.424c0,87.186,0,99.036,0,100.325c0,0.113,0,0.146,0,0.141c0,0.05,0,0.114,0,0.201
				c0,0.214,13.097,0.316,13.097,0.316H84.063V287.121H-2.779C-16.179,344.329-42.07,339.72-42.07,436.424z"/>
		</g>
		<g>
			<path fill="#F4B07D" d="M79.73,287.121v250.287h113.031c0,0,13.098-0.103,13.098-0.316c0-0.087,0-0.151,0-0.201
				c0,0.006,0-0.027,0-0.141c0-1.289,0-13.14,0-100.325c0-96.704-25.888-92.096-39.292-149.304H79.73z"/>
		</g>
		<g>
			<g opacity="0.2">
				<path fill="#232222" d="M24.691,360.68c-6.265,0-11.347,5.082-11.347,11.352s5.082,11.352,11.347,11.352
					c6.27,0,11.347-5.082,11.347-11.352S30.961,360.68,24.691,360.68z"/>
			</g>
			<g opacity="0.2">
				<path fill="#232222" d="M24.691,366.359c-3.136,0-5.678,2.54-5.678,5.673s2.542,5.684,5.678,5.684
					c3.138,0,5.679-2.551,5.679-5.684S27.83,366.359,24.691,366.359z"/>
			</g>
		</g>
		<g>
			<g opacity="0.2">
				<path fill="#232222" d="M139.069,360.68c-6.265,0-11.349,5.082-11.349,11.352s5.084,11.352,11.349,11.352
					c6.266,0,11.347-5.082,11.347-11.352S145.335,360.68,139.069,360.68z"/>
			</g>
			<g opacity="0.2">
				<path fill="#232222" d="M139.069,366.359c-3.139,0-5.68,2.54-5.68,5.673s2.541,5.684,5.68,5.684
					c3.137,0,5.677-2.551,5.677-5.684S142.206,366.359,139.069,366.359z"/>
			</g>
		</g>
		<g opacity="0.2">
			<path fill="#232222" d="M83.625,478.473c-1.926,0-3.49,2.541-3.49,5.679c0,3.131,1.564,5.672,3.49,5.672
				c1.928,0,3.491-2.541,3.491-5.672C87.116,481.014,85.553,478.473,83.625,478.473z"/>
		</g>
		<g>
			<path fill="#2D2D2D" d="M81.88,641.385c69.038,0,125.002-42.872,125.002-111.91H-43.124
				C-43.124,598.513,12.842,641.385,81.88,641.385z"/>
		</g>
		<g>
			<rect x="-42.122" y="529.643" fill="#161516" width="248.512" height="18.688"/>
		</g>
		<g>
			<rect x="65.52" y="529.643" fill="#D6D6D6" width="35.495" height="18.688"/>
		</g>
		<g>
			<rect x="-3.844" y="284.31" fill="#FFFFFF" width="169.8" height="245.762"/>
		</g>
		<g>
			<path fill="#282828" d="M-57.588,472.194c0,0-0.997,59.376-5.106,86.558c0,0,7.931,3.594,27.912,3.594
				c0,0,40.562,4.785,44.961-0.401l-1.195-59.549L-57.588,472.194z"/>
		</g>
		<g>
			<path fill="#282828" d="M-54.94,532.36H9.282V276.743H-10.1C-74.604,345.893-54.94,532.36-54.94,532.36z"/>
		</g>
		<g>
			<path fill="#282828" d="M158.078,502.395l-1.202,59.549c4.403,5.187,41.774,2.393,41.774,2.393
				c19.985,0,34.791-3.976,34.791-3.976c-6.256-20.255-6.256-81.022-6.256-81.022L158.078,502.395z"/>
		</g>
		<g>
			<path fill="#282828" d="M177.161,276.743h-19.383V532.36h68.988C226.767,532.36,238.37,320.474,177.161,276.743z"/>
		</g>
		<g>
			<polygon fill="#2D2D2D" points="6.055,324.19 -26.447,365.241 8.117,491.37 8.117,276.622 -26.447,321.784 			"/>
		</g>
		<g>
			<polygon fill="#2D2D2D" points="157.547,276.622 157.547,491.37 192.111,365.241 159.613,324.19 192.111,321.784 			"/>
		</g>
		<g>
			<g>
				<g>
					<polygon fill="#EA94C7" points="57.253,285.373 82.61,310.729 108.882,285.373 83.212,278.725 					"/>
				</g>
				<g>
					<path fill="#EA94C7" d="M83.51,291.823v-0.885l-0.443,0.438l-0.438-0.438l-0.046,0.937l-7.902,8.019L56.138,476.439
						c0,0,20.366,45.916,27.372,45.916c8.885,0,26.488-45.916,26.488-45.916L91.454,299.893L83.51,291.823z"/>
				</g>
			</g>
			<g>
				<polygon fill="#D6D6D6" points="-10.523,256.012 -10.523,276.669 56.998,307.647 84.06,278.725 -3.375,258.395 				"/>
			</g>
			<g>
				<polygon fill="#D6D6D6" points="83.212,278.725 110.271,307.647 177.79,276.669 177.79,256.012 170.641,258.395 				"/>
			</g>
		</g>
		<g>
			<g>
				<path fill="#F4B07D" d="M84.802,274.591c-44.299,0-62.749-23.624-62.749-23.624s10.147,32.067,60.594,32.067
					c51.068,0,60.596-32.067,60.596-32.067C114.316,277.417,84.802,274.591,84.802,274.591z"/>
			</g>
		</g>
	</g>
	<g display="inline">
		<path fill="#FFFFFF" d="M208.147,234.444c-1.372-1.981-1.41-3.265-1.41-3.265s-0.572,1.894-1.943,3.265
			c-0.598,0.598-2.959,1.638-2.959,1.638s2.63,0.795,3.188,1.486c1.112,1.375,1.715,6.933,1.715,6.933s0.412-5.555,1.562-6.933
			c0.581-0.696,3.339-1.486,3.339-1.486S209.251,236.039,208.147,234.444z"/>
		<path fill="#FFFFFF" d="M192.656,637.688c-1.371-1.983-1.41-3.266-1.41-3.266s-0.571,1.894-1.942,3.266
			c-0.598,0.596-2.959,1.637-2.959,1.637s2.63,0.796,3.188,1.486c1.111,1.374,1.714,6.933,1.714,6.933s0.412-5.556,1.563-6.933
			c0.58-0.695,3.339-1.486,3.339-1.486S193.761,639.282,192.656,637.688z"/>
		<path fill="#FFFFFF" d="M301.78,438.094c-1.372-1.982-1.41-3.266-1.41-3.266s-0.571,1.895-1.943,3.266
			c-0.598,0.598-2.959,1.638-2.959,1.638s2.63,0.796,3.188,1.486c1.112,1.373,1.715,6.933,1.715,6.933s0.412-5.555,1.562-6.933
			c0.581-0.696,3.34-1.486,3.34-1.486S302.885,439.69,301.78,438.094z"/>
		<path fill="#FFFFFF" d="M307.935,360.702c-1.371-1.98-1.41-3.264-1.41-3.264s-0.571,1.893-1.942,3.264
			c-0.598,0.598-2.96,1.639-2.96,1.639s2.631,0.795,3.188,1.485c1.111,1.374,1.714,6.933,1.714,6.933s0.412-5.554,1.563-6.933
			c0.58-0.695,3.339-1.485,3.339-1.485S309.039,362.297,307.935,360.702z"/>
		<path fill="#FFFFFF" d="M209.768,152.167c-1.372-1.981-1.41-3.265-1.41-3.265s-0.571,1.894-1.943,3.265
			c-0.598,0.598-2.959,1.638-2.959,1.638s2.63,0.795,3.188,1.486c1.112,1.373,1.715,6.933,1.715,6.933s0.412-5.555,1.562-6.933
			c0.581-0.696,3.339-1.486,3.339-1.486S210.871,153.762,209.768,152.167z"/>
		<path fill="#FFFFFF" d="M239.461,206.58c-3.189-4.609-3.281-7.594-3.281-7.594s-1.328,4.403-4.519,7.594
			c-1.39,1.39-6.882,3.809-6.882,3.809s6.117,1.85,7.415,3.456c2.585,3.196,3.985,16.124,3.985,16.124s0.96-12.917,3.636-16.124
			c1.352-1.618,7.768-3.456,7.768-3.456S242.029,210.288,239.461,206.58z"/>
		<path fill="#FFFFFF" d="M295.571,289.443c-3.189-4.608-3.28-7.594-3.28-7.594s-1.328,4.403-4.519,7.594
			c-1.391,1.39-6.883,3.809-6.883,3.809s6.118,1.851,7.415,3.456c2.586,3.195,3.986,16.124,3.986,16.124s0.959-12.917,3.636-16.124
			c1.352-1.617,7.767-3.456,7.767-3.456S298.14,293.152,295.571,289.443z"/>
		<path fill="#FFFFFF" d="M324.038,512.434c-3.188-4.607-3.28-7.593-3.28-7.593s-1.328,4.401-4.519,7.593
			c-1.391,1.39-6.882,3.809-6.882,3.809s6.117,1.85,7.414,3.456c2.586,3.197,3.986,16.124,3.986,16.124s0.959-12.918,3.636-16.124
			c1.352-1.617,7.768-3.456,7.768-3.456S326.606,516.144,324.038,512.434z"/>
		<path fill="#FFFFFF" d="M155.641,5.73c-3.189-4.609-3.28-7.595-3.28-7.595s-1.328,4.403-4.519,7.595
			c-1.391,1.389-6.883,3.808-6.883,3.808s6.118,1.85,7.415,3.457c2.586,3.195,3.986,16.124,3.986,16.124s0.959-12.918,3.636-16.124
			c1.352-1.618,7.767-3.457,7.767-3.457S158.209,9.438,155.641,5.73z"/>
		<path fill="#FFFFFF" d="M248.126,596.578c-3.19-4.606-3.28-7.592-3.28-7.592s-1.328,4.401-4.519,7.592
			c-1.391,1.391-6.882,3.809-6.882,3.809s6.115,1.851,7.413,3.457c2.585,3.196,3.987,16.124,3.987,16.124s0.958-12.918,3.636-16.124
			c1.35-1.617,7.766-3.457,7.766-3.457S250.693,600.288,248.126,596.578z"/>
	</g>
</g>
<g id="_x35_0" display="none">
	<rect x="-641.249" y="-42.837" display="inline" fill="#CC3A33" width="1440" height="699.999"/>
	<polygon display="inline" opacity="0.3" fill="#FFFFFF" points="-103.341,-42.837 -203.341,657.162 360.715,657.162 
		260.715,-42.837 	"/>
	<ellipse display="inline" opacity="0.3" fill="#231F20" cx="82.867" cy="562.939" rx="148.5" ry="4.556"/>
	<g display="inline">
		<path fill="#776537" d="M28.432,147.199c0,0-4.944,1.807-4.896,10.171c0.018,2.803,1.507,10.171-3.767,10.548
			c0,0,6.404,0.754,8.287-3.39c0,0-0.376,7.534-3.391,9.417c0,0,17.706,7.534,20.719-9.417l-1.507-24.862
			C43.877,139.666,32.953,135.144,28.432,147.199z"/>
		<path fill="#776537" d="M139.914,157.37c0.047-8.364-4.897-10.171-4.897-10.171c-4.521-12.055-15.444-7.533-15.444-7.533
			l-1.507,24.862c3.014,16.951,20.719,9.417,20.719,9.417c-3.014-1.883-3.392-9.417-3.392-9.417c1.885,4.144,8.289,3.39,8.289,3.39
			C138.407,167.541,139.896,160.172,139.914,157.37z"/>
		<g>
			<polygon fill="#B7B7B7" points="22.279,188.825 36.217,200.88 34.333,187.318 			"/>
			<polygon fill="#B7B7B7" points="127.19,200.88 141.13,188.825 129.075,187.318 			"/>
			<path fill="#F4B07D" d="M34.248,143.311c0,41.182-23.268,127.112-23.268,127.112h142.142c0,0-23.686-67.595-23.686-127.112
				C129.437,119.517,34.248,119.515,34.248,143.311z"/>
			<g>
				<path fill="#776537" d="M30.08,62.652c-13.847,10.627-19.962,54.781,3.344,78.09L84.02,84.165l-1.194-21.908
					C82.825,62.257,64.343,36.359,30.08,62.652z"/>
				<path fill="#776537" d="M135.753,62.652c-34.264-26.292-52.745-0.395-52.745-0.395l-1.194,21.908l50.596,56.577
					C155.716,117.433,149.597,73.282,135.753,62.652z"/>
				<path fill="#F4B07D" d="M80.177,71.664c-30.319-0.438-43.053,20.024-43.053,20.024c-10.642,17.414-7.461,71.209-7.461,71.209
					c0,26.616,36.917,47.824,52.421,47.824c15.506,0,52.556-19.824,52.556-47.824c0,0,2.614-53.795-8.028-71.209
					C126.611,91.688,110.613,71.225,80.177,71.664z"/>
				<g>
					<path opacity="0.1" fill="#232222" d="M82.071,191.815c-18.069,0-25.598-10.542-25.598-10.542s4.141,14.31,24.718,14.31
						c20.831,0,24.719-14.31,24.719-14.31C94.108,193.075,82.071,191.815,82.071,191.815z"/>
				</g>
				<g opacity="0.2">
					<path fill="#231F20" d="M94.982,136.063c0.153,0.148,0.314,0.329,0.452,0.487c0.139,0.168,0.28,0.334,0.407,0.512
						c0.259,0.354,0.505,0.72,0.706,1.127c0.105,0.199,0.204,0.403,0.279,0.625c0.087,0.214,0.164,0.435,0.209,0.675
						c0.059,0.232,0.106,0.469,0.107,0.724c0.019,0.25,0.026,0.5-0.029,0.757c-0.037,0.257-0.075,0.514-0.19,0.75
						c-0.104,0.236-0.18,0.499-0.343,0.691c-0.151,0.201-0.295,0.419-0.462,0.599l-0.543,0.48c-0.178,0.175-0.381,0.27-0.576,0.395
						l-0.593,0.352l-1.224,0.512l-0.034,0.015l-0.114,0.021c-0.487,0.089-1.041,0.236-1.544,0.406
						c-0.511,0.172-1.005,0.379-1.462,0.625c-0.456,0.244-0.892,0.514-1.236,0.841c-0.36,0.335-0.566,0.635-0.897,1.185
						c-0.342,0.508-0.727,1.116-1.324,1.55c-0.271,0.251-0.586,0.405-0.898,0.57c-0.311,0.189-0.63,0.267-0.948,0.372
						c-0.644,0.246-1.26,0.262-1.892,0.386c-0.632,0.034-1.184,0.074-1.88,0.084c-0.59-0.039-1.138-0.035-1.761-0.108
						c-0.646-0.102-1.294-0.171-1.921-0.401l-0.473-0.148c-0.156-0.068-0.311-0.151-0.465-0.228
						c-0.314-0.146-0.616-0.317-0.891-0.553c-0.587-0.415-1.004-0.997-1.364-1.513l-0.239-0.375l-0.06-0.093l-0.03-0.047
						c0.058,0.083-0.002-0.002,0.002,0.005l-0.129-0.175c-0.195-0.28-0.285-0.33-0.458-0.51c-0.344-0.328-0.781-0.597-1.235-0.843
						c-0.458-0.245-0.952-0.452-1.462-0.625c-0.503-0.169-1.057-0.316-1.544-0.406l-0.114-0.021l-0.034-0.015l-1.223-0.512
						l-0.593-0.352c-0.195-0.125-0.398-0.22-0.576-0.395l-0.542-0.479c-0.167-0.179-0.311-0.398-0.461-0.599
						c-0.163-0.192-0.239-0.455-0.343-0.69c-0.116-0.236-0.154-0.493-0.191-0.749c-0.056-0.257-0.048-0.507-0.029-0.757
						c0-0.254,0.047-0.492,0.106-0.724c0.044-0.24,0.121-0.46,0.208-0.675c0.076-0.222,0.174-0.427,0.28-0.626
						c0.2-0.406,0.446-0.773,0.704-1.127c0.268-0.355,0.528-0.674,0.865-1.007c0.253-0.25,0.662-0.247,0.911,0.006
						c0.242,0.245,0.247,0.634,0.019,0.885l-0.018,0.02c-0.229,0.25-0.468,0.571-0.671,0.876c-0.203,0.312-0.394,0.633-0.533,0.963
						c-0.077,0.164-0.146,0.328-0.19,0.495c-0.058,0.165-0.106,0.33-0.123,0.493c-0.034,0.164-0.059,0.325-0.044,0.479
						c-0.005,0.157-0.005,0.311,0.043,0.451c0.03,0.145,0.049,0.291,0.132,0.416c0.074,0.126,0.098,0.272,0.218,0.381
						c0.102,0.115,0.178,0.243,0.289,0.355l0.381,0.312c0.111,0.116,0.286,0.186,0.435,0.274l0.459,0.259l1.034,0.396l-0.148-0.036
						c0.658,0.101,1.231,0.24,1.834,0.42c0.594,0.181,1.182,0.405,1.757,0.69c0.572,0.288,1.134,0.633,1.643,1.097
						c0.243,0.22,0.577,0.575,0.709,0.774l0.13,0.174l0.096,0.137l0.058,0.089l0.233,0.357c0.307,0.423,0.583,0.806,0.958,1.052
						c0.092,0.065,0.174,0.141,0.271,0.201l0.316,0.152l0.315,0.156l0.36,0.104c0.468,0.174,0.982,0.214,1.481,0.299
						c0.527,0.062,1.146,0.056,1.714,0.088l1.597-0.062c0.504-0.102,1.071-0.11,1.517-0.292c0.232-0.074,0.484-0.126,0.67-0.251
						c0.2-0.105,0.416-0.195,0.569-0.35c0.361-0.239,0.618-0.637,0.924-1.081c0.265-0.444,0.72-1.112,1.229-1.551
						c0.509-0.464,1.071-0.809,1.643-1.098c0.575-0.285,1.163-0.509,1.758-0.69c0.604-0.18,1.177-0.319,1.835-0.419l-0.148,0.035
						l1.034-0.396l0.459-0.258c0.148-0.089,0.324-0.159,0.435-0.275l0.382-0.311c0.11-0.112,0.187-0.24,0.288-0.355
						c0.119-0.109,0.144-0.254,0.218-0.381c0.083-0.125,0.102-0.271,0.132-0.416c0.048-0.14,0.047-0.294,0.042-0.451
						c0.015-0.154-0.01-0.315-0.044-0.479c-0.018-0.163-0.065-0.328-0.124-0.493c-0.044-0.167-0.112-0.331-0.189-0.495
						c-0.293-0.652-0.727-1.303-1.212-1.846l-0.006-0.006c-0.237-0.265-0.215-0.673,0.051-0.91
						C94.356,135.818,94.742,135.831,94.982,136.063z"/>
				</g>
				<circle fill="#2E230E" cx="55.714" cy="121.677" r="2.902"/>
				<path fill="#593B2E" d="M65.028,111.023c0,0-16.637-2.863-24.436,9.625c0,0,9.895-9.466,23.897-5.781
					C64.49,114.867,68.499,112.506,65.028,111.023z"/>
				<circle fill="#2E230E" cx="106.448" cy="121.677" r="2.902"/>
				<path fill="#593B2E" d="M96.74,112.106c-3.317,1.799,0.891,3.779,0.891,3.779c13.606-4.968,24.33,3.537,24.33,3.537
					C113.038,107.716,96.74,112.106,96.74,112.106z"/>
				<path fill="#F4B07D" d="M20.462,129.585c-1.107,4.662-1.198,29.88,13.144,13.947l0.4-12.752
					C34.006,130.78,24.047,114.446,20.462,129.585z"/>
				
					<path fill="none" stroke="#C18963" stroke-width="1.5936" stroke-linecap="round" stroke-linejoin="round" stroke-miterlimit="10" d="
					M27.632,131.177c0,0-5.18,3.985,0,9.958"/>
				<path fill="#F4B07D" d="M128.586,130.78l0.403,12.752c14.338,15.934,14.25-9.285,13.144-13.947
					C138.549,114.446,128.586,130.78,128.586,130.78z"/>
				
					<path fill="none" stroke="#C18963" stroke-width="1.5936" stroke-linecap="round" stroke-linejoin="round" stroke-miterlimit="10" d="
					M134.964,131.177c0,0,5.177,3.985,0,9.958"/>
				
					<path fill="none" stroke="#C18963" stroke-width="1.9905" stroke-linecap="round" stroke-linejoin="round" stroke-miterlimit="10" d="
					M65.891,158.341c0,0,16.854,9.241,31.396-1.624"/>
				<path fill="#776537" d="M88.641,64.912l-36.117,3.982l-24.436,5.312c0,0-5.85,34.934-5.053,35.198
					c0.795,0.265,28.159-14.215,28.159-14.215l31.744-11.024l47.142,14.477l9.564-3.982l-5.048-24.968L88.641,64.912z"/>
				<path opacity="0.3" fill="#231F20" d="M130.079,90.843l-47.413-6.678c0,0,19.127,44.357,61.621,21.649
					C144.287,105.814,132.07,99.207,130.079,90.843z"/>
				<path opacity="0.3" fill="#231F20" d="M29.01,106.121C70.895,117.333,82.396,83.83,82.396,83.83l-40.234,9.747
					C38.615,101.502,29.01,106.121,29.01,106.121z"/>
				<path fill="#776537" d="M130.079,90.143l-47.142-5.978c0,0,17.929,38.383,58.295,21.12
					C141.232,105.285,132.07,98.51,130.079,90.143z"/>
				<path fill="#776537" d="M33.218,105.173C67.75,110.97,82.396,83.83,82.396,83.83l-40.361,7.681
					C40.763,98.836,33.218,105.173,33.218,105.173z"/>
				<path fill="#776537" d="M86.786,37.819c-6.109,2.125-9.029,16.469-9.029,16.469c0-6.91-7.175-13.814-7.175-13.814
					c2.178,9.412-4.25,11.69-4.25,11.69l-4.247,18.323l24.433,4.515l13.282-16.198l3.344-7.664
					C84.562,56.666,86.786,37.819,86.786,37.819z"/>
			</g>
		</g>
		
			<path fill="none" stroke="#F4B07D" stroke-width="29.1108" stroke-linecap="round" stroke-linejoin="round" stroke-miterlimit="10" d="
			M30.978,215.385c0,0-55.644,40.37-60.453,83.639c-4.967,44.719-2.484,55.484-2.484,79.172"/>
		<path fill="none" stroke="#282828" stroke-width="29.811" stroke-linejoin="round" stroke-miterlimit="10" d="M30.978,215.385
			c0,0-55.644,40.37-60.453,83.639c-4.967,44.719-2.484,55.484-2.484,79.172"/>
		
			<path fill="none" stroke="#F4B07D" stroke-width="29.1108" stroke-linecap="round" stroke-linejoin="round" stroke-miterlimit="10" d="
			M133.859,215.385c0,0,55.647,40.37,60.456,83.639c4.968,44.719,2.484,55.484,2.484,79.172"/>
		<path fill="none" stroke="#282828" stroke-width="29.811" stroke-linejoin="round" stroke-miterlimit="10" d="M133.859,215.385
			c0,0,55.647,40.37,60.456,83.639c4.968,44.719,2.484,55.484,2.484,79.172"/>
		
			<line fill="none" stroke="#2D2D2D" stroke-width="33.1501" stroke-linecap="round" stroke-linejoin="round" stroke-miterlimit="10" x1="49.44" y1="373.054" x2="49.44" y2="535.421"/>
		
			<line fill="none" stroke="#2D2D2D" stroke-width="33.1501" stroke-linecap="round" stroke-linejoin="round" stroke-miterlimit="10" x1="111.176" y1="373.054" x2="111.176" y2="535.421"/>
		<path fill="#F4B07D" d="M2.331,302.902c0,55.126,0,62.621,0,63.437c0,0.071,0,0.093,0,0.089c0,0.031,0,0.072,0,0.127
			c0,0.136,8.281,0.2,8.281,0.2h71.475V208.496H27.175C18.703,244.668,2.331,241.755,2.331,302.902z"/>
		<path fill="#F4B07D" d="M79.347,208.496v158.259h71.471c0,0,8.282-0.064,8.282-0.2c0-0.055,0-0.096,0-0.127
			c0,0.004,0-0.018,0-0.089c0-0.815,0-8.311,0-63.437c0-61.147-16.369-58.233-24.845-94.406H79.347z"/>
		<g>
			<circle opacity="0.2" fill="#232222" cx="44.545" cy="262.186" r="7.178"/>
			<path opacity="0.2" fill="#232222" d="M44.545,258.599c-1.983,0-3.59,1.606-3.59,3.587c0,1.981,1.607,3.594,3.59,3.594
				c1.984,0,3.591-1.613,3.591-3.594C48.136,260.205,46.529,258.599,44.545,258.599z"/>
		</g>
		<g>
			<circle opacity="0.2" fill="#232222" cx="116.867" cy="262.186" r="7.178"/>
			<circle opacity="0.2" fill="#232222" cx="116.867" cy="262.189" r="3.59"/>
		</g>
		<ellipse opacity="0.2" fill="#232222" cx="81.81" cy="333.078" rx="2.207" ry="3.588"/>
		<path fill="#2D2D2D" d="M80.706,432.5c43.653,0,79.04-27.108,79.04-70.762H1.665C1.665,405.392,37.053,432.5,80.706,432.5z"/>
		<path fill="#1C1C1C" d="M-14.448,561.623H65.82v-21.302C21.496,540.321-14.448,549.856-14.448,561.623z"/>
		<path fill="#1C1C1C" d="M94.553,540.321v21.302h80.263C174.815,549.856,138.881,540.321,94.553,540.321z"/>
		<rect x="30.719" y="529.712" fill="#2D2D2D" width="36.464" height="12.513"/>
		<rect x="92.923" y="529.712" fill="#2D2D2D" width="36.458" height="12.513"/>
		<rect x="2.298" y="361.845" fill="#161516" width="157.136" height="11.816"/>
		<rect x="70.361" y="361.845" fill="#D6D6D6" width="22.443" height="11.816"/>
		<rect x="26.502" y="206.718" fill="#FFFFFF" width="107.366" height="155.397"/>
		<path fill="#282828" d="M-7.481,325.519c0,0-0.63,37.544-3.229,54.731c0,0,5.015,2.272,17.649,2.272
			c0,0,25.648,3.025,28.429-0.254l-0.756-37.653L-7.481,325.519z"/>
		<path fill="#282828" d="M-5.807,363.563h40.608V201.934H22.546C-18.241,245.658-5.807,363.563-5.807,363.563z"/>
		<path fill="#282828" d="M128.887,344.616l-0.76,37.653c2.784,3.279,26.414,1.513,26.414,1.513c12.637,0,21.999-2.514,21.999-2.514
			c-3.956-12.808-3.956-51.231-3.956-51.231L128.887,344.616z"/>
		<path fill="#282828" d="M140.953,201.934h-12.256v161.629h43.622C172.319,363.563,179.656,229.585,140.953,201.934z"/>
		<polygon fill="#2D2D2D" points="32.761,231.935 12.21,257.892 34.065,337.644 34.065,201.857 12.21,230.413 		"/>
		<polygon fill="#2D2D2D" points="128.551,201.857 128.551,337.644 150.406,257.892 129.857,231.935 150.406,230.413 		"/>
		<g>
			<g>
				<polygon fill="#EA94C7" points="65.134,207.39 81.168,223.423 97.779,207.39 81.548,203.187 				"/>
				<path fill="#EA94C7" d="M81.736,211.469v-0.56l-0.28,0.276l-0.276-0.276l-0.029,0.592l-4.997,5.07L64.429,328.204
					c0,0,12.878,29.033,17.308,29.033c5.618,0,16.749-29.033,16.749-29.033L86.76,216.571L81.736,211.469z"/>
			</g>
			<polygon fill="#D6D6D6" points="22.279,188.825 22.279,201.887 64.973,221.475 82.084,203.187 26.799,190.332 			"/>
			<polygon fill="#D6D6D6" points="81.548,203.187 98.658,221.475 141.351,201.887 141.351,188.825 136.83,190.332 			"/>
		</g>
		<g>
			<path fill="#F4B07D" d="M82.554,200.573c-28.011,0-39.677-14.938-39.677-14.938s6.416,20.276,38.314,20.276
				c32.291,0,38.315-20.276,38.315-20.276C101.216,202.36,82.554,200.573,82.554,200.573z"/>
		</g>
	</g>
	<g display="inline">
		<path fill="#FFFFFF" d="M160.546,175.188c-0.867-1.253-0.892-2.064-0.892-2.064s-0.361,1.197-1.229,2.064
			c-0.378,0.378-1.871,1.036-1.871,1.036s1.663,0.503,2.016,0.939c0.703,0.869,1.084,4.384,1.084,4.384s0.261-3.512,0.988-4.384
			c0.367-0.44,2.111-0.939,2.111-0.939S161.244,176.196,160.546,175.188z"/>
		<path fill="#FFFFFF" d="M11.727,419.188c-0.867-1.254-0.892-2.064-0.892-2.064s-0.361,1.197-1.229,2.064
			c-0.378,0.377-1.871,1.035-1.871,1.035s1.663,0.503,2.016,0.939c0.703,0.869,1.084,4.384,1.084,4.384s0.261-3.513,0.988-4.384
			c0.367-0.439,2.111-0.939,2.111-0.939S12.425,420.196,11.727,419.188z"/>
		<path fill="#FFFFFF" d="M150.751,430.163c-0.867-1.254-0.892-2.064-0.892-2.064s-0.361,1.197-1.229,2.064
			c-0.378,0.377-1.871,1.035-1.871,1.035s1.663,0.503,2.016,0.939c0.703,0.869,1.084,4.384,1.084,4.384s0.261-3.513,0.988-4.384
			c0.367-0.439,2.111-0.939,2.111-0.939S151.449,431.17,150.751,430.163z"/>
		<path fill="#FFFFFF" d="M219.751,303.958c-0.867-1.253-0.892-2.064-0.892-2.064s-0.361,1.197-1.229,2.064
			c-0.378,0.378-1.871,1.036-1.871,1.036s1.663,0.503,2.016,0.94c0.703,0.868,1.084,4.384,1.084,4.384s0.261-3.513,0.988-4.384
			c0.367-0.44,2.111-0.94,2.111-0.94S220.449,304.966,219.751,303.958z"/>
		<path fill="#FFFFFF" d="M223.643,255.022c-0.867-1.253-0.892-2.064-0.892-2.064s-0.361,1.197-1.229,2.064
			c-0.378,0.378-1.871,1.036-1.871,1.036s1.663,0.502,2.016,0.939c0.703,0.869,1.084,4.384,1.084,4.384s0.261-3.512,0.988-4.384
			c0.367-0.44,2.111-0.939,2.111-0.939S224.341,256.03,223.643,255.022z"/>
		<path fill="#FFFFFF" d="M12.759,463.796c-0.867-1.253-0.892-2.063-0.892-2.063s-0.361,1.197-1.229,2.063
			c-0.378,0.378-1.871,1.036-1.871,1.036s1.663,0.503,2.016,0.939c0.703,0.869,1.084,4.384,1.084,4.384s0.261-3.513,0.988-4.384
			c0.367-0.439,2.111-0.939,2.111-0.939S13.457,464.805,12.759,463.796z"/>
		<path fill="#FFFFFF" d="M161.57,123.163c-0.867-1.253-0.892-2.064-0.892-2.064s-0.361,1.197-1.229,2.064
			c-0.378,0.378-1.871,1.036-1.871,1.036s1.663,0.503,2.016,0.94c0.703,0.868,1.084,4.383,1.084,4.383s0.261-3.512,0.988-4.383
			c0.367-0.44,2.111-0.94,2.111-0.94S162.269,124.171,161.57,123.163z"/>
		<path fill="#FFFFFF" d="M-1.346,162.188c-0.867-1.253-0.892-2.064-0.892-2.064s-0.361,1.197-1.229,2.064
			c-0.378,0.378-1.871,1.036-1.871,1.036s1.663,0.503,2.016,0.939c0.703,0.869,1.084,4.384,1.084,4.384s0.261-3.512,0.988-4.384
			c0.367-0.44,2.111-0.939,2.111-0.939S-0.647,163.196-1.346,162.188z"/>
		<path fill="#FFFFFF" d="M180.346,157.569c-2.017-2.914-2.074-4.802-2.074-4.802s-0.84,2.784-2.857,4.802
			c-0.879,0.879-4.352,2.408-4.352,2.408s3.868,1.17,4.688,2.186c1.635,2.021,2.521,10.195,2.521,10.195s0.606-8.168,2.299-10.195
			c0.854-1.023,4.911-2.186,4.911-2.186S181.97,159.914,180.346,157.569z"/>
		<path fill="#FFFFFF" d="M215.825,209.964c-2.017-2.914-2.074-4.802-2.074-4.802s-0.84,2.784-2.857,4.802
			c-0.879,0.879-4.352,2.408-4.352,2.408s3.868,1.17,4.688,2.186c1.635,2.021,2.521,10.195,2.521,10.195s0.606-8.168,2.299-10.195
			c0.854-1.023,4.911-2.186,4.911-2.186S217.449,212.309,215.825,209.964z"/>
		<path fill="#FFFFFF" d="M233.825,350.963c-2.017-2.913-2.074-4.801-2.074-4.801s-0.84,2.783-2.857,4.801
			c-0.879,0.879-4.352,2.408-4.352,2.408s3.868,1.17,4.688,2.186c1.635,2.021,2.521,10.195,2.521,10.195s0.606-8.168,2.299-10.195
			c0.854-1.022,4.911-2.186,4.911-2.186S235.449,353.309,233.825,350.963z"/>
		<path fill="#FFFFFF" d="M127.346,30.569c-2.017-2.914-2.074-4.802-2.074-4.802s-0.84,2.784-2.857,4.802
			c-0.879,0.878-4.352,2.408-4.352,2.408s3.868,1.17,4.688,2.186c1.635,2.021,2.521,10.195,2.521,10.195s0.606-8.168,2.299-10.195
			c0.854-1.023,4.911-2.186,4.911-2.186S128.97,32.914,127.346,30.569z"/>
		<path fill="#FFFFFF" d="M21.526,19.569c-2.017-2.914-2.074-4.802-2.074-4.802s-0.84,2.784-2.857,4.802
			c-0.879,0.879-4.352,2.408-4.352,2.408s3.868,1.17,4.688,2.186c1.635,2.021,2.521,10.195,2.521,10.195s0.606-8.168,2.299-10.195
			c0.854-1.023,4.911-2.186,4.911-2.186S23.15,21.914,21.526,19.569z"/>
		<path fill="#FFFFFF" d="M185.825,404.168c-2.018-2.913-2.074-4.801-2.074-4.801s-0.84,2.783-2.857,4.801
			c-0.879,0.879-4.352,2.408-4.352,2.408s3.867,1.17,4.688,2.186c1.635,2.021,2.521,10.195,2.521,10.195s0.605-8.168,2.299-10.195
			c0.854-1.022,4.91-2.186,4.91-2.186S187.448,406.514,185.825,404.168z"/>
		<path fill="#FFFFFF" d="M148.751,489.163c-2.018-2.914-2.074-4.802-2.074-4.802s-0.84,2.784-2.857,4.802
			c-0.879,0.879-4.352,2.408-4.352,2.408s3.867,1.17,4.688,2.186c1.635,2.021,2.521,10.195,2.521,10.195s0.605-8.168,2.299-10.195
			c0.854-1.023,4.91-2.186,4.91-2.186S150.374,491.507,148.751,489.163z"/>
		<path fill="#FFFFFF" d="M201.169,444.26c-5.225-7.551-5.374-12.441-5.374-12.441s-2.177,7.214-7.403,12.441
			c-2.277,2.277-11.275,6.24-11.275,6.24s10.022,3.031,12.148,5.662c4.234,5.235,6.53,26.416,6.53,26.416s1.571-21.163,5.956-26.416
			c2.214-2.652,12.725-5.662,12.725-5.662S205.377,450.335,201.169,444.26z"/>
	</g>
	<rect x="-641.249" y="-42.837" display="inline" fill="#BCBEC0" width="1440" height="699.999"/>
	<g display="inline">
		<g>
			<rect x="-103.139" y="387.917" fill="#5D5D5D" width="284.134" height="108.973"/>
			<g>
				<g>
					<path fill="#DEDFE0" d="M-4.082,350.61l-134.758,13.547c-38.24,1.352-257.175,30.942-271.832,32.928
						c30.675,62.155,77.902,136.224,140.098,170.365c204.901,29.329,401.221,16.612,537.059-4.819
						c101.551-16.024,114.43-78.944,114.369-110.107c-17.133-12.823-35.637-18.694-35.637-18.694
						C287.706,328.117-4.082,350.61-4.082,350.61z M-42.523,443.792c0,4.818-3.907,8.725-8.724,8.725h-19.891
						c-4.818,0-8.725-3.906-8.725-8.725v-32.454c0-4.817,3.906-8.724,8.725-8.724h19.891c4.817,0,8.724,3.906,8.724,8.724V443.792z
						 M5.208,443.792c0,4.818-3.907,8.725-8.724,8.725h-19.892c-4.818,0-8.724-3.906-8.724-8.725v-32.454
						c0-4.817,3.906-8.724,8.724-8.724h19.892c4.817,0,8.724,3.906,8.724,8.724V443.792z M53.065,443.792
						c0,4.818-3.907,8.725-8.724,8.725H24.449c-4.817,0-8.724-3.906-8.724-8.725v-32.454c0-4.817,3.907-8.724,8.724-8.724h19.892
						c4.817,0,8.724,3.906,8.724,8.724V443.792z M100.396,443.792c0,4.818-3.906,8.725-8.725,8.725H71.78
						c-4.817,0-8.725-3.906-8.725-8.725v-32.454c0-4.817,3.907-8.724,8.725-8.724h19.891c4.818,0,8.725,3.906,8.725,8.724V443.792z
						 M148.253,443.792c0,4.818-3.906,8.725-8.725,8.725h-19.891c-4.818,0-8.725-3.906-8.725-8.725v-32.454
						c0-4.817,3.906-8.724,8.725-8.724h19.891c4.818,0,8.725,3.906,8.725,8.724V443.792z"/>
					
						<path fill="#0A2375" stroke="#0E2991" stroke-width="1.5777" stroke-linecap="round" stroke-linejoin="round" stroke-miterlimit="10" d="
						M380.854,452.523c0.061,31.163-12.818,94.083-114.369,110.107c-135.838,21.432-332.158,34.148-537.059,4.819
						c4.101,2.251,8.264,4.336,12.495,6.224c-4.23-1.888-8.394-3.973-12.495-6.224c-18.025-2.581-36.115-5.483-54.238-8.737
						c15.265,5.132,31.441,9.145,48.59,11.806c-17.149-2.661-33.326-6.674-48.59-11.806c-20.854-3.744-41.749-7.948-62.631-12.647
						c0,0-156.61-35.459-189.593-50.616c2.854,2.561,4.94,4.143,4.94,4.143l4.144,13.318
						c10.272,19.097,267.713,68.604,267.713,68.604c125.49,16.732,64.447,16.885,228.155,20.592
						c125.14,2.833,321.872-16.747,321.872-16.747c122.979-15.181,140.855-33.061,158.844-74.459
						C419.431,486.043,397.563,465.03,380.854,452.523z"/>
				</g>
				<path fill="#A5A5A5" d="M-25.419,553.691v56.853c77.56,33.612,164.163,1.059,164.163,1.059v-57.911
					C30.051,523.723-25.419,553.691-25.419,553.691z"/>
				<path fill="#BFC0C1" d="M58.946,502.05c0,0-354.708-57.527-367.289-59.808c0,0-40.984-46.914-53.681-55.464l-12.515,1.484
					c0,0,19.807,54.821,42.555,64.442c0,0,69.569,32.599,89.628,32.233l79.781,42.449c0,0,125.371-2.274,156.599-9.112
					C-5.975,518.276,79.188,511.714,58.946,502.05z"/>
				<ellipse fill="#A5A5A5" cx="137.687" cy="582.624" rx="9.291" ry="29.188"/>
			</g>
		</g>
		<path fill="#869FAD" d="M294.317,408.025v26.996h44.174c0,0-6.135-11.219-21.561-26.996H294.317z"/>
		<path fill="none" stroke="#AFB1B2" stroke-width="0.5259" stroke-miterlimit="10" d="M294.317,408.025v26.996h44.174
			c0,0-6.135-11.219-21.561-26.996H294.317z"/>
		<path fill="#AFB1B2" d="M139.528,402.615h-19.891c-4.818,0-8.725,3.906-8.725,8.724v32.454c0,4.818,3.906,8.725,8.725,8.725
			h19.891c4.818,0,8.725-3.906,8.725-8.725v-32.454C148.253,406.521,144.347,402.615,139.528,402.615z M145.114,443.792
			c0,3.079-2.508,5.584-5.586,5.584h-19.891c-3.078,0-5.584-2.505-5.584-5.584v-32.454c0-3.076,2.506-5.583,5.584-5.583h19.891
			c3.078,0,5.586,2.507,5.586,5.583V443.792z"/>
		<path fill="#AFB1B2" d="M91.671,402.615H71.78c-4.817,0-8.725,3.906-8.725,8.724v32.454c0,4.818,3.907,8.725,8.725,8.725h19.891
			c4.818,0,8.725-3.906,8.725-8.725v-32.454C100.396,406.521,96.489,402.615,91.671,402.615z M97.255,443.792
			c0,3.079-2.506,5.584-5.584,5.584H71.78c-3.078,0-5.584-2.505-5.584-5.584v-32.454c0-3.076,2.506-5.583,5.584-5.583h19.891
			c3.078,0,5.584,2.507,5.584,5.583V443.792z"/>
		<path fill="#AFB1B2" d="M44.341,402.615H24.449c-4.817,0-8.724,3.906-8.724,8.724v32.454c0,4.818,3.907,8.725,8.724,8.725h19.892
			c4.817,0,8.724-3.906,8.724-8.725v-32.454C53.065,406.521,49.158,402.615,44.341,402.615z M49.923,443.792
			c0,3.079-2.505,5.584-5.582,5.584H24.449c-3.077,0-5.582-2.505-5.582-5.584v-32.454c0-3.076,2.505-5.583,5.582-5.583h19.892
			c3.077,0,5.582,2.507,5.582,5.583V443.792z"/>
		<path fill="#AFB1B2" d="M-3.516,402.615h-19.892c-4.818,0-8.724,3.906-8.724,8.724v32.454c0,4.818,3.906,8.725,8.724,8.725h19.892
			c4.817,0,8.724-3.906,8.724-8.725v-32.454C5.208,406.521,1.301,402.615-3.516,402.615z M2.066,443.792
			c0,3.079-2.505,5.584-5.582,5.584h-19.892c-3.078,0-5.583-2.505-5.583-5.584v-32.454c0-3.076,2.504-5.583,5.583-5.583h19.892
			c3.077,0,5.582,2.507,5.582,5.583V443.792z"/>
	</g>
	<g display="inline">
		<rect x="-414.249" y="-33.837" fill="#27AAE1" width="988" height="684"/>
		<g>
			<path fill="#AAAAAA" d="M575.567-25.29h-991.123l971.261,668.527h19.861c1.543,0,2.796-1.557,2.796-3.483V-21.808
				C578.363-23.731,577.11-25.29,575.567-25.29z"/>
		</g>
		<rect x="-432.916" y="657.162" fill="#838483" width="1026" height="0.001"/>
		<path fill="#838483" d="M-432.916-42.837v699.999h1026V-42.837H-432.916z M-405.067,638.163v-662h970.302v662H-405.067z"/>
		<rect x="66.084" y="-31.837" fill="#9B9B9B" width="28" height="678"/>
		<rect x="66.084" y="-31.837" fill="#838483" width="28" height="678"/>
		<rect x="-420.249" y="293.163" fill="#9B9B9B" width="1000" height="28"/>
		<rect x="-420.249" y="293.163" fill="#838483" width="1000" height="28"/>
	</g>
	<g display="inline">
		<path fill="#262626" d="M375.9,42.336h-588.299c-0.931,0-1.686,0.755-1.686,1.686v320.278c0,0.93,0.755,1.686,1.686,1.686H375.9
			c0.931,0,1.686-0.756,1.686-1.686V44.021C377.586,43.091,376.831,42.336,375.9,42.336z"/>
		<path fill="#494949" d="M359.183,55.706h-555.706c-0.854,0-1.547,0.692-1.547,1.546v293.814c0,0.855,0.692,1.547,1.547,1.547
			h555.706c0.854,0,1.547-0.691,1.547-1.547V57.252C360.729,56.398,360.037,55.706,359.183,55.706z"/>
		<g>
			<path fill="#AAAAAA" d="M359.183,55.706h-548.249l537.264,296.908h10.985c0.854,0,1.547-0.691,1.547-1.547V57.252
				C360.729,56.398,360.037,55.706,359.183,55.706z"/>
		</g>
	</g>
	<g display="inline">
		<g>
			<path fill="#F4B07D" d="M129.414,548.279c-8.177-8.732-15.985-14.43-16.313-14.668c-3.48-2.525-8.349-1.75-10.872,1.729
				c-2.524,3.48-1.75,8.348,1.729,10.872c7.503,5.443,27.369,23.112,29.167,39.289c1.923,17.312,1.695,24.71,1.454,32.542
				c-0.085,2.76-0.173,5.613-0.173,8.94c0,4.299,3.485,7.784,7.784,7.784s7.784-3.485,7.784-7.784c0-3.088,0.084-5.819,0.166-8.461
				c0.247-8.029,0.503-16.332-1.543-34.74C147.342,572.479,140.888,560.535,129.414,548.279z"/>
		</g>
		<g>
			<path fill="#282828" d="M129.55,548.151c-8.188-8.746-16.011-14.453-16.34-14.691l-9.361,12.904
				c7.484,5.43,27.3,23.05,29.09,39.158c1.922,17.299,1.694,24.69,1.453,32.516c-0.085,2.761-0.173,5.616-0.173,8.946h15.943
				c0-3.085,0.084-5.815,0.165-8.455c0.248-8.036,0.504-16.346-1.543-34.768C147.523,572.417,141.053,560.437,129.55,548.151z"/>
		</g>
		<g>
			<path fill="#F4B07D" d="M48.936,534.146c-0.329,0.238-8.136,5.936-16.312,14.668c-11.473,12.255-17.927,24.2-19.184,35.504
				c-2.045,18.407-1.789,26.71-1.542,34.739c0.081,2.642,0.166,5.374,0.166,8.462c0,4.299,3.485,7.784,7.784,7.784
				s7.784-3.485,7.784-7.784c0-3.328-0.088-6.182-0.173-8.941c-0.241-7.832-0.469-15.229,1.454-32.54
				c1.79-16.1,21.653-33.815,29.165-39.29c3.48-2.524,4.254-7.393,1.729-10.872C57.283,532.396,52.415,531.621,48.936,534.146z"/>
		</g>
		<g>
			<path fill="#282828" d="M58.188,546.899l-4.681-6.452l-4.681-6.452c-0.329,0.238-8.151,5.945-16.339,14.691
				c-11.501,12.285-17.972,24.267-19.233,35.611c-2.046,18.421-1.791,26.729-1.543,34.766c0.082,2.641,0.166,5.371,0.166,8.456
				H27.82c0-3.331-0.088-6.186-0.173-8.947c-0.241-7.825-0.469-15.216,1.453-32.514c1.782-16.036,21.607-33.708,29.095-39.164
				l-4.688-6.447L58.188,546.899z"/>
		</g>
		<g>
			<g>
				<path fill="#F4B07D" d="M48.418,494.56c-0.592,2.493-0.64,15.98,7.03,7.459l0.213-6.82
					C55.662,495.199,50.336,486.463,48.418,494.56z"/>
			</g>
			<g>
				<path fill="#F4B07D" d="M106.244,495.199l0.215,6.82c7.669,8.521,7.621-4.966,7.03-7.459
					C111.572,486.463,106.244,495.199,106.244,495.199z"/>
			</g>
		</g>
		<g>
			<polygon fill="#B7B7B7" points="49.39,526.243 56.844,532.69 55.837,525.436 			"/>
		</g>
		<g>
			<polygon fill="#B7B7B7" points="105.498,532.69 112.953,526.243 106.506,525.436 			"/>
		</g>
		<g>
			<path fill="#F4B07D" d="M55.792,501.901c0,22.024-12.444,67.98-12.444,67.98h76.019c0,0-12.667-36.151-12.667-67.98
				C106.699,489.175,55.792,489.174,55.792,501.901z"/>
		</g>
		<g>
			<polygon fill="#282828" points="75.314,532.129 49.465,529.455 49.533,533.251 71.214,555.837 112.572,536.942 112.572,528.028 
				103.658,530.345 			"/>
		</g>
		<g>
			<path fill="#FFFFFF" d="M49.643,526.067l-0.178,3.388c34.763,8.735,63.107,0.178,63.107,0.178v-3.208
				C71.392,535.159,49.643,526.067,49.643,526.067z"/>
		</g>
		<g>
			<path fill="#2D2D2D" d="M63.917,615.905c-4.896,0-8.864,3.969-8.864,8.864v32.393h17.729v-32.393
				C72.781,619.874,68.812,615.905,63.917,615.905z"/>
		</g>
		<g>
			<path fill="#2D2D2D" d="M96.933,615.905c-4.896,0-8.864,3.969-8.864,8.864v32.393h17.729v-32.393
				C105.797,619.874,101.828,615.905,96.933,615.905z"/>
		</g>
		<g>
			<path fill="#F4B07D" d="M38.722,587.251c0,29.476,0,33.488,0,33.926c0,0.038,0,0.05,0,0.048c0,0.017,0,0.038,0,0.067
				c0,0.073,4.429,0.107,4.429,0.107h38.225v-84.638H52.008C47.478,556.107,38.722,554.549,38.722,587.251z"/>
		</g>
		<g>
			<path fill="#F4B07D" d="M79.91,536.762V621.4h38.224c0,0,4.429-0.034,4.429-0.107c0-0.029,0-0.051,0-0.067
				c0,0.002,0-0.01,0-0.048c0-0.438,0-4.45,0-33.926c0-32.702-8.754-31.145-13.286-50.489H79.91z"/>
		</g>
		<g>
			<path fill="#2D2D2D" d="M80.638,656.561c23.346,0,42.271-14.498,42.271-37.844H38.366
				C38.366,642.063,57.292,656.561,80.638,656.561z"/>
		</g>
		<g>
			<rect x="38.705" y="618.775" fill="#161516" width="84.038" height="6.319"/>
		</g>
		<g>
			<path fill="#282828" d="M31.748,628.618c0,0,2.683,1.216,9.439,1.216c0,0,36.741,1.617,38.228-0.137V609.56l-45.94-10.214
				C33.474,599.346,33.138,619.425,31.748,628.618z"/>
		</g>
		<g>
			<path fill="#282828" d="M34.37,619.693h48.789v-86.441H49.533C27.72,556.637,34.37,619.693,34.37,619.693z"/>
		</g>
		<g>
			<path fill="#282828" d="M78.523,609.56v20.137c1.489,1.754,41.602,0.81,41.602,0.81c6.758,0,11.765-1.344,11.765-1.344
				c-2.115-6.851-2.115-27.399-2.115-27.399L78.523,609.56z"/>
		</g>
		<g>
			<path fill="#282828" d="M112.595,533.243l-37.637,0.009v86.441h54.675C129.633,619.693,133.294,548.032,112.595,533.243z"/>
		</g>
		<g>
			<g>
				<path fill="#776537" d="M59.812,512.002c0,0-2.644,0.966-2.619,5.439c0.01,1.5,0.806,5.439-2.015,5.642
					c0,0,3.425,0.402,4.432-1.813c0,0-0.202,4.03-1.813,5.036c0,0,9.469,4.03,11.081-5.036l-0.805-13.297
					C68.072,507.973,62.229,505.555,59.812,512.002z"/>
			</g>
			<g>
				<g>
					<g>
						<path fill="#776537" d="M53.562,458.764c-7.405,5.684-10.675,29.297,1.789,41.763l27.06-30.258l-0.64-11.717
							C81.771,458.552,71.886,444.703,53.562,458.764z"/>
					</g>
					<g>
						<path fill="#776537" d="M110.077,458.764c-18.324-14.062-28.209-0.212-28.209-0.212l-0.639,11.717l27.06,30.258
							C120.753,488.061,117.48,464.449,110.077,458.764z"/>
					</g>
					<g>
						<path fill="#776537" d="M80.354,463.583c-16.215-0.218-23.025,9.946-23.025,9.946c-5.691,8.651-3.99,35.376-3.99,35.376
							c0,13.222,19.743,23.757,28.035,23.757c8.293,0,28.107-9.848,28.107-23.757c0,0,1.397-26.725-4.294-35.376
							C105.188,473.53,96.632,463.366,80.354,463.583z"/>
					</g>
					<g>
						<path fill="#776537" d="M84.881,459.973l-19.315,2.129l-13.069,2.841c0,0-3.129,18.683-2.703,18.824
							c0.425,0.143,15.06-7.602,15.06-7.602l16.977-5.896l25.212,7.743l5.115-2.13l-2.7-13.354L84.881,459.973z"/>
					</g>
					<g>
						<path fill="#776537" d="M83.889,445.483c-3.268,1.137-4.829,8.808-4.829,8.808c0-3.696-3.837-7.389-3.837-7.389
							c1.165,5.034-2.273,6.253-2.273,6.253l-2.271,9.8l13.067,2.414l7.104-8.663l1.788-4.099
							C82.699,455.563,83.889,445.483,83.889,445.483z"/>
					</g>
				</g>
				<g>
					<path fill="#776537" d="M52.681,505.049c0,0-2.644,0.967-2.619,5.439c0.01,1.499,0.805,5.439-2.015,5.642
						c0,0,3.425,0.403,4.432-1.812c0,0-0.201,4.028-1.813,5.035c0,0,9.469,4.03,11.08-5.035l-0.805-13.297
						C60.941,501.021,55.099,498.602,52.681,505.049z"/>
				</g>
				<g>
					<path fill="#776537" d="M66.765,515.033c0,0-2.645,0.968-2.619,5.44c0.009,1.499,0.805,5.439-2.016,5.641
						c0,0,3.425,0.403,4.432-1.812c0,0-0.201,4.029-1.813,5.036c0,0,9.47,4.029,11.081-5.036l-0.805-13.297
						C75.024,511.004,69.182,508.586,66.765,515.033z"/>
				</g>
				<g>
					<path fill="#776537" d="M104.477,517.442c0.026-4.474-2.618-5.439-2.618-5.439c-2.418-6.447-8.26-4.029-8.26-4.029
						l-0.807,13.297c1.612,9.066,11.081,5.036,11.081,5.036c-1.611-1.006-1.813-5.036-1.813-5.036
						c1.007,2.216,4.433,1.813,4.433,1.813C103.672,522.881,104.468,518.942,104.477,517.442z"/>
				</g>
				<g>
					<path fill="#776537" d="M97.525,520.473c0.025-4.473-2.619-5.44-2.619-5.44c-2.418-6.446-8.261-4.028-8.261-4.028
						l-0.805,13.297c1.61,9.065,11.08,5.036,11.08,5.036c-1.611-1.007-1.813-5.036-1.813-5.036c1.008,2.216,4.432,1.812,4.432,1.812
						C96.72,525.913,97.515,521.972,97.525,520.473z"/>
				</g>
				<g>
					<path fill="#776537" d="M53.395,495.245c0,0-2.645,0.966-2.619,5.439c0.009,1.5,0.805,5.44-2.016,5.642
						c0,0,3.425,0.402,4.432-1.813c0,0-0.201,4.03-1.813,5.036c0,0,9.47,4.03,11.081-5.036l-0.805-13.297
						C61.654,491.215,55.812,488.797,53.395,495.245z"/>
				</g>
				<g>
					<path fill="#776537" d="M112.302,510.489c0.025-4.473-2.618-5.439-2.618-5.439c-2.419-6.447-8.26-4.028-8.26-4.028
						l-0.806,13.297c1.611,9.065,11.079,5.035,11.079,5.035c-1.611-1.007-1.813-5.035-1.813-5.035
						c1.008,2.216,4.434,1.812,4.434,1.812C111.496,515.928,112.293,511.988,112.302,510.489z"/>
				</g>
				<g>
					<path fill="#776537" d="M112.302,501.041c0.025-4.473-2.618-5.439-2.618-5.439c-2.419-6.447-8.26-4.028-8.26-4.028
						l-0.806,13.296c1.611,9.066,11.079,5.036,11.079,5.036c-1.611-1.006-1.813-5.036-1.813-5.036
						c1.008,2.216,4.434,1.813,4.434,1.813C111.496,506.481,112.293,502.541,112.302,501.041z"/>
				</g>
			</g>
		</g>
	</g>
	<g display="inline">
		<path fill="#3F3F3F" d="M18.918,561.277h-99.771c-0.551,0-0.998,0.446-0.998,0.997v94.888H19.917v-94.888
			C19.917,561.723,19.469,561.277,18.918,561.277z"/>
		<path fill="#3F3F3F" d="M242.405,561.277h-99.771c-0.552,0-0.998,0.446-0.998,0.997v94.888h101.766v-94.888
			C243.402,561.723,242.956,561.277,242.405,561.277z"/>
		<path fill="#3F3F3F" d="M354.147,561.277h-99.771c-0.551,0-0.998,0.446-0.998,0.997v94.888h101.767v-94.888
			C355.146,561.723,354.698,561.277,354.147,561.277z"/>
		<path fill="#3F3F3F" d="M465.479,561.277h-99.771c-0.551,0-0.998,0.446-0.998,0.997v94.888h101.766v-94.888
			C466.476,561.723,466.029,561.277,465.479,561.277z"/>
		<path fill="#3F3F3F" d="M577.222,561.277h-99.771c-0.552,0-0.998,0.446-0.998,0.997v94.888H578.22v-94.888
			C578.22,561.723,577.772,561.277,577.222,561.277z"/>
		<path fill="#3F3F3F" d="M130.662,561.277H30.891c-0.551,0-0.998,0.446-0.998,0.997v94.888h101.766v-94.888
			C131.659,561.723,131.213,561.277,130.662,561.277z"/>
	</g>
</g>
</svg>
