<?xml version="1.0" encoding="utf-8"?>
<!-- Generator: Adobe Illustrator 16.0.0, SVG Export Plug-In . SVG Version: 6.00 Build 0)  -->
<!DOCTYPE svg PUBLIC "-//W3C//DTD SVG 1.1//EN" "http://www.w3.org/Graphics/SVG/1.1/DTD/svg11.dtd">
<svg version="1.1" id="Layer_1" xmlns="http://www.w3.org/2000/svg" xmlns:xlink="http://www.w3.org/1999/xlink" x="0px" y="0px"
	 width="339.513px" height="339.514px" viewBox="0 0 339.513 339.514" enable-background="new 0 0 339.513 339.514"
	 xml:space="preserve">
<circle fill="#08283A" cx="169.756" cy="169.758" r="169.756"/>
<path fill="#E6E7E8" d="M169.757,0C76.003,0,0,76.004,0,169.758s76.003,169.756,169.757,169.756s169.756-76.002,169.756-169.756
	S263.511,0,169.757,0z M169.757,321.514c-83.813,0-151.758-67.943-151.758-151.756C17.999,85.943,85.943,18,169.757,18
	s151.757,67.943,151.757,151.758C321.514,253.57,253.57,321.514,169.757,321.514z"/>
<g>
	<defs>
		<circle id="SVGID_1_" cx="169.757" cy="169.757" r="151.757"/>
	</defs>
	<clipPath id="SVGID_2_">
		<use xlink:href="#SVGID_1_"  overflow="visible"/>
	</clipPath>
	<g clip-path="url(#SVGID_2_)">
		<g>
			<g>
				
					<path fill="none" stroke="#D48D51" stroke-width="31.1994" stroke-linecap="round" stroke-linejoin="round" stroke-miterlimit="10" d="
					M208.522,219.162c0,0,58.234,42.25,63.268,87.527c5.198,46.799,2.6,89.605,2.6,114.396"/>
				<path fill="none" stroke="#032C6D" stroke-width="32.3838" stroke-linejoin="round" stroke-miterlimit="10" d="M208.522,219.162
					c0,0,46.202,33.521,59.854,72.848"/>
			</g>
			<polygon fill="#161616" points="123.39,201.273 135.236,199.793 137.087,213.121 			"/>
			<polygon fill="#161616" points="216.621,201.273 204.771,199.793 202.923,213.121 			"/>
			<path fill="#D48D51" d="M233.117,278.338H109.595c0,0,24.227-45.475,24.35-133.029c0.035-24.904,74.387-24.904,74.387,0
				C208.331,262.205,233.117,278.338,233.117,278.338z"/>
			<path opacity="0.1" fill="#231F20" d="M132.638,176.473c0,0,3.738,31.971,36.953,31.971c0,0,38.611-2.496,38.611-34.049
				L132.638,176.473z"/>
			<path fill="#032C6D" d="M225.989,213.529h-54.594h-2.871l-51.181,0.17c-13.106,35.102-16.802,34.635-16.802,98.623
				c0,78.771,0,96.156,0,98.156c0,0.143,8.667,0.209,8.667,0.209h59.315h2.871h59.313c0,0,8.668-0.066,8.668-0.209
				c0-2,0-19.385,0-98.156C239.377,248.334,234.861,251.383,225.989,213.529z"/>
			<path fill="#032C6D" d="M222.581,213.699c0,0-1.185-4.994-6.045-12.426c0,0-21.378,12.426-47.919,12.426v19.139L222.581,213.699z
				"/>
			<path fill="#032C6D" d="M117.344,213.699c0,0,1.19-4.994,6.046-12.426c0,0,21.383,12.426,47.918,12.426v19.139L117.344,213.699z"
				/>
		</g>
		<g>
			
				<ellipse transform="matrix(0.9738 -0.2273 0.2273 0.9738 -26.5791 30.7596)" fill="#D48D51" cx="120.245" cy="130.766" rx="13.729" ry="20.704"/>
			
				<ellipse transform="matrix(-0.9738 -0.2273 0.2273 -0.9738 406.1906 308.3126)" fill="#D48D51" cx="220.85" cy="130.766" rx="13.73" ry="20.704"/>
			<path fill="#D48D51" d="M220.399,118.389c0-73.596-47.315-61.502-49.853-60.801c-2.535-0.701-49.851-12.795-49.851,60.801
				c0,0-1.35,16.654,6.75,42.762c0,0,3.604,20.707,22.957,35.561c0,0,4.021,5.342,20.029,5.395v0.006
				c0.041,0,0.075-0.002,0.114-0.002c0.041,0,0.075,0.002,0.114,0.002v-0.006c16.007-0.053,20.03-5.395,20.03-5.395
				c19.354-14.854,22.955-35.561,22.955-35.561C221.747,135.043,220.399,118.389,220.399,118.389z"/>
			<path fill="#181812" d="M121.595,130.992c0,0-13.952-26.111-11.702-40.961c0,0,0.899-31.961,16.654-34.662
				c0,0,9.453-19.354,22.507-20.707c0,0,4.051-3.6,4.5-5.4c0,0,3.602,0.9,5.4,2.701c1.801,1.799,1.801,1.799,1.801,1.799
				s0.902-7.199,5.854-7.65l4.5-0.449v31.961l-0.9,18C170.208,75.623,119.794,67.523,121.595,130.992z"/>
			<path fill="#2B1609" d="M150.854,123.342c0,2.234-1.815,4.049-4.053,4.049c-2.238,0-4.051-1.814-4.051-4.049
				c0-2.242,1.812-4.055,4.051-4.055C149.039,119.287,150.854,121.1,150.854,123.342z"/>
			<g>
				<path fill="#0B110F" d="M154.847,115.447c0,0-0.063-0.05-0.183-0.143c-0.089-0.071-0.244-0.188-0.484-0.349
					c-0.221-0.163-0.525-0.335-0.856-0.549c-0.353-0.184-0.732-0.433-1.184-0.635c-0.44-0.227-0.93-0.444-1.461-0.648
					c-0.521-0.237-1.102-0.374-1.691-0.584c-0.603-0.12-1.223-0.335-1.87-0.401c-0.323-0.046-0.65-0.093-0.978-0.141
					c-0.33-0.035-0.66-0.03-0.993-0.049c-0.669-0.061-1.331,0.01-1.99,0.056l-0.494,0.033l-0.479,0.093
					c-0.32,0.061-0.637,0.121-0.947,0.18c-0.632,0.097-1.196,0.359-1.764,0.517c-0.574,0.149-1.062,0.429-1.537,0.638
					c-0.461,0.234-0.925,0.386-1.271,0.637c-0.361,0.225-0.677,0.422-0.937,0.584c-0.523,0.326-0.822,0.512-0.822,0.512
					l-0.068,0.043c-0.316,0.196-0.73,0.1-0.928-0.216c-0.18-0.29-0.113-0.664,0.145-0.875c0,0,0.289-0.238,0.797-0.655
					c0.255-0.209,0.565-0.463,0.921-0.754c0.341-0.315,0.813-0.549,1.286-0.869c0.487-0.297,0.992-0.67,1.604-0.924
					c0.604-0.261,1.214-0.631,1.912-0.839c0.347-0.114,0.699-0.23,1.056-0.349l0.542-0.176l0.562-0.115
					c0.755-0.155,1.526-0.332,2.313-0.369c0.393-0.03,0.787-0.082,1.18-0.092c0.393,0.005,0.785,0.01,1.174,0.014
					c0.783-0.015,1.535,0.128,2.279,0.188c0.723,0.147,1.445,0.234,2.096,0.428c0.663,0.161,1.281,0.346,1.844,0.546
					c0.57,0.176,1.068,0.407,1.525,0.58c0.445,0.208,0.838,0.37,1.156,0.542c0.312,0.154,0.58,0.303,0.773,0.418
					c0.164,0.097,0.252,0.148,0.252,0.148c1.039,0.609,1.387,1.947,0.775,2.986c-0.609,1.039-1.947,1.387-2.986,0.775
					c-0.077-0.045-0.151-0.096-0.221-0.148L154.847,115.447z"/>
			</g>
			<path fill="#181812" d="M219.499,130.992c0,0,13.951-26.111,11.701-40.961c0,0-0.9-31.961-16.654-34.662
				c0,0-9.453-19.354-22.507-20.707c0,0-4.05-3.6-4.5-5.4c0,0-3.601,0.9-5.401,2.701c-1.8,1.799-1.8,1.799-1.8,1.799
				s-0.902-7.199-5.853-7.65l-4.501-0.449v31.961l-0.676,18C169.309,75.623,221.3,67.523,219.499,130.992z"/>
			<g>
				<g opacity="0.2">
					<path fill="#231F20" d="M182.834,136.646c0.159,0.234,0.316,0.509,0.44,0.75c0.129,0.252,0.248,0.509,0.35,0.773
						c0.217,0.524,0.357,1.084,0.463,1.652c0.026,0.292,0.062,0.583,0.074,0.877c-0.014,0.297-0.016,0.594-0.05,0.891
						c-0.06,0.293-0.113,0.59-0.187,0.881l-0.332,0.84c-0.137,0.264-0.306,0.51-0.461,0.764c-0.145,0.267-0.368,0.453-0.555,0.678
						c-0.195,0.217-0.387,0.439-0.617,0.602l-0.666,0.528c-0.225,0.173-0.473,0.29-0.708,0.437
						c-0.239,0.136-0.476,0.283-0.718,0.409l-1.491,0.641l0.537-0.631l-0.001,0.003c-0.082,0.581-0.225,0.967-0.434,1.406
						c-0.197,0.426-0.472,0.803-0.764,1.164c-0.305,0.352-0.645,0.667-1.008,0.945c-0.365,0.272-0.754,0.525-1.156,0.713
						c-0.4,0.214-0.812,0.371-1.23,0.505c-0.418,0.147-0.838,0.222-1.26,0.331c-0.42,0.068-0.844,0.121-1.264,0.169l-1.252,0.061
						l-1.201-0.058c-0.426-0.046-0.881-0.1-1.313-0.171c-0.422-0.11-0.843-0.185-1.26-0.331c-0.419-0.135-0.831-0.291-1.231-0.505
						c-0.402-0.188-0.791-0.441-1.156-0.712c-0.363-0.28-0.704-0.596-1.008-0.947c-0.292-0.361-0.566-0.738-0.764-1.165
						c-0.208-0.438-0.351-0.825-0.433-1.405l-0.001-0.004l0.537,0.632l-1.49-0.641c-0.243-0.126-0.479-0.273-0.719-0.409
						c-0.236-0.146-0.484-0.264-0.707-0.437l-0.666-0.528c-0.231-0.162-0.423-0.385-0.617-0.602
						c-0.188-0.225-0.412-0.411-0.555-0.678c-0.156-0.254-0.324-0.5-0.463-0.764l-0.331-0.84c-0.073-0.29-0.128-0.587-0.187-0.881
						c-0.035-0.296-0.035-0.594-0.051-0.891c0.012-0.294,0.049-0.584,0.074-0.876c0.105-0.569,0.247-1.128,0.463-1.652
						c0.102-0.266,0.221-0.521,0.35-0.774c0.135-0.258,0.261-0.484,0.449-0.763c0.262-0.386,0.787-0.485,1.173-0.224
						s0.485,0.786,0.224,1.172l-0.021,0.033c-0.098,0.145-0.224,0.362-0.324,0.557c-0.103,0.203-0.199,0.408-0.279,0.621
						c-0.176,0.421-0.279,0.856-0.363,1.29l-0.055,0.648c0.016,0.212,0.012,0.427,0.035,0.637l0.13,0.616l0.231,0.584
						c0.1,0.186,0.226,0.36,0.332,0.543c0.092,0.193,0.278,0.334,0.414,0.502c0.146,0.163,0.283,0.334,0.477,0.464l0.532,0.424
						c0.179,0.141,0.399,0.24,0.596,0.364c0.204,0.115,0.4,0.24,0.61,0.35l1.322,0.568l0.537,0.632l0,0
						c0.103,0.163,0.293,0.476,0.482,0.689c0.188,0.235,0.415,0.444,0.65,0.635c0.238,0.19,0.49,0.361,0.764,0.506
						c0.278,0.138,0.546,0.292,0.855,0.386c0.293,0.115,0.608,0.193,0.924,0.277c0.311,0.09,0.652,0.119,0.975,0.186l0.967,0.1
						l1.092,0.029l1.042-0.026l1.017-0.104c0.321-0.066,0.664-0.096,0.975-0.185c0.315-0.084,0.631-0.163,0.924-0.279
						c0.31-0.094,0.577-0.247,0.855-0.385c0.273-0.145,0.526-0.315,0.764-0.506c0.236-0.189,0.463-0.398,0.652-0.635
						c0.188-0.213,0.379-0.525,0.481-0.689l0,0l0.537-0.631l1.323-0.568c0.209-0.109,0.405-0.234,0.609-0.35
						c0.197-0.124,0.417-0.224,0.596-0.364l0.533-0.424c0.191-0.13,0.328-0.301,0.475-0.464c0.137-0.168,0.322-0.309,0.414-0.502
						c0.107-0.183,0.233-0.357,0.332-0.543l0.232-0.584l0.129-0.616c0.023-0.21,0.02-0.425,0.036-0.637l-0.055-0.649
						c-0.085-0.433-0.188-0.868-0.364-1.289c-0.08-0.213-0.176-0.418-0.279-0.621c-0.111-0.211-0.206-0.381-0.333-0.57l-0.006-0.008
						c-0.261-0.387-0.158-0.912,0.229-1.172C182.051,136.16,182.573,136.26,182.834,136.646z"/>
				</g>
			</g>
			<path fill="#2B1609" d="M190.239,123.342c0,2.234,1.814,4.049,4.053,4.049s4.051-1.814,4.051-4.049
				c0-2.242-1.812-4.055-4.051-4.055S190.239,121.1,190.239,123.342z"/>
			<g>
				<path fill="#0B110F" d="M183.769,111.871c0,0,0.088-0.052,0.252-0.148c0.193-0.115,0.461-0.264,0.773-0.418
					c0.318-0.172,0.71-0.334,1.156-0.542c0.456-0.173,0.954-0.404,1.525-0.58c0.562-0.2,1.18-0.385,1.842-0.546
					c0.652-0.193,1.375-0.28,2.097-0.428c0.745-0.06,1.495-0.203,2.28-0.188c0.389-0.005,0.779-0.009,1.173-0.014
					c0.393,0.01,0.788,0.062,1.18,0.092c0.787,0.037,1.559,0.215,2.313,0.369l0.562,0.115l0.542,0.177
					c0.357,0.117,0.709,0.233,1.056,0.348c0.698,0.208,1.307,0.578,1.911,0.839c0.613,0.254,1.117,0.627,1.605,0.924
					c0.473,0.32,0.944,0.554,1.285,0.869c0.355,0.291,0.666,0.545,0.922,0.754c0.506,0.417,0.796,0.655,0.796,0.655
					c0.287,0.235,0.329,0.659,0.093,0.946c-0.217,0.265-0.594,0.32-0.875,0.145l-0.069-0.043c0,0-0.299-0.186-0.822-0.512
					c-0.26-0.162-0.575-0.359-0.937-0.584c-0.346-0.251-0.809-0.402-1.27-0.637c-0.475-0.209-0.963-0.488-1.537-0.638
					c-0.568-0.157-1.133-0.42-1.764-0.516c-0.311-0.06-0.627-0.12-0.947-0.181l-0.479-0.093l-0.494-0.033
					c-0.659-0.046-1.321-0.116-1.989-0.056c-0.334,0.019-0.664,0.014-0.993,0.049c-0.327,0.048-0.653,0.095-0.978,0.141
					c-0.646,0.066-1.268,0.281-1.87,0.4c-0.589,0.211-1.17,0.348-1.691,0.584c-0.53,0.205-1.021,0.422-1.46,0.649
					c-0.451,0.202-0.832,0.45-1.184,0.635c-0.331,0.214-0.636,0.386-0.856,0.549c-0.239,0.161-0.396,0.276-0.484,0.349
					c-0.119,0.093-0.183,0.142-0.183,0.142l-0.039,0.03c-0.951,0.738-2.322,0.564-3.061-0.388s-0.564-2.323,0.388-3.062
					C183.608,111.973,183.692,111.916,183.769,111.871z"/>
			</g>
			<g>
				<g>
					
						<path fill="none" stroke="#F6E5D9" stroke-width="1.3504" stroke-linecap="round" stroke-linejoin="round" stroke-miterlimit="10" d="
						M139.601,181.516"/>
				</g>
			</g>
			<g>
				
					<path fill="#B77849" stroke="#B77849" stroke-width="1.3504" stroke-linecap="round" stroke-linejoin="round" stroke-miterlimit="10" d="
					M185.991,162.303c0,0-7.658,2.193-15.418,2.193s-15.416-2.193-15.416-2.193S169.926,177.186,185.991,162.303z"/>
			</g>
			<path opacity="0.1" fill="#231F20" d="M163.907,171.725c0,0,8.777,2.699,13.504-0.674
				C177.411,171.051,171.335,183.543,163.907,171.725z"/>
			<path opacity="0.1" fill="#231F20" d="M155.131,143.031c0,0-1.442,8.262-8.777,12.154c-2.312,1.229-6.415,5.396-4.727,12.152
				c0,0-1.132-5.787,6.303-10.127C151.326,155.227,155.808,152.82,155.131,143.031z"/>
			<path opacity="0.1" fill="#231F20" d="M186.087,143.031c0,0,1.442,8.262,8.774,12.154c2.311,1.229,6.417,5.396,4.729,12.152
				c0,0,1.129-5.787-6.3-10.127C189.889,155.227,185.413,152.82,186.087,143.031z"/>
			<path opacity="0.05" fill="#231F20" d="M141.795,129.357c0,0,6.753,3.379,9.453-0.168
				C151.248,129.189,149.224,135.604,141.795,129.357z"/>
			<path opacity="0.05" fill="#231F20" d="M190.073,129.357c0,0,6.748,3.379,9.451-0.168
				C199.524,129.189,197.498,135.604,190.073,129.357z"/>
			<path fill="#181812" d="M217.193,71.801l-46.09-14.064l0.005-0.113l-0.192,0.055l-1.661-0.506l-0.034,1.016l-45.374,13.613
				l-6.077,27.004l3.715,30.553c0,0,5.231-20.256,5.231-26.502c0,0,14.35-14.346,16.879-20.592c0,0,20.539-0.057,25.494-4.904
				c5.172,4.623,28.354,4.904,28.354,4.904c2.532,6.246,16.88,20.592,16.88,20.592c0,6.246,5.233,26.502,5.233,26.502l3.712-30.553
				L217.193,71.801z"/>
		</g>
		<g>
			<path fill="#B0171C" d="M118.979,182.695c0,0,31.263,36.23,44.679,37.408c0,0,11.47-0.52,18.103-10.982l2.146-4.953
				c0,0,3.085-2.588-8.309-9.488l-13.59-7.855c0,0-2.553-3.465-7.268,4.697c0,0-2.242,8.176-9.682,1.814
				c0,0-11.105-11.992-16.623-18.57L118.979,182.695z"/>
			<path fill="#B0171C" d="M118.979,182.695c0,0-30.231-37.088-29.055-50.506c0,0,2.507-11.205,13.964-15.916l5.251-1.252
				c0,0,3.083-2.586,7.896,9.832l5.373,14.754c0,0,2.965,3.117-5.889,6.34c0,0-8.447,0.781-3.475,9.215
				c0,0,9.875,13.025,15.391,19.604L118.979,182.695z"/>
		</g>
		
			<path fill="none" stroke="#D48D51" stroke-width="38.8816" stroke-linecap="round" stroke-linejoin="round" stroke-miterlimit="10" d="
			M55.805,307.463c-10.534,3.363-21.356,3.16-31.909-2.668c-47.632-26.312,50.186-111.496,75.18-127.178"/>
		<path fill="none" stroke="#032C6D" stroke-width="38.8804" stroke-linejoin="round" stroke-miterlimit="10" d="M133.18,227.855
			c0.001,0-31.176,56.805-68.116,75.742c-8.277,4.246-16.846,6.59-25.416,5.969"/>
	</g>
</g>
<circle fill="#08283A" cx="169.756" cy="169.758" r="169.756"/>
<path fill="#E6E7E8" d="M169.757,0C76.003,0,0,76.004,0,169.758s76.003,169.756,169.757,169.756s169.756-76.002,169.756-169.756
	S263.511,0,169.757,0z M169.757,321.514c-83.813,0-151.758-67.943-151.758-151.756C17.999,85.943,85.943,18,169.757,18
	s151.757,67.943,151.757,151.758C321.514,253.57,253.57,321.514,169.757,321.514z"/>
<g>
	<defs>
		<circle id="SVGID_3_" cx="169.757" cy="169.757" r="151.757"/>
	</defs>
	<clipPath id="SVGID_4_">
		<use xlink:href="#SVGID_3_"  overflow="visible"/>
	</clipPath>
	<g clip-path="url(#SVGID_4_)">
		<g>
			<g>
				
					<path fill="none" stroke="#D48D51" stroke-width="31.1994" stroke-linecap="round" stroke-linejoin="round" stroke-miterlimit="10" d="
					M208.522,219.162c0,0,58.234,42.25,63.268,87.527c5.198,46.799,2.6,89.605,2.6,114.396"/>
				<path fill="none" stroke="#032C6D" stroke-width="32.3838" stroke-linejoin="round" stroke-miterlimit="10" d="M208.522,219.162
					c0,0,46.202,33.521,59.854,72.848"/>
			</g>
			<polygon fill="#161616" points="123.39,201.273 135.236,199.793 137.087,213.121 			"/>
			<polygon fill="#161616" points="216.621,201.273 204.771,199.793 202.923,213.121 			"/>
			<path fill="#D48D51" d="M233.117,278.338H109.595c0,0,24.227-45.475,24.35-133.029c0.035-24.904,74.387-24.904,74.387,0
				C208.331,262.205,233.117,278.338,233.117,278.338z"/>
			<path opacity="0.1" fill="#231F20" d="M132.638,176.473c0,0,3.738,31.971,36.953,31.971c0,0,38.611-2.496,38.611-34.049
				L132.638,176.473z"/>
			<path fill="#032C6D" d="M225.989,213.529h-54.594h-2.871l-51.181,0.17c-13.106,35.102-16.802,34.635-16.802,98.623
				c0,78.771,0,96.156,0,98.156c0,0.143,8.667,0.209,8.667,0.209h59.315h2.871h59.313c0,0,8.668-0.066,8.668-0.209
				c0-2,0-19.385,0-98.156C239.377,248.334,234.861,251.383,225.989,213.529z"/>
			<path fill="#032C6D" d="M222.581,213.699c0,0-1.185-4.994-6.045-12.426c0,0-21.378,12.426-47.919,12.426v19.139L222.581,213.699z
				"/>
			<path fill="#032C6D" d="M117.344,213.699c0,0,1.19-4.994,6.046-12.426c0,0,21.383,12.426,47.918,12.426v19.139L117.344,213.699z"
				/>
		</g>
		<g>
			
				<ellipse transform="matrix(0.9738 -0.2273 0.2273 0.9738 -26.5791 30.7596)" fill="#D48D51" cx="120.245" cy="130.766" rx="13.729" ry="20.704"/>
			
				<ellipse transform="matrix(-0.9738 -0.2273 0.2273 -0.9738 406.1906 308.3126)" fill="#D48D51" cx="220.85" cy="130.766" rx="13.73" ry="20.704"/>
			<path fill="#D48D51" d="M220.399,118.389c0-73.596-47.315-61.502-49.853-60.801c-2.535-0.701-49.851-12.795-49.851,60.801
				c0,0-1.35,16.654,6.75,42.762c0,0,3.604,20.707,22.957,35.561c0,0,4.021,5.342,20.029,5.395v0.006
				c0.041,0,0.075-0.002,0.114-0.002c0.041,0,0.075,0.002,0.114,0.002v-0.006c16.007-0.053,20.03-5.395,20.03-5.395
				c19.354-14.854,22.955-35.561,22.955-35.561C221.747,135.043,220.399,118.389,220.399,118.389z"/>
			<path fill="#181812" d="M121.595,130.992c0,0-13.952-26.111-11.702-40.961c0,0,0.899-31.961,16.654-34.662
				c0,0,9.453-19.354,22.507-20.707c0,0,4.051-3.6,4.5-5.4c0,0,3.602,0.9,5.4,2.701c1.801,1.799,1.801,1.799,1.801,1.799
				s0.902-7.199,5.854-7.65l4.5-0.449v31.961l-0.9,18C170.208,75.623,119.794,67.523,121.595,130.992z"/>
			<path fill="#2B1609" d="M150.854,123.342c0,2.234-1.815,4.049-4.053,4.049c-2.238,0-4.051-1.814-4.051-4.049
				c0-2.242,1.812-4.055,4.051-4.055C149.039,119.287,150.854,121.1,150.854,123.342z"/>
			<g>
				<path fill="#0B110F" d="M154.847,115.447c0,0-0.063-0.05-0.183-0.143c-0.089-0.071-0.244-0.188-0.484-0.349
					c-0.221-0.163-0.525-0.335-0.856-0.549c-0.353-0.184-0.732-0.433-1.184-0.635c-0.44-0.227-0.93-0.444-1.461-0.648
					c-0.521-0.237-1.102-0.374-1.691-0.584c-0.603-0.12-1.223-0.335-1.87-0.401c-0.323-0.046-0.65-0.093-0.978-0.141
					c-0.33-0.035-0.66-0.03-0.993-0.049c-0.669-0.061-1.331,0.01-1.99,0.056l-0.494,0.033l-0.479,0.093
					c-0.32,0.061-0.637,0.121-0.947,0.18c-0.632,0.097-1.196,0.359-1.764,0.517c-0.574,0.149-1.062,0.429-1.537,0.638
					c-0.461,0.234-0.925,0.386-1.271,0.637c-0.361,0.225-0.677,0.422-0.937,0.584c-0.523,0.326-0.822,0.512-0.822,0.512
					l-0.068,0.043c-0.316,0.196-0.73,0.1-0.928-0.216c-0.18-0.29-0.113-0.664,0.145-0.875c0,0,0.289-0.238,0.797-0.655
					c0.255-0.209,0.565-0.463,0.921-0.754c0.341-0.315,0.813-0.549,1.286-0.869c0.487-0.297,0.992-0.67,1.604-0.924
					c0.604-0.261,1.214-0.631,1.912-0.839c0.347-0.114,0.699-0.23,1.056-0.349l0.542-0.176l0.562-0.115
					c0.755-0.155,1.526-0.332,2.313-0.369c0.393-0.03,0.787-0.082,1.18-0.092c0.393,0.005,0.785,0.01,1.174,0.014
					c0.783-0.015,1.535,0.128,2.279,0.188c0.723,0.147,1.445,0.234,2.096,0.428c0.663,0.161,1.281,0.346,1.844,0.546
					c0.57,0.176,1.068,0.407,1.525,0.58c0.445,0.208,0.838,0.37,1.156,0.542c0.312,0.154,0.58,0.303,0.773,0.418
					c0.164,0.097,0.252,0.148,0.252,0.148c1.039,0.609,1.387,1.947,0.775,2.986c-0.609,1.039-1.947,1.387-2.986,0.775
					c-0.077-0.045-0.151-0.096-0.221-0.148L154.847,115.447z"/>
			</g>
			<path fill="#181812" d="M219.499,130.992c0,0,13.951-26.111,11.701-40.961c0,0-0.9-31.961-16.654-34.662
				c0,0-9.453-19.354-22.507-20.707c0,0-4.05-3.6-4.5-5.4c0,0-3.601,0.9-5.401,2.701c-1.8,1.799-1.8,1.799-1.8,1.799
				s-0.902-7.199-5.853-7.65l-4.501-0.449v31.961l-0.676,18C169.309,75.623,221.3,67.523,219.499,130.992z"/>
			<g>
				<g opacity="0.2">
					<path fill="#231F20" d="M182.834,136.646c0.159,0.234,0.316,0.509,0.44,0.75c0.129,0.252,0.248,0.509,0.35,0.773
						c0.217,0.524,0.357,1.084,0.463,1.652c0.026,0.292,0.062,0.583,0.074,0.877c-0.014,0.297-0.016,0.594-0.05,0.891
						c-0.06,0.293-0.113,0.59-0.187,0.881l-0.332,0.84c-0.137,0.264-0.306,0.51-0.461,0.764c-0.145,0.267-0.368,0.453-0.555,0.678
						c-0.195,0.217-0.387,0.439-0.617,0.602l-0.666,0.528c-0.225,0.173-0.473,0.29-0.708,0.437
						c-0.239,0.136-0.476,0.283-0.718,0.409l-1.491,0.641l0.537-0.631l-0.001,0.003c-0.082,0.581-0.225,0.967-0.434,1.406
						c-0.197,0.426-0.472,0.803-0.764,1.164c-0.305,0.352-0.645,0.667-1.008,0.945c-0.365,0.272-0.754,0.525-1.156,0.713
						c-0.4,0.214-0.812,0.371-1.23,0.505c-0.418,0.147-0.838,0.222-1.26,0.331c-0.42,0.068-0.844,0.121-1.264,0.169l-1.252,0.061
						l-1.201-0.058c-0.426-0.046-0.881-0.1-1.313-0.171c-0.422-0.11-0.843-0.185-1.26-0.331c-0.419-0.135-0.831-0.291-1.231-0.505
						c-0.402-0.188-0.791-0.441-1.156-0.712c-0.363-0.28-0.704-0.596-1.008-0.947c-0.292-0.361-0.566-0.738-0.764-1.165
						c-0.208-0.438-0.351-0.825-0.433-1.405l-0.001-0.004l0.537,0.632l-1.49-0.641c-0.243-0.126-0.479-0.273-0.719-0.409
						c-0.236-0.146-0.484-0.264-0.707-0.437l-0.666-0.528c-0.231-0.162-0.423-0.385-0.617-0.602
						c-0.188-0.225-0.412-0.411-0.555-0.678c-0.156-0.254-0.324-0.5-0.463-0.764l-0.331-0.84c-0.073-0.29-0.128-0.587-0.187-0.881
						c-0.035-0.296-0.035-0.594-0.051-0.891c0.012-0.294,0.049-0.584,0.074-0.876c0.105-0.569,0.247-1.128,0.463-1.652
						c0.102-0.266,0.221-0.521,0.35-0.774c0.135-0.258,0.261-0.484,0.449-0.763c0.262-0.386,0.787-0.485,1.173-0.224
						s0.485,0.786,0.224,1.172l-0.021,0.033c-0.098,0.145-0.224,0.362-0.324,0.557c-0.103,0.203-0.199,0.408-0.279,0.621
						c-0.176,0.421-0.279,0.856-0.363,1.29l-0.055,0.648c0.016,0.212,0.012,0.427,0.035,0.637l0.13,0.616l0.231,0.584
						c0.1,0.186,0.226,0.36,0.332,0.543c0.092,0.193,0.278,0.334,0.414,0.502c0.146,0.163,0.283,0.334,0.477,0.464l0.532,0.424
						c0.179,0.141,0.399,0.24,0.596,0.364c0.204,0.115,0.4,0.24,0.61,0.35l1.322,0.568l0.537,0.632l0,0
						c0.103,0.163,0.293,0.476,0.482,0.689c0.188,0.235,0.415,0.444,0.65,0.635c0.238,0.19,0.49,0.361,0.764,0.506
						c0.278,0.138,0.546,0.292,0.855,0.386c0.293,0.115,0.608,0.193,0.924,0.277c0.311,0.09,0.652,0.119,0.975,0.186l0.967,0.1
						l1.092,0.029l1.042-0.026l1.017-0.104c0.321-0.066,0.664-0.096,0.975-0.185c0.315-0.084,0.631-0.163,0.924-0.279
						c0.31-0.094,0.577-0.247,0.855-0.385c0.273-0.145,0.526-0.315,0.764-0.506c0.236-0.189,0.463-0.398,0.652-0.635
						c0.188-0.213,0.379-0.525,0.481-0.689l0,0l0.537-0.631l1.323-0.568c0.209-0.109,0.405-0.234,0.609-0.35
						c0.197-0.124,0.417-0.224,0.596-0.364l0.533-0.424c0.191-0.13,0.328-0.301,0.475-0.464c0.137-0.168,0.322-0.309,0.414-0.502
						c0.107-0.183,0.233-0.357,0.332-0.543l0.232-0.584l0.129-0.616c0.023-0.21,0.02-0.425,0.036-0.637l-0.055-0.649
						c-0.085-0.433-0.188-0.868-0.364-1.289c-0.08-0.213-0.176-0.418-0.279-0.621c-0.111-0.211-0.206-0.381-0.333-0.57l-0.006-0.008
						c-0.261-0.387-0.158-0.912,0.229-1.172C182.051,136.16,182.573,136.26,182.834,136.646z"/>
				</g>
			</g>
			<path fill="#2B1609" d="M190.239,123.342c0,2.234,1.814,4.049,4.053,4.049s4.051-1.814,4.051-4.049
				c0-2.242-1.812-4.055-4.051-4.055S190.239,121.1,190.239,123.342z"/>
			<g>
				<path fill="#0B110F" d="M183.769,111.871c0,0,0.088-0.052,0.252-0.148c0.193-0.115,0.461-0.264,0.773-0.418
					c0.318-0.172,0.71-0.334,1.156-0.542c0.456-0.173,0.954-0.404,1.525-0.58c0.562-0.2,1.18-0.385,1.842-0.546
					c0.652-0.193,1.375-0.28,2.097-0.428c0.745-0.06,1.495-0.203,2.28-0.188c0.389-0.005,0.779-0.009,1.173-0.014
					c0.393,0.01,0.788,0.062,1.18,0.092c0.787,0.037,1.559,0.215,2.313,0.369l0.562,0.115l0.542,0.177
					c0.357,0.117,0.709,0.233,1.056,0.348c0.698,0.208,1.307,0.578,1.911,0.839c0.613,0.254,1.117,0.627,1.605,0.924
					c0.473,0.32,0.944,0.554,1.285,0.869c0.355,0.291,0.666,0.545,0.922,0.754c0.506,0.417,0.796,0.655,0.796,0.655
					c0.287,0.235,0.329,0.659,0.093,0.946c-0.217,0.265-0.594,0.32-0.875,0.145l-0.069-0.043c0,0-0.299-0.186-0.822-0.512
					c-0.26-0.162-0.575-0.359-0.937-0.584c-0.346-0.251-0.809-0.402-1.27-0.637c-0.475-0.209-0.963-0.488-1.537-0.638
					c-0.568-0.157-1.133-0.42-1.764-0.516c-0.311-0.06-0.627-0.12-0.947-0.181l-0.479-0.093l-0.494-0.033
					c-0.659-0.046-1.321-0.116-1.989-0.056c-0.334,0.019-0.664,0.014-0.993,0.049c-0.327,0.048-0.653,0.095-0.978,0.141
					c-0.646,0.066-1.268,0.281-1.87,0.4c-0.589,0.211-1.17,0.348-1.691,0.584c-0.53,0.205-1.021,0.422-1.46,0.649
					c-0.451,0.202-0.832,0.45-1.184,0.635c-0.331,0.214-0.636,0.386-0.856,0.549c-0.239,0.161-0.396,0.276-0.484,0.349
					c-0.119,0.093-0.183,0.142-0.183,0.142l-0.039,0.03c-0.951,0.738-2.322,0.564-3.061-0.388s-0.564-2.323,0.388-3.062
					C183.608,111.973,183.692,111.916,183.769,111.871z"/>
			</g>
			<g>
				<g>
					
						<path fill="none" stroke="#F6E5D9" stroke-width="1.3504" stroke-linecap="round" stroke-linejoin="round" stroke-miterlimit="10" d="
						M139.601,181.516"/>
				</g>
			</g>
			<g>
				
					<path fill="#B77849" stroke="#B77849" stroke-width="1.3504" stroke-linecap="round" stroke-linejoin="round" stroke-miterlimit="10" d="
					M185.991,162.303c0,0-7.658,2.193-15.418,2.193s-15.416-2.193-15.416-2.193S169.926,177.186,185.991,162.303z"/>
			</g>
			<path opacity="0.1" fill="#231F20" d="M163.907,171.725c0,0,8.777,2.699,13.504-0.674
				C177.411,171.051,171.335,183.543,163.907,171.725z"/>
			<path opacity="0.1" fill="#231F20" d="M155.131,143.031c0,0-1.442,8.262-8.777,12.154c-2.312,1.229-6.415,5.396-4.727,12.152
				c0,0-1.132-5.787,6.303-10.127C151.326,155.227,155.808,152.82,155.131,143.031z"/>
			<path opacity="0.1" fill="#231F20" d="M186.087,143.031c0,0,1.442,8.262,8.774,12.154c2.311,1.229,6.417,5.396,4.729,12.152
				c0,0,1.129-5.787-6.3-10.127C189.889,155.227,185.413,152.82,186.087,143.031z"/>
			<path opacity="0.05" fill="#231F20" d="M141.795,129.357c0,0,6.753,3.379,9.453-0.168
				C151.248,129.189,149.224,135.604,141.795,129.357z"/>
			<path opacity="0.05" fill="#231F20" d="M190.073,129.357c0,0,6.748,3.379,9.451-0.168
				C199.524,129.189,197.498,135.604,190.073,129.357z"/>
			<path fill="#181812" d="M217.193,71.801l-46.09-14.064l0.005-0.113l-0.192,0.055l-1.661-0.506l-0.034,1.016l-45.374,13.613
				l-6.077,27.004l3.715,30.553c0,0,5.231-20.256,5.231-26.502c0,0,14.35-14.346,16.879-20.592c0,0,20.539-0.057,25.494-4.904
				c5.172,4.623,28.354,4.904,28.354,4.904c2.532,6.246,16.88,20.592,16.88,20.592c0,6.246,5.233,26.502,5.233,26.502l3.712-30.553
				L217.193,71.801z"/>
		</g>
		<g>
			<path fill="#B0171C" d="M118.979,182.695c0,0,31.263,36.23,44.679,37.408c0,0,11.47-0.52,18.103-10.982l2.146-4.953
				c0,0,3.085-2.588-8.309-9.488l-13.59-7.855c0,0-2.553-3.465-7.268,4.697c0,0-2.242,8.176-9.682,1.814
				c0,0-11.105-11.992-16.623-18.57L118.979,182.695z"/>
			<path fill="#B0171C" d="M118.979,182.695c0,0-30.231-37.088-29.055-50.506c0,0,2.507-11.205,13.964-15.916l5.251-1.252
				c0,0,3.083-2.586,7.896,9.832l5.373,14.754c0,0,2.965,3.117-5.889,6.34c0,0-8.447,0.781-3.475,9.215
				c0,0,9.875,13.025,15.391,19.604L118.979,182.695z"/>
		</g>
		
			<path fill="none" stroke="#D48D51" stroke-width="38.8816" stroke-linecap="round" stroke-linejoin="round" stroke-miterlimit="10" d="
			M55.805,307.463c-10.534,3.363-21.356,3.16-31.909-2.668c-47.632-26.312,50.186-111.496,75.18-127.178"/>
		<path fill="none" stroke="#032C6D" stroke-width="38.8804" stroke-linejoin="round" stroke-miterlimit="10" d="M133.18,227.855
			c0.001,0-31.176,56.805-68.116,75.742c-8.277,4.246-16.846,6.59-25.416,5.969"/>
	</g>
</g>
</svg>
