<?xml version="1.0" encoding="utf-8"?>
<!-- Generator: Adobe Illustrator 16.0.0, SVG Export Plug-In . SVG Version: 6.00 Build 0)  -->
<!DOCTYPE svg PUBLIC "-//W3C//DTD SVG 1.1//EN" "http://www.w3.org/Graphics/SVG/1.1/DTD/svg11.dtd">
<svg version="1.1" id="Layer_1" xmlns="http://www.w3.org/2000/svg" xmlns:xlink="http://www.w3.org/1999/xlink" x="0px" y="0px"
	 width="278px" height="276.369px" viewBox="0 0 278 276.369" enable-background="new 0 0 278 276.369" xml:space="preserve">
<g>
	<polygon fill="#FFFFFF" points="136.146,129.098 164.681,0 116.58,119.026 0,54.622 97.015,138.593 6.521,222.562 110.166,172.108 
		164.681,276.369 141.171,161.776 278,143.484 	"/>
	<polygon fill="#FFFFFF" points="126.173,128.504 103.755,50.748 109.358,128.504 34.405,125.701 100.611,148.554 79.238,216.768 
		118.37,157.436 185.013,208.361 130.251,141.237 197.974,98.031 	"/>
	<polygon fill="#FFFFFF" points="163.03,75.867 123.034,122.077 83.037,78.973 107.069,128.342 57.409,154.308 111.992,143.109 
		120.704,208.283 127.558,140.717 189.049,154.308 132.354,131.396 	"/>
</g>
</svg>
