<?xml version="1.0" encoding="utf-8"?>
<!-- Generator: Adobe Illustrator 16.0.0, SVG Export Plug-In . SVG Version: 6.00 Build 0)  -->
<!DOCTYPE svg PUBLIC "-//W3C//DTD SVG 1.1//EN" "http://www.w3.org/Graphics/SVG/1.1/DTD/svg11.dtd">
<svg version="1.1" id="Layer_1" xmlns="http://www.w3.org/2000/svg" xmlns:xlink="http://www.w3.org/1999/xlink" x="0px" y="0px"
	 width="1440px" height="698.194px" viewBox="0 0 1440 698.194" enable-background="new 0 0 1440 698.194" xml:space="preserve">
<rect fill="#E8E8E8" width="1440" height="698.194"/>
<g opacity="0.4">
	<rect x="230.095" y="19.58" fill="#1781E2" width="105.786" height="25.713"/>
	<rect x="230.095" y="68.065" fill="#231F20" width="105.786" height="25.713"/>
	<rect x="230.095" y="116.551" fill="#E0192D" width="105.786" height="25.712"/>
	<rect x="230.095" y="165.036" fill="#B1B1B2" width="105.786" height="25.713"/>
	<rect x="230.095" y="213.521" fill="#30EAEF" width="105.786" height="25.713"/>
	<rect x="230.095" y="262.007" fill="#30EAEF" width="105.786" height="25.713"/>
	<rect x="358.655" y="19.58" fill="#E0192D" width="105.787" height="25.713"/>
	<rect x="358.655" y="68.065" fill="#B1B1B2" width="105.787" height="25.713"/>
	<rect x="358.655" y="116.551" fill="#1781E2" width="105.787" height="25.712"/>
	<rect x="358.655" y="165.036" fill="#231F20" width="105.787" height="25.713"/>
	<rect x="358.655" y="213.521" fill="#1781E2" width="105.787" height="25.713"/>
	<rect x="358.655" y="262.007" fill="#B1B1B2" width="105.787" height="25.713"/>
	<rect x="487.949" y="19.58" fill="#30EAEF" width="105.786" height="25.713"/>
	<rect x="487.949" y="68.065" fill="#1781E2" width="105.786" height="25.713"/>
	<rect x="487.949" y="116.551" fill="#231F20" width="105.786" height="25.712"/>
	<rect x="487.949" y="165.036" fill="#E0192D" width="105.786" height="25.713"/>
	<rect x="487.949" y="213.521" fill="#30EAEF" width="105.786" height="25.713"/>
	<rect x="487.949" y="262.007" fill="#E0192D" width="105.786" height="25.713"/>
	<rect x="614.305" y="19.58" fill="#E0192D" width="105.786" height="25.713"/>
	<rect x="614.305" y="68.065" fill="#30EAEF" width="105.786" height="25.713"/>
	<rect x="614.305" y="116.551" fill="#B1B1B2" width="105.786" height="25.712"/>
	<rect x="614.305" y="165.036" fill="#1781E2" width="105.786" height="25.713"/>
	<rect x="614.305" y="213.521" fill="#231F20" width="105.786" height="25.713"/>
	<rect x="614.305" y="262.007" fill="#30EAEF" width="105.786" height="25.713"/>
</g>
<g opacity="0.4">
	<rect x="740.57" y="19.58" fill="#1781E2" width="105.786" height="25.713"/>
	<rect x="740.57" y="68.065" fill="#231F20" width="105.786" height="25.713"/>
	<rect x="740.57" y="116.551" fill="#E0192D" width="105.786" height="25.712"/>
	<rect x="740.57" y="165.036" fill="#B1B1B2" width="105.786" height="25.713"/>
	<rect x="740.57" y="213.521" fill="#30EAEF" width="105.786" height="25.713"/>
	<rect x="740.57" y="262.007" fill="#30EAEF" width="105.786" height="25.713"/>
	<rect x="869.129" y="19.58" fill="#E0192D" width="105.787" height="25.713"/>
	<rect x="869.129" y="68.065" fill="#B1B1B2" width="105.787" height="25.713"/>
	<rect x="869.129" y="116.551" fill="#1781E2" width="105.787" height="25.712"/>
	<rect x="869.129" y="165.036" fill="#231F20" width="105.787" height="25.713"/>
	<rect x="869.129" y="213.521" fill="#1781E2" width="105.787" height="25.713"/>
	<rect x="869.129" y="262.007" fill="#B1B1B2" width="105.787" height="25.713"/>
	<rect x="998.424" y="19.58" fill="#30EAEF" width="105.785" height="25.713"/>
	<rect x="998.424" y="68.065" fill="#1781E2" width="105.785" height="25.713"/>
	<rect x="998.424" y="116.551" fill="#231F20" width="105.785" height="25.712"/>
	<rect x="998.424" y="165.036" fill="#E0192D" width="105.785" height="25.713"/>
	<rect x="998.424" y="213.521" fill="#30EAEF" width="105.785" height="25.713"/>
	<rect x="998.424" y="262.007" fill="#E0192D" width="105.785" height="25.713"/>
	<rect x="1124.78" y="19.58" fill="#E0192D" width="105.785" height="25.713"/>
	<rect x="1124.78" y="68.065" fill="#30EAEF" width="105.785" height="25.713"/>
	<rect x="1124.78" y="116.551" fill="#B1B1B2" width="105.785" height="25.712"/>
	<rect x="1124.78" y="165.036" fill="#1781E2" width="105.785" height="25.713"/>
	<rect x="1124.78" y="213.521" fill="#231F20" width="105.785" height="25.713"/>
	<rect x="1124.78" y="262.007" fill="#30EAEF" width="105.785" height="25.713"/>
</g>
<g opacity="0.4">
	<rect x="230.095" y="298.066" fill="#1781E2" width="105.786" height="25.713"/>
	<rect x="230.095" y="346.552" fill="#231F20" width="105.786" height="25.713"/>
	<rect x="230.095" y="395.037" fill="#E0192D" width="105.786" height="25.713"/>
	<rect x="230.095" y="443.522" fill="#B1B1B2" width="105.786" height="25.713"/>
	<rect x="230.095" y="492.008" fill="#30EAEF" width="105.786" height="25.713"/>
	<rect x="230.095" y="540.493" fill="#30EAEF" width="105.786" height="25.713"/>
	<rect x="358.655" y="298.066" fill="#E0192D" width="105.787" height="25.713"/>
	<rect x="358.655" y="346.552" fill="#B1B1B2" width="105.787" height="25.713"/>
	<rect x="358.655" y="395.037" fill="#1781E2" width="105.787" height="25.713"/>
	<rect x="358.655" y="443.522" fill="#231F20" width="105.787" height="25.713"/>
	<rect x="358.655" y="492.008" fill="#1781E2" width="105.787" height="25.713"/>
	<rect x="358.655" y="540.493" fill="#B1B1B2" width="105.787" height="25.713"/>
	<rect x="487.949" y="298.066" fill="#30EAEF" width="105.786" height="25.713"/>
	<rect x="487.949" y="346.552" fill="#1781E2" width="105.786" height="25.713"/>
	<rect x="487.949" y="395.037" fill="#231F20" width="105.786" height="25.713"/>
	<rect x="487.949" y="443.522" fill="#E0192D" width="105.786" height="25.713"/>
	<rect x="487.949" y="492.008" fill="#30EAEF" width="105.786" height="25.713"/>
	<rect x="487.949" y="540.493" fill="#E0192D" width="105.786" height="25.713"/>
	<rect x="614.305" y="298.066" fill="#E0192D" width="105.786" height="25.713"/>
	<rect x="614.305" y="346.552" fill="#30EAEF" width="105.786" height="25.713"/>
	<rect x="614.305" y="395.037" fill="#B1B1B2" width="105.786" height="25.713"/>
	<rect x="614.305" y="443.522" fill="#1781E2" width="105.786" height="25.713"/>
	<rect x="614.305" y="492.008" fill="#231F20" width="105.786" height="25.713"/>
	<rect x="614.305" y="540.493" fill="#30EAEF" width="105.786" height="25.713"/>
</g>
<g opacity="0.4">
	<rect x="740.57" y="298.066" fill="#1781E2" width="105.786" height="25.713"/>
	<rect x="740.57" y="346.552" fill="#231F20" width="105.786" height="25.713"/>
	<rect x="740.57" y="395.037" fill="#E0192D" width="105.786" height="25.713"/>
	<rect x="740.57" y="443.522" fill="#B1B1B2" width="105.786" height="25.713"/>
	<rect x="740.57" y="492.008" fill="#30EAEF" width="105.786" height="25.713"/>
	<rect x="740.57" y="540.493" fill="#30EAEF" width="105.786" height="25.713"/>
	<rect x="869.129" y="298.066" fill="#E0192D" width="105.787" height="25.713"/>
	<rect x="869.129" y="346.552" fill="#B1B1B2" width="105.787" height="25.713"/>
	<rect x="869.129" y="395.037" fill="#1781E2" width="105.787" height="25.713"/>
	<rect x="869.129" y="443.522" fill="#231F20" width="105.787" height="25.713"/>
	<rect x="869.129" y="492.008" fill="#1781E2" width="105.787" height="25.713"/>
	<rect x="869.129" y="540.493" fill="#B1B1B2" width="105.787" height="25.713"/>
	<rect x="998.424" y="298.066" fill="#30EAEF" width="105.785" height="25.713"/>
	<rect x="998.424" y="346.552" fill="#1781E2" width="105.785" height="25.713"/>
	<rect x="998.424" y="395.037" fill="#231F20" width="105.785" height="25.713"/>
	<rect x="998.424" y="443.522" fill="#E0192D" width="105.785" height="25.713"/>
	<rect x="998.424" y="492.008" fill="#30EAEF" width="105.785" height="25.713"/>
	<rect x="998.424" y="540.493" fill="#E0192D" width="105.785" height="25.713"/>
	<rect x="1124.78" y="298.066" fill="#E0192D" width="105.785" height="25.713"/>
	<rect x="1124.78" y="346.552" fill="#30EAEF" width="105.785" height="25.713"/>
	<rect x="1124.78" y="395.037" fill="#B1B1B2" width="105.785" height="25.713"/>
	<rect x="1124.78" y="443.522" fill="#1781E2" width="105.785" height="25.713"/>
	<rect x="1124.78" y="492.008" fill="#231F20" width="105.785" height="25.713"/>
	<rect x="1124.78" y="540.493" fill="#30EAEF" width="105.785" height="25.713"/>
</g>
<g opacity="0.4">
	<rect x="230.095" y="576.554" fill="#1781E2" width="105.786" height="25.713"/>
	<rect x="230.095" y="625.038" fill="#231F20" width="105.786" height="25.713"/>
	<rect x="230.095" y="698.194" fill="#E0192D" width="105.786" height="1.043"/>
	<rect x="230.095" y="673.524" fill="#E0192D" width="105.786" height="24.67"/>
	<rect x="358.655" y="576.554" fill="#E0192D" width="105.787" height="25.713"/>
	<rect x="358.655" y="625.038" fill="#B1B1B2" width="105.787" height="25.713"/>
	<rect x="358.655" y="698.194" fill="#1781E2" width="105.787" height="1.043"/>
	<rect x="358.655" y="673.524" fill="#1781E2" width="105.787" height="24.67"/>
	<rect x="487.949" y="576.554" fill="#30EAEF" width="105.786" height="25.713"/>
	<rect x="487.949" y="625.038" fill="#1781E2" width="105.786" height="25.713"/>
	<rect x="487.949" y="698.194" fill="#231F20" width="105.786" height="1.043"/>
	<rect x="487.949" y="673.524" fill="#231F20" width="105.786" height="24.67"/>
	<rect x="614.305" y="576.554" fill="#E0192D" width="105.786" height="25.713"/>
	<rect x="614.305" y="625.038" fill="#30EAEF" width="105.786" height="25.713"/>
	<rect x="614.305" y="698.194" fill="#B1B1B2" width="105.786" height="1.043"/>
	<rect x="614.305" y="673.524" fill="#B1B1B2" width="105.786" height="24.67"/>
</g>
<g opacity="0.4">
	<rect x="740.57" y="576.554" fill="#1781E2" width="105.786" height="25.713"/>
	<rect x="740.57" y="625.038" fill="#231F20" width="105.786" height="25.713"/>
	<rect x="740.57" y="698.194" fill="#E0192D" width="105.786" height="1.043"/>
	<rect x="740.57" y="673.524" fill="#E0192D" width="105.786" height="24.67"/>
	<rect x="869.129" y="576.554" fill="#E0192D" width="105.787" height="25.713"/>
	<rect x="869.129" y="625.038" fill="#B1B1B2" width="105.787" height="25.713"/>
	<rect x="869.129" y="698.194" fill="#1781E2" width="105.787" height="1.043"/>
	<rect x="869.129" y="673.524" fill="#1781E2" width="105.787" height="24.67"/>
	<rect x="998.424" y="576.554" fill="#30EAEF" width="105.785" height="25.713"/>
	<rect x="998.424" y="625.038" fill="#1781E2" width="105.785" height="25.713"/>
	<rect x="998.424" y="698.194" fill="#231F20" width="105.785" height="1.043"/>
	<rect x="998.424" y="673.524" fill="#231F20" width="105.785" height="24.67"/>
	<rect x="1124.78" y="576.554" fill="#E0192D" width="105.785" height="25.713"/>
	<rect x="1124.78" y="625.038" fill="#30EAEF" width="105.785" height="25.713"/>
	<rect x="1124.78" y="698.194" fill="#B1B1B2" width="105.785" height="1.043"/>
	<rect x="1124.78" y="673.524" fill="#B1B1B2" width="105.785" height="24.67"/>
</g>
<g>
	<path fill="#776537" d="M669.682,160.035c0,0-4.944,1.808-4.896,10.171c0.018,2.803,1.507,10.171-3.767,10.548
		c0,0,6.404,0.754,8.287-3.39c0,0-0.376,7.534-3.391,9.417c0,0,17.706,7.534,20.719-9.417l-1.507-24.862
		C685.127,152.502,674.203,147.98,669.682,160.035z"/>
	<path fill="#776537" d="M781.164,170.206c0.047-8.363-4.897-10.171-4.897-10.171c-4.521-12.055-15.444-7.533-15.444-7.533
		l-1.507,24.862c3.014,16.951,20.719,9.417,20.719,9.417c-3.014-1.883-3.392-9.417-3.392-9.417c1.885,4.144,8.289,3.39,8.289,3.39
		C779.657,180.377,781.146,173.009,781.164,170.206z"/>
	<g>
		<polygon fill="#B7B7B7" points="663.528,201.662 677.466,213.716 675.583,200.155 		"/>
		<polygon fill="#B7B7B7" points="768.44,213.716 782.379,201.662 770.325,200.155 		"/>
		<path fill="#F4B07D" d="M675.498,156.147c0,41.182-23.268,127.112-23.268,127.112h142.142c0,0-23.686-67.595-23.686-127.112
			C770.686,132.353,675.498,132.352,675.498,156.147z"/>
		<g>
			<path fill="#776537" d="M671.33,75.488c-13.847,10.627-19.962,54.782,3.344,78.09l50.596-56.577l-1.194-21.908
				C724.075,75.094,705.593,49.196,671.33,75.488z"/>
			<path fill="#776537" d="M777.002,75.488c-34.264-26.292-52.745-0.395-52.745-0.395l-1.194,21.908l50.596,56.577
				C796.965,130.27,790.846,86.118,777.002,75.488z"/>
			<path fill="#F4B07D" d="M721.426,84.5c-30.319-0.438-43.053,20.024-43.053,20.024c-10.642,17.414-7.461,71.209-7.461,71.209
				c0,26.616,36.917,47.824,52.421,47.824c15.506,0,52.556-19.824,52.556-47.824c0,0,2.614-53.795-8.028-71.209
				C767.861,104.524,751.863,84.062,721.426,84.5z"/>
			<g>
				<path opacity="0.1" fill="#232222" d="M723.321,204.651c-18.069,0-25.598-10.542-25.598-10.542s4.141,14.31,24.718,14.31
					c20.831,0,24.719-14.31,24.719-14.31C735.358,205.912,723.321,204.651,723.321,204.651z"/>
			</g>
			<g opacity="0.2">
				<path fill="#231F20" d="M736.232,148.9c0.153,0.148,0.314,0.329,0.452,0.487c0.139,0.168,0.28,0.334,0.407,0.512
					c0.259,0.354,0.505,0.72,0.706,1.127c0.105,0.199,0.204,0.403,0.279,0.626c0.087,0.214,0.164,0.434,0.209,0.674
					c0.059,0.233,0.106,0.47,0.107,0.724c0.019,0.25,0.026,0.5-0.029,0.757c-0.037,0.257-0.075,0.514-0.19,0.75
					c-0.104,0.235-0.18,0.499-0.343,0.69c-0.151,0.201-0.295,0.419-0.462,0.599l-0.543,0.48c-0.178,0.175-0.381,0.27-0.576,0.395
					l-0.593,0.352l-1.224,0.512l-0.034,0.015l-0.114,0.021c-0.487,0.089-1.041,0.236-1.544,0.406
					c-0.511,0.172-1.005,0.38-1.462,0.625c-0.456,0.244-0.892,0.515-1.236,0.842c-0.36,0.335-0.566,0.635-0.897,1.185
					c-0.342,0.508-0.727,1.116-1.324,1.55c-0.271,0.251-0.586,0.405-0.898,0.57c-0.311,0.189-0.63,0.267-0.948,0.372
					c-0.644,0.247-1.26,0.262-1.892,0.386c-0.632,0.034-1.184,0.074-1.88,0.084c-0.59-0.039-1.138-0.035-1.761-0.108
					c-0.646-0.102-1.294-0.171-1.921-0.401l-0.473-0.148c-0.156-0.069-0.311-0.151-0.465-0.228
					c-0.314-0.146-0.616-0.317-0.891-0.553c-0.587-0.415-1.004-0.997-1.364-1.513l-0.239-0.375l-0.06-0.093l-0.03-0.047
					c0.058,0.083-0.002-0.001,0.002,0.005l-0.129-0.175c-0.195-0.28-0.285-0.33-0.458-0.51c-0.344-0.328-0.781-0.598-1.235-0.843
					c-0.458-0.245-0.952-0.451-1.462-0.625c-0.503-0.169-1.057-0.316-1.544-0.406l-0.114-0.021l-0.034-0.015l-1.223-0.512
					l-0.593-0.352c-0.195-0.125-0.398-0.22-0.576-0.395l-0.542-0.479c-0.167-0.18-0.311-0.397-0.461-0.599
					c-0.163-0.192-0.239-0.455-0.343-0.69c-0.116-0.236-0.154-0.493-0.191-0.749c-0.056-0.257-0.048-0.507-0.029-0.757
					c0-0.254,0.047-0.492,0.106-0.724c0.044-0.24,0.121-0.46,0.208-0.675c0.076-0.222,0.174-0.427,0.28-0.626
					c0.2-0.406,0.446-0.773,0.704-1.127c0.268-0.355,0.528-0.674,0.865-1.007c0.253-0.25,0.662-0.248,0.911,0.007
					c0.242,0.244,0.247,0.633,0.019,0.885l-0.018,0.02c-0.229,0.25-0.468,0.571-0.671,0.876c-0.203,0.312-0.394,0.632-0.533,0.963
					c-0.077,0.164-0.146,0.328-0.19,0.495c-0.058,0.165-0.106,0.33-0.123,0.493c-0.034,0.164-0.059,0.325-0.044,0.479
					c-0.005,0.157-0.005,0.311,0.043,0.451c0.03,0.145,0.049,0.291,0.132,0.416c0.074,0.127,0.098,0.272,0.218,0.381
					c0.102,0.116,0.178,0.243,0.289,0.355l0.381,0.312c0.111,0.116,0.286,0.186,0.435,0.274l0.459,0.259l1.034,0.396l-0.148-0.036
					c0.658,0.101,1.231,0.24,1.834,0.42c0.594,0.182,1.182,0.405,1.757,0.69c0.572,0.288,1.134,0.633,1.643,1.096
					c0.243,0.22,0.577,0.575,0.709,0.775l0.13,0.174l0.096,0.137l0.058,0.089l0.233,0.357c0.307,0.423,0.583,0.806,0.958,1.052
					c0.092,0.065,0.174,0.141,0.271,0.201l0.316,0.152l0.315,0.156l0.36,0.104c0.468,0.174,0.982,0.214,1.481,0.299
					c0.527,0.062,1.146,0.056,1.714,0.088l1.597-0.062c0.504-0.102,1.071-0.11,1.517-0.292c0.232-0.074,0.484-0.127,0.67-0.251
					c0.2-0.105,0.416-0.195,0.569-0.35c0.361-0.239,0.618-0.637,0.924-1.081c0.265-0.444,0.72-1.112,1.229-1.551
					c0.509-0.464,1.071-0.809,1.643-1.098c0.575-0.285,1.163-0.509,1.758-0.69c0.604-0.18,1.177-0.319,1.835-0.419l-0.148,0.035
					l1.034-0.395l0.459-0.259c0.148-0.089,0.324-0.159,0.435-0.275l0.382-0.311c0.11-0.112,0.187-0.24,0.288-0.355
					c0.119-0.109,0.144-0.254,0.218-0.381c0.083-0.125,0.102-0.271,0.132-0.416c0.048-0.14,0.047-0.294,0.042-0.451
					c0.015-0.154-0.01-0.315-0.044-0.479c-0.018-0.163-0.065-0.328-0.124-0.493c-0.044-0.167-0.112-0.331-0.189-0.495
					c-0.293-0.652-0.727-1.303-1.212-1.846l-0.006-0.006c-0.237-0.265-0.215-0.673,0.051-0.91
					C735.606,148.655,735.992,148.667,736.232,148.9z"/>
			</g>
			<circle fill="#2E230E" cx="696.963" cy="134.514" r="2.902"/>
			<path fill="#593B2E" d="M706.278,123.859c0,0-16.637-2.863-24.436,9.625c0,0,9.895-9.466,23.897-5.781
				C705.74,127.704,709.748,125.343,706.278,123.859z"/>
			<circle fill="#2E230E" cx="747.698" cy="134.514" r="2.902"/>
			<path fill="#593B2E" d="M737.99,124.943c-3.317,1.799,0.891,3.779,0.891,3.779c13.606-4.968,24.33,3.537,24.33,3.537
				C754.288,120.552,737.99,124.943,737.99,124.943z"/>
			<path fill="#F4B07D" d="M661.712,142.421c-1.107,4.662-1.198,29.88,13.144,13.947l0.4-12.752
				C675.255,143.616,665.297,127.283,661.712,142.421z"/>
			
				<path fill="none" stroke="#C18963" stroke-width="1.5936" stroke-linecap="round" stroke-linejoin="round" stroke-miterlimit="10" d="
				M668.882,144.014c0,0-5.18,3.985,0,9.958"/>
			<path fill="#F4B07D" d="M769.835,143.616l0.403,12.752c14.338,15.934,14.25-9.285,13.144-13.947
				C779.798,127.283,769.835,143.616,769.835,143.616z"/>
			
				<path fill="none" stroke="#C18963" stroke-width="1.5936" stroke-linecap="round" stroke-linejoin="round" stroke-miterlimit="10" d="
				M776.213,144.014c0,0,5.177,3.985,0,9.958"/>
			
				<path fill="none" stroke="#C18963" stroke-width="1.9905" stroke-linecap="round" stroke-linejoin="round" stroke-miterlimit="10" d="
				M707.141,171.177c0,0,16.854,9.241,31.396-1.624"/>
			<path fill="#776537" d="M729.89,77.749l-36.117,3.982l-24.436,5.312c0,0-5.85,34.934-5.053,35.198
				c0.795,0.265,28.159-14.215,28.159-14.215l31.744-11.024l47.142,14.477l9.564-3.982l-5.048-24.968L729.89,77.749z"/>
			<path opacity="0.3" fill="#231F20" d="M771.329,103.679l-47.413-6.678c0,0,19.127,44.357,61.621,21.649
				C785.537,118.65,773.32,112.043,771.329,103.679z"/>
			<path opacity="0.3" fill="#231F20" d="M670.259,118.957c41.885,11.213,53.386-22.291,53.386-22.291l-40.234,9.748
				C679.865,114.339,670.259,118.957,670.259,118.957z"/>
			<path fill="#776537" d="M771.329,102.979l-47.142-5.978c0,0,17.929,38.383,58.295,21.12
				C782.482,118.121,773.32,111.346,771.329,102.979z"/>
			<path fill="#776537" d="M674.467,118.009c34.533,5.797,49.178-21.343,49.178-21.343l-40.361,7.682
				C682.013,111.673,674.467,118.009,674.467,118.009z"/>
			<path fill="#776537" d="M728.036,50.655c-6.109,2.125-9.029,16.469-9.029,16.469c0-6.91-7.175-13.814-7.175-13.814
				c2.178,9.412-4.25,11.69-4.25,11.69l-4.247,18.323l24.433,4.515L741.05,71.64l3.344-7.664
				C725.811,69.502,728.036,50.655,728.036,50.655z"/>
		</g>
	</g>
	
		<path fill="none" stroke="#F4B07D" stroke-width="29.1108" stroke-linecap="round" stroke-linejoin="round" stroke-miterlimit="10" d="
		M672.228,228.222c0,0-55.644,40.37-60.453,83.639c-4.967,44.719-2.484,55.485-2.484,79.172"/>
	<path fill="none" stroke="#282828" stroke-width="29.811" stroke-linejoin="round" stroke-miterlimit="10" d="M672.228,228.222
		c0,0-55.644,40.37-60.453,83.639c-4.967,44.719-2.484,55.485-2.484,79.172"/>
	
		<path fill="none" stroke="#F4B07D" stroke-width="29.1108" stroke-linecap="round" stroke-linejoin="round" stroke-miterlimit="10" d="
		M775.109,240.032c0,0,65.083,27.735,69.892-15.532c4.968-44.72,4.5-38.813,4.5-62.5"/>
	<path fill="none" stroke="#282828" stroke-width="29.811" stroke-linejoin="round" stroke-miterlimit="10" d="M775.109,240.032
		c0,0,65.083,27.735,69.892-15.532c4.968-44.72,4.5-38.813,4.5-62.5"/>
	
		<line fill="none" stroke="#2D2D2D" stroke-width="33.1501" stroke-linecap="round" stroke-linejoin="round" stroke-miterlimit="10" x1="690.689" y1="385.891" x2="690.689" y2="548.258"/>
	
		<line fill="none" stroke="#2D2D2D" stroke-width="33.1501" stroke-linecap="round" stroke-linejoin="round" stroke-miterlimit="10" x1="752.425" y1="385.891" x2="752.425" y2="548.258"/>
	<path fill="#F4B07D" d="M643.581,315.739c0,55.125,0,62.621,0,63.436c0,0.071,0,0.093,0,0.089c0,0.031,0,0.072,0,0.127
		c0,0.136,8.281,0.2,8.281,0.2h71.475V221.332h-54.912C659.952,257.505,643.581,254.591,643.581,315.739z"/>
	<path fill="#F4B07D" d="M720.596,221.332v158.259h71.471c0,0,8.282-0.064,8.282-0.2c0-0.055,0-0.096,0-0.127
		c0,0.004,0-0.018,0-0.089c0-0.815,0-8.311,0-63.436c0-61.147-16.369-58.234-24.845-94.407H720.596z"/>
	<g>
		<circle opacity="0.2" fill="#232222" cx="685.794" cy="275.022" r="7.178"/>
		<path opacity="0.2" fill="#232222" d="M685.794,271.436c-1.983,0-3.59,1.605-3.59,3.586s1.607,3.594,3.59,3.594
			c1.984,0,3.591-1.613,3.591-3.594S687.779,271.436,685.794,271.436z"/>
	</g>
	<g>
		<circle opacity="0.2" fill="#232222" cx="758.117" cy="275.022" r="7.178"/>
		<path opacity="0.2" fill="#232222" d="M758.117,271.436c-1.984,0-3.591,1.605-3.591,3.586s1.606,3.594,3.591,3.594
			c1.983,0,3.59-1.613,3.59-3.594S760.1,271.436,758.117,271.436z"/>
	</g>
	<ellipse opacity="0.2" fill="#232222" cx="723.059" cy="345.915" rx="2.207" ry="3.588"/>
	<path fill="#2D2D2D" d="M721.956,445.337c43.653,0,79.04-27.108,79.04-70.762H642.915
		C642.915,418.229,678.302,445.337,721.956,445.337z"/>
	<path fill="#1C1C1C" d="M626.802,574.459h80.268v-21.302C662.745,553.157,626.802,562.692,626.802,574.459z"/>
	<path fill="#1C1C1C" d="M735.802,553.157v21.302h80.263C816.065,562.692,780.13,553.157,735.802,553.157z"/>
	<rect x="671.969" y="542.549" fill="#2D2D2D" width="36.464" height="12.513"/>
	<rect x="734.172" y="542.549" fill="#2D2D2D" width="36.458" height="12.513"/>
	<rect x="643.548" y="374.682" fill="#161516" width="157.136" height="11.816"/>
	<rect x="711.611" y="374.682" fill="#D6D6D6" width="22.443" height="11.816"/>
	<rect x="667.751" y="219.555" fill="#FFFFFF" width="107.366" height="155.397"/>
	<path fill="#282828" d="M633.769,338.355c0,0-0.63,37.544-3.229,54.731c0,0,5.015,2.272,17.649,2.272
		c0,0,25.648,3.025,28.429-0.254l-0.756-37.653L633.769,338.355z"/>
	<path fill="#282828" d="M635.443,376.399h40.608V214.77h-12.255C623.009,258.494,635.443,376.399,635.443,376.399z"/>
	<path fill="#282828" d="M770.136,357.452l-0.76,37.653c2.784,3.279,26.414,1.513,26.414,1.513c12.637,0,21.999-2.514,21.999-2.514
		c-3.956-12.807-3.956-51.231-3.956-51.231L770.136,357.452z"/>
	<path fill="#282828" d="M782.203,214.77h-12.256v161.629h43.622C813.569,376.399,820.906,242.422,782.203,214.77z"/>
	<polygon fill="#2D2D2D" points="674.011,244.771 653.459,270.728 675.314,350.48 675.314,214.693 653.459,243.25 	"/>
	<polygon fill="#2D2D2D" points="769.8,214.693 769.8,350.48 791.656,270.728 771.107,244.771 791.656,243.25 	"/>
	<g>
		<g>
			<polygon fill="#EA94C7" points="706.384,220.227 722.417,236.26 739.029,220.227 722.797,216.023 			"/>
			<path fill="#EA94C7" d="M722.986,224.305v-0.56l-0.28,0.276l-0.276-0.276l-0.029,0.592l-4.997,5.07L705.678,341.04
				c0,0,12.878,29.033,17.308,29.033c5.618,0,16.749-29.033,16.749-29.033l-11.726-111.632L722.986,224.305z"/>
		</g>
		<polygon fill="#D6D6D6" points="663.528,201.662 663.528,214.723 706.222,234.312 723.333,216.023 668.048,203.168 		"/>
		<polygon fill="#D6D6D6" points="722.797,216.023 739.908,234.312 782.6,214.723 782.6,201.662 778.08,203.168 		"/>
	</g>
	<g>
		<path fill="#F4B07D" d="M723.803,213.409c-28.011,0-39.677-14.938-39.677-14.938s6.416,20.276,38.314,20.276
			c32.291,0,38.315-20.276,38.315-20.276C742.465,215.196,723.803,213.409,723.803,213.409z"/>
	</g>
</g>
<rect x="297.046" y="366.633" fill="#5571AA" width="850.694" height="211.712"/>
<g>
	<line fill="none" stroke="#231F20" stroke-width="2" stroke-miterlimit="10" x1="722.75" y1="366" x2="722.75" y2="254.5"/>
	<ellipse fill="#231F20" cx="722.875" cy="246.25" rx="5.375" ry="9.75"/>
</g>
<g>
	<line fill="none" stroke="#231F20" stroke-width="2" stroke-miterlimit="10" x1="738.5" y1="366" x2="738.5" y2="274.749"/>
	<ellipse fill="#231F20" cx="738.625" cy="266.499" rx="5.375" ry="9.75"/>
</g>
<g>
	<line fill="none" stroke="#231F20" stroke-width="2" stroke-miterlimit="10" x1="707" y1="366" x2="707" y2="274.749"/>
	<ellipse fill="#231F20" cx="707.125" cy="266.499" rx="5.375" ry="9.75"/>
</g>
<g>
	<rect x="828" y="158.5" fill="#FFFFFF" width="97" height="129.5"/>
	<rect x="845.334" y="169.249" fill="#A0A0A0" width="62.333" height="6"/>
	<rect x="862.334" y="186.333" fill="#A0A0A0" width="45" height="2.963"/>
	<rect x="845.5" y="186.333" fill="#A0A0A0" width="7.834" height="2.963"/>
	<rect x="862.334" y="190.293" fill="#A0A0A0" width="45" height="2.963"/>
	<rect x="845.5" y="190.293" fill="#A0A0A0" width="7.834" height="2.963"/>
	<rect x="862.334" y="194.264" fill="#A0A0A0" width="45" height="2.963"/>
	<rect x="845.5" y="194.264" fill="#A0A0A0" width="7.834" height="2.963"/>
	<rect x="862.334" y="198.225" fill="#A0A0A0" width="45" height="2.963"/>
	<rect x="845.5" y="198.225" fill="#A0A0A0" width="7.834" height="2.963"/>
	<rect x="862.334" y="202.135" fill="#A0A0A0" width="45" height="2.962"/>
	<rect x="845.5" y="202.135" fill="#A0A0A0" width="7.834" height="2.962"/>
	<rect x="862.334" y="206.095" fill="#A0A0A0" width="45" height="2.963"/>
	<rect x="845.5" y="206.095" fill="#A0A0A0" width="7.834" height="2.963"/>
	<rect x="862.334" y="210.066" fill="#A0A0A0" width="45" height="2.963"/>
	<rect x="845.5" y="210.066" fill="#A0A0A0" width="7.834" height="2.963"/>
	<rect x="862.334" y="214.027" fill="#A0A0A0" width="45" height="2.964"/>
	<rect x="845.5" y="214.027" fill="#A0A0A0" width="7.834" height="2.964"/>
	<rect x="862.334" y="217.771" fill="#A0A0A0" width="45" height="2.963"/>
	<rect x="845.5" y="217.771" fill="#A0A0A0" width="7.834" height="2.963"/>
	<rect x="862.334" y="221.732" fill="#A0A0A0" width="45" height="2.963"/>
	<rect x="845.5" y="221.732" fill="#A0A0A0" width="7.834" height="2.963"/>
	<rect x="862.334" y="225.703" fill="#A0A0A0" width="45" height="2.962"/>
	<rect x="845.5" y="225.703" fill="#A0A0A0" width="7.834" height="2.962"/>
	<rect x="862.334" y="229.665" fill="#A0A0A0" width="45" height="2.963"/>
	<rect x="845.5" y="229.665" fill="#A0A0A0" width="7.834" height="2.963"/>
	<rect x="862.334" y="233.574" fill="#A0A0A0" width="45" height="2.963"/>
	<rect x="845.5" y="233.574" fill="#A0A0A0" width="7.834" height="2.963"/>
	<rect x="862.334" y="237.534" fill="#A0A0A0" width="45" height="2.962"/>
	<rect x="845.5" y="237.534" fill="#A0A0A0" width="7.834" height="2.962"/>
	<rect x="862.334" y="241.505" fill="#A0A0A0" width="45" height="2.963"/>
	<rect x="845.5" y="241.505" fill="#A0A0A0" width="7.834" height="2.963"/>
	<rect x="862.334" y="245.467" fill="#A0A0A0" width="45" height="2.962"/>
	<rect x="845.5" y="245.467" fill="#A0A0A0" width="7.834" height="2.962"/>
	<rect x="862.334" y="249.386" fill="#A0A0A0" width="45" height="2.964"/>
	<rect x="845.5" y="249.386" fill="#A0A0A0" width="7.834" height="2.964"/>
	<rect x="862.334" y="253.357" fill="#A0A0A0" width="45" height="2.964"/>
	<rect x="845.5" y="253.357" fill="#A0A0A0" width="7.834" height="2.964"/>
	<rect x="862.334" y="257.318" fill="#A0A0A0" width="45" height="2.963"/>
	<rect x="845.5" y="257.318" fill="#A0A0A0" width="7.834" height="2.963"/>
	<rect x="862.334" y="261.228" fill="#A0A0A0" width="45" height="2.962"/>
	<rect x="845.5" y="261.228" fill="#A0A0A0" width="7.834" height="2.962"/>
	<rect x="862.334" y="265.188" fill="#A0A0A0" width="45" height="2.963"/>
	<rect x="845.5" y="265.188" fill="#A0A0A0" width="7.834" height="2.963"/>
	<rect x="862.334" y="269.159" fill="#A0A0A0" width="45" height="2.963"/>
	<rect x="845.5" y="269.159" fill="#A0A0A0" width="7.834" height="2.963"/>
	<rect x="862.334" y="273.12" fill="#A0A0A0" width="45" height="2.963"/>
	<rect x="845.5" y="273.12" fill="#A0A0A0" width="7.834" height="2.963"/>
</g>
<rect y="577.669" fill="#7F8082" width="1440" height="120.525"/>
</svg>
