<?xml version="1.0" encoding="utf-8"?>
<!-- Generator: Adobe Illustrator 16.0.0, SVG Export Plug-In . SVG Version: 6.00 Build 0)  -->
<!DOCTYPE svg PUBLIC "-//W3C//DTD SVG 1.1//EN" "http://www.w3.org/Graphics/SVG/1.1/DTD/svg11.dtd">
<svg version="1.1" id="Layer_1" xmlns="http://www.w3.org/2000/svg" xmlns:xlink="http://www.w3.org/1999/xlink" x="0px" y="0px"
	 width="1020.604px" height="272.886px" viewBox="0 0 1020.604 272.886" enable-background="new 0 0 1020.604 272.886"
	 xml:space="preserve">
<g>
	<g>
		<g>
			<path fill="#474747" d="M221.099,173.168c-44.333,0-80.659,43.907-84.094,99.718h168.161
				C301.732,217.075,265.407,173.168,221.099,173.168z"/>
			<path fill="#474747" d="M221.099,83.835c-26.747,0-48.428,21.672-48.428,48.405c0,26.742,21.681,48.415,48.428,48.415
				c26.72,0,48.382-21.673,48.382-48.415C269.481,105.507,247.819,83.835,221.099,83.835z"/>
		</g>
		<ellipse fill="#474747" cx="173.821" cy="135.05" rx="7.53" ry="11.221"/>
		<ellipse fill="#474747" cx="265.948" cy="135.05" rx="7.53" ry="11.221"/>
		<path fill="#474747" d="M184.598,195.58h36.024v-42.52l-33.662,8.858C186.96,161.919,201.428,178.75,184.598,195.58z"/>
		<path fill="#474747" d="M255.463,161.919l-33.662-8.858v42.52h36.024C240.996,178.75,255.463,161.919,255.463,161.919z"/>
		<path fill="#474747" d="M236.42,75.107c-48.426-4.134-40.158,12.993-40.158,12.993l-5.906-3.543
			c-33.662,1.771-16.535,39.271-16.535,39.271h92.127C285.437,72.745,236.42,75.107,236.42,75.107z"/>
	</g>
	<g>
		<g>
			<path fill="#474747" d="M788.513,134.274c-53.552,0-96.938,55.75-96.938,124.535c0,4.76,0.221,9.456,0.634,14.076h192.579
				c0.412-4.62,0.632-9.316,0.632-14.076C885.419,190.024,842.033,134.274,788.513,134.274z"/>
			<path fill="#474747" d="M788.513,31.622c-30.734,0-55.647,24.903-55.647,55.622c0,30.729,24.913,55.632,55.647,55.632
				c30.703,0,55.595-24.903,55.595-55.632C844.107,56.525,819.216,31.622,788.513,31.622z"/>
		</g>
		<ellipse fill="#474747" cx="735.263" cy="91.49" rx="8.651" ry="12.893"/>
		<ellipse fill="#474747" cx="841.124" cy="91.49" rx="8.652" ry="12.893"/>
		<path fill="#474747" d="M747.646,161.044h41.395v-48.859l-38.68,10.179C750.36,122.364,766.984,141.705,747.646,161.044z"/>
		<path fill="#474747" d="M829.076,122.364l-38.68-10.179v48.859h41.395C812.452,141.705,829.076,122.364,829.076,122.364z"/>
	</g>
	<g>
		<g>
			<path fill="#474747" d="M345.064,138.239c-58.519,0-106.108,59.948-107.617,134.646h215.199
				C451.137,198.188,403.55,138.239,345.064,138.239z"/>
			<path fill="#474747" d="M345.064,24.24c-34.132,0-61.799,27.658-61.799,61.771c0,34.126,27.667,61.782,61.799,61.782
				c34.098,0,61.741-27.656,61.741-61.782C406.806,51.898,379.162,24.24,345.064,24.24z"/>
		</g>
		<ellipse fill="#474747" cx="285.928" cy="90.726" rx="9.608" ry="14.318"/>
		<ellipse fill="#474747" cx="403.492" cy="90.726" rx="9.608" ry="14.318"/>
		<path fill="#474747" d="M299.68,167.971h45.971V113.71l-42.956,11.305C302.695,125.015,321.157,146.493,299.68,167.971z"/>
		<path fill="#474747" d="M390.112,125.015l-42.956-11.305v54.261h45.971C371.65,146.493,390.112,125.015,390.112,125.015z"/>
	</g>
	<g>
		<g>
			<g>
				<path fill="#474747" d="M519.471,123.959c-55.553,0-100.563,57.837-100.563,129.194c0,6.71,0.419,13.299,1.199,19.732h198.701
					c0.776-6.434,1.194-13.022,1.194-19.732C620.001,181.796,574.992,123.959,519.471,123.959z"/>
				<path fill="#474747" d="M519.471,17.47c-31.884,0-57.728,25.835-57.728,57.702c0,31.878,25.844,57.713,57.728,57.713
					c31.851,0,57.673-25.835,57.673-57.713C577.144,43.305,551.321,17.47,519.471,17.47z"/>
			</g>
			<path fill="#474747" d="M476.559,148.211h42.943V97.526l-40.127,10.56C479.375,108.086,496.621,128.15,476.559,148.211z"/>
			<path fill="#474747" d="M561.034,108.086l-40.126-10.56v50.685h42.942C543.788,128.15,561.034,108.086,561.034,108.086z"/>
		</g>
		<ellipse fill="#474747" cx="463.713" cy="76.057" rx="8.976" ry="13.375"/>
		<ellipse fill="#474747" cx="573.532" cy="76.057" rx="8.976" ry="13.375"/>
		<path fill="#474747" d="M554.701,4.251c4.224,4.927,0.353,19.359,0.353,19.359C542.03-1.732,502.607,0.026,502.607,0.026
			c-7.743,13.727-11.615,16.896-11.615,16.896c-0.352-2.465-10.208-6.688-10.208-6.688c-1.056,10.208-13.375,22.176-13.375,22.176
			C454.034,55.992,466,85.208,466,85.208l69.341,7.04l38.19-29.566C584.62,31.354,554.701,4.251,554.701,4.251z"/>
	</g>
	<g>
		<g>
			<path fill="#474747" d="M925.399,136.786c-52.609,0-95.233,54.771-95.233,122.349c0,4.649,0.215,9.237,0.616,13.751h189.207
				c0.399-4.514,0.614-9.102,0.614-13.751C1020.604,191.558,977.979,136.786,925.399,136.786z"/>
			<path fill="#474747" d="M925.399,35.939c-30.193,0-54.668,24.466-54.668,54.646c0,30.189,24.475,54.654,54.668,54.654
				c30.164,0,54.618-24.464,54.618-54.654C980.018,60.405,955.563,35.939,925.399,35.939z"/>
		</g>
		<ellipse fill="#474747" cx="873.16" cy="87.025" rx="8.5" ry="12.667"/>
		<ellipse fill="#474747" cx="977.16" cy="87.025" rx="8.5" ry="12.667"/>
		<path fill="#474747" d="M884.16,155.357h40.667v-48l-38,10C886.827,117.357,903.159,136.358,884.16,155.357z"/>
		<path fill="#474747" d="M964.159,117.357l-38-10v48h40.667C947.827,136.358,964.159,117.357,964.159,117.357z"/>
		<path fill="#474747" d="M866.493,123.69c0,0,8.001,0.666,10.667-3.334c0,0,5.333,18-18.667,26.667c0,0,19.333,23.999,55.333-0.667
			l2.667-50.666l-43.333,4.001C873.16,99.691,876.493,112.357,866.493,123.69z"/>
		<path fill="#474747" d="M974.492,120.356c2.666,4,10.667,3.334,10.667,3.334c-10-11.333-6.667-23.999-6.667-23.999l-43.333-4.001
			l2.667,50.666c36,24.666,55.333,0.667,55.333,0.667C969.159,138.356,974.492,120.356,974.492,120.356z"/>
		<path fill="#474747" d="M925.399,35.939c-47.094-5.751-52.239,38.419-52.239,38.419l82.666,23.332l21.334-23.332
			C967.827,23.026,925.399,35.939,925.399,35.939z"/>
	</g>
	<g>
		<g>
			<path fill="#474747" d="M659.202,155.384c-46.115,0-83.478,48.011-83.478,107.246c0,3.46,0.139,6.88,0.394,10.256h166.144
				c0.255-3.376,0.393-6.796,0.393-10.256C742.654,203.395,705.292,155.384,659.202,155.384z"/>
			<path fill="#474747" d="M659.202,66.987c-26.466,0-47.92,21.445-47.92,47.899c0,26.462,21.454,47.907,47.92,47.907
				c26.44,0,47.876-21.445,47.876-47.907C707.078,88.432,685.643,66.987,659.202,66.987z"/>
		</g>
		<ellipse fill="#474747" cx="613.411" cy="111.765" rx="7.45" ry="11.103"/>
		<ellipse fill="#474747" cx="704.573" cy="111.765" rx="7.45" ry="11.103"/>
		<path fill="#474747" d="M623.054,171.664h35.647v-42.076l-33.31,8.766C625.392,138.354,639.707,155.009,623.054,171.664z"/>
		<path fill="#474747" d="M693.178,138.354l-33.31-8.766v42.076h35.647C678.861,155.009,693.178,138.354,693.178,138.354z"/>
		<path fill="#474747" d="M607.567,143.905c0,0,7.014,0.584,9.351-2.923c0,0,4.675,15.778-16.363,23.375
			c0,0,16.947,21.037,48.503-0.583l2.338-44.413l-37.984,3.507C613.411,122.868,616.333,133.971,607.567,143.905z"/>
		<path fill="#474747" d="M702.235,140.982c2.337,3.507,9.35,2.923,9.35,2.923c-8.766-9.935-5.844-21.037-5.844-21.037
			l-37.983-3.507l2.337,44.413c31.557,21.62,48.503,0.583,48.503,0.583C697.561,156.761,702.235,140.982,702.235,140.982z"/>
		<path fill="#474747" d="M659.202,66.987c-41.28-5.042-45.791,33.675-45.791,33.675l72.462,20.453l18.7-20.453
			C696.393,55.667,659.202,66.987,659.202,66.987z"/>
	</g>
	<g>
		<g>
			<g>
				<path fill="#474747" d="M95.234,132.39C42.625,132.39,0,187.162,0,254.737c0,6.167,0.37,12.227,1.066,18.148h188.309
					c0.694-5.922,1.063-11.981,1.063-18.148C190.438,187.162,147.814,132.39,95.234,132.39z"/>
				<path fill="#474747" d="M95.234,31.543c-30.194,0-54.669,24.466-54.669,54.645c0,30.188,24.475,54.654,54.669,54.654
					c30.163,0,54.617-24.466,54.617-54.654C149.852,56.009,125.397,31.543,95.234,31.543z"/>
			</g>
			<ellipse fill="#474747" cx="42.493" cy="89.358" rx="8.5" ry="12.667"/>
			<ellipse fill="#474747" cx="146.493" cy="89.358" rx="8.5" ry="12.667"/>
			<path fill="#474747" d="M54.658,157.69h40.667v-48l-38,10C57.325,119.69,73.657,138.691,54.658,157.69z"/>
			<path fill="#474747" d="M134.657,119.69l-38-10v48h40.667C118.325,138.691,134.657,119.69,134.657,119.69z"/>
		</g>
		<path fill="#474747" d="M98.419,36.617c0.034,0.259,0.073,0.407,0.073,0.407L98.419,36.617z"/>
		<path fill="#474747" d="M137.159,29.691c-8.667-0.667-14.667,8.667-14.667,8.667c-3.549-5.568,3.549-20.145,3.549-20.145
			c-27.873,5.245-27.916,16.179-27.622,18.403l0.073,0.407c0,0-0.039-0.148-0.073-0.407l-3.261-18.259c-20,8-26.667,24-26.667,24
			l-1.333-10C43.825,47.692,42.493,76.691,42.493,76.691v25.333l104-25.333c3.334-11.667-7.334-23-7.334-23
			C135.825,47.024,137.159,29.691,137.159,29.691z"/>
	</g>
</g>
</svg>
