<?xml version="1.0" encoding="utf-8"?>
<!-- Generator: Adobe Illustrator 16.0.0, SVG Export Plug-In . SVG Version: 6.00 Build 0)  -->
<!DOCTYPE svg PUBLIC "-//W3C//DTD SVG 1.1//EN" "http://www.w3.org/Graphics/SVG/1.1/DTD/svg11.dtd">
<svg version="1.1" id="Layer_1" xmlns="http://www.w3.org/2000/svg" xmlns:xlink="http://www.w3.org/1999/xlink" x="0px" y="0px"
	 width="163px" height="203.5px" viewBox="0 0 163 203.5" enable-background="new 0 0 163 203.5" xml:space="preserve">
<g>
	<g>
		<ellipse fill="#39606B" cx="81.5" cy="201" rx="81.5" ry="2.5"/>
	</g>
	<g>
		<path fill="#776537" d="M64,41.9c0,0-1.9,0.7-1.9,3.9c0,1.1,0.6,3.9-1.4,4c0,0,2.5,0.3,3.2-1.3c0,0-0.1,2.9-1.3,3.6
			c0,0,6.8,2.9,7.9-3.6L69.9,39C69.9,39,65.7,37.3,64,41.9z"/>
	</g>
	<g>
		<path fill="#776537" d="M104.8,41.9c0,0,1.9,0.7,1.9,3.9c0,1.1-0.6,3.9,1.4,4c0,0-2.5,0.3-3.2-1.3c0,0,0.1,2.9,1.3,3.6
			c0,0-6.8,2.9-7.9-3.6l0.6-9.5C98.9,39,103.1,37.3,104.8,41.9z"/>
	</g>
	<g>
		<g>
			<polygon fill="#B7B7B7" points="61.6,57.8 66.2,57.3 67,62.5 			"/>
		</g>
		<g>
			<polygon fill="#B7B7B7" points="107.1,57.8 102.5,57.3 101.8,62.5 			"/>
		</g>
		<g>
			<path fill="#F4B07D" d="M111.7,89.1H57.3c0,0,8.9-32.9,8.9-48.7c0-9.1,36.5-9.1,36.5,0C102.7,63.2,111.7,89.1,111.7,89.1z"/>
		</g>
		<g>
			<g>
				<path fill="#776537" d="M84.8,9.4c0,0-7.1-9.9-20.2,0.2c-5.3,4.1-7.6,21,1.3,29.9l19.4-21.7L84.8,9.4z"/>
			</g>
			<g>
				<path fill="#776537" d="M84.9,9.4c0,0,7.1-9.9,20.2,0.2c5.3,4.1,7.6,21-1.3,29.9L84.4,17.8L84.9,9.4z"/>
			</g>
			<g>
				<path fill="#F4B07D" d="M101.6,20.6c0,0-6.1-7.8-17.8-7.7c-11.6-0.2-16.5,7.7-16.5,7.7c-4.1,6.7-2.9,27.3-2.9,27.3
					c0,10.2,14.1,18.3,20.1,18.3c5.9,0,20.1-7.6,20.1-18.3C104.7,47.9,105.7,27.3,101.6,20.6z"/>
			</g>
			<g opacity="0.2">
				<g>
					<path fill="#231F20" d="M89.5,37.6c0.2,0.2,0.4,0.5,0.6,0.8c0.2,0.3,0.3,0.7,0.2,1.1c0,0.1,0,0.2-0.1,0.3
						c0,0.1-0.1,0.2-0.1,0.3c-0.1,0.2-0.2,0.3-0.4,0.4c-0.3,0.2-0.6,0.4-0.9,0.5l0,0l0,0c-0.4,0.1-0.8,0.2-1.2,0.4
						c-0.2,0.1-0.3,0.2-0.5,0.3c-0.1,0.1-0.2,0.2-0.3,0.5c-0.1,0.2-0.3,0.4-0.5,0.6c-0.2,0.2-0.5,0.3-0.7,0.4
						c-0.2,0.1-0.5,0.1-0.7,0.1c-0.2,0-0.5,0-0.7,0c-0.4,0-0.9,0-1.4-0.2c-0.2-0.1-0.5-0.2-0.7-0.4c-0.2-0.2-0.4-0.4-0.5-0.6
						L81.4,42c0,0-0.1-0.1,0,0l-0.1-0.1c-0.1-0.1-0.1-0.2-0.2-0.2c-0.1-0.1-0.3-0.2-0.4-0.3c-0.4-0.2-0.8-0.3-1.2-0.4l0,0l0,0
						c-0.3-0.1-0.6-0.2-0.9-0.5c-0.1-0.1-0.3-0.2-0.4-0.4c-0.1-0.2-0.2-0.4-0.2-0.6c-0.1-0.4,0.1-0.8,0.2-1.1
						c0.2-0.3,0.4-0.6,0.6-0.8c0.1-0.1,0.3-0.1,0.3,0c0.1,0.1,0.1,0.2,0,0.3l0,0c-0.4,0.4-0.7,1-0.6,1.4c0,0.1,0,0.1,0.1,0.2
						c0,0,0,0.1,0.1,0.1c0.1,0.1,0.2,0.2,0.3,0.3c0.2,0.2,0.5,0.3,0.7,0.4l-0.1,0c0.5,0.1,0.9,0.2,1.4,0.4c0.2,0.1,0.4,0.3,0.7,0.4
						c0.1,0.1,0.2,0.2,0.2,0.3l0.1,0.1c0.1,0.1,0,0.1,0.1,0.1l0.1,0.1c0.1,0.2,0.2,0.3,0.4,0.4c0.1,0.1,0.3,0.2,0.5,0.2
						c0.4,0.1,0.8,0.1,1.2,0.1l0.6,0c0.2,0,0.4,0,0.6-0.1c0.2,0,0.3-0.1,0.5-0.2c0.1-0.1,0.2-0.2,0.4-0.4c0.1-0.2,0.3-0.4,0.5-0.6
						c0.2-0.2,0.4-0.3,0.6-0.4c0.4-0.2,0.9-0.4,1.4-0.4l-0.1,0c0.3-0.1,0.5-0.2,0.7-0.4c0.1-0.1,0.2-0.2,0.3-0.3
						c0,0,0.1-0.1,0.1-0.1c0,0,0-0.1,0.1-0.2c0.1-0.5-0.2-1-0.6-1.4l0,0c-0.1-0.1-0.1-0.3,0-0.3C89.2,37.5,89.4,37.5,89.5,37.6z"/>
				</g>
			</g>
			<g>
				<path fill="#593B2E" d="M69.8,30.7c0,0,4.4-2.9,9.4-0.5c0,0,1.7-0.6,0.5-1.4C79.6,28.8,73.6,26.5,69.8,30.7z"/>
			</g>
			<g>
				<path fill="#F4B07D" d="M66.1,35.6c0,0-3.8-6.3-5.2-0.5c-0.4,1.8-0.5,11.4,5,5.3"/>
			</g>
			<g>
				<path fill="#C18963" d="M63.7,39.9c-0.1,0-0.2,0-0.2-0.1c-0.7-0.8-1-1.6-0.9-2.5c0.1-1.1,1-1.8,1-1.8c0.1-0.1,0.3-0.1,0.4,0.1
					c0.1,0.1,0.1,0.3-0.1,0.4c0,0-0.7,0.5-0.8,1.4c-0.1,0.6,0.2,1.3,0.8,2c0.1,0.1,0.1,0.3,0,0.4C63.8,39.9,63.7,39.9,63.7,39.9z"/>
			</g>
			<g>
				<path fill="#F4B07D" d="M102.3,35.6c0,0,3.8-6.3,5.2-0.5c0.4,1.8,0.5,11.4-5,5.3"/>
			</g>
			<g>
				<path fill="#C18963" d="M104.8,39.9c-0.1,0-0.1,0-0.2-0.1c-0.1-0.1-0.1-0.3,0-0.4c0.6-0.7,0.9-1.4,0.8-2
					c-0.1-0.9-0.7-1.4-0.8-1.4c-0.1-0.1-0.2-0.3-0.1-0.4c0.1-0.1,0.3-0.2,0.4-0.1c0,0,0.9,0.7,1,1.8c0.1,0.8-0.2,1.6-0.9,2.5
					C105,39.8,104.9,39.9,104.8,39.9z"/>
			</g>
			<g>
				<path fill="#776537" d="M63.8,13.9c0,0-2.2,13.4-1.9,13.5c0.3,0.1,10.8-5.4,10.8-5.4l12.2-4.2l18.1,5.5l3.7-1.5l-1.9-9.6
					L87,10.4l-13.8,1.5L63.8,13.9z"/>
			</g>
			<g opacity="0.3">
				<path fill="#231F20" d="M84.8,17.8c0,0,7.3,17,23.6,8.3c0,0-4.7-2.5-5.4-5.7"/>
			</g>
			<g opacity="0.3">
				<path fill="#231F20" d="M84.6,17.6c0,0-4.4,12.8-20.4,8.5c0,0,3.7-1.8,5-4.8"/>
			</g>
			<g>
				<path fill="#776537" d="M84.9,17.8c0,0,6.9,14.7,22.3,8.1c0,0-3.5-2.6-4.3-5.8"/>
			</g>
			<g>
				<path fill="#776537" d="M84.6,17.6c0,0-5.6,10.4-18.8,8.2c0,0,2.9-2.4,3.4-5.2"/>
			</g>
			<g>
				<path fill="#776537" d="M78.5,5.5c0,0,2.5-0.9,1.6-4.5c0,0,2.7,2.6,2.7,5.3c0,0,1.1-5.5,3.5-6.3c0,0-0.8,7.2,6.3,5.1L91.3,8
					l-5.1,6.2l-9.4-1.7L78.5,5.5z"/>
			</g>
			<g>
				<path fill="#C18963" d="M80.8,45.6c0,0,8.7-1.7,9.1-0.2c0.4,1.6-2.5,8.3-5.9,4.9c-0.6-0.6-1-1-1.9-1.9
					C81.7,48,78.8,46.6,80.8,45.6z"/>
				<path fill="#C18963" d="M86,51.7c-0.8,0-1.5-0.4-2.2-1.1c-0.4-0.4-0.7-0.7-1.1-1.1l-0.9-0.9c-0.1-0.1-0.2-0.2-0.4-0.3
					c-0.7-0.5-1.7-1.1-1.7-2c0-0.4,0.3-0.8,0.9-1.1c0,0,0.1,0,0.1,0c0.2,0,4.2-0.8,6.9-0.8c1.7,0,2.5,0.3,2.7,0.9
					c0.3,1-0.5,3.3-1.6,4.8C87.9,51.1,87,51.7,86,51.7z M80.9,45.9c-0.2,0.1-0.4,0.3-0.4,0.5c0,0.4,0.9,1,1.4,1.3
					c0.2,0.2,0.4,0.3,0.5,0.4l0.9,0.9c0.4,0.4,0.7,0.7,1.1,1.1c0.6,0.6,1.1,0.9,1.7,0.9c0.9,0,1.6-0.7,2.1-1.3
					c1.1-1.4,1.7-3.4,1.5-4.1c0,0-0.1-0.4-1.9-0.4C85.2,45.1,81.4,45.8,80.9,45.9z"/>
			</g>
			<g>
				<path fill="#2E230E" d="M77.8,31c0,0,1.6,3.6-1.2,4.9C76.6,35.9,80.6,34.9,77.8,31z"/>
			</g>
			<g>
				<path fill="#2E230E" d="M71.6,33.8c0,0,4.9-1,6.9,0.2C78.5,33.9,79.9,31.2,71.6,33.8z"/>
			</g>
			<g>
				<path fill="#593B2E" d="M98.5,30.7c0,0-4.4-2.9-9.4-0.5c0,0-1.7-0.6-0.5-1.4C88.6,28.8,94.6,26.5,98.5,30.7z"/>
			</g>
			<g>
				<path fill="#2E230E" d="M90.4,31c0,0-1.6,3.6,1.2,4.9C91.7,35.9,87.7,34.9,90.4,31z"/>
			</g>
			<g>
				<path fill="#2E230E" d="M96.6,33.8c0,0-4.9-1-6.9,0.2C89.7,33.9,88.3,31.2,96.6,33.8z"/>
			</g>
		</g>
		<g opacity="0.1">
			<path fill="#232222" d="M65.4,52.1c0,0,5.9,15.3,20.2,13.6c0,0,12.8-0.2,17.5-13.9c0,0-10.2,10.9-20.1,9.9
				C82.9,61.7,74.3,61.2,65.4,52.1z"/>
		</g>
	</g>
	<g>
		<path fill="#F4B07D" d="M64.9,78.5c-1.2,0-2.3-0.4-3.3-1.1c-0.2-0.2-5.8-4.3-11.7-10.5C41.7,58.1,37,49.5,36.1,41.3
			c-1.5-13.2-1.3-19.1-1.1-24.9c0.1-1.9,0.1-3.8,0.1-6.1c0-3.2,2.6-5.7,5.7-5.7s5.7,2.6,5.7,5.7c0,2.4-0.1,4.4-0.1,6.4
			c-0.2,5.6-0.3,10.9,1,23.3c1.3,11.5,15.5,24.2,20.8,28c2.6,1.9,3.1,5.4,1.3,8C68.5,77.6,66.7,78.5,64.9,78.5z"/>
	</g>
	<g>
		<path fill="#101423" d="M61.6,77.4c-0.2-0.2-5.8-4.3-11.7-10.5C41.7,58.1,37,49.5,36.1,41.3c-1.5-13.2-1.3-19.1-1.1-24.9
			c0.1-1.9,0.1-3.8,0.1-6.1h11.4c0,2.4-0.1,4.4-0.1,6.4c-0.2,5.6-0.3,10.9,1,23.3c1.3,11.5,15.5,24.2,20.8,28L61.6,77.4z"/>
	</g>
	<g>
		<path fill="#F4B07D" d="M104.4,78.4c-1.7,0-3.5-0.8-4.6-2.3c-1.8-2.5-1.3-6.1,1.3-7.9c5.4-3.9,19.6-16.6,20.9-28.1
			c1.4-12.4,1.2-17.7,1-23.3c-0.1-2-0.1-4-0.1-6.4c0-3.1,2.5-5.6,5.6-5.6s5.6,2.5,5.6,5.6c0,2.2,0.1,4.2,0.1,6.1
			c0.2,5.8,0.4,11.7-1.1,24.9c-0.9,8.1-5.5,16.7-13.8,25.5c-5.9,6.3-11.5,10.3-11.7,10.5C106.7,78.1,105.5,78.4,104.4,78.4z"/>
	</g>
	<g>
		<path fill="#101423" d="M107.7,77.4l-6.7-9.2c0,0,0,0,0,0l0,0c5.4-3.9,19.6-16.6,20.8-28c1.4-12.4,1.2-17.7,1-23.3
			c-0.1-2-0.1-4-0.1-6.4h11.4c0,2.2,0.1,4.2,0.1,6.1c0.2,5.8,0.4,11.7-1.1,24.9c-0.9,8.1-5.5,16.7-13.8,25.5
			C113.5,73.1,107.9,77.2,107.7,77.4z"/>
	</g>
	<g>
		<path fill="#263451" d="M72,196.9c-3.5,0-6.3-2.8-6.3-6.3v-62.2c0-3.5,2.8-6.3,6.3-6.3s6.3,2.8,6.3,6.3v62.2
			C78.4,194.1,75.5,196.9,72,196.9z"/>
	</g>
	<g>
		<path fill="#263451" d="M95.7,196.9c-3.5,0-6.3-2.8-6.3-6.3v-62.2c0-3.5,2.8-6.3,6.3-6.3s6.3,2.8,6.3,6.3v62.2
			C102,194.1,99.2,196.9,95.7,196.9z"/>
	</g>
	<g opacity="0.2">
		<ellipse fill="#232222" cx="84.4" cy="113.1" rx="0.8" ry="1.4"/>
	</g>
	<g>
		<path fill="#263451" d="M84,151.2c16.7,0,30.3-10.4,30.3-27.1H53.7C53.7,140.8,67.3,151.2,84,151.2z"/>
	</g>
	<g>
		<path fill="#1C1C1C" d="M78.3,192.5c-17,0-30.7,3.7-30.7,8.2h30.7V192.5z"/>
	</g>
	<g>
		<path fill="#1C1C1C" d="M89.3,192.5c17,0,30.7,3.7,30.7,8.2H89.3V192.5z"/>
	</g>
	<g>
		<rect x="64.9" y="188.4" fill="#263451" width="14" height="4.8"/>
	</g>
	<g>
		<rect x="88.7" y="188.4" fill="#263451" width="14" height="4.8"/>
	</g>
	<g>
		<rect x="54" y="124.1" fill="#161516" width="60.2" height="4.5"/>
	</g>
	<g>
		<rect x="80" y="124.1" fill="#D6D6D6" width="8.6" height="4.5"/>
	</g>
	<g>
		<rect x="63.2" y="64.7" fill="#FFFFFF" width="41.1" height="59.5"/>
	</g>
	<g>
		<path fill="#101423" d="M50.2,110.2c0,0-0.2,14.4-1.2,21c0,0,1.9,0.9,6.8,0.9c0,0,9.8,1.2,10.9-0.1l-0.3-14.4L50.2,110.2z"/>
	</g>
	<g>
		<path fill="#101423" d="M66.4,62.9v61.9H50.9c0,0-4.8-45.2,10.9-61.9H66.4z"/>
	</g>
	<g>
		<path fill="#101423" d="M119.2,111.9c0,0,0,14.7,1.5,19.6c0,0-3.6,1-8.4,1c0,0-9.1,0.7-10.1-0.6l0.3-14.4L119.2,111.9z"/>
	</g>
	<g>
		<path fill="#101423" d="M102.4,62.9v61.9h16.7c0,0,2.8-51.3-12-61.9H102.4z"/>
	</g>
	<g>
		<polygon fill="#192033" points="66.1,62.8 57.8,73.8 65.6,74.3 57.8,84.3 66.1,114.8 		"/>
	</g>
	<g>
		<polygon fill="#192033" points="102.3,62.8 110.7,73.8 102.8,74.3 110.7,84.3 102.3,114.8 		"/>
	</g>
	<g>
		<g>
			<g>
				<polygon fill="#192033" points="78,64.9 84.2,71.1 90.5,64.9 84.3,63.3 				"/>
			</g>
			<g>
				<path fill="#192033" d="M86.3,68.5l-1.9-2v-0.2l-0.1,0.1l-0.1-0.1l0,0.2l-1.9,1.9l-4.5,42.8c0,0,4.9,11.1,6.6,11.1
					c2.2,0,6.4-11.1,6.4-11.1L86.3,68.5z"/>
			</g>
		</g>
		<g>
			<polygon fill="#D6D6D6" points="63.4,58.4 84.5,63.3 78,70.3 61.6,62.8 61.6,57.8 			"/>
		</g>
		<g>
			<polygon fill="#D6D6D6" points="105.5,58.4 84.3,63.3 90.9,70.3 107.2,62.8 107.2,57.8 			"/>
		</g>
	</g>
	<g>
		<g>
			<path fill="#F4B07D" d="M99.9,54c0,0-3.4,10.4-15.7,10.4c-12.2,0-17.5-13-17.5-13s6.5,3.3,17.3,3.3C84,54.7,89.6,52.9,99.9,54z"
				/>
		</g>
	</g>
	<g>
		<g opacity="0.1">
			<path fill="#232222" d="M93.7,54.9c0,0-1.5,5.5-9.5,5.5c-7.9,0-9.5-5.5-9.5-5.5s2.9,4,9.8,4C84.5,59,89.1,59.5,93.7,54.9z"/>
		</g>
	</g>
</g>
</svg>
