<?xml version="1.0" encoding="utf-8"?>
<!-- Generator: Adobe Illustrator 16.0.0, SVG Export Plug-In . SVG Version: 6.00 Build 0)  -->
<!DOCTYPE svg PUBLIC "-//W3C//DTD SVG 1.1//EN" "http://www.w3.org/Graphics/SVG/1.1/DTD/svg11.dtd">
<svg version="1.1" id="Layer_1" xmlns="http://www.w3.org/2000/svg" xmlns:xlink="http://www.w3.org/1999/xlink" x="0px" y="0px"
	 width="1440px" height="700px" viewBox="0 0 1440 700" enable-background="new 0 0 1440 700" xml:space="preserve">
<rect y="0" fill="#5F7482" width="1440" height="700"/>
<rect x="-2.2" y="551.9" fill="#2F393F" width="1442.2" height="148.1"/>
<g>
	<rect x="221.9" y="57.8" fill="#D3D1D1" width="999.1" height="252"/>
	<path fill="#939292" d="M1213.4,91.3V65.4h-50.2c-9.1-1.9-18.8-3-28.9-3s-19.8,1.1-28.9,3h-60.7c-9.1-1.9-18.8-3-28.9-3
		s-19.8,1.1-28.9,3H872.1c-19-4.8-40.8-7.5-64-7.5s-45.1,2.7-64,7.5H554.2c-9.1-1.9-18.8-3-28.9-3s-19.8,1.1-28.9,3H364.6
		c-14.9-6.6-32.9-10.5-52.3-10.5s-37.4,3.9-52.3,10.5h-39.7v42.8c-0.4,2.2-0.6,4.4-0.6,6.7c0,33.1,41.4,60,92.5,60
		c31.5,0,59.3-10.2,76-25.8c9.7,4,21.1,6.3,33.5,6.3c8.3,0,16.2-1.1,23.4-2.9c16,17.9,45.9,29.9,80.1,29.9
		c37.1,0,69.1-14.2,83.8-34.6c11.1,6.6,25.9,10.6,42.1,10.6c16.2,0,31-4,42.1-10.6c22.9,18,65.6,30.1,114.7,30.1
		c53.6,0,99.8-14.5,120.6-35.3c12.8,23.2,47,39.8,87.2,39.8c22.5,0,43.2-5.2,59.2-13.9c16.1,8.7,36.7,13.9,59.2,13.9
		c51.1,0,92.5-26.9,92.5-60C1226.8,111,1221.9,100.3,1213.4,91.3z"/>
	<rect x="221.9" y="57.8" opacity="0.2" fill="#87E8F4" width="997.4" height="247.5"/>
	<g>
		<rect x="479.7" y="60.8" fill="#FFFFFF" width="9" height="247.5"/>
		<rect x="719.7" y="60.8" fill="#FFFFFF" width="9" height="247.5"/>
		<rect x="961.2" y="60.8" fill="#FFFFFF" width="9" height="247.5"/>
		<rect x="962.7" y="60.8" fill="#FFFFFF" width="9" height="247.5"/>
		<path fill="#FFFFFF" d="M211.9,52.2v262.4h1017.9V52.2H211.9z M1213,298.6H228.7V68.1H1213V298.6z"/>
		<rect x="489.1" y="163.7" fill="#FFFFFF" width="8" height="45.6"/>
		<rect x="728.4" y="163.7" fill="#FFFFFF" width="8" height="45.6"/>
		<rect x="971.8" y="163.7" fill="#FFFFFF" width="8" height="45.6"/>
	</g>
</g>
<g>
	<path fill="#212121" d="M935.6,99.8v-6.2c0-1-0.5-1.8-1.2-2.3V79.1H505.1v275.7h178.6v44.1H580.4v9.6h-4.8v10.4h4.8h277.8h4.8
		v-10.4h-4.8v-9.6H755.6v-44.1h178.8V157.2c0.7-0.5,1.2-1.4,1.2-2.3v-6.2c0-1-0.5-1.8-1.2-2.3V144c0.7-0.5,1.2-1.4,1.2-2.3v-6.2
		c0-1-0.5-1.8-1.2-2.3v-2.3c0.7-0.5,1.2-1.4,1.2-2.3v-6.2c0-1-0.5-1.8-1.2-2.3v-3.5c0.7-0.5,1.2-1.4,1.2-2.3v-6.2
		c0-1-0.5-1.8-1.2-2.3v-3.5C935.1,101.6,935.6,100.7,935.6,99.8z"/>
	<rect x="523" y="94.3" fill="#427C8C" width="393.4" height="245.5"/>
	<path fill="#383838" d="M732.1,347.4c0,1.5-1.3,2.8-2.8,2.8h-19.2c-1.5,0-2.8-1.3-2.8-2.8l0,0c0-1.5,1.2-2.8,2.8-2.8h19.2
		C730.8,344.6,732.1,345.9,732.1,347.4L732.1,347.4z"/>
</g>
<rect x="481.1" y="426" fill="#725130" width="50" height="124.8"/>
<rect x="908.1" y="426" fill="#725130" width="50" height="124.8"/>
<path fill="#544A41" d="M1011,425.7c0,4-3.3,7.3-7.3,7.3H438.5c-4,0-7.3-3.3-7.3-7.3l0,0c0-4,3.3-7.3,7.3-7.3h565.2
	C1007.7,418.5,1011,421.7,1011,425.7L1011,425.7z"/>
<polygon opacity="0.1" fill="#231F20" points="908.4,433 958.1,550.8 958.4,433 "/>
<polygon opacity="0.1" fill="#231F20" points="481.8,433 531.4,550.8 531.8,433 "/>
</svg>
