<?xml version="1.0" encoding="utf-8"?>
<!-- Generator: Adobe Illustrator 16.0.0, SVG Export Plug-In . SVG Version: 6.00 Build 0)  -->
<!DOCTYPE svg PUBLIC "-//W3C//DTD SVG 1.1//EN" "http://www.w3.org/Graphics/SVG/1.1/DTD/svg11.dtd">
<svg version="1.1" id="Layer_1" xmlns="http://www.w3.org/2000/svg" xmlns:xlink="http://www.w3.org/1999/xlink" x="0px" y="0px"
	 width="996.8px" height="426.1px" viewBox="0 0 996.8 426.1" enable-background="new 0 0 996.8 426.1" xml:space="preserve">
<g>
	<path fill="#232222" d="M717.3,243.4c-2.2-19.9-13.6-40.9-33.7-62.4c-11-11.8-21.7-20.4-26.3-24c-0.8-1-1.7-2.1-2.6-3l0.2-0.1
		v-12.3l-6.7-0.8c-0.7-3.9-1.3-7.8-1.9-11.6c3.5-0.3,6.3-1.5,6.3-1.5c-2.8-1.8-3.2-8.8-3.2-8.8c1.8,3.9,7.8,3.2,7.8,3.2
		c-5-0.3-3.5-7.3-3.5-9.9c0-4.4-1.4-6.8-2.7-8.2c6.6,1,6.4-14.4,5.6-17.9c-0.6-2.4-1.3-3.9-2.1-4.8c9.2-22.1,3.4-50-6.9-57.9
		C632.8,12,621.2,11,613,13.2c-1.5-0.8-5-3.6-3.4-10.7c0,0-6.7,6.5-6.7,13c0,0-2.7-13.5-8.5-15.4c0,0,1.7,14.2-10.5,13.4
		c-8.3-2.5-20.2-1.8-35.4,9.9c-10.8,8.3-16.6,38.6-5.5,61.1c-0.2,0.5-0.3,1.1-0.5,1.7c-0.8,3.3-1,17.6,4.7,18
		c-1.3,1.3-2.7,3.8-2.6,8.1c0,2.6,1.4,9.5-3.5,9.9c0,0,6,0.7,7.8-3.2c0,0-0.3,7.1-3.2,8.8c0,0,2.8,1.2,6.3,1.5
		c0.1,0.4,0.3,0.7,0.5,1.1c-0.4,3.5-0.9,7-1.4,10.4l-7.6,0.9l0.1,0.1l-0.3-0.1v12.3l0.3,0.1c-0.8,0.6-1.5,1.2-2.2,1.8
		c-3.2,2.4-15.3,11.7-27.9,25.2c-20.2,21.5-31.5,42.6-33.7,62.5c-3.6,32.3-3.1,46.9-2.7,61c0.1,4.6,0.3,9.4,0.3,14.8
		c0,7.7,6.3,14,14,14s14-6.3,14-14c0-5.8-0.2-10.8-0.3-15.7c-0.4-13.7-0.8-26.7,2.5-57c0.9-8.3,4.6-16.9,9.7-25.1
		c-3.2,24.5-3.6,49.8-3.5,66.2c-0.4,11.5-1.2,27.3-3.5,34.5c0,0,8.8,2.4,20.6,2.4c0,0,22.2,1.7,24.8-1.4l-0.2-8.1h33.3h21.1h33
		l-0.2,8.1c2.6,3.1,26.7,0.2,26.7,0.2c11.9,0,16.6-2.1,16.6-2.1c-2-13.2-2.8-39.1-3-48.2c0.2-14.7-0.3-32.9-2.7-51.1
		c4.9,8,8.5,16.4,9.4,24.6c2.5,22.8,2.9,35.7,2.8,46.6c0,0.9,0,1.8,0,2.7c0,0.9,0,1.7-0.1,2.6c0,1.7-0.1,3.4-0.1,5.1
		c-0.1,4.8-0.3,9.8-0.3,15.7c0,7.7,6.3,14,14,14s14-6.3,14-14c0-5.4,0.1-10.2,0.3-14.8C720.4,290.3,720.9,275.7,717.3,243.4z"/>
	<g>
		<path fill="#383838" d="M929.2,277.4c0-12.9-14.6-23.4-32.6-23.4H529.3c-14.8,0-27.3,7.1-31.3,16.8c-3.9-9.7-16.4-16.8-31.3-16.8
			H99.4c-18,0-32.6,10.5-32.6,23.4v38.1v87.2v23.4h32.6h367.4h62.5h367.4H929v-20.8c0.1-0.9,0.2-1.7,0.2-2.6V277.4z"/>
		<path fill="#2B2B2B" d="M38.4,359.3C17.2,359.3,0,376.5,0,397.7v28.4h68v-66.8H38.4z"/>
		<path fill="#2B2B2B" d="M958.3,359.3c21.2,0,38.4,17.2,38.4,38.4v28.4h-68v-66.8H958.3z"/>
	</g>
</g>
</svg>
