<?xml version="1.0" encoding="utf-8"?>
<!-- Generator: Adobe Illustrator 16.0.0, SVG Export Plug-In . SVG Version: 6.00 Build 0)  -->
<!DOCTYPE svg PUBLIC "-//W3C//DTD SVG 1.1//EN" "http://www.w3.org/Graphics/SVG/1.1/DTD/svg11.dtd">
<svg version="1.1" id="Layer_1" xmlns="http://www.w3.org/2000/svg" xmlns:xlink="http://www.w3.org/1999/xlink" x="0px" y="0px"
	 width="921.496px" height="266.01px" viewBox="0 0 921.496 266.01" enable-background="new 0 0 921.496 266.01"
	 xml:space="preserve">
<g>
	<g>
		<polygon fill="#FFFFFF" points="534.565,157.813 902.894,157.813 905.375,125.567 916.537,125.567 921.496,170.213 511,233.461 		
			"/>
		<g>
			<polygon fill="#3F8E6E" points="601.248,157.404 567.725,215.465 534.204,157.404 			"/>
			<polygon fill="#3F8E6E" points="628.643,157.404 597.499,211.344 566.357,157.403 			"/>
			<polygon fill="#3F8E6E" points="656.036,157.404 627.271,207.223 598.51,157.403 			"/>
			<polygon fill="#3F8E6E" points="683.43,157.404 657.045,203.101 630.662,157.404 			"/>
			<polygon fill="#3F8E6E" points="710.824,157.404 686.818,198.98 662.815,157.404 			"/>
			<polygon fill="#3F8E6E" points="738.218,157.404 716.592,194.86 694.969,157.403 			"/>
			<polygon fill="#3F8E6E" points="765.611,157.404 746.365,190.738 727.121,157.404 			"/>
			<polygon fill="#3F8E6E" points="793.006,157.404 776.139,186.616 759.273,157.404 			"/>
			<polygon fill="#3F8E6E" points="820.399,157.405 805.912,182.494 791.426,157.404 			"/>
			<polygon fill="#3F8E6E" points="844.46,157.405 832.353,178.373 820.246,157.405 			"/>
			<polygon fill="#3F8E6E" points="863.854,157.405 854.126,174.252 844.398,157.404 			"/>
			<polygon fill="#3F8E6E" points="878.854,157.405 870.793,171.365 862.732,157.404 			"/>
			<polygon fill="#3F8E6E" points="893.247,157.405 885.898,170.131 878.552,157.404 			"/>
			<polygon fill="#3F8E6E" points="903.247,157.405 898.398,165.801 893.552,157.404 			"/>
		</g>
		<polygon fill="#FFFFFF" points="386.931,157.813 18.603,157.813 16.121,125.567 4.959,125.567 0,170.213 410.496,233.461 		"/>
		<g>
			<polygon fill="#3F8E6E" points="320.248,157.404 353.771,215.465 387.292,157.404 			"/>
			<polygon fill="#3F8E6E" points="292.854,157.404 323.997,211.344 355.139,157.403 			"/>
			<polygon fill="#3F8E6E" points="265.46,157.404 294.225,207.223 322.986,157.403 			"/>
			<polygon fill="#3F8E6E" points="238.066,157.404 264.451,203.101 290.834,157.404 			"/>
			<polygon fill="#3F8E6E" points="210.672,157.404 234.678,198.98 258.681,157.404 			"/>
			<polygon fill="#3F8E6E" points="183.278,157.404 204.904,194.86 226.527,157.403 			"/>
			<polygon fill="#3F8E6E" points="155.885,157.404 175.131,190.738 194.375,157.404 			"/>
			<polygon fill="#3F8E6E" points="128.49,157.404 145.357,186.616 162.223,157.404 			"/>
			<polygon fill="#3F8E6E" points="101.097,157.405 115.584,182.494 130.07,157.404 			"/>
			<polygon fill="#3F8E6E" points="77.036,157.405 89.144,178.373 101.25,157.405 			"/>
			<polygon fill="#3F8E6E" points="57.642,157.405 67.37,174.252 77.098,157.404 			"/>
			<polygon fill="#3F8E6E" points="42.642,157.405 50.703,171.365 58.764,157.404 			"/>
			<polygon fill="#3F8E6E" points="28.249,157.405 35.598,170.131 42.944,157.404 			"/>
			<polygon fill="#3F8E6E" points="18.249,157.405 23.098,165.801 27.944,157.404 			"/>
		</g>
		<polygon fill="#EAEAEA" points="472.882,100.448 449.629,100.448 457.07,39.989 465.441,39.989 		"/>
		<polygon fill="#EAEAEA" points="383.59,130.677 251.511,115.796 250.581,119.981 380.799,142.304 		"/>
		<path fill="#FFFFFF" d="M533.651,246.012c0,10.273-8.33,18.604-18.603,18.604H405.912c-10.273,0-18.602-8.33-18.602-18.604
			v-66.347c0-10.274,8.328-18.602,18.602-18.602h109.137c10.272,0,18.603,8.328,18.603,18.602V246.012z"/>
		<circle fill="#EAEAEA" cx="246.86" cy="230.667" r="35.345"/>
		<circle fill="#EAEAEA" cx="246.86" cy="230.667" r="35.345"/>
		<circle fill="#3F3B3C" cx="246.86" cy="230.667" r="26.182"/>
		<circle fill="#757475" cx="246.86" cy="230.667" r="10.036"/>
		<polygon fill="none" stroke="#FFFFFF" stroke-width="0.7097" stroke-miterlimit="10" points="538.456,130.677 670.535,115.796 
			671.465,119.981 541.246,142.304 		"/>
		<path opacity="0.1" fill="#231F20" d="M374.288,172.377c0,0-14.263,81.106,86.968,87.989v-92.33L374.288,172.377z"/>
		<polygon fill="#EAEAEA" points="542.181,130.677 674.259,115.796 675.189,119.981 544.971,142.304 		"/>
		<circle fill="#EAEAEA" cx="675.189" cy="230.667" r="35.345"/>
		<circle fill="#EAEAEA" cx="675.189" cy="230.667" r="35.345"/>
		<circle fill="#3F3B3C" cx="675.189" cy="230.667" r="26.182"/>
		<circle fill="#757475" cx="675.189" cy="230.667" r="10.035"/>
		<path opacity="0.1" fill="#231F20" d="M547.761,172.377c0,0,14.263,81.106-86.967,87.989v-92.33L547.761,172.377z"/>
		<path fill="#FFFFFF" d="M546.827,153.465c-3.239-28.537-17.293-75.181-81.856-80.601l0.005-0.32c-1.259,0-2.496,0.033-3.72,0.084
			c-1.225-0.051-2.462-0.084-3.721-0.084l0.004,0.32c-64.562,5.42-78.615,52.064-81.855,80.601
			c-2.154,18.969-0.477,34.584,3.672,47.436h163.801C547.304,188.049,548.98,172.434,546.827,153.465z"/>
		<path fill="#FFFFFF" d="M379.355,200.901c16.328,50.607,70.964,58.381,80.968,59.381l0.002,0.148c0,0,0.327-0.013,0.931-0.064
			c0.603,0.051,0.93,0.064,0.93,0.064l0.002-0.148c10.004-1,64.641-8.772,80.969-59.381H379.355z"/>
		<polygon fill="#9EDDDD" points="456.14,143.233 456.14,119.052 433.352,119.052 423.12,143.233 		"/>
		<polygon fill="#9EDDDD" points="402.348,143.233 415.757,143.233 426.918,119.052 413.509,119.052 		"/>
		<polygon fill="#9EDDDD" points="467.457,143.233 467.457,119.052 490.246,119.052 500.477,143.233 		"/>
		<polygon fill="#9EDDDD" points="521.249,143.233 507.84,143.233 496.679,119.052 510.087,119.052 		"/>
	</g>
	<g>
		<g>
			<path d="M573.807,213.913l-20.774-2.011l6.174-16.248c-10.928-1.628-21.551-6.16-26.552-10.38
				c-14.323-12.085-32.948-14.478-32.948-14.478c-31.949,0-38.437,18.83-39.937,31.45c-4.954,41.643,58.406,36.94,58.406,36.94
				c24.083-2.545,41.559-9.084,53.909-16.091L573.807,213.913z"/>
		</g>
		<path d="M424.939,170.797c0,0-18.627,2.392-32.949,14.478c-11.175,9.427-50.419,20.467-58.406-2.996
			c-0.92-2.699-1.998-10.483,4.492-10.483c0,0,7.488,0.499,7.488,5.99c0,0,3.993-13.479-11.98-11.98c0,0-19.969,3.993-6.989,34.446
			c0,0,18.471,32.448,79.874,38.937c0,0,63.36,4.702,58.406-36.94C463.374,189.627,456.888,170.797,424.939,170.797z"/>
	</g>
	<g>
		<path opacity="0.1" fill="#231F20" d="M411.73,86.135c0,0,65.668,17.666,96.168-1.834
			C507.898,84.301,434.062,59.969,411.73,86.135z"/>
		<g>
			<path fill="#E5BFA3" d="M437.68,57.747c0,0,10.553-58.045,24.717-56.656c0,0,14.469-4.956,24.719,58.044
				C487.115,59.135,465.174,75.799,437.68,57.747z"/>
			<path fill="#E32000" d="M440.767,42.469c-1.979,8.187-3.087,14.278-3.087,14.278c27.494,18.052,49.436,1.388,49.436,1.388
				c-0.941-5.781-1.918-10.974-2.915-15.666H440.767z"/>
			<path fill="#3F8E6E" d="M462.16,0.091c-7.615-0.746-14.187,15.688-18.635,31.045h37.743C472.05-3.293,462.16,0.091,462.16,0.091z
				"/>
		</g>
		<g>
			<path fill="#E5BFA3" d="M396.73,55.802v15.333c0,8.284,6.716,15,15,15h101.334c8.283,0,15-6.716,15-15V55.802H396.73z"/>
			<g>
				<polygon fill="#EAA400" points="415.064,57.841 406.064,73.43 397.063,57.841 				"/>
				<polygon fill="#EAA400" points="433.843,57.841 424.843,73.43 415.842,57.841 				"/>
				<polygon fill="#EAA400" points="452.62,57.841 443.62,73.43 434.619,57.841 				"/>
				<polygon fill="#EAA400" points="471.396,57.841 462.396,73.43 453.396,57.841 				"/>
				<polygon fill="#EAA400" points="490.175,57.841 481.175,73.43 472.175,57.841 				"/>
				<polygon fill="#EAA400" points="508.953,57.841 499.953,73.43 490.953,57.841 				"/>
				<polygon fill="#EAA400" points="527.73,57.841 518.73,73.43 509.73,57.841 				"/>
			</g>
			<g>
				<polygon fill="#EAA400" points="415.064,57.841 406.064,73.43 397.063,57.841 				"/>
				<polygon fill="#EAA400" points="433.843,57.841 424.843,73.43 415.842,57.841 				"/>
				<polygon fill="#EAA400" points="452.62,57.841 443.62,73.43 434.619,57.841 				"/>
				<polygon fill="#EAA400" points="471.396,57.841 462.396,73.43 453.396,57.841 				"/>
				<polygon fill="#EAA400" points="490.175,57.841 481.175,73.43 472.175,57.841 				"/>
				<polygon fill="#EAA400" points="508.953,57.841 499.953,73.43 490.953,57.841 				"/>
				<polygon fill="#EAA400" points="527.73,57.841 518.73,73.43 509.73,57.841 				"/>
			</g>
			<g>
				<path fill="#D87200" d="M417.398,75.801c0,1.104-0.896,2.001-2.001,2.001s-2.001-0.896-2.001-2.001
					c0-1.105,2.001-4.402,2.001-4.402S417.398,74.697,417.398,75.801z"/>
				<path fill="#D87200" d="M436.064,75.801c0,1.104-0.896,2.001-2,2.001c-1.105,0-2.001-0.896-2.001-2.001
					c0-1.105,2.001-4.402,2.001-4.402S436.064,74.697,436.064,75.801z"/>
			</g>
			<g>
				<path fill="#D87200" d="M455.731,75.801c0,1.104-0.896,2.001-2.001,2.001c-1.104,0-2-0.896-2-2.001c0-1.105,2-4.402,2-4.402
					S455.731,74.697,455.731,75.801z"/>
				<path fill="#D87200" d="M474.398,75.801c0,1.104-0.896,2.001-2.001,2.001s-2.001-0.896-2.001-2.001
					c0-1.105,2.001-4.402,2.001-4.402S474.398,74.697,474.398,75.801z"/>
			</g>
			<g>
				<path fill="#D87200" d="M493.398,75.801c0,1.104-0.896,2.001-2.001,2.001s-2.001-0.896-2.001-2.001
					c0-1.105,2.001-4.402,2.001-4.402S493.398,74.697,493.398,75.801z"/>
				<path fill="#D87200" d="M512.064,75.801c0,1.104-0.896,2.001-2,2.001c-1.105,0-2.001-0.896-2.001-2.001
					c0-1.105,2.001-4.402,2.001-4.402S512.064,74.697,512.064,75.801z"/>
			</g>
		</g>
	</g>
	
		<path fill="none" stroke="#B77849" stroke-width="3.8511" stroke-linecap="round" stroke-linejoin="round" stroke-miterlimit="10" d="
		M443.064,27.468"/>
	<path fill="#5497B5" d="M473.731,15.468c0,2-14,16-14,16l10.667,2l-4.957,6.521l24.957-13.188L473.731,15.468z"/>
	<path fill="#5497B5" d="M502.833,48.189c-0.499,1.937-17.549,12.002-17.549,12.002l9.831,4.597l-6.427,5.079l27.457-6.546
		l-9.497-0.771l4.361-5.065l-12.861,1.565L502.833,48.189z"/>
</g>
</svg>
