<?xml version="1.0" encoding="utf-8"?>
<!-- Generator: Adobe Illustrator 16.0.0, SVG Export Plug-In . SVG Version: 6.00 Build 0)  -->
<!DOCTYPE svg PUBLIC "-//W3C//DTD SVG 1.1//EN" "http://www.w3.org/Graphics/SVG/1.1/DTD/svg11.dtd">
<svg version="1.1" id="Layer_1" xmlns="http://www.w3.org/2000/svg" xmlns:xlink="http://www.w3.org/1999/xlink" x="0px" y="0px"
	 width="1440px" height="699.999px" viewBox="0 0 1440 699.999" enable-background="new 0 0 1440 699.999" xml:space="preserve">
<rect fill="#5497B5" width="1440" height="699.999"/>
<g opacity="0.3">
	
		<ellipse transform="matrix(0.0574 -0.9984 0.9984 0.0574 995.343 1438.9841)" fill="#FFFFFF" cx="1259.724" cy="192.382" rx="47.436" ry="156.708"/>
	
		<ellipse transform="matrix(0.0574 -0.9984 0.9984 0.0574 957.7474 1265.9021)" fill="#FFFFFF" cx="1149.261" cy="125.754" rx="73.659" ry="103.092"/>
	
		<ellipse transform="matrix(0.0574 -0.9984 0.9984 0.0574 870.3607 1328.3114)" fill="#FFFFFF" cx="1138.617" cy="203.237" rx="51.671" ry="65.224"/>
	
		<ellipse transform="matrix(0.0574 -0.9984 0.9984 0.0574 1038.644 1396.4991)" fill="#FFFFFF" cx="1258.871" cy="148.211" rx="54.213" ry="94.026"/>
	
		<ellipse transform="matrix(0.0574 -0.9984 0.9984 0.0574 775.9951 1207.0731)" fill="#FFFFFF" cx="1027.232" cy="192.59" rx="42.354" ry="92.331"/>
	
		<ellipse transform="matrix(0.0574 -0.9984 0.9984 0.0574 825.3735 1160.9847)" fill="#FFFFFF" cx="1027.514" cy="143.396" rx="42.353" ry="66.071"/>
</g>
<g opacity="0.3">
	
		<ellipse transform="matrix(0.0574 -0.9984 0.9984 0.0574 500.1948 1739.0619)" fill="#FFFFFF" cx="1171.053" cy="604.643" rx="52.482" ry="173.377"/>
	
		<ellipse transform="matrix(0.0574 -0.9984 0.9984 0.0574 458.5923 1547.5667)" fill="#FFFFFF" cx="1048.84" cy="530.927" rx="81.495" ry="114.06"/>
	
		<ellipse transform="matrix(0.0574 -0.9984 0.9984 0.0574 361.9033 1616.6122)" fill="#FFFFFF" cx="1037.063" cy="616.652" rx="57.167" ry="72.162"/>
	
		<ellipse transform="matrix(0.0574 -0.9984 0.9984 0.0574 548.0956 1692.0559)" fill="#FFFFFF" cx="1170.108" cy="555.773" rx="59.98" ry="104.027"/>
	
		<ellipse transform="matrix(0.0574 -0.9984 0.9984 0.0574 257.4961 1482.4725)" fill="#FFFFFF" cx="913.83" cy="604.873" rx="46.859" ry="102.153"/>
	
		<ellipse transform="matrix(0.0574 -0.9984 0.9984 0.0574 312.1364 1431.4878)" fill="#FFFFFF" cx="914.142" cy="550.446" rx="46.859" ry="73.099"/>
</g>
<g opacity="0.3">
	
		<ellipse transform="matrix(0.0574 -0.9984 0.9984 0.0574 -81.9611 864.6473)" fill="#FFFFFF" cx="416.913" cy="475.728" rx="74.417" ry="245.841"/>
	<path fill="#FFFFFF" d="M250.253,255.838c-89.172-5.127-164.434,42.366-168.096,106.084
		c-3.663,63.712,65.658,119.52,154.831,124.646c89.174,5.128,164.434-42.368,168.097-106.081
		C408.748,316.771,339.427,260.964,250.253,255.838z"/>
	
		<ellipse transform="matrix(0.0574 -0.9984 0.9984 0.0574 -278.0483 691.022)" fill="#FFFFFF" cx="226.922" cy="492.758" rx="81.06" ry="102.323"/>
	
		<ellipse transform="matrix(0.0574 -0.9984 0.9984 0.0574 -14.0426 797.9961)" fill="#FFFFFF" cx="415.574" cy="406.435" rx="85.049" ry="147.505"/>
	<path fill="#FFFFFF" d="M196.79,484.369c2.105-36.636-60.929-70.056-140.794-74.648c-19.742-1.135-38.662-0.399-55.996,1.901
		v124.131c15.044,3.358,31.32,5.656,48.368,6.636C128.234,546.981,194.684,521.004,196.79,484.369z"/>
	<path fill="#FFFFFF" d="M156.106,404.828c2.106-36.635-42.516-68.997-99.668-72.282c-20.565-1.183-39.949,1.562-56.438,7.266
		v114.581c14.357,5.937,30.974,9.795,48.812,10.821C105.963,468.499,154,441.463,156.106,404.828z"/>
</g>
</svg>
