<?xml version="1.0" encoding="utf-8"?>
<!-- Generator: Adobe Illustrator 16.0.0, SVG Export Plug-In . SVG Version: 6.00 Build 0)  -->
<!DOCTYPE svg PUBLIC "-//W3C//DTD SVG 1.1//EN" "http://www.w3.org/Graphics/SVG/1.1/DTD/svg11.dtd">
<svg version="1.1" id="Layer_1" xmlns="http://www.w3.org/2000/svg" xmlns:xlink="http://www.w3.org/1999/xlink" x="0px" y="0px"
	 width="742.1px" height="587px" viewBox="0 0 742.1 587" enable-background="new 0 0 742.1 587" xml:space="preserve">
<g>
	<g>
		<g>
			<path fill="#776537" d="M497.4,145.5c0,0-6.6,2.4-6.5,13.5c0,3.7,2,13.5-5,14c0,0,8.5,1,11-4.5c0,0-0.5,10-4.5,12.5
				c0,0,23.6,10,27.6-12.5l-2-33.1C517.9,135.5,503.4,129.5,497.4,145.5z"/>
		</g>
		<g>
			<path fill="#776537" d="M645.7,159.1c0.1-11.1-6.5-13.5-6.5-13.5c-6-16-20.6-10-20.6-10l-2,33.1c4,22.6,27.6,12.5,27.6,12.5
				c-4-2.5-4.5-12.5-4.5-12.5c2.5,5.5,11,4.5,11,4.5C643.7,172.6,645.7,162.8,645.7,159.1z"/>
		</g>
		<g>
			<g>
				<polygon fill="#0B4349" points="489.2,204.9 507.7,221 505.2,202.9 				"/>
			</g>
			<g>
				<polygon fill="#0B4349" points="628.8,221 647.3,204.9 631.3,202.9 				"/>
			</g>
			<g>
				<path fill="#F4B07D" d="M505.1,140.4c0,54.8-31,169.1-31,169.1h189.1c0,0-31.5-89.9-31.5-169.1
					C631.8,108.7,505.1,108.7,505.1,140.4z"/>
			</g>
			<g>
				<path fill="#776537" d="M640.2,33c-21.6-16.5-38.4-17.6-50.2-14c-17.3,1.1-15-19-15-19c-8.1,2.8-12,21.9-12,21.9
					c0-9.2-9.5-18.4-9.5-18.4c2.3,10.1-2.7,14-4.8,15.2c-11.7-3.1-28.2-1.7-49.1,14.4C481.1,47.2,473,105.9,504,137l65.9-73.6
					l65.9,73.6C666.7,105.9,658.6,47.2,640.2,33z"/>
				<g>
					<path fill="#F4B07D" d="M566.2,45c-40.3-0.6-57.3,26.6-57.3,26.6c-14.2,23.2-9.9,94.7-9.9,94.7c0,35.4,49.1,63.6,69.8,63.6
						c20.6,0,69.9-26.4,69.9-63.6c0,0,3.5-71.6-10.7-94.7C628,71.7,606.7,44.5,566.2,45z"/>
				</g>
				<g opacity="0.2">
					<g>
						<path fill="#231F20" d="M551.8,140.1L551.8,140.1c-0.1,0-0.1,0-0.2,0L551.8,140.1z"/>
						<path fill="#231F20" d="M583,140.1c-0.1,0-0.1,0-0.2,0l0,0L583,140.1z"/>
						<path fill="#231F20" d="M588.7,135.3c-0.1-0.3-0.2-0.6-0.3-0.9c-0.1-0.3-0.2-0.6-0.4-0.8c-0.3-0.5-0.6-1-0.9-1.5
							c-0.2-0.2-0.4-0.5-0.5-0.7c-0.2-0.2-0.4-0.4-0.6-0.6c-0.3-0.3-0.8-0.3-1.2,0c-0.3,0.3-0.4,0.9-0.1,1.2
							c0.2,0.2,0.3,0.4,0.5,0.6c0.1,0.2,0.3,0.4,0.4,0.6c0.3,0.4,0.5,0.8,0.7,1.3c0.1,0.2,0.2,0.4,0.3,0.7c0.1,0.2,0.1,0.4,0.2,0.7
							c0,0.2,0.1,0.4,0.1,0.6c0,0.2,0,0.4-0.1,0.6c0,0.2-0.1,0.4-0.2,0.6c-0.1,0.2-0.1,0.4-0.3,0.5c-0.1,0.2-0.2,0.3-0.4,0.5
							l-0.5,0.4c-0.1,0.2-0.4,0.2-0.6,0.4l-0.6,0.3l-1.3,0.5c0.1,0,0.1,0,0.2,0l-0.2,0l0,0c-0.8,0.1-1.5,0.3-2.3,0.5
							c-0.8,0.2-1.6,0.5-2.3,0.9c-0.8,0.4-1.5,0.8-2.2,1.5c-0.7,0.6-1.3,1.5-1.6,2.1c-0.4,0.6-0.8,1.1-1.2,1.4
							c-0.2,0.2-0.5,0.3-0.8,0.5c-0.2,0.2-0.6,0.2-0.9,0.3l-0.5,0.1c-0.2,0-0.3,0.1-0.5,0.1l-1,0.2l-2.1,0.1c-0.8,0-1.6,0-2.3-0.1
							c-0.7-0.1-1.3-0.2-2-0.4l-0.5-0.1c-0.1-0.1-0.3-0.1-0.4-0.2l-0.4-0.2c-0.1-0.1-0.2-0.2-0.4-0.3c-0.5-0.3-0.9-0.8-1.3-1.4
							l-0.3-0.5l-0.1-0.1l-0.1-0.2l-0.2-0.2c-0.2-0.3-0.6-0.7-0.9-1c-0.7-0.6-1.4-1.1-2.2-1.5c-0.8-0.4-1.5-0.7-2.3-0.9
							c-0.8-0.2-1.5-0.4-2.3-0.5l0,0l-0.2,0c0.1,0,0.1,0,0.1,0l-1.3-0.5l-0.6-0.3c-0.2-0.1-0.4-0.2-0.6-0.4l-0.5-0.4
							c-0.1-0.1-0.2-0.3-0.4-0.5c-0.2-0.1-0.2-0.3-0.3-0.5c-0.1-0.2-0.1-0.4-0.2-0.6c-0.1-0.2-0.1-0.4-0.1-0.6c0-0.2,0-0.4,0.1-0.6
							c0-0.2,0.1-0.4,0.2-0.7c0.1-0.2,0.2-0.4,0.3-0.7c0.2-0.4,0.4-0.9,0.7-1.3c0.1-0.2,0.3-0.4,0.4-0.6c0.1-0.2,0.3-0.4,0.5-0.6
							l0,0c0.3-0.3,0.3-0.8,0-1.2c-0.3-0.3-0.9-0.3-1.2,0c-0.5,0.4-0.8,0.9-1.2,1.3c-0.3,0.5-0.7,1-0.9,1.5
							c-0.1,0.3-0.3,0.5-0.4,0.8c-0.1,0.3-0.2,0.6-0.3,0.9c-0.1,0.3-0.1,0.6-0.1,1c0,0.3,0,0.7,0,1c0,0.3,0.1,0.7,0.3,1
							c0.1,0.3,0.2,0.7,0.5,0.9c0.2,0.3,0.4,0.6,0.6,0.8l0.7,0.6c0.2,0.2,0.5,0.4,0.8,0.5l0.8,0.5l1.6,0.7l0,0l0.2,0
							c0.6,0.1,1.4,0.3,2.1,0.5c0.7,0.2,1.3,0.5,1.9,0.8c0.6,0.3,1.2,0.7,1.6,1.1c0.2,0.2,0.4,0.3,0.6,0.7l0.2,0.2l0,0l0,0
							c0,0,0,0,0,0l0,0c0,0,0,0,0,0l0,0l0,0c0,0,0,0,0,0l0,0l0,0l0,0l0.1,0.1l0.3,0.5c0.5,0.7,1,1.5,1.8,2c0.2,0.1,0.4,0.3,0.6,0.4
							l0.6,0.3c0.2,0.1,0.4,0.2,0.6,0.3l0.6,0.2c0.8,0.3,1.7,0.4,2.6,0.5c0.8,0.1,1.6,0.1,2.3,0.1c0.9,0,1.7-0.1,2.5-0.1l1.3-0.2
							c0.2,0,0.4-0.1,0.6-0.1l0.6-0.2c0.4-0.1,0.8-0.2,1.3-0.5c0.4-0.2,0.8-0.4,1.2-0.8c0.2-0.2,0.4-0.3,0.5-0.5l0.5-0.5
							c0.3-0.4,0.5-0.7,0.8-1.1c0.4-0.7,0.7-1.1,1.2-1.6c0.5-0.4,1-0.8,1.6-1.1c0.6-0.3,1.3-0.6,1.9-0.8c0.7-0.2,1.4-0.4,2.1-0.5
							l0.2,0l0,0l1.6-0.7l0.8-0.5c0.3-0.2,0.5-0.3,0.8-0.5l0.7-0.6c0.2-0.2,0.4-0.5,0.6-0.8c0.2-0.3,0.3-0.6,0.5-0.9
							c0.2-0.3,0.2-0.7,0.3-1c0.1-0.3,0.1-0.7,0-1C588.8,135.9,588.8,135.6,588.7,135.3z"/>
						<path fill="#231F20" d="M557.7,145.8C557.7,145.8,557.7,145.8,557.7,145.8L557.7,145.8L557.7,145.8L557.7,145.8z"/>
					</g>
				</g>
				<g>
					<path fill="#2E230E" d="M533.7,107.7c-2.1,0-3.9,1.7-3.9,3.9s1.7,3.9,3.9,3.9c2.1,0,3.9-1.7,3.9-3.9S535.8,107.7,533.7,107.7z"
						/>
				</g>
				<g>
					<path fill="#593B2E" d="M546.1,97.4c0,0-22.1-3.8-32.5,12.8c0,0,13.2-12.6,31.8-7.7C545.4,102.5,550.7,99.4,546.1,97.4z"/>
				</g>
				<g>
					<path fill="#2E230E" d="M601.2,107.7c-2.1,0-3.9,1.7-3.9,3.9s1.7,3.9,3.9,3.9s3.9-1.7,3.9-3.9S603.3,107.7,601.2,107.7z"/>
				</g>
				<g>
					<path fill="#593B2E" d="M588.3,98.8c-4.4,2.4,1.2,5,1.2,5c18.1-6.6,32.4,4.7,32.4,4.7C610,93,588.3,98.8,588.3,98.8z"/>
				</g>
				<g>
					<path fill="#F4B07D" d="M486.8,122.1c-1.5,6.2-1.6,39.8,17.5,18.6l0.5-17C504.8,123.7,491.5,102,486.8,122.1z"/>
				</g>
				<g>
					<path fill="#C18963" d="M494.3,129.9c0.3-3,2.6-4.8,2.6-4.8c0.5-0.4,0.5-1,0.2-1.5c-0.4-0.5-1-0.6-1.5-0.2
						c-0.1,0.1-3,2.4-3.4,6.3c-0.3,2.8,0.8,5.7,3.3,8.5c0.2,0.2,0.5,0.4,0.8,0.4c0.2,0,0.5-0.1,0.7-0.3c0.4-0.4,0.5-1.1,0.1-1.5
						C495.1,134.4,494.1,132.1,494.3,129.9z"/>
				</g>
				<g>
					<path fill="#F4B07D" d="M630.7,123.7l0.5,17c19.1,21.2,19-12.4,17.5-18.6C643.9,102,630.7,123.7,630.7,123.7z"/>
				</g>
				<g>
					<path fill="#C18963" d="M639.8,123.4c-0.5-0.4-1.1-0.3-1.5,0.2c-0.4,0.5-0.3,1.1,0.2,1.5c0,0,2.3,1.9,2.6,4.8
						c0.2,2.2-0.7,4.5-2.8,6.9c-0.4,0.4-0.3,1.1,0.1,1.5c0.2,0.2,0.4,0.3,0.7,0.3c0.3,0,0.6-0.1,0.8-0.4c2.5-2.8,3.6-5.7,3.3-8.5
						C642.8,125.8,639.9,123.5,639.8,123.4z"/>
				</g>
				<g>
					<path fill="#C18963" d="M583.7,160.9c-15.7,10.3-32.4,0.5-32.6,0.4c-0.6-0.4-1.4-0.2-1.8,0.5c-0.4,0.6-0.2,1.4,0.4,1.8
						c0.1,0.1,7.9,4.7,18.1,4.7c5.4,0,11.4-1.3,17.3-5.2c0.6-0.4,0.8-1.2,0.4-1.8C585.1,160.7,584.3,160.5,583.7,160.9z"/>
				</g>
				<g>
					<path fill="#776537" d="M577.5,36.1l-48.1,5.3l-32.5,7.1c0,0-7.8,46.5-6.7,46.8c1.1,0.4,37.5-18.9,37.5-18.9l42.2-14.7
						l62.7,19.3l12.7-5.3l-6.7-33.2L577.5,36.1z"/>
				</g>
				<g opacity="0.3">
					<path fill="#231F20" d="M632.6,70.6l-63.1-8.9c0,0,25.4,59,82,28.8C651.5,90.5,635.3,81.7,632.6,70.6z"/>
				</g>
				<g opacity="0.3">
					<path fill="#231F20" d="M498.2,90.9c55.7,14.9,71-29.7,71-29.7l-53.5,13C510.9,84.7,498.2,90.9,498.2,90.9z"/>
				</g>
				<g>
					<path fill="#776537" d="M632.6,69.6l-62.7-8c0,0,23.9,51.1,77.6,28.1C647.5,89.8,635.3,80.8,632.6,69.6z"/>
				</g>
				<g>
					<path fill="#776537" d="M503.7,89.6c46,7.7,65.4-28.4,65.4-28.4l-53.7,10.2C513.8,81.2,503.7,89.6,503.7,89.6z"/>
				</g>
			</g>
			<g opacity="0.1">
				<path fill="#232222" d="M563.2,214.3c0,0-30-1.8-61.1-33.2c0,0,20.5,53.3,70.3,47.3c0,0,44.5-0.7,60.7-48.4
					C633.1,180.1,597.8,217.8,563.2,214.3z"/>
			</g>
		</g>
		<g>
			
				<path fill="none" stroke="#F4B07D" stroke-width="39.6697" stroke-linecap="round" stroke-linejoin="round" stroke-miterlimit="10" d="
				M500.8,236.3"/>
		</g>
		<g>
			<path fill="#F4B07D" d="M690,256.8c-20.4-21.8-39.8-36-40.7-36.6c-8.9-6.4-21.2-4.5-27.7,4.4c-6.4,8.9-4.5,21.3,4.4,27.7
				c18.6,13.6,68,57.5,72.4,97.4c4.8,43,4.2,61.4,3.6,80.9c-0.2,6.9-0.4,14-0.4,22.3c0,11,8.9,19.8,19.8,19.8s19.8-8.9,19.8-19.8
				c0-7.7,0.2-14.5,0.4-21c0.6-20,1.3-40.7-3.8-86.5C734.7,317.2,718.6,287.3,690,256.8z"/>
		</g>
		<g>
			<path fill="#083B47" d="M690,256.8c-20.4-21.8-39.8-36-40.7-36.6L626,252.3c18.6,13.6,68,57.5,72.4,97.4
				c4.8,43,4.2,61.4,3.6,80.9c-0.2,6.9-0.4,14-0.4,22.3h39.7c0-7.7,0.2-14.5,0.4-21c0.6-20,1.3-40.7-3.8-86.5
				C734.7,317.2,718.6,287.3,690,256.8z"/>
		</g>
		<path fill="#263451" d="M672.1,431h-48.5c-4-4.3-9.8-7-16.1-7s-12.1,2.7-16.1,7h-49.9c-4-4.3-9.8-7-16.1-7s-12.1,2.7-16.1,7h-47.5
			c0,34.2,16.3,60.7,41.5,76.8V587h44.1v-63.2c6.3,0.9,12.9,1.4,19.6,1.4c6.3,0,12.5-0.4,18.5-1.3V587h44.1v-78.5
			C655.4,492.5,672.1,465.7,672.1,431z"/>
		<g>
			<rect x="462.6" y="431.2" fill="#161516" width="209.1" height="15.7"/>
		</g>
		<g>
			<rect x="553.2" y="431.2" fill="#D6D6D6" width="29.9" height="15.7"/>
		</g>
		<g>
			<path fill="#083B47" d="M647.1,218.4L567.3,234h-4l-73.8-15.6c-54.3,58.2-37.7,215.1-37.7,215.1h113.5h6h117.5
				C688.8,433.4,698.6,255.2,647.1,218.4z"/>
		</g>
		<g>
			<path fill="#0D5B68" d="M490,205.3l-0.7,12.7c40.5,27.7,79.5,25,79.5,25c40.9,0,77.8-22.7,77.8-22.7v-15.7
				c-30,13.3-53.5,17.6-77.3,17.3C524.2,221.5,490,205.3,490,205.3z"/>
		</g>
		<g>
			<g>
				<path fill="#F4B07D" d="M566.8,189.9c-37.3,0-60-11.3-60-11.3s18.4,45,60.8,45c43,0,54.6-36.2,54.6-36.2
					C586.3,183.9,566.8,189.9,566.8,189.9z"/>
			</g>
		</g>
		<g>
			<g opacity="0.1">
				<path fill="#232222" d="M568.8,204.9c-24,0-34.1-14-34.1-14s5.5,19,32.9,19c27.7,0,32.9-19,32.9-19
					C584.8,206.6,568.8,204.9,568.8,204.9z"/>
			</g>
		</g>
		<g>
			<path fill="#0D5B68" d="M648.5,262h-56.6c-0.9,0-1.6,0.7-1.6,1.6v45c0,0.5,0.3,1,0.7,1.3l28.3,19.4c0.3,0.2,0.6,0.3,0.9,0.3
				c0.3,0,0.6-0.1,0.9-0.3l28.3-20.1c0.4-0.3,0.7-0.8,0.7-1.3v-44.2C650,262.7,649.3,262,648.5,262z"/>
		</g>
		<g>
			<g>
				<path fill="#B0171C" d="M555.1,209.3l-15.7-10.7c0,0-2.8-4.4-9.2,5c0,0-3.5,9.7-11.8,1.3c0,0-12.3-15.5-18.4-23.9l-12.1,8.7
					c0,0,34.4,46.6,50.5,49.2c0,0,13.9,0.4,22.9-11.6l3-5.8C564.2,221.5,568.2,218.7,555.1,209.3z"/>
			</g>
			<g>
				<path fill="#B0171C" d="M488.3,145.1c11-3.1,7.7-7.1,7.7-7.1l-5.1-18.3c-4.7-15.4-8.6-12.6-8.6-12.6l-6.5,1
					c-14.3,4.6-18.3,17.9-18.3,17.9c-2.7,16.1,30.4,63.6,30.4,63.6l12.1-8.7c-6.1-8.4-16.8-25.1-16.8-25.1
					C478,145.2,488.3,145.1,488.3,145.1z"/>
			</g>
		</g>
		<g>
			<path fill="#F4B07D" d="M462,142.7c-14.2,8.9-41,36-62.3,62.9c-30.4,38.4-45.5,70-44.8,93.9c0.5,16.6,8.5,30.1,22.6,37.9
				c8.9,4.9,18.6,7.4,28.5,7.4c6.5,0,13.1-1.1,19.7-3.2c10.4-3.3,16.2-14.5,12.9-24.9c-3.3-10.4-14.5-16.2-24.9-12.9
				c-6.5,2.1-11.7,1.7-16.9-1.2c-1.3-0.7-2-1.1-2.1-4.2c-0.3-10.4,9.1-33.8,36.3-68.2c21.4-27,44.5-49,52.3-53.9
				c9.3-5.8,12.1-18.1,6.3-27.3C483.5,139.7,471.2,136.9,462,142.7z"/>
		</g>
		<g>
			<path fill="#083B47" d="M458.2,265.9c-16.4,20.9-32.6,34.4-45.6,38.1c-6.1,1.8-11.1,1.3-16.1-1.5c-1.3-0.7-2-1.1-2.1-4.2
				c-0.3-10.4,9.1-33.8,36.3-68.2c21.4-27,44.5-49,52.3-53.9L462,142.7c-14.2,8.9-41,36-62.3,62.9c-30.4,38.4-45.5,70-44.8,93.9
				c0.5,16.6,8.5,30.1,22.6,37.9c8.9,4.9,18.6,7.4,28.5,7.4c5.9,0,11.8-0.9,17.8-2.6c48.7-14.1,87.9-83.3,92.2-91.1l-34.8-19.1
				C481,232.1,471.9,248.5,458.2,265.9z"/>
		</g>
	</g>
	<g>
		<rect x="24.5" y="461" fill="#725130" width="398" height="126"/>
	</g>
	<g>
		<path fill="#544A41" d="M430,441H17c-9.4,0-17,7.6-17,17c0,9.4,7.6,17,17,17h413c9.4,0,17-7.6,17-17C447,448.6,439.4,441,430,441z
			"/>
	</g>
	<g>
		<g>
			<path fill="#B0171C" d="M398,383.2c-1.3-0.7-2.5-1.6-3.4-2.8c-3.2-4.2,0.3-9.2,3.4-12.5c-0.3-0.4-0.6-0.8-0.8-1.1
				c0.6,0,1.3,0,1.9,0c-0.4,0.3-0.7,0.7-1.1,1.1c2.9,4.1,4.5,8.9,1.6,13.5C399.1,382,398.6,382.6,398,383.2c0.8,0.4,1.7,0.8,2.6,1.1
				c0.5-0.5,0.9-1,1.3-1.6c4.2-5.9,1.1-12.9-2.8-17.9c-0.5-0.6-1.5-0.5-1.9,0c-4.2,4.2-8.5,10.2-5.4,16.2c0.9,1.7,2.3,3,3.9,4
				C396.5,384.5,397.3,383.9,398,383.2z"/>
			<path fill="#B0171C" d="M397.2,366.7c0.3,0.4,0.6,0.7,0.8,1.1c0.4-0.4,0.7-0.8,1.1-1.1C398.4,366.7,397.8,366.7,397.2,366.7z"/>
			<path fill="#B0171C" d="M419.3,376.9c-6.5-2.5-10.4-9.4-3.6-15.1c-0.3-0.5-0.5-0.9-0.8-1.3c0.6,0.2,1.3,0.3,1.9,0.5
				c-0.4,0.3-0.8,0.6-1.1,0.8C418.2,366.3,420.6,371.8,419.3,376.9c0.9,0.3,1.8,0.6,2.7,0.7c1.7-6.2-1.7-13.5-4.7-18.6
				c-0.4-0.6-1.3-0.9-1.9-0.5c-9.9,6.9-6,17.7,2.7,21c0.1-0.2,0.2-0.3,0.3-0.5C418.8,378.4,419.1,377.7,419.3,376.9z"/>
			<path fill="#B0171C" d="M414.9,360.5c0.3,0.4,0.5,0.9,0.8,1.3c0.3-0.3,0.7-0.6,1.1-0.8C416.2,360.8,415.6,360.6,414.9,360.5z"/>
			<path fill="#B0171C" d="M400.7,384.3c-0.9-0.3-1.8-0.6-2.6-1.1c-0.7,0.7-1.5,1.3-2.3,1.9c0.8,0.5,1.8,0.9,2.7,1.3
				C399.2,385.7,400,385,400.7,384.3z"/>
			<path fill="#B0171C" d="M430.1,376.3c-2.6,1.4-5.5,1.8-8.1,1.3c-0.2,0.9-0.6,1.8-1.1,2.7c1.5,0.3,3.2,0.3,4.9,0.1
				c6.6-0.8,12.9-5.8,16.8-12.2c-0.9-0.4-1.7-0.9-2.5-1.5C437.4,370.9,433.7,374.3,430.1,376.3z"/>
			<path fill="#B0171C" d="M419.3,376.9c-0.2,0.7-0.5,1.5-0.8,2.2c-0.1,0.2-0.2,0.3-0.3,0.5c0.9,0.3,1.8,0.6,2.7,0.8
				c0.5-0.9,0.9-1.8,1.1-2.7C421.1,377.5,420.2,377.2,419.3,376.9z"/>
			<path fill="#B0171C" d="M406.5,385c-1.9,0.1-3.9-0.2-5.9-0.8c-0.7,0.8-1.4,1.5-2.3,2.1c2.3,0.9,4.8,1.3,7,1.4
				c5.6,0.3,11.5-1.7,14.8-6.4c0.2-0.3,0.4-0.7,0.6-1c-1-0.2-1.9-0.4-2.7-0.8C415.8,383.5,410.8,384.9,406.5,385z"/>
			<path fill="#B0171C" d="M342.9,373.2c-0.3-0.6-0.6-1.1-0.9-1.7c0.7,0.1,1.4,0.2,2.2,0.3C343.7,372.2,343.3,372.7,342.9,373.2
				c2,4.4,0.7,8.4-2.3,11.4c0.3,0.4,0.7,0.9,1.1,1.3c0.2,0.2,0.5,0.4,0.8,0.6c3.9-4.4,5.5-10.7,1.8-16.4c-0.5-0.7-1.5-1-2.2-0.3
				c-4,4.5-7.8,10.9-3.6,16.5c0.8-0.5,1.5-1.1,2.1-1.7C338.1,380.9,340.2,376.5,342.9,373.2z"/>
			<path fill="#B0171C" d="M319.3,378.5C319.3,378.5,319.3,378.5,319.3,378.5c-0.3,0.3-0.6,0.7-0.9,1c-0.4,0.5-0.9,0.8-1.4,1.1
				c0.2,0.9,0.5,1.7,0.8,2.5c0.9-0.4,1.6-1,2.3-1.6C319.8,380.5,319.6,379.4,319.3,378.5z"/>
			<path fill="#B0171C" d="M341.9,371.5c0.4,0.6,0.7,1.1,0.9,1.7c0.4-0.5,0.8-1,1.2-1.4C343.4,371.6,342.7,371.6,341.9,371.5z"/>
			<path fill="#B0171C" d="M372.2,379.9c-0.3-0.4-0.7-0.7-1.1-1.1c0.6,0,1.3,0,1.9,0C372.8,379.1,372.5,379.5,372.2,379.9
				c3.3,3.8,2.6,6.4,0.1,8.1c0.3,0.1,0.5,0.3,0.9,0.4c0.8,0.3,1.7,0.5,2.6,0.7c3.6-3.9,0.8-8.9-2.6-12.3c-0.5-0.5-1.5-0.6-1.9,0
				c-2.9,3.5-5.9,8.8-1.7,12.6c1.1-0.4,2-0.8,2.8-1.4C368.9,386.2,370.3,382.6,372.2,379.9z"/>
			<path fill="#B0171C" d="M386.8,388.6c-3.5,0.9-7.5,1.2-11.1,0.5c-0.3,0.3-0.6,0.6-1,0.9c-0.6,0.5-1.3,0.9-2,1.3
				c4,1.5,9,1,12.8,0.4c4.5-0.7,9.1-2.4,12.8-5.3c-0.9-0.4-1.9-0.8-2.7-1.3C393,386.8,389.8,387.9,386.8,388.6z"/>
			<path fill="#B0171C" d="M318.5,379.5c0.3-0.3,0.6-0.7,0.9-1.1c-0.9-3.7-1.4-8.2,0.1-11.8c0.8-1.8,2.6-2.9,4.6-2.6
				c2,0.3,0.4,4.5,0.1,5.5c-1,3.1-2.8,6.2-4.9,8.9c0,0,0,0,0,0.1c0.2,0.8,0.5,1.9,0.8,3c1.8-1.7,3.1-3.9,4.5-6.4
				c1.6-2.9,5.1-9.4,2.2-12.5c-2.8-3-7.4-0.8-9.4,2c-3,4.2-1.7,11-0.5,15.6c0,0.1,0.1,0.3,0.1,0.4
				C317.6,380.4,318.1,380,318.5,379.5z"/>
			<path fill="#B0171C" d="M305.3,381.6c-4.7-0.3-9.4-1.1-14.2-1.2c-1.8,0-1.8,2.7,0,2.7c7.7,0.2,15.4,1.9,23.1,1.1
				c1.4-0.2,2.6-0.5,3.6-1c-0.3-0.8-0.6-1.6-0.8-2.5C313.9,382.5,308.6,381.8,305.3,381.6z"/>
			<path fill="#B0171C" d="M371.2,378.7c0.4,0.4,0.7,0.8,1.1,1.1c0.3-0.4,0.6-0.8,0.9-1.1C372.4,378.7,371.8,378.7,371.2,378.7z"/>
			<path fill="#B0171C" d="M441.2,347.7c0.3,0.4,0.6,0.8,0.8,1.2c0.3-0.4,0.7-0.8,1.1-1.2C442.4,347.7,441.8,347.7,441.2,347.7z"/>
			<path fill="#B0171C" d="M375.7,389.1c-0.9-0.2-1.8-0.4-2.6-0.7c-0.3-0.1-0.6-0.2-0.9-0.4c-0.8,0.5-1.7,1-2.8,1.4c0,0,0,0,0,0
				c1,0.8,2.1,1.4,3.3,1.9c0.7-0.4,1.3-0.8,2-1.3C375.1,389.7,375.4,389.4,375.7,389.1z"/>
			<path fill="#B0171C" d="M369.5,389.4c-3.9,1.4-9.3,1.8-12.7,1.6c-4.8-0.3-10.4-1.4-14.3-4.5c-0.6,0.7-1.3,1.4-2,2
				c4.2,3.6,10.5,4.8,15.7,5.2c5.2,0.5,11.8,0.3,16.6-2.3C371.6,390.8,370.5,390.2,369.5,389.4C369.5,389.4,369.5,389.4,369.5,389.4
				z"/>
			<path fill="#B0171C" d="M338.6,386.5c0-0.1-0.1-0.1-0.1-0.2c-4.2,2.8-10.1,3.7-14.7,1.3c-1.9-1-2.9-3.6-3.7-6
				c-0.7,0.6-1.4,1.2-2.3,1.6c1.3,3.6,3.4,6.4,7.2,8c5.4,2.2,11.2,0.7,15.4-2.8C339.8,387.8,339.2,387.2,338.6,386.5z"/>
			<path fill="#B0171C" d="M342.5,386.4c-0.3-0.2-0.5-0.4-0.8-0.6c-0.5-0.4-0.8-0.9-1.1-1.3c-0.6,0.6-1.3,1.2-2.1,1.7
				c0,0.1,0.1,0.1,0.1,0.2c0.6,0.7,1.2,1.4,1.9,1.9C341.2,387.8,341.9,387.1,342.5,386.4z"/>
			<path fill="#B0171C" d="M512.7,314.3c-0.2,0.8-0.4,1.6-0.6,2.3c0.9,0.4,1.9,0.6,2.9,0.7c0.2-0.7,0.4-1.5,0.5-2.2
				C514.5,315.1,513.5,314.8,512.7,314.3z"/>
			<path fill="#B0171C" d="M521.4,283c0.4,0.2,0.8,0.5,1.1,0.7c0.2-0.4,0.5-0.8,0.7-1.2C522.7,282.6,522.1,282.8,521.4,283z"/>
			<path fill="#B0171C" d="M521.1,313.3c-2.1,1.3-4,1.8-5.5,1.8c-0.2,0.8-0.3,1.5-0.5,2.2c1.9,0.1,4-0.2,6.4-1.2
				c4.6-1.9,7.5-7.1,8.6-13c-1,0.3-2,0.4-3,0.4C526.1,307.8,524.1,311.5,521.1,313.3z"/>
			<path fill="#B0171C" d="M521.7,297.4c-2.6-4.2-1.5-9.7,0.9-13.8c-0.4-0.3-0.7-0.5-1.1-0.7c0.6-0.2,1.3-0.3,1.9-0.5
				c-0.3,0.4-0.5,0.8-0.7,1.2c4.3,3.2,5.8,10.5,5,17.1c1,0,1.9-0.2,2.9-0.5c0.7-8.1-1.8-16.7-7.6-19.7c-0.7-0.4-1.4-0.2-1.9,0.5
				c-3.6,5.3-4.5,11.9-1.6,17.7c1.7,3.3,4.6,4.7,7.7,4.7c0.2-0.9,0.4-1.8,0.5-2.7C525.3,300.8,523.1,299.7,521.7,297.4z"/>
			<path fill="#B0171C" d="M527.5,300.8c-0.1,0.9-0.3,1.8-0.5,2.7c1,0,2-0.1,3-0.4c0.2-0.9,0.3-1.9,0.4-2.8
				C529.5,300.6,528.5,300.8,527.5,300.8z"/>
			<path fill="#B0171C" d="M508,324.7c-2,2.5-5.3,4.2-8.4,4.2c-0.5,0.9-1,1.8-1.6,2.7c3.1,0.3,6.4-0.6,8.9-2.3c3.9-2.5,6.6-7,8-12.1
				c-1.1-0.1-2.1-0.3-2.9-0.7C511.2,319.7,509.8,322.5,508,324.7z"/>
			<path fill="#B0171C" d="M508.2,291.7c0.5,0.5,1,1,1.4,1.5c0.2-0.7,0.5-1.3,0.8-1.8C509.6,291.6,508.9,291.6,508.2,291.7z"/>
			<path fill="#B0171C" d="M440.5,363.2c-3.2-4.3-1.7-10.4,1.5-14.2c-0.3-0.4-0.5-0.8-0.8-1.2c0.6,0,1.3,0,1.9,0
				c-0.4,0.4-0.8,0.8-1.1,1.2c2.9,4.7,2.1,10.3-0.5,15.3c0.7,0.7,1.5,1.2,2.4,1.6c3.2-6.7,3.7-14.4-0.8-20c-0.5-0.6-1.4-0.5-1.9,0
				c-4.9,4.6-6.6,11.9-3.5,18c0.6,1.2,1.4,2.2,2.4,3c0.5-0.8,1-1.7,1.5-2.5C441.2,363.9,440.8,363.6,440.5,363.2z"/>
			<path fill="#B0171C" d="M538,282c0.1,0.9,0.2,1.8,0.2,2.6c0.9-0.2,1.8-0.5,2.7-0.9c-0.1-0.9-0.2-1.8-0.4-2.7
				C539.8,281.5,538.9,281.8,538,282z"/>
			<path fill="#B0171C" d="M535.4,296.4c-1.2,1.9-3,3.3-5,4c-0.1,0.9-0.2,1.9-0.4,2.8c0.8-0.2,1.6-0.5,2.4-0.8
				c7.1-3.3,9.3-10.8,8.6-18.5c-0.9,0.4-1.8,0.7-2.7,0.9C538.4,288.8,537.5,293,535.4,296.4z"/>
			<path fill="#B0171C" d="M547.4,229.7c-1.6-0.7-2.3,2-0.7,2.6c6.6,2.6,6.7,14.1,6.8,19.9c0.1,8-1.6,15.3-5.9,22.2
				c-1.6,2.6-4.1,5.2-6.9,6.7c0.2,0.9,0.3,1.8,0.4,2.7c1.7-0.7,3.2-1.7,4.5-2.8c7.8-6.6,10.4-17.9,10.7-27.7
				C556.4,245.8,555.7,233,547.4,229.7z"/>
			<path fill="#B0171C" d="M532.7,281.2c-5.4-2.9-3.4-9.3-0.5-13.3c-0.3-0.4-0.7-0.8-1-1.2c0.6,0,1.3,0,1.9,0
				c-0.3,0.4-0.6,0.8-0.9,1.2c3.1,3.8,5.2,8.9,5.9,14.1c0.9-0.2,1.7-0.5,2.6-0.9c-1.1-6.4-4-12.5-7.5-16.3c-0.5-0.5-1.5-0.5-1.9,0
				c-4.3,4.8-6.7,11.7-2,17.1c2.5,2.8,5.8,3.4,9.1,2.7c0-0.9-0.1-1.8-0.2-2.6C536.3,282.4,534.5,282.2,532.7,281.2z"/>
			<path fill="#B0171C" d="M531.2,266.7c0.3,0.4,0.7,0.8,1,1.2c0.3-0.4,0.6-0.8,0.9-1.2C532.4,266.7,531.8,266.7,531.2,266.7z"/>
			<path fill="#B0171C" d="M509.5,293.3c-0.4-0.5-0.9-1.1-1.4-1.5c0.7-0.1,1.4-0.2,2.2-0.3C510,292,509.8,292.6,509.5,293.3
				c4.2,5.3,4.8,13.7,3.2,21c0.8,0.5,1.8,0.8,2.9,0.8c1.9-9.2,0.2-19.8-5.5-25.3c-0.6-0.6-1.7-0.5-2.2,0.3
				c-4.3,8.2-3.8,23.1,4.2,26.5c0.2-0.8,0.4-1.5,0.6-2.3C507.5,311.2,507.3,299.7,509.5,293.3z"/>
			<path fill="#B0171C" d="M456.6,334.9c-0.4-0.4-0.7-0.7-1.1-1c0.6-0.2,1.3-0.3,1.9-0.5C457,333.9,456.8,334.4,456.6,334.9
				c3.5,3.5,4.5,9.4,3.8,15.1c0.6,0.2,1.2,0.4,2,0.5c0.3,0,0.6,0,0.9,0.1c0.6-7.5-1.4-15.3-6.4-19c-0.6-0.4-1.5-0.1-1.9,0.5
				c-3.3,5.8-4.8,13.9,1.3,18.6c1.2,0.9,2.5,1.6,3.8,2c0.2-0.9,0.3-1.8,0.4-2.7C454.1,347.9,454,340.5,456.6,334.9z"/>
			<path fill="#B0171C" d="M462.4,350.5c-0.7-0.1-1.4-0.3-2-0.5c-0.1,0.9-0.2,1.8-0.4,2.7c1,0.3,1.9,0.5,2.9,0.6
				c0.2-0.9,0.3-1.8,0.3-2.7C462.9,350.6,462.7,350.6,462.4,350.5z"/>
			<path fill="#B0171C" d="M497,328.6c-0.5,0.8-1,1.6-1.6,2.4c0.9,0.3,1.8,0.5,2.7,0.6c0.6-0.9,1.1-1.8,1.6-2.7
				C498.8,329,497.9,328.9,497,328.6z"/>
			<path fill="#B0171C" d="M441.5,364.2c-0.4,0.9-0.9,1.7-1.5,2.5c0.8,0.6,1.6,1.1,2.5,1.5c0.5-0.8,0.9-1.6,1.3-2.5
				C443,365.4,442.2,364.9,441.5,364.2z"/>
			<path fill="#B0171C" d="M455.6,363c-2.8,3.5-7.8,4.6-11.7,2.8c-0.4,0.8-0.8,1.7-1.3,2.5c3.8,1.7,8.7,1.3,12.2-0.8
				c4.3-2.6,7.1-8.1,8.2-14.1c-1-0.1-2-0.3-2.9-0.6C459.2,356.7,457.6,360.5,455.6,363z"/>
			<path fill="#B0171C" d="M463.2,350.6c-0.1,0.9-0.2,1.8-0.3,2.7c3.9,0.3,8-1.2,11.2-3.8c2-1.6,3.4-3.5,4.5-5.5
				c-1-0.1-1.8-0.4-2.7-0.8C473.3,347.6,468.5,350.9,463.2,350.6z"/>
			<path fill="#B0171C" d="M455.4,334c0.4,0.3,0.8,0.6,1.1,1c0.2-0.5,0.5-1,0.7-1.5C456.7,333.6,456.1,333.8,455.4,334z"/>
			<path fill="#B0171C" d="M493.4,309c0.4,0.2,0.8,0.4,1.1,0.6c0.2-0.4,0.5-0.8,0.7-1.1C494.7,308.6,494.1,308.8,493.4,309z"/>
			<path fill="#B0171C" d="M475.5,339.4c-3.5-3.9-2.5-12.1-1.5-16.5c0.9-3.9,2.5,1.3,2.9,2.8c1.1,3.4,1.4,7.1,1.2,10.6
				c-0.1,1.5-0.4,3-1,4.4c0.8,0.4,1.7,0.6,2.6,0.6c1.4-4.3,1.4-9,0.6-13.6c-0.5-2.6-3.1-12.2-7.5-8.6c-2.2,1.8-2.1,6.4-2.3,8.9
				c-0.2,3.4,0,7,1.2,10.2c0.8,2.2,2.3,3.9,4.2,4.8c0.5-0.8,0.9-1.6,1.2-2.5C476.6,340.3,476,339.9,475.5,339.4z"/>
			<path fill="#B0171C" d="M492.9,325.4c-2.9-4.7-1.1-11.3,1.7-15.8c-0.4-0.2-0.7-0.4-1.1-0.6c0.6-0.2,1.3-0.3,1.9-0.5
				c-0.3,0.3-0.5,0.7-0.7,1.1c7.4,4.4,6.5,12.2,2.4,19c0.9,0.3,1.8,0.4,2.7,0.4c1.1-2.1,2-4.2,2.6-6.3c1.9-6.9-1.1-13-7.4-16.1
				c-0.7-0.4-1.4-0.1-1.9,0.5c-4.1,5.6-5.6,13.3-2.4,19.7c1.1,2.2,2.8,3.5,4.8,4.3c0.6-0.8,1.1-1.6,1.6-2.4
				C495.4,328.1,493.9,327.1,492.9,325.4z"/>
			<path fill="#B0171C" d="M479.8,341.3c-0.3,0.9-0.7,1.8-1.1,2.7c0.7,0.1,1.5,0.1,2.3,0c6.8-0.8,13-6.1,17.1-12.3
				c-0.9-0.1-1.8-0.3-2.7-0.6C491,336.9,484.6,341.4,479.8,341.3z"/>
			<path fill="#B0171C" d="M477.2,340.6c-0.3,0.9-0.7,1.7-1.2,2.5c0.8,0.4,1.7,0.7,2.7,0.8c0.4-0.9,0.8-1.8,1.1-2.7
				C478.8,341.2,478,341,477.2,340.6z"/>
		</g>
	</g>
	<g>
		<g>
			<path fill="#242527" d="M202.3,411.3c-6.6,0-11.9,5.3-11.9,11.9v8c0,6.6,5.3,11.9,11.9,11.9c6.6,0,11.9-5.3,11.9-11.9v-8
				C214.2,416.6,208.9,411.3,202.3,411.3z"/>
		</g>
		<g>
			<path fill="#242527" d="M288.7,411.3c-6.6,0-11.9,5.3-11.9,11.9v8c0,6.6,5.3,11.9,11.9,11.9c6.6,0,11.9-5.3,11.9-11.9v-8
				C300.6,416.6,295.2,411.3,288.7,411.3z"/>
		</g>
		<path fill="#B0171C" d="M322.5,385.7c2.6-53.4-16.1-59.3-16.1-59.3c0-17.2-9.1-26.7-9.1-26.7c-20-6.6-46.2-3.1-51.4-2.3
			c-5.1-0.8-31.4-4.2-51.4,2.3c0,0-9.1,9.5-9.1,26.7c0,0-12.8,4-15.7,35.6c-0.8,0.2-1.5,0.5-2.1,0.8c-6-1-10.9,2.8-11.3,9.7
			c-0.5,7.7,5.7,12.9,13,11.8c0,0.4,0,0.9,0.1,1.4c0,0-6.6,38.8,34.7,46.5c0,0,27.9,2,41,2.2v0c0.3,0,0.6,0,0.9,0c0.3,0,0.6,0,0.9,0
			v0c13.1-0.2,41-2.2,41-2.2C329.1,424.5,322.5,385.7,322.5,385.7z M167.9,365.8c-0.4,0.6-0.8,1.3-1.3,1.8
			C166.8,366.9,167.3,366.3,167.9,365.8z M168.6,381.7c-11.2,1.8-12.5-14.7-4.2-16.1c-0.8,1.4-1.1,3.3-0.8,5.8
			c0.1,0.8,1.3,1.3,2,0.8c1.5-1,2.5-2.2,3.4-3.5c-0.2,3.9-0.2,8.2-0.1,12.9C168.9,381.7,168.8,381.6,168.6,381.7z"/>
		<path fill="#C90E1C" d="M291.8,282.5c0,0,0.9-4.1-4.4-4.1h-8.5c0,0-2.8-0.6-2.8,7.2v9.4h-29.4h-0.5h-29.4v-9.4
			c0-7.9-2.8-7.2-2.8-7.2h-8.5c-5.3,0-4.4,4.1-4.4,4.1l-6.9,108.7c0,20.8,38.4,19.8,38.4,19.8c5.1,4,12.6,2.8,13.9,2.6
			c1.4,0.3,8.8,1.4,13.9-2.6c0,0,38.4,0.9,38.4-19.8L291.8,282.5z"/>
		<g>
			<rect x="228.7" y="350.5" fill="#77131B" width="38.9" height="6.1"/>
		</g>
		<g>
			<g>
				<ellipse fill="#B0171C" cx="248" cy="359.8" rx="19.4" ry="15.6"/>
			</g>
			<g>
				<ellipse fill="#77131B" cx="248" cy="356" rx="19.4" ry="15.6"/>
			</g>
			<g>
				<ellipse fill="#FF1717" cx="248" cy="350.5" rx="19.4" ry="15.6"/>
			</g>
			<g>
				<ellipse fill="#FFFFFF" cx="248" cy="350.5" rx="19.4" ry="15.6"/>
			</g>
		</g>
	</g>
</g>
</svg>
