<?xml version="1.0" encoding="utf-8"?>
<!-- Generator: Adobe Illustrator 16.0.0, SVG Export Plug-In . SVG Version: 6.00 Build 0)  -->
<!DOCTYPE svg PUBLIC "-//W3C//DTD SVG 1.1//EN" "http://www.w3.org/Graphics/SVG/1.1/DTD/svg11.dtd">
<svg version="1.1" id="Layer_1" xmlns="http://www.w3.org/2000/svg" xmlns:xlink="http://www.w3.org/1999/xlink" x="0px" y="0px"
	 width="297px" height="531.1px" viewBox="0 0 297 531.1" enable-background="new 0 0 297 531.1" xml:space="preserve">
<g>
	<ellipse fill="#A33E38" cx="148.5" cy="526.5" rx="148.5" ry="4.6"/>
	<g>
		<path fill="#776537" d="M94.7,109.4c0,0-4.9,1.8-4.9,10.2c0,2.8,1.5,10.2-3.8,10.5c0,0,6.4,0.8,8.3-3.4c0,0-0.4,7.5-3.4,9.4
			c0,0,17.7,7.5,20.7-9.4l-1.5-24.9C110.1,101.8,99.2,97.3,94.7,109.4z"/>
		<path fill="#776537" d="M201.3,109.4c0,0,4.9,1.8,4.9,10.2c0,2.8-1.5,10.2,3.8,10.5c0,0-6.4,0.8-8.3-3.4c0,0,0.4,7.5,3.4,9.4
			c0,0-17.7,7.5-20.7-9.4l1.5-24.9C185.8,101.8,196.8,97.3,201.3,109.4z"/>
		<g>
			<polygon fill="#154C41" points="88.5,155 100.6,153.5 102.5,167.1 			"/>
			<polygon fill="#154C41" points="205.9,154.3 193.8,152.8 191.9,166.4 			"/>
			<path fill="#F4B07D" d="M219.4,232.6H77.2c0,0,23.3-85.9,23.3-127.1c0-23.8,95.2-23.8,95.2,0C195.7,165,219.4,232.6,219.4,232.6z
				"/>
			<g>
				<path fill="#776537" d="M202,24.8c-16.2-12.4-28.9-13.2-37.7-10.5C151.3,15.1,153,0,153,0c-6.1,2.1-9,16.5-9,16.5
					c0-6.9-7.2-13.8-7.2-13.8c1.8,7.6-2.1,10.5-3.6,11.4c-8.8-2.3-21.2-1.3-36.9,10.8c-13.8,10.6-20,54.8,3.3,78.1l49.5-55.3
					l49.5,55.3C222,79.6,215.9,35.5,202,24.8z"/>
				<path fill="#F4B07D" d="M192.9,53.9c0,0-16-20.5-46.4-20c-30.3-0.4-43.1,20-43.1,20c-10.6,17.4-7.5,71.2-7.5,71.2
					c0,26.6,36.9,47.8,52.4,47.8c15.5,0,52.6-19.8,52.6-47.8C200.9,125.1,203.5,71.3,192.9,53.9z"/>
				<g>
					<path opacity="0.1" fill="#232222" d="M172.2,143.5c0,0-3.9,14.3-24.7,14.3c-20.6,0-24.7-14.3-24.7-14.3s7.5,10.5,25.6,10.5
						C148.3,154,160.4,155.3,172.2,143.5z"/>
				</g>
				<g opacity="0.2">
					<path fill="#231F20" d="M161.2,98.2c0.2,0.1,0.3,0.3,0.5,0.5c0.1,0.2,0.3,0.3,0.4,0.5c0.3,0.4,0.5,0.7,0.7,1.1
						c0.1,0.2,0.2,0.4,0.3,0.6c0.1,0.2,0.2,0.4,0.2,0.7c0.1,0.2,0.1,0.5,0.1,0.7c0,0.2,0,0.5,0,0.8c0,0.3-0.1,0.5-0.2,0.7
						c-0.1,0.2-0.2,0.5-0.3,0.7c-0.2,0.2-0.3,0.4-0.5,0.6l-0.5,0.5c-0.2,0.2-0.4,0.3-0.6,0.4l-0.6,0.4l-1.2,0.5l0,0l-0.1,0
						c-0.5,0.1-1,0.2-1.5,0.4c-0.5,0.2-1,0.4-1.5,0.6c-0.5,0.2-0.9,0.5-1.2,0.8c-0.4,0.3-0.6,0.6-0.9,1.2c-0.3,0.5-0.7,1.1-1.3,1.6
						c-0.3,0.3-0.6,0.4-0.9,0.6c-0.3,0.2-0.6,0.3-0.9,0.4c-0.6,0.2-1.3,0.3-1.9,0.4c-0.6,0-1.2,0.1-1.9,0.1c-0.6,0-1.1,0-1.8-0.1
						c-0.6-0.1-1.3-0.2-1.9-0.4l-0.5-0.1c-0.2-0.1-0.3-0.2-0.5-0.2c-0.3-0.1-0.6-0.3-0.9-0.6c-0.6-0.4-1-1-1.4-1.5l-0.2-0.4
						l-0.1-0.1l0,0c0.1,0.1,0,0,0,0l-0.1-0.2c-0.2-0.3-0.3-0.3-0.5-0.5c-0.3-0.3-0.8-0.6-1.2-0.8c-0.5-0.2-1-0.5-1.5-0.6
						c-0.5-0.2-1.1-0.3-1.5-0.4l-0.1,0l0,0l-1.2-0.5l-0.6-0.4c-0.2-0.1-0.4-0.2-0.6-0.4l-0.5-0.5c-0.2-0.2-0.3-0.4-0.5-0.6
						c-0.2-0.2-0.2-0.5-0.3-0.7c-0.1-0.2-0.2-0.5-0.2-0.7c-0.1-0.3,0-0.5,0-0.8c0-0.3,0-0.5,0.1-0.7c0-0.2,0.1-0.5,0.2-0.7
						c0.1-0.2,0.2-0.4,0.3-0.6c0.2-0.4,0.4-0.8,0.7-1.1c0.3-0.4,0.5-0.7,0.9-1c0.3-0.2,0.7-0.2,0.9,0c0.2,0.2,0.2,0.6,0,0.9l0,0
						c-0.2,0.2-0.5,0.6-0.7,0.9c-0.2,0.3-0.4,0.6-0.5,1c-0.1,0.2-0.1,0.3-0.2,0.5c-0.1,0.2-0.1,0.3-0.1,0.5c0,0.2-0.1,0.3,0,0.5
						c0,0.2,0,0.3,0,0.5c0,0.1,0,0.3,0.1,0.4c0.1,0.1,0.1,0.3,0.2,0.4c0.1,0.1,0.2,0.2,0.3,0.4l0.4,0.3c0.1,0.1,0.3,0.2,0.4,0.3
						l0.5,0.3l1,0.4l-0.1,0c0.7,0.1,1.2,0.2,1.8,0.4c0.6,0.2,1.2,0.4,1.8,0.7c0.6,0.3,1.1,0.6,1.6,1.1c0.2,0.2,0.6,0.6,0.7,0.8
						l0.1,0.2l0.1,0.1l0.1,0.1l0.2,0.4c0.3,0.4,0.6,0.8,1,1.1c0.1,0.1,0.2,0.1,0.3,0.2l0.3,0.2l0.3,0.2l0.4,0.1
						c0.5,0.2,1,0.2,1.5,0.3c0.5,0.1,1.1,0.1,1.7,0.1l1.6-0.1c0.5-0.1,1.1-0.1,1.5-0.3c0.2-0.1,0.5-0.1,0.7-0.3
						c0.2-0.1,0.4-0.2,0.6-0.4c0.4-0.2,0.6-0.6,0.9-1.1c0.3-0.4,0.7-1.1,1.2-1.6c0.5-0.5,1.1-0.8,1.6-1.1c0.6-0.3,1.2-0.5,1.8-0.7
						c0.6-0.2,1.2-0.3,1.8-0.4l-0.1,0l1-0.4l0.5-0.3c0.1-0.1,0.3-0.2,0.4-0.3l0.4-0.3c0.1-0.1,0.2-0.2,0.3-0.4
						c0.1-0.1,0.1-0.3,0.2-0.4c0.1-0.1,0.1-0.3,0.1-0.4c0-0.1,0-0.3,0-0.5c0-0.2,0-0.3,0-0.5c0-0.2-0.1-0.3-0.1-0.5
						c0-0.2-0.1-0.3-0.2-0.5c-0.3-0.7-0.7-1.3-1.2-1.8l0,0c-0.2-0.3-0.2-0.7,0.1-0.9C160.6,98,161,98,161.2,98.2z"/>
				</g>
				<path fill="#2E230E" d="M124.9,83.9c0,1.6-1.3,2.9-2.9,2.9c-1.6,0-2.9-1.3-2.9-2.9c0-1.6,1.3-2.9,2.9-2.9
					C123.6,81,124.9,82.3,124.9,83.9z"/>
				<path fill="#593B2E" d="M106.8,82.8c0,0,9.9-9.5,23.9-5.8c0,0,4-2.4,0.5-3.8C131.3,73.2,114.6,70.3,106.8,82.8z"/>
				<path fill="#2E230E" d="M169.8,83.9c0,1.6,1.3,2.9,2.9,2.9c1.6,0,2.9-1.3,2.9-2.9c0-1.6-1.3-2.9-2.9-2.9
					C171.1,81,169.8,82.3,169.8,83.9z"/>
				<path fill="#593B2E" d="M188.2,81.6c0,0-10.7-8.5-24.3-3.5c0,0-4.2-2-0.9-3.8C163,74.3,179.3,69.9,188.2,81.6z"/>
				<path fill="#F4B07D" d="M100.3,93c0,0-10-16.3-13.5-1.2c-1.1,4.7-1.2,29.9,13.1,13.9"/>
				
					<path fill="none" stroke="#C18963" stroke-width="1.5936" stroke-linecap="round" stroke-linejoin="round" stroke-miterlimit="10" d="
					M93.9,93.4c0,0-5.2,4,0,10"/>
				<path fill="#F4B07D" d="M194.8,93c0,0,10-16.3,13.5-1.2c1.1,4.7,1.2,29.9-13.1,13.9"/>
				
					<path fill="none" stroke="#C18963" stroke-width="1.5936" stroke-linecap="round" stroke-linejoin="round" stroke-miterlimit="10" d="
					M201.2,93.4c0,0,5.2,4,0,10"/>
				
					<path fill="none" stroke="#C18963" stroke-width="1.9905" stroke-linecap="round" stroke-linejoin="round" stroke-miterlimit="10" d="
					M132.1,120.5c0,0,16.9,9.2,31.4-1.6"/>
				<path fill="#776537" d="M94.3,36.4c0,0-5.8,34.9-5.1,35.2c0.8,0.3,28.2-14.2,28.2-14.2l31.7-11l47.1,14.5l9.6-4l-5-25l-46-4.8
					l-36.1,4L94.3,36.4z"/>
				<path opacity="0.3" fill="#231F20" d="M148.9,46.3c0,0,19.1,44.4,61.6,21.6c0,0-12.2-6.6-14.2-15"/>
				<path opacity="0.3" fill="#231F20" d="M148.7,46c0,0-11.5,33.5-53.4,22.3c0,0,9.6-4.6,13.2-12.5"/>
				<path fill="#776537" d="M149.2,46.3c0,0,17.9,38.4,58.3,21.1c0,0-9.2-6.8-11.2-15.1"/>
				<path fill="#776537" d="M148.7,46c0,0-14.6,27.1-49.2,21.3c0,0,7.5-6.3,8.8-13.7"/>
			</g>
		</g>
		
			<path fill="none" stroke="#F4B07D" stroke-width="29.1108" stroke-linecap="round" stroke-linejoin="round" stroke-miterlimit="10" d="
			M97.2,177.6c0,0-55.6,40.4-60.5,83.6c-5,44.7-2.5,55.5-2.5,79.2"/>
		<path fill="none" stroke="#282828" stroke-width="29.8111" stroke-linejoin="round" stroke-miterlimit="10" d="M97.2,177.6
			c0,0-55.6,40.4-60.5,83.6c-5,44.7-2.5,55.5-2.5,79.2"/>
		
			<path fill="none" stroke="#F4B07D" stroke-width="29.1108" stroke-linecap="round" stroke-linejoin="round" stroke-miterlimit="10" d="
			M200.1,177.6c0,0,55.6,40.4,60.5,83.6c5,44.7,2.5,55.5,2.5,79.2"/>
		<g>
			<path fill="#282828" d="M278,340.4h-29.8c0-6.2,0.2-11.6,0.3-16.7c0.5-14.6,0.9-28.5-2.7-60.8c-3.3-30.1-40.4-63.1-54.4-73.2
				l17.5-24.1c0.6,0.4,15.2,11.1,30.6,27.5c21.5,23,33.6,45.4,36,66.6c3.8,34.4,3.3,50,2.9,65C278.1,329.5,278,334.6,278,340.4z"/>
		</g>
		<path fill="#2D2D2D" d="M226,323.9h-36.5c-3-3.2-7.3-5.3-12.1-5.3s-9.1,2-12.1,5.3h-37.6c-3-3.2-7.3-5.3-12.1-5.3s-9.1,2-12.1,5.3
			H67.9c0,25.7,12.2,45.6,31.2,57.7v116c0,9.2,7.4,16.6,16.6,16.6s16.6-7.4,16.6-16.6v-104c4.8,0.7,9.7,1.1,14.7,1.1
			c4.7,0,9.4-0.3,13.9-1v103.9c0,9.2,7.4,16.6,16.6,16.6s16.6-7.4,16.6-16.6V382.1C213.4,370.1,226,349.9,226,323.9z"/>
		<path fill="#1C1C1C" d="M132.1,502.5c-44.3,0-80.3,9.5-80.3,21.3h80.3V502.5z"/>
		<path fill="#1C1C1C" d="M160.8,502.5c44.3,0,80.3,9.5,80.3,21.3h-80.3V502.5z"/>
		<rect x="97" y="491.9" fill="#2D2D2D" width="36.5" height="12.5"/>
		<rect x="159.2" y="491.9" fill="#2D2D2D" width="36.5" height="12.5"/>
		<rect x="68.6" y="324" fill="#161516" width="157.1" height="11.8"/>
		<rect x="136.6" y="324" fill="#D6D6D6" width="22.4" height="11.8"/>
		<g>
			<path opacity="0.2" fill="#232222" d="M149.6,295.8c0,2-1,3.6-2.1,3.6c-1.2,0-2.1-1.6-2.1-3.6c0-2,1-3.6,2.1-3.6
				C148.6,292.2,149.6,293.8,149.6,295.8z"/>
			<path fill="#1C7363" d="M119.1,248.2l-9-17.2l15.9,7.8l16.5,6l15.5-0.9l30.5-12.9l-10.6,17.6l53.6-16.8c-4.1-29-12-56.2-26.7-67
				l-58.3,11.7h-2.9l-53.9-11.7c-14.4,15.9-22,41.5-25.8,67.7L119.1,248.2z"/>
			<path fill="#F4E206" d="M231.7,232.7l-56,17.6l10.3-17.2l-27.9,11.8l-15.8,0.9l-16.7-6.1l-13.2-6.5l8.7,16.6l-57.3-16.4
				c-6.5,45.7-1.6,92.9-1.6,92.9h82.9h4.4h85.9C235.3,326.3,237.9,277.4,231.7,232.7z"/>
		</g>
		<g>
			<path fill="#902123" d="M144.9,241.9c0.2,0.6-70.9-33.2-70.9-33.2l18.9,21.6l-25.2-12.9l-0.8,6l40.3,16.2l-14.6-18.3l51.7,22.1
				L144.9,241.9z"/>
			<polygon fill="#FFFFFF" points="145.7,246.8 97.6,225.7 113.2,243.8 65.1,230.1 62.4,235.9 129,254.7 114.2,237 144.4,249 			"/>
			<g>
				<polygon fill="none" points="114.2,237 115.2,238.1 115.2,237.3 				"/>
				<polygon fill="none" points="122.6,240.3 122.6,247 124.1,248.8 124.1,240.9 				"/>
				<polygon fill="none" points="120.8,239.6 120.8,244.9 122.3,246.6 122.3,240.2 				"/>
				<polygon fill="none" points="115.5,237.5 115.5,238.5 116.9,240.2 116.9,238.1 				"/>
				<polygon fill="none" points="113.2,243.8 111.9,242.4 111.9,243.5 				"/>
				<polygon fill="none" points="94.1,238.4 94.1,244.8 95.5,245.3 95.5,238.8 				"/>
				<polygon fill="none" points="67.3,230.7 67.3,237.3 68.8,237.7 68.8,231.2 				"/>
				<polygon fill="none" points="142.2,245.3 142.2,248.2 143.7,248.8 143.7,245.9 				"/>
				<polygon fill="none" points="65.5,230.2 65.5,236.8 67,237.2 67,230.6 				"/>
				<polygon fill="none" points="65.1,230.1 63.7,233 63.7,236.3 65.2,236.7 65.2,230.1 				"/>
				<polygon fill="none" points="144,246 144,248.9 144.4,249 145.5,247 145.5,246.7 				"/>
				<polygon fill="none" points="83.4,235.3 83.4,241.8 84.8,242.2 84.8,235.7 				"/>
				<polygon fill="none" points="62.4,235.9 63.4,236.2 63.4,233.7 				"/>
				<polygon fill="none" points="81.6,234.8 81.6,241.3 83,241.7 83,235.2 				"/>
				<polygon fill="none" points="79.8,234.3 79.8,240.8 81.3,241.2 81.3,234.7 				"/>
				<polygon fill="none" points="86.9,236.3 86.9,242.8 88.4,243.3 88.4,236.8 				"/>
				<polygon fill="none" points="78,233.8 78,240.3 79.5,240.7 79.5,234.2 				"/>
				<polygon fill="none" points="95.8,238.9 95.8,245.3 97.3,245.8 97.3,239.3 				"/>
				<polygon fill="none" points="76.2,233.3 76.2,239.8 77.7,240.2 77.7,233.7 				"/>
				<polygon fill="none" points="88.7,236.9 88.7,243.3 90.2,243.8 90.2,237.3 				"/>
				<polygon fill="none" points="129,254.7 128,253.4 128,254.4 				"/>
				<polygon fill="none" points="85.1,235.8 85.1,242.3 86.6,242.8 86.6,236.3 				"/>
				<polygon fill="none" points="69.1,231.2 69.1,237.8 70.5,238.2 70.5,231.7 				"/>
				<polygon fill="none" points="90.5,237.4 90.5,243.8 92,244.3 92,237.8 				"/>
				<polygon fill="none" points="92.3,237.9 92.3,244.3 93.7,244.8 93.7,238.3 				"/>
				<polygon fill="none" points="72.6,232.3 72.6,238.8 74.1,239.2 74.1,232.7 				"/>
				<polygon fill="none" points="70.9,231.8 70.9,238.3 72.3,238.7 72.3,232.2 				"/>
				<polygon fill="none" points="74.4,232.8 74.4,239.3 75.9,239.7 75.9,233.2 				"/>
				<polygon fill="none" points="135.1,242.1 135.1,245.3 136.6,245.9 136.6,242.8 				"/>
				<polygon fill="none" points="111.9,232 111.9,242.4 113.2,243.8 111.9,243.5 111.9,249.9 113.4,250.3 113.4,232.6 				"/>
				<polygon fill="none" points="133.3,241.4 133.3,244.6 134.8,245.2 134.8,242 				"/>
				<polygon fill="none" points="124.1,240.9 124.1,237.3 122.6,236.7 122.6,240.3 				"/>
				<polygon fill="none" points="110.1,243 110.1,249.4 111.6,249.8 111.6,243.4 				"/>
				<polygon fill="none" points="127.6,242.3 127.6,238.9 126.2,238.2 126.2,241.8 				"/>
				<polygon fill="none" points="131.5,240.6 131.5,243.9 133,244.5 133,241.2 				"/>
				<polygon fill="none" points="125.9,241.6 125.9,238.1 124.4,237.5 124.4,241 				"/>
				<polygon fill="none" points="101.2,240.4 101.2,246.9 102.7,247.3 102.7,240.8 				"/>
				<polygon fill="none" points="99.4,239.9 99.4,246.4 100.9,246.8 100.9,240.3 				"/>
				<polygon fill="none" points="97.6,239.4 97.6,245.9 99.1,246.3 99.1,239.8 				"/>
				<polygon fill="none" points="108.3,242.5 108.3,248.9 109.8,249.3 109.8,242.9 				"/>
				<polygon fill="none" points="106.6,242 106.6,248.4 108,248.8 108,242.4 				"/>
				<polygon fill="none" points="103,240.9 103,247.4 104.4,247.8 104.4,241.4 				"/>
				<polygon fill="none" points="104.8,241.4 104.8,247.9 106.2,248.3 106.2,241.9 				"/>
				<polygon fill="none" points="119,242.7 119,251.9 120.5,252.3 120.5,244.5 				"/>
				<polygon fill="none" points="99.1,227.5 99.1,226.4 97.6,225.8 97.6,225.8 				"/>
				<polygon fill="none" points="120.8,244.9 120.8,252.4 122.3,252.8 122.3,246.6 				"/>
				<polygon fill="none" points="124.4,249.2 124.4,253.4 125.9,253.8 125.9,250.9 				"/>
				<polygon fill="none" points="122.6,247 122.6,252.9 124.1,253.3 124.1,248.8 				"/>
				<polygon fill="none" points="126.2,251.3 126.2,253.9 127.6,254.3 127.6,253.1 				"/>
				<polygon fill="none" points="129.7,239.8 129.7,243.2 131.2,243.8 131.2,240.4 				"/>
				<polygon fill="none" points="128,239 128,242.5 129.4,243.1 129.4,239.7 				"/>
				<polygon fill="none" points="117.3,240.6 117.3,251.4 118.7,251.8 118.7,242.4 				"/>
				<polygon fill="none" points="118.7,238.8 118.7,235 117.3,234.3 117.3,238.2 				"/>
				<polygon fill="none" points="116.9,238.1 116.9,234.2 115.5,233.6 115.5,237.5 				"/>
				<polygon fill="none" points="120.5,239.5 120.5,235.8 119,235.1 119,238.9 				"/>
				<polygon fill="none" points="122.3,240.2 122.3,236.5 120.8,235.9 120.8,239.6 				"/>
				<polygon fill="none" points="115.5,238.5 115.5,250.9 116.9,251.3 116.9,240.2 				"/>
				<polygon fill="none" points="114.2,237 115.2,237.3 115.2,233.4 113.7,232.8 113.7,250.4 115.2,250.8 115.2,238.1 				"/>
				<polygon fill="none" points="102.7,231.6 102.7,228 101.2,227.3 101.2,229.9 				"/>
				<polygon fill="none" points="100.9,229.6 100.9,227.2 99.4,226.5 99.4,227.9 				"/>
				<polygon fill="none" points="138.7,243.7 138.7,246.8 140.1,247.3 140.1,244.3 				"/>
				<polygon fill="none" points="108,237.9 108,230.3 106.6,229.7 106.6,236.2 				"/>
				<polygon fill="none" points="136.9,242.9 136.9,246 138.4,246.6 138.4,243.6 				"/>
				<polygon fill="none" points="106.2,235.8 106.2,229.5 104.8,228.9 104.8,234.1 				"/>
				<polygon fill="none" points="140.5,244.5 140.5,247.5 141.9,248.1 141.9,245.1 				"/>
				<polygon fill="none" points="104.4,233.7 104.4,228.7 103,228.1 103,232 				"/>
				<polygon fill="none" points="109.8,239.9 109.8,231.1 108.3,230.4 108.3,238.2 				"/>
				<polygon fill="none" points="111.6,242 111.6,231.9 110.1,231.2 110.1,240.3 				"/>
				<polygon fill="#1C7363" points="63.4,233.7 63.4,236.2 63.7,236.3 63.7,233 				"/>
				<polygon fill="#1C7363" points="65.2,230.1 65.2,236.7 65.5,236.8 65.5,230.2 				"/>
				<polygon fill="#1C7363" points="67,230.6 67,237.2 67.3,237.3 67.3,230.7 				"/>
				<polygon fill="#1C7363" points="68.8,231.2 68.8,237.7 69.1,237.8 69.1,231.2 				"/>
				<polygon fill="#1C7363" points="70.5,231.7 70.5,238.2 70.9,238.3 70.9,231.8 				"/>
				<polygon fill="#1C7363" points="72.3,232.2 72.3,238.7 72.6,238.8 72.6,232.3 				"/>
				<polygon fill="#1C7363" points="74.1,232.7 74.1,239.2 74.4,239.3 74.4,232.8 				"/>
				<polygon fill="#1C7363" points="75.9,233.2 75.9,239.7 76.2,239.8 76.2,233.3 				"/>
				<polygon fill="#1C7363" points="77.7,233.7 77.7,240.2 78,240.3 78,233.8 				"/>
				<polygon fill="#1C7363" points="79.5,234.2 79.5,240.7 79.8,240.8 79.8,234.3 				"/>
				<polygon fill="#1C7363" points="81.3,234.7 81.3,241.2 81.6,241.3 81.6,234.8 				"/>
				<polygon fill="#1C7363" points="83,235.2 83,241.7 83.4,241.8 83.4,235.3 				"/>
				<polygon fill="#1C7363" points="84.8,235.7 84.8,242.2 85.1,242.3 85.1,235.8 				"/>
				<polygon fill="#1C7363" points="86.6,236.3 86.6,242.8 86.9,242.8 86.9,236.3 				"/>
				<polygon fill="#1C7363" points="88.4,236.8 88.4,243.3 88.7,243.3 88.7,236.9 				"/>
				<polygon fill="#1C7363" points="90.2,237.3 90.2,243.8 90.5,243.8 90.5,237.4 				"/>
				<polygon fill="#1C7363" points="92,237.8 92,244.3 92.3,244.3 92.3,237.9 				"/>
				<polygon fill="#1C7363" points="93.7,238.3 93.7,244.8 94.1,244.8 94.1,238.4 				"/>
				<polygon fill="#1C7363" points="95.5,238.8 95.5,245.3 95.8,245.3 95.8,238.9 				"/>
				<polygon fill="#1C7363" points="97.3,239.3 97.3,245.8 97.6,245.9 97.6,239.4 				"/>
				<polygon fill="#1C7363" points="97.6,225.8 97.6,225.8 97.6,225.7 				"/>
				<polygon fill="#1C7363" points="99.4,227.9 99.4,226.5 99.1,226.4 99.1,227.5 				"/>
				<polygon fill="#1C7363" points="99.1,239.8 99.1,246.3 99.4,246.4 99.4,239.9 				"/>
				<polygon fill="#1C7363" points="101.2,229.9 101.2,227.3 100.9,227.2 100.9,229.6 				"/>
				<polygon fill="#1C7363" points="100.9,240.3 100.9,246.8 101.2,246.9 101.2,240.4 				"/>
				<polygon fill="#1C7363" points="103,232 103,228.1 102.7,228 102.7,231.6 				"/>
				<polygon fill="#1C7363" points="102.7,240.8 102.7,247.3 103,247.4 103,240.9 				"/>
				<polygon fill="#1C7363" points="104.8,234.1 104.8,228.9 104.4,228.7 104.4,233.7 				"/>
				<polygon fill="#1C7363" points="104.4,241.4 104.4,247.8 104.8,247.9 104.8,241.4 				"/>
				<polygon fill="#1C7363" points="106.6,236.2 106.6,229.7 106.2,229.5 106.2,235.8 				"/>
				<polygon fill="#1C7363" points="106.2,241.9 106.2,248.3 106.6,248.4 106.6,242 				"/>
				<polygon fill="#1C7363" points="108.3,238.2 108.3,230.4 108,230.3 108,237.9 				"/>
				<polygon fill="#1C7363" points="108,242.4 108,248.8 108.3,248.9 108.3,242.5 				"/>
				<polygon fill="#1C7363" points="110.1,240.3 110.1,231.2 109.8,231.1 109.8,239.9 				"/>
				<polygon fill="#1C7363" points="109.8,242.9 109.8,249.3 110.1,249.4 110.1,243 				"/>
				<polygon fill="#1C7363" points="111.6,243.4 111.6,249.8 111.9,249.9 111.9,243.5 				"/>
				<polygon fill="#1C7363" points="111.9,242.4 111.9,232 111.6,231.9 111.6,242 				"/>
				<polygon fill="#1C7363" points="113.4,232.6 113.4,250.3 113.7,250.4 113.7,232.8 				"/>
				<polygon fill="#1C7363" points="115.5,237.5 115.5,233.6 115.2,233.4 115.2,237.3 				"/>
				<polygon fill="#1C7363" points="115.2,238.1 115.2,250.8 115.5,250.9 115.5,238.5 				"/>
				<polygon fill="#1C7363" points="116.9,240.2 116.9,251.3 117.3,251.4 117.3,240.6 				"/>
				<polygon fill="#1C7363" points="117.3,238.2 117.3,234.3 116.9,234.2 116.9,238.1 				"/>
				<polygon fill="#1C7363" points="118.7,242.4 118.7,251.8 119,251.9 119,242.7 				"/>
				<polygon fill="#1C7363" points="119,238.9 119,235.1 118.7,235 118.7,238.8 				"/>
				<polygon fill="#1C7363" points="120.8,239.6 120.8,235.9 120.5,235.8 120.5,239.5 				"/>
				<polygon fill="#1C7363" points="120.5,244.5 120.5,252.3 120.8,252.4 120.8,244.9 				"/>
				<polygon fill="#1C7363" points="122.3,246.6 122.3,252.8 122.6,252.9 122.6,247 				"/>
				<polygon fill="#1C7363" points="122.6,240.3 122.6,236.7 122.3,236.5 122.3,240.2 				"/>
				<polygon fill="#1C7363" points="124.1,248.8 124.1,253.3 124.4,253.4 124.4,249.2 				"/>
				<polygon fill="#1C7363" points="124.4,241 124.4,237.5 124.1,237.3 124.1,240.9 				"/>
				<polygon fill="#1C7363" points="125.9,250.9 125.9,253.8 126.2,253.9 126.2,251.3 				"/>
				<polygon fill="#1C7363" points="126.2,241.8 126.2,238.2 125.9,238.1 125.9,241.6 				"/>
				<polygon fill="#1C7363" points="127.6,254.3 128,254.4 128,253.4 127.6,253.1 				"/>
				<polygon fill="#1C7363" points="127.6,238.9 127.6,242.3 128,242.5 128,239 				"/>
				<polygon fill="#1C7363" points="129.4,239.7 129.4,243.1 129.7,243.2 129.7,239.8 				"/>
				<polygon fill="#1C7363" points="131.2,240.4 131.2,243.8 131.5,243.9 131.5,240.6 				"/>
				<polygon fill="#1C7363" points="133,241.2 133,244.5 133.3,244.6 133.3,241.4 				"/>
				<polygon fill="#1C7363" points="134.8,242 134.8,245.2 135.1,245.3 135.1,242.1 				"/>
				<polygon fill="#1C7363" points="136.6,242.8 136.6,245.9 136.9,246 136.9,242.9 				"/>
				<polygon fill="#1C7363" points="138.4,243.6 138.4,246.6 138.7,246.8 138.7,243.7 				"/>
				<polygon fill="#1C7363" points="140.1,244.3 140.1,247.3 140.5,247.5 140.5,244.5 				"/>
				<polygon fill="#1C7363" points="141.9,245.1 141.9,248.1 142.2,248.2 142.2,245.3 				"/>
				<polygon fill="#1C7363" points="143.7,245.9 143.7,248.8 144,248.9 144,246 				"/>
				<polygon fill="#1C7363" points="145.5,246.7 145.5,247 145.7,246.8 				"/>
			</g>
			<path fill="#902123" d="M150.2,241.9c-0.2,0.6,70.9-33.2,70.9-33.2l-18.9,21.6l25.2-12.9l0.8,6L188,239.7l14.5-18.3l-51.7,22.1
				L150.2,241.9z"/>
			<polygon fill="#FFFFFF" points="149.4,246.8 197.5,225.7 181.9,243.8 230,230.1 232.7,235.9 166.1,254.7 180.8,237 150.7,249 			
				"/>
			<g>
				<polygon fill="none" points="180.8,237 179.9,238.1 179.9,237.3 				"/>
				<polygon fill="none" points="172.4,240.3 172.4,247 171,248.8 171,240.9 				"/>
				<polygon fill="none" points="174.2,239.6 174.2,244.9 172.8,246.6 172.8,240.2 				"/>
				<polygon fill="none" points="179.6,237.5 179.6,238.5 178.1,240.2 178.1,238.1 				"/>
				<polygon fill="none" points="181.9,243.8 183.1,242.4 183.1,243.5 				"/>
				<polygon fill="none" points="201,238.4 201,244.8 199.5,245.3 199.5,238.8 				"/>
				<polygon fill="none" points="227.8,230.7 227.8,237.3 226.3,237.7 226.3,231.2 				"/>
				<polygon fill="none" points="152.8,245.3 152.8,248.2 151.3,248.8 151.3,245.9 				"/>
				<polygon fill="none" points="229.5,230.2 229.5,236.8 228.1,237.2 228.1,230.6 				"/>
				<polygon fill="none" points="230,230.1 231.3,233 231.3,236.3 229.9,236.7 229.9,230.1 				"/>
				<polygon fill="none" points="151,246 151,248.9 150.7,249 149.6,247 149.6,246.7 				"/>
				<polygon fill="none" points="211.7,235.3 211.7,241.8 210.2,242.2 210.2,235.7 				"/>
				<polygon fill="none" points="232.7,235.9 231.6,236.2 231.6,233.7 				"/>
				<polygon fill="none" points="213.5,234.8 213.5,241.3 212,241.7 212,235.2 				"/>
				<polygon fill="none" points="215.3,234.3 215.3,240.8 213.8,241.2 213.8,234.7 				"/>
				<polygon fill="none" points="208.1,236.3 208.1,242.8 206.7,243.3 206.7,236.8 				"/>
				<polygon fill="none" points="217,233.8 217,240.3 215.6,240.7 215.6,234.2 				"/>
				<polygon fill="none" points="199.2,238.9 199.2,245.3 197.7,245.8 197.7,239.3 				"/>
				<polygon fill="none" points="218.8,233.3 218.8,239.8 217.4,240.2 217.4,233.7 				"/>
				<polygon fill="none" points="206.3,236.9 206.3,243.3 204.9,243.8 204.9,237.3 				"/>
				<polygon fill="none" points="166.1,254.7 167.1,253.4 167.1,254.4 				"/>
				<polygon fill="none" points="209.9,235.8 209.9,242.3 208.4,242.8 208.4,236.3 				"/>
				<polygon fill="none" points="226,231.2 226,237.8 224.5,238.2 224.5,231.7 				"/>
				<polygon fill="none" points="204.6,237.4 204.6,243.8 203.1,244.3 203.1,237.8 				"/>
				<polygon fill="none" points="202.8,237.9 202.8,244.3 201.3,244.8 201.3,238.3 				"/>
				<polygon fill="none" points="222.4,232.3 222.4,238.8 220.9,239.2 220.9,232.7 				"/>
				<polygon fill="none" points="224.2,231.8 224.2,238.3 222.7,238.7 222.7,232.2 				"/>
				<polygon fill="none" points="220.6,232.8 220.6,239.3 219.1,239.7 219.1,233.2 				"/>
				<polygon fill="none" points="159.9,242.1 159.9,245.3 158.5,245.9 158.5,242.8 				"/>
				<polygon fill="none" points="183.1,232 183.1,242.4 181.9,243.8 183.1,243.5 183.1,249.9 181.7,250.3 181.7,232.6 				"/>
				<polygon fill="none" points="161.7,241.4 161.7,244.6 160.3,245.2 160.3,242 				"/>
				<polygon fill="none" points="171,240.9 171,237.3 172.4,236.7 172.4,240.3 				"/>
				<polygon fill="none" points="184.9,243 184.9,249.4 183.5,249.8 183.5,243.4 				"/>
				<polygon fill="none" points="167.4,242.3 167.4,238.9 168.9,238.2 168.9,241.8 				"/>
				<polygon fill="none" points="163.5,240.6 163.5,243.9 162,244.5 162,241.2 				"/>
				<polygon fill="none" points="169.2,241.6 169.2,238.1 170.7,237.5 170.7,241 				"/>
				<polygon fill="none" points="193.9,240.4 193.9,246.9 192.4,247.3 192.4,240.8 				"/>
				<polygon fill="none" points="195.6,239.9 195.6,246.4 194.2,246.8 194.2,240.3 				"/>
				<polygon fill="none" points="197.4,239.4 197.4,245.9 195.9,246.3 195.9,239.8 				"/>
				<polygon fill="none" points="186.7,242.5 186.7,248.9 185.2,249.3 185.2,242.9 				"/>
				<polygon fill="none" points="188.5,242 188.5,248.4 187,248.8 187,242.4 				"/>
				<polygon fill="none" points="192.1,240.9 192.1,247.4 190.6,247.8 190.6,241.4 				"/>
				<polygon fill="none" points="190.3,241.4 190.3,247.9 188.8,248.3 188.8,241.9 				"/>
				<polygon fill="none" points="176,242.7 176,251.9 174.5,252.3 174.5,244.5 				"/>
				<polygon fill="none" points="195.9,227.5 195.9,226.4 197.4,225.8 197.4,225.8 				"/>
				<polygon fill="none" points="174.2,244.9 174.2,252.4 172.8,252.8 172.8,246.6 				"/>
				<polygon fill="none" points="170.7,249.2 170.7,253.4 169.2,253.8 169.2,250.9 				"/>
				<polygon fill="none" points="172.4,247 172.4,252.9 171,253.3 171,248.8 				"/>
				<polygon fill="none" points="168.9,251.3 168.9,253.9 167.4,254.3 167.4,253.1 				"/>
				<polygon fill="none" points="165.3,239.8 165.3,243.2 163.8,243.8 163.8,240.4 				"/>
				<polygon fill="none" points="167.1,239 167.1,242.5 165.6,243.1 165.6,239.7 				"/>
				<polygon fill="none" points="177.8,240.6 177.8,251.4 176.3,251.8 176.3,242.4 				"/>
				<polygon fill="none" points="176.3,238.8 176.3,235 177.8,234.3 177.8,238.2 				"/>
				<polygon fill="none" points="178.1,238.1 178.1,234.2 179.6,233.6 179.6,237.5 				"/>
				<polygon fill="none" points="174.5,239.5 174.5,235.8 176,235.1 176,238.9 				"/>
				<polygon fill="none" points="172.8,240.2 172.8,236.5 174.2,235.9 174.2,239.6 				"/>
				<polygon fill="none" points="179.6,238.5 179.6,250.9 178.1,251.3 178.1,240.2 				"/>
				<polygon fill="none" points="180.8,237 179.9,237.3 179.9,233.4 181.4,232.8 181.4,250.4 179.9,250.8 179.9,238.1 				"/>
				<polygon fill="none" points="192.4,231.6 192.4,228 193.9,227.3 193.9,229.9 				"/>
				<polygon fill="none" points="194.2,229.6 194.2,227.2 195.6,226.5 195.6,227.9 				"/>
				<polygon fill="none" points="156.4,243.7 156.4,246.8 154.9,247.3 154.9,244.3 				"/>
				<polygon fill="none" points="187,237.9 187,230.3 188.5,229.7 188.5,236.2 				"/>
				<polygon fill="none" points="158.2,242.9 158.2,246 156.7,246.6 156.7,243.6 				"/>
				<polygon fill="none" points="188.8,235.8 188.8,229.5 190.3,228.9 190.3,234.1 				"/>
				<polygon fill="none" points="154.6,244.5 154.6,247.5 153.1,248.1 153.1,245.1 				"/>
				<polygon fill="none" points="190.6,233.7 190.6,228.7 192.1,228.1 192.1,232 				"/>
				<polygon fill="none" points="185.2,239.9 185.2,231.1 186.7,230.4 186.7,238.2 				"/>
				<polygon fill="none" points="183.5,242 183.5,231.9 184.9,231.2 184.9,240.3 				"/>
				<polygon fill="#1C7363" points="231.6,233.7 231.6,236.2 231.3,236.3 231.3,233 				"/>
				<polygon fill="#1C7363" points="229.9,230.1 229.9,236.7 229.5,236.8 229.5,230.2 				"/>
				<polygon fill="#1C7363" points="228.1,230.6 228.1,237.2 227.8,237.3 227.8,230.7 				"/>
				<polygon fill="#1C7363" points="226.3,231.2 226.3,237.7 226,237.8 226,231.2 				"/>
				<polygon fill="#1C7363" points="224.5,231.7 224.5,238.2 224.2,238.3 224.2,231.8 				"/>
				<polygon fill="#1C7363" points="222.7,232.2 222.7,238.7 222.4,238.8 222.4,232.3 				"/>
				<polygon fill="#1C7363" points="220.9,232.7 220.9,239.2 220.6,239.3 220.6,232.8 				"/>
				<polygon fill="#1C7363" points="219.1,233.2 219.1,239.7 218.8,239.8 218.8,233.3 				"/>
				<polygon fill="#1C7363" points="217.4,233.7 217.4,240.2 217,240.3 217,233.8 				"/>
				<polygon fill="#1C7363" points="215.6,234.2 215.6,240.7 215.3,240.8 215.3,234.3 				"/>
				<polygon fill="#1C7363" points="213.8,234.7 213.8,241.2 213.5,241.3 213.5,234.8 				"/>
				<polygon fill="#1C7363" points="212,235.2 212,241.7 211.7,241.8 211.7,235.3 				"/>
				<polygon fill="#1C7363" points="210.2,235.7 210.2,242.2 209.9,242.3 209.9,235.8 				"/>
				<polygon fill="#1C7363" points="208.4,236.3 208.4,242.8 208.1,242.8 208.1,236.3 				"/>
				<polygon fill="#1C7363" points="206.7,236.8 206.7,243.3 206.3,243.3 206.3,236.9 				"/>
				<polygon fill="#1C7363" points="204.9,237.3 204.9,243.8 204.6,243.8 204.6,237.4 				"/>
				<polygon fill="#1C7363" points="203.1,237.8 203.1,244.3 202.8,244.3 202.8,237.9 				"/>
				<polygon fill="#1C7363" points="201.3,238.3 201.3,244.8 201,244.8 201,238.4 				"/>
				<polygon fill="#1C7363" points="199.5,238.8 199.5,245.3 199.2,245.3 199.2,238.9 				"/>
				<polygon fill="#1C7363" points="197.7,239.3 197.7,245.8 197.4,245.9 197.4,239.4 				"/>
				<polygon fill="#1C7363" points="197.4,225.8 197.4,225.8 197.5,225.7 				"/>
				<polygon fill="#1C7363" points="195.6,227.9 195.6,226.5 195.9,226.4 195.9,227.5 				"/>
				<polygon fill="#1C7363" points="195.9,239.8 195.9,246.3 195.6,246.4 195.6,239.9 				"/>
				<polygon fill="#1C7363" points="193.9,229.9 193.9,227.3 194.2,227.2 194.2,229.6 				"/>
				<polygon fill="#1C7363" points="194.2,240.3 194.2,246.8 193.9,246.9 193.9,240.4 				"/>
				<polygon fill="#1C7363" points="192.1,232 192.1,228.1 192.4,228 192.4,231.6 				"/>
				<polygon fill="#1C7363" points="192.4,240.8 192.4,247.3 192.1,247.4 192.1,240.9 				"/>
				<polygon fill="#1C7363" points="190.3,234.1 190.3,228.9 190.6,228.7 190.6,233.7 				"/>
				<polygon fill="#1C7363" points="190.6,241.4 190.6,247.8 190.3,247.9 190.3,241.4 				"/>
				<polygon fill="#1C7363" points="188.5,236.2 188.5,229.7 188.8,229.5 188.8,235.8 				"/>
				<polygon fill="#1C7363" points="188.8,241.9 188.8,248.3 188.5,248.4 188.5,242 				"/>
				<polygon fill="#1C7363" points="186.7,238.2 186.7,230.4 187,230.3 187,237.9 				"/>
				<polygon fill="#1C7363" points="187,242.4 187,248.8 186.7,248.9 186.7,242.5 				"/>
				<polygon fill="#1C7363" points="184.9,240.3 184.9,231.2 185.2,231.1 185.2,239.9 				"/>
				<polygon fill="#1C7363" points="185.2,242.9 185.2,249.3 184.9,249.4 184.9,243 				"/>
				<polygon fill="#1C7363" points="183.5,243.4 183.5,249.8 183.1,249.9 183.1,243.5 				"/>
				<polygon fill="#1C7363" points="183.1,242.4 183.1,232 183.5,231.9 183.5,242 				"/>
				<polygon fill="#1C7363" points="181.7,232.6 181.7,250.3 181.4,250.4 181.4,232.8 				"/>
				<polygon fill="#1C7363" points="179.6,237.5 179.6,233.6 179.9,233.4 179.9,237.3 				"/>
				<polygon fill="#1C7363" points="179.9,238.1 179.9,250.8 179.6,250.9 179.6,238.5 				"/>
				<polygon fill="#1C7363" points="178.1,240.2 178.1,251.3 177.8,251.4 177.8,240.6 				"/>
				<polygon fill="#1C7363" points="177.8,238.2 177.8,234.3 178.1,234.2 178.1,238.1 				"/>
				<polygon fill="#1C7363" points="176.3,242.4 176.3,251.8 176,251.9 176,242.7 				"/>
				<polygon fill="#1C7363" points="176,238.9 176,235.1 176.3,235 176.3,238.8 				"/>
				<polygon fill="#1C7363" points="174.2,239.6 174.2,235.9 174.5,235.8 174.5,239.5 				"/>
				<polygon fill="#1C7363" points="174.5,244.5 174.5,252.3 174.2,252.4 174.2,244.9 				"/>
				<polygon fill="#1C7363" points="172.8,246.6 172.8,252.8 172.4,252.9 172.4,247 				"/>
				<polygon fill="#1C7363" points="172.4,240.3 172.4,236.7 172.8,236.5 172.8,240.2 				"/>
				<polygon fill="#1C7363" points="171,248.8 171,253.3 170.7,253.4 170.7,249.2 				"/>
				<polygon fill="#1C7363" points="170.7,241 170.7,237.5 171,237.3 171,240.9 				"/>
				<polygon fill="#1C7363" points="169.2,250.9 169.2,253.8 168.9,253.9 168.9,251.3 				"/>
				<polygon fill="#1C7363" points="168.9,241.8 168.9,238.2 169.2,238.1 169.2,241.6 				"/>
				<polygon fill="#1C7363" points="167.4,254.3 167.1,254.4 167.1,253.4 167.4,253.1 				"/>
				<polygon fill="#1C7363" points="167.4,238.9 167.4,242.3 167.1,242.5 167.1,239 				"/>
				<polygon fill="#1C7363" points="165.6,239.7 165.6,243.1 165.3,243.2 165.3,239.8 				"/>
				<polygon fill="#1C7363" points="163.8,240.4 163.8,243.8 163.5,243.9 163.5,240.6 				"/>
				<polygon fill="#1C7363" points="162,241.2 162,244.5 161.7,244.6 161.7,241.4 				"/>
				<polygon fill="#1C7363" points="160.3,242 160.3,245.2 159.9,245.3 159.9,242.1 				"/>
				<polygon fill="#1C7363" points="158.5,242.8 158.5,245.9 158.2,246 158.2,242.9 				"/>
				<polygon fill="#1C7363" points="156.7,243.6 156.7,246.6 156.4,246.8 156.4,243.7 				"/>
				<polygon fill="#1C7363" points="154.9,244.3 154.9,247.3 154.6,247.5 154.6,244.5 				"/>
				<polygon fill="#1C7363" points="153.1,245.1 153.1,248.1 152.8,248.2 152.8,245.3 				"/>
				<polygon fill="#1C7363" points="151.3,245.9 151.3,248.8 151,248.9 151,246 				"/>
				<polygon fill="#1C7363" points="149.6,246.7 149.6,247 149.4,246.8 				"/>
			</g>
			<g>
				<ellipse fill="#92190F" cx="145.6" cy="245.8" rx="15.4" ry="15.2"/>
				<ellipse fill="#FAEBEC" cx="145.6" cy="245.8" rx="13.7" ry="13.6"/>
				<ellipse fill="#D3B23F" cx="145.6" cy="245.8" rx="11.1" ry="10.9"/>
				<g>
					<path fill="#FFF100" d="M145.6,235c6.3,0,11.4,5,11.4,11.2c0,6.2-5.1,11.2-11.4,11.2c-6.3,0-11.4-5-11.4-11.2
						C134.3,240,139.4,235,145.6,235L145.6,235z"/>
					<path fill="#2E3191" d="M145.6,235.4c-6,0-11,4.9-11,10.8c0,6,4.9,10.8,11,10.8c6,0,11-4.9,11-10.8
						C156.6,240.3,151.7,235.4,145.6,235.4z"/>
					<path fill="#FFF100" d="M156.2,246h-2c-0.1-0.3-0.2-0.5-0.3-0.7c-0.5-1.3-1.2-2.3-2-2.8l-0.2-0.1l-0.2,0.1
						c-0.1,0-0.1,0.1-0.2,0.1c-0.1-0.5-0.3-0.9-0.5-1.4l2.3-2.3C155,240.8,156.1,243.3,156.2,246z"/>
					<path fill="#FFF100" d="M145.6,235.8c2.8,0,5.4,1.1,7.3,2.9l-2.3,2.3c-0.4-0.2-0.7-0.3-1.1-0.4l0.1-0.7l-0.1-0.1
						c0,0.1-0.3,0-0.3-0.3c-0.1,0,0.1-0.2-0.1-0.2l-0.1-0.2l-0.1,0l-0.2-0.3l0-0.1c-0.1-0.1-0.3,0-0.3,0c-0.1,0-0.3,0.1-0.3,0.1
						l-0.1,0l-0.1,0l-0.1,0.2c0,0.1,0,0.1,0,0.2c0.1,0,0.1,0.2,0.1,0.2l0,0.1c0,0.1,0.2,0,0.3,0.2l0.1,0.1c0,0.1,0,0.1,0.1,0.2
						l0.1,0.2l0.1,0l0.1,0.1l0.1,0c0.1,0.1,0,0.5,0,0.6l-0.1,0.1c-0.1,0-0.3,0.1-0.4,0.2c0.1,0,0,0.4,0.2,0.2c0,0.1,0.2,0.2,0.2,0.2
						l0,0.2c0.1,0.2,0.3,0.4,0.5,0.4c0.1,0,0.1,0.1,0.1-0.3l0-0.1c-0.1-0.3-0.1-0.5,0.2-0.2l0.1-0.1l0.1-0.1l0-0.3
						c0.3,0.1,0.5,0.2,0.8,0.3c0.2,0.5,0.4,1,0.5,1.5c-0.6,0.6-1.1,1.4-1.5,2.4c-0.5,1.2-0.8,2.7-0.8,4.3l0,0.1l-0.1-0.1
						c-0.1,0-0.1-0.2-0.2-0.2c0-0.1-0.1,0-0.1-0.1l-0.2-0.1l-0.1-0.1c-0.1,0-0.1-0.1-0.1-0.2c0.1,0,0.1-0.1,0.2-0.1l0-0.1l-0.1,0
						c0-0.1-0.1-0.2-0.1-0.3c-0.1,0-0.4-0.3-0.4-0.5c0-0.1-0.1-0.2-0.2-0.2c0-0.1-0.2-0.1-0.2-0.2c-0.1,0-0.1-0.1-0.1-0.1l-0.2-0.2
						c-0.1,0-0.2,0-0.4,0.1l-0.3,0.3l-0.3-0.3l0-0.3c-0.1,0-0.1,0-0.1-0.1l-0.1-0.1l-0.2-0.1c0-0.1,0.1-0.3,0.2-0.3l0.1-0.1
						l-0.1-0.1l-0.2,0.1l-0.1,0.1l-0.2,0.1l-0.1-0.1c0-0.1-0.1-0.2-0.1-0.2c0-0.2,0-0.5,0.3-0.6c0.2-0.1,0.3-0.1,0.4,0
						c0.3,0-0.1-0.1,0.5-0.1l-0.1,0.4l0.1,0.1c0.1,0,0.1,0,0.2,0l0.1-0.3c0-0.1,0-0.1,0-0.2c0-0.1,0.2,0,0.2-0.1l0.1-0.1
						c0.1,0,0.2,0,0.2-0.1c0,0,0-0.1,0.1-0.1c0-0.1,0.1-0.1,0.1-0.2l0.2-0.1l0-0.1l0.2-0.1l0.1-0.1c0-0.1,0.1-0.2,0.2-0.2l0.5,0.2
						c0.1-0.1,0.4-0.3,0.2-0.4c0-0.1-0.2,0-0.1-0.4l0.1-0.1l0.1,0l0.4,0.1c0,0.1-0.1,0.1-0.2,0.3c0.1,0,0,0.3,0,0.3l0,0.1
						c0.1,0,0.2,0.1,0.3,0.1c0,0,0.1,0,0.1,0c0,0,0.2-0.1,0.2-0.1c0-0.2,0-0.4-0.1-0.4c0-0.1,0.2-0.2,0.2-0.3c0-0.1-0.2-0.3-0.2-0.4
						c0-0.2-0.2-0.3-0.2-0.5c0-0.2,0.1-0.2,0.1-0.4l-0.1-0.2l-0.2,0l-0.1-0.1c-0.1-0.1-0.1-0.3-0.3-0.4c0-0.1-0.2,0-0.2-0.1
						c-0.2-0.1-0.3-0.1-0.4,0l-0.1,0.1l0,0.1l-0.1,0.1c-0.1,0.3-0.2,0.5-0.3,0.7l-0.1,0l0,0.4l-0.1,0.1c-0.1,0-0.1-0.5-0.2-0.5
						c0-0.1,0.1-0.2,0-0.2l-0.2-0.1l-0.1-0.1c-0.1,0,0-0.6-0.2-0.6c0-0.1,0.1-0.2,0.1-0.3l0.2-0.2l0-0.1l0-0.1
						c0.1,0,0.3-0.4,0.5-0.4c0-0.1,0.4-0.1,0.5-0.1c0.1-0.1,0.1-0.2,0.1-0.2l0-0.6l-0.3,0.2c-0.1-0.1-0.1-0.1-0.1-0.1
						c-0.1-0.1-0.2-0.2-0.2-0.5c0-0.1,0.2-0.3,0.1-0.3l-0.2,0.1c-0.1,0.1-0.3,0.2-0.1,0.5c0.1,0.1-0.1,0.2-0.2,0.2l-0.1,0l-0.1,0
						c0,0.1-0.2,0-0.3,0.1l-0.3-0.1c0,0-0.2-0.1-0.3-0.1l-0.3,0l-0.2-0.3c-0.1,0-0.2,0-0.2-0.1l0-0.2c0,0-0.2-0.1-0.2-0.2
						c-0.2,0-0.1-0.2-0.2-0.3c-0.5,0-1.2-0.1-1.5-0.5l0-0.1c-0.1,0-0.4-0.3-0.4-0.3l-0.1-0.1c-0.2,0-0.4,0.1-0.5,0.1
						c-0.1,0.1-0.3,0.3-0.5,0.3c-0.1,0-0.1,0.1-0.1,0.3l0.1,0c0,0.1,0.1,0.2,0.1,0.3l-0.1,0.1c-0.1,0-0.1,0-0.2,0l-0.1,0.2l-0.1,0
						l0,0.2l0.1,0l0.1,0.3c-0.1,0.2-0.4,0.2-0.6,0.3c-0.1,0-0.2,0.2-0.1,0.3c0.1,0.1,0.2,0.2,0.2,0.2l0.3,0.3c0,0,0,0.1,0,0.1
						c-0.1,0-0.1,0-0.2,0.1c0,0,0,0-0.1,0c0,0,0,0,0,0.1c-0.1,0-0.2,0.1-0.2,0.1c-0.1,0-0.3,0-0.3,0.1l0,0.1c-0.1,0-0.2,0.1-0.2,0.1
						l-2.3-2.2C140.2,236.9,142.8,235.8,145.6,235.8z"/>
					<path fill="#FFF100" d="M145.2,249.5l0.2,0.4c0,0.1,0,0.3,0.2,0.3c0,0.1,0,0.2,0.1,0.2l-0.1,0.1l-0.1,0.2
						c0,0.1-0.3,0.5-0.3,0.6c-0.1,0.1,0,0.3-0.1,0.4l-0.1,0.1c-0.1,0.1-0.1,0.2-0.2,0.3c-1.3-0.1-2.7-0.5-4.1-1
						c-0.2-0.4-0.3-0.8-0.5-1.2c0.5,0,1-0.1,1.5-0.3c0.5-0.2,0.9-0.5,1.3-0.9l0.2-0.2l-0.2-0.2l-1.2-1.1l-0.2,0.3
						c-0.2,0.2-0.4,0.3-0.6,0.4c-0.2,0.1-0.5,0.2-0.7,0.2c-0.2,0-0.3,0-0.5-0.1c-0.2-1.1-0.1-2.3,0-3.4c0.1,0,0.3-0.1,0.5-0.1
						c0.3,0,0.5,0.1,0.7,0.2c0.2,0.1,0.4,0.3,0.6,0.4l0.2,0.3l1.4-1.3l-0.2-0.2c-0.3-0.4-0.8-0.7-1.3-0.9c-0.5-0.2-0.9-0.3-1.5-0.3
						c0.1-0.4,0.3-0.7,0.4-1.1c0.3-0.1,0.6-0.2,0.9-0.4c0.3,0,0.5-0.1,0.6-0.2c0.3-0.1,0.6-0.2,1-0.2c0,0.1,0.1,0.1,0.1,0.1
						c0,0.3,0,0.7,0,0.9c0.3,0.3,0.3,0.6,0.3,1.1c-0.1,0.2-0.2,1-0.1,1.1l0.1,0c0,0.1-0.1,0.5,0.1,0.5c0.3,0.3,0.2,0.6,0.2,0.7
						c0,0.1,0,0.2,0.2,0.4c0.1,0.6,0.1,0.2,0.2,0.2c-0.1-0.3,0-0.6-0.1-0.7l-0.1-0.1l0-0.2l0.1,0c0,0,0.1,0.1,0.1,0.1
						c0.1,0.1,0.1,0.2,0.1,0.3c0.1,0.1-0.1,0.4,0.1,0.4l0,0.2l0,0.3c0.2,0.3,0.5,0.7,0.9,0.6l0.2,0.2c0,0.2,0.1,0.4,0.2,0.5l0.1,0.1
						c0,0,0,0.2,0.3,0.2c0.1,0,0.1,0.1,0.1,0.1l0.1,0.2l-0.1,0.1l-0.2,0.1c-0.1-0.1-0.3,0.1-0.4,0.1c-0.1,0.5-0.1,0.4-0.3,0.5
						C145,249.1,145.1,249.3,145.2,249.5z"/>
					<path fill="#FFF100" d="M138.1,239l2.2,2.2c-0.2,0.4-0.3,0.9-0.5,1.3c-0.9,0.1-1.7,0.5-2.3,1.1c-0.6,0.6-1,1.5-1.1,2.4h-1.4
						C135.2,243.3,136.3,240.8,138.1,239z"/>
					<path fill="#FFF100" d="M139.3,246h-0.8c0-0.4,0.2-0.8,0.5-1.1c0.1-0.1,0.3-0.2,0.4-0.3C139.3,245.1,139.3,245.5,139.3,246z"/>
					<path fill="#FFF100" d="M139.4,247.7c-0.1-0.1-0.3-0.2-0.4-0.3c-0.3-0.3-0.4-0.6-0.5-1h0.8
						C139.3,246.9,139.3,247.3,139.4,247.7z"/>
					<path fill="#FFF100" d="M135.1,246.5h1.4c0.1,0.9,0.5,1.7,1.1,2.4c0.6,0.6,1.4,1,2.3,1.1c0.1,0.4,0.3,0.9,0.5,1.3l-2.3,2.2
						C136.3,251.6,135.2,249.1,135.1,246.5z"/>
					<path fill="#FFF100" d="M145.6,256.6c-2.9,0-5.4-1.1-7.3-3l2.3-2.2c1.3,0.5,2.6,0.8,3.9,1c0,0.1,0,0.1,0,0.2l-0.1,0.1
						c0,0.2-0.1,0.4-0.1,0.7l0,0.1l0.1,0l0,0.1l0.1,0.1c0,0,0.2,0,0.2-0.1c0.1-0.1,0.1-0.2,0.2-0.2l0-0.2l0.1,0l0-0.1
						c0.1,0,0.2-0.3,0.3-0.4l0.1,0l0-0.1c0.1,0,0-0.2,0.1-0.2c0,0,0-0.1,0.1-0.1c1.7,0,3.5-0.3,5.2-1.1l2.3,2.3
						C151.1,255.5,148.5,256.6,145.6,256.6z"/>
					<path fill="#FFF100" d="M153.3,253.4l-2.3-2.3c0.3-0.7,0.5-1.4,0.7-2.2l1.3,0c0,0,0,0.1,0,0.2c0,0.2,0,0.3,0,0.5v0.3h1.8l0-0.4
						c0-1.1-0.2-2.1-0.4-3.1h1.8C156.1,249.1,155,251.6,153.3,253.4z"/>
					<path fill="#EC1C24" d="M140.2,242.8c1,0,1.9,0.4,2.5,1.1l-0.9,0.9c-0.4-0.4-1-0.7-1.6-0.7c-1.2,0-2.2,1-2.2,2.1
						c0,1.2,1,2.1,2.2,2.1c0.6,0,1.2-0.3,1.6-0.7l0.9,0.9c-0.6,0.7-1.5,1.1-2.5,1.1c-1.9,0-3.4-1.5-3.4-3.4
						C136.8,244.3,138.3,242.8,140.2,242.8L140.2,242.8z"/>
					<path fill="#EC1C24" d="M151.7,242.8c-1.5,0.9-2.6,3.7-2.7,6.8h1.1c0-0.3,0-0.6,0.1-1l2.9,0c0.1,0.3,0.1,0.6,0.1,0.9h1.1
						C154.4,246.5,153.3,243.7,151.7,242.8L151.7,242.8z"/>
					<path fill="#FFF100" d="M149,250.1L149,250.1c-0.1-0.1-0.1-0.1-0.2-0.2h1.7l0-0.3c0-0.1,0-0.3,0-0.4c0-0.1,0-0.1,0-0.2l0.6,0
						c-0.2,0.7-0.4,1.4-0.7,2.1c-1.4,0.6-2.8,1-4.2,1c0.1-0.1,0.2-0.2,0.2-0.2c0.1,0,0.2,0,0.2-0.1c0.1,0,0.1-0.1,0.1-0.1l0.1-0.2
						c0-0.1,0.5-0.4,0.5-0.3c0.2,0,0.4,0,0.6,0c0,0,0.2-0.2,0.3-0.2c0-0.1,0.1,0,0.1-0.1c0.1,0,0.1-0.1,0.1-0.1l0.1-0.1l0.1-0.1
						c0.1,0,0.3-0.2,0.3-0.1l0.1-0.1C149,250.4,149,250.2,149,250.1z"/>
					<path fill="#2E3191" d="M145.9,238.5l-0.1,0.4c0.3,0.1,0.3,0.2,0.2,0.3c-0.1,0.1,0,0.2,0.3,0.3c0.4,0.2,0.7,0.3,0.7,0.1
						l-0.1-0.4c-0.1-0.1,0-0.3,0-0.4c0.1-0.2,0-0.4-0.4-0.6C146.3,238.1,146.1,238.2,145.9,238.5z"/>
					<path fill="#2E3191" d="M145.4,238.7l0.5-0.4l0.1-0.5c-0.1-0.1-0.2-0.1-0.4-0.1c-0.1,0.2-0.2,0.3-0.3,0.5l-0.1,0.2
						C145.2,238.7,145.3,238.8,145.4,238.7z"/>
					<path fill="#2E3191" d="M151.8,245.1c-0.3,0.4-0.6,1-0.8,1.9h1.7C152.3,246.1,152.1,245.5,151.8,245.1L151.8,245.1z"/>
					<path fill="#FFF100" d="M152.1,246.7h-0.2c0-0.1,0-0.1,0-0.2h0.2C152.1,246.5,152.1,246.6,152.1,246.7z"/>
					<path fill="#FFF100" d="M151.5,246.3c0,0.1,0,0.2,0,0.3h-0.1C151.5,246.5,151.5,246.4,151.5,246.3z"/>
				</g>
			</g>
		</g>
		<path fill="#282828" d="M58.8,287.7c0,0-0.6,37.5-3.2,54.7c0,0,5,2.3,17.6,2.3c0,0,25.6,3,28.4-0.3l-0.8-37.7L58.8,287.7z"/>
		<path fill="#282828" d="M101.1,164.1v161.6H60.4c0,0-12.4-117.9,28.4-161.6H101.1z"/>
		<path fill="#282828" d="M238.8,292.2c0,0,0,38.4,4,51.2c0,0-9.4,2.5-22,2.5c0,0-23.6,1.8-26.4-1.5l0.8-37.7L238.8,292.2z"/>
		<path fill="#282828" d="M195,164.1v161.6h43.6c0,0,7.3-134-31.4-161.6H195z"/>
		<polygon fill="#2D2D2D" points="100.3,164 78.5,192.6 99,194.1 78.5,220.1 100.3,299.8 		"/>
		<polygon fill="#2D2D2D" points="194.8,164 216.7,192.6 196.1,194.1 216.7,220.1 194.8,299.8 		"/>
		<g>
			<path fill="#F4B07D" d="M185.8,147.8c0,0-6,20.3-38.3,20.3c-31.9,0-38.3-20.3-38.3-20.3s11.7,14.9,39.7,14.9
				C148.8,162.8,167.5,164.5,185.8,147.8z"/>
		</g>
		<path fill="#1C7363" d="M148,167.4c-0.8,0-1.5,0-2.3-0.1l0,0c-0.3,0-0.7,0-1,0l0,0c-1,0-2-0.1-2.9-0.1c0,0-0.1,0-0.1,0
			c-30.7-1.7-53.3-12.3-53.3-12.3l-0.5,9.5c21.2,14.5,41.8,17.9,52.4,18.6c2,0.2,4.1,0.2,5.7,0.2c1.1,0,1.6,0,1.6,0
			c30.7,0,58.4-18.6,58.4-18.6l0.1-10.2C183.6,164.4,165.9,167.6,148,167.4z"/>
	</g>
</g>
</svg>
