<?xml version="1.0" encoding="utf-8"?>
<!-- Generator: Adobe Illustrator 16.0.0, SVG Export Plug-In . SVG Version: 6.00 Build 0)  -->
<!DOCTYPE svg PUBLIC "-//W3C//DTD SVG 1.1//EN" "http://www.w3.org/Graphics/SVG/1.1/DTD/svg11.dtd">
<svg version="1.1" id="Layer_1" xmlns="http://www.w3.org/2000/svg" xmlns:xlink="http://www.w3.org/1999/xlink" x="0px" y="0px"
	 width="494px" height="309px" viewBox="0 0 494 309" enable-background="new 0 0 494 309" xml:space="preserve">
<g>
	<rect x="0.4" y="0.5" fill="#DDDDDD" width="493.9" height="307.7"/>
	<g>
		<path fill="#719367" d="M82.8,278c-1.1-13.7-15.8-24.6-33.7-24.6c-8.4,0-16,2.4-21.9,6.3c-0.4,0-0.8,0-1.2,0
			c-10.9,0-20.4,4-25.5,9.8v11.2v8.4v19.2h45.9h6.4h14.1h33.7h2.3c3.3-3.1,5.2-6.9,5.2-11C107.9,287.6,97,279.5,82.8,278z"/>
		<path fill="#719367" d="M469,259.7c-0.4,0-0.8,0-1.2,0c-5.9-3.9-13.5-6.3-21.9-6.3c-17.9,0-32.5,10.9-33.7,24.6
			c-14.3,1.6-25.2,9.6-25.2,19.3c0,4.1,1.9,7.8,5.2,11h2.3h33.7h14.1h6.4h45.9V289v-8.4v-11.2C489.4,263.6,479.9,259.7,469,259.7z"
			/>
	</g>
	<path fill="#B7B7B7" d="M489.3,0.7H2v84h67.6c-1.6,2.6-2.4,5.4-2.4,8.2c0,18.6,36,33.7,80.4,33.7c39.7,0,72.7-12.1,79.2-28
		c7.4,2,15.6,3.6,24.4,4.5c-1.4,2.5-2.2,5.1-2.2,7.8c0,18.6,36,33.7,80.4,33.7c44.4,0,80.4-15.1,80.4-33.7
		c0-10.6-11.7-20.1-29.9-26.2h109.5V0.7z"/>
	<g>
		<rect x="291" y="278.1" fill="#839093" width="32.3" height="17.8"/>
		<rect x="171.9" y="278.1" fill="#839093" width="32.3" height="17.8"/>
		<g>
			<path fill="#8C7A55" d="M245.8,66.5c0,0,0.9,2.3,1,3c0,0-0.2,0.7,0.1,1c0,0,0.1,0.7,0,1c0,0-0.6,0-0.6,0.5l2.3-0.2
				c0,0,0.1-0.1-0.2-0.3c0,0,0-1.5-0.4-2.2c0,0-0.2-1.2,0-1.5C248,67.7,246.5,66.2,245.8,66.5z"/>
			<path fill="#8C7A55" d="M250.8,65.8c0,0,0.2,1.1,0.4,1.5c0,0,0.1,0.5,0.1,1c0,0-0.1,0.4,0.2,0.9c0,0,0.3,1.1,0.4,1.5
				c0,0,0,0.4,0.2,0.9c0,0,0,0.1,0,0.1c0.2,0.6,0.4,0.7,0.7,0.5c0,0,0.2,0.3,0.3-0.2c0,0,0.1-0.1,0.2-0.4c0,0,0.1-0.2,0.1-0.4
				c0,0,0.3-0.7-0.1-1.3c0,0-0.3-0.4-0.4-0.8c0,0-0.1-0.4-0.2-0.7c0,0-0.1-1.6,0.1-2.3c0,0-0.5,0.2-1.1-0.1
				C251.7,66.2,251.3,66.2,250.8,65.8z"/>
			<path fill="#8C7A55" d="M248.8,51.7c0,0-0.5-2.1-0.4-3.1c0,0,0.6,3.1,1,3.6l-0.5,0L248.8,51.7z"/>
			<path fill="#8C7A55" d="M243.2,47c0,0,0.8-2.3,2.5-1.1"/>
			<g>
				<path fill="#8C7A55" d="M242.3,52.4c0,0-0.4,0.4-1.3-0.1c0,0-1.5,1.2-1.9-0.7c0,0-1.7,0.9-1.4-1c0,0-1.8,0.8-1.5-0.8
					c0,0-1.4-0.7-0.4-2.2c0,0-2.8-0.4-2.4-2.1c0,0-2.5,0.4-2.3-1.5c0,0-1.3-1-0.5-1.5c0,0-5.1-0.8-3.7-3.3c0,0-3.2-0.6-2.4-3
					c0,0-2-1.7,0-2.3c0,0-1.6-1.8-0.5-2.8c0,0,1.4,0.5,2.5,1.9c0,0,5.9,3.5,7,4.7c0,0,4,2.7,5.1,5.2c0,0,1,1.5,1.4,1.6
					c0,0,2.4,0.7,3,2.2C243.3,46.7,244.4,51.4,242.3,52.4z"/>
				<path fill="#8C7A55" d="M246.9,46.2c0,0,0.6-4,3.2-5c0,0,0.6-0.1,0.9,0.1c0,0,3.1,0.1,3.5-0.2c0,0,2.8-0.6,3.2-0.3
					c0,0,0.9,0.3,0.3,0.8c0,0,0.1,0.7-2.4,1.2c0,0,1.8,0,1.6,0.8c0,0,0.3,0.3-1.3,0.7l-0.6,0.2c0,0,0.2,0.8-0.6,1
					c0,0-0.1,0.2-0.7,0.3c0,0-0.2,0.1,0.2,0.5c0,0,0.4,0.2,0,0.6c0,0-0.6,0.6-1.3,0.1c0,0-0.5-0.1-0.6-0.1c0,0-0.2,0.5-0.5,0.6
					c0,0,0.3,0.9-0.9,0.9c0,0,0,0.9-1.1,1C249.8,49.5,246.1,49.2,246.9,46.2z"/>
				<path fill="#8C7A55" d="M241.7,56.8c0,0-0.6,0-0.7-1c0,0-0.5-0.2-0.2-0.9c0,0,0-1.2,0.8-1.8c0,0,1.1-1.3,2.7-1.8
					c0,0,1.2-0.3,1.6-0.7c0,0,1.6-0.7,2.2-0.1c0,0,0.5,0.2,0.3,0.8c0,0,0.6,0.2,0.3,0.7c0,0,0.7,0.2,0.9,0.7c0,0,0.3,0.5,0.4,0.7
					c0,0,0.7,1.1,0,2.3c0,0,0.1,0.5,0.4,0.9c0,0,1.2,1.1,0.9,1.9c0,0,0.7,0.7,0.5,1.8c0,0,0.1,0.7,0.2,0.9c0.1,0.2,0,0.1,0,0.1
					s1.3,0.2,2.1,1.3c0,0,0.7,0.7,0.8,1.2c0,0,0.5,0.3,0,1.1c0,0-0.2,1-0.7,1.3c0,0-0.5,0.3-1.3,0c0,0-1.1,0.6-2.3-0.3
					c0,0-0.2,0.1-0.5-0.1c0,0-0.3,0.1-0.3,0.2c0,0,0.5,2.4,0,3.3c0,0-0.7,1-0.8,1.6c0,0,0.1,0.7-0.1,1h-4.3l0-0.3c0,0-1.1-0.3-1-2.1
					c0,0-0.9,0.5-1.3-1c0,0-0.7-0.2-0.2-0.7c0,0,0-0.6-0.6-0.7c0,0-1.6-0.2-1.8-1c0,0-0.9,0.2-1.2-0.9c0,0-0.7-0.9-0.3-1.7
					c0,0,0.5-1.1,1.5-0.7c0,0,0-1.4,0.7-2.3c0,0-0.2-0.2-0.1-0.5c0,0-0.6-0.8,0-1.8C240.6,58.4,241.4,57.1,241.7,56.8z"/>
				<g>
					<path fill="#8C7A55" d="M240.5,33.1C240.5,33.1,240.5,33.1,240.5,33.1C240.5,33.1,240.5,33.1,240.5,33.1z"/>
					<path fill="#8C7A55" d="M240.5,33.1C240.5,33.1,240.5,33.1,240.5,33.1C240.5,33.1,240.5,33.1,240.5,33.1z"/>
					<path fill="#8C7A55" d="M256.2,51.5c0.2-0.4-0.7-0.5-0.7-0.5c-0.3-0.2-1.1,0.8-1.1,0.8c-1.5,0.5-3.7-0.4-3.7-0.4
						c-0.3-0.1-1.5-3.4-1.5-3.4c-0.1-0.2,0.1-0.7,0.1-0.7c0.2-1.2-1.4-1.1-1.4-1.1c-0.2-0.1-1-0.5-1-0.5c-0.6-0.4-0.3-1.6-0.3-1.6
						c0.8-0.2,0.9-0.6,0.9-0.6c0.5-0.6,0.3-0.8,0.3-0.8c0.3-0.7-0.2-1-0.2-1c0.1-0.4-0.1-0.6-0.1-0.6c-0.2-0.1-0.2-0.4-0.2-0.4
						c-0.8-1-1.4-0.6-1.4-0.6l-0.1-0.2c-0.1-0.5-1.3,0.1-1.3,0.1c-0.8,0.2-0.5,0.5-0.5,0.5c0,0.2-0.2,0.4-0.2,0.4
						c-0.2,0-0.3,0.1-0.6,0.6c0,0,0,0.1,0,0.1c-0.2,0.5,0.3,0.9,0.3,0.9c0,0.6,0.5,1.3,0.5,1.3c0.2,0,0.5,0.3,0.5,0.3
						c0.2,1.1-0.5,0.8-0.5,0.8c-0.2-0.3-1-0.6-1-0.6c-0.3-0.1-0.8-0.6-0.8-0.6c-0.2-0.6-1.2-1.8-1.2-1.8c0-0.8-0.5-4.1-0.5-4.1
						c0-0.4,0.1-0.9,0.1-0.9c0.4-0.1,0.4-0.7,0.4-0.7l0.1-0.1c0.2,0.1,0.2,0.4,0.5,0.2c0.3-0.2-0.1-0.3-0.1-0.3l0.2-0.1
						c1,0,0.4-0.2,0.4-0.2c0.1-0.1,0.2-0.2,0.2-0.2c0.2-0.3,0.4-0.7,0.4-0.7s-0.1,0,0-0.1c0.1-0.1,0.2-0.4,0.2-0.4
						c0-0.2,0.1-0.7,0.1-0.7c0.2-0.7-0.3-0.4-0.3-0.4c0-0.2-0.2-0.4-0.2-0.4c0-0.3-0.1-0.2-0.1-0.2c-0.3-0.5-0.4,0-0.4,0
						c-0.1-0.1-0.7-0.2-0.7-0.2c-0.2-0.1-0.1,0.3-0.1,0.3c-0.2-0.2-0.8,0-0.8,0c-0.3-0.1-0.7,0.3-0.7,0.3v-0.2
						c-0.1-0.1-0.5,0.1-0.5,0.1c-0.5,0.2-0.5,0.9-0.5,0.9c-0.3-0.1-0.4,0.5-0.4,0.5l-0.2,0c-0.5-0.5-0.2,0.2-0.2,0.2
						c-0.2,0.1,0.4,1,0.4,1l-0.2,0c-0.2,0.1,0.4,0.4,0.4,0.4c-0.1,0.2,0.3,0.3,0.3,0.3c-0.2,0.1-0.2,0.2-0.2,0.2
						c-0.2,0.4,0.7,0,0.7,0c0,0.1,0.2,0.2,0.2,0.2c0,0.6-0.2,3.8-0.2,3.8c-0.2,0.7,0.5,2.3,0.5,2.3c0.6,1.9,2.4,4,2.4,4
						c0.6,0.6,1.2,3,1.2,3c0.4,0.9,0,1.5,0,1.5c-0.7,0.8-0.6,1.4-0.6,1.4l7.7,0.7c0.3,0,1.2,0.1,1.2,0.1c0.4,0.1,3.1-0.3,3.1-0.3
						c0.5,0.2,0.7-0.1,0.7-0.1c0,0.4,0.2,0.4,0.2,0.4c-0.1,0.1,0.1,0.5,0.1,0.5c-0.1,0.1,0.1,0.3,0.1,0.3c-0.2,0.1-0.1,0.7-0.1,0.7
						c0.2,0.2,0.2-0.1,0.2-0.1c-0.1-0.1,0-0.3,0-0.3c0.1-0.2,0.4,0.1,0.4,0.1c0.2-0.3-0.1-0.7-0.1-0.7c0.3-0.4,0-0.8,0-0.8l0.2-0.2
						c0.2-0.1,0.1-0.3,0.1-0.3c0.1-0.2,0-0.3,0-0.3c0.1-0.1,0-0.2,0-0.2C256.2,51.7,256.2,51.5,256.2,51.5z M239.8,34.6l-0.1,0.3
						c0,0-0.2-0.1-0.3,0.1c0,0-0.4-0.2-0.6,0.1l-0.1-0.2c0,0,0.4-0.1,0.4-0.3c0,0,0-0.1-0.1-0.2c0,0-0.1-0.1,0.1-0.1
						c0,0,0.5,0.1,0.9-0.3c0,0,0.2-0.2,0-0.4c0,0,0.1-0.2,0.1-0.5c0,0,0.2,0,0.2,0.1c0,0,0-0.1,0-0.1s0.2,0.1,0.3,0.3
						c0,0,0,0.5,0.5,0.5c0,0,0.2,0.3,0.3,0.4c0,0-0.3-0.1-0.2,0.1c0,0-0.2,0-0.3,0.4c0,0-0.1,0.1-0.2,0.2c0,0,0-0.5-0.3-0.3
						c0,0-0.2,0.1-0.2,0.4C240.2,34.9,239.9,34.4,239.8,34.6z"/>
				</g>
			</g>
		</g>
		<path fill="#8C7A55" d="M253.6,75c0,1.9-1.5,3.5-3.5,3.5H243c-1.9,0-3.5-1.5-3.5-3.5l0,0c0-1.9,1.5-3.5,3.5-3.5h7.2
			C252.1,71.5,253.6,73.1,253.6,75L253.6,75z"/>
		<g>
			<path fill="#9AAEB5" d="M175.5,277.4L175.5,277.4l0.1,0.6h4.7h0.5h4.7v-0.6h0.1c0-1.5-1.2-2.1-1.7-2.3v-2.2h0.2
				c0.5,0,0.9-0.4,0.9-0.9c0-0.5-0.4-0.9-0.9-0.9h-0.7c1.1-1,0.6-2.1,0.4-2.5c0.1-0.1,1.4-1.1,1.6-1.6c0.2-0.6,0-1.5-2.1-1.5h0.6
				l-0.6-1l-1.5-15.7c-0.1-0.9-0.9-0.9-1.2-0.9c-0.3,0-1.1,0-1.2,0.9l-1.5,15.7l-0.6,1h0.6c-2.1,0-2.3,0.9-2.1,1.5
				c0.2,0.5,1.5,1.5,1.6,1.6c-0.3,0.4-0.7,1.5,0.4,2.5h-0.7c-0.5,0-0.9,0.4-0.9,0.9c0,0.5,0.4,0.9,0.9,0.9h0.2v2.2
				C176.7,275.3,175.5,276,175.5,277.4z"/>
			<path fill="#9AAEB5" d="M305.9,277.4L305.9,277.4l0.1,0.6h4.7h0.5h4.7v-0.6h0.1c0-1.5-1.2-2.1-1.7-2.3v-2.2h0.2
				c0.5,0,0.9-0.4,0.9-0.9c0-0.5-0.4-0.9-0.9-0.9h-0.7c1.1-1,0.6-2.1,0.4-2.5c0.1-0.1,1.4-1.1,1.6-1.6c0.2-0.6,0-1.5-2.1-1.5h0.6
				l-0.6-1l-1.5-15.7c-0.1-0.9-0.9-0.9-1.2-0.9c-0.3,0-1.1,0-1.2,0.9l-1.5,15.7l-0.6,1h0.6c-2.1,0-2.3,0.9-2.1,1.5
				c0.2,0.5,1.5,1.5,1.6,1.6c-0.3,0.4-0.7,1.5,0.4,2.5h-0.7c-0.5,0-0.9,0.4-0.9,0.9c0,0.5,0.4,0.9,0.9,0.9h0.2v2.2
				C307.1,275.3,305.9,276,305.9,277.4z"/>
			<path fill="#9AAEB5" d="M384.1,308.4c0-12.2-26.5-14.9-26.5-14.9l-2.6-0.2v-0.6h-2.2v-0.6h-2.4v-0.8h-2.7v-0.9h-2.1v-0.8h-2.4v-1
				h-2.4v-0.7h-2.2v-1h-2.3V286h-4.1v-1h-1v-1.2l-0.3,0.1v-5.8c0-1.7-1-2.6-1-2.6v-0.8h0.1c0-1.8-1.4-2.6-2-2.8v-2.6h0.2
				c0.6,0,1.1-0.5,1.1-1.1c0-0.6-0.5-1.1-1.1-1.1h-0.9c1.3-1.2,0.8-2.5,0.4-3c0.2-0.1,1.7-1.3,1.9-1.9c0.3-0.7,0-1.8-2.5-1.8h0.7
				l-0.7-1.3l-1.8-18.9c-0.1-1.1-1.1-1.1-1.4-1.1c-0.4,0-1.3,0-1.4,1.1l-1.8,18.9l-0.7,1.3h0.7c-2.5,0-2.8,1.1-2.5,1.8
				c0.3,0.6,1.8,1.8,1.9,1.9c-0.3,0.5-0.9,1.8,0.4,3h-0.9c-0.6,0-1.1,0.5-1.1,1.1c0,0.6,0.5,1.1,1.1,1.1h0.2v2.6c-0.6,0.3-2,1-2,2.8
				h0.1v0.8c0,0-1,0.8-1,2.6v5.8l-0.3-0.1v1.2h-1v4.2h-8.6l-0.8-0.8H304v-1.3h-2.5v-1h-2.3v-1.7h-5.4v-5h-1.7l-2.2-10h-2.5v-3.1
				h-19.1v-25.9l2.1-5.6h-2.9v-2.7h-2v-2.6h1.3v-2.1h-3.3c0.6-1.2,1.1-3.7,1.1-6.5c0-3.3-0.6-6.1-1.4-7c0.4-0.2,0.7-0.7,0.7-1.2
				c0-0.7-0.6-1.3-1.3-1.3c-0.7,0-1.3,0.6-1.3,1.3c0,0.5,0.3,1,0.7,1.2c-0.8,0.9-1.4,3.7-1.4,7c0,2.8,0.4,5.3,1.1,6.5h-3v-1.9h-1.4
				v-6.1l-2.5-2.3c0.8-0.3,1.4-1,1.4-1.9c0-1.1-0.9-2-2-2h0.1V111.8c0.8-0.3,1.4-1.1,1.4-2.1c0-1.1-0.8-2-1.9-2.2
				c0.2-0.3,0.4-0.6,0.4-0.9c0-0.8-0.7-1.5-1.5-1.5c0-2.5,2.4-1.1,2.4-1.1c2.1-1.1-0.3-2.2-0.3-2.2c-0.1-1.8,3.1-3.9,3.1-3.9
				c2.7-2.6,0.7-5,0.7-5c0.8-1.7-1-2.2-1-2.2l1.7-1.7h-1.2v-6.5h-0.3h-0.4v0.2H235v-0.2h-0.3h-0.4V89h-0.6l1.7,1.7
				c0,0-1.8,0.6-1,2.2c0,0-2,2.4,0.7,5c0,0,3.2,2.1,3.1,3.9c0,0-2.4,1.1-0.3,2.2c0,0,2.4-1.4,2.4,1.1c-0.8,0-1.5,0.7-1.5,1.5
				c0,0.4,0.1,0.7,0.3,0.9c-1.1,0.1-2,1.1-2,2.2c0,0.8,0.4,1.4,1,1.8v101.6h-0.6c-1.1,0-2,0.9-2,2c0,0.9,0.5,1.6,1.3,1.9h-0.2
				l-2.9,2.4h0.1v6.1h-1v1.9h-1.6c0.6-1.2,1.1-3.7,1.1-6.5c0-3.3-0.6-6.1-1.4-7c0.4-0.2,0.7-0.7,0.7-1.2c0-0.7-0.6-1.3-1.3-1.3
				c-0.7,0-1.3,0.6-1.3,1.3c0,0.5,0.3,1,0.7,1.2c-0.8,0.9-1.4,3.7-1.4,7c0,2.8,0.4,5.3,1.1,6.5h-3.7v2.1h0.8v2.6h-2v2.7h-3.3
				l2.5,6.7h0.1v25.2l-0.1-0.4H204v3.1h-2.5l-2.2,10v5h-6.9v1.7h-2.3v1h-2.5v1.3h-1.9l-0.8,0.8h-8.6V285h-1v-1.2l-0.3,0.1v-5.8
				c0-1.7-1-2.6-1-2.6v-0.8h0.1c0-1.8-1.4-2.6-2-2.8v-2.6h0.2c0.6,0,1.1-0.5,1.1-1.1c0-0.6-0.5-1.1-1.1-1.1h-0.9
				c1.3-1.2,0.8-2.5,0.4-3c0.2-0.1,1.7-1.3,1.9-1.9c0.3-0.7,0-1.8-2.5-1.8h0.7l-0.7-1.3l-1.8-18.9c-0.1-1.1-1.1-1.1-1.4-1.1
				c-0.4,0-1.3,0-1.4,1.1l-1.8,18.9l-0.7,1.3h0.7c-2.5,0-2.8,1.1-2.5,1.8c0.3,0.6,1.8,1.8,1.9,1.9c-0.3,0.5-0.9,1.8,0.4,3h-0.9
				c-0.6,0-1.1,0.5-1.1,1.1c0,0.6,0.5,1.1,1.1,1.1h0.2v2.6c-0.6,0.3-2,1-2,2.8h0.1v0.8c0,0-1,0.8-1,2.6v5.8l-0.3-0.1v1.2h-1v1h-4.1
				v0.7H153v1h-2.2v0.7h-2.4v1h-2.4v0.8h-2.1v0.9h-2.7v0.8h-2.4v0.6h-2.2v0.7c0,0-26.5,2.6-26.5,14.9h10.6v0.1h123h4.4h123v-0.1
				H384.1z M236.5,88.1v-5h1v5H236.5z M238,83.1h1v5h-1V83.1z M239.3,83.1h1v5h-1V83.1z M240.8,83.1h1v5h-1V83.1z M242.3,83.1h1v5
				h-1V83.1z M243.7,83.1h1v5h-1V83.1z M245.1,83.1h1v5h-1V83.1z M246.6,83.1h1.2v5h-1.2V83.1z M248.2,83.1h1v5h-1V83.1z
				 M249.7,83.1h1v5h-1V83.1z M251.1,83.1h1v5h-1V83.1z M252.5,83.1h1v5h-1V83.1z M253.9,83.1h1v5h-1V83.1z M255.3,83.1h1v5h-1V83.1
				z M256.8,83.1h0.6v5h-0.6V83.1z M236.1,83.1v5h-1v-5H236.1z M235,89v-0.5h22.4V89h-11.2H246H235z"/>
			<circle fill="#9AAEB5" cx="234.7" cy="81.9" r="0.6"/>
			<circle fill="#9AAEB5" cx="257.8" cy="81.9" r="0.6"/>
		</g>
		<rect x="239.6" y="74.6" fill="#8A9A9E" width="14" height="14.6"/>
	</g>
	<g>
		<path fill="#939292" d="M491.7,0.7c-16.7,0-31.9,3-43.2,8c-5.2-0.7-10.7-1-16.4-1c-30,0-55.2,9.8-61.8,23c-0.4,0-0.8,0-1.3,0
			c-35.1,0-63.6,13.4-63.6,30c0,5.2,2.8,10,7.6,14.3c-14.3,2.2-24.7,8.5-24.7,16c0,9.3,15.9,16.8,35.6,16.8c4.4,0,8.5-0.4,12.4-1
			c8.1,12.2,32.2,21,60.7,21c23.2,0,43.5-5.9,54.6-14.6c10.5,5.8,25.5,9.7,42.5,10.5V85.7V63.8v-3.2V44.2v-2.5V31.2V0.7
			C493.4,0.7,492.5,0.7,491.7,0.7z"/>
		<path fill="#939292" d="M180.6,74.9c4.9-4.2,7.6-9.1,7.6-14.3c0-16.6-28.5-30-63.6-30c-0.4,0-0.8,0-1.3,0
			c-6.7-13.2-31.8-23-61.8-23c-5.7,0-11.1,0.3-16.4,1c-11.3-5-26.5-8-43.2-8c-0.8,0-1.7,0-2.5,0v30.5v10.4v2.5v16.5v3.2v21.9v37.8
			c17-0.8,32.1-4.7,42.5-10.5c11.1,8.8,31.4,14.6,54.6,14.6c28.5,0,52.6-8.9,60.7-21c3.9,0.7,8,1,12.4,1c19.6,0,35.6-7.5,35.6-16.8
			C205.3,83.4,194.9,77.1,180.6,74.9z"/>
	</g>
</g>
</svg>
