<?xml version="1.0" encoding="utf-8"?>
<!-- Generator: Adobe Illustrator 16.0.0, SVG Export Plug-In . SVG Version: 6.00 Build 0)  -->
<!DOCTYPE svg PUBLIC "-//W3C//DTD SVG 1.1//EN" "http://www.w3.org/Graphics/SVG/1.1/DTD/svg11.dtd">
<svg version="1.1" id="Layer_1" xmlns="http://www.w3.org/2000/svg" xmlns:xlink="http://www.w3.org/1999/xlink" x="0px" y="0px"
	 width="493.1px" height="308.5px" viewBox="0 0 493.1 308.5" enable-background="new 0 0 493.1 308.5" xml:space="preserve">
<g>
	<g>
		<g>
			<defs>
				<rect id="SVGID_1_" width="493.1" height="308.5"/>
			</defs>
			<clipPath id="SVGID_2_">
				<use xlink:href="#SVGID_1_"  overflow="visible"/>
			</clipPath>
			<rect clip-path="url(#SVGID_2_)" fill="#DBDBDC" width="493.1" height="308.5"/>
		</g>
		<g>
			<defs>
				<rect id="SVGID_3_" width="493.1" height="308.5"/>
			</defs>
			<clipPath id="SVGID_4_">
				<use xlink:href="#SVGID_3_"  overflow="visible"/>
			</clipPath>
			<g clip-path="url(#SVGID_4_)">
				<rect x="-12.3" y="264.6" fill="#6F6650" width="538.7" height="44.6"/>
				<g>
					<path fill="#2C3512" d="M101.6,77.2c-10.7,0-20.2,3.4-26.7,8.8c-4.5-7.3-12.5-12.1-21.6-12.1c-10.7,0-19.9,6.7-23.6,16.1
						c-10.5,1.8-18.8,10.1-20.6,20.6c-13.4,0.7-24,11.8-24,25.3c0,6.5,2.4,12.4,6.4,16.9c-6.5,4.6-10.8,12.2-10.8,20.8
						c0,9.8,5.6,18.3,13.7,22.5c-7.3,6.6-11.9,16.2-11.9,26.9c0,20,16.2,36.3,36.3,36.3c20,0,36.3-16.2,36.3-36.3
						c0-2.5-0.3-4.9-0.7-7.3c8.3-5.1,13.8-14.2,13.8-24.7c0-8.2-3.4-15.6-8.9-20.8c0.9-1,1.8-2,2.5-3.1c3.9,2.4,8.5,3.8,13.4,3.8
						c14,0,25.4-11.4,25.4-25.4c0-7.3-3.1-14-8.1-18.6c2.9,0.6,6,0.9,9.2,0.9c19.4,0,35.2-11.4,35.2-25.4S121.1,77.2,101.6,77.2z"/>
					<path fill="#2C3512" d="M503.6,98.4c3.1-5.8,4-12.8,1.9-19.6c-3.2-10.3-12.3-17-22.4-17.7c-4.2-8.2-12.7-13.7-22.5-13.7
						c-1.1,0-2.2,0.1-3.3,0.2c-3.6-9.6-12.9-16.5-23.8-16.5c-9.2,0-17.3,4.9-21.7,12.3c-4.3-3.3-9.6-5.3-15.5-5.3
						c-12.5,0-22.9,9-25,20.9c-5.4-3.2-11.7-5-18.4-5c-0.1,0-0.1,0-0.2,0c-1.8-12.3-12.3-21.7-25.1-21.7c-5.8,0-11.1,1.9-15.4,5.2
						c-4.4-7.4-12.5-12.4-21.8-12.4c-9.1,0-17.1,4.8-21.6,12c-6.6-8.5-17-14-28.6-14c-12.6,0-23.7,6.4-30.2,16.1
						c-11,6.2-18.4,18-18.4,31.6c0,20,16.2,36.3,36.3,36.3c1.6,0,3.1-0.1,4.6-0.3c4.8,9.3,14.5,15.8,25.7,15.8
						c7.4,0,14.2-2.8,19.3-7.4c0.9,1,1.8,1.9,2.9,2.8c-3.1,4.2-4.9,9.3-4.9,14.9c0,14,11.4,25.4,25.4,25.4c6.9,0,13.1-2.7,17.6-7.2
						c1.7,12.3,12.3,21.8,25.1,21.8c9.7,0,18.2-5.5,22.4-13.5c8.9-3.9,15.2-12.8,15.2-23.2c0-3-0.5-5.8-1.5-8.5
						c3,1.1,6.3,1.7,9.7,1.7c11.3,0,21.1-6.5,25.8-16c1.2,0.6,2.4,1.1,3.7,1.5c-0.5,2-0.8,4.1-0.8,6.3c0,14,11.4,25.4,25.4,25.4
						c10.3,0,19.1-6.1,23.1-14.9c4.4,7.6,12.6,12.8,22,12.8c14,0,25.4-11.4,25.4-25.4C514,110.4,509.9,103,503.6,98.4z"/>
				</g>
				<g>
					<g>
						<rect x="332.6" y="88.8" fill="#84806D" width="8.7" height="22.7"/>
						<rect x="346.7" y="88.8" fill="#84806D" width="8.7" height="22.7"/>
						<rect x="360.8" y="88.8" fill="#84806D" width="8.7" height="22.7"/>
					</g>
					<polygon fill="#84806D" points="374.8,89.7 327.3,89.7 336.4,73 365.8,73 					"/>
					<polygon fill="#6F6650" points="503.7,111.5 268.4,111.5 268.4,64.3 223,64.3 223,31.1 145.1,31.1 145.1,64.3 118,64.3 
						118,110.2 77.8,110.2 77.8,147.1 38.4,147.1 38.4,195.1 -18.8,195.1 -18.8,237.9 -14,237.9 -14,282 264.9,282 264.9,266.3 
						503.7,266.3 					"/>
				</g>
			</g>
		</g>
		<g>
			<defs>
				<rect id="SVGID_5_" width="493.1" height="308.5"/>
			</defs>
			<clipPath id="SVGID_6_">
				<use xlink:href="#SVGID_5_"  overflow="visible"/>
			</clipPath>
			<g clip-path="url(#SVGID_6_)">
				<path fill="#232323" d="M355.6,165.7c0,1-0.8,1.9-1.9,1.9h-28.3c-1,0-1.9-0.8-1.9-1.9v-46.8c0-1,0.8-1.9,1.9-1.9h28.3
					c1,0,1.9,0.8,1.9,1.9V165.7z"/>
				<circle opacity="0.3" fill="#FFFFFF" enable-background="new    " cx="339.6" cy="131.1" r="3.3"/>
				<g>
					
						<path fill="none" stroke="#F4B07D" stroke-width="21.928" stroke-linecap="round" stroke-linejoin="round" stroke-miterlimit="10" d="
						M183.7,214.8c-5.8,3-12,4.5-18.6,3.5c-24.5-3.8-31.1-31.2,3.4-69.7"/>
					<path fill="none" stroke="#64C9A3" stroke-width="22.8016" stroke-linejoin="round" stroke-miterlimit="10" d="M219.7,171.8
						c-4.3,8.5-18.2,33.8-36.7,43.2"/>
				</g>
				<g>
					
						<path fill="none" stroke="#F4B07D" stroke-width="21.928" stroke-linecap="round" stroke-linejoin="round" stroke-miterlimit="10" d="
						M329.4,214.8c5.8,3,12,4.5,18.6,3.5c24.5-3.8,31.1-31.2-3.5-69.7"/>
					<path fill="none" stroke="#64C9A3" stroke-width="22.8016" stroke-linejoin="round" stroke-miterlimit="10" d="M293.4,171.8
						c4.3,8.5,18.2,33.8,36.7,43.2"/>
				</g>
				<path fill="#776537" d="M217,122.9c0,0-3.6,1.3-3.6,7.5c0,2.1,1.1,7.5-2.8,7.8c0,0,4.7,0.6,6.1-2.5c0,0-0.3,5.5-2.5,6.9
					c0,0,13,5.5,15.2-6.9l-1.1-18.3C228.3,117.3,220.3,114,217,122.9z"/>
				<path fill="#776537" d="M295.4,122.9c0,0,3.6,1.3,3.6,7.5c0,2.1-1.1,7.5,2.8,7.8c0,0-4.7,0.6-6.1-2.5c0,0,0.3,5.5,2.5,6.9
					c0,0-13,5.5-15.2-6.9l1.1-18.3C284,117.3,292,114,295.4,122.9z"/>
				<g>
					<polygon fill="#61A380" points="213.5,156 221.3,154.6 222.7,164.6 					"/>
					<polygon fill="#61A380" points="298.1,156 291.2,154.3 289.9,164.3 					"/>
					<path fill="#F4B07D" d="M308.7,213.5H204.1c0,0,17.1-63.2,17.1-93.5c0-17.5,70-17.5,70,0C291.2,163.8,308.7,213.5,308.7,213.5z
						"/>
					<g>
						<path fill="#776537" d="M257,60.4c0,0-13.6-19-38.8,0.3c-10.2,7.8-14.7,40.3,2.5,57.4l37.2-41.6L257,60.4z"/>
						<path fill="#776537" d="M257.1,60.4c0,0,13.6-19,38.8,0.3c10.2,7.8,14.7,40.3-2.5,57.4l-37.2-41.6L257.1,60.4z"/>
						<path fill="#F4B07D" d="M289.2,82c0,0-11.8-15.1-34.2-14.7C232.7,67,223.3,82,223.3,82c-7.8,12.8-5.5,52.4-5.5,52.4
							c0,19.6,27.2,35.2,38.6,35.2c11.4,0,38.7-14.6,38.7-35.2C295.1,134.4,297,94.8,289.2,82z"/>
						<g opacity="0.2">
							<path fill="#231F20" d="M265.9,114.7c0.5,0.5,0.8,1,1.1,1.6c0.2,0.3,0.3,0.6,0.4,1c0,0.2,0.1,0.3,0.1,0.5c0,0.2,0,0.4,0,0.6
								c0,0.2-0.1,0.4-0.1,0.6c-0.1,0.2-0.1,0.4-0.3,0.5c-0.1,0.1-0.2,0.3-0.3,0.4l-0.4,0.4c-0.1,0.1-0.3,0.2-0.4,0.3l-0.4,0.3
								l-0.9,0.4l0,0l-0.1,0c-0.7,0.1-1.5,0.4-2.2,0.8c-0.2,0.1-0.3,0.2-0.5,0.3l-0.4,0.3c-0.2,0.3-0.4,0.5-0.7,0.9
								c-0.3,0.4-0.5,0.8-1,1.1c-0.4,0.3-0.9,0.6-1.4,0.7c-0.5,0.2-0.9,0.2-1.4,0.3c-0.5,0-0.9,0.1-1.4,0.1c-0.4,0-0.8,0-1.3-0.1
								c-0.5-0.1-1-0.1-1.4-0.3c-0.2-0.1-0.5-0.1-0.7-0.3c-0.2-0.1-0.5-0.2-0.7-0.4c-0.4-0.3-0.7-0.7-1-1.1l-0.2-0.3l0-0.1l0,0
								c0,0,0-0.1,0,0.1l0,0l0,0l0,0l-0.1-0.1c-0.1-0.2-0.3-0.4-0.4-0.5c-0.1-0.1-0.3-0.2-0.4-0.3c-0.1-0.1-0.3-0.2-0.5-0.3
								c-0.7-0.4-1.5-0.6-2.2-0.8l-0.1,0l0,0l-0.9-0.4l-0.4-0.3c-0.1-0.1-0.3-0.2-0.4-0.3l-0.4-0.4c-0.1-0.1-0.2-0.3-0.3-0.4
								c-0.1-0.1-0.2-0.3-0.3-0.5c-0.1-0.2-0.1-0.4-0.1-0.6c0-0.2,0-0.4,0-0.6c0-0.2,0-0.4,0.1-0.5c0.1-0.3,0.2-0.7,0.4-1
								c0.1-0.3,0.3-0.6,0.5-0.8c0.2-0.3,0.4-0.5,0.6-0.7c0.2-0.2,0.5-0.2,0.7,0c0.2,0.2,0.2,0.5,0,0.7l0,0
								c-0.2,0.2-0.3,0.4-0.5,0.6c-0.1,0.2-0.3,0.5-0.4,0.7c-0.1,0.2-0.2,0.5-0.2,0.7c0,0.1,0,0.2,0,0.4c0,0.1,0,0.2,0,0.3
								c0,0.1,0,0.2,0.1,0.3c0.1,0.1,0.1,0.2,0.2,0.3c0.1,0.1,0.1,0.2,0.2,0.3l0.3,0.2c0.1,0.1,0.2,0.1,0.3,0.2l0.3,0.2l0.8,0.3
								l-0.1,0c0.5,0.1,0.9,0.2,1.3,0.3c0.4,0.1,0.9,0.3,1.3,0.5c0.2,0.1,0.4,0.2,0.6,0.4c0.2,0.2,0.4,0.3,0.6,0.5
								c0.2,0.2,0.3,0.3,0.4,0.5l0.1,0.1l0,0l0.1,0.1l0,0l0,0.1l0.2,0.3c0.2,0.3,0.4,0.6,0.7,0.8c0.1,0.1,0.3,0.2,0.4,0.3
								c0.1,0.1,0.3,0.1,0.5,0.2c0.3,0.1,0.7,0.2,1.1,0.2c0.4,0,0.8,0,1.3,0.1l1.2,0c0.4-0.1,0.8-0.1,1.1-0.2
								c0.4-0.1,0.7-0.2,0.9-0.4c0.3-0.2,0.5-0.5,0.7-0.8c0.2-0.3,0.6-0.8,0.9-1.1l0.6-0.5c0.2-0.1,0.4-0.2,0.6-0.4
								c0.4-0.2,0.9-0.4,1.3-0.5c0.4-0.1,0.9-0.2,1.3-0.3l-0.1,0l0.8-0.3l0.3-0.2c0.1-0.1,0.2-0.1,0.3-0.2l0.3-0.2
								c0.1-0.1,0.1-0.2,0.2-0.3c0.1-0.1,0.1-0.2,0.2-0.3c0.1-0.1,0.1-0.2,0.1-0.3c0-0.1,0-0.2,0-0.3c0-0.1,0-0.2,0-0.4
								c0-0.2-0.1-0.5-0.2-0.7c-0.2-0.5-0.5-1-0.9-1.4l0,0c-0.2-0.2-0.2-0.5,0-0.7C265.4,114.5,265.7,114.5,265.9,114.7z"/>
						</g>
						<path fill="#593B2E" d="M225.9,103.3c0,0,7.3-7,17.6-4.3c0,0,2.9-1.7,0.4-2.8C243.9,96.3,231.6,94.1,225.9,103.3z"/>
						<path fill="#593B2E" d="M285.8,102.4c0,0-7.9-6.3-17.9-2.6c0,0-3.1-1.5-0.7-2.8C267.2,97,279.2,93.8,285.8,102.4z"/>
						<path fill="#F4B07D" d="M221.1,110.8c0,0-7.3-12-10-0.9c-0.8,3.4-0.9,22,9.7,10.3"/>
						
							<path fill="none" stroke="#C18963" stroke-width="1.1722" stroke-linecap="round" stroke-linejoin="round" stroke-miterlimit="10" d="
							M216.4,111.1c0,0-3.8,2.9,0,7.3"/>
						<path fill="#F4B07D" d="M290.6,110.8c0,0,7.3-12,10-0.9c0.8,3.4,0.9,22-9.7,10.3"/>
						
							<path fill="none" stroke="#C18963" stroke-width="1.1722" stroke-linecap="round" stroke-linejoin="round" stroke-miterlimit="10" d="
							M295.3,111.1c0,0,3.8,2.9,0,7.3"/>
						
							<path fill="#C18963" stroke="#C18963" stroke-width="1.4641" stroke-linecap="round" stroke-linejoin="round" stroke-miterlimit="10" d="
							M246.3,132.2c0,0,4.2-2.1,8.9-2c3.4,0.1,5.8-0.2,9.9,1.8C265.1,132,255.6,150.5,246.3,132.2z"/>
						<path fill="#776537" d="M216.7,69.2c0,0-4.3,25.7-3.7,25.9c0.6,0.2,20.7-10.5,20.7-10.5l23.3-8.1l34.7,10.7l7-2.9L295,65.9
							l-33.8-3.5l-26.6,2.9L216.7,69.2z"/>
						<path opacity="0.3" fill="#231F20" enable-background="new    " d="M256.8,76.5c0,0,14.1,32.6,45.3,15.9c0,0-9-4.9-10.4-11"/>
						<path opacity="0.3" fill="#231F20" enable-background="new    " d="M256.6,76.3c0,0-8.5,24.6-39.3,16.4c0,0,7.1-3.4,9.7-9.2"
							/>
						<path fill="#776537" d="M257,76.5c0,0,13.2,28.2,42.9,15.5c0,0-6.7-5-8.2-11.1"/>
						<path fill="#776537" d="M256.6,76.3c0,0-10.8,20-36.2,15.7c0,0,5.6-4.7,6.5-10.1"/>
						<path fill="#776537" d="M244.8,53c0,0,4.7-1.7,3.1-8.6c0,0,5.3,5.1,5.3,10.2c0,0,2.1-10.5,6.6-12.1c0,0-1.6,13.9,12,9.8
							l-2.5,5.6l-9.8,11.9l-18-3.3L244.8,53z"/>
						<g>
							<path fill="#2E230E" d="M240.3,101.1c0,0,3.9,5.2-0.3,8.3C240,109.4,246.1,106.4,240.3,101.1z"/>
							<path fill="#2E230E" d="M231.3,107.8c0,0,7.5-3.4,11.1-2.2C242.4,105.6,243.8,100.7,231.3,107.8z"/>
						</g>
						<g>
							<path fill="#2E230E" d="M270.5,101.1c0,0-3.9,5.2,0.3,8.3C270.8,109.4,264.7,106.4,270.5,101.1z"/>
							<path fill="#2E230E" d="M279.5,107.8c0,0-7.5-3.4-11.1-2.2C268.4,105.6,267,100.7,279.5,107.8z"/>
						</g>
					</g>
					<path opacity="0.1" fill="#232222" enable-background="new    " d="M219.6,142.5c0,0,11.3,29.5,38.8,26.1
						c0,0,24.6-0.4,33.6-26.7c0,0-19.5,20.9-38.6,18.9C253.4,160.9,236.8,159.9,219.6,142.5z"/>
				</g>
				<path fill="#F4B07D" d="M294.8,167.9h-38.4h-2H216c-6.2,26.6-18.3,24.5-18.3,69.4c0,40.6,0,46.1,0,46.7c0,0.1,0,0.1,0,0.1
					c0,0,0,0.1,0,0.1c0,0.1,6.1,0.1,6.1,0.1h50.6h2H307c0,0,6.1,0,6.1-0.1c0,0,0-0.1,0-0.1c0,0,0,0,0-0.1c0-0.6,0-6.1,0-46.7
					C313.1,192.4,301,194.6,294.8,167.9z"/>
				
					<line fill="none" stroke="#263451" stroke-width="24.3833" stroke-linecap="round" stroke-linejoin="round" stroke-miterlimit="10" x1="232.4" y1="289" x2="232.4" y2="408.4"/>
				
					<line fill="none" stroke="#263451" stroke-width="24.3833" stroke-linecap="round" stroke-linejoin="round" stroke-miterlimit="10" x1="277.8" y1="289" x2="277.8" y2="408.4"/>
				<path fill="#263451" d="M255.4,332.7c32.1,0,58.1-19.9,58.1-52H197.3C197.3,312.8,223.3,332.7,255.4,332.7z"/>
				<rect x="197.7" y="280.7" fill="#161516" width="115.6" height="8.7"/>
				<rect x="247.8" y="280.7" fill="#D6D6D6" width="16.5" height="8.7"/>
				<g>
					<path fill="#F4B07D" d="M286,146c0,0-6.4,20-30.2,20c-23.5,0-33.6-24.9-33.6-24.9s12.6,6.2,33.2,6.2
						C255.3,147.4,266.1,144.1,286,146z"/>
				</g>
				<g>
					<path opacity="0.1" fill="#232222" enable-background="new    " d="M273.9,147.9c0,0-2.9,10.5-18.2,10.5
						c-15.1,0-18.2-10.5-18.2-10.5s5.5,7.8,18.8,7.8C256.4,155.7,265.3,156.6,273.9,147.9z"/>
				</g>
				<rect x="190" y="266.3" fill="#227C58" width="133.5" height="2.2"/>
				<g>
					<path fill="#64C9A3" d="M299.7,163.1l-44.7,22.7l-19.3-11.7l-23.1-11c-6.9,7.4-11.8,17.7-15.1,29.2h118.4
						C312.4,179.3,307.2,168.5,299.7,163.1z"/>
					<path fill="#64C9A3" d="M190.7,266.3h132.4c0-6.4,0-14.2-0.4-22.8H190.6C190.3,252.1,190.5,259.9,190.7,266.3z"/>
					<path fill="#64C9A3" d="M191.8,282h62.8h3.3h65c0,0,0.3-5.2,0.4-13.5H190.8C191.2,276.8,191.8,282,191.8,282z"/>
					<path fill="#64C9A3" d="M190.6,241.3h132c-0.4-8.1-1.1-16.8-2.2-25.4H192.7C191.5,224.5,190.9,233.2,190.6,241.3z"/>
					<path fill="#64C9A3" d="M196.9,194.6c-1.7,6.2-2.9,12.6-3.9,19.1h127.1c-0.9-6.6-2.1-13.1-3.6-19.1H196.9z"/>
					<g>
						<path fill="#2DA06C" d="M190.8,268.5h132.3c0-0.7,0-1.4,0-2.2H190.7C190.8,267,190.8,267.8,190.8,268.5z"/>
						<path fill="#2DA06C" d="M190.6,243.5h132.2c0-0.7-0.1-1.5-0.1-2.2h-132C190.6,242,190.6,242.8,190.6,243.5z"/>
						<path fill="#2DA06C" d="M190.6,256.4h132.9c0-0.7-0.1-1.5-0.1-2.2H190.6C190.6,254.9,190.6,255.6,190.6,256.4z"/>
						<path fill="#2DA06C" d="M192.7,215.9h127.7c-0.1-0.7-0.2-1.5-0.3-2.2H193C192.9,214.4,192.8,215.2,192.7,215.9z"/>
						<path fill="#2DA06C" d="M194.1,204.3H319c-0.1-0.7-0.2-1.4-0.3-2.2H194.4C194.3,202.9,194.2,203.6,194.1,204.3z"/>
						<path fill="#2DA06C" d="M191.2,229.6h130.7c-0.1-0.7-0.2-1.4-0.3-2.1H191.5C191.4,228.1,191.3,228.8,191.2,229.6z"/>
						<path fill="#2DA06C" d="M315.9,192.4H197.5c-0.2,0.7-0.4,1.5-0.6,2.2h119.6C316.3,193.8,316.1,193.1,315.9,192.4z"/>
						<path fill="#2DA06C" d="M262.4,179.7H306c-0.2-0.7-0.3-1.5-0.5-2.2H264"/>
						<path fill="#2DA06C" d="M245.3,177.5h-38.1c-0.2,0.7-0.3,1.5-0.5,2.2h39"/>
					</g>
				</g>
				<path fill="#86DBAE" d="M213.5,156c0,0-9.3,25.6-1.6,30.9c0,0,25.6-12.8,43.1-1C255.1,185.8,240.7,164.6,213.5,156z"/>
				<path fill="#86DBAE" d="M298.1,156c0,0,9.6,26.5,1.6,32c0,0-26-12.9-44.6-2.1C255.1,185.8,269.9,164.9,298.1,156z"/>
			</g>
		</g>
		<g>
			<defs>
				<rect id="SVGID_7_" width="493.1" height="308.5"/>
			</defs>
			<clipPath id="SVGID_8_">
				<use xlink:href="#SVGID_7_"  overflow="visible"/>
			</clipPath>
			<polygon clip-path="url(#SVGID_8_)" fill="#FFFFFF" points="512.1,308.5 -9.6,308.5 -9.6,258.5 231.1,258.5 247.1,271.8 
				512.1,271.8 			"/>
		</g>
	</g>
	<g>
		<path fill="#35782B" d="M188.7,290.1c0-0.3,0.1-0.5,0.4-0.5c0,0.1,0,0.2-0.1,0.2c0,0,0,0.1-0.1,0.1
			C188.8,290,188.8,290.1,188.7,290.1z"/>
		<path fill="#06180C" d="M118.2,289.9c-0.1-0.2-0.1-0.5,0-0.7C118.2,289.4,118.2,289.6,118.2,289.9z"/>
		<path fill="#112E1E" d="M117.7,284.5c0-0.2,0-0.3,0-0.5C117.8,284.1,117.9,284.3,117.7,284.5z"/>
		<g>
			<path fill="#327821" d="M140.1,272.9c-0.3-0.4-0.7-0.4-1.1-0.4c-0.1,0-0.2,0-0.2,0l0,0c-0.2,0.1-0.4,0.1-0.5,0.3
				c0,0.1-0.1,0.1-0.1,0.2c-0.3,0.5-0.6,1.1-0.9,1.6c-0.2,0.4-0.4,0.8-0.7,1.2c-0.1,0.1-0.1,0.3-0.2,0.4c-0.4,0.7-0.9,1.4-1.2,2.2
				c-0.3,0.6,0,1,0.6,0.9c0.5-0.3,0.8-0.7,1.2-1.2c0.2-0.2,0.4-0.3,0.5-0.6l0,0c0.1-0.2,0.3-0.3,0.5-0.5c0.3-0.4,0.6-0.8,1-1.2
				c0.2-0.3,0.4-0.5,0.6-0.7c0.2-0.3,0.5-0.6,0.6-1C140.4,273.7,140.3,273.2,140.1,272.9z"/>
			<path fill="#327821" d="M122.6,278.7c0.1,0.6,0.4,0.9,0.8,1c0.2,0.1,0.4,0,0.6,0.1c0.6-0.1,1-0.5,1.2-1.1v0
				c0.1-0.3,0.2-0.6,0.1-1c-0.2-0.9-0.8-1.2-1.8-0.9c-0.1,0.1-0.3,0.3-0.4,0.4c-0.1,0.1-0.2,0.2-0.3,0.4l0,0h0
				C122.6,277.9,122.5,278.3,122.6,278.7z"/>
			<path fill="#327821" d="M189.8,286.7c-0.1,0-0.2,0.1-0.4,0.1c-0.1,0-0.2,0.1-0.3,0.2c-0.5,0.7-0.9,1.4-1.4,2.1
				c0,0-0.1,0.1-0.1,0.1c-0.1,0.2-0.3,0.3-0.4,0.5c0,0,0,0,0,0l0,0c0,0,0,0,0,0c-0.1,0.1-0.2,0.2-0.2,0.3l0,0
				c-0.1,0.1-0.2,0.1-0.2,0.3l0,0c-0.3,0.1-0.4,0.4-0.7,0.6c-0.1,0.1-0.1,0.1-0.2,0.2c-0.4,0.3-0.9,0.5-1.3,0.8
				c-0.4,0.2-0.8,0.4-1.3,0.4c-0.7,0.1-1.5,0.1-2.1-0.3c0,0-0.1,0-0.1,0c-0.1-0.4-0.4-0.7-0.6-1.1l0,0c-0.1-0.4-0.1-0.8-0.1-1.2
				c0-0.2,0.2-0.4,0-0.7c0-0.1,0-0.2,0-0.3c0.1-0.2,0.3-0.2,0.4-0.4c0,0,0,0,0,0c0,0,0,0,0,0c0,0,0,0,0,0c0,0,0,0,0,0
				c0.3,0,0.4-0.2,0.6-0.3c0.4-0.2,0.8-0.5,1.1-0.9c0,0,0,0,0,0l0,0l0,0c0.4-0.2,0.6-0.5,0.9-0.8c0-0.1,0-0.1,0.1-0.2
				c0.1,0,0.1-0.1,0.1-0.2c0,0,0.1-0.1,0.1-0.1c0,0,0,0,0.1,0c0.1-0.2,0.2-0.3,0.3-0.5c0.3-0.2,0.4-0.6,0.6-0.8
				c0.1-0.1,0.2-0.3,0.3-0.4l0,0c0.4-0.6,0.6-1.2,0.7-1.8c0.1-0.6,0.1-1.2-0.4-1.8c0,0,0-0.1-0.1-0.1c-0.1-0.2-0.2-0.3-0.3-0.3
				c0,0,0,0,0,0l0,0c0,0,0,0,0,0c-0.1-0.1-0.3-0.2-0.4-0.2c-1-0.2-1.9-0.1-2.7,0.5c-0.2,0.2-0.5,0.3-0.7,0.5
				c-0.6,0.7-1.2,1.4-1.6,2.2c0,0,0,0.1-0.1,0.1c-0.3,0.6-0.6,1.3-0.9,1.9c-0.5,1.3-0.8,2.7-0.9,4.1c0,0.4-0.1,0.5-0.4,0.7
				c-0.6,0.5-1.3,0.8-2,1.3c-0.4,0.3-0.7,0.5-1.2,0.6c-0.3,0.2-0.6,0.3-0.9,0.3c-1,0.2-1.5-0.1-1.7-1.1c-0.1-0.7-0.1-1.3,0-2
				c0.2-1.9,0.7-3.6,1.2-5.4c0.5-1.9,1-3.9,1.6-5.8c0.3-1,0.1-0.9,1.2-1c0.8-0.1,1.6-0.2,2.5-0.2c0.6,0,1.2-0.1,1.8-0.2
				c0.6-0.1,0.9-0.5,0.8-1c-0.1-0.5-0.4-0.7-1-0.7c-1.3,0.1-2.6,0-3.9,0.1c-0.4,0-0.5,0-0.4-0.5c0.3-1.2,0.7-2.5,1.1-3.7
				c0-0.2,0-0.4,0.1-0.5c0,0,0-0.1,0.1-0.1c0.1-0.4,0.2-0.7,0.4-1.1c0,0,0-0.1,0-0.1c0.1-0.3,0.2-0.5,0.2-0.8c0,0,0-0.1,0-0.1
				c0.1-0.4,0.1-0.8,0-1.2c-0.2-0.3-0.5-0.4-0.9-0.3c-0.6,0.2-1,0.5-1.3,1.1c0,0,0,0.1,0,0.1c-0.2,0.2-0.3,0.5-0.4,0.7c0,0,0,0,0,0
				c0,0-0.1,0.1-0.1,0.1c-0.2,0.2-0.2,0.5-0.3,0.7c-0.1,0.2-0.1,0.4-0.2,0.6c-0.1,0.3-0.2,0.7-0.3,1c0,0,0,0.1,0,0.1
				c-0.2,0.8-0.4,1.6-0.6,2.3c-0.1,0.5-0.3,1-0.4,1.5c0,0.1,0,0.2-0.1,0.2c0,0-0.1,0-0.1,0.1c0,0-0.1,0-0.1,0c-0.7,0-1.4,0-2.1,0
				c0,0-0.1,0-0.1,0c0,0,0,0-0.1,0c-0.7-0.1-1,0.2-1.1,0.8c0,0,0,0,0,0c-0.1,0.1-0.1,0.2,0,0.3c0,0.1,0,0.1,0.1,0.2
				c0,0.1,0,0.3,0.1,0.4c0,0.1,0,0.1,0,0.2c0,0.2,0.1,0.3,0.3,0.3c0,0,0,0,0,0c0.1,0.1,0.3,0.1,0.4,0.1c0.1,0,0.3,0,0.4,0
				c0.5,0,0.9-0.1,1.4-0.1c0.4,0,0.4,0,0.3,0.4c-0.4,1.6-0.8,3.1-1.2,4.7c-0.1,0.5-0.3,1.1-0.4,1.6c-0.2,0.9-0.5,1.8-0.6,2.7
				c-0.1,0.5-0.3,1-0.6,1.5c-0.3,0.5-0.7,0.9-1,1.4c-0.1,0.2-0.3,0.4-0.5,0.6c-0.3,0.3-0.5,0.7-0.9,1c-0.1,0.1-0.2,0.2-0.3,0.3
				c-0.5,0.4-1,0.9-1.7,1c-0.3,0-0.5-0.1-0.7-0.3c-0.1-0.2-0.2-0.5-0.3-0.7c-0.3-1.6-0.2-3.2,0.1-4.8c0.1-0.4,0.1-0.8,0.3-1.2
				c0.2-0.5,0.4-0.9,0.5-1.4c0.1-0.5,0-0.8-0.3-0.9c-0.5-0.2-1.1-0.1-1.4,0.3c-0.1,0.2-0.3,0.4-0.4,0.6c-0.6,1.5-1.4,2.9-2.3,4.4
				c0,0,0,0.1-0.1,0.1c-0.2,0.4-0.4,0.7-0.7,1.1c0,0,0,0.1-0.1,0.1c-0.2,0.2-0.3,0.5-0.5,0.6c-0.2,0.3-0.5,0.6-0.8,0.8
				c-0.4,0.3-0.7,0.2-0.8-0.4c0-0.2,0-0.5,0-0.7c0.1-0.7,0.2-1.5,0.4-2.2c0-0.1,0.1-0.3,0.1-0.4c0,0,0-0.1,0-0.1
				c0.1-0.1,0.1-0.2,0.1-0.4c0,0,0,0,0.1,0c0-0.1,0.1-0.1,0.1-0.2c0,0,0-0.1,0-0.1c0.1-0.1,0.2-0.3,0.2-0.5c0,0,0,0,0,0
				c0.3-0.3,0.5-0.6,0.7-0.9c0,0,0-0.1,0.1-0.1c0.1-0.2,0.2-0.3,0.4-0.4c0,0,0-0.1,0.1-0.1c0.2-0.3,0.5-0.6,0.8-0.9
				c0.8-0.8,1.8-1.4,2.8-2c0.6-0.4,0.6-0.5,0.3-1.2c-0.2-0.3-0.5-0.5-0.9-0.5c-0.7,0-1.3,0.1-2,0.4c-0.8,0.3-1.4,0.9-2,1.4
				c-0.1,0.1-0.2,0.2-0.3,0.3c0,0,0,0.1-0.1,0.1c-0.2,0.3-0.5,0.6-0.8,0.8c-0.2,0.2-0.3,0.4-0.5,0.6c-0.1,0.1-0.1,0.3-0.2,0.4
				c-0.2,0.3-0.4,0.6-0.6,1c-0.1,0.2-0.1,0.4-0.2,0.6c0,0,0,0.1,0,0.1c-0.1,0.1-0.1,0.3-0.2,0.4c0,0.1-0.1,0.1-0.1,0.2
				c-0.2,0.4-0.4,0.8-0.5,1.2c-0.2,0.8-0.6,1.4-1.1,1.9c0,0,0,0.1-0.1,0.1c-0.3,0.4-0.6,0.7-1,1c-0.1,0.1-0.2,0.2-0.4,0.3
				c0,0-0.1,0-0.1,0.1c-0.2,0.1-0.4,0.2-0.6,0.3c-0.8,0.2-1.3,0.1-1.4-0.9c-0.1-0.7-0.1-1.3,0-2c0.1-1.4,0.2-2.8,0.1-4.3
				c0-0.7-0.1-1.3-0.5-1.9c-0.4-0.7-0.6-0.8-1.4-0.7c-0.3,0-0.5,0.2-0.8,0.3c-0.7,0.4-1.2,1.1-1.8,1.6c-0.1,0.2-0.3,0.4-0.5,0.6
				c0,0,0,0.1-0.1,0.1c-0.1,0.1-0.1,0.2-0.2,0.3c-0.3,0.3-0.5,0.6-0.8,0.9c0,0,0,0.1-0.1,0.1c0,0.1-0.1,0.2-0.2,0.2
				c-0.2,0.3-0.4,0.6-0.6,0.8c0,0,0,0.1-0.1,0.1c-0.1,0.2-0.2,0.3-0.3,0.5c0-0.1,0-0.2,0.1-0.2c0-0.1,0-0.1,0-0.2c0-0.1,0-0.3,0-0.4
				c0,0,0-0.1,0-0.1c0-0.1,0-0.3,0.1-0.4c0.1-0.4,0.2-0.9,0.3-1.3c0.2-0.7,0.5-1.5,0.8-2.2c0.3-0.8,0.4-1.6,0.4-2.5
				c0-0.5-0.2-1-0.6-1c-0.6-0.1-1.2,0-1.7,0.4c-0.6,0.5-0.8,1.1-0.9,1.8c-0.2,1.2-0.4,2.5-0.7,3.7c-0.4,2-0.9,4-1.1,6.1
				c-0.1,1-0.2,2-0.2,2.9c0,0.7,0.5,1,1.2,0.8c0.3-0.1,0.5-0.2,0.7-0.5c0.2-0.3,0.4-0.6,0.5-0.9c0.2-0.6,0.6-1.2,0.9-1.8
				c0.2-0.5,0.4-0.9,0.7-1.3c0,0,0-0.1,0.1-0.1c0.1-0.2,0.2-0.4,0.3-0.5c0-0.1,0.1-0.1,0.1-0.2c0.3-0.6,0.7-1.1,1.1-1.7
				c0,0,0-0.1,0.1-0.1c0-0.1,0.1-0.2,0.1-0.2c0,0,0-0.1,0.1-0.1c0.1-0.3,0.3-0.5,0.5-0.7c0.1-0.3,0.3-0.5,0.5-0.7
				c0.4-0.5,0.8-1,1.3-1.4c0.3-0.2,0.5-0.2,0.5,0.2c0,0.6,0.1,1.1,0,1.7c0,0.1,0,0.1,0,0.2c0,1.1-0.1,2.2,0,3.3
				c0.1,0.6,0.1,1.3,0.4,1.8c0.3,0.8,0.8,1.4,1.8,1.5c0.8,0.1,1.5-0.1,2.1-0.4c0.3-0.2,0.7-0.5,1-0.7c0,0,0.1,0,0.1-0.1
				c0.1-0.1,0.3-0.3,0.5-0.4c0,0,0.1-0.1,0.1-0.1c0.2-0.2,0.4-0.4,0.7-0.7c0.2,0.6,0.2,1.2,0.6,1.7c0,0.1,0.1,0.1,0.2,0.2
				c0,0,0.1,0,0.1,0.1c0.1,0.1,0.1,0.2,0.2,0.2c0,0,0.1,0.1,0.1,0.1c0.5,0.4,1.1,0.4,1.6,0.1c0.1-0.1,0.3-0.1,0.4-0.2
				c0.3-0.2,0.5-0.4,0.8-0.6c0.7-0.6,1.3-1.3,1.8-2.1c0.2-0.2,0.3-0.4,0.4-0.6c0.1-0.1,0.2-0.3,0.4-0.4c-0.1,0.9,0,1.8,0.3,2.6
				c0,0.1,0.1,0.2,0.1,0.3c0.6,1.5,1.2,2.1,2.8,1.9c0.2-0.1,0.5-0.2,0.7-0.2c0,0,0.1,0,0.1,0c0.1-0.1,0.2-0.1,0.3-0.1
				c0,0,0.1,0,0.1-0.1c0.2-0.1,0.4-0.2,0.5-0.4c0,0,0-0.1,0-0.1c0.1,0,0.1-0.1,0.2-0.1c0,0,0.1,0,0.1,0c0.1,0,0.1-0.1,0.2-0.2
				c0,0,0-0.1,0.1-0.1c0.1,0,0.1-0.1,0.2-0.1c0,0,0.1-0.1,0.1-0.1c0.4-0.3,0.8-0.7,1.2-1.1c0.1-0.1,0.2-0.3,0.3-0.4
				c0-0.1,0.1-0.1,0.1-0.2c0,0,0,0,0-0.1c0.1-0.1,0.1-0.1,0.2-0.2c0,0,0,0,0.1,0c0.2,0.5,0,1.1,0.2,1.6c0,0.4,0.2,0.7,0.4,1.1
				c0.1,0.1,0.2,0.2,0.3,0.3c0.1,0.1,0.3,0.2,0.4,0.3c0.7,0.4,1.5,0.6,2.3,0.5c0.4-0.1,0.8-0.1,1.2-0.3c1.1-0.4,2-0.9,2.9-1.5
				c0.2-0.2,0.5-0.4,0.7-0.5c0.5-0.4,0.5-0.4,0.7,0.2c0,0,0,0.1,0.1,0.1c0.3,0.6,0.8,1.1,1.4,1.4c1.4,0.7,2.8,0.5,4.2,0
				c0,0,0.1,0,0.1,0c1.4-0.5,2.7-1.3,3.8-2.3c0.2-0.1,0.4-0.3,0.6-0.5c0,0,0-0.1,0.1-0.1c0,0,0.1-0.1,0.1-0.1
				c0.1-0.1,0.1-0.2,0.2-0.3c0,0,0,0,0.1-0.1c0.1-0.2,0.2-0.4,0.4-0.4c0.1,0,0.1-0.1,0.1-0.2c0.4-0.5,0.7-1,1-1.5
				c0.1-0.2,0.2-0.4,0.2-0.7C190.4,286.8,190.2,286.6,189.8,286.7z M181.5,286.8C181.5,286.8,181.5,286.8,181.5,286.8
				C181.5,286.8,181.5,286.8,181.5,286.8C181.5,286.8,181.5,286.8,181.5,286.8z M183.5,285.2C183.5,285.2,183.5,285.2,183.5,285.2
				C183.5,285.2,183.5,285.2,183.5,285.2C183.5,285.2,183.5,285.2,183.5,285.2L183.5,285.2z M183.6,285.4
				C183.6,285.4,183.6,285.4,183.6,285.4C183.6,285.4,183.6,285.4,183.6,285.4C183.6,285.4,183.6,285.4,183.6,285.4
				C183.6,285.4,183.6,285.4,183.6,285.4C183.6,285.4,183.6,285.4,183.6,285.4C183.6,285.4,183.6,285.4,183.6,285.4z M181.6,284.2
				C181.6,284.1,181.6,284.1,181.6,284.2c0.1-0.1,0.1-0.1,0.1-0.2c0.2-0.5,0.5-1,0.8-1.5c0,0,0-0.1,0.1-0.1c0.2-0.3,0.4-0.6,0.7-0.8
				c0.1,0,0.1-0.1,0.2-0.1c0.2-0.1,0.4,0,0.6,0c0,0,0,0,0,0c0,0.3,0.1,0.5,0.1,0.8c0,0.1,0,0.3-0.1,0.4c-0.1,0.3-0.2,0.6-0.3,0.8
				c0,0.1-0.1,0.2-0.1,0.4c0,0-0.1,0.1-0.1,0.1c-0.1,0.1-0.2,0.1-0.1,0.3c-0.1,0-0.1,0.1-0.2,0.2c0,0,0,0.1-0.1,0.1
				c0,0-0.1,0.1-0.1,0.1c0,0,0,0,0,0c0,0,0,0.1,0,0.1c0,0,0,0,0,0c0,0,0,0,0,0c0,0,0,0,0,0c-0.1,0-0.2,0.1-0.2,0.1
				c-0.4,0.5-0.9,1-1.4,1.4c0,0-0.1,0-0.1,0.1c-0.1,0.1-0.2,0.1-0.2,0.2c0,0-0.1,0-0.1,0.1c-0.2,0,0-0.1,0-0.2c0,0,0-0.1,0-0.1
				c0.1-0.3,0.2-0.6,0.3-0.9c0-0.2,0.2-0.3,0.1-0.5c0,0,0,0,0,0C181.5,284.8,181.5,284.4,181.6,284.2z"/>
			<path fill="#327821" d="M137.9,281.7c-0.6-1-1.5-1.4-2.7-1.4c-0.9,0.1-1.7,0.4-2.4,0.9c-0.2,0.2-0.5,0.5-0.7,0.7v0
				c-0.3,0.2-0.5,0.6-0.8,0.9c-0.5,0.7-0.8,1.4-1.2,2.2c-0.3,0.7-0.3,1.4-0.8,2l0,0c-0.2,0.2-0.3,0.4-0.4,0.6
				c-0.6,1-1.3,1.9-2.1,2.8c-0.2,0.2-0.5,0.4-0.7,0.7c-0.1,0-0.1,0.1-0.2,0.1c0,0-0.1,0.1-0.1,0.1c-0.1,0.2-0.2,0.3-0.4,0.3
				c-0.2,0.2-0.4,0.3-0.6,0.4c-0.1,0-0.3,0.1-0.4,0.1c-0.5,0.1-0.7,0-1-0.4c0-0.1-0.1-0.1-0.1-0.1c-0.1-0.1-0.1-0.2-0.1-0.3
				c-0.3-1.5-0.2-2.9,0-4.4c0,0,0-0.1,0-0.1c0,0,0-0.1,0-0.1c0,0,0,0,0,0c0,0,0,0,0.1,0c0-0.1,0-0.2,0-0.3c0,0,0,0,0,0
				c0.1-0.2,0.2-0.4,0.2-0.6c0.2-0.4,0.3-0.8,0.4-1.2l0,0c0.1-0.3,0.2-0.5,0.3-0.8c0-0.3,0.1-0.6,0.1-0.9c0.1-0.4-0.1-0.7-0.5-0.9
				c-0.7,0-1.3,0-1.8,0.6l0,0c-0.1,0.1-0.1,0.1-0.2,0.2c-0.1,0.1-0.1,0.2-0.2,0.2c-0.1,0.2-0.2,0.4-0.3,0.6l0,0c0,0,0,0,0,0
				c-0.1,0-0.1,0.1-0.1,0.2c-0.5,1.5-0.8,3.1-0.8,4.7c0,1.3,0.1,2.6,0.7,3.8c0.6,1.3,1.5,1.9,2.8,1.7c0.4,0,0.7-0.2,1.1-0.3
				c0.2-0.1,0.4-0.2,0.6-0.3c0,0,0,0,0,0l0,0c0,0,0,0,0,0c0.1-0.1,0.3-0.1,0.3-0.2h0h0h0c0.3-0.1,0.5-0.4,0.7-0.6
				c0.4-0.5,1-0.9,1.3-1.4c0.5-0.5,0.9-1,1.4-1.6c0,1,0.2,2,0.7,2.9c0.1,0.2,0.2,0.4,0.4,0.6c0,0,0.1,0.1,0.1,0.1
				c0.1,0.2,0.3,0.3,0.5,0.4l0,0l0,0l0,0c0,0.1,0.2,0.1,0.3,0.2c0.2,0,0.2,0.2,0.4,0.2c0.5,0.2,1,0.2,1.5,0.1
				c0.6-0.1,1.2-0.4,1.8-0.7c0.3-0.2,0.6-0.4,0.8-0.6c0.3-0.3,0.6-0.6,0.9-0.9c0,0,0-0.1,0.1-0.1c0.1-0.1,0.2-0.2,0.2-0.3v0
				c0.2-0.3,0.4-0.6,0.6-0.9c0.2-0.5,0.5-1.1,0.7-1.7c0.6-1.8,0.7-3.6,0.4-5.4C138.4,282.7,138.2,282.2,137.9,281.7z M137.1,286.6
				c-0.1,0.4-0.1,0.8-0.2,1.2c-0.2,0.8-0.5,1.6-1,2.4c-0.3,0.5-0.7,0.9-1.2,1.3c-0.5,0.4-1.1,0.8-1.9,0.5c-0.5-0.2-0.7-0.6-0.9-1.1
				c-0.3-0.7-0.3-1.5-0.2-2.3c0-0.2,0-0.5,0.1-0.7c0.1-0.6,0.3-1.3,0.5-1.9c0.1,0,0.1,0.1,0.1,0.1c0-0.1-0.1-0.1-0.1-0.2
				c0.1-0.4,0.3-0.7,0.4-1c0.1-0.3,0.2-0.5,0.4-0.7c0.1-0.1,0.1-0.1,0.2-0.2c0,0,0.1-0.1,0.1-0.1c0.1-0.1,0.1-0.2,0.2-0.2l0,0
				c0.4-0.4,0.8-0.7,1.3-0.8c0.5-0.2,1-0.1,1.4,0.2l0,0c0.4,0.6,0.7,1.3,0.8,2.1C137.1,285.6,137.1,286.1,137.1,286.6z"/>
		</g>
		<g>
			<path fill="#12301E" d="M51.2,280.8c-0.1-0.5-0.3-1-0.5-1.4c-0.1-0.1-0.1-0.2-0.2-0.3c-0.1-0.1-0.2-0.3-0.3-0.4
				c-0.1-0.2-0.3-0.4-0.4-0.5c0,0,0-0.1-0.1-0.1c-0.3-0.3-0.5-0.5-0.8-0.8c0,0-0.1,0-0.1-0.1c-0.1-0.1-0.3-0.2-0.4-0.3
				c-0.9-0.6-2-0.9-3.1-1c-1.1-0.2-2.3-0.2-3.4,0c-0.3,0.1-0.7,0.2-1,0.2c-1.1,0.2-2,0.7-2.8,1.3c-0.1,0.1-0.3,0.3-0.4,0.4
				c0,0-0.1,0.1-0.1,0.1c-0.1,0.2-0.3,0.4-0.5,0.5c-1.1,1.4-1.6,3-1.7,4.7c-0.1,0.7,0,1.4-0.1,2.1c0,1.1,0.1,2.1,0.3,3.1
				c0.6,2.5,2,4.4,4.5,5.3c0.7,0.3,1.5,0.3,2.2,0.4c1.2,0.2,2.3,0,3.4-0.1c1.4-0.2,2.6-0.8,3.6-1.8c0.4-0.4,0.9-0.8,1-1.5
				c0.2-0.5,0.4-0.9,0.5-1.4c0.2-0.4,0.2-0.8,0.3-1.2c0.1-0.6,0.1-0.6-0.4-0.6c-0.6,0-1.3,0-1.9,0c-0.4,0-0.7-0.1-1.1,0.1
				c-0.2,0.5-0.4,0.9-0.6,1.4c-0.1,0.1-0.2,0.3-0.3,0.4c0,0.1-0.1,0.1-0.1,0.2c-0.2,0.2-0.5,0.4-0.8,0.6c-2.4,1.5-5.6,0.4-6.6-2.3
				c-0.7-1.9-0.7-3.8-0.1-5.7c0.6-2,1.9-3.1,4-3.2c1.8-0.1,3.3,0.3,4.1,2.1c0.2,0.3,0.5,0.5,0.8,0.7c0.2,0.2,0.4,0.1,0.6,0.1
				c0.1,0,0.2,0,0.4,0c0.7,0,1.3,0,2,0c0.1-0.1,0.1-0.3,0-0.4c0,0,0-0.1,0-0.1C51.4,281.3,51.3,281.1,51.2,280.8z M50.9,289.2
				C50.9,289.2,50.9,289.2,50.9,289.2C50.9,289.2,50.9,289.2,50.9,289.2C50.9,289.3,50.9,289.3,50.9,289.2
				C50.9,289.3,50.9,289.3,50.9,289.2z M50.4,288.9C50.4,288.9,50.4,288.9,50.4,288.9C50.4,288.9,50.4,288.9,50.4,288.9
				C50.4,288.9,50.4,288.9,50.4,288.9z"/>
			<path fill="#12301E" d="M93.1,282c-0.2-0.3-0.5-0.5-0.7-0.7c0,0-0.1-0.1-0.1-0.1c-0.1-0.1-0.2-0.1-0.3-0.2
				c-0.1-0.1-0.3-0.2-0.4-0.3c-0.2-0.1-0.4-0.2-0.7-0.3c-0.1,0-0.2,0-0.3,0h0c-0.2-0.2-0.5-0.3-0.8-0.3c-0.8-0.1-1.7-0.2-2.5-0.1
				c-1.5,0.2-2.9,0.7-4.2,1.6c-0.1,0.1-0.2,0.1-0.2,0.2c0,0-0.1,0.1-0.1,0.1c-0.6,0.7-1,1.5-1.1,2.5c0,0.3-0.1,0.5-0.1,0.8
				c0,0.2,0,0.3,0,0.5c0,2.9,0,5.9,0,8.8c0,1.3,0,2.6,0,3.9c0,0.4,0.1,0.5,0.5,0.5c0.4,0,0.8,0,1.2,0c1,0,1.7-0.7,1.8-1.7
				c0-1.4,0-2.8,0-4.1c0-0.1,0-0.3,0.1-0.5c0.2,0.2,0.4,0.4,0.6,0.6c0.2,0.2,0.4,0.4,0.7,0.4c0.1,0,0.1,0.1,0.2,0.1
				c0.1,0.1,0.2,0.2,0.4,0.2c1.1,0.4,2.2,0.4,3.3,0.1c1.7-0.5,2.8-1.8,3.4-3.4c0.5-1.3,0.7-2.6,0.6-4C94.5,285,94.1,283.4,93.1,282z
				 M90.5,289.4c-0.6,1.5-2.1,2-3.6,1.4c-0.1-0.1-0.2-0.1-0.3-0.2c0,0,0,0,0,0l0,0h0c-0.1-0.5-0.2-0.6-0.7-0.7
				c0-0.2-0.2-0.2-0.2-0.4c-0.3-0.6-0.4-1.3-0.4-2c0-0.9-0.1-1.9,0.4-2.8c0,0-0.1-0.1,0-0.2c0.1-0.2,0.2-0.5,0.4-0.7
				c0.2,0,0.2-0.2,0.3-0.3c1.3-1.1,3.4-0.6,4.1,1C91.1,286.1,91.2,287.8,90.5,289.4z"/>
			<path fill="#12301E" d="M118.2,289.1c0-1-0.4-1.8-1.3-2.3c-1-0.7-2.2-1-3.4-1.3c-1-0.2-2-0.4-2.9-0.9c-0.3-0.2-0.5-0.4-0.5-0.7
				c0-0.4,0.2-0.7,0.6-0.9c1.1-0.6,2.8-0.2,3.6,0.8c0.3,0.4,0.6,0.6,1.1,0.6c0.8,0,1.5,0.1,2.3,0c0.1-0.2,0.1-0.3,0-0.5c0,0,0,0,0,0
				c-0.1-1.3-0.7-2.4-1.9-3c-2.2-1.2-4.4-1.2-6.7-0.4c-0.7,0.2-1.2,0.6-1.6,1.2c-0.2,0.1-0.3,0.4-0.4,0.6c-1.2,2.1-0.2,4.7,2,5.3
				c0.1,0.1,0.3,0.1,0.4,0.2c0.9,0.3,1.9,0.6,2.9,0.8c0.6,0.1,1.2,0.3,1.7,0.6c0.3,0.2,0.6,0.4,0.6,0.9c0,0.4-0.3,0.7-0.7,0.9
				c-0.9,0.5-3,0.5-4-0.6c-0.1-0.3-0.3-0.5-0.3-0.8c0-0.3-0.1-0.3-0.3-0.3c-0.7,0-1.4,0-2.1,0c-0.3,0-0.7-0.1-1,0.1l0,0
				c-0.1,0-0.1,0.1-0.1,0.1c-0.1,2.2,1.5,4.1,3.7,4.3c0.8,0.2,1.7,0.2,2.6,0.2c1.1,0,2.3-0.2,3.3-0.7c1.5-0.7,2.3-1.9,2.3-3.5
				C118.1,289.6,118.1,289.4,118.2,289.1z"/>
			<path fill="#12301E" d="M68,280.4c-0.7-0.2-1.4,0-2-0.1c-0.4,0-0.5,0.1-0.4,0.5c0,4.2,0,8.4,0,12.6c0,0.1,0,0.3,0,0.4
				c1,0,2.1,0,3.1,0c0.4,0,0.5-0.1,0.5-0.5c0-3.7,0-7.3,0-11C69.1,281.5,68.8,280.8,68,280.4z"/>
			<path fill="#12301E" d="M81.2,283.4c-0.1-1.2-0.8-2.1-1.9-2.6c-1.7-0.8-3.5-0.9-5.3-0.6c-0.4,0-0.8,0.1-1.1,0.3
				c-1.4,0.6-2.4,1.5-2.7,3.1c0,0,0,0,0,0.1c-0.1,0.2,0.1,0.2,0.2,0.2c1,0,1.9,0,2.9,0c0.1,0,0.2,0,0.3-0.1c0.2-0.5,0.7-0.6,1.1-0.8
				h0c0.2,0,0.3,0,0.5-0.1c0,0,0.1,0,0.1,0c0.6,0,1.1,0.1,1.7,0.2c0.5,0.2,0.8,0.4,0.8,0.9c0,0.5-0.3,0.8-0.6,1
				c-0.5,0.3-1.1,0.4-1.7,0.4c-1.3,0.2-2.5,0.3-3.7,0.9c-1.2,0.6-1.9,1.5-2,2.8c-0.3,2.6,0.6,4.4,3.5,4.9c1.6,0.3,3.2,0.1,4.7-0.4
				c1.9-0.7,3.1-2.4,3.1-4.3c0.1-0.9,0-1.7,0-2.6C81.2,285.6,81.2,284.5,81.2,283.4z M73.3,283.7C73.3,283.7,73.3,283.6,73.3,283.7
				C73.3,283.6,73.3,283.6,73.3,283.7C73.3,283.6,73.4,283.6,73.3,283.7C73.3,283.7,73.3,283.7,73.3,283.7c-0.1,0-0.3,0-0.4,0
				c-0.1,0-0.2,0-0.3,0C72.9,283.6,73.1,283.6,73.3,283.7z M77.9,288.7c0,0.1-0.1,0.2-0.1,0.3c0,0.1-0.1,0.2-0.1,0.3
				c-0.3,0.2-0.3,0.4-0.3,0.7c0,0-0.1,0.1-0.1,0.1c-0.2,0.1-0.3,0.2-0.5,0.3c-0.1,0.1,0,0.2,0,0.2l0,0c-0.1,0.1-0.2,0.2-0.4,0.3
				c-0.1,0-0.1,0.1-0.2,0.1c0,0,0.2,0,0,0.1c-0.6,0.3-1.1,0.2-1.7,0.2c0.1,0,0.2,0,0.3,0c-0.2-0.1-0.4,0-0.6-0.1
				c-0.2,0-0.4-0.1-0.5-0.3c0-0.1,0-0.2-0.2-0.2c-0.5-0.7-0.5-1.4-0.1-2.1c0.1-0.1,0.2-0.2,0.4-0.3c0,0,0,0,0,0l0,0c0,0,0,0,0,0
				c0.1-0.1,0.2-0.1,0.3-0.2c0.2-0.2,0.5-0.3,0.8-0.3c1-0.2,2-0.4,3-0.8C77.9,287.6,77.9,288.2,77.9,288.7z"/>
			<path fill="#12301E" d="M106.1,283.8c0-1.5-0.8-2.7-2.1-3.2c-1.9-0.7-3.8-0.8-5.8-0.3c-1.6,0.4-2.7,1.5-3.1,3.1
				c-0.1,0.3,0,0.4,0.3,0.4c0.9,0,1.8,0,2.7,0c0.2,0,0.4,0,0.5-0.2c0.1-0.3,0.4-0.4,0.7-0.5c1-0.3,2-0.3,2.9,0.1
				c0.4,0.2,0.6,0.6,0.5,1c-0.1,0.4-0.3,0.6-0.6,0.8c-0.5,0.2-1,0.3-1.4,0.4c-0.1,0-0.2,0-0.2,0c-0.9,0.1-1.8,0.2-2.6,0.5
				c-0.8,0.3-1.6,0.6-2.2,1.2c-0.3,0.3-0.5,0.6-0.6,1.1l0,0c-0.3,0.9-0.4,1.8-0.2,2.7c0,0,0,0,0,0c0,0.2,0.1,0.4,0.1,0.7
				c0,0.1,0,0.2,0.1,0.3c0.7,1.3,1.9,2,3.3,2.2c1.4,0.2,2.9,0.1,4.3-0.3c0.9-0.3,1.7-0.7,2.3-1.5c0.2-0.2,0.4-0.4,0.5-0.7
				c0.3-0.5,0.5-1,0.6-1.6c0.1-0.2,0.1-0.4,0.1-0.6C106.2,287.5,106.1,285.7,106.1,283.8z M100.8,285.4
				C100.8,285.4,100.8,285.4,100.8,285.4C100.8,285.4,100.8,285.4,100.8,285.4C100.8,285.4,100.8,285.4,100.8,285.4z M102.1,290.2
				c-0.7,0.8-1.6,1.1-2.6,1c-0.7-0.1-1.1-0.4-1.3-1c-0.2-0.7,0.1-1.4,0.6-1.8c0.1-0.1,0.3-0.1,0.3-0.3c0,0,0,0,0,0
				c1.1-0.3,2.3-0.5,3.4-0.9c0.2-0.1,0.2,0,0.2,0.2c0,0.9,0,1.9-0.4,2.7C102.3,290,102.2,290.1,102.1,290.2z"/>
			<path fill="#12301E" d="M64.6,285.1c-0.1-1.1-0.4-2.2-1.2-3.1c-0.4-0.4-0.9-0.9-1.4-1.2c-0.2,0-0.4-0.2-0.6-0.3
				c-0.5-0.1-0.9-0.4-1.5-0.4c-0.4-0.1-0.8-0.1-1.2,0c-1.4,0.1-2.4,0.8-3.3,1.9c0-1.4,0-2.7,0-3.9c0-0.8-0.5-1.4-1.2-1.6
				c-0.7-0.2-1.5-0.1-2.2-0.1c0,0,0,0,0,0.1c0,0.2,0,0.3,0,0.5c0,4.3,0,8.6,0,12.8c0,1.3,0,2.5,0,3.8c0,0.2,0.1,0.2,0.3,0.2
				c1,0,1.9,0,2.9,0c0.1,0,0.2,0,0.2-0.1c0,0,0-0.1,0-0.1c0-2.4,0-4.7,0-7.1c0-0.1,0-0.1,0-0.2l0,0c0.1-0.2,0.1-0.4,0.1-0.6
				c0-0.2,0.1-0.5,0.2-0.7c0.1-0.2,0.2-0.3,0.2-0.5c0-0.1,0.1-0.1,0.1-0.2c1.1-1.8,3.6-1.7,4.6,0.1c0.4,0.7,0.5,1.4,0.5,2.2
				c0,2.2,0,4.4,0,6.6c0,0.1,0,0.3,0,0.4c0.1,0.2,0.2,0.1,0.4,0.1c0.8,0,1.7,0,2.5,0c0.4,0,0.5-0.1,0.5-0.5
				C64.6,290.6,64.6,287.8,64.6,285.1z M55.5,285.9C55.5,285.9,55.5,285.9,55.5,285.9C55.5,285.9,55.5,285.9,55.5,285.9
				C55.5,285.9,55.5,285.9,55.5,285.9z"/>
			<path fill="#12301E" d="M68.3,276.6c-0.1,0-0.2-0.1-0.3-0.1c-0.8-0.2-1.6-0.1-2.3-0.1c-0.2,0-0.2,0.1-0.2,0.2c0,0.8,0,1.5,0,2.3
				c0,0.2,0.1,0.2,0.2,0.2c1,0,2.1,0,3.1,0c0.1,0,0.2,0,0.2-0.2C69.1,278.1,69.2,277.2,68.3,276.6z"/>
			<path fill="#12301E" d="M75.4,291.3c-0.2,0-0.3,0-0.5,0.1C75.1,291.3,75.3,291.4,75.4,291.3z"/>
		</g>
		<g>
			<path fill="#D01D3E" d="M215.2,277.1c0.7,0,0.7,0,0.7,0.7c0,0,0,0.1,0.1,0.1c0,0,0.1,0,0.1,0c0,0,0,0,0,0c0.2,0.1,0.3,0,0.5,0.1
				c0,0.2,0,0.3,0,0.5c0.2,0.1,0.3,0,0.5,0.1c0.1,0,0.2,0,0.3,0.2c0,0.2-0.1,0.4,0.2,0.4c0.2,0,0.4,0,0.6,0c0.1,0,0.1-0.1,0.1-0.2
				c-0.1-0.4,0.2-0.4,0.5-0.4c0.1,0,0.4,0.1,0.3-0.2c0,0,0,0,0,0c0,0,0,0,0,0c0-0.2,0-0.4,0-0.5c0.2-0.1,0.5-0.1,0.7-0.1
				c0.2-0.9,0.1-0.9-0.6-0.9c0-0.1,0-0.3,0-0.4c0-0.3-0.1-0.4-0.4-0.4c-0.3,0-0.5,0.1-0.8,0.1c-0.6,0-0.5,0-0.6,0.6
				c0,0.3,0.1,0.3,0.3,0.3c0.2,0,0.5,0,0.7-0.1c0,0,0.1,0,0.2,0c0,0,0.1,0,0.1,0c0.1,0,0.1,0,0.2,0.1c0.1,0.2,0.1,0.4,0,0.5
				c0,0.2-0.2,0.1-0.3,0.1c-0.3,0-0.4,0.1-0.3,0.4c0,0,0,0,0,0c0,0,0,0,0,0c0,0.1-0.1,0.2-0.2,0.2c-0.4,0.1-0.5,0-0.6-0.5
				c-0.2-0.1-0.4,0-0.6-0.1c0-0.2,0-0.3,0-0.5c0,0,0,0,0,0c0,0,0,0,0,0c0-0.1,0-0.1-0.1-0.1c-0.1,0-0.1,0-0.2,0
				c-0.6,0-0.6,0-0.4-0.6c0.2,0,0.5,0.1,0.7-0.1c0-0.3,0-0.6,0.4-0.6c0.1,0,0.1-0.1,0.1-0.2c0-0.1,0-0.3,0-0.4c0.2,0,0.4,0,0.6,0
				c0.2-0.2,0-0.5,0.1-0.7l0,0c0.6,0,0.6,0,0.7,0.6c0,0,0,0,0,0.1c0.2,0.1,0.3,0,0.5,0c0,0,0,0,0,0h0c0,0,0.1,0.1,0.1,0.1
				c-0.1,0.4,0.1,0.6,0.5,0.5c0.2,0,0.3,0.1,0.3,0.3c0,0.1,0,0.2,0.1,0.3c0.1,0.1,0.3,0,0.4,0c0,0,0,0,0,0c0.2,0.2,0,0.5,0.1,0.7
				c0,0,0,0,0,0.1c0.2,0,0.4,0,0.6,0c0,0,0,0,0,0c0,0,0,0,0.1,0c0,0.2,0,0.4,0,0.5c-0.2,0.2-0.4,0.1-0.6,0.1c-0.2,0-0.3,0-0.3,0.2
				c0,0.3-0.1,0.4-0.4,0.4c-0.2,0-0.4,0-0.4,0.3c0,0.3-0.1,0.4-0.3,0.4c-0.4,0.1-0.1,0.4-0.2,0.5l0,0c0,0,0,0,0,0c0,0,0,0,0,0
				c-0.1,0-0.2,0-0.2,0c-0.4-0.1-0.6,0.1-0.5,0.5c0,0.2-0.1,0.3-0.3,0.3c-0.1,0-0.3-0.1-0.4,0.1c0,0.1,0,0.3,0,0.4
				c0,0.1-0.1,0.2,0,0.3c0,0,0,0,0,0c0.3,0.1,0.5,0.1,0.8,0l0,0c0,0,0,0,0,0c0.1-0.2,0-0.4,0-0.7h0c0.1-0.1,0.2-0.1,0.3-0.1
				c0.5,0.1,0.6-0.1,0.5-0.6l0,0v0c0,0,0,0,0,0c0.1,0,0.2,0,0.3,0c0.3,0,0.5,0,0.4-0.4c0-0.1,0-0.3,0.2-0.2c0.1,0,0.4,0,0.3-0.2
				c0-0.3,0.1-0.4,0.4-0.4c0.3,0,0.4-0.1,0.4-0.4c0-0.2-0.1-0.4,0.2-0.5c0,0,0,0,0,0c0.1,0.1,0.1,0,0.2,0c0.1,0,0.4,0.1,0.4,0
				c0.1-0.2,0.1-0.5,0-0.7c-0.1-0.2-0.3-0.1-0.5-0.1c-0.1,0-0.2-0.1-0.2-0.2c0-0.2,0.2-0.4-0.1-0.5c-0.3,0-0.5-0.1-0.4-0.5
				c0-0.1,0.1-0.2-0.1-0.3c-0.2-0.1-0.4,0-0.6,0c0,0,0,0,0,0c0,0-0.1-0.1-0.1-0.1c0-0.4-0.1-0.6-0.5-0.5c-0.2,0-0.2-0.1-0.2-0.2
				c0.1-0.4-0.1-0.4-0.4-0.4c-0.2,0-0.3,0-0.4,0l0,0c0,0,0,0,0,0c0,0,0,0,0,0c0-0.1,0-0.1,0-0.2c0-0.2,0.1-0.5-0.3-0.5
				c-0.3,0-0.7-0.1-0.6,0.4c0,0.3-0.1,0.3-0.4,0.3c-0.3,0-0.4,0-0.4,0.3c0,0.1,0,0.3-0.2,0.2c-0.6-0.1-0.7,0.2-0.6,0.7
				c0,0,0,0,0,0.1c0,0,0,0,0,0c0,0,0,0,0,0c-0.3,0-0.5-0.1-0.5,0.3c0,0.2-0.1,0.3-0.3,0.2c-0.4-0.1-0.5,0.1-0.5,0.5
				C215.2,276.8,215.2,277,215.2,277.1z M219.7,275.2C219.7,275.2,219.7,275.2,219.7,275.2C219.7,275.2,219.7,275.2,219.7,275.2
				C219.7,275.2,219.7,275.2,219.7,275.2z M219.7,275.2C219.7,275.2,219.7,275.2,219.7,275.2C219.7,275.2,219.7,275.2,219.7,275.2z
				 M219.6,275.1C219.6,275.1,219.6,275.1,219.6,275.1C219.6,275.1,219.6,275.1,219.6,275.1C219.6,275.1,219.6,275.1,219.6,275.1
				C219.6,275.1,219.6,275.1,219.6,275.1z M219.5,275.1C219.5,275.1,219.5,275.1,219.5,275.1C219.5,275.1,219.5,275.1,219.5,275.1
				C219.5,275.1,219.5,275.1,219.5,275.1z M220.5,276.1C220.5,276.1,220.5,276,220.5,276.1c0-0.1,0-0.1,0.1-0.2
				C220.6,275.9,220.6,276,220.5,276.1z M218.2,274.5C218.2,274.5,218.2,274.5,218.2,274.5C218.2,274.5,218.2,274.5,218.2,274.5
				L218.2,274.5z M216.6,278.1c0,0,0,0.1,0,0.1C216.6,278.2,216.6,278.1,216.6,278.1z M219.1,277.9
				C219.1,277.9,219.1,277.9,219.1,277.9C219.1,277.9,219.1,277.9,219.1,277.9C219.1,277.9,219.1,277.9,219.1,277.9z M216.9,277.7
				C216.9,277.7,216.9,277.7,216.9,277.7C216.9,277.7,216.9,277.7,216.9,277.7C216.9,277.7,216.9,277.7,216.9,277.7z"/>
			<path fill="#D01D3E" d="M225.8,281.3C225.8,281.3,225.8,281.3,225.8,281.3C225.8,281.3,225.8,281.3,225.8,281.3
				C225.8,281.3,225.8,281.3,225.8,281.3c-0.2-0.2-0.5-0.1-0.8-0.2c-0.1,0-0.1-0.1-0.1-0.1c-0.1-0.7-0.1-0.7-0.8-0.7
				c0,0-0.1,0-0.1,0c0,0-0.1,0-0.1,0.1c-0.1,0.2-0.1,0.5,0,0.7c-0.2,0-0.4,0-0.5,0c-0.1,0-0.1,0-0.2,0c0,0,0,0,0,0c0,0,0,0,0,0
				c0,0,0,0-0.1,0c0,0,0,0,0,0c0-0.2,0-0.5,0-0.7c0,0,0.1,0,0.1,0c0.3,0,0.5,0.1,0.8-0.1l0,0c0,0,0-0.1-0.1-0.1l0,0c0,0,0,0,0,0
				c0-0.3,0.1-0.6-0.1-0.8c0,0,0,0,0,0c0,0,0,0,0,0c-0.2,0-0.3,0-0.5,0c0,0,0,0,0,0c-0.2,0-0.3-0.1-0.3-0.3c0-0.6,0-0.6-0.7-0.6
				c-0.2,0-0.2,0.1-0.2,0.2c0,0.2,0.1,0.5-0.1,0.7c0,0,0,0,0,0c0,0,0,0,0,0c-0.2,0-0.5,0-0.7,0c-0.2,0.2,0,0.5-0.1,0.8c0,0,0,0,0,0
				c0,0,0,0,0.1,0c0,0,0,0,0,0c0.2,0.2,0.5,0.2,0.7,0c0,0,0,0.1,0,0.1c0.1,0.4,0,0.6-0.4,0.6c-0.1,0-0.3,0-0.3,0.2c0,0,0,0,0,0
				c-0.1,0.2,0,0.4-0.1,0.6l0,0c0,0,0,0,0,0c0,0,0,0,0,0c-0.2,0-0.5-0.1-0.7,0c0-0.2-0.1-0.4,0.1-0.5c0.2-0.1,0.4,0,0.5-0.2
				c0,0,0,0,0,0c0,0,0,0,0,0c0,0.1,0,0.1,0.1,0c0.2-0.3,0.1-0.5,0.1-0.8c0,0,0-0.1-0.1-0.1c-1,0-0.9-0.2-0.8,0.7c0,0,0,0,0,0
				c0,0,0,0.1-0.1,0.1c0,0,0,0,0,0c0,0,0,0,0,0c-0.2,0-0.5,0-0.7,0c0,0-0.1,0-0.1,0c0,0.1,0,0.3,0,0.4c0,0.3,0,0.5,0.4,0.5
				c0.2,0,0.4-0.1,0.4,0.1c-0.1,0.7-0.1,0.7,0.6,0.7c0.1,0,0.2,0,0.2,0c0.2-0.2,0.1-0.5,0.1-0.8c0,0,0.1,0,0.1,0c0,0,0,0,0,0
				c0,0,0,0,0,0c0.4,0,0.6,0.2,0.5,0.7c0,0,0,0,0,0.1c0,0,0,0,0,0c-0.3-0.1-0.5-0.1-0.8,0c0,0,0,0,0,0.1c0,0,0,0,0,0c0,0,0,0,0,0
				l0,0c0,0.1,0,0.1,0,0.2c0,0.7,0,0.7,0.6,0.7c0.2,0,0.2,0.1,0.2,0.2c0,0.2-0.1,0.4,0.1,0.6c0.2,0,0.5,0,0.7,0c0,0,0,0,0,0
				c0.2-0.2,0.1-0.4,0.1-0.6c0-0.2,0.1-0.3,0.3-0.3c0.6,0,0.6,0,0.6-0.6c0-0.1,0-0.2,0-0.2c0,0,0-0.1,0-0.1l0,0c0,0,0,0.1,0,0.1
				c0.3,0,0.6,0.1,0.8-0.1c0,0,0,0,0,0c0-0.2,0-0.5,0.1-0.6c0.1-0.2,0.4-0.1,0.6-0.1c0.2,0,0.2-0.1,0.2-0.2
				C225.8,281.7,225.8,281.5,225.8,281.3z M223.1,283.1c0,0.2,0,0.5-0.1,0.7c0,0,0,0,0,0c-0.2,0-0.4,0-0.6,0c0,0,0,0,0,0
				c-0.1-0.2,0-0.5-0.1-0.7c0,0,0,0,0-0.1c0,0,0,0,0,0l0,0c0,0,0,0,0,0C222.6,283,222.9,282.8,223.1,283.1
				C223.1,283,223.1,283,223.1,283.1z M222.5,282C222.5,282,222.5,282,222.5,282c0-0.1,0-0.2,0-0.3c0-0.2,0-0.3,0.2-0.3
				c0.2,0,0.3,0.1,0.3,0.3c0,0.1,0,0.3,0.1,0.4C222.9,281.9,222.7,281.9,222.5,282z M224.1,282.1
				C224.1,282.1,224.1,282.1,224.1,282.1C224.1,282.1,224.1,282.1,224.1,282.1C224.1,282.1,224.1,282.1,224.1,282.1z M224.4,281.3
				c0.4,0,0.5,0.1,0.4,0.5c0,0.1,0,0.1,0,0.2c0,0,0,0,0,0c-0.2,0-0.4,0-0.7,0c0,0,0,0,0,0c0-0.1,0-0.2-0.1-0.2c0,0,0,0,0,0
				c0-0.2,0-0.4,0-0.6c0,0,0,0,0,0c0,0,0.1,0.1,0.1,0.1C224.3,281.3,224.3,281.3,224.4,281.3z M222.4,279.9c0-0.2,0.1-0.3,0.3-0.3
				c0.2,0,0.3,0.1,0.3,0.3c0,0.1,0,0.2,0.1,0.3c0,0,0,0,0.1,0c0,0,0,0,0,0c0,0,0,0,0,0.1c0,0,0,0-0.1,0c0,0,0,0,0,0
				c-0.2,0-0.4,0-0.7,0c0,0,0,0-0.1,0c0,0,0,0,0,0C222.4,280.1,222.4,280,222.4,279.9z M223.9,282.8c-0.2,0-0.5,0-0.7,0.1
				c0-0.2,0-0.5,0-0.7c0,0,0,0,0,0C223.6,282.1,224,282.2,223.9,282.8c0.1,0,0.1,0,0.1,0C224,282.8,224,282.8,223.9,282.8z"/>
			<path fill="#D01D3E" d="M197.6,283C197.6,283,197.5,283,197.6,283C197.5,283,197.5,283,197.6,283c0-0.1,0-0.1,0-0.1c0,0,0,0,0,0
				c0.1,0,0.3,0,0.4,0c0.3,0,0.4-0.1,0.4-0.4c0-0.2-0.1-0.4,0.1-0.5c0.8,0.1,0.8,0.1,0.7-0.5c0-0.1,0-0.2,0-0.2
				c-0.2-0.2-0.5-0.1-0.7-0.1c0,0,0,0,0,0c0,0,0,0,0,0c0,0,0,0,0-0.1c-0.1-0.1-0.1-0.2-0.1-0.3c0.1-0.4-0.1-0.6-0.5-0.5
				c-0.3,0-0.4-0.1-0.3-0.4c0-0.1,0.1-0.3-0.1-0.5c-0.2-0.1-0.5,0-0.7,0c0,0,0,0,0,0c-0.1-0.1-0.1-0.1-0.1-0.2c0-0.1,0-0.2,0-0.3
				c0-0.1,0-0.2-0.1-0.3c-0.1,0-0.2,0-0.3,0c-0.1,0-0.2,0-0.3,0c-0.1,0-0.3-0.1-0.3,0.1c0,0,0,0,0,0c0,0,0,0,0,0c0,0.2,0,0.4,0,0.7
				h0c0,0-0.1,0.1-0.1,0.1l0,0c0,0,0,0,0,0c-0.3,0-0.5-0.1-0.8,0c0,0,0,0,0,0c-0.1,0.2,0.1,0.6-0.1,0.7c-0.2,0.2-0.5,0-0.7,0.1
				c0,0,0,0,0,0c0,0,0,0,0,0c0,0.1-0.1,0.3,0,0.4c0,0.3-0.1,0.4-0.3,0.4c0,0,0,0,0,0c-0.2,0-0.5-0.1-0.5,0.1c0,0.2-0.2,0.5,0.1,0.8
				c0.2,0,0.4,0,0.7,0l0,0l0,0c0,0.8,0,0.8,0.9,0.8c0,0,0,0,0,0c0.2-0.2,0.2-0.5,0-0.7c0.6,0,0.6,0,0.7,0.5c0,0,0,0.1,0.1,0.1
				c-0.2-0.1-0.5-0.1-0.7,0c0,0,0,0-0.1,0c-0.1,0.9-0.1,0.9,0.8,0.9c0,0,0.1,0,0.1,0c0,0.2,0,0.4,0,0.6c0.3,0.2,0.6,0.1,0.8,0
				c0,0,0,0,0,0l0,0c0,0,0,0,0,0s0,0,0,0l0,0l0,0c0.1-0.7,0.1-0.7,0.9-0.7C197.7,283.6,197.6,283.3,197.6,283z M196.6,283.5
				c-0.6,0-0.6,0-0.7-0.5c0,0,0,0,0-0.1c0,0,0,0,0.1-0.1c0.5,0,0.7,0,0.7,0.2C196.6,283.3,196.6,283.4,196.6,283.5
				C196.6,283.5,196.6,283.5,196.6,283.5z M195.8,279.6c0.2,0.1,0.5,0.1,0.6-0.1c0,0,0,0,0,0c0,0,0,0,0,0c0,0,0.1,0,0.1,0
				c-0.1,0.2-0.1,0.3,0,0.5c0,0,0,0,0.1,0c0,0,0,0,0,0.1c-0.3-0.1-0.6,0-0.8,0c0,0,0,0,0,0c0,0,0-0.1,0-0.1c0,0,0,0,0,0
				C195.8,279.9,195.8,279.8,195.8,279.6z M195.9,282c0-0.6,0-0.6,0.6-0.7c0,0,0.1,0,0.1-0.1c-0.1,0.3,0.1,0.5-0.1,0.8
				C196.3,282.1,196.1,282,195.9,282C195.9,282,195.9,282,195.9,282z M196.7,282.8c0,0,0.1-0.1,0.1-0.2c0-0.3,0.2-0.4,0.5-0.4
				c0.1,0,0.1,0,0.2,0c-0.1,0.2-0.1,0.4,0,0.6c-0.2,0-0.5-0.1-0.7,0.1C196.7,282.8,196.7,282.8,196.7,282.8z M196.7,281.1
				C196.7,281.1,196.7,281.1,196.7,281.1c0.1-0.3,0-0.5,0-0.8c0.1,0,0.1,0.1,0.2,0.1c0.3,0,0.4,0.1,0.4,0.4c0,0.1,0,0.2,0,0.2
				c0,0,0,0,0,0.1C197.2,281.2,196.9,281.2,196.7,281.1z M195.7,280.3C195.7,280.3,195.7,280.3,195.7,280.3L195.7,280.3
				C195.7,280.3,195.7,280.3,195.7,280.3z M195,280.4c0.2,0,0.4,0,0.6,0c0,0,0,0,0,0.1c0,0.1,0,0.2,0,0.3c0,0.2-0.1,0.3-0.3,0.3
				c-0.2,0-0.3-0.2-0.3-0.3C195,280.6,195,280.5,195,280.4z M197.8,281.2C197.8,281.2,197.8,281.2,197.8,281.2c0.1,0,0.3,0,0.4,0
				c0,0,0,0.1,0,0.1c0,0,0,0,0.1,0c-0.1,0.2-0.1,0.3-0.1,0.5c0,0,0,0,0,0c0,0,0,0.1,0,0.1c-0.2,0-0.4-0.1-0.6,0.1
				c-0.2-0.2-0.1-0.5-0.2-0.8c0,0,0,0,0,0C197.6,281.3,197.7,281.2,197.8,281.2z M194,281.6c0.1-0.1,0.2-0.2,0.4-0.2
				c0.1,0,0.2,0,0.3-0.1c0.1,0.5,0.1,0.5-0.5,0.6c-0.1,0-0.1,0-0.2,0.1C194.1,281.8,194.1,281.7,194,281.6
				C194,281.6,194,281.6,194,281.6z M193.9,281.6C193.9,281.6,193.9,281.6,193.9,281.6C193.9,281.6,193.9,281.6,193.9,281.6
				L193.9,281.6z M196.6,284.5C196.6,284.5,196.6,284.5,196.6,284.5C196.6,284.5,196.6,284.5,196.6,284.5
				C196.6,284.5,196.6,284.5,196.6,284.5z"/>
			<polygon fill="#D01D3E" points="194.9,282.9 194.9,282.9 194.9,282.9 			"/>
			<path fill="#D01D3E" d="M196.7,278c0.4,0,0.4,0.1,0.4,0.5c0,0.1-0.1,0.4,0.2,0.4v0c0.6,0,0.6,0,0.6,0.5c0.3,0,0.7,0,0.6,0.5
				c0,0.1,0.1,0.2,0.2,0.2c0.5-0.1,0.6,0.2,0.6,0.5c0,0,0,0,0,0l0,0c0.1,0.1,0.3,0,0.4,0c0,0,0,0,0,0c0.1,0.1,0.3,0,0.4,0.2
				c0,0,0,0,0,0c0,0.2-0.1,0.4,0.1,0.6c0,0,0,0,0,0c0,0,0.1,0,0.1,0c0,0,0,0,0,0c0,0,0,0,0,0c0.2,0,0.3,0,0.5,0c0,0,0,0,0,0
				c0,0,0.1,0,0.1,0c0.3-0.3,0.2-0.5,0.1-0.8h0c0,0,0,0,0,0c-0.1-0.1-0.3-0.1-0.4,0c-0.1,0-0.1,0-0.2,0c0,0,0,0,0,0c0,0,0,0,0,0
				c0,0,0,0,0,0c-0.3-0.2-0.1-0.4-0.1-0.7c0,0,0,0,0,0c0,0,0,0,0,0c0-0.1,0-0.2-0.2-0.2c-0.2,0-0.4,0-0.6,0l0,0c0,0,0,0,0,0
				c-0.1-0.2,0-0.4-0.1-0.5c0,0,0,0,0,0c-0.1-0.1-0.3,0-0.4,0c0,0,0,0,0,0h0c0,0-0.1-0.1-0.1-0.1c0.1-0.4-0.1-0.6-0.5-0.5
				c-0.2,0-0.2-0.1-0.2-0.2c0-0.1,0-0.2-0.1-0.3c-0.2-0.1-0.4-0.1-0.6,0l0,0c0,0,0,0,0,0c-0.2-0.3-0.2-0.5,0.1-0.6
				c0.2-0.1,0.3,0,0.5-0.1c0-0.2,0-0.5,0-0.7c0.4,0.1,0.7-0.1,0.6-0.5c0,0,0-0.1,0-0.1c0.2,0,0.5,0.2,0.7-0.1c0-0.2,0-0.3,0-0.5
				c0.1,0,0.2,0,0.4,0c0.3,0,0.4-0.1,0.3-0.3c0-0.1,0-0.2,0-0.3c0,0,0,0,0,0c0.6-0.1,0.7-0.1,0.8,0.5c0,0.3,0.2,0.2,0.4,0.2
				c0.3,0,0.4,0,0.4,0.3c0,0.2,0.1,0.3,0.3,0.2c0.2,0,0.3,0.1,0.3,0.3c0,0.1-0.1,0.3,0.1,0.4c0.2,0,0.4,0,0.6,0c0,0,0,0,0,0
				c0.1,0.5,0.1,0.6-0.4,0.6c-0.3,0-0.4,0.1-0.3,0.4c0,0.1,0,0.2,0,0.3v0c-0.2,0-0.3,0-0.5,0c0,0,0,0,0,0c0,0,0,0,0,0
				c-0.1,0-0.1,0.2-0.1,0.2c0,0.3-0.1,0.4-0.3,0.3c-0.2,0-0.4,0-0.4-0.3c0-0.2-0.1-0.3-0.3-0.3c-0.1,0-0.3,0-0.4,0c0,0,0,0,0,0
				c0,0,0,0,0,0c0-0.2,0-0.4,0-0.6c0.2-0.1,0.4-0.1,0.7,0c0.6,0.3,0.9,0,0.9-0.5c0-0.3-0.1-0.3-0.3-0.3c-0.2,0-0.4,0-0.5-0.1
				c0,0,0,0,0,0c0,0,0,0,0,0c-0.3-0.1-0.6-0.3-0.8,0.1c0,0.1,0,0.2,0,0.3c0,0.2,0,0.4-0.3,0.3c-0.5-0.1-0.3,0.3-0.4,0.5
				c0,0.3,0.1,0.4,0.4,0.4c0.2,0,0.3,0.1,0.3,0.3c0,0.1,0,0.2,0,0.3l0,0c0,0.1,0,0.1,0.1,0.1c0,0,0,0,0,0c0,0,0,0,0,0
				c0.4,0,0.9,0,0.7,0.6c0.3,0,0.6,0,0.8,0c0.1,0,0.1-0.1,0.1-0.2c0-0.2,0-0.3,0.2-0.4c0,0,0,0,0.1,0c0.3,0,0.6,0.1,0.5-0.4
				c0-0.2,0.1-0.2,0.2-0.2c0.3,0,0.4-0.1,0.4-0.4c0-0.2-0.1-0.4,0.1-0.5c0.1,0,0.2,0,0.4,0c0.1,0,0.3,0.1,0.3-0.1
				c0-0.2,0.2-0.6-0.2-0.7c0,0,0,0,0,0c-0.3,0-0.7,0-0.6-0.5c0,0,0,0,0,0c0,0,0,0,0,0c0-0.1,0-0.1-0.1-0.1c0,0,0,0,0,0
				c-0.1-0.1-0.5,0.1-0.4-0.3c0.1-0.4-0.1-0.5-0.5-0.4c-0.1,0-0.2,0-0.3,0c0,0,0,0,0,0c0.1-0.4,0-0.7-0.5-0.6
				c-0.2,0-0.2-0.2-0.2-0.3c0-0.1,0.1-0.4-0.1-0.4c-0.3,0-0.6-0.2-0.8,0.2c0,0,0,0.1,0,0.1c0,0.1,0,0.3,0,0.4c0,0,0,0,0,0
				c0,0,0,0,0,0l0,0c0,0,0,0,0,0c0,0,0,0,0,0c-0.1,0-0.1,0-0.2,0c-0.2,0-0.3,0-0.4,0c-0.1,0-0.2,0-0.2,0.1c-0.1,0.1-0.1,0.2-0.1,0.5
				c0,0,0,0,0,0c-0.2,0-0.4,0-0.6,0c0,0,0,0,0,0c-0.2,0.2,0.1,0.5-0.2,0.6c-0.2,0-0.4-0.1-0.6,0c0,0,0,0,0,0c-0.1,0.1-0.1,0.2,0,0.2
				c0,0.3,0,0.5-0.4,0.5c-0.2,0-0.2,0.2-0.2,0.3c0,0.3-0.1,0.4-0.3,0.3c-0.1,0-0.3-0.1-0.3,0.1c-0.1,0.2-0.1,0.5,0,0.7
				C196.3,278.1,196.6,278.1,196.7,278z M199.9,277.2L199.9,277.2L199.9,277.2L199.9,277.2z M200.6,274.6c0,0,0.1,0,0.1,0l0,0
				c0,0,0,0,0,0c0,0,0,0,0,0c0,0,0,0,0,0c0,0,0,0,0,0l0,0C200.7,274.6,200.7,274.6,200.6,274.6z M201.5,275.5
				C201.5,275.5,201.5,275.5,201.5,275.5C201.5,275.5,201.5,275.5,201.5,275.5z"/>
			<path fill="#D01D3E" d="M221,285.1c-0.2,0-0.4,0-0.4-0.3c0.1-0.4,0-0.7-0.5-0.6c0,0-0.1-0.1-0.1-0.1c0-0.2,0-0.3,0-0.5
				c-0.2,0-0.4,0-0.6,0c0,0,0.1,0,0.1,0c0,0,0,0,0,0c0,0-0.1,0-0.1,0c0,0-0.1-0.1-0.1-0.1c0,0,0,0,0,0c0,0,0,0,0,0
				c0-0.2,0.2-0.5-0.1-0.7c0,0,0,0,0,0c0,0,0,0,0,0c-0.1,0-0.1,0-0.2,0c-0.3,0-0.5,0-0.5-0.4c0-0.2-0.2-0.2-0.3-0.2
				c-0.3,0-0.4-0.1-0.4-0.4c0-0.1,0.1-0.3-0.1-0.3c-0.2,0-0.5-0.1-0.7,0.1c-0.1,0.1-0.1,0.3,0,0.4c0,0,0,0,0,0c0,0,0,0.1,0,0.1
				c0,0.1,0,0.3-0.2,0.2c-0.6-0.1-0.7,0.2-0.6,0.6c0,0,0,0.1-0.1,0.2c-0.4-0.1-0.6,0.1-0.5,0.5c-0.2,0-0.4,0-0.5,0c0,0-0.1,0-0.1,0
				c0,0,0,0,0,0c-0.1,0.1-0.1,0.2-0.1,0.3c0,0.3,0,0.5-0.4,0.5c-0.1,0-0.2,0.1-0.2,0.2c0.1,0.6-0.2,0.7-0.7,0.6c0,0-0.1,0.1-0.1,0.1
				c-0.1,0.1-0.1,0.3-0.1,0.4c0,0.1,0,0.1,0,0.2c-0.1-0.3-0.5-0.5-0.5-0.9c0-0.1-0.1-0.1-0.2-0.1c-0.5,0-0.6-0.4-0.8-0.7
				c-0.1-0.2-0.2-0.3-0.5-0.4c-0.1,0-0.3,0-0.3-0.1c-0.1-0.3-0.3-0.4-0.4-0.7c-0.1-0.3-0.2-0.4-0.5-0.4c-0.1,0-0.2,0-0.3-0.1
				c-0.2-0.5-0.8-0.5-1.1,0c-0.1,0.1-0.2,0.2-0.3,0.2c-0.3,0-0.4,0.1-0.5,0.4c-0.1,0.3-0.3,0.7-0.8,0.7c-0.2,0-0.4,0.1-0.4,0.4
				c0,0.2-0.1,0.3-0.2,0.3c-0.1,0-0.2,0.2-0.2,0.3c0,0.1-0.1,0.1-0.1,0.1c-0.1,0-0.1-0.1-0.1-0.2s0-0.2,0-0.3l0,0c0,0,0,0,0,0
				c-0.2-0.2-0.4-0.1-0.6-0.1l0,0c0,0,0,0,0,0c-0.1-0.1-0.1-0.2-0.1-0.4c0-0.4-0.1-0.5-0.5-0.5c-0.5,0.1-0.3-0.8-0.8-0.6
				c0-0.1,0-0.2,0-0.2c0-0.1,0-0.1,0-0.2c0,0,0-0.1-0.1-0.1c0,0,0,0,0,0c0,0,0,0,0,0c-0.2-0.1-0.4,0-0.6,0c0,0,0,0,0,0h0
				c-0.1-0.1-0.2-0.1-0.2-0.3c0.1-0.3-0.1-0.4-0.4-0.3c-0.3,0-0.4,0-0.4-0.2c0-0.1,0-0.2,0-0.2c0-0.1,0-0.1,0.1-0.2
				c0.1,0,0.1,0,0.2,0c0.1,0,0.2,0,0.3,0c0,0,0,0,0,0c0,0,0,0,0,0c0,0,0,0,0,0c0,0,0,0,0,0c0.2-0.4,0.5-0.6,0.8-0.9c0,0,0,0,0,0
				c0-0.2,0.1-0.2,0.2-0.2c0.5-0.1,0.5-0.1,0.6-0.6c0.1-0.1,0.2-0.1,0.3-0.2c0.1,0,0.1,0,0.2,0c0,0,0,0,0,0c0.1,0,0.1-0.1,0.1-0.2
				c0,0,0,0,0-0.1c0-0.1,0-0.2,0-0.3c0.1-0.2,0.3-0.2,0.5-0.1c0.1,0,0.1,0,0.2,0c0,0.2-0.1,0.5,0.1,0.7c0.1,0.1,0.4,0,0.5,0.1
				c0,0,0,0,0,0c0.1,0.4,0.5,0.5,0.6,0.8c0.1,0.3,0.2,0.5,0.5,0.5c0.2,0,0.3,0.1,0.3,0.3c0,0.2-0.1,0.3-0.3,0.3
				c-0.4-0.1-0.6,0.1-0.5,0.5c0,0,0,0.1-0.1,0.1c0,0,0,0,0,0c-0.2,0-0.3,0-0.5,0c-0.1,0.1-0.1,0.1-0.1,0.2c0,0.1,0.1,0.3-0.2,0.3
				c-0.2,0-0.5,0.1-0.6-0.2c0-0.1,0-0.2,0-0.3c-0.2-0.1-0.4,0-0.6,0c-0.1-0.1-0.1-0.2-0.2-0.3c0,0,0,0,0,0c0-0.1,0-0.1,0-0.2
				c0.1-0.4,0.4-0.2,0.6-0.2c0,0,0,0,0,0c0,0,0,0,0,0c0,0.2,0.1,0.1,0.3,0.1c0,0,0,0,0,0c0,0,0,0,0,0c0.1,0,0.3,0,0.4,0
				c0.1,0,0.2,0,0.2-0.2c0-0.2,0.1-0.5-0.1-0.7c-0.2-0.2-0.6,0.1-0.8-0.2c0,0,0,0,0,0h0c0,0,0,0-0.1,0c-0.2-0.1-0.4-0.1-0.6,0
				c0,0,0,0-0.1,0l0,0c0,0,0,0,0,0c-0.1,0.1-0.1,0.2-0.1,0.3c0,0.3-0.1,0.5-0.4,0.4c-0.2,0-0.3,0.1-0.2,0.3
				c-0.1,0.4-0.1,0.7,0.5,0.6c0.2,0,0.2,0.1,0.2,0.2c0,0.1,0,0.3,0,0.4c0,0,0,0,0,0c0,0,0,0,0,0c0,0.1,0,0.1,0.1,0.1c0,0,0,0,0,0
				c0.1,0.1,0.3,0,0.4,0c0.2,0,0.3,0.1,0.3,0.3c-0.1,0.4,0.2,0.3,0.4,0.3c0.2,0,0.5,0,0.4-0.3c0-0.2,0.1-0.3,0.3-0.3
				c0.5,0.1,0.6-0.2,0.5-0.6c0.6,0,0.6,0,0.6-0.6c0-0.3,0.2-0.3,0.4-0.3c0.3,0,0.4-0.1,0.4-0.4c0-0.5,0-0.5-0.6-0.5
				c-0.1,0-0.1,0-0.2,0l0,0c-0.1-0.2,0-0.4,0-0.6c-0.2-0.2-0.6,0.1-0.5-0.4c0-0.3-0.1-0.4-0.4-0.4c-0.2,0-0.4,0-0.4-0.3
				c0-0.2-0.1-0.3-0.3-0.2c-0.1,0-0.3,0-0.4,0c0,0,0,0,0,0c0,0,0,0,0,0c0,0,0,0,0,0c0,0,0,0,0,0h0c-0.1-0.8-0.1-0.8-0.7-0.8
				c-0.2,0-0.3,0-0.2,0.2c0.1,0.4-0.2,0.5-0.5,0.5c-0.1,0-0.2,0-0.3,0.1c-0.2,0.2,0,0.4-0.1,0.6c0,0,0,0,0,0c-0.2,0-0.4,0-0.6,0
				c0,0,0,0,0,0c0,0,0,0,0,0c-0.2,0.1-0.1,0.4-0.1,0.5c0,0,0,0,0,0c0,0,0,0,0,0c-0.3,0-0.5,0-0.8,0c-0.1,0.1-0.1,0.3-0.1,0.5
				c0,0.2-0.1,0.3-0.3,0.3c-0.3,0-0.3,0.1-0.3,0.3c0,0.3-0.1,0.4-0.4,0.3c-0.2,0-0.3,0-0.3,0.2c0.1,0.2-0.1,0.4,0,0.6
				c0,0,0,0.1,0.1,0.1c0,0,0,0,0.1,0c0,0,0,0,0,0c0.1,0,0.3,0.1,0.4,0c0.2,0.1,0.3,0.2,0.2,0.5c0,0.2,0.1,0.3,0.3,0.3
				c0.4-0.1,0.6,0.1,0.5,0.5c0,0,0,0,0,0c0,0.2,0.2,0.1,0.3,0.1c0.2,0,0.2,0.1,0.2,0.2c0.1,0.1,0,0.3,0.1,0.4c0,0,0,0,0,0
				c0.1,0.1,0.2,0.1,0.3,0.1c0.3,0,0.5,0,0.4,0.4c0,0.2,0.2,0.2,0.3,0.2c0.4-0.1,0.5,0.1,0.5,0.5c0,0.1-0.1,0.3,0.1,0.3
				c0.2,0,0.3,0.1,0.3,0.2c0,0.1-0.1,0.1-0.1,0.2c-0.3,0-0.3,0.3-0.4,0.5c-0.1-0.3-0.2-0.5-0.6-0.5c-0.2,0-0.2-0.2-0.2-0.3
				c-0.1-0.4-0.2-0.5-0.6-0.4c0,0-0.1,0-0.1-0.1c0-0.1-0.1-0.2-0.1-0.2c0-0.1,0-0.2-0.1-0.4c0,0,0,0,0,0.1c0,0,0,0,0,0
				c0,0,0-0.1,0-0.1c-0.2-0.1-0.5-0.1-0.5-0.5c0-0.2-0.2-0.2-0.4-0.1c-0.3,0.1-0.3-0.2-0.2-0.4c0-0.3,0-0.4-0.4-0.4
				c-0.4,0.1-0.5-0.1-0.5-0.5c0.1-0.3-0.1-0.4-0.4-0.4c-0.2,0-0.6-0.1-0.5,0.3c0,0.3-0.1,0.4-0.4,0.4c-0.1,0-0.2,0-0.3,0
				c0,0,0,0,0,0.1c0,0,0,0,0,0c0,0,0,0,0,0c-0.1,0.2,0,0.3,0,0.5c0-0.1,0.1-0.1,0.1-0.2c0,0,0,0.1,0,0.1c0,0,0,0-0.1,0
				c-0.2,0.1-0.5,0-0.7,0.1c0,0,0,0,0,0l0,0c0,0,0,0,0,0c0,0,0,0,0,0c-0.1,0.1,0,0.3-0.1,0.5c0,0.1,0,0.3-0.2,0.3
				c-0.5-0.1-0.5,0.3-0.4,0.6c-0.2,0.2-0.5-0.1-0.6,0.2c-0.1,0.2,0,0.5,0,0.7c0,0,0,0,0,0c0,0,0,0,0,0c-0.2,0.1-0.4-0.1-0.6,0.1
				c0,0,0,0,0,0c0,0,0,0,0,0c0,0,0,0,0,0h0c0,0,0,0.1,0,0.1c0,0,0,0,0,0c0,0,0,0,0,0c0,0.2-0.1,0.4,0,0.7c0,0,0,0,0,0
				c0.2,0.2,0.5,0,0.7,0.1c0,0.7,0,0.7,0.6,0.7v0c0.1,0.2-0.1,0.5,0.1,0.7c0,0,0,0,0,0l0,0c0.2,0.2,0.3,0,0.5,0c0,0,0.1,0.1,0.1,0.1
				c0,0.3,0.1,0.6,0.5,0.5c0.1,0,0.1,0.1,0.1,0.2c0,0.1,0,0.3,0,0.4c0,0,0,0,0,0c0.2,0.2,0.7,0.2,0.9,0c0,0,0,0,0,0
				c0.1-0.6,0.1-0.6,0.7-0.7c0.2,0,0.3-0.1,0.2-0.3c0-0.2,0-0.4,0.2-0.3c0.3,0,0.4-0.1,0.4-0.4c0-0.1,0-0.2,0-0.4c0,0,0,0,0,0
				c0.1,0,0.1,0,0.2,0c0.3,0,0.4-0.1,0.4-0.4c0-0.1,0-0.2,0-0.3c0-0.1,0-0.2-0.2-0.2c-0.4,0.1-0.4-0.2-0.4-0.5c0-0.2,0-0.4-0.3-0.3
				c-0.4,0.1-0.6,0-0.5-0.5c0-0.3-0.2-0.2-0.4-0.2c-0.2,0-0.5-0.2-0.5,0.2c0,0.5-0.2,0.5-0.5,0.5c-0.2,0-0.3,0.1-0.3,0.3
				c0,0.5,0.3,0.9,0.2,1.3c0,0.1,0.1,0.1,0.2,0.1c0.2,0,0.5,0.1,0.7-0.1c0.2-0.2,0.1-0.5,0-0.8c0,0-0.1-0.1-0.1-0.1
				c0-0.2-0.1-0.4,0-0.5c0.1-0.1,0.4-0.1,0.5,0c0.2,0,0.1,0.2,0.1,0.4c0,0.3,0.1,0.4,0.4,0.4c0.1,0,0.2,0,0.2,0.1c0,0,0,0,0,0
				c0,0.2,0,0.4,0,0.6c0,0-0.1,0.1-0.1,0.1c-0.3,0-0.6,0-0.5,0.5c0,0.1-0.1,0.2-0.2,0.2c-0.3,0-0.4,0.1-0.4,0.4
				c0,0.1,0.1,0.3-0.2,0.4c-0.3,0-0.4,0-0.4-0.3c0-0.3,0-0.5-0.4-0.4c-0.2,0-0.3,0-0.3-0.3c0-0.1,0.1-0.2-0.1-0.2
				c-0.2,0-0.3,0-0.5,0c0,0,0,0,0,0c0,0,0,0,0,0c-0.1-0.2,0-0.5-0.1-0.7c0,0,0,0,0,0c0,0,0,0,0,0v0c0,0,0,0,0,0c0,0,0,0,0,0
				c0-0.1-0.1-0.1-0.2-0.1c-0.3,0-0.4,0-0.5-0.1c0-0.1,0-0.1,0-0.2c0-0.1,0-0.2,0.1-0.3c0,0,0,0,0-0.1c0,0,0,0,0,0
				c0.2-0.1,0.6,0.3,0.6-0.3c0,0,0,0,0,0c0,0,0,0,0,0c0-0.1,0-0.3,0.1-0.4c0.6,0,0.6,0,0.6-0.6c0,0,0-0.1,0-0.1c0,0,0,0,0,0
				c0.3-0.1,0.8-0.1,0.7-0.6c0.8,0,0.8,0,0.7-0.7c0,0,0,0,0,0c0,0,0,0,0.1-0.1c0,0,0,0.1,0,0.1c0.6,0,0.5-0.1,0.5,0.5
				c0,0.1,0,0.2,0.1,0.3c0.2,0,0.4,0,0.5,0c0,0,0,0,0,0c0,0,0,0,0,0c0,0.2-0.1,0.5,0,0.6c0.1,0.2,0.4,0,0.6,0.1c0,0,0.1,0,0.1,0.1
				c0,0,0,0,0,0c0,0.1,0,0.3,0,0.4c0.4,0,0.6,0.2,0.5,0.6c0,0.2,0.1,0.2,0.3,0.2c0.5-0.1,0.6,0.1,0.5,0.6c0,0.1,0,0.2,0.2,0.2
				c0.1,0,0.3,0,0.3,0.2c0,0.3-0.2,0.2-0.3,0.3c0,0.2,0,0.5-0.4,0.4c-0.1,0-0.4-0.1-0.4,0.1c0,0.3,0,0.6-0.4,0.7c0,0,0,0.1,0,0.2
				c0,0.1,0,0.2-0.1,0.2c-0.5-0.1-0.7,0.2-0.7,0.6c0,0,0,0-0.1,0c0,0,0,0,0,0l0,0c-0.4-0.1-0.2,0.2-0.3,0.4c0,0,0,0,0,0c0,0,0,0,0,0
				c-0.2,0.1-0.5,0-0.7,0.1c0,0,0,0,0,0c-0.1,0.3-0.1,0.5,0,0.8c0,0,0,0,0,0c0,0,0,0,0,0c0,0.1,0,0.2,0.1,0.2c0.2,0,0.4,0,0.7,0
				c0.1,0.1-0.1,0.4,0.1,0.4c0.3,0,0.3,0.2,0.3,0.4c0,0.2,0.1,0.3,0.3,0.3c0.2,0,0.5-0.1,0.5,0.3c0,0.1,0.1,0.1,0.2,0.1
				c0.1,0,0.2,0.1,0.2,0.2c-0.1,0.4,0.2,0.5,0.5,0.5c0.1,0,0.1,0,0.2,0c0,0.1,0,0.1,0,0.2c0,0,0.1,0,0.1,0c0,0.3,0.2,0.4,0.4,0.4
				c0,0.1,0,0.1,0,0.2c0,0.2,0,0.4,0.3,0.4c0.1,0,0.3,0,0.4,0c0,0.1,0.1,0.2,0.1,0.3c0,0,0,0,0,0.1c0,0.1,0.1,0.1,0.2,0.1
				c0.1,0,0.2,0.1,0.2,0.2c0,0.2,0.1,0.3,0.3,0.3c0,0,0.1,0,0.1,0c0,0,0,0,0,0.1c0,0.1,0,0.2,0.1,0.2c0.3,0,0.6-0.1,0.8,0.3
				c0,0,0,0,0.1,0c0.2,0,0.2,0.1,0.2,0.2c0,0.1,0,0.3,0.1,0.4c0-0.1,0-0.1,0-0.2c0,0.1,0.1,0.2,0.4,0.2c0.1,0.1,0,0.4,0.2,0.3
				c0.4,0,0.3,0.2,0.3,0.4c0,0.1,0,0.2,0.1,0.2c0.3,0,0.5,0.2,0.7,0.3c0.2,0.1,0.2,0.2,0.3,0.4c0,0.1,0,0.3,0.2,0.3
				c0.1,0,0.3,0,0.4,0c0.2,0,0.3-0.1,0.3-0.4c0-0.2-0.1-0.5,0.3-0.5c0.1,0,0.1-0.1,0.1-0.1c0-0.2,0.1-0.2,0.3-0.2
				c0.2,0,0.3,0,0.3-0.3c0-0.1,0-0.2,0-0.3c0.4,0.1,0.4-0.3,0.6-0.5c0.3,0,0.3-0.1,0.3-0.3c0,0,0-0.1,0-0.1c0-0.2,0.1-0.2,0.3-0.2
				c0.4,0.1,0.6-0.1,0.5-0.5c0,0,0-0.1,0.1-0.1c0,0,0,0,0,0c0.3,0.1,0.4-0.1,0.3-0.3c0.2-0.2,0.4-0.1,0.5-0.1c0.1,0,0.2,0,0.2-0.1
				c0-0.3,0-0.7,0.4-0.9c0,0,0-0.1,0-0.1c0-0.2,0.1-0.2,0.3-0.2c0.1,0,0.3,0.1,0.4,0c0,0,0,0,0,0c0,0,0,0,0,0c0.1-0.2,0-0.3,0-0.5
				c0.1-0.2,0.4,0,0.4-0.2c0-0.4,0.3-0.3,0.5-0.4c0.1,0,0.2,0,0.2,0c0-0.3,0.2-0.5,0.4-0.8c0.2-0.2,0.3-0.3,0.5-0.3
				c0.2,0,0.4,0.1,0.4-0.2c0-0.2,0-0.3,0-0.5c0-0.2-0.1-0.4-0.4-0.4c-0.2,0-0.6,0.1-0.5-0.4c0-0.1-0.1-0.1-0.1-0.1
				c-0.3,0-0.2-0.2-0.2-0.3c0-0.2,0-0.3-0.3-0.3c-0.2,0-0.5,0.1-0.5-0.3c0-0.1-0.1-0.1-0.2-0.1c-0.1,0-0.2-0.1-0.2-0.2
				c0.1-0.4-0.2-0.5-0.5-0.4c-0.1,0-0.2,0-0.3,0c0,0,0,0,0,0c0,0,0,0,0,0c0-0.2,0.1-0.4-0.2-0.4c-0.1,0-0.1-0.1-0.1-0.2
				c0-0.2,0-0.3,0-0.5c0,0,0,0,0,0c0,0,0,0,0,0c0.2-0.1,0.5-0.1,0.4-0.5c-0.1-0.3,0.1-0.4,0.4-0.4c0.1,0,0.2,0,0.3,0
				c0.3-0.2,0.1-0.5,0.1-0.8c0,0,0,0,0,0c0,0,0,0,0,0c0.2-0.1,0.5,0.2,0.6-0.2c0-0.3,0.1-0.3,0.3-0.3c0.3,0,0.4-0.1,0.4-0.3
				c0-0.2-0.1-0.4,0.1-0.5c0.4,0.1,0.5-0.1,0.4-0.4c0-0.1,0-0.3,0-0.4c0,0,0,0,0,0c0,0,0,0,0,0l0,0c0.6,0,0.6,0,0.7,0.6
				c0,0,0,0.1,0,0.1c0.1,0,0.2,0,0.3,0c0.3,0,0.6,0,0.5,0.4c0,0.1,0.1,0.2,0.2,0.2c0.4-0.1,0.5,0.2,0.4,0.5c0,0.2,0,0.3,0.2,0.3
				c0.4,0,0.4,0.2,0.4,0.4c0,0.1,0,0.3,0.2,0.3c0.5,0.1,0.6,0.2,0.4,0.7c0,0,0,0,0,0c0,0,0,0,0,0c-0.8,0-0.7-0.1-0.6,0.6
				c0,0,0,0,0,0c0,0.1-0.1,0.1-0.2,0.1c-0.3-0.1-0.4,0.1-0.4,0.4c0,0,0,0.1-0.1,0.1c0,0,0,0,0,0c-0.6,0-0.6,0-0.6,0.6
				c0,0,0,0.1,0,0.1c0,0,0,0,0,0c-0.5,0.2-0.6,0.2-0.6-0.3c0-0.3-0.1-0.4-0.3-0.3c-0.2,0-0.3-0.1-0.3-0.3c0-0.2-0.1-0.4-0.3-0.3
				c-0.2,0-0.3-0.1-0.3-0.3c0-0.1,0-0.3,0-0.4c0.4,0,0.7-0.1,0.6-0.6c0-0.2,0.1-0.2,0.2-0.2c0.1,0,0.3,0,0.4,0c0,0,0,0,0,0
				c0,0,0,0,0,0c0,0,0.1,0.1,0.1,0.1c0,0.2,0,0.4,0,0.6c-0.1,0.2-0.2,0.8-0.1,0.9c0.2,0.1,0.5,0.1,0.7,0c0.2,0,0.1-0.2,0.1-0.4
				c0-0.2,0-0.3,0.1-0.5c0.1-0.2,0.1-0.5,0-0.8c-0.1-0.2-0.4-0.1-0.6-0.1c-0.1,0-0.1,0-0.2,0l0,0c-0.1-0.2,0.2-0.7-0.4-0.7
				c-0.4,0-0.6,0.1-0.5,0.5c0,0.1,0,0.2-0.1,0.3c0,0,0,0,0,0c-0.7-0.1-0.7-0.1-0.7,0.6c0,0,0,0.1,0,0.1c0,0,0,0,0,0
				c-0.2,0.2-0.6-0.2-0.6,0.3c0,0.6,0,0.6,0.6,0.6c0,0.1,0,0.2,0,0.2c0,0.3-0.1,0.6,0.4,0.5c0.1,0,0.2,0.1,0.2,0.2
				c0,0.3,0.1,0.4,0.4,0.4c0.4-0.1,0.5,0.1,0.5,0.5c0,0.1-0.1,0.3,0.1,0.3c0.4,0.1,0.7,0,0.8-0.5c0,0,0-0.1,0-0.1
				c0.3-0.1,0.5-0.6,0.8-0.7c0.4-0.1,0.5-0.2,0.5-0.6c0-0.1,0-0.2,0.1-0.3c0,0,0,0,0,0c0.4,0.1,0.6,0,0.5-0.4c0-0.3,0.2-0.3,0.4-0.3
				c0.4,0,0.4-0.2,0.4-0.4C221.4,285.3,221.5,285,221,285.1z M205.4,280.5C205.4,280.5,205.4,280.5,205.4,280.5
				C205.4,280.5,205.4,280.5,205.4,280.5C205.4,280.5,205.4,280.5,205.4,280.5z M206.9,281.6C206.9,281.6,206.9,281.6,206.9,281.6
				C206.9,281.6,206.9,281.6,206.9,281.6C206.9,281.6,206.9,281.6,206.9,281.6z M207.7,281.7C207.7,281.7,207.7,281.7,207.7,281.7
				C207.7,281.7,207.7,281.7,207.7,281.7L207.7,281.7z M208.3,279.9C208.3,279.9,208.3,279.9,208.3,279.9
				C208.3,279.9,208.3,279.9,208.3,279.9C208.3,279.9,208.3,279.9,208.3,279.9L208.3,279.9C208.3,279.9,208.3,279.9,208.3,279.9z
				 M203.2,280.3c0,0,0,0.1,0,0.1C203.2,280.4,203.2,280.3,203.2,280.3z M204.7,283.5C204.7,283.5,204.7,283.5,204.7,283.5
				C204.7,283.5,204.7,283.5,204.7,283.5C204.7,283.5,204.7,283.6,204.7,283.5C204.7,283.6,204.7,283.5,204.7,283.5
				C204.7,283.5,204.7,283.5,204.7,283.5L204.7,283.5z M204,282.2C203.9,282.2,203.9,282.2,204,282.2
				C203.9,282.2,203.9,282.2,204,282.2C203.9,282.2,203.9,282.2,204,282.2z M203.9,283.6C203.9,283.6,203.9,283.6,203.9,283.6
				C203.9,283.6,203.9,283.6,203.9,283.6L203.9,283.6z M202.4,286.9c-0.1,0-0.1,0-0.1,0.1C202.3,286.9,202.3,286.9,202.4,286.9z
				 M198.6,284.4L198.6,284.4C198.6,284.4,198.6,284.4,198.6,284.4S198.6,284.4,198.6,284.4z M198.2,286.8
				C198.2,286.8,198.2,286.8,198.2,286.8C198.2,286.8,198.2,286.8,198.2,286.8C198.2,286.8,198.2,286.8,198.2,286.8
				C198.2,286.8,198.2,286.8,198.2,286.8z M197.8,285.5C197.8,285.5,197.8,285.5,197.8,285.5C197.8,285.5,197.8,285.5,197.8,285.5
				C197.8,285.5,197.8,285.5,197.8,285.5z M199.9,288.7C199.9,288.7,199.9,288.7,199.9,288.7C199.9,288.7,199.9,288.7,199.9,288.7
				C199.9,288.7,199.9,288.7,199.9,288.7z M200,288.9C200,288.9,200,288.9,200,288.9C200,288.9,200,288.9,200,288.9
				C200,288.9,200,288.9,200,288.9z M199.2,287.7C199.2,287.7,199.2,287.7,199.2,287.7C199.2,287.7,199.2,287.7,199.2,287.7z
				 M200,288.9L200,288.9L200,288.9L200,288.9z M201.7,289.5c-0.1,0-0.1,0-0.2,0c0,0,0,0,0,0C201.6,289.5,201.6,289.5,201.7,289.5z
				 M211.2,284.7C211.2,284.7,211.2,284.7,211.2,284.7C211.2,284.7,211.2,284.7,211.2,284.7C211.2,284.7,211.2,284.7,211.2,284.7z
				 M201.6,283.2C201.6,283.2,201.6,283.2,201.6,283.2C201.6,283.2,201.6,283.2,201.6,283.2L201.6,283.2
				C201.6,283.2,201.6,283.2,201.6,283.2C201.6,283.2,201.6,283.2,201.6,283.2z M207.6,295.7c0-0.1,0-0.1,0-0.2
				C207.6,295.6,207.6,295.6,207.6,295.7z M214.6,292.6c0.1,0,0.2,0,0.2,0C214.8,292.6,214.7,292.6,214.6,292.6z M215.3,292.2
				C215.3,292.2,215.3,292.2,215.3,292.2C215.3,292.2,215.3,292.2,215.3,292.2C215.3,292.2,215.3,292.2,215.3,292.2z M214.9,288.7
				C214.9,288.7,214.9,288.7,214.9,288.7C214.9,288.7,214.9,288.7,214.9,288.7C214.9,288.7,214.9,288.7,214.9,288.7z M214.7,288.2
				C214.7,288.2,214.7,288.2,214.7,288.2C214.7,288.2,214.7,288.2,214.7,288.2L214.7,288.2C214.7,288.2,214.7,288.2,214.7,288.2
				C214.7,288.2,214.7,288.2,214.7,288.2c-0.1,0.6-0.1,0.6,0.4,0.7c0.2,0,0.3,0.2,0.4,0.3c0,0,0.1,0,0.1,0c0,0,0.1,0,0.1,0
				c0,0,0,0,0,0.1c0.2,0.6,0.2,0.6,0.6,0.7c-0.4,0.2-0.5,0.7-0.8,1.1c-0.2,0.2-0.4,0.1-0.7,0.1c0,0-0.1,0.1-0.1,0.1
				c-0.1,0.5-0.3,0.8-0.9,0.8c-0.2,0-0.3,0.2-0.3,0.4c0,0.2,0,0.4-0.2,0.5c-0.1,0.1-0.2,0.3-0.1,0.4c-0.1,0.1-0.1,0.1-0.2,0.1
				c-0.1,0-0.2,0-0.3,0c-0.1,0-0.1,0-0.1,0.1c-0.1,0.3-0.3,0.4-0.5,0.7c-0.1-0.1-0.2-0.1-0.3-0.1c0,0.1-0.1,0.2-0.1,0.3
				c-0.3,0.1-0.5,0.4-0.7,0.7c0,0,0,0,0,0c-0.1,0-0.1,0.1-0.2,0.2c-0.2,0.1-0.4,0.2-0.6,0.3c0.1,0.1,0.2,0.2,0.3,0.3
				c0,0,0,0.1,0,0.1c0,0,0,0,0.1,0c0,0,0,0,0,0c0,0,0,0,0,0c-0.1,0-0.1,0.1-0.2,0.1c-0.5,0.2-0.5,0.2-0.6,0.5
				c-0.2-0.3-0.7-0.4-1-0.6c-0.2-0.2-0.1-0.4-0.1-0.6c0,0-0.1-0.1-0.1-0.1c-0.4-0.1-0.7-0.2-0.8-0.7c0-0.2-0.1-0.3-0.3-0.3
				c0,0-0.1,0-0.1,0c-0.1,0-0.1-0.1-0.2-0.1c0,0-0.1,0-0.1,0c0,0,0,0-0.1,0c-0.1-0.1-0.2-0.1-0.2-0.1c-0.1-0.1-0.2-0.2-0.2-0.3
				c0-0.1,0-0.2-0.1-0.2c0,0-0.1,0-0.1-0.1c-0.1-0.2-0.3-0.4-0.6-0.5c-0.1-0.4-0.3-0.5-0.6-0.6c0-0.1,0-0.2,0-0.3
				c-0.1-0.2-0.4-0.1-0.5-0.2c0-0.1,0-0.1-0.1-0.2c0,0,0,0-0.1,0.1c-0.2-0.2-0.5-0.4-0.5-0.8c0-0.1-0.1-0.1-0.1-0.1
				c-0.1,0.1-0.1,0.1-0.2,0.1c0,0,0,0-0.1,0c-0.1,0-0.2-0.1-0.2-0.1c-0.2-0.4-0.5-0.7-0.7-1.1c-0.1,0-0.2,0-0.3,0c0.1,0,0.2,0,0.3,0
				c0,0,0.1-0.1,0.1-0.1c0.1-0.2-0.1-0.5,0.3-0.6c0,0,0.1-0.1,0.1-0.1c0-0.1,0-0.2,0.1-0.3c0.4,0,0.8-0.1,0.9-0.6
				c0-0.1,0.1-0.1,0.1-0.2c0,0,0,0,0-0.1c0,0,0,0,0,0l0,0c0,0,0,0,0,0c0,0,0,0,0.1,0c0,0,0.1,0,0.1,0c0.1-0.1,0.2-0.2,0.3-0.3
				c0.5-0.2,0.6-0.3,0.5-0.8c0,0,0,0,0.1-0.1c0.3-0.2,0.5-0.5,0.9-0.5c0.1,0,0.2-0.2,0.2-0.3c0.2-0.4,0.3-0.8,0.8-0.7
				c0.1,0,0.2,0,0.2-0.1c0-0.4,0.4-0.6,0.5-1c0.1-0.1,0.1-0.1,0.2-0.1c0.1,0,0.1,0,0.2,0c0.1,0,0.1,0,0.2,0c0.1-0.4,0.5-0.6,0.6-1
				c0.1-0.1,0.2-0.1,0.3,0c0.1,0.4,0.5,0.6,0.6,1c0,0.1,0.1,0.1,0.2,0.1c0.3,0,0.4,0.1,0.6,0.3c0.1,0,0.1,0,0.2,0c0,0,0.1,0,0.1,0
				c0,0,0,0,0,0.1c0,0.6,0,0.6,0.5,0.7c0.1,0,0.1,0.1,0.2,0.1c0.4,0.3,0.4,1,1.1,1c0,0,0.1,0.1,0.1,0.1c0.1,0.2,0.2,0.3,0.4,0.3
				c0.1,0,0.1,0.1,0.1,0.2c0,0.1,0,0.2,0,0.2c0,0.1,0,0.2,0,0.2c0.3,0.2,0.7,0.2,0.9,0.5C214.4,288.3,214.6,288.2,214.7,288.2z
				 M215.4,283.7C215.4,283.7,215.4,283.7,215.4,283.7C215.4,283.7,215.4,283.7,215.4,283.7C215.4,283.7,215.4,283.7,215.4,283.7
				C215.4,283.7,215.4,283.7,215.4,283.7z M219.2,282.8C219.2,282.8,219.2,282.8,219.2,282.8C219.1,282.8,219.1,282.8,219.2,282.8
				C219.1,282.8,219.2,282.8,219.2,282.8z"/>
			<path fill="#D01D3E" d="M210.3,280.5C210.3,280.5,210.3,280.5,210.3,280.5C210.3,280.5,210.3,280.5,210.3,280.5
				c0.1,0.1,0.1,0.3,0.1,0.5c0,0.3,0,0.5,0.4,0.4c0.1,0,0.2,0.1,0.2,0.2c-0.1,0.4,0.2,0.4,0.4,0.4c0.3,0,0.4,0,0.4,0.3
				c0,0.2,0.1,0.3,0.3,0.3c0.1,0,0.3,0,0.4,0l0,0c0,0,0,0,0,0c0.2,0,0.3,0,0.2-0.2c-0.1-0.4,0.2-0.4,0.4-0.4c0.3,0,0.4-0.1,0.4-0.4
				c-0.1-0.3,0.1-0.4,0.4-0.4c0.1,0,0.3,0,0.3-0.2c0.1-0.5,0-0.7-0.5-0.7c-0.1,0-0.2,0-0.2-0.1c0,0,0,0,0,0c0,0,0,0,0,0
				c0-0.2,0-0.3,0-0.5c0-0.1,0-0.1,0-0.2c0-0.1-0.2-0.1-0.2-0.1c-0.3-0.1-0.6,0.1-0.9,0.2c-0.2,0-0.4,0-0.5,0.1c0,0,0,0,0,0
				c-0.1,0-0.1,0.1-0.1,0.3c0,0.1,0,0.1,0,0.2c0,0,0,0.1,0,0.1c0,0.2,0.1,0.2,0.3,0.3c0.3,0,0.6-0.1,0.9-0.2
				c0.2-0.1,0.3,0.1,0.3,0.3c0,0.2,0.1,0.4-0.3,0.4c-0.3,0-0.5,0-0.5,0.4c0,0.1,0,0.1-0.1,0.2c0,0,0,0,0,0c-0.2,0-0.4,0-0.6,0
				c0,0,0,0,0,0c0,0-0.1-0.1-0.1-0.1c0-0.2,0-0.3,0-0.5c0,0,0,0,0,0c0,0,0,0,0,0c-0.1-0.1-0.2-0.1-0.3-0.1c-0.1,0-0.3-0.1-0.2-0.2
				c0.1-0.4-0.2-0.4-0.5-0.4c-0.2,0-0.3,0-0.3-0.3c0-0.2,0.1-0.3,0.3-0.3c0.1,0,0.3,0.1,0.4-0.1c0,0,0,0,0,0c0,0,0,0,0,0
				c0,0,0,0,0,0l0,0c0.1-0.1,0-0.1,0-0.2c0,0,0,0,0,0c0.1-0.1,0-0.4,0.2-0.4c0,0,0,0,0,0c0.1,0,0.1,0,0.2,0l0,0l0,0c0,0,0,0,0,0
				c0,0,0,0,0,0c0.2-0.2,0.1-0.4,0.1-0.5c0,0,0,0,0,0c0,0,0,0,0,0c0.2-0.1,0.5,0,0.7-0.1c0,0,0,0,0,0c0-0.1,0-0.1,0-0.2c0,0,0,0,0,0
				c0,0,0,0,0.1,0c0,0,0-0.1,0-0.1c0-0.2,0.1-0.3,0.4-0.3c0.2,0,0.2,0.2,0.2,0.3c0,0.2,0.2,0.4,0.4,0.4c0.1,0,0.2,0,0.3,0.1
				c0,0.1,0.1,0.2,0.1,0.2c0,0.2,0.1,0.2,0.4,0.2c0.1,0,0.2,0,0.2,0c0.1,0.2-0.1,0.5,0.2,0.5c0,0,0,0,0,0c0,0,0,0,0.1,0c0,0,0,0,0,0
				c0,0,0,0.1,0,0.1c0.2,0.1,0.4,0.1,0.4,0.4c0,0.2,0.1,0.4,0.4,0.4c0.1,0,0.2,0,0.3,0.1c0,0,0,0,0,0c-0.1,0.2-0.2,0.4-0.6,0.3
				c0,0-0.1,0-0.1,0c-0.1,0.4-0.5,0.5-0.7,0.7c0,0-0.1,0-0.1,0c-0.2,0.1,0,0.4-0.2,0.5c-0.4,0-0.4,0.3-0.4,0.6c0,0,0,0,0,0
				c0,0-0.1,0-0.1,0c-0.4,0-0.6,0.1-0.6,0.6c0,0.3-0.1,0.3-0.3,0.3c-0.1,0-0.4-0.1-0.4,0.1c0,0.3-0.1,0.5,0.1,0.8c0,0,0,0,0,0
				c0.2,0,0.5,0,0.7,0c0,0,0,0,0,0c0,0,0,0,0,0c0.1,0,0.1-0.2,0.1-0.2c-0.1-0.4,0.1-0.6,0.5-0.5c0.2,0,0.3,0,0.3-0.3
				c0-0.2,0-0.3,0.2-0.3c0.1,0,0.3,0,0.4,0c0,0,0,0,0-0.1c0.1-0.3,0.1-0.7,0.6-0.7c0,0,0,0,0,0c0.1-0.1,0-0.3,0-0.4c0,0,0,0,0,0
				c0.1-0.1,0.2-0.1,0.3-0.1c0.4,0.1,0.5-0.1,0.5-0.5c0-0.2,0.1-0.4,0.3-0.3c0.1,0,0.2,0,0.3,0c0.2,0,0.3-0.1,0.2-0.3
				c0-0.2,0.2-0.6-0.2-0.6c-0.5,0-0.6-0.2-0.5-0.6c0-0.1-0.1-0.1-0.1-0.1c0,0,0,0,0,0c0,0,0,0,0,0c-0.1-0.1-0.5,0.1-0.4-0.2
				c0.1-0.6-0.2-0.7-0.7-0.6c0,0-0.1,0-0.1-0.1c0-0.5,0-0.5-0.6-0.5c0,0,0,0,0.1,0c0,0,0,0,0,0c0,0,0,0,0,0c0-0.5-0.2-0.8-0.7-0.6
				c-0.2,0-0.2-0.1-0.2-0.2c0-0.1,0-0.3,0-0.4c0,0,0,0-0.1,0c-0.3,0-0.6-0.2-0.8,0.1c0,0,0,0,0,0c0,0.6,0,0.6-0.7,0.7c0,0,0,0,0,0
				c-0.2,0.1-0.1,0.3-0.1,0.5c0,0,0,0,0,0c-0.1,0.1-0.2,0.1-0.4,0.1c-0.3,0-0.5,0-0.4,0.4c0.1,0.3-0.2,0.3-0.4,0.3c0,0,0,0,0,0
				c-0.3,0-0.1,0.3-0.2,0.5c0,0,0,0,0,0c-0.2,0.2-0.5,0-0.7,0.2c0,0,0,0,0,0c0,0-0.1,0-0.1,0C209.6,280.5,209.6,280.5,210.3,280.5z
				 M213.4,281.2L213.4,281.2C213.4,281.2,213.4,281.2,213.4,281.2C213.4,281.2,213.4,281.2,213.4,281.2
				C213.4,281.2,213.4,281.2,213.4,281.2C213.4,281.2,213.4,281.2,213.4,281.2C213.4,281.2,213.4,281.2,213.4,281.2z M211.5,281.2
				C211.5,281.2,211.5,281.2,211.5,281.2c0.1,0,0.1,0,0.1,0C211.6,281.2,211.5,281.2,211.5,281.2z M214.8,278.8
				C214.8,278.8,214.8,278.8,214.8,278.8C214.8,278.8,214.8,278.8,214.8,278.8C214.8,278.8,214.8,278.8,214.8,278.8z M212.4,278.4
				L212.4,278.4C212.4,278.4,212.4,278.4,212.4,278.4L212.4,278.4z M211.1,279.4C211.1,279.4,211.1,279.4,211.1,279.4
				C211.1,279.4,211.1,279.4,211.1,279.4C211.1,279.4,211.1,279.4,211.1,279.4z"/>
			<path fill="#D01D3E" d="M214.2,288.6c0-0.3-0.1-0.3-0.4-0.3c-0.2,0-0.4,0.1-0.5-0.1c0-0.1,0-0.2,0-0.2c0,0,0,0,0,0c0,0,0,0,0,0
				c-0.2-0.1-0.4-0.2-0.3-0.5c0-0.1,0-0.1-0.1-0.2v0c0,0,0,0,0,0c0,0,0,0,0,0c0,0,0,0,0,0c-0.2-0.1-0.4,0-0.6,0c0,0,0,0,0,0
				c0-0.3-0.2-0.5-0.5-0.6c0.1-0.5,0.1-0.5-0.4-0.5c-0.2,0-0.4,0-0.3-0.3c0-0.1-0.1-0.2-0.2-0.2c-0.2,0-0.2-0.1-0.2-0.3
				c0-0.3-0.1-0.4-0.4-0.4c-0.2,0-0.4,0-0.4-0.3c0-0.2-0.2-0.2-0.3-0.2c-0.2,0-0.5-0.2-0.6,0.2c0,0.4-0.2,0.3-0.4,0.3
				c-0.1,0-0.4-0.1-0.3,0.2c0,0.2,0,0.5-0.3,0.5c-0.1,0-0.1,0.2-0.1,0.3c0,0,0,0,0,0c0,0.1-0.1,0.1-0.2,0.2c0,0,0,0,0,0
				c-0.2,0-0.5-0.2-0.6,0.2c0,0.3,0,0.5-0.4,0.5c0,0,0,0.1,0,0.1c0,0,0,0,0,0c0,0.4-0.3,0.2-0.5,0.2c-0.2,0-0.3,0-0.3,0.2
				c0,0.2,0.1,0.5-0.3,0.4c-0.1,0-0.1,0.1-0.1,0.1c0,0.4-0.2,0.3-0.4,0.3c-0.3,0-0.4,0-0.4,0.3c0.1,0.3,0,0.5-0.3,0.5c0,0,0,0,0,0
				c0,0.1,0,0.2,0,0.3c0,0,0,0,0,0c-0.8,0.1-0.8,0.1-0.8,0.7c0,0.2,0.1,0.3,0.3,0.3c0.3,0,0.7-0.2,0.7,0.4c0,0,0,0,0.1,0
				c0.3,0,0.3,0.2,0.3,0.4c-0.1,0.4,0.1,0.4,0.4,0.4c0.1,0,0.4-0.1,0.3,0.2c0,0.4,0.2,0.3,0.4,0.3c0,0,0,0,0,0c0,0.6,0,0.6,0.6,0.6
				c0,0,0,0,0,0c0.2,0.2,0,0.6,0.4,0.5c0,0,0.1,0.1,0,0.2c-0.1,0.4,0.2,0.4,0.5,0.4c0.1,0,0.3,0,0.3,0.2c0,0.2,0.1,0.3,0.3,0.3
				c0.1,0,0.2,0.1,0.1,0.2c-0.1,0.5,0.2,0.5,0.6,0.5c0.1,0,0.2,0,0.2,0.1c0,0.1,0,0.3-0.2,0.3c0.1,0,0.2,0.1,0.3,0.1c0,0,0,0,0,0
				c0,0,0,0,0,0c0.1,0,0.2,0.1,0.3,0.1c0.1-0.2,0.3,0,0.4-0.2c0,0,0,0,0,0c0,0,0,0,0,0c0.1-0.1-0.1-0.4,0.2-0.5c0,0,0,0,0,0
				c0,0,0,0,0,0c0.2,0,0.4,0.1,0.6,0c0,0,0,0,0,0c0.1-0.2-0.1-0.6,0.4-0.6c0,0,0-0.1,0-0.1c0-0.3,0.2-0.3,0.4-0.3
				c0.2,0,0.4,0.1,0.4-0.2c0-0.2,0-0.5,0.3-0.4c0,0,0.1-0.1,0.1-0.1c-0.1-0.4,0.2-0.3,0.4-0.3c0.1,0,0.3,0,0.3,0
				c0.1-0.3,0.2-0.5,0.4-0.8c0.1-0.2,0.2-0.3,0.4-0.3c0.1,0,0.3,0.1,0.3-0.1c0.1-0.3-0.1-0.7,0.4-0.9c0-0.3,0.2-0.3,0.4-0.3
				c0.1,0,0.2,0.1,0.3-0.1l0,0c0,0,0,0,0,0c0.1-0.2,0-0.5,0-0.7c0,0,0,0,0,0c0,0,0,0,0,0c0-0.1-0.1-0.1-0.1-0.1
				c-0.3-0.1-0.8,0.2-0.8-0.4c0,0,0,0,0,0C214,289,214.1,288.8,214.2,288.6z M213.2,287.9C213.2,287.9,213.2,287.9,213.2,287.9
				C213.2,287.9,213.2,287.9,213.2,287.9z M206.6,292.6C206.6,292.6,206.6,292.6,206.6,292.6C206.6,292.6,206.6,292.6,206.6,292.6
				C206.7,292.6,206.7,292.6,206.6,292.6C206.6,292.6,206.6,292.6,206.6,292.6z M210.5,294.7C210.5,294.7,210.5,294.7,210.5,294.7
				C210.5,294.7,210.5,294.7,210.5,294.7z M210.6,294.6C210.6,294.6,210.6,294.6,210.6,294.6C210.6,294.6,210.6,294.6,210.6,294.6z
				 M210.7,294.5C210.7,294.5,210.7,294.5,210.7,294.5C210.7,294.5,210.7,294.5,210.7,294.5C210.7,294.5,210.7,294.5,210.7,294.5z
				 M213.5,290.6c-0.2,0.2-0.3,0.4-0.4,0.5c-0.1,0-0.1,0-0.2,0.1c-0.1,0-0.2,0-0.2,0c0,0,0,0,0,0c-0.2,0-0.1,0.2-0.2,0.2
				c-0.2,0.3-0.4,0.7-0.8,0.7c-0.2,0-0.2,0.1-0.3,0.3c-0.2,0.4-0.4,0.8-0.9,0.8c-0.1,0-0.1,0-0.2,0.1c-0.1,0.1,0.1,0.3-0.1,0.5
				c-0.2,0.1-0.3,0.2-0.4,0.4c-0.1,0.2-0.3,0.2-0.4,0c-0.2-0.3-0.5-0.5-0.6-0.8c-0.2-0.1-0.4,0.1-0.6-0.1c0-0.2-0.1-0.4-0.3-0.5
				c-0.1,0-0.1-0.2-0.2-0.3c0-0.3-0.2-0.4-0.5-0.4c-0.1,0-0.3-0.1-0.4-0.1c0,0,0,0-0.1,0c0,0,0,0,0,0c0.1-0.2,0-0.2-0.1-0.2
				c0,0,0-0.1-0.1-0.1c-0.1-0.6-0.1-0.6-0.8-0.7c-0.1,0,0,0,0,0c-0.2,0-0.1-0.2-0.1-0.3c-0.2-0.1-0.3-0.3-0.2-0.5
				c0-0.1-0.1-0.3-0.1-0.4c-0.1-0.2-0.1-0.3,0-0.5c0.1-0.1,0.2-0.1,0.3-0.2c0-0.2,0.1-0.4,0.4-0.4c0.1,0,0.1,0,0.2,0
				c0.1,0,0.1,0,0.1,0c0-0.3,0.2-0.5,0.3-0.7c0,0,0,0,0.1-0.1c0,0,0,0,0,0c0.1-0.2,0.2-0.2,0.4-0.3c0.1,0,0.2,0.1,0.3-0.1l0,0
				c0,0,0,0-0.1,0c0,0,0,0,0,0c0,0,0,0,0.1,0c0,0,0,0,0,0c0,0,0,0.1,0.1,0.1c0.1,0,0.1-0.2,0.1-0.2c0.2-0.3,0.3-0.8,0.9-0.8
				c0.1,0,0.2,0,0.2-0.1c0-0.3,0.3-0.5,0.4-0.7c0.2-0.3,0.3-0.2,0.5,0c0.2,0.2,0.3,0.5,0.5,0.7c0,0,0,0,0,0c0,0,0,0,0,0
				c0,0.1,0.2,0.1,0.3,0.2c0.2,0,0.3,0.1,0.4,0.2c0.2,0.2,0.4,0.3,0.4,0.6c0,0.1,0.1,0.2,0.2,0.2c0.5,0.1,0.8,0.4,0.9,0.9
				c0,0.1,0.1,0.2,0.2,0.2c0.3,0,0.5,0.2,0.7,0.5c0,0.1,0.1,0.1,0.2,0.1c0.2,0.2,0.1,0.4,0.1,0.6
				C213.6,290.1,213.7,290.4,213.5,290.6z"/>
			<path fill="#D01D3E" d="M213.1,289.4c-0.1-0.1-0.2-0.1-0.2-0.1c-0.2,0-0.3-0.1-0.5-0.3c-0.2-0.2-0.3-0.5-0.4-0.8
				c0-0.1-0.2,0-0.4,0c-0.1,0-0.3,0-0.3-0.1c0-0.4-0.3-0.3-0.4-0.5c0,0,0,0,0,0c0-0.2,0-0.3,0-0.5c0,0,0,0,0,0
				c-0.1-0.1-0.2-0.1-0.3-0.1c-0.2,0-0.5,0-0.4-0.3c0-0.2-0.2-0.2-0.4-0.1c-0.2,0-0.5-0.1-0.5,0.1c0,0.4-0.2,0.3-0.4,0.3
				c-0.3,0-0.4,0.1-0.4,0.4c0,0.3-0.5,0.4-0.5,0.7c0,0-0.1,0-0.1,0c-0.4,0-0.7,0-0.6,0.5c0,0,0,0.1,0,0.1c-0.4,0-0.3,0.3-0.4,0.5
				c-0.2,0-0.4,0-0.6,0c0,0,0,0,0,0c0,0,0,0,0,0c-0.1,0.1-0.1,0.2-0.1,0.2c0,0,0,0,0,0c0,0.2,0,0.5,0,0.7c0,0,0,0,0,0
				c0,0.1,0.2,0.1,0.2,0.1c0.3-0.1,0.5,0,0.6,0.4l0,0c0,0,0,0,0,0c0,0,0,0,0,0c0.3,0,0.4,0.2,0.3,0.5c0,0.2,0,0.3,0.2,0.2
				c0.3,0,0.6-0.1,0.6,0.4c0,0.1,0.1,0.1,0.2,0.1c0.2,0,0.2,0.1,0.2,0.3c0,0.1-0.1,0.2,0.1,0.3c0,0,0,0,0,0l0,0c0,0,0,0,0,0
				c0,0,0,0,0,0c0.1,0.1,0.1,0.1,0.2,0.1c0.3,0,0.5-0.1,0.5,0.4c0,0.2,0.3,0.1,0.5,0.1c0.1,0,0.4,0.1,0.4-0.1c0-0.3,0.2-0.3,0.4-0.3
				c0.3,0,0.4,0,0.4-0.4c0-0.1,0-0.3,0.2-0.3c0.1,0,0.2,0,0.2-0.1c0-0.5,0.3-0.3,0.6-0.3c0.1,0,0.2,0,0.2,0c0-0.4,0.3-0.5,0.4-0.8
				c0.1-0.3,0.2-0.3,0.4-0.3c0.1,0,0.4,0.1,0.4-0.2c0,0,0,0,0,0C213.2,289.9,213.2,289.7,213.1,289.4
				C213.1,289.4,213.1,289.4,213.1,289.4z M207,290.7C207,290.7,207,290.7,207,290.7c0,0-0.1-0.1-0.1-0.1
				C206.9,290.6,206.9,290.6,207,290.7C207,290.7,207,290.7,207,290.7z M210.4,287.2c0,0-0.1,0-0.1,0c0,0,0,0,0,0c0,0-0.1,0,0,0
				C210.3,287.2,210.4,287.2,210.4,287.2z"/>
		</g>
	</g>
</g>
</svg>
