<?xml version="1.0" encoding="utf-8"?>
<!-- Generator: Adobe Illustrator 16.0.0, SVG Export Plug-In . SVG Version: 6.00 Build 0)  -->
<!DOCTYPE svg PUBLIC "-//W3C//DTD SVG 1.1//EN" "http://www.w3.org/Graphics/SVG/1.1/DTD/svg11.dtd">
<svg version="1.1" id="Layer_1" xmlns="http://www.w3.org/2000/svg" xmlns:xlink="http://www.w3.org/1999/xlink" x="0px" y="0px"
	 width="493.135px" height="308.511px" viewBox="0 0 493.135 308.511" enable-background="new 0 0 493.135 308.511"
	 xml:space="preserve">
<g>
	<defs>
		<rect id="SVGID_1_" y="-0.001" width="493.134" height="308.512"/>
	</defs>
	<clipPath id="SVGID_2_">
		<use xlink:href="#SVGID_1_"  overflow="visible"/>
	</clipPath>
	<g clip-path="url(#SVGID_2_)">
		<rect y="-0.001" fill="#898989" width="493.134" height="308.512"/>
		<g>
			<g>
				
					<path fill="none" stroke="#F4B07D" stroke-width="29.1108" stroke-linecap="round" stroke-linejoin="round" stroke-miterlimit="10" d="
					M267.064,206.877c0,0,70.043,27.923,108.458,7.438c17.803-9.494,24.359-23.226,29.524-53.19"/>
				<path fill="none" stroke="#282828" stroke-width="29.811" stroke-linejoin="round" stroke-miterlimit="10" d="M267.064,206.877
					c0,0,70.043,27.923,108.458,7.438c17.803-9.494,24.359-23.226,29.524-53.19"/>
				
					<path fill="none" stroke="#F4B07D" stroke-width="29.1108" stroke-linecap="round" stroke-linejoin="round" stroke-miterlimit="10" d="
					M225.047,206.877c0,0-70.043,27.923-108.458,7.438c-17.803-9.494-24.359-23.226-29.524-53.19"/>
				<path fill="none" stroke="#282828" stroke-width="29.811" stroke-linejoin="round" stroke-miterlimit="10" d="M225.047,206.877
					c0,0-70.043,27.923-108.458,7.438c-17.803-9.494-24.359-23.226-29.524-53.19"/>
				<path fill="#776537" d="M195.592,147.519c0,0-4.943,1.808-4.896,10.171c0.018,2.803,1.507,10.172-3.768,10.548
					c0,0,6.404,0.754,8.287-3.39c0,0-0.376,7.534-3.391,9.418c0,0,17.707,7.533,20.72-9.418l-1.507-24.862
					C211.037,139.985,200.113,135.464,195.592,147.519z"/>
				<path fill="#776537" d="M302.176,147.519c0,0,4.945,1.808,4.898,10.171c-0.018,2.803-1.508,10.172,3.768,10.548
					c0,0-6.404,0.754-8.289-3.39c0,0,0.377,7.534,3.391,9.418c0,0-17.705,7.533-20.719-9.418l1.508-24.862
					C286.732,139.985,297.656,135.464,302.176,147.519z"/>
				<g>
					<polygon fill="#B7B7B7" points="189.438,189.145 201.493,187.639 203.377,201.199 					"/>
					<polygon fill="#B7B7B7" points="308.289,189.145 296.234,187.639 294.35,201.199 					"/>
					<path fill="#F4B07D" d="M320.281,270.742H178.14c0,0,23.269-85.93,23.269-127.111c0-23.796,95.188-23.794,95.188,0
						C296.596,203.147,320.281,270.742,320.281,270.742z"/>
					<g>
						<path fill="#776537" d="M249.984,62.577c0,0-18.481-25.898-52.744,0.395c-13.848,10.627-19.963,54.781,3.344,78.09
							l50.596-56.576L249.984,62.577z"/>
						<path fill="#776537" d="M250.168,62.577c0,0,18.48-25.898,52.744,0.395c13.844,10.63,19.963,54.781-3.344,78.09
							l-50.596-56.576L250.168,62.577z"/>
						<path fill="#F4B07D" d="M293.771,92.008c0,0-15.998-20.463-46.436-20.024c-30.318-0.438-43.053,20.024-43.053,20.024
							c-10.643,17.414-7.461,71.209-7.461,71.209c0,26.616,36.916,47.824,52.422,47.824s52.555-19.824,52.555-47.824
							C301.799,163.217,304.414,109.422,293.771,92.008z"/>
						<g>
							<path opacity="0.1" fill="#232222" d="M273.07,181.593c0,0-3.889,14.31-24.719,14.31c-20.578,0-24.719-14.31-24.719-14.31
								s7.529,10.542,25.598,10.542C249.23,192.135,261.268,193.395,273.07,181.593z"/>
						</g>
						<g opacity="0.2">
							<path fill="#231F20" d="M262.143,136.383c0.152,0.148,0.313,0.329,0.451,0.487c0.139,0.169,0.28,0.334,0.407,0.513
								c0.259,0.354,0.505,0.72,0.706,1.126c0.105,0.199,0.204,0.403,0.279,0.625c0.087,0.214,0.164,0.435,0.209,0.675
								c0.059,0.232,0.106,0.469,0.107,0.724c0.019,0.25,0.026,0.5-0.029,0.757c-0.037,0.257-0.074,0.514-0.189,0.75
								c-0.105,0.236-0.18,0.499-0.344,0.691c-0.15,0.201-0.295,0.42-0.462,0.599l-0.543,0.48c-0.178,0.175-0.381,0.27-0.576,0.395
								l-0.593,0.352l-1.224,0.512l-0.034,0.015l-0.114,0.021c-0.487,0.089-1.041,0.237-1.544,0.406
								c-0.511,0.172-1.004,0.38-1.462,0.625c-0.456,0.245-0.892,0.515-1.235,0.842c-0.36,0.335-0.566,0.636-0.898,1.185
								c-0.341,0.509-0.727,1.116-1.324,1.55c-0.27,0.251-0.586,0.405-0.898,0.57c-0.311,0.189-0.63,0.267-0.948,0.372
								c-0.644,0.246-1.259,0.262-1.891,0.386c-0.633,0.034-1.185,0.074-1.881,0.084c-0.59-0.039-1.138-0.035-1.761-0.108
								c-0.646-0.102-1.294-0.171-1.922-0.402l-0.473-0.148c-0.156-0.068-0.311-0.151-0.466-0.228L243.029,150
								c-0.147-0.093-0.286-0.209-0.428-0.315c-0.587-0.415-1.005-0.997-1.365-1.513l-0.238-0.374
								c-0.025-0.04-0.111-0.177-0.088-0.136l-0.129-0.175c-0.195-0.281-0.285-0.33-0.459-0.51c-0.344-0.328-0.78-0.597-1.234-0.843
								c-0.458-0.245-0.952-0.452-1.463-0.625c-0.503-0.169-1.057-0.316-1.544-0.406l-0.114-0.021l-0.034-0.015l-1.223-0.512
								l-0.593-0.352c-0.195-0.125-0.398-0.219-0.576-0.394l-0.543-0.48c-0.167-0.179-0.311-0.398-0.461-0.599
								c-0.163-0.192-0.238-0.455-0.344-0.69c-0.115-0.236-0.152-0.492-0.189-0.749c-0.057-0.257-0.049-0.507-0.03-0.757
								c0.001-0.255,0.048-0.492,0.107-0.724c0.044-0.24,0.12-0.46,0.207-0.674c0.075-0.222,0.174-0.427,0.28-0.625
								c0.199-0.407,0.445-0.773,0.703-1.127c0.268-0.355,0.528-0.674,0.865-1.007c0.254-0.25,0.661-0.247,0.911,0.006
								c0.241,0.245,0.247,0.634,0.019,0.885l-0.018,0.02c-0.229,0.25-0.469,0.571-0.671,0.876
								c-0.203,0.312-0.395,0.633-0.533,0.963c-0.077,0.164-0.146,0.328-0.19,0.495c-0.058,0.165-0.105,0.33-0.123,0.493
								c-0.033,0.164-0.059,0.325-0.044,0.479c-0.005,0.157-0.005,0.312,0.043,0.451c0.029,0.144,0.049,0.291,0.132,0.416
								c0.073,0.126,0.098,0.272,0.218,0.381c0.102,0.116,0.178,0.243,0.288,0.355l0.382,0.312c0.11,0.116,0.286,0.186,0.435,0.275
								l0.459,0.258l1.034,0.396l-0.147-0.035c0.657,0.1,1.23,0.24,1.834,0.42c0.595,0.181,1.182,0.405,1.757,0.69
								c0.572,0.288,1.134,0.634,1.643,1.097c0.243,0.22,0.577,0.575,0.71,0.775l0.13,0.174c0.113,0.155,0.099,0.146,0.153,0.227
								l0.233,0.357c0.308,0.423,0.583,0.806,0.958,1.052c0.092,0.065,0.174,0.141,0.271,0.201l0.316,0.152l0.315,0.156l0.36,0.104
								c0.468,0.174,0.981,0.214,1.48,0.299c0.527,0.062,1.146,0.056,1.714,0.088l1.597-0.062c0.504-0.102,1.071-0.11,1.517-0.292
								c0.232-0.074,0.485-0.126,0.67-0.251c0.201-0.105,0.417-0.195,0.569-0.35c0.361-0.239,0.618-0.638,0.925-1.08
								c0.265-0.444,0.719-1.111,1.229-1.551c0.509-0.464,1.071-0.809,1.643-1.098c0.575-0.285,1.163-0.509,1.758-0.69
								c0.604-0.18,1.177-0.319,1.834-0.42l-0.147,0.036l1.034-0.396l0.459-0.258c0.149-0.088,0.324-0.159,0.435-0.274l0.382-0.312
								c0.11-0.112,0.188-0.24,0.289-0.355c0.118-0.109,0.143-0.254,0.217-0.381c0.083-0.125,0.102-0.271,0.132-0.415
								c0.048-0.14,0.047-0.294,0.042-0.451c0.015-0.153-0.01-0.315-0.044-0.479c-0.017-0.163-0.065-0.327-0.124-0.493
								c-0.044-0.167-0.113-0.331-0.189-0.495c-0.293-0.652-0.727-1.303-1.213-1.846l-0.005-0.006
								c-0.237-0.265-0.215-0.673,0.051-0.91C261.516,136.138,261.901,136.15,262.143,136.383z"/>
						</g>
						<path fill="#2E230E" d="M225.775,122c0,1.604-1.301,2.898-2.902,2.898c-1.601,0-2.901-1.295-2.901-2.898
							c0-1.604,1.301-2.905,2.901-2.905C224.475,119.095,225.775,120.396,225.775,122z"/>
						<path fill="#593B2E" d="M207.752,120.968c0,0,9.896-9.466,23.898-5.781c0,0,4.008-2.36,0.537-3.844
							C232.188,111.343,215.551,108.479,207.752,120.968z"/>
						<path fill="#2E230E" d="M270.707,122c0,1.604,1.297,2.898,2.9,2.898c1.605,0,2.906-1.295,2.906-2.898
							c0-1.604-1.301-2.905-2.906-2.905C272.004,119.095,270.707,120.396,270.707,122z"/>
						<path fill="#593B2E" d="M289.121,119.742c0,0-10.725-8.505-24.33-3.537c0,0-4.209-1.979-0.891-3.778
							C263.9,112.427,280.197,108.036,289.121,119.742z"/>
						<path fill="#F4B07D" d="M201.166,131.1c0,0-9.959-16.333-13.544-1.194c-1.106,4.661-1.198,29.88,13.144,13.946"/>
						
							<path fill="none" stroke="#C18963" stroke-width="1.5936" stroke-linecap="round" stroke-linejoin="round" stroke-miterlimit="10" d="
							M194.792,131.497c0,0-5.181,3.985,0,9.958"/>
						<path fill="#F4B07D" d="M295.746,131.1c0,0,9.963-16.333,13.547-1.194c1.105,4.661,1.193,29.88-13.145,13.946"/>
						
							<path fill="none" stroke="#C18963" stroke-width="1.5936" stroke-linecap="round" stroke-linejoin="round" stroke-miterlimit="10" d="
							M302.123,131.497c0,0,5.178,3.985,0,9.958"/>
						
							<path fill="none" stroke="#C18963" stroke-width="1.9905" stroke-linecap="round" stroke-linejoin="round" stroke-miterlimit="10" d="
							M233.051,158.66c0,0,16.854,9.242,31.396-1.623"/>
						<path fill="#776537" d="M195.248,74.526c0,0-5.851,34.934-5.054,35.198c0.795,0.265,28.159-14.216,28.159-14.216
							l31.744-11.023l47.141,14.477l9.564-3.982l-5.047-24.968l-45.955-4.78l-36.117,3.982L195.248,74.526z"/>
						<path opacity="0.3" fill="#231F20" d="M249.826,84.485c0,0,19.127,44.357,61.621,21.648c0,0-12.217-6.607-14.209-14.971"/>
						<path opacity="0.3" fill="#231F20" d="M249.555,84.149c0,0-11.5,33.504-53.385,22.291c0,0,9.605-4.618,13.15-12.543"/>
						<path fill="#776537" d="M250.098,84.485c0,0,17.928,38.383,58.295,21.119c0,0-9.162-6.775-11.154-15.142"/>
						<path fill="#776537" d="M249.555,84.149c0,0-14.645,27.141-49.178,21.344c0,0,7.546-6.337,8.817-13.662"/>
						<path fill="#776537" d="M233.492,52.483c0,0,6.428-2.278,4.25-11.689c0,0,7.175,6.903,7.175,13.813
							c0,0,2.919-14.343,9.028-16.469c0,0-2.225,18.847,16.359,13.32l-3.344,7.664l-13.283,16.198l-24.433-4.516L233.492,52.483z"/>
					</g>
				</g>
				<path fill="#F4B07D" d="M194.335,208.815c-8.473,36.173-24.845,33.259-24.845,94.406c0,75.265,0,61.742,0,63.652
					c0,0.136,8.281,0.2,8.281,0.2h71.475V208.815H194.335z"/>
				<path fill="#F4B07D" d="M301.414,208.815c8.477,36.173,24.846,33.259,24.846,94.406c0,75.265,0,61.742,0,63.652
					c0,0.136-8.283,0.2-8.283,0.2h-71.471V208.815H301.414z"/>
				<g>
					<circle opacity="0.2" fill="#232222" cx="211.705" cy="262.506" r="7.174"/>
					<path opacity="0.2" fill="#232222" d="M215.295,262.506c0,1.98-1.605,3.594-3.59,3.594c-1.983,0-3.591-1.613-3.591-3.594
						s1.607-3.588,3.591-3.588C213.689,258.918,215.295,260.525,215.295,262.506z"/>
				</g>
				<g>
					<circle opacity="0.2" fill="#232222" cx="284.026" cy="262.506" r="7.175"/>
					<path opacity="0.2" fill="#232222" d="M287.617,262.506c0,1.98-1.607,3.594-3.59,3.594c-1.984,0-3.592-1.613-3.592-3.594
						s1.607-3.588,3.592-3.588C286.01,258.918,287.617,260.525,287.617,262.506z"/>
				</g>
				<rect x="193.662" y="207.038" fill="#FFFFFF" width="107.365" height="155.397"/>
				<path fill="#282828" d="M201.961,202.254v161.629h-40.607c0,0-12.435-117.905,28.353-161.629H201.961z"/>
				<path fill="#282828" d="M295.857,202.254v161.629h43.621c0,0,7.338-133.978-31.365-161.629H295.857z"/>
				<polygon fill="#2D2D2D" points="201.225,202.177 179.369,230.732 199.921,232.254 179.369,258.211 201.225,337.964 				"/>
				<polygon fill="#2D2D2D" points="295.711,202.177 317.566,230.732 297.018,232.254 317.566,258.211 295.711,337.964 				"/>
				<g>
					<g>
						<polygon fill="#EA94C7" points="232.294,207.71 248.328,223.743 264.939,207.71 248.707,203.506 						"/>
						<path fill="#EA94C7" d="M253.92,216.891l-5.023-5.102v-0.561l-0.281,0.277l-0.275-0.277l-0.029,0.593l-4.997,5.069
							l-11.726,111.633c0,0,12.879,29.033,17.309,29.033c5.617,0,16.748-29.033,16.748-29.033L253.92,216.891z"/>
					</g>
					<polygon fill="#D6D6D6" points="193.959,190.652 249.244,203.506 232.133,221.795 189.438,202.207 189.438,189.145 					"/>
					<polygon fill="#D6D6D6" points="303.99,190.652 248.707,203.506 265.818,221.795 308.51,202.207 308.51,189.145 					"/>
				</g>
				<g>
					<path fill="#F4B07D" d="M286.666,185.955c0,0-6.023,20.276-38.314,20.276c-31.898,0-38.314-20.276-38.314-20.276
						s11.666,14.938,39.676,14.938C249.713,200.893,268.375,202.68,286.666,185.955z"/>
				</g>
			</g>
			<g>
				<path fill="#2D68BE" d="M429.521,133.981c-15.98,17.897-44.507,13.943-58.877,10.457v15.905h26.474
					C422.285,152.064,429.521,133.981,429.521,133.981z"/>
				<path fill="#D1F4F4" d="M440.066,118.164h-69.422v26.274c14.37,3.486,42.896,7.44,58.877-10.457c0,0-7.236,18.083-32.403,26.362
					h42.948V118.164z"/>
				<path fill="#A0A3A5" d="M411.067,134.567c0,0.647-0.524,1.172-1.172,1.172h-29.292c-0.646,0-1.172-0.524-1.172-1.172v-9.08
					c0-0.647,0.525-1.172,1.172-1.172h29.292c0.647,0,1.172,0.524,1.172,1.172V134.567z"/>
			</g>
			<g>
				<g>
					<path fill="#E6FDFB" d="M106.855,162.686c0,5.87-4.759,10.629-10.629,10.629H76.151c-5.87,0-10.629-4.759-10.629-10.629v-57.63
						c0-5.87,4.759-10.629,10.629-10.629h20.075c5.87,0,10.629,4.759,10.629,10.629V162.686z"/>
					<path fill="#E6FDFB" d="M79.9,94.929h-6.612c0,0,1.292-1.979,2.962-3.65c1.67-1.669,3.65-5.796,3.65-5.796V94.929z"/>
					<path fill="#E6FDFB" d="M91.809,94.929h7.321c0,0-2.001-1.979-3.671-3.65c-1.671-1.669-3.65-5.796-3.65-5.796V94.929z"/>
					<rect x="79.516" y="84.064" fill="#E6FDFB" width="12.932" height="17.892"/>
				</g>
				<path fill="#A6374D" d="M94.042,86.367c0,0.702-0.569,1.271-1.271,1.271H78.396c-0.702,0-1.271-0.569-1.271-1.271v-6.63
					c0-0.702,0.568-1.271,1.271-1.271h14.376c0.701,0,1.271,0.568,1.271,1.271V86.367z"/>
				<path fill="#A0A3A5" d="M100.242,119.669c0,0.558-0.452,1.01-1.01,1.01H74c-0.558,0-1.009-0.452-1.009-1.01v-7.822
					c0-0.557,0.451-1.009,1.009-1.009h25.232c0.558,0,1.01,0.452,1.01,1.009V119.669z"/>
				<path fill="#A6374D" d="M72.607,143.913v16.274l2.786,0.768c10.517-0.514,19.104-2.888,25.911-5.839v-7.57
					C91.523,148.505,81.566,146.729,72.607,143.913z"/>
			</g>
		</g>
	</g>
</g>
</svg>
