<?xml version="1.0" encoding="utf-8"?>
<!-- Generator: Adobe Illustrator 16.0.0, SVG Export Plug-In . SVG Version: 6.00 Build 0)  -->
<!DOCTYPE svg PUBLIC "-//W3C//DTD SVG 1.1//EN" "http://www.w3.org/Graphics/SVG/1.1/DTD/svg11.dtd">
<svg version="1.1" id="Layer_1" xmlns="http://www.w3.org/2000/svg" xmlns:xlink="http://www.w3.org/1999/xlink" x="0px" y="0px"
	 width="493.135px" height="308.511px" viewBox="0 0 493.135 308.511" enable-background="new 0 0 493.135 308.511"
	 xml:space="preserve">
<g>
	<rect y="-0.008" fill="#A03063" width="493.135" height="308.527"/>
	<rect y="277.492" fill="#FCEDD9" width="493.135" height="31.027"/>
	<rect x="42.559" y="288.23" fill="#AE2427" width="124.666" height="20.289"/>
	<rect x="69.955" y="19.5" fill="#D3AD84" width="356.666" height="194.666"/>
	<rect x="81.955" y="29.689" fill="#F9EEE1" width="332.666" height="174.289"/>
	<g opacity="0.5">
		<polygon fill-rule="evenodd" clip-rule="evenodd" fill="#FEFEFE" points="159.867,138.841 162.311,142.043 191.084,140.99 
			299.854,129.827 323.107,114.156 323.611,96.462 329.932,103.541 326.898,95.958 315.018,83.32 290.754,74.726 270.785,63.099 
			236.158,67.396 207.344,75.231 181.814,96.715 168.006,99.671 157.299,108.848 160.836,114.914 169.684,119.463 165.639,133.619 
					"/>
		<g>
			<path fill-rule="evenodd" clip-rule="evenodd" fill="#FDCE1A" d="M198.088,168.819c-0.189,0.202-0.264,0.431-0.156,0.688
				c0.098,0.232,0.32,0.231,0.531,0.244c0.848,0.051,2.707-1.389,2.947-2.281c-0.379,0.068-0.664,0.327-1.104,0.383
				C199.533,167.952,198.686,168.178,198.088,168.819z"/>
			<path fill-rule="evenodd" clip-rule="evenodd" fill="#FDCE1A" d="M201.41,167.47c0,0,0.014-0.003,0.021-0.004
				c0-0.002,0-0.004,0-0.007c0,0-0.012-0.001-0.016-0.002C201.414,167.462,201.412,167.466,201.41,167.47z"/>
			<path fill-rule="evenodd" clip-rule="evenodd" fill="#FDCE1A" d="M179.303,175.16c-0.059,0.188,0.035,0.347,0.23,0.344
				c0.6-0.008,1.158-0.11,1.338-0.814c0.01-0.034-0.016-0.078-0.043-0.18C180.287,174.653,179.568,174.322,179.303,175.16z"/>
			<path fill-rule="evenodd" clip-rule="evenodd" fill="#FDCE1A" d="M342.879,108.647c-0.166-0.487-0.617-0.253-0.977-0.155
				c-1.865,0.515-3.746,0.336-5.619,0.084c-0.646-0.088-1.209-0.287-0.566-1.118c0.252-0.325,0.252-0.849-0.299-0.835
				c-1.24,0.029-2.373-0.549-3.598-0.537c0,0.001-0.023-0.014-0.023-0.014c-0.414,0-0.828,0-1.209,0
				c0.148-0.956,0.355-1.73,1.506-1.579c0.256,0.034,0.604-0.125,0.686-0.457c0.105-0.423-0.234-0.467-0.523-0.535
				c-0.041-0.01-0.117-0.032-0.115-0.037c0.213-1.059-1.092-1.7-0.771-2.772c0.127-0.425,0.434-0.714,0.908-0.766
				c0.977-0.927,2.232-0.049,3.283-0.506c0.092-0.133,0.186-0.267,0.277-0.399c-0.41-0.039-0.902,0.055-1.213-0.143
				c-0.984-0.626-1.91-0.469-2.787,0.104c-0.895,0.586-1.846,0.616-2.844,0.53l-0.043,0.034c-1.627,1.821-2.73,4.122-5.205,5.152
				c-2.047,0.852-4.037,0.601-6.078,0.206c-0.123-0.023-0.24-0.071-0.363-0.101c-2.908-0.679-3.51-0.492-5.162,1.957
				c-2.271,3.364-5.373,5.548-9.205,6.787c-1.898,0.614-3.766,1.315-5.648,1.978c0.068,0.193,0.139,0.385,0.207,0.577
				c-0.068-0.192-0.139-0.384-0.207-0.577c-1.59,0.268-3.396,0.66-4.172,1.975c-1.107,1.875-2.232,1.892-3.99,1.262
				c-0.68-0.243-0.582-0.766-0.938-1.084c-1.865-1.678-3.682-1.649-5.49,0.127c-1.613,1.582-3.197,3.229-5.316,4.128
				c-1.262,0.536-2.602,0.914-3.934,1.256c-0.697,0.179-1.182,0.485-1.258,1.188c-0.102,0.922-0.594,1.481-1.443,1.678
				c-0.826,0.191-1.412-0.3-1.883-0.909c-1.049-1.354-1.881-2.844-2.705-4.341c-0.695-1.262-1.564-1.376-2.553-0.397
				c-1.699,1.682-3.102,3.615-4.607,5.456c-2.271,2.778-5.354,4.136-8.67,4.894c-1.699,0.389-2.908,1.135-3.834,2.483
				c-0.693,1.01-1.717,1.511-2.748,1.053c-1.83-0.812-3.105-2.334-4.326-3.829c-1.283-1.571-2.98-1.525-4.033,0.292
				c-0.062,0.062-0.127,0.123-0.189,0.185c0.064,0.289-0.064,0.382-0.336,0.332c-1.447,0.766-2.723,1.757-3.932,2.862
				c-1.215,1.111-2.666,1.791-4.342,1.908c-0.361,0.503-0.723,0.503-1.084,0c-0.41-0.079-0.82-0.159-1.232-0.238
				c-0.248,0.055-0.365-0.022-0.295-0.291c-0.154-0.067-0.311-0.135-0.465-0.202c-0.252,0.051-0.355-0.05-0.307-0.304
				c-0.074-0.156-0.15-0.312-0.225-0.47c-0.764-0.076-1.213-0.359-1.465-1.22c-0.295-1.01-1.145-1.854-0.871-3.039
				c-0.256-1.35-0.512-2.7-0.766-4.05c-0.014,0.04-0.018,0.086-0.041,0.118c-0.043,0.058-0.1,0.106-0.15,0.158
				c-0.371-1.394-0.963-0.594-1.379-0.084c-1.291,1.582-2.557,3.178-4.131,4.496c0.084,0.457-0.109,0.639-0.561,0.564
				c-0.494,0.485-0.988,0.972-1.482,1.457c0.105,0.296,0.008,0.391-0.287,0.287c-0.082,0.072-0.162,0.145-0.244,0.217
				c-1.295,1.421-2.822,2.359-4.818,2.326c-0.477-0.002-0.951-0.003-1.426-0.005c-0.314,0.028-0.756,0.398-0.801-0.298
				c-0.068-0.069-0.137-0.139-0.205-0.208c-0.301,0.115-0.592,0.213-0.57-0.294c-0.072-0.063-0.145-0.126-0.217-0.189
				c-0.619,0.167-1.146-0.006-1.602-0.44c-0.213,0.014-0.428,0.026-0.641,0.04c-0.441,0.979-1.305,0.422-1.936,0.432
				c-0.596,0.01-1.043-0.014-1.568,0.396c-1.041,0.81-2.467,0.561-3.406-0.442c-0.068-0.08-0.135-0.161-0.201-0.241
				c-0.506-0.209-1.242-0.205-1.012-1.095c-0.24-0.074-0.455-0.157-0.613-0.388c-1.623-2.35-2.729-1.661-4.145-0.371
				c-0.859,0.783-1.84,1.413-2.643,2.252c-0.33,0.552-0.732,0.977-1.461,0.817c-0.094,0.077-0.188,0.154-0.281,0.23
				c0.117,0.337-0.008,0.396-0.299,0.259c-0.16,0.074-0.318,0.148-0.477,0.222c-0.965,1.107-3.637,0.965-4.232-0.225
				c-0.084-0.073-0.168-0.146-0.25-0.219c-0.348,0.202-0.537,0.007-0.709-0.27c-1.023-1.66-2.107-3.297-2-5.377
				c-0.273-0.058-0.383-0.229-0.471-0.5c-0.498-1.544-0.754-1.619-1.953-0.488c-1.273,1.202-2.201,2.804-3.98,3.418
				c-0.244,0.228-0.488,0.455-0.732,0.683c-0.012,0.531-0.279,0.801-0.814,0.798c-0.617,1.259-1.934,1.748-2.896,2.627
				c-0.572,0.522-1.33,0.877-1.516,1.735c-0.389-0.204-0.662-0.163-0.711,0.342c0.607,0.225,0.572,0.746,0.279,1.071
				c-0.23,0.257-0.209,0.855-0.65,0.768c-0.391-0.077-0.688-0.441-0.674-0.926c-0.912-0.425-1.516-0.217-2.199,0.613
				c-0.66,0.8-1.857,0.951-2.711,1.691c-1.217,1.053-2.699,1.8-4.078,2.659c-0.639,0.397-1.287,0.293-1.627-0.353
				c-0.133-0.252-0.188-0.532-0.107-0.788l0.275,1.413c-0.025,0.195,1.459,1.628-0.338,0.253c-0.229-0.175-1.818,0.556-1.77,0.843
				c0.443,2.525,1.475,2.316,4.701,0.16c1.705-1.14,3.371-2.338,5.031-3.545c0.674-0.49,1.119-0.488,1.674,0.229
				c0.904,1.163,1.771,2.469,2.953,3.28c3.113,2.142,6.422,3.983,10.227,4.64c0.625,0.107,1.146,0.653,1.801,0.478
				c1.262-0.339,2.488,0.269,3.742,0.068c0.389-0.062,0.639,0.142,0.678,0.557c-1.047,0.396-2.318,0.565-2.848,1.668
				c-0.703,1.467-1.826,2.311-3.281,2.83c-0.689,0.246-1.182,0.796-0.885,1.419c0.447,0.939,0.166,1.543-0.434,2.209
				c-0.297,0.333-0.301,0.816-0.084,1.191c0.211,0.365,0.584,0.16,0.91,0.09c0.674-0.146,1.074,0.08,0.977,0.84
				c-0.113,0.882,0.277,0.98,0.922,0.572c0.395-0.25,0.857-0.411,1.127-0.053c0.318,0.42,0.191,0.949-0.193,1.376
				c-0.609,0.678-1.32,1.27-1.787,2.071c-0.533,0.031-0.801,0.421-0.996,0.824c-0.15,0.309-0.436,0.777,0.084,0.971
				c0.43,0.16,1.07,0.365,1.281-0.284c0.135-0.42,0.551-0.642,0.592-1.08c1.105-0.3,1.969-1.154,3.107-1.382
				c0.541-0.107,1.201-0.122,0.838,0.667c-0.496,1.083,0.045,0.796,0.686,0.713c0.826-0.106,1.537-0.721,2.426-0.517
				c0.238,0.055,0.557,0.012,0.57,0.349c0.006,0.185-0.09,0.478-0.227,0.544c-1.012,0.491-1.65,1.476-2.771,1.879
				c-1.07,0.384-2.148,0.972-2.771,2.141c0.844,0.299,1.49,0.205,2.117-0.275c0.756-0.582,1.555-1.111,2.334-1.663
				c0.281,0.136,0.943-0.127,0.529,0.682c-0.324,0.632-0.707,1.064-1.338,1.376c-0.785,0.388-1.531,0.857-2.271,1.327
				c-0.295,0.188-0.789,0.39-0.557,0.835c0.176,0.336,0.592,0.143,0.912,0.034c1.564-0.531,2.744-1.657,4.039-2.602
				c0.336-0.182,0.465-0.833,1.098-0.246c0.547,0.507,0.176,0.729-0.01,1.136c-0.572,1.254-2.018,1.447-3.074,2.632
				c1.516-0.272,2.926-0.2,3.631-1.444c0.754-1.328,1.977-1.753,3.24-2.104c0.773-0.214,1.471-0.551,2.191-0.854
				c1.762-0.742,3.232-1.963,4.84-2.946c1.58-0.967,3.066-2.158,4.854-2.784c0.311,0.089,0.801-0.215,0.873,0.396
				c-1.209,0.727-2.5,1.338-3.631,2.388c0.973,0.544,1.543,0.027,2.145-0.387c0.707-0.485,1.275-1.202,2.152-1.403
				c0.334-0.076,0.756-0.174,0.949,0.334c0.154,0.408-0.086,0.566-0.332,0.826c-0.291,0.308-0.775,0.536-0.729,1.084
				c0.438,0.055,0.822,0.08,1.18-0.34c0.312-0.364,0.805-0.944,1.309-0.358c0.402,0.468,0.25,1.054-0.24,1.54
				c-0.744,0.735-1.711,1.118-2.531,1.726c-0.684,0.034-0.99,0.687-1.541,0.945c-0.152,0.072-0.207,0.273-0.074,0.415
				c0.066,0.07,0.281,0.12,0.324,0.077c0.572-0.586,1.576-0.441,2.031-1.212c1.762,0.16,2.643-0.92,3.283-2.337
				c0.498,0.086,0.545,0.352,0.438,0.817c-0.182,0.788-0.514,1.482-0.936,2.165c-0.5,0.812,0.271,1.083,0.736,1.43
				c0.264,0.197,0.494,0.038,0.504-0.285c0.051-1.812,0.441-3.518,1.498-5.027c0.111-0.039,0.223-0.078,0.334-0.117
				c0.188,0.042,0.348,0.009,0.463-0.157c0.695-0.242,1.434-0.404,2.066-0.758c0.383-0.214,0.717-0.524,1.104-0.255
				c0.348,0.241,0.182,0.683,0.107,1.048c-0.662,0.97-0.824,2.123-1.061,3.222c-0.135,0.628,0.479,0.88,1.219,0.905
				c-0.35-1.107,0.02-2.127,0.283-3.163c0.191-0.347-0.102-0.961,0.566-1.049c0.002,0.008,0.006,0.015,0.01,0.021
				c0,0,0.008,0,0.012-0.001c0.254,0.494,0.604,0.985,1.197,0.811c0.666-0.195,0.365-0.812,0.324-1.295
				c-0.156-1.857,0.191-2.358,2.229-3.198c0.205-0.085,0.227-0.229,0.256-0.383c0.062-0.346,0.26-0.592,0.596-0.436
				c0.326,0.148,0.719,0.388,0.836,0.685c0.131,0.326-0.297,0.571-0.57,0.725c-0.467,0.261-0.996,0.405-1.463,0.665
				c-0.621,0.346-0.771,0.935-0.391,1.495c0.496,0.729,0.721-0.045,1.008-0.287c0.744-0.627,1.439-0.447,1.574,0.488
				c0.148,1.025,0.904,1.127,1.648,1.16c1.064,0.048,1.803,0.663,1.914,1.73c0.025,0.245,0.012,0.63,0.152,0.707
				c1.029,0.57,1.785,1.614,2.771,2.05c0.889,0.393,1.643,0.746,2.084,1.57c0.338,0.631,0.658,0.55,1.053,0.145
				c0.752-0.779,1.834-0.72,2.709-1.115c1.293-0.583,2.793-0.391,3.998-1.324c0.502-0.39,1.199-0.489,1.418-1.238
				c0.043-0.143,0.422-0.346,0.504-0.295c0.904,0.573,2.285-0.162,2.945,1.092c0.148,0.28,0.459,0.486,0.723,0.689
				c0.174,0.132,0.408,0.133,0.588-0.011c0.199-0.159,0.18-0.399,0.045-0.565c-1.029-1.262-0.49-2.549-0.084-3.836
				c0.551-0.952,1.693-1.148,2.42-1.887c0.217-0.221,0.555-0.203,0.779,0.081c0.23,0.292,0.176,0.617,0.107,0.961
				c-0.088,0.439-0.709,0.238-0.777,0.675c0.379,0.394,0.912,0.308,1.18,0.093c1.406-1.122,2.451,0.011,3.613,0.476
				c1.287,0.515,1.293,1.976,2.123,2.819c0.377,0.385,0.369,0.716,0.201,1.224c-0.555,1.684-0.285,3.351,0.432,4.926
				c0.328,0.719,1.049,0.834,1.73,0.514c0.73-0.342,1.396-0.838,1.533-1.703c0.092-0.567,0.332-0.973,0.869-1.093
				c0.6-0.134,1.039-0.547,1.57-0.766c1.539-0.634,3.09-1.753,4.717-0.173c0.01,0.309,0.02,0.618,0.027,0.928
				c-0.562,1.023,0.258,2.011,0.082,3.043c-0.08,0.477-0.283,1.283,0.5,1.336c0.83,0.056,0.871-0.741,0.939-1.373
				c0.02-0.167,0-0.337-0.002-0.506c0.668-0.606,0.721-1.181-0.094-1.707l-0.023-0.027c0.031-2.404,0.271-2.698,2.342-2.863
				l0.072,0.036c0.027,0.188,0.055,0.377,0.082,0.566c-0.061,0.109-0.154,0.212-0.18,0.33c-0.164,0.724-0.264,1.617,0.588,1.791
				c0.725,0.147,1.055-0.539,1.119-1.337c0.082-1.027,0.752-1.444,1.777-1.222c0.422,0.647,1.176,0.601,1.789,0.822
				c0.393,0.142,0.785-0.166,0.91-0.513c0.479-1.308,0.896-2.636,2.152-3.453l0.012-0.019c0.436-0.388,0.363-0.917,0.086-1.246
				c-0.998-1.189-0.062-1.669,0.746-2.165c0.424-0.261,1.115-0.483,1.01-0.952c-0.256-1.139,0.559-1.043,1.146-1.152
				c1.225-0.228,2.404-0.58,3.559-1.034c0.098-0.021,0.197-0.041,0.295-0.061c0.982,0.224,1.809-0.313,2.629-0.66
				c0.66-0.28,0.961-0.484,1.277,0.39c0.281,0.771,0.889,0.843,1.381,0.362c0.17-0.727-0.432-1.371-0.223-2.102
				c0.43,0.051,0.688-0.227,0.969-0.484c0.986-0.898,2.008-1.758,2.965-2.686c0.615-0.595,1.082-0.747,1.883-0.184
				c1.211,0.852,2.545,1.546,4.049,1.798c1.152,0.426,2.254,1.024,3.527,1.041c0.018,0.112,0.037,0.224,0.055,0.335
				c-0.105,0.097-0.211,0.194-0.316,0.291c-1.336-0.049-2.672-0.097-4.006-0.148c-0.293-0.012-0.73-0.341-0.773,0.227
				c-0.029,0.389,0.391,0.34,0.672,0.365c1.699,0.158,3.396,0.324,5.098,0.466c0.713,0.06,1.414-0.003,2.025-0.445
				c0.27-0.012,0.539-0.024,0.809-0.036c1.031,0.067,2.043,0.004,2.988-0.479c0.273-0.014,0.547-0.028,0.822-0.042c0,0,0,0,0-0.001
				c2.135-0.281,4.154-0.927,6.051-1.953c5.316-2.88,8.023-7.567,9.367-13.279c0.496-2.109,0.443-4.244,0.686-6.362
				c0.086-0.747,0.266-0.99,1.004-0.704c1.379,0.534,2.783,0.876,3.844,2.144c0.766,0.913,2.166,1.006,3.494,1.552
				c-0.297-0.697-0.705-0.844-1.039-1.065c-0.594-0.394-1.211-0.756-1.787-1.173c-0.219-0.157-0.551-0.419-0.338-0.718
				c0.236-0.332,0.486-0.047,0.729,0.137c0.4,0.304,0.807,0.655,1.27,0.806c0.654,0.212,1.229,0.885,2.17,0.494
				c-0.471-0.539-0.99-0.788-1.502-1.052c-0.449-0.231-0.906-0.453-1.32-0.737c-0.209-0.144-0.562-0.369-0.275-0.697
				c0.191-0.219,0.467-0.066,0.684,0.074c0.494,0.32,0.975,0.66,1.484,0.952c0.309,0.179,0.715,0.517,1.008,0.098
				c0.367-0.524-0.227-0.769-0.518-0.955c-0.809-0.519-1.689-0.926-2.516-1.419c-0.223-0.133-0.596-0.333-0.428-0.674
				c0.158-0.326,0.51-0.117,0.791-0.105c0.592,0.025,1.545,1.104,1.631-0.52c0-0.015,0.393-0.061,0.576-0.005
				c0.807,0.245,1.594,0.535,2.25,1.099c0.238,0.205,0.484,0.516,0.869,0.16c-0.037-0.112-0.047-0.255-0.121-0.337
				c-0.508-0.557-1.027-1.104-1.549-1.648c-0.229-0.239-0.588-0.442-0.447-0.829c0.164-0.452,0.545-0.202,0.861-0.188
				c0.881,0.035,1.123-1.158,2.035-1.085c-0.016-0.161,0-0.337-0.057-0.482c-0.523-1.32-0.561-2.965-2.367-3.426
				c-0.291-0.074-0.631-0.369-0.746-0.646c-0.385-0.922-1.105-1.297-2.012-1.506c-0.945-0.219-1.293-0.976-1.48-1.833
				c-0.146-0.659,0.877-0.254,0.783-0.91c-0.531-0.188-1.076-0.406-1.637-0.57c-0.383-0.111-0.955,0.021-0.971-0.562
				c-0.018-0.571,0.279-1.061,0.863-1.267c0.855-0.304,1.734-0.293,2.604-0.074c0.979,0.246,1.959,0.248,2.799-0.312
				c1.574-1.052,3.301-1.246,5.117-1.139c0.768,0.045,1.893-0.021,1.838-0.827c-0.094-1.438,0.861-1.767,1.705-2.316
				c0.365-0.238,0.771-0.458,0.662-0.96c-0.111-0.508-0.6-0.324-0.945-0.408c-0.754-0.185-1.779-0.206-1.016-1.456
				c0.248-0.408,0.062-0.646-0.318-0.758c-0.441-0.129-0.896-0.203-1.346-0.304c-0.41-0.092-0.877-0.143-0.902-0.698
				c-0.025-0.543,0.398-0.711,0.818-0.795c1.42-0.285,2.68-0.981,4.002-1.516C342.549,109.219,343.047,109.138,342.879,108.647z
				 M178.57,149.316c-0.426-0.044-0.848-0.1-1.27-0.165C177.723,149.216,178.145,149.272,178.57,149.316z M177.1,149.119
				c-2.428-0.396-4.775-1.138-7.064-2.136l0,0C172.324,147.981,174.672,148.722,177.1,149.119z M170.326,146.089
				c-0.043-0.079-0.107-0.149-0.193-0.212C170.219,145.94,170.283,146.01,170.326,146.089z M287.289,157.062L287.289,157.062
				c0.031,0.034,0.062,0.067,0.098,0.1C287.352,157.129,287.318,157.096,287.289,157.062z M287.895,156.417
				c-0.027-0.032-0.055-0.063-0.082-0.095C287.842,156.354,287.869,156.386,287.895,156.417L287.895,156.417z M308.475,156.884
				c0.107-0.052,0.213-0.089,0.32-0.119C308.689,156.795,308.582,156.833,308.475,156.884z M308.994,157.859
				c0.484-0.271,0.898-0.698,1.42-0.894C309.893,157.161,309.479,157.587,308.994,157.859z M309.562,156.656h-0.002
				c0.295-0.326,0.613-0.624,0.947-0.904C310.174,156.032,309.855,156.33,309.562,156.656z M311.391,156.778
				c1.334-0.446,2.055-1.644,2.869-2.644C313.445,155.134,312.725,156.332,311.391,156.778z M319.137,138.414
				c0.023,0.518,0.047,1.033,0.068,1.549c0,0.001,0,0.001,0,0.001C319.184,139.447,319.16,138.931,319.137,138.414
				c-0.133,0.012-0.264,0.023-0.396,0.035C318.873,138.437,319.004,138.425,319.137,138.414c0.188-0.536,0.35-0.479,0.506-0.304
				C319.486,137.935,319.324,137.878,319.137,138.414z M320.186,138.458c-0.006,1.002-0.01,2.004-0.016,3.006
				C320.176,140.462,320.18,139.46,320.186,138.458c0.012-0.247,0.045-0.495,0.049-0.742
				C320.23,137.963,320.197,138.211,320.186,138.458z M321.283,137.119c0.279,1.126,0.236,2.26,0.102,3.377
				C321.52,139.378,321.562,138.245,321.283,137.119c-0.031-0.071-0.057-0.143-0.078-0.216c-0.305-0.152-0.561-0.232-0.736-0.169
				c0.176-0.064,0.432,0.016,0.736,0.169C321.227,136.976,321.252,137.047,321.283,137.119c0.303-0.058,0.406-0.219,0.439-0.414
				C321.689,136.9,321.586,137.061,321.283,137.119z"/>
		</g>
		<path fill-rule="evenodd" clip-rule="evenodd" fill="#FE2CA2" d="M305.846,75.232c-0.434-0.136-0.904-0.207-1.359-0.214
			c-0.754-0.011-1.102-0.323-0.953-1.08c0.154-0.787-0.342-1.241-0.814-1.731c-1.205-1.254-1.18-1.375,0.012-2.517
			c0.752-0.719,0.123-1.298-0.41-1.624c-0.787-0.482-0.852-1.118-0.84-1.913c0.025-1.947-0.215-2.263-2.143-2.521
			c-0.613-0.082-1.09-0.397-1.645-0.555c-0.42-0.118-0.568-0.465-0.57-0.879c-0.041-0.161-0.111-0.321-0.113-0.483
			c-0.018-0.693,0.211-1.599-0.793-1.699c-0.975-0.099-0.859,0.792-0.943,1.432c-0.082,0.615-0.436,0.66-0.885,0.386
			c-0.547-0.333-1.107-2.32-0.785-2.866c0.604-1.02,0.488-2.093,0.293-3.171c-0.072-0.408-0.197-0.869-0.709-0.928
			c-0.615-0.07-0.58,0.443-0.684,0.843c-0.094,0.356-0.248,0.696-0.375,1.044c-0.434-0.555-0.896-1-1.701-0.689
			c-0.408,0.159-0.895,0.441-1.219-0.133c-0.309-0.547-0.002-0.948,0.383-1.321c0.873-0.847,1.314-1.966,2.025-2.926
			c-0.543-0.336-0.764-0.017-0.994,0.199c-0.975,0.906-2.141,1.459-3.404,1.787c-0.582,0.151-1.385,0.496-1.217-0.768
			c0.072-0.543-0.342-0.701-0.852-0.438c-0.297,0.153-0.615,0.269-0.922,0.4c0,0.001-0.068-0.076-0.068-0.076
			c-0.084-0.024-0.139-0.077-0.166-0.159c-0.041-0.021-0.078-0.05-0.109-0.085c-0.076-0.015-0.127-0.059-0.152-0.13
			c-0.041-0.021-0.074-0.049-0.102-0.087c-0.191-0.006-0.314-0.107-0.385-0.281c-0.078-0.021-0.156-0.043-0.236-0.063
			c0-1.672-0.221-1.928-1.818-2.049c-0.277-0.021-0.467-0.151-0.66-0.317c-0.92-0.789-2.242-1.138-3.416-0.91
			c-0.082,0.016-0.176-0.008-0.252,0.021c-1.74,0.673-3.559,1.138-5.117,2.266c-1.285,0.931-2.688,1.696-4.023,2.561
			c-0.477,0.309-0.57,0.001-0.686-0.34l0.018-0.064c0.057-0.666,0.146-1.359-0.908-1.131c-0.021,0.051-0.045,0.102-0.066,0.152
			c0.029,0.306-0.166,0.463-0.395,0.598l-0.021,0.04c-0.615-0.118-0.836,0.484-1.271,0.696c-0.457,0.223-0.928,0.865-1.418,0.241
			c-0.535-0.684,0.172-1.093,0.613-1.391c0.828-0.558,1.74-0.99,2.6-1.502c0.268-0.16,0.709-0.366,0.482-0.741
			c-0.18-0.297-0.619-0.166-0.932-0.04c-1.295,0.522-2.387,1.376-3.52,2.162c-0.32,0.223-0.689,0.7-1.068,0.304
			c-0.32-0.335-0.227-0.889,0.027-1.301c0.217-0.355,0.547-0.595,0.93-0.81c1.018-0.571,2.07-1.117,2.803-2.124
			c-1.301,0.679-2.643,1.188-4.072,1.459c-0.426,0.08-0.551,0.497-0.699,0.836c-0.406,0.923-1.133,1.457-2.088,1.637
			c-1.945,0.367-3.67,1.693-5.791,1.328c-0.176-0.03-0.406,0.248-0.609,0.384c-0.305,0.137-0.604,0.278-0.729,0.624
			c-0.469,0.01-0.73-0.324-1.041-0.601c-0.629-0.559-1.316-1.013-2.211-0.992l-0.023-0.008c-0.166-0.202-0.33-0.179-0.49,0.008
			l-0.01,0.003c-0.973,0.536-1.934-0.133-2.893-0.034c-1.494,0.153-2.977,0.409-4.467,0.604c-0.391,0.051-0.736,0.104-0.918,0.521
			c-0.465,1.069-1.471,1.418-2.451,1.783c-1.488,0.555-1.711,0.915-1.564,2.616c-0.297,0.683-0.986,0.706-1.561,0.927
			c-0.396,0.213-0.91,0.217-1.176,0.666c-0.436,0.738-0.967,0.801-1.551,0.115c-0.141,0.405-0.02,0.673,0.059,0.958
			c0.26,0.933,0.104,1.354-1.041,1.063c-0.648-0.165-1.617-0.3-1.521,0.983c0.043,0.563-0.457,0.429-0.727,0.387
			c-1.246-0.198-2.451,0.376-3.73,0.079c-0.656-0.151-1.375,0.408-1.914,0.843c-0.566,0.458-0.994,0.604-1.658,0.228
			c-0.684-0.388-1.428-0.479-2.094,0.133c-0.119,0.108-0.34,0.257-0.434,0.214c-1.59-0.728-2.998,0.258-4.406,0.603
			c-1.699,0.417-3.438,0.699-5.133,1.169c-1.568,0.435-2.975,1.411-4.738,1.343c-1.842-0.071-3.623,0.575-5.4,1.03
			c-1.785,0.457-2.186,0.295-2.729-1.464c-0.258-0.832-0.486-1.672-0.746-2.503c-0.094-0.298-0.107-0.839-0.529-0.694
			c-0.387,0.132-0.516,0.644-0.283,1.063c0.553,0.997,0.861,2.09,1.301,3.129c0.373,0.882,0.025,1.2-0.762,1.389
			c-1.424,0.339-2.711,0.979-3.986,1.796c0.543,0.463,0.881,0.086,1.264-0.127c1.029-0.576,2.107-0.982,3.279-1.231
			c0.887-0.188,0.947,0.337,1.033,0.849c0.131,0.768-0.514,0.476-0.848,0.492c-1.211,0.059-2.025,0.556-2.059,1.857
			c-0.016,0.621-0.441,0.77-0.855,0.939c-2.09,0.856-3.621,2.523-5.383,3.832c-0.832,0.618-1.439,1.694-2.236,2.488
			c-0.207,0.207-0.432,0.574-0.646,0.572c-2.227-0.026-2.186,2.374-3.529,3.34c-0.527,0.379-0.363,1.721-0.514,2.624
			c0,0,0,0,0,0.001c-0.381,0.404-0.869,0.549-1.406,0.568c0.287,3.308-1.676,5.289-4.111,7.003
			c-1.725,1.213-3.795,1.943-5.143,3.681c-0.189,0.045-0.377,0.091-0.564,0.136c-0.113,0.114-0.225,0.228-0.336,0.342
			c-0.006,0.083-0.018,0.167-0.025,0.251c0.008-0.084,0.02-0.17,0.025-0.255c-0.717-0.362-0.82,0.231-0.961,0.66
			c-0.092,0.278-0.076,0.604-0.473,0.58c-1.068-0.064-1.316,0.741-1.621,1.493c-0.023,0.369,0.248,0.501,0.514,0.628
			c2.109,1.012,4.301,1.796,6.547,2.437c1.123,0.661,2.246,1.322,3.369,1.983c0.055-0.3,0.162-0.304,0.395-0.118
			c1.346,1.073,2.703,2.133,4.057,3.196c1.438-1.877,2.648-3.928,4.307-5.634c1.377-1.417,2.898-2.633,4.781-3.331
			c1.877-0.695,3.648-0.817,5.135,0.839c0.721-0.035,1.574,0.247,1.785-1.023c0.371-1.253,0.65-3.993,0.76-7.1
			c0.314-1.98,0.674-3.955,0.932-5.943c0.279-2.152,1.156-4.078,2.129-5.969c0.34-0.662,0.975-1.078,1.584-1.577
			c2.15-1.756,2.789-2.014,4.922-0.356c1.113,0.826,2.09,1.773,2.283,3.221c0.135,1.011-0.096,2.044,0.465,3.032
			c0.221,0.393,0.18,1.063-0.178,1.558c-0.117,0.162-0.244,0.372-0.238,0.557c0.078,2.798-1.373,5.295-1.561,8.038
			c0.646-0.326,1.016,0.062,1.49,0.452c1.699,1.398,2.895,2.049,4.178,1.219c0.584-0.378,1.307-0.131,1.969-0.139
			c0.098-0.001,0.252,0.092,0.285,0.179c0.301,0.771,0.295,0.773,1.492,0.849c1.314-0.212,2.371,0.438,3.443,1.035
			c1.672,0.066,3.234,0.484,4.545,1.56c0.379,0.312,0.695,0.577,1.201,0.423c1.646-1.821,3.055-3.855,5.105-5.309
			c1.613-1.144,3.363-1.901,5.289-2.186c1.461-0.215,2.686,0.455,3.732,1.451c1.121,0.83,2.592,0.158,3.781,0.912
			c0.471,0.298,1.023,0.492,1.445,0.9c0.955,0.92,1.385,2.207,2.236,3.198c1.113-2.295,2.199-4.581,4.127-6.376
			c2.295-2.136,5.004-2.51,7.965-0.662c-1.047-2.406-1.049-4.783-1.943-6.945c0,0.835-0.23-3.342-0.23-6.266
			c0.074-2.016,0.092-4.057,0.764-5.976c0.639-1.824,1.455-3.548,3.604-4.161c1.145-0.325,2.053-0.137,2.887,0.651
			c1.035,0.019,1.789,0.766,2.719,1.071c0.592,0.193,0.084,0.813,0.191,1.246c0.375,1.529,1.402,2.974,0.475,4.704
			c-0.297,0.557-0.076,1.405-0.051,2.118c0.133,3.719-0.824,7.375-0.568,11.115c0.105,1.563,1.164,2.529,1.766,3.774
			c0.104,0.212,0.676,0.506,1.094,0.05c0.328-0.357,0.779-0.478,1.27-0.408c1.064-2.307,2.277-4.521,3.988-6.425
			c0.938-1.042,2.066-1.847,3.316-2.463c1.549-0.763,3.141-0.779,4.742-0.143c1.805,1.208,1.893,1.198,3.924-0.4
			c0.721-0.923,1.191-2.05,2.213-2.729c0.045-0.206,0.189-0.254,0.375-0.238c0.057-0.075,0.113-0.15,0.172-0.226
			c0.695-0.862,1.602-1.345,2.695-1.484l0.051-0.019c0.32-0.66,0.916-0.502,1.463-0.493l0.062-0.02
			c0.916-0.792,2.088-0.55,3.123-0.65c3.479-0.335,6.975-0.509,9.82,2.149c0.295-0.438,0.551-0.912,0.904-1.298
			c0.164-0.18,0.174,0.147,0.246,0.253c0.07-0.01,0.141-0.013,0.211-0.011c-0.035-1.287,0.199-2.528,0.635-3.734
			c-0.066-0.137-0.023-0.223,0.119-0.263c0.033-0.092,0.066-0.184,0.1-0.276C308.461,75.346,307.041,75.607,305.846,75.232z
			 M168.01,99.583c-0.002,0.029-0.004,0.059-0.004,0.088C168.006,99.642,168.008,99.613,168.01,99.583z M197.311,70.899
			c-0.391-0.011-0.979,0.154-1.033-0.397c-0.053-0.512,0.572-0.363,0.881-0.457c1.295-0.396,2.611-0.721,3.924-1.058
			c0.225-0.058,0.488-0.15,0.646,0.113C200.484,70.271,199.041,70.949,197.311,70.899z M269.518,95.064
			c-0.027-0.059-0.062-0.115-0.08-0.177c-0.004-0.014,0.051-0.045,0.078-0.067c0.029,0.059,0.059,0.117,0.088,0.176
			C269.574,95.018,269.547,95.042,269.518,95.064z"/>
		<path fill-rule="evenodd" clip-rule="evenodd" fill="#FEFEFE" d="M156.027,138.546c0.084-0.085,0.168-0.169,0.25-0.254
			c1.406-0.747,2.443-1.912,3.477-3.08c0.334-0.615,0.807-1.102,1.295-1.607c1.105-1.147,2.27-2.276,2.865-3.816
			c0.539-0.544,0.783-1.267,1.166-1.906c1.619-2.556,1.461-5.105-0.486-6.647c-0.816-0.647-1.775-1.089-2.793-1.379
			c-1.867-0.532-3.59-1.382-5.154-2.514c-2.008-1.452-3.121-3.235-2.797-5.938c0.559-4.689,3.213-7.954,6.832-10.503
			c3.25-2.287,6.908-3.869,10.752-4.938c1.184-0.33,2.461-0.682,3.533,0.384c-0.057,0.262-0.113,0.524-0.172,0.785
			c-0.193,0.625-0.729,0.968-1.156,1.4c-2.963,1.194-5.682,2.839-8.215,4.749c-1.734,1.309-3.262,2.879-3.93,5.07
			c-0.234,0.772-0.221,1.438,0.566,1.888c-0.1,0.967,0.764,1.243,1.273,1.772c-0.025,0.369,0.248,0.5,0.514,0.628
			c2.107,1.012,4.301,1.796,6.547,2.437c1.123,0.661,2.246,1.322,3.369,1.983c2.742,2.858,2.27,6.046,0.617,9.708
			c-0.508,1.128-1.297,2.128-1.959,3.187c-1.217,1.241-2.451,2.466-3.646,3.728c-1.994,2.104-4.338,3.768-6.615,5.54
			c-2.49,1.938-5.15,3.609-7.676,5.481c-1.174,0.871-2.369,1.742-3.84,2.085c-0.371,0.087-0.781,0.235-1.059-0.101
			c-0.254-0.307-0.26-0.802-0.057-1.076c0.377-0.515,0.488-1.257,1.191-1.514c0.031,0.021,0.062,0.043,0.092,0.064
			c-0.033-0.019-0.068-0.037-0.102-0.056c0.893-1.205,2.078-2.125,3.1-3.204L156.027,138.546z"/>
		
			<ellipse transform="matrix(0.927 -0.375 0.375 0.927 -10.6857 125.5673)" fill-rule="evenodd" clip-rule="evenodd" fill="#FEFEFE" cx="317.286" cy="90.239" rx="11.165" ry="16.078"/>
	</g>
	<g>
		<path fill="#231F20" d="M363.568,163.96c0,0,6.938-1.703,7.912-10.587l-0.609-8.032l-3.771,6.57
			C367.1,151.912,361.258,162.135,363.568,163.96z"/>
		<path fill="#F4B07D" d="M372.16,184.466h-43.873c0,0,7.184-26.522,7.184-39.233c0-7.347,29.379-7.344,29.379,0
			C364.85,163.602,372.16,184.466,372.16,184.466z"/>
		<path opacity="0.1" fill="#231F20" d="M334.809,158.444c0,0,1.145,11.331,15.658,11.115c5.041-0.075,14.035-2.677,15.496-12.899
			L334.809,158.444z"/>
		
			<path fill="none" stroke="#F4B07D" stroke-width="14.1439" stroke-linecap="round" stroke-linejoin="round" stroke-miterlimit="10" d="
			M328.572,179.62c0,0-27.035,19.614-29.371,40.634c-2.416,21.731-1.209,26.96-1.209,38.47"/>
		<path fill="none" stroke="#B20D2E" stroke-width="14.4842" stroke-linejoin="round" stroke-miterlimit="10" d="M328.572,179.62
			c0,0-27.035,19.614-29.371,40.634c-2.416,21.731-1.209,26.96-1.209,38.47"/>
		
			<path fill="none" stroke="#F4B07D" stroke-width="14.1439" stroke-linecap="round" stroke-linejoin="round" stroke-miterlimit="10" d="
			M366.73,178.159c0,0,27.035,19.613,29.373,40.636c2.41,21.729,1.205,26.959,1.205,38.468"/>
		<path fill="none" stroke="#B20D2E" stroke-width="14.4842" stroke-linejoin="round" stroke-miterlimit="10" d="M366.73,178.159
			c0,0,27.035,19.613,29.373,40.636c2.41,21.729,1.205,26.959,1.205,38.468"/>
		<path opacity="0.2" fill="#232222" d="M352.07,234.369c0,0.962-0.479,1.741-1.072,1.741c-0.592,0-1.07-0.779-1.07-1.741
			c0-0.965,0.479-1.743,1.07-1.743C351.592,232.625,352.07,233.404,352.07,234.369z"/>
		<rect x="328.668" y="172.486" fill="#FFFFFF" width="39.348" height="75.502"/>
		<path fill="#B20D2E" d="M364.084,170.648v78.531h19.73c0,0-5.154-13.4-2.529-29.969c3.084-19.472-1.236-37.833-11.246-48.562
			H364.084z"/>
		<path fill="#EF305E" d="M364.094,170.611c0,0,12.406,9.891,10.617,13.874c-1.023,2.285-9.982,0.74-9.982,0.74
			s9.182,8.672,9.982,12.612c2.008,9.844-10.617,38.748-10.617,38.748V170.611z"/>
		<path fill="#2D2D2D" d="M329.049,165.583c0,0,9.25,0.891,11.197,3.407c0,0,4.867,0.081,5.922,1.298c0,0,5.598-0.404,8.193,0.244
			c0,0,4.221-1.056,5.762-1.866c0,0,2.84-1.461,4.299-1.217c0,0,3.812-2.92,4.543-1.704c0,0,2.84,3.164,0.326,5.111
			c0,0-3.164,2.516-6.004,1.866c0,0-3.977,3.813-8.355,2.19c0,0-10.223,1.379-14.117-1.136
			C340.814,173.778,327.914,169.316,329.049,165.583z"/>
		<path fill="#2D2D2D" d="M346.088,172.398c0,0-0.098-0.304-0.164-0.733c-0.176-1.141-0.137-3.167,2.516-2.755
			c0,0,5.842-2.596,5.922,1.623C354.361,170.533,348.441,173.939,346.088,172.398z"/>
		<path fill="#2D2D2D" d="M345.275,174.021c0,0-5.871,16.007-6.57,22.879c-0.51,5.004-1.867,12.818,0.324,20.119
			c0,0,0.49,0.983,2.414,1.247c0.422,0.059,0.91,0.081,1.48,0.052c0,0-1.623,2.759,4.461,2.759c0,0,6.004,1.379,8.195,0.324
			c0,0,0.08-1.217,0.486-1.784c0,0-0.648,2.271,1.299,1.703c0,0,2.189,0.162,3.082-0.406c0,0,0.055-8.198-1.217-14.198
			c-1.725-8.138-4.545-31.477-6.41-33.019L345.275,174.021z"/>
		<path fill="#FFFFFF" d="M342.111,199.252c0,0-1.496,17.096-0.668,19.014c0,0,1.154,0.052,1.48,0.052
			C342.924,218.318,342.354,201.443,342.111,199.252z"/>
		<path fill="#FFFFFF" d="M347.984,193.25c0,0-2.211,25.244-0.986,28.074c0,0,1.703,0.077,2.184,0.077
			C349.182,221.401,348.344,196.483,347.984,193.25z"/>
		<path fill="#FFFFFF" d="M353.736,193.584c0,0,3.107,25.151,1.984,28.024c0,0-1.699,0.136-2.18,0.152
			C353.541,221.761,353.492,196.831,353.736,193.584z"/>
		<path fill="#B20D2E" d="M332.539,170.648v78.531h-19.73c0,0,5.154-13.4,2.529-29.969c-3.082-19.472,1.238-37.833,11.246-48.562
			H332.539z"/>
		<path fill="#EF305E" d="M332.539,170.611c0,0-12.404,9.891-10.617,13.874c1.025,2.283,9.984,0.74,9.984,0.74
			s-9.182,8.672-9.984,12.612c-2.006,9.844,10.617,38.748,10.617,38.748V170.611z"/>
		<g>
			<path fill="#F4B07D" d="M370.697,131.159c-1.281-18.878-19.561-17.663-20.797-17.558c-1.236-0.105-19.516-1.32-20.795,17.558
				c0,0-1.324,18.381,2.484,24.012c0,0,6.572,12.151,18.24,12.249v0.006c0.023,0,0.047-0.002,0.07-0.002s0.047,0.002,0.07,0.002
				v-0.006c11.67-0.098,18.242-12.249,18.242-12.249C372.02,149.54,370.697,131.159,370.697,131.159z"/>
			<path opacity="0.1" fill="#231F20" d="M336.354,129.642c0.08-0.242,3.566-2.92,4.947-2.434l1.301,0.184
				c0,0-0.256,1.938,3.975,0.872c0.324-0.081,4.785-1.542,6.406-5.273v4.462l-1.439,2.174c0,0,4.441-2.014,4.441-8.503
				c0,0-0.568,7.14,3.529,9.371l0.285-2.394c0,0,1.297,0.163,1.947,1.704l0.486-2.758c0,0,1.906,2.106,4.156,2.798l0.143-9.127
				l-11.275-3.569l-12.17,1.461l-9.428,7.663L336.354,129.642z"/>
			<path opacity="0.1" fill="#231F20" d="M367.781,139.013c0,0,2.076,9.855,1.348,13.589c0,0,4.623-10.305,4.623-16.794
				C373.752,135.808,369.6,136.051,367.781,139.013z"/>
			<path opacity="0.1" fill="#231F20" d="M334.566,159.498c0,0-3.002-13.142-1.623-20.484l-3.895-0.853
				C329.049,138.161,330.266,154.955,334.566,159.498z"/>
			<g>
				<g opacity="0.2">
					<path fill="#231F20" d="M355.89,143.152c0.26,0.529,0.272,1.153,0.046,1.689c-0.108,0.269-0.264,0.515-0.445,0.727
						c-0.178,0.222-0.389,0.399-0.602,0.577c-0.22,0.158-0.444,0.318-0.679,0.448c-0.238,0.119-0.47,0.268-0.717,0.361
						c-0.485,0.223-0.985,0.385-1.487,0.551l-0.002,0l0.264-0.183c-0.048,0.063-0.101,0.126-0.155,0.186l-0.14,0.117
						c-0.094,0.075-0.19,0.157-0.288,0.225l-0.61,0.286c-0.205,0.101-0.414,0.105-0.622,0.161l-0.627,0.126l-0.054,0.011
						l-0.054-0.011l-0.627-0.126c-0.208-0.055-0.418-0.06-0.623-0.161l-0.61-0.286c-0.099-0.067-0.194-0.149-0.289-0.225
						l-0.14-0.116c-0.055-0.06-0.106-0.123-0.155-0.187l0.264,0.183l-0.002,0c-0.5-0.169-0.999-0.334-1.483-0.56
						c-0.246-0.094-0.477-0.245-0.714-0.365c-0.232-0.131-0.455-0.292-0.674-0.452c-0.21-0.178-0.419-0.355-0.594-0.577
						c-0.18-0.212-0.332-0.457-0.437-0.722c-0.106-0.264-0.163-0.552-0.15-0.837c0.009-0.288,0.067-0.556,0.206-0.827
						c0.044-0.086,0.148-0.12,0.234-0.076c0.08,0.041,0.115,0.135,0.083,0.217l-0.009,0.023c-0.074,0.191-0.111,0.438-0.093,0.658
						c0.011,0.226,0.077,0.443,0.181,0.643c0.103,0.199,0.24,0.383,0.406,0.543c0.158,0.167,0.353,0.302,0.545,0.438
						c0.206,0.12,0.41,0.243,0.631,0.34c0.229,0.088,0.438,0.203,0.677,0.269c0.46,0.164,0.943,0.274,1.422,0.388l0.001,0
						l0.264,0.183c0.018,0.007,0.03,0.015,0.042,0.026l0.096,0.053c0.063,0.035,0.119,0.075,0.185,0.109l0.457,0.168
						c0.147,0.062,0.338,0.066,0.503,0.104l0.512,0.094h-0.107l0.512-0.094c0.165-0.038,0.354-0.042,0.501-0.104l0.457-0.168
						c0.065-0.034,0.121-0.074,0.186-0.109l0.095-0.053c0.011-0.011,0.024-0.019,0.042-0.026l0.264-0.183l0.001,0
						c0.478-0.117,0.96-0.23,1.418-0.397c0.239-0.067,0.447-0.183,0.674-0.272c0.22-0.099,0.423-0.223,0.626-0.343
						c0.19-0.136,0.384-0.271,0.539-0.438c0.163-0.16,0.298-0.343,0.397-0.539c0.209-0.385,0.229-0.876,0.076-1.276l-0.008-0.019
						c-0.042-0.111,0.013-0.235,0.124-0.277C355.725,143.006,355.842,143.054,355.89,143.152z"/>
				</g>
			</g>
			
				<path fill="none" stroke="#C18963" stroke-width="0.9671" stroke-linecap="round" stroke-linejoin="round" stroke-miterlimit="10" d="
				M344.174,154.343c0,0,2.486,1.656,10.766,0.661"/>
			<path fill="#231F20" d="M332.168,129.254c0,0-3.229-12.917,7.826-21.238c0,0,15.525-7.243,21.236,1.241
				c3.15,4.677,8.943,12.877,8.447,20.907c0,0-3.852,1.574-6.955-5.009c0,0,0.744,5.094,1.986,8.073c0,0-4.348-3.603-4.098-8.943
				c0,0,0,7.329,1.365,10.559c0,0-5.588-8.321-6.086-12.917c0,0-1.736,6.21-4.348,7.699c0,0,1.244-3.229,0.871-7.451
				c0,0-2.348,4.633-7.078,5.837c-0.68,0.172-2.236,0.87-2.734-0.62c0,0,1.986-0.125,2.609-1.242c0,0-3.332,0.754-4.223,0.248
				C338.973,125.256,335.645,131.739,332.168,129.254z"/>
			<path fill="#070707" d="M369.678,130.165c0,0-6.955-3.476-18.217,1.657c0,0-0.09,0.082-0.301,0.144
				c-0.23-0.248-0.588-0.421-1.008-0.421c-0.4,0-0.74,0.155-0.975,0.383c-0.129-0.052-0.201-0.105-0.201-0.105
				c-11.262-5.133-18.215-1.657-18.215-1.657c-6.789,12.919,9.273,12.256,9.273,12.256c7.135,0.775,10.012-6.571,10.334-7.512
				c0,0,2.418,8.339,10.035,7.512C360.404,142.42,376.467,143.083,369.678,130.165z"/>
			<path fill="#231F20" d="M388.059,151.238c-1.043-3.547-4.076-9.352-5.342-13.786c-3.207-11.254-3.045-28.172-26.57-37.015
				c0,0-1.947-0.893-5.469-0.723c-5.471,0.239-24.523,2.692-29.189,25.069c0,0-5.887,34.433-10.854,40.395
				c0,0-0.584,1.383-3.814,1.135c0,0,2,1.195,4.234,0.574c0,0-0.746,1.778-4.223,2.608c0,0,3.602,0.248,4.719-0.25
				c0,0-1.322,1.124-5.338,2.236c0,0,8.07-0.744,9.934-2.111c0,0-4.719,5.091-10.557,4.222c0,0,8.693,4.101,15.773-6.83
				c0,0,1.197,5.457,9.877,8.922c-0.559-0.901-0.887-2.158-0.771-3.935c0,0,0.322,3.117,3.75,4.946
				c0.145,0.042,0.285,0.086,0.436,0.127c0,0,1.268,0.274,2.965,0.227c-1.135-0.848-1.973-2.363-1.795-5.058
				c0,0,0.32,3.032,3.619,4.872c1.664-0.298,3.443-0.997,4.773-2.525c0,0-19.002-17.015-10.559-48.065l11.18-17.884l2.291,0.215
				l-0.057,0.653l4.225,1.865c0,0.372,17.012,3.104,19.125,24.218c0,0-0.787,14.864,0,17.761c0.736,2.708,1.738,5.216-2.484,10.93
				c0,0,9.066,1.863,12.67-6.334c0,0,1.863,2.607-2.236,5.96c0,0-0.498,0.362-1.148,0.646c2.537-0.524,6.906-2.309,6.363-8.221
				c-0.17-1.855-1.186-8.464,0.125-7.451c2.902,2.241,5.465,10.431-0.619,14.654c0,0-2.361,1.987-3.977,1.863
				C379.115,165.148,392.451,166.207,388.059,151.238z"/>
			<path fill="#232323" d="M333.633,130.981c0,0,6.977-0.647,14.807,2.557c0,0-2.271,11.235-15.496,5.476
				C332.943,139.013,332.498,136.58,333.633,130.981z"/>
			<path fill="#232323" d="M367.092,130.981c0,0-6.977-0.647-14.805,2.557c0,0,2.27,11.235,15.494,5.476
				C367.781,139.013,368.229,136.58,367.092,130.981z"/>
			<g>
				<ellipse fill="#FFFBB8" cx="333.938" cy="130.088" rx="0.264" ry="0.244"/>
				<ellipse fill="#FFFBB8" cx="336.959" cy="130.186" rx="0.264" ry="0.249"/>
				<ellipse fill="#FFFBB8" cx="341.083" cy="130.547" rx="0.264" ry="0.254"/>
				<circle fill="#FFFBB8" cx="345.413" cy="131.703" r="0.264"/>
				<circle fill="#FFFBB8" cx="348.014" cy="132.502" r="0.264"/>
			</g>
			<g>
				<ellipse fill="#FFFBB8" cx="366.391" cy="130.088" rx="0.264" ry="0.244"/>
				<ellipse fill="#FFFBB8" cx="363.367" cy="130.186" rx="0.264" ry="0.249"/>
				<ellipse fill="#FFFBB8" cx="359.243" cy="130.547" rx="0.264" ry="0.254"/>
				<circle fill="#FFFBB8" cx="354.914" cy="131.703" r="0.264"/>
				<circle fill="#FFFBB8" cx="352.314" cy="132.502" r="0.264"/>
			</g>
			<path fill="#231F20" d="M329.982,143.151c0,0,2.434,9.856,5.963,11.561C335.945,154.711,331.93,155.32,329.982,143.151z"/>
		</g>
	</g>
	<g>
		<rect x="235.072" y="253.966" fill="#EC449F" width="228.906" height="54.553"/>
		<path fill="#898989" d="M469.307,252.035c0,2.657-2.154,4.812-4.811,4.812H233.58c-2.656,0-4.811-2.155-4.811-4.812l0,0
			c0-2.655,2.154-4.81,4.811-4.81h230.916C467.152,247.225,469.307,249.379,469.307,252.035L469.307,252.035z"/>
		<rect x="234.951" y="252.065" fill="#898989" width="15.682" height="28.035"/>
		<rect x="234.951" y="281.762" fill="#898989" width="15.682" height="26.757"/>
		<rect x="448.537" y="252.065" fill="#898989" width="15.68" height="28.035"/>
		<rect x="448.537" y="281.762" fill="#898989" width="15.68" height="26.757"/>
	</g>
	<g>
		<path fill="#AE2427" d="M166.447,269.982c0,9.073-7.355,16.429-16.428,16.429H60.211c-9.074,0-16.43-7.355-16.43-16.429V215.22
			c0-9.073,7.355-16.429,16.43-16.429h89.809c9.072,0,16.428,7.355,16.428,16.429V269.982z"/>
		<path fill="#C17C58" d="M44.512,257.284c0-4.638-3.76-8.397-8.396-8.397s-8.396,3.76-8.396,8.397v51.235h16.793V257.284z"/>
		<path fill="#C17C58" d="M183.242,257.284c0-4.638-3.76-8.397-8.396-8.397s-8.396,3.76-8.396,8.397v51.235h16.793V257.284z"/>
	</g>
	<g>
		<path fill="#776537" d="M79.605,179.961c0,0-2.367,0.864-2.344,4.869c0.008,1.342,0.719,4.868-1.805,5.05
			c0,0,3.066,0.36,3.967-1.622c0,0-0.18,3.605-1.623,4.509c0,0,8.479,3.605,9.92-4.509L87,176.355
			C87,176.355,81.77,174.189,79.605,179.961z"/>
		<path fill="#776537" d="M130.635,179.961c0,0,2.369,0.864,2.346,4.869c-0.008,1.342-0.721,4.868,1.805,5.05
			c0,0-3.066,0.36-3.969-1.622c0,0,0.18,3.605,1.623,4.509c0,0-8.477,3.605-9.92-4.509l0.721-11.903
			C123.24,176.355,128.471,174.189,130.635,179.961z"/>
		<g>
			<polygon fill="#B7B7B7" points="76.658,199.89 82.43,199.169 83.332,205.661 			"/>
			<polygon fill="#B7B7B7" points="133.562,199.89 127.791,199.169 126.889,205.661 			"/>
			<path fill="#F4B07D" d="M139.303,238.958H71.25c0,0,11.139-41.141,11.139-60.858c0-11.395,45.576-11.393,45.576,0
				C127.965,206.594,139.303,238.958,139.303,238.958z"/>
			<g>
				<path fill="#776537" d="M105.648,139.292c0,0-8.85-12.398-25.256,0.189c-6.629,5.087-9.557,26.228,1.602,37.388l24.225-27.088
					L105.648,139.292z"/>
				<path fill="#776537" d="M105.734,139.292c0,0,8.848-12.398,25.254,0.189c6.627,5.089,9.557,26.228-1.602,37.388l-24.225-27.088
					L105.734,139.292z"/>
				<path fill="#F4B07D" d="M126.611,153.384c0,0-7.66-9.798-22.232-9.589c-14.516-0.209-20.613,9.589-20.613,9.589
					c-5.096,8.337-3.57,34.093-3.57,34.093c0,12.741,17.672,22.896,25.098,22.896c7.422,0,25.162-9.491,25.162-22.896
					C130.455,187.477,131.705,161.721,126.611,153.384z"/>
				<g>
					<path opacity="0.1" fill="#232222" d="M116.699,196.275c0,0-1.861,6.852-11.834,6.852c-9.852,0-11.836-6.852-11.836-6.852
						s3.605,5.047,12.256,5.047C105.285,201.322,111.049,201.925,116.699,196.275z"/>
				</g>
				<g opacity="0.2">
					<path fill="#231F20" d="M111.468,174.629c0.301,0.304,0.548,0.633,0.749,1.018c0.099,0.191,0.186,0.396,0.233,0.623
						c0.056,0.219,0.079,0.466,0.038,0.709c-0.018,0.123-0.036,0.246-0.092,0.359c-0.05,0.112-0.085,0.239-0.164,0.331
						c-0.133,0.211-0.301,0.373-0.48,0.517c-0.176,0.149-0.371,0.239-0.559,0.357l-0.586,0.245l-0.014,0.006l-0.058,0.012
						c-0.485,0.094-1.003,0.265-1.437,0.495c-0.225,0.113-0.415,0.253-0.593,0.402c-0.151,0.169-0.28,0.301-0.433,0.567
						c-0.163,0.243-0.348,0.534-0.634,0.742c-0.266,0.218-0.583,0.366-0.884,0.451c-0.309,0.117-0.603,0.125-0.905,0.185
						c-0.303,0.017-0.567,0.035-0.9,0.041c-0.282-0.019-0.544-0.017-0.843-0.052c-0.309-0.049-0.619-0.082-0.92-0.192
						c-0.151-0.041-0.301-0.096-0.449-0.18c-0.149-0.07-0.294-0.152-0.426-0.265c-0.281-0.198-0.48-0.477-0.654-0.724l-0.113-0.18
						c-0.006-0.01-0.068-0.104-0.028-0.044l-0.066-0.08c-0.088-0.099-0.179-0.231-0.265-0.303c-0.085-0.058-0.166-0.119-0.244-0.185
						c-0.094-0.062-0.211-0.12-0.314-0.184c-0.434-0.23-0.951-0.402-1.437-0.496l-0.058-0.011l-0.014-0.006l-0.585-0.245
						c-0.188-0.118-0.384-0.208-0.56-0.357c-0.18-0.144-0.348-0.306-0.481-0.516c-0.078-0.092-0.114-0.218-0.164-0.331
						c-0.056-0.113-0.074-0.235-0.092-0.358c-0.041-0.242-0.019-0.489,0.036-0.709c0.048-0.226,0.135-0.432,0.233-0.623
						c0.202-0.386,0.444-0.711,0.751-1.022c0.12-0.121,0.315-0.122,0.437-0.002c0.116,0.115,0.122,0.3,0.015,0.422l-0.014,0.017
						c-0.453,0.514-0.844,1.237-0.727,1.798c0.014,0.069,0.023,0.139,0.062,0.199c0.035,0.061,0.047,0.13,0.104,0.182
						c0.079,0.12,0.193,0.223,0.321,0.319c0.121,0.1,0.288,0.167,0.428,0.255l0.496,0.189l-0.071-0.017
						c0.608,0.1,1.162,0.266,1.719,0.535c0.137,0.076,0.271,0.142,0.407,0.231l0.413,0.328c0.121,0.11,0.188,0.213,0.285,0.32
						l0.067,0.079c0.087,0.112,0.056,0.08,0.09,0.127l0.111,0.171c0.146,0.202,0.279,0.385,0.459,0.503
						c0.079,0.072,0.177,0.124,0.281,0.169c0.095,0.056,0.204,0.096,0.323,0.125c0.224,0.083,0.47,0.102,0.709,0.143
						c0.253,0.029,0.548,0.027,0.82,0.042l0.764-0.029c0.241-0.049,0.513-0.053,0.726-0.14c0.232-0.062,0.432-0.157,0.594-0.288
						c0.173-0.114,0.296-0.305,0.442-0.517c0.123-0.218,0.359-0.513,0.59-0.741c0.25-0.209,0.51-0.393,0.787-0.525
						c0.557-0.269,1.11-0.435,1.719-0.534l-0.071,0.017l0.495-0.189c0.14-0.088,0.307-0.155,0.428-0.255
						c0.128-0.097,0.242-0.2,0.32-0.319c0.058-0.052,0.069-0.122,0.104-0.183c0.039-0.06,0.049-0.13,0.062-0.199
						c0.058-0.276-0.01-0.604-0.151-0.917c-0.14-0.312-0.347-0.624-0.58-0.884l-0.006-0.007c-0.114-0.127-0.103-0.322,0.024-0.436
						C111.166,174.506,111.353,174.514,111.468,174.629z"/>
				</g>
				<circle fill="#2E230E" cx="92.667" cy="167.742" r="1.39"/>
				<path fill="#593B2E" d="M85.428,167.25c0,0,4.736-4.533,11.441-2.769c0,0,1.918-1.13,0.256-1.841
					C97.125,162.64,89.162,161.269,85.428,167.25z"/>
				<circle fill="#2E230E" cx="116.958" cy="167.742" r="1.39"/>
				<path fill="#593B2E" d="M124.385,166.663c0,0-5.135-4.072-11.648-1.694c0,0-2.016-0.948-0.428-1.809
					C112.309,163.16,120.111,161.058,124.385,166.663z"/>
				<path fill="#F4B07D" d="M82.273,172.099c0,0-4.768-7.82-6.484-0.572c-0.529,2.232-0.572,14.307,6.293,6.678"/>
				
					<path fill="none" stroke="#C18963" stroke-width="0.763" stroke-linecap="round" stroke-linejoin="round" stroke-miterlimit="10" d="
					M79.221,172.289c0,0-2.48,1.909,0,4.77"/>
				<path fill="#F4B07D" d="M127.557,172.099c0,0,4.77-7.82,6.484-0.572c0.529,2.232,0.572,14.307-6.291,6.678"/>
				
					<path fill="none" stroke="#C18963" stroke-width="0.763" stroke-linecap="round" stroke-linejoin="round" stroke-miterlimit="10" d="
					M130.609,172.289c0,0,2.479,1.909,0,4.77"/>
				
					<path fill="none" stroke="#C18963" stroke-width="0.953" stroke-linecap="round" stroke-linejoin="round" stroke-miterlimit="10" d="
					M97.539,185.295c0,0,8.068,4.424,15.033-0.777"/>
				<path fill="#776537" d="M79.439,145.012c0,0-2.801,16.727-2.418,16.854c0.379,0.126,13.48-6.807,13.48-6.807l15.197-5.278
					l22.572,6.932l4.578-1.906l-2.416-11.955l-22.004-2.288l-17.291,1.905L79.439,145.012z"/>
				<path opacity="0.3" fill="#231F20" d="M105.57,149.782c0,0,9.158,21.237,29.504,10.365c0,0-5.85-3.164-6.803-7.168"/>
				<path opacity="0.3" fill="#231F20" d="M105.441,149.621c0,0-5.506,16.041-25.561,10.674c0,0,4.6-2.213,6.297-6.007"/>
				<path fill="#776537" d="M105.699,149.782c0,0,8.586,18.377,27.912,10.111c0,0-4.387-3.243-5.34-7.249"/>
				<path fill="#776537" d="M105.441,149.621c0,0-7.012,12.995-23.547,10.22c0,0,3.613-3.034,4.223-6.542"/>
				<path fill="#776537" d="M97.75,134.459c0,0,3.076-1.09,2.035-5.597c0,0,3.436,3.307,3.436,6.613c0,0,1.396-6.867,4.322-7.885
					c0,0-1.064,9.024,7.834,6.379l-1.602,3.668l-6.361,7.756l-11.697-2.16L97.75,134.459z"/>
			</g>
		</g>
		
			<path fill="none" stroke="#F4B07D" stroke-width="13.9376" stroke-linecap="round" stroke-linejoin="round" stroke-miterlimit="10" d="
			M80.824,212.608c0,0-26.643,19.328-28.943,40.043c-2.379,21.411-1.191,26.565-1.191,37.906"/>
		<path fill="none" stroke="#7F6157" stroke-width="14.2729" stroke-linejoin="round" stroke-miterlimit="10" d="M80.824,212.608
			c0,0-26.643,19.328-28.943,40.043c-2.379,21.411-1.191,26.565-1.191,37.906"/>
		
			<path fill="none" stroke="#F4B07D" stroke-width="13.9376" stroke-linecap="round" stroke-linejoin="round" stroke-miterlimit="10" d="
			M130.082,212.608c0,0,26.641,19.328,28.945,40.043c2.377,21.411,1.188,26.565,1.188,37.906"/>
		<path fill="none" stroke="#7F6157" stroke-width="14.2729" stroke-linejoin="round" stroke-miterlimit="10" d="M130.082,212.608
			c0,0,26.641,19.328,28.945,40.043c2.377,21.411,1.188,26.565,1.188,37.906"/>
		<path fill="#F4B07D" d="M79.002,209.308c-4.057,17.319-11.893,15.923-11.893,45.199c0,36.036,0,29.562,0,30.477
			c0,0.065,3.963,0.096,3.963,0.096h34.221v-75.771H79.002z"/>
		<path fill="#F4B07D" d="M130.271,209.308c4.057,17.319,11.895,15.923,11.895,45.199c0,36.036,0,29.562,0,30.477
			c0,0.065-3.967,0.096-3.967,0.096h-34.217v-75.771H130.271z"/>
		<g>
			<circle opacity="0.2" fill="#232222" cx="87.318" cy="235.013" r="3.436"/>
			<path opacity="0.2" fill="#232222" d="M89.039,235.013c0,0.949-0.77,1.723-1.719,1.723c-0.951,0-1.721-0.773-1.721-1.723
				c0-0.948,0.77-1.719,1.721-1.719C88.27,233.294,89.039,234.065,89.039,235.013z"/>
		</g>
		<g>
			<circle opacity="0.2" fill="#232222" cx="121.945" cy="235.013" r="3.436"/>
			<path opacity="0.2" fill="#232222" d="M123.664,235.013c0,0.949-0.77,1.723-1.719,1.723s-1.719-0.773-1.719-1.723
				c0-0.948,0.77-1.719,1.719-1.719S123.664,234.065,123.664,235.013z"/>
		</g>
		<ellipse opacity="0.2" fill="#232222" cx="105.161" cy="268.958" rx="1.058" ry="1.716"/>
		<path fill="#755951" d="M142.475,282.678H66.789c0,11.737,5.344,19.996,13.732,25.841h48.223
			C137.131,302.674,142.475,294.416,142.475,282.678z"/>
		<rect x="67.092" y="282.728" fill="#161516" width="75.234" height="5.658"/>
		<rect x="99.68" y="282.728" fill="#D6D6D6" width="10.746" height="5.658"/>
		<rect x="78.68" y="208.457" fill="#F9E9E4" width="51.404" height="74.4"/>
		<path fill="#7F6157" d="M62.412,265.337c0,0-0.305,17.976-1.547,26.203c0,0,2.4,1.089,8.449,1.089c0,0,12.279,1.447,13.611-0.122
			l-0.361-18.026L62.412,265.337z"/>
		<path fill="#7F6157" d="M82.654,206.167v77.386H63.213c0,0-5.955-56.452,13.574-77.386H82.654z"/>
		<path fill="#7F6157" d="M148.621,267.499c0,0,0,18.397,1.895,24.529c0,0-4.482,1.204-10.531,1.204c0,0-11.314,0.845-12.648-0.725
			l0.363-18.026L148.621,267.499z"/>
		<path fill="#7F6157" d="M127.609,206.167v77.386h20.887c0,0,3.512-64.146-15.02-77.386H127.609z"/>
		<polygon fill="#846E69" points="82.303,206.13 71.838,219.801 82.303,271.142 		"/>
		<polygon fill="#846E69" points="127.539,206.13 138.002,219.801 127.539,271.142 		"/>
		<g>
			<g>
				<polygon fill="#725D56" points="97.178,208.779 104.854,216.457 112.807,208.779 105.035,206.766 				"/>
				<path fill="#725D56" d="M107.531,213.175l-2.406-2.443v-0.269l-0.135,0.132l-0.131-0.132l-0.014,0.284l-2.393,2.428
					l-5.615,53.447c0,0,6.166,13.9,8.287,13.9c2.691,0,8.02-13.9,8.02-13.9L107.531,213.175z"/>
			</g>
			<polygon fill="#EAD6D0" points="78.824,200.613 105.293,206.766 97.1,215.522 76.658,206.143 76.658,199.89 			"/>
			<polygon fill="#EAD6D0" points="131.504,200.613 105.035,206.766 113.229,215.522 133.666,206.143 133.666,199.89 			"/>
		</g>
		<g>
			<path fill="#F4B07D" d="M123.209,198.363c0,0-2.885,9.709-18.344,9.709c-15.273,0-18.346-9.709-18.346-9.709
				s5.586,7.152,18.996,7.152C105.516,205.515,114.453,206.37,123.209,198.363z"/>
		</g>
	</g>
</g>
</svg>
