<?xml version="1.0" encoding="utf-8"?>
<!-- Generator: Adobe Illustrator 16.0.0, SVG Export Plug-In . SVG Version: 6.00 Build 0)  -->
<!DOCTYPE svg PUBLIC "-//W3C//DTD SVG 1.1//EN" "http://www.w3.org/Graphics/SVG/1.1/DTD/svg11.dtd">
<svg version="1.1" id="Layer_1" xmlns="http://www.w3.org/2000/svg" xmlns:xlink="http://www.w3.org/1999/xlink" x="0px" y="0px"
	 width="493.135px" height="308.511px" viewBox="0 0 493.135 308.511" enable-background="new 0 0 493.135 308.511"
	 xml:space="preserve">
<g>
	<defs>
		<rect id="SVGID_1_" y="-0.001" width="493.134" height="308.512"/>
	</defs>
	<clipPath id="SVGID_2_">
		<use xlink:href="#SVGID_1_"  overflow="visible"/>
	</clipPath>
	<g clip-path="url(#SVGID_2_)">
		<defs>
			<rect id="SVGID_3_" y="-0.001" width="493.134" height="308.512"/>
		</defs>
		<clipPath id="SVGID_4_">
			<use xlink:href="#SVGID_3_"  overflow="visible"/>
		</clipPath>
		<g clip-path="url(#SVGID_4_)">
			<rect y="-0.001" fill="#F9D0B4" width="493.134" height="308.512"/>
			<rect x="-10.591" y="188.641" fill="#210E00" width="518.086" height="15.551"/>
			<rect x="-22.05" y="170.635" fill="#544A41" width="532" height="22.099"/>
			<rect x="-10.387" y="154.47" fill="#37350F" width="37.649" height="26.191"/>
			<g>
				<path fill="#366D89" d="M73.606,134.929l-2.975-12.533c-1.056-4.989-2.73-6.098-6.098-6.098s-4.988,2.376-6.098,6.098
					l-2.766,11.646C59.246,135.723,65.477,137.434,73.606,134.929z"/>
				<path fill="#95A393" d="M73.606,134.929c-8.13,2.505-14.36,0.794-17.936-0.888l-9.905,41.729c0,3.368,10.823,6.098,18.769,6.098
					c3.367,0,18.769-2.729,18.769-6.098L73.606,134.929z"/>
				<rect x="59.085" y="109.843" fill="#366D89" width="11.372" height="19.495"/>
				<path fill="#366D89" d="M73.097,109.545c0,1.061-0.858,1.922-1.921,1.922h-12.81c-1.062,0-1.921-0.861-1.921-1.922v-1.601
					c0-1.062,0.859-1.922,1.921-1.922h12.81c1.062,0,1.921,0.86,1.921,1.922V109.545z"/>
			</g>
			<g>
				<rect x="357.766" y="118.626" fill="#541D00" width="85.12" height="61.385"/>
				<rect x="363.495" y="122.758" fill="#FFFFFF" width="73.662" height="53.121"/>
				<rect x="372.089" y="128.955" fill="#636363" width="56.474" height="40.727"/>
				<rect x="372.089" y="128.955" fill="#636363" width="56.474" height="40.727"/>
				<g>
					<defs>
						<rect id="SVGID_5_" x="372.089" y="128.955" width="56.474" height="40.727"/>
					</defs>
					<clipPath id="SVGID_6_">
						<use xlink:href="#SVGID_5_"  overflow="visible"/>
					</clipPath>
					<g clip-path="url(#SVGID_6_)">
						<path fill="#776537" d="M393.518,144.412c0,0-0.596,0.219-0.59,1.227c0.002,0.338,0.182,1.227-0.454,1.271
							c0,0,0.772,0.092,0.998-0.408c0,0-0.044,0.908-0.408,1.135c0,0,2.135,0.909,2.498-1.135l-0.182-2.997
							C395.38,143.505,394.062,142.96,393.518,144.412z"/>
						<path fill="#776537" d="M406.367,144.412c0,0,0.596,0.219,0.591,1.227c-0.003,0.338-0.182,1.227,0.453,1.271
							c0,0-0.771,0.092-0.999-0.408c0,0,0.046,0.908,0.409,1.135c0,0-2.135,0.909-2.498-1.135l0.182-2.997
							C404.505,143.505,405.821,142.96,406.367,144.412z"/>
						<g>
							<polygon fill="#B7B7B7" points="392.776,149.431 394.229,149.249 394.457,150.885 							"/>
							<polygon fill="#B7B7B7" points="407.104,149.431 405.65,149.249 405.424,150.885 							"/>
							<path fill="#F4B07D" d="M408.55,159.268h-17.136c0,0,2.806-10.359,2.806-15.323c0-2.868,11.475-2.868,11.475,0
								C405.694,151.119,408.55,159.268,408.55,159.268z"/>
							<g>
								<path fill="#776537" d="M400.075,134.173c0,0-2.228-3.122-6.358,0.048c-1.67,1.281-2.407,6.604,0.403,9.413l6.099-6.819
									L400.075,134.173z"/>
								<path fill="#776537" d="M400.098,134.173c0,0,2.228-3.122,6.358,0.048c1.668,1.281,2.406,6.604-0.403,9.413l-6.1-6.819
									L400.098,134.173z"/>
								<path fill="#F4B07D" d="M405.354,137.721c0,0-1.928-2.467-5.598-2.414c-3.655-0.053-5.19,2.414-5.19,2.414
									c-1.283,2.1-0.899,8.585-0.899,8.585c0,3.208,4.45,5.765,6.32,5.765c1.868,0,6.335-2.39,6.335-5.765
									C406.321,146.306,406.637,139.82,405.354,137.721z"/>
								<g>
									<path opacity="0.1" fill="#232222" d="M402.858,148.521c0,0-0.469,1.726-2.98,1.726c-2.48,0-2.979-1.726-2.979-1.726
										s0.908,1.271,3.085,1.271C399.983,149.791,401.436,149.943,402.858,148.521z"/>
								</g>
								<g opacity="0.2">
									<path fill="#231F20" d="M401.542,143.072c0.07,0.072,0.138,0.161,0.186,0.255c0.05,0.095,0.083,0.213,0.067,0.333
										c-0.02,0.057-0.026,0.127-0.062,0.173l-0.122,0.13c-0.09,0.065-0.19,0.102-0.287,0.151l-0.002,0.001l-0.016,0.003
										c-0.122,0.025-0.253,0.065-0.359,0.127c-0.062,0.022-0.106,0.062-0.143,0.104c-0.038,0.039-0.089,0.075-0.124,0.142
										c-0.028,0.057-0.093,0.121-0.157,0.181c-0.062,0.062-0.146,0.075-0.22,0.112c-0.077,0.041-0.149,0.028-0.225,0.042
										c-0.08,0.006-0.137,0.018-0.236,0.02c-0.144-0.024-0.267-0.006-0.427-0.065c-0.075-0.036-0.167-0.047-0.226-0.111
										c-0.064-0.056-0.128-0.114-0.162-0.178l-0.031-0.046l-0.008-0.012c0.005,0.006-0.017-0.021,0.01,0.012l-0.004-0.005
										l-0.02-0.018l-0.074-0.074c-0.049-0.056-0.1-0.096-0.152-0.11c-0.092-0.051-0.228-0.096-0.349-0.12l-0.015-0.003
										l-0.003-0.001c-0.097-0.05-0.197-0.086-0.287-0.151l-0.122-0.13c-0.036-0.046-0.043-0.116-0.062-0.173
										c-0.016-0.12,0.019-0.238,0.067-0.333c0.05-0.097,0.111-0.179,0.188-0.257c0.029-0.031,0.079-0.032,0.109-0.002
										c0.03,0.029,0.031,0.076,0.005,0.106l-0.005,0.005c-0.113,0.13-0.208,0.311-0.18,0.451
										c0.018,0.031,0.015,0.069,0.041,0.096l0.08,0.081c0.066,0.045,0.155,0.074,0.229,0.114l-0.017-0.004
										c0.152,0.029,0.287,0.064,0.44,0.149c0.082,0.035,0.138,0.081,0.184,0.131l0.075,0.072l0.02,0.018l0.005,0.004l0.018,0.022
										l0.007,0.01l0.027,0.04c0.034,0.061,0.079,0.092,0.12,0.128c0.035,0.045,0.101,0.042,0.146,0.069
										c0.099,0.046,0.268,0.033,0.396,0.052l0.182-0.016c0.061-0.01,0.137,0.001,0.184-0.029c0.049-0.026,0.117-0.031,0.152-0.07
										c0.037-0.037,0.079-0.064,0.117-0.132c0.074-0.096,0.211-0.26,0.346-0.307c0.138-0.074,0.277-0.114,0.429-0.142
										l-0.017,0.004c0.074-0.04,0.163-0.069,0.229-0.114l0.08-0.081c0.026-0.027,0.023-0.065,0.041-0.096
										c0.028-0.142-0.064-0.319-0.182-0.453c-0.028-0.032-0.026-0.081,0.006-0.11
										C401.465,143.041,401.513,143.043,401.542,143.072z"/>
								</g>
								<circle fill="#2E230E" cx="396.807" cy="141.336" r="0.35"/>
								<path fill="#593B2E" d="M394.983,141.213c0,0,1.193-1.142,2.882-0.697c0,0,0.482-0.285,0.064-0.464
									C397.93,140.052,395.925,139.707,394.983,141.213z"/>
								<circle fill="#2E230E" cx="402.923" cy="141.336" r="0.35"/>
								<path fill="#593B2E" d="M404.793,141.064c0,0-1.292-1.025-2.933-0.427c0,0-0.508-0.238-0.107-0.456
									C401.753,140.182,403.718,139.653,404.793,141.064z"/>
								<path fill="#F4B07D" d="M394.189,142.434c0,0-1.2-1.97-1.633-0.145c-0.133,0.562-0.144,3.603,1.585,1.682"/>
								
									<path fill="none" stroke="#C18963" stroke-width="0.1921" stroke-linecap="round" stroke-linejoin="round" stroke-miterlimit="10" d="
									M393.422,142.481c0,0-0.625,0.48,0,1.2"/>
								<path fill="#F4B07D" d="M405.592,142.434c0,0,1.201-1.97,1.634-0.145c0.133,0.562,0.144,3.603-1.585,1.682"/>
								
									<path fill="none" stroke="#C18963" stroke-width="0.1921" stroke-linecap="round" stroke-linejoin="round" stroke-miterlimit="10" d="
									M406.36,142.481c0,0,0.624,0.48,0,1.2"/>
								
									<path fill="none" stroke="#C18963" stroke-width="0.24" stroke-linecap="round" stroke-linejoin="round" stroke-miterlimit="10" d="
									M398.033,145.756c0,0,2.032,1.114,3.786-0.195"/>
								<path fill="#776537" d="M393.476,135.613c0,0-0.704,4.212-0.608,4.243c0.096,0.032,3.395-1.714,3.395-1.714l3.827-1.328
									l5.683,1.745l1.153-0.48l-0.608-3.01l-5.54-0.576l-4.354,0.479L393.476,135.613z"/>
								<path opacity="0.3" fill="#231F20" d="M400.056,136.814c0,0,2.306,5.347,7.429,2.609c0,0-1.473-0.797-1.713-1.805"/>
								<path opacity="0.3" fill="#231F20" d="M400.022,136.773c0,0-1.386,4.039-6.436,2.688c0,0,1.158-0.557,1.586-1.512"/>
								<path fill="#776537" d="M400.089,136.814c0,0,2.161,4.627,7.027,2.546c0,0-1.104-0.816-1.345-1.825"/>
								<path fill="#776537" d="M400.022,136.773c0,0-1.765,3.271-5.928,2.572c0,0,0.909-0.763,1.063-1.646"/>
								<path fill="#776537" d="M398.087,132.956c0,0,0.774-0.274,0.513-1.409c0,0,0.864,0.833,0.864,1.666
									c0,0,0.353-1.73,1.089-1.986c0,0-0.269,2.271,1.972,1.606l-0.402,0.924l-1.602,1.952l-2.945-0.544L398.087,132.956z"/>
							</g>
						</g>
						
							<path fill="none" stroke="#F4B07D" stroke-width="3.5094" stroke-linecap="round" stroke-linejoin="round" stroke-miterlimit="10" d="
							M393.824,152.633c0,0-7.657,4.897-8.352,10.1c-0.321,2.411,0.563,4.019,3.135,6.631"/>
						<path fill="none" stroke="#282828" stroke-width="3.5938" stroke-linejoin="round" stroke-miterlimit="10" d="
							M393.824,152.633c0,0-7.657,4.897-8.352,10.1c-0.321,2.411,0.563,4.019,3.135,6.631"/>
						
							<path fill="none" stroke="#F4B07D" stroke-width="3.5094" stroke-linecap="round" stroke-linejoin="round" stroke-miterlimit="10" d="
							M406.024,152.633c0,0,7.658,4.897,8.352,10.1c0.322,2.411-0.562,4.019-3.135,6.631"/>
						<path fill="none" stroke="#282828" stroke-width="3.5938" stroke-linejoin="round" stroke-miterlimit="10" d="
							M406.024,152.633c0,0,7.658,4.897,8.352,10.1c0.322,2.411-0.562,4.019-3.135,6.631"/>
						
							<line fill="none" stroke="#2D2D2D" stroke-width="3.9963" stroke-linecap="round" stroke-linejoin="round" stroke-miterlimit="10" x1="396.051" y1="171.641" x2="396.051" y2="191.214"/>
						
							<line fill="none" stroke="#2D2D2D" stroke-width="3.9963" stroke-linecap="round" stroke-linejoin="round" stroke-miterlimit="10" x1="403.493" y1="171.641" x2="403.493" y2="191.214"/>
						<path fill="#F4B07D" d="M393.366,151.802c-1.021,4.361-2.994,4.011-2.994,11.381c0,9.073,0,7.444,0,7.674
							c0,0.017,0.998,0.024,0.998,0.024h8.616v-19.079H393.366z"/>
						<path fill="#F4B07D" d="M406.274,151.802c1.022,4.361,2.995,4.011,2.995,11.381c0,9.073,0,7.444,0,7.674
							c0,0.017-0.998,0.024-0.998,0.024h-8.615v-19.079H406.274z"/>
						<g>
							<circle opacity="0.2" fill="#232222" cx="395.46" cy="158.274" r="0.865"/>
							<circle opacity="0.2" fill="#232222" cx="395.46" cy="158.274" r="0.433"/>
						</g>
						<g>
							<circle opacity="0.2" fill="#232222" cx="404.179" cy="158.274" r="0.865"/>
							<circle opacity="0.2" fill="#232222" cx="404.179" cy="158.274" r="0.433"/>
						</g>
						<ellipse opacity="0.2" fill="#232222" cx="399.953" cy="166.821" rx="0.266" ry="0.433"/>
						<path fill="#2D2D2D" d="M399.82,178.807c5.262,0,9.528-3.268,9.528-8.53h-19.058
							C390.291,175.539,394.558,178.807,399.82,178.807z"/>
						<path fill="#1C1C1C" d="M398.025,191.805c-5.344,0-9.677,1.148-9.677,2.568h9.677V191.805z"/>
						<path fill="#1C1C1C" d="M401.489,191.805c5.344,0,9.676,1.148,9.676,2.568h-9.676V191.805z"/>
						<rect x="393.794" y="190.526" fill="#2D2D2D" width="4.396" height="1.508"/>
						<rect x="401.292" y="190.526" fill="#2D2D2D" width="4.396" height="1.508"/>
						<rect x="390.368" y="170.289" fill="#161516" width="18.942" height="1.425"/>
						<rect x="398.572" y="170.289" fill="#D6D6D6" width="2.706" height="1.425"/>
						<rect x="393.285" y="151.588" fill="#FFFFFF" width="12.943" height="18.733"/>
						<path fill="#282828" d="M389.188,165.91c0,0-0.076,4.525-0.39,6.598c0,0,0.604,0.273,2.128,0.273c0,0,3.092,0.365,3.428-0.03
							l-0.091-4.539L389.188,165.91z"/>
						<path fill="#282828" d="M394.286,151.012v19.484h-4.896c0,0-1.498-14.214,3.419-19.484H394.286z"/>
						<path fill="#282828" d="M410.896,166.454c0,0,0,4.632,0.478,6.177c0,0-1.129,0.303-2.652,0.303c0,0-2.849,0.213-3.185-0.183
							l0.092-4.539L410.896,166.454z"/>
						<path fill="#282828" d="M405.605,151.012v19.484h5.258c0,0,0.885-16.151-3.78-19.484H405.605z"/>
						<polygon fill="#2D2D2D" points="394.197,151.002 391.562,154.444 394.04,154.628 391.562,157.758 394.197,167.371 						"/>
						<polygon fill="#2D2D2D" points="405.588,151.002 408.222,154.444 405.745,154.628 408.222,157.758 405.588,167.371 						"/>
						<g>
							<g>
								<polygon fill="#EA94C7" points="397.942,151.669 399.875,153.602 401.878,151.669 399.922,151.162 								"/>
								<path fill="#EA94C7" d="M400.55,152.775l-0.605-0.614v-0.068l-0.034,0.034l-0.033-0.034l-0.003,0.072l-0.604,0.61
									l-1.413,13.458c0,0,1.553,3.5,2.087,3.5c0.678,0,2.019-3.5,2.019-3.5L400.55,152.775z"/>
							</g>
							<polygon fill="#D6D6D6" points="393.321,149.613 399.986,151.162 397.923,153.367 392.776,151.006 392.776,149.431 							
								"/>
							<polygon fill="#D6D6D6" points="406.586,149.613 399.922,151.162 401.983,153.367 407.131,151.006 407.131,149.431 							
								"/>
						</g>
						<g>
							<path fill="#F4B07D" d="M404.497,149.046c0,0-0.727,2.445-4.619,2.445c-3.845,0-4.619-2.445-4.619-2.445
								s1.407,1.801,4.783,1.801C400.042,150.847,402.292,151.062,404.497,149.046z"/>
						</g>
					</g>
				</g>
			</g>
			<rect x="454.295" y="196.007" fill="#210E00" width="10.64" height="130.954"/>
			<path fill="#BBA039" d="M292.504,478.418c0,7.214-5.596,13.063-12.498,13.063H153.778c-6.902,0-12.499-5.85-12.499-13.063
				V164.912c0-7.215,5.597-13.062,12.499-13.062h126.228c6.902,0,12.498,5.848,12.498,13.062V478.418z"/>
			<g>
				<path fill="#776537" d="M178.382,121.216c0,0-4.047,1.479-4.008,8.325c0.014,2.293,1.232,8.324-3.084,8.633
					c0,0,5.242,0.617,6.783-2.774c0,0-0.309,6.166-2.775,7.708c0,0,14.492,6.166,16.957-7.708l-1.232-20.349
					C191.022,115.051,182.081,111.35,178.382,121.216z"/>
				<path fill="#776537" d="M265.616,121.216c0,0,4.047,1.479,4.009,8.325c-0.015,2.293-1.233,8.324,3.083,8.633
					c0,0-5.241,0.617-6.784-2.774c0,0,0.31,6.166,2.776,7.708c0,0-14.491,6.166-16.958-7.708l1.233-20.349
					C252.976,115.051,261.916,111.35,265.616,121.216z"/>
				<g>
					<polygon fill="#B7B7B7" points="173.345,155.285 183.211,154.053 184.753,165.151 					"/>
					<polygon fill="#B7B7B7" points="270.62,155.285 260.753,154.053 259.211,165.151 					"/>
					<path fill="#F4B07D" d="M280.435,222.07H164.097c0,0,19.045-70.331,19.045-104.036c0-19.477,77.907-19.476,77.907,0
						C261.049,166.746,280.435,222.07,280.435,222.07z"/>
					<g>
						<path fill="#776537" d="M222.899,51.694c0,0-15.127-21.195-43.17,0.323c-11.333,8.697-16.338,44.836,2.737,63.914
							l41.41-46.307L222.899,51.694z"/>
						<path fill="#776537" d="M223.049,51.694c0,0,15.127-21.195,43.17,0.323c11.331,8.7,16.339,44.836-2.736,63.914l-41.411-46.307
							L223.049,51.694z"/>
						<path fill="#F4B07D" d="M258.737,75.782c0,0-13.094-16.748-38.006-16.389c-24.814-0.359-35.236,16.389-35.236,16.389
							c-8.711,14.253-6.106,58.282-6.106,58.282c0,21.784,30.214,39.143,42.904,39.143s43.015-16.226,43.015-39.143
							C265.308,134.064,267.447,90.035,258.737,75.782z"/>
						<g>
							<path opacity="0.1" fill="#232222" d="M241.794,149.104c0,0-3.182,11.712-20.231,11.712c-16.842,0-20.23-11.712-20.23-11.712
								s6.161,8.628,20.95,8.628C222.282,157.732,232.135,158.764,241.794,149.104z"/>
						</g>
						<g opacity="0.2">
							<path fill="#231F20" d="M232.85,112.102c0.516,0.52,0.938,1.083,1.281,1.741c0.169,0.326,0.317,0.678,0.399,1.064
								c0.048,0.19,0.087,0.384,0.088,0.593c0.016,0.204,0.022,0.409-0.023,0.62c-0.03,0.21-0.062,0.42-0.156,0.613
								c-0.085,0.193-0.146,0.408-0.28,0.565c-0.123,0.165-0.241,0.344-0.379,0.491l-0.443,0.393
								c-0.146,0.143-0.312,0.221-0.472,0.323l-0.485,0.289l-1.002,0.419l-0.02,0.008l-0.102,0.021
								c-0.398,0.081-0.853,0.189-1.262,0.337c-0.419,0.135-0.82,0.313-1.194,0.51c-0.178,0.11-0.371,0.203-0.542,0.316
								l-0.471,0.372c-0.259,0.29-0.479,0.514-0.738,0.969c-0.28,0.416-0.596,0.913-1.084,1.268
								c-0.455,0.373-0.998,0.625-1.512,0.771c-0.527,0.201-1.03,0.214-1.547,0.315c-0.518,0.028-0.97,0.06-1.539,0.069
								c-0.482-0.031-0.931-0.028-1.44-0.088c-0.528-0.083-1.06-0.14-1.572-0.329c-0.259-0.069-0.516-0.164-0.768-0.307
								c-0.257-0.12-0.504-0.259-0.729-0.452c-0.48-0.339-0.821-0.815-1.117-1.238l-0.195-0.306l-0.049-0.077l-0.024-0.038
								c0.023,0.031-0.056-0.077,0.052,0.069l-0.004-0.004l-0.008-0.009l-0.014-0.017l-0.114-0.137
								c-0.15-0.169-0.306-0.395-0.453-0.518c-0.145-0.1-0.282-0.204-0.417-0.315c-0.162-0.107-0.361-0.205-0.537-0.313
								c-0.374-0.198-0.775-0.376-1.195-0.511c-0.408-0.148-0.861-0.257-1.261-0.337l-0.101-0.021l-0.021-0.008l-1.001-0.418
								l-0.485-0.289c-0.16-0.102-0.326-0.18-0.472-0.323l-0.444-0.393c-0.137-0.146-0.255-0.326-0.378-0.49
								c-0.133-0.157-0.195-0.372-0.281-0.565c-0.094-0.193-0.125-0.403-0.155-0.613c-0.046-0.21-0.04-0.416-0.024-0.62
								c0-0.208,0.039-0.402,0.088-0.592c0.081-0.386,0.229-0.738,0.398-1.064c0.163-0.333,0.365-0.633,0.576-0.923
								c0.219-0.291,0.432-0.552,0.708-0.824c0.207-0.204,0.541-0.202,0.745,0.005c0.198,0.2,0.203,0.519,0.016,0.725l-0.015,0.016
								c-0.187,0.205-0.384,0.468-0.55,0.717c-0.166,0.255-0.322,0.518-0.436,0.789c-0.122,0.267-0.219,0.542-0.256,0.808
								c-0.028,0.134-0.049,0.266-0.037,0.392c-0.004,0.128-0.004,0.255,0.035,0.369c0.024,0.118,0.04,0.238,0.108,0.34
								c0.061,0.104,0.08,0.223,0.179,0.312c0.083,0.094,0.146,0.199,0.236,0.291l0.312,0.255c0.091,0.095,0.234,0.152,0.356,0.225
								l0.375,0.211l0.847,0.324l-0.121-0.029c0.534,0.088,1.01,0.192,1.501,0.349c0.487,0.142,0.967,0.334,1.437,0.566
								c0.234,0.129,0.463,0.242,0.697,0.395c0.239,0.18,0.477,0.368,0.706,0.56c0.207,0.189,0.322,0.364,0.488,0.547l0.115,0.136
								l0.014,0.017l0.068,0.091l0.023,0.037l0.048,0.073l0.19,0.292c0.252,0.346,0.477,0.659,0.783,0.86
								c0.137,0.122,0.304,0.211,0.481,0.289c0.162,0.096,0.35,0.164,0.553,0.212c0.383,0.143,0.804,0.174,1.212,0.244
								c0.432,0.05,0.938,0.046,1.402,0.072l1.307-0.05c0.412-0.083,0.877-0.09,1.24-0.239c0.19-0.061,0.397-0.104,0.549-0.205
								c0.164-0.087,0.341-0.159,0.466-0.286c0.296-0.195,0.506-0.521,0.757-0.883c0.209-0.372,0.613-0.876,1.008-1.267l0.652-0.504
								c0.227-0.146,0.46-0.265,0.692-0.393c0.47-0.231,0.95-0.423,1.438-0.565c0.491-0.157,0.966-0.26,1.501-0.349l-0.121,0.029
								l0.846-0.324l0.376-0.211c0.122-0.073,0.265-0.13,0.356-0.225l0.312-0.255c0.091-0.092,0.153-0.196,0.236-0.291
								c0.098-0.089,0.118-0.208,0.178-0.312c0.068-0.102,0.083-0.222,0.108-0.34c0.039-0.114,0.038-0.241,0.034-0.369
								c0.013-0.125-0.009-0.258-0.036-0.392c-0.038-0.266-0.135-0.542-0.257-0.808c-0.239-0.534-0.595-1.067-0.991-1.511
								l-0.012-0.012c-0.193-0.217-0.176-0.551,0.042-0.745C232.334,111.893,232.654,111.905,232.85,112.102z"/>
						</g>
						<circle fill="#2E230E" cx="200.71" cy="100.33" r="2.375"/>
						<path fill="#593B2E" d="M188.334,99.485c0,0,8.099-7.747,19.56-4.731c0,0,3.28-1.933,0.439-3.146
							C208.333,91.607,194.717,89.264,188.334,99.485z"/>
						<path fill="#2E230E" d="M239.859,100.33c0,1.312,1.062,2.372,2.375,2.372c1.313,0,2.378-1.06,2.378-2.372
							s-1.064-2.377-2.378-2.377C240.922,97.953,239.859,99.018,239.859,100.33z"/>
						<path fill="#593B2E" d="M254.931,98.482c0,0-8.777-6.961-19.913-2.896c0,0-3.444-1.621-0.729-3.093
							C234.288,92.494,247.628,88.9,254.931,98.482z"/>
						<path fill="#F4B07D" d="M182.942,107.777c0,0-8.149-13.368-11.085-0.979c-0.905,3.816-0.979,24.457,10.759,11.416"/>
						
							<path fill="none" stroke="#C18963" stroke-width="1.3043" stroke-linecap="round" stroke-linejoin="round" stroke-miterlimit="10" d="
							M177.726,108.104c0,0-4.239,3.262,0,8.149"/>
						<path fill="#F4B07D" d="M260.353,107.777c0,0,8.154-13.368,11.088-0.979c0.906,3.816,0.978,24.457-10.758,11.416"/>
						
							<path fill="none" stroke="#C18963" stroke-width="1.3043" stroke-linecap="round" stroke-linejoin="round" stroke-miterlimit="10" d="
							M265.573,108.104c0,0,4.236,3.262,0,8.149"/>
						
							<path fill="none" stroke="#C18963" stroke-width="1.6292" stroke-linecap="round" stroke-linejoin="round" stroke-miterlimit="10" d="
							M209.04,130.335c0,0,13.794,7.564,25.696-1.328"/>
						<path fill="#776537" d="M178.1,61.475c0,0-4.789,28.592-4.137,28.809c0.65,0.217,23.048-11.635,23.048-11.635l25.98-9.023
							l38.584,11.85l7.828-3.259l-4.132-20.437l-37.612-3.911l-29.56,3.259L178.1,61.475z"/>
						<path opacity="0.3" fill="#231F20" d="M222.77,69.625c0,0,15.654,36.305,50.435,17.719c0,0-9.999-5.407-11.629-12.254"/>
						<path opacity="0.3" fill="#231F20" d="M222.548,69.352c0,0-9.413,27.421-43.694,18.244c0,0,7.862-3.78,10.765-10.268"/>
						<path fill="#776537" d="M222.991,69.625c0,0,14.674,31.416,47.713,17.286c0,0-7.499-5.545-9.129-12.394"/>
						<path fill="#776537" d="M222.548,69.352c0,0-11.986,22.213-40.25,17.468c0,0,6.176-5.187,7.216-11.182"/>
						<path fill="#776537" d="M209.4,43.434c0,0,5.261-1.865,3.479-9.568c0,0,5.872,5.65,5.872,11.307c0,0,2.391-11.74,7.391-13.479
							c0,0-1.821,15.427,13.389,10.902l-2.736,6.272l-10.871,13.258l-19.998-3.695L209.4,43.434z"/>
					</g>
				</g>
				
					<path fill="none" stroke="#F4B07D" stroke-width="23.8261" stroke-linecap="round" stroke-linejoin="round" stroke-miterlimit="10" d="
					M180.464,177.024c0,0-45.541,33.041-49.478,68.455c-4.065,36.601-2.033,45.411-2.033,64.799"/>
				<path fill="none" stroke="#C2BBA6" stroke-width="24.3992" stroke-linejoin="round" stroke-miterlimit="10" d="M180.464,177.024
					c0,0-45.541,33.041-49.478,68.455c-4.065,36.601-2.033,45.411-2.033,64.799"/>
				
					<path fill="none" stroke="#F4B07D" stroke-width="23.8261" stroke-linecap="round" stroke-linejoin="round" stroke-miterlimit="10" d="
					M264.669,177.024c0,0,45.546,33.041,49.481,68.455c4.065,36.601,2.033,45.411,2.033,64.799"/>
				<path fill="none" stroke="#C2BBA6" stroke-width="24.3992" stroke-linejoin="round" stroke-miterlimit="10" d="M264.669,177.024
					c0,0,45.546,33.041,49.481,68.455c4.065,36.601,2.033,45.411,2.033,64.799"/>
				
					<line fill="none" stroke="#2D2D2D" stroke-width="27.1321" stroke-linecap="round" stroke-linejoin="round" stroke-miterlimit="10" x1="195.575" y1="306.07" x2="195.575" y2="438.961"/>
				
					<line fill="none" stroke="#2D2D2D" stroke-width="27.1321" stroke-linecap="round" stroke-linejoin="round" stroke-miterlimit="10" x1="246.104" y1="306.07" x2="246.104" y2="438.961"/>
				<path fill="#F4B07D" d="M177.352,171.385c-6.935,29.606-20.333,27.222-20.333,77.269c0,61.601,0,50.533,0,52.097
					c0,0.111,6.777,0.164,6.777,0.164h58.5V171.385H177.352z"/>
				<path fill="#F4B07D" d="M264.993,171.385c6.937,29.606,20.334,27.222,20.334,77.269c0,61.601,0,50.533,0,52.097
					c0,0.111-6.778,0.164-6.778,0.164h-58.496V171.385H264.993z"/>
				<g>
					<circle opacity="0.2" fill="#232222" cx="191.568" cy="215.329" r="5.872"/>
					<path opacity="0.2" fill="#232222" d="M194.508,215.329c0,1.62-1.315,2.94-2.939,2.94c-1.623,0-2.938-1.32-2.938-2.94
						c0-1.621,1.315-2.937,2.938-2.937C193.192,212.393,194.508,213.708,194.508,215.329z"/>
				</g>
				<g>
					<circle opacity="0.2" fill="#232222" cx="250.761" cy="215.329" r="5.873"/>
					<path opacity="0.2" fill="#232222" d="M253.7,215.329c0,1.62-1.315,2.94-2.938,2.94c-1.624,0-2.938-1.32-2.938-2.94
						c0-1.621,1.314-2.937,2.938-2.937C252.385,212.393,253.7,213.708,253.7,215.329z"/>
				</g>
				<path opacity="0.2" fill="#232222" d="M223.875,273.354c0,1.62-0.81,2.935-1.807,2.935s-1.807-1.314-1.807-2.935
					c0-1.625,0.81-2.939,1.807-2.939S223.875,271.729,223.875,273.354z"/>
				<path fill="#2D2D2D" d="M221.165,354.725c35.729,0,64.691-22.188,64.691-57.916H156.474
					C156.474,332.537,185.437,354.725,221.165,354.725z"/>
				<rect x="156.991" y="296.896" fill="#161516" width="128.61" height="9.672"/>
				<rect x="212.698" y="296.896" fill="#D6D6D6" width="18.369" height="9.672"/>
				<rect x="176.802" y="169.931" fill="#DFECF7" width="87.875" height="127.187"/>
				<path fill="#C2BBA6" d="M148.987,267.164c0,0-0.516,30.729-2.643,44.796c0,0,4.105,1.86,14.445,1.86
					c0,0,20.991,2.476,23.268-0.208l-0.618-30.818L148.987,267.164z"/>
				<path fill="#C2BBA6" d="M183.595,166.015v132.287h-33.236c0,0-10.178-96.501,23.205-132.287H183.595z"/>
				<path fill="#C2BBA6" d="M296.364,270.861c0,0,0,31.449,3.237,41.932c0,0-7.663,2.057-18.005,2.057
					c0,0-19.341,1.446-21.619-1.237l0.622-30.818L296.364,270.861z"/>
				<path fill="#C2BBA6" d="M260.444,166.015v132.287h35.703c0,0,6.005-109.655-25.672-132.287H260.444z"/>
				<polygon fill="#B2AB9A" points="182.991,165.951 165.104,189.323 181.924,190.568 165.104,211.813 182.991,277.088 				"/>
				<polygon fill="#B2AB9A" points="260.324,165.951 278.212,189.323 261.394,190.568 278.212,211.813 260.324,277.088 				"/>
				<g>
					<polygon fill="#CEDCE9" points="177.044,156.52 221.854,170.09 208.288,182.008 173.345,165.977 173.345,155.285 					"/>
					<polygon fill="#CEDCE9" points="267.101,156.52 221.854,170.09 235.858,182.008 270.801,165.977 270.801,155.285 					"/>
				</g>
				<g>
					<path fill="#F4B07D" d="M252.922,152.675c0,0-4.931,16.596-31.359,16.596c-26.107,0-31.359-16.596-31.359-16.596
						s9.549,12.226,32.475,12.226C222.678,164.9,237.952,166.363,252.922,152.675z"/>
				</g>
			</g>
			<g>
				<circle fill="#CEDCE9" cx="221.442" cy="187.822" r="3.479"/>
				<circle fill="#CEDCE9" cx="221.442" cy="212.376" r="3.479"/>
				<circle fill="#CEDCE9" cx="221.442" cy="236.93" r="3.479"/>
				<circle fill="#CEDCE9" cx="221.442" cy="261.484" r="3.479"/>
			</g>
		</g>
	</g>
</g>
</svg>
