<?xml version="1.0" encoding="utf-8"?>
<!-- Generator: Adobe Illustrator 16.0.0, SVG Export Plug-In . SVG Version: 6.00 Build 0)  -->
<!DOCTYPE svg PUBLIC "-//W3C//DTD SVG 1.1//EN" "http://www.w3.org/Graphics/SVG/1.1/DTD/svg11.dtd">
<svg version="1.1" id="Layer_1" xmlns="http://www.w3.org/2000/svg" xmlns:xlink="http://www.w3.org/1999/xlink" x="0px" y="0px"
	 width="493.135px" height="308.511px" viewBox="0 0 493.135 308.511" enable-background="new 0 0 493.135 308.511"
	 xml:space="preserve">
<g>
	<g>
		<rect x="-0.062" y="-0.042" fill="#A5A2A2" width="493.135" height="308.51"/>
		<g>
			<rect x="-0.062" y="-0.041" fill="#933414" width="493.135" height="174.998"/>
			<g opacity="0.2">
				<g>
					<defs>
						<polygon id="SVGID_1_" points="116.881,47.939 79.648,26.225 116.885,4.508 						"/>
					</defs>
					<use xlink:href="#SVGID_1_"  overflow="visible" fill="#FFFFFF"/>
					<clipPath id="SVGID_2_">
						<use xlink:href="#SVGID_1_"  overflow="visible"/>
					</clipPath>
					<rect x="79.649" y="4.508" clip-path="url(#SVGID_2_)" fill="#FFFFFF" width="37.232" height="43.432"/>
				</g>
				<g>
					<defs>
						<polygon id="SVGID_3_" points="156.633,72.141 119.402,50.424 156.637,28.709 						"/>
					</defs>
					<use xlink:href="#SVGID_3_"  overflow="visible" fill="#FFFFFF"/>
					<clipPath id="SVGID_4_">
						<use xlink:href="#SVGID_3_"  overflow="visible"/>
					</clipPath>
					<rect x="119.402" y="28.709" clip-path="url(#SVGID_4_)" fill="#FFFFFF" width="37.23" height="43.432"/>
				</g>
				<g>
					<defs>
						<polygon id="SVGID_5_" points="119.402,96.244 156.635,74.529 119.402,52.812 						"/>
					</defs>
					<use xlink:href="#SVGID_5_"  overflow="visible" fill="#FFFFFF"/>
					<clipPath id="SVGID_6_">
						<use xlink:href="#SVGID_5_"  overflow="visible"/>
					</clipPath>
					<rect x="119.402" y="52.812" clip-path="url(#SVGID_6_)" fill="#FFFFFF" width="37.232" height="43.432"/>
				</g>
				<g>
					<defs>
						<polygon id="SVGID_7_" points="0.449,72.141 37.682,50.424 0.445,28.709 						"/>
					</defs>
					<use xlink:href="#SVGID_7_"  overflow="visible" fill="#FFFFFF"/>
					<clipPath id="SVGID_8_">
						<use xlink:href="#SVGID_7_"  overflow="visible"/>
					</clipPath>
					<rect x="0.448" y="28.709" clip-path="url(#SVGID_8_)" fill="#FFFFFF" width="37.232" height="43.432"/>
				</g>
				<g>
					<defs>
						<polygon id="SVGID_9_" points="40.201,47.939 77.434,26.225 40.197,4.508 						"/>
					</defs>
					<use xlink:href="#SVGID_9_"  overflow="visible" fill="#FFFFFF"/>
					<clipPath id="SVGID_10_">
						<use xlink:href="#SVGID_9_"  overflow="visible"/>
					</clipPath>
					<rect x="40.201" y="4.508" clip-path="url(#SVGID_10_)" fill="#FFFFFF" width="37.232" height="43.432"/>
				</g>
				<g>
					<defs>
						<polygon id="SVGID_11_" points="77.432,72.141 40.197,50.424 77.434,28.709 						"/>
					</defs>
					<use xlink:href="#SVGID_11_"  overflow="visible" fill="#FFFFFF"/>
					<clipPath id="SVGID_12_">
						<use xlink:href="#SVGID_11_"  overflow="visible"/>
					</clipPath>
					<rect x="40.198" y="28.709" clip-path="url(#SVGID_12_)" fill="#FFFFFF" width="37.234" height="43.432"/>
				</g>
				<g>
					<defs>
						<polygon id="SVGID_13_" points="40.197,96.244 77.434,74.529 40.197,52.812 						"/>
					</defs>
					<use xlink:href="#SVGID_13_"  overflow="visible" fill="#FFFFFF"/>
					<clipPath id="SVGID_14_">
						<use xlink:href="#SVGID_13_"  overflow="visible"/>
					</clipPath>
					<rect x="40.197" y="52.812" clip-path="url(#SVGID_14_)" fill="#FFFFFF" width="37.236" height="43.432"/>
				</g>
				<g>
					<defs>
						<polygon id="SVGID_15_" points="39.951,144.643 77.184,122.926 39.947,101.211 						"/>
					</defs>
					<use xlink:href="#SVGID_15_"  overflow="visible" fill="#FFFFFF"/>
					<clipPath id="SVGID_16_">
						<use xlink:href="#SVGID_15_"  overflow="visible"/>
					</clipPath>
					<rect x="39.95" y="101.211" clip-path="url(#SVGID_16_)" fill="#FFFFFF" width="37.232" height="43.432"/>
				</g>
				<g>
					<defs>
						<polygon id="SVGID_17_" points="77.184,168.748 39.949,147.032 77.184,125.315 						"/>
					</defs>
					<use xlink:href="#SVGID_17_"  overflow="visible" fill="#FFFFFF"/>
					<clipPath id="SVGID_18_">
						<use xlink:href="#SVGID_17_"  overflow="visible"/>
					</clipPath>
					<rect x="39.949" y="125.315" clip-path="url(#SVGID_18_)" fill="#FFFFFF" width="37.234" height="43.433"/>
				</g>
				<g>
					<defs>
						<polygon id="SVGID_19_" points="79.703,120.441 116.936,98.727 79.699,77.01 						"/>
					</defs>
					<use xlink:href="#SVGID_19_"  overflow="visible" fill="#FFFFFF"/>
					<clipPath id="SVGID_20_">
						<use xlink:href="#SVGID_19_"  overflow="visible"/>
					</clipPath>
					<rect x="79.703" y="77.01" clip-path="url(#SVGID_20_)" fill="#FFFFFF" width="37.232" height="43.432"/>
				</g>
				<g>
					<defs>
						<polygon id="SVGID_21_" points="116.934,144.643 79.699,122.926 116.936,101.211 						"/>
					</defs>
					<use xlink:href="#SVGID_21_"  overflow="visible" fill="#FFFFFF"/>
					<clipPath id="SVGID_22_">
						<use xlink:href="#SVGID_21_"  overflow="visible"/>
					</clipPath>
					<rect x="79.7" y="101.211" clip-path="url(#SVGID_22_)" fill="#FFFFFF" width="37.234" height="43.432"/>
				</g>
				<g>
					<defs>
						<polygon id="SVGID_23_" points="156.607,120.441 119.375,98.727 156.611,77.01 						"/>
					</defs>
					<use xlink:href="#SVGID_23_"  overflow="visible" fill="#FFFFFF"/>
					<clipPath id="SVGID_24_">
						<use xlink:href="#SVGID_23_"  overflow="visible"/>
					</clipPath>
					<rect x="119.376" y="77.01" clip-path="url(#SVGID_24_)" fill="#FFFFFF" width="37.232" height="43.432"/>
				</g>
				<g>
					<defs>
						<polygon id="SVGID_25_" points="119.377,144.643 156.611,122.926 119.375,101.211 						"/>
					</defs>
					<use xlink:href="#SVGID_25_"  overflow="visible" fill="#FFFFFF"/>
					<clipPath id="SVGID_26_">
						<use xlink:href="#SVGID_25_"  overflow="visible"/>
					</clipPath>
					<rect x="119.376" y="101.211" clip-path="url(#SVGID_26_)" fill="#FFFFFF" width="37.234" height="43.432"/>
				</g>
				<g>
					<defs>
						<polygon id="SVGID_27_" points="156.611,168.748 119.377,147.032 156.611,125.315 						"/>
					</defs>
					<use xlink:href="#SVGID_27_"  overflow="visible" fill="#FFFFFF"/>
					<clipPath id="SVGID_28_">
						<use xlink:href="#SVGID_27_"  overflow="visible"/>
					</clipPath>
					<rect x="119.377" y="125.315" clip-path="url(#SVGID_28_)" fill="#FFFFFF" width="37.234" height="43.433"/>
				</g>
			</g>
			<rect x="157.271" y="-0.042" fill="#603426" width="10" height="174.999"/>
			<rect x="328.031" y="-0.042" fill="#603426" width="10" height="174.999"/>
			<g opacity="0.2">
				<g>
					<defs>
						<polygon id="SVGID_29_" points="286.727,47.525 248.355,25.145 286.73,2.765 						"/>
					</defs>
					<use xlink:href="#SVGID_29_"  overflow="visible" fill="#FFFFFF"/>
					<clipPath id="SVGID_30_">
						<use xlink:href="#SVGID_29_"  overflow="visible"/>
					</clipPath>
					<rect x="248.355" y="2.765" clip-path="url(#SVGID_30_)" fill="#FFFFFF" width="38.371" height="44.761"/>
				</g>
				<g>
					<defs>
						<polygon id="SVGID_31_" points="248.355,72.367 286.729,49.986 248.355,27.606 						"/>
					</defs>
					<use xlink:href="#SVGID_31_"  overflow="visible" fill="#FFFFFF"/>
					<clipPath id="SVGID_32_">
						<use xlink:href="#SVGID_31_"  overflow="visible"/>
					</clipPath>
					<rect x="248.355" y="27.606" clip-path="url(#SVGID_32_)" fill="#FFFFFF" width="38.373" height="44.761"/>
				</g>
				<g>
					<defs>
						<polygon id="SVGID_33_" points="205.102,47.525 166.729,25.145 205.105,2.765 						"/>
					</defs>
					<use xlink:href="#SVGID_33_"  overflow="visible" fill="#FFFFFF"/>
					<clipPath id="SVGID_34_">
						<use xlink:href="#SVGID_33_"  overflow="visible"/>
					</clipPath>
					<rect x="166.729" y="2.765" clip-path="url(#SVGID_34_)" fill="#FFFFFF" width="38.373" height="44.761"/>
				</g>
				<g>
					<defs>
						<polygon id="SVGID_35_" points="166.729,72.367 205.104,49.986 166.729,27.606 						"/>
					</defs>
					<use xlink:href="#SVGID_35_"  overflow="visible" fill="#FFFFFF"/>
					<clipPath id="SVGID_36_">
						<use xlink:href="#SVGID_35_"  overflow="visible"/>
					</clipPath>
					<rect x="166.729" y="27.606" clip-path="url(#SVGID_36_)" fill="#FFFFFF" width="38.375" height="44.761"/>
				</g>
				<g>
					<defs>
						<polygon id="SVGID_37_" points="289.248,47.525 327.619,25.145 289.244,2.765 						"/>
					</defs>
					<use xlink:href="#SVGID_37_"  overflow="visible" fill="#FFFFFF"/>
					<clipPath id="SVGID_38_">
						<use xlink:href="#SVGID_37_"  overflow="visible"/>
					</clipPath>
					<rect x="289.247" y="2.765" clip-path="url(#SVGID_38_)" fill="#FFFFFF" width="38.371" height="44.761"/>
				</g>
				<g>
					<defs>
						<polygon id="SVGID_39_" points="166.475,122.246 204.846,99.865 166.471,77.485 						"/>
					</defs>
					<use xlink:href="#SVGID_39_"  overflow="visible" fill="#FFFFFF"/>
					<clipPath id="SVGID_40_">
						<use xlink:href="#SVGID_39_"  overflow="visible"/>
					</clipPath>
					<rect x="166.474" y="77.485" clip-path="url(#SVGID_40_)" fill="#FFFFFF" width="38.371" height="44.761"/>
				</g>
				<g>
					<defs>
						<polygon id="SVGID_41_" points="204.846,147.088 166.473,124.709 204.846,102.326 						"/>
					</defs>
					<use xlink:href="#SVGID_41_"  overflow="visible" fill="#FFFFFF"/>
					<clipPath id="SVGID_42_">
						<use xlink:href="#SVGID_41_"  overflow="visible"/>
					</clipPath>
					<rect x="166.473" y="102.326" clip-path="url(#SVGID_42_)" fill="#FFFFFF" width="38.373" height="44.762"/>
				</g>
				<g>
					<defs>
						<polygon id="SVGID_43_" points="207.443,97.305 245.814,74.925 207.439,52.545 						"/>
					</defs>
					<use xlink:href="#SVGID_43_"  overflow="visible" fill="#FFFFFF"/>
					<clipPath id="SVGID_44_">
						<use xlink:href="#SVGID_43_"  overflow="visible"/>
					</clipPath>
					<rect x="207.443" y="52.545" clip-path="url(#SVGID_44_)" fill="#FFFFFF" width="38.371" height="44.76"/>
				</g>
				<g>
					<defs>
						<polygon id="SVGID_45_" points="245.812,122.246 207.439,99.865 245.814,77.485 						"/>
					</defs>
					<use xlink:href="#SVGID_45_"  overflow="visible" fill="#FFFFFF"/>
					<clipPath id="SVGID_46_">
						<use xlink:href="#SVGID_45_"  overflow="visible"/>
					</clipPath>
					<rect x="207.44" y="77.485" clip-path="url(#SVGID_46_)" fill="#FFFFFF" width="38.373" height="44.761"/>
				</g>
				<g>
					<defs>
						<polygon id="SVGID_47_" points="286.701,97.305 248.328,74.925 286.703,52.545 						"/>
					</defs>
					<use xlink:href="#SVGID_47_"  overflow="visible" fill="#FFFFFF"/>
					<clipPath id="SVGID_48_">
						<use xlink:href="#SVGID_47_"  overflow="visible"/>
					</clipPath>
					<rect x="248.329" y="52.545" clip-path="url(#SVGID_48_)" fill="#FFFFFF" width="38.373" height="44.76"/>
				</g>
				<g>
					<defs>
						<polygon id="SVGID_49_" points="248.332,122.246 286.703,99.865 248.328,77.485 						"/>
					</defs>
					<use xlink:href="#SVGID_49_"  overflow="visible" fill="#FFFFFF"/>
					<clipPath id="SVGID_50_">
						<use xlink:href="#SVGID_49_"  overflow="visible"/>
					</clipPath>
					<rect x="248.332" y="77.485" clip-path="url(#SVGID_50_)" fill="#FFFFFF" width="38.371" height="44.761"/>
				</g>
				<g>
					<defs>
						<polygon id="SVGID_51_" points="327.67,122.246 289.299,99.865 327.672,77.485 						"/>
					</defs>
					<use xlink:href="#SVGID_51_"  overflow="visible" fill="#FFFFFF"/>
					<clipPath id="SVGID_52_">
						<use xlink:href="#SVGID_51_"  overflow="visible"/>
					</clipPath>
					<rect x="289.299" y="77.485" clip-path="url(#SVGID_52_)" fill="#FFFFFF" width="38.371" height="44.761"/>
				</g>
				<g>
					<defs>
						<polygon id="SVGID_53_" points="289.299,147.088 327.672,124.709 289.299,102.326 						"/>
					</defs>
					<use xlink:href="#SVGID_53_"  overflow="visible" fill="#FFFFFF"/>
					<clipPath id="SVGID_54_">
						<use xlink:href="#SVGID_53_"  overflow="visible"/>
					</clipPath>
					<rect x="289.299" y="102.326" clip-path="url(#SVGID_54_)" fill="#FFFFFF" width="38.373" height="44.762"/>
				</g>
			</g>
			<g opacity="0.2">
				<g>
					<defs>
						<polygon id="SVGID_55_" points="377.738,96.893 414.217,75.617 377.736,54.343 						"/>
					</defs>
					<use xlink:href="#SVGID_55_"  overflow="visible" fill="#FFFFFF"/>
					<clipPath id="SVGID_56_">
						<use xlink:href="#SVGID_55_"  overflow="visible"/>
					</clipPath>
					<rect x="377.737" y="54.343" clip-path="url(#SVGID_56_)" fill="#FFFFFF" width="36.479" height="42.55"/>
				</g>
				<g>
					<defs>
						<polygon id="SVGID_57_" points="416.686,73.184 453.162,51.909 416.684,30.634 						"/>
					</defs>
					<use xlink:href="#SVGID_57_"  overflow="visible" fill="#FFFFFF"/>
					<clipPath id="SVGID_58_">
						<use xlink:href="#SVGID_57_"  overflow="visible"/>
					</clipPath>
					<rect x="416.685" y="30.634" clip-path="url(#SVGID_58_)" fill="#FFFFFF" width="36.477" height="42.55"/>
				</g>
				<g>
					<defs>
						<polygon id="SVGID_59_" points="375.564,96.893 339.086,75.617 375.566,54.343 						"/>
					</defs>
					<use xlink:href="#SVGID_59_"  overflow="visible" fill="#FFFFFF"/>
					<clipPath id="SVGID_60_">
						<use xlink:href="#SVGID_59_"  overflow="visible"/>
					</clipPath>
					<rect x="339.087" y="54.343" clip-path="url(#SVGID_60_)" fill="#FFFFFF" width="36.479" height="42.55"/>
				</g>
				<g>
					<defs>
						<polygon id="SVGID_61_" points="492.029,73.184 455.551,51.909 492.031,30.634 						"/>
					</defs>
					<use xlink:href="#SVGID_61_"  overflow="visible" fill="#FFFFFF"/>
					<clipPath id="SVGID_62_">
						<use xlink:href="#SVGID_61_"  overflow="visible"/>
					</clipPath>
					<rect x="455.552" y="30.634" clip-path="url(#SVGID_62_)" fill="#FFFFFF" width="36.479" height="42.55"/>
				</g>
				<g>
					<defs>
						<polygon id="SVGID_63_" points="455.555,96.893 492.031,75.617 455.551,54.343 						"/>
					</defs>
					<use xlink:href="#SVGID_63_"  overflow="visible" fill="#FFFFFF"/>
					<clipPath id="SVGID_64_">
						<use xlink:href="#SVGID_63_"  overflow="visible"/>
					</clipPath>
					<rect x="455.554" y="54.343" clip-path="url(#SVGID_64_)" fill="#FFFFFF" width="36.477" height="42.55"/>
				</g>
				<g>
					<defs>
						<polygon id="SVGID_65_" points="375.318,144.214 338.842,122.939 375.322,101.664 						"/>
					</defs>
					<use xlink:href="#SVGID_65_"  overflow="visible" fill="#FFFFFF"/>
					<clipPath id="SVGID_66_">
						<use xlink:href="#SVGID_65_"  overflow="visible"/>
					</clipPath>
					<rect x="338.842" y="101.664" clip-path="url(#SVGID_66_)" fill="#FFFFFF" width="36.477" height="42.55"/>
				</g>
				<g>
					<defs>
						<polygon id="SVGID_67_" points="338.844,167.924 375.322,146.648 338.842,125.373 						"/>
					</defs>
					<use xlink:href="#SVGID_67_"  overflow="visible" fill="#FFFFFF"/>
					<clipPath id="SVGID_68_">
						<use xlink:href="#SVGID_67_"  overflow="visible"/>
					</clipPath>
					<rect x="338.843" y="125.373" clip-path="url(#SVGID_68_)" fill="#FFFFFF" width="36.479" height="42.551"/>
				</g>
				<g>
					<defs>
						<polygon id="SVGID_69_" points="414.264,167.924 377.787,146.648 414.268,125.373 						"/>
					</defs>
					<use xlink:href="#SVGID_69_"  overflow="visible" fill="#FFFFFF"/>
					<clipPath id="SVGID_70_">
						<use xlink:href="#SVGID_69_"  overflow="visible"/>
					</clipPath>
					<rect x="377.788" y="125.373" clip-path="url(#SVGID_70_)" fill="#FFFFFF" width="36.477" height="42.551"/>
				</g>
				<g>
					<defs>
						<polygon id="SVGID_71_" points="377.787,191.539 414.266,170.264 377.787,148.988 						"/>
					</defs>
					<use xlink:href="#SVGID_71_"  overflow="visible" fill="#FFFFFF"/>
					<clipPath id="SVGID_72_">
						<use xlink:href="#SVGID_71_"  overflow="visible"/>
					</clipPath>
					<rect x="377.787" y="148.988" clip-path="url(#SVGID_72_)" fill="#FFFFFF" width="36.479" height="42.551"/>
				</g>
				<g>
					<defs>
						<polygon id="SVGID_73_" points="453.133,144.214 416.656,122.939 453.137,101.664 						"/>
					</defs>
					<use xlink:href="#SVGID_73_"  overflow="visible" fill="#FFFFFF"/>
					<clipPath id="SVGID_74_">
						<use xlink:href="#SVGID_73_"  overflow="visible"/>
					</clipPath>
					<rect x="416.657" y="101.664" clip-path="url(#SVGID_74_)" fill="#FFFFFF" width="36.477" height="42.55"/>
				</g>
				<g>
					<defs>
						<polygon id="SVGID_75_" points="455.604,144.214 492.082,122.939 455.604,101.664 						"/>
					</defs>
					<use xlink:href="#SVGID_75_"  overflow="visible" fill="#FFFFFF"/>
					<clipPath id="SVGID_76_">
						<use xlink:href="#SVGID_75_"  overflow="visible"/>
					</clipPath>
					<rect x="455.603" y="101.664" clip-path="url(#SVGID_76_)" fill="#FFFFFF" width="36.479" height="42.55"/>
				</g>
			</g>
		</g>
	</g>
	<polygon fill="#FFFFFF" points="82.531,308.552 225.531,308.552 225.531,308.468 82.428,308.468 	"/>
	<polygon fill="#FFFFFF" points="1.531,243.552 82.428,308.468 225.531,308.468 225.531,240.552 	"/>
	<g>
		<path fill="#776537" d="M219.668,70.015c0,0-2.467,0.901-2.443,5.075c0.008,1.399,0.75,5.075-1.881,5.264
			c0,0,3.197,0.376,4.137-1.691c0,0-0.189,3.76-1.693,4.701c0,0,8.838,3.758,10.342-4.701l-0.754-12.407
			C227.375,66.255,221.924,63.998,219.668,70.015z"/>
		<path fill="#776537" d="M272.861,70.015c0,0,2.467,0.901,2.443,5.075c-0.008,1.399-0.752,5.075,1.881,5.264
			c0,0-3.195,0.376-4.137-1.691c0,0,0.188,3.76,1.691,4.701c0,0-8.836,3.758-10.34-4.701l0.752-12.407
			C265.152,66.255,270.604,63.998,272.861,70.015z"/>
		<g>
			<polygon fill="#B7B7B7" points="216.596,90.788 222.613,90.035 223.553,96.803 			"/>
			<polygon fill="#B7B7B7" points="275.912,90.788 269.896,90.035 268.955,96.803 			"/>
			<path fill="#F4B07D" d="M281.896,131.51h-70.938c0,0,11.611-42.883,11.611-63.436c0-11.878,47.506-11.875,47.506,0
				C270.076,97.775,281.896,131.51,281.896,131.51z"/>
			<g>
				<path fill="#776537" d="M246.814,27.623c0,0-9.225-12.925-26.324,0.196c-6.91,5.304-9.963,27.34,1.668,38.974l25.252-28.236
					L246.814,27.623z"/>
				<path fill="#776537" d="M246.906,27.623c0,0,9.221-12.925,26.322,0.196c6.908,5.306,9.961,27.34-1.668,38.974l-25.252-28.236
					L246.906,27.623z"/>
				<path fill="#F4B07D" d="M268.664,42.311c0,0-7.982-10.213-23.174-9.994c-15.129-0.219-21.484,9.994-21.484,9.994
					c-5.312,8.691-3.723,35.538-3.723,35.538c0,13.282,18.422,23.866,26.16,23.866s26.229-9.893,26.229-23.866
					C272.672,77.849,273.977,51.002,268.664,42.311z"/>
				<g>
					<path opacity="0.1" fill="#232222" d="M258.334,87.02c0,0-1.941,7.141-12.336,7.141c-10.27,0-12.336-7.141-12.336-7.141
						s3.758,5.26,12.773,5.26C246.436,92.279,252.443,92.909,258.334,87.02z"/>
				</g>
				<g opacity="0.2">
					<path fill="#231F20" d="M252.879,64.457c0.314,0.316,0.571,0.66,0.781,1.061c0.104,0.199,0.194,0.413,0.244,0.648
						c0.059,0.229,0.082,0.486,0.04,0.739c-0.019,0.128-0.036,0.256-0.095,0.374c-0.052,0.118-0.089,0.249-0.171,0.345
						c-0.139,0.22-0.313,0.389-0.501,0.539c-0.184,0.156-0.388,0.25-0.583,0.374l-0.61,0.255l-0.016,0.006l-0.06,0.012
						c-0.505,0.098-1.045,0.276-1.498,0.516c-0.233,0.118-0.433,0.263-0.617,0.419c-0.157,0.176-0.292,0.313-0.45,0.591
						c-0.171,0.253-0.362,0.556-0.66,0.773c-0.277,0.228-0.609,0.381-0.922,0.47c-0.321,0.123-0.629,0.131-0.943,0.192
						c-0.316,0.018-0.592,0.037-0.938,0.042c-0.294-0.019-0.567-0.017-0.879-0.054c-0.321-0.051-0.646-0.085-0.958-0.2
						c-0.158-0.042-0.314-0.1-0.469-0.187c-0.156-0.073-0.307-0.158-0.444-0.275c-0.293-0.207-0.501-0.497-0.682-0.756l-0.119-0.187
						c-0.006-0.01-0.071-0.11-0.028-0.046l-0.069-0.084c-0.092-0.103-0.187-0.24-0.276-0.315c-0.088-0.061-0.172-0.124-0.255-0.192
						c-0.098-0.065-0.22-0.125-0.327-0.191c-0.452-0.24-0.992-0.419-1.497-0.517l-0.06-0.012l-0.015-0.006l-0.61-0.256
						c-0.196-0.123-0.4-0.217-0.584-0.373c-0.188-0.15-0.361-0.318-0.501-0.538c-0.081-0.097-0.119-0.228-0.171-0.345
						c-0.059-0.118-0.077-0.246-0.096-0.374c-0.043-0.253-0.02-0.51,0.038-0.739c0.05-0.235,0.14-0.45,0.242-0.648
						c0.211-0.403,0.463-0.742,0.783-1.066c0.125-0.126,0.328-0.127,0.454-0.002c0.122,0.12,0.127,0.314,0.015,0.441l-0.014,0.016
						c-0.235,0.264-0.456,0.594-0.601,0.918c-0.146,0.327-0.217,0.669-0.156,0.957c0.015,0.072,0.024,0.146,0.066,0.208
						c0.036,0.063,0.049,0.136,0.108,0.19c0.082,0.125,0.201,0.232,0.335,0.333c0.126,0.104,0.3,0.175,0.445,0.267l0.517,0.197
						l-0.074-0.018c0.635,0.104,1.212,0.276,1.792,0.558c0.143,0.079,0.282,0.147,0.426,0.241l0.43,0.342
						c0.126,0.115,0.196,0.222,0.297,0.333l0.07,0.083c0.092,0.118,0.059,0.084,0.094,0.134l0.116,0.178
						c0.153,0.211,0.29,0.401,0.478,0.524c0.083,0.074,0.186,0.129,0.294,0.176c0.099,0.059,0.213,0.1,0.337,0.13
						c0.233,0.087,0.49,0.106,0.739,0.148c0.263,0.031,0.571,0.028,0.854,0.044l0.797-0.03c0.252-0.052,0.535-0.056,0.757-0.146
						c0.241-0.063,0.448-0.163,0.618-0.3c0.18-0.119,0.309-0.318,0.461-0.539c0.128-0.227,0.374-0.534,0.614-0.772
						c0.261-0.218,0.532-0.409,0.821-0.547c0.58-0.28,1.157-0.453,1.792-0.556l-0.074,0.018l0.516-0.198
						c0.146-0.091,0.319-0.161,0.446-0.266c0.134-0.1,0.252-0.208,0.334-0.333c0.06-0.055,0.071-0.127,0.108-0.19
						c0.041-0.062,0.051-0.136,0.065-0.208c0.035-0.142,0.031-0.302-0.002-0.464c-0.023-0.162-0.082-0.331-0.156-0.493
						c-0.146-0.325-0.363-0.65-0.605-0.922l-0.007-0.007c-0.118-0.132-0.107-0.336,0.025-0.454
						C252.564,64.329,252.76,64.336,252.879,64.457z"/>
				</g>
				<circle fill="#2E230E" cx="233.282" cy="57.277" r="1.448"/>
				<path fill="#593B2E" d="M225.736,56.764c0,0,4.938-4.725,11.928-2.885c0,0,2-1.178,0.268-1.92
					C237.932,51.959,229.629,50.53,225.736,56.764z"/>
				<circle fill="#2E230E" cx="258.604" cy="57.277" r="1.449"/>
				<path fill="#593B2E" d="M266.344,56.152c0,0-5.352-4.245-12.141-1.766c0,0-2.102-0.988-0.445-1.886
					C253.758,52.501,261.891,50.311,266.344,56.152z"/>
				<path fill="#F4B07D" d="M222.449,61.82c0,0-4.971-8.152-6.76-0.598c-0.551,2.327-0.596,14.912,6.561,6.961"/>
				
					<path fill="none" stroke="#C18963" stroke-width="0.7953" stroke-linecap="round" stroke-linejoin="round" stroke-miterlimit="10" d="
					M219.268,62.018c0,0-2.586,1.989,0,4.971"/>
				<path fill="#F4B07D" d="M269.65,61.82c0,0,4.973-8.152,6.762-0.598c0.551,2.327,0.596,14.912-6.561,6.961"/>
				
					<path fill="none" stroke="#C18963" stroke-width="0.7953" stroke-linecap="round" stroke-linejoin="round" stroke-miterlimit="10" d="
					M272.834,62.018c0,0,2.584,1.989,0,4.971"/>
				
					<path fill="none" stroke="#C18963" stroke-width="0.9934" stroke-linecap="round" stroke-linejoin="round" stroke-miterlimit="10" d="
					M238.363,75.574c0,0,8.41,4.611,15.668-0.811"/>
				<path fill="#776537" d="M219.496,33.584c0,0-2.92,17.436-2.521,17.569c0.395,0.131,14.053-7.095,14.053-7.095l15.842-5.502
					l23.527,7.225l4.771-1.986l-2.518-12.461l-22.936-2.387l-18.023,1.986L219.496,33.584z"/>
				<path opacity="0.3" fill="#231F20" d="M246.734,38.557c0,0,9.545,22.137,30.752,10.805c0,0-6.096-3.299-7.09-7.473"/>
				<path opacity="0.3" fill="#231F20" d="M246.6,38.389c0,0-5.74,16.721-26.643,11.126c0,0,4.793-2.308,6.562-6.262"/>
				<path fill="#776537" d="M246.869,38.557c0,0,8.947,19.156,29.094,10.539c0,0-4.572-3.38-5.566-7.557"/>
				<path fill="#776537" d="M246.6,38.389c0,0-7.311,13.545-24.545,10.652c0,0,3.768-3.162,4.402-6.818"/>
				<path fill="#776537" d="M238.582,22.585c0,0,3.207-1.136,2.121-5.835c0,0,3.582,3.447,3.582,6.895c0,0,1.455-7.158,4.504-8.219
					c0,0-1.109,9.406,8.166,6.648l-1.67,3.824l-6.629,8.084l-12.193-2.252L238.582,22.585z"/>
			</g>
		</g>
		
			<path fill="none" stroke="#F4B07D" stroke-width="14.5282" stroke-linecap="round" stroke-linejoin="round" stroke-miterlimit="10" d="
			M220.938,104.045c0,0-27.77,20.146-30.168,41.738c-2.48,22.32-1.242,27.691-1.242,39.514"/>
		<path fill="none" stroke="#282828" stroke-width="14.8777" stroke-linejoin="round" stroke-miterlimit="10" d="M220.938,104.045
			c0,0-27.77,20.146-30.168,41.738c-2.48,22.32-1.242,27.691-1.242,39.514"/>
		
			<path fill="none" stroke="#F4B07D" stroke-width="14.5282" stroke-linecap="round" stroke-linejoin="round" stroke-miterlimit="10" d="
			M272.283,104.045c0,0,27.771,20.146,30.172,41.738c2.479,22.32,1.238,27.691,1.238,39.514"/>
		<path fill="none" stroke="#282828" stroke-width="14.8777" stroke-linejoin="round" stroke-miterlimit="10" d="M272.283,104.045
			c0,0,27.771,20.146,30.172,41.738c2.479,22.32,1.238,27.691,1.238,39.514"/>
		
			<line fill="none" stroke="#2D2D2D" stroke-width="16.5441" stroke-linecap="round" stroke-linejoin="round" stroke-miterlimit="10" x1="230.152" y1="182.73" x2="230.152" y2="253.761"/>
		
			<line fill="none" stroke="#2D2D2D" stroke-width="16.5441" stroke-linecap="round" stroke-linejoin="round" stroke-miterlimit="10" x1="260.961" y1="182.73" x2="260.961" y2="253.761"/>
		<path fill="#F4B07D" d="M219.039,100.605c-4.229,18.053-12.396,16.596-12.396,47.113c0,37.562,0,30.814,0,31.768
			c0,0.068,4.131,0.102,4.131,0.102h35.67v-78.982H219.039z"/>
		<path fill="#F4B07D" d="M272.48,100.605c4.229,18.053,12.398,16.596,12.398,47.113c0,37.562,0,30.814,0,31.768
			c0,0.068-4.133,0.102-4.133,0.102h-35.668v-78.982H272.48z"/>
		<g>
			<circle opacity="0.2" fill="#232222" cx="227.708" cy="127.4" r="3.581"/>
			<circle opacity="0.2" fill="#232222" cx="227.709" cy="127.4" r="1.791"/>
		</g>
		<g>
			<circle opacity="0.2" fill="#232222" cx="263.803" cy="127.4" r="3.582"/>
			<circle opacity="0.2" fill="#232222" cx="263.802" cy="127.4" r="1.792"/>
		</g>
		<ellipse opacity="0.2" fill="#232222" cx="246.308" cy="162.781" rx="1.103" ry="1.789"/>
		<path fill="#2D2D2D" d="M245.756,212.398c21.787,0,39.445-13.53,39.445-35.314h-78.893
			C206.309,198.868,223.971,212.398,245.756,212.398z"/>
		<rect x="220.811" y="250.911" fill="#2D2D2D" width="18.195" height="6.248"/>
		<rect x="251.854" y="250.911" fill="#2D2D2D" width="18.193" height="6.248"/>
		<rect x="206.625" y="177.137" fill="#161516" width="78.422" height="5.896"/>
		<rect x="240.592" y="177.137" fill="#D6D6D6" width="11.203" height="5.896"/>
		<rect x="218.703" y="99.717" fill="#FFFFFF" width="53.584" height="77.553"/>
		<path fill="#282828" d="M201.746,159.008c0,0-0.316,18.738-1.613,27.314c0,0,2.504,1.135,8.809,1.135
			c0,0,12.801,1.508,14.188-0.129l-0.377-18.789L201.746,159.008z"/>
		<path fill="#282828" d="M222.848,97.33v80.664H202.58c0,0-6.205-58.844,14.15-80.664H222.848z"/>
		<path fill="#282828" d="M291.609,161.262c0,0,0,19.176,1.975,25.568c0,0-4.674,1.254-10.979,1.254c0,0-11.795,0.881-13.184-0.756
			l0.379-18.789L291.609,161.262z"/>
		<path fill="#282828" d="M269.707,97.33v80.664h21.77c0,0,3.662-66.864-15.654-80.664H269.707z"/>
		<polygon fill="#2D2D2D" points="222.479,97.292 211.572,111.543 221.828,112.303 211.572,125.258 222.479,165.059 		"/>
		<polygon fill="#2D2D2D" points="269.633,97.292 280.541,111.543 270.285,112.303 280.541,125.258 269.633,165.059 		"/>
		<g>
			<g>
				<polygon fill="#EA94C7" points="237.984,100.053 245.986,108.057 254.277,100.053 246.176,97.955 				"/>
				<path fill="#EA94C7" d="M248.777,104.636l-2.508-2.546v-0.281l-0.141,0.139l-0.137-0.139l-0.014,0.297l-2.494,2.53
					l-5.854,55.712c0,0,6.428,14.488,8.639,14.488c2.805,0,8.359-14.488,8.359-14.488L248.777,104.636z"/>
			</g>
			<polygon fill="#D6D6D6" points="218.854,91.541 246.443,97.955 237.902,107.082 216.596,97.306 216.596,90.788 			"/>
			<polygon fill="#D6D6D6" points="273.766,91.541 246.176,97.955 254.717,107.082 276.02,97.306 276.02,90.788 			"/>
		</g>
		<g>
			<path fill="#F4B07D" d="M265.119,89.195c0,0-3.006,10.121-19.121,10.121c-15.92,0-19.121-10.121-19.121-10.121
				s5.822,7.455,19.801,7.455C246.678,96.65,255.992,97.543,265.119,89.195z"/>
		</g>
	</g>
	<polygon fill="#E5E5E5" points="-0.062,165.467 -0.062,250.118 261.758,269.44 295.516,242.435 493.072,242.435 493.072,165.467 	
		"/>
	<polygon fill="#FFFFFF" points="-0.062,154.666 -0.062,239.315 261.758,258.638 295.516,231.632 493.072,231.632 493.072,154.666 	
		"/>
	<rect x="-0.062" y="201.926" fill="#FFFE6D" width="493.135" height="8.102"/>
	<rect x="493.072" y="274.886" fill="#FFFFFF" width="0.125" height="28"/>
	<rect x="20.199" y="274.886" fill="#E5E5E5" width="472.873" height="28"/>
	<rect x="493.072" y="274.886" fill="#0B1A22" width="0.125" height="24"/>
	<rect x="20.199" y="274.886" fill="#0B1A22" width="472.873" height="24"/>
	<circle fill="#A82632" cx="461.529" cy="285.552" r="18.5"/>
</g>
</svg>
