<?xml version="1.0" encoding="utf-8"?>
<!-- Generator: Adobe Illustrator 16.0.0, SVG Export Plug-In . SVG Version: 6.00 Build 0)  -->
<!DOCTYPE svg PUBLIC "-//W3C//DTD SVG 1.1//EN" "http://www.w3.org/Graphics/SVG/1.1/DTD/svg11.dtd">
<svg version="1.1" id="Layer_1" xmlns="http://www.w3.org/2000/svg" xmlns:xlink="http://www.w3.org/1999/xlink" x="0px" y="0px"
	 width="1440px" height="700px" viewBox="0 0 1440 700" enable-background="new 0 0 1440 700" xml:space="preserve">
<rect fill="#5F7482" width="1440" height="700"/>
<g>
	<rect x="94.6" y="86.1" fill="#D3D1D1" width="1252.3" height="315.9"/>
	<path fill="#939292" d="M1337.5,128V95.5h-63c-11.4-2.4-23.6-3.7-36.2-3.7s-24.8,1.3-36.2,3.7H1126c-11.4-2.4-23.6-3.7-36.2-3.7
		s-24.8,1.3-36.2,3.7H909.6c-23.8-6-51.1-9.4-80.3-9.4s-56.5,3.4-80.3,9.4H511.2c-11.4-2.4-23.6-3.7-36.2-3.7
		c-12.7,0-24.8,1.3-36.2,3.7H273.5c-18.6-8.3-41.2-13.1-65.5-13.1c-24.3,0-46.9,4.9-65.5,13.1H92.7v53.7c-0.5,2.8-0.7,5.6-0.7,8.4
		c0,41.5,51.9,75.2,116,75.2c39.5,0,74.4-12.8,95.3-32.3c12.1,5,26.5,7.9,41.9,7.9c10.4,0,20.3-1.3,29.3-3.7
		c20.1,22.4,57.5,37.5,100.4,37.5c46.5,0,86.6-17.7,105.1-43.4c13.9,8.2,32.5,13.3,52.8,13.3c20.3,0,38.8-5,52.8-13.2
		c28.6,22.5,82.3,37.7,143.7,37.7c67.2,0,125.1-18.2,151.2-44.2c16,29.1,58.9,49.9,109.2,49.9c28.3,0,54.1-6.6,74.3-17.4
		c20.1,10.9,46,17.4,74.3,17.4c64.1,0,116-33.7,116-75.2C1354.2,152.7,1348.1,139.3,1337.5,128z"/>
	<rect x="94.6" y="86.1" opacity="0.2" fill="#87E8F4" width="1250.3" height="310.2"/>
	<g>
		<path fill="#FFFFFF" d="M82.1,79v328.9H1358V79H82.1z M718.6,387.8H429V99h289.6V387.8z M729.9,276h9.7v-57.2h-9.7V99h291.4v288.8
			H729.9V276z M103.1,99h314.6v288.8H103.1V99z M1337,387.8h-302.5V99H1337V387.8z"/>
		<rect x="429.5" y="218.8" fill="#FFFFFF" width="10" height="57.2"/>
		<rect x="1034.5" y="218.8" fill="#FFFFFF" width="10" height="57.2"/>
	</g>
</g>
</svg>
