<?xml version="1.0" encoding="utf-8"?>
<!-- Generator: Adobe Illustrator 16.0.0, SVG Export Plug-In . SVG Version: 6.00 Build 0)  -->
<!DOCTYPE svg PUBLIC "-//W3C//DTD SVG 1.1//EN" "http://www.w3.org/Graphics/SVG/1.1/DTD/svg11.dtd">
<svg version="1.1" id="Layer_1" xmlns="http://www.w3.org/2000/svg" xmlns:xlink="http://www.w3.org/1999/xlink" x="0px" y="0px"
	 width="54.6px" height="87.3px" viewBox="0 0 54.6 87.3" enable-background="new 0 0 54.6 87.3" xml:space="preserve">
<g>
	<g>
		<path fill="#FFC5B3" d="M32.7,19c0,0-8.1-3.4-8.6-7.4L27.7,6L28.5,7l0.5,6.2L32.7,19z"/>
		
			<path fill="none" stroke="#FFC5B3" stroke-width="4.68" stroke-linecap="round" stroke-linejoin="round" stroke-miterlimit="10" d="
			M22.2,21.1c0,0-8.8,0.6-12.2,5c-3.6,4.5-6,9.1-7.6,11.7"/>
		<path fill="none" stroke="#FCD329" stroke-width="4.68" stroke-linejoin="round" stroke-miterlimit="10" d="M22.1,21.1
			c0,0-5.6,0.4-9.5,2.8"/>
		<path fill="#D3B124" d="M32,20.8c0,0-3.8-3.2-9.6-2.9l3.1,4.8L32,20.8z"/>
		<g>
			
				<path fill="none" stroke="#FFC5B3" stroke-width="4.68" stroke-linecap="round" stroke-linejoin="round" stroke-miterlimit="10" d="
				M27.9,22.9c0,0,8.4,2.4,13.2-0.5c4.9-3,8.8-6.5,11.2-8.4"/>
			<path fill="none" stroke="#EFCB1D" stroke-width="4.68" stroke-linejoin="round" stroke-miterlimit="10" d="M27.9,22.9
				c0,0,5.4,1.5,9.9,0.7"/>
		</g>
		<path fill="#FFC5B3" d="M18.1,25.3l13.1,4c0,0-1-6,2.1-16.1c0.9-2.9-7-5.3-7.9-2.4C21.3,24.2,18.1,25.3,18.1,25.3z"/>
		
			<polyline fill="none" stroke="#FFC5B3" stroke-width="5" stroke-linecap="round" stroke-linejoin="round" stroke-miterlimit="10" points="
			16.9,46.8 14.7,65.7 9.5,79.2 		"/>
		<path fill="none" stroke="#FFFFFF" stroke-width="5" stroke-linecap="square" stroke-linejoin="round" stroke-miterlimit="10" d="
			M9.5,79.2"/>
		
			<line fill="none" stroke="#EAC52A" stroke-width="5" stroke-linecap="square" stroke-linejoin="round" stroke-miterlimit="10" x1="16.9" y1="46.8" x2="15.1" y2="62.1"/>
		
			<polyline fill="none" stroke="#FFC5B3" stroke-width="5" stroke-linecap="round" stroke-linejoin="round" stroke-miterlimit="10" points="
			19.5,46.9 31.7,56.9 31.9,76 		"/>
		<path fill="none" stroke="#FFFFFF" stroke-width="5" stroke-linecap="square" stroke-linejoin="round" stroke-miterlimit="10" d="
			M31.9,76"/>
		
			<line fill="none" stroke="#EAC52A" stroke-width="5" stroke-linecap="square" stroke-linejoin="round" stroke-miterlimit="10" x1="19.5" y1="46.9" x2="28.9" y2="54.7"/>
		<path fill="#FCD329" d="M32,20.8c-0.3,4.7,1.8,5-0.5,12.5c-2.8,9.2-3.4,11.2-3.5,11.4c0,0-1-0.3-1-0.3l-8.7-2.7l7-23L32,20.8z"/>
		<path fill="#FCD329" d="M22.5,17.9c-2.4,4.1-4.3,3.1-6.6,10.6c-2.8,9.2-3.4,11.2-3.5,11.4c0,0,1,0.3,1,0.3l8.7,2.7l7-23L22.5,17.9
			z"/>
		<path fill="#EAC52A" d="M18.2,49.4c-4.3-1.3-7-5.1-5.7-9.4l15.6,4.8C26.8,49.1,22.5,50.7,18.2,49.4z"/>
		<path fill="#1C1C1C" d="M29.5,74.2c5.7,3,9.7,6.6,8.9,8.2l-10.3-5.4L29.5,74.2z"/>
		<path fill="#1C1C1C" d="M7.7,77c4.7,4.5,7.5,9.1,6.3,10.3l-8.4-8.1L7.7,77z"/>
		<path fill="#FFC5B3" d="M28.8,14.2c0,0,3.7,7.7,6.4,4.4c0.7-0.9,1-2.2,1.6-4.3c0,0,1.7,0,1.2-1.6c-0.2-0.6-0.3-1.4,0.2-2.6
			c0,0,1.3-4.3-1-6c-1.9-1.3-7.6-4-8.6,2.9C28.5,7,27.3,11.6,28.8,14.2z"/>
		<path fill="#5E5423" d="M37.7,5c0.7-0.6,1.2-1.5,0.4-3.5c0,0-1,0.7-1.2,0.5c0,0,0-1-0.4-1.3c0,0-0.4,0.8-0.8,0.6
			c0,0-3.1-1.6-5.4-1.3c0,0-2.7,0.3-3.7,1.7c0,0-0.6-0.1-0.4-0.7c0,0-0.6,0.6-0.5,1.1c0,0-0.5-0.2-1-0.1c0,0,0.7,0.8,0.5,1.2
			c0,0-4.1,8.5,0.4,10.8c0,0,1.4-6.7,2.9-5.6c0.6,0.4,0.4,1.1,0.1,2.8l0.9-0.1c0,0,0.8-5.3,1.5-6.2c0.7-0.8,2.6-1.5,5-0.3
			C36.3,4.8,36.9,5.6,37.7,5z"/>
		<circle fill="#473920" cx="35.9" cy="9.9" r="0.3"/>
		<g>
			<path fill="#49401D" d="M37.1,9.5c0,0-0.1-0.1-0.4-0.2C36.4,9.1,36,9,35.7,9c-0.2,0-0.4,0-0.6,0c-0.2,0-0.4,0-0.5,0.1
				c-0.3,0.1-0.5,0.2-0.5,0.2l0,0c-0.1,0-0.2,0-0.2-0.1c0-0.1,0-0.2,0.1-0.2c0,0,0.2-0.1,0.5-0.2c0.1-0.1,0.3-0.1,0.5-0.1
				c0.2-0.1,0.4-0.1,0.6-0.1c0.4,0,0.9,0.1,1.2,0.2C37.2,8.9,37.4,9,37.4,9c0.1,0.1,0.2,0.2,0.1,0.4C37.4,9.5,37.2,9.5,37.1,9.5z"/>
		</g>
		
			<path fill="#C18963" stroke="#C18963" stroke-width="0.3126" stroke-linecap="round" stroke-linejoin="round" stroke-miterlimit="10" d="
			M34.1,16.3c-0.5-1.6,1.9,0.4,1.9,0.4S34.7,18,34.1,16.3z"/>
		<path opacity="0.1" fill="#231F20" d="M31.9,18.7c0,0-1.2,1.7-5.4-3.6C26.5,15.1,28.2,17.5,31.9,18.7z"/>
		<path fill="#FFC5B3" d="M28.6,9c0,0-0.9-3.3-2.3-0.9c-0.4,0.7-1.8,5.1,1.5,3.1"/>
		
			<path fill="none" stroke="#C18963" stroke-width="0.2857" stroke-linecap="round" stroke-linejoin="round" stroke-miterlimit="10" d="
			M27.5,8.7c0,0-1.1,0.4-0.5,1.7"/>
	</g>
	
		<path fill="none" stroke="#101423" stroke-width="3.8055" stroke-linecap="round" stroke-linejoin="round" stroke-miterlimit="10" d="
		M26.2,17"/>
	<path fill="#FFFFFF" d="M20,28.8c-0.3,1.1,0.3,2.3,1.4,2.6l5.4,1.6c1.1,0.3,2.3-0.3,2.6-1.4l0,0c0.3-1.1-0.3-2.3-1.4-2.6l-5.4-1.7
		C21.6,27.1,20.4,27.7,20,28.8L20,28.8z"/>
	<polygon fill="#0259A6" points="31.2,34.4 21.5,42 15.7,29.2 15.8,28.8 21.7,41 31.4,33.6 	"/>
</g>
</svg>
