<?xml version="1.0" encoding="utf-8"?>
<!-- Generator: Adobe Illustrator 16.0.0, SVG Export Plug-In . SVG Version: 6.00 Build 0)  -->
<!DOCTYPE svg PUBLIC "-//W3C//DTD SVG 1.1//EN" "http://www.w3.org/Graphics/SVG/1.1/DTD/svg11.dtd">
<svg version="1.1" id="Layer_1" xmlns="http://www.w3.org/2000/svg" xmlns:xlink="http://www.w3.org/1999/xlink" x="0px" y="0px"
	 width="40.8px" height="30.4px" viewBox="0 0 40.8 30.4" enable-background="new 0 0 40.8 30.4" xml:space="preserve">
<g>
	<g>
		<path fill="#F4B07D" d="M12.3,30.3c-0.5,0-1-0.1-1.4-0.4c-0.4-0.3-9.6-7-10.4-14.8C-0.1,9.6,0,7.2,0,4.8c0-0.8,0-1.6,0-2.5
			C0.1,1,1.1,0,2.4,0s2.3,1,2.3,2.3c0,1,0,1.8-0.1,2.6c-0.1,2.3-0.1,4.5,0.4,9.6c0.5,4.7,6.3,9.9,8.5,11.5c1,0.8,1.3,2.2,0.5,3.3
			C13.8,29.9,13,30.3,12.3,30.3z"/>
	</g>
	<g>
		<path fill="#101423" d="M10.9,29.8c-0.4-0.3-9.6-7-10.4-14.8C-0.1,9.6,0,7.2,0,4.8c0-0.8,0-1.6,0-2.5h4.7c0,1,0,1.8-0.1,2.6
			c-0.1,2.3-0.1,4.5,0.4,9.6c0.5,4.7,6.3,9.9,8.5,11.5L10.9,29.8z"/>
	</g>
	<g>
		<path fill="#F4B07D" d="M12.3,30.3c-0.5,0-1-0.1-1.4-0.4c-0.4-0.3-9.6-7-10.4-14.8C-0.1,9.6,0,7.2,0,4.8c0-0.8,0-1.6,0-2.5
			C0.1,1,1.1,0,2.4,0s2.3,1,2.3,2.3c0,1,0,1.8-0.1,2.6c-0.1,2.3-0.1,4.5,0.4,9.6c0.5,4.7,6.3,9.9,8.5,11.5c1,0.8,1.3,2.2,0.5,3.3
			C13.8,29.9,13,30.3,12.3,30.3z"/>
	</g>
	<g>
		<path fill="#101423" d="M10.9,29.8c-0.4-0.3-9.6-7-10.4-14.8C-0.1,9.6,0,7.2,0,4.8c0-0.8,0-1.6,0-2.5h4.7c0,1,0,1.8-0.1,2.6
			c-0.1,2.3-0.1,4.5,0.4,9.6c0.5,4.7,6.3,9.9,8.5,11.5L10.9,29.8z"/>
	</g>
	<g>
		<path fill="#F4B07D" d="M28.5,30.3c-0.7,0-1.4-0.3-1.9-1c-0.8-1-0.5-2.5,0.5-3.3l0,0c2.2-1.6,8-6.8,8.5-11.5
			c0.6-5.1,0.5-7.3,0.4-9.5c0-0.8-0.1-1.7-0.1-2.6C36,1,37.1,0,38.4,0s2.3,1,2.3,2.3c0,0.9,0,1.7,0,2.5c0.1,2.4,0.1,4.8-0.5,10.2
			c-0.9,7.7-10.1,14.5-10.4,14.8C29.4,30.1,29,30.3,28.5,30.3z"/>
	</g>
	<g>
		<path fill="#101423" d="M29.9,29.8L27.1,26l1.4,1.9L27.1,26c2.2-1.6,8-6.8,8.5-11.5c0.6-5.1,0.5-7.3,0.4-9.5
			c0-0.8-0.1-1.7-0.1-2.6h4.7c0,0.9,0,1.7,0,2.5c0.1,2.4,0.1,4.8-0.5,10.2C39.4,22.8,30.2,29.5,29.9,29.8z"/>
	</g>
	<g>
		<circle fill="#0F1423" cx="12.3" cy="27.9" r="2.4"/>
	</g>
	<g>
		<circle fill="#0F1423" cx="28.4" cy="28" r="2.4"/>
	</g>
</g>
</svg>
