<?xml version="1.0" encoding="utf-8"?>
<!-- Generator: Adobe Illustrator 16.0.0, SVG Export Plug-In . SVG Version: 6.00 Build 0)  -->
<!DOCTYPE svg PUBLIC "-//W3C//DTD SVG 1.1//EN" "http://www.w3.org/Graphics/SVG/1.1/DTD/svg11.dtd">
<svg version="1.1" id="Layer_1" xmlns="http://www.w3.org/2000/svg" xmlns:xlink="http://www.w3.org/1999/xlink" x="0px" y="0px"
	 width="30px" height="82.3px" viewBox="0 0 30 82.3" enable-background="new 0 0 30 82.3" xml:space="preserve">
<g>
	<g>
		<path fill="#776537" d="M6.7,17.2c0,0-0.8,0.3-0.8,1.6c0,0.4,0.2,1.6-0.6,1.7c0,0,1,0.1,1.3-0.5c0,0-0.1,1.2-0.5,1.5
			c0,0,2.8,1.2,3.3-1.5L9.2,16C9.2,16,7.4,15.3,6.7,17.2z"/>
	</g>
	<g>
		<path fill="#776537" d="M23.5,17.2c0,0,0.8,0.3,0.8,1.6c0,0.4-0.2,1.6,0.6,1.7c0,0-1,0.1-1.3-0.5c0,0,0.1,1.2,0.5,1.5
			c0,0-2.8,1.2-3.3-1.5L21,16C21,16,22.8,15.3,23.5,17.2z"/>
	</g>
	<g>
		<g>
			<polygon fill="#B7B7B7" points="5.8,23.7 7.7,23.5 8,25.6 			"/>
		</g>
		<g>
			<polygon fill="#B7B7B7" points="24.4,23.7 22.5,23.5 22.2,25.6 			"/>
		</g>
		<g>
			<path fill="#F4B07D" d="M26.3,36.5H4c0,0,3.7-13.5,3.7-20c0-3.7,15-3.7,15,0C22.6,25.9,26.3,36.5,26.3,36.5z"/>
		</g>
		<g>
			<g>
				<path fill="#776537" d="M15.3,3.8c0,0-2.9-4.1-8.3,0.1c-2.2,1.7-3.1,8.6,0.5,12.3l7.9-8.9L15.3,3.8z"/>
			</g>
			<g>
				<path fill="#776537" d="M15.3,3.8c0,0,2.9-4.1,8.3,0.1c2.2,1.7,3.1,8.6-0.5,12.3l-7.9-8.9L15.3,3.8z"/>
			</g>
			<g>
				<path fill="#F4B07D" d="M22.2,8.5c0,0-2.5-3.2-7.3-3.1c-4.8-0.1-6.8,3.1-6.8,3.1c-1.7,2.7-1.2,11.2-1.2,11.2
					c0,4.2,5.8,7.5,8.2,7.5c2.4,0,8.3-3.1,8.3-7.5C23.4,19.6,23.8,11.2,22.2,8.5z"/>
			</g>
			<g opacity="0.2">
				<g>
					<path fill="#231F20" d="M17.2,15.4c0.1,0.1,0.2,0.2,0.2,0.3c0,0.1,0.1,0.1,0.1,0.2c0,0.1,0,0.2,0,0.2c0,0.1,0,0.2-0.1,0.2
						l-0.2,0.2c-0.1,0.1-0.1,0.1-0.2,0.1l-0.2,0.1l0,0l0,0c-0.2,0-0.3,0.1-0.5,0.2c-0.1,0-0.1,0.1-0.2,0.1c0,0.1-0.1,0.1-0.2,0.2
						c0,0.1-0.1,0.2-0.2,0.2c-0.1,0.1-0.2,0.1-0.3,0.1c-0.1,0.1-0.2,0-0.3,0.1c-0.1,0-0.2,0-0.3,0c-0.2,0-0.3,0-0.6-0.1
						c-0.1,0-0.2-0.1-0.3-0.1c-0.1-0.1-0.2-0.1-0.2-0.2l0-0.1c0,0,0,0,0,0l0,0l-0.1-0.1C13.7,17,13.6,17,13.5,17
						c-0.1-0.1-0.3-0.1-0.5-0.2l0,0l0,0l-0.2-0.1c-0.1,0-0.1-0.1-0.2-0.1l-0.2-0.2c0-0.1-0.1-0.2-0.1-0.2c0-0.1,0-0.2,0-0.2
						c0-0.1,0.1-0.1,0.1-0.2c0.1-0.1,0.1-0.2,0.2-0.3c0,0,0.1,0,0.1,0c0,0,0,0.1,0,0.1l0,0c-0.1,0.1-0.1,0.2-0.2,0.3
						c0,0.1,0,0.1,0,0.2c0,0,0,0.1,0,0.1c0,0,0,0.1,0.1,0.1l0.1,0.1c0,0,0.1,0.1,0.1,0.1l0.2,0.1l0,0c0.2,0,0.4,0.1,0.6,0.2
						c0.1,0,0.2,0.1,0.2,0.2L14,17l0,0c0,0.1,0,0,0,0l0,0.1c0,0.1,0.1,0.1,0.2,0.2c0,0.1,0.1,0.1,0.2,0.1c0.1,0.1,0.3,0,0.5,0.1
						l0.2,0c0.1,0,0.2,0,0.2,0c0.1,0,0.2,0,0.2-0.1c0,0,0.1-0.1,0.2-0.2c0-0.1,0.1-0.1,0.2-0.2c0.1-0.1,0.2-0.1,0.3-0.2
						c0.2-0.1,0.4-0.1,0.6-0.2l0,0l0.2-0.1c0,0,0.1,0,0.1-0.1l0.1-0.1c0,0,0-0.1,0.1-0.1c0,0,0-0.1,0-0.1c0,0,0-0.1,0-0.2
						c0-0.1-0.1-0.2-0.2-0.3c0,0,0-0.1,0-0.1C17.1,15.4,17.2,15.4,17.2,15.4z"/>
				</g>
			</g>
			<g>
				<path fill="#593B2E" d="M9.1,12.6c0,0,1.8-1.2,3.9-0.2c0,0,0.7-0.3,0.2-0.6C13.2,11.8,10.7,10.9,9.1,12.6z"/>
			</g>
			<g>
				<path fill="#F4B07D" d="M7.6,14.6c0,0-1.6-2.6-2.1-0.2c-0.2,0.7-0.2,4.7,2.1,2.2"/>
			</g>
			<g>
				<path fill="#C18963" d="M6.6,16.4C6.6,16.4,6.5,16.3,6.6,16.4c-0.4-0.4-0.5-0.7-0.5-1c0-0.5,0.4-0.7,0.4-0.7c0.1,0,0.1,0,0.2,0
					c0,0.1,0,0.1,0,0.2c0,0-0.3,0.2-0.3,0.6c0,0.3,0.1,0.5,0.3,0.8C6.7,16.2,6.7,16.3,6.6,16.4C6.7,16.3,6.6,16.4,6.6,16.4z"/>
			</g>
			<g>
				<path fill="#F4B07D" d="M22.5,14.6c0,0,1.6-2.6,2.1-0.2c0.2,0.7,0.2,4.7-2.1,2.2"/>
			</g>
			<g>
				<path fill="#C18963" d="M23.5,16.4C23.4,16.4,23.4,16.3,23.5,16.4c-0.1-0.1-0.1-0.2-0.1-0.2c0.2-0.3,0.4-0.6,0.3-0.8
					c0-0.3-0.3-0.6-0.3-0.6c-0.1,0-0.1-0.1,0-0.2c0-0.1,0.1-0.1,0.2,0c0,0,0.4,0.3,0.4,0.7C24,15.6,23.9,16,23.5,16.4
					C23.5,16.3,23.5,16.4,23.5,16.4z"/>
			</g>
			<g>
				<path fill="#776537" d="M6.7,5.7c0,0-0.9,5.5-0.8,5.5C6,11.3,10.3,9,10.3,9l5-1.7l7.4,2.3l1.5-0.6L23.4,5l-7.2-0.8l-5.7,0.6
					L6.7,5.7z"/>
			</g>
			<g opacity="0.3">
				<path fill="#231F20" d="M15.3,7.3c0,0,3,7,9.7,3.4c0,0-1.9-1-2.2-2.4"/>
			</g>
			<g opacity="0.3">
				<path fill="#231F20" d="M15.2,7.2c0,0-1.8,5.3-8.4,3.5c0,0,1.5-0.7,2.1-2"/>
			</g>
			<g>
				<path fill="#776537" d="M15.3,7.3c0,0,2.8,6,9.2,3.3c0,0-1.4-1.1-1.8-2.4"/>
			</g>
			<g>
				<path fill="#776537" d="M15.2,7.2c0,0-2.3,4.3-7.7,3.4c0,0,1.2-1,1.4-2.1"/>
			</g>
			<g>
				<path fill="#776537" d="M12.7,2.3c0,0,1-0.4,0.7-1.8c0,0,1.1,1.1,1.1,2.2c0,0,0.5-2.3,1.4-2.6c0,0-0.3,3,2.6,2.1l-0.5,1.2
					l-2.1,2.5L12,5.1L12.7,2.3z"/>
			</g>
			<g>
				<path fill="#C18963" d="M13.6,18.7c0,0,3.6-0.7,3.8-0.1c0.2,0.7-1,3.4-2.4,2c-0.2-0.3-0.4-0.4-0.8-0.8
					C14,19.7,12.8,19.1,13.6,18.7z"/>
				<path fill="#C18963" d="M15.8,21.2c-0.3,0-0.6-0.2-0.9-0.4c-0.2-0.2-0.3-0.3-0.4-0.4l-0.3-0.3c0,0-0.1-0.1-0.2-0.1
					c-0.3-0.2-0.7-0.5-0.7-0.8c0-0.2,0.1-0.3,0.4-0.5c0,0,0,0,0,0c0.1,0,1.7-0.3,2.8-0.3c0.7,0,1,0.1,1.1,0.4
					c0.1,0.4-0.2,1.4-0.7,1.9C16.5,21,16.2,21.2,15.8,21.2z M13.7,18.8c-0.1,0-0.2,0.1-0.2,0.2c0,0.2,0.4,0.4,0.6,0.5
					c0.1,0.1,0.2,0.1,0.2,0.2l0.3,0.3c0.2,0.2,0.3,0.3,0.4,0.4c0.2,0.2,0.5,0.4,0.7,0.4c0.4,0,0.7-0.3,0.8-0.5
					c0.5-0.6,0.7-1.4,0.6-1.7c0,0-0.1-0.2-0.8-0.2C15.4,18.5,13.9,18.8,13.7,18.8z"/>
			</g>
			<g>
				<path fill="#2E230E" d="M12.4,12.7c0,0,0.7,1.5-0.5,2C11.9,14.7,13.5,14.3,12.4,12.7z"/>
			</g>
			<g>
				<path fill="#2E230E" d="M9.9,13.9c0,0,2-0.4,2.8,0.1C12.7,13.9,13.3,12.8,9.9,13.9z"/>
			</g>
			<g>
				<path fill="#593B2E" d="M20.9,12.6c0,0-1.8-1.2-3.9-0.2c0,0-0.7-0.3-0.2-0.6C16.8,11.8,19.3,10.9,20.9,12.6z"/>
			</g>
			<g>
				<path fill="#2E230E" d="M17.6,12.7c0,0-0.7,1.5,0.5,2C18.1,14.7,16.4,14.3,17.6,12.7z"/>
			</g>
			<g>
				<path fill="#2E230E" d="M20.1,13.9c0,0-2-0.4-2.8,0.1C17.3,13.9,16.7,12.8,20.1,13.9z"/>
			</g>
		</g>
		<g opacity="0.1">
			<path fill="#232222" d="M7.3,21.4c0,0,2.4,6.3,8.3,5.6c0,0,5.3-0.1,7.2-5.7c0,0-4.2,4.5-8.2,4C14.5,25.3,11,25.1,7.3,21.4z"/>
		</g>
	</g>
	<g>
		<path fill="#263451" d="M10,80.8c-1.4,0-2.6-1.2-2.6-2.6V52.7c0-1.4,1.2-2.6,2.6-2.6c1.4,0,2.6,1.2,2.6,2.6v25.5
			C12.6,79.6,11.5,80.8,10,80.8z"/>
	</g>
	<g>
		<path fill="#263451" d="M19.7,80.8c-1.4,0-2.6-1.2-2.6-2.6V52.7c0-1.4,1.2-2.6,2.6-2.6s2.6,1.2,2.6,2.6v25.5
			C22.3,79.6,21.2,80.8,19.7,80.8z"/>
	</g>
	<g>
		<path fill="#F4B07D" d="M6.5,26.8C5.2,32.5,2.6,32,2.6,41.6c0,11.8,0,9.7,0,10c0,0,1.3,0,1.3,0h11.2V26.8H6.5z"/>
	</g>
	<g>
		<path fill="#F4B07D" d="M23.4,26.8c1.3,5.7,3.9,5.2,3.9,14.8c0,11.8,0,9.7,0,10c0,0-1.3,0-1.3,0H14.7V26.8H23.4z"/>
	</g>
	<g>
		<g opacity="0.2">
			<circle fill="#232222" cx="9.3" cy="35.2" r="1.1"/>
		</g>
		<g opacity="0.2">
			<circle fill="#232222" cx="9.3" cy="35.2" r="0.6"/>
		</g>
	</g>
	<g>
		<g opacity="0.2">
			<circle fill="#232222" cx="20.6" cy="35.2" r="1.1"/>
		</g>
		<g opacity="0.2">
			<circle fill="#232222" cx="20.6" cy="35.2" r="0.6"/>
		</g>
	</g>
	<g opacity="0.2">
		<ellipse fill="#232222" cx="15.1" cy="46.4" rx="0.3" ry="0.6"/>
	</g>
	<g>
		<path fill="#263451" d="M14.9,62c6.9,0,12.4-4.3,12.4-11.1H2.5C2.5,57.7,8.1,62,14.9,62z"/>
	</g>
	<g>
		<path fill="#1C1C1C" d="M12.6,78.9c-7,0-12.6,1.5-12.6,3.3h12.6V78.9z"/>
	</g>
	<g>
		<path fill="#1C1C1C" d="M17.1,78.9c7,0,12.6,1.5,12.6,3.3H17.1V78.9z"/>
	</g>
	<g>
		<rect x="7.1" y="77.3" fill="#263451" width="5.7" height="2"/>
	</g>
	<g>
		<rect x="16.9" y="77.3" fill="#263451" width="5.7" height="2"/>
	</g>
	<g>
		<rect x="2.6" y="50.9" fill="#161516" width="24.7" height="1.9"/>
	</g>
	<g>
		<rect x="13.3" y="50.9" fill="#D6D6D6" width="3.5" height="1.9"/>
	</g>
	<g>
		<rect x="6.4" y="26.5" fill="#FFFFFF" width="16.9" height="24.4"/>
	</g>
	<g>
		<path fill="#101423" d="M1.1,45.2c0,0-0.1,5.9-0.5,8.6c0,0,0.8,0.4,2.8,0.4c0,0,4,0.5,4.5,0l-0.1-5.9L1.1,45.2z"/>
	</g>
	<g>
		<path fill="#101423" d="M7.7,25.8v25.4H1.4c0,0-2-18.5,4.5-25.4H7.7z"/>
	</g>
	<g>
		<path fill="#101423" d="M29.4,45.9c0,0,0,6,0.6,8c0,0-1.5,0.4-3.5,0.4c0,0-3.7,0.3-4.1-0.2l0.1-5.9L29.4,45.9z"/>
	</g>
	<g>
		<path fill="#101423" d="M22.5,25.8v25.4h6.9c0,0,1.2-21-4.9-25.4H22.5z"/>
	</g>
	<g>
		<polygon fill="#192033" points="7.6,25.8 4.2,30.2 7.4,30.5 4.2,34.6 7.6,47.1 		"/>
	</g>
	<g>
		<polygon fill="#192033" points="22.5,25.8 25.9,30.2 22.7,30.5 25.9,34.6 22.5,47.1 		"/>
	</g>
	<g>
		<g>
			<g>
				<polygon fill="#192033" points="12.5,26.6 15,29.2 17.6,26.6 15.1,26 				"/>
			</g>
			<g>
				<path fill="#192033" d="M15.9,28.1l-0.8-0.8v-0.1l0,0l0,0l0,0.1l-0.8,0.8l-1.8,17.5c0,0,2,4.6,2.7,4.6c0.9,0,2.6-4.6,2.6-4.6
					L15.9,28.1z"/>
			</g>
		</g>
		<g>
			<polygon fill="#D6D6D6" points="6.5,24 15.2,26 12.5,28.8 5.8,25.8 5.8,23.7 			"/>
		</g>
		<g>
			<polygon fill="#D6D6D6" points="23.8,24 15.1,26 17.8,28.8 24.5,25.8 24.5,23.7 			"/>
		</g>
	</g>
	<g>
		<g>
			<path fill="#F4B07D" d="M21.5,22.1c0,0-1.4,4.3-6.4,4.3c-5,0-7.2-5.3-7.2-5.3s2.7,1.3,7.1,1.3C14.9,22.4,17.2,21.7,21.5,22.1z"/>
		</g>
	</g>
	<g>
		<g opacity="0.1">
			<path fill="#232222" d="M18.9,22.5c0,0-0.6,2.2-3.9,2.2c-3.2,0-3.9-2.2-3.9-2.2s1.2,1.7,4,1.7C15.2,24.2,17.1,24.4,18.9,22.5z"/>
		</g>
	</g>
</g>
</svg>
