<?xml version="1.0" encoding="utf-8"?>
<!-- Generator: Adobe Illustrator 16.0.0, SVG Export Plug-In . SVG Version: 6.00 Build 0)  -->
<!DOCTYPE svg PUBLIC "-//W3C//DTD SVG 1.1//EN" "http://www.w3.org/Graphics/SVG/1.1/DTD/svg11.dtd">
<svg version="1.1" id="Layer_1" xmlns="http://www.w3.org/2000/svg" xmlns:xlink="http://www.w3.org/1999/xlink" x="0px" y="0px"
	 width="79.3px" height="48px" viewBox="0 0 79.3 48" enable-background="new 0 0 79.3 48" xml:space="preserve">
<g>
	<g>
		<g>
			<g>
				
					<rect x="46.3" y="21.3" transform="matrix(0.3587 0.9335 -0.9335 0.3587 55.3983 -30.6344)" fill="#DF300A" width="7.4" height="7.4"/>
				<circle fill="#FFFFFF" cx="50" cy="25" r="3"/>
				<g>
					
						<rect x="49.1" y="22.9" transform="matrix(0.3587 0.9334 -0.9334 0.3587 55.394 -30.636)" fill="#132356" width="1.7" height="4.2"/>
					
						<rect x="49.1" y="22.9" transform="matrix(-0.9334 0.3588 -0.3588 -0.9334 105.6281 30.3941)" fill="#132356" width="1.7" height="4.2"/>
				</g>
			</g>
		</g>
	</g>
	<g>
		<g>
			
				<path fill="none" stroke="#F4B07D" stroke-width="3.7977" stroke-linecap="round" stroke-linejoin="round" stroke-miterlimit="10" d="
				M56.1,17.6c0,0,8.8,0,12.5-4.2c3.8-4.3,6.6-8.7,8.4-11.1"/>
			
				<path fill="none" stroke="#F4B07D" stroke-width="4.68" stroke-linecap="round" stroke-linejoin="round" stroke-miterlimit="10" d="
				M56.1,17.6c0,0,8.8,0,12.5-4.2c3.9-4.3,6.6-8.7,8.4-11.1"/>
			
				<path fill="none" stroke="#F4B07D" stroke-width="3.7977" stroke-linecap="round" stroke-linejoin="round" stroke-miterlimit="10" d="
				M56.1,17.6c0,0,8.8,0,12.5-4.2c3.8-4.3,6.6-8.7,8.4-11.1"/>
			
				<path fill="none" stroke="#212121" stroke-width="4.68" stroke-linecap="round" stroke-linejoin="round" stroke-miterlimit="10" d="
				M56.1,17.6c0,0,3.4,0,6.9-1"/>
			<path fill="none" stroke="#212121" stroke-width="4.78" stroke-linejoin="round" stroke-miterlimit="10" d="M56.1,17.6
				c0,0,8.8,0,12.5-4.2c2.8-3,5-6.2,6.6-8.6"/>
		</g>
		<g>
			<path fill="#E4AA8A" d="M52.2,28.6l-4-13c0,0,6,0.9,16.1-2.2c2.9-0.9,5.3,7,2.4,7.9C53.3,25.4,52.2,28.6,52.2,28.6z"/>
			<path opacity="0.2" fill="#231F20" d="M63.4,13.2c0,0-2.9,4.3-1.6,9.7l1.5-0.5C63.2,22.4,62.5,19.6,63.4,13.2z"/>
			<path fill="#E4AA8A" d="M63,13.3c0,0-2.6,13.3,2,12.1c0,0,2.4-0.9,3.7-0.8c0,0,1.3,1,2.2-0.8c0,0,1.1-0.8,3-1.2
				c0,0,3-0.9,3.5-3.9l-2.5-6.4l-4.1-1.9L63,13.3z"/>
			<path fill="#0D0908" d="M66.9,15.8c-0.1,0-0.1,0.1-0.2,0.1L66.5,16l-0.4-0.4c0.4-0.1,0.6-0.2,0.6-0.2L66.9,15.8z"/>
			<path fill="#0D0908" d="M73.7,8.3c0,0,2.5,0.6,3.9,4.4c0.7,2,2,8.4-0.9,8.5c-0.6,0-0.3-0.8-0.6-2.5c0,0-0.2-3.4-1.2-3.6
				c0,0-2.4,2.3-3.5,1.2c0,0-1.3-2.1-3.6-1.2l-1.1,0.7c0.1-0.1,0.1-0.1,0.2-0.1l-0.1-0.3c0,0-0.3,0.1-0.6,0.2l0,0c0,0,2-0.6,2.1-1.8
				c0,0,0.3-1.5-0.6-1.4c0,0-3.7,2-5,1.2c0,0,0.2-1.9,4.3-4C67,9.7,71.9,7.4,73.7,8.3z"/>
			<g opacity="0.4">
				<path opacity="0.2" fill="#231F20" d="M66.8,15.4l0.1,0.3c-2.3,1.7-2.5,4.6-1.4,5.6c0.3,0.3,0.9,0.1,1.2,0.2
					c1.3,0.5,1.9,2,2.1,3c0,0,0,0,0,0c-0.3,0-0.6,0-0.9,0c-0.3-0.9-0.8-2.1-1.9-2.4c0,0-0.5,1.2,0,2.8c-0.6,0.2-1,0.3-1,0.3
					c-2.9,0.8-2.9-4.2-2.5-8c0.3-0.3,0.7-0.5,1.1-0.7C63.9,16.5,66.8,15.4,66.8,15.4z"/>
			</g>
			<g>
				<path fill="#231F20" d="M72.7,22.5c0,0,0-0.2-0.1-0.5c0-0.2-0.1-0.3-0.1-0.5c-0.1-0.2-0.1-0.4-0.2-0.6c-0.1-0.4-0.3-0.8-0.5-1.1
					c-0.1-0.3-0.2-0.5-0.2-0.5l0,0c0,0,0-0.1,0-0.1c0,0,0.1,0,0.1,0c0,0,0.1,0.2,0.3,0.5c0.1,0.3,0.4,0.7,0.5,1.1
					c0.1,0.2,0.2,0.4,0.2,0.6c0.1,0.2,0.1,0.4,0.2,0.5c0.1,0.3,0.1,0.5,0.1,0.5l0,0c0,0.1-0.1,0.2-0.1,0.2S72.7,22.6,72.7,22.5
					C72.7,22.5,72.7,22.5,72.7,22.5z"/>
			</g>
			
				<ellipse transform="matrix(0.3606 0.9327 -0.9327 0.3606 64.7818 -46.81)" fill="#231F20" cx="66.5" cy="23.8" rx="0.7" ry="0.2"/>
		</g>
		
			<polyline fill="none" stroke="#F4B07D" stroke-width="5" stroke-linecap="round" stroke-linejoin="round" stroke-miterlimit="10" points="
			33.7,31.3 20,36.6 5.9,39.9 		"/>
		<path fill="#1C1C1C" d="M5.4,37.5C6.2,43.1,5.5,47.8,4,48L2.7,37.8L5.4,37.5z"/>
		
			<polyline fill="none" stroke="#F4B07D" stroke-width="5" stroke-linecap="round" stroke-linejoin="round" stroke-miterlimit="10" points="
			31.7,24.6 17.9,30 3.8,33.3 		"/>
		<path fill="#1C1C1C" d="M4,30.7c-0.7,5.6-2.5,10-4,9.8l1.3-10.2L4,30.7z"/>
		
			<line fill="none" stroke="#FFFFFF" stroke-width="5" stroke-linecap="square" stroke-linejoin="round" stroke-miterlimit="10" x1="33.7" y1="31.3" x2="23.5" y2="35.3"/>
		<path fill="#333333" d="M61.4,23.7c-4.1,2.4-3.1,4.3-10.6,6.6c-9.2,2.8-11.2,3.5-11.4,3.5c0,0-0.3-1-0.3-1l-2.7-8.7l23-7.1
			L61.4,23.7z"/>
		<path fill="#333333" d="M58.5,14.4c-4.7,0.3-5-1.8-12.4,0.5c-9.2,2.8-11.2,3.5-11.4,3.5c0,0,0.3,1,0.3,1l2.7,8.7l23-7.1L58.5,14.4
			z"/>
		<g>
			
				<rect x="46.3" y="21.3" transform="matrix(0.3587 0.9335 -0.9335 0.3587 55.3983 -30.6344)" fill="#DF300A" width="7.4" height="7.4"/>
			<circle fill="#FFFFFF" cx="50" cy="25" r="3"/>
			<g>
				
					<rect x="49.1" y="22.9" transform="matrix(0.3587 0.9334 -0.9334 0.3587 55.394 -30.636)" fill="#132356" width="1.7" height="4.2"/>
				
					<rect x="49.1" y="22.9" transform="matrix(-0.9334 0.3588 -0.3588 -0.9334 105.6281 30.3941)" fill="#132356" width="1.7" height="4.2"/>
			</g>
		</g>
		<path fill="#FFFFFF" d="M30.1,28.3c-1.3-4.3,0.3-8.5,4.5-9.9l4.8,15.4C35.2,35.2,31.4,32.5,30.1,28.3z"/>
		
			<line fill="none" stroke="#FFFFFF" stroke-width="5" stroke-linecap="square" stroke-linejoin="round" stroke-miterlimit="10" x1="31.7" y1="24.6" x2="21.4" y2="28.6"/>
		<g>
			
				<path fill="none" stroke="#F4B07D" stroke-width="3.7977" stroke-linecap="round" stroke-linejoin="round" stroke-miterlimit="10" d="
				M54.5,17.2c0,0-0.1,8.8,4,12.5c4.2,3.9,8.6,6.7,11,8.5"/>
			
				<path fill="none" stroke="#F4B07D" stroke-width="4.68" stroke-linecap="round" stroke-linejoin="round" stroke-miterlimit="10" d="
				M54.4,17.2c0,0-0.1,8.8,4,12.6c4.2,3.9,8.6,6.8,11,8.6"/>
			
				<path fill="none" stroke="#212121" stroke-width="4.8" stroke-linecap="round" stroke-linejoin="round" stroke-miterlimit="10" d="
				M54.4,17.2c0,0,0,3.4,0.9,6.9"/>
			<path fill="none" stroke="#212121" stroke-width="4.78" stroke-linejoin="round" stroke-miterlimit="10" d="M54.4,17.2
				c0,0-0.1,8.8,4,12.6c3,2.8,6.1,5,8.5,6.8"/>
		</g>
		<path fill="#E4AA8A" d="M68.2,13.6c0,0,1.7-1.9-0.4-1.8c-0.6,0-3.8,1-1.3,2.2"/>
		
			<path fill="none" stroke="#C18963" stroke-width="0.2114" stroke-linecap="round" stroke-linejoin="round" stroke-miterlimit="10" d="
			M67.9,12.9c0,0-0.7-0.5-1.3,0.4"/>
		
			<path fill="none" stroke="#101423" stroke-width="3.8055" stroke-linecap="round" stroke-linejoin="round" stroke-miterlimit="10" d="
			M61.5,17.6"/>
	</g>
</g>
</svg>
